<?xml version="1.0" encoding="utf-8"?>
<!-- Generator: Adobe Illustrator 16.0.0, SVG Export Plug-In . SVG Version: 6.00 Build 0)  -->
<!DOCTYPE svg PUBLIC "-//W3C//DTD SVG 1.1//EN" "http://www.w3.org/Graphics/SVG/1.1/DTD/svg11.dtd">
<svg version="1.1" id="Calque_1" xmlns="http://www.w3.org/2000/svg" xmlns:xlink="http://www.w3.org/1999/xlink" x="0px" y="0px"
	 width="400px" height="400px" viewBox="0 0 400 400" enable-background="new 0 0 400 400" xml:space="preserve">
<g id="calque00">
	<g>
		<path fill="#CC924C" stroke="#333333" stroke-width="2.6539" stroke-linecap="round" stroke-miterlimit="10" d="M103.612,155.356
			l0.529-9.391c0-1.108,0.9-2.008,2.009-2.008l0,0c1.107,0,2.006,0.899,2.006,2.008l0.532,9.391"/>
		<g>
			
				<path fill="#A1C453" stroke="#333333" stroke-width="1.0616" stroke-linecap="round" stroke-linejoin="round" stroke-miterlimit="10" d="
				M107.698,143.798c0,0-1.187-2.891-1.571-3.398c-0.307-0.408-0.995,2.865-1.03,4.084L107.698,143.798z"/>
			
				<path fill="#A1C453" stroke="#333333" stroke-width="1.0616" stroke-linecap="round" stroke-linejoin="round" stroke-miterlimit="10" d="
				M105.231,143.548l3.211,3.577c0,0,0.712-4.73-0.462-6.351C107.98,140.774,106.532,142.586,105.231,143.548z"/>
			
				<path fill="#A1C453" stroke="#333333" stroke-width="1.0616" stroke-linecap="round" stroke-linejoin="round" stroke-miterlimit="10" d="
				M104.608,149.252c0,0-2.354-5.454-0.567-8.478l2.899,3.577L104.608,149.252z"/>
		</g>
	</g>
</g>
<g id="calque01">
	<g>
		<g>
			
				<path fill="#A1C453" stroke="#333333" stroke-width="1.0616" stroke-linecap="round" stroke-linejoin="round" stroke-miterlimit="10" d="
				M98.566,130.978c1.311-0.055,1.939-0.816,4.009,1.003c2.065,1.818-0.111,2.424,1.249,3.621c-1.36-1.197-1.799,1.017-3.788-0.734
				C98.043,133.116,98.788,132.269,98.566,130.978z"/>
			<g>
				<line fill="none" x1="103.823" y1="135.602" x2="99.749" y2="132.019"/>
				<g>
					<polyline fill="none" stroke="#333333" stroke-width="1.0616" stroke-linecap="round" stroke-miterlimit="10" points="
						103.425,135.251 102.908,134.797 101.848,133.864 101.399,133.47 					"/>
					
						<line fill="none" stroke="#333333" stroke-width="1.0616" stroke-linecap="round" stroke-miterlimit="10" x1="100.147" y1="132.369" x2="100.204" y2="132.418"/>
				</g>
			</g>
		</g>
		<path fill="#CC924C" stroke="#333333" stroke-width="2.6539" stroke-linecap="round" stroke-miterlimit="10" d="M108.688,155.356
			l-0.532-29.193c0-1.107-0.897-2.008-2.007-2.008l0,0c-1.106,0-2.008,0.9-2.008,2.008l-0.529,29.193"/>
		<g>
			
				<path fill="#A1C453" stroke="#333333" stroke-width="1.0616" stroke-linecap="round" stroke-linejoin="round" stroke-miterlimit="10" d="
				M104.601,123.995c0,0,1.188-2.89,1.574-3.398c0.306-0.408,0.995,2.863,1.028,4.084L104.601,123.995z"/>
			
				<path fill="#A1C453" stroke="#333333" stroke-width="1.0616" stroke-linecap="round" stroke-linejoin="round" stroke-miterlimit="10" d="
				M107.068,123.745l-3.212,3.578c0,0-0.711-4.731,0.464-6.352C104.32,120.972,105.768,122.783,107.068,123.745z"/>
			
				<path fill="#A1C453" stroke="#333333" stroke-width="1.0616" stroke-linecap="round" stroke-linejoin="round" stroke-miterlimit="10" d="
				M107.69,129.449c0,0,2.355-5.454,0.569-8.478l-2.9,3.575L107.69,129.449z"/>
		</g>
	</g>
</g>
<g id="calque02">
	<g>
		<g>
			
				<path fill="#A1C453" stroke="#333333" stroke-width="1.5923" stroke-linecap="round" stroke-linejoin="round" stroke-miterlimit="10" d="
				M92.684,123.973c2.854-0.119,4.228-1.78,8.736,2.184c4.507,3.965-0.243,5.285,2.722,7.896c-2.965-2.609-3.917,2.218-8.259-1.602
				C91.541,128.633,93.166,126.783,92.684,123.973z"/>
			<g>
				<line fill="none" x1="104.142" y1="134.051" x2="95.261" y2="126.24"/>
				<g>
					<polyline fill="none" stroke="#333333" stroke-width="1.0616" stroke-linecap="round" stroke-miterlimit="10" points="
						103.743,133.7 103.227,133.246 97.359,128.086 96.911,127.691 					"/>
					
						<line fill="none" stroke="#333333" stroke-width="1.0616" stroke-linecap="round" stroke-miterlimit="10" x1="95.659" y1="126.591" x2="95.715" y2="126.64"/>
				</g>
			</g>
		</g>
		<g>
			
				<path fill="#A1C453" stroke="#333333" stroke-width="1.0616" stroke-linecap="round" stroke-linejoin="round" stroke-miterlimit="10" d="
				M112.768,117.113c0.132,1.28,0.916,1.854-0.744,3.985c-1.661,2.133-2.382,0.033-3.476,1.437c1.094-1.403-1.104-1.701,0.497-3.754
				C110.644,116.726,111.518,117.407,112.768,117.113z"/>
			<g>
				<line fill="none" x1="108.548" y1="122.535" x2="111.482" y2="118.821"/>
				<g>
					<polyline fill="none" stroke="#333333" stroke-width="1.0616" stroke-linecap="round" stroke-miterlimit="10" points="
						108.877,122.119 109.304,121.579 109.749,121.015 110.12,120.546 					"/>
					
						<line fill="none" stroke="#333333" stroke-width="1.0616" stroke-linecap="round" stroke-miterlimit="10" x1="111.153" y1="119.237" x2="111.107" y2="119.296"/>
				</g>
			</g>
		</g>
		<path fill="#CC924C" stroke="#333333" stroke-width="2.6539" stroke-linecap="round" stroke-miterlimit="10" d="M108.688,155.356
			l-0.532-38.316c0-1.107-0.897-2.007-2.007-2.007l0,0c-1.106,0-2.008,0.899-2.008,2.007l-0.529,38.316"/>
		<g>
			
				<path fill="#A1C453" stroke="#333333" stroke-width="1.0616" stroke-linecap="round" stroke-linejoin="round" stroke-miterlimit="10" d="
				M104.601,114.873c0,0,1.188-2.891,1.574-3.398c0.306-0.408,0.995,2.863,1.028,4.083L104.601,114.873z"/>
			
				<path fill="#A1C453" stroke="#333333" stroke-width="1.0616" stroke-linecap="round" stroke-linejoin="round" stroke-miterlimit="10" d="
				M107.068,114.623l-3.212,3.577c0,0-0.712-4.73,0.464-6.351C104.32,111.85,105.769,113.661,107.068,114.623z"/>
			
				<path fill="#A1C453" stroke="#333333" stroke-width="1.0616" stroke-linecap="round" stroke-linejoin="round" stroke-miterlimit="10" d="
				M107.69,120.326c0,0,2.354-5.453,0.569-8.477l-2.9,3.575L107.69,120.326z"/>
		</g>
	</g>
</g>
<g id="calque03">
	<g>
		
			<polygon fill="#CC924C" stroke="#333333" stroke-width="1.0616" stroke-linecap="round" stroke-linejoin="round" stroke-miterlimit="10" points="
			112.438,116.666 108.156,124.895 108.156,121.9 		"/>
		<g>
			
				<path fill="#A1C453" stroke="#333333" stroke-width="1.5923" stroke-linecap="round" stroke-linejoin="round" stroke-miterlimit="10" d="
				M92.682,123.973c2.856-0.119,4.229-1.78,8.738,2.184c4.507,3.965-0.243,5.285,2.722,7.896c-2.965-2.609-3.918,2.218-8.259-1.602
				C91.541,128.633,93.166,126.783,92.682,123.973z"/>
			<g>
				<line fill="none" x1="104.142" y1="134.051" x2="95.137" y2="126.115"/>
				<g>
					<polyline fill="none" stroke="#333333" stroke-width="1.0616" stroke-linecap="round" stroke-miterlimit="10" points="
						103.743,133.7 103.228,133.245 97.234,127.964 96.785,127.568 					"/>
					
						<line fill="none" stroke="#333333" stroke-width="1.0616" stroke-linecap="round" stroke-miterlimit="10" x1="95.535" y1="126.466" x2="95.591" y2="126.516"/>
				</g>
			</g>
		</g>
		<g>
			
				<path fill="#A1C453" stroke="#333333" stroke-width="1.5923" stroke-linecap="round" stroke-linejoin="round" stroke-miterlimit="10" d="
				M121.814,104.622c0.289,2.842,2.03,4.114-1.656,8.852c-3.688,4.737-5.291,0.075-7.72,3.192c2.429-3.117-2.447-3.779,1.104-8.342
				C117.093,103.761,119.036,105.272,121.814,104.622z"/>
			<g>
				<line fill="none" x1="112.315" y1="116.541" x2="119.578" y2="107.208"/>
				<g>
					<polyline fill="none" stroke="#333333" stroke-width="1.0616" stroke-linecap="round" stroke-miterlimit="10" points="
						112.642,116.122 113.063,115.579 117.861,109.414 118.229,108.942 					"/>
					
						<line fill="none" stroke="#333333" stroke-width="1.0616" stroke-linecap="round" stroke-miterlimit="10" x1="119.252" y1="107.627" x2="119.206" y2="107.686"/>
				</g>
			</g>
		</g>
		<g>
			
				<path fill="#A1C453" stroke="#333333" stroke-width="1.0616" stroke-linecap="round" stroke-linejoin="round" stroke-miterlimit="10" d="
				M95.9,109.971c1.644-0.308,2.3-1.385,5.239,0.533c2.942,1.918,0.303,3.082,2.24,4.342c-1.938-1.26-2.084,1.614-4.916-0.233
				C95.63,112.766,96.415,111.558,95.9,109.971z"/>
			<g>
				<line fill="none" x1="103.38" y1="114.846" x2="97.583" y2="111.068"/>
				<g>
					<polyline fill="none" stroke="#333333" stroke-width="1.0616" stroke-linecap="round" stroke-miterlimit="10" points="
						102.936,114.556 102.359,114.181 99.925,112.595 99.425,112.269 					"/>
					
						<line fill="none" stroke="#333333" stroke-width="1.0616" stroke-linecap="round" stroke-miterlimit="10" x1="98.027" y1="111.358" x2="98.09" y2="111.398"/>
				</g>
			</g>
		</g>
		<path fill="#CC924C" stroke="#333333" stroke-width="2.8307" stroke-linecap="round" stroke-miterlimit="10" d="M108.688,155.356
			l-0.532-46.772c0-1.108-0.897-2.007-2.007-2.007l0,0c-1.106,0-2.008,0.898-2.008,2.007l-0.529,46.772"/>
		<g>
			
				<path fill="#A1C453" stroke="#333333" stroke-width="1.0616" stroke-linecap="round" stroke-linejoin="round" stroke-miterlimit="10" d="
				M104.601,106.417c0,0,1.188-2.891,1.574-3.398c0.306-0.408,0.995,2.863,1.028,4.083L104.601,106.417z"/>
			
				<path fill="#A1C453" stroke="#333333" stroke-width="1.0616" stroke-linecap="round" stroke-linejoin="round" stroke-miterlimit="10" d="
				M107.068,106.165l-3.212,3.579c0,0-0.711-4.731,0.463-6.354C104.319,103.391,105.768,105.205,107.068,106.165z"/>
			
				<path fill="#A1C453" stroke="#333333" stroke-width="1.0616" stroke-linecap="round" stroke-linejoin="round" stroke-miterlimit="10" d="
				M107.69,111.87c0,0,2.354-5.453,0.569-8.479l-2.9,3.578L107.69,111.87z"/>
		</g>
	</g>
</g>
<g id="calque04">
	<g>
		
			<polygon fill="#CC924C" stroke="#333333" stroke-width="1.0616" stroke-linecap="round" stroke-linejoin="round" stroke-miterlimit="10" points="
			112.438,116.666 108.156,124.895 108.156,121.9 		"/>
		
			<polygon fill="#CC924C" stroke="#333333" stroke-width="1.0616" stroke-linecap="round" stroke-linejoin="round" stroke-miterlimit="10" points="
			93.315,106.213 104.142,118.873 104.142,115.879 		"/>
		<g>
			
				<path fill="#A1C453" stroke="#333333" stroke-width="1.5923" stroke-linecap="round" stroke-linejoin="round" stroke-miterlimit="10" d="
				M92.682,123.973c2.856-0.119,4.229-1.78,8.736,2.184c4.509,3.965-0.241,5.285,2.724,7.896c-2.965-2.609-3.918,2.218-8.259-1.602
				C91.541,128.633,93.166,126.783,92.682,123.973z"/>
			<g>
				<line fill="none" x1="104.142" y1="134.051" x2="95.137" y2="126.115"/>
				<g>
					<polyline fill="none" stroke="#333333" stroke-width="1.0616" stroke-linecap="round" stroke-miterlimit="10" points="
						103.743,133.7 103.228,133.245 97.234,127.964 96.785,127.568 					"/>
					
						<line fill="none" stroke="#333333" stroke-width="1.0616" stroke-linecap="round" stroke-miterlimit="10" x1="95.535" y1="126.466" x2="95.591" y2="126.516"/>
				</g>
			</g>
		</g>
		<g>
			
				<path fill="#A1C453" stroke="#333333" stroke-width="1.5923" stroke-linecap="round" stroke-linejoin="round" stroke-miterlimit="10" d="
				M121.814,104.622c0.289,2.842,2.03,4.114-1.656,8.852c-3.688,4.737-5.294,0.075-7.72,3.192c2.426-3.117-2.447-3.779,1.104-8.342
				C117.093,103.761,119.036,105.272,121.814,104.622z"/>
			<g>
				<line fill="none" x1="112.315" y1="116.541" x2="119.578" y2="107.208"/>
				<g>
					<polyline fill="none" stroke="#333333" stroke-width="1.0616" stroke-linecap="round" stroke-miterlimit="10" points="
						112.642,116.122 113.063,115.579 117.861,109.414 118.229,108.942 					"/>
					
						<line fill="none" stroke="#333333" stroke-width="1.0616" stroke-linecap="round" stroke-miterlimit="10" x1="119.252" y1="107.627" x2="119.206" y2="107.686"/>
				</g>
			</g>
		</g>
		<g>
			
				<path fill="#A1C453" stroke="#333333" stroke-width="1.0616" stroke-linecap="round" stroke-linejoin="round" stroke-miterlimit="10" d="
				M91.838,97.675c1.296,0.886,2.445,0.606,3.126,3.832s-1.844,2.245-1.396,4.368c-0.446-2.123-2.451-0.313-3.107-3.419
				C89.806,99.35,91.128,99.07,91.838,97.675z"/>
			<g>
				<line fill="none" x1="93.567" y1="105.875" x2="92.228" y2="99.52"/>
				<g>
					<polyline fill="none" stroke="#333333" stroke-width="1.0616" stroke-linecap="round" stroke-miterlimit="10" points="
						93.458,105.355 93.316,104.683 92.805,102.255 92.681,101.67 					"/>
					
						<line fill="none" stroke="#333333" stroke-width="1.0616" stroke-linecap="round" stroke-miterlimit="10" x1="92.337" y1="100.039" x2="92.353" y2="100.112"/>
				</g>
			</g>
		</g>
		<g>
			
				<path fill="#A1C453" stroke="#333333" stroke-width="1.5923" stroke-linecap="round" stroke-linejoin="round" stroke-miterlimit="10" d="
				M79.044,97.242c3.169-0.596,4.435-2.673,10.108,1.026c5.675,3.699,0.583,5.945,4.319,8.378c-3.736-2.433-4.02,3.11-9.483-0.453
				C78.521,102.631,80.038,100.305,79.044,97.242z"/>
			<g>
				<line fill="none" x1="93.473" y1="106.646" x2="82.29" y2="99.359"/>
				<g>
					<polyline fill="none" stroke="#333333" stroke-width="1.0616" stroke-linecap="round" stroke-miterlimit="10" points="
						93.028,106.356 92.452,105.981 84.632,100.886 84.132,100.56 					"/>
					
						<line fill="none" stroke="#333333" stroke-width="1.0616" stroke-linecap="round" stroke-miterlimit="10" x1="82.734" y1="99.649" x2="82.797" y2="99.689"/>
				</g>
			</g>
		</g>
		<g>
			
				<path fill="#A1C453" stroke="#333333" stroke-width="1.0616" stroke-linecap="round" stroke-linejoin="round" stroke-miterlimit="10" d="
				M113.445,84.557c0.133,1.479,1.027,2.151-0.922,4.587c-1.947,2.437-2.751,0.004-4.03,1.606c1.279-1.603-1.247-1.979,0.63-4.325
				C110.999,84.078,111.996,84.875,113.445,84.557z"/>
			<g>
				<line fill="none" x1="108.492" y1="90.75" x2="112.332" y2="85.951"/>
				<g>
					<polyline fill="none" stroke="#333333" stroke-width="1.0616" stroke-linecap="round" stroke-miterlimit="10" points="
						108.824,90.336 109.254,89.799 110.586,88.134 110.959,87.667 					"/>
					
						<line fill="none" stroke="#333333" stroke-width="1.0616" stroke-linecap="round" stroke-miterlimit="10" x1="112" y1="86.365" x2="111.954" y2="86.424"/>
				</g>
			</g>
		</g>
		<path fill="#CC924C" stroke="#333333" stroke-width="2.8307" stroke-linecap="round" stroke-miterlimit="10" d="M108.688,155.356
			l-0.532-68.034c0-1.108-0.897-2.008-2.007-2.008l0,0c-1.106,0-2.008,0.899-2.008,2.008l-0.529,68.034"/>
		<g>
			
				<path fill="#A1C453" stroke="#333333" stroke-width="1.0616" stroke-linecap="round" stroke-linejoin="round" stroke-miterlimit="10" d="
				M104.601,85.154c0,0,1.188-2.892,1.574-3.398c0.306-0.408,0.995,2.863,1.028,4.083L104.601,85.154z"/>
			
				<path fill="#A1C453" stroke="#333333" stroke-width="1.0616" stroke-linecap="round" stroke-linejoin="round" stroke-miterlimit="10" d="
				M107.068,84.902l-3.212,3.579c0,0-0.712-4.731,0.463-6.353C104.319,82.129,105.768,83.942,107.068,84.902z"/>
			
				<path fill="#A1C453" stroke="#333333" stroke-width="1.0616" stroke-linecap="round" stroke-linejoin="round" stroke-miterlimit="10" d="
				M107.69,90.607c0,0,2.354-5.453,0.569-8.479l-2.9,3.577L107.69,90.607z"/>
		</g>
		<g>
			
				<path fill="#FFFFFF" stroke="#333333" stroke-width="1.0616" stroke-linecap="round" stroke-linejoin="round" stroke-miterlimit="10" d="
				M113.481,116.595c-0.413,0.237-0.421,1.183-0.348,1.891c0.128,1.278,1.396,2.801,2.688,2.054c1.301-0.75,0.623-2.616-0.413-3.367
				C114.831,116.755,113.895,116.355,113.481,116.595z"/>
			
				<path fill="#FFFFFF" stroke="#333333" stroke-width="1.0616" stroke-linecap="round" stroke-linejoin="round" stroke-miterlimit="10" d="
				M113.377,116.524c0-0.476-0.816-0.956-1.466-1.248c-1.169-0.528-3.122-0.191-3.122,1.304c0,1.502,1.953,1.848,3.122,1.324
				C112.561,117.613,113.377,117.001,113.377,116.524z"/>
			
				<path fill="#FFFFFF" stroke="#333333" stroke-width="1.0616" stroke-linecap="round" stroke-linejoin="round" stroke-miterlimit="10" d="
				M113.482,116.47c0.411,0.237,1.235-0.229,1.813-0.646c1.043-0.749,1.727-2.609,0.433-3.356c-1.301-0.75-2.575,0.769-2.709,2.043
				C112.947,115.219,113.068,116.23,113.482,116.47z"/>
			
				<path fill="#FFFFFF" stroke="#333333" stroke-width="1.0616" stroke-linecap="round" stroke-linejoin="round" stroke-miterlimit="10" d="
				M113.61,116.562c0,0.475,0.816,0.956,1.467,1.247c1.169,0.527,3.123,0.189,3.123-1.304c0-1.501-1.954-1.845-3.123-1.324
				C114.427,115.473,113.61,116.083,113.61,116.562z"/>
			
				<path fill="#FFFFFF" stroke="#333333" stroke-width="1.0616" stroke-linecap="round" stroke-linejoin="round" stroke-miterlimit="10" d="
				M113.5,116.613c-0.412-0.237-1.237,0.228-1.813,0.644c-1.043,0.75-1.727,2.611-0.434,3.356c1.302,0.752,2.576-0.768,2.709-2.042
				C114.034,117.863,113.913,116.851,113.5,116.613z"/>
			
				<path fill="#FFFFFF" stroke="#333333" stroke-width="1.0616" stroke-linecap="round" stroke-linejoin="round" stroke-miterlimit="10" d="
				M113.522,116.48c0.411-0.235,0.42-1.183,0.349-1.891c-0.129-1.278-1.396-2.801-2.691-2.054c-1.299,0.75-0.621,2.615,0.416,3.365
				C112.171,116.32,113.108,116.72,113.522,116.48z"/>
			
				<circle fill="#F9D53E" stroke="#333333" stroke-width="1.0616" stroke-linecap="round" stroke-linejoin="round" stroke-miterlimit="10" cx="113.611" cy="116.562" r="0.988"/>
		</g>
	</g>
</g>
<g id="calque05">
	<g>
		
			<polygon fill="#CC924C" stroke="#333333" stroke-width="1.0616" stroke-linecap="round" stroke-linejoin="round" stroke-miterlimit="10" points="
			112.438,116.666 108.156,124.895 108.156,121.9 		"/>
		
			<polygon fill="#CC924C" stroke="#333333" stroke-width="1.0616" stroke-linecap="round" stroke-linejoin="round" stroke-miterlimit="10" points="
			113.036,87.653 108.156,93.579 108.156,90.583 		"/>
		
			<polygon fill="#CC924C" stroke="#333333" stroke-width="1.0616" stroke-linecap="round" stroke-linejoin="round" stroke-miterlimit="10" points="
			93.315,106.213 104.142,118.873 104.142,115.879 		"/>
		<g>
			
				<path fill="#A1C453" stroke="#333333" stroke-width="1.5923" stroke-linecap="round" stroke-linejoin="round" stroke-miterlimit="10" d="
				M92.682,123.973c2.856-0.119,4.229-1.78,8.738,2.184c4.507,3.965-0.243,5.285,2.722,7.896c-2.965-2.609-3.918,2.218-8.259-1.602
				C91.541,128.633,93.166,126.783,92.682,123.973z"/>
			<g>
				<line fill="none" x1="104.142" y1="134.051" x2="95.137" y2="126.115"/>
				<g>
					<polyline fill="none" stroke="#333333" stroke-width="1.0616" stroke-linecap="round" stroke-miterlimit="10" points="
						103.743,133.7 103.228,133.245 97.234,127.964 96.785,127.568 					"/>
					
						<line fill="none" stroke="#333333" stroke-width="1.0616" stroke-linecap="round" stroke-miterlimit="10" x1="95.535" y1="126.466" x2="95.591" y2="126.516"/>
				</g>
			</g>
		</g>
		<g>
			
				<path fill="#A1C453" stroke="#333333" stroke-width="1.5923" stroke-linecap="round" stroke-linejoin="round" stroke-miterlimit="10" d="
				M121.814,104.622c0.289,2.842,2.03,4.114-1.656,8.852c-3.688,4.737-5.291,0.075-7.72,3.192c2.429-3.117-2.446-3.779,1.104-8.342
				C117.093,103.761,119.036,105.272,121.814,104.622z"/>
			<g>
				<line fill="none" x1="112.315" y1="116.541" x2="119.58" y2="107.208"/>
				<g>
					<polyline fill="none" stroke="#333333" stroke-width="1.0616" stroke-linecap="round" stroke-miterlimit="10" points="
						112.642,116.122 113.063,115.579 117.863,109.414 118.23,108.942 					"/>
					
						<line fill="none" stroke="#333333" stroke-width="1.0616" stroke-linecap="round" stroke-miterlimit="10" x1="119.254" y1="107.627" x2="119.208" y2="107.686"/>
				</g>
			</g>
		</g>
		<g>
			
				<path fill="#A1C453" stroke="#333333" stroke-width="1.5923" stroke-linecap="round" stroke-linejoin="round" stroke-miterlimit="10" d="
				M89.986,89.327c2.662,1.82,5.026,1.246,6.425,7.875c1.397,6.629-3.79,4.617-2.871,8.979c-0.919-4.361-5.041-0.643-6.387-7.027
				C85.808,92.77,88.524,92.196,89.986,89.327z"/>
			<g>
				<line fill="none" x1="93.539" y1="106.181" x2="90.786" y2="93.12"/>
				<g>
					<polyline fill="none" stroke="#333333" stroke-width="1.0616" stroke-linecap="round" stroke-miterlimit="10" points="
						93.43,105.661 93.288,104.988 91.362,95.855 91.239,95.271 					"/>
					
						<line fill="none" stroke="#333333" stroke-width="1.0616" stroke-linecap="round" stroke-miterlimit="10" x1="90.896" y1="93.64" x2="90.911" y2="93.713"/>
				</g>
			</g>
		</g>
		<g>
			
				<path fill="#A1C453" stroke="#333333" stroke-width="1.5923" stroke-linecap="round" stroke-linejoin="round" stroke-miterlimit="10" d="
				M79.044,97.242c3.169-0.596,4.435-2.673,10.109,1.026c5.676,3.699,0.582,5.945,4.318,8.378c-3.736-2.433-4.02,3.11-9.483-0.453
				C78.521,102.631,80.038,100.305,79.044,97.242z"/>
			<g>
				<line fill="none" x1="93.473" y1="106.646" x2="82.293" y2="99.359"/>
				<g>
					<polyline fill="none" stroke="#333333" stroke-width="1.0616" stroke-linecap="round" stroke-miterlimit="10" points="
						93.028,106.356 92.452,105.981 84.635,100.886 84.134,100.56 					"/>
					
						<line fill="none" stroke="#333333" stroke-width="1.0616" stroke-linecap="round" stroke-miterlimit="10" x1="82.737" y1="99.649" x2="82.8" y2="99.69"/>
				</g>
			</g>
		</g>
		<g>
			
				<path fill="#A1C453" stroke="#333333" stroke-width="1.0616" stroke-linecap="round" stroke-linejoin="round" stroke-miterlimit="10" d="
				M99.49,77.81c1.284,0.188,2.037-0.437,3.715,1.713c1.676,2.15-0.557,2.338,0.548,3.753c-1.104-1.415-1.937,0.657-3.55-1.412
				C98.589,79.792,99.47,79.105,99.49,77.81z"/>
			<g>
				<line fill="none" x1="103.753" y1="83.275" x2="100.45" y2="79.041"/>
				<g>
					<polyline fill="none" stroke="#333333" stroke-width="1.0616" stroke-linecap="round" stroke-miterlimit="10" points="
						103.427,82.856 103.004,82.314 102.17,81.245 101.802,80.774 					"/>
					
						<line fill="none" stroke="#333333" stroke-width="1.0616" stroke-linecap="round" stroke-miterlimit="10" x1="100.776" y1="79.46" x2="100.822" y2="79.519"/>
				</g>
			</g>
		</g>
		<g>
			
				<path fill="#A1C453" stroke="#333333" stroke-width="1.0616" stroke-linecap="round" stroke-linejoin="round" stroke-miterlimit="10" d="
				M119.505,80.106c0.158,1.778,1.232,2.587-1.107,5.514c-2.34,2.927-3.305,0.003-4.845,1.929c1.54-1.926-1.497-2.38,0.757-5.197
				C116.565,79.532,117.765,80.492,119.505,80.106z"/>
			<g>
				<line fill="none" x1="113.553" y1="87.549" x2="118.165" y2="81.783"/>
				<g>
					<polyline fill="none" stroke="#333333" stroke-width="1.0616" stroke-linecap="round" stroke-miterlimit="10" points="
						113.885,87.135 114.313,86.598 116.419,83.966 116.792,83.499 					"/>
					
						<line fill="none" stroke="#333333" stroke-width="1.0616" stroke-linecap="round" stroke-miterlimit="10" x1="117.834" y1="82.197" x2="117.787" y2="82.256"/>
				</g>
			</g>
		</g>
		<g>
			
				<path fill="#A1C453" stroke="#333333" stroke-width="1.5923" stroke-linecap="round" stroke-linejoin="round" stroke-miterlimit="10" d="
				M124.302,95.612c-2.493,0.447-3.5,2.071-7.937-0.868c-4.437-2.941-0.424-4.674-3.343-6.608c2.919,1.935,3.176-2.419,7.448,0.413
				C124.745,91.382,123.539,93.2,124.302,95.612z"/>
			<g>
				<line fill="none" x1="112.899" y1="88.011" x2="121.64" y2="93.805"/>
				<g>
					<polyline fill="none" stroke="#333333" stroke-width="1.0616" stroke-linecap="round" stroke-miterlimit="10" points="
						113.342,88.304 113.915,88.684 119.31,92.26 119.808,92.59 					"/>
					
						<line fill="none" stroke="#333333" stroke-width="1.0616" stroke-linecap="round" stroke-miterlimit="10" x1="121.197" y1="93.512" x2="121.135" y2="93.47"/>
				</g>
			</g>
		</g>
		<path fill="#CC924C" stroke="#333333" stroke-width="2.8307" stroke-linecap="round" stroke-miterlimit="10" d="M108.688,155.356
			l-0.532-77.461c0-1.108-0.897-2.007-2.007-2.007l0,0c-1.106,0-2.008,0.898-2.008,2.007l-0.529,77.461"/>
		<g>
			<g>
				<path fill="#D3F46C" d="M117.723,120.703c-0.719,2.376-4.204,4.231-5.602,2.999c-2.052,0.312-3.719-3.228-2.998-5.604
					c0.718-2.376,2.595-4.371,5.585-2.418C118.114,115.695,118.443,118.327,117.723,120.703z"/>
				<g>
					<path fill="none" stroke="#333333" stroke-width="1.0616" stroke-linecap="round" stroke-miterlimit="10" d="M117.527,121.196
						c-0.104,0.203-0.209,0.408-0.347,0.593c-0.62,0.896-1.521,1.588-2.521,2.006c-0.504,0.203-1.05,0.339-1.595,0.286
						c-0.268-0.037-0.541-0.101-0.766-0.257l-0.168-0.115c-0.064-0.012-0.136,0.001-0.202,0.001
						c-0.138,0.016-0.271-0.002-0.405-0.034c-1.093-0.259-1.765-1.297-2.165-2.274c-0.382-1.013-0.543-2.146-0.259-3.205
						c0.301-1.035,0.813-2.064,1.684-2.736c0.866-0.7,2.118-0.711,3.091-0.229c0.254,0.101,0.485,0.244,0.721,0.382
						c0.235,0.139,0.535,0.054,0.797,0.113c0.54,0.063,1.074,0.234,1.521,0.545c0.448,0.309,0.776,0.777,0.942,1.295
						c0.055,0.122,0.072,0.271,0.103,0.387c0.014,0.063,0.029,0.127,0.034,0.193c0.013,0.13,0.032,0.26,0.037,0.391"/>
					
						<line fill="none" stroke="#333333" stroke-width="1.0616" stroke-linecap="round" stroke-miterlimit="10" x1="117.858" y1="120.19" x2="117.874" y2="120.117"/>
				</g>
			</g>
			
				<ellipse transform="matrix(0.7876 -0.6161 0.6161 0.7876 -48.5035 93.484)" opacity="0.5" fill="#FFFFFF" enable-background="new    " cx="111.363" cy="117.104" rx="1.028" ry="0.846"/>
		</g>
		<g>
			
				<path fill="#A1C453" stroke="#333333" stroke-width="1.0616" stroke-linecap="round" stroke-linejoin="round" stroke-miterlimit="10" d="
				M104.601,75.728c0,0,1.188-2.89,1.574-3.398c0.306-0.408,0.995,2.865,1.028,4.084L104.601,75.728z"/>
			
				<path fill="#A1C453" stroke="#333333" stroke-width="1.0616" stroke-linecap="round" stroke-linejoin="round" stroke-miterlimit="10" d="
				M107.069,75.477l-3.213,3.579c0,0-0.711-4.73,0.463-6.352C104.319,72.704,105.768,74.517,107.069,75.477z"/>
			
				<path fill="#A1C453" stroke="#333333" stroke-width="1.0616" stroke-linecap="round" stroke-linejoin="round" stroke-miterlimit="10" d="
				M107.69,81.183c0,0,2.354-5.455,0.569-8.479l-2.9,3.576L107.69,81.183z"/>
		</g>
		<g>
			
				<path fill="#FFFFFF" stroke="#333333" stroke-width="1.0616" stroke-linecap="round" stroke-linejoin="round" stroke-miterlimit="10" d="
				M101.528,83.862c-0.409,0.237-0.418,1.184-0.348,1.893c0.13,1.276,1.397,2.8,2.692,2.052c1.3-0.749,0.622-2.614-0.415-3.366
				C102.881,84.023,101.943,83.623,101.528,83.862z"/>
			
				<path fill="#FFFFFF" stroke="#333333" stroke-width="1.0616" stroke-linecap="round" stroke-linejoin="round" stroke-miterlimit="10" d="
				M101.425,83.792c0-0.475-0.814-0.955-1.464-1.247c-1.17-0.528-3.124-0.19-3.124,1.304c0,1.501,1.954,1.845,3.123,1.323
				C100.61,84.881,101.425,84.271,101.425,83.792z"/>
			
				<path fill="#FFFFFF" stroke="#333333" stroke-width="1.0616" stroke-linecap="round" stroke-linejoin="round" stroke-miterlimit="10" d="
				M101.531,83.738c0.411,0.237,1.234-0.229,1.813-0.646c1.041-0.75,1.726-2.609,0.431-3.356c-1.299-0.75-2.572,0.77-2.707,2.043
				C100.996,82.487,101.116,83.499,101.531,83.738z"/>
			
				<path fill="#FFFFFF" stroke="#333333" stroke-width="1.0616" stroke-linecap="round" stroke-linejoin="round" stroke-miterlimit="10" d="
				M101.66,83.83c0,0.476,0.815,0.956,1.465,1.247c1.171,0.528,3.123,0.19,3.123-1.304c0-1.501-1.952-1.847-3.123-1.324
				C102.477,82.741,101.66,83.351,101.66,83.83z"/>
			
				<path fill="#FFFFFF" stroke="#333333" stroke-width="1.0616" stroke-linecap="round" stroke-linejoin="round" stroke-miterlimit="10" d="
				M101.548,83.881c-0.411-0.237-1.235,0.229-1.813,0.646c-1.043,0.749-1.727,2.61-0.434,3.356c1.3,0.751,2.574-0.769,2.708-2.042
				C102.083,85.131,101.963,84.12,101.548,83.881z"/>
			
				<path fill="#FFFFFF" stroke="#333333" stroke-width="1.0616" stroke-linecap="round" stroke-linejoin="round" stroke-miterlimit="10" d="
				M101.57,83.75c0.412-0.237,0.422-1.184,0.349-1.894c-0.127-1.276-1.396-2.799-2.689-2.052c-1.3,0.75-0.623,2.614,0.414,3.366
				C100.221,83.588,101.157,83.989,101.57,83.75z"/>
			
				<circle fill="#F9D53E" stroke="#333333" stroke-width="1.0616" stroke-linecap="round" stroke-linejoin="round" stroke-miterlimit="10" cx="101.66" cy="83.83" r="0.987"/>
		</g>
	</g>
</g>
<g id="calque06">
	<g>
		
			<polygon fill="#CC924C" stroke="#333333" stroke-width="1.0616" stroke-linecap="round" stroke-linejoin="round" stroke-miterlimit="10" points="
			112.438,116.666 108.156,124.895 108.156,121.9 		"/>
		
			<polygon fill="#CC924C" stroke="#333333" stroke-width="1.0616" stroke-linecap="round" stroke-linejoin="round" stroke-miterlimit="10" points="
			113.036,87.653 108.156,93.579 108.156,90.583 		"/>
		
			<polygon fill="#CC924C" stroke="#333333" stroke-width="1.0616" stroke-linecap="round" stroke-linejoin="round" stroke-miterlimit="10" points="
			93.315,106.213 104.142,118.873 104.142,115.879 		"/>
		
			<polygon fill="#CC924C" stroke="#333333" stroke-width="1.0616" stroke-linecap="round" stroke-linejoin="round" stroke-miterlimit="10" points="
			98.943,78.291 104.142,84.992 104.142,83.058 		"/>
		<g>
			
				<path fill="#A1C453" stroke="#333333" stroke-width="1.5923" stroke-linecap="round" stroke-linejoin="round" stroke-miterlimit="10" d="
				M92.682,123.973c2.856-0.119,4.229-1.78,8.736,2.184c4.509,3.965-0.241,5.285,2.724,7.896c-2.965-2.609-3.918,2.218-8.259-1.602
				C91.541,128.633,93.166,126.783,92.682,123.973z"/>
			<g>
				<line fill="none" x1="104.142" y1="134.051" x2="95.137" y2="126.115"/>
				<g>
					<polyline fill="none" stroke="#333333" stroke-width="1.0616" stroke-linecap="round" stroke-miterlimit="10" points="
						103.743,133.7 103.228,133.245 97.234,127.964 96.785,127.568 					"/>
					
						<line fill="none" stroke="#333333" stroke-width="1.0616" stroke-linecap="round" stroke-miterlimit="10" x1="95.535" y1="126.466" x2="95.591" y2="126.516"/>
				</g>
			</g>
		</g>
		<g>
			
				<path fill="#A1C453" stroke="#333333" stroke-width="1.5923" stroke-linecap="round" stroke-linejoin="round" stroke-miterlimit="10" d="
				M121.814,104.622c0.289,2.842,2.03,4.114-1.656,8.852c-3.688,4.737-5.294,0.075-7.72,3.192c2.426-3.117-2.447-3.779,1.104-8.342
				C117.093,103.761,119.036,105.272,121.814,104.622z"/>
			<g>
				<line fill="none" x1="112.315" y1="116.541" x2="119.578" y2="107.208"/>
				<g>
					<polyline fill="none" stroke="#333333" stroke-width="1.0616" stroke-linecap="round" stroke-miterlimit="10" points="
						112.642,116.122 113.063,115.579 117.861,109.414 118.229,108.942 					"/>
					
						<line fill="none" stroke="#333333" stroke-width="1.0616" stroke-linecap="round" stroke-miterlimit="10" x1="119.252" y1="107.627" x2="119.206" y2="107.686"/>
				</g>
			</g>
		</g>
		<g>
			
				<path fill="#A1C453" stroke="#333333" stroke-width="1.5923" stroke-linecap="round" stroke-linejoin="round" stroke-miterlimit="10" d="
				M89.986,89.327c2.662,1.82,5.026,1.246,6.425,7.875c1.397,6.629-3.792,4.617-2.871,8.979c-0.921-4.361-5.041-0.643-6.388-7.027
				C85.808,92.77,88.524,92.196,89.986,89.327z"/>
			<g>
				<line fill="none" x1="93.539" y1="106.181" x2="90.786" y2="93.12"/>
				<g>
					<polyline fill="none" stroke="#333333" stroke-width="1.0616" stroke-linecap="round" stroke-miterlimit="10" points="
						93.43,105.661 93.288,104.988 91.362,95.855 91.239,95.271 					"/>
					
						<line fill="none" stroke="#333333" stroke-width="1.0616" stroke-linecap="round" stroke-miterlimit="10" x1="90.896" y1="93.64" x2="90.911" y2="93.713"/>
				</g>
			</g>
		</g>
		<g>
			
				<path fill="#A1C453" stroke="#333333" stroke-width="1.5923" stroke-linecap="round" stroke-linejoin="round" stroke-miterlimit="10" d="
				M79.044,97.242c3.169-0.596,4.435-2.673,10.108,1.026c5.675,3.699,0.583,5.945,4.319,8.378c-3.736-2.433-4.02,3.11-9.483-0.453
				C78.521,102.631,80.038,100.305,79.044,97.242z"/>
			<g>
				<line fill="none" x1="93.473" y1="106.646" x2="82.29" y2="99.359"/>
				<g>
					<polyline fill="none" stroke="#333333" stroke-width="1.0616" stroke-linecap="round" stroke-miterlimit="10" points="
						93.028,106.356 92.452,105.981 84.632,100.886 84.132,100.56 					"/>
					
						<line fill="none" stroke="#333333" stroke-width="1.0616" stroke-linecap="round" stroke-miterlimit="10" x1="82.734" y1="99.649" x2="82.797" y2="99.689"/>
				</g>
			</g>
		</g>
		<g>
			
				<path fill="#A1C453" stroke="#333333" stroke-width="1.0616" stroke-linecap="round" stroke-linejoin="round" stroke-miterlimit="10" d="
				M94.611,73.417c1.41,0.206,2.236-0.479,4.076,1.88s-0.608,2.566,0.602,4.118c-1.21-1.552-2.124,0.723-3.896-1.549
				C93.621,75.594,94.589,74.84,94.611,73.417z"/>
			<g>
				<line fill="none" x1="99.288" y1="79.415" x2="95.665" y2="74.768"/>
				<g>
					<polyline fill="none" stroke="#333333" stroke-width="1.0616" stroke-linecap="round" stroke-miterlimit="10" points="
						98.962,78.996 98.539,78.454 97.384,76.973 97.017,76.501 					"/>
					
						<line fill="none" stroke="#333333" stroke-width="1.0616" stroke-linecap="round" stroke-miterlimit="10" x1="95.991" y1="75.187" x2="96.037" y2="75.245"/>
				</g>
			</g>
		</g>
		<g>
			
				<path fill="#A1C453" stroke="#333333" stroke-width="1.5923" stroke-linecap="round" stroke-linejoin="round" stroke-miterlimit="10" d="
				M85.954,77.274c2.05-1.528,2.229-3.45,7.562-2.79s2.486,4.033,5.997,4.467c-3.511-0.434-1.782,3.616-6.917,2.98
				C87.459,81.296,87.729,79.109,85.954,77.274z"/>
			<g>
				<line fill="none" x1="99.513" y1="78.951" x2="89.006" y2="77.651"/>
				<g>
					<polyline fill="none" stroke="#333333" stroke-width="1.0616" stroke-linecap="round" stroke-miterlimit="10" points="
						98.986,78.886 98.304,78.802 91.78,77.994 91.188,77.921 					"/>
					
						<line fill="none" stroke="#333333" stroke-width="1.0616" stroke-linecap="round" stroke-miterlimit="10" x1="89.532" y1="77.717" x2="89.606" y2="77.726"/>
				</g>
			</g>
		</g>
		<g>
			
				<path fill="#A1C453" stroke="#333333" stroke-width="1.0616" stroke-linecap="round" stroke-linejoin="round" stroke-miterlimit="10" d="
				M123.055,86.897c-1.181,1.41-0.986,2.784-4.824,3.211c-3.84,0.427-2.411-2.405-4.938-2.124c2.526-0.281,0.644-2.826,4.341-3.238
				C121.331,84.336,121.506,85.909,123.055,86.897z"/>
			<g>
				<line fill="none" x1="113.221" y1="87.913" x2="120.787" y2="87.071"/>
				<g>
					<polyline fill="none" stroke="#333333" stroke-width="1.0616" stroke-linecap="round" stroke-miterlimit="10" points="
						113.748,87.854 114.432,87.778 118.009,87.381 118.603,87.314 					"/>
					
						<line fill="none" stroke="#333333" stroke-width="1.0616" stroke-linecap="round" stroke-miterlimit="10" x1="120.26" y1="87.13" x2="120.186" y2="87.139"/>
				</g>
			</g>
		</g>
		<g>
			
				<path fill="#A1C453" stroke="#333333" stroke-width="1.5923" stroke-linecap="round" stroke-linejoin="round" stroke-miterlimit="10" d="
				M123.794,74.201c0.285,3.213,2.229,4.674-2,9.964c-4.231,5.291-5.975,0.007-8.758,3.488c2.783-3.481-2.705-4.3,1.368-9.396
				C118.48,73.161,120.649,74.896,123.794,74.201z"/>
			<g>
				<line fill="none" x1="113.036" y1="87.653" x2="121.372" y2="77.229"/>
				<g>
					<polyline fill="none" stroke="#333333" stroke-width="1.0616" stroke-linecap="round" stroke-miterlimit="10" points="
						113.367,87.238 113.797,86.701 119.626,79.413 119.999,78.946 					"/>
					
						<line fill="none" stroke="#333333" stroke-width="1.0616" stroke-linecap="round" stroke-miterlimit="10" x1="121.041" y1="77.645" x2="120.994" y2="77.702"/>
				</g>
			</g>
		</g>
		<g>
			
				<path fill="#A1C453" stroke="#333333" stroke-width="1.5923" stroke-linecap="round" stroke-linejoin="round" stroke-miterlimit="10" d="
				M124.302,95.612c-2.495,0.447-3.501,2.071-7.937-0.868c-4.438-2.941-0.424-4.674-3.343-6.608
				c2.919,1.935,3.176-2.419,7.448,0.413C124.745,91.382,123.539,93.2,124.302,95.612z"/>
			<g>
				<line fill="none" x1="112.899" y1="88.011" x2="121.638" y2="93.805"/>
				<g>
					<polyline fill="none" stroke="#333333" stroke-width="1.0616" stroke-linecap="round" stroke-miterlimit="10" points="
						113.342,88.304 113.915,88.685 119.308,92.26 119.806,92.59 					"/>
					
						<line fill="none" stroke="#333333" stroke-width="1.0616" stroke-linecap="round" stroke-miterlimit="10" x1="121.195" y1="93.512" x2="121.133" y2="93.47"/>
				</g>
			</g>
		</g>
		<path fill="#CC924C" stroke="#333333" stroke-width="2.8307" stroke-linecap="round" stroke-miterlimit="10" d="M108.688,155.356
			l-0.532-87.564c0-1.107-0.897-2.007-2.007-2.007l0,0c-1.106,0-2.008,0.899-2.008,2.007l-0.529,87.564"/>
		<g>
			<g>
				<path fill="#D3F46C" d="M103.841,82.482c0.284,2.322-2.011,5.25-3.688,4.72c-1.648,1.05-4.433-1.366-4.719-3.687
					c-0.284-2.321,0.572-4.754,3.894-4.211C102.269,78.021,103.556,80.163,103.841,82.482z"/>
				<g>
					<path fill="none" stroke="#333333" stroke-width="1.0616" stroke-linecap="round" stroke-miterlimit="10" d="M103.858,83.013
						c-0.01,0.229-0.033,0.457-0.084,0.681c-0.21,0.995-0.717,1.922-1.425,2.649c-0.354,0.359-0.771,0.677-1.259,0.832
						c-0.243,0.069-0.501,0.115-0.751,0.062l-0.188-0.033l-0.171,0.084c-0.109,0.065-0.232,0.097-0.357,0.122
						c-1.03,0.188-1.995-0.441-2.71-1.12c-0.707-0.72-1.283-1.618-1.45-2.627c-0.145-0.996-0.108-2.065,0.355-2.979
						c0.232-0.451,0.592-0.843,1.039-1.085c0.447-0.247,0.96-0.345,1.465-0.362c1.036,0.265,1.943-0.47,2.987-0.288
						c0.506,0.063,0.981,0.308,1.339,0.668c0.083,0.092,0.188,0.184,0.248,0.279l0.116,0.158c0.081,0.104,0.136,0.224,0.205,0.335"
						/>
					
						<line fill="none" stroke="#333333" stroke-width="1.0616" stroke-linecap="round" stroke-miterlimit="10" x1="103.756" y1="81.959" x2="103.74" y2="81.886"/>
				</g>
			</g>
			
				<ellipse transform="matrix(0.4711 -0.8821 0.8821 0.4711 -20.8675 128.8246)" opacity="0.5" fill="#FFFFFF" enable-background="new    " cx="96.996" cy="81.814" rx="0.969" ry="0.798"/>
		</g>
		<g>
			<g>
				<path fill="#D3F46C" d="M118.993,122.767c-1.079,3.563-6.309,6.347-8.404,4.498c-3.078,0.466-5.576-4.842-4.496-8.404
					c1.077-3.563,3.892-6.555,8.375-3.625C119.578,115.256,120.073,119.204,118.993,122.767z"/>
				<g>
					<path fill="none" stroke="#333333" stroke-width="1.5924" stroke-linecap="round" stroke-miterlimit="10" d="M118.7,123.507
						c-0.159,0.305-0.314,0.611-0.521,0.888c-0.931,1.346-2.28,2.381-3.784,3.009c-0.754,0.304-1.572,0.509-2.39,0.431
						c-0.402-0.056-0.813-0.151-1.148-0.386l-0.253-0.173c-0.096-0.019-0.202,0.001-0.303,0c-0.206,0.024-0.407-0.002-0.607-0.05
						c-0.806-0.164-1.488-0.691-2.015-1.307c-0.53-0.622-0.931-1.347-1.234-2.104c-0.571-1.518-0.813-3.219-0.388-4.807
						c0.451-1.553,1.219-3.096,2.522-4.104c0.647-0.496,1.442-0.804,2.261-0.844c0.82-0.055,1.633,0.172,2.375,0.5
						c0.381,0.151,0.729,0.367,1.081,0.574c0.163,0.146,0.385,0.1,0.585,0.123c0.203,0.017,0.409,0.009,0.61,0.047
						c0.81,0.095,1.609,0.351,2.282,0.815c0.674,0.463,1.166,1.165,1.416,1.941c0.079,0.184,0.107,0.406,0.151,0.58
						c0.021,0.096,0.046,0.191,0.053,0.289c0.019,0.196,0.05,0.391,0.058,0.587"/>
					
						<line fill="none" stroke="#333333" stroke-width="1.5924" stroke-linecap="round" stroke-miterlimit="10" x1="119.197" y1="121.997" x2="119.22" y2="121.888"/>
				</g>
			</g>
			
				<ellipse transform="matrix(0.7879 -0.6158 0.6158 0.7879 -49.0696 92.291)" opacity="0.5" fill="#FFFFFF" enable-background="new    " cx="109.446" cy="117.381" rx="1.542" ry="1.269"/>
		</g>
		<g>
			
				<path fill="#A1C453" stroke="#333333" stroke-width="1.0616" stroke-linecap="round" stroke-linejoin="round" stroke-miterlimit="10" d="
				M104.601,65.624c0,0,1.188-2.89,1.574-3.397c0.306-0.408,0.995,2.863,1.028,4.083L104.601,65.624z"/>
			
				<path fill="#A1C453" stroke="#333333" stroke-width="1.0616" stroke-linecap="round" stroke-linejoin="round" stroke-miterlimit="10" d="
				M107.068,65.372l-3.212,3.58c0,0-0.712-4.731,0.463-6.353C104.319,62.6,105.768,64.412,107.068,65.372z"/>
			
				<path fill="#A1C453" stroke="#333333" stroke-width="1.0616" stroke-linecap="round" stroke-linejoin="round" stroke-miterlimit="10" d="
				M107.69,71.078c0,0,2.354-5.454,0.569-8.479l-2.9,3.576L107.69,71.078z"/>
		</g>
	</g>
</g>
<g id="calque07">
	<g>
		
			<polygon fill="#CC924C" stroke="#333333" stroke-width="1.0616" stroke-linecap="round" stroke-linejoin="round" stroke-miterlimit="10" points="
			112.438,116.666 108.156,124.895 108.156,121.9 		"/>
		
			<polygon fill="#CC924C" stroke="#333333" stroke-width="1.0616" stroke-linecap="round" stroke-linejoin="round" stroke-miterlimit="10" points="
			113.036,87.653 108.156,93.579 108.156,90.583 		"/>
		
			<polygon fill="#CC924C" stroke="#333333" stroke-width="1.0616" stroke-linecap="round" stroke-linejoin="round" stroke-miterlimit="10" points="
			93.315,106.213 104.142,118.873 104.142,115.879 		"/>
		
			<polygon fill="#CC924C" stroke="#333333" stroke-width="1.0616" stroke-linecap="round" stroke-linejoin="round" stroke-miterlimit="10" points="
			98.943,78.291 104.142,84.992 104.142,83.058 		"/>
		<g>
			
				<path fill="#A1C453" stroke="#333333" stroke-width="1.5923" stroke-linecap="round" stroke-linejoin="round" stroke-miterlimit="10" d="
				M92.682,123.973c2.856-0.119,4.229-1.78,8.738,2.184c4.507,3.965-0.243,5.285,2.722,7.896c-2.965-2.609-3.918,2.218-8.259-1.602
				C91.541,128.633,93.166,126.783,92.682,123.973z"/>
			<g>
				<line fill="none" x1="104.142" y1="134.051" x2="95.137" y2="126.115"/>
				<g>
					<polyline fill="none" stroke="#333333" stroke-width="1.0616" stroke-linecap="round" stroke-miterlimit="10" points="
						103.743,133.7 103.228,133.245 97.234,127.964 96.785,127.568 					"/>
					
						<line fill="none" stroke="#333333" stroke-width="1.0616" stroke-linecap="round" stroke-miterlimit="10" x1="95.535" y1="126.466" x2="95.591" y2="126.516"/>
				</g>
			</g>
		</g>
		<g>
			
				<path fill="#A1C453" stroke="#333333" stroke-width="1.5923" stroke-linecap="round" stroke-linejoin="round" stroke-miterlimit="10" d="
				M121.814,104.622c0.289,2.842,2.03,4.114-1.656,8.852c-3.688,4.737-5.291,0.075-7.72,3.192c2.429-3.117-2.446-3.779,1.104-8.342
				C117.093,103.761,119.036,105.272,121.814,104.622z"/>
			<g>
				<line fill="none" x1="112.315" y1="116.541" x2="119.578" y2="107.208"/>
				<g>
					<polyline fill="none" stroke="#333333" stroke-width="1.0616" stroke-linecap="round" stroke-miterlimit="10" points="
						112.642,116.122 113.063,115.579 117.861,109.414 118.229,108.942 					"/>
					
						<line fill="none" stroke="#333333" stroke-width="1.0616" stroke-linecap="round" stroke-miterlimit="10" x1="119.252" y1="107.627" x2="119.206" y2="107.686"/>
				</g>
			</g>
		</g>
		<g>
			
				<path fill="#A1C453" stroke="#333333" stroke-width="1.5923" stroke-linecap="round" stroke-linejoin="round" stroke-miterlimit="10" d="
				M89.986,89.327c2.662,1.82,5.026,1.246,6.425,7.875c1.397,6.629-3.79,4.617-2.871,8.979c-0.919-4.361-5.041-0.643-6.387-7.027
				C85.808,92.77,88.524,92.196,89.986,89.327z"/>
			<g>
				<line fill="none" x1="93.539" y1="106.181" x2="90.786" y2="93.12"/>
				<g>
					<polyline fill="none" stroke="#333333" stroke-width="1.0616" stroke-linecap="round" stroke-miterlimit="10" points="
						93.43,105.661 93.288,104.988 91.362,95.855 91.239,95.271 					"/>
					
						<line fill="none" stroke="#333333" stroke-width="1.0616" stroke-linecap="round" stroke-miterlimit="10" x1="90.896" y1="93.64" x2="90.911" y2="93.713"/>
				</g>
			</g>
		</g>
		<g>
			
				<path fill="#A1C453" stroke="#333333" stroke-width="1.5923" stroke-linecap="round" stroke-linejoin="round" stroke-miterlimit="10" d="
				M79.044,97.242c3.169-0.596,4.435-2.673,10.109,1.026c5.676,3.699,0.582,5.945,4.318,8.378c-3.736-2.433-4.02,3.11-9.483-0.453
				C78.521,102.631,80.038,100.305,79.044,97.242z"/>
			<g>
				<line fill="none" x1="93.473" y1="106.646" x2="82.293" y2="99.359"/>
				<g>
					<polyline fill="none" stroke="#333333" stroke-width="1.0616" stroke-linecap="round" stroke-miterlimit="10" points="
						93.028,106.356 92.452,105.981 84.635,100.886 84.134,100.56 					"/>
					
						<line fill="none" stroke="#333333" stroke-width="1.0616" stroke-linecap="round" stroke-miterlimit="10" x1="82.737" y1="99.649" x2="82.8" y2="99.69"/>
				</g>
			</g>
		</g>
		<g>
			
				<path fill="#A1C453" stroke="#333333" stroke-width="1.5923" stroke-linecap="round" stroke-linejoin="round" stroke-miterlimit="10" d="
				M90.996,67.821c2.529,0.372,4.017-0.861,7.319,3.376c3.305,4.238-1.094,4.609,1.082,7.398c-2.176-2.789-3.815,1.299-6.999-2.782
				C89.216,71.73,90.953,70.376,90.996,67.821z"/>
			<g>
				<line fill="none" x1="99.398" y1="78.596" x2="92.888" y2="70.247"/>
				<g>
					<polyline fill="none" stroke="#333333" stroke-width="1.0616" stroke-linecap="round" stroke-miterlimit="10" points="
						99.072,78.177 98.649,77.635 94.606,72.451 94.239,71.98 					"/>
					
						<line fill="none" stroke="#333333" stroke-width="1.0616" stroke-linecap="round" stroke-miterlimit="10" x1="93.214" y1="70.666" x2="93.26" y2="70.725"/>
				</g>
			</g>
		</g>
		<g>
			
				<path fill="#A1C453" stroke="#333333" stroke-width="1.5923" stroke-linecap="round" stroke-linejoin="round" stroke-miterlimit="10" d="
				M85.954,77.274c2.05-1.528,2.229-3.45,7.562-2.79s2.486,4.033,5.997,4.467c-3.511-0.434-1.782,3.616-6.917,2.98
				C87.459,81.296,87.729,79.109,85.954,77.274z"/>
			<g>
				<line fill="none" x1="99.513" y1="78.951" x2="89.006" y2="77.651"/>
				<g>
					<polyline fill="none" stroke="#333333" stroke-width="1.0616" stroke-linecap="round" stroke-miterlimit="10" points="
						98.986,78.886 98.304,78.802 91.78,77.994 91.188,77.921 					"/>
					
						<line fill="none" stroke="#333333" stroke-width="1.0616" stroke-linecap="round" stroke-miterlimit="10" x1="89.532" y1="77.717" x2="89.606" y2="77.726"/>
				</g>
			</g>
		</g>
		<g>
			
				<path fill="#A1C453" stroke="#333333" stroke-width="1.5923" stroke-linecap="round" stroke-linejoin="round" stroke-miterlimit="10" d="
				M130.612,85.86c-2.069,2.473-1.728,4.881-8.458,5.63c-6.733,0.75-4.229-4.219-8.66-3.725c4.432-0.494,1.129-4.956,7.612-5.677
				C127.591,81.366,127.897,84.128,130.612,85.86z"/>
			<g>
				<line fill="none" x1="113.371" y1="87.641" x2="126.635" y2="86.164"/>
				<g>
					<polyline fill="none" stroke="#333333" stroke-width="1.0616" stroke-linecap="round" stroke-miterlimit="10" points="
						113.898,87.582 114.582,87.506 123.856,86.474 124.45,86.407 					"/>
					
						<line fill="none" stroke="#333333" stroke-width="1.0616" stroke-linecap="round" stroke-miterlimit="10" x1="126.107" y1="86.223" x2="126.033" y2="86.231"/>
				</g>
			</g>
		</g>
		<g>
			
				<path fill="#A1C453" stroke="#333333" stroke-width="1.5923" stroke-linecap="round" stroke-linejoin="round" stroke-miterlimit="10" d="
				M123.794,74.201c0.285,3.213,2.229,4.674-2,9.964c-4.231,5.291-5.975,0.007-8.758,3.488c2.783-3.481-2.705-4.3,1.368-9.396
				C118.48,73.161,120.649,74.896,123.794,74.201z"/>
			<g>
				<line fill="none" x1="113.036" y1="87.653" x2="121.372" y2="77.229"/>
				<g>
					<polyline fill="none" stroke="#333333" stroke-width="1.0616" stroke-linecap="round" stroke-miterlimit="10" points="
						113.367,87.238 113.797,86.701 119.626,79.413 119.999,78.946 					"/>
					
						<line fill="none" stroke="#333333" stroke-width="1.0616" stroke-linecap="round" stroke-miterlimit="10" x1="121.041" y1="77.645" x2="120.994" y2="77.702"/>
				</g>
			</g>
		</g>
		<g>
			
				<path fill="#A1C453" stroke="#333333" stroke-width="1.5923" stroke-linecap="round" stroke-linejoin="round" stroke-miterlimit="10" d="
				M124.302,95.612c-2.493,0.447-3.501,2.071-7.937-0.868c-4.438-2.941-0.424-4.674-3.343-6.608
				c2.919,1.935,3.176-2.419,7.448,0.413C124.745,91.382,123.539,93.2,124.302,95.612z"/>
			<g>
				<line fill="none" x1="112.899" y1="88.011" x2="121.64" y2="93.805"/>
				<g>
					<polyline fill="none" stroke="#333333" stroke-width="1.0616" stroke-linecap="round" stroke-miterlimit="10" points="
						113.342,88.304 113.915,88.684 119.31,92.26 119.808,92.59 					"/>
					
						<line fill="none" stroke="#333333" stroke-width="1.0616" stroke-linecap="round" stroke-miterlimit="10" x1="121.197" y1="93.512" x2="121.135" y2="93.47"/>
				</g>
			</g>
		</g>
		<path fill="#CC924C" stroke="#333333" stroke-width="2.8307" stroke-linecap="round" stroke-miterlimit="10" d="M108.688,155.356
			l-0.532-87.564c0-1.107-0.897-2.007-2.007-2.007l0,0c-1.106,0-2.008,0.899-2.008,2.007l-0.529,87.564"/>
		<g>
			<g>
				<path fill="#D3F46C" d="M106.17,84.744c0.453,3.696-3.202,8.355-5.87,7.511c-2.625,1.672-7.057-2.173-7.511-5.868
					c-0.451-3.694,0.908-7.569,6.195-6.703C103.667,77.639,105.716,81.05,106.17,84.744z"/>
				<g>
					<path fill="none" stroke="#333333" stroke-width="1.5924" stroke-linecap="round" stroke-miterlimit="10" d="M106.201,85.539
						c-0.022,0.344-0.04,0.688-0.117,1.023c-0.308,1.606-1.123,3.1-2.245,4.282c-0.565,0.582-1.231,1.1-2.012,1.358
						c-0.391,0.111-0.805,0.189-1.206,0.111l-0.303-0.056c-0.095,0.02-0.185,0.083-0.275,0.122c-0.18,0.104-0.373,0.163-0.575,0.2
						c-0.804,0.176-1.643-0.029-2.372-0.38c-0.736-0.354-1.396-0.854-1.979-1.425c-1.139-1.157-2.047-2.614-2.3-4.239
						c-0.214-1.604-0.136-3.324,0.648-4.774c0.393-0.717,0.995-1.319,1.727-1.688c0.729-0.382,1.563-0.503,2.374-0.503
						c0.41-0.017,0.815,0.04,1.222,0.088c0.208,0.066,0.393-0.064,0.585-0.124c0.191-0.066,0.378-0.157,0.577-0.204
						c0.778-0.24,1.615-0.329,2.418-0.176c0.804,0.151,1.537,0.595,2.079,1.204c0.147,0.136,0.264,0.328,0.373,0.469
						c0.06,0.079,0.12,0.156,0.165,0.244c0.098,0.171,0.204,0.337,0.29,0.513"/>
					
						<line fill="none" stroke="#333333" stroke-width="1.5924" stroke-linecap="round" stroke-miterlimit="10" x1="106.045" y1="83.958" x2="106.021" y2="83.849"/>
				</g>
			</g>
			<path opacity="0.5" fill="#FFFFFF" enable-background="new    " d="M96.384,84.274c-0.402,0.753-1.226,1.095-1.845,0.764
				c-0.617-0.329-0.793-1.207-0.393-1.96c0.398-0.752,1.225-1.093,1.844-0.762C96.607,82.646,96.783,83.523,96.384,84.274z"/>
		</g>
		<g>
			<g>
				<path fill="#EF4529" d="M118.994,122.767c-1.08,3.563-6.31,6.347-8.405,4.498c-3.078,0.466-5.576-4.842-4.496-8.404
					c1.077-3.563,3.892-6.555,8.375-3.625C119.578,115.256,120.073,119.204,118.994,122.767z"/>
				<g>
					<path fill="none" stroke="#333333" stroke-width="1.5924" stroke-linecap="round" stroke-miterlimit="10" d="M118.701,123.506
						c-0.159,0.306-0.314,0.612-0.521,0.889c-0.93,1.345-2.28,2.381-3.784,3.009c-0.753,0.304-1.57,0.509-2.39,0.431
						c-0.401-0.056-0.813-0.151-1.148-0.386l-0.253-0.173c-0.095-0.02-0.202,0.001-0.303,0c-0.205,0.024-0.407-0.002-0.606-0.05
						c-0.807-0.164-1.489-0.691-2.016-1.307c-0.53-0.622-0.931-1.346-1.234-2.104c-0.571-1.518-0.813-3.219-0.388-4.806
						c0.451-1.554,1.219-3.097,2.522-4.105c0.647-0.496,1.442-0.804,2.261-0.844c0.82-0.055,1.633,0.172,2.375,0.5
						c0.381,0.151,0.729,0.367,1.081,0.574c0.163,0.145,0.385,0.1,0.584,0.123c0.204,0.017,0.41,0.009,0.611,0.047
						c0.81,0.095,1.609,0.351,2.282,0.815c0.675,0.463,1.166,1.165,1.416,1.941c0.079,0.184,0.107,0.406,0.151,0.58
						c0.021,0.096,0.047,0.19,0.053,0.289c0.02,0.196,0.05,0.391,0.059,0.587"/>
					
						<line fill="none" stroke="#333333" stroke-width="1.5924" stroke-linecap="round" stroke-miterlimit="10" x1="119.198" y1="121.997" x2="119.221" y2="121.888"/>
				</g>
			</g>
			
				<ellipse transform="matrix(0.7879 -0.6158 0.6158 0.7879 -49.0696 92.291)" opacity="0.5" fill="#FFFFFF" enable-background="new    " cx="109.446" cy="117.381" rx="1.542" ry="1.269"/>
		</g>
		<g>
			
				<path fill="#A1C453" stroke="#333333" stroke-width="1.0616" stroke-linecap="round" stroke-linejoin="round" stroke-miterlimit="10" d="
				M104.601,65.624c0,0,1.188-2.89,1.574-3.397c0.306-0.408,0.995,2.863,1.028,4.083L104.601,65.624z"/>
			
				<path fill="#A1C453" stroke="#333333" stroke-width="1.0616" stroke-linecap="round" stroke-linejoin="round" stroke-miterlimit="10" d="
				M107.068,65.372l-3.212,3.58c0,0-0.711-4.731,0.463-6.353C104.319,62.6,105.768,64.412,107.068,65.372z"/>
			
				<path fill="#A1C453" stroke="#333333" stroke-width="1.0616" stroke-linecap="round" stroke-linejoin="round" stroke-miterlimit="10" d="
				M107.69,71.078c0,0,2.354-5.454,0.569-8.479l-2.9,3.576L107.69,71.078z"/>
		</g>
	</g>
</g>
<g id="calque08">
	<g>
		
			<polygon fill="#CC924C" stroke="#333333" stroke-width="1.0616" stroke-linecap="round" stroke-linejoin="round" stroke-miterlimit="10" points="
			112.442,116.666 108.16,124.896 108.16,121.9 		"/>
		
			<polygon fill="#CC924C" stroke="#333333" stroke-width="1.0616" stroke-linecap="round" stroke-linejoin="round" stroke-miterlimit="10" points="
			113.039,87.654 108.16,93.579 108.16,90.583 		"/>
		
			<polygon fill="#CC924C" stroke="#333333" stroke-width="1.0616" stroke-linecap="round" stroke-linejoin="round" stroke-miterlimit="10" points="
			93.318,106.213 104.145,118.873 104.145,115.879 		"/>
		
			<polygon fill="#CC924C" stroke="#333333" stroke-width="1.0616" stroke-linecap="round" stroke-linejoin="round" stroke-miterlimit="10" points="
			98.946,78.291 104.145,84.992 104.145,83.058 		"/>
		<g>
			
				<path fill="#A1C453" stroke="#333333" stroke-width="1.5923" stroke-linecap="round" stroke-linejoin="round" stroke-miterlimit="10" d="
				M92.686,123.973c2.854-0.119,4.228-1.78,8.735,2.184c4.508,3.965-0.242,5.287,2.724,7.896c-2.966-2.607-3.919,2.218-8.261-1.602
				C91.543,128.633,93.168,126.783,92.686,123.973z"/>
			<g>
				<line fill="none" x1="104.145" y1="134.051" x2="95.14" y2="126.115"/>
				<g>
					<polyline fill="none" stroke="#333333" stroke-width="1.0616" stroke-linecap="round" stroke-miterlimit="10" points="
						103.746,133.7 103.23,133.245 97.237,127.964 96.788,127.568 					"/>
					
						<line fill="none" stroke="#333333" stroke-width="1.0616" stroke-linecap="round" stroke-miterlimit="10" x1="95.538" y1="126.466" x2="95.594" y2="126.516"/>
				</g>
			</g>
		</g>
		<g>
			
				<path fill="#A1C453" stroke="#333333" stroke-width="1.5923" stroke-linecap="round" stroke-linejoin="round" stroke-miterlimit="10" d="
				M121.816,104.622c0.29,2.842,2.03,4.114-1.655,8.852c-3.688,4.737-5.293,0.075-7.719,3.192c2.426-3.117-2.449-3.779,1.104-8.342
				C117.095,103.762,119.039,105.273,121.816,104.622z"/>
			<g>
				<line fill="none" x1="112.317" y1="116.541" x2="119.58" y2="107.208"/>
				<g>
					<polyline fill="none" stroke="#333333" stroke-width="1.0616" stroke-linecap="round" stroke-miterlimit="10" points="
						112.644,116.122 113.065,115.579 117.863,109.414 118.23,108.942 					"/>
					
						<line fill="none" stroke="#333333" stroke-width="1.0616" stroke-linecap="round" stroke-miterlimit="10" x1="119.254" y1="107.627" x2="119.208" y2="107.686"/>
				</g>
			</g>
		</g>
		<g>
			
				<path fill="#A1C453" stroke="#333333" stroke-width="1.5923" stroke-linecap="round" stroke-linejoin="round" stroke-miterlimit="10" d="
				M89.989,89.327c2.663,1.82,5.025,1.247,6.423,7.875c1.396,6.629-3.788,4.617-2.87,8.979c-0.918-4.361-5.04-0.643-6.388-7.026
				C85.81,92.77,88.527,92.196,89.989,89.327z"/>
			<g>
				<line fill="none" x1="93.541" y1="106.181" x2="90.788" y2="93.12"/>
				<g>
					<polyline fill="none" stroke="#333333" stroke-width="1.0616" stroke-linecap="round" stroke-miterlimit="10" points="
						93.432,105.661 93.29,104.988 91.364,95.855 91.241,95.271 					"/>
					
						<line fill="none" stroke="#333333" stroke-width="1.0616" stroke-linecap="round" stroke-miterlimit="10" x1="90.897" y1="93.64" x2="90.913" y2="93.713"/>
				</g>
			</g>
		</g>
		<g>
			
				<path fill="#A1C453" stroke="#333333" stroke-width="1.5923" stroke-linecap="round" stroke-linejoin="round" stroke-miterlimit="10" d="
				M79.046,97.242c3.17-0.596,4.435-2.672,10.111,1.026c5.674,3.7,0.583,5.945,4.317,8.378c-3.734-2.433-4.02,3.11-9.483-0.453
				C78.524,102.631,80.042,100.305,79.046,97.242z"/>
			<g>
				<line fill="none" x1="93.476" y1="106.646" x2="82.293" y2="99.359"/>
				<g>
					<polyline fill="none" stroke="#333333" stroke-width="1.0616" stroke-linecap="round" stroke-miterlimit="10" points="
						93.031,106.356 92.455,105.981 84.635,100.886 84.135,100.56 					"/>
					
						<line fill="none" stroke="#333333" stroke-width="1.0616" stroke-linecap="round" stroke-miterlimit="10" x1="82.737" y1="99.649" x2="82.8" y2="99.689"/>
				</g>
			</g>
		</g>
		<g>
			
				<path fill="#A1C453" stroke="#333333" stroke-width="1.5923" stroke-linecap="round" stroke-linejoin="round" stroke-miterlimit="10" d="
				M90.999,67.822c2.528,0.371,4.016-0.862,7.319,3.376c3.304,4.238-1.095,4.609,1.081,7.398c-2.176-2.789-3.815,1.298-6.998-2.783
				C89.218,71.731,90.955,70.376,90.999,67.822z"/>
			<g>
				<line fill="none" x1="99.4" y1="78.597" x2="92.89" y2="70.247"/>
				<g>
					<polyline fill="none" stroke="#333333" stroke-width="1.0616" stroke-linecap="round" stroke-miterlimit="10" points="
						99.074,78.178 98.651,77.636 94.608,72.451 94.241,71.98 					"/>
					
						<line fill="none" stroke="#333333" stroke-width="1.0616" stroke-linecap="round" stroke-miterlimit="10" x1="93.216" y1="70.666" x2="93.262" y2="70.725"/>
				</g>
			</g>
		</g>
		<g>
			
				<path fill="#A1C453" stroke="#333333" stroke-width="1.5923" stroke-linecap="round" stroke-linejoin="round" stroke-miterlimit="10" d="
				M85.956,77.274c2.052-1.528,2.229-3.45,7.563-2.79s2.486,4.033,5.997,4.467c-3.511-0.434-1.782,3.617-6.917,2.981
				C87.461,81.297,87.731,79.109,85.956,77.274z"/>
			<g>
				<line fill="none" x1="99.516" y1="78.951" x2="89.009" y2="77.651"/>
				<g>
					<polyline fill="none" stroke="#333333" stroke-width="1.0616" stroke-linecap="round" stroke-miterlimit="10" points="
						98.989,78.886 98.307,78.802 91.783,77.994 91.189,77.921 					"/>
					
						<line fill="none" stroke="#333333" stroke-width="1.0616" stroke-linecap="round" stroke-miterlimit="10" x1="89.535" y1="77.717" x2="89.609" y2="77.726"/>
				</g>
			</g>
		</g>
		<g>
			
				<path fill="#A1C453" stroke="#333333" stroke-width="1.5923" stroke-linecap="round" stroke-linejoin="round" stroke-miterlimit="10" d="
				M130.614,85.86c-2.068,2.474-1.727,4.881-8.458,5.63c-6.733,0.75-4.229-4.219-8.658-3.725c4.431-0.494,1.127-4.956,7.609-5.677
				C127.593,81.366,127.901,84.128,130.614,85.86z"/>
			<g>
				<line fill="none" x1="113.373" y1="87.641" x2="126.638" y2="86.164"/>
				<g>
					<polyline fill="none" stroke="#333333" stroke-width="1.0616" stroke-linecap="round" stroke-miterlimit="10" points="
						113.9,87.582 114.584,87.506 123.859,86.474 124.453,86.407 					"/>
					
						<line fill="none" stroke="#333333" stroke-width="1.0616" stroke-linecap="round" stroke-miterlimit="10" x1="126.11" y1="86.223" x2="126.036" y2="86.231"/>
				</g>
			</g>
		</g>
		<g>
			
				<path fill="#A1C453" stroke="#333333" stroke-width="1.5923" stroke-linecap="round" stroke-linejoin="round" stroke-miterlimit="10" d="
				M123.797,74.203c0.285,3.211,2.229,4.673-2.001,9.963c-4.231,5.29-5.974,0.006-8.757,3.488c2.783-3.482-2.706-4.301,1.369-9.396
				C118.482,73.162,120.652,74.896,123.797,74.203z"/>
			<g>
				<line fill="none" x1="113.039" y1="87.654" x2="121.375" y2="77.23"/>
				<g>
					<polyline fill="none" stroke="#333333" stroke-width="1.0616" stroke-linecap="round" stroke-miterlimit="10" points="
						113.37,87.24 113.8,86.703 119.629,79.414 120.002,78.947 					"/>
					
						<line fill="none" stroke="#333333" stroke-width="1.0616" stroke-linecap="round" stroke-miterlimit="10" x1="121.044" y1="77.645" x2="120.997" y2="77.703"/>
				</g>
			</g>
		</g>
		<g>
			
				<path fill="#A1C453" stroke="#333333" stroke-width="1.5923" stroke-linecap="round" stroke-linejoin="round" stroke-miterlimit="10" d="
				M124.305,95.612c-2.494,0.449-3.5,2.073-7.938-0.868c-4.437-2.941-0.423-4.674-3.343-6.608c2.92,1.935,3.177-2.419,7.448,0.414
				C124.746,91.382,123.542,93.2,124.305,95.612z"/>
			<g>
				<line fill="none" x1="112.902" y1="88.012" x2="121.642" y2="93.805"/>
				<g>
					<polyline fill="none" stroke="#333333" stroke-width="1.0616" stroke-linecap="round" stroke-miterlimit="10" points="
						113.345,88.305 113.918,88.685 119.312,92.26 119.81,92.591 					"/>
					
						<line fill="none" stroke="#333333" stroke-width="1.0616" stroke-linecap="round" stroke-miterlimit="10" x1="121.199" y1="93.512" x2="121.137" y2="93.471"/>
				</g>
			</g>
		</g>
		<path fill="#CC924C" stroke="#333333" stroke-width="2.8307" stroke-linecap="round" stroke-miterlimit="10" d="M108.69,155.356
			l-0.529-87.563c0-1.108-0.898-2.007-2.01-2.007l0,0c-1.106,0-2.007,0.898-2.007,2.007l-0.528,87.563"/>
		<g>
			<g>
				<path fill="#EF4529" d="M106.171,84.744c0.454,3.696-3.203,8.355-5.868,7.512c-2.625,1.671-7.058-2.174-7.512-5.869
					c-0.451-3.693,0.91-7.567,6.196-6.703C103.669,77.639,105.719,81.05,106.171,84.744z"/>
				<g>
					<path fill="none" stroke="#333333" stroke-width="1.5924" stroke-linecap="round" stroke-miterlimit="10" d="M106.202,85.539
						c-0.021,0.344-0.04,0.688-0.117,1.023c-0.308,1.606-1.122,3.1-2.244,4.282c-0.566,0.582-1.231,1.101-2.012,1.359
						c-0.391,0.111-0.804,0.189-1.206,0.111l-0.303-0.056c-0.095,0.021-0.185,0.083-0.275,0.122c-0.178,0.105-0.373,0.163-0.575,0.2
						c-0.804,0.176-1.643-0.03-2.372-0.381c-0.736-0.354-1.395-0.854-1.979-1.425c-1.139-1.157-2.048-2.614-2.301-4.238
						c-0.215-1.604-0.136-3.325,0.649-4.774c0.392-0.717,0.994-1.319,1.727-1.686c0.729-0.383,1.563-0.504,2.373-0.504
						c0.41-0.017,0.815,0.039,1.222,0.087c0.209,0.065,0.393-0.063,0.585-0.124c0.192-0.066,0.378-0.157,0.577-0.204
						c0.778-0.24,1.615-0.329,2.418-0.176c0.805,0.151,1.538,0.595,2.08,1.204c0.146,0.136,0.264,0.328,0.374,0.469
						c0.058,0.079,0.118,0.156,0.164,0.243c0.097,0.172,0.203,0.337,0.289,0.514"/>
					
						<line fill="none" stroke="#333333" stroke-width="1.5924" stroke-linecap="round" stroke-miterlimit="10" x1="106.047" y1="83.958" x2="106.023" y2="83.849"/>
				</g>
			</g>
			<path opacity="0.5" fill="#FFFFFF" enable-background="new    " d="M96.386,84.275c-0.402,0.752-1.226,1.094-1.843,0.764
				c-0.619-0.33-0.796-1.208-0.395-1.961c0.398-0.752,1.225-1.093,1.844-0.762C96.61,82.646,96.785,83.523,96.386,84.275z"/>
		</g>
		<g>
			<g>
				<path fill="#EF4529" d="M118.995,122.767c-1.079,3.563-6.309,6.347-8.404,4.498c-3.076,0.469-5.575-4.842-4.497-8.404
					c1.079-3.563,3.894-6.555,8.377-3.625C119.58,115.256,120.076,119.204,118.995,122.767z"/>
				<g>
					<path fill="none" stroke="#333333" stroke-width="1.5924" stroke-linecap="round" stroke-miterlimit="10" d="M118.702,123.507
						c-0.159,0.305-0.314,0.611-0.521,0.888c-0.931,1.346-2.281,2.381-3.784,3.009c-0.754,0.304-1.571,0.509-2.39,0.431
						c-0.402-0.056-0.813-0.151-1.148-0.386l-0.253-0.173c-0.096-0.019-0.202,0.002-0.304,0c-0.205,0.024-0.406-0.002-0.606-0.049
						c-0.807-0.164-1.488-0.692-2.015-1.308c-0.53-0.622-0.931-1.347-1.233-2.104c-0.572-1.519-0.814-3.219-0.39-4.807
						c0.452-1.554,1.22-3.096,2.524-4.104c0.647-0.496,1.441-0.804,2.261-0.844c0.82-0.055,1.633,0.172,2.374,0.5
						c0.382,0.151,0.729,0.366,1.081,0.574c0.164,0.145,0.385,0.1,0.585,0.123c0.203,0.017,0.409,0.009,0.61,0.046
						c0.81,0.096,1.61,0.352,2.282,0.816c0.675,0.463,1.166,1.165,1.416,1.941c0.079,0.184,0.107,0.406,0.152,0.58
						c0.021,0.096,0.046,0.191,0.052,0.29c0.02,0.195,0.05,0.39,0.059,0.586"/>
					
						<line fill="none" stroke="#333333" stroke-width="1.5924" stroke-linecap="round" stroke-miterlimit="10" x1="119.199" y1="121.997" x2="119.223" y2="121.888"/>
				</g>
			</g>
			
				<ellipse transform="matrix(0.7881 -0.6155 0.6155 0.7881 -49.0645 92.245)" opacity="0.5" fill="#FFFFFF" enable-background="new    " cx="109.451" cy="117.387" rx="1.542" ry="1.268"/>
		</g>
		<g>
			
				<path fill="#A1C453" stroke="#333333" stroke-width="1.0616" stroke-linecap="round" stroke-linejoin="round" stroke-miterlimit="10" d="
				M104.603,65.625c0,0,1.188-2.891,1.574-3.397c0.306-0.409,0.993,2.862,1.028,4.082L104.603,65.625z"/>
			
				<path fill="#A1C453" stroke="#333333" stroke-width="1.0616" stroke-linecap="round" stroke-linejoin="round" stroke-miterlimit="10" d="
				M107.072,65.373l-3.214,3.579c0,0-0.712-4.731,0.464-6.352C104.322,62.601,105.77,64.412,107.072,65.373z"/>
			
				<path fill="#A1C453" stroke="#333333" stroke-width="1.0616" stroke-linecap="round" stroke-linejoin="round" stroke-miterlimit="10" d="
				M107.692,71.078c0,0,2.355-5.453,0.57-8.478l-2.9,3.575L107.692,71.078z"/>
		</g>
	</g>
</g>
</svg>
