<?xml version="1.0" encoding="utf-8"?>
<!-- Generator: Adobe Illustrator 16.0.0, SVG Export Plug-In . SVG Version: 6.00 Build 0)  -->
<!DOCTYPE svg PUBLIC "-//W3C//DTD SVG 1.1//EN" "http://www.w3.org/Graphics/SVG/1.1/DTD/svg11.dtd">
<svg version="1.1" id="Calque_1" xmlns="http://www.w3.org/2000/svg" xmlns:xlink="http://www.w3.org/1999/xlink" x="0px" y="0px"
	 width="400px" height="400px" viewBox="0 0 400 400" enable-background="new 0 0 400 400" xml:space="preserve">
<g id="calque00">
	<g>
		<path fill="#CC924C" stroke="#333333" stroke-width="2.6539" stroke-linecap="round" stroke-miterlimit="10" d="M112.105,159.728
			l8.361-4.308c0.955-0.563,2.186-0.244,2.748,0.71l0,0c0.563,0.955,0.244,2.187-0.711,2.748l-7.82,5.225"/>
		<g>
			
				<path fill="#A1C453" stroke="#333333" stroke-width="1.0616" stroke-linecap="round" stroke-linejoin="round" stroke-miterlimit="10" d="
				M124.139,157.384c0,0,1.889-2.491,2.131-3.08c0.195-0.472-2.973,0.595-4.041,1.185L124.139,157.384z"/>
			
				<path fill="#A1C453" stroke="#333333" stroke-width="1.0616" stroke-linecap="round" stroke-linejoin="round" stroke-miterlimit="10" d="
				M123.104,155.13l-1.453,4.583c0,0,4.438-1.787,5.238-3.623C126.889,156.09,124.592,155.763,123.104,155.13z"/>
			
				<path fill="#A1C453" stroke="#333333" stroke-width="1.0616" stroke-linecap="round" stroke-linejoin="round" stroke-miterlimit="10" d="
				M117.873,157.489c0,0,3.502-4.798,7.016-4.793l-1.609,4.313L117.873,157.489z"/>
		</g>
	</g>
</g>
<g id="calque01">
	<g>
		<g>
			
				<path fill="#A1C453" stroke="#333333" stroke-width="1.0616" stroke-linecap="round" stroke-linejoin="round" stroke-miterlimit="10" d="
				M140.006,155.039c-0.617-1.156-0.279-2.085-2.896-2.944c-2.614-0.858-2.032,1.327-3.754,0.763
				c1.722,0.564,0.035,2.064,2.556,2.891C138.43,156.575,138.783,155.503,140.006,155.039z"/>
			<g>
				<line fill="none" x1="133.355" y1="152.857" x2="138.51" y2="154.549"/>
				<g>
					<polyline fill="none" stroke="#333333" stroke-width="1.0616" stroke-linecap="round" stroke-miterlimit="10" points="
						133.859,153.022 134.514,153.237 135.854,153.678 136.422,153.863 					"/>
					
						<line fill="none" stroke="#333333" stroke-width="1.0616" stroke-linecap="round" stroke-miterlimit="10" x1="138.006" y1="154.384" x2="137.935" y2="154.36"/>
				</g>
			</g>
		</g>
		<path fill="#CC924C" stroke="#333333" stroke-width="2.6539" stroke-linecap="round" stroke-miterlimit="10" d="M112.105,159.728
			l25.424-14.359c0.955-0.563,2.187-0.246,2.748,0.71l0,0c0.563,0.956,0.242,2.187-0.711,2.749l-24.883,15.275"/>
		<g>
			
				<path fill="#A1C453" stroke="#333333" stroke-width="1.0616" stroke-linecap="round" stroke-linejoin="round" stroke-miterlimit="10" d="
				M141.201,147.333c0,0,1.889-2.491,2.131-3.081c0.194-0.472-2.974,0.596-4.041,1.185L141.201,147.333z"/>
			
				<path fill="#A1C453" stroke="#333333" stroke-width="1.0616" stroke-linecap="round" stroke-linejoin="round" stroke-miterlimit="10" d="
				M140.166,145.077l-1.453,4.584c0,0,4.438-1.788,5.238-3.622C143.951,146.039,141.652,145.712,140.166,145.077z"/>
			
				<path fill="#A1C453" stroke="#333333" stroke-width="1.0616" stroke-linecap="round" stroke-linejoin="round" stroke-miterlimit="10" d="
				M134.934,147.437c0,0,3.504-4.796,7.019-4.792l-1.609,4.313L134.934,147.437z"/>
		</g>
	</g>
</g>
<g id="calque02">
	<g>
		<g>
			
				<path fill="#A1C453" stroke="#333333" stroke-width="1.5923" stroke-linecap="round" stroke-linejoin="round" stroke-miterlimit="10" d="
				M144.326,162.626c-0.603-2.794,0.661-4.54-4.31-7.908c-4.971-3.367-5.057,1.563-8.326-0.651c3.271,2.215-1.162,4.35,3.625,7.592
				C140.102,164.902,141.482,162.864,144.326,162.626z"/>
			<g>
				<line fill="none" x1="131.691" y1="154.066" x2="141.484" y2="160.7"/>
				<g>
					<polyline fill="none" stroke="#333333" stroke-width="1.0616" stroke-linecap="round" stroke-miterlimit="10" points="
						132.131,154.364 132.7,154.75 139.17,159.133 139.665,159.468 					"/>
					
						<line fill="none" stroke="#333333" stroke-width="1.0616" stroke-linecap="round" stroke-miterlimit="10" x1="141.045" y1="160.402" x2="140.983" y2="160.36"/>
				</g>
			</g>
		</g>
		<g>
			
				<path fill="#A1C453" stroke="#333333" stroke-width="1.0616" stroke-linecap="round" stroke-linejoin="round" stroke-miterlimit="10" d="
				M136.826,139.736c-1.125,0.625-2.041,0.31-2.843,2.891c-0.801,2.581,1.334,1.973,0.808,3.672
				c0.526-1.699,2.026-0.068,2.797-2.554C138.361,141.258,137.301,140.93,136.826,139.736z"/>
			<g>
				<line fill="none" x1="134.791" y1="146.299" x2="136.162" y2="141.77"/>
				<g>
					<polyline fill="none" stroke="#333333" stroke-width="1.0616" stroke-linecap="round" stroke-miterlimit="10" points="
						134.945,145.791 135.145,145.133 135.353,144.445 135.525,143.873 					"/>
					
						<line fill="none" stroke="#333333" stroke-width="1.0616" stroke-linecap="round" stroke-miterlimit="10" x1="136.008" y1="142.277" x2="135.986" y2="142.349"/>
				</g>
			</g>
		</g>
		<path fill="#CC924C" stroke="#333333" stroke-width="2.6539" stroke-linecap="round" stroke-miterlimit="10" d="M112.105,159.728
			l33.283-18.99c0.955-0.563,2.187-0.245,2.748,0.711l0,0c0.564,0.955,0.244,2.187-0.709,2.748l-32.744,19.906"/>
		<g>
			
				<path fill="#A1C453" stroke="#333333" stroke-width="1.0616" stroke-linecap="round" stroke-linejoin="round" stroke-miterlimit="10" d="
				M149.063,142.703c0,0,1.89-2.492,2.129-3.082c0.195-0.471-2.971,0.596-4.039,1.187L149.063,142.703z"/>
			
				<path fill="#A1C453" stroke="#333333" stroke-width="1.0616" stroke-linecap="round" stroke-linejoin="round" stroke-miterlimit="10" d="
				M148.025,140.447l-1.45,4.584c0,0,4.436-1.787,5.235-3.622C151.811,141.409,149.514,141.081,148.025,140.447z"/>
			
				<path fill="#A1C453" stroke="#333333" stroke-width="1.0616" stroke-linecap="round" stroke-linejoin="round" stroke-miterlimit="10" d="
				M142.795,142.807c0,0,3.504-4.796,7.016-4.793l-1.608,4.314L142.795,142.807z"/>
		</g>
	</g>
</g>
<g id="calque03">
	<g>
		
			<polygon fill="#CC924C" stroke="#333333" stroke-width="1.0616" stroke-linecap="round" stroke-linejoin="round" stroke-miterlimit="10" points="
			134.994,140.33 132.545,147.807 134.211,146.825 		"/>
		<g>
			
				<path fill="#A1C453" stroke="#333333" stroke-width="1.5923" stroke-linecap="round" stroke-linejoin="round" stroke-miterlimit="10" d="
				M143.998,162.561c-0.56-2.803,0.733-4.527-4.183-7.977c-4.914-3.445-5.08,1.482-8.313-0.785c3.233,2.268-1.232,4.33,3.502,7.65
				C139.736,164.769,141.15,162.753,143.998,162.561z"/>
			<g>
				<line fill="none" x1="131.502" y1="153.799" x2="141.184" y2="160.59"/>
				<g>
					<polyline fill="none" stroke="#333333" stroke-width="1.0616" stroke-linecap="round" stroke-miterlimit="10" points="
						131.937,154.104 132.5,154.498 138.895,158.984 139.385,159.328 					"/>
					
						<line fill="none" stroke="#333333" stroke-width="1.0616" stroke-linecap="round" stroke-miterlimit="10" x1="140.749" y1="160.285" x2="140.688" y2="160.242"/>
				</g>
			</g>
		</g>
		<g>
			
				<path fill="#A1C453" stroke="#333333" stroke-width="1.0616" stroke-linecap="round" stroke-linejoin="round" stroke-miterlimit="10" d="
				M162.162,147.259c-0.691-1.91,0.032-3.262-3.789-5.16c-3.822-1.896-3.414,1.585-5.931,0.336c2.517,1.249-0.401,3.175,3.279,5.002
				C159.404,149.267,160.184,147.698,162.162,147.259z"/>
			<g>
				<line fill="none" x1="152.443" y1="142.435" x2="159.975" y2="146.174"/>
				<g>
					<polyline fill="none" stroke="#333333" stroke-width="1.0616" stroke-linecap="round" stroke-miterlimit="10" points="
						152.919,142.671 153.535,142.977 157.471,144.931 158.006,145.196 					"/>
					
						<line fill="none" stroke="#333333" stroke-width="1.0616" stroke-linecap="round" stroke-miterlimit="10" x1="159.499" y1="145.938" x2="159.433" y2="145.904"/>
				</g>
			</g>
		</g>
		<g>
			
				<path fill="#A1C453" stroke="#333333" stroke-width="1.5923" stroke-linecap="round" stroke-linejoin="round" stroke-miterlimit="10" d="
				M139.98,128.168c0.965,2.37,2.779,3.024,0.808,8.021c-1.976,4.997-4.527,1.397-5.824,4.688c1.297-3.29-3.055-2.63-1.154-7.443
				C135.709,128.619,137.76,129.429,139.98,128.168z"/>
			<g>
				<line fill="none" x1="134.963" y1="140.877" x2="138.85" y2="131.029"/>
				<g>
					<polyline fill="none" stroke="#333333" stroke-width="1.0616" stroke-linecap="round" stroke-miterlimit="10" points="
						135.158,140.383 135.41,139.743 137.823,133.63 138.043,133.073 					"/>
					
						<line fill="none" stroke="#333333" stroke-width="1.0616" stroke-linecap="round" stroke-miterlimit="10" x1="138.654" y1="131.523" x2="138.627" y2="131.593"/>
				</g>
			</g>
		</g>
		<g>
			
				<path fill="#A1C453" stroke="#333333" stroke-width="1.0616" stroke-linecap="round" stroke-linejoin="round" stroke-miterlimit="10" d="
				M131.49,133.227c1.389,0.585,2.418,0.102,3.678,3.007c1.26,2.906-1.303,2.47-0.476,4.381c-0.828-1.911-2.368,0.177-3.582-2.62
				C129.896,135.196,131.088,134.679,131.49,133.227z"/>
			<g>
				<line fill="none" x1="134.693" y1="140.614" x2="132.209" y2="134.89"/>
				<g>
					<polyline fill="none" stroke="#333333" stroke-width="1.0616" stroke-linecap="round" stroke-miterlimit="10" points="
						134.482,140.127 134.208,139.496 133.322,137.454 133.084,136.906 					"/>
					
						<line fill="none" stroke="#333333" stroke-width="1.0616" stroke-linecap="round" stroke-miterlimit="10" x1="132.42" y1="135.377" x2="132.45" y2="135.445"/>
				</g>
			</g>
		</g>
		<path fill="#CC924C" stroke="#333333" stroke-width="2.8307" stroke-linecap="round" stroke-miterlimit="10" d="M112.105,159.728
			l41.422-23.785c0.955-0.563,2.187-0.244,2.75,0.711l0,0c0.563,0.956,0.242,2.186-0.713,2.749l-40.881,24.7"/>
		<g>
			
				<path fill="#A1C453" stroke="#333333" stroke-width="1.0616" stroke-linecap="round" stroke-linejoin="round" stroke-miterlimit="10" d="
				M157.201,137.907c0,0,1.889-2.49,2.129-3.08c0.196-0.473-2.974,0.596-4.041,1.186L157.201,137.907z"/>
			
				<path fill="#A1C453" stroke="#333333" stroke-width="1.0616" stroke-linecap="round" stroke-linejoin="round" stroke-miterlimit="10" d="
				M156.164,135.652l-1.453,4.584c0,0,4.438-1.787,5.238-3.622C159.949,136.614,157.652,136.286,156.164,135.652z"/>
			
				<path fill="#A1C453" stroke="#333333" stroke-width="1.0616" stroke-linecap="round" stroke-linejoin="round" stroke-miterlimit="10" d="
				M150.934,138.013c0,0,3.504-4.798,7.017-4.795l-1.609,4.313L150.934,138.013z"/>
		</g>
	</g>
</g>
<g id="calque04">
	<g>
		
			<polygon fill="#CC924C" stroke="#333333" stroke-width="1.0616" stroke-linecap="round" stroke-linejoin="round" stroke-miterlimit="10" points="
			169.779,148.148 149.324,143.078 151.906,141.558 		"/>
		
			<polygon fill="#CC924C" stroke="#333333" stroke-width="1.0616" stroke-linecap="round" stroke-linejoin="round" stroke-miterlimit="10" points="
			134.994,140.33 132.547,147.807 134.213,146.826 		"/>
		<g>
			
				<path fill="#A1C453" stroke="#333333" stroke-width="1.5923" stroke-linecap="round" stroke-linejoin="round" stroke-miterlimit="10" d="
				M143.998,162.561c-0.56-2.803,0.733-4.527-4.183-7.977c-4.914-3.445-5.08,1.482-8.313-0.785c3.233,2.268-1.232,4.33,3.502,7.65
				C139.736,164.769,141.15,162.753,143.998,162.561z"/>
			<g>
				<line fill="none" x1="131.502" y1="153.799" x2="141.184" y2="160.59"/>
				<g>
					<polyline fill="none" stroke="#333333" stroke-width="1.0616" stroke-linecap="round" stroke-miterlimit="10" points="
						131.937,154.104 132.5,154.498 138.895,158.984 139.385,159.328 					"/>
					
						<line fill="none" stroke="#333333" stroke-width="1.0616" stroke-linecap="round" stroke-miterlimit="10" x1="140.749" y1="160.285" x2="140.688" y2="160.242"/>
				</g>
			</g>
		</g>
		<g>
			
				<path fill="#A1C453" stroke="#333333" stroke-width="1.0616" stroke-linecap="round" stroke-linejoin="round" stroke-miterlimit="10" d="
				M178.041,144.377c-1.59-0.747-1.978-2.016-5.478-0.837c-3.502,1.177-1.119,3.058-3.422,3.833
				c2.303-0.775,1.695,2.191,5.066,1.056C177.579,147.294,177.1,145.858,178.041,144.377z"/>
			<g>
				<line fill="none" x1="169.143" y1="147.373" x2="176.037" y2="145.052"/>
				<g>
					<polyline fill="none" stroke="#333333" stroke-width="1.0616" stroke-linecap="round" stroke-miterlimit="10" points="
						169.646,147.204 170.297,146.984 173.388,145.943 173.954,145.753 					"/>
					
						<line fill="none" stroke="#333333" stroke-width="1.0616" stroke-linecap="round" stroke-miterlimit="10" x1="175.534" y1="145.221" x2="175.463" y2="145.245"/>
				</g>
			</g>
		</g>
		<g>
			
				<path fill="#A1C453" stroke="#333333" stroke-width="1.5923" stroke-linecap="round" stroke-linejoin="round" stroke-miterlimit="10" d="
				M184.752,155.891c-1.097-3.032,0.053-5.177-6.017-8.19c-6.065-3.01-5.418,2.516-9.409,0.533c3.991,1.982-0.642,5.041,5.202,7.94
				C180.375,159.076,181.607,156.589,184.752,155.891z"/>
			<g>
				<line fill="none" x1="169.326" y1="148.233" x2="181.281" y2="154.168"/>
				<g>
					<polyline fill="none" stroke="#333333" stroke-width="1.0616" stroke-linecap="round" stroke-miterlimit="10" points="
						169.802,148.47 170.418,148.775 178.777,152.925 179.313,153.19 					"/>
					
						<line fill="none" stroke="#333333" stroke-width="1.0616" stroke-linecap="round" stroke-miterlimit="10" x1="180.806" y1="153.932" x2="180.739" y2="153.898"/>
				</g>
			</g>
		</g>
		<g>
			
				<path fill="#A1C453" stroke="#333333" stroke-width="1.5923" stroke-linecap="round" stroke-linejoin="round" stroke-miterlimit="10" d="
				M139.98,128.168c0.965,2.37,2.779,3.024,0.808,8.021c-1.976,4.999-4.527,1.397-5.824,4.688c1.297-3.29-3.055-2.63-1.154-7.443
				C135.709,128.619,137.76,129.429,139.98,128.168z"/>
			<g>
				<line fill="none" x1="134.963" y1="140.877" x2="138.85" y2="131.029"/>
				<g>
					<polyline fill="none" stroke="#333333" stroke-width="1.0616" stroke-linecap="round" stroke-miterlimit="10" points="
						135.158,140.383 135.41,139.743 137.823,133.63 138.043,133.073 					"/>
					
						<line fill="none" stroke="#333333" stroke-width="1.0616" stroke-linecap="round" stroke-miterlimit="10" x1="138.654" y1="131.523" x2="138.627" y2="131.593"/>
				</g>
			</g>
		</g>
		<g>
			
				<path fill="#A1C453" stroke="#333333" stroke-width="1.5923" stroke-linecap="round" stroke-linejoin="round" stroke-miterlimit="10" d="
				M129.277,128.621c2.357,0.992,4.103,0.172,6.242,5.101c2.14,4.931-2.213,4.19-0.805,7.434c-1.408-3.243-4.021,0.302-6.08-4.445
				C126.574,131.96,128.598,131.084,129.277,128.621z"/>
			<g>
				<line fill="none" x1="134.715" y1="141.155" x2="130.5" y2="131.442"/>
				<g>
					<polyline fill="none" stroke="#333333" stroke-width="1.0616" stroke-linecap="round" stroke-miterlimit="10" points="
						134.504,140.668 134.229,140.037 131.613,134.007 131.375,133.459 					"/>
					
						<line fill="none" stroke="#333333" stroke-width="1.0616" stroke-linecap="round" stroke-miterlimit="10" x1="130.711" y1="131.93" x2="130.741" y2="131.998"/>
				</g>
			</g>
		</g>
		<g>
			
				<path fill="#A1C453" stroke="#333333" stroke-width="1.0616" stroke-linecap="round" stroke-linejoin="round" stroke-miterlimit="10" d="
				M166.92,120.349c-1.479,0.702-2.619,0.228-3.844,3.444c-1.226,3.215,1.539,2.614,0.731,4.73c0.808-2.116,2.58,0.076,3.76-3.021
				C168.746,122.404,167.428,121.904,166.92,120.349z"/>
			<g>
				<line fill="none" x1="163.809" y1="128.523" x2="166.221" y2="122.188"/>
				<g>
					<polyline fill="none" stroke="#333333" stroke-width="1.0616" stroke-linecap="round" stroke-miterlimit="10" points="
						163.997,128.027 164.242,127.385 165.226,124.801 165.438,124.242 					"/>
					
						<line fill="none" stroke="#333333" stroke-width="1.0616" stroke-linecap="round" stroke-miterlimit="10" x1="166.032" y1="122.685" x2="166.005" y2="122.754"/>
				</g>
			</g>
		</g>
		<path fill="#CC924C" stroke="#333333" stroke-width="2.8307" stroke-linecap="round" stroke-miterlimit="10" d="M112.105,159.728
			l56.24-32.514c0.957-0.563,2.188-0.245,2.75,0.711l0,0c0.561,0.956,0.242,2.186-0.713,2.749l-55.699,33.429"/>
		<g>
			
				<path fill="#A1C453" stroke="#333333" stroke-width="1.0616" stroke-linecap="round" stroke-linejoin="round" stroke-miterlimit="10" d="
				M172.02,129.179c0,0,1.89-2.491,2.131-3.08c0.195-0.473-2.973,0.595-4.043,1.185L172.02,129.179z"/>
			
				<path fill="#A1C453" stroke="#333333" stroke-width="1.0616" stroke-linecap="round" stroke-linejoin="round" stroke-miterlimit="10" d="
				M170.982,126.923l-1.453,4.584c0,0,4.438-1.787,5.238-3.621C174.768,127.886,172.471,127.558,170.982,126.923z"/>
			
				<path fill="#A1C453" stroke="#333333" stroke-width="1.0616" stroke-linecap="round" stroke-linejoin="round" stroke-miterlimit="10" d="
				M165.752,129.283c0,0,3.504-4.797,7.016-4.794l-1.608,4.314L165.752,129.283z"/>
		</g>
		<g>
			
				<path fill="#FFFFFF" stroke="#333333" stroke-width="1.0616" stroke-linecap="round" stroke-linejoin="round" stroke-miterlimit="10" d="
				M168.955,149.241c0.004,0.475-0.81,0.962-1.457,1.26c-1.164,0.537-3.119,0.218-3.133-1.276c-0.015-1.501,1.938-1.862,3.11-1.352
				C168.127,148.159,168.949,148.763,168.955,149.241z"/>
			
				<path fill="#FFFFFF" stroke="#333333" stroke-width="1.0616" stroke-linecap="round" stroke-linejoin="round" stroke-miterlimit="10" d="
				M169.066,149.296c0.41-0.242,1.238,0.216,1.818,0.628c1.049,0.739,1.748,2.595,0.463,3.353c-1.295,0.763-2.582-0.746-2.727-2.019
				C168.541,150.55,168.654,149.537,169.066,149.296z"/>
			
				<path fill="#FFFFFF" stroke="#333333" stroke-width="1.0616" stroke-linecap="round" stroke-linejoin="round" stroke-miterlimit="10" d="
				M169.059,149.177c-0.412-0.233-0.43-1.181-0.363-1.89c0.117-1.277,1.373-2.813,2.675-2.076c1.307,0.739,0.645,2.608-0.388,3.37
				C170.41,149.003,169.477,149.412,169.059,149.177z"/>
			
				<path fill="#FFFFFF" stroke="#333333" stroke-width="1.0616" stroke-linecap="round" stroke-linejoin="round" stroke-miterlimit="10" d="
				M168.914,149.112c-0.41,0.241-1.236-0.219-1.816-0.629c-1.049-0.741-1.75-2.595-0.463-3.353c1.293-0.762,2.582,0.745,2.725,2.018
				C169.439,147.856,169.326,148.869,168.914,149.112z"/>
			
				<path fill="#FFFFFF" stroke="#333333" stroke-width="1.0616" stroke-linecap="round" stroke-linejoin="round" stroke-miterlimit="10" d="
				M168.928,149.235c0.414,0.232,0.43,1.18,0.365,1.889c-0.117,1.278-1.373,2.811-2.674,2.076c-1.308-0.739-0.646-2.608,0.387-3.369
				C167.578,149.408,168.512,148.998,168.928,149.235z"/>
			
				<path fill="#FFFFFF" stroke="#333333" stroke-width="1.0616" stroke-linecap="round" stroke-linejoin="round" stroke-miterlimit="10" d="
				M169.029,149.147c-0.004-0.475,0.808-0.962,1.453-1.26c1.166-0.537,3.121-0.218,3.136,1.276c0.014,1.502-1.937,1.862-3.109,1.352
				C169.854,150.229,169.033,149.627,169.029,149.147z"/>
			
				<circle fill="#F9D53E" stroke="#333333" stroke-width="1.0616" stroke-linecap="round" stroke-linejoin="round" stroke-miterlimit="10" cx="168.915" cy="149.112" r="0.987"/>
		</g>
	</g>
</g>
<g id="calque05">
	<g>
		
			<polygon fill="#CC924C" stroke="#333333" stroke-width="0.8493" stroke-linecap="round" stroke-linejoin="round" stroke-miterlimit="10" points="
			164.072,120.368 162.26,130.795 164.842,129.274 		"/>
		
			<polygon fill="#CC924C" stroke="#333333" stroke-width="1.0616" stroke-linecap="round" stroke-linejoin="round" stroke-miterlimit="10" points="
			169.777,148.146 149.324,143.075 151.904,141.556 		"/>
		
			<polygon fill="#CC924C" stroke="#333333" stroke-width="1.0616" stroke-linecap="round" stroke-linejoin="round" stroke-miterlimit="10" points="
			134.992,140.327 132.545,147.804 134.211,146.821 		"/>
		<g>
			
				<path fill="#A1C453" stroke="#333333" stroke-width="1.5923" stroke-linecap="round" stroke-linejoin="round" stroke-miterlimit="10" d="
				M143.996,162.558c-0.56-2.803,0.733-4.529-4.183-7.977c-4.914-3.446-5.082,1.481-8.313-0.786c3.231,2.268-1.23,4.331,3.502,7.65
				C139.734,164.764,141.148,162.749,143.996,162.558z"/>
			<g>
				<line fill="none" x1="131.5" y1="153.795" x2="141.182" y2="160.587"/>
				<g>
					<polyline fill="none" stroke="#333333" stroke-width="1.0616" stroke-linecap="round" stroke-miterlimit="10" points="
						131.935,154.1 132.498,154.495 138.894,158.981 139.383,159.324 					"/>
					
						<line fill="none" stroke="#333333" stroke-width="1.0616" stroke-linecap="round" stroke-miterlimit="10" x1="140.747" y1="160.282" x2="140.686" y2="160.239"/>
				</g>
			</g>
		</g>
		<g>
			
				<path fill="#A1C453" stroke="#333333" stroke-width="1.5923" stroke-linecap="round" stroke-linejoin="round" stroke-miterlimit="10" d="
				M186.016,142.442c-2.92-1.37-3.625-3.696-10.045-1.536c-6.422,2.16-2.053,5.608-6.279,7.029c4.228-1.421,3.113,4.017,9.295,1.937
				C185.172,147.79,184.285,145.159,186.016,142.442z"/>
			<g>
				<line fill="none" x1="169.691" y1="147.936" x2="182.342" y2="143.68"/>
				<g>
					<polyline fill="none" stroke="#333333" stroke-width="1.0616" stroke-linecap="round" stroke-miterlimit="10" points="
						170.194,147.767 170.847,147.547 179.692,144.571 180.259,144.381 					"/>
					
						<line fill="none" stroke="#333333" stroke-width="1.0616" stroke-linecap="round" stroke-miterlimit="10" x1="181.839" y1="143.849" x2="181.768" y2="143.873"/>
				</g>
			</g>
		</g>
		<g>
			
				<path fill="#A1C453" stroke="#333333" stroke-width="1.5923" stroke-linecap="round" stroke-linejoin="round" stroke-miterlimit="10" d="
				M184.752,155.888c-1.099-3.031,0.051-5.177-6.019-8.189c-6.067-3.011-5.418,2.515-9.409,0.531
				c3.991,1.983-0.64,5.042,5.202,7.941C180.373,159.074,181.607,156.586,184.752,155.888z"/>
			<g>
				<line fill="none" x1="169.324" y1="148.229" x2="181.279" y2="154.165"/>
				<g>
					<polyline fill="none" stroke="#333333" stroke-width="1.0616" stroke-linecap="round" stroke-miterlimit="10" points="
						169.8,148.466 170.416,148.771 178.775,152.922 179.311,153.188 					"/>
					
						<line fill="none" stroke="#333333" stroke-width="1.0616" stroke-linecap="round" stroke-miterlimit="10" x1="180.804" y1="153.929" x2="180.737" y2="153.896"/>
				</g>
			</g>
		</g>
		<g>
			
				<path fill="#A1C453" stroke="#333333" stroke-width="1.5923" stroke-linecap="round" stroke-linejoin="round" stroke-miterlimit="10" d="
				M139.979,128.166c0.965,2.369,2.781,3.022,0.81,8.021c-1.978,4.997-4.529,1.397-5.826,4.687c1.297-3.289-3.055-2.629-1.154-7.443
				C135.709,128.617,137.756,129.426,139.979,128.166z"/>
			<g>
				<line fill="none" x1="134.961" y1="140.874" x2="138.85" y2="131.026"/>
				<g>
					<polyline fill="none" stroke="#333333" stroke-width="1.0616" stroke-linecap="round" stroke-miterlimit="10" points="
						135.156,140.38 135.408,139.74 137.823,133.626 138.042,133.07 					"/>
					
						<line fill="none" stroke="#333333" stroke-width="1.0616" stroke-linecap="round" stroke-miterlimit="10" x1="138.654" y1="131.521" x2="138.627" y2="131.59"/>
				</g>
			</g>
		</g>
		<g>
			
				<path fill="#A1C453" stroke="#333333" stroke-width="1.5923" stroke-linecap="round" stroke-linejoin="round" stroke-miterlimit="10" d="
				M129.275,128.618c2.359,0.993,4.104,0.171,6.242,5.102c2.139,4.929-2.213,4.189-0.805,7.433c-1.408-3.243-4.021,0.301-6.08-4.446
				C126.572,131.957,128.594,131.08,129.275,128.618z"/>
			<g>
				<line fill="none" x1="134.713" y1="141.152" x2="130.498" y2="131.439"/>
				<g>
					<polyline fill="none" stroke="#333333" stroke-width="1.0616" stroke-linecap="round" stroke-miterlimit="10" points="
						134.502,140.665 134.228,140.034 131.611,134.004 131.373,133.455 					"/>
					
						<line fill="none" stroke="#333333" stroke-width="1.0616" stroke-linecap="round" stroke-miterlimit="10" x1="130.709" y1="131.927" x2="130.739" y2="131.995"/>
				</g>
			</g>
		</g>
		<g>
			
				<path fill="#A1C453" stroke="#333333" stroke-width="1.5923" stroke-linecap="round" stroke-linejoin="round" stroke-miterlimit="10" d="
				M170.201,104.272c-2.912,1.385-5.158,0.449-7.568,6.781c-2.41,6.33,3.027,5.147,1.438,9.314c1.589-4.167,5.08,0.147,7.402-5.947
				C173.795,108.322,171.199,107.334,170.201,104.272z"/>
			<g>
				<line fill="none" x1="164.072" y1="120.368" x2="168.822" y2="107.896"/>
				<g>
					<polyline fill="none" stroke="#333333" stroke-width="1.0616" stroke-linecap="round" stroke-miterlimit="10" points="
						164.262,119.872 164.506,119.229 167.827,110.508 168.04,109.949 					"/>
					
						<line fill="none" stroke="#333333" stroke-width="1.0616" stroke-linecap="round" stroke-miterlimit="10" x1="168.633" y1="108.392" x2="168.606" y2="108.461"/>
				</g>
			</g>
		</g>
		<g>
			
				<path fill="#A1C453" stroke="#333333" stroke-width="1.0616" stroke-linecap="round" stroke-linejoin="round" stroke-miterlimit="10" d="
				M155.551,116.762c0.594,1.607-0.008,2.753,3.229,4.327c3.236,1.576,2.869-1.357,4.998-0.323c-2.129-1.034,0.32-2.679-2.797-4.195
				C157.863,115.052,157.217,116.379,155.551,116.762z"/>
			<g>
				<line fill="none" x1="163.777" y1="120.766" x2="157.4" y2="117.663"/>
				<g>
					<polyline fill="none" stroke="#333333" stroke-width="1.0616" stroke-linecap="round" stroke-miterlimit="10" points="
						163.3,120.533 162.682,120.232 159.914,118.886 159.377,118.625 					"/>
					
						<line fill="none" stroke="#333333" stroke-width="1.0616" stroke-linecap="round" stroke-miterlimit="10" x1="157.878" y1="117.896" x2="157.945" y2="117.928"/>
				</g>
			</g>
		</g>
		<g>
			<g>
				<path fill="#D3F46C" d="M169.576,154.58c-2.154,1.701-6.49,1.184-6.98-0.818c-2.059-1.013-1.334-5.278,0.82-6.979
					c2.151-1.701,5.115-2.329,6.596,1.335C173.096,150.282,171.73,152.879,169.576,154.58z"/>
				<g>
					<path fill="none" stroke="#333333" stroke-width="1.0616" stroke-linecap="round" stroke-miterlimit="10" d="M169.138,154.879
						c-0.207,0.097-0.4,0.227-0.619,0.298c-1.136,0.463-2.411,0.522-3.606,0.291c-0.597-0.128-1.185-0.354-1.664-0.734
						c-0.229-0.203-0.439-0.434-0.557-0.718c-0.022-0.36-0.445-0.373-0.607-0.642c-0.43-0.442-0.624-1.06-0.683-1.663
						c-0.058-0.609,0.01-1.226,0.151-1.819c0.295-1.181,0.903-2.313,1.85-3.098c0.954-0.744,2.101-1.352,3.336-1.357
						c1.258-0.03,2.347,0.847,2.905,1.921c0.168,0.254,0.237,0.572,0.426,0.805c0.239,0.189,0.491,0.366,0.7,0.591
						c0.434,0.426,0.8,0.943,0.953,1.54c0.159,0.594,0.087,1.23-0.139,1.797c-0.057,0.138-0.116,0.295-0.187,0.407l-0.095,0.173
						c-0.058,0.118-0.141,0.221-0.211,0.331"/>
					
						<line fill="none" stroke="#333333" stroke-width="1.0616" stroke-linecap="round" stroke-miterlimit="10" x1="169.982" y1="154.239" x2="170.037" y2="154.188"/>
				</g>
			</g>
			
				<ellipse transform="matrix(0.9985 -0.0554 0.0554 0.9985 -7.8988 9.4176)" opacity="0.5" fill="#FFFFFF" enable-background="new    " cx="166.062" cy="147.303" rx="1.138" ry="0.936"/>
		</g>
		<path fill="#CC924C" stroke="#333333" stroke-width="2.8307" stroke-linecap="round" stroke-miterlimit="10" d="M112.105,159.725
			l63.636-36.87c0.954-0.563,2.184-0.244,2.747,0.711l0,0c0.563,0.955,0.244,2.186-0.711,2.748L114.682,164.1"/>
		<g>
			
				<path fill="#A1C453" stroke="#333333" stroke-width="1.0616" stroke-linecap="round" stroke-linejoin="round" stroke-miterlimit="10" d="
				M179.412,124.819c0,0,1.891-2.492,2.131-3.081c0.194-0.471-2.974,0.596-4.041,1.185L179.412,124.819z"/>
			
				<path fill="#A1C453" stroke="#333333" stroke-width="1.0616" stroke-linecap="round" stroke-linejoin="round" stroke-miterlimit="10" d="
				M178.377,122.565l-1.453,4.582c0,0,4.436-1.788,5.238-3.622C182.162,123.525,179.863,123.198,178.377,122.565z"/>
			
				<path fill="#A1C453" stroke="#333333" stroke-width="1.0616" stroke-linecap="round" stroke-linejoin="round" stroke-miterlimit="10" d="
				M173.146,124.924c0,0,3.502-4.797,7.015-4.793l-1.609,4.313L173.146,124.924z"/>
		</g>
		<g>
			
				<path fill="#FFFFFF" stroke="#333333" stroke-width="1.0616" stroke-linecap="round" stroke-linejoin="round" stroke-miterlimit="10" d="
				M162.475,120.903c0.002,0.475-0.809,0.962-1.455,1.26c-1.166,0.537-3.121,0.218-3.135-1.276
				c-0.014-1.501,1.938-1.863,3.109-1.351C161.646,119.822,162.469,120.425,162.475,120.903z"/>
			
				<path fill="#FFFFFF" stroke="#333333" stroke-width="1.0616" stroke-linecap="round" stroke-linejoin="round" stroke-miterlimit="10" d="
				M162.586,120.957c0.41-0.241,1.238,0.217,1.819,0.629c1.048,0.74,1.748,2.595,0.462,3.353c-1.293,0.763-2.584-0.745-2.728-2.018
				C162.061,122.213,162.174,121.2,162.586,120.957z"/>
			
				<path fill="#FFFFFF" stroke="#333333" stroke-width="1.0616" stroke-linecap="round" stroke-linejoin="round" stroke-miterlimit="10" d="
				M162.58,120.839c-0.414-0.233-0.433-1.181-0.365-1.89c0.117-1.277,1.373-2.812,2.672-2.075c1.309,0.739,0.646,2.608-0.383,3.368
				C163.93,120.666,162.996,121.075,162.58,120.839z"/>
			
				<path fill="#FFFFFF" stroke="#333333" stroke-width="1.0616" stroke-linecap="round" stroke-linejoin="round" stroke-miterlimit="10" d="
				M162.434,120.774c-0.408,0.241-1.235-0.217-1.817-0.629c-1.048-0.741-1.748-2.595-0.462-3.353
				c1.294-0.763,2.582,0.745,2.728,2.018C162.959,119.519,162.848,120.531,162.434,120.774z"/>
			
				<path fill="#FFFFFF" stroke="#333333" stroke-width="1.0616" stroke-linecap="round" stroke-linejoin="round" stroke-miterlimit="10" d="
				M162.447,120.897c0.414,0.232,0.433,1.181,0.363,1.889c-0.115,1.278-1.371,2.812-2.672,2.075
				c-1.307-0.739-0.645-2.607,0.385-3.369C161.098,121.07,162.031,120.661,162.447,120.897z"/>
			
				<path fill="#FFFFFF" stroke="#333333" stroke-width="1.0616" stroke-linecap="round" stroke-linejoin="round" stroke-miterlimit="10" d="
				M162.549,120.811c-0.004-0.476,0.809-0.963,1.455-1.261c1.164-0.537,3.119-0.218,3.133,1.276
				c0.014,1.501-1.938,1.863-3.109,1.352C163.373,121.893,162.553,121.288,162.549,120.811z"/>
			
				<circle fill="#F9D53E" stroke="#333333" stroke-width="1.0616" stroke-linecap="round" stroke-linejoin="round" stroke-miterlimit="10" cx="162.435" cy="120.775" r="0.987"/>
		</g>
	</g>
</g>
<g id="calque06">
	<g>
		
			<polygon fill="#CC924C" stroke="#333333" stroke-width="0.8493" stroke-linecap="round" stroke-linejoin="round" stroke-miterlimit="10" points="
			164.074,120.37 162.262,130.799 164.842,129.277 		"/>
		
			<polygon fill="#CC924C" stroke="#333333" stroke-width="1.0616" stroke-linecap="round" stroke-linejoin="round" stroke-miterlimit="10" points="
			169.779,148.148 149.324,143.078 151.906,141.558 		"/>
		
			<polygon fill="#CC924C" stroke="#333333" stroke-width="1.0616" stroke-linecap="round" stroke-linejoin="round" stroke-miterlimit="10" points="
			134.994,140.33 132.547,147.807 134.213,146.826 		"/>
		<g>
			
				<path fill="#A1C453" stroke="#333333" stroke-width="1.5923" stroke-linecap="round" stroke-linejoin="round" stroke-miterlimit="10" d="
				M143.998,162.561c-0.56-2.803,0.733-4.527-4.183-7.977c-4.914-3.445-5.08,1.482-8.313-0.785c3.233,2.268-1.232,4.33,3.502,7.65
				C139.736,164.769,141.15,162.753,143.998,162.561z"/>
			<g>
				<line fill="none" x1="131.502" y1="153.799" x2="141.184" y2="160.59"/>
				<g>
					<polyline fill="none" stroke="#333333" stroke-width="1.0616" stroke-linecap="round" stroke-miterlimit="10" points="
						131.937,154.104 132.5,154.498 138.895,158.984 139.385,159.328 					"/>
					
						<line fill="none" stroke="#333333" stroke-width="1.0616" stroke-linecap="round" stroke-miterlimit="10" x1="140.749" y1="160.285" x2="140.688" y2="160.242"/>
				</g>
			</g>
		</g>
		<g>
			
				<path fill="#A1C453" stroke="#333333" stroke-width="1.0616" stroke-linecap="round" stroke-linejoin="round" stroke-miterlimit="10" d="
				M186.418,128.586c-1.385,1.019-1.515,2.31-5.097,1.844c-3.581-0.465-1.653-2.722-4.012-3.026c2.357,0.305,1.211-2.424,4.66-1.976
				C185.424,125.874,185.23,127.344,186.418,128.586z"/>
			<g>
				<line fill="none" x1="177.311" y1="127.403" x2="184.369" y2="128.319"/>
				<g>
					<polyline fill="none" stroke="#333333" stroke-width="1.0616" stroke-linecap="round" stroke-miterlimit="10" points="
						177.837,127.472 178.519,127.561 181.597,127.96 182.189,128.036 					"/>
					
						<line fill="none" stroke="#333333" stroke-width="1.0616" stroke-linecap="round" stroke-miterlimit="10" x1="183.843" y1="128.251" x2="183.769" y2="128.241"/>
				</g>
			</g>
		</g>
		<g>
			
				<path fill="#A1C453" stroke="#333333" stroke-width="1.5923" stroke-linecap="round" stroke-linejoin="round" stroke-miterlimit="10" d="
				M186.018,142.444c-2.92-1.368-3.625-3.695-10.047-1.536c-6.418,2.161-2.053,5.609-6.277,7.029
				c4.226-1.42,3.111,4.018,9.295,1.938C185.174,147.793,184.287,145.162,186.018,142.444z"/>
			<g>
				<line fill="none" x1="169.693" y1="147.938" x2="182.344" y2="143.682"/>
				<g>
					<polyline fill="none" stroke="#333333" stroke-width="1.0616" stroke-linecap="round" stroke-miterlimit="10" points="
						170.196,147.769 170.849,147.549 179.694,144.573 180.261,144.383 					"/>
					
						<line fill="none" stroke="#333333" stroke-width="1.0616" stroke-linecap="round" stroke-miterlimit="10" x1="181.841" y1="143.851" x2="181.77" y2="143.875"/>
				</g>
			</g>
		</g>
		<g>
			
				<path fill="#A1C453" stroke="#333333" stroke-width="1.5923" stroke-linecap="round" stroke-linejoin="round" stroke-miterlimit="10" d="
				M184.752,155.891c-1.097-3.032,0.053-5.177-6.017-8.19c-6.065-3.01-5.418,2.516-9.411,0.532c3.993,1.983-0.64,5.042,5.204,7.94
				C180.375,159.076,181.607,156.589,184.752,155.891z"/>
			<g>
				<line fill="none" x1="169.324" y1="148.232" x2="181.281" y2="154.168"/>
				<g>
					<polyline fill="none" stroke="#333333" stroke-width="1.0616" stroke-linecap="round" stroke-miterlimit="10" points="
						169.8,148.469 170.416,148.774 178.777,152.925 179.313,153.19 					"/>
					
						<line fill="none" stroke="#333333" stroke-width="1.0616" stroke-linecap="round" stroke-miterlimit="10" x1="180.806" y1="153.932" x2="180.739" y2="153.898"/>
				</g>
			</g>
		</g>
		<g>
			
				<path fill="#A1C453" stroke="#333333" stroke-width="1.5923" stroke-linecap="round" stroke-linejoin="round" stroke-miterlimit="10" d="
				M139.98,128.168c0.965,2.37,2.779,3.024,0.808,8.021c-1.976,4.999-4.527,1.397-5.824,4.688c1.297-3.29-3.058-2.63-1.154-7.443
				C135.709,128.619,137.76,129.429,139.98,128.168z"/>
			<g>
				<line fill="none" x1="134.963" y1="140.877" x2="138.85" y2="131.029"/>
				<g>
					<polyline fill="none" stroke="#333333" stroke-width="1.0616" stroke-linecap="round" stroke-miterlimit="10" points="
						135.158,140.383 135.41,139.743 137.823,133.63 138.043,133.073 					"/>
					
						<line fill="none" stroke="#333333" stroke-width="1.0616" stroke-linecap="round" stroke-miterlimit="10" x1="138.654" y1="131.523" x2="138.627" y2="131.593"/>
				</g>
			</g>
		</g>
		<g>
			
				<path fill="#A1C453" stroke="#333333" stroke-width="1.5923" stroke-linecap="round" stroke-linejoin="round" stroke-miterlimit="10" d="
				M129.277,128.621c2.359,0.993,4.103,0.172,6.24,5.101c2.142,4.931-2.211,4.19-0.803,7.434c-1.408-3.243-4.021,0.302-6.08-4.445
				C126.574,131.96,128.598,131.084,129.277,128.621z"/>
			<g>
				<line fill="none" x1="134.715" y1="141.155" x2="130.5" y2="131.442"/>
				<g>
					<polyline fill="none" stroke="#333333" stroke-width="1.0616" stroke-linecap="round" stroke-miterlimit="10" points="
						134.504,140.668 134.229,140.037 131.613,134.007 131.375,133.459 					"/>
					
						<line fill="none" stroke="#333333" stroke-width="1.0616" stroke-linecap="round" stroke-miterlimit="10" x1="130.711" y1="131.93" x2="130.741" y2="131.998"/>
				</g>
			</g>
		</g>
		<g>
			
				<path fill="#A1C453" stroke="#333333" stroke-width="1.0616" stroke-linecap="round" stroke-linejoin="round" stroke-miterlimit="10" d="
				M159.805,111.281c-0.588,1.651-1.811,2.156-0.305,5.517c1.508,3.361,3.145,0.815,4.135,3.026c-0.99-2.211,2.01-1.895,0.559-5.13
				C162.742,111.456,161.363,112.074,159.805,111.281z"/>
			<g>
				<line fill="none" x1="163.635" y1="119.824" x2="160.666" y2="113.203"/>
				<g>
					<polyline fill="none" stroke="#333333" stroke-width="1.0616" stroke-linecap="round" stroke-miterlimit="10" points="
						163.418,119.34 163.137,118.712 161.81,115.754 161.565,115.209 					"/>
					
						<line fill="none" stroke="#333333" stroke-width="1.0616" stroke-linecap="round" stroke-miterlimit="10" x1="160.883" y1="113.688" x2="160.914" y2="113.756"/>
				</g>
			</g>
		</g>
		<g>
			
				<path fill="#A1C453" stroke="#333333" stroke-width="1.5923" stroke-linecap="round" stroke-linejoin="round" stroke-miterlimit="10" d="
				M170.203,104.275c-2.912,1.385-5.158,0.449-7.568,6.78c-2.412,6.332,3.025,5.149,1.439,9.314c1.586-4.165,5.079,0.15,7.401-5.946
				C173.797,108.324,171.201,107.337,170.203,104.275z"/>
			<g>
				<line fill="none" x1="164.074" y1="120.37" x2="168.824" y2="107.897"/>
				<g>
					<polyline fill="none" stroke="#333333" stroke-width="1.0616" stroke-linecap="round" stroke-miterlimit="10" points="
						164.264,119.874 164.508,119.231 167.829,110.51 168.042,109.951 					"/>
					
						<line fill="none" stroke="#333333" stroke-width="1.0616" stroke-linecap="round" stroke-miterlimit="10" x1="168.635" y1="108.394" x2="168.608" y2="108.463"/>
				</g>
			</g>
		</g>
		<g>
			
				<path fill="#A1C453" stroke="#333333" stroke-width="1.5923" stroke-linecap="round" stroke-linejoin="round" stroke-miterlimit="10" d="
				M151.498,114.704c0.881,2.376-0.008,4.069,4.776,6.398c4.785,2.329,4.24-2.009,7.392-0.476c-3.15-1.533,0.473-3.964-4.14-6.207
				C154.92,112.176,153.963,114.138,151.498,114.704z"/>
			<g>
				<line fill="none" x1="163.666" y1="120.627" x2="154.238" y2="116.037"/>
				<g>
					<polyline fill="none" stroke="#333333" stroke-width="1.0616" stroke-linecap="round" stroke-miterlimit="10" points="
						163.188,120.395 162.57,120.094 156.752,117.261 156.215,116.999 					"/>
					
						<line fill="none" stroke="#333333" stroke-width="1.0616" stroke-linecap="round" stroke-miterlimit="10" x1="154.716" y1="116.27" x2="154.782" y2="116.302"/>
				</g>
			</g>
		</g>
		<g>
			<g>
				<path fill="#D3F46C" d="M168.744,157.12c-2.923,2.308-8.806,1.604-9.47-1.111c-2.793-1.374-1.811-7.159,1.109-9.466
					c2.922-2.308,6.941-3.158,8.949,1.81C173.514,151.29,171.664,154.813,168.744,157.12z"/>
				<g>
					<path fill="none" stroke="#333333" stroke-width="1.5923" stroke-linecap="round" stroke-miterlimit="10" d="M168.081,157.561
						c-0.306,0.159-0.607,0.322-0.937,0.431c-1.532,0.572-3.23,0.65-4.825,0.307c-0.791-0.181-1.58-0.48-2.207-1.012
						c-0.298-0.275-0.579-0.588-0.723-0.973l-0.108-0.286c-0.066-0.071-0.167-0.115-0.248-0.174
						c-0.183-0.097-0.333-0.233-0.471-0.387c-0.566-0.596-0.827-1.419-0.907-2.225c-0.079-0.813,0.006-1.636,0.188-2.431
						c0.397-1.573,1.171-3.107,2.428-4.167c1.258-1.017,2.771-1.845,4.416-1.928c0.815-0.037,1.645,0.164,2.338,0.599
						c0.705,0.424,1.242,1.073,1.664,1.767c0.228,0.342,0.391,0.717,0.561,1.089c0.052,0.212,0.258,0.302,0.409,0.436
						c0.156,0.13,0.33,0.241,0.475,0.387c0.61,0.541,1.121,1.21,1.407,1.975c0.288,0.766,0.291,1.623,0.053,2.403
						c-0.04,0.195-0.144,0.395-0.207,0.563c-0.037,0.091-0.071,0.184-0.122,0.268c-0.097,0.171-0.183,0.349-0.288,0.514"/>
					
						<line fill="none" stroke="#333333" stroke-width="1.5923" stroke-linecap="round" stroke-miterlimit="10" x1="169.351" y1="156.604" x2="169.433" y2="156.528"/>
				</g>
			</g>
			
				<ellipse transform="matrix(0.9985 -0.0553 0.0553 0.9985 -7.8985 9.3015)" opacity="0.5" fill="#FFFFFF" enable-background="new    " cx="163.978" cy="147.25" rx="1.544" ry="1.269"/>
		</g>
		<path fill="#CC924C" stroke="#333333" stroke-width="2.8307" stroke-linecap="round" stroke-miterlimit="10" d="M112.105,159.728
			l70.101-40.679c0.957-0.563,2.186-0.244,2.75,0.711l0,0c0.561,0.956,0.241,2.186-0.711,2.749l-69.562,41.594"/>
		<g>
			
				<path fill="#A1C453" stroke="#333333" stroke-width="1.0616" stroke-linecap="round" stroke-linejoin="round" stroke-miterlimit="10" d="
				M185.879,121.014c0,0,1.889-2.49,2.129-3.08c0.197-0.473-2.973,0.596-4.041,1.186L185.879,121.014z"/>
			
				<path fill="#A1C453" stroke="#333333" stroke-width="1.0616" stroke-linecap="round" stroke-linejoin="round" stroke-miterlimit="10" d="
				M184.844,118.759l-1.455,4.583c0,0,4.438-1.787,5.238-3.621C188.627,119.721,186.33,119.393,184.844,118.759z"/>
			
				<path fill="#A1C453" stroke="#333333" stroke-width="1.0616" stroke-linecap="round" stroke-linejoin="round" stroke-miterlimit="10" d="
				M179.611,121.118c0,0,3.504-4.797,7.017-4.794l-1.609,4.314L179.611,121.118z"/>
		</g>
		<g>
			<g>
				<path fill="#D3F46C" d="M161.734,125.929c-2.153,1.702-6.491,1.184-6.981-0.819c-2.06-1.013-1.336-5.278,0.819-6.979
					c2.152-1.702,5.115-2.328,6.597,1.335C165.25,121.629,163.887,124.227,161.734,125.929z"/>
				<g>
					<path fill="none" stroke="#333333" stroke-width="1.0616" stroke-linecap="round" stroke-miterlimit="10" d="M161.296,126.228
						c-0.207,0.098-0.4,0.228-0.619,0.298c-1.136,0.463-2.411,0.522-3.607,0.291c-0.596-0.128-1.184-0.353-1.665-0.734
						c-0.228-0.202-0.438-0.433-0.556-0.717c-0.023-0.36-0.444-0.375-0.607-0.643c-0.431-0.441-0.625-1.059-0.685-1.662
						c-0.058-0.609,0.009-1.225,0.15-1.819c0.295-1.181,0.902-2.314,1.85-3.098c0.954-0.746,2.101-1.353,3.336-1.359
						c1.257-0.031,2.348,0.846,2.906,1.92c0.168,0.253,0.238,0.572,0.426,0.805c0.239,0.189,0.49,0.366,0.699,0.591
						c0.434,0.426,0.801,0.943,0.955,1.54c0.158,0.594,0.086,1.23-0.139,1.797c-0.057,0.138-0.116,0.295-0.187,0.408l-0.094,0.172
						c-0.059,0.118-0.142,0.222-0.212,0.332"/>
					
						<line fill="none" stroke="#333333" stroke-width="1.0616" stroke-linecap="round" stroke-miterlimit="10" x1="162.141" y1="125.587" x2="162.195" y2="125.536"/>
				</g>
			</g>
			
				<ellipse transform="matrix(0.9984 -0.0565 0.0565 0.9984 -6.4476 9.1246)" opacity="0.5" fill="#FFFFFF" enable-background="new    " cx="158.233" cy="118.652" rx="1.137" ry="0.936"/>
		</g>
	</g>
</g>
<g id="calque07">
	<g>
		
			<polygon fill="#CC924C" stroke="#333333" stroke-width="1.0616" stroke-linecap="round" stroke-linejoin="round" stroke-miterlimit="10" points="
			185.229,129.604 175.602,127.421 178.184,125.899 		"/>
		
			<polygon fill="#CC924C" stroke="#333333" stroke-width="0.8493" stroke-linecap="round" stroke-linejoin="round" stroke-miterlimit="10" points="
			164.07,120.367 162.26,130.795 164.842,129.274 		"/>
		
			<polygon fill="#CC924C" stroke="#333333" stroke-width="1.0616" stroke-linecap="round" stroke-linejoin="round" stroke-miterlimit="10" points="
			169.777,148.146 149.324,143.075 151.904,141.556 		"/>
		
			<polygon fill="#CC924C" stroke="#333333" stroke-width="1.0616" stroke-linecap="round" stroke-linejoin="round" stroke-miterlimit="10" points="
			134.992,140.327 132.545,147.804 134.211,146.821 		"/>
		<g>
			
				<path fill="#A1C453" stroke="#333333" stroke-width="1.5923" stroke-linecap="round" stroke-linejoin="round" stroke-miterlimit="10" d="
				M143.996,162.558c-0.56-2.803,0.733-4.529-4.183-7.977c-4.914-3.446-5.082,1.481-8.313-0.786c3.231,2.268-1.232,4.331,3.502,7.65
				C139.734,164.765,141.148,162.749,143.996,162.558z"/>
			<g>
				<line fill="none" x1="131.5" y1="153.795" x2="141.182" y2="160.586"/>
				<g>
					<polyline fill="none" stroke="#333333" stroke-width="1.0616" stroke-linecap="round" stroke-miterlimit="10" points="
						131.935,154.1 132.498,154.494 138.893,158.98 139.383,159.324 					"/>
					
						<line fill="none" stroke="#333333" stroke-width="1.0616" stroke-linecap="round" stroke-miterlimit="10" x1="140.747" y1="160.281" x2="140.686" y2="160.238"/>
				</g>
			</g>
		</g>
		<g>
			
				<path fill="#A1C453" stroke="#333333" stroke-width="1.5923" stroke-linecap="round" stroke-linejoin="round" stroke-miterlimit="10" d="
				M200.365,131.567c-2.304,1.692-2.515,3.839-8.468,3.064c-5.955-0.772-2.75-4.521-6.67-5.028c3.92,0.507,2.015-4.027,7.748-3.284
				C198.71,127.062,198.393,129.503,200.365,131.567z"/>
			<g>
				<line fill="none" x1="185.229" y1="129.604" x2="196.959" y2="131.125"/>
				<g>
					<polyline fill="none" stroke="#333333" stroke-width="1.0616" stroke-linecap="round" stroke-miterlimit="10" points="
						185.755,129.672 186.437,129.76 194.187,130.766 194.779,130.842 					"/>
					
						<line fill="none" stroke="#333333" stroke-width="1.0616" stroke-linecap="round" stroke-miterlimit="10" x1="196.433" y1="131.057" x2="196.358" y2="131.047"/>
				</g>
			</g>
		</g>
		<g>
			
				<path fill="#A1C453" stroke="#333333" stroke-width="1.5923" stroke-linecap="round" stroke-linejoin="round" stroke-miterlimit="10" d="
				M186.016,142.442c-2.92-1.37-3.625-3.697-10.045-1.536c-6.422,2.16-2.053,5.607-6.279,7.029c4.228-1.422,3.113,4.017,9.295,1.937
				C185.172,147.79,184.285,145.158,186.016,142.442z"/>
			<g>
				<line fill="none" x1="169.691" y1="147.936" x2="182.342" y2="143.68"/>
				<g>
					<polyline fill="none" stroke="#333333" stroke-width="1.0616" stroke-linecap="round" stroke-miterlimit="10" points="
						170.194,147.767 170.847,147.547 179.692,144.571 180.259,144.381 					"/>
					
						<line fill="none" stroke="#333333" stroke-width="1.0616" stroke-linecap="round" stroke-miterlimit="10" x1="181.839" y1="143.849" x2="181.768" y2="143.873"/>
				</g>
			</g>
		</g>
		<g>
			
				<path fill="#A1C453" stroke="#333333" stroke-width="1.5923" stroke-linecap="round" stroke-linejoin="round" stroke-miterlimit="10" d="
				M184.75,155.888c-1.097-3.031,0.053-5.177-6.017-8.189c-6.067-3.011-5.418,2.515-9.409,0.531c3.991,1.983-0.64,5.041,5.202,7.941
				C180.373,159.074,181.607,156.586,184.75,155.888z"/>
			<g>
				<line fill="none" x1="169.324" y1="148.229" x2="181.279" y2="154.165"/>
				<g>
					<polyline fill="none" stroke="#333333" stroke-width="1.0616" stroke-linecap="round" stroke-miterlimit="10" points="
						169.8,148.466 170.416,148.771 178.775,152.922 179.311,153.188 					"/>
					
						<line fill="none" stroke="#333333" stroke-width="1.0616" stroke-linecap="round" stroke-miterlimit="10" x1="180.804" y1="153.929" x2="180.737" y2="153.896"/>
				</g>
			</g>
		</g>
		<g>
			
				<path fill="#A1C453" stroke="#333333" stroke-width="1.5923" stroke-linecap="round" stroke-linejoin="round" stroke-miterlimit="10" d="
				M139.979,128.166c0.965,2.369,2.781,3.022,0.81,8.021c-1.978,4.997-4.529,1.397-5.826,4.685c1.297-3.287-3.055-2.627-1.154-7.441
				C135.709,128.617,137.756,129.426,139.979,128.166z"/>
			<g>
				<line fill="none" x1="134.961" y1="140.872" x2="138.85" y2="131.026"/>
				<g>
					<polyline fill="none" stroke="#333333" stroke-width="1.0616" stroke-linecap="round" stroke-miterlimit="10" points="
						135.156,140.379 135.408,139.738 137.822,133.626 138.042,133.07 					"/>
					
						<line fill="none" stroke="#333333" stroke-width="1.0616" stroke-linecap="round" stroke-miterlimit="10" x1="138.654" y1="131.52" x2="138.627" y2="131.59"/>
				</g>
			</g>
		</g>
		<g>
			
				<path fill="#A1C453" stroke="#333333" stroke-width="1.5923" stroke-linecap="round" stroke-linejoin="round" stroke-miterlimit="10" d="
				M129.275,128.618c2.359,0.993,4.104,0.171,6.242,5.102c2.139,4.929-2.213,4.189-0.805,7.433c-1.408-3.243-4.021,0.301-6.08-4.446
				C126.572,131.957,128.594,131.08,129.275,128.618z"/>
			<g>
				<line fill="none" x1="134.713" y1="141.152" x2="130.498" y2="131.439"/>
				<g>
					<polyline fill="none" stroke="#333333" stroke-width="1.0616" stroke-linecap="round" stroke-miterlimit="10" points="
						134.502,140.665 134.228,140.034 131.611,134.004 131.373,133.455 					"/>
					
						<line fill="none" stroke="#333333" stroke-width="1.0616" stroke-linecap="round" stroke-miterlimit="10" x1="130.709" y1="131.927" x2="130.739" y2="131.995"/>
				</g>
			</g>
		</g>
		<g>
			
				<path fill="#A1C453" stroke="#333333" stroke-width="1.5923" stroke-linecap="round" stroke-linejoin="round" stroke-miterlimit="10" d="
				M156.697,104.314c-1.079,3.039-3.329,3.966-0.559,10.146c2.771,6.182,5.781,1.501,7.605,5.57
				c-1.824-4.069,3.694-3.488,1.026-9.439C162.102,104.637,159.568,105.773,156.697,104.314z"/>
			<g>
				<line fill="none" x1="163.744" y1="120.031" x2="158.281" y2="107.852"/>
				<g>
					<polyline fill="none" stroke="#333333" stroke-width="1.0616" stroke-linecap="round" stroke-miterlimit="10" points="
						163.527,119.547 163.245,118.92 159.426,110.402 159.181,109.856 					"/>
					
						<line fill="none" stroke="#333333" stroke-width="1.0616" stroke-linecap="round" stroke-miterlimit="10" x1="158.498" y1="108.336" x2="158.529" y2="108.404"/>
				</g>
			</g>
		</g>
		<g>
			
				<path fill="#A1C453" stroke="#333333" stroke-width="1.5923" stroke-linecap="round" stroke-linejoin="round" stroke-miterlimit="10" d="
				M170.201,104.272c-2.912,1.385-5.158,0.449-7.568,6.78c-2.41,6.331,3.027,5.148,1.438,9.314c1.591-4.166,5.082,0.148,7.404-5.946
				C173.795,108.322,171.199,107.334,170.201,104.272z"/>
			<g>
				<line fill="none" x1="164.07" y1="120.367" x2="168.822" y2="107.896"/>
				<g>
					<polyline fill="none" stroke="#333333" stroke-width="1.0616" stroke-linecap="round" stroke-miterlimit="10" points="
						164.26,119.871 164.504,119.229 167.827,110.508 168.04,109.949 					"/>
					
						<line fill="none" stroke="#333333" stroke-width="1.0616" stroke-linecap="round" stroke-miterlimit="10" x1="168.633" y1="108.392" x2="168.606" y2="108.461"/>
				</g>
			</g>
		</g>
		<g>
			
				<path fill="#A1C453" stroke="#333333" stroke-width="1.5923" stroke-linecap="round" stroke-linejoin="round" stroke-miterlimit="10" d="
				M151.496,114.702c0.881,2.376-0.009,4.069,4.776,6.396c4.785,2.329,4.24-2.008,7.392-0.475c-3.15-1.533,0.473-3.965-4.138-6.207
				C154.918,112.172,153.963,114.134,151.496,114.702z"/>
			<g>
				<line fill="none" x1="163.664" y1="120.624" x2="154.236" y2="116.035"/>
				<g>
					<polyline fill="none" stroke="#333333" stroke-width="1.0616" stroke-linecap="round" stroke-miterlimit="10" points="
						163.187,120.392 162.568,120.091 156.75,117.259 156.213,116.997 					"/>
					
						<line fill="none" stroke="#333333" stroke-width="1.0616" stroke-linecap="round" stroke-miterlimit="10" x1="154.714" y1="116.268" x2="154.78" y2="116.3"/>
				</g>
			</g>
		</g>
		<g>
			<g>
				<path fill="#EF4529" d="M168.742,157.116c-2.923,2.308-8.806,1.605-9.47-1.11c-2.793-1.375-1.811-7.159,1.111-9.468
					c2.92-2.307,6.938-3.156,8.947,1.81C173.512,151.286,171.662,154.81,168.742,157.116z"/>
				<g>
					<path fill="none" stroke="#333333" stroke-width="1.5923" stroke-linecap="round" stroke-miterlimit="10" d="M168.079,157.557
						c-0.306,0.159-0.607,0.322-0.937,0.431c-1.531,0.572-3.23,0.651-4.825,0.308c-0.791-0.181-1.58-0.48-2.207-1.012
						c-0.298-0.275-0.58-0.588-0.723-0.973l-0.108-0.286c-0.065-0.071-0.167-0.114-0.248-0.173c-0.183-0.098-0.332-0.234-0.47-0.388
						c-0.567-0.596-0.828-1.419-0.908-2.225c-0.08-0.813,0.007-1.636,0.188-2.431c0.396-1.573,1.171-3.107,2.428-4.168
						c1.258-1.017,2.771-1.844,4.416-1.928c0.815-0.037,1.645,0.164,2.338,0.599c0.705,0.424,1.242,1.073,1.664,1.767
						c0.228,0.342,0.391,0.717,0.561,1.088c0.052,0.213,0.259,0.303,0.41,0.436c0.155,0.131,0.329,0.241,0.474,0.388
						c0.61,0.541,1.121,1.21,1.407,1.975c0.288,0.766,0.291,1.623,0.053,2.403c-0.04,0.195-0.145,0.395-0.207,0.563
						c-0.037,0.091-0.071,0.184-0.122,0.268c-0.097,0.171-0.183,0.349-0.288,0.515"/>
					
						<line fill="none" stroke="#333333" stroke-width="1.5923" stroke-linecap="round" stroke-miterlimit="10" x1="169.349" y1="156.602" x2="169.431" y2="156.524"/>
				</g>
			</g>
			
				<ellipse transform="matrix(0.9985 -0.0555 0.0555 0.9985 -7.9179 9.3257)" opacity="0.5" fill="#FFFFFF" enable-background="new    " cx="163.98" cy="147.25" rx="1.544" ry="1.269"/>
		</g>
		<g>
			<g>
				<path fill="#D3F46C" d="M158.607,128.002c-3.639,0.791-8.614-2.422-8.02-5.153c-1.906-2.461,1.516-7.229,5.154-8.02
					c3.635-0.791,7.618,0.211,7.241,5.556C165.451,124.858,162.244,127.211,158.607,128.002z"/>
				<g>
					<path fill="none" stroke="#333333" stroke-width="1.5923" stroke-linecap="round" stroke-miterlimit="10" d="M157.818,128.106
						c-0.344,0.009-0.688,0.023-1.028-0.023c-1.628-0.157-3.189-0.833-4.472-1.841c-0.632-0.51-1.209-1.125-1.538-1.878
						c-0.146-0.379-0.264-0.782-0.223-1.191l0.028-0.305c-0.029-0.093-0.101-0.177-0.147-0.265
						c-0.121-0.168-0.195-0.356-0.252-0.555c-0.249-0.784-0.121-1.638,0.16-2.396c0.286-0.766,0.724-1.468,1.237-2.102
						c1.047-1.239,2.415-2.278,4.009-2.68c1.577-0.361,3.298-0.441,4.813,0.207c0.749,0.324,1.404,0.869,1.838,1.564
						c0.446,0.689,0.645,1.509,0.72,2.317c0.054,0.406,0.035,0.814,0.023,1.224c-0.046,0.213,0.1,0.385,0.178,0.57
						c0.084,0.187,0.19,0.362,0.256,0.557c0.312,0.754,0.478,1.578,0.398,2.392c-0.075,0.814-0.449,1.586-1.007,2.183
						c-0.122,0.158-0.303,0.291-0.433,0.414c-0.073,0.065-0.146,0.134-0.229,0.188c-0.162,0.11-0.315,0.232-0.483,0.335"/>
					
						<line fill="none" stroke="#333333" stroke-width="1.5923" stroke-linecap="round" stroke-miterlimit="10" x1="159.379" y1="127.806" x2="159.485" y2="127.772"/>
				</g>
			</g>
			
				<ellipse transform="matrix(0.9213 0.3888 -0.3888 0.9213 57.9963 -52.4805)" opacity="0.5" fill="#FFFFFF" enable-background="new    " cx="158.664" cy="117.053" rx="1.543" ry="1.269"/>
		</g>
		<path fill="#CC924C" stroke="#333333" stroke-width="2.8307" stroke-linecap="round" stroke-miterlimit="10" d="M112.105,159.725
			l75.715-43.986c0.955-0.563,2.187-0.246,2.748,0.71l0,0c0.563,0.956,0.244,2.186-0.711,2.75L114.682,164.1"/>
		<g>
			
				<path fill="#A1C453" stroke="#333333" stroke-width="1.0616" stroke-linecap="round" stroke-linejoin="round" stroke-miterlimit="10" d="
				M191.492,117.703c0,0,1.889-2.493,2.131-3.08c0.194-0.473-2.974,0.594-4.039,1.183L191.492,117.703z"/>
			
				<path fill="#A1C453" stroke="#333333" stroke-width="1.0616" stroke-linecap="round" stroke-linejoin="round" stroke-miterlimit="10" d="
				M190.457,115.447l-1.453,4.584c0,0,4.438-1.788,5.238-3.624C194.242,116.407,191.945,116.081,190.457,115.447z"/>
			
				<path fill="#A1C453" stroke="#333333" stroke-width="1.0616" stroke-linecap="round" stroke-linejoin="round" stroke-miterlimit="10" d="
				M185.227,117.807c0,0,3.504-4.796,7.017-4.793l-1.609,4.314L185.227,117.807z"/>
		</g>
	</g>
</g>
<g id="calque08">
	<g>
		
			<polygon fill="#CC924C" stroke="#333333" stroke-width="1.0616" stroke-linecap="round" stroke-linejoin="round" stroke-miterlimit="10" points="
			185.229,129.604 175.602,127.421 178.184,125.899 		"/>
		
			<polygon fill="#CC924C" stroke="#333333" stroke-width="0.8493" stroke-linecap="round" stroke-linejoin="round" stroke-miterlimit="10" points="
			164.07,120.367 162.26,130.794 164.84,129.274 		"/>
		
			<polygon fill="#CC924C" stroke="#333333" stroke-width="1.0616" stroke-linecap="round" stroke-linejoin="round" stroke-miterlimit="10" points="
			169.777,148.146 149.324,143.075 151.904,141.556 		"/>
		
			<polygon fill="#CC924C" stroke="#333333" stroke-width="1.0616" stroke-linecap="round" stroke-linejoin="round" stroke-miterlimit="10" points="
			134.992,140.327 132.545,147.804 134.211,146.821 		"/>
		<g>
			
				<path fill="#A1C453" stroke="#333333" stroke-width="1.5923" stroke-linecap="round" stroke-linejoin="round" stroke-miterlimit="10" d="
				M143.996,162.558c-0.558-2.803,0.733-4.529-4.183-7.977c-4.914-3.446-5.082,1.481-8.313-0.786
				c3.231,2.268-1.232,4.331,3.502,7.65C139.736,164.764,141.148,162.749,143.996,162.558z"/>
			<g>
				<line fill="none" x1="131.5" y1="153.795" x2="141.182" y2="160.586"/>
				<g>
					<polyline fill="none" stroke="#333333" stroke-width="1.0616" stroke-linecap="round" stroke-miterlimit="10" points="
						131.935,154.1 132.498,154.494 138.893,158.98 139.383,159.324 					"/>
					
						<line fill="none" stroke="#333333" stroke-width="1.0616" stroke-linecap="round" stroke-miterlimit="10" x1="140.747" y1="160.281" x2="140.686" y2="160.238"/>
				</g>
			</g>
		</g>
		<g>
			
				<path fill="#A1C453" stroke="#333333" stroke-width="1.5923" stroke-linecap="round" stroke-linejoin="round" stroke-miterlimit="10" d="
				M200.365,131.567c-2.304,1.692-2.517,3.838-8.468,3.064c-5.955-0.772-2.75-4.521-6.67-5.028c3.92,0.507,2.015-4.027,7.748-3.284
				C198.71,127.062,198.393,129.503,200.365,131.567z"/>
			<g>
				<line fill="none" x1="185.229" y1="129.604" x2="196.959" y2="131.125"/>
				<g>
					<polyline fill="none" stroke="#333333" stroke-width="1.0616" stroke-linecap="round" stroke-miterlimit="10" points="
						185.755,129.672 186.437,129.76 194.187,130.766 194.779,130.842 					"/>
					
						<line fill="none" stroke="#333333" stroke-width="1.0616" stroke-linecap="round" stroke-miterlimit="10" x1="196.433" y1="131.057" x2="196.358" y2="131.047"/>
				</g>
			</g>
		</g>
		<g>
			
				<path fill="#A1C453" stroke="#333333" stroke-width="1.5923" stroke-linecap="round" stroke-linejoin="round" stroke-miterlimit="10" d="
				M186.016,142.442c-2.92-1.37-3.625-3.697-10.045-1.536c-6.422,2.16-2.053,5.607-6.279,7.029c4.228-1.422,3.111,4.017,9.295,1.937
				C185.172,147.79,184.285,145.158,186.016,142.442z"/>
			<g>
				<line fill="none" x1="169.691" y1="147.936" x2="182.342" y2="143.68"/>
				<g>
					<polyline fill="none" stroke="#333333" stroke-width="1.0616" stroke-linecap="round" stroke-miterlimit="10" points="
						170.194,147.767 170.847,147.547 179.692,144.571 180.259,144.381 					"/>
					
						<line fill="none" stroke="#333333" stroke-width="1.0616" stroke-linecap="round" stroke-miterlimit="10" x1="181.839" y1="143.849" x2="181.768" y2="143.873"/>
				</g>
			</g>
		</g>
		<g>
			
				<path fill="#A1C453" stroke="#333333" stroke-width="1.5923" stroke-linecap="round" stroke-linejoin="round" stroke-miterlimit="10" d="
				M184.75,155.888c-1.097-3.033,0.053-5.177-6.017-8.189c-6.067-3.011-5.418,2.515-9.409,0.531c3.991,1.983-0.64,5.041,5.202,7.941
				C180.373,159.074,181.607,156.586,184.75,155.888z"/>
			<g>
				<line fill="none" x1="169.324" y1="148.229" x2="181.279" y2="154.165"/>
				<g>
					<polyline fill="none" stroke="#333333" stroke-width="1.0616" stroke-linecap="round" stroke-miterlimit="10" points="
						169.8,148.466 170.416,148.771 178.775,152.922 179.311,153.188 					"/>
					
						<line fill="none" stroke="#333333" stroke-width="1.0616" stroke-linecap="round" stroke-miterlimit="10" x1="180.804" y1="153.929" x2="180.737" y2="153.896"/>
				</g>
			</g>
		</g>
		<g>
			
				<path fill="#A1C453" stroke="#333333" stroke-width="1.5923" stroke-linecap="round" stroke-linejoin="round" stroke-miterlimit="10" d="
				M139.979,128.166c0.965,2.368,2.781,3.022,0.81,8.021c-1.978,4.997-4.529,1.397-5.826,4.685c1.297-3.287-3.055-2.627-1.154-7.441
				C135.709,128.617,137.756,129.426,139.979,128.166z"/>
			<g>
				<line fill="none" x1="134.961" y1="140.872" x2="138.85" y2="131.026"/>
				<g>
					<polyline fill="none" stroke="#333333" stroke-width="1.0616" stroke-linecap="round" stroke-miterlimit="10" points="
						135.156,140.379 135.408,139.738 137.822,133.626 138.042,133.07 					"/>
					
						<line fill="none" stroke="#333333" stroke-width="1.0616" stroke-linecap="round" stroke-miterlimit="10" x1="138.654" y1="131.52" x2="138.627" y2="131.59"/>
				</g>
			</g>
		</g>
		<g>
			
				<path fill="#A1C453" stroke="#333333" stroke-width="1.5923" stroke-linecap="round" stroke-linejoin="round" stroke-miterlimit="10" d="
				M129.275,128.618c2.359,0.993,4.104,0.171,6.242,5.102c2.139,4.929-2.213,4.189-0.805,7.433c-1.408-3.243-4.021,0.301-6.08-4.446
				C126.572,131.957,128.594,131.079,129.275,128.618z"/>
			<g>
				<line fill="none" x1="134.713" y1="141.152" x2="130.498" y2="131.439"/>
				<g>
					<polyline fill="none" stroke="#333333" stroke-width="1.0616" stroke-linecap="round" stroke-miterlimit="10" points="
						134.502,140.665 134.228,140.034 131.611,134.004 131.373,133.455 					"/>
					
						<line fill="none" stroke="#333333" stroke-width="1.0616" stroke-linecap="round" stroke-miterlimit="10" x1="130.709" y1="131.927" x2="130.739" y2="131.995"/>
				</g>
			</g>
		</g>
		<g>
			
				<path fill="#A1C453" stroke="#333333" stroke-width="1.5923" stroke-linecap="round" stroke-linejoin="round" stroke-miterlimit="10" d="
				M156.697,104.314c-1.079,3.039-3.329,3.966-0.559,10.146c2.771,6.182,5.781,1.501,7.605,5.57
				c-1.824-4.069,3.694-3.488,1.026-9.439C162.102,104.637,159.568,105.773,156.697,104.314z"/>
			<g>
				<line fill="none" x1="163.744" y1="120.031" x2="158.281" y2="107.852"/>
				<g>
					<polyline fill="none" stroke="#333333" stroke-width="1.0616" stroke-linecap="round" stroke-miterlimit="10" points="
						163.527,119.547 163.245,118.92 159.426,110.402 159.181,109.856 					"/>
					
						<line fill="none" stroke="#333333" stroke-width="1.0616" stroke-linecap="round" stroke-miterlimit="10" x1="158.498" y1="108.336" x2="158.529" y2="108.404"/>
				</g>
			</g>
		</g>
		<g>
			
				<path fill="#A1C453" stroke="#333333" stroke-width="1.5923" stroke-linecap="round" stroke-linejoin="round" stroke-miterlimit="10" d="
				M170.201,104.272c-2.912,1.385-5.158,0.449-7.568,6.78c-2.41,6.331,3.027,5.148,1.438,9.314c1.591-4.166,5.082,0.148,7.404-5.946
				C173.795,108.322,171.199,107.334,170.201,104.272z"/>
			<g>
				<line fill="none" x1="164.07" y1="120.367" x2="168.822" y2="107.896"/>
				<g>
					<polyline fill="none" stroke="#333333" stroke-width="1.0616" stroke-linecap="round" stroke-miterlimit="10" points="
						164.26,119.871 164.504,119.229 167.827,110.508 168.04,109.949 					"/>
					
						<line fill="none" stroke="#333333" stroke-width="1.0616" stroke-linecap="round" stroke-miterlimit="10" x1="168.633" y1="108.392" x2="168.606" y2="108.461"/>
				</g>
			</g>
		</g>
		<g>
			
				<path fill="#A1C453" stroke="#333333" stroke-width="1.5923" stroke-linecap="round" stroke-linejoin="round" stroke-miterlimit="10" d="
				M151.496,114.702c0.881,2.376-0.009,4.066,4.776,6.396c4.785,2.329,4.24-2.008,7.392-0.475c-3.15-1.533,0.473-3.965-4.138-6.207
				C154.918,112.172,153.963,114.134,151.496,114.702z"/>
			<g>
				<line fill="none" x1="163.664" y1="120.624" x2="154.236" y2="116.035"/>
				<g>
					<polyline fill="none" stroke="#333333" stroke-width="1.0616" stroke-linecap="round" stroke-miterlimit="10" points="
						163.187,120.392 162.568,120.091 156.75,117.259 156.213,116.997 					"/>
					
						<line fill="none" stroke="#333333" stroke-width="1.0616" stroke-linecap="round" stroke-miterlimit="10" x1="154.714" y1="116.268" x2="154.78" y2="116.3"/>
				</g>
			</g>
		</g>
		<g>
			<g>
				<path fill="#EF4529" d="M168.742,157.116c-2.923,2.308-8.806,1.605-9.47-1.11c-2.793-1.375-1.811-7.159,1.111-9.468
					c2.92-2.307,6.938-3.156,8.947,1.81C173.512,151.286,171.662,154.81,168.742,157.116z"/>
				<g>
					<path fill="none" stroke="#333333" stroke-width="1.5923" stroke-linecap="round" stroke-miterlimit="10" d="M168.079,157.557
						c-0.306,0.159-0.607,0.322-0.937,0.431c-1.531,0.572-3.23,0.651-4.825,0.308c-0.791-0.181-1.58-0.48-2.207-1.012
						c-0.298-0.275-0.58-0.588-0.723-0.973l-0.108-0.286c-0.065-0.071-0.167-0.114-0.248-0.173c-0.183-0.098-0.332-0.234-0.47-0.388
						c-0.567-0.596-0.828-1.419-0.908-2.225c-0.08-0.813,0.007-1.636,0.188-2.431c0.396-1.573,1.171-3.107,2.428-4.168
						c1.258-1.017,2.771-1.844,4.416-1.928c0.815-0.037,1.645,0.164,2.338,0.599c0.705,0.424,1.242,1.073,1.664,1.767
						c0.228,0.342,0.391,0.717,0.561,1.088c0.052,0.213,0.259,0.303,0.41,0.436c0.155,0.131,0.329,0.241,0.474,0.388
						c0.61,0.541,1.121,1.21,1.407,1.975c0.288,0.766,0.291,1.623,0.053,2.403c-0.04,0.195-0.145,0.395-0.207,0.563
						c-0.037,0.091-0.071,0.184-0.122,0.268c-0.097,0.171-0.183,0.349-0.288,0.515"/>
					
						<line fill="none" stroke="#333333" stroke-width="1.5923" stroke-linecap="round" stroke-miterlimit="10" x1="169.349" y1="156.602" x2="169.431" y2="156.524"/>
				</g>
			</g>
			
				<ellipse transform="matrix(0.9985 -0.0555 0.0555 0.9985 -7.9179 9.3257)" opacity="0.5" fill="#FFFFFF" enable-background="new    " cx="163.98" cy="147.25" rx="1.544" ry="1.269"/>
		</g>
		<g>
			<g>
				<path fill="#EF4529" d="M158.607,128.002c-3.639,0.791-8.614-2.422-8.02-5.153c-1.906-2.461,1.516-7.229,5.154-8.02
					c3.635-0.791,7.618,0.211,7.241,5.555C165.451,124.858,162.244,127.211,158.607,128.002z"/>
				<g>
					<path fill="none" stroke="#333333" stroke-width="1.5923" stroke-linecap="round" stroke-miterlimit="10" d="M157.818,128.106
						c-0.344,0.009-0.688,0.023-1.028-0.023c-1.628-0.157-3.189-0.833-4.472-1.841c-0.632-0.51-1.209-1.125-1.538-1.878
						c-0.146-0.379-0.264-0.782-0.223-1.191l0.028-0.305c-0.029-0.093-0.101-0.177-0.147-0.265
						c-0.121-0.168-0.195-0.356-0.252-0.555c-0.249-0.784-0.121-1.638,0.16-2.396c0.286-0.766,0.724-1.468,1.237-2.102
						c1.047-1.239,2.415-2.278,4.009-2.68c1.577-0.361,3.298-0.441,4.813,0.206c0.749,0.325,1.404,0.87,1.838,1.564
						c0.446,0.69,0.646,1.51,0.72,2.318c0.054,0.406,0.035,0.814,0.023,1.224c-0.046,0.213,0.101,0.385,0.178,0.57
						c0.084,0.187,0.19,0.362,0.257,0.557c0.311,0.754,0.477,1.578,0.397,2.392c-0.075,0.814-0.449,1.586-1.007,2.183
						c-0.122,0.158-0.303,0.291-0.433,0.414c-0.073,0.065-0.146,0.134-0.229,0.188c-0.162,0.11-0.315,0.232-0.483,0.335"/>
					
						<line fill="none" stroke="#333333" stroke-width="1.5923" stroke-linecap="round" stroke-miterlimit="10" x1="159.379" y1="127.806" x2="159.485" y2="127.772"/>
				</g>
			</g>
			
				<ellipse transform="matrix(0.9213 0.3888 -0.3888 0.9213 57.9963 -52.4805)" opacity="0.5" fill="#FFFFFF" enable-background="new    " cx="158.664" cy="117.053" rx="1.543" ry="1.269"/>
		</g>
		<path fill="#CC924C" stroke="#333333" stroke-width="2.8307" stroke-linecap="round" stroke-miterlimit="10" d="M112.105,159.725
			l75.715-43.987c0.955-0.563,2.187-0.245,2.748,0.711l0,0c0.563,0.955,0.244,2.186-0.711,2.75L114.682,164.1"/>
		<g>
			
				<path fill="#A1C453" stroke="#333333" stroke-width="1.0616" stroke-linecap="round" stroke-linejoin="round" stroke-miterlimit="10" d="
				M191.492,117.703c0,0,1.889-2.493,2.131-3.081c0.194-0.472-2.974,0.595-4.039,1.184L191.492,117.703z"/>
			
				<path fill="#A1C453" stroke="#333333" stroke-width="1.0616" stroke-linecap="round" stroke-linejoin="round" stroke-miterlimit="10" d="
				M190.457,115.447l-1.453,4.584c0,0,4.438-1.788,5.238-3.624C194.242,116.407,191.945,116.081,190.457,115.447z"/>
			
				<path fill="#A1C453" stroke="#333333" stroke-width="1.0616" stroke-linecap="round" stroke-linejoin="round" stroke-miterlimit="10" d="
				M185.227,117.807c0,0,3.504-4.796,7.017-4.793l-1.609,4.314L185.227,117.807z"/>
		</g>
	</g>
</g>
</svg>
