<?xml version="1.0" encoding="utf-8"?>
<!-- Generator: Adobe Illustrator 16.0.0, SVG Export Plug-In . SVG Version: 6.00 Build 0)  -->
<!DOCTYPE svg PUBLIC "-//W3C//DTD SVG 1.1//EN" "http://www.w3.org/Graphics/SVG/1.1/DTD/svg11.dtd">
<svg version="1.1" id="Calque_1" xmlns="http://www.w3.org/2000/svg" xmlns:xlink="http://www.w3.org/1999/xlink" x="0px" y="0px"
	 width="400px" height="400px" viewBox="0 0 400 400" enable-background="new 0 0 400 400" xml:space="preserve">
<g id="calque00">
	<g>
		<path fill="#CC924C" stroke="#333333" stroke-width="2.6539" stroke-linecap="round" stroke-miterlimit="10" d="M95.111,232.322
			l-7.606-5.531c-0.932-0.6-1.201-1.841-0.601-2.775l0,0c0.6-0.931,1.844-1.199,2.773-0.601l8.183,4.64"/>
		<g>
			
				<path fill="#A1C453" stroke="#333333" stroke-width="1.0616" stroke-linecap="round" stroke-linejoin="round" stroke-miterlimit="10" d="
				M87.608,222.627c0,0-3.072-0.566-3.709-0.518c-0.51,0.037,1.867,2.39,2.875,3.076L87.608,222.627z"/>
			
				<path fill="#A1C453" stroke="#333333" stroke-width="1.0616" stroke-linecap="round" stroke-linejoin="round" stroke-miterlimit="10" d="
				M86.062,224.566l4.746-0.762c0,0-3.594-3.16-5.589-3.052C85.219,220.754,85.957,222.953,86.062,224.566z"/>
			
				<path fill="#A1C453" stroke="#333333" stroke-width="1.0616" stroke-linecap="round" stroke-linejoin="round" stroke-miterlimit="10" d="
				M90.521,228.18c0,0-5.859-0.975-7.438-4.111l4.578-0.502L90.521,228.18z"/>
		</g>
	</g>
</g>
<g id="calque01">
	<g>
		<g>
			
				<path fill="#A1C453" stroke="#333333" stroke-width="1.0616" stroke-linecap="round" stroke-linejoin="round" stroke-miterlimit="10" d="
				M71.884,223.363c0.664-1.131,0.364-2.074,3.013-2.826c2.648-0.753,1.979,1.406,3.722,0.91c-1.742,0.496-0.118,2.062-2.668,2.787
				C73.398,224.96,73.088,223.877,71.884,223.363z"/>
			<g>
				<line fill="none" x1="78.617" y1="221.447" x2="73.399" y2="222.934"/>
				<g>
					<polyline fill="none" stroke="#333333" stroke-width="1.0616" stroke-linecap="round" stroke-miterlimit="10" points="
						78.106,221.594 77.445,221.781 76.088,222.168 75.514,222.331 					"/>
					
						<line fill="none" stroke="#333333" stroke-width="1.0616" stroke-linecap="round" stroke-miterlimit="10" x1="73.91" y1="222.787" x2="73.981" y2="222.768"/>
				</g>
			</g>
		</g>
		<path fill="#CC924C" stroke="#333333" stroke-width="2.6539" stroke-linecap="round" stroke-miterlimit="10" d="M97.86,228.055
			l-24.83-15.361c-0.932-0.6-2.175-0.33-2.775,0.603l0,0c-0.601,0.933-0.331,2.173,0.603,2.774l24.255,16.252"/>
		<g>
			
				<path fill="#A1C453" stroke="#333333" stroke-width="1.0616" stroke-linecap="round" stroke-linejoin="round" stroke-miterlimit="10" d="
				M69.281,214.512c0,0-1.787-2.564-2.005-3.164c-0.177-0.479,2.945,0.715,3.991,1.344L69.281,214.512z"/>
			
				<path fill="#A1C453" stroke="#333333" stroke-width="1.0616" stroke-linecap="round" stroke-linejoin="round" stroke-miterlimit="10" d="
				M70.407,212.299l1.27,4.637c0,0-4.364-1.961-5.091-3.826C66.586,213.107,68.895,212.873,70.407,212.299z"/>
			
				<path fill="#A1C453" stroke="#333333" stroke-width="1.0616" stroke-linecap="round" stroke-linejoin="round" stroke-miterlimit="10" d="
				M75.539,214.865c0,0-3.31-4.934-6.819-5.07l1.438,4.375L75.539,214.865z"/>
		</g>
	</g>
</g>
<g id="calque02">
	<g>
		<g>
			
				<path fill="#A1C453" stroke="#333333" stroke-width="1.5923" stroke-linecap="round" stroke-linejoin="round" stroke-miterlimit="10" d="
				M62.808,224.516c1.445-2.463,0.792-4.517,6.566-6.16c5.772-1.644,4.313,3.065,8.112,1.984c-3.799,1.081-0.257,4.494-5.818,6.077
				C66.108,227.999,65.434,225.633,62.808,224.516z"/>
			<g>
				<line fill="none" x1="77.487" y1="220.34" x2="66.11" y2="223.578"/>
				<g>
					<polyline fill="none" stroke="#333333" stroke-width="1.0616" stroke-linecap="round" stroke-miterlimit="10" points="
						76.977,220.484 76.315,220.674 68.799,222.813 68.225,222.977 					"/>
					
						<line fill="none" stroke="#333333" stroke-width="1.0616" stroke-linecap="round" stroke-miterlimit="10" x1="66.621" y1="223.434" x2="66.692" y2="223.412"/>
				</g>
			</g>
		</g>
		<g>
			
				<path fill="#A1C453" stroke="#333333" stroke-width="1.0616" stroke-linecap="round" stroke-linejoin="round" stroke-miterlimit="10" d="
				M67.918,203.917c1.146,0.583,2.052,0.233,2.947,2.783c0.894,2.553-1.264,2.022-0.676,3.702c-0.588-1.68-2.025,0.005-2.887-2.451
				C66.441,205.493,67.487,205.126,67.918,203.917z"/>
			<g>
				<line fill="none" x1="70.19" y1="210.4" x2="68.657" y2="205.922"/>
				<g>
					<polyline fill="none" stroke="#333333" stroke-width="1.0616" stroke-linecap="round" stroke-miterlimit="10" points="
						70.019,209.898 69.796,209.248 69.563,208.566 69.369,208.002 					"/>
					
						<line fill="none" stroke="#333333" stroke-width="1.0616" stroke-linecap="round" stroke-miterlimit="10" x1="68.829" y1="206.425" x2="68.854" y2="206.495"/>
				</g>
			</g>
		</g>
		<path fill="#CC924C" stroke="#333333" stroke-width="2.6539" stroke-linecap="round" stroke-miterlimit="10" d="M97.86,228.055
			l-32.499-20.302c-0.933-0.601-2.176-0.33-2.775,0.603l0,0c-0.601,0.933-0.33,2.174,0.601,2.772l31.926,21.194"/>
		<g>
			
				<path fill="#A1C453" stroke="#333333" stroke-width="1.0616" stroke-linecap="round" stroke-linejoin="round" stroke-miterlimit="10" d="
				M61.611,209.57c0,0-1.786-2.563-2.005-3.163c-0.177-0.478,2.946,0.714,3.991,1.345L61.611,209.57z"/>
			
				<path fill="#A1C453" stroke="#333333" stroke-width="1.0616" stroke-linecap="round" stroke-linejoin="round" stroke-miterlimit="10" d="
				M62.737,207.359l1.271,4.637c0,0-4.365-1.962-5.091-3.827C58.917,208.169,61.226,207.932,62.737,207.359z"/>
			
				<path fill="#A1C453" stroke="#333333" stroke-width="1.0616" stroke-linecap="round" stroke-linejoin="round" stroke-miterlimit="10" d="
				M67.87,209.925c0,0-3.312-4.932-6.819-5.069l1.437,4.375L67.87,209.925z"/>
		</g>
	</g>
</g>
<g id="calque03">
	<g>
		
			<polygon fill="#CC924C" stroke="#333333" stroke-width="1.0616" stroke-linecap="round" stroke-linejoin="round" stroke-miterlimit="10" points="
			67.362,203.95 71.963,212.007 69.445,210.385 		"/>
		<g>
			
				<path fill="#A1C453" stroke="#333333" stroke-width="1.5923" stroke-linecap="round" stroke-linejoin="round" stroke-miterlimit="10" d="
				M62.807,224.518c1.446-2.465,0.795-4.521,6.567-6.162c5.772-1.644,4.313,3.065,8.112,1.984c-3.799,1.081-0.258,4.495-5.818,6.077
				S65.434,225.633,62.807,224.518z"/>
			<g>
				<line fill="none" x1="77.487" y1="220.34" x2="65.939" y2="223.613"/>
				<g>
					<polyline fill="none" stroke="#333333" stroke-width="1.0616" stroke-linecap="round" stroke-miterlimit="10" points="
						76.977,220.484 76.315,220.672 68.629,222.852 68.054,223.014 					"/>
					
						<line fill="none" stroke="#333333" stroke-width="1.0616" stroke-linecap="round" stroke-miterlimit="10" x1="66.45" y1="223.469" x2="66.521" y2="223.447"/>
				</g>
			</g>
		</g>
		<g>
			
				<path fill="#A1C453" stroke="#333333" stroke-width="1.5923" stroke-linecap="round" stroke-linejoin="round" stroke-miterlimit="10" d="
				M62.313,189.547c2.548,1.294,4.561,0.521,6.546,6.185c1.986,5.667-2.803,4.49-1.497,8.218c-1.306-3.728-4.501,0.013-6.414-5.443
				C59.034,193.05,61.356,192.235,62.313,189.547z"/>
			<g>
				<line fill="none" x1="67.191" y1="203.988" x2="63.277" y2="192.827"/>
				<g>
					<polyline fill="none" stroke="#333333" stroke-width="1.0616" stroke-linecap="round" stroke-miterlimit="10" points="
						67.016,203.486 66.788,202.838 64.202,195.464 64.005,194.9 					"/>
					
						<line fill="none" stroke="#333333" stroke-width="1.0616" stroke-linecap="round" stroke-miterlimit="10" x1="63.453" y1="193.328" x2="63.478" y2="193.398"/>
				</g>
			</g>
		</g>
		<g>
			
				<path fill="#A1C453" stroke="#333333" stroke-width="1.0616" stroke-linecap="round" stroke-linejoin="round" stroke-miterlimit="10" d="
				M52.779,214.23c0.63-1.547,0.082-2.685,3.285-4.119c3.206-1.436,2.754,1.416,4.863,0.471c-2.109,0.945,0.229,2.626-2.858,4.005
				C54.981,215.971,54.394,214.656,52.779,214.23z"/>
			<g>
				<line fill="none" x1="60.928" y1="210.582" x2="54.614" y2="213.409"/>
				<g>
					<polyline fill="none" stroke="#333333" stroke-width="1.0616" stroke-linecap="round" stroke-miterlimit="10" points="
						60.443,210.799 59.815,211.08 57.166,212.268 56.62,212.512 					"/>
					
						<line fill="none" stroke="#333333" stroke-width="1.0616" stroke-linecap="round" stroke-miterlimit="10" x1="55.099" y1="213.191" x2="55.167" y2="213.162"/>
				</g>
			</g>
		</g>
		<path fill="#CC924C" stroke="#333333" stroke-width="2.8307" stroke-linecap="round" stroke-miterlimit="10" d="M97.86,228.055
			l-39.608-24.88c-0.933-0.603-2.175-0.329-2.774,0.603l0,0c-0.6,0.932-0.332,2.173,0.602,2.772l39.033,25.772"/>
		<g>
			
				<path fill="#A1C453" stroke="#333333" stroke-width="1.0616" stroke-linecap="round" stroke-linejoin="round" stroke-miterlimit="10" d="
				M54.502,204.991c0,0-1.787-2.563-2.004-3.162c-0.18-0.479,2.945,0.713,3.989,1.344L54.502,204.991z"/>
			
				<path fill="#A1C453" stroke="#333333" stroke-width="1.0616" stroke-linecap="round" stroke-linejoin="round" stroke-miterlimit="10" d="
				M55.628,202.779l1.27,4.638c0,0-4.362-1.964-5.091-3.827C51.807,203.59,54.114,203.354,55.628,202.779z"/>
			
				<path fill="#A1C453" stroke="#333333" stroke-width="1.0616" stroke-linecap="round" stroke-linejoin="round" stroke-miterlimit="10" d="
				M60.761,205.344c0,0-3.311-4.932-6.82-5.068l1.438,4.375L60.761,205.344z"/>
		</g>
	</g>
</g>
<g id="calque04">
	<g>
		
			<polygon fill="#CC924C" stroke="#333333" stroke-width="1.0616" stroke-linecap="round" stroke-linejoin="round" stroke-miterlimit="10" points="
			67.362,203.95 71.963,212.007 69.445,210.385 		"/>
		
			<polygon fill="#CC924C" stroke="#333333" stroke-width="1.0616" stroke-linecap="round" stroke-linejoin="round" stroke-miterlimit="10" points="
			48.221,214.369 64.727,212.12 62.209,210.499 		"/>
		<g>
			
				<path fill="#A1C453" stroke="#333333" stroke-width="1.5923" stroke-linecap="round" stroke-linejoin="round" stroke-miterlimit="10" d="
				M62.807,224.518c1.446-2.465,0.793-4.519,6.567-6.162c5.772-1.644,4.313,3.065,8.112,1.984c-3.799,1.081-0.258,4.495-5.818,6.077
				S65.434,225.633,62.807,224.518z"/>
			<g>
				<line fill="none" x1="77.487" y1="220.34" x2="65.939" y2="223.613"/>
				<g>
					<polyline fill="none" stroke="#333333" stroke-width="1.0616" stroke-linecap="round" stroke-miterlimit="10" points="
						76.977,220.484 76.315,220.672 68.629,222.852 68.054,223.014 					"/>
					
						<line fill="none" stroke="#333333" stroke-width="1.0616" stroke-linecap="round" stroke-miterlimit="10" x1="66.45" y1="223.469" x2="66.521" y2="223.447"/>
				</g>
			</g>
		</g>
		<g>
			
				<path fill="#A1C453" stroke="#333333" stroke-width="1.5923" stroke-linecap="round" stroke-linejoin="round" stroke-miterlimit="10" d="
				M62.313,189.547c2.548,1.294,4.561,0.521,6.546,6.185c1.986,5.667-2.803,4.49-1.497,8.218c-1.306-3.728-4.501,0.013-6.414-5.443
				C59.034,193.05,61.356,192.235,62.313,189.547z"/>
			<g>
				<line fill="none" x1="67.191" y1="203.988" x2="63.277" y2="192.827"/>
				<g>
					<polyline fill="none" stroke="#333333" stroke-width="1.0616" stroke-linecap="round" stroke-miterlimit="10" points="
						67.016,203.486 66.788,202.838 64.202,195.464 64.005,194.9 					"/>
					
						<line fill="none" stroke="#333333" stroke-width="1.0616" stroke-linecap="round" stroke-miterlimit="10" x1="63.453" y1="193.328" x2="63.478" y2="193.398"/>
				</g>
			</g>
		</g>
		<g>
			
				<path fill="#A1C453" stroke="#333333" stroke-width="1.0616" stroke-linecap="round" stroke-linejoin="round" stroke-miterlimit="10" d="
				M40.242,210.986c1.444-0.609,1.835-1.729,4.913-0.553c3.08,1.176,0.892,2.766,2.916,3.541c-2.024-0.775-1.592,1.893-4.557,0.76
				S41.031,212.341,40.242,210.986z"/>
			<g>
				<line fill="none" x1="48.072" y1="213.975" x2="42.005" y2="211.658"/>
				<g>
					<polyline fill="none" stroke="#333333" stroke-width="1.0616" stroke-linecap="round" stroke-miterlimit="10" points="
						47.576,213.785 46.934,213.54 44.616,212.654 44.059,212.441 					"/>
					
						<line fill="none" stroke="#333333" stroke-width="1.0616" stroke-linecap="round" stroke-miterlimit="10" x1="42.501" y1="211.848" x2="42.57" y2="211.874"/>
				</g>
			</g>
		</g>
		<g>
			
				<path fill="#A1C453" stroke="#333333" stroke-width="1.5923" stroke-linecap="round" stroke-linejoin="round" stroke-miterlimit="10" d="
				M32.95,221.509c1.217-2.987,0.154-5.176,6.336-7.942c6.185-2.77,5.314,2.728,9.385,0.904c-4.069,1.822,0.438,5.063-5.517,7.729
				C37.199,224.863,36.064,222.331,32.95,221.509z"/>
			<g>
				<line fill="none" x1="48.671" y1="214.471" x2="36.488" y2="219.926"/>
				<g>
					<polyline fill="none" stroke="#333333" stroke-width="1.0616" stroke-linecap="round" stroke-miterlimit="10" points="
						48.187,214.688 47.559,214.969 39.039,218.783 38.494,219.027 					"/>
					
						<line fill="none" stroke="#333333" stroke-width="1.0616" stroke-linecap="round" stroke-miterlimit="10" x1="36.973" y1="219.709" x2="37.041" y2="219.68"/>
				</g>
			</g>
		</g>
		<g>
			
				<path fill="#A1C453" stroke="#333333" stroke-width="1.0616" stroke-linecap="round" stroke-linejoin="round" stroke-miterlimit="10" d="
				M40.915,185.719c1.313,0.689,2.363,0.3,3.355,3.257c0.993,2.958-1.484,2.313-0.833,4.259c-0.651-1.946-2.338-0.025-3.296-2.872
				C39.187,187.515,40.398,187.108,40.915,185.719z"/>
			<g>
				<line fill="none" x1="43.438" y1="193.236" x2="41.482" y2="187.41"/>
				<g>
					<polyline fill="none" stroke="#333333" stroke-width="1.0616" stroke-linecap="round" stroke-miterlimit="10" points="
						43.27,192.732 43.051,192.081 42.372,190.06 42.182,189.493 					"/>
					
						<line fill="none" stroke="#333333" stroke-width="1.0616" stroke-linecap="round" stroke-miterlimit="10" x1="41.651" y1="187.913" x2="41.675" y2="187.983"/>
				</g>
			</g>
		</g>
		<path fill="#CC924C" stroke="#333333" stroke-width="2.8307" stroke-linecap="round" stroke-miterlimit="10" d="M97.86,228.055
			L40.376,191.66c-0.933-0.6-2.176-0.33-2.776,0.603l0,0c-0.6,0.931-0.33,2.173,0.603,2.772l56.909,37.287"/>
		<g>
			
				<path fill="#A1C453" stroke="#333333" stroke-width="1.0616" stroke-linecap="round" stroke-linejoin="round" stroke-miterlimit="10" d="
				M36.626,193.478c0,0-1.786-2.564-2.004-3.163c-0.179-0.479,2.944,0.714,3.99,1.345L36.626,193.478z"/>
			
				<path fill="#A1C453" stroke="#333333" stroke-width="1.0616" stroke-linecap="round" stroke-linejoin="round" stroke-miterlimit="10" d="
				M37.752,191.265l1.271,4.637c0,0-4.364-1.961-5.092-3.826C33.931,192.076,36.24,191.841,37.752,191.265z"/>
			
				<path fill="#A1C453" stroke="#333333" stroke-width="1.0616" stroke-linecap="round" stroke-linejoin="round" stroke-miterlimit="10" d="
				M42.886,193.832c0,0-3.311-4.932-6.82-5.068l1.438,4.375L42.886,193.832z"/>
		</g>
		<g>
			
				<path fill="#FFFFFF" stroke="#333333" stroke-width="1.0616" stroke-linecap="round" stroke-linejoin="round" stroke-miterlimit="10" d="
				M67.867,203.037c-0.023,0.473,0.769,0.992,1.401,1.316c1.145,0.582,3.109,0.342,3.184-1.151c0.072-1.499-1.86-1.938-3.056-1.474
				C68.734,201.988,67.889,202.559,67.867,203.037z"/>
			
				<path fill="#FFFFFF" stroke="#333333" stroke-width="1.0616" stroke-linecap="round" stroke-linejoin="round" stroke-miterlimit="10" d="
				M67.75,203.085c-0.398-0.257-1.243,0.166-1.841,0.556c-1.077,0.698-1.853,2.523-0.595,3.334c1.262,0.812,2.608-0.644,2.804-1.91
				C68.226,204.359,68.153,203.344,67.75,203.085z"/>
			
				<path fill="#FFFFFF" stroke="#333333" stroke-width="1.0616" stroke-linecap="round" stroke-linejoin="round" stroke-miterlimit="10" d="
				M67.763,202.966c0.424-0.216,0.478-1.161,0.439-1.872c-0.065-1.283-1.259-2.866-2.587-2.18c-1.336,0.685-0.748,2.579,0.251,3.38
				C66.422,202.74,67.339,203.186,67.763,202.966z"/>
			
				<path fill="#FFFFFF" stroke="#333333" stroke-width="1.0616" stroke-linecap="round" stroke-linejoin="round" stroke-miterlimit="10" d="
				M67.911,202.91c0.398,0.256,1.244-0.17,1.843-0.559c1.075-0.697,1.849-2.521,0.594-3.333c-1.262-0.812-2.61,0.645-2.805,1.911
				C67.438,201.633,67.508,202.65,67.911,202.91z"/>
			
				<path fill="#FFFFFF" stroke="#333333" stroke-width="1.0616" stroke-linecap="round" stroke-linejoin="round" stroke-miterlimit="10" d="
				M67.893,203.031c-0.422,0.217-0.477,1.162-0.438,1.873c0.063,1.283,1.26,2.863,2.587,2.181c1.335-0.687,0.747-2.581-0.251-3.383
				C69.234,203.258,68.317,202.813,67.893,203.031z"/>
			
				<path fill="#FFFFFF" stroke="#333333" stroke-width="1.0616" stroke-linecap="round" stroke-linejoin="round" stroke-miterlimit="10" d="
				M67.795,202.939c0.022-0.476-0.77-0.994-1.403-1.316c-1.144-0.583-3.107-0.342-3.183,1.15c-0.073,1.498,1.86,1.938,3.055,1.475
				C66.929,203.986,67.771,203.417,67.795,202.939z"/>
			
				<circle fill="#F9D53E" stroke="#333333" stroke-width="1.0616" stroke-linecap="round" stroke-linejoin="round" stroke-miterlimit="10" cx="67.912" cy="202.908" r="0.987"/>
		</g>
	</g>
</g>
<g id="calque05">
	<g>
		
			<polygon fill="#CC924C" stroke="#333333" stroke-width="1.0616" stroke-linecap="round" stroke-linejoin="round" stroke-miterlimit="10" points="
			67.362,203.95 71.963,212.007 69.445,210.385 		"/>
		
			<polygon fill="#CC924C" stroke="#333333" stroke-width="1.0616" stroke-linecap="round" stroke-linejoin="round" stroke-miterlimit="10" points="
			43.296,187.739 45.636,195.049 43.118,193.426 		"/>
		
			<polygon fill="#CC924C" stroke="#333333" stroke-width="1.0616" stroke-linecap="round" stroke-linejoin="round" stroke-miterlimit="10" points="
			48.221,214.369 64.727,212.12 62.209,210.499 		"/>
		<g>
			
				<path fill="#A1C453" stroke="#333333" stroke-width="1.5923" stroke-linecap="round" stroke-linejoin="round" stroke-miterlimit="10" d="
				M62.807,224.518c1.446-2.465,0.795-4.521,6.567-6.162c5.772-1.644,4.313,3.065,8.112,1.984c-3.799,1.081-0.258,4.495-5.818,6.077
				S65.434,225.632,62.807,224.518z"/>
			<g>
				<line fill="none" x1="77.487" y1="220.34" x2="65.939" y2="223.613"/>
				<g>
					<polyline fill="none" stroke="#333333" stroke-width="1.0616" stroke-linecap="round" stroke-miterlimit="10" points="
						76.977,220.484 76.315,220.672 68.629,222.852 68.054,223.014 					"/>
					
						<line fill="none" stroke="#333333" stroke-width="1.0616" stroke-linecap="round" stroke-miterlimit="10" x1="66.45" y1="223.469" x2="66.521" y2="223.447"/>
				</g>
			</g>
		</g>
		<g>
			
				<path fill="#A1C453" stroke="#333333" stroke-width="1.5923" stroke-linecap="round" stroke-linejoin="round" stroke-miterlimit="10" d="
				M62.313,189.547c2.548,1.294,4.561,0.521,6.546,6.185c1.986,5.667-2.803,4.49-1.497,8.218c-1.306-3.728-4.502,0.013-6.414-5.443
				C59.034,193.05,61.356,192.235,62.313,189.547z"/>
			<g>
				<line fill="none" x1="67.191" y1="203.988" x2="63.277" y2="192.827"/>
				<g>
					<polyline fill="none" stroke="#333333" stroke-width="1.0616" stroke-linecap="round" stroke-miterlimit="10" points="
						67.016,203.486 66.788,202.838 64.202,195.464 64.005,194.9 					"/>
					
						<line fill="none" stroke="#333333" stroke-width="1.0616" stroke-linecap="round" stroke-miterlimit="10" x1="63.453" y1="193.328" x2="63.478" y2="193.398"/>
				</g>
			</g>
		</g>
		<g>
			
				<path fill="#A1C453" stroke="#333333" stroke-width="1.5923" stroke-linecap="round" stroke-linejoin="round" stroke-miterlimit="10" d="
				M32.223,208.021c2.971-1.25,3.77-3.549,10.1-1.135c6.328,2.416,1.826,5.688,5.991,7.276c-4.165-1.591-3.27,3.89-9.363,1.563
				C32.853,213.4,33.844,210.805,32.223,208.021z"/>
			<g>
				<line fill="none" x1="48.313" y1="214.164" x2="35.844" y2="209.404"/>
				<g>
					<polyline fill="none" stroke="#333333" stroke-width="1.0616" stroke-linecap="round" stroke-miterlimit="10" points="
						47.817,213.975 47.175,213.729 38.455,210.402 37.897,210.188 					"/>
					
						<line fill="none" stroke="#333333" stroke-width="1.0616" stroke-linecap="round" stroke-miterlimit="10" x1="36.34" y1="209.596" x2="36.409" y2="209.621"/>
				</g>
			</g>
		</g>
		<g>
			
				<path fill="#A1C453" stroke="#333333" stroke-width="1.5923" stroke-linecap="round" stroke-linejoin="round" stroke-miterlimit="10" d="
				M32.95,221.508c1.217-2.986,0.154-5.175,6.338-7.943c6.183-2.768,5.313,2.729,9.383,0.906c-4.069,1.822,0.438,5.063-5.517,7.729
				C37.199,224.863,36.064,222.331,32.95,221.508z"/>
			<g>
				<line fill="none" x1="48.671" y1="214.471" x2="36.489" y2="219.924"/>
				<g>
					<polyline fill="none" stroke="#333333" stroke-width="1.0616" stroke-linecap="round" stroke-miterlimit="10" points="
						48.187,214.688 47.559,214.969 39.041,218.781 38.495,219.025 					"/>
					
						<line fill="none" stroke="#333333" stroke-width="1.0616" stroke-linecap="round" stroke-miterlimit="10" x1="36.974" y1="219.707" x2="37.042" y2="219.678"/>
				</g>
			</g>
		</g>
		<g>
			
				<path fill="#A1C453" stroke="#333333" stroke-width="1.0616" stroke-linecap="round" stroke-linejoin="round" stroke-miterlimit="10" d="
				M27.686,193.796c0.854-0.979,0.736-1.949,3.451-2.195c2.714-0.246,1.665,1.732,3.452,1.57c-1.787,0.163-0.497,1.984-3.11,2.221
				C28.863,195.628,28.764,194.515,27.686,193.796z"/>
			<g>
				<line fill="none" x1="34.589" y1="193.171" x2="29.24" y2="193.656"/>
				<g>
					<polyline fill="none" stroke="#333333" stroke-width="1.0616" stroke-linecap="round" stroke-miterlimit="10" points="
						34.061,193.219 33.375,193.281 32.024,193.404 31.429,193.458 					"/>
					
						<line fill="none" stroke="#333333" stroke-width="1.0616" stroke-linecap="round" stroke-miterlimit="10" x1="29.769" y1="193.608" x2="29.843" y2="193.601"/>
				</g>
			</g>
		</g>
		<g>
			
				<path fill="#A1C453" stroke="#333333" stroke-width="1.0616" stroke-linecap="round" stroke-linejoin="round" stroke-miterlimit="10" d="
				M40.455,178.215c1.58,0.829,2.842,0.362,4.035,3.914c1.192,3.555-1.787,2.78-1.003,5.12c-0.784-2.339-2.811-0.031-3.96-3.452
				C38.379,180.374,39.836,179.884,40.455,178.215z"/>
			<g>
				<line fill="none" x1="43.488" y1="187.249" x2="41.138" y2="180.248"/>
				<g>
					<polyline fill="none" stroke="#333333" stroke-width="1.0616" stroke-linecap="round" stroke-miterlimit="10" points="
						43.319,186.745 43.101,186.093 42.027,182.897 41.837,182.331 					"/>
					
						<line fill="none" stroke="#333333" stroke-width="1.0616" stroke-linecap="round" stroke-miterlimit="10" x1="41.307" y1="180.751" x2="41.33" y2="180.821"/>
				</g>
			</g>
		</g>
		<g>
			
				<path fill="#A1C453" stroke="#333333" stroke-width="1.5923" stroke-linecap="round" stroke-linejoin="round" stroke-miterlimit="10" d="
				M56.088,182.578c-0.977,2.34-0.153,4.064-5.028,6.2c-4.874,2.14-4.156-2.174-7.365-0.766c3.209-1.408-0.312-3.981,4.381-6.039
				C52.771,179.914,53.646,181.912,56.088,182.578z"/>
			<g>
				<line fill="none" x1="43.522" y1="188.048" x2="53.126" y2="183.837"/>
				<g>
					<polyline fill="none" stroke="#333333" stroke-width="1.0616" stroke-linecap="round" stroke-miterlimit="10" points="
						44.009,187.835 44.639,187.559 50.565,184.96 51.113,184.72 					"/>
					
						<line fill="none" stroke="#333333" stroke-width="1.0616" stroke-linecap="round" stroke-miterlimit="10" x1="52.64" y1="184.05" x2="52.571" y2="184.081"/>
				</g>
			</g>
		</g>
		<path fill="#CC924C" stroke="#333333" stroke-width="2.8307" stroke-linecap="round" stroke-miterlimit="10" d="M97.86,228.055
			l-65.408-41.498c-0.933-0.6-2.174-0.331-2.774,0.601l0,0c-0.601,0.933-0.33,2.174,0.601,2.774l64.834,42.39"/>
		<g>
			<g>
				<path fill="#D3F46C" d="M73.618,201.693c1.607,1.891,1.279,5.826-0.512,6.332c-0.851,1.896-4.729,1.379-6.335-0.512
					c-1.607-1.891-2.27-4.548,0.991-6.004C69.62,198.655,72.012,199.802,73.618,201.693z"/>
				<g>
					<path fill="none" stroke="#333333" stroke-width="1.0616" stroke-linecap="round" stroke-miterlimit="10" d="M73.928,202.125
						c0.113,0.2,0.229,0.396,0.31,0.613c0.418,1.007,0.513,2.138,0.32,3.207c-0.102,0.531-0.282,1.064-0.621,1.494
						c-0.177,0.205-0.378,0.4-0.632,0.504l-0.188,0.08c-0.043,0.049-0.072,0.113-0.108,0.17c-0.062,0.125-0.148,0.228-0.247,0.322
						c-0.81,0.778-2.046,0.781-3.085,0.59c-1.058-0.228-2.098-0.705-2.834-1.519c-0.708-0.813-1.296-1.801-1.391-2.896
						c-0.119-1.107,0.55-2.168,1.48-2.723c0.222-0.16,0.468-0.277,0.712-0.398c0.243-0.123,0.334-0.42,0.526-0.608
						c0.346-0.42,0.778-0.776,1.281-0.985c0.504-0.21,1.074-0.233,1.6-0.093c0.132,0.022,0.267,0.086,0.38,0.125
						c0.063,0.022,0.124,0.043,0.182,0.075c0.116,0.061,0.236,0.113,0.351,0.18"/>
					
						<line fill="none" stroke="#333333" stroke-width="1.0616" stroke-linecap="round" stroke-miterlimit="10" x1="73.261" y1="201.303" x2="73.208" y2="201.25"/>
				</g>
			</g>
			
				<ellipse transform="matrix(-0.0916 -0.9958 0.9958 -0.0916 -130.9404 290.7713)" opacity="0.5" fill="#FFFFFF" enable-background="new    " cx="67.149" cy="205.107" rx="1.028" ry="0.845"/>
		</g>
		<g>
			
				<path fill="#A1C453" stroke="#333333" stroke-width="1.0616" stroke-linecap="round" stroke-linejoin="round" stroke-miterlimit="10" d="
				M28.702,188.374c0,0-1.786-2.564-2.006-3.163c-0.177-0.48,2.947,0.714,3.99,1.345L28.702,188.374z"/>
			
				<path fill="#A1C453" stroke="#333333" stroke-width="1.0616" stroke-linecap="round" stroke-linejoin="round" stroke-miterlimit="10" d="
				M29.829,186.162l1.269,4.637c0,0-4.362-1.961-5.09-3.825C26.008,186.974,28.317,186.736,29.829,186.162z"/>
			
				<path fill="#A1C453" stroke="#333333" stroke-width="1.0616" stroke-linecap="round" stroke-linejoin="round" stroke-miterlimit="10" d="
				M34.962,188.728c0,0-3.313-4.932-6.821-5.068l1.438,4.375L34.962,188.728z"/>
		</g>
		<g>
			
				<path fill="#FFFFFF" stroke="#333333" stroke-width="1.0616" stroke-linecap="round" stroke-linejoin="round" stroke-miterlimit="10" d="
				M33.879,195.359c-0.025,0.476,0.768,0.996,1.403,1.318c1.141,0.583,3.107,0.34,3.182-1.15c0.073-1.501-1.861-1.939-3.057-1.476
				C34.747,194.311,33.899,194.882,33.879,195.359z"/>
			
				<path fill="#FFFFFF" stroke="#333333" stroke-width="1.0616" stroke-linecap="round" stroke-linejoin="round" stroke-miterlimit="10" d="
				M33.763,195.408c-0.399-0.256-1.245,0.171-1.843,0.557c-1.076,0.698-1.851,2.523-0.594,3.332
				c1.263,0.813,2.607-0.642,2.803-1.908C34.237,196.685,34.164,195.668,33.763,195.408z"/>
			
				<path fill="#FFFFFF" stroke="#333333" stroke-width="1.0616" stroke-linecap="round" stroke-linejoin="round" stroke-miterlimit="10" d="
				M33.774,195.292c0.423-0.218,0.479-1.163,0.439-1.874c-0.065-1.282-1.26-2.864-2.588-2.182c-1.334,0.688-0.748,2.582,0.25,3.384
				C32.433,195.064,33.35,195.509,33.774,195.292z"/>
			
				<path fill="#FFFFFF" stroke="#333333" stroke-width="1.0616" stroke-linecap="round" stroke-linejoin="round" stroke-miterlimit="10" d="
				M33.923,195.231c0.398,0.258,1.244-0.167,1.842-0.555c1.076-0.698,1.851-2.522,0.594-3.332c-1.262-0.812-2.608,0.643-2.804,1.91
				C33.447,193.957,33.52,194.973,33.923,195.231z"/>
			
				<path fill="#FFFFFF" stroke="#333333" stroke-width="1.0616" stroke-linecap="round" stroke-linejoin="round" stroke-miterlimit="10" d="
				M33.903,195.354c-0.422,0.217-0.477,1.163-0.438,1.873c0.063,1.281,1.259,2.865,2.587,2.182c1.335-0.688,0.748-2.581-0.251-3.383
				C35.245,195.581,34.329,195.135,33.903,195.354z"/>
			
				<path fill="#FFFFFF" stroke="#333333" stroke-width="1.0616" stroke-linecap="round" stroke-linejoin="round" stroke-miterlimit="10" d="
				M33.806,195.263c0.023-0.474-0.769-0.994-1.402-1.317c-1.142-0.584-3.109-0.342-3.182,1.149c-0.075,1.5,1.86,1.939,3.054,1.475
				C32.938,196.312,33.783,195.741,33.806,195.263z"/>
			
				<path fill="#F9D53E" stroke="#333333" stroke-width="1.0616" stroke-linecap="round" stroke-linejoin="round" stroke-miterlimit="10" d="
				M33.387,196.063c-0.457-0.295-0.591-0.907-0.294-1.366c0.295-0.457,0.906-0.59,1.362-0.294c0.461,0.294,0.593,0.906,0.297,1.364
				C34.458,196.225,33.846,196.358,33.387,196.063z"/>
		</g>
	</g>
</g>
<g id="calque06">
	<g>
		
			<polygon fill="#CC924C" stroke="#333333" stroke-width="1.0616" stroke-linecap="round" stroke-linejoin="round" stroke-miterlimit="10" points="
			67.362,203.95 71.963,212.007 69.445,210.385 		"/>
		
			<polygon fill="#CC924C" stroke="#333333" stroke-width="1.0616" stroke-linecap="round" stroke-linejoin="round" stroke-miterlimit="10" points="
			43.296,187.739 45.636,195.049 43.118,193.426 		"/>
		
			<polygon fill="#CC924C" stroke="#333333" stroke-width="1.0616" stroke-linecap="round" stroke-linejoin="round" stroke-miterlimit="10" points="
			48.221,214.369 64.727,212.12 62.209,210.499 		"/>
		
			<polygon fill="#CC924C" stroke="#333333" stroke-width="1.0616" stroke-linecap="round" stroke-linejoin="round" stroke-miterlimit="10" points="
			27.794,194.518 36.242,193.773 34.617,192.727 		"/>
		<g>
			
				<path fill="#A1C453" stroke="#333333" stroke-width="1.5923" stroke-linecap="round" stroke-linejoin="round" stroke-miterlimit="10" d="
				M62.807,224.518c1.446-2.465,0.793-4.519,6.567-6.162c5.772-1.644,4.313,3.065,8.112,1.984c-3.799,1.081-0.258,4.495-5.818,6.077
				S65.434,225.633,62.807,224.518z"/>
			<g>
				<line fill="none" x1="77.487" y1="220.34" x2="65.939" y2="223.613"/>
				<g>
					<polyline fill="none" stroke="#333333" stroke-width="1.0616" stroke-linecap="round" stroke-miterlimit="10" points="
						76.977,220.484 76.315,220.672 68.629,222.852 68.054,223.014 					"/>
					
						<line fill="none" stroke="#333333" stroke-width="1.0616" stroke-linecap="round" stroke-miterlimit="10" x1="66.45" y1="223.469" x2="66.521" y2="223.447"/>
				</g>
			</g>
		</g>
		<g>
			
				<path fill="#A1C453" stroke="#333333" stroke-width="1.5923" stroke-linecap="round" stroke-linejoin="round" stroke-miterlimit="10" d="
				M62.313,189.547c2.548,1.294,4.561,0.521,6.546,6.185c1.986,5.667-2.803,4.49-1.497,8.218c-1.306-3.728-4.501,0.013-6.414-5.443
				C59.034,193.05,61.356,192.235,62.313,189.547z"/>
			<g>
				<line fill="none" x1="67.191" y1="203.988" x2="63.277" y2="192.827"/>
				<g>
					<polyline fill="none" stroke="#333333" stroke-width="1.0616" stroke-linecap="round" stroke-miterlimit="10" points="
						67.016,203.486 66.788,202.838 64.202,195.464 64.005,194.9 					"/>
					
						<line fill="none" stroke="#333333" stroke-width="1.0616" stroke-linecap="round" stroke-miterlimit="10" x1="63.453" y1="193.328" x2="63.478" y2="193.398"/>
				</g>
			</g>
		</g>
		<g>
			
				<path fill="#A1C453" stroke="#333333" stroke-width="1.5923" stroke-linecap="round" stroke-linejoin="round" stroke-miterlimit="10" d="
				M32.223,208.021c2.971-1.25,3.77-3.549,10.1-1.135c6.328,2.416,1.826,5.688,5.991,7.276c-4.165-1.589-3.27,3.89-9.363,1.563
				C32.853,213.4,33.844,210.805,32.223,208.021z"/>
			<g>
				<line fill="none" x1="48.313" y1="214.164" x2="35.844" y2="209.404"/>
				<g>
					<polyline fill="none" stroke="#333333" stroke-width="1.0616" stroke-linecap="round" stroke-miterlimit="10" points="
						47.817,213.975 47.175,213.729 38.455,210.402 37.897,210.188 					"/>
					
						<line fill="none" stroke="#333333" stroke-width="1.0616" stroke-linecap="round" stroke-miterlimit="10" x1="36.34" y1="209.596" x2="36.409" y2="209.621"/>
				</g>
			</g>
		</g>
		<g>
			
				<path fill="#A1C453" stroke="#333333" stroke-width="1.5923" stroke-linecap="round" stroke-linejoin="round" stroke-miterlimit="10" d="
				M32.95,221.509c1.217-2.987,0.154-5.176,6.336-7.942c6.185-2.77,5.314,2.728,9.385,0.904c-4.069,1.822,0.438,5.063-5.517,7.729
				C37.199,224.863,36.064,222.331,32.95,221.509z"/>
			<g>
				<line fill="none" x1="48.671" y1="214.471" x2="36.488" y2="219.926"/>
				<g>
					<polyline fill="none" stroke="#333333" stroke-width="1.0616" stroke-linecap="round" stroke-miterlimit="10" points="
						48.187,214.688 47.559,214.969 39.039,218.783 38.494,219.027 					"/>
					
						<line fill="none" stroke="#333333" stroke-width="1.0616" stroke-linecap="round" stroke-miterlimit="10" x1="36.973" y1="219.709" x2="37.041" y2="219.68"/>
				</g>
			</g>
		</g>
		<g>
			
				<path fill="#A1C453" stroke="#333333" stroke-width="1.0616" stroke-linecap="round" stroke-linejoin="round" stroke-miterlimit="10" d="
				M21.352,195.518c0.936-1.072,0.807-2.138,3.786-2.407s1.828,1.902,3.789,1.723c-1.961,0.179-0.543,2.178-3.413,2.437
				S22.534,196.309,21.352,195.518z"/>
			<g>
				<line fill="none" x1="28.927" y1="194.834" x2="23.056" y2="195.366"/>
				<g>
					<polyline fill="none" stroke="#333333" stroke-width="1.0616" stroke-linecap="round" stroke-miterlimit="10" points="
						28.398,194.882 27.713,194.944 25.84,195.114 25.244,195.168 					"/>
					
						<line fill="none" stroke="#333333" stroke-width="1.0616" stroke-linecap="round" stroke-miterlimit="10" x1="23.584" y1="195.318" x2="23.658" y2="195.312"/>
				</g>
			</g>
		</g>
		<g>
			
				<path fill="#A1C453" stroke="#333333" stroke-width="1.5923" stroke-linecap="round" stroke-linejoin="round" stroke-miterlimit="10" d="
				M19.905,204.887c-0.175-2.553-1.691-3.744,1.749-7.869c3.443-4.127,4.737,0.094,7.004-2.624
				c-2.267,2.717,2.074,3.457-1.239,7.428C24.103,205.798,22.409,204.387,19.905,204.887z"/>
			<g>
				<line fill="none" x1="28.657" y1="194.395" x2="21.874" y2="202.525"/>
				<g>
					<polyline fill="none" stroke="#333333" stroke-width="1.0616" stroke-linecap="round" stroke-miterlimit="10" points="
						28.317,194.803 27.877,195.331 23.665,200.379 23.282,200.838 					"/>
					
						<line fill="none" stroke="#333333" stroke-width="1.0616" stroke-linecap="round" stroke-miterlimit="10" x1="22.214" y1="202.118" x2="22.262" y2="202.061"/>
				</g>
			</g>
		</g>
		<g>
			
				<path fill="#A1C453" stroke="#333333" stroke-width="1.0616" stroke-linecap="round" stroke-linejoin="round" stroke-miterlimit="10" d="
				M48.086,178.907c0.547,1.756,1.807,2.336,0.086,5.795s-3.328,0.724-4.46,3c1.132-2.277-2.027-2.071-0.371-5.401
				C44.998,178.968,46.417,179.672,48.086,178.907z"/>
			<g>
				<line fill="none" x1="43.615" y1="187.722" x2="47.004" y2="180.907"/>
				<g>
					<polyline fill="none" stroke="#333333" stroke-width="1.0616" stroke-linecap="round" stroke-miterlimit="10" points="
						43.852,187.247 44.158,186.631 45.76,183.41 46.025,182.875 					"/>
					
						<line fill="none" stroke="#333333" stroke-width="1.0616" stroke-linecap="round" stroke-miterlimit="10" x1="46.768" y1="181.382" x2="46.734" y2="181.449"/>
				</g>
			</g>
		</g>
		<g>
			
				<path fill="#A1C453" stroke="#333333" stroke-width="1.5923" stroke-linecap="round" stroke-linejoin="round" stroke-miterlimit="10" d="
				M37.813,171.411c2.855,1.499,5.138,0.655,7.293,7.078c2.156,6.423-3.229,5.023-1.81,9.25c-1.42-4.227-5.082-0.055-7.158-6.238
				C34.06,175.315,36.693,174.43,37.813,171.411z"/>
			<g>
				<line fill="none" x1="43.296" y1="187.739" x2="39.047" y2="175.087"/>
				<g>
					<polyline fill="none" stroke="#333333" stroke-width="1.0616" stroke-linecap="round" stroke-miterlimit="10" points="
						43.127,187.236 42.908,186.583 39.937,177.737 39.746,177.17 					"/>
					
						<line fill="none" stroke="#333333" stroke-width="1.0616" stroke-linecap="round" stroke-miterlimit="10" x1="39.216" y1="175.59" x2="39.239" y2="175.661"/>
				</g>
			</g>
		</g>
		<g>
			
				<path fill="#A1C453" stroke="#333333" stroke-width="1.5923" stroke-linecap="round" stroke-linejoin="round" stroke-miterlimit="10" d="
				M56.088,182.578c-0.977,2.34-0.155,4.066-5.028,6.2c-4.874,2.14-4.156-2.174-7.365-0.766c3.209-1.408-0.312-3.981,4.381-6.039
				C52.771,179.914,53.646,181.912,56.088,182.578z"/>
			<g>
				<line fill="none" x1="43.522" y1="188.048" x2="53.124" y2="183.839"/>
				<g>
					<polyline fill="none" stroke="#333333" stroke-width="1.0616" stroke-linecap="round" stroke-miterlimit="10" points="
						44.009,187.835 44.639,187.559 50.563,184.961 51.111,184.721 					"/>
					
						<line fill="none" stroke="#333333" stroke-width="1.0616" stroke-linecap="round" stroke-miterlimit="10" x1="52.638" y1="184.052" x2="52.569" y2="184.082"/>
				</g>
			</g>
		</g>
		<path fill="#CC924C" stroke="#333333" stroke-width="2.8307" stroke-linecap="round" stroke-miterlimit="10" d="M97.86,228.055
			l-73.902-46.969c-0.934-0.602-2.175-0.331-2.774,0.601l0,0c-0.601,0.933-0.331,2.173,0.601,2.774l73.328,47.861"/>
		<g>
			<g>
				<path fill="#D3F46C" d="M33.971,192.668c2.104,1.02,3.323,4.534,1.971,5.656c-0.01,1.954-3.551,2.988-5.653,1.971
					c-2.105-1.018-3.688-3.056-1.433-5.553C29.366,191.574,31.865,191.652,33.971,192.668z"/>
				<g>
					<path fill="none" stroke="#333333" stroke-width="1.0616" stroke-linecap="round" stroke-miterlimit="10" d="M34.426,192.941
						c0.188,0.132,0.365,0.276,0.526,0.44c0.723,0.715,1.228,1.644,1.455,2.633c0.108,0.493,0.149,1.016,0.018,1.509
						c-0.073,0.241-0.175,0.483-0.354,0.665l-0.129,0.139l-0.021,0.189c-0.005,0.128-0.045,0.249-0.092,0.367
						c-0.401,0.968-1.451,1.438-2.41,1.672c-0.987,0.204-2.057,0.203-2.993-0.205c-0.915-0.418-1.795-1.027-2.313-1.914
						c-0.254-0.44-0.388-0.953-0.349-1.461c0.034-0.51,0.23-0.993,0.489-1.427c0.784-0.728,0.657-1.888,1.376-2.667
						c0.326-0.391,0.79-0.658,1.286-0.764c0.122-0.02,0.256-0.058,0.369-0.057l0.195-0.012c0.131-0.012,0.263,0.007,0.394,0.009"/>
					
						<line fill="none" stroke="#333333" stroke-width="1.0616" stroke-linecap="round" stroke-miterlimit="10" x1="33.484" y1="192.456" x2="33.414" y2="192.43"/>
				</g>
			</g>
			
				<ellipse transform="matrix(-0.4869 -0.8735 0.8735 -0.4869 -128.8563 320.4228)" opacity="0.5" fill="#FFFFFF" enable-background="new    " cx="29.688" cy="198.06" rx="0.969" ry="0.797"/>
		</g>
		<g>
			<g>
				<path fill="#D3F46C" d="M76.042,201.744c2.41,2.836,1.921,8.738-0.771,9.501c-1.272,2.84-7.089,2.065-9.499-0.771
					c-2.412-2.836-3.402-6.822,1.487-9.006C70.044,197.186,73.631,198.907,76.042,201.744z"/>
				<g>
					<path fill="none" stroke="#333333" stroke-width="1.5924" stroke-linecap="round" stroke-miterlimit="10" d="M76.506,202.391
						c0.17,0.299,0.344,0.596,0.464,0.92c0.627,1.51,0.767,3.207,0.48,4.81c-0.152,0.798-0.425,1.597-0.934,2.241
						c-0.265,0.309-0.565,0.602-0.945,0.758l-0.282,0.117c-0.067,0.07-0.108,0.172-0.164,0.256c-0.091,0.186-0.223,0.341-0.37,0.482
						c-0.574,0.59-1.388,0.879-2.189,0.986c-0.811,0.107-1.636,0.055-2.437-0.102c-1.586-0.342-3.147-1.06-4.251-2.276
						c-1.063-1.222-1.942-2.701-2.085-4.345c-0.065-0.813,0.105-1.647,0.516-2.356c0.397-0.72,1.027-1.28,1.705-1.728
						c0.334-0.238,0.703-0.414,1.068-0.598c0.21-0.06,0.292-0.269,0.42-0.425c0.124-0.161,0.229-0.34,0.369-0.487
						c0.519-0.629,1.169-1.165,1.923-1.478c0.755-0.315,1.61-0.349,2.398-0.138c0.197,0.033,0.4,0.13,0.569,0.186
						c0.093,0.035,0.188,0.065,0.272,0.113c0.174,0.09,0.354,0.169,0.523,0.27"/>
					
						<line fill="none" stroke="#333333" stroke-width="1.5924" stroke-linecap="round" stroke-miterlimit="10" x1="75.506" y1="201.156" x2="75.426" y2="201.078"/>
				</g>
			</g>
			
				<ellipse transform="matrix(-0.0908 -0.9959 0.9959 -0.0908 -133.6432 291.7094)" opacity="0.5" fill="#FFFFFF" enable-background="new    " cx="66.341" cy="206.861" rx="1.543" ry="1.267"/>
		</g>
		<g>
			
				<path fill="#A1C453" stroke="#333333" stroke-width="1.0616" stroke-linecap="round" stroke-linejoin="round" stroke-miterlimit="10" d="
				M20.208,182.902c0,0-1.786-2.563-2.006-3.162c-0.178-0.478,2.946,0.714,3.99,1.345L20.208,182.902z"/>
			
				<path fill="#A1C453" stroke="#333333" stroke-width="1.0616" stroke-linecap="round" stroke-linejoin="round" stroke-miterlimit="10" d="
				M21.333,180.691l1.271,4.637c0,0-4.363-1.962-5.091-3.826C17.513,181.502,19.822,181.265,21.333,180.691z"/>
			
				<path fill="#A1C453" stroke="#333333" stroke-width="1.0616" stroke-linecap="round" stroke-linejoin="round" stroke-miterlimit="10" d="
				M26.467,183.257c0,0-3.31-4.932-6.82-5.069l1.438,4.376L26.467,183.257z"/>
		</g>
	</g>
</g>
<g id="calque07">
	<g>
		
			<polygon fill="#CC924C" stroke="#333333" stroke-width="1.0616" stroke-linecap="round" stroke-linejoin="round" stroke-miterlimit="10" points="
			67.362,203.95 71.963,212.007 69.445,210.385 		"/>
		
			<polygon fill="#CC924C" stroke="#333333" stroke-width="1.0616" stroke-linecap="round" stroke-linejoin="round" stroke-miterlimit="10" points="
			43.296,187.739 45.636,195.049 43.118,193.426 		"/>
		
			<polygon fill="#CC924C" stroke="#333333" stroke-width="1.0616" stroke-linecap="round" stroke-linejoin="round" stroke-miterlimit="10" points="
			48.221,214.369 64.727,212.12 62.209,210.499 		"/>
		
			<polygon fill="#CC924C" stroke="#333333" stroke-width="1.0616" stroke-linecap="round" stroke-linejoin="round" stroke-miterlimit="10" points="
			27.794,194.518 36.242,193.773 34.617,192.727 		"/>
		<g>
			
				<path fill="#A1C453" stroke="#333333" stroke-width="1.5923" stroke-linecap="round" stroke-linejoin="round" stroke-miterlimit="10" d="
				M62.807,224.518c1.446-2.465,0.795-4.521,6.567-6.162c5.772-1.644,4.313,3.065,8.112,1.984c-3.799,1.081-0.258,4.495-5.818,6.077
				S65.434,225.633,62.807,224.518z"/>
			<g>
				<line fill="none" x1="77.487" y1="220.34" x2="65.939" y2="223.613"/>
				<g>
					<polyline fill="none" stroke="#333333" stroke-width="1.0616" stroke-linecap="round" stroke-miterlimit="10" points="
						76.977,220.484 76.315,220.672 68.629,222.852 68.054,223.014 					"/>
					
						<line fill="none" stroke="#333333" stroke-width="1.0616" stroke-linecap="round" stroke-miterlimit="10" x1="66.45" y1="223.469" x2="66.521" y2="223.447"/>
				</g>
			</g>
		</g>
		<g>
			
				<path fill="#A1C453" stroke="#333333" stroke-width="1.5923" stroke-linecap="round" stroke-linejoin="round" stroke-miterlimit="10" d="
				M62.313,189.547c2.548,1.294,4.561,0.521,6.546,6.185c1.986,5.667-2.803,4.49-1.497,8.218c-1.306-3.728-4.502,0.013-6.414-5.443
				C59.034,193.05,61.356,192.235,62.313,189.547z"/>
			<g>
				<line fill="none" x1="67.191" y1="203.988" x2="63.277" y2="192.827"/>
				<g>
					<polyline fill="none" stroke="#333333" stroke-width="1.0616" stroke-linecap="round" stroke-miterlimit="10" points="
						67.016,203.486 66.788,202.838 64.202,195.464 64.005,194.9 					"/>
					
						<line fill="none" stroke="#333333" stroke-width="1.0616" stroke-linecap="round" stroke-miterlimit="10" x1="63.453" y1="193.328" x2="63.478" y2="193.398"/>
				</g>
			</g>
		</g>
		<g>
			
				<path fill="#A1C453" stroke="#333333" stroke-width="1.5923" stroke-linecap="round" stroke-linejoin="round" stroke-miterlimit="10" d="
				M32.223,208.021c2.971-1.25,3.77-3.549,10.1-1.135c6.328,2.416,1.826,5.688,5.991,7.276c-4.165-1.591-3.27,3.89-9.363,1.563
				C32.853,213.4,33.844,210.805,32.223,208.021z"/>
			<g>
				<line fill="none" x1="48.313" y1="214.164" x2="35.844" y2="209.404"/>
				<g>
					<polyline fill="none" stroke="#333333" stroke-width="1.0616" stroke-linecap="round" stroke-miterlimit="10" points="
						47.817,213.975 47.175,213.729 38.455,210.402 37.897,210.188 					"/>
					
						<line fill="none" stroke="#333333" stroke-width="1.0616" stroke-linecap="round" stroke-miterlimit="10" x1="36.34" y1="209.596" x2="36.409" y2="209.621"/>
				</g>
			</g>
		</g>
		<g>
			
				<path fill="#A1C453" stroke="#333333" stroke-width="1.5923" stroke-linecap="round" stroke-linejoin="round" stroke-miterlimit="10" d="
				M32.95,221.508c1.217-2.986,0.154-5.175,6.338-7.943c6.183-2.768,5.313,2.729,9.383,0.906c-4.069,1.822,0.438,5.063-5.517,7.729
				C37.199,224.863,36.064,222.331,32.95,221.508z"/>
			<g>
				<line fill="none" x1="48.671" y1="214.471" x2="36.489" y2="219.924"/>
				<g>
					<polyline fill="none" stroke="#333333" stroke-width="1.0616" stroke-linecap="round" stroke-miterlimit="10" points="
						48.187,214.688 47.559,214.969 39.041,218.781 38.495,219.025 					"/>
					
						<line fill="none" stroke="#333333" stroke-width="1.0616" stroke-linecap="round" stroke-miterlimit="10" x1="36.974" y1="219.707" x2="37.042" y2="219.678"/>
				</g>
			</g>
		</g>
		<g>
			
				<path fill="#A1C453" stroke="#333333" stroke-width="1.5923" stroke-linecap="round" stroke-linejoin="round" stroke-miterlimit="10" d="
				M14.688,195.53c1.685-1.927,1.45-3.843,6.804-4.327c5.351-0.482,3.28,3.417,6.805,3.098c-3.523,0.319-0.976,3.912-6.13,4.377
				C17.01,199.144,16.813,196.948,14.688,195.53z"/>
			<g>
				<line fill="none" x1="28.296" y1="194.3" x2="17.754" y2="195.252"/>
				<g>
					<polyline fill="none" stroke="#333333" stroke-width="1.0616" stroke-linecap="round" stroke-miterlimit="10" points="
						27.768,194.348 27.082,194.41 20.538,195 19.942,195.054 					"/>
					
						<line fill="none" stroke="#333333" stroke-width="1.0616" stroke-linecap="round" stroke-miterlimit="10" x1="18.282" y1="195.204" x2="18.356" y2="195.198"/>
				</g>
			</g>
		</g>
		<g>
			
				<path fill="#A1C453" stroke="#333333" stroke-width="1.5923" stroke-linecap="round" stroke-linejoin="round" stroke-miterlimit="10" d="
				M19.905,204.887c-0.175-2.553-1.691-3.744,1.749-7.869c3.443-4.127,4.737,0.094,7.004-2.624
				c-2.267,2.717,2.074,3.457-1.239,7.428C24.103,205.798,22.409,204.387,19.905,204.887z"/>
			<g>
				<line fill="none" x1="28.657" y1="194.395" x2="21.874" y2="202.525"/>
				<g>
					<polyline fill="none" stroke="#333333" stroke-width="1.0616" stroke-linecap="round" stroke-miterlimit="10" points="
						28.317,194.803 27.877,195.331 23.665,200.379 23.282,200.838 					"/>
					
						<line fill="none" stroke="#333333" stroke-width="1.0616" stroke-linecap="round" stroke-miterlimit="10" x1="22.214" y1="202.118" x2="22.262" y2="202.061"/>
				</g>
			</g>
		</g>
		<g>
			
				<path fill="#A1C453" stroke="#333333" stroke-width="1.5923" stroke-linecap="round" stroke-linejoin="round" stroke-miterlimit="10" d="
				M51.307,171.99c0.957,3.081,3.166,4.096,0.152,10.162c-3.018,6.068-5.836,1.27-7.82,5.262c1.984-3.993-3.556-3.632-0.652-9.473
				C45.892,172.099,48.379,173.334,51.307,171.99z"/>
			<g>
				<line fill="none" x1="43.466" y1="187.452" x2="49.407" y2="175.498"/>
				<g>
					<polyline fill="none" stroke="#333333" stroke-width="1.0616" stroke-linecap="round" stroke-miterlimit="10" points="
						43.702,186.977 44.008,186.36 48.163,178.001 48.429,177.466 					"/>
					
						<line fill="none" stroke="#333333" stroke-width="1.0616" stroke-linecap="round" stroke-miterlimit="10" x1="49.171" y1="175.973" x2="49.138" y2="176.04"/>
				</g>
			</g>
		</g>
		<g>
			
				<path fill="#A1C453" stroke="#333333" stroke-width="1.5923" stroke-linecap="round" stroke-linejoin="round" stroke-miterlimit="10" d="
				M37.813,171.411c2.855,1.499,5.138,0.655,7.293,7.078c2.157,6.421-3.229,5.023-1.81,9.25c-1.42-4.227-5.082-0.055-7.158-6.238
				C34.06,175.315,36.693,174.43,37.813,171.411z"/>
			<g>
				<line fill="none" x1="43.296" y1="187.739" x2="39.047" y2="175.087"/>
				<g>
					<polyline fill="none" stroke="#333333" stroke-width="1.0616" stroke-linecap="round" stroke-miterlimit="10" points="
						43.127,187.236 42.908,186.583 39.937,177.737 39.746,177.17 					"/>
					
						<line fill="none" stroke="#333333" stroke-width="1.0616" stroke-linecap="round" stroke-miterlimit="10" x1="39.216" y1="175.59" x2="39.239" y2="175.661"/>
				</g>
			</g>
		</g>
		<g>
			
				<path fill="#A1C453" stroke="#333333" stroke-width="1.5923" stroke-linecap="round" stroke-linejoin="round" stroke-miterlimit="10" d="
				M56.088,182.578c-0.977,2.34-0.155,4.066-5.028,6.2c-4.874,2.14-4.156-2.174-7.365-0.766c3.209-1.408-0.312-3.981,4.381-6.039
				C52.771,179.914,53.646,181.912,56.088,182.578z"/>
			<g>
				<line fill="none" x1="43.522" y1="188.048" x2="53.126" y2="183.837"/>
				<g>
					<polyline fill="none" stroke="#333333" stroke-width="1.0616" stroke-linecap="round" stroke-miterlimit="10" points="
						44.009,187.835 44.639,187.559 50.565,184.96 51.113,184.72 					"/>
					
						<line fill="none" stroke="#333333" stroke-width="1.0616" stroke-linecap="round" stroke-miterlimit="10" x1="52.64" y1="184.05" x2="52.571" y2="184.081"/>
				</g>
			</g>
		</g>
		<path fill="#CC924C" stroke="#333333" stroke-width="2.8307" stroke-linecap="round" stroke-miterlimit="10" d="M97.86,228.055
			l-73.902-46.969c-0.934-0.602-2.175-0.331-2.774,0.601l0,0c-0.601,0.933-0.331,2.173,0.601,2.774l73.328,47.861"/>
		<g>
			<g>
				<path fill="#D3F46C" d="M37.133,191.936c3.351,1.62,5.288,7.217,3.135,9.001c-0.015,3.112-5.646,4.758-9,3.135
					c-3.353-1.617-5.871-4.859-2.28-8.835C29.802,190.192,33.778,190.317,37.133,191.936z"/>
				<g>
					<path fill="none" stroke="#333333" stroke-width="1.5924" stroke-linecap="round" stroke-miterlimit="10" d="M37.818,192.34
						c0.276,0.205,0.557,0.406,0.796,0.653c1.186,1.128,1.997,2.623,2.385,4.206c0.183,0.792,0.257,1.632,0.052,2.428
						c-0.117,0.388-0.275,0.778-0.56,1.075l-0.211,0.223c-0.032,0.093-0.029,0.2-0.046,0.3c-0.009,0.207-0.064,0.401-0.144,0.592
						c-0.287,0.771-0.915,1.363-1.604,1.787c-0.696,0.428-1.475,0.711-2.27,0.893c-1.589,0.33-3.307,0.304-4.809-0.365
						c-1.465-0.688-2.869-1.686-3.663-3.13c-0.391-0.718-0.569-1.551-0.481-2.365c0.074-0.819,0.424-1.586,0.863-2.268
						c0.209-0.353,0.476-0.663,0.734-0.979c0.169-0.139,0.157-0.365,0.212-0.559c0.049-0.198,0.071-0.403,0.142-0.596
						c0.22-0.785,0.598-1.537,1.161-2.128c0.563-0.594,1.334-0.97,2.14-1.096c0.193-0.05,0.418-0.042,0.596-0.06
						c0.1-0.006,0.196-0.016,0.295-0.006c0.195,0.012,0.394,0.011,0.589,0.035"/>
					
						<line fill="none" stroke="#333333" stroke-width="1.5924" stroke-linecap="round" stroke-miterlimit="10" x1="36.404" y1="191.615" x2="36.3" y2="191.575"/>
				</g>
			</g>
			
				<ellipse transform="matrix(-0.4862 -0.8739 0.8739 -0.4862 -130.174 324.5264)" opacity="0.5" fill="#FFFFFF" enable-background="new    " cx="30.322" cy="200.534" rx="1.542" ry="1.269"/>
		</g>
		<g>
			<g>
				<path fill="#EF4529" d="M76.043,201.744c2.409,2.836,1.92,8.738-0.771,9.501c-1.272,2.84-7.089,2.065-9.499-0.771
					c-2.412-2.836-3.402-6.822,1.487-9.006C70.044,197.186,73.631,198.907,76.043,201.744z"/>
				<g>
					<path fill="none" stroke="#333333" stroke-width="1.5924" stroke-linecap="round" stroke-miterlimit="10" d="M76.506,202.391
						c0.171,0.299,0.345,0.596,0.465,0.92c0.627,1.51,0.767,3.207,0.479,4.812c-0.152,0.798-0.425,1.597-0.934,2.241
						c-0.265,0.308-0.565,0.601-0.946,0.757l-0.281,0.118c-0.067,0.07-0.108,0.171-0.164,0.255c-0.091,0.187-0.223,0.342-0.37,0.483
						c-0.574,0.588-1.389,0.877-2.19,0.985c-0.81,0.108-1.635,0.054-2.437-0.103c-1.586-0.34-3.146-1.059-4.25-2.275
						c-1.063-1.221-1.943-2.702-2.085-4.346c-0.065-0.813,0.105-1.647,0.516-2.356c0.398-0.719,1.028-1.28,1.706-1.726
						c0.333-0.239,0.702-0.415,1.067-0.6c0.211-0.059,0.292-0.27,0.42-0.425c0.125-0.161,0.229-0.34,0.37-0.487
						c0.519-0.629,1.168-1.165,1.923-1.478c0.755-0.315,1.61-0.349,2.398-0.138c0.197,0.033,0.399,0.13,0.569,0.187
						c0.092,0.034,0.187,0.065,0.271,0.113c0.175,0.091,0.354,0.17,0.523,0.27"/>
					
						<line fill="none" stroke="#333333" stroke-width="1.5924" stroke-linecap="round" stroke-miterlimit="10" x1="75.506" y1="201.156" x2="75.427" y2="201.078"/>
				</g>
			</g>
			
				<ellipse transform="matrix(-0.0908 -0.9959 0.9959 -0.0908 -133.6432 291.7094)" opacity="0.5" fill="#FFFFFF" enable-background="new    " cx="66.341" cy="206.861" rx="1.543" ry="1.267"/>
		</g>
		<g>
			
				<path fill="#A1C453" stroke="#333333" stroke-width="1.0616" stroke-linecap="round" stroke-linejoin="round" stroke-miterlimit="10" d="
				M20.208,182.902c0,0-1.786-2.563-2.006-3.162c-0.177-0.479,2.946,0.714,3.99,1.345L20.208,182.902z"/>
			
				<path fill="#A1C453" stroke="#333333" stroke-width="1.0616" stroke-linecap="round" stroke-linejoin="round" stroke-miterlimit="10" d="
				M21.333,180.691l1.271,4.637c0,0-4.362-1.964-5.091-3.826C17.513,181.502,19.822,181.265,21.333,180.691z"/>
			
				<path fill="#A1C453" stroke="#333333" stroke-width="1.0616" stroke-linecap="round" stroke-linejoin="round" stroke-miterlimit="10" d="
				M26.467,183.257c0,0-3.31-4.932-6.82-5.069l1.438,4.376L26.467,183.257z"/>
		</g>
	</g>
</g>
<g id="calque08">
	<g>
		
			<polygon fill="#CC924C" stroke="#333333" stroke-width="1.0616" stroke-linecap="round" stroke-linejoin="round" stroke-miterlimit="10" points="
			67.364,203.949 71.965,212.005 69.446,210.382 		"/>
		
			<polygon fill="#CC924C" stroke="#333333" stroke-width="1.0616" stroke-linecap="round" stroke-linejoin="round" stroke-miterlimit="10" points="
			43.297,187.737 45.637,195.048 43.118,193.424 		"/>
		
			<polygon fill="#CC924C" stroke="#333333" stroke-width="1.0616" stroke-linecap="round" stroke-linejoin="round" stroke-miterlimit="10" points="
			48.223,214.366 64.729,212.119 62.211,210.497 		"/>
		
			<polygon fill="#CC924C" stroke="#333333" stroke-width="1.0616" stroke-linecap="round" stroke-linejoin="round" stroke-miterlimit="10" points="
			27.795,194.516 36.244,193.772 34.619,192.725 		"/>
		<g>
			
				<path fill="#A1C453" stroke="#333333" stroke-width="1.5923" stroke-linecap="round" stroke-linejoin="round" stroke-miterlimit="10" d="
				M62.808,224.516c1.447-2.465,0.793-4.52,6.568-6.162c5.771-1.645,4.313,3.064,8.111,1.984c-3.798,1.08-0.258,4.495-5.818,6.078
				C66.108,227.998,65.436,225.631,62.808,224.516z"/>
			<g>
				<line fill="none" x1="77.488" y1="220.338" x2="65.94" y2="223.611"/>
				<g>
					<polyline fill="none" stroke="#333333" stroke-width="1.0616" stroke-linecap="round" stroke-miterlimit="10" points="
						76.978,220.482 76.316,220.67 68.63,222.85 68.055,223.014 					"/>
					
						<line fill="none" stroke="#333333" stroke-width="1.0616" stroke-linecap="round" stroke-miterlimit="10" x1="66.451" y1="223.469" x2="66.522" y2="223.447"/>
				</g>
			</g>
		</g>
		<g>
			
				<path fill="#A1C453" stroke="#333333" stroke-width="1.5923" stroke-linecap="round" stroke-linejoin="round" stroke-miterlimit="10" d="
				M62.316,189.545c2.545,1.296,4.56,0.521,6.544,6.185c1.985,5.665-2.803,4.49-1.496,8.217c-1.307-3.728-4.503,0.013-6.414-5.444
				C59.036,193.049,61.358,192.234,62.316,189.545z"/>
			<g>
				<line fill="none" x1="67.193" y1="203.984" x2="63.278" y2="192.825"/>
				<g>
					<polyline fill="none" stroke="#333333" stroke-width="1.0616" stroke-linecap="round" stroke-miterlimit="10" points="
						67.018,203.484 66.79,202.835 64.204,195.462 64.006,194.898 					"/>
					
						<line fill="none" stroke="#333333" stroke-width="1.0616" stroke-linecap="round" stroke-miterlimit="10" x1="63.454" y1="193.326" x2="63.479" y2="193.396"/>
				</g>
			</g>
		</g>
		<g>
			
				<path fill="#A1C453" stroke="#333333" stroke-width="1.5923" stroke-linecap="round" stroke-linejoin="round" stroke-miterlimit="10" d="
				M32.224,208.021c2.971-1.252,3.77-3.549,10.099-1.135c6.329,2.416,1.827,5.688,5.993,7.272c-4.166-1.587-3.27,3.891-9.364,1.565
				C32.856,213.398,33.844,210.807,32.224,208.021z"/>
			<g>
				<line fill="none" x1="48.315" y1="214.159" x2="35.845" y2="209.404"/>
				<g>
					<polyline fill="none" stroke="#333333" stroke-width="1.0616" stroke-linecap="round" stroke-miterlimit="10" points="
						47.819,213.971 47.177,213.725 38.457,210.4 37.898,210.188 					"/>
					
						<line fill="none" stroke="#333333" stroke-width="1.0616" stroke-linecap="round" stroke-miterlimit="10" x1="36.341" y1="209.594" x2="36.41" y2="209.62"/>
				</g>
			</g>
		</g>
		<g>
			
				<path fill="#A1C453" stroke="#333333" stroke-width="1.5923" stroke-linecap="round" stroke-linejoin="round" stroke-miterlimit="10" d="
				M32.951,221.508c1.218-2.988,0.154-5.177,6.34-7.945c6.182-2.766,5.313,2.729,9.382,0.905c-4.069,1.823,0.437,5.065-5.518,7.729
				C37.201,224.863,36.065,222.329,32.951,221.508z"/>
			<g>
				<line fill="none" x1="48.673" y1="214.469" x2="36.49" y2="219.923"/>
				<g>
					<polyline fill="none" stroke="#333333" stroke-width="1.0616" stroke-linecap="round" stroke-miterlimit="10" points="
						48.188,214.686 47.561,214.966 39.041,218.779 38.496,219.023 					"/>
					
						<line fill="none" stroke="#333333" stroke-width="1.0616" stroke-linecap="round" stroke-miterlimit="10" x1="36.975" y1="219.706" x2="37.043" y2="219.676"/>
				</g>
			</g>
		</g>
		<g>
			
				<path fill="#A1C453" stroke="#333333" stroke-width="1.5923" stroke-linecap="round" stroke-linejoin="round" stroke-miterlimit="10" d="
				M14.691,195.528c1.683-1.927,1.448-3.843,6.802-4.327c5.352-0.482,3.283,3.417,6.806,3.099c-3.521,0.318-0.978,3.91-6.131,4.375
				C17.013,199.142,16.814,196.947,14.691,195.528z"/>
			<g>
				<line fill="none" x1="28.298" y1="194.299" x2="17.754" y2="195.252"/>
				<g>
					<polyline fill="none" stroke="#333333" stroke-width="1.0616" stroke-linecap="round" stroke-miterlimit="10" points="
						27.77,194.347 27.084,194.409 20.538,195 19.942,195.054 					"/>
					
						<line fill="none" stroke="#333333" stroke-width="1.0616" stroke-linecap="round" stroke-miterlimit="10" x1="18.282" y1="195.204" x2="18.356" y2="195.197"/>
				</g>
			</g>
		</g>
		<g>
			
				<path fill="#A1C453" stroke="#333333" stroke-width="1.5923" stroke-linecap="round" stroke-linejoin="round" stroke-miterlimit="10" d="
				M19.906,204.885c-0.175-2.553-1.691-3.742,1.749-7.869c3.444-4.126,4.738,0.093,7.004-2.623
				c-2.266,2.715,2.074,3.456-1.237,7.427C24.104,205.797,22.411,204.385,19.906,204.885z"/>
			<g>
				<line fill="none" x1="28.658" y1="194.394" x2="21.877" y2="202.523"/>
				<g>
					<polyline fill="none" stroke="#333333" stroke-width="1.0616" stroke-linecap="round" stroke-miterlimit="10" points="
						28.318,194.802 27.878,195.33 23.668,200.376 23.285,200.835 					"/>
					
						<line fill="none" stroke="#333333" stroke-width="1.0616" stroke-linecap="round" stroke-miterlimit="10" x1="22.217" y1="202.115" x2="22.265" y2="202.059"/>
				</g>
			</g>
		</g>
		<g>
			
				<path fill="#A1C453" stroke="#333333" stroke-width="1.5923" stroke-linecap="round" stroke-linejoin="round" stroke-miterlimit="10" d="
				M51.307,171.99c0.959,3.079,3.168,4.095,0.153,10.16c-3.018,6.067-5.837,1.27-7.82,5.262c1.983-3.992-3.556-3.631-0.649-9.473
				C45.894,172.096,48.381,173.333,51.307,171.99z"/>
			<g>
				<line fill="none" x1="43.468" y1="187.449" x2="49.409" y2="175.497"/>
				<g>
					<polyline fill="none" stroke="#333333" stroke-width="1.0616" stroke-linecap="round" stroke-miterlimit="10" points="
						43.704,186.974 44.01,186.358 48.165,178 48.431,177.465 					"/>
					
						<line fill="none" stroke="#333333" stroke-width="1.0616" stroke-linecap="round" stroke-miterlimit="10" x1="49.173" y1="175.972" x2="49.14" y2="176.039"/>
				</g>
			</g>
		</g>
		<g>
			
				<path fill="#A1C453" stroke="#333333" stroke-width="1.5923" stroke-linecap="round" stroke-linejoin="round" stroke-miterlimit="10" d="
				M37.814,171.41c2.855,1.499,5.137,0.655,7.293,7.077c2.156,6.423-3.229,5.024-1.811,9.25c-1.419-4.226-5.081-0.054-7.157-6.239
				C34.061,175.313,36.694,174.429,37.814,171.41z"/>
			<g>
				<line fill="none" x1="43.297" y1="187.737" x2="39.048" y2="175.084"/>
				<g>
					<polyline fill="none" stroke="#333333" stroke-width="1.0616" stroke-linecap="round" stroke-miterlimit="10" points="
						43.128,187.233 42.909,186.582 39.938,177.734 39.747,177.168 					"/>
					
						<line fill="none" stroke="#333333" stroke-width="1.0616" stroke-linecap="round" stroke-miterlimit="10" x1="39.217" y1="175.588" x2="39.24" y2="175.658"/>
				</g>
			</g>
		</g>
		<g>
			
				<path fill="#A1C453" stroke="#333333" stroke-width="1.5923" stroke-linecap="round" stroke-linejoin="round" stroke-miterlimit="10" d="
				M56.088,182.575c-0.972,2.34-0.151,4.066-5.026,6.202c-4.874,2.138-4.158-2.175-7.365-0.768c3.207-1.407-0.313-3.981,4.381-6.038
				C52.771,179.913,53.648,181.91,56.088,182.575z"/>
			<g>
				<line fill="none" x1="43.524" y1="188.047" x2="53.128" y2="183.835"/>
				<g>
					<polyline fill="none" stroke="#333333" stroke-width="1.0616" stroke-linecap="round" stroke-miterlimit="10" points="
						44.011,187.833 44.641,187.558 50.568,184.958 51.115,184.718 					"/>
					
						<line fill="none" stroke="#333333" stroke-width="1.0616" stroke-linecap="round" stroke-miterlimit="10" x1="52.642" y1="184.049" x2="52.573" y2="184.079"/>
				</g>
			</g>
		</g>
		<path fill="#CC924C" stroke="#333333" stroke-width="2.8307" stroke-linecap="round" stroke-miterlimit="10" d="M97.861,228.053
			l-73.902-46.969c-0.933-0.6-2.174-0.33-2.774,0.602l0,0c-0.601,0.932-0.33,2.174,0.603,2.773l73.327,47.861"/>
		<g>
			<g>
				<path fill="#EF4529" d="M37.133,191.935c3.354,1.619,5.29,7.217,3.139,9c-0.018,3.112-5.65,4.756-9.002,3.139
					c-3.353-1.621-5.871-4.864-2.279-8.839C29.805,190.189,33.782,190.314,37.133,191.935z"/>
				<g>
					<path fill="none" stroke="#333333" stroke-width="1.5924" stroke-linecap="round" stroke-miterlimit="10" d="M37.818,192.338
						c0.276,0.205,0.557,0.406,0.798,0.653c1.185,1.127,1.997,2.623,2.385,4.206c0.184,0.792,0.258,1.632,0.054,2.427
						c-0.117,0.389-0.275,0.778-0.56,1.075l-0.21,0.223c-0.033,0.092-0.03,0.2-0.048,0.299c-0.008,0.207-0.064,0.402-0.144,0.592
						c-0.287,0.771-0.915,1.365-1.604,1.789c-0.696,0.426-1.475,0.709-2.27,0.892c-1.589,0.329-3.307,0.306-4.81-0.362
						c-1.465-0.688-2.868-1.686-3.663-3.131c-0.391-0.717-0.569-1.55-0.481-2.364c0.073-0.819,0.423-1.586,0.862-2.268
						c0.209-0.353,0.476-0.664,0.734-0.979c0.168-0.139,0.158-0.364,0.213-0.559c0.049-0.198,0.071-0.403,0.142-0.596
						c0.22-0.785,0.598-1.537,1.16-2.129c0.563-0.594,1.333-0.971,2.139-1.098c0.193-0.049,0.418-0.043,0.597-0.06
						c0.099-0.006,0.196-0.016,0.294-0.007c0.196,0.012,0.395,0.012,0.59,0.035"/>
					
						<line fill="none" stroke="#333333" stroke-width="1.5924" stroke-linecap="round" stroke-miterlimit="10" x1="36.404" y1="191.614" x2="36.3" y2="191.574"/>
				</g>
			</g>
			
				<ellipse transform="matrix(-0.4858 -0.874 0.874 -0.4858 -130.1995 324.4402)" opacity="0.5" fill="#FFFFFF" enable-background="new    " cx="30.326" cy="200.515" rx="1.543" ry="1.269"/>
		</g>
		<g>
			<g>
				<path fill="#EF4529" d="M76.044,201.741c2.41,2.836,1.919,8.741-0.771,9.502c-1.272,2.84-7.09,2.065-9.501-0.771
					c-2.41-2.836-3.402-6.822,1.487-9.005C70.046,197.182,73.633,198.906,76.044,201.741z"/>
				<g>
					<path fill="none" stroke="#333333" stroke-width="1.5924" stroke-linecap="round" stroke-miterlimit="10" d="M76.508,202.389
						c0.17,0.299,0.344,0.596,0.464,0.918c0.627,1.512,0.767,3.207,0.479,4.812c-0.151,0.798-0.424,1.597-0.933,2.241
						c-0.265,0.309-0.565,0.602-0.946,0.758l-0.281,0.117c-0.067,0.07-0.108,0.172-0.164,0.256c-0.091,0.186-0.223,0.342-0.37,0.482
						c-0.574,0.59-1.389,0.879-2.19,0.987c-0.81,0.108-1.636,0.054-2.437-0.103c-1.586-0.34-3.147-1.059-4.252-2.275
						c-1.062-1.221-1.941-2.701-2.084-4.346c-0.066-0.813,0.104-1.647,0.516-2.356c0.397-0.72,1.027-1.28,1.706-1.726
						c0.333-0.239,0.702-0.416,1.067-0.598c0.211-0.06,0.292-0.271,0.42-0.427c0.124-0.161,0.229-0.339,0.37-0.487
						c0.519-0.629,1.168-1.165,1.922-1.479c0.755-0.315,1.612-0.349,2.399-0.139c0.196,0.033,0.399,0.13,0.569,0.187
						c0.092,0.034,0.187,0.065,0.271,0.113c0.175,0.09,0.354,0.17,0.523,0.27"/>
					
						<line fill="none" stroke="#333333" stroke-width="1.5924" stroke-linecap="round" stroke-miterlimit="10" x1="75.507" y1="201.152" x2="75.428" y2="201.075"/>
				</g>
			</g>
			<path opacity="0.5" fill="#FFFFFF" enable-background="new    " d="M67.612,206.734c0.079,0.849-0.423,1.586-1.117,1.647
				c-0.7,0.067-1.329-0.569-1.408-1.419s0.423-1.588,1.12-1.65C66.903,205.249,67.533,205.884,67.612,206.734z"/>
		</g>
		<g>
			
				<path fill="#A1C453" stroke="#333333" stroke-width="1.0616" stroke-linecap="round" stroke-linejoin="round" stroke-miterlimit="10" d="
				M20.211,182.9c0,0-1.789-2.564-2.007-3.162c-0.178-0.478,2.946,0.714,3.988,1.346L20.211,182.9z"/>
			
				<path fill="#A1C453" stroke="#333333" stroke-width="1.0616" stroke-linecap="round" stroke-linejoin="round" stroke-miterlimit="10" d="
				M21.335,180.69l1.271,4.637c0,0-4.362-1.964-5.09-3.83C17.516,181.498,19.823,181.264,21.335,180.69z"/>
			
				<path fill="#A1C453" stroke="#333333" stroke-width="1.0616" stroke-linecap="round" stroke-linejoin="round" stroke-miterlimit="10" d="
				M26.469,183.254c0,0-3.31-4.931-6.82-5.067l1.437,4.375L26.469,183.254z"/>
		</g>
	</g>
</g>
</svg>
