<?xml version="1.0" encoding="utf-8"?>
<!-- Generator: Adobe Illustrator 16.0.0, SVG Export Plug-In . SVG Version: 6.00 Build 0)  -->
<!DOCTYPE svg PUBLIC "-//W3C//DTD SVG 1.1//EN" "http://www.w3.org/Graphics/SVG/1.1/DTD/svg11.dtd">
<svg version="1.1" xmlns="http://www.w3.org/2000/svg" xmlns:xlink="http://www.w3.org/1999/xlink" x="0px" y="0px" width="220px"
	 height="380px" viewBox="0 0 220 380" enable-background="new 0 0 220 380" xml:space="preserve">
<g id="Branche1_Etape0">
	<g>
		<path fill="#CC924C" stroke="#333333" stroke-width="9.9702" stroke-linecap="round" stroke-miterlimit="10" d="M95.497,365
			l1.996-35.275c0-4.165,3.376-7.542,7.542-7.542l0,0c4.163,0,7.54,3.377,7.54,7.542L114.568,365"/>
		<g>

				<path fill="#A1C453" stroke="#333333" stroke-width="3.9881" stroke-linecap="round" stroke-linejoin="round" stroke-miterlimit="10" d="
				M110.855,321.581c0,0-4.461-10.862-5.91-12.767c-1.152-1.534-3.741,10.757-3.869,15.337L110.855,321.581z"/>

				<path fill="#A1C453" stroke="#333333" stroke-width="3.9881" stroke-linecap="round" stroke-linejoin="round" stroke-miterlimit="10" d="
				M101.58,320.635l12.067,13.444c0,0,2.672-17.771-1.737-23.862C111.911,310.217,106.47,317.028,101.58,320.635z"/>

				<path fill="#A1C453" stroke="#333333" stroke-width="3.9881" stroke-linecap="round" stroke-linejoin="round" stroke-miterlimit="10" d="
				M99.243,342.066c0,0-8.846-20.485-2.136-31.85L108,323.653L99.243,342.066z"/>
		</g>
	</g>
</g>
<g id="Branche1_Etape1">
	<g>
		<g>

				<path fill="#A1C453" stroke="#333333" stroke-width="3.9881" stroke-linecap="round" stroke-linejoin="round" stroke-miterlimit="10" d="
				M133.52,265.75c-4.92-0.205-7.287-3.067-15.052,3.764c-7.767,6.831,0.417,9.109-4.694,13.604
				c5.111-4.495,6.752,3.82,14.232-2.758C135.486,273.781,132.686,270.595,133.52,265.75z"/>
			<g>
				<line fill="#A1C453" x1="113.773" y1="283.118" x2="129.076" y2="269.658"/>
				<g>
					<polyline fill="none" stroke="#333333" stroke-width="3.9881" stroke-linecap="round" stroke-miterlimit="10" points="
						115.27,281.801 117.21,280.095 121.191,276.594 122.876,275.111"/>

						<line fill="none" stroke="#333333" stroke-width="3.9881" stroke-linecap="round" stroke-miterlimit="10" x1="127.579" y1="270.975" x2="127.368" y2="271.16"/>
				</g>
			</g>
		</g>
		<path fill="#CC924C" stroke="#333333" stroke-width="9.9702" stroke-linecap="round" stroke-miterlimit="10" d="M95.497,365
			l1.995-109.672c0-4.166,3.376-7.542,7.542-7.542l0,0c4.163,0,7.54,3.376,7.54,7.542L114.568,365"/>
		<g>

				<path fill="#A1C453" stroke="#333333" stroke-width="3.9881" stroke-linecap="round" stroke-linejoin="round" stroke-miterlimit="10" d="
				M110.854,247.185c0,0-4.461-10.86-5.909-12.767c-1.153-1.535-3.741,10.759-3.869,15.339L110.854,247.185z"/>

				<path fill="#A1C453" stroke="#333333" stroke-width="3.9881" stroke-linecap="round" stroke-linejoin="round" stroke-miterlimit="10" d="
				M101.579,246.24l12.067,13.444c0,0,2.673-17.773-1.737-23.862C111.91,235.822,106.469,242.632,101.579,246.24z"/>

				<path fill="#A1C453" stroke="#333333" stroke-width="3.9881" stroke-linecap="round" stroke-linejoin="round" stroke-miterlimit="10" d="
				M99.242,267.672c0,0-8.845-20.487-2.136-31.85L108,249.258L99.242,267.672z"/>
		</g>
	</g>
</g>
<g id="Branche1_Etape2">
	<g>
		<g>

				<path fill="#A1C453" stroke="#333333" stroke-width="5.9821" stroke-linecap="round" stroke-linejoin="round" stroke-miterlimit="10" d="
				M155.625,247.093c-10.726-0.448-15.882-6.689-32.82,8.206c-16.934,14.893,0.911,19.86-10.231,29.661
				c11.142-9.801,14.722,8.331,31.032-6.013C159.917,264.601,153.811,257.657,155.625,247.093z"/>
			<g>
				<line fill="#A1C453" x1="112.575" y1="284.96" x2="145.939" y2="255.616"/>
				<g>
					<polyline fill="none" stroke="#333333" stroke-width="3.9881" stroke-linecap="round" stroke-miterlimit="10" points="
						114.072,283.643 116.012,281.937 138.054,262.552 139.74,261.069 					"/>

						<line fill="none" stroke="#333333" stroke-width="3.9881" stroke-linecap="round" stroke-miterlimit="10" x1="144.442" y1="256.933" x2="144.231" y2="257.118"/>
				</g>
			</g>
		</g>
		<g>

				<path fill="#A1C453" stroke="#333333" stroke-width="3.9881" stroke-linecap="round" stroke-linejoin="round" stroke-miterlimit="10" d="
				M80.167,221.328c-0.491,4.808-3.435,6.958,2.8,14.971c6.239,8.013,8.95,0.127,13.055,5.4c-4.105-5.273,4.144-6.391-1.865-14.106
				C88.151,219.874,84.865,222.428,80.167,221.328z"/>
			<g>
				<line fill="#A1C453" x1="96.022" y1="241.699" x2="85.005" y2="227.745"/>
				<g>
					<polyline fill="none" stroke="#333333" stroke-width="3.9881" stroke-linecap="round" stroke-miterlimit="10" points="
						94.787,240.134 93.186,238.106 91.513,235.987 90.122,234.225 					"/>

						<line fill="none" stroke="#333333" stroke-width="3.9881" stroke-linecap="round" stroke-miterlimit="10" x1="86.241" y1="229.31" x2="86.415" y2="229.53"/>
				</g>
			</g>
		</g>
		<path fill="#CC924C" stroke="#333333" stroke-width="9.9702" stroke-linecap="round" stroke-miterlimit="10" d="M95.497,365
			l1.994-143.942c0-4.166,3.376-7.542,7.544-7.542l0,0c4.163,0,7.54,3.376,7.54,7.542L114.568,365"/>
		<g>

				<path fill="#A1C453" stroke="#333333" stroke-width="3.9881" stroke-linecap="round" stroke-linejoin="round" stroke-miterlimit="10" d="
				M110.853,212.914c0,0-4.459-10.862-5.908-12.767c-1.152-1.535-3.739,10.757-3.867,15.337L110.853,212.914z"/>

				<path fill="#A1C453" stroke="#333333" stroke-width="3.9881" stroke-linecap="round" stroke-linejoin="round" stroke-miterlimit="10" d="
				M101.58,211.968l12.065,13.444c0,0,2.676-17.771-1.737-23.862C111.909,201.549,106.468,208.361,101.58,211.968z"/>

				<path fill="#A1C453" stroke="#333333" stroke-width="3.9881" stroke-linecap="round" stroke-linejoin="round" stroke-miterlimit="10" d="
				M99.243,233.399c0,0-8.844-20.485-2.138-31.85l10.897,13.437L99.243,233.399z"/>
		</g>
	</g>
</g>
<g id="Branche1_Etape3">
	<g>

			<polygon fill="#CC924C" stroke="#333333" stroke-width="3.9881" stroke-linecap="round" stroke-linejoin="round" stroke-miterlimit="10" points="
			81.406,219.646 97.493,250.563 97.493,239.31 		"/>
		<g>

				<path fill="#A1C453" stroke="#333333" stroke-width="5.9821" stroke-linecap="round" stroke-linejoin="round" stroke-miterlimit="10" d="
				M155.627,247.093c-10.726-0.448-15.884-6.689-32.82,8.206c-16.934,14.893,0.909,19.86-10.233,29.661
				c11.142-9.801,14.724,8.331,31.032-6.013C159.917,264.601,153.811,257.657,155.627,247.093z"/>
			<g>
				<line fill="#A1C453" x1="112.575" y1="284.96" x2="145.939" y2="255.616"/>
				<g>
					<polyline fill="none" stroke="#333333" stroke-width="3.9881" stroke-linecap="round" stroke-miterlimit="10" points="
						114.072,283.643 116.012,281.937 138.054,262.552 139.74,261.069 					"/>

						<line fill="none" stroke="#333333" stroke-width="3.9881" stroke-linecap="round" stroke-miterlimit="10" x1="144.442" y1="256.933" x2="144.231" y2="257.118"/>
				</g>
			</g>
		</g>
		<g>

				<path fill="#A1C453" stroke="#333333" stroke-width="5.9821" stroke-linecap="round" stroke-linejoin="round" stroke-miterlimit="10" d="
				M46.188,174.4c-1.089,10.679-7.628,15.456,6.223,33.252c13.853,17.796,19.882,0.28,28.996,11.993
				c-9.113-11.713,9.199-14.198-4.142-31.337C63.923,171.167,56.625,176.846,46.188,174.4z"/>
			<g>
				<line fill="#A1C453" x1="81.406" y1="219.646" x2="54.117" y2="184.582"/>
				<g>
					<polyline fill="none" stroke="#333333" stroke-width="3.9881" stroke-linecap="round" stroke-miterlimit="10" points="
						80.182,218.072 78.595,216.033 60.566,192.869 59.188,191.097 					"/>

						<line fill="none" stroke="#333333" stroke-width="3.9881" stroke-linecap="round" stroke-miterlimit="10" x1="55.341" y1="186.155" x2="55.514" y2="186.376"/>
				</g>
			</g>
		</g>
		<g>

				<path fill="#A1C453" stroke="#333333" stroke-width="3.9881" stroke-linecap="round" stroke-linejoin="round" stroke-miterlimit="10" d="
				M136.655,205.238c-4.708-0.884-6.587-3.971-15.02,1.524c-8.432,5.498-0.868,8.831-6.416,12.447
				c5.548-3.616,5.97,4.621,14.088-0.672C137.43,213.245,135.177,209.787,136.655,205.238z"/>
			<g>
				<line fill="#A1C453" x1="115.219" y1="219.209" x2="131.832" y2="208.383"/>
				<g>
					<polyline fill="none" stroke="#333333" stroke-width="3.9881" stroke-linecap="round" stroke-miterlimit="10" points="
						116.89,218.121 119.054,216.71 123.034,214.117 124.915,212.891 					"/>

						<line fill="none" stroke="#333333" stroke-width="3.9881" stroke-linecap="round" stroke-miterlimit="10" x1="130.161" y1="209.472" x2="129.926" y2="209.625"/>
				</g>
			</g>
		</g>
		<path fill="#CC924C" stroke="#333333" stroke-width="9.9702" stroke-linecap="round" stroke-miterlimit="10" d="M95.497,365
			l1.996-170.881c0-4.165,3.376-7.541,7.542-7.541l0,0c4.163,0,7.54,3.376,7.54,7.541L114.568,365"/>
		<g>

				<path fill="#A1C453" stroke="#333333" stroke-width="3.9881" stroke-linecap="round" stroke-linejoin="round" stroke-miterlimit="10" d="
				M110.855,185.975c0,0-4.461-10.861-5.91-12.767c-1.152-1.535-3.739,10.758-3.867,15.339L110.855,185.975z"/>

				<path fill="#A1C453" stroke="#333333" stroke-width="3.9881" stroke-linecap="round" stroke-linejoin="round" stroke-miterlimit="10" d="
				M101.58,185.03l12.067,13.443c0,0,2.674-17.771-1.737-23.861C111.911,174.611,106.47,181.422,101.58,185.03z"/>

				<path fill="#A1C453" stroke="#333333" stroke-width="3.9881" stroke-linecap="round" stroke-linejoin="round" stroke-miterlimit="10" d="
				M99.243,206.462c0,0-8.844-20.487-2.136-31.851l10.895,13.437L99.243,206.462z"/>
		</g>
	</g>
</g>
<g id="Branche1_Etape4">
	<g>

			<polygon fill="#CC924C" stroke="#333333" stroke-width="3.9881" stroke-linecap="round" stroke-linejoin="round" stroke-miterlimit="10" points="
			81.406,219.646 97.493,250.563 97.493,239.31 		"/>

			<polygon fill="#CC924C" stroke="#333333" stroke-width="3.9881" stroke-linecap="round" stroke-linejoin="round" stroke-miterlimit="10" points="
			153.251,180.378 112.575,227.939 112.575,216.688 		"/>
		<g>

				<path fill="#A1C453" stroke="#333333" stroke-width="5.9821" stroke-linecap="round" stroke-linejoin="round" stroke-miterlimit="10" d="
				M155.627,247.093c-10.726-0.448-15.884-6.689-32.82,8.206c-16.934,14.893,0.909,19.86-10.233,29.661
				c11.142-9.801,14.724,8.331,31.032-6.013C159.917,264.601,153.811,257.657,155.627,247.093z"/>
			<g>
				<line fill="#A1C453" x1="112.575" y1="284.96" x2="145.939" y2="255.616"/>
				<g>
					<polyline fill="none" stroke="#333333" stroke-width="3.9881" stroke-linecap="round" stroke-miterlimit="10" points="
						114.072,283.643 116.012,281.937 138.054,262.552 139.74,261.069 					"/>

						<line fill="none" stroke="#333333" stroke-width="3.9881" stroke-linecap="round" stroke-miterlimit="10" x1="144.442" y1="256.933" x2="144.231" y2="257.118"/>
				</g>
			</g>
		</g>
		<g>

				<path fill="#A1C453" stroke="#333333" stroke-width="5.9821" stroke-linecap="round" stroke-linejoin="round" stroke-miterlimit="10" d="
				M46.188,174.4c-1.089,10.679-7.628,15.456,6.223,33.252c13.853,17.796,19.882,0.28,28.996,11.993
				c-9.113-11.713,9.199-14.198-4.142-31.337C63.923,171.167,56.625,176.846,46.188,174.4z"/>
			<g>
				<line fill="#A1C453" x1="81.406" y1="219.646" x2="54.117" y2="184.582"/>
				<g>
					<polyline fill="none" stroke="#333333" stroke-width="3.9881" stroke-linecap="round" stroke-miterlimit="10" points="
						80.182,218.072 78.595,216.033 60.566,192.869 59.188,191.097 					"/>

						<line fill="none" stroke="#333333" stroke-width="3.9881" stroke-linecap="round" stroke-miterlimit="10" x1="55.341" y1="186.155" x2="55.514" y2="186.376"/>
				</g>
			</g>
		</g>
		<g>

				<path fill="#A1C453" stroke="#333333" stroke-width="3.9881" stroke-linecap="round" stroke-linejoin="round" stroke-miterlimit="10" d="
				M157.9,154.984c-3.977,2.72-7.509,1.862-9.596,11.767c-2.087,9.904,5.663,6.896,4.288,13.414
				c1.375-6.518,7.532-0.96,9.542-10.498C164.145,160.126,160.085,159.27,157.9,154.984z"/>
			<g>
				<line fill="#A1C453" x1="152.592" y1="180.164" x2="156.706" y2="160.651"/>
				<g>
					<polyline fill="none" stroke="#333333" stroke-width="3.9881" stroke-linecap="round" stroke-miterlimit="10" points="
						153.003,178.213 153.536,175.685 154.54,170.927 155.002,168.73 					"/>

						<line fill="none" stroke="#333333" stroke-width="3.9881" stroke-linecap="round" stroke-miterlimit="10" x1="156.294" y1="162.603" x2="156.237" y2="162.877"/>
				</g>
			</g>
		</g>
		<g>

				<path fill="#A1C453" stroke="#333333" stroke-width="5.9821" stroke-linecap="round" stroke-linejoin="round" stroke-miterlimit="10" d="
				M206.865,146.675c-11.908-2.234-16.661-10.039-37.982,3.858c-21.319,13.898-2.193,22.332-16.225,31.474
				c14.032-9.143,15.1,11.685,35.63-1.699C208.826,166.922,203.128,158.18,206.865,146.675z"/>
			<g>
				<line fill="#A1C453" x1="152.658" y1="182.007" x2="194.665" y2="154.628"/>
				<g>
					<polyline fill="none" stroke="#333333" stroke-width="3.9881" stroke-linecap="round" stroke-miterlimit="10" points="
						154.328,180.918 156.493,179.508 185.867,160.363 187.748,159.137 					"/>

						<line fill="none" stroke="#333333" stroke-width="3.9881" stroke-linecap="round" stroke-miterlimit="10" x1="192.995" y1="155.717" x2="192.76" y2="155.87"/>
				</g>
			</g>
		</g>
		<path fill="#CC924C" stroke="#333333" stroke-width="9.9702" stroke-linecap="round" stroke-miterlimit="10" d="M95.497,365
			l1.996-222.321c0-4.164,3.376-7.541,7.542-7.541l0,0c4.163,0,7.54,3.377,7.54,7.541L114.568,365"/>
		<g>

				<path fill="#A1C453" stroke="#333333" stroke-width="3.9881" stroke-linecap="round" stroke-linejoin="round" stroke-miterlimit="10" d="
				M110.855,134.535c0,0-4.461-10.861-5.91-12.767c-1.152-1.534-3.739,10.758-3.867,15.339L110.855,134.535z"/>

				<path fill="#A1C453" stroke="#333333" stroke-width="3.9881" stroke-linecap="round" stroke-linejoin="round" stroke-miterlimit="10" d="
				M101.58,133.59l12.067,13.444c0,0,2.674-17.772-1.737-23.862C111.911,123.172,106.47,129.982,101.58,133.59z"/>

				<path fill="#A1C453" stroke="#333333" stroke-width="3.9881" stroke-linecap="round" stroke-linejoin="round" stroke-miterlimit="10" d="
				M99.243,155.022c0,0-8.844-20.487-2.136-31.851l10.895,13.436L99.243,155.022z"/>
		</g>
		<g>

				<path fill="#FFFFFF" stroke="#333333" stroke-width="3.9881" stroke-linecap="round" stroke-linejoin="round" stroke-miterlimit="10" d="
				M73.931,219.492c1.546,0.892,1.577,4.45,1.307,7.112c-0.481,4.794-5.248,10.515-10.109,7.711
				c-4.884-2.82-2.336-9.822,1.558-12.65C68.856,220.102,72.375,218.592,73.931,219.492z"/>

				<path fill="#FFFFFF" stroke="#333333" stroke-width="3.9881" stroke-linecap="round" stroke-linejoin="round" stroke-miterlimit="10" d="
				M74.322,219.229c-0.002-1.786,3.063-3.589,5.503-4.687c4.395-1.982,11.733-0.713,11.733,4.899c0,5.639-7.338,6.936-11.731,4.973
				C77.385,223.32,74.32,221.026,74.322,219.229z"/>

				<path fill="#FFFFFF" stroke="#333333" stroke-width="3.9881" stroke-linecap="round" stroke-linejoin="round" stroke-miterlimit="10" d="
				M73.927,219.026c-1.546,0.894-4.643-0.858-6.812-2.424c-3.914-2.814-6.484-9.803-1.624-12.609
				c4.884-2.819,9.674,2.888,10.173,7.672C75.936,214.328,75.482,218.129,73.927,219.026z"/>

				<path fill="#FFFFFF" stroke="#333333" stroke-width="3.9881" stroke-linecap="round" stroke-linejoin="round" stroke-miterlimit="10" d="
				M73.441,219.373c0,1.786-3.065,3.589-5.505,4.687c-4.395,1.979-11.732,0.713-11.732-4.899c0-5.639,7.337-6.936,11.732-4.973
				C70.376,215.282,73.441,217.576,73.441,219.373z"/>

				<path fill="#FFFFFF" stroke="#333333" stroke-width="3.9881" stroke-linecap="round" stroke-linejoin="round" stroke-miterlimit="10" d="
				M73.862,219.564c1.544-0.894,4.64,0.859,6.81,2.424c3.914,2.814,6.484,9.803,1.624,12.609c-4.884,2.82-9.674-2.888-10.172-7.672
				C71.851,224.263,72.304,220.462,73.862,219.564z"/>

				<path fill="#FFFFFF" stroke="#333333" stroke-width="3.9881" stroke-linecap="round" stroke-linejoin="round" stroke-miterlimit="10" d="
				M73.774,219.071c-1.546-0.892-1.577-4.448-1.307-7.111c0.481-4.796,5.248-10.516,10.109-7.711
				c4.884,2.82,2.336,9.822-1.558,12.646C78.849,218.464,75.331,219.971,73.774,219.071z"/>

				<circle fill="#F9D53E" stroke="#333333" stroke-width="3.9881" stroke-linecap="round" stroke-linejoin="round" stroke-miterlimit="10" cx="73.442" cy="219.373" r="3.71"/>
		</g>
	</g>
</g>
<g id="Branche1_Etape5">
	<g>

			<polygon fill="#CC924C" stroke="#333333" stroke-width="3.9881" stroke-linecap="round" stroke-linejoin="round" stroke-miterlimit="10" points="
			81.406,219.646 97.493,250.563 97.493,239.31 		"/>

			<polygon fill="#CC924C" stroke="#333333" stroke-width="3.9881" stroke-linecap="round" stroke-linejoin="round" stroke-miterlimit="10" points="
			153.251,180.378 112.575,227.939 112.575,216.688 		"/>
		<g>

				<path fill="#A1C453" stroke="#333333" stroke-width="5.9821" stroke-linecap="round" stroke-linejoin="round" stroke-miterlimit="10" d="
				M155.627,247.093c-10.726-0.448-15.884-6.689-32.82,8.206c-16.934,14.893,0.909,19.86-10.233,29.661
				c11.142-9.801,14.724,8.331,31.032-6.013C159.917,264.601,153.811,257.657,155.627,247.093z"/>
			<g>
				<line fill="#A1C453" x1="112.575" y1="284.96" x2="145.939" y2="255.616"/>
				<g>
					<polyline fill="none" stroke="#333333" stroke-width="3.9881" stroke-linecap="round" stroke-miterlimit="10" points="
						114.072,283.643 116.012,281.937 138.054,262.552 139.74,261.069 					"/>

						<line fill="none" stroke="#333333" stroke-width="3.9881" stroke-linecap="round" stroke-miterlimit="10" x1="144.442" y1="256.933" x2="144.231" y2="257.118"/>
				</g>
			</g>
		</g>
		<g>

				<path fill="#A1C453" stroke="#333333" stroke-width="5.9821" stroke-linecap="round" stroke-linejoin="round" stroke-miterlimit="10" d="
				M46.188,174.4c-1.089,10.679-7.628,15.456,6.223,33.252c13.853,17.796,19.882,0.28,28.996,11.993
				c-9.113-11.713,9.199-14.198-4.142-31.337C63.923,171.167,56.625,176.846,46.188,174.4z"/>
			<g>
				<line fill="#A1C453" x1="81.406" y1="219.646" x2="54.117" y2="184.582"/>
				<g>
					<polyline fill="none" stroke="#333333" stroke-width="3.9881" stroke-linecap="round" stroke-miterlimit="10" points="
						80.182,218.072 78.595,216.033 60.566,192.869 59.188,191.097 					"/>

						<line fill="none" stroke="#333333" stroke-width="3.9881" stroke-linecap="round" stroke-miterlimit="10" x1="55.341" y1="186.155" x2="55.514" y2="186.376"/>
				</g>
			</g>
		</g>
		<g>

				<path fill="#A1C453" stroke="#333333" stroke-width="5.9821" stroke-linecap="round" stroke-linejoin="round" stroke-miterlimit="10" d="
				M165.753,116.942c-10,6.84-18.879,4.683-24.129,29.585c-5.248,24.903,14.24,17.342,10.784,33.729
				c3.456-16.387,18.938-2.414,23.991-26.396C181.457,129.873,171.247,127.721,165.753,116.942z"/>
			<g>
				<line fill="#A1C453" x1="152.409" y1="180.256" x2="162.752" y2="131.192"/>
				<g>
					<polyline fill="none" stroke="#333333" stroke-width="3.9881" stroke-linecap="round" stroke-miterlimit="10" points="
						152.82,178.305 153.353,175.777 160.586,141.468 161.049,139.271 					"/>

						<line fill="none" stroke="#333333" stroke-width="3.9881" stroke-linecap="round" stroke-miterlimit="10" x1="162.341" y1="133.144" x2="162.283" y2="133.418"/>
				</g>
			</g>
		</g>
		<g>

				<path fill="#A1C453" stroke="#333333" stroke-width="5.9821" stroke-linecap="round" stroke-linejoin="round" stroke-miterlimit="10" d="
				M206.865,146.675c-11.908-2.234-16.661-10.039-37.982,3.858c-21.319,13.898-2.193,22.332-16.225,31.474
				c14.032-9.143,15.1,11.685,35.63-1.699C208.826,166.922,203.128,158.18,206.865,146.675z"/>
			<g>
				<line fill="#A1C453" x1="152.658" y1="182.007" x2="194.665" y2="154.628"/>
				<g>
					<polyline fill="none" stroke="#333333" stroke-width="3.9881" stroke-linecap="round" stroke-miterlimit="10" points="
						154.328,180.918 156.493,179.508 185.867,160.363 187.748,159.137 					"/>

						<line fill="none" stroke="#333333" stroke-width="3.9881" stroke-linecap="round" stroke-miterlimit="10" x1="192.995" y1="155.717" x2="192.76" y2="155.87"/>
				</g>
			</g>
		</g>
		<g>

				<path fill="#A1C453" stroke="#333333" stroke-width="3.9881" stroke-linecap="round" stroke-linejoin="round" stroke-miterlimit="10" d="
				M83.071,110.788c-0.314,3.53-2.452,5.135,2.198,10.95c4.648,5.814,6.563,0.006,9.622,3.833
				c-3.059-3.828,2.976-4.727-1.503-10.327C88.909,109.644,86.525,111.55,83.071,110.788z"/>
			<g>
				<line fill="#A1C453" x1="94.891" y1="125.571" x2="85.731" y2="114.115"/>
				<g>

						<line fill="none" stroke="#333333" stroke-width="3.9881" stroke-linecap="round" stroke-miterlimit="10" x1="94.587" y1="125.191" x2="86.989" y2="115.688"/>

						<line fill="none" stroke="#333333" stroke-width="3.9881" stroke-linecap="round" stroke-miterlimit="10" x1="86.035" y1="114.495" x2="86.078" y2="114.548"/>
				</g>
			</g>
		</g>
		<g>
			<g>
				<path fill="#D3F46C" d="M82.3,237.201c-4.866,7.01-18.232,9.394-21.502,3.879c-7.04-1.151-8.745-14.492-3.879-21.502
					c4.866-7.008,13.113-11.551,20.826-1.998C88.874,221.233,87.168,230.194,82.3,237.201z"/>
				<g>
					<path fill="none" stroke="#333333" stroke-width="3.9881" stroke-linecap="round" stroke-miterlimit="10" d="M81.027,238.733
						c-0.595,0.623-1.251,1.186-1.95,1.689c-2.994,2.159-6.615,3.428-10.294,3.671c-1.833,0.098-3.728-0.064-5.42-0.824
						c-0.838-0.381-1.611-0.928-2.189-1.65c-0.147-0.172-0.249-0.4-0.409-0.547c-0.225-0.053-0.453-0.093-0.674-0.157
						c-0.44-0.139-0.869-0.315-1.267-0.548c-1.61-0.936-2.708-2.542-3.42-4.229c-0.722-1.702-1.073-3.541-1.208-5.377
						c-0.216-3.665,0.443-7.476,2.372-10.642c2.029-3.042,4.679-5.872,8.139-7.256c1.711-0.682,3.621-0.908,5.428-0.52
						c1.814,0.375,3.457,1.315,4.891,2.465c0.687,0.616,1.389,1.218,1.974,1.936l0.46,0.517c0.152,0.174,0.29,0.369,0.531,0.415
						l1.292,0.497c1.682,0.736,3.314,1.678,4.568,3.049c1.252,1.363,2.026,3.146,2.173,4.989c0.009,0.45,0.039,0.948,0.032,1.357
						l-0.069,0.735c-0.025,0.494-0.135,0.974-0.236,1.456"/>

						<line fill="none" stroke="#333333" stroke-width="3.9881" stroke-linecap="round" stroke-miterlimit="10" x1="83.372" y1="235.52" x2="83.511" y2="235.276"/>
				</g>
			</g>
			<path opacity="0.5" fill="#FFFFFF" d="M66.287,221.455c-1.832,0.674-3.764,0-4.317-1.509c-0.551-1.509,0.487-3.277,2.319-3.951
				c1.832-0.674,3.766,0.002,4.315,1.511C69.158,219.013,68.12,220.781,66.287,221.455z"/>
		</g>
		<path fill="#CC924C" stroke="#333333" stroke-width="9.9702" stroke-linecap="round" stroke-miterlimit="10" d="M95.497,365
			l1.996-260.993c0-4.164,3.376-7.541,7.542-7.541l0,0c4.163,0,7.54,3.377,7.54,7.541L114.568,365"/>
		<g>

				<path fill="#A1C453" stroke="#333333" stroke-width="3.9881" stroke-linecap="round" stroke-linejoin="round" stroke-miterlimit="10" d="
				M110.855,95.864c0,0-4.461-10.861-5.91-12.767c-1.152-1.534-3.739,10.758-3.867,15.339L110.855,95.864z"/>

				<path fill="#A1C453" stroke="#333333" stroke-width="3.9881" stroke-linecap="round" stroke-linejoin="round" stroke-miterlimit="10" d="
				M101.58,94.918l12.067,13.444c0,0,2.674-17.772-1.737-23.862C111.911,84.5,106.47,91.311,101.58,94.918z"/>

				<path fill="#A1C453" stroke="#333333" stroke-width="3.9881" stroke-linecap="round" stroke-linejoin="round" stroke-miterlimit="10" d="
				M99.243,116.351c0,0-8.844-20.487-2.136-31.851l10.895,13.436L99.243,116.351z"/>
		</g>
		<g>

				<path fill="#FFFFFF" stroke="#333333" stroke-width="3.9881" stroke-linecap="round" stroke-linejoin="round" stroke-miterlimit="10" d="
				M157.21,182.231c1.546,0.892,1.578,4.448,1.307,7.109c-0.481,4.797-5.248,10.519-10.108,7.71
				c-4.884-2.818-2.337-9.821,1.558-12.647C152.136,182.84,155.655,181.332,157.21,182.231z"/>

				<path fill="#FFFFFF" stroke="#333333" stroke-width="3.9881" stroke-linecap="round" stroke-linejoin="round" stroke-miterlimit="10" d="
				M157.602,181.967c-0.002-1.785,3.063-3.59,5.503-4.686c4.395-1.982,11.732-0.714,11.732,4.898c0,5.639-7.337,6.936-11.73,4.974
				C160.665,186.059,157.6,183.765,157.602,181.967z"/>

				<path fill="#FFFFFF" stroke="#333333" stroke-width="3.9881" stroke-linecap="round" stroke-linejoin="round" stroke-miterlimit="10" d="
				M157.207,181.765c-1.546,0.894-4.642-0.858-6.812-2.424c-3.914-2.814-6.484-9.803-1.624-12.609
				c4.884-2.82,9.674,2.888,10.173,7.672C159.216,177.066,158.763,180.867,157.207,181.765z"/>

				<path fill="#FFFFFF" stroke="#333333" stroke-width="3.9881" stroke-linecap="round" stroke-linejoin="round" stroke-miterlimit="10" d="
				M156.722,182.111c0,1.786-3.065,3.59-5.505,4.687c-4.395,1.98-11.732,0.713-11.732-4.899c0-5.638,7.337-6.936,11.732-4.974
				C153.657,178.021,156.722,180.313,156.722,182.111z"/>

				<path fill="#FFFFFF" stroke="#333333" stroke-width="3.9881" stroke-linecap="round" stroke-linejoin="round" stroke-miterlimit="10" d="
				M157.143,182.302c1.544-0.893,4.64,0.859,6.81,2.423c3.914,2.815,6.484,9.804,1.624,12.61c-4.884,2.82-9.674-2.886-10.173-7.672
				C155.131,187.001,155.584,183.2,157.143,182.302z"/>

				<path fill="#FFFFFF" stroke="#333333" stroke-width="3.9881" stroke-linecap="round" stroke-linejoin="round" stroke-miterlimit="10" d="
				M157.055,181.809c-1.546-0.891-1.577-4.447-1.307-7.109c0.481-4.797,5.248-10.518,10.108-7.711
				c4.884,2.82,2.337,9.822-1.558,12.646C162.129,181.201,158.611,182.708,157.055,181.809z"/>

				<circle fill="#F9D53E" stroke="#333333" stroke-width="3.9881" stroke-linecap="round" stroke-linejoin="round" stroke-miterlimit="10" cx="156.722" cy="182.111" r="3.709"/>
		</g>
	</g>
</g>
<g id="Branche1_Etape6">
	<g>

			<polygon fill="#CC924C" stroke="#333333" stroke-width="3.9881" stroke-linecap="round" stroke-linejoin="round" stroke-miterlimit="10" points="
			81.406,219.646 97.493,250.563 97.493,239.31 		"/>

			<polygon fill="#CC924C" stroke="#333333" stroke-width="3.9881" stroke-linecap="round" stroke-linejoin="round" stroke-miterlimit="10" points="
			79.161,110.655 97.493,132.915 97.493,121.662 		"/>

			<polygon fill="#CC924C" stroke="#333333" stroke-width="3.9881" stroke-linecap="round" stroke-linejoin="round" stroke-miterlimit="10" points="
			153.251,180.378 112.575,227.939 112.575,216.688 		"/>
		<g>

				<path fill="#A1C453" stroke="#333333" stroke-width="5.9821" stroke-linecap="round" stroke-linejoin="round" stroke-miterlimit="10" d="
				M155.627,247.093c-10.726-0.448-15.884-6.689-32.82,8.206c-16.934,14.893,0.909,19.86-10.233,29.661
				c11.142-9.801,14.724,8.331,31.032-6.013C159.917,264.601,153.811,257.657,155.627,247.093z"/>
			<g>
				<line fill="#A1C453" x1="112.575" y1="284.96" x2="145.939" y2="255.616"/>
				<g>
					<polyline fill="none" stroke="#333333" stroke-width="3.9881" stroke-linecap="round" stroke-miterlimit="10" points="
						114.072,283.643 116.012,281.937 138.054,262.552 139.74,261.069 					"/>

						<line fill="none" stroke="#333333" stroke-width="3.9881" stroke-linecap="round" stroke-miterlimit="10" x1="144.442" y1="256.933" x2="144.231" y2="257.118"/>
				</g>
			</g>
		</g>
		<g>

				<path fill="#A1C453" stroke="#333333" stroke-width="5.9821" stroke-linecap="round" stroke-linejoin="round" stroke-miterlimit="10" d="
				M46.188,174.4c-1.089,10.679-7.628,15.456,6.223,33.252c13.853,17.796,19.882,0.28,28.996,11.993
				c-9.113-11.713,9.199-14.198-4.142-31.337C63.923,171.167,56.625,176.846,46.188,174.4z"/>
			<g>
				<line fill="#A1C453" x1="81.406" y1="219.646" x2="54.117" y2="184.582"/>
				<g>
					<polyline fill="none" stroke="#333333" stroke-width="3.9881" stroke-linecap="round" stroke-miterlimit="10" points="
						80.182,218.072 78.595,216.033 60.566,192.869 59.188,191.097 					"/>

						<line fill="none" stroke="#333333" stroke-width="3.9881" stroke-linecap="round" stroke-miterlimit="10" x1="55.341" y1="186.155" x2="55.514" y2="186.376"/>
				</g>
			</g>
		</g>
		<g>

				<path fill="#A1C453" stroke="#333333" stroke-width="5.9821" stroke-linecap="round" stroke-linejoin="round" stroke-miterlimit="10" d="
				M165.753,116.942c-10,6.84-18.879,4.683-24.129,29.585c-5.248,24.903,14.24,17.342,10.784,33.729
				c3.456-16.387,18.938-2.414,23.991-26.396C181.457,129.873,171.247,127.721,165.753,116.942z"/>
			<g>
				<line fill="#A1C453" x1="152.409" y1="180.256" x2="162.752" y2="131.192"/>
				<g>
					<polyline fill="none" stroke="#333333" stroke-width="3.9881" stroke-linecap="round" stroke-miterlimit="10" points="
						152.82,178.305 153.353,175.777 160.586,141.468 161.049,139.271 					"/>

						<line fill="none" stroke="#333333" stroke-width="3.9881" stroke-linecap="round" stroke-miterlimit="10" x1="162.341" y1="133.144" x2="162.283" y2="133.418"/>
				</g>
			</g>
		</g>
		<g>

				<path fill="#A1C453" stroke="#333333" stroke-width="5.9821" stroke-linecap="round" stroke-linejoin="round" stroke-miterlimit="10" d="
				M206.865,146.675c-11.908-2.234-16.661-10.039-37.982,3.858c-21.319,13.898-2.193,22.332-16.225,31.474
				c14.032-9.143,15.1,11.685,35.63-1.699C208.826,166.922,203.128,158.18,206.865,146.675z"/>
			<g>
				<line fill="#A1C453" x1="152.658" y1="182.007" x2="194.665" y2="154.628"/>
				<g>
					<polyline fill="none" stroke="#333333" stroke-width="3.9881" stroke-linecap="round" stroke-miterlimit="10" points="
						154.328,180.918 156.493,179.508 185.867,160.363 187.748,159.137 					"/>

						<line fill="none" stroke="#333333" stroke-width="3.9881" stroke-linecap="round" stroke-miterlimit="10" x1="192.995" y1="155.717" x2="192.76" y2="155.87"/>
				</g>
			</g>
		</g>
		<g>

				<path fill="#A1C453" stroke="#333333" stroke-width="3.9881" stroke-linecap="round" stroke-linejoin="round" stroke-miterlimit="10" d="
				M128.026,77.783c-3.93,0.575-6.237-1.337-11.368,5.243c-5.129,6.581,1.698,7.16-1.679,11.489
				c3.376-4.329,5.924,2.016,10.868-4.323C130.79,83.854,128.091,81.75,128.026,77.783z"/>
			<g>
				<line fill="#A1C453" x1="114.979" y1="94.515" x2="125.09" y2="81.55"/>
				<g>
					<polyline fill="none" stroke="#333333" stroke-width="3.9881" stroke-linecap="round" stroke-miterlimit="10" points="
						116.206,92.943 117.794,90.905 118.632,89.832 120.013,88.061 					"/>

						<line fill="none" stroke="#333333" stroke-width="3.9881" stroke-linecap="round" stroke-miterlimit="10" x1="123.864" y1="83.123" x2="123.691" y2="83.344"/>
				</g>
			</g>
		</g>
		<g>

				<path fill="#A1C453" stroke="#333333" stroke-width="3.9881" stroke-linecap="round" stroke-linejoin="round" stroke-miterlimit="10" d="
				M61.826,123.661c3.97-0.078,6.021,2.108,11.935-3.777c5.914-5.886-0.787-7.316,3.106-11.188
				c-3.893,3.873-5.624-2.742-11.324,2.927C59.846,117.292,62.258,119.717,61.826,123.661z"/>
			<g>
				<line fill="#A1C453" x1="76.867" y1="108.695" x2="65.21" y2="120.292"/>
				<g>
					<polyline fill="none" stroke="#333333" stroke-width="3.9881" stroke-linecap="round" stroke-miterlimit="10" points="
						75.454,110.102 73.622,111.924 72.655,112.885 71.064,114.468 					"/>

						<line fill="none" stroke="#333333" stroke-width="3.9881" stroke-linecap="round" stroke-miterlimit="10" x1="66.624" y1="118.885" x2="66.823" y2="118.688"/>
				</g>
			</g>
		</g>
		<g>

				<path fill="#A1C453" stroke="#333333" stroke-width="5.9821" stroke-linecap="round" stroke-linejoin="round" stroke-miterlimit="10" d="
				M38.749,60.122c-1.071,12.067-8.379,17.555,7.517,37.43c15.894,19.876,22.437,0.021,32.896,13.103
				C68.702,97.573,89.33,94.497,74.022,75.358C58.71,56.212,50.561,62.729,38.749,60.122z"/>
			<g>
				<line fill="#A1C453" x1="79.161" y1="110.655" x2="47.844" y2="71.495"/>
				<g>
					<polyline fill="none" stroke="#333333" stroke-width="3.9881" stroke-linecap="round" stroke-miterlimit="10" points="
						77.915,109.098 76.302,107.08 54.403,79.697 53.001,77.943 					"/>

						<line fill="none" stroke="#333333" stroke-width="3.9881" stroke-linecap="round" stroke-miterlimit="10" x1="49.09" y1="73.052" x2="49.265" y2="73.271"/>
				</g>
			</g>
		</g>
		<g>
			<g>
				<path fill="#D3F46C" d="M82.991,251.439c-7.976,11.489-29.885,15.395-35.242,6.36c-11.538-1.887-14.332-23.753-6.356-35.242
					c7.974-11.485,21.488-18.93,34.132-3.273C93.764,225.271,90.967,239.954,82.991,251.439z"/>
				<g>
					<path fill="none" stroke="#333333" stroke-width="5.9821" stroke-linecap="round" stroke-miterlimit="10" d="M81.099,253.752
						c-0.873,0.954-1.865,1.789-2.877,2.59c-2.447,1.857-5.184,3.323-8.064,4.385c-2.877,1.069-5.9,1.768-8.965,1.984
						c-3.048,0.208-6.206-0.016-9.042-1.233c-1.406-0.61-2.708-1.498-3.689-2.684c-0.263-0.281-0.444-0.625-0.671-0.935
						c-0.313-0.173-0.732-0.191-1.093-0.295c-0.362-0.128-0.73-0.241-1.085-0.383c-0.343-0.172-0.703-0.312-1.031-0.511
						c-2.691-1.541-4.52-4.219-5.694-7.029c-1.189-2.837-1.771-5.897-1.965-8.957c-0.188-3.065,0.052-6.157,0.709-9.156
						c0.674-2.99,1.759-5.917,3.45-8.488c1.702-2.553,3.692-4.926,5.981-6.975c2.285-2.041,4.893-3.775,7.8-4.787
						c2.893-1.024,6.094-1.21,9.062-0.398c2.987,0.778,5.641,2.489,7.935,4.513c1.126,1.042,2.217,2.129,3.186,3.322
						c0.394,0.733,1.258,0.788,1.95,1.09c0.712,0.287,1.431,0.561,2.12,0.898c2.773,1.293,5.376,3.09,7.242,5.545
						c1.88,2.444,2.813,5.537,2.803,8.603c0.002,0.384,0.002,0.768-0.032,1.151c-0.019,0.362-0.054,0.813-0.098,1.099
						c-0.046,0.367-0.085,0.734-0.159,1.096c-0.12,0.729-0.288,1.449-0.478,2.163"/>

						<line fill="none" stroke="#333333" stroke-width="5.9821" stroke-linecap="round" stroke-miterlimit="10" x1="84.614" y1="248.928" x2="84.829" y2="248.566"/>
				</g>
			</g>
			<path opacity="0.5" fill="#FFFFFF" d="M56.746,225.634c-3.003,1.106-6.169-0.002-7.075-2.473
				c-0.905-2.473,0.798-5.373,3.801-6.477c3.002-1.106,6.171,0.004,7.075,2.475C61.45,221.63,59.748,224.53,56.746,225.634z"/>
		</g>
		<path fill="#CC924C" stroke="#333333" stroke-width="9.9702" stroke-linecap="round" stroke-miterlimit="10" d="M95.497,365
			l1.996-288.178c0-4.165,3.376-7.541,7.542-7.541l0,0c4.163,0,7.54,3.376,7.54,7.541L114.568,365"/>
		<g>

				<path fill="#A1C453" stroke="#333333" stroke-width="3.9881" stroke-linecap="round" stroke-linejoin="round" stroke-miterlimit="10" d="
				M110.855,68.679c0,0-4.461-10.861-5.91-12.767c-1.152-1.535-3.739,10.758-3.867,15.339L110.855,68.679z"/>

				<path fill="#A1C453" stroke="#333333" stroke-width="3.9881" stroke-linecap="round" stroke-linejoin="round" stroke-miterlimit="10" d="
				M101.58,67.733l12.067,13.444c0,0,2.674-17.772-1.737-23.862C111.911,57.315,106.47,64.125,101.58,67.733z"/>

				<path fill="#A1C453" stroke="#333333" stroke-width="3.9881" stroke-linecap="round" stroke-linejoin="round" stroke-miterlimit="10" d="
				M99.243,89.166c0,0-8.844-20.487-2.136-31.851l10.895,13.437L99.243,89.166z"/>
		</g>
		<g>
			<g>
				<path fill="#D3F46C" d="M169.835,187.528c1.854,8.328-5.455,19.77-11.725,18.438c-5.618,4.393-16.583-3.396-18.437-11.723
					c-1.856-8.33,0.395-17.471,12.647-16.666C162.55,171.87,167.981,179.198,169.835,187.528z"/>
				<g>
					<path fill="none" stroke="#333333" stroke-width="3.9881" stroke-linecap="round" stroke-miterlimit="10" d="M170.099,189.502
						c0.054,0.859,0.023,1.724-0.081,2.579c-0.443,3.665-1.965,7.187-4.281,10.056c-1.17,1.414-2.575,2.697-4.279,3.427
						c-0.848,0.358-1.774,0.556-2.697,0.492c-0.227-0.008-0.462-0.089-0.679-0.069c-0.191,0.128-0.375,0.27-0.573,0.388
						c-0.4,0.229-0.82,0.425-1.262,0.559c-1.78,0.548-3.705,0.267-5.427-0.353c-1.74-0.624-3.33-1.611-4.771-2.757
						c-2.841-2.326-5.197-5.393-6.216-8.958c-0.86-3.553-1.146-7.42,0.182-10.902c0.659-1.72,1.787-3.277,3.298-4.343
						c1.506-1.079,3.31-1.649,5.128-1.923c0.918-0.087,1.836-0.196,2.761-0.139l0.692,0.012c0.231,0.006,0.467,0.036,0.665-0.11
						l1.241-0.613c1.682-0.737,3.48-1.299,5.338-1.292c1.851,0.003,3.687,0.643,5.14,1.785c0.337,0.298,0.724,0.614,1.02,0.896
						l0.494,0.549c0.346,0.353,0.625,0.759,0.91,1.161"/>

						<line fill="none" stroke="#333333" stroke-width="3.9881" stroke-linecap="round" stroke-miterlimit="10" x1="169.325" y1="185.601" x2="169.241" y2="185.333"/>
				</g>
			</g>
			<path opacity="0.5" fill="#FFFFFF" d="M147.402,188.627c-0.746,1.804-2.551,2.766-4.035,2.15c-1.484-0.617-2.08-2.58-1.334-4.383
				c0.746-1.805,2.555-2.767,4.037-2.149C147.552,184.862,148.15,186.823,147.402,188.627z"/>
		</g>
	</g>
</g>
<g id="Branche1_Etape7">
	<g>

			<polygon fill="#CC924C" stroke="#333333" stroke-width="3.9881" stroke-linecap="round" stroke-linejoin="round" stroke-miterlimit="10" points="
			81.406,219.646 97.493,250.563 97.493,239.31 		"/>

			<polygon fill="#CC924C" stroke="#333333" stroke-width="3.9881" stroke-linecap="round" stroke-linejoin="round" stroke-miterlimit="10" points="
			79.161,110.655 97.493,132.915 97.493,121.662 		"/>

			<polygon fill="#CC924C" stroke="#333333" stroke-width="3.9881" stroke-linecap="round" stroke-linejoin="round" stroke-miterlimit="10" points="
			153.251,180.378 112.575,227.939 112.575,216.688 		"/>

			<polygon fill="#CC924C" stroke="#333333" stroke-width="3.9881" stroke-linecap="round" stroke-linejoin="round" stroke-miterlimit="10" points="
			132.106,75.484 112.575,100.654 112.575,93.391 		"/>
		<g>

				<path fill="#A1C453" stroke="#333333" stroke-width="5.9821" stroke-linecap="round" stroke-linejoin="round" stroke-miterlimit="10" d="
				M155.627,247.093c-10.726-0.448-15.884-6.689-32.82,8.206c-16.934,14.893,0.909,19.86-10.233,29.661
				c11.142-9.801,14.724,8.331,31.032-6.013C159.917,264.601,153.811,257.657,155.627,247.093z"/>
			<g>
				<line fill="#A1C453" x1="112.575" y1="284.96" x2="145.939" y2="255.616"/>
				<g>
					<polyline fill="none" stroke="#333333" stroke-width="3.9881" stroke-linecap="round" stroke-miterlimit="10" points="
						114.072,283.643 116.012,281.937 138.054,262.552 139.74,261.069 					"/>

						<line fill="none" stroke="#333333" stroke-width="3.9881" stroke-linecap="round" stroke-miterlimit="10" x1="144.442" y1="256.933" x2="144.231" y2="257.118"/>
				</g>
			</g>
		</g>
		<g>

				<path fill="#A1C453" stroke="#333333" stroke-width="5.9821" stroke-linecap="round" stroke-linejoin="round" stroke-miterlimit="10" d="
				M46.188,174.4c-1.089,10.679-7.628,15.456,6.223,33.252c13.853,17.796,19.882,0.28,28.996,11.993
				c-9.113-11.713,9.199-14.198-4.142-31.337C63.923,171.167,56.625,176.846,46.188,174.4z"/>
			<g>
				<line fill="#A1C453" x1="81.406" y1="219.646" x2="54.117" y2="184.582"/>
				<g>
					<polyline fill="none" stroke="#333333" stroke-width="3.9881" stroke-linecap="round" stroke-miterlimit="10" points="
						80.182,218.072 78.595,216.033 60.566,192.869 59.188,191.097 					"/>

						<line fill="none" stroke="#333333" stroke-width="3.9881" stroke-linecap="round" stroke-miterlimit="10" x1="55.341" y1="186.155" x2="55.514" y2="186.376"/>
				</g>
			</g>
		</g>
		<g>

				<path fill="#A1C453" stroke="#333333" stroke-width="5.9821" stroke-linecap="round" stroke-linejoin="round" stroke-miterlimit="10" d="
				M165.753,116.942c-10,6.84-18.879,4.683-24.129,29.585c-5.248,24.903,14.24,17.342,10.784,33.729
				c3.456-16.387,18.938-2.414,23.991-26.396C181.457,129.873,171.247,127.721,165.753,116.942z"/>
			<g>
				<line fill="#A1C453" x1="152.409" y1="180.256" x2="162.752" y2="131.192"/>
				<g>
					<polyline fill="none" stroke="#333333" stroke-width="3.9881" stroke-linecap="round" stroke-miterlimit="10" points="
						152.82,178.305 153.353,175.777 160.586,141.468 161.049,139.271 					"/>

						<line fill="none" stroke="#333333" stroke-width="3.9881" stroke-linecap="round" stroke-miterlimit="10" x1="162.341" y1="133.144" x2="162.283" y2="133.418"/>
				</g>
			</g>
		</g>
		<g>

				<path fill="#A1C453" stroke="#333333" stroke-width="5.9821" stroke-linecap="round" stroke-linejoin="round" stroke-miterlimit="10" d="
				M206.865,146.675c-11.908-2.234-16.661-10.039-37.982,3.858c-21.319,13.898-2.193,22.332-16.225,31.474
				c14.032-9.143,15.1,11.685,35.63-1.699C208.826,166.922,203.128,158.18,206.865,146.675z"/>
			<g>
				<line fill="#A1C453" x1="152.658" y1="182.007" x2="194.665" y2="154.628"/>
				<g>
					<polyline fill="none" stroke="#333333" stroke-width="3.9881" stroke-linecap="round" stroke-miterlimit="10" points="
						154.328,180.918 156.493,179.508 185.867,160.363 187.748,159.137 					"/>

						<line fill="none" stroke="#333333" stroke-width="3.9881" stroke-linecap="round" stroke-miterlimit="10" x1="192.995" y1="155.717" x2="192.76" y2="155.87"/>
				</g>
			</g>
		</g>
		<g>

				<path fill="#A1C453" stroke="#333333" stroke-width="5.9821" stroke-linecap="round" stroke-linejoin="round" stroke-miterlimit="10" d="
				M161.193,37.884c-9.507,1.394-15.088-3.237-27.5,12.681c-12.412,15.92,4.109,17.319-4.062,27.794
				c8.171-10.475,14.336,4.875,26.292-10.456C167.88,52.568,161.353,47.478,161.193,37.884z"/>
			<g>
				<line fill="#A1C453" x1="129.631" y1="78.358" x2="154.089" y2="46.994"/>
				<g>
					<polyline fill="none" stroke="#333333" stroke-width="3.9881" stroke-linecap="round" stroke-miterlimit="10" points="
						130.857,76.786 132.446,74.749 147.631,55.275 149.012,53.505 					"/>

						<line fill="none" stroke="#333333" stroke-width="3.9881" stroke-linecap="round" stroke-miterlimit="10" x1="152.863" y1="48.566" x2="152.69" y2="48.788"/>
				</g>
			</g>
		</g>
		<g>

				<path fill="#A1C453" stroke="#333333" stroke-width="3.1905" stroke-linecap="round" stroke-linejoin="round" stroke-miterlimit="10" d="
				M155.435,74.25c-3.548-2.642-3.857-5.964-13.08-4.823c-9.222,1.141-4.299,6.975-10.369,7.725c6.07-0.75,3.081,6.252,11.962,5.154
				C152.831,81.207,152.364,77.425,155.435,74.25z"/>
			<g>
				<line fill="#A1C453" x1="131.985" y1="77.151" x2="150.155" y2="74.903"/>
				<g>
					<polyline fill="none" stroke="#333333" stroke-width="3.9881" stroke-linecap="round" stroke-miterlimit="10" points="
						133.964,76.906 136.528,76.589 139.733,76.192 141.961,75.917 					"/>

						<line fill="none" stroke="#333333" stroke-width="3.9881" stroke-linecap="round" stroke-miterlimit="10" x1="148.176" y1="75.148" x2="147.898" y2="75.182"/>
				</g>
			</g>
		</g>
		<g>

				<path fill="#A1C453" stroke="#333333" stroke-width="3.9881" stroke-linecap="round" stroke-linejoin="round" stroke-miterlimit="10" d="
				M51.864,108.281c3.143,3.754,2.621,7.41,12.842,8.547c10.221,1.138,6.418-6.405,13.144-5.656
				c-6.726-0.75-1.711-7.522-11.555-8.618C56.45,101.459,55.984,105.65,51.864,108.281z"/>
			<g>
				<line fill="#A1C453" x1="77.85" y1="111.172" x2="57.711" y2="108.931"/>
				<g>
					<polyline fill="none" stroke="#333333" stroke-width="3.1905" stroke-linecap="round" stroke-miterlimit="10" points="
						76.265,110.996 74.21,110.767 66.061,109.86 64.276,109.662 					"/>

						<line fill="none" stroke="#333333" stroke-width="3.1905" stroke-linecap="round" stroke-miterlimit="10" x1="59.297" y1="109.107" x2="59.52" y2="109.132"/>
				</g>
			</g>
		</g>
		<g>

				<path fill="#A1C453" stroke="#333333" stroke-width="5.9821" stroke-linecap="round" stroke-linejoin="round" stroke-miterlimit="10" d="
				M38.749,60.122c-1.071,12.067-8.379,17.555,7.517,37.43c15.894,19.876,22.437,0.021,32.896,13.103
				C68.702,97.573,89.33,94.497,74.022,75.358C58.71,56.212,50.561,62.729,38.749,60.122z"/>
			<g>
				<line fill="#A1C453" x1="79.161" y1="110.655" x2="47.844" y2="71.495"/>
				<g>
					<polyline fill="none" stroke="#333333" stroke-width="3.9881" stroke-linecap="round" stroke-miterlimit="10" points="
						77.915,109.098 76.302,107.08 54.403,79.697 53.001,77.943 					"/>

						<line fill="none" stroke="#333333" stroke-width="3.9881" stroke-linecap="round" stroke-miterlimit="10" x1="49.09" y1="73.052" x2="49.265" y2="73.271"/>
				</g>
			</g>
		</g>
		<g>

				<path fill="#A1C453" stroke="#333333" stroke-width="5.9821" stroke-linecap="round" stroke-linejoin="round" stroke-miterlimit="10" d="
				M36.84,140.554c9.37,1.683,13.152,7.784,29.815-3.262c16.667-11.048,1.587-17.557,12.556-24.824
				c-10.969,7.268-11.931-9.089-27.98,1.551C35.177,124.66,39.707,131.493,36.84,140.554z"/>
			<g>
				<line fill="#A1C453" x1="79.211" y1="112.468" x2="46.378" y2="134.232"/>
				<g>
					<polyline fill="none" stroke="#333333" stroke-width="3.9881" stroke-linecap="round" stroke-miterlimit="10" points="
						77.549,113.57 75.396,114.998 55.131,128.43 53.26,129.67 					"/>

						<line fill="none" stroke="#333333" stroke-width="3.9881" stroke-linecap="round" stroke-miterlimit="10" x1="48.04" y1="133.131" x2="48.274" y2="132.976"/>
				</g>
			</g>
		</g>
		<g>
			<g>
				<path fill="#EF4529" d="M82.991,251.439c-7.976,11.489-29.885,15.395-35.242,6.36c-11.538-1.887-14.332-23.753-6.356-35.242
					c7.974-11.485,21.488-18.93,34.132-3.273C93.764,225.271,90.967,239.954,82.991,251.439z"/>
				<g>
					<path fill="none" stroke="#333333" stroke-width="5.9821" stroke-linecap="round" stroke-miterlimit="10" d="M81.099,253.752
						c-0.873,0.954-1.865,1.789-2.877,2.59c-2.447,1.857-5.184,3.323-8.064,4.385c-2.877,1.069-5.9,1.768-8.965,1.984
						c-3.048,0.208-6.206-0.016-9.042-1.233c-1.406-0.61-2.708-1.498-3.689-2.684c-0.263-0.281-0.444-0.625-0.671-0.935
						c-0.313-0.173-0.732-0.191-1.093-0.295c-0.362-0.128-0.73-0.241-1.085-0.383c-0.343-0.172-0.703-0.312-1.031-0.511
						c-2.691-1.541-4.52-4.219-5.694-7.029c-1.189-2.837-1.771-5.897-1.965-8.957c-0.188-3.065,0.052-6.157,0.709-9.156
						c0.674-2.99,1.759-5.917,3.45-8.488c1.702-2.553,3.692-4.926,5.981-6.975c2.285-2.041,4.893-3.775,7.8-4.787
						c2.893-1.024,6.094-1.21,9.062-0.398c2.987,0.778,5.641,2.489,7.935,4.513c1.126,1.042,2.217,2.129,3.186,3.322
						c0.394,0.733,1.258,0.788,1.95,1.09c0.712,0.287,1.431,0.561,2.12,0.898c2.773,1.293,5.376,3.09,7.242,5.545
						c1.88,2.444,2.813,5.537,2.803,8.603c0.002,0.384,0.002,0.768-0.032,1.151c-0.019,0.362-0.054,0.813-0.098,1.099
						c-0.046,0.367-0.085,0.734-0.159,1.096c-0.12,0.729-0.288,1.449-0.478,2.163"/>

						<line fill="none" stroke="#333333" stroke-width="5.9821" stroke-linecap="round" stroke-miterlimit="10" x1="84.614" y1="248.928" x2="84.829" y2="248.566"/>
				</g>
			</g>
			<path opacity="0.5" fill="#FFFFFF" d="M56.746,225.634c-3.003,1.106-6.169-0.002-7.075-2.473
				c-0.905-2.473,0.798-5.373,3.801-6.477c3.002-1.106,6.171,0.004,7.075,2.475C61.45,221.63,59.748,224.53,56.746,225.634z"/>
		</g>
		<g>
			<g>
				<path fill="#D3F46C" d="M184.017,194.89c3.599,13.516-7.594,32.75-17.95,30.987c-8.903,7.577-27.387-4.438-30.985-17.952
					c-3.599-13.51-0.534-28.632,19.586-28.144C171.033,169.746,180.418,181.378,184.017,194.89z"/>
				<g>
					<path fill="none" stroke="#333333" stroke-width="5.9821" stroke-linecap="round" stroke-miterlimit="10" d="M184.556,197.829
						c0.163,1.283,0.157,2.58,0.114,3.869c-0.167,3.067-0.82,6.103-1.874,8.986c-1.046,2.886-2.468,5.643-4.285,8.12
						c-1.813,2.458-4.027,4.722-6.791,6.098c-1.375,0.677-2.895,1.096-4.433,1.076c-0.384,0.019-0.764-0.065-1.146-0.093
						c-0.335,0.126-0.62,0.435-0.932,0.643c-0.332,0.193-0.656,0.4-0.995,0.58c-0.353,0.15-0.693,0.334-1.057,0.456
						c-2.916,1.056-6.141,0.717-9.043-0.205c-2.933-0.928-5.643-2.464-8.102-4.295c-2.458-1.84-4.661-4.022-6.523-6.464
						c-1.844-2.448-3.375-5.17-4.24-8.122c-0.846-2.95-1.367-6.002-1.449-9.073c-0.078-3.063,0.287-6.174,1.396-9.045
						c1.09-2.869,3.019-5.43,5.559-7.167c2.525-1.774,5.547-2.691,8.574-3.131c1.523-0.185,3.058-0.313,4.594-0.28
						c0.815,0.174,1.415-0.449,2.093-0.782c0.679-0.357,1.353-0.728,2.057-1.036c2.78-1.278,5.834-2.101,8.913-1.936
						c3.08,0.147,6.042,1.437,8.374,3.428c0.294,0.247,0.587,0.496,0.856,0.769c0.264,0.249,0.586,0.567,0.775,0.786
						c0.25,0.272,0.505,0.54,0.733,0.83c0.478,0.563,0.918,1.157,1.34,1.763"/>

						<line fill="none" stroke="#333333" stroke-width="5.9821" stroke-linecap="round" stroke-miterlimit="10" x1="183.152" y1="192.027" x2="183.015" y2="191.629"/>
				</g>
			</g>
			<path opacity="0.5" fill="#FFFFFF" d="M147.361,198.208c-1.103,3.006-3.996,4.705-6.465,3.793
				c-2.469-0.908-3.579-4.082-2.479-7.086c1.101-3.005,3.994-4.703,6.463-3.793C147.352,192.031,148.459,195.205,147.361,198.208z"
				/>
		</g>
		<path fill="#CC924C" stroke="#333333" stroke-width="9.9702" stroke-linecap="round" stroke-miterlimit="10" d="M95.497,365
			l1.996-328.958c0-4.164,3.376-7.541,7.542-7.541l0,0c4.163,0,7.54,3.376,7.54,7.541L114.568,365"/>
		<g>

				<path fill="#A1C453" stroke="#333333" stroke-width="3.9881" stroke-linecap="round" stroke-linejoin="round" stroke-miterlimit="10" d="
				M110.855,27.898c0,0-4.461-10.861-5.91-12.766c-1.152-1.535-3.739,10.758-3.867,15.339L110.855,27.898z"/>

				<path fill="#A1C453" stroke="#333333" stroke-width="3.9881" stroke-linecap="round" stroke-linejoin="round" stroke-miterlimit="10" d="
				M101.58,26.953l12.067,13.444c0,0,2.674-17.772-1.737-23.862C111.911,16.535,106.47,23.345,101.58,26.953z"/>

				<path fill="#A1C453" stroke="#333333" stroke-width="3.9881" stroke-linecap="round" stroke-linejoin="round" stroke-miterlimit="10" d="
				M99.243,48.386c0,0-8.844-20.488-2.136-31.851l10.895,13.437L99.243,48.386z"/>
		</g>
	</g>
</g>
<g id="Branche1_Etape8">
	<g>

			<polygon fill="#CC924C" stroke="#333333" stroke-width="3.9881" stroke-linecap="round" stroke-linejoin="round" stroke-miterlimit="10" points="
			81.406,219.646 97.493,250.563 97.493,239.31 		"/>

			<polygon fill="#CC924C" stroke="#333333" stroke-width="3.9881" stroke-linecap="round" stroke-linejoin="round" stroke-miterlimit="10" points="
			79.161,110.655 97.493,132.915 97.493,121.662 		"/>

			<polygon fill="#CC924C" stroke="#333333" stroke-width="3.9881" stroke-linecap="round" stroke-linejoin="round" stroke-miterlimit="10" points="
			153.252,180.378 112.574,227.939 112.574,216.688 		"/>

			<polygon fill="#CC924C" stroke="#333333" stroke-width="3.9881" stroke-linecap="round" stroke-linejoin="round" stroke-miterlimit="10" points="
			132.105,75.484 112.574,100.654 112.574,93.391 		"/>
		<g>

				<path fill="#A1C453" stroke="#333333" stroke-width="5.9821" stroke-linecap="round" stroke-linejoin="round" stroke-miterlimit="10" d="
				M155.628,247.093c-10.726-0.448-15.886-6.689-32.82,8.206c-16.935,14.893,0.907,19.86-10.235,29.661
				c11.142-9.801,14.726,8.331,31.032-6.013C159.917,264.601,153.81,257.657,155.628,247.093z"/>
			<g>
				<line fill="#A1C453" x1="112.574" y1="284.96" x2="145.938" y2="255.616"/>
				<g>
					<polyline fill="none" stroke="#333333" stroke-width="3.9881" stroke-linecap="round" stroke-miterlimit="10" points="
						114.071,283.643 116.011,281.937 138.053,262.552 139.739,261.069 					"/>

						<line fill="none" stroke="#333333" stroke-width="3.9881" stroke-linecap="round" stroke-miterlimit="10" x1="144.441" y1="256.933" x2="144.23" y2="257.118"/>
				</g>
			</g>
		</g>
		<g>

				<path fill="#A1C453" stroke="#333333" stroke-width="5.9821" stroke-linecap="round" stroke-linejoin="round" stroke-miterlimit="10" d="
				M46.188,174.4c-1.089,10.679-7.628,15.456,6.223,33.252c13.853,17.796,19.882,0.28,28.996,11.993
				c-9.113-11.713,9.199-14.198-4.142-31.337C63.923,171.167,56.625,176.846,46.188,174.4z"/>
			<g>
				<line fill="#A1C453" x1="81.406" y1="219.646" x2="54.117" y2="184.582"/>
				<g>
					<polyline fill="none" stroke="#333333" stroke-width="3.9881" stroke-linecap="round" stroke-miterlimit="10" points="
						80.182,218.072 78.595,216.033 60.566,192.869 59.188,191.097 					"/>

						<line fill="none" stroke="#333333" stroke-width="3.9881" stroke-linecap="round" stroke-miterlimit="10" x1="55.341" y1="186.155" x2="55.514" y2="186.376"/>
				</g>
			</g>
		</g>
		<g>

				<path fill="#A1C453" stroke="#333333" stroke-width="5.9821" stroke-linecap="round" stroke-linejoin="round" stroke-miterlimit="10" d="
				M165.754,116.942c-10.001,6.84-18.881,4.683-24.131,29.585c-5.246,24.903,14.242,17.342,10.784,33.729
				c3.458-16.387,18.939-2.414,23.991-26.396C181.458,129.873,171.246,127.721,165.754,116.942z"/>
			<g>
				<line fill="#A1C453" x1="152.408" y1="180.256" x2="162.751" y2="131.192"/>
				<g>
					<polyline fill="none" stroke="#333333" stroke-width="3.9881" stroke-linecap="round" stroke-miterlimit="10" points="
						152.819,178.305 153.352,175.777 160.585,141.468 161.048,139.271 					"/>

						<line fill="none" stroke="#333333" stroke-width="3.9881" stroke-linecap="round" stroke-miterlimit="10" x1="162.34" y1="133.144" x2="162.282" y2="133.418"/>
				</g>
			</g>
		</g>
		<g>

				<path fill="#A1C453" stroke="#333333" stroke-width="5.9821" stroke-linecap="round" stroke-linejoin="round" stroke-miterlimit="10" d="
				M206.866,146.675c-11.91-2.234-16.661-10.039-37.984,3.858c-21.319,13.898-2.193,22.332-16.225,31.474
				c14.032-9.143,15.1,11.685,35.632-1.699C208.825,166.922,203.127,158.18,206.866,146.675z"/>
			<g>
				<line fill="#A1C453" x1="152.657" y1="182.007" x2="194.664" y2="154.628"/>
				<g>
					<polyline fill="none" stroke="#333333" stroke-width="3.9881" stroke-linecap="round" stroke-miterlimit="10" points="
						154.327,180.918 156.492,179.508 185.866,160.363 187.747,159.137 					"/>

						<line fill="none" stroke="#333333" stroke-width="3.9881" stroke-linecap="round" stroke-miterlimit="10" x1="192.994" y1="155.717" x2="192.759" y2="155.87"/>
				</g>
			</g>
		</g>
		<g>

				<path fill="#A1C453" stroke="#333333" stroke-width="5.9821" stroke-linecap="round" stroke-linejoin="round" stroke-miterlimit="10" d="
				M161.653,37.754c-9.507,1.393-15.088-3.237-27.5,12.681c-12.412,15.92,4.108,17.319-4.063,27.794
				c8.171-10.475,14.336,4.875,26.292-10.456C168.34,52.439,161.813,47.349,161.653,37.754z"/>
			<g>
				<line fill="#A1C453" x1="130.091" y1="78.229" x2="154.55" y2="46.865"/>
				<g>
					<polyline fill="none" stroke="#333333" stroke-width="3.9881" stroke-linecap="round" stroke-miterlimit="10" points="
						131.317,76.657 132.906,74.619 148.092,55.146 149.473,53.375 					"/>

						<line fill="none" stroke="#333333" stroke-width="3.9881" stroke-linecap="round" stroke-miterlimit="10" x1="153.324" y1="48.437" x2="153.151" y2="48.658"/>
				</g>
			</g>
		</g>
		<g>

				<path fill="#A1C453" stroke="#333333" stroke-width="5.9821" stroke-linecap="round" stroke-linejoin="round" stroke-miterlimit="10" d="
				M182.322,71.906c-7.707-5.739-8.377-12.956-28.411-10.478c-20.038,2.48-9.343,15.152-22.526,16.78
				c13.184-1.628,6.691,13.585,25.985,11.198C176.667,87.019,175.65,78.804,182.322,71.906z"/>
			<g>
				<line fill="#A1C453" x1="131.384" y1="78.208" x2="170.856" y2="73.327"/>
				<g>
					<polyline fill="none" stroke="#333333" stroke-width="3.9881" stroke-linecap="round" stroke-miterlimit="10" points="
						133.363,77.964 135.927,77.646 160.434,74.616 162.662,74.34 					"/>

						<line fill="none" stroke="#333333" stroke-width="3.9881" stroke-linecap="round" stroke-miterlimit="10" x1="168.877" y1="73.571" x2="168.599" y2="73.606"/>
				</g>
			</g>
		</g>
		<g>

				<path fill="#A1C453" stroke="#333333" stroke-width="5.9821" stroke-linecap="round" stroke-linejoin="round" stroke-miterlimit="10" d="
				M13.134,103.918c7.775,9.29,6.488,18.337,31.78,21.152c25.295,2.814,15.882-15.852,32.528-13.996
				c-16.646-1.856-4.235-18.616-28.594-21.326C24.482,87.038,23.33,97.407,13.134,103.918z"/>
			<g>
				<line fill="#A1C453" x1="77.441" y1="111.074" x2="27.606" y2="105.526"/>
				<g>
					<polyline fill="none" stroke="#333333" stroke-width="3.9881" stroke-linecap="round" stroke-miterlimit="10" points="
						75.459,110.854 72.892,110.568 38.043,106.688 35.812,106.44 					"/>

						<line fill="none" stroke="#333333" stroke-width="3.9881" stroke-linecap="round" stroke-miterlimit="10" x1="29.588" y1="105.747" x2="29.866" y2="105.778"/>
				</g>
			</g>
		</g>
		<g>

				<path fill="#A1C453" stroke="#333333" stroke-width="5.9821" stroke-linecap="round" stroke-linejoin="round" stroke-miterlimit="10" d="
				M38.749,60.122c-1.071,12.067-8.379,17.555,7.517,37.43c15.894,19.876,22.437,0.021,32.896,13.103
				C68.702,97.573,89.33,94.497,74.022,75.358C58.71,56.212,50.561,62.729,38.749,60.122z"/>
			<g>
				<line fill="#A1C453" x1="79.161" y1="110.655" x2="47.844" y2="71.495"/>
				<g>
					<polyline fill="none" stroke="#333333" stroke-width="3.9881" stroke-linecap="round" stroke-miterlimit="10" points="
						77.915,109.098 76.302,107.08 54.403,79.697 53.001,77.943 					"/>

						<line fill="none" stroke="#333333" stroke-width="3.9881" stroke-linecap="round" stroke-miterlimit="10" x1="49.09" y1="73.052" x2="49.265" y2="73.271"/>
				</g>
			</g>
		</g>
		<g>

				<path fill="#A1C453" stroke="#333333" stroke-width="5.9821" stroke-linecap="round" stroke-linejoin="round" stroke-miterlimit="10" d="
				M36.84,140.554c9.37,1.683,13.152,7.784,29.815-3.262c16.667-11.048,1.587-17.557,12.556-24.824
				c-10.969,7.268-11.931-9.089-27.98,1.551C35.177,124.66,39.707,131.493,36.84,140.554z"/>
			<g>
				<line fill="#A1C453" x1="79.211" y1="112.468" x2="46.378" y2="134.232"/>
				<g>
					<polyline fill="none" stroke="#333333" stroke-width="3.9881" stroke-linecap="round" stroke-miterlimit="10" points="
						77.549,113.57 75.396,114.998 55.131,128.43 53.26,129.67 					"/>

						<line fill="none" stroke="#333333" stroke-width="3.9881" stroke-linecap="round" stroke-miterlimit="10" x1="48.04" y1="133.131" x2="48.274" y2="132.976"/>
				</g>
			</g>
		</g>
		<g>
			<g>
				<path fill="#EF4529" d="M82.991,251.439c-7.976,11.489-29.885,15.395-35.242,6.36c-11.538-1.887-14.332-23.753-6.356-35.242
					c7.974-11.485,21.488-18.93,34.132-3.273C93.764,225.271,90.967,239.954,82.991,251.439z"/>
				<g>
					<path fill="none" stroke="#333333" stroke-width="5.9821" stroke-linecap="round" stroke-miterlimit="10" d="M81.099,253.752
						c-0.873,0.954-1.865,1.789-2.877,2.59c-2.447,1.857-5.184,3.323-8.064,4.385c-2.877,1.069-5.9,1.768-8.965,1.984
						c-3.048,0.208-6.206-0.016-9.042-1.233c-1.406-0.61-2.708-1.498-3.689-2.684c-0.263-0.281-0.444-0.625-0.671-0.935
						c-0.313-0.173-0.732-0.191-1.093-0.295c-0.362-0.128-0.73-0.241-1.085-0.383c-0.343-0.172-0.703-0.312-1.031-0.511
						c-2.691-1.541-4.52-4.219-5.694-7.029c-1.189-2.837-1.771-5.897-1.965-8.957c-0.188-3.065,0.052-6.157,0.709-9.156
						c0.674-2.99,1.759-5.917,3.45-8.488c1.702-2.553,3.692-4.926,5.981-6.975c2.285-2.041,4.893-3.775,7.8-4.787
						c2.893-1.024,6.094-1.21,9.062-0.398c2.987,0.778,5.641,2.489,7.935,4.513c1.126,1.042,2.217,2.129,3.186,3.322
						c0.394,0.733,1.258,0.788,1.95,1.09c0.712,0.287,1.431,0.561,2.12,0.898c2.773,1.293,5.376,3.09,7.242,5.545
						c1.88,2.444,2.813,5.537,2.803,8.603c0.002,0.384,0.002,0.768-0.032,1.151c-0.019,0.362-0.054,0.813-0.098,1.099
						c-0.046,0.367-0.085,0.734-0.159,1.096c-0.12,0.729-0.288,1.449-0.478,2.163"/>

						<line fill="none" stroke="#333333" stroke-width="5.9821" stroke-linecap="round" stroke-miterlimit="10" x1="84.614" y1="248.928" x2="84.829" y2="248.566"/>
				</g>
			</g>
			<path opacity="0.5" fill="#FFFFFF" d="M56.746,225.634c-3.003,1.106-6.169-0.002-7.075-2.473
				c-0.905-2.473,0.798-5.373,3.801-6.477c3.002-1.106,6.171,0.004,7.075,2.475C61.45,221.63,59.748,224.53,56.746,225.634z"/>
		</g>
		<g>
			<g>
				<path fill="#EF4529" d="M184.016,194.89c3.599,13.516-7.594,32.75-17.95,30.987c-8.903,7.577-27.387-4.438-30.985-17.952
					c-3.599-13.51-0.534-28.632,19.586-28.144C171.032,169.746,180.417,181.378,184.016,194.89z"/>
				<g>
					<path fill="none" stroke="#333333" stroke-width="5.9821" stroke-linecap="round" stroke-miterlimit="10" d="M184.555,197.829
						c0.163,1.283,0.157,2.58,0.114,3.869c-0.167,3.067-0.82,6.103-1.874,8.986c-1.046,2.886-2.468,5.643-4.285,8.12
						c-1.813,2.458-4.027,4.722-6.791,6.098c-1.375,0.677-2.895,1.096-4.433,1.076c-0.384,0.019-0.764-0.065-1.146-0.093
						c-0.335,0.126-0.62,0.435-0.932,0.643c-0.332,0.193-0.656,0.4-0.995,0.58c-0.353,0.15-0.693,0.334-1.057,0.456
						c-2.916,1.056-6.141,0.717-9.043-0.205c-2.933-0.928-5.643-2.464-8.102-4.295c-2.458-1.84-4.661-4.022-6.523-6.464
						c-1.844-2.448-3.375-5.17-4.24-8.122c-0.846-2.95-1.367-6.002-1.449-9.073c-0.078-3.063,0.287-6.174,1.396-9.045
						c1.09-2.869,3.019-5.43,5.559-7.167c2.525-1.774,5.547-2.691,8.574-3.131c1.523-0.185,3.058-0.313,4.594-0.28
						c0.815,0.174,1.415-0.449,2.093-0.782c0.679-0.357,1.353-0.728,2.057-1.036c2.78-1.278,5.834-2.101,8.913-1.936
						c3.08,0.147,6.042,1.437,8.374,3.428c0.294,0.247,0.587,0.496,0.856,0.769c0.264,0.249,0.586,0.567,0.775,0.786
						c0.25,0.272,0.505,0.54,0.733,0.83c0.478,0.563,0.918,1.157,1.34,1.763"/>

						<line fill="none" stroke="#333333" stroke-width="5.9821" stroke-linecap="round" stroke-miterlimit="10" x1="183.151" y1="192.027" x2="183.014" y2="191.629"/>
				</g>
			</g>
			<path opacity="0.5" fill="#FFFFFF" d="M147.36,198.208c-1.103,3.006-3.996,4.705-6.465,3.793
				c-2.469-0.908-3.579-4.082-2.477-7.086c1.099-3.005,3.992-4.703,6.461-3.793C147.353,192.031,148.458,195.205,147.36,198.208z"/>
		</g>
		<path fill="#CC924C" stroke="#333333" stroke-width="9.9702" stroke-linecap="round" stroke-miterlimit="10" d="M95.497,365
			l1.996-328.958c0-4.164,3.376-7.541,7.542-7.541l0,0c4.163,0,7.539,3.376,7.539,7.541L114.568,365"/>
		<g>

				<path fill="#A1C453" stroke="#333333" stroke-width="3.9881" stroke-linecap="round" stroke-linejoin="round" stroke-miterlimit="10" d="
				M110.855,27.898c0,0-4.461-10.861-5.91-12.766c-1.152-1.535-3.739,10.758-3.867,15.339L110.855,27.898z"/>

				<path fill="#A1C453" stroke="#333333" stroke-width="3.9881" stroke-linecap="round" stroke-linejoin="round" stroke-miterlimit="10" d="
				M101.58,26.953l12.068,13.444c0,0,2.672-17.772-1.738-23.862C111.911,16.535,106.47,23.345,101.58,26.953z"/>

				<path fill="#A1C453" stroke="#333333" stroke-width="3.9881" stroke-linecap="round" stroke-linejoin="round" stroke-miterlimit="10" d="
				M99.243,48.386c0,0-8.844-20.488-2.136-31.851l10.895,13.437L99.243,48.386z"/>
		</g>
	</g>
</g>
</svg>
