<?xml version="1.0" encoding="utf-8"?>
<!-- Generator: Adobe Illustrator 16.0.0, SVG Export Plug-In . SVG Version: 6.00 Build 0)  -->
<!DOCTYPE svg PUBLIC "-//W3C//DTD SVG 1.1//EN" "http://www.w3.org/Graphics/SVG/1.1/DTD/svg11.dtd">
<svg version="1.1" id="Calque_1" xmlns="http://www.w3.org/2000/svg" xmlns:xlink="http://www.w3.org/1999/xlink" x="0px" y="0px"
	 width="320px" height="410px" viewBox="0 0 320 410" enable-background="new 0 0 320 410" xml:space="preserve">
<g id="calque01">
	<g>
		<path fill="#CC924C" stroke="#333333" stroke-width="2.4893" stroke-linecap="round" stroke-miterlimit="10" d="M91.744,177.518
			l-2.233-8.535c-0.318-0.988,0.225-2.05,1.214-2.369l0,0c0.989-0.319,2.051,0.223,2.37,1.212l3.182,8.229"/>
		<g>
			
				<path fill="#A1C453" stroke="#333333" stroke-width="0.9957" stroke-linecap="round" stroke-linejoin="round" stroke-miterlimit="10" d="
				M92.062,166.022c0,0-1.895-2.238-2.384-2.579c-0.393-0.276-0.063,2.843,0.258,3.941L92.062,166.022z"/>
			
				<path fill="#A1C453" stroke="#333333" stroke-width="0.9957" stroke-linecap="round" stroke-linejoin="round" stroke-miterlimit="10" d="
				M89.785,166.51l3.897,2.269c0,0-0.729-4.427-2.244-5.536C91.439,163.242,90.67,165.278,89.785,166.51z"/>
			
				<path fill="#A1C453" stroke="#333333" stroke-width="0.9957" stroke-linecap="round" stroke-linejoin="round" stroke-miterlimit="10" d="
				M90.874,171.781c0,0-3.674-4.188-2.951-7.403l3.619,2.356L90.874,171.781z"/>
		</g>
	</g>
</g>
<g id="calque02">
	<g>
		<g>
			
				<path fill="#A1C453" stroke="#333333" stroke-width="0.9957" stroke-linecap="round" stroke-linejoin="round" stroke-miterlimit="10" d="
				M80.214,157.213c1.152-0.427,1.495-1.287,3.865-0.261c2.368,1.026,0.6,2.194,2.157,2.872c-1.559-0.678-1.311,1.425-3.593,0.437
				C80.362,159.271,80.782,158.3,80.214,157.213z"/>
			<g>
				<line fill="none" x1="86.237" y1="159.824" x2="81.569" y2="157.799"/>
				<g>
					<polyline fill="none" stroke="#333333" stroke-width="0.9957" stroke-linecap="round" stroke-miterlimit="10" points="
						85.781,159.626 85.189,159.369 83.975,158.843 83.46,158.619 					"/>
					
						<line fill="none" stroke="#333333" stroke-width="0.9957" stroke-linecap="round" stroke-miterlimit="10" x1="82.026" y1="157.997" x2="82.09" y2="158.024"/>
				</g>
			</g>
		</g>
		<path fill="#CC924C" stroke="#333333" stroke-width="2.4893" stroke-linecap="round" stroke-miterlimit="10" d="M96.276,176.054
			l-8.892-25.903c-0.319-0.988-1.381-1.533-2.37-1.213l0,0c-0.989,0.319-1.532,1.382-1.213,2.37l7.942,26.21"/>
		<g>
			
				<path fill="#A1C453" stroke="#333333" stroke-width="0.9957" stroke-linecap="round" stroke-linejoin="round" stroke-miterlimit="10" d="
				M83.586,149.24c0,0,0.226-2.922,0.424-3.486c0.156-0.453,1.715,2.27,2.097,3.348L83.586,149.24z"/>
			
				<path fill="#A1C453" stroke="#333333" stroke-width="0.9957" stroke-linecap="round" stroke-linejoin="round" stroke-miterlimit="10" d="
				M85.717,148.305l-1.835,4.119c0,0-2-4.018-1.42-5.802C82.462,146.622,84.278,147.824,85.717,148.305z"/>
			
				<path fill="#A1C453" stroke="#333333" stroke-width="0.9957" stroke-linecap="round" stroke-linejoin="round" stroke-miterlimit="10" d="
				M87.916,153.217c0,0,0.528-5.546-1.938-7.73l-1.557,4.029L87.916,153.217z"/>
		</g>
	</g>
</g>
<g id="calque03">
	<g>
		<g>
			
				<path fill="#A1C453" stroke="#333333" stroke-width="1.4936" stroke-linecap="round" stroke-linejoin="round" stroke-miterlimit="10" d="
				M72.01,158.268c2.125-1.634,2.28-3.648,7.878-3.045c5.599,0.605,2.671,4.186,6.354,4.583c-3.685-0.397-1.809,3.818-7.199,3.235
				C73.651,162.459,73.899,160.163,72.01,158.268z"/>
			<g>
				<line fill="none" x1="86.242" y1="159.806" x2="75.212" y2="158.615"/>
				<g>
					<polyline fill="none" stroke="#333333" stroke-width="0.9957" stroke-linecap="round" stroke-miterlimit="10" points="
						85.747,159.752 85.106,159.683 77.819,158.896 77.261,158.836 					"/>
					
						<line fill="none" stroke="#333333" stroke-width="0.9957" stroke-linecap="round" stroke-miterlimit="10" x1="75.707" y1="158.669" x2="75.776" y2="158.676"/>
				</g>
			</g>
		</g>
		<g>
			
				<path fill="#A1C453" stroke="#333333" stroke-width="0.9957" stroke-linecap="round" stroke-linejoin="round" stroke-miterlimit="10" d="
				M92.368,147.809c0.262,1.178,1.055,1.624-0.258,3.793c-1.313,2.17-2.216,0.293-3.081,1.721c0.865-1.428-1.213-1.463,0.053-3.553
				C90.345,147.68,91.235,148.218,92.368,147.809z"/>
			<g>
				<line fill="none" x1="89.03" y1="153.322" x2="91.356" y2="149.54"/>
				<g>
					<polyline fill="none" stroke="#333333" stroke-width="0.9957" stroke-linecap="round" stroke-miterlimit="10" points="
						89.291,152.898 89.629,152.349 89.983,151.773 90.276,151.296 					"/>
					
						<line fill="none" stroke="#333333" stroke-width="0.9957" stroke-linecap="round" stroke-miterlimit="10" x1="91.096" y1="149.964" x2="91.059" y2="150.023"/>
				</g>
			</g>
		</g>
		<path fill="#CC924C" stroke="#333333" stroke-width="2.4893" stroke-linecap="round" stroke-miterlimit="10" d="M96.276,176.054
			l-11.521-34.046c-0.32-0.99-1.382-1.533-2.371-1.213l0,0c-0.989,0.319-1.533,1.381-1.213,2.37l10.572,34.353"/>
		<g>
			
				<path fill="#A1C453" stroke="#333333" stroke-width="0.9957" stroke-linecap="round" stroke-linejoin="round" stroke-miterlimit="10" d="
				M80.956,141.098c0,0,0.226-2.922,0.424-3.486c0.156-0.453,1.714,2.27,2.096,3.348L80.956,141.098z"/>
			
				<path fill="#A1C453" stroke="#333333" stroke-width="0.9957" stroke-linecap="round" stroke-linejoin="round" stroke-miterlimit="10" d="
				M83.087,140.163l-1.835,4.119c0,0-2-4.017-1.419-5.802C79.833,138.48,81.648,139.68,83.087,140.163z"/>
			
				<path fill="#A1C453" stroke="#333333" stroke-width="0.9957" stroke-linecap="round" stroke-linejoin="round" stroke-miterlimit="10" d="
				M85.286,145.074c0,0,0.528-5.546-1.938-7.73l-1.558,4.028L85.286,145.074z"/>
		</g>
	</g>
</g>
<g id="calque04">
	<g>
		
			<polygon fill="#CC924C" stroke="#333333" stroke-width="0.9957" stroke-linecap="round" stroke-linejoin="round" stroke-miterlimit="10" points="
			92.302,148.195 89.362,154.964 88.805,153.239 		"/>
		<g>
			
				<path fill="#A1C453" stroke="#333333" stroke-width="1.4936" stroke-linecap="round" stroke-linejoin="round" stroke-miterlimit="10" d="
				M72.143,158.182c2.136-1.619,2.305-3.633,7.899-2.991c5.594,0.643,2.641,4.203,6.321,4.626c-3.682-0.423-1.831,3.806-7.221,3.187
				C73.756,162.384,74.02,160.09,72.143,158.182z"/>
			<g>
				<line fill="none" x1="86.364" y1="159.816" x2="75.343" y2="158.551"/>
				<g>
					<polyline fill="none" stroke="#333333" stroke-width="0.9957" stroke-linecap="round" stroke-miterlimit="10" points="
						85.87,159.76 85.229,159.686 77.948,158.85 77.391,158.786 					"/>
					
						<line fill="none" stroke="#333333" stroke-width="0.9957" stroke-linecap="round" stroke-miterlimit="10" x1="75.837" y1="158.607" x2="75.907" y2="158.615"/>
				</g>
			</g>
		</g>
		<g>
			
				<path fill="#A1C453" stroke="#333333" stroke-width="0.9957" stroke-linecap="round" stroke-linejoin="round" stroke-miterlimit="10" d="
				M70.618,141.367c1.674-0.91,2.008-2.309,5.87-1.26c3.863,1.051,1.408,3.238,3.95,3.928c-2.542-0.689-1.694,2.479-5.414,1.469
				C71.304,144.493,71.733,142.908,70.618,141.367z"/>
			<g>
				<line fill="none" x1="80.439" y1="144.035" x2="72.828" y2="141.968"/>
				<g>
					<polyline fill="none" stroke="#333333" stroke-width="0.9957" stroke-linecap="round" stroke-miterlimit="10" points="
						79.959,143.904 79.336,143.735 75.358,142.655 74.817,142.508 					"/>
					
						<line fill="none" stroke="#333333" stroke-width="0.9957" stroke-linecap="round" stroke-miterlimit="10" x1="73.309" y1="142.099" x2="73.376" y2="142.116"/>
				</g>
			</g>
		</g>
		<g>
			
				<path fill="#A1C453" stroke="#333333" stroke-width="1.4936" stroke-linecap="round" stroke-linejoin="round" stroke-miterlimit="10" d="
				M96.376,136.561c-2.152,1.06-3.833,0.388-5.562,5.123c-1.728,4.734,2.307,3.799,1.168,6.915c1.139-3.116,3.779,0.058,5.443-4.503
				C99.09,139.535,97.151,138.828,96.376,136.561z"/>
			<g>
				<line fill="none" x1="91.983" y1="148.599" x2="95.387" y2="139.27"/>
				<g>
					<polyline fill="none" stroke="#333333" stroke-width="0.9957" stroke-linecap="round" stroke-miterlimit="10" points="
						92.154,148.131 92.375,147.525 94.488,141.732 94.68,141.206 					"/>
					
						<line fill="none" stroke="#333333" stroke-width="0.9957" stroke-linecap="round" stroke-miterlimit="10" x1="95.216" y1="139.737" x2="95.192" y2="139.803"/>
				</g>
			</g>
		</g>
		<g>
			
				<path fill="#A1C453" stroke="#333333" stroke-width="0.9957" stroke-linecap="round" stroke-linejoin="round" stroke-miterlimit="10" d="
				M99.182,145.395c-1.338-0.454-1.76-1.435-4.452-0.182c-2.693,1.254-0.625,2.544-2.396,3.369c1.771-0.825,1.553,1.599,4.146,0.393
				C99.073,147.768,98.56,146.662,99.182,145.395z"/>
			<g>
				<line fill="none" x1="92.333" y1="148.582" x2="97.64" y2="146.112"/>
				<g>
					<polyline fill="none" stroke="#333333" stroke-width="0.9957" stroke-linecap="round" stroke-miterlimit="10" points="
						92.784,148.372 93.369,148.1 95.263,147.219 95.771,146.982 					"/>
					
						<line fill="none" stroke="#333333" stroke-width="0.9957" stroke-linecap="round" stroke-miterlimit="10" x1="97.188" y1="146.322" x2="97.125" y2="146.352"/>
				</g>
			</g>
		</g>
		<path fill="#CC924C" stroke="#333333" stroke-width="2.6551" stroke-linecap="round" stroke-miterlimit="10" d="M96.276,176.054
			l-14.243-42.478c-0.319-0.989-1.382-1.532-2.371-1.212l0,0c-0.989,0.319-1.532,1.38-1.214,2.37l13.297,42.783"/>
		<g>
			
				<path fill="#A1C453" stroke="#333333" stroke-width="0.9957" stroke-linecap="round" stroke-linejoin="round" stroke-miterlimit="10" d="
				M78.232,132.667c0,0,0.227-2.923,0.424-3.487c0.156-0.452,1.716,2.27,2.099,3.348L78.232,132.667z"/>
			
				<path fill="#A1C453" stroke="#333333" stroke-width="0.9957" stroke-linecap="round" stroke-linejoin="round" stroke-miterlimit="10" d="
				M80.363,131.73l-1.835,4.12c0,0-1.999-4.017-1.418-5.802C77.11,130.049,78.925,131.249,80.363,131.73z"/>
			
				<path fill="#A1C453" stroke="#333333" stroke-width="0.9957" stroke-linecap="round" stroke-linejoin="round" stroke-miterlimit="10" d="
				M82.563,136.644c0,0,0.529-5.547-1.938-7.731l-1.558,4.028L82.563,136.644z"/>
		</g>
	</g>
</g>
<g id="calque05">
	<g>
		
			<polygon fill="#CC924C" stroke="#333333" stroke-width="0.9957" stroke-linecap="round" stroke-linejoin="round" stroke-miterlimit="10" points="
			64.722,137.248 82.226,146.43 81.362,143.757 		"/>
		
			<polygon fill="#CC924C" stroke="#333333" stroke-width="0.9957" stroke-linecap="round" stroke-linejoin="round" stroke-miterlimit="10" points="
			92.302,148.195 89.362,154.964 88.805,153.239 		"/>
		<g>
			
				<path fill="#A1C453" stroke="#333333" stroke-width="1.4936" stroke-linecap="round" stroke-linejoin="round" stroke-miterlimit="10" d="
				M72.143,158.182c2.136-1.619,2.307-3.633,7.898-2.991c5.594,0.644,2.642,4.203,6.322,4.626c-3.682-0.423-1.833,3.806-7.221,3.187
				C73.755,162.385,74.02,160.09,72.143,158.182z"/>
			<g>
				<line fill="none" x1="86.364" y1="159.816" x2="75.343" y2="158.551"/>
				<g>
					<polyline fill="none" stroke="#333333" stroke-width="0.9957" stroke-linecap="round" stroke-miterlimit="10" points="
						85.87,159.76 85.229,159.686 77.948,158.85 77.391,158.786 					"/>
					
						<line fill="none" stroke="#333333" stroke-width="0.9957" stroke-linecap="round" stroke-miterlimit="10" x1="75.837" y1="158.607" x2="75.907" y2="158.615"/>
				</g>
			</g>
		</g>
		<g>
			
				<path fill="#A1C453" stroke="#333333" stroke-width="0.9957" stroke-linecap="round" stroke-linejoin="round" stroke-miterlimit="10" d="
				M61.274,129.457c1.582,0.468,2.643-0.183,4.363,2.823c1.723,3.007-1.119,2.843,0.015,4.821c-1.134-1.979-2.555,0.479-4.213-2.416
				C59.78,131.789,61.013,131.084,61.274,129.457z"/>
			<g>
				<line fill="none" x1="65.652" y1="137.102" x2="62.26" y2="131.178"/>
				<g>
					<polyline fill="none" stroke="#333333" stroke-width="0.9957" stroke-linecap="round" stroke-miterlimit="10" points="
						65.405,136.67 65.084,136.109 63.563,133.453 63.284,132.967 					"/>
					
						<line fill="none" stroke="#333333" stroke-width="0.9957" stroke-linecap="round" stroke-miterlimit="10" x1="62.507" y1="131.609" x2="62.542" y2="131.671"/>
				</g>
			</g>
		</g>
		<g>
			
				<path fill="#A1C453" stroke="#333333" stroke-width="1.4936" stroke-linecap="round" stroke-linejoin="round" stroke-miterlimit="10" d="
				M49.397,133.355c2.657-1.444,3.188-3.664,9.32-1.998c6.131,1.665,2.234,5.137,6.27,6.232c-4.034-1.096-2.689,3.935-8.596,2.33
				C50.485,138.315,51.168,135.802,49.397,133.355z"/>
			<g>
				<line fill="none" x1="64.987" y1="137.59" x2="52.906" y2="134.309"/>
				<g>
					<polyline fill="none" stroke="#333333" stroke-width="0.9957" stroke-linecap="round" stroke-miterlimit="10" points="
						64.507,137.459 63.884,137.29 55.437,134.996 54.896,134.849 					"/>
					
						<line fill="none" stroke="#333333" stroke-width="0.9957" stroke-linecap="round" stroke-miterlimit="10" x1="53.387" y1="134.439" x2="53.454" y2="134.457"/>
				</g>
			</g>
		</g>
		<g>
			
				<path fill="#A1C453" stroke="#333333" stroke-width="1.4936" stroke-linecap="round" stroke-linejoin="round" stroke-miterlimit="10" d="
				M96.376,136.561c-2.152,1.06-3.833,0.388-5.563,5.123c-1.727,4.734,2.308,3.799,1.169,6.915c1.139-3.116,3.78,0.058,5.443-4.503
				C99.091,139.535,97.151,138.828,96.376,136.561z"/>
			<g>
				<line fill="none" x1="91.983" y1="148.599" x2="95.388" y2="139.27"/>
				<g>
					<polyline fill="none" stroke="#333333" stroke-width="0.9957" stroke-linecap="round" stroke-miterlimit="10" points="
						92.154,148.131 92.375,147.525 94.489,141.732 94.681,141.206 					"/>
					
						<line fill="none" stroke="#333333" stroke-width="0.9957" stroke-linecap="round" stroke-miterlimit="10" x1="95.217" y1="139.737" x2="95.193" y2="139.803"/>
				</g>
			</g>
		</g>
		<g>
			
				<path fill="#A1C453" stroke="#333333" stroke-width="1.4936" stroke-linecap="round" stroke-linejoin="round" stroke-miterlimit="10" d="
				M103.602,143.543c-2.271-0.773-2.983-2.436-7.554-0.309c-4.57,2.125-1.058,4.315-4.064,5.715
				c3.008-1.399,2.631,2.713,7.032,0.666C103.417,147.567,102.546,145.693,103.602,143.543z"/>
			<g>
				<line fill="none" x1="91.983" y1="148.949" x2="100.986" y2="144.76"/>
				<g>
					<polyline fill="none" stroke="#333333" stroke-width="0.9957" stroke-linecap="round" stroke-miterlimit="10" points="
						92.435,148.739 93.02,148.467 98.609,145.866 99.117,145.63 					"/>
					
						<line fill="none" stroke="#333333" stroke-width="0.9957" stroke-linecap="round" stroke-miterlimit="10" x1="100.535" y1="144.97" x2="100.472" y2="144.999"/>
				</g>
			</g>
		</g>
		<g>
			
				<path fill="#A1C453" stroke="#333333" stroke-width="0.9957" stroke-linecap="round" stroke-linejoin="round" stroke-miterlimit="10" d="
				M81.735,112.396c0.6,1.414,1.694,1.792,0.552,4.81c-1.144,3.018-2.707,0.878-3.458,2.862c0.751-1.984-1.857-1.553-0.757-4.459
				C79.173,112.703,80.411,113.173,81.735,112.396z"/>
			<g>
				<line fill="none" x1="78.828" y1="120.068" x2="81.08" y2="114.123"/>
				<g>
					<polyline fill="none" stroke="#333333" stroke-width="0.9957" stroke-linecap="round" stroke-miterlimit="10" points="
						79.004,119.603 79.233,119 80.151,116.575 80.35,116.051 					"/>
					
						<line fill="none" stroke="#333333" stroke-width="0.9957" stroke-linecap="round" stroke-miterlimit="10" x1="80.904" y1="114.589" x2="80.879" y2="114.654"/>
				</g>
			</g>
		</g>
		<path fill="#CC924C" stroke="#333333" stroke-width="2.6551" stroke-linecap="round" stroke-miterlimit="10" d="M96.276,176.054
			l-19.201-57.827c-0.319-0.989-1.382-1.533-2.371-1.213l0,0c-0.989,0.319-1.532,1.381-1.213,2.37l18.254,58.134"/>
		<g>
			
				<path fill="#A1C453" stroke="#333333" stroke-width="0.9957" stroke-linecap="round" stroke-linejoin="round" stroke-miterlimit="10" d="
				M73.274,117.316c0,0,0.227-2.922,0.425-3.486c0.155-0.453,1.715,2.269,2.097,3.348L73.274,117.316z"/>
			
				<path fill="#A1C453" stroke="#333333" stroke-width="0.9957" stroke-linecap="round" stroke-linejoin="round" stroke-miterlimit="10" d="
				M75.405,116.381l-1.835,4.12c0,0-1.999-4.017-1.419-5.803C72.151,114.698,73.967,115.898,75.405,116.381z"/>
			
				<path fill="#A1C453" stroke="#333333" stroke-width="0.9957" stroke-linecap="round" stroke-linejoin="round" stroke-miterlimit="10" d="
				M77.604,121.293c0,0,0.529-5.546-1.936-7.73l-1.559,4.028L77.604,121.293z"/>
		</g>
		<g>
			
				<path fill="#FFFFFF" stroke="#333333" stroke-width="0.9957" stroke-linecap="round" stroke-linejoin="round" stroke-miterlimit="10" d="
				M64.62,138.529c-0.299,0.33-0.033,1.177,0.235,1.789c0.482,1.103,2.055,2.096,2.993,1.057c0.944-1.045-0.198-2.514-1.341-2.886
				C65.873,138.283,64.921,138.195,64.62,138.529z"/>
			
				<path fill="#FFFFFF" stroke="#333333" stroke-width="0.9957" stroke-linecap="round" stroke-linejoin="round" stroke-miterlimit="10" d="
				M64.508,138.496c-0.137-0.424-1.003-0.618-1.668-0.691c-1.195-0.134-2.842,0.73-2.411,2.064c0.433,1.34,2.276,1.085,3.169,0.281
				C64.095,139.703,64.646,138.923,64.508,138.496z"/>
			
				<path fill="#FFFFFF" stroke="#333333" stroke-width="0.9957" stroke-linecap="round" stroke-linejoin="round" stroke-miterlimit="10" d="
				M64.586,138.418c0.436,0.093,1.037-0.561,1.433-1.099c0.714-0.97,0.788-2.827-0.582-3.121c-1.377-0.295-2.076,1.429-1.828,2.604
				C63.748,137.455,64.147,138.323,64.586,138.418z"/>
			
				<path fill="#FFFFFF" stroke="#333333" stroke-width="0.9957" stroke-linecap="round" stroke-linejoin="round" stroke-miterlimit="10" d="
				M64.728,138.463c0.138,0.424,1.004,0.617,1.668,0.69c1.195,0.134,2.843-0.73,2.412-2.064c-0.434-1.34-2.277-1.085-3.17-0.28
				C65.142,137.256,64.589,138.035,64.728,138.463z"/>
			
				<path fill="#FFFFFF" stroke="#333333" stroke-width="0.9957" stroke-linecap="round" stroke-linejoin="round" stroke-miterlimit="10" d="
				M64.643,138.54c-0.436-0.094-1.036,0.561-1.433,1.099c-0.713,0.969-0.787,2.826,0.583,3.121c1.377,0.294,2.076-1.428,1.827-2.604
				C65.481,139.503,65.081,138.635,64.643,138.54z"/>
			
				<path fill="#FFFFFF" stroke="#333333" stroke-width="0.9957" stroke-linecap="round" stroke-linejoin="round" stroke-miterlimit="10" d="
				M64.626,138.416c0.299-0.33,0.033-1.178-0.236-1.789c-0.481-1.104-2.054-2.097-2.993-1.057c-0.942,1.045,0.199,2.513,1.342,2.885
				C63.373,138.661,64.325,138.749,64.626,138.416z"/>
			
				<circle fill="#F9D53E" stroke="#333333" stroke-width="0.9957" stroke-linecap="round" stroke-linejoin="round" stroke-miterlimit="10" cx="64.728" cy="138.463" r="0.926"/>
		</g>
	</g>
</g>
<g id="calque06">
	<g>
		
			<polygon fill="#CC924C" stroke="#333333" stroke-width="0.7966" stroke-linecap="round" stroke-linejoin="round" stroke-miterlimit="10" points="
			83.717,114.186 78.88,123.816 78.017,121.143 		"/>
		
			<polygon fill="#CC924C" stroke="#333333" stroke-width="0.9957" stroke-linecap="round" stroke-linejoin="round" stroke-miterlimit="10" points="
			64.722,137.248 82.226,146.43 81.362,143.757 		"/>
		
			<polygon fill="#CC924C" stroke="#333333" stroke-width="0.9957" stroke-linecap="round" stroke-linejoin="round" stroke-miterlimit="10" points="
			92.302,148.195 89.362,154.964 88.805,153.239 		"/>
		<g>
			
				<path fill="#A1C453" stroke="#333333" stroke-width="1.4936" stroke-linecap="round" stroke-linejoin="round" stroke-miterlimit="10" d="
				M72.143,158.182c2.136-1.619,2.305-3.633,7.898-2.991c5.594,0.644,2.642,4.203,6.321,4.627c-3.681-0.424-1.832,3.805-7.22,3.186
				C73.755,162.385,74.02,160.09,72.143,158.182z"/>
			<g>
				<line fill="none" x1="86.363" y1="159.817" x2="75.343" y2="158.551"/>
				<g>
					<polyline fill="none" stroke="#333333" stroke-width="0.9957" stroke-linecap="round" stroke-miterlimit="10" points="
						85.869,159.761 85.228,159.687 77.948,158.851 77.391,158.786 					"/>
					
						<line fill="none" stroke="#333333" stroke-width="0.9957" stroke-linecap="round" stroke-miterlimit="10" x1="75.837" y1="158.607" x2="75.907" y2="158.615"/>
				</g>
			</g>
		</g>
		<g>
			
				<path fill="#A1C453" stroke="#333333" stroke-width="1.4936" stroke-linecap="round" stroke-linejoin="round" stroke-miterlimit="10" d="
				M56.883,123.136c2.9,0.858,4.845-0.336,8.003,5.177c3.158,5.515-2.053,5.214,0.026,8.842c-2.079-3.628-4.686,0.88-7.727-4.43
				C54.145,127.413,56.404,126.118,56.883,123.136z"/>
			<g>
				<line fill="none" x1="64.912" y1="137.154" x2="58.689" y2="126.291"/>
				<g>
					<polyline fill="none" stroke="#333333" stroke-width="0.9957" stroke-linecap="round" stroke-miterlimit="10" points="
						64.665,136.723 64.344,136.162 59.993,128.566 59.714,128.08 					"/>
					
						<line fill="none" stroke="#333333" stroke-width="0.9957" stroke-linecap="round" stroke-miterlimit="10" x1="58.937" y1="126.723" x2="58.972" y2="126.784"/>
				</g>
			</g>
		</g>
		<g>
			
				<path fill="#A1C453" stroke="#333333" stroke-width="1.4936" stroke-linecap="round" stroke-linejoin="round" stroke-miterlimit="10" d="
				M49.397,133.355c2.656-1.444,3.188-3.664,9.319-1.998c6.132,1.665,2.235,5.137,6.271,6.232c-4.034-1.096-2.689,3.935-8.596,2.33
				C50.485,138.315,51.167,135.802,49.397,133.355z"/>
			<g>
				<line fill="none" x1="64.987" y1="137.59" x2="52.905" y2="134.309"/>
				<g>
					<polyline fill="none" stroke="#333333" stroke-width="0.9957" stroke-linecap="round" stroke-miterlimit="10" points="
						64.507,137.459 63.884,137.29 55.436,134.996 54.895,134.849 					"/>
					
						<line fill="none" stroke="#333333" stroke-width="0.9957" stroke-linecap="round" stroke-miterlimit="10" x1="53.386" y1="134.439" x2="53.453" y2="134.457"/>
				</g>
			</g>
		</g>
		<g>
			
				<path fill="#A1C453" stroke="#333333" stroke-width="1.4936" stroke-linecap="round" stroke-linejoin="round" stroke-miterlimit="10" d="
				M96.376,136.561c-2.152,1.06-3.833,0.388-5.563,5.123c-1.727,4.734,2.308,3.799,1.169,6.915c1.139-3.116,3.779,0.058,5.443-4.503
				C99.09,139.535,97.151,138.828,96.376,136.561z"/>
			<g>
				<line fill="none" x1="91.983" y1="148.599" x2="95.387" y2="139.27"/>
				<g>
					<polyline fill="none" stroke="#333333" stroke-width="0.9957" stroke-linecap="round" stroke-miterlimit="10" points="
						92.154,148.131 92.375,147.525 94.488,141.732 94.68,141.206 					"/>
					
						<line fill="none" stroke="#333333" stroke-width="0.9957" stroke-linecap="round" stroke-miterlimit="10" x1="95.216" y1="139.737" x2="95.192" y2="139.803"/>
				</g>
			</g>
		</g>
		<g>
			
				<path fill="#A1C453" stroke="#333333" stroke-width="1.4936" stroke-linecap="round" stroke-linejoin="round" stroke-miterlimit="10" d="
				M103.602,143.543c-2.271-0.773-2.984-2.436-7.555-0.309c-4.569,2.125-1.057,4.315-4.063,5.715
				c3.008-1.399,2.631,2.713,7.032,0.666C103.417,147.567,102.546,145.693,103.602,143.543z"/>
			<g>
				<line fill="none" x1="91.983" y1="148.949" x2="100.986" y2="144.76"/>
				<g>
					<polyline fill="none" stroke="#333333" stroke-width="0.9957" stroke-linecap="round" stroke-miterlimit="10" points="
						92.435,148.739 93.02,148.467 98.609,145.866 99.117,145.63 					"/>
					
						<line fill="none" stroke="#333333" stroke-width="0.9957" stroke-linecap="round" stroke-miterlimit="10" x1="100.535" y1="144.97" x2="100.472" y2="144.999"/>
				</g>
			</g>
		</g>
		<g>
			
				<path fill="#A1C453" stroke="#333333" stroke-width="1.4936" stroke-linecap="round" stroke-linejoin="round" stroke-miterlimit="10" d="
				M89.44,99.078c1.182,2.785,3.338,3.527,1.088,9.47c-2.252,5.942-5.33,1.727-6.812,5.638c1.48-3.911-3.655-3.06-1.487-8.781
				C84.398,99.681,86.834,100.604,89.44,99.078z"/>
			<g>
				<line fill="none" x1="83.717" y1="114.186" x2="88.153" y2="102.479"/>
				<g>
					<polyline fill="none" stroke="#333333" stroke-width="0.9957" stroke-linecap="round" stroke-miterlimit="10" points="
						83.893,113.72 84.122,113.117 87.224,104.931 87.423,104.406 					"/>
					
						<line fill="none" stroke="#333333" stroke-width="0.9957" stroke-linecap="round" stroke-miterlimit="10" x1="87.977" y1="102.944" x2="87.952" y2="103.01"/>
				</g>
			</g>
		</g>
		<g>
			
				<path fill="#A1C453" stroke="#333333" stroke-width="0.9957" stroke-linecap="round" stroke-linejoin="round" stroke-miterlimit="10" d="
				M91.94,116.963c-1.418,0.757-1.709,1.933-4.959,1.023c-3.251-0.91-1.167-2.738-3.306-3.338c2.139,0.6,1.445-2.078,4.576-1.202
				C91.384,114.323,91.01,115.655,91.94,116.963z"/>
			<g>
				<line fill="none" x1="83.676" y1="114.648" x2="90.08" y2="116.442"/>
				<g>
					<polyline fill="none" stroke="#333333" stroke-width="0.9957" stroke-linecap="round" stroke-miterlimit="10" points="
						84.155,114.783 84.776,114.957 87.555,115.735 88.095,115.887 					"/>
					
						<line fill="none" stroke="#333333" stroke-width="0.9957" stroke-linecap="round" stroke-miterlimit="10" x1="89.601" y1="116.309" x2="89.533" y2="116.289"/>
				</g>
			</g>
		</g>
		<g>
			<g>
				<path fill="#D3F46C" d="M69.68,139.037c1.116,2.32-0.247,6.185-2.179,6.224c-1.35,1.677-5.106,0.141-6.224-2.18
					c-1.115-2.319-1.084-5.159,2.571-5.765C66.463,134.938,68.562,136.718,69.68,139.037z"/>
				<g>
					<path fill="none" stroke="#333333" stroke-width="0.9957" stroke-linecap="round" stroke-miterlimit="10" d="M69.863,139.5
						c0.047,0.209,0.126,0.412,0.146,0.628c0.191,1.135-0.016,2.314-0.473,3.361c-0.239,0.521-0.564,1.012-1.014,1.374
						c-0.23,0.166-0.485,0.313-0.771,0.361c-0.334-0.052-0.434,0.332-0.712,0.426c-1.028,0.587-2.293,0.254-3.296-0.227
						c-1.021-0.512-1.935-1.301-2.458-2.327c-0.487-1.026-0.809-2.199-0.562-3.332c0.229-1.157,1.255-1.975,2.354-2.267
						c0.267-0.103,0.572-0.1,0.822-0.226c0.224-0.181,0.437-0.374,0.686-0.52c0.479-0.31,1.026-0.539,1.604-0.558
						c0.576-0.023,1.146,0.174,1.617,0.495c0.114,0.079,0.246,0.167,0.335,0.254l0.139,0.121c0.098,0.077,0.174,0.174,0.261,0.262"
						/>
					
						<line fill="none" stroke="#333333" stroke-width="0.9957" stroke-linecap="round" stroke-miterlimit="10" x1="69.45" y1="138.596" x2="69.415" y2="138.535"/>
				</g>
			</g>
			
				<ellipse transform="matrix(0.1637 -0.9865 0.9865 0.1637 -86.7581 179.167)" opacity="0.5" fill="#FFFFFF" enable-background="new    " cx="62.294" cy="140.754" rx="1.068" ry="0.878"/>
		</g>
		<path fill="#CC924C" stroke="#333333" stroke-width="2.6551" stroke-linecap="round" stroke-miterlimit="10" d="M96.276,176.054
			L74.6,110.566c-0.319-0.99-1.381-1.533-2.371-1.214l0,0c-0.988,0.319-1.532,1.381-1.213,2.371l20.729,65.794"/>
		<g>
			
				<path fill="#A1C453" stroke="#333333" stroke-width="0.9957" stroke-linecap="round" stroke-linejoin="round" stroke-miterlimit="10" d="
				M70.8,109.656c0,0,0.226-2.924,0.424-3.486c0.156-0.453,1.715,2.269,2.097,3.347L70.8,109.656z"/>
			
				<path fill="#A1C453" stroke="#333333" stroke-width="0.9957" stroke-linecap="round" stroke-linejoin="round" stroke-miterlimit="10" d="
				M72.931,108.72l-1.835,4.12c0,0-1.999-4.018-1.419-5.803C69.677,107.037,71.492,108.237,72.931,108.72z"/>
			
				<path fill="#A1C453" stroke="#333333" stroke-width="0.9957" stroke-linecap="round" stroke-linejoin="round" stroke-miterlimit="10" d="
				M75.13,113.633c0,0,0.529-5.547-1.938-7.731l-1.557,4.028L75.13,113.633z"/>
		</g>
		<g>
			
				<path fill="#FFFFFF" stroke="#333333" stroke-width="0.9957" stroke-linecap="round" stroke-linejoin="round" stroke-miterlimit="10" d="
				M84.505,115.557c-0.298,0.33-0.033,1.178,0.236,1.789c0.481,1.103,2.054,2.096,2.992,1.057c0.943-1.045-0.197-2.514-1.341-2.886
				C85.759,115.311,84.807,115.223,84.505,115.557z"/>
			
				<path fill="#FFFFFF" stroke="#333333" stroke-width="0.9957" stroke-linecap="round" stroke-linejoin="round" stroke-miterlimit="10" d="
				M84.393,115.523c-0.137-0.424-1.003-0.618-1.667-0.691c-1.196-0.134-2.842,0.73-2.412,2.064c0.435,1.34,2.275,1.085,3.169,0.281
				C83.979,116.73,84.53,115.95,84.393,115.523z"/>
			
				<path fill="#FFFFFF" stroke="#333333" stroke-width="0.9957" stroke-linecap="round" stroke-linejoin="round" stroke-miterlimit="10" d="
				M84.472,115.444c0.437,0.095,1.036-0.56,1.432-1.099c0.715-0.969,0.788-2.826-0.582-3.12c-1.377-0.294-2.075,1.429-1.827,2.604
				C83.633,114.482,84.032,115.352,84.472,115.444z"/>
			
				<path fill="#FFFFFF" stroke="#333333" stroke-width="0.9957" stroke-linecap="round" stroke-linejoin="round" stroke-miterlimit="10" d="
				M84.613,115.49c0.138,0.424,1.004,0.617,1.667,0.69c1.195,0.134,2.843-0.73,2.411-2.064c-0.433-1.339-2.274-1.085-3.169-0.281
				C85.026,114.283,84.475,115.063,84.613,115.49z"/>
			
				<path fill="#FFFFFF" stroke="#333333" stroke-width="0.9957" stroke-linecap="round" stroke-linejoin="round" stroke-miterlimit="10" d="
				M84.527,115.568c-0.436-0.095-1.035,0.56-1.433,1.098c-0.713,0.969-0.787,2.827,0.582,3.121c1.377,0.294,2.077-1.429,1.829-2.604
				C85.366,116.53,84.967,115.662,84.527,115.568z"/>
			
				<path fill="#FFFFFF" stroke="#333333" stroke-width="0.9957" stroke-linecap="round" stroke-linejoin="round" stroke-miterlimit="10" d="
				M84.511,115.443c0.298-0.33,0.033-1.178-0.235-1.789c-0.481-1.103-2.055-2.096-2.992-1.057c-0.944,1.045,0.197,2.513,1.34,2.885
				C83.258,115.688,84.21,115.776,84.511,115.443z"/>
			
				<circle fill="#F9D53E" stroke="#333333" stroke-width="0.9957" stroke-linecap="round" stroke-linejoin="round" stroke-miterlimit="10" cx="84.613" cy="115.491" r="0.926"/>
		</g>
	</g>
</g>
<g id="calque07">
	<g>
		
			<polygon fill="#CC924C" stroke="#333333" stroke-width="0.7966" stroke-linecap="round" stroke-linejoin="round" stroke-miterlimit="10" points="
			83.718,114.186 78.88,123.816 78.017,121.143 		"/>
		
			<polygon fill="#CC924C" stroke="#333333" stroke-width="0.9957" stroke-linecap="round" stroke-linejoin="round" stroke-miterlimit="10" points="
			64.722,137.248 82.226,146.43 81.362,143.757 		"/>
		
			<polygon fill="#CC924C" stroke="#333333" stroke-width="0.9957" stroke-linecap="round" stroke-linejoin="round" stroke-miterlimit="10" points="
			92.302,148.195 89.362,154.964 88.805,153.239 		"/>
		<g>
			
				<path fill="#A1C453" stroke="#333333" stroke-width="1.4936" stroke-linecap="round" stroke-linejoin="round" stroke-miterlimit="10" d="
				M72.143,158.182c2.136-1.619,2.305-3.633,7.898-2.991c5.594,0.644,2.642,4.203,6.321,4.627c-3.681-0.424-1.832,3.805-7.22,3.186
				C73.755,162.385,74.02,160.09,72.143,158.182z"/>
			<g>
				<line fill="none" x1="86.363" y1="159.817" x2="75.343" y2="158.551"/>
				<g>
					<polyline fill="none" stroke="#333333" stroke-width="0.9957" stroke-linecap="round" stroke-miterlimit="10" points="
						85.869,159.761 85.228,159.687 77.948,158.851 77.391,158.786 					"/>
					
						<line fill="none" stroke="#333333" stroke-width="0.9957" stroke-linecap="round" stroke-miterlimit="10" x1="75.837" y1="158.607" x2="75.907" y2="158.615"/>
				</g>
			</g>
		</g>
		<g>
			
				<path fill="#A1C453" stroke="#333333" stroke-width="0.9957" stroke-linecap="round" stroke-linejoin="round" stroke-miterlimit="10" d="
				M63.544,107.936c0.337,1.577-0.377,2.562,2.425,4.466c2.803,1.905,2.855-0.878,4.699,0.376c-1.844-1.254,0.66-2.455-2.039-4.289
				C65.93,106.653,65.148,107.803,63.544,107.936z"/>
			<g>
				<line fill="none" x1="70.668" y1="112.777" x2="65.147" y2="109.025"/>
				<g>
					<polyline fill="none" stroke="#333333" stroke-width="0.9957" stroke-linecap="round" stroke-miterlimit="10" points="
						70.256,112.497 69.723,112.135 67.316,110.499 66.853,110.185 					"/>
					
						<line fill="none" stroke="#333333" stroke-width="0.9957" stroke-linecap="round" stroke-miterlimit="10" x1="65.559" y1="109.306" x2="65.617" y2="109.345"/>
				</g>
			</g>
		</g>
		<g>
			
				<path fill="#A1C453" stroke="#333333" stroke-width="1.4936" stroke-linecap="round" stroke-linejoin="round" stroke-miterlimit="10" d="
				M56.883,123.136c2.9,0.858,4.845-0.336,8.003,5.177c3.158,5.515-2.053,5.214,0.026,8.842c-2.079-3.628-4.686,0.88-7.727-4.43
				C54.145,127.413,56.405,126.118,56.883,123.136z"/>
			<g>
				<line fill="none" x1="64.912" y1="137.154" x2="58.689" y2="126.291"/>
				<g>
					<polyline fill="none" stroke="#333333" stroke-width="0.9957" stroke-linecap="round" stroke-miterlimit="10" points="
						64.665,136.723 64.344,136.162 59.993,128.566 59.714,128.08 					"/>
					
						<line fill="none" stroke="#333333" stroke-width="0.9957" stroke-linecap="round" stroke-miterlimit="10" x1="58.937" y1="126.723" x2="58.972" y2="126.784"/>
				</g>
			</g>
		</g>
		<g>
			
				<path fill="#A1C453" stroke="#333333" stroke-width="1.4936" stroke-linecap="round" stroke-linejoin="round" stroke-miterlimit="10" d="
				M49.397,133.355c2.656-1.444,3.188-3.664,9.319-1.998c6.132,1.665,2.235,5.137,6.271,6.232c-4.034-1.096-2.689,3.935-8.596,2.33
				C50.485,138.315,51.167,135.802,49.397,133.355z"/>
			<g>
				<line fill="none" x1="64.987" y1="137.59" x2="52.905" y2="134.309"/>
				<g>
					<polyline fill="none" stroke="#333333" stroke-width="0.9957" stroke-linecap="round" stroke-miterlimit="10" points="
						64.507,137.459 63.884,137.29 55.436,134.996 54.895,134.849 					"/>
					
						<line fill="none" stroke="#333333" stroke-width="0.9957" stroke-linecap="round" stroke-miterlimit="10" x1="53.386" y1="134.439" x2="53.453" y2="134.457"/>
				</g>
			</g>
		</g>
		<g>
			
				<path fill="#A1C453" stroke="#333333" stroke-width="1.4936" stroke-linecap="round" stroke-linejoin="round" stroke-miterlimit="10" d="
				M96.376,136.561c-2.152,1.06-3.833,0.388-5.563,5.123c-1.727,4.734,2.308,3.799,1.169,6.915c1.139-3.116,3.779,0.058,5.443-4.503
				C99.09,139.535,97.151,138.828,96.376,136.561z"/>
			<g>
				<line fill="none" x1="91.983" y1="148.599" x2="95.387" y2="139.27"/>
				<g>
					<polyline fill="none" stroke="#333333" stroke-width="0.9957" stroke-linecap="round" stroke-miterlimit="10" points="
						92.154,148.131 92.375,147.525 94.488,141.732 94.68,141.206 					"/>
					
						<line fill="none" stroke="#333333" stroke-width="0.9957" stroke-linecap="round" stroke-miterlimit="10" x1="95.216" y1="139.737" x2="95.192" y2="139.803"/>
				</g>
			</g>
		</g>
		<g>
			
				<path fill="#A1C453" stroke="#333333" stroke-width="1.4936" stroke-linecap="round" stroke-linejoin="round" stroke-miterlimit="10" d="
				M103.602,143.543c-2.271-0.773-2.984-2.436-7.555-0.309c-4.569,2.125-1.057,4.315-4.063,5.715
				c3.008-1.399,2.631,2.713,7.032,0.666C103.417,147.567,102.546,145.693,103.602,143.543z"/>
			<g>
				<line fill="none" x1="91.983" y1="148.949" x2="100.986" y2="144.76"/>
				<g>
					<polyline fill="none" stroke="#333333" stroke-width="0.9957" stroke-linecap="round" stroke-miterlimit="10" points="
						92.435,148.739 93.02,148.467 98.609,145.866 99.117,145.63 					"/>
					
						<line fill="none" stroke="#333333" stroke-width="0.9957" stroke-linecap="round" stroke-miterlimit="10" x1="100.535" y1="144.97" x2="100.472" y2="144.999"/>
				</g>
			</g>
		</g>
		<g>
			
				<path fill="#A1C453" stroke="#333333" stroke-width="0.9957" stroke-linecap="round" stroke-linejoin="round" stroke-miterlimit="10" d="
				M92.372,110.469c-0.615,1.523-0.072,2.639-3.223,4.058c-3.149,1.419-2.713-1.386-4.784-0.45c2.071-0.936-0.229-2.582,2.803-3.948
				C90.203,108.762,90.784,110.053,92.372,110.469z"/>
			<g>
				<line fill="none" x1="84.365" y1="114.076" x2="90.571" y2="111.279"/>
				<g>
					<polyline fill="none" stroke="#333333" stroke-width="0.9957" stroke-linecap="round" stroke-miterlimit="10" points="
						84.819,113.872 85.407,113.606 88.181,112.356 88.692,112.126 					"/>
					
						<line fill="none" stroke="#333333" stroke-width="0.9957" stroke-linecap="round" stroke-miterlimit="10" x1="90.117" y1="111.483" x2="90.054" y2="111.513"/>
				</g>
			</g>
		</g>
		<g>
			
				<path fill="#A1C453" stroke="#333333" stroke-width="1.4936" stroke-linecap="round" stroke-linejoin="round" stroke-miterlimit="10" d="
				M89.44,99.078c1.182,2.785,3.338,3.527,1.088,9.47c-2.252,5.942-5.33,1.727-6.811,5.638c1.479-3.911-3.656-3.06-1.488-8.781
				C84.398,99.681,86.834,100.604,89.44,99.078z"/>
			<g>
				<line fill="none" x1="83.718" y1="114.186" x2="88.153" y2="102.479"/>
				<g>
					<polyline fill="none" stroke="#333333" stroke-width="0.9957" stroke-linecap="round" stroke-miterlimit="10" points="
						83.894,113.72 84.123,113.117 87.224,104.931 87.423,104.406 					"/>
					
						<line fill="none" stroke="#333333" stroke-width="0.9957" stroke-linecap="round" stroke-miterlimit="10" x1="87.977" y1="102.944" x2="87.952" y2="103.01"/>
				</g>
			</g>
		</g>
		<g>
			
				<path fill="#A1C453" stroke="#333333" stroke-width="1.4936" stroke-linecap="round" stroke-linejoin="round" stroke-miterlimit="10" d="
				M96.066,118.041c-2.097,1.119-2.527,2.859-7.334,1.514c-4.808-1.347-1.725-4.05-4.888-4.936c3.163,0.886,2.137-3.074,6.767-1.778
				C95.241,114.137,94.69,116.108,96.066,118.041z"/>
			<g>
				<line fill="none" x1="83.845" y1="114.619" x2="93.315" y2="117.271"/>
				<g>
					<polyline fill="none" stroke="#333333" stroke-width="0.9957" stroke-linecap="round" stroke-miterlimit="10" points="
						84.324,114.754 84.945,114.928 90.791,116.564 91.331,116.716 					"/>
					
						<line fill="none" stroke="#333333" stroke-width="0.9957" stroke-linecap="round" stroke-miterlimit="10" x1="92.836" y1="117.137" x2="92.769" y2="117.118"/>
				</g>
			</g>
		</g>
		<g>
			<g>
				<path fill="#D3F46C" d="M71.829,140.32c1.516,3.147-0.332,8.389-2.953,8.441c-1.83,2.273-6.924,0.191-8.439-2.955
					c-1.515-3.146-1.47-6.998,3.488-7.82C67.469,134.76,70.314,137.175,71.829,140.32z"/>
				<g>
					<path fill="none" stroke="#333333" stroke-width="1.4936" stroke-linecap="round" stroke-miterlimit="10" d="M72.096,141.017
						c0.083,0.313,0.171,0.623,0.204,0.945c0.211,1.52-0.065,3.092-0.705,4.479c-0.328,0.688-0.763,1.349-1.377,1.813
						c-0.313,0.217-0.657,0.411-1.038,0.464l-0.285,0.04c-0.079,0.047-0.139,0.129-0.209,0.192
						c-0.126,0.146-0.282,0.257-0.451,0.351c-0.662,0.396-1.468,0.467-2.222,0.375c-0.761-0.094-1.497-0.34-2.187-0.671
						c-1.359-0.686-2.605-1.707-3.318-3.074c-0.673-1.359-1.122-2.912-0.861-4.438c0.133-0.754,0.487-1.471,1.027-2.017
						c0.532-0.559,1.237-0.918,1.958-1.162c0.359-0.138,0.736-0.21,1.111-0.289c0.204-0.005,0.329-0.175,0.481-0.286
						c0.151-0.117,0.289-0.254,0.451-0.355c0.62-0.447,1.336-0.779,2.095-0.884c0.76-0.108,1.546,0.065,2.211,0.443
						c0.171,0.076,0.332,0.213,0.473,0.304c0.075,0.054,0.152,0.104,0.22,0.168c0.137,0.123,0.282,0.238,0.412,0.368"/>
					
						<line fill="none" stroke="#333333" stroke-width="1.4936" stroke-linecap="round" stroke-miterlimit="10" x1="71.481" y1="139.659" x2="71.428" y2="139.569"/>
				</g>
			</g>
			
				<ellipse transform="matrix(0.1633 -0.9866 0.9866 0.1633 -89.0201 180.3488)" opacity="0.5" fill="#FFFFFF" enable-background="new    " cx="61.818" cy="142.658" rx="1.447" ry="1.19"/>
		</g>
		<path fill="#CC924C" stroke="#333333" stroke-width="2.6551" stroke-linecap="round" stroke-miterlimit="10" d="M96.276,176.054
			l-23.84-72.185c-0.318-0.99-1.381-1.533-2.371-1.213l0,0c-0.988,0.319-1.531,1.38-1.213,2.37l22.893,72.491"/>
		<g>
			
				<path fill="#A1C453" stroke="#333333" stroke-width="0.9957" stroke-linecap="round" stroke-linejoin="round" stroke-miterlimit="10" d="
				M68.637,102.959c0,0,0.226-2.922,0.424-3.486c0.156-0.453,1.715,2.27,2.098,3.348L68.637,102.959z"/>
			
				<path fill="#A1C453" stroke="#333333" stroke-width="0.9957" stroke-linecap="round" stroke-linejoin="round" stroke-miterlimit="10" d="
				M70.768,102.022l-1.835,4.121c0,0-2-4.019-1.418-5.804C67.515,100.34,69.329,101.541,70.768,102.022z"/>
			
				<path fill="#A1C453" stroke="#333333" stroke-width="0.9957" stroke-linecap="round" stroke-linejoin="round" stroke-miterlimit="10" d="
				M72.968,106.936c0,0,0.529-5.546-1.938-7.731l-1.557,4.029L72.968,106.936z"/>
		</g>
		<g>
			<g>
				<path fill="#D3F46C" d="M90.517,118.29c0.354,2.551-2.127,5.813-3.979,5.257c-1.798,1.186-4.904-1.427-5.256-3.977
					c-0.354-2.55,0.546-5.243,4.211-4.701C88.71,113.404,90.163,115.74,90.517,118.29z"/>
				<g>
					<path fill="none" stroke="#333333" stroke-width="0.9957" stroke-linecap="round" stroke-miterlimit="10" d="M90.55,118.787
						c-0.021,0.214-0.006,0.431-0.054,0.642c-0.165,1.139-0.724,2.198-1.479,3.056c-0.386,0.422-0.847,0.79-1.384,0.997
						c-0.272,0.088-0.559,0.15-0.845,0.108c-0.304-0.151-0.514,0.184-0.809,0.188c-1.157,0.246-2.261-0.459-3.068-1.223
						c-0.815-0.799-1.443-1.829-1.627-2.967c-0.149-1.126-0.097-2.341,0.485-3.344c0.572-1.031,1.798-1.495,2.934-1.438
						c0.284-0.015,0.575,0.081,0.853,0.038c0.269-0.104,0.53-0.223,0.812-0.285c0.55-0.148,1.143-0.199,1.697-0.04
						c0.557,0.153,1.037,0.515,1.389,0.965c0.084,0.111,0.183,0.234,0.241,0.344l0.096,0.158c0.067,0.103,0.111,0.219,0.167,0.328"
						/>
					
						<line fill="none" stroke="#333333" stroke-width="0.9957" stroke-linecap="round" stroke-miterlimit="10" x1="90.434" y1="117.799" x2="90.418" y2="117.73"/>
				</g>
			</g>
			
				<ellipse transform="matrix(0.4581 -0.8889 0.8889 0.4581 -59.6387 137.5142)" opacity="0.5" fill="#FFFFFF" enable-background="new    " cx="82.962" cy="117.669" rx="1.067" ry="0.877"/>
		</g>
	</g>
</g>
<g id="calque08">
	<g>
		
			<polygon fill="#CC924C" stroke="#333333" stroke-width="0.9957" stroke-linecap="round" stroke-linejoin="round" stroke-miterlimit="10" points="
			63.74,109.39 71.853,113.854 70.988,111.181 		"/>
		
			<polygon fill="#CC924C" stroke="#333333" stroke-width="0.7966" stroke-linecap="round" stroke-linejoin="round" stroke-miterlimit="10" points="
			83.717,114.186 78.88,123.816 78.017,121.143 		"/>
		
			<polygon fill="#CC924C" stroke="#333333" stroke-width="0.9957" stroke-linecap="round" stroke-linejoin="round" stroke-miterlimit="10" points="
			64.722,137.248 82.226,146.43 81.362,143.757 		"/>
		
			<polygon fill="#CC924C" stroke="#333333" stroke-width="0.9957" stroke-linecap="round" stroke-linejoin="round" stroke-miterlimit="10" points="
			92.301,148.196 89.362,154.964 88.805,153.239 		"/>
		<g>
			
				<path fill="#A1C453" stroke="#333333" stroke-width="1.4936" stroke-linecap="round" stroke-linejoin="round" stroke-miterlimit="10" d="
				M72.143,158.182c2.136-1.619,2.307-3.633,7.898-2.991c5.594,0.644,2.642,4.203,6.321,4.627c-3.681-0.424-1.832,3.805-7.22,3.186
				C73.755,162.385,74.02,160.09,72.143,158.182z"/>
			<g>
				<line fill="none" x1="86.363" y1="159.817" x2="75.343" y2="158.551"/>
				<g>
					<polyline fill="none" stroke="#333333" stroke-width="0.9957" stroke-linecap="round" stroke-miterlimit="10" points="
						85.869,159.761 85.228,159.687 77.948,158.851 77.391,158.786 					"/>
					
						<line fill="none" stroke="#333333" stroke-width="0.9957" stroke-linecap="round" stroke-miterlimit="10" x1="75.837" y1="158.607" x2="75.907" y2="158.615"/>
				</g>
			</g>
		</g>
		<g>
			
				<path fill="#A1C453" stroke="#333333" stroke-width="1.4936" stroke-linecap="round" stroke-linejoin="round" stroke-miterlimit="10" d="
				M51.9,101.343c0.562,2.621-0.627,4.258,4.03,7.423s4.745-1.46,7.811,0.624c-3.064-2.084,1.096-4.079-3.391-7.127
				C55.865,99.214,54.567,101.123,51.9,101.343z"/>
			<g>
				<line fill="none" x1="63.74" y1="109.39" x2="54.565" y2="103.153"/>
				<g>
					<polyline fill="none" stroke="#333333" stroke-width="0.9957" stroke-linecap="round" stroke-miterlimit="10" points="
						63.329,109.109 62.795,108.747 56.734,104.627 56.271,104.313 					"/>
					
						<line fill="none" stroke="#333333" stroke-width="0.9957" stroke-linecap="round" stroke-miterlimit="10" x1="54.977" y1="103.434" x2="55.035" y2="103.473"/>
				</g>
			</g>
		</g>
		<g>
			
				<path fill="#A1C453" stroke="#333333" stroke-width="1.4936" stroke-linecap="round" stroke-linejoin="round" stroke-miterlimit="10" d="
				M56.883,123.136c2.9,0.858,4.845-0.336,8.003,5.177c3.158,5.515-2.052,5.213,0.026,8.842c-2.078-3.629-4.685,0.879-7.727-4.43
				C54.145,127.413,56.404,126.118,56.883,123.136z"/>
			<g>
				<line fill="none" x1="64.912" y1="137.154" x2="58.689" y2="126.291"/>
				<g>
					<polyline fill="none" stroke="#333333" stroke-width="0.9957" stroke-linecap="round" stroke-miterlimit="10" points="
						64.665,136.723 64.344,136.162 59.993,128.566 59.714,128.08 					"/>
					
						<line fill="none" stroke="#333333" stroke-width="0.9957" stroke-linecap="round" stroke-miterlimit="10" x1="58.937" y1="126.723" x2="58.972" y2="126.784"/>
				</g>
			</g>
		</g>
		<g>
			
				<path fill="#A1C453" stroke="#333333" stroke-width="1.4936" stroke-linecap="round" stroke-linejoin="round" stroke-miterlimit="10" d="
				M49.397,133.355c2.657-1.444,3.188-3.664,9.32-1.998c6.131,1.665,2.234,5.137,6.27,6.232c-4.034-1.096-2.689,3.935-8.596,2.33
				C50.485,138.315,51.167,135.802,49.397,133.355z"/>
			<g>
				<line fill="none" x1="64.987" y1="137.59" x2="52.905" y2="134.309"/>
				<g>
					<polyline fill="none" stroke="#333333" stroke-width="0.9957" stroke-linecap="round" stroke-miterlimit="10" points="
						64.507,137.459 63.884,137.29 55.436,134.996 54.895,134.849 					"/>
					
						<line fill="none" stroke="#333333" stroke-width="0.9957" stroke-linecap="round" stroke-miterlimit="10" x1="53.386" y1="134.439" x2="53.453" y2="134.457"/>
				</g>
			</g>
		</g>
		<g>
			
				<path fill="#A1C453" stroke="#333333" stroke-width="1.4936" stroke-linecap="round" stroke-linejoin="round" stroke-miterlimit="10" d="
				M96.376,136.561c-2.152,1.06-3.833,0.388-5.563,5.123c-1.727,4.734,2.308,3.799,1.169,6.915c1.139-3.116,3.779,0.058,5.443-4.503
				C99.09,139.535,97.15,138.828,96.376,136.561z"/>
			<g>
				<line fill="none" x1="91.983" y1="148.599" x2="95.388" y2="139.27"/>
				<g>
					<polyline fill="none" stroke="#333333" stroke-width="0.9957" stroke-linecap="round" stroke-miterlimit="10" points="
						92.154,148.131 92.375,147.525 94.489,141.732 94.681,141.206 					"/>
					
						<line fill="none" stroke="#333333" stroke-width="0.9957" stroke-linecap="round" stroke-miterlimit="10" x1="95.217" y1="139.737" x2="95.193" y2="139.803"/>
				</g>
			</g>
		</g>
		<g>
			
				<path fill="#A1C453" stroke="#333333" stroke-width="1.4936" stroke-linecap="round" stroke-linejoin="round" stroke-miterlimit="10" d="
				M103.602,143.543c-2.271-0.773-2.983-2.436-7.555-0.309c-4.569,2.125-1.057,4.315-4.063,5.715
				c3.008-1.399,2.631,2.713,7.032,0.666C103.417,147.567,102.546,145.693,103.602,143.543z"/>
			<g>
				<line fill="none" x1="91.983" y1="148.949" x2="100.986" y2="144.76"/>
				<g>
					<polyline fill="none" stroke="#333333" stroke-width="0.9957" stroke-linecap="round" stroke-miterlimit="10" points="
						92.435,148.739 93.02,148.467 98.609,145.866 99.117,145.63 					"/>
					
						<line fill="none" stroke="#333333" stroke-width="0.9957" stroke-linecap="round" stroke-miterlimit="10" x1="100.535" y1="144.97" x2="100.472" y2="144.999"/>
				</g>
			</g>
		</g>
		<g>
			
				<path fill="#A1C453" stroke="#333333" stroke-width="1.4936" stroke-linecap="round" stroke-linejoin="round" stroke-miterlimit="10" d="
				M98.888,107.518c-1.135,2.804-0.135,4.854-5.928,7.465c-5.795,2.609-4.99-2.548-8.802-0.83c3.812-1.718-0.423-4.747,5.155-7.26
				C94.896,104.378,95.966,106.753,98.888,107.518z"/>
			<g>
				<line fill="none" x1="84.158" y1="114.152" x2="95.572" y2="109.01"/>
				<g>
					<polyline fill="none" stroke="#333333" stroke-width="0.9957" stroke-linecap="round" stroke-miterlimit="10" points="
						84.612,113.948 85.2,113.683 93.182,110.087 93.693,109.856 					"/>
					
						<line fill="none" stroke="#333333" stroke-width="0.9957" stroke-linecap="round" stroke-miterlimit="10" x1="95.118" y1="109.214" x2="95.055" y2="109.243"/>
				</g>
			</g>
		</g>
		<g>
			
				<path fill="#A1C453" stroke="#333333" stroke-width="1.4936" stroke-linecap="round" stroke-linejoin="round" stroke-miterlimit="10" d="
				M89.441,99.077c1.181,2.786,3.338,3.528,1.087,9.471c-2.252,5.942-5.33,1.727-6.812,5.638c1.48-3.911-3.655-3.06-1.487-8.781
				C84.398,99.681,86.835,100.604,89.441,99.077z"/>
			<g>
				<line fill="none" x1="83.717" y1="114.186" x2="88.153" y2="102.479"/>
				<g>
					<polyline fill="none" stroke="#333333" stroke-width="0.9957" stroke-linecap="round" stroke-miterlimit="10" points="
						83.893,113.72 84.122,113.117 87.224,104.931 87.423,104.406 					"/>
					
						<line fill="none" stroke="#333333" stroke-width="0.9957" stroke-linecap="round" stroke-miterlimit="10" x1="87.977" y1="102.944" x2="87.952" y2="103.01"/>
				</g>
			</g>
		</g>
		<g>
			
				<path fill="#A1C453" stroke="#333333" stroke-width="1.4936" stroke-linecap="round" stroke-linejoin="round" stroke-miterlimit="10" d="
				M96.066,118.041c-2.097,1.119-2.525,2.859-7.334,1.514c-4.807-1.347-1.724-4.05-4.889-4.936c3.165,0.886,2.138-3.074,6.768-1.778
				C95.241,114.137,94.69,116.108,96.066,118.041z"/>
			<g>
				<line fill="none" x1="83.844" y1="114.619" x2="93.315" y2="117.271"/>
				<g>
					<polyline fill="none" stroke="#333333" stroke-width="0.9957" stroke-linecap="round" stroke-miterlimit="10" points="
						84.323,114.754 84.944,114.928 90.791,116.564 91.331,116.716 					"/>
					
						<line fill="none" stroke="#333333" stroke-width="0.9957" stroke-linecap="round" stroke-miterlimit="10" x1="92.836" y1="117.137" x2="92.769" y2="117.118"/>
				</g>
			</g>
		</g>
		<g>
			<g>
				<path fill="#EF4529" d="M71.829,140.32c1.516,3.147-0.331,8.389-2.953,8.441c-1.83,2.273-6.924,0.191-8.439-2.955
					c-1.515-3.146-1.47-6.998,3.488-7.82C67.469,134.76,70.314,137.175,71.829,140.32z"/>
				<g>
					<path fill="none" stroke="#333333" stroke-width="1.4936" stroke-linecap="round" stroke-miterlimit="10" d="M72.096,141.017
						c0.083,0.313,0.171,0.623,0.204,0.945c0.211,1.52-0.064,3.092-0.705,4.479c-0.328,0.688-0.763,1.349-1.378,1.813
						c-0.313,0.217-0.656,0.411-1.038,0.464l-0.284,0.04c-0.079,0.046-0.139,0.129-0.21,0.191c-0.126,0.147-0.282,0.258-0.451,0.352
						c-0.66,0.396-1.468,0.467-2.222,0.375c-0.761-0.094-1.497-0.34-2.188-0.671c-1.358-0.686-2.605-1.707-3.318-3.074
						c-0.673-1.359-1.122-2.912-0.861-4.438c0.133-0.754,0.487-1.471,1.027-2.017c0.532-0.559,1.237-0.918,1.958-1.162
						c0.358-0.138,0.736-0.21,1.111-0.289c0.204-0.004,0.329-0.175,0.481-0.286c0.151-0.117,0.289-0.254,0.451-0.355
						c0.62-0.447,1.336-0.779,2.095-0.884c0.76-0.108,1.546,0.065,2.211,0.443c0.171,0.076,0.332,0.213,0.473,0.304
						c0.075,0.054,0.152,0.104,0.22,0.168c0.137,0.123,0.282,0.238,0.412,0.368"/>
					
						<line fill="none" stroke="#333333" stroke-width="1.4936" stroke-linecap="round" stroke-miterlimit="10" x1="71.481" y1="139.659" x2="71.428" y2="139.569"/>
				</g>
			</g>
			
				<ellipse transform="matrix(0.1633 -0.9866 0.9866 0.1633 -89.0138 180.3484)" opacity="0.5" fill="#FFFFFF" enable-background="new    " cx="61.821" cy="142.654" rx="1.447" ry="1.191"/>
		</g>
		<g>
			<g>
				<path fill="#D3F46C" d="M92.104,120.158c-0.021,3.492-3.979,7.39-6.357,6.285c-2.644,1.241-6.307-2.866-6.285-6.358
					c0.02-3.491,1.751-6.933,6.564-5.493C90.627,113.249,92.124,116.668,92.104,120.158z"/>
				<g>
					<path fill="none" stroke="#333333" stroke-width="1.4936" stroke-linecap="round" stroke-miterlimit="10" d="M92.038,120.901
						c-0.063,0.316-0.12,0.635-0.232,0.938c-0.478,1.457-1.416,2.749-2.601,3.714c-0.597,0.475-1.278,0.877-2.034,1.024
						c-0.376,0.057-0.771,0.08-1.136-0.041l-0.273-0.088c-0.091,0.009-0.182,0.055-0.271,0.081c-0.179,0.076-0.366,0.106-0.56,0.117
						c-0.769,0.067-1.523-0.225-2.161-0.638c-0.643-0.419-1.194-0.963-1.67-1.563c-0.92-1.213-1.591-2.678-1.631-4.219
						c-0.008-1.518,0.27-3.109,1.174-4.365c0.451-0.619,1.083-1.107,1.809-1.36c0.723-0.269,1.514-0.281,2.269-0.184
						c0.383,0.034,0.753,0.135,1.125,0.228c0.186,0.087,0.373-0.013,0.559-0.045c0.188-0.039,0.37-0.102,0.562-0.121
						c0.754-0.13,1.542-0.113,2.271,0.125c0.729,0.237,1.359,0.737,1.792,1.369c0.12,0.144,0.205,0.336,0.291,0.48
						c0.044,0.08,0.093,0.159,0.124,0.246c0.069,0.172,0.149,0.338,0.208,0.513"/>
					
						<line fill="none" stroke="#333333" stroke-width="1.4936" stroke-linecap="round" stroke-miterlimit="10" x1="92.082" y1="119.412" x2="92.073" y2="119.308"/>
				</g>
			</g>
			
				<ellipse transform="matrix(0.5801 -0.8146 0.8146 0.5801 -61.5337 116.3549)" opacity="0.5" fill="#FFFFFF" enable-background="new    " cx="82.084" cy="117.858" rx="1.446" ry="1.19"/>
		</g>
		<path fill="#CC924C" stroke="#333333" stroke-width="2.6551" stroke-linecap="round" stroke-miterlimit="10" d="M96.276,176.054
			L70.558,98.051c-0.32-0.989-1.381-1.532-2.371-1.213l0,0c-0.989,0.319-1.533,1.381-1.213,2.37l24.771,78.31"/>
		<g>
			
				<path fill="#A1C453" stroke="#333333" stroke-width="0.9957" stroke-linecap="round" stroke-linejoin="round" stroke-miterlimit="10" d="
				M66.758,97.142c0,0,0.226-2.923,0.424-3.487c0.156-0.453,1.715,2.27,2.097,3.348L66.758,97.142z"/>
			
				<path fill="#A1C453" stroke="#333333" stroke-width="0.9957" stroke-linecap="round" stroke-linejoin="round" stroke-miterlimit="10" d="
				M68.888,96.205l-1.834,4.12c0,0-2-4.017-1.419-5.803C65.635,94.522,67.45,95.723,68.888,96.205z"/>
			
				<path fill="#A1C453" stroke="#333333" stroke-width="0.9957" stroke-linecap="round" stroke-linejoin="round" stroke-miterlimit="10" d="
				M71.088,101.117c0,0,0.529-5.545-1.938-7.73l-1.557,4.028L71.088,101.117z"/>
		</g>
	</g>
</g>
<g id="calque09">
	<g>
		
			<polygon fill="#CC924C" stroke="#333333" stroke-width="0.9957" stroke-linecap="round" stroke-linejoin="round" stroke-miterlimit="10" points="
			63.737,109.391 71.85,113.854 70.986,111.182 		"/>
		
			<polygon fill="#CC924C" stroke="#333333" stroke-width="0.7966" stroke-linecap="round" stroke-linejoin="round" stroke-miterlimit="10" points="
			83.715,114.186 78.877,123.817 78.013,121.144 		"/>
		
			<polygon fill="#CC924C" stroke="#333333" stroke-width="0.9957" stroke-linecap="round" stroke-linejoin="round" stroke-miterlimit="10" points="
			64.719,137.249 82.224,146.431 81.36,143.758 		"/>
		
			<polygon fill="#CC924C" stroke="#333333" stroke-width="0.9957" stroke-linecap="round" stroke-linejoin="round" stroke-miterlimit="10" points="
			92.298,148.197 89.359,154.965 88.802,153.24 		"/>
		<g>
			
				<path fill="#A1C453" stroke="#333333" stroke-width="1.4936" stroke-linecap="round" stroke-linejoin="round" stroke-miterlimit="10" d="
				M72.14,158.183c2.136-1.619,2.305-3.633,7.899-2.99c5.594,0.642,2.642,4.202,6.32,4.626c-3.68-0.424-1.832,3.805-7.221,3.186
				C73.753,162.385,74.017,160.091,72.14,158.183z"/>
			<g>
				<line fill="none" x1="86.36" y1="159.818" x2="75.34" y2="158.551"/>
				<g>
					<polyline fill="none" stroke="#333333" stroke-width="0.9957" stroke-linecap="round" stroke-miterlimit="10" points="
						85.866,159.762 85.225,159.688 77.945,158.851 77.388,158.786 					"/>
					
						<line fill="none" stroke="#333333" stroke-width="0.9957" stroke-linecap="round" stroke-miterlimit="10" x1="75.834" y1="158.607" x2="75.904" y2="158.615"/>
				</g>
			</g>
		</g>
		<g>
			
				<path fill="#A1C453" stroke="#333333" stroke-width="1.4936" stroke-linecap="round" stroke-linejoin="round" stroke-miterlimit="10" d="
				M51.897,101.344c0.562,2.621-0.627,4.258,4.031,7.422c4.656,3.166,4.744-1.459,7.809,0.625c-3.063-2.084,1.097-4.079-3.39-7.127
				C55.863,99.215,54.564,101.123,51.897,101.344z"/>
			<g>
				<line fill="none" x1="63.737" y1="109.391" x2="54.563" y2="103.154"/>
				<g>
					<polyline fill="none" stroke="#333333" stroke-width="0.9957" stroke-linecap="round" stroke-miterlimit="10" points="
						63.326,109.11 62.792,108.748 56.731,104.628 56.268,104.313 					"/>
					
						<line fill="none" stroke="#333333" stroke-width="0.9957" stroke-linecap="round" stroke-miterlimit="10" x1="54.974" y1="103.435" x2="55.032" y2="103.474"/>
				</g>
			</g>
		</g>
		<g>
			
				<path fill="#A1C453" stroke="#333333" stroke-width="1.4936" stroke-linecap="round" stroke-linejoin="round" stroke-miterlimit="10" d="
				M56.881,123.137c2.898,0.857,4.844-0.336,8.002,5.178s-2.052,5.213,0.026,8.84c-2.078-3.627-4.686,0.881-7.727-4.43
				S56.402,126.119,56.881,123.137z"/>
			<g>
				<line fill="none" x1="64.909" y1="137.154" x2="58.687" y2="126.293"/>
				<g>
					<polyline fill="none" stroke="#333333" stroke-width="0.9957" stroke-linecap="round" stroke-miterlimit="10" points="
						64.662,136.723 64.341,136.162 59.99,128.568 59.711,128.082 					"/>
					
						<line fill="none" stroke="#333333" stroke-width="0.9957" stroke-linecap="round" stroke-miterlimit="10" x1="58.934" y1="126.725" x2="58.969" y2="126.786"/>
				</g>
			</g>
		</g>
		<g>
			
				<path fill="#A1C453" stroke="#333333" stroke-width="1.4936" stroke-linecap="round" stroke-linejoin="round" stroke-miterlimit="10" d="
				M49.395,133.356c2.657-1.444,3.188-3.665,9.319-1.998c6.132,1.665,2.235,5.137,6.271,6.231c-4.035-1.095-2.69,3.936-8.596,2.331
				C50.481,138.316,51.165,135.803,49.395,133.356z"/>
			<g>
				<line fill="none" x1="64.985" y1="137.59" x2="52.903" y2="134.31"/>
				<g>
					<polyline fill="none" stroke="#333333" stroke-width="0.9957" stroke-linecap="round" stroke-miterlimit="10" points="
						64.505,137.459 63.882,137.29 55.434,134.996 54.893,134.85 					"/>
					
						<line fill="none" stroke="#333333" stroke-width="0.9957" stroke-linecap="round" stroke-miterlimit="10" x1="53.384" y1="134.44" x2="53.451" y2="134.458"/>
				</g>
			</g>
		</g>
		<g>
			
				<path fill="#A1C453" stroke="#333333" stroke-width="1.4936" stroke-linecap="round" stroke-linejoin="round" stroke-miterlimit="10" d="
				M96.373,136.561c-2.152,1.061-3.833,0.389-5.562,5.124c-1.728,4.734,2.307,3.799,1.168,6.915
				c1.139-3.116,3.779,0.058,5.444-4.503S97.147,138.829,96.373,136.561z"/>
			<g>
				<line fill="none" x1="91.98" y1="148.6" x2="95.384" y2="139.271"/>
				<g>
					<polyline fill="none" stroke="#333333" stroke-width="0.9957" stroke-linecap="round" stroke-miterlimit="10" points="
						92.151,148.132 92.372,147.525 94.485,141.733 94.677,141.207 					"/>
					
						<line fill="none" stroke="#333333" stroke-width="0.9957" stroke-linecap="round" stroke-miterlimit="10" x1="95.213" y1="139.738" x2="95.189" y2="139.804"/>
				</g>
			</g>
		</g>
		<g>
			
				<path fill="#A1C453" stroke="#333333" stroke-width="1.4936" stroke-linecap="round" stroke-linejoin="round" stroke-miterlimit="10" d="
				M103.599,143.543c-2.271-0.772-2.983-2.435-7.555-0.309c-4.57,2.127-1.058,4.316-4.063,5.716
				c3.007-1.399,2.632,2.714,7.032,0.666C103.415,147.568,102.543,145.694,103.599,143.543z"/>
			<g>
				<line fill="none" x1="91.98" y1="148.95" x2="100.983" y2="144.761"/>
				<g>
					<polyline fill="none" stroke="#333333" stroke-width="0.9957" stroke-linecap="round" stroke-miterlimit="10" points="
						92.432,148.74 93.017,148.468 98.606,145.867 99.114,145.631 					"/>
					
						<line fill="none" stroke="#333333" stroke-width="0.9957" stroke-linecap="round" stroke-miterlimit="10" x1="100.532" y1="144.971" x2="100.469" y2="145"/>
				</g>
			</g>
		</g>
		<g>
			
				<path fill="#A1C453" stroke="#333333" stroke-width="1.4936" stroke-linecap="round" stroke-linejoin="round" stroke-miterlimit="10" d="
				M98.884,107.519c-1.134,2.804-0.134,4.854-5.926,7.464c-5.795,2.61-4.99-2.547-8.804-0.828c3.813-1.719-0.422-4.748,5.156-7.261
				C94.893,104.379,95.962,106.754,98.884,107.519z"/>
			<g>
				<line fill="none" x1="84.155" y1="114.154" x2="95.569" y2="109.012"/>
				<g>
					<polyline fill="none" stroke="#333333" stroke-width="0.9957" stroke-linecap="round" stroke-miterlimit="10" points="
						84.609,113.95 85.197,113.685 93.179,110.089 93.69,109.858 					"/>
					
						<line fill="none" stroke="#333333" stroke-width="0.9957" stroke-linecap="round" stroke-miterlimit="10" x1="95.115" y1="109.216" x2="95.052" y2="109.245"/>
				</g>
			</g>
		</g>
		<g>
			
				<path fill="#A1C453" stroke="#333333" stroke-width="1.4936" stroke-linecap="round" stroke-linejoin="round" stroke-miterlimit="10" d="
				M89.438,99.078c1.181,2.785,3.338,3.529,1.086,9.471c-2.251,5.942-5.329,1.727-6.81,5.637c1.479-3.91-3.656-3.059-1.488-8.78
				C84.396,99.682,86.831,100.605,89.438,99.078z"/>
			<g>
				<line fill="none" x1="83.715" y1="114.186" x2="88.149" y2="102.479"/>
				<g>
					<polyline fill="none" stroke="#333333" stroke-width="0.9957" stroke-linecap="round" stroke-miterlimit="10" points="
						83.891,113.72 84.12,113.117 87.221,104.932 87.419,104.407 					"/>
					
						<line fill="none" stroke="#333333" stroke-width="0.9957" stroke-linecap="round" stroke-miterlimit="10" x1="87.973" y1="102.945" x2="87.948" y2="103.011"/>
				</g>
			</g>
		</g>
		<g>
			
				<path fill="#A1C453" stroke="#333333" stroke-width="1.4936" stroke-linecap="round" stroke-linejoin="round" stroke-miterlimit="10" d="
				M96.063,118.042c-2.096,1.119-2.526,2.858-7.333,1.513c-4.809-1.346-1.726-4.049-4.888-4.935
				c3.162,0.886,2.137-3.075,6.766-1.778C95.239,114.139,94.688,116.109,96.063,118.042z"/>
			<g>
				<line fill="none" x1="83.843" y1="114.62" x2="93.313" y2="117.271"/>
				<g>
					<polyline fill="none" stroke="#333333" stroke-width="0.9957" stroke-linecap="round" stroke-miterlimit="10" points="
						84.322,114.754 84.943,114.928 90.789,116.564 91.328,116.716 					"/>
					
						<line fill="none" stroke="#333333" stroke-width="0.9957" stroke-linecap="round" stroke-miterlimit="10" x1="92.834" y1="117.138" x2="92.767" y2="117.118"/>
				</g>
			</g>
		</g>
		<g>
			<g>
				<path fill="#EF4529" d="M71.827,140.32c1.514,3.148-0.332,8.39-2.954,8.442c-1.83,2.273-6.926,0.192-8.438-2.956
					c-1.515-3.146-1.471-6.997,3.486-7.818C67.466,134.761,70.312,137.176,71.827,140.32z"/>
				<g>
					<path fill="none" stroke="#333333" stroke-width="1.4936" stroke-linecap="round" stroke-miterlimit="10" d="M72.094,141.018
						c0.083,0.312,0.171,0.622,0.203,0.944c0.21,1.52-0.065,3.092-0.705,4.479c-0.327,0.688-0.763,1.35-1.377,1.814
						c-0.313,0.217-0.656,0.411-1.038,0.463l-0.285,0.041c-0.079,0.045-0.139,0.129-0.21,0.191
						c-0.126,0.146-0.282,0.257-0.451,0.351c-0.661,0.398-1.468,0.468-2.222,0.376c-0.761-0.093-1.497-0.339-2.188-0.67
						c-1.358-0.686-2.604-1.707-3.317-3.074c-0.673-1.36-1.123-2.913-0.862-4.438c0.133-0.755,0.486-1.472,1.026-2.018
						c0.532-0.559,1.236-0.918,1.958-1.161c0.358-0.138,0.735-0.21,1.11-0.29c0.205-0.004,0.329-0.175,0.482-0.285
						c0.151-0.118,0.288-0.254,0.451-0.355c0.62-0.448,1.336-0.779,2.095-0.885c0.76-0.107,1.545,0.065,2.211,0.443
						c0.171,0.076,0.332,0.212,0.472,0.304c0.076,0.053,0.153,0.104,0.221,0.167c0.137,0.124,0.282,0.238,0.412,0.369"/>
					
						<line fill="none" stroke="#333333" stroke-width="1.4936" stroke-linecap="round" stroke-miterlimit="10" x1="71.479" y1="139.659" x2="71.426" y2="139.569"/>
				</g>
			</g>
			
				<ellipse transform="matrix(0.164 -0.9865 0.9865 0.164 -89.0364 180.2426)" opacity="0.5" fill="#FFFFFF" enable-background="new    " cx="61.822" cy="142.651" rx="1.447" ry="1.19"/>
		</g>
		<g>
			<g>
				<path fill="#EF4529" d="M92.269,120.104c-0.021,3.492-3.979,7.39-6.357,6.286c-2.643,1.24-6.306-2.867-6.285-6.359
					c0.021-3.491,1.752-6.932,6.565-5.493C90.792,113.195,92.29,116.614,92.269,120.104z"/>
				<g>
					<path fill="none" stroke="#333333" stroke-width="1.4936" stroke-linecap="round" stroke-miterlimit="10" d="M92.203,120.848
						c-0.063,0.316-0.12,0.635-0.232,0.938c-0.478,1.457-1.416,2.749-2.6,3.715c-0.597,0.474-1.278,0.876-2.034,1.023
						c-0.376,0.058-0.771,0.081-1.136-0.04l-0.273-0.088c-0.091,0.008-0.182,0.055-0.272,0.08c-0.178,0.077-0.365,0.107-0.559,0.117
						c-0.769,0.067-1.524-0.225-2.161-0.638c-0.642-0.419-1.194-0.963-1.67-1.563c-0.92-1.213-1.591-2.678-1.632-4.219
						c-0.008-1.517,0.271-3.109,1.174-4.364c0.451-0.619,1.083-1.107,1.809-1.361c0.723-0.268,1.514-0.281,2.269-0.184
						c0.383,0.034,0.753,0.135,1.125,0.228c0.186,0.087,0.373-0.013,0.559-0.045c0.188-0.039,0.37-0.102,0.562-0.121
						c0.754-0.13,1.542-0.113,2.271,0.125c0.729,0.237,1.359,0.737,1.792,1.369c0.12,0.144,0.205,0.336,0.291,0.48
						c0.044,0.081,0.093,0.159,0.124,0.246c0.069,0.171,0.149,0.338,0.208,0.513"/>
					
						<line fill="none" stroke="#333333" stroke-width="1.4936" stroke-linecap="round" stroke-miterlimit="10" x1="92.247" y1="119.358" x2="92.238" y2="119.254"/>
				</g>
			</g>
			
				<ellipse transform="matrix(0.5798 -0.8147 0.8147 0.5798 -61.4212 116.5069)" opacity="0.5" fill="#FFFFFF" enable-background="new    " cx="82.25" cy="117.805" rx="1.446" ry="1.19"/>
		</g>
		<path fill="#CC924C" stroke="#333333" stroke-width="2.6551" stroke-linecap="round" stroke-miterlimit="10" d="M96.272,176.055
			L70.554,98.052c-0.319-0.989-1.38-1.532-2.37-1.213l0,0c-0.989,0.319-1.532,1.381-1.213,2.37l24.771,78.309"/>
		<g>
			
				<path fill="#A1C453" stroke="#333333" stroke-width="0.9957" stroke-linecap="round" stroke-linejoin="round" stroke-miterlimit="10" d="
				M66.755,97.143c0,0,0.227-2.924,0.424-3.486c0.156-0.453,1.714,2.27,2.097,3.346L66.755,97.143z"/>
			
				<path fill="#A1C453" stroke="#333333" stroke-width="0.9957" stroke-linecap="round" stroke-linejoin="round" stroke-miterlimit="10" d="
				M68.885,96.206l-1.834,4.12c0,0-2-4.018-1.419-5.803C65.632,94.523,67.446,95.725,68.885,96.206z"/>
			
				<path fill="#A1C453" stroke="#333333" stroke-width="0.9957" stroke-linecap="round" stroke-linejoin="round" stroke-miterlimit="10" d="
				M71.085,101.119c0,0,0.53-5.547-1.937-7.732l-1.559,4.029L71.085,101.119z"/>
		</g>
	</g>
</g>
</svg>
