<?xml version="1.0" encoding="utf-8"?>
<!-- Generator: Adobe Illustrator 16.0.0, SVG Export Plug-In . SVG Version: 6.00 Build 0)  -->
<!DOCTYPE svg PUBLIC "-//W3C//DTD SVG 1.1//EN" "http://www.w3.org/Graphics/SVG/1.1/DTD/svg11.dtd">
<svg version="1.1" id="Calque_1" xmlns="http://www.w3.org/2000/svg" xmlns:xlink="http://www.w3.org/1999/xlink" x="0px" y="0px"
	 width="400px" height="400px" viewBox="0 0 400 400" enable-background="new 0 0 400 400" xml:space="preserve">
<g id="calque00">
	<g>
		<path fill="#CC924C" stroke="#333333" stroke-width="2.6539" stroke-linecap="round" stroke-miterlimit="10" d="M307.141,205.127
			l5.085-7.912c0.545-0.965,1.77-1.307,2.736-0.759l0,0c0.962,0.544,1.303,1.77,0.759,2.735l-4.162,8.434"/>
		<g>
			
				<path fill="#A1C453" stroke="#333333" stroke-width="1.0616" stroke-linecap="round" stroke-linejoin="round" stroke-miterlimit="10" d="
				M316.388,197.078c0,0,0.391-3.1,0.307-3.73c-0.068-0.509-2.278,2-2.907,3.045L316.388,197.078z"/>
			
				<path fill="#A1C453" stroke="#333333" stroke-width="1.0616" stroke-linecap="round" stroke-linejoin="round" stroke-miterlimit="10" d="
				M314.364,195.645l1.032,4.695c0,0,2.948-3.768,2.726-5.756C318.121,194.584,315.971,195.448,314.364,195.645z"/>
			
				<path fill="#A1C453" stroke="#333333" stroke-width="1.0616" stroke-linecap="round" stroke-linejoin="round" stroke-miterlimit="10" d="
				M311.014,200.305c0,0,0.635-5.908,3.678-7.66l0.764,4.54L311.014,200.305z"/>
		</g>
	</g>
</g>
<g id="calque01">
	<g>
		<g>
			
				<path fill="#A1C453" stroke="#333333" stroke-width="1.0616" stroke-linecap="round" stroke-linejoin="round" stroke-miterlimit="10" d="
				M314.751,181.422c1.167,0.6,2.092,0.246,2.993,2.846c0.904,2.602-1.288,2.055-0.694,3.768c-0.594-1.713-2.065,0-2.935-2.504
				C313.242,183.025,314.31,182.654,314.751,181.422z"/>
			<g>
				<line fill="none" x1="317.05" y1="188.035" x2="315.27" y2="182.91"/>
				<g>
					<polyline fill="none" stroke="#333333" stroke-width="1.0616" stroke-linecap="round" stroke-miterlimit="10" points="
						316.876,187.534 316.65,186.884 316.187,185.551 315.99,184.986 					"/>
					
						<line fill="none" stroke="#333333" stroke-width="1.0616" stroke-linecap="round" stroke-miterlimit="10" x1="315.443" y1="183.411" x2="315.468" y2="183.482"/>
				</g>
			</g>
		</g>
		<path fill="#CC924C" stroke="#333333" stroke-width="2.6539" stroke-linecap="round" stroke-miterlimit="10" d="M311.559,207.625
			l13.912-25.672c0.546-0.963,0.205-2.188-0.762-2.734l0,0c-0.963-0.546-2.188-0.205-2.732,0.758l-14.836,25.15"/>
		<g>
			
				<path fill="#A1C453" stroke="#333333" stroke-width="1.0616" stroke-linecap="round" stroke-linejoin="round" stroke-miterlimit="10" d="
				M323.44,178.316c0,0,2.457-1.932,3.042-2.183c0.471-0.204-0.543,2.981-1.113,4.06L323.44,178.316z"/>
			
				<path fill="#A1C453" stroke="#333333" stroke-width="1.0616" stroke-linecap="round" stroke-linejoin="round" stroke-miterlimit="10" d="
				M325.713,179.313l-4.558,1.535c0,0,1.71-4.469,3.529-5.303C324.686,175.545,325.054,177.836,325.713,179.313z"/>
			
				<path fill="#A1C453" stroke="#333333" stroke-width="1.0616" stroke-linecap="round" stroke-linejoin="round" stroke-miterlimit="10" d="
				M323.447,184.584c0,0,4.732-3.587,4.668-7.1l-4.285,1.687L323.447,184.584z"/>
		</g>
	</g>
</g>
<g id="calque02">
	<g>
		<g>
			
				<path fill="#A1C453" stroke="#333333" stroke-width="1.5923" stroke-linecap="round" stroke-linejoin="round" stroke-miterlimit="10" d="
				M313.08,172.428c2.54,1.301,4.555,0.531,6.529,6.203c1.969,5.668-2.815,4.481-1.52,8.213c-1.297-3.731-4.502-0.001-6.4-5.461
				C309.79,175.922,312.115,175.111,313.08,172.428z"/>
			<g>
				<line fill="none" x1="318.091" y1="186.844" x2="314.205" y2="175.672"/>
				<g>
					<polyline fill="none" stroke="#333333" stroke-width="1.0616" stroke-linecap="round" stroke-miterlimit="10" points="
						317.915,186.343 317.69,185.693 315.123,178.313 314.928,177.748 					"/>
					
						<line fill="none" stroke="#333333" stroke-width="1.0616" stroke-linecap="round" stroke-miterlimit="10" x1="314.381" y1="176.173" x2="314.405" y2="176.244"/>
				</g>
			</g>
		</g>
		<g>
			
				<path fill="#A1C453" stroke="#333333" stroke-width="1.0616" stroke-linecap="round" stroke-linejoin="round" stroke-miterlimit="10" d="
				M333.938,176.346c-0.514,1.18-0.114,2.064-2.608,3.104c-2.497,1.039-2.092-1.144-3.733-0.461
				c1.643-0.683-0.121-2.023,2.282-3.021C332.28,174.965,332.706,175.986,333.938,176.346z"/>
			<g>
				<line fill="none" x1="327.595" y1="178.988" x2="331.977" y2="177.201"/>
				<g>
					<polyline fill="none" stroke="#333333" stroke-width="1.0616" stroke-linecap="round" stroke-miterlimit="10" points="
						328.086,178.788 328.723,178.528 329.389,178.257 329.941,178.031 					"/>
					
						<line fill="none" stroke="#333333" stroke-width="1.0616" stroke-linecap="round" stroke-miterlimit="10" x1="331.485" y1="177.401" x2="331.415" y2="177.43"/>
				</g>
			</g>
		</g>
		<path fill="#CC924C" stroke="#333333" stroke-width="2.6539" stroke-linecap="round" stroke-miterlimit="10" d="M311.559,207.625
			l18.403-33.612c0.546-0.964,0.203-2.188-0.763-2.735l0,0c-0.962-0.545-2.188-0.203-2.732,0.762l-19.326,33.088"/>
		<g>
			
				<path fill="#A1C453" stroke="#333333" stroke-width="1.0616" stroke-linecap="round" stroke-linejoin="round" stroke-miterlimit="10" d="
				M327.935,170.376c0,0,2.455-1.933,3.04-2.185c0.468-0.203-0.545,2.983-1.113,4.063L327.935,170.376z"/>
			
				<path fill="#A1C453" stroke="#333333" stroke-width="1.0616" stroke-linecap="round" stroke-linejoin="round" stroke-miterlimit="10" d="
				M330.205,171.373l-4.56,1.533c0,0,1.71-4.468,3.532-5.301C329.179,167.605,329.547,169.896,330.205,171.373z"/>
			
				<path fill="#A1C453" stroke="#333333" stroke-width="1.0616" stroke-linecap="round" stroke-linejoin="round" stroke-miterlimit="10" d="
				M327.938,176.645c0,0,4.733-3.588,4.668-7.098l-4.285,1.684L327.938,176.645z"/>
		</g>
	</g>
</g>
<g id="calque03">
	<g>
		
			<polygon fill="#CC924C" stroke="#333333" stroke-width="1.0616" stroke-linecap="round" stroke-linejoin="round" stroke-miterlimit="10" points="
			333.873,175.795 326.096,180.85 327.569,178.243 		"/>
		<g>
			
				<path fill="#A1C453" stroke="#333333" stroke-width="1.5923" stroke-linecap="round" stroke-linejoin="round" stroke-miterlimit="10" d="
				M313.078,172.428c2.542,1.301,4.559,0.533,6.531,6.203c1.969,5.668-2.815,4.481-1.52,8.213c-1.297-3.731-4.502,0-6.4-5.461
				C309.79,175.922,312.115,175.111,313.078,172.428z"/>
			<g>
				<line fill="none" x1="318.091" y1="186.844" x2="314.159" y2="175.502"/>
				<g>
					<polyline fill="none" stroke="#333333" stroke-width="1.0616" stroke-linecap="round" stroke-miterlimit="10" points="
						317.916,186.342 317.691,185.692 315.074,178.144 314.88,177.578 					"/>
					
						<line fill="none" stroke="#333333" stroke-width="1.0616" stroke-linecap="round" stroke-miterlimit="10" x1="314.334" y1="176.004" x2="314.358" y2="176.074"/>
				</g>
			</g>
		</g>
		<g>
			
				<path fill="#A1C453" stroke="#333333" stroke-width="1.5923" stroke-linecap="round" stroke-linejoin="round" stroke-miterlimit="10" d="
				M347.962,169.928c-1.146,2.618-0.26,4.58-5.801,6.889c-5.541,2.308-4.644-2.54-8.288-1.021c3.646-1.519-0.271-4.494,5.065-6.717
				C344.276,166.854,345.224,169.127,347.962,169.928z"/>
			<g>
				<line fill="none" x1="333.825" y1="175.625" x2="344.741" y2="171.078"/>
				<g>
					<polyline fill="none" stroke="#333333" stroke-width="1.0616" stroke-linecap="round" stroke-miterlimit="10" points="
						334.316,175.421 334.95,175.156 342.161,172.153 342.713,171.923 					"/>
					
						<line fill="none" stroke="#333333" stroke-width="1.0616" stroke-linecap="round" stroke-miterlimit="10" x1="344.252" y1="171.282" x2="344.184" y2="171.311"/>
				</g>
			</g>
		</g>
		<g>
			
				<path fill="#A1C453" stroke="#333333" stroke-width="1.0616" stroke-linecap="round" stroke-linejoin="round" stroke-miterlimit="10" d="
				M322.774,161.826c1.58,0.541,2.682-0.074,4.298,3.043c1.618,3.117-1.254,2.83-0.189,4.881c-1.063-2.051-2.606,0.379-4.163-2.623
				C321.161,164.123,322.441,163.46,322.774,161.826z"/>
			<g>
				<line fill="none" x1="326.882" y1="169.75" x2="323.698" y2="163.609"/>
				<g>
					<polyline fill="none" stroke="#333333" stroke-width="1.0616" stroke-linecap="round" stroke-miterlimit="10" points="
						326.638,169.279 326.321,168.668 324.985,166.091 324.711,165.561 					"/>
					
						<line fill="none" stroke="#333333" stroke-width="1.0616" stroke-linecap="round" stroke-miterlimit="10" x1="323.943" y1="164.08" x2="323.978" y2="164.146"/>
				</g>
			</g>
		</g>
		<path fill="#CC924C" stroke="#333333" stroke-width="2.8307" stroke-linecap="round" stroke-miterlimit="10" d="M311.559,207.625
			l22.568-40.973c0.545-0.963,0.202-2.188-0.763-2.734l0,0c-0.967-0.547-2.188-0.205-2.733,0.759l-23.49,40.45"/>
		<g>
			
				<path fill="#A1C453" stroke="#333333" stroke-width="1.0616" stroke-linecap="round" stroke-linejoin="round" stroke-miterlimit="10" d="
				M332.095,163.014c0,0,2.459-1.93,3.043-2.182c0.468-0.205-0.542,2.982-1.113,4.062L332.095,163.014z"/>
			
				<path fill="#A1C453" stroke="#333333" stroke-width="1.0616" stroke-linecap="round" stroke-linejoin="round" stroke-miterlimit="10" d="
				M334.367,164.012l-4.554,1.535c0,0,1.705-4.469,3.525-5.305C333.34,160.242,333.709,162.534,334.367,164.012z"/>
			
				<path fill="#A1C453" stroke="#333333" stroke-width="1.0616" stroke-linecap="round" stroke-linejoin="round" stroke-miterlimit="10" d="
				M332.103,169.285c0,0,4.733-3.589,4.668-7.1l-4.286,1.683L332.103,169.285z"/>
		</g>
	</g>
</g>
<g id="calque04">
	<g>
		
			<polygon fill="#CC924C" stroke="#333333" stroke-width="1.0616" stroke-linecap="round" stroke-linejoin="round" stroke-miterlimit="10" points="
			333.873,175.795 326.096,180.85 327.569,178.243 		"/>
		
			<polygon fill="#CC924C" stroke="#333333" stroke-width="1.0616" stroke-linecap="round" stroke-linejoin="round" stroke-miterlimit="10" points="
			322.372,157.283 325.564,173.632 327.039,171.025 		"/>
		<g>
			
				<path fill="#A1C453" stroke="#333333" stroke-width="1.5923" stroke-linecap="round" stroke-linejoin="round" stroke-miterlimit="10" d="
				M313.078,172.428c2.542,1.301,4.557,0.531,6.529,6.201c1.971,5.67-2.813,4.483-1.518,8.215c-1.297-3.731-4.502,0-6.4-5.461
				C309.79,175.922,312.115,175.111,313.078,172.428z"/>
			<g>
				<line fill="none" x1="318.091" y1="186.844" x2="314.159" y2="175.502"/>
				<g>
					<polyline fill="none" stroke="#333333" stroke-width="1.0616" stroke-linecap="round" stroke-miterlimit="10" points="
						317.916,186.342 317.691,185.692 315.074,178.144 314.88,177.578 					"/>
					
						<line fill="none" stroke="#333333" stroke-width="1.0616" stroke-linecap="round" stroke-miterlimit="10" x1="314.334" y1="176.004" x2="314.358" y2="176.074"/>
				</g>
			</g>
		</g>
		<g>
			
				<path fill="#A1C453" stroke="#333333" stroke-width="1.5923" stroke-linecap="round" stroke-linejoin="round" stroke-miterlimit="10" d="
				M347.962,169.928c-1.146,2.618-0.26,4.58-5.801,6.889c-5.541,2.308-4.644-2.54-8.288-1.021c3.646-1.519-0.271-4.494,5.065-6.717
				C344.276,166.854,345.224,169.127,347.962,169.928z"/>
			<g>
				<line fill="none" x1="333.825" y1="175.625" x2="344.741" y2="171.078"/>
				<g>
					<polyline fill="none" stroke="#333333" stroke-width="1.0616" stroke-linecap="round" stroke-miterlimit="10" points="
						334.316,175.421 334.95,175.156 342.161,172.153 342.713,171.923 					"/>
					
						<line fill="none" stroke="#333333" stroke-width="1.0616" stroke-linecap="round" stroke-miterlimit="10" x1="344.252" y1="171.282" x2="344.184" y2="171.311"/>
				</g>
			</g>
		</g>
		<g>
			
				<path fill="#A1C453" stroke="#333333" stroke-width="1.0616" stroke-linecap="round" stroke-linejoin="round" stroke-miterlimit="10" d="
				M325.291,149.123c0.691,1.408,1.83,1.731,0.836,4.875c-0.997,3.143-2.711,1.047-3.367,3.113c0.656-2.066-1.982-1.48-1.021-4.506
				S323.984,149.987,325.291,149.123z"/>
			<g>
				<line fill="none" x1="322.76" y1="157.111" x2="324.721" y2="150.922"/>
				<g>
					<polyline fill="none" stroke="#333333" stroke-width="1.0616" stroke-linecap="round" stroke-miterlimit="10" points="
						322.92,156.605 323.128,155.949 323.876,153.587 324.057,153.017 					"/>
					
						<line fill="none" stroke="#333333" stroke-width="1.0616" stroke-linecap="round" stroke-miterlimit="10" x1="324.561" y1="151.428" x2="324.537" y2="151.499"/>
				</g>
			</g>
		</g>
		<g>
			
				<path fill="#A1C453" stroke="#333333" stroke-width="1.5923" stroke-linecap="round" stroke-linejoin="round" stroke-miterlimit="10" d="
				M314.367,142.446c3.055,1.044,5.176-0.142,8.294,5.871c3.121,6.015-2.418,5.464-0.363,9.419c-2.055-3.955-5.03,0.729-8.034-5.063
				C311.263,146.881,313.727,145.602,314.367,142.446z"/>
			<g>
				<line fill="none" x1="322.298" y1="157.736" x2="316.151" y2="145.889"/>
				<g>
					<polyline fill="none" stroke="#333333" stroke-width="1.0616" stroke-linecap="round" stroke-miterlimit="10" points="
						322.054,157.266 321.736,156.654 317.438,148.37 317.162,147.84 					"/>
					
						<line fill="none" stroke="#333333" stroke-width="1.0616" stroke-linecap="round" stroke-miterlimit="10" x1="316.396" y1="146.359" x2="316.43" y2="146.426"/>
				</g>
			</g>
		</g>
		<g>
			
				<path fill="#A1C453" stroke="#333333" stroke-width="1.0616" stroke-linecap="round" stroke-linejoin="round" stroke-miterlimit="10" d="
				M350.558,148.344c-0.614,1.352-0.166,2.379-3.063,3.539c-2.895,1.161-2.393-1.352-4.3-0.588c1.907-0.764-0.108-2.336,2.681-3.455
				C348.664,146.721,349.141,147.908,350.558,148.344z"/>
			<g>
				<line fill="none" x1="343.195" y1="151.295" x2="348.9" y2="149.008"/>
				<g>
					<polyline fill="none" stroke="#333333" stroke-width="1.0616" stroke-linecap="round" stroke-miterlimit="10" points="
						343.688,151.098 344.325,150.842 346.306,150.048 346.86,149.825 					"/>
					
						<line fill="none" stroke="#333333" stroke-width="1.0616" stroke-linecap="round" stroke-miterlimit="10" x1="348.407" y1="149.205" x2="348.339" y2="149.233"/>
				</g>
			</g>
		</g>
		<path fill="#CC924C" stroke="#333333" stroke-width="2.8307" stroke-linecap="round" stroke-miterlimit="10" d="M311.559,207.625
			l33.036-59.479c0.546-0.964,0.205-2.19-0.764-2.736l0,0c-0.962-0.545-2.186-0.205-2.731,0.76l-33.959,58.957"/>
		<g>
			
				<path fill="#A1C453" stroke="#333333" stroke-width="1.0616" stroke-linecap="round" stroke-linejoin="round" stroke-miterlimit="10" d="
				M342.564,144.509c0,0,2.457-1.933,3.042-2.185c0.467-0.203-0.544,2.983-1.114,4.063L342.564,144.509z"/>
			
				<path fill="#A1C453" stroke="#333333" stroke-width="1.0616" stroke-linecap="round" stroke-linejoin="round" stroke-miterlimit="10" d="
				M344.836,145.504l-4.557,1.535c0,0,1.709-4.471,3.527-5.303C343.808,141.736,344.176,144.029,344.836,145.504z"/>
			
				<path fill="#A1C453" stroke="#333333" stroke-width="1.0616" stroke-linecap="round" stroke-linejoin="round" stroke-miterlimit="10" d="
				M342.57,150.777c0,0,4.733-3.588,4.671-7.101l-4.287,1.687L342.57,150.777z"/>
		</g>
		<g>
			
				<path fill="#FFFFFF" stroke="#333333" stroke-width="1.0616" stroke-linecap="round" stroke-linejoin="round" stroke-miterlimit="10" d="
				M334.814,176.245c-0.473,0.005-0.948,0.823-1.234,1.477c-0.518,1.175-0.163,3.126,1.331,3.112
				c1.502-0.014,1.83-1.971,1.296-3.135C335.91,177.052,335.293,176.24,334.814,176.245z"/>
			
				<path fill="#FFFFFF" stroke="#333333" stroke-width="1.0616" stroke-linecap="round" stroke-linejoin="round" stroke-miterlimit="10" d="
				M334.758,176.134c0.234-0.413-0.237-1.233-0.66-1.808c-0.76-1.035-2.626-1.702-3.358-0.402c-0.741,1.305,0.791,2.568,2.064,2.689
				C333.514,176.68,334.522,176.549,334.758,176.134z"/>
			
				<path fill="#FFFFFF" stroke="#333333" stroke-width="1.0616" stroke-linecap="round" stroke-linejoin="round" stroke-miterlimit="10" d="
				M334.879,176.139c0.238,0.409,1.185,0.409,1.895,0.332c1.276-0.141,2.786-1.423,2.027-2.71c-0.763-1.293-2.619-0.6-3.362,0.444
				C335.028,174.785,334.635,175.727,334.879,176.139z"/>
			
				<path fill="#FFFFFF" stroke="#333333" stroke-width="1.0616" stroke-linecap="round" stroke-linejoin="round" stroke-miterlimit="10" d="
				M334.945,176.283c-0.234,0.412,0.239,1.232,0.66,1.805c0.758,1.036,2.624,1.705,3.36,0.404c0.736-1.307-0.791-2.568-2.067-2.69
				C336.19,175.736,335.181,175.866,334.945,176.283z"/>
			
				<path fill="#FFFFFF" stroke="#333333" stroke-width="1.0616" stroke-linecap="round" stroke-linejoin="round" stroke-miterlimit="10" d="
				M334.822,176.271c-0.241-0.41-1.188-0.41-1.896-0.332c-1.275,0.139-2.784,1.422-2.026,2.711c0.76,1.292,2.617,0.598,3.362-0.445
				C334.673,177.623,335.063,176.683,334.822,176.271z"/>
			
				<path fill="#FFFFFF" stroke="#333333" stroke-width="1.0616" stroke-linecap="round" stroke-linejoin="round" stroke-miterlimit="10" d="
				M334.905,176.169c0.479-0.004,0.952-0.824,1.235-1.478c0.517-1.174,0.162-3.123-1.331-3.111c-1.501,0.014-1.83,1.971-1.297,3.135
				C333.811,175.363,334.429,176.172,334.905,176.169z"/>
			
				<path fill="#F9D53E" stroke="#333333" stroke-width="1.0616" stroke-linecap="round" stroke-linejoin="round" stroke-miterlimit="10" d="
				M334.085,175.797c0.27-0.475,0.87-0.643,1.346-0.375c0.474,0.271,0.642,0.872,0.37,1.346c-0.267,0.477-0.867,0.644-1.342,0.374
				C333.983,176.874,333.816,176.27,334.085,175.797z"/>
		</g>
	</g>
</g>
<g id="calque05">
	<g>
		
			<polygon fill="#CC924C" stroke="#333333" stroke-width="1.0616" stroke-linecap="round" stroke-linejoin="round" stroke-miterlimit="10" points="
			333.873,175.795 326.096,180.85 327.569,178.243 		"/>
		
			<polygon fill="#CC924C" stroke="#333333" stroke-width="1.0616" stroke-linecap="round" stroke-linejoin="round" stroke-miterlimit="10" points="
			348.677,150.837 341.515,153.593 342.988,150.986 		"/>
		
			<polygon fill="#CC924C" stroke="#333333" stroke-width="1.0616" stroke-linecap="round" stroke-linejoin="round" stroke-miterlimit="10" points="
			322.372,157.283 325.564,173.632 327.039,171.025 		"/>
		<g>
			
				<path fill="#A1C453" stroke="#333333" stroke-width="1.5923" stroke-linecap="round" stroke-linejoin="round" stroke-miterlimit="10" d="
				M313.078,172.428c2.542,1.301,4.559,0.533,6.531,6.203c1.969,5.668-2.815,4.481-1.52,8.213c-1.297-3.731-4.502,0-6.4-5.461
				C309.79,175.922,312.116,175.113,313.078,172.428z"/>
			<g>
				<line fill="none" x1="318.091" y1="186.844" x2="314.159" y2="175.502"/>
				<g>
					<polyline fill="none" stroke="#333333" stroke-width="1.0616" stroke-linecap="round" stroke-miterlimit="10" points="
						317.916,186.342 317.691,185.692 315.074,178.144 314.88,177.578 					"/>
					
						<line fill="none" stroke="#333333" stroke-width="1.0616" stroke-linecap="round" stroke-miterlimit="10" x1="314.334" y1="176.004" x2="314.358" y2="176.074"/>
				</g>
			</g>
		</g>
		<g>
			
				<path fill="#A1C453" stroke="#333333" stroke-width="1.5923" stroke-linecap="round" stroke-linejoin="round" stroke-miterlimit="10" d="
				M347.962,169.928c-1.146,2.618-0.26,4.58-5.801,6.889c-5.541,2.308-4.644-2.54-8.288-1.021c3.646-1.519-0.271-4.495,5.065-6.717
				C344.276,166.854,345.224,169.127,347.962,169.928z"/>
			<g>
				<line fill="none" x1="333.825" y1="175.625" x2="344.743" y2="171.078"/>
				<g>
					<polyline fill="none" stroke="#333333" stroke-width="1.0616" stroke-linecap="round" stroke-miterlimit="10" points="
						334.316,175.421 334.95,175.156 342.163,172.152 342.715,171.923 					"/>
					
						<line fill="none" stroke="#333333" stroke-width="1.0616" stroke-linecap="round" stroke-miterlimit="10" x1="344.254" y1="171.282" x2="344.186" y2="171.311"/>
				</g>
			</g>
		</g>
		<g>
			
				<path fill="#A1C453" stroke="#333333" stroke-width="1.5923" stroke-linecap="round" stroke-linejoin="round" stroke-miterlimit="10" d="
				M327.793,140.945c1.418,2.896,3.758,3.56,1.711,10.018c-2.051,6.457-5.572,2.15-6.919,6.4c1.347-4.25-4.071-3.041-2.098-9.258
				C322.457,141.883,325.105,142.725,327.793,140.945z"/>
			<g>
				<line fill="none" x1="322.585" y1="157.363" x2="326.617" y2="144.641"/>
				<g>
					<polyline fill="none" stroke="#333333" stroke-width="1.0616" stroke-linecap="round" stroke-miterlimit="10" points="
						322.744,156.857 322.952,156.202 325.773,147.306 325.953,146.735 					"/>
					
						<line fill="none" stroke="#333333" stroke-width="1.0616" stroke-linecap="round" stroke-miterlimit="10" x1="326.457" y1="145.146" x2="326.436" y2="145.218"/>
				</g>
			</g>
		</g>
		<g>
			
				<path fill="#A1C453" stroke="#333333" stroke-width="1.5923" stroke-linecap="round" stroke-linejoin="round" stroke-miterlimit="10" d="
				M314.369,142.446c3.053,1.044,5.174-0.142,8.294,5.872c3.119,6.014-2.42,5.463-0.365,9.418c-2.055-3.955-5.03,0.729-8.034-5.063
				C311.263,146.881,313.727,145.602,314.369,142.446z"/>
			<g>
				<line fill="none" x1="322.298" y1="157.736" x2="316.153" y2="145.889"/>
				<g>
					<polyline fill="none" stroke="#333333" stroke-width="1.0616" stroke-linecap="round" stroke-miterlimit="10" points="
						322.054,157.266 321.737,156.654 317.44,148.37 317.164,147.84 					"/>
					
						<line fill="none" stroke="#333333" stroke-width="1.0616" stroke-linecap="round" stroke-miterlimit="10" x1="316.397" y1="146.359" x2="316.432" y2="146.426"/>
				</g>
			</g>
		</g>
		<g>
			
				<path fill="#A1C453" stroke="#333333" stroke-width="1.0616" stroke-linecap="round" stroke-linejoin="round" stroke-miterlimit="10" d="
				M341.732,135.601c1.025,0.796,1.989,0.622,2.39,3.319c0.399,2.695-1.633,1.761-1.367,3.535c-0.266-1.774-2.012-0.381-2.396-2.975
				C339.971,136.883,341.076,136.717,341.732,135.601z"/>
			<g>
				<line fill="none" x1="342.754" y1="142.455" x2="341.963" y2="137.144"/>
				<g>
					<polyline fill="none" stroke="#333333" stroke-width="1.0616" stroke-linecap="round" stroke-miterlimit="10" points="
						342.676,141.93 342.573,141.25 342.375,139.908 342.286,139.317 					"/>
					
						<line fill="none" stroke="#333333" stroke-width="1.0616" stroke-linecap="round" stroke-miterlimit="10" x1="342.04" y1="137.669" x2="342.052" y2="137.742"/>
				</g>
			</g>
		</g>
		<g>
			
				<path fill="#A1C453" stroke="#333333" stroke-width="1.0616" stroke-linecap="round" stroke-linejoin="round" stroke-miterlimit="10" d="
				M358.022,147.454c-0.738,1.624-0.201,2.856-3.677,4.253c-3.479,1.396-2.879-1.624-5.166-0.707
				c2.287-0.917-0.133-2.807,3.217-4.15C355.746,145.506,356.319,146.931,358.022,147.454z"/>
			<g>
				<line fill="none" x1="349.18" y1="151" x2="356.03" y2="148.253"/>
				<g>
					<polyline fill="none" stroke="#333333" stroke-width="1.0616" stroke-linecap="round" stroke-miterlimit="10" points="
						349.672,150.803 350.311,150.547 353.436,149.293 353.99,149.071 					"/>
					
						<line fill="none" stroke="#333333" stroke-width="1.0616" stroke-linecap="round" stroke-miterlimit="10" x1="355.536" y1="148.45" x2="355.469" y2="148.479"/>
				</g>
			</g>
		</g>
		<g>
			
				<path fill="#A1C453" stroke="#333333" stroke-width="1.5923" stroke-linecap="round" stroke-linejoin="round" stroke-miterlimit="10" d="
				M354.563,163.313c-2.392-0.839-4.065,0.078-6.481-4.664c-2.411-4.744,1.936-4.275,0.347-7.396
				c1.589,3.121,3.955-0.542,6.277,4.025C357.031,159.848,355.087,160.838,354.563,163.313z"/>
			<g>
				<line fill="none" x1="348.38" y1="151.082" x2="353.134" y2="160.428"/>
				<g>
					<polyline fill="none" stroke="#333333" stroke-width="1.0616" stroke-linecap="round" stroke-miterlimit="10" points="
						348.619,151.555 348.933,152.168 351.865,157.937 352.138,158.469 					"/>
					
						<line fill="none" stroke="#333333" stroke-width="1.0616" stroke-linecap="round" stroke-miterlimit="10" x1="352.894" y1="159.955" x2="352.859" y2="159.888"/>
				</g>
			</g>
		</g>
		<path fill="#CC924C" stroke="#333333" stroke-width="2.8307" stroke-linecap="round" stroke-miterlimit="10" d="M311.559,207.625
			l37.676-67.683c0.547-0.964,0.204-2.189-0.761-2.736l0,0c-0.964-0.544-2.188-0.202-2.733,0.761l-38.6,67.16"/>
		<g>
			<g>
				<path fill="#D3F46C" d="M336.486,181.911c-1.795,1.714-5.745,1.614-6.352-0.147c-1.942-0.74-1.648-4.643,0.147-6.354
					c1.795-1.713,4.408-2.526,6.049,0.646C339.288,177.746,338.281,180.199,336.486,181.911z"/>
				<g>
					<path fill="none" stroke="#333333" stroke-width="1.0616" stroke-linecap="round" stroke-miterlimit="10" d="M336.073,182.244
						c-0.191,0.125-0.384,0.252-0.595,0.345c-0.98,0.476-2.104,0.634-3.183,0.505c-0.537-0.07-1.079-0.221-1.528-0.535
						c-0.215-0.164-0.421-0.354-0.539-0.601l-0.09-0.184c-0.05-0.042-0.118-0.065-0.176-0.099c-0.127-0.054-0.235-0.135-0.336-0.229
						c-0.825-0.762-0.899-1.996-0.769-3.045c0.166-1.068,0.583-2.136,1.354-2.917c0.771-0.753,1.723-1.396,2.811-1.556
						c1.099-0.183,2.195,0.424,2.803,1.322c0.172,0.212,0.304,0.451,0.439,0.688c0.136,0.236,0.438,0.311,0.637,0.491
						c0.438,0.321,0.819,0.733,1.058,1.224c0.238,0.489,0.295,1.059,0.186,1.591c-0.014,0.133-0.07,0.271-0.102,0.387
						c-0.021,0.063-0.036,0.126-0.065,0.186c-0.053,0.119-0.099,0.242-0.159,0.359"/>
					
						<line fill="none" stroke="#333333" stroke-width="1.0616" stroke-linecap="round" stroke-miterlimit="10" x1="336.857" y1="181.531" x2="336.906" y2="181.476"/>
				</g>
			</g>
			<path opacity="0.5" fill="#FFFFFF" enable-background="new    " d="M332.84,176.49c-0.563,0.086-1.07-0.221-1.14-0.682
				c-0.072-0.462,0.328-0.906,0.889-0.99c0.563-0.085,1.072,0.221,1.141,0.682C333.802,175.962,333.402,176.405,332.84,176.49z"/>
		</g>
		<g>
			
				<path fill="#A1C453" stroke="#333333" stroke-width="1.0616" stroke-linecap="round" stroke-linejoin="round" stroke-miterlimit="10" d="
				M347.205,136.305c0,0,2.457-1.932,3.042-2.185c0.47-0.203-0.544,2.983-1.113,4.063L347.205,136.305z"/>
			
				<path fill="#A1C453" stroke="#333333" stroke-width="1.0616" stroke-linecap="round" stroke-linejoin="round" stroke-miterlimit="10" d="
				M349.479,137.301l-4.559,1.533c0,0,1.709-4.467,3.528-5.3C348.448,133.534,348.817,135.824,349.479,137.301z"/>
			
				<path fill="#A1C453" stroke="#333333" stroke-width="1.0616" stroke-linecap="round" stroke-linejoin="round" stroke-miterlimit="10" d="
				M347.21,142.573c0,0,4.732-3.59,4.67-7.101l-4.287,1.686L347.21,142.573z"/>
		</g>
		<g>
			
				<path fill="#FFFFFF" stroke="#333333" stroke-width="1.0616" stroke-linecap="round" stroke-linejoin="round" stroke-miterlimit="10" d="
				M340.528,141.873c-0.476,0.003-0.948,0.823-1.232,1.477c-0.52,1.174-0.162,3.124,1.33,3.11c1.503-0.014,1.828-1.97,1.296-3.136
				C341.622,142.679,341.007,141.867,340.528,141.873z"/>
			
				<path fill="#FFFFFF" stroke="#333333" stroke-width="1.0616" stroke-linecap="round" stroke-linejoin="round" stroke-miterlimit="10" d="
				M340.472,141.76c0.233-0.413-0.239-1.234-0.66-1.807c-0.759-1.036-2.626-1.703-3.36-0.402c-0.738,1.307,0.791,2.567,2.067,2.689
				C339.227,142.306,340.236,142.177,340.472,141.76z"/>
			
				<path fill="#FFFFFF" stroke="#333333" stroke-width="1.0616" stroke-linecap="round" stroke-linejoin="round" stroke-miterlimit="10" d="
				M340.591,141.766c0.24,0.409,1.187,0.408,1.895,0.33c1.276-0.138,2.788-1.422,2.03-2.709c-0.766-1.293-2.622-0.597-3.365,0.444
				C340.738,140.413,340.348,141.354,340.591,141.766z"/>
			
				<path fill="#FFFFFF" stroke="#333333" stroke-width="1.0616" stroke-linecap="round" stroke-linejoin="round" stroke-miterlimit="10" d="
				M340.656,141.908c-0.232,0.414,0.239,1.233,0.66,1.809c0.76,1.035,2.625,1.702,3.362,0.401c0.737-1.307-0.791-2.568-2.067-2.688
				C341.902,141.362,340.895,141.492,340.656,141.908z"/>
			
				<path fill="#FFFFFF" stroke="#333333" stroke-width="1.0616" stroke-linecap="round" stroke-linejoin="round" stroke-miterlimit="10" d="
				M340.533,141.897c-0.24-0.407-1.188-0.407-1.895-0.329c-1.276,0.138-2.789,1.42-2.03,2.707c0.763,1.293,2.621,0.6,3.364-0.445
				C340.384,143.25,340.777,142.311,340.533,141.897z"/>
			
				<path fill="#FFFFFF" stroke="#333333" stroke-width="1.0616" stroke-linecap="round" stroke-linejoin="round" stroke-miterlimit="10" d="
				M340.618,141.795c0.477-0.004,0.948-0.824,1.235-1.476c0.519-1.173,0.162-3.124-1.331-3.112c-1.503,0.014-1.83,1.971-1.297,3.135
				C339.522,140.988,340.143,141.8,340.618,141.795z"/>
			
				<circle fill="#F9D53E" stroke="#333333" stroke-width="1.0616" stroke-linecap="round" stroke-linejoin="round" stroke-miterlimit="10" cx="340.656" cy="141.908" r="0.987"/>
		</g>
	</g>
</g>
<g id="calque06">
	<g>
		
			<polygon fill="#CC924C" stroke="#333333" stroke-width="1.0616" stroke-linecap="round" stroke-linejoin="round" stroke-miterlimit="10" points="
			333.873,175.795 326.096,180.85 327.569,178.243 		"/>
		
			<polygon fill="#CC924C" stroke="#333333" stroke-width="1.0616" stroke-linecap="round" stroke-linejoin="round" stroke-miterlimit="10" points="
			348.677,150.837 341.515,153.593 342.988,150.986 		"/>
		
			<polygon fill="#CC924C" stroke="#333333" stroke-width="1.0616" stroke-linecap="round" stroke-linejoin="round" stroke-miterlimit="10" points="
			322.372,157.283 325.564,173.632 327.039,171.025 		"/>
		
			<polygon fill="#CC924C" stroke="#333333" stroke-width="1.0616" stroke-linecap="round" stroke-linejoin="round" stroke-miterlimit="10" points="
			341.02,135.75 342.247,144.141 343.198,142.46 		"/>
		<g>
			
				<path fill="#A1C453" stroke="#333333" stroke-width="1.5923" stroke-linecap="round" stroke-linejoin="round" stroke-miterlimit="10" d="
				M313.078,172.428c2.542,1.301,4.557,0.531,6.529,6.201c1.971,5.67-2.813,4.483-1.518,8.215c-1.297-3.731-4.502,0-6.4-5.461
				C309.79,175.922,312.115,175.111,313.078,172.428z"/>
			<g>
				<line fill="none" x1="318.091" y1="186.844" x2="314.159" y2="175.502"/>
				<g>
					<polyline fill="none" stroke="#333333" stroke-width="1.0616" stroke-linecap="round" stroke-miterlimit="10" points="
						317.916,186.342 317.691,185.692 315.074,178.144 314.88,177.578 					"/>
					
						<line fill="none" stroke="#333333" stroke-width="1.0616" stroke-linecap="round" stroke-miterlimit="10" x1="314.334" y1="176.004" x2="314.358" y2="176.074"/>
				</g>
			</g>
		</g>
		<g>
			
				<path fill="#A1C453" stroke="#333333" stroke-width="1.5923" stroke-linecap="round" stroke-linejoin="round" stroke-miterlimit="10" d="
				M347.962,169.928c-1.146,2.618-0.26,4.58-5.801,6.889c-5.541,2.308-4.644-2.54-8.288-1.021c3.646-1.519-0.271-4.494,5.065-6.717
				C344.276,166.854,345.224,169.127,347.962,169.928z"/>
			<g>
				<line fill="none" x1="333.825" y1="175.625" x2="344.741" y2="171.078"/>
				<g>
					<polyline fill="none" stroke="#333333" stroke-width="1.0616" stroke-linecap="round" stroke-miterlimit="10" points="
						334.316,175.421 334.95,175.156 342.161,172.153 342.713,171.923 					"/>
					
						<line fill="none" stroke="#333333" stroke-width="1.0616" stroke-linecap="round" stroke-miterlimit="10" x1="344.252" y1="171.282" x2="344.184" y2="171.311"/>
				</g>
			</g>
		</g>
		<g>
			
				<path fill="#A1C453" stroke="#333333" stroke-width="1.5923" stroke-linecap="round" stroke-linejoin="round" stroke-miterlimit="10" d="
				M327.793,140.945c1.418,2.896,3.758,3.56,1.711,10.018c-2.051,6.457-5.574,2.15-6.919,6.4c1.345-4.25-4.071-3.041-2.101-9.26
				C322.457,141.883,325.105,142.725,327.793,140.945z"/>
			<g>
				<line fill="none" x1="322.585" y1="157.363" x2="326.617" y2="144.641"/>
				<g>
					<polyline fill="none" stroke="#333333" stroke-width="1.0616" stroke-linecap="round" stroke-miterlimit="10" points="
						322.744,156.857 322.952,156.202 325.773,147.306 325.953,146.735 					"/>
					
						<line fill="none" stroke="#333333" stroke-width="1.0616" stroke-linecap="round" stroke-miterlimit="10" x1="326.457" y1="145.146" x2="326.436" y2="145.218"/>
				</g>
			</g>
		</g>
		<g>
			
				<path fill="#A1C453" stroke="#333333" stroke-width="1.5923" stroke-linecap="round" stroke-linejoin="round" stroke-miterlimit="10" d="
				M314.367,142.446c3.055,1.044,5.176-0.142,8.294,5.871c3.121,6.015-2.418,5.464-0.363,9.419c-2.055-3.955-5.03,0.729-8.034-5.063
				C311.263,146.881,313.727,145.602,314.367,142.446z"/>
			<g>
				<line fill="none" x1="322.298" y1="157.736" x2="316.151" y2="145.889"/>
				<g>
					<polyline fill="none" stroke="#333333" stroke-width="1.0616" stroke-linecap="round" stroke-miterlimit="10" points="
						322.054,157.266 321.736,156.654 317.438,148.37 317.162,147.84 					"/>
					
						<line fill="none" stroke="#333333" stroke-width="1.0616" stroke-linecap="round" stroke-miterlimit="10" x1="316.396" y1="146.359" x2="316.43" y2="146.426"/>
				</g>
			</g>
		</g>
		<g>
			
				<path fill="#A1C453" stroke="#333333" stroke-width="1.0616" stroke-linecap="round" stroke-linejoin="round" stroke-miterlimit="10" d="
				M339.649,129.375c1.124,0.875,2.18,0.683,2.621,3.643c0.439,2.958-1.794,1.934-1.503,3.881c-0.291-1.947-2.204-0.417-2.63-3.266
				C337.716,130.781,338.928,130.602,339.649,129.375z"/>
			<g>
				<line fill="none" x1="340.768" y1="136.898" x2="339.899" y2="131.067"/>
				<g>
					<polyline fill="none" stroke="#333333" stroke-width="1.0616" stroke-linecap="round" stroke-miterlimit="10" points="
						340.689,136.373 340.588,135.693 340.312,133.832 340.223,133.241 					"/>
					
						<line fill="none" stroke="#333333" stroke-width="1.0616" stroke-linecap="round" stroke-miterlimit="10" x1="339.978" y1="131.593" x2="339.988" y2="131.666"/>
				</g>
			</g>
		</g>
		<g>
			
				<path fill="#A1C453" stroke="#333333" stroke-width="1.5923" stroke-linecap="round" stroke-linejoin="round" stroke-miterlimit="10" d="
				M330.214,128.469c2.539-0.32,3.641-1.902,7.955,1.295c4.317,3.201,0.179,4.735,3.021,6.841c-2.844-2.105-3.332,2.27-7.487-0.81
				C329.544,132.711,330.855,130.94,330.214,128.469z"/>
			<g>
				<line fill="none" x1="341.191" y1="136.604" x2="332.684" y2="130.301"/>
				<g>
					<polyline fill="none" stroke="#333333" stroke-width="1.0616" stroke-linecap="round" stroke-miterlimit="10" points="
						340.765,136.288 340.212,135.879 334.93,131.965 334.448,131.609 					"/>
					
						<line fill="none" stroke="#333333" stroke-width="1.0616" stroke-linecap="round" stroke-miterlimit="10" x1="333.11" y1="130.617" x2="333.17" y2="130.661"/>
				</g>
			</g>
		</g>
		<g>
			
				<path fill="#A1C453" stroke="#333333" stroke-width="1.0616" stroke-linecap="round" stroke-linejoin="round" stroke-miterlimit="10" d="
				M357.769,155.111c-1.722,0.646-2.229,1.938-5.779,0.419c-3.553-1.519-0.915-3.279-3.253-4.278c2.338,0.999,1.95-2.145,5.37-0.682
				C357.53,152.033,356.909,153.488,357.769,155.111z"/>
			<g>
				<line fill="none" x1="348.709" y1="151.154" x2="355.709" y2="154.146"/>
				<g>
					<polyline fill="none" stroke="#333333" stroke-width="1.0616" stroke-linecap="round" stroke-miterlimit="10" points="
						349.197,151.363 349.828,151.633 353.139,153.047 353.688,153.282 					"/>
					
						<line fill="none" stroke="#333333" stroke-width="1.0616" stroke-linecap="round" stroke-miterlimit="10" x1="355.221" y1="153.937" x2="355.152" y2="153.907"/>
				</g>
			</g>
		</g>
		<g>
			
				<path fill="#A1C453" stroke="#333333" stroke-width="1.5923" stroke-linecap="round" stroke-linejoin="round" stroke-miterlimit="10" d="
				M364.663,144.426c-1.335,2.936-0.358,5.166-6.648,7.688c-6.287,2.52-5.201-2.938-9.338-1.276
				c4.137-1.661-0.238-5.075,5.816-7.503C360.549,140.902,361.584,143.48,364.663,144.426z"/>
			<g>
				<line fill="none" x1="348.677" y1="150.837" x2="361.063" y2="145.867"/>
				<g>
					<polyline fill="none" stroke="#333333" stroke-width="1.0616" stroke-linecap="round" stroke-miterlimit="10" points="
						349.169,150.64 349.808,150.383 358.469,146.908 359.023,146.686 					"/>
					
						<line fill="none" stroke="#333333" stroke-width="1.0616" stroke-linecap="round" stroke-miterlimit="10" x1="360.571" y1="146.064" x2="360.502" y2="146.093"/>
				</g>
			</g>
		</g>
		<g>
			
				<path fill="#A1C453" stroke="#333333" stroke-width="1.5923" stroke-linecap="round" stroke-linejoin="round" stroke-miterlimit="10" d="
				M354.563,163.313c-2.392-0.839-4.067,0.078-6.481-4.664c-2.411-4.744,1.936-4.275,0.347-7.396
				c1.589,3.121,3.955-0.542,6.277,4.025C357.031,159.848,355.087,160.838,354.563,163.313z"/>
			<g>
				<line fill="none" x1="348.38" y1="151.082" x2="353.134" y2="160.427"/>
				<g>
					<polyline fill="none" stroke="#333333" stroke-width="1.0616" stroke-linecap="round" stroke-miterlimit="10" points="
						348.619,151.555 348.933,152.168 351.865,157.936 352.138,158.468 					"/>
					
						<line fill="none" stroke="#333333" stroke-width="1.0616" stroke-linecap="round" stroke-miterlimit="10" x1="352.894" y1="159.953" x2="352.859" y2="159.887"/>
				</g>
			</g>
		</g>
		<path fill="#CC924C" stroke="#333333" stroke-width="2.8307" stroke-linecap="round" stroke-miterlimit="10" d="M311.559,207.625
			l42.652-76.477c0.545-0.965,0.201-2.191-0.764-2.734l0,0c-0.964-0.547-2.188-0.207-2.732,0.759l-43.574,75.954"/>
		<g>
			<g>
				<path fill="#D3F46C" d="M343.218,141.811c-0.896,2.16-4.333,3.577-5.53,2.293c-1.953,0.1-3.188-3.373-2.294-5.535
					c0.896-2.158,2.838-3.854,5.463-1.746C344.049,137.15,344.113,139.65,343.218,141.811z"/>
				<g>
					<path fill="none" stroke="#333333" stroke-width="1.0616" stroke-linecap="round" stroke-miterlimit="10" d="M342.973,142.28
						c-0.122,0.195-0.255,0.382-0.409,0.552c-0.673,0.762-1.57,1.32-2.545,1.604c-0.486,0.137-1.006,0.208-1.506,0.104
						c-0.245-0.06-0.493-0.146-0.685-0.316c-0.049-0.039-0.096-0.085-0.146-0.119l-0.189-0.012
						c-0.129,0.003-0.251-0.032-0.372-0.071c-0.987-0.347-1.518-1.368-1.806-2.312c-0.262-0.974-0.32-2.04,0.031-3.001
						c0.365-0.937,0.924-1.85,1.778-2.416c0.426-0.278,0.931-0.441,1.439-0.432c0.511,0.006,1.004,0.174,1.453,0.407
						c0.771,0.741,1.923,0.547,2.742,1.221c0.407,0.304,0.7,0.751,0.835,1.24c0.026,0.121,0.071,0.252,0.078,0.365l0.022,0.195
						c0.02,0.13,0.008,0.262,0.013,0.393"/>
					
						<line fill="none" stroke="#333333" stroke-width="1.0616" stroke-linecap="round" stroke-miterlimit="10" x1="343.402" y1="141.313" x2="343.425" y2="141.242"/>
				</g>
			</g>
			
				<ellipse transform="matrix(0.8445 -0.5356 0.5356 0.8445 -21.3367 202.2507)" opacity="0.5" fill="#FFFFFF" enable-background="new    " cx="337.579" cy="137.864" rx="0.969" ry="0.797"/>
		</g>
		<g>
			<g>
				<path fill="#D3F46C" d="M336.573,184.334c-2.693,2.57-8.613,2.418-9.527-0.225c-2.911-1.109-2.471-6.959,0.223-9.529
					c2.693-2.57,6.615-3.789,9.076,0.97C340.78,178.084,339.269,181.764,336.573,184.334z"/>
				<g>
					<path fill="none" stroke="#333333" stroke-width="1.5924" stroke-linecap="round" stroke-miterlimit="10" d="M335.953,184.834
						c-0.287,0.187-0.574,0.378-0.891,0.517c-1.473,0.713-3.157,0.949-4.775,0.755c-0.806-0.106-1.617-0.332-2.291-0.804
						c-0.321-0.246-0.632-0.531-0.81-0.901l-0.135-0.275c-0.075-0.063-0.177-0.098-0.266-0.148c-0.189-0.08-0.353-0.202-0.504-0.342
						c-0.621-0.54-0.956-1.335-1.109-2.13c-0.155-0.803-0.146-1.63-0.038-2.438c0.249-1.604,0.877-3.202,2.028-4.375
						c1.157-1.13,2.585-2.095,4.219-2.33c0.809-0.112,1.65,0.012,2.383,0.38c0.74,0.356,1.336,0.954,1.82,1.605
						c0.258,0.318,0.453,0.678,0.657,1.031c0.071,0.207,0.286,0.276,0.448,0.396c0.169,0.114,0.354,0.209,0.509,0.341
						c0.658,0.481,1.229,1.1,1.585,1.835c0.358,0.734,0.441,1.589,0.276,2.388c-0.021,0.198-0.106,0.406-0.153,0.579
						c-0.028,0.094-0.055,0.188-0.098,0.277c-0.08,0.18-0.148,0.364-0.239,0.539"/>
					
						<line fill="none" stroke="#333333" stroke-width="1.5924" stroke-linecap="round" stroke-miterlimit="10" x1="337.13" y1="183.765" x2="337.202" y2="183.681"/>
				</g>
			</g>
			<path opacity="0.5" fill="#FFFFFF" enable-background="new    " d="M331.106,176.203c-0.842,0.127-1.605-0.33-1.712-1.023
				c-0.106-0.693,0.493-1.36,1.336-1.487c0.846-0.128,1.609,0.333,1.713,1.024C332.549,175.411,331.95,176.074,331.106,176.203z"/>
		</g>
		<g>
			
				<path fill="#A1C453" stroke="#333333" stroke-width="1.0616" stroke-linecap="round" stroke-linejoin="round" stroke-miterlimit="10" d="
				M352.181,127.51c0,0,2.456-1.932,3.042-2.182c0.467-0.207-0.546,2.981-1.114,4.061L352.181,127.51z"/>
			
				<path fill="#A1C453" stroke="#333333" stroke-width="1.0616" stroke-linecap="round" stroke-linejoin="round" stroke-miterlimit="10" d="
				M354.452,128.508l-4.559,1.533c0,0,1.709-4.469,3.527-5.303C353.422,124.738,353.791,127.03,354.452,128.508z"/>
			
				<path fill="#A1C453" stroke="#333333" stroke-width="1.0616" stroke-linecap="round" stroke-linejoin="round" stroke-miterlimit="10" d="
				M352.187,133.779c0,0,4.732-3.588,4.668-7.1l-4.285,1.684L352.187,133.779z"/>
		</g>
	</g>
</g>
<g id="calque07">
	<g>
		
			<polygon fill="#CC924C" stroke="#333333" stroke-width="1.0616" stroke-linecap="round" stroke-linejoin="round" stroke-miterlimit="10" points="
			333.873,175.795 326.096,180.85 327.569,178.243 		"/>
		
			<polygon fill="#CC924C" stroke="#333333" stroke-width="1.0616" stroke-linecap="round" stroke-linejoin="round" stroke-miterlimit="10" points="
			348.677,150.837 341.515,153.593 342.988,150.986 		"/>
		
			<polygon fill="#CC924C" stroke="#333333" stroke-width="1.0616" stroke-linecap="round" stroke-linejoin="round" stroke-miterlimit="10" points="
			322.372,157.283 325.564,173.632 327.039,171.025 		"/>
		
			<polygon fill="#CC924C" stroke="#333333" stroke-width="1.0616" stroke-linecap="round" stroke-linejoin="round" stroke-miterlimit="10" points="
			341.02,135.75 342.247,144.141 343.198,142.46 		"/>
		<g>
			
				<path fill="#A1C453" stroke="#333333" stroke-width="1.5923" stroke-linecap="round" stroke-linejoin="round" stroke-miterlimit="10" d="
				M313.078,172.428c2.542,1.301,4.559,0.533,6.531,6.203c1.969,5.668-2.815,4.481-1.52,8.213c-1.297-3.731-4.502,0-6.4-5.461
				C309.79,175.922,312.115,175.111,313.078,172.428z"/>
			<g>
				<line fill="none" x1="318.091" y1="186.844" x2="314.159" y2="175.502"/>
				<g>
					<polyline fill="none" stroke="#333333" stroke-width="1.0616" stroke-linecap="round" stroke-miterlimit="10" points="
						317.916,186.342 317.691,185.692 315.074,178.144 314.88,177.578 					"/>
					
						<line fill="none" stroke="#333333" stroke-width="1.0616" stroke-linecap="round" stroke-miterlimit="10" x1="314.334" y1="176.004" x2="314.358" y2="176.074"/>
				</g>
			</g>
		</g>
		<g>
			
				<path fill="#A1C453" stroke="#333333" stroke-width="1.5923" stroke-linecap="round" stroke-linejoin="round" stroke-miterlimit="10" d="
				M347.962,169.928c-1.146,2.618-0.26,4.58-5.801,6.889c-5.541,2.308-4.644-2.54-8.288-1.021c3.646-1.519-0.271-4.495,5.065-6.717
				C344.276,166.854,345.224,169.127,347.962,169.928z"/>
			<g>
				<line fill="none" x1="333.825" y1="175.625" x2="344.741" y2="171.078"/>
				<g>
					<polyline fill="none" stroke="#333333" stroke-width="1.0616" stroke-linecap="round" stroke-miterlimit="10" points="
						334.316,175.421 334.95,175.156 342.161,172.153 342.713,171.923 					"/>
					
						<line fill="none" stroke="#333333" stroke-width="1.0616" stroke-linecap="round" stroke-miterlimit="10" x1="344.252" y1="171.282" x2="344.184" y2="171.311"/>
				</g>
			</g>
		</g>
		<g>
			
				<path fill="#A1C453" stroke="#333333" stroke-width="1.5923" stroke-linecap="round" stroke-linejoin="round" stroke-miterlimit="10" d="
				M327.793,140.945c1.418,2.896,3.758,3.56,1.711,10.018c-2.051,6.457-5.572,2.15-6.919,6.4c1.347-4.25-4.071-3.041-2.098-9.258
				C322.457,141.883,325.105,142.725,327.793,140.945z"/>
			<g>
				<line fill="none" x1="322.585" y1="157.363" x2="326.617" y2="144.641"/>
				<g>
					<polyline fill="none" stroke="#333333" stroke-width="1.0616" stroke-linecap="round" stroke-miterlimit="10" points="
						322.744,156.857 322.952,156.202 325.773,147.306 325.953,146.735 					"/>
					
						<line fill="none" stroke="#333333" stroke-width="1.0616" stroke-linecap="round" stroke-miterlimit="10" x1="326.457" y1="145.146" x2="326.436" y2="145.218"/>
				</g>
			</g>
		</g>
		<g>
			
				<path fill="#A1C453" stroke="#333333" stroke-width="1.5923" stroke-linecap="round" stroke-linejoin="round" stroke-miterlimit="10" d="
				M314.369,142.446c3.053,1.044,5.174-0.142,8.294,5.872c3.119,6.014-2.42,5.463-0.365,9.418c-2.055-3.955-5.03,0.729-8.034-5.063
				C311.263,146.881,313.727,145.602,314.369,142.446z"/>
			<g>
				<line fill="none" x1="322.298" y1="157.736" x2="316.153" y2="145.889"/>
				<g>
					<polyline fill="none" stroke="#333333" stroke-width="1.0616" stroke-linecap="round" stroke-miterlimit="10" points="
						322.054,157.266 321.737,156.654 317.44,148.37 317.164,147.84 					"/>
					
						<line fill="none" stroke="#333333" stroke-width="1.0616" stroke-linecap="round" stroke-miterlimit="10" x1="316.397" y1="146.359" x2="316.432" y2="146.426"/>
				</g>
			</g>
		</g>
		<g>
			
				<path fill="#A1C453" stroke="#333333" stroke-width="1.5923" stroke-linecap="round" stroke-linejoin="round" stroke-miterlimit="10" d="
				M339.257,122.725c2.02,1.569,3.92,1.229,4.709,6.543s-3.223,3.473-2.702,6.971c-0.521-3.498-3.959-0.748-4.719-5.867
				C335.781,125.25,337.964,124.927,339.257,122.725z"/>
			<g>
				<line fill="none" x1="341.264" y1="136.238" x2="339.71" y2="125.768"/>
				<g>
					<polyline fill="none" stroke="#333333" stroke-width="1.0616" stroke-linecap="round" stroke-miterlimit="10" points="
						341.186,135.713 341.085,135.033 340.119,128.533 340.031,127.941 					"/>
					
						<line fill="none" stroke="#333333" stroke-width="1.0616" stroke-linecap="round" stroke-miterlimit="10" x1="339.787" y1="126.293" x2="339.799" y2="126.366"/>
				</g>
			</g>
		</g>
		<g>
			
				<path fill="#A1C453" stroke="#333333" stroke-width="1.5923" stroke-linecap="round" stroke-linejoin="round" stroke-miterlimit="10" d="
				M330.214,128.469c2.539-0.32,3.641-1.902,7.955,1.295c4.317,3.201,0.179,4.735,3.021,6.841c-2.844-2.105-3.332,2.27-7.487-0.81
				C329.544,132.711,330.855,130.94,330.214,128.469z"/>
			<g>
				<line fill="none" x1="341.191" y1="136.604" x2="332.684" y2="130.301"/>
				<g>
					<polyline fill="none" stroke="#333333" stroke-width="1.0616" stroke-linecap="round" stroke-miterlimit="10" points="
						340.765,136.288 340.212,135.879 334.93,131.965 334.448,131.609 					"/>
					
						<line fill="none" stroke="#333333" stroke-width="1.0616" stroke-linecap="round" stroke-miterlimit="10" x1="333.11" y1="130.617" x2="333.17" y2="130.661"/>
				</g>
			</g>
		</g>
		<g>
			
				<path fill="#A1C453" stroke="#333333" stroke-width="1.5923" stroke-linecap="round" stroke-linejoin="round" stroke-miterlimit="10" d="
				M364.859,157.93c-3.021,1.133-3.908,3.398-10.137,0.736c-6.23-2.665-1.602-5.753-5.701-7.504c4.101,1.751,3.419-3.76,9.418-1.194
				C364.441,152.531,363.35,155.086,364.859,157.93z"/>
			<g>
				<line fill="none" x1="348.974" y1="150.991" x2="361.247" y2="156.236"/>
				<g>
					<polyline fill="none" stroke="#333333" stroke-width="1.0616" stroke-linecap="round" stroke-miterlimit="10" points="
						349.462,151.2 350.094,151.47 358.678,155.138 359.227,155.373 					"/>
					
						<line fill="none" stroke="#333333" stroke-width="1.0616" stroke-linecap="round" stroke-miterlimit="10" x1="360.76" y1="156.027" x2="360.691" y2="155.998"/>
				</g>
			</g>
		</g>
		<g>
			
				<path fill="#A1C453" stroke="#333333" stroke-width="1.5923" stroke-linecap="round" stroke-linejoin="round" stroke-miterlimit="10" d="
				M364.663,144.426c-1.335,2.936-0.358,5.166-6.648,7.688c-6.286,2.521-5.201-2.938-9.338-1.276
				c4.137-1.661-0.238-5.075,5.816-7.503C360.549,140.902,361.584,143.48,364.663,144.426z"/>
			<g>
				<line fill="none" x1="348.677" y1="150.837" x2="361.063" y2="145.867"/>
				<g>
					<polyline fill="none" stroke="#333333" stroke-width="1.0616" stroke-linecap="round" stroke-miterlimit="10" points="
						349.169,150.64 349.808,150.383 358.469,146.908 359.023,146.686 					"/>
					
						<line fill="none" stroke="#333333" stroke-width="1.0616" stroke-linecap="round" stroke-miterlimit="10" x1="360.571" y1="146.064" x2="360.502" y2="146.093"/>
				</g>
			</g>
		</g>
		<g>
			
				<path fill="#A1C453" stroke="#333333" stroke-width="1.5923" stroke-linecap="round" stroke-linejoin="round" stroke-miterlimit="10" d="
				M354.563,163.313c-2.392-0.839-4.067,0.078-6.481-4.664c-2.411-4.744,1.936-4.275,0.347-7.396
				c1.589,3.121,3.955-0.542,6.277,4.025C357.031,159.848,355.087,160.838,354.563,163.313z"/>
			<g>
				<line fill="none" x1="348.38" y1="151.082" x2="353.134" y2="160.428"/>
				<g>
					<polyline fill="none" stroke="#333333" stroke-width="1.0616" stroke-linecap="round" stroke-miterlimit="10" points="
						348.619,151.555 348.933,152.168 351.865,157.937 352.138,158.469 					"/>
					
						<line fill="none" stroke="#333333" stroke-width="1.0616" stroke-linecap="round" stroke-miterlimit="10" x1="352.894" y1="159.955" x2="352.859" y2="159.888"/>
				</g>
			</g>
		</g>
		<path fill="#CC924C" stroke="#333333" stroke-width="2.8307" stroke-linecap="round" stroke-miterlimit="10" d="M311.559,207.625
			l42.652-76.477c0.545-0.965,0.201-2.191-0.764-2.734l0,0c-0.964-0.547-2.188-0.207-2.732,0.759l-43.574,75.954"/>
		<g>
			<g>
				<path fill="#D3F46C" d="M344.133,144.924c-1.426,3.439-6.901,5.695-8.809,3.648c-3.106,0.162-5.072-5.365-3.646-8.805
					c1.425-3.439,4.517-6.143,8.692-2.785C345.45,137.508,345.555,141.485,344.133,144.924z"/>
				<g>
					<path fill="none" stroke="#333333" stroke-width="1.5924" stroke-linecap="round" stroke-miterlimit="10" d="M343.769,145.631
						c-0.188,0.288-0.373,0.578-0.606,0.833c-1.058,1.247-2.503,2.146-4.062,2.622c-0.779,0.229-1.614,0.352-2.42,0.192
						c-0.396-0.095-0.793-0.229-1.105-0.496l-0.233-0.197c-0.094-0.029-0.201-0.019-0.303-0.03
						c-0.205,0.004-0.403-0.041-0.599-0.108c-0.786-0.242-1.415-0.835-1.878-1.499c-0.466-0.671-0.793-1.431-1.021-2.214
						c-0.421-1.566-0.493-3.283,0.087-4.821c0.603-1.501,1.518-2.961,2.913-3.838c0.694-0.43,1.516-0.658,2.334-0.617
						c0.82,0.025,1.606,0.33,2.313,0.73c0.365,0.188,0.69,0.436,1.02,0.677c0.149,0.16,0.372,0.139,0.569,0.181
						c0.201,0.037,0.407,0.05,0.604,0.106c0.796,0.175,1.567,0.509,2.19,1.037c0.625,0.528,1.046,1.275,1.218,2.072
						c0.063,0.19,0.067,0.415,0.096,0.592c0.011,0.098,0.025,0.194,0.022,0.294c-0.001,0.196,0.012,0.393-0.001,0.589"/>
					
						<line fill="none" stroke="#333333" stroke-width="1.5924" stroke-linecap="round" stroke-miterlimit="10" x1="344.41" y1="144.178" x2="344.444" y2="144.071"/>
				</g>
			</g>
			
				<ellipse transform="matrix(0.8444 -0.5357 0.5357 0.8444 -22.1124 201.123)" opacity="0.5" fill="#FFFFFF" enable-background="new    " cx="335.154" cy="138.625" rx="1.544" ry="1.269"/>
		</g>
		<g>
			<g>
				<path fill="#EF4529" d="M336.573,184.334c-2.693,2.57-8.613,2.418-9.527-0.225c-2.911-1.109-2.471-6.959,0.223-9.529
					c2.693-2.57,6.615-3.789,9.076,0.97C340.78,178.084,339.269,181.764,336.573,184.334z"/>
				<g>
					<path fill="none" stroke="#333333" stroke-width="1.5924" stroke-linecap="round" stroke-miterlimit="10" d="M335.953,184.834
						c-0.287,0.187-0.574,0.378-0.891,0.517c-1.473,0.713-3.157,0.949-4.775,0.755c-0.806-0.106-1.617-0.332-2.291-0.804
						c-0.321-0.246-0.632-0.531-0.81-0.901l-0.135-0.275c-0.075-0.063-0.177-0.098-0.266-0.148c-0.189-0.08-0.353-0.202-0.504-0.342
						c-0.621-0.54-0.956-1.335-1.109-2.13c-0.155-0.803-0.146-1.63-0.038-2.438c0.249-1.604,0.877-3.202,2.028-4.375
						c1.157-1.13,2.585-2.095,4.219-2.33c0.809-0.112,1.65,0.012,2.383,0.38c0.74,0.356,1.336,0.954,1.82,1.605
						c0.258,0.318,0.453,0.678,0.657,1.031c0.071,0.207,0.286,0.276,0.448,0.396c0.169,0.114,0.354,0.209,0.509,0.341
						c0.658,0.481,1.229,1.1,1.585,1.835c0.358,0.734,0.441,1.589,0.276,2.388c-0.021,0.198-0.106,0.406-0.153,0.579
						c-0.028,0.094-0.055,0.188-0.098,0.277c-0.08,0.18-0.148,0.364-0.239,0.539"/>
					
						<line fill="none" stroke="#333333" stroke-width="1.5924" stroke-linecap="round" stroke-miterlimit="10" x1="337.13" y1="183.765" x2="337.202" y2="183.681"/>
				</g>
			</g>
			<path opacity="0.5" fill="#FFFFFF" enable-background="new    " d="M331.106,176.203c-0.84,0.129-1.605-0.33-1.712-1.023
				c-0.106-0.693,0.495-1.359,1.336-1.487c0.846-0.128,1.609,0.333,1.713,1.024C332.549,175.411,331.95,176.074,331.106,176.203z"/>
		</g>
		<g>
			
				<path fill="#A1C453" stroke="#333333" stroke-width="1.0616" stroke-linecap="round" stroke-linejoin="round" stroke-miterlimit="10" d="
				M352.181,127.51c0,0,2.456-1.932,3.042-2.182c0.469-0.205-0.546,2.981-1.114,4.061L352.181,127.51z"/>
			
				<path fill="#A1C453" stroke="#333333" stroke-width="1.0616" stroke-linecap="round" stroke-linejoin="round" stroke-miterlimit="10" d="
				M354.452,128.508l-4.559,1.533c0,0,1.709-4.469,3.527-5.303C353.422,124.738,353.791,127.03,354.452,128.508z"/>
			
				<path fill="#A1C453" stroke="#333333" stroke-width="1.0616" stroke-linecap="round" stroke-linejoin="round" stroke-miterlimit="10" d="
				M352.187,133.779c0,0,4.732-3.588,4.668-7.1l-4.285,1.684L352.187,133.779z"/>
		</g>
	</g>
</g>
<g id="calque08">
	<g>
		
			<polygon fill="#CC924C" stroke="#333333" stroke-width="1.0616" stroke-linecap="round" stroke-linejoin="round" stroke-miterlimit="10" points="
			333.876,175.797 326.096,180.852 327.569,178.244 		"/>
		
			<polygon fill="#CC924C" stroke="#333333" stroke-width="1.0616" stroke-linecap="round" stroke-linejoin="round" stroke-miterlimit="10" points="
			348.678,150.839 341.515,153.594 342.989,150.986 		"/>
		
			<polygon fill="#CC924C" stroke="#333333" stroke-width="1.0616" stroke-linecap="round" stroke-linejoin="round" stroke-miterlimit="10" points="
			322.375,157.283 325.565,173.634 327.04,171.027 		"/>
		
			<polygon fill="#CC924C" stroke="#333333" stroke-width="1.0616" stroke-linecap="round" stroke-linejoin="round" stroke-miterlimit="10" points="
			341.021,135.75 342.25,144.143 343.2,142.46 		"/>
		<g>
			
				<path fill="#A1C453" stroke="#333333" stroke-width="1.5923" stroke-linecap="round" stroke-linejoin="round" stroke-miterlimit="10" d="
				M313.08,172.428c2.543,1.303,4.557,0.533,6.529,6.203c1.972,5.67-2.813,4.482-1.518,8.213c-1.295-3.73-4.503,0-6.402-5.461
				C309.793,175.922,312.118,175.114,313.08,172.428z"/>
			<g>
				<line fill="none" x1="318.093" y1="186.844" x2="314.161" y2="175.504"/>
				<g>
					<polyline fill="none" stroke="#333333" stroke-width="1.0616" stroke-linecap="round" stroke-miterlimit="10" points="
						317.919,186.342 317.693,185.692 315.077,178.146 314.882,177.58 					"/>
					
						<line fill="none" stroke="#333333" stroke-width="1.0616" stroke-linecap="round" stroke-miterlimit="10" x1="314.336" y1="176.006" x2="314.36" y2="176.076"/>
				</g>
			</g>
		</g>
		<g>
			
				<path fill="#A1C453" stroke="#333333" stroke-width="1.5923" stroke-linecap="round" stroke-linejoin="round" stroke-miterlimit="10" d="
				M347.964,169.928c-1.147,2.619-0.261,4.583-5.8,6.891c-5.541,2.307-4.644-2.541-8.289-1.021c3.646-1.52-0.271-4.496,5.065-6.717
				C344.278,166.857,345.226,169.128,347.964,169.928z"/>
			<g>
				<line fill="none" x1="333.827" y1="175.628" x2="344.746" y2="171.079"/>
				<g>
					<polyline fill="none" stroke="#333333" stroke-width="1.0616" stroke-linecap="round" stroke-miterlimit="10" points="
						334.318,175.424 334.952,175.159 342.166,172.154 342.719,171.924 					"/>
					
						<line fill="none" stroke="#333333" stroke-width="1.0616" stroke-linecap="round" stroke-miterlimit="10" x1="344.257" y1="171.283" x2="344.188" y2="171.312"/>
				</g>
			</g>
		</g>
		<g>
			
				<path fill="#A1C453" stroke="#333333" stroke-width="1.5923" stroke-linecap="round" stroke-linejoin="round" stroke-miterlimit="10" d="
				M327.793,140.947c1.42,2.895,3.76,3.56,1.712,10.016c-2.049,6.459-5.571,2.153-6.918,6.402c1.347-4.249-4.071-3.041-2.098-9.26
				C322.46,141.885,325.105,142.725,327.793,140.947z"/>
			<g>
				<line fill="none" x1="322.587" y1="157.365" x2="326.619" y2="144.643"/>
				<g>
					<polyline fill="none" stroke="#333333" stroke-width="1.0616" stroke-linecap="round" stroke-miterlimit="10" points="
						322.746,156.859 322.954,156.204 325.775,147.308 325.955,146.737 					"/>
					
						<line fill="none" stroke="#333333" stroke-width="1.0616" stroke-linecap="round" stroke-miterlimit="10" x1="326.46" y1="145.148" x2="326.438" y2="145.22"/>
				</g>
			</g>
		</g>
		<g>
			
				<path fill="#A1C453" stroke="#333333" stroke-width="1.5923" stroke-linecap="round" stroke-linejoin="round" stroke-miterlimit="10" d="
				M314.369,142.447c3.054,1.045,5.176-0.143,8.296,5.872c3.117,6.015-2.42,5.462-0.363,9.419c-2.057-3.957-5.033,0.729-8.036-5.063
				C311.262,146.882,313.729,145.605,314.369,142.447z"/>
			<g>
				<line fill="none" x1="322.302" y1="157.738" x2="316.154" y2="145.892"/>
				<g>
					<polyline fill="none" stroke="#333333" stroke-width="1.0616" stroke-linecap="round" stroke-miterlimit="10" points="
						322.058,157.268 321.74,156.656 317.441,148.373 317.166,147.843 					"/>
					
						<line fill="none" stroke="#333333" stroke-width="1.0616" stroke-linecap="round" stroke-miterlimit="10" x1="316.398" y1="146.362" x2="316.434" y2="146.429"/>
				</g>
			</g>
		</g>
		<g>
			
				<path fill="#A1C453" stroke="#333333" stroke-width="1.5923" stroke-linecap="round" stroke-linejoin="round" stroke-miterlimit="10" d="
				M339.26,122.727c2.019,1.567,3.919,1.227,4.708,6.542s-3.223,3.474-2.702,6.972c-0.521-3.498-3.959-0.749-4.721-5.868
				C335.783,125.252,337.965,124.93,339.26,122.727z"/>
			<g>
				<line fill="none" x1="341.266" y1="136.24" x2="339.71" y2="125.768"/>
				<g>
					<polyline fill="none" stroke="#333333" stroke-width="1.0616" stroke-linecap="round" stroke-miterlimit="10" points="
						341.188,135.715 341.087,135.035 340.12,128.532 340.032,127.941 					"/>
					
						<line fill="none" stroke="#333333" stroke-width="1.0616" stroke-linecap="round" stroke-miterlimit="10" x1="339.787" y1="126.293" x2="339.799" y2="126.366"/>
				</g>
			</g>
		</g>
		<g>
			
				<path fill="#A1C453" stroke="#333333" stroke-width="1.5923" stroke-linecap="round" stroke-linejoin="round" stroke-miterlimit="10" d="
				M330.217,128.471c2.538-0.321,3.64-1.904,7.954,1.295c4.317,3.201,0.179,4.733,3.021,6.841c-2.843-2.107-3.332,2.269-7.488-0.81
				C329.548,132.714,330.858,130.943,330.217,128.471z"/>
			<g>
				<line fill="none" x1="341.192" y1="136.606" x2="332.688" y2="130.303"/>
				<g>
					<polyline fill="none" stroke="#333333" stroke-width="1.0616" stroke-linecap="round" stroke-miterlimit="10" points="
						340.766,136.29 340.214,135.881 334.935,131.968 334.453,131.611 					"/>
					
						<line fill="none" stroke="#333333" stroke-width="1.0616" stroke-linecap="round" stroke-miterlimit="10" x1="333.115" y1="130.619" x2="333.175" y2="130.663"/>
				</g>
			</g>
		</g>
		<g>
			
				<path fill="#A1C453" stroke="#333333" stroke-width="1.5923" stroke-linecap="round" stroke-linejoin="round" stroke-miterlimit="10" d="
				M364.859,157.93c-3.02,1.135-3.906,3.398-10.135,0.736c-6.229-2.662-1.604-5.753-5.703-7.504
				c4.101,1.751,3.421-3.758,9.419-1.194C364.443,152.533,363.351,155.086,364.859,157.93z"/>
			<g>
				<line fill="none" x1="348.976" y1="150.991" x2="361.248" y2="156.238"/>
				<g>
					<polyline fill="none" stroke="#333333" stroke-width="1.0616" stroke-linecap="round" stroke-miterlimit="10" points="
						349.464,151.2 350.096,151.471 358.679,155.14 359.229,155.374 					"/>
					
						<line fill="none" stroke="#333333" stroke-width="1.0616" stroke-linecap="round" stroke-miterlimit="10" x1="360.761" y1="156.029" x2="360.692" y2="156"/>
				</g>
			</g>
		</g>
		<g>
			
				<path fill="#A1C453" stroke="#333333" stroke-width="1.5923" stroke-linecap="round" stroke-linejoin="round" stroke-miterlimit="10" d="
				M364.663,144.428c-1.333,2.936-0.356,5.165-6.646,7.688c-6.289,2.521-5.202-2.938-9.34-1.276
				c4.138-1.661-0.237-5.077,5.817-7.505C360.551,140.904,361.585,143.482,364.663,144.428z"/>
			<g>
				<line fill="none" x1="348.678" y1="150.839" x2="361.065" y2="145.871"/>
				<g>
					<polyline fill="none" stroke="#333333" stroke-width="1.0616" stroke-linecap="round" stroke-miterlimit="10" points="
						349.17,150.642 349.809,150.386 358.471,146.912 359.025,146.689 					"/>
					
						<line fill="none" stroke="#333333" stroke-width="1.0616" stroke-linecap="round" stroke-miterlimit="10" x1="360.572" y1="146.068" x2="360.504" y2="146.097"/>
				</g>
			</g>
		</g>
		<g>
			
				<path fill="#A1C453" stroke="#333333" stroke-width="1.5923" stroke-linecap="round" stroke-linejoin="round" stroke-miterlimit="10" d="
				M354.564,163.313c-2.393-0.838-4.066,0.08-6.478-4.662c-2.414-4.744,1.93-4.277,0.344-7.398c1.586,3.121,3.954-0.541,6.277,4.026
				C357.033,159.848,355.09,160.838,354.564,163.313z"/>
			<g>
				<line fill="none" x1="348.382" y1="151.082" x2="353.136" y2="160.428"/>
				<g>
					<polyline fill="none" stroke="#333333" stroke-width="1.0616" stroke-linecap="round" stroke-miterlimit="10" points="
						348.621,151.555 348.935,152.168 351.867,157.937 352.14,158.469 					"/>
					
						<line fill="none" stroke="#333333" stroke-width="1.0616" stroke-linecap="round" stroke-miterlimit="10" x1="352.896" y1="159.955" x2="352.861" y2="159.888"/>
				</g>
			</g>
		</g>
		<path fill="#CC924C" stroke="#333333" stroke-width="2.8307" stroke-linecap="round" stroke-miterlimit="10" d="M311.562,207.627
			l42.649-76.477c0.545-0.967,0.203-2.189-0.762-2.736l0,0c-0.962-0.545-2.188-0.205-2.732,0.76l-43.574,75.953"/>
		<g>
			<g>
				<path fill="#EF4529" d="M344.133,144.924c-1.426,3.44-6.901,5.695-8.806,3.649c-3.107,0.161-5.073-5.366-3.649-8.806
					c1.426-3.438,4.519-6.14,8.695-2.782C345.454,137.51,345.557,141.486,344.133,144.924z"/>
				<g>
					<path fill="none" stroke="#333333" stroke-width="1.5924" stroke-linecap="round" stroke-miterlimit="10" d="M343.769,145.631
						c-0.188,0.288-0.373,0.579-0.605,0.833c-1.058,1.247-2.503,2.146-4.062,2.622c-0.779,0.229-1.614,0.352-2.42,0.193
						c-0.396-0.096-0.793-0.23-1.105-0.497l-0.233-0.197c-0.094-0.027-0.201-0.019-0.302-0.029c-0.207,0.004-0.404-0.042-0.6-0.109
						c-0.786-0.243-1.414-0.835-1.877-1.499c-0.466-0.671-0.793-1.431-1.021-2.214c-0.421-1.566-0.493-3.283,0.086-4.821
						c0.603-1.5,1.519-2.96,2.916-3.836c0.692-0.43,1.515-0.658,2.331-0.617c0.822,0.026,1.608,0.331,2.314,0.73
						c0.364,0.188,0.69,0.436,1.02,0.677c0.149,0.159,0.372,0.14,0.569,0.182c0.2,0.037,0.406,0.049,0.604,0.106
						c0.797,0.174,1.568,0.508,2.191,1.035c0.625,0.527,1.046,1.274,1.219,2.072c0.062,0.189,0.066,0.414,0.095,0.591
						c0.011,0.098,0.026,0.195,0.022,0.294c-0.001,0.196,0.012,0.394-0.001,0.59"/>
					
						<line fill="none" stroke="#333333" stroke-width="1.5924" stroke-linecap="round" stroke-miterlimit="10" x1="344.41" y1="144.178" x2="344.445" y2="144.071"/>
				</g>
			</g>
			
				<ellipse transform="matrix(0.8446 -0.5354 0.5354 0.8446 -22.1322 201.004)" opacity="0.5" fill="#FFFFFF" enable-background="new    " cx="335.175" cy="138.626" rx="1.543" ry="1.27"/>
		</g>
		<g>
			<g>
				<path fill="#EF4529" d="M336.575,184.335c-2.692,2.569-8.616,2.417-9.528-0.224c-2.911-1.109-2.471-6.961,0.223-9.529
					c2.692-2.571,6.613-3.791,9.075,0.968C340.782,178.087,339.27,181.764,336.575,184.335z"/>
				<g>
					<path fill="none" stroke="#333333" stroke-width="1.5924" stroke-linecap="round" stroke-miterlimit="10" d="M335.956,184.835
						c-0.287,0.187-0.574,0.378-0.891,0.517c-1.473,0.712-3.158,0.948-4.776,0.755c-0.805-0.106-1.617-0.331-2.291-0.803
						c-0.321-0.246-0.632-0.531-0.81-0.901l-0.135-0.275c-0.075-0.063-0.177-0.098-0.266-0.148c-0.189-0.08-0.353-0.202-0.504-0.342
						c-0.62-0.54-0.956-1.336-1.109-2.13c-0.155-0.803-0.146-1.63-0.038-2.438c0.249-1.604,0.876-3.203,2.029-4.375
						c1.156-1.13,2.585-2.096,4.217-2.331c0.809-0.113,1.65,0.011,2.383,0.38c0.741,0.356,1.337,0.953,1.82,1.604
						c0.258,0.319,0.453,0.678,0.657,1.032c0.071,0.206,0.286,0.275,0.449,0.395c0.168,0.115,0.353,0.209,0.508,0.341
						c0.658,0.481,1.229,1.1,1.586,1.835c0.358,0.735,0.441,1.589,0.276,2.388c-0.021,0.198-0.105,0.406-0.153,0.579
						c-0.027,0.094-0.054,0.189-0.097,0.278c-0.081,0.179-0.149,0.364-0.239,0.538"/>
					
						<line fill="none" stroke="#333333" stroke-width="1.5924" stroke-linecap="round" stroke-miterlimit="10" x1="337.132" y1="183.766" x2="337.205" y2="183.682"/>
				</g>
			</g>
			<path opacity="0.5" fill="#FFFFFF" enable-background="new    " d="M331.109,176.203c-0.843,0.129-1.608-0.33-1.713-1.021
				c-0.105-0.695,0.495-1.36,1.336-1.488c0.846-0.126,1.612,0.332,1.712,1.024C332.551,175.411,331.952,176.076,331.109,176.203z"/>
		</g>
		<g>
			
				<path fill="#A1C453" stroke="#333333" stroke-width="1.0616" stroke-linecap="round" stroke-linejoin="round" stroke-miterlimit="10" d="
				M352.183,127.512c0,0,2.455-1.932,3.042-2.184c0.469-0.205-0.546,2.981-1.116,4.061L352.183,127.512z"/>
			
				<path fill="#A1C453" stroke="#333333" stroke-width="1.0616" stroke-linecap="round" stroke-linejoin="round" stroke-miterlimit="10" d="
				M354.452,128.508l-4.557,1.533c0,0,1.709-4.469,3.529-5.301C353.426,124.74,353.794,127.031,354.452,128.508z"/>
			
				<path fill="#A1C453" stroke="#333333" stroke-width="1.0616" stroke-linecap="round" stroke-linejoin="round" stroke-miterlimit="10" d="
				M352.188,133.779c0,0,4.732-3.586,4.667-7.1l-4.283,1.686L352.188,133.779z"/>
		</g>
	</g>
</g>
</svg>
