<?xml version="1.0" encoding="utf-8"?>
<!-- Generator: Adobe Illustrator 16.0.0, SVG Export Plug-In . SVG Version: 6.00 Build 0)  -->
<!DOCTYPE svg PUBLIC "-//W3C//DTD SVG 1.1//EN" "http://www.w3.org/Graphics/SVG/1.1/DTD/svg11.dtd">
<svg version="1.1" id="Calque_1" xmlns="http://www.w3.org/2000/svg" xmlns:xlink="http://www.w3.org/1999/xlink" x="0px" y="0px"
	 width="400px" height="400px" viewBox="0 0 400 400" enable-background="new 0 0 400 400" xml:space="preserve">
<g id="calque09">
	<g>
		<g>
			<g>
				<path fill="#D6E57F" d="M159.866,315.16H46.949c0,0,11.034,22.648,56.458,22.648C148.831,337.811,159.866,315.16,159.866,315.16
					z"/>
			</g>
			<g>
				<g>
					<path fill="#CC924C" d="M121.25,159.289c-5.212,4.104-4.984,8.982-4.984,8.982s0,126.917,0,133.306
						c0,6.388,3.561,9.382,9.496,9.382c4.07,0,5.23,4.201,5.23,4.201H75.594c0,0,1.16-4.201,5.23-4.201
						c5.936,0,9.495-2.994,9.495-9.382c0-6.39,0-133.306,0-133.306s0.229-4.878-4.982-8.982
						C85.337,159.289,103.407,146.392,121.25,159.289z"/>
				</g>
			</g>
			<g>
				<g>
					<path fill="none" stroke="#333333" stroke-width="2.8392" stroke-linecap="round" stroke-miterlimit="10" d="M76.16,313.861
						c0,0,0.071-0.119,0.206-0.342c0.14-0.22,0.358-0.533,0.683-0.895l0.131-0.133c0.065-0.057,0.006-0.031,0.335-0.316
						c0.49-0.425,1.085-0.79,1.77-0.986c0.68-0.213,1.427-0.232,2.19-0.252c0.768-0.019,1.556-0.125,2.36-0.285
						c1.59-0.354,3.263-1.114,4.467-2.528c0.591-0.707,1.055-1.542,1.388-2.448c0.317-0.914,0.49-1.895,0.583-2.898
						c0.093-16.152,0.026-37.693,0.046-59.233c0-21.539,0-43.08,0-59.234c0-4.039,0-7.741,0-11.022c0-1.641,0-3.176,0-4.596
						c0.028-0.711-0.055-1.39-0.177-2.029c-0.056-0.32-0.165-0.621-0.242-0.921c-0.043-0.149-0.085-0.296-0.127-0.441l-0.063-0.152
						c-0.188-0.448-0.334-0.8-0.436-1.04c-0.09-0.245-0.187-0.351-0.179-0.354"/>
					
						<line fill="none" stroke="#333333" stroke-width="2.8392" stroke-linecap="round" stroke-miterlimit="10" x1="86.384" y1="160.247" x2="86.532" y2="160.381"/>
				</g>
			</g>
			<g>
				<g>
					<path fill="none" stroke="#333333" stroke-width="2.8392" stroke-linecap="round" stroke-miterlimit="10" d="M120.203,160.247
						c0,0-0.103,0.093-0.294,0.269c-0.097,0.087-0.215,0.196-0.354,0.323c-0.119,0.146-0.256,0.314-0.409,0.502
						c-0.129,0.16-0.265,0.328-0.406,0.504c-0.443,0.483-0.767,1.085-1.127,1.697c-0.665,1.243-1.232,2.712-1.335,4.356
						c-0.003,3.282-0.007,6.983-0.012,11.022c0,16.155,0,37.695,0,59.234c0,21.541,0,43.08,0,59.234c0,1.01,0,2,0,2.965
						c0.002,0.967-0.015,1.912,0.092,2.828c0.074,0.918,0.307,1.791,0.583,2.616c0.313,0.813,0.729,1.56,1.238,2.203
						c1.054,1.265,2.444,2.063,3.807,2.446c0.682,0.203,1.353,0.334,1.998,0.404c0.324,0.026,0.64,0.08,0.95,0.078
						c0.213,0.008,0.421,0.014,0.624,0.021c0.974,0.015,1.512,0.171,1.512,0.17"/>
					
						<line fill="none" stroke="#333333" stroke-width="2.8392" stroke-linecap="round" stroke-miterlimit="10" x1="130.427" y1="313.861" x2="130.325" y2="313.689"/>
				</g>
			</g>
			<g>
				<g>
					
						<line fill="none" stroke="#333333" stroke-width="2.8392" stroke-linecap="round" stroke-miterlimit="10" x1="158.446" y1="315.16" x2="52.827" y2="315.16"/>
					
						<line fill="none" stroke="#333333" stroke-width="2.8392" stroke-linecap="round" stroke-miterlimit="10" x1="48.368" y1="315.16" x2="48.568" y2="315.16"/>
				</g>
			</g>
			
				<line fill="none" stroke="#A1C453" stroke-width="1.4194" stroke-linecap="round" stroke-linejoin="round" stroke-miterlimit="10" x1="135.778" y1="308.479" x2="135.778" y2="318.455"/>
			
				<line fill="none" stroke="#A1C453" stroke-width="1.4194" stroke-linecap="round" stroke-linejoin="round" stroke-miterlimit="10" x1="143.003" y1="311.65" x2="143.003" y2="318.455"/>
			
				<line fill="none" stroke="#A1C453" stroke-width="1.4194" stroke-linecap="round" stroke-linejoin="round" stroke-miterlimit="10" x1="162.242" y1="314.164" x2="162.242" y2="316.715"/>
			
				<line fill="none" stroke="#A1C453" stroke-width="1.4194" stroke-linecap="round" stroke-linejoin="round" stroke-miterlimit="10" x1="70.363" y1="308.408" x2="70.363" y2="316.6"/>
			
				<line fill="none" stroke="#A1C453" stroke-width="1.4194" stroke-linecap="round" stroke-linejoin="round" stroke-miterlimit="10" x1="63.269" y1="310.715" x2="63.269" y2="316.6"/>
			<g>
				<g>
					
						<line fill="none" stroke="#AF773A" stroke-width="1.419" stroke-linecap="round" stroke-miterlimit="10" x1="109.549" y1="310.629" x2="109.549" y2="212.943"/>
					
						<line fill="none" stroke="#AF773A" stroke-width="1.419" stroke-linecap="round" stroke-miterlimit="10" x1="109.549" y1="210.716" x2="109.549" y2="210.814"/>
				</g>
			</g>
			<g>
				<g>
					
						<line fill="none" stroke="#AF773A" stroke-width="1.419" stroke-linecap="round" stroke-miterlimit="10" x1="95.354" y1="172.124" x2="95.354" y2="263.85"/>
					
						<line fill="none" stroke="#AF773A" stroke-width="1.419" stroke-linecap="round" stroke-miterlimit="10" x1="95.354" y1="266.076" x2="95.354" y2="265.977"/>
				</g>
			</g>
			<g>
				<g>
					<path fill="none" stroke="#AF773A" stroke-width="1.4194" stroke-linecap="round" stroke-miterlimit="10" d="M99.26,158.369
						c0.011,0.306,0.016,0.613,0.002,0.919c-0.069,2.25-0.847,4.619-2.641,6.083c-0.185,0.196-0.431,0.313-0.645,0.47"/>
					
						<line fill="none" stroke="#AF773A" stroke-width="1.4194" stroke-linecap="round" stroke-miterlimit="10" x1="93.965" y1="166.772" x2="94.06" y2="166.743"/>
				</g>
			</g>
			<g>
				<g>
					<path fill="none" stroke="#AF773A" stroke-width="1.4194" stroke-linecap="round" stroke-miterlimit="10" d="M111.552,166.713
						c-0.279-0.127-0.556-0.258-0.827-0.403c-2.187-1.153-4.14-2.869-5.284-5.088c-0.133-0.231-0.218-0.485-0.33-0.727"/>
					
						<line fill="none" stroke="#AF773A" stroke-width="1.4194" stroke-linecap="round" stroke-miterlimit="10" x1="104.492" y1="158.362" x2="104.509" y2="158.46"/>
				</g>
			</g>
			<g>
				<g>
					<path fill="none" stroke="#AF773A" stroke-width="1.4194" stroke-linecap="round" stroke-miterlimit="10" d="M102.252,159.996
						c-0.012,0.306-0.007,0.613,0.005,0.919c0.096,1.974,0.665,3.966,1.86,5.563c0.607,0.782,1.329,1.481,2.169,2.015l0.151,0.107
						c0.013,0.056,0.003,0.122,0.006,0.183v0.372v0.745v1.488v11.577"/>
					
						<line fill="none" stroke="#AF773A" stroke-width="1.4194" stroke-linecap="round" stroke-miterlimit="10" x1="106.444" y1="185.193" x2="106.444" y2="185.094"/>
				</g>
			</g>
		</g>
	</g>
	<g>
		<g>
			<g>
				<path fill="#D6E57F" d="M356.492,315.159H243.578c0,0,11.033,22.649,56.458,22.649
					C345.457,337.811,356.492,315.159,356.492,315.159z"/>
			</g>
			<g>
				<g>
					<path fill="#CC924C" d="M317.879,209.316c-5.215,4.104-4.982,8.983-4.982,8.983s0,76.888,0,83.274
						c0,6.389,3.559,9.384,9.495,9.384c4.068,0,5.229,4.2,5.229,4.2h-55.398c0,0,1.161-4.2,5.229-4.2
						c5.936,0,9.498-2.995,9.498-9.384s0-6.389,0-83.274c0,0,0.229-4.879-4.983-8.983
						C281.966,209.316,300.036,196.421,317.879,209.316z"/>
				</g>
			</g>
			<g>
				<g>
					<path fill="none" stroke="#333333" stroke-width="2.8392" stroke-linecap="round" stroke-miterlimit="10" d="M272.788,313.859
						c0,0,0.07-0.118,0.205-0.342c0.14-0.219,0.357-0.531,0.683-0.894c0.122-0.12,0.25-0.247,0.385-0.38
						c0.335-0.285,0.704-0.573,1.145-0.771c0.427-0.227,0.917-0.357,1.428-0.449c0.516-0.063,1.056-0.072,1.611-0.09
						c1.108-0.061,2.296-0.225,3.473-0.647c1.172-0.421,2.327-1.13,3.222-2.171c0.898-1.043,1.467-2.402,1.754-3.846
						c0.304-1.451,0.254-2.99,0.259-4.558c0-3.142,0-6.452,0-9.877c0-6.853,0-14.159,0-21.468c0-14.614,0-29.229,0-40.191
						c0-2.74,0-5.252,0-7.479c-0.018-1.113,0.037-2.157-0.038-3.117c-0.075-0.475-0.116-0.939-0.254-1.36
						c-0.061-0.212-0.118-0.42-0.176-0.622c-0.03-0.101-0.051-0.203-0.091-0.299l-0.052-0.125c-0.188-0.447-0.334-0.799-0.436-1.039
						c-0.091-0.244-0.188-0.352-0.18-0.354"/>
					
						<line fill="none" stroke="#333333" stroke-width="2.8392" stroke-linecap="round" stroke-miterlimit="10" x1="283.014" y1="210.275" x2="283.16" y2="210.41"/>
				</g>
			</g>
			<g>
				<g>
					<path fill="none" stroke="#333333" stroke-width="2.8392" stroke-linecap="round" stroke-miterlimit="10" d="M316.83,210.275
						c0,0-0.103,0.094-0.294,0.269c-0.096,0.088-0.214,0.196-0.354,0.323c-0.119,0.146-0.256,0.313-0.409,0.502
						c-0.107,0.133-0.221,0.273-0.339,0.421c-0.277,0.344-0.585,0.69-0.806,1.123c-0.519,0.813-0.98,1.754-1.306,2.819
						c-0.375,1.056-0.468,2.254-0.429,3.5c0,1.248,0,2.563,0,3.933c0,10.961,0,25.576,0,40.19c0,7.309,0,14.615,0,21.467
						c0,3.426,0,6.736,0,9.877c0,1.57,0,3.098,0,4.574c0.015,1.476-0.06,2.91,0.134,4.27c0.183,1.355,0.586,2.635,1.243,3.698
						c0.648,1.069,1.555,1.892,2.521,2.44c0.968,0.559,1.983,0.852,2.927,1.033c0.472,0.102,0.932,0.143,1.371,0.186
						c0.22,0.031,0.436,0.027,0.646,0.037c0.153,0.004,0.302,0.01,0.447,0.015c0.974,0.015,1.512,0.17,1.512,0.17"/>
					
						<line fill="none" stroke="#333333" stroke-width="2.8392" stroke-linecap="round" stroke-miterlimit="10" x1="327.055" y1="313.859" x2="326.952" y2="313.688"/>
				</g>
			</g>
			<g>
				<g>
					
						<line fill="none" stroke="#333333" stroke-width="2.8392" stroke-linecap="round" stroke-miterlimit="10" x1="355.073" y1="315.159" x2="249.456" y2="315.159"/>
					
						<line fill="none" stroke="#333333" stroke-width="2.8392" stroke-linecap="round" stroke-miterlimit="10" x1="244.998" y1="315.159" x2="245.197" y2="315.159"/>
				</g>
			</g>
			
				<line fill="none" stroke="#A1C453" stroke-width="1.4194" stroke-linecap="round" stroke-linejoin="round" stroke-miterlimit="10" x1="332.405" y1="308.479" x2="332.405" y2="318.454"/>
			
				<line fill="none" stroke="#A1C453" stroke-width="1.4194" stroke-linecap="round" stroke-linejoin="round" stroke-miterlimit="10" x1="339.633" y1="311.65" x2="339.633" y2="318.454"/>
			
				<line fill="none" stroke="#A1C453" stroke-width="1.4194" stroke-linecap="round" stroke-linejoin="round" stroke-miterlimit="10" x1="358.867" y1="314.164" x2="358.867" y2="316.715"/>
			
				<line fill="none" stroke="#A1C453" stroke-width="1.4194" stroke-linecap="round" stroke-linejoin="round" stroke-miterlimit="10" x1="266.993" y1="308.408" x2="266.993" y2="316.6"/>
			
				<line fill="none" stroke="#A1C453" stroke-width="1.4194" stroke-linecap="round" stroke-linejoin="round" stroke-miterlimit="10" x1="259.896" y1="310.714" x2="259.896" y2="316.6"/>
			<g>
				<g>
					
						<line fill="none" stroke="#AF773A" stroke-width="1.419" stroke-linecap="round" stroke-miterlimit="10" x1="306.178" y1="310.629" x2="306.178" y2="252.967"/>
					
						<line fill="none" stroke="#AF773A" stroke-width="1.419" stroke-linecap="round" stroke-miterlimit="10" x1="306.178" y1="250.738" x2="306.178" y2="250.839"/>
				</g>
			</g>
			<g>
				<g>
					
						<line fill="none" stroke="#AF773A" stroke-width="1.419" stroke-linecap="round" stroke-miterlimit="10" x1="291.981" y1="222.152" x2="291.981" y2="273.854"/>
					
						<line fill="none" stroke="#AF773A" stroke-width="1.419" stroke-linecap="round" stroke-miterlimit="10" x1="291.981" y1="276.081" x2="291.981" y2="275.98"/>
				</g>
			</g>
			<g>
				<g>
					<path fill="none" stroke="#AF773A" stroke-width="1.4194" stroke-linecap="round" stroke-miterlimit="10" d="M295.888,208.398
						c0.011,0.307,0.016,0.611,0.002,0.918c-0.068,2.25-0.846,4.619-2.64,6.084c-0.185,0.195-0.432,0.313-0.646,0.471"/>
					
						<line fill="none" stroke="#AF773A" stroke-width="1.4194" stroke-linecap="round" stroke-miterlimit="10" x1="290.594" y1="216.803" x2="290.689" y2="216.773"/>
				</g>
			</g>
			<g>
				<g>
					<path fill="none" stroke="#AF773A" stroke-width="1.4194" stroke-linecap="round" stroke-miterlimit="10" d="M308.179,216.743
						c-0.278-0.127-0.557-0.259-0.826-0.402c-2.188-1.153-4.14-2.87-5.284-5.089c-0.133-0.23-0.218-0.484-0.329-0.729"/>
					
						<line fill="none" stroke="#AF773A" stroke-width="1.4194" stroke-linecap="round" stroke-miterlimit="10" x1="301.119" y1="208.393" x2="301.137" y2="208.49"/>
				</g>
			</g>
			<g>
				<g>
					<path fill="none" stroke="#AF773A" stroke-width="1.4194" stroke-linecap="round" stroke-miterlimit="10" d="M298.879,210.025
						c-0.013,0.306-0.008,0.611,0.005,0.918c0.097,1.976,0.665,3.967,1.859,5.563c0.607,0.782,1.329,1.481,2.169,2.015l0.152,0.107
						c0.012,0.057,0.003,0.122,0.006,0.184v0.371v0.746v1.487v11.577"/>
					
						<line fill="none" stroke="#AF773A" stroke-width="1.4194" stroke-linecap="round" stroke-miterlimit="10" x1="303.071" y1="235.225" x2="303.071" y2="235.124"/>
				</g>
			</g>
		</g>
	</g>
</g>
</svg>
