<?xml version="1.0" encoding="utf-8"?>
<!-- Generator: Adobe Illustrator 16.0.0, SVG Export Plug-In . SVG Version: 6.00 Build 0)  -->
<!DOCTYPE svg PUBLIC "-//W3C//DTD SVG 1.1//EN" "http://www.w3.org/Graphics/SVG/1.1/DTD/svg11.dtd">
<svg version="1.1" id="Calque_1" xmlns="http://www.w3.org/2000/svg" xmlns:xlink="http://www.w3.org/1999/xlink" x="0px" y="0px"
	 width="340px" height="410px" viewBox="0 0 340 410" enable-background="new 0 0 340 410" xml:space="preserve">
<g id="calque00">
	<g>
		<path fill="#CC924C" stroke="#333333" stroke-width="2.4893" stroke-linecap="round" stroke-miterlimit="10" d="M256.63,176.143
			l8.385-2.744c0.968-0.379,2.062,0.099,2.439,1.067l0,0c0.379,0.968-0.101,2.061-1.067,2.439l-8.021,3.672"/>
		<g>
			
				<path fill="#A1C453" stroke="#333333" stroke-width="0.9957" stroke-linecap="round" stroke-linejoin="round" stroke-miterlimit="10" d="
				M268.123,175.765c0,0,2.12-2.026,2.431-2.536c0.252-0.406-2.842,0.109-3.918,0.496L268.123,175.765z"/>
			
				<path fill="#A1C453" stroke="#333333" stroke-width="0.9957" stroke-linecap="round" stroke-linejoin="round" stroke-miterlimit="10" d="
				M267.499,173.522l-2.027,4.028c0,0,4.374-0.995,5.39-2.574C270.861,174.977,268.782,174.331,267.499,173.522z"/>
			
				<path fill="#A1C453" stroke="#333333" stroke-width="0.9957" stroke-linecap="round" stroke-linejoin="round" stroke-miterlimit="10" d="
				M262.304,174.928c0,0,3.958-3.92,7.211-3.394l-2.133,3.756L262.304,174.928z"/>
		</g>
	</g>
</g>
<g id="calque01">
	<g>
		<g>
			
				<path fill="#A1C453" stroke="#333333" stroke-width="0.9957" stroke-linecap="round" stroke-linejoin="round" stroke-miterlimit="10" d="
				M283.166,175.956c-0.399-1.163,0.05-1.974-2.244-3.157c-2.295-1.185-2.08,0.925-3.591,0.146c1.511,0.778-0.273,1.917,1.936,3.058
				C281.478,177.144,281.964,176.203,283.166,175.956z"/>
			<g>
				<line fill="none" x1="277.331" y1="172.945" x2="281.854" y2="175.278"/>
				<g>
					<polyline fill="none" stroke="#333333" stroke-width="0.9957" stroke-linecap="round" stroke-miterlimit="10" points="
						277.773,173.174 278.347,173.47 279.523,174.076 280.021,174.333 					"/>
					
						<line fill="none" stroke="#333333" stroke-width="0.9957" stroke-linecap="round" stroke-miterlimit="10" x1="281.411" y1="175.05" x2="281.349" y2="175.018"/>
				</g>
			</g>
		</g>
		<path fill="#CC924C" stroke="#333333" stroke-width="2.4893" stroke-linecap="round" stroke-miterlimit="10" d="M256.631,176.145
			l25.682-9.514c0.968-0.379,2.062,0.099,2.439,1.067l0,0c0.379,0.969-0.101,2.062-1.067,2.439l-25.318,10.439"/>
		<g>
			
				<path fill="#A1C453" stroke="#333333" stroke-width="0.9957" stroke-linecap="round" stroke-linejoin="round" stroke-miterlimit="10" d="
				M285.421,168.997c0,0,2.119-2.024,2.431-2.536c0.252-0.406-2.842,0.109-3.919,0.496L285.421,168.997z"/>
			
				<path fill="#A1C453" stroke="#333333" stroke-width="0.9957" stroke-linecap="round" stroke-linejoin="round" stroke-miterlimit="10" d="
				M284.797,166.755l-2.028,4.028c0,0,4.375-0.996,5.392-2.574C288.159,168.209,286.081,167.563,284.797,166.755z"/>
			
				<path fill="#A1C453" stroke="#333333" stroke-width="0.9957" stroke-linecap="round" stroke-linejoin="round" stroke-miterlimit="10" d="
				M279.602,168.16c0,0,3.958-3.92,7.211-3.394l-2.133,3.756L279.602,168.16z"/>
		</g>
	</g>
</g>
<g id="calque02">
	<g>
		<g>
			
				<path fill="#A1C453" stroke="#333333" stroke-width="1.4936" stroke-linecap="round" stroke-linejoin="round" stroke-miterlimit="10" d="
				M289.515,179.398c-0.871-2.534,0.111-4.301-4.893-6.885c-5.004-2.582-4.535,2.02-7.828,0.319c3.293,1.7-0.599,4.181,4.221,6.669
				C285.835,181.989,286.894,179.938,289.515,179.398z"/>
			<g>
				<line fill="none" x1="276.794" y1="172.833" x2="286.651" y2="177.922"/>
				<g>
					<polyline fill="none" stroke="#333333" stroke-width="0.9957" stroke-linecap="round" stroke-miterlimit="10" points="
						277.236,173.062 277.81,173.357 284.321,176.719 284.819,176.977 					"/>
					
						<line fill="none" stroke="#333333" stroke-width="0.9957" stroke-linecap="round" stroke-miterlimit="10" x1="286.209" y1="177.693" x2="286.146" y2="177.661"/>
				</g>
			</g>
		</g>
		<g>
			
				<path fill="#A1C453" stroke="#333333" stroke-width="0.9957" stroke-linecap="round" stroke-linejoin="round" stroke-miterlimit="10" d="
				M288.642,159.51c-1.163,0.323-1.931-0.165-3.227,2.014c-1.295,2.18,0.785,2.092-0.067,3.525c0.854-1.434,1.862,0.383,3.109-1.717
				C289.706,161.234,288.813,160.701,288.642,159.51z"/>
			<g>
				<line fill="none" x1="285.348" y1="165.049" x2="287.589" y2="161.218"/>
				<g>
					<polyline fill="none" stroke="#333333" stroke-width="0.9957" stroke-linecap="round" stroke-miterlimit="10" points="
						285.599,164.619 285.925,164.063 286.265,163.48 286.548,162.997 					"/>
					
						<line fill="none" stroke="#333333" stroke-width="0.9957" stroke-linecap="round" stroke-miterlimit="10" x1="287.338" y1="161.647" x2="287.302" y2="161.708"/>
				</g>
			</g>
		</g>
		<path fill="#CC924C" stroke="#333333" stroke-width="2.4893" stroke-linecap="round" stroke-miterlimit="10" d="M256.631,176.145
			l33.648-12.631c0.97-0.379,2.062,0.099,2.439,1.068l0,0c0.379,0.967-0.099,2.059-1.067,2.438l-33.286,13.557"/>
		<g>
			
				<path fill="#A1C453" stroke="#333333" stroke-width="0.9957" stroke-linecap="round" stroke-linejoin="round" stroke-miterlimit="10" d="
				M293.39,165.879c0,0,2.119-2.024,2.431-2.535c0.253-0.407-2.842,0.109-3.917,0.496L293.39,165.879z"/>
			
				<path fill="#A1C453" stroke="#333333" stroke-width="0.9957" stroke-linecap="round" stroke-linejoin="round" stroke-miterlimit="10" d="
				M292.766,163.637l-2.028,4.029c0,0,4.375-0.996,5.391-2.574C296.127,165.092,294.049,164.445,292.766,163.637z"/>
			
				<path fill="#A1C453" stroke="#333333" stroke-width="0.9957" stroke-linecap="round" stroke-linejoin="round" stroke-miterlimit="10" d="
				M287.569,165.044c0,0,3.96-3.92,7.211-3.396l-2.132,3.756L287.569,165.044z"/>
		</g>
	</g>
</g>
<g id="calque03">
	<g>
		
			<polygon fill="#CC924C" stroke="#333333" stroke-width="0.9957" stroke-linecap="round" stroke-linejoin="round" stroke-miterlimit="10" points="
			289.145,159.645 283.42,166.198 286.037,165.175 		"/>
		<g>
			
				<path fill="#A1C453" stroke="#333333" stroke-width="1.4936" stroke-linecap="round" stroke-linejoin="round" stroke-miterlimit="10" d="
				M289.515,179.398c-0.871-2.534,0.111-4.301-4.893-6.885c-5.004-2.582-4.535,2.02-7.828,0.319c3.293,1.7-0.599,4.183,4.221,6.669
				C285.835,181.989,286.894,179.938,289.515,179.398z"/>
			<g>
				<line fill="none" x1="276.794" y1="172.833" x2="286.651" y2="177.922"/>
				<g>
					<polyline fill="none" stroke="#333333" stroke-width="0.9957" stroke-linecap="round" stroke-miterlimit="10" points="
						277.236,173.062 277.81,173.357 284.321,176.719 284.819,176.977 					"/>
					
						<line fill="none" stroke="#333333" stroke-width="0.9957" stroke-linecap="round" stroke-miterlimit="10" x1="286.209" y1="177.693" x2="286.146" y2="177.661"/>
				</g>
			</g>
		</g>
		<g>
			
				<path fill="#A1C453" stroke="#333333" stroke-width="1.4936" stroke-linecap="round" stroke-linejoin="round" stroke-miterlimit="10" d="
				M296.462,147.34c-2.582,0.719-4.288-0.367-7.166,4.473s1.743,4.647-0.151,7.832c1.896-3.185,4.14,0.848,6.91-3.813
				C298.825,151.169,296.843,149.988,296.462,147.34z"/>
			<g>
				<line fill="none" x1="289.145" y1="159.645" x2="294.815" y2="150.11"/>
				<g>
					<polyline fill="none" stroke="#333333" stroke-width="0.9957" stroke-linecap="round" stroke-miterlimit="10" points="
						289.399,159.217 289.729,158.662 293.476,152.363 293.762,151.882 					"/>
					
						<line fill="none" stroke="#333333" stroke-width="0.9957" stroke-linecap="round" stroke-miterlimit="10" x1="294.561" y1="150.538" x2="294.525" y2="150.599"/>
				</g>
			</g>
		</g>
		<g>
			
				<path fill="#A1C453" stroke="#333333" stroke-width="0.9957" stroke-linecap="round" stroke-linejoin="round" stroke-miterlimit="10" d="
				M297.521,171.181c-0.223-1.175,0.324-1.894-1.721-3.354c-2.045-1.461-2.132,0.601-3.478-0.36c1.346,0.961-0.531,1.81,1.438,3.215
				C295.729,172.09,296.329,171.251,297.521,171.181z"/>
			<g>
				<line fill="none" x1="292.323" y1="167.467" x2="296.351" y2="170.345"/>
				<g>
					<polyline fill="none" stroke="#333333" stroke-width="0.9957" stroke-linecap="round" stroke-miterlimit="10" points="
						292.729,167.756 293.253,168.131 294.218,168.82 294.674,169.146 					"/>
					
						<line fill="none" stroke="#333333" stroke-width="0.9957" stroke-linecap="round" stroke-miterlimit="10" x1="295.945" y1="170.056" x2="295.889" y2="170.015"/>
				</g>
			</g>
		</g>
		<path fill="#CC924C" stroke="#333333" stroke-width="2.4893" stroke-linecap="round" stroke-miterlimit="10" d="M256.631,176.145
			l39.914-15.081c0.968-0.379,2.06,0.099,2.438,1.067l0,0c0.379,0.968-0.1,2.06-1.066,2.438l-39.551,16.008"/>
		<g>
			
				<path fill="#A1C453" stroke="#333333" stroke-width="0.9957" stroke-linecap="round" stroke-linejoin="round" stroke-miterlimit="10" d="
				M299.653,163.43c0,0,2.119-2.025,2.43-2.536c0.254-0.407-2.841,0.108-3.918,0.496L299.653,163.43z"/>
			
				<path fill="#A1C453" stroke="#333333" stroke-width="0.9957" stroke-linecap="round" stroke-linejoin="round" stroke-miterlimit="10" d="
				M299.029,161.187l-2.027,4.029c0,0,4.374-0.996,5.391-2.575C302.392,162.641,300.313,161.995,299.029,161.187z"/>
			
				<path fill="#A1C453" stroke="#333333" stroke-width="0.9957" stroke-linecap="round" stroke-linejoin="round" stroke-miterlimit="10" d="
				M293.833,162.594c0,0,3.959-3.92,7.212-3.396l-2.134,3.756L293.833,162.594z"/>
		</g>
	</g>
</g>
<g id="calque04">
	<g>
		
			<polygon fill="#CC924C" stroke="#333333" stroke-width="0.9957" stroke-linecap="round" stroke-linejoin="round" stroke-miterlimit="10" points="
			289.145,159.645 283.42,166.198 286.036,165.174 		"/>
		
			<polygon fill="#CC924C" stroke="#333333" stroke-width="0.9957" stroke-linecap="round" stroke-linejoin="round" stroke-miterlimit="10" points="
			304.812,172.777 290.053,167.646 292.669,166.622 		"/>
		<g>
			
				<path fill="#A1C453" stroke="#333333" stroke-width="1.4936" stroke-linecap="round" stroke-linejoin="round" stroke-miterlimit="10" d="
				M289.515,179.398c-0.871-2.534,0.111-4.301-4.893-6.885c-5.004-2.582-4.535,2.02-7.828,0.319c3.293,1.7-0.599,4.183,4.221,6.669
				C285.835,181.989,286.894,179.937,289.515,179.398z"/>
			<g>
				<line fill="none" x1="276.794" y1="172.833" x2="286.651" y2="177.922"/>
				<g>
					<polyline fill="none" stroke="#333333" stroke-width="0.9957" stroke-linecap="round" stroke-miterlimit="10" points="
						277.236,173.062 277.81,173.357 284.321,176.719 284.819,176.977 					"/>
					
						<line fill="none" stroke="#333333" stroke-width="0.9957" stroke-linecap="round" stroke-miterlimit="10" x1="286.209" y1="177.693" x2="286.146" y2="177.661"/>
				</g>
			</g>
		</g>
		<g>
			
				<path fill="#A1C453" stroke="#333333" stroke-width="1.4936" stroke-linecap="round" stroke-linejoin="round" stroke-miterlimit="10" d="
				M296.462,147.34c-2.582,0.719-4.288-0.367-7.166,4.473s1.743,4.647-0.151,7.832c1.896-3.185,4.14,0.848,6.91-3.813
				C298.825,151.169,296.843,149.988,296.462,147.34z"/>
			<g>
				<line fill="none" x1="289.145" y1="159.645" x2="294.815" y2="150.109"/>
				<g>
					<polyline fill="none" stroke="#333333" stroke-width="0.9957" stroke-linecap="round" stroke-miterlimit="10" points="
						289.399,159.217 289.729,158.662 293.476,152.363 293.762,151.881 					"/>
					
						<line fill="none" stroke="#333333" stroke-width="0.9957" stroke-linecap="round" stroke-miterlimit="10" x1="294.561" y1="150.537" x2="294.525" y2="150.598"/>
				</g>
			</g>
		</g>
		<g>
			
				<path fill="#A1C453" stroke="#333333" stroke-width="0.9957" stroke-linecap="round" stroke-linejoin="round" stroke-miterlimit="10" d="
				M311.139,171.548c-0.994-0.677-1.116-1.575-3.609-1.159c-2.493,0.414-1.088,1.942-2.729,2.216
				c1.641-0.273,0.906,1.665,3.309,1.264C310.511,173.469,310.341,172.447,311.139,171.548z"/>
			<g>
				<line fill="none" x1="304.801" y1="172.604" x2="309.712" y2="171.786"/>
				<g>
					<polyline fill="none" stroke="#333333" stroke-width="0.9957" stroke-linecap="round" stroke-miterlimit="10" points="
						305.291,172.522 305.928,172.417 307.126,172.217 307.679,172.125 					"/>
					
						<line fill="none" stroke="#333333" stroke-width="0.9957" stroke-linecap="round" stroke-miterlimit="10" x1="309.221" y1="171.868" x2="309.151" y2="171.88"/>
				</g>
			</g>
		</g>
		<g>
			
				<path fill="#A1C453" stroke="#333333" stroke-width="1.4936" stroke-linecap="round" stroke-linejoin="round" stroke-miterlimit="10" d="
				M317.524,182.178c-0.563-2.973,0.818-4.787-4.353-8.48c-5.171-3.693-5.393,1.521-8.794-0.91c3.401,2.432-1.344,4.575,3.637,8.13
				C312.994,184.475,314.51,182.355,317.524,182.178z"/>
			<g>
				<line fill="none" x1="304.378" y1="172.787" x2="314.565" y2="180.063"/>
				<g>
					<polyline fill="none" stroke="#333333" stroke-width="0.9957" stroke-linecap="round" stroke-miterlimit="10" points="
						304.782,173.076 305.308,173.451 312.432,178.539 312.888,178.865 					"/>
					
						<line fill="none" stroke="#333333" stroke-width="0.9957" stroke-linecap="round" stroke-miterlimit="10" x1="314.159" y1="179.774" x2="314.104" y2="179.733"/>
				</g>
			</g>
		</g>
		<path fill="#CC924C" stroke="#333333" stroke-width="2.4893" stroke-linecap="round" stroke-miterlimit="10" d="M256.63,176.143
			l51.875-19.759c0.967-0.379,2.06,0.099,2.438,1.067l0,0c0.379,0.969-0.1,2.061-1.065,2.438l-51.513,20.688"/>
		<g>
			
				<path fill="#A1C453" stroke="#333333" stroke-width="0.9957" stroke-linecap="round" stroke-linejoin="round" stroke-miterlimit="10" d="
				M311.613,158.749c0,0,2.12-2.024,2.432-2.535c0.252-0.407-2.842,0.108-3.918,0.497L311.613,158.749z"/>
			
				<path fill="#A1C453" stroke="#333333" stroke-width="0.9957" stroke-linecap="round" stroke-linejoin="round" stroke-miterlimit="10" d="
				M310.989,156.507l-2.026,4.028c0,0,4.375-0.995,5.39-2.574C314.352,157.961,312.272,157.315,310.989,156.507z"/>
			
				<path fill="#A1C453" stroke="#333333" stroke-width="0.9957" stroke-linecap="round" stroke-linejoin="round" stroke-miterlimit="10" d="
				M305.794,157.914c0,0,3.959-3.92,7.211-3.396l-2.134,3.757L305.794,157.914z"/>
		</g>
		<g>
			
				<path fill="#FFFFFF" stroke="#333333" stroke-width="0.9957" stroke-linecap="round" stroke-linejoin="round" stroke-miterlimit="10" d="
				M288.5,157.892c-0.066,0.441-0.892,0.772-1.534,0.951c-1.158,0.325-2.922-0.263-2.713-1.649c0.212-1.391,2.072-1.436,3.084-0.787
				C287.897,156.769,288.569,157.448,288.5,157.892z"/>
			
				<path fill="#FFFFFF" stroke="#333333" stroke-width="0.9957" stroke-linecap="round" stroke-linejoin="round" stroke-miterlimit="10" d="
				M288.597,157.959c0.416-0.163,1.114,0.387,1.592,0.854c0.86,0.842,1.232,2.664-0.071,3.174c-1.312,0.514-2.28-1.074-2.225-2.275
				C287.925,159.044,288.179,158.122,288.597,157.959z"/>
			
				<path fill="#FFFFFF" stroke="#333333" stroke-width="0.9957" stroke-linecap="round" stroke-linejoin="round" stroke-miterlimit="10" d="
				M288.608,157.85c-0.349-0.279-0.223-1.158-0.056-1.805c0.298-1.166,1.689-2.4,2.784-1.523c1.1,0.878,0.208,2.511-0.859,3.063
				C289.885,157.889,288.96,158.13,288.608,157.85z"/>
			
				<path fill="#FFFFFF" stroke="#333333" stroke-width="0.9957" stroke-linecap="round" stroke-linejoin="round" stroke-miterlimit="10" d="
				M288.483,157.769c-0.414,0.162-1.112-0.387-1.59-0.854c-0.858-0.842-1.232-2.662,0.072-3.173
				c1.311-0.513,2.279,1.074,2.223,2.274C289.156,156.684,288.902,157.604,288.483,157.769z"/>
			
				<path fill="#FFFFFF" stroke="#333333" stroke-width="0.9957" stroke-linecap="round" stroke-linejoin="round" stroke-miterlimit="10" d="
				M288.479,157.884c0.349,0.276,0.223,1.157,0.056,1.803c-0.299,1.167-1.688,2.399-2.784,1.526
				c-1.101-0.881-0.208-2.514,0.858-3.064C287.202,157.843,288.128,157.603,288.479,157.884z"/>
			
				<path fill="#FFFFFF" stroke="#333333" stroke-width="0.9957" stroke-linecap="round" stroke-linejoin="round" stroke-miterlimit="10" d="
				M288.585,157.818c0.065-0.441,0.891-0.771,1.534-0.952c1.158-0.323,2.922,0.265,2.713,1.65c-0.212,1.392-2.071,1.437-3.082,0.788
				C289.187,158.942,288.517,158.262,288.585,157.818z"/>
			
				<circle fill="#F9D53E" stroke="#333333" stroke-width="0.9957" stroke-linecap="round" stroke-linejoin="round" stroke-miterlimit="10" cx="288.484" cy="157.769" r="0.926"/>
		</g>
	</g>
</g>
<g id="calque05">
	<g>
		
			<polygon fill="#CC924C" stroke="#333333" stroke-width="0.9957" stroke-linecap="round" stroke-linejoin="round" stroke-miterlimit="10" points="
			289.145,159.645 283.42,166.198 286.036,165.174 		"/>
		
			<polygon fill="#CC924C" stroke="#333333" stroke-width="0.9957" stroke-linecap="round" stroke-linejoin="round" stroke-miterlimit="10" points="
			304.812,172.778 290.053,167.646 292.669,166.622 		"/>
		<g>
			
				<path fill="#A1C453" stroke="#333333" stroke-width="1.4936" stroke-linecap="round" stroke-linejoin="round" stroke-miterlimit="10" d="
				M289.515,179.398c-0.871-2.534,0.111-4.301-4.893-6.885c-5.004-2.582-4.535,2.02-7.828,0.319c3.293,1.7-0.599,4.183,4.221,6.669
				C285.835,181.989,286.894,179.937,289.515,179.398z"/>
			<g>
				<line fill="none" x1="276.794" y1="172.833" x2="286.651" y2="177.922"/>
				<g>
					<polyline fill="none" stroke="#333333" stroke-width="0.9957" stroke-linecap="round" stroke-miterlimit="10" points="
						277.236,173.062 277.81,173.357 284.321,176.719 284.819,176.977 					"/>
					
						<line fill="none" stroke="#333333" stroke-width="0.9957" stroke-linecap="round" stroke-miterlimit="10" x1="286.209" y1="177.693" x2="286.146" y2="177.661"/>
				</g>
			</g>
		</g>
		<g>
			
				<path fill="#A1C453" stroke="#333333" stroke-width="1.4936" stroke-linecap="round" stroke-linejoin="round" stroke-miterlimit="10" d="
				M296.462,147.34c-2.582,0.719-4.288-0.367-7.166,4.473s1.743,4.647-0.151,7.832c1.896-3.185,4.14,0.848,6.91-3.813
				C298.825,151.169,296.843,149.988,296.462,147.34z"/>
			<g>
				<line fill="none" x1="289.145" y1="159.645" x2="294.815" y2="150.109"/>
				<g>
					<polyline fill="none" stroke="#333333" stroke-width="0.9957" stroke-linecap="round" stroke-miterlimit="10" points="
						289.399,159.217 289.729,158.662 293.476,152.363 293.762,151.881 					"/>
					
						<line fill="none" stroke="#333333" stroke-width="0.9957" stroke-linecap="round" stroke-miterlimit="10" x1="294.561" y1="150.537" x2="294.525" y2="150.598"/>
				</g>
			</g>
		</g>
		<g>
			
				<path fill="#A1C453" stroke="#333333" stroke-width="1.4936" stroke-linecap="round" stroke-linejoin="round" stroke-miterlimit="10" d="
				M320.697,169.913c-2.5-1.702-2.806-3.963-9.073-2.919c-6.269,1.046-2.736,4.89-6.86,5.576c4.124-0.687,2.283,4.184,8.318,3.176
				C319.119,174.741,318.691,172.172,320.697,169.913z"/>
			<g>
				<line fill="none" x1="304.763" y1="172.57" x2="317.112" y2="170.513"/>
				<g>
					<polyline fill="none" stroke="#333333" stroke-width="0.9957" stroke-linecap="round" stroke-miterlimit="10" points="
						305.254,172.488 305.89,172.383 314.526,170.943 315.078,170.852 					"/>
					
						<line fill="none" stroke="#333333" stroke-width="0.9957" stroke-linecap="round" stroke-miterlimit="10" x1="316.62" y1="170.595" x2="316.552" y2="170.606"/>
				</g>
			</g>
		</g>
		<g>
			
				<path fill="#A1C453" stroke="#333333" stroke-width="1.4936" stroke-linecap="round" stroke-linejoin="round" stroke-miterlimit="10" d="
				M317.524,182.178c-0.563-2.973,0.818-4.787-4.353-8.48c-5.171-3.692-5.393,1.521-8.794-0.91c3.401,2.432-1.344,4.575,3.637,8.13
				C312.994,184.475,314.51,182.355,317.524,182.178z"/>
			<g>
				<line fill="none" x1="304.378" y1="172.787" x2="314.565" y2="180.063"/>
				<g>
					<polyline fill="none" stroke="#333333" stroke-width="0.9957" stroke-linecap="round" stroke-miterlimit="10" points="
						304.782,173.076 305.308,173.451 312.432,178.539 312.888,178.865 					"/>
					
						<line fill="none" stroke="#333333" stroke-width="0.9957" stroke-linecap="round" stroke-miterlimit="10" x1="314.159" y1="179.774" x2="314.104" y2="179.733"/>
				</g>
			</g>
		</g>
		<g>
			
				<path fill="#A1C453" stroke="#333333" stroke-width="0.9957" stroke-linecap="round" stroke-linejoin="round" stroke-miterlimit="10" d="
				M314.607,150.129c-0.85,0.249-1.417-0.103-2.346,1.508c-0.931,1.609,0.596,1.526-0.018,2.586c0.612-1.06,1.37,0.261,2.265-1.289
				C315.404,151.382,314.744,151.002,314.607,150.129z"/>
			<g>
				<line fill="none" x1="312.244" y1="154.223" x2="314.074" y2="151.051"/>
				<g>
					
						<line fill="none" stroke="#333333" stroke-width="0.9957" stroke-linecap="round" stroke-miterlimit="10" x1="312.306" y1="154.117" x2="313.823" y2="151.486"/>
					
						<line fill="none" stroke="#333333" stroke-width="0.9957" stroke-linecap="round" stroke-miterlimit="10" x1="314.015" y1="151.156" x2="314.006" y2="151.171"/>
				</g>
			</g>
		</g>
		<g>
			<g>
				<path fill="#D3F46C" d="M285.145,161.449c-2.071-0.494-3.843-3.384-2.856-4.646c-0.373-1.74,2.573-3.351,4.646-2.857
					c2.072,0.494,3.878,1.998,2.359,4.66C289.456,161.525,287.217,161.943,285.145,161.449z"/>
				<g>
					<path fill="none" stroke="#333333" stroke-width="0.9957" stroke-linecap="round" stroke-miterlimit="10" d="M284.674,161.29
						c-0.2-0.082-0.39-0.183-0.57-0.3c-0.771-0.501-1.399-1.224-1.788-2.059c-0.189-0.416-0.325-0.872-0.302-1.334
						c0.021-0.228,0.063-0.462,0.189-0.655c0.026-0.05,0.064-0.098,0.083-0.149l-0.018-0.172c-0.021-0.115-0.007-0.229,0.011-0.344
						c0.17-0.934,1.008-1.554,1.81-1.948c0.834-0.375,1.779-0.581,2.688-0.41c0.894,0.186,1.791,0.552,2.428,1.229
						c0.667,0.668,0.794,1.712,0.483,2.575c-0.099,0.451-0.504,0.809-0.394,1.296c-0.02,0.458-0.09,0.923-0.295,1.339
						c-0.202,0.415-0.547,0.756-0.962,0.958l-0.313,0.131l-0.178,0.051c-0.117,0.039-0.238,0.058-0.359,0.077"/>
					
						<line fill="none" stroke="#333333" stroke-width="0.9957" stroke-linecap="round" stroke-miterlimit="10" x1="285.633" y1="161.545" x2="285.702" y2="161.556"/>
				</g>
			</g>
			
				<ellipse transform="matrix(0.6618 0.7497 -0.7497 0.6618 214.1794 -163.1272)" opacity="0.5" fill="#FFFFFF" enable-background="new    " cx="287.885" cy="155.814" rx="0.883" ry="0.726"/>
		</g>
		<path fill="#CC924C" stroke="#333333" stroke-width="2.4893" stroke-linecap="round" stroke-miterlimit="10" d="M256.63,176.143
			l60.864-23.276c0.97-0.379,2.063,0.099,2.44,1.067l0,0c0.379,0.968-0.1,2.06-1.068,2.438l-60.502,24.205"/>
		<g>
			
				<path fill="#A1C453" stroke="#333333" stroke-width="0.9957" stroke-linecap="round" stroke-linejoin="round" stroke-miterlimit="10" d="
				M320.604,155.231c0,0,2.119-2.024,2.431-2.535c0.253-0.407-2.841,0.108-3.917,0.496L320.604,155.231z"/>
			
				<path fill="#A1C453" stroke="#333333" stroke-width="0.9957" stroke-linecap="round" stroke-linejoin="round" stroke-miterlimit="10" d="
				M319.98,152.989l-2.027,4.03c0,0,4.375-0.997,5.391-2.576C323.343,154.443,321.265,153.798,319.98,152.989z"/>
			
				<path fill="#A1C453" stroke="#333333" stroke-width="0.9957" stroke-linecap="round" stroke-linejoin="round" stroke-miterlimit="10" d="
				M314.783,154.396c0,0,3.96-3.92,7.212-3.396l-2.133,3.756L314.783,154.396z"/>
		</g>
		<g>
			
				<path fill="#FFFFFF" stroke="#333333" stroke-width="0.9957" stroke-linecap="round" stroke-linejoin="round" stroke-miterlimit="10" d="
				M304.74,173.867c-0.066,0.439-0.892,0.771-1.534,0.95c-1.158,0.325-2.923-0.264-2.712-1.649c0.211-1.392,2.071-1.437,3.081-0.789
				C304.138,172.742,304.808,173.424,304.74,173.867z"/>
			
				<path fill="#FFFFFF" stroke="#333333" stroke-width="0.9957" stroke-linecap="round" stroke-linejoin="round" stroke-miterlimit="10" d="
				M304.837,173.934c0.415-0.163,1.112,0.386,1.59,0.854c0.86,0.842,1.233,2.663-0.07,3.174c-1.312,0.513-2.28-1.075-2.225-2.276
				C304.163,175.018,304.419,174.097,304.837,173.934z"/>
			
				<path fill="#FFFFFF" stroke="#333333" stroke-width="0.9957" stroke-linecap="round" stroke-linejoin="round" stroke-miterlimit="10" d="
				M304.848,173.824c-0.35-0.279-0.223-1.158-0.057-1.806c0.3-1.165,1.689-2.399,2.785-1.524c1.101,0.88,0.208,2.512-0.858,3.063
				C306.123,173.863,305.198,174.104,304.848,173.824z"/>
			
				<path fill="#FFFFFF" stroke="#333333" stroke-width="0.9957" stroke-linecap="round" stroke-linejoin="round" stroke-miterlimit="10" d="
				M304.724,173.742c-0.416,0.162-1.113-0.386-1.591-0.854c-0.86-0.841-1.233-2.663,0.071-3.174c1.312-0.513,2.28,1.076,2.225,2.276
				C305.396,172.657,305.142,173.578,304.724,173.742z"/>
			
				<path fill="#FFFFFF" stroke="#333333" stroke-width="0.9957" stroke-linecap="round" stroke-linejoin="round" stroke-miterlimit="10" d="
				M304.717,173.857c0.349,0.277,0.224,1.157,0.057,1.803c-0.299,1.167-1.688,2.4-2.784,1.526c-1.1-0.88-0.209-2.513,0.858-3.065
				C303.442,173.818,304.366,173.576,304.717,173.857z"/>
			
				<path fill="#FFFFFF" stroke="#333333" stroke-width="0.9957" stroke-linecap="round" stroke-linejoin="round" stroke-miterlimit="10" d="
				M304.823,173.792c0.066-0.44,0.892-0.771,1.534-0.95c1.159-0.324,2.923,0.263,2.712,1.648c-0.211,1.393-2.071,1.438-3.082,0.788
				C305.428,174.916,304.757,174.235,304.823,173.792z"/>
			
				<circle fill="#F9D53E" stroke="#333333" stroke-width="0.9957" stroke-linecap="round" stroke-linejoin="round" stroke-miterlimit="10" cx="304.724" cy="173.742" r="0.926"/>
		</g>
	</g>
</g>
<g id="calque06">
	<g>
		
			<polygon fill="#CC924C" stroke="#333333" stroke-width="0.9957" stroke-linecap="round" stroke-linejoin="round" stroke-miterlimit="10" points="
			289.145,159.645 283.42,166.198 286.036,165.174 		"/>
		
			<polygon fill="#CC924C" stroke="#333333" stroke-width="0.9957" stroke-linecap="round" stroke-linejoin="round" stroke-miterlimit="10" points="
			314.281,149.208 310.774,155.496 313.391,154.472 		"/>
		
			<polygon fill="#CC924C" stroke="#333333" stroke-width="0.9957" stroke-linecap="round" stroke-linejoin="round" stroke-miterlimit="10" points="
			304.812,172.778 290.053,167.646 292.669,166.622 		"/>
		<g>
			
				<path fill="#A1C453" stroke="#333333" stroke-width="1.4936" stroke-linecap="round" stroke-linejoin="round" stroke-miterlimit="10" d="
				M289.515,179.398c-0.871-2.534,0.111-4.301-4.893-6.883c-5.004-2.584-4.535,2.018-7.828,0.317c3.293,1.7-0.599,4.183,4.221,6.669
				C285.835,181.989,286.894,179.938,289.515,179.398z"/>
			<g>
				<line fill="none" x1="276.794" y1="172.833" x2="286.651" y2="177.922"/>
				<g>
					<polyline fill="none" stroke="#333333" stroke-width="0.9957" stroke-linecap="round" stroke-miterlimit="10" points="
						277.236,173.062 277.81,173.357 284.321,176.719 284.819,176.977 					"/>
					
						<line fill="none" stroke="#333333" stroke-width="0.9957" stroke-linecap="round" stroke-miterlimit="10" x1="286.209" y1="177.693" x2="286.146" y2="177.661"/>
				</g>
			</g>
		</g>
		<g>
			
				<path fill="#A1C453" stroke="#333333" stroke-width="1.4936" stroke-linecap="round" stroke-linejoin="round" stroke-miterlimit="10" d="
				M296.462,147.34c-2.582,0.719-4.288-0.367-7.166,4.473s1.743,4.647-0.151,7.832c1.896-3.185,4.14,0.848,6.91-3.813
				C298.825,151.169,296.843,149.988,296.462,147.34z"/>
			<g>
				<line fill="none" x1="289.145" y1="159.645" x2="294.815" y2="150.109"/>
				<g>
					<polyline fill="none" stroke="#333333" stroke-width="0.9957" stroke-linecap="round" stroke-miterlimit="10" points="
						289.399,159.217 289.729,158.662 293.476,152.363 293.762,151.881 					"/>
					
						<line fill="none" stroke="#333333" stroke-width="0.9957" stroke-linecap="round" stroke-miterlimit="10" x1="294.561" y1="150.537" x2="294.525" y2="150.598"/>
				</g>
			</g>
		</g>
		<g>
			
				<path fill="#A1C453" stroke="#333333" stroke-width="1.4936" stroke-linecap="round" stroke-linejoin="round" stroke-miterlimit="10" d="
				M320.697,169.913c-2.5-1.702-2.806-3.963-9.073-2.919c-6.269,1.046-2.736,4.89-6.86,5.576c4.124-0.687,2.283,4.184,8.318,3.176
				C319.119,174.741,318.691,172.172,320.697,169.913z"/>
			<g>
				<line fill="none" x1="304.763" y1="172.57" x2="317.112" y2="170.513"/>
				<g>
					<polyline fill="none" stroke="#333333" stroke-width="0.9957" stroke-linecap="round" stroke-miterlimit="10" points="
						305.254,172.488 305.89,172.383 314.526,170.943 315.078,170.852 					"/>
					
						<line fill="none" stroke="#333333" stroke-width="0.9957" stroke-linecap="round" stroke-miterlimit="10" x1="316.62" y1="170.595" x2="316.552" y2="170.606"/>
				</g>
			</g>
		</g>
		<g>
			
				<path fill="#A1C453" stroke="#333333" stroke-width="1.4936" stroke-linecap="round" stroke-linejoin="round" stroke-miterlimit="10" d="
				M317.524,182.178c-0.563-2.972,0.818-4.787-4.353-8.48c-5.171-3.692-5.393,1.521-8.794-0.91c3.401,2.432-1.344,4.575,3.637,8.13
				C312.994,184.475,314.51,182.355,317.524,182.178z"/>
			<g>
				<line fill="none" x1="304.378" y1="172.787" x2="314.565" y2="180.063"/>
				<g>
					<polyline fill="none" stroke="#333333" stroke-width="0.9957" stroke-linecap="round" stroke-miterlimit="10" points="
						304.782,173.076 305.308,173.451 312.432,178.539 312.888,178.865 					"/>
					
						<line fill="none" stroke="#333333" stroke-width="0.9957" stroke-linecap="round" stroke-miterlimit="10" x1="314.159" y1="179.774" x2="314.104" y2="179.733"/>
				</g>
			</g>
		</g>
		<g>
			
				<path fill="#A1C453" stroke="#333333" stroke-width="0.9957" stroke-linecap="round" stroke-linejoin="round" stroke-miterlimit="10" d="
				M326.37,157.58c-0.49-0.861-0.257-1.572-2.253-2.167c-1.997-0.594-1.511,1.046-2.823,0.655c1.313,0.391,0.069,1.561,1.993,2.133
				C325.21,158.774,325.453,157.955,326.37,157.58z"/>
			<g>
				<line fill="none" x1="321.294" y1="156.068" x2="325.228" y2="157.239"/>
				<g>
					<polyline fill="none" stroke="#333333" stroke-width="0.9957" stroke-linecap="round" stroke-miterlimit="10" points="
						321.771,156.211 322.39,156.395 322.715,156.491 323.252,156.651 					"/>
					
						<line fill="none" stroke="#333333" stroke-width="0.9957" stroke-linecap="round" stroke-miterlimit="10" x1="324.75" y1="157.098" x2="324.684" y2="157.077"/>
				</g>
			</g>
		</g>
		<g>
			
				<path fill="#A1C453" stroke="#333333" stroke-width="0.9957" stroke-linecap="round" stroke-linejoin="round" stroke-miterlimit="10" d="
				M309.682,146.36c0.38,0.917,0.058,1.592,1.964,2.433c1.906,0.84,1.629-0.85,2.884-0.297c-1.255-0.553,0.127-1.557-1.711-2.366
				S310.638,146.102,309.682,146.36z"/>
			<g>
				<line fill="none" x1="314.529" y1="148.496" x2="310.772" y2="146.842"/>
				<g>
					<polyline fill="none" stroke="#333333" stroke-width="0.9957" stroke-linecap="round" stroke-miterlimit="10" points="
						314.073,148.295 313.483,148.035 313.172,147.898 312.658,147.673 					"/>
					
						<line fill="none" stroke="#333333" stroke-width="0.9957" stroke-linecap="round" stroke-miterlimit="10" x1="311.229" y1="147.043" x2="311.291" y2="147.07"/>
				</g>
			</g>
		</g>
		<g>
			
				<path fill="#A1C453" stroke="#333333" stroke-width="1.4936" stroke-linecap="round" stroke-linejoin="round" stroke-miterlimit="10" d="
				M322.355,135.215c-2.903,0.849-4.844-0.352-8.019,5.152c-3.177,5.504,2.034,5.219-0.056,8.841c2.09-3.622,4.684,0.895,7.74-4.406
				C325.08,139.501,322.823,138.198,322.355,135.215z"/>
			<g>
				<line fill="none" x1="314.281" y1="149.208" x2="320.538" y2="138.364"/>
				<g>
					<polyline fill="none" stroke="#333333" stroke-width="0.9957" stroke-linecap="round" stroke-miterlimit="10" points="
						314.531,148.776 314.854,148.218 319.229,140.635 319.509,140.149 					"/>
					
						<line fill="none" stroke="#333333" stroke-width="0.9957" stroke-linecap="round" stroke-miterlimit="10" x1="320.289" y1="138.796" x2="320.255" y2="138.856"/>
				</g>
			</g>
		</g>
		<g>
			<g>
				<path fill="#D3F46C" d="M281.897,162.906c-3.396-0.811-6.299-5.549-4.685-7.615c-0.61-2.855,4.218-5.494,7.616-4.686
					c3.395,0.81,6.354,3.275,3.864,7.64C288.962,163.03,285.293,163.715,281.897,162.906z"/>
				<g>
					<path fill="none" stroke="#333333" stroke-width="1.4936" stroke-linecap="round" stroke-miterlimit="10" d="M281.188,162.674
						c-0.295-0.132-0.591-0.26-0.86-0.438c-1.313-0.796-2.357-2.001-3.03-3.374c-0.327-0.688-0.565-1.442-0.538-2.213
						c0.03-0.379,0.096-0.769,0.297-1.097l0.148-0.246c0.012-0.091-0.014-0.189-0.019-0.284c-0.034-0.19-0.021-0.381,0.014-0.571
						c0.106-0.764,0.563-1.434,1.108-1.961c0.553-0.531,1.208-0.946,1.899-1.273c1.39-0.622,2.968-0.944,4.479-0.636
						c1.479,0.335,2.968,0.968,3.985,2.132c0.501,0.578,0.834,1.306,0.917,2.068c0.099,0.766-0.068,1.539-0.333,2.252
						c-0.12,0.365-0.302,0.703-0.478,1.045c-0.126,0.161-0.071,0.365-0.083,0.554c-0.004,0.191,0.017,0.384-0.009,0.574
						c-0.044,0.764-0.238,1.528-0.636,2.184c-0.396,0.657-1.025,1.158-1.738,1.436c-0.167,0.085-0.374,0.124-0.534,0.175
						c-0.088,0.025-0.176,0.054-0.268,0.065c-0.183,0.028-0.363,0.068-0.547,0.087"/>
					
						<line fill="none" stroke="#333333" stroke-width="1.4936" stroke-linecap="round" stroke-miterlimit="10" x1="282.63" y1="163.054" x2="282.733" y2="163.069"/>
				</g>
			</g>
			<path opacity="0.5" fill="#FFFFFF" enable-background="new    " d="M285.509,154.455c-0.529-0.597-0.562-1.434-0.067-1.869
				s1.321-0.303,1.852,0.294c0.531,0.598,0.562,1.436,0.068,1.87C286.868,155.186,286.039,155.053,285.509,154.455z"/>
		</g>
		<path fill="#CC924C" stroke="#333333" stroke-width="2.4893" stroke-linecap="round" stroke-miterlimit="10" d="M256.631,176.145
			l67.186-25.752c0.969-0.379,2.062,0.1,2.439,1.068l0,0c0.379,0.968-0.1,2.06-1.067,2.438l-66.822,26.678"/>
		<g>
			
				<path fill="#A1C453" stroke="#333333" stroke-width="0.9957" stroke-linecap="round" stroke-linejoin="round" stroke-miterlimit="10" d="
				M326.927,152.758c0,0,2.119-2.023,2.43-2.535c0.252-0.406-2.842,0.109-3.918,0.497L326.927,152.758z"/>
			
				<path fill="#A1C453" stroke="#333333" stroke-width="0.9957" stroke-linecap="round" stroke-linejoin="round" stroke-miterlimit="10" d="
				M326.302,150.517l-2.027,4.029c0,0,4.375-0.997,5.389-2.575C329.662,151.971,327.585,151.325,326.302,150.517z"/>
			
				<path fill="#A1C453" stroke="#333333" stroke-width="0.9957" stroke-linecap="round" stroke-linejoin="round" stroke-miterlimit="10" d="
				M321.106,151.923c0,0,3.959-3.92,7.21-3.395l-2.132,3.756L321.106,151.923z"/>
		</g>
		<g>
			<g>
				<path fill="#D3F46C" d="M304.656,177.283c-1.768,1.189-5.094,0.531-5.354-1.049c-1.532-0.906-0.718-4.163,1.049-5.352
					c1.769-1.19,4.099-1.499,5.025,1.424C307.636,174.166,306.425,176.095,304.656,177.283z"/>
				<g>
					<path fill="none" stroke="#333333" stroke-width="0.9957" stroke-linecap="round" stroke-miterlimit="10" d="M304.221,177.521
						c-0.195,0.092-0.397,0.162-0.606,0.217c-0.892,0.229-1.849,0.199-2.726-0.081c-0.437-0.143-0.862-0.351-1.187-0.683
						c-0.153-0.168-0.297-0.359-0.354-0.583c-0.019-0.054-0.027-0.113-0.053-0.162l-0.139-0.104c-0.099-0.063-0.173-0.15-0.245-0.24
						c-0.571-0.758-0.461-1.793-0.207-2.651c0.289-0.867,0.778-1.701,1.521-2.255c0.742-0.53,1.619-0.943,2.548-0.952
						c0.943-0.038,1.797,0.576,2.222,1.39c0.266,0.378,0.252,0.919,0.686,1.168c0.324,0.324,0.619,0.691,0.786,1.123
						c0.168,0.431,0.186,0.916,0.053,1.357l-0.115,0.318l-0.083,0.165c-0.051,0.112-0.12,0.214-0.188,0.317"/>
					
						<line fill="none" stroke="#333333" stroke-width="0.9957" stroke-linecap="round" stroke-miterlimit="10" x1="305.059" y1="176.989" x2="305.113" y2="176.945"/>
				</g>
			</g>
			
				<ellipse transform="matrix(0.9998 0.0216 -0.0216 0.9998 3.7742 -6.4918)" opacity="0.5" fill="#FFFFFF" enable-background="new    " cx="302.375" cy="171.454" rx="0.882" ry="0.726"/>
		</g>
	</g>
</g>
<g id="calque07">
	<g>
		
			<polygon fill="#CC924C" stroke="#333333" stroke-width="0.9957" stroke-linecap="round" stroke-linejoin="round" stroke-miterlimit="10" points="
			289.145,159.645 283.42,166.198 286.036,165.174 		"/>
		
			<polygon fill="#CC924C" stroke="#333333" stroke-width="0.9957" stroke-linecap="round" stroke-linejoin="round" stroke-miterlimit="10" points="
			314.281,149.208 310.774,155.496 313.391,154.472 		"/>
		
			<polygon fill="#CC924C" stroke="#333333" stroke-width="0.9957" stroke-linecap="round" stroke-linejoin="round" stroke-miterlimit="10" points="
			304.812,172.778 290.053,167.646 292.669,166.622 		"/>
		
			<polygon fill="#CC924C" stroke="#333333" stroke-width="0.9957" stroke-linecap="round" stroke-linejoin="round" stroke-miterlimit="10" points="
			327.276,158.318 319.647,156.067 321.337,155.406 		"/>
		<g>
			
				<path fill="#A1C453" stroke="#333333" stroke-width="1.4936" stroke-linecap="round" stroke-linejoin="round" stroke-miterlimit="10" d="
				M289.515,179.398c-0.871-2.534,0.111-4.301-4.893-6.883c-5.004-2.584-4.535,2.018-7.828,0.317c3.293,1.7-0.599,4.183,4.221,6.669
				C285.835,181.989,286.894,179.938,289.515,179.398z"/>
			<g>
				<line fill="none" x1="276.794" y1="172.833" x2="286.651" y2="177.922"/>
				<g>
					<polyline fill="none" stroke="#333333" stroke-width="0.9957" stroke-linecap="round" stroke-miterlimit="10" points="
						277.236,173.062 277.81,173.357 284.321,176.719 284.819,176.977 					"/>
					
						<line fill="none" stroke="#333333" stroke-width="0.9957" stroke-linecap="round" stroke-miterlimit="10" x1="286.209" y1="177.693" x2="286.146" y2="177.661"/>
				</g>
			</g>
		</g>
		<g>
			
				<path fill="#A1C453" stroke="#333333" stroke-width="1.4936" stroke-linecap="round" stroke-linejoin="round" stroke-miterlimit="10" d="
				M296.462,147.34c-2.582,0.719-4.288-0.367-7.166,4.473s1.743,4.647-0.151,7.832c1.896-3.185,4.14,0.848,6.91-3.813
				C298.825,151.169,296.843,149.988,296.462,147.34z"/>
			<g>
				<line fill="none" x1="289.145" y1="159.645" x2="294.815" y2="150.109"/>
				<g>
					<polyline fill="none" stroke="#333333" stroke-width="0.9957" stroke-linecap="round" stroke-miterlimit="10" points="
						289.399,159.217 289.729,158.662 293.476,152.363 293.762,151.881 					"/>
					
						<line fill="none" stroke="#333333" stroke-width="0.9957" stroke-linecap="round" stroke-miterlimit="10" x1="294.561" y1="150.537" x2="294.525" y2="150.598"/>
				</g>
			</g>
		</g>
		<g>
			
				<path fill="#A1C453" stroke="#333333" stroke-width="1.4936" stroke-linecap="round" stroke-linejoin="round" stroke-miterlimit="10" d="
				M320.697,169.913c-2.5-1.702-2.806-3.963-9.073-2.919c-6.269,1.046-2.736,4.89-6.86,5.576c4.124-0.687,2.283,4.184,8.318,3.176
				C319.119,174.741,318.691,172.172,320.697,169.913z"/>
			<g>
				<line fill="none" x1="304.763" y1="172.57" x2="317.112" y2="170.513"/>
				<g>
					<polyline fill="none" stroke="#333333" stroke-width="0.9957" stroke-linecap="round" stroke-miterlimit="10" points="
						305.254,172.488 305.89,172.383 314.526,170.943 315.078,170.852 					"/>
					
						<line fill="none" stroke="#333333" stroke-width="0.9957" stroke-linecap="round" stroke-miterlimit="10" x1="316.62" y1="170.595" x2="316.552" y2="170.606"/>
				</g>
			</g>
		</g>
		<g>
			
				<path fill="#A1C453" stroke="#333333" stroke-width="1.4936" stroke-linecap="round" stroke-linejoin="round" stroke-miterlimit="10" d="
				M317.524,182.178c-0.563-2.972,0.818-4.787-4.353-8.48c-5.171-3.692-5.393,1.521-8.794-0.91c3.401,2.432-1.344,4.575,3.637,8.13
				C312.994,184.475,314.51,182.355,317.524,182.178z"/>
			<g>
				<line fill="none" x1="304.378" y1="172.787" x2="314.565" y2="180.063"/>
				<g>
					<polyline fill="none" stroke="#333333" stroke-width="0.9957" stroke-linecap="round" stroke-miterlimit="10" points="
						304.782,173.076 305.308,173.451 312.432,178.539 312.888,178.865 					"/>
					
						<line fill="none" stroke="#333333" stroke-width="0.9957" stroke-linecap="round" stroke-miterlimit="10" x1="314.159" y1="179.774" x2="314.104" y2="179.733"/>
				</g>
			</g>
		</g>
		<g>
			
				<path fill="#A1C453" stroke="#333333" stroke-width="1.4936" stroke-linecap="round" stroke-linejoin="round" stroke-miterlimit="10" d="
				M338.664,161.662c-1.188-2.084-0.618-3.803-5.449-5.241s-3.653,2.53-6.832,1.585c3.179,0.945,0.171,3.775,4.822,5.162
				C335.858,164.552,336.448,162.572,338.664,161.662z"/>
			<g>
				<line fill="none" x1="326.383" y1="158.006" x2="335.901" y2="160.839"/>
				<g>
					<polyline fill="none" stroke="#333333" stroke-width="0.9957" stroke-linecap="round" stroke-miterlimit="10" points="
						326.86,158.147 327.479,158.332 333.389,160.091 333.926,160.251 					"/>
					
						<line fill="none" stroke="#333333" stroke-width="0.9957" stroke-linecap="round" stroke-miterlimit="10" x1="335.424" y1="160.697" x2="335.357" y2="160.677"/>
				</g>
			</g>
		</g>
		<g>
			
				<path fill="#A1C453" stroke="#333333" stroke-width="0.7966" stroke-linecap="round" stroke-linejoin="round" stroke-miterlimit="10" d="
				M329.686,163.631c0.292-1.064,1.036-1.439-0.067-3.479c-1.104-2.041-2.014-0.365-2.739-1.708c0.727,1.343-1.175,1.284-0.109,3.25
				C327.83,163.659,328.668,163.206,329.686,163.631z"/>
			<g>
				<line fill="none" x1="326.878" y1="158.443" x2="329.054" y2="162.464"/>
				<g>
					<polyline fill="none" stroke="#333333" stroke-width="0.9957" stroke-linecap="round" stroke-miterlimit="10" points="
						327.115,158.881 327.422,159.448 327.806,160.158 328.072,160.65 					"/>
					
						<line fill="none" stroke="#333333" stroke-width="0.9957" stroke-linecap="round" stroke-miterlimit="10" x1="328.816" y1="162.026" x2="328.782" y2="161.965"/>
				</g>
			</g>
		</g>
		<g>
			
				<path fill="#A1C453" stroke="#333333" stroke-width="0.9957" stroke-linecap="round" stroke-linejoin="round" stroke-miterlimit="10" d="
				M312.352,142.646c-0.588,1.071-1.485,1.282-0.819,3.764c0.665,2.479,2.073,0.909,2.512,2.541
				c-0.438-1.632,1.593-1.081,0.951-3.47C314.355,143.091,313.338,143.363,312.352,142.646z"/>
			<g>
				<line fill="none" x1="314.043" y1="148.95" x2="312.731" y2="144.064"/>
				<g>
					<polyline fill="none" stroke="#333333" stroke-width="0.7966" stroke-linecap="round" stroke-miterlimit="10" points="
						313.939,148.565 313.806,148.067 313.275,146.09 313.158,145.657 					"/>
					
						<line fill="none" stroke="#333333" stroke-width="0.7966" stroke-linecap="round" stroke-miterlimit="10" x1="312.835" y1="144.449" x2="312.85" y2="144.503"/>
				</g>
			</g>
		</g>
		<g>
			
				<path fill="#A1C453" stroke="#333333" stroke-width="1.4936" stroke-linecap="round" stroke-linejoin="round" stroke-miterlimit="10" d="
				M322.355,135.215c-2.903,0.849-4.844-0.352-8.019,5.152c-3.177,5.504,2.034,5.219-0.056,8.841c2.09-3.622,4.684,0.895,7.74-4.406
				C325.08,139.501,322.823,138.198,322.355,135.215z"/>
			<g>
				<line fill="none" x1="314.281" y1="149.208" x2="320.538" y2="138.364"/>
				<g>
					<polyline fill="none" stroke="#333333" stroke-width="0.9957" stroke-linecap="round" stroke-miterlimit="10" points="
						314.531,148.776 314.854,148.218 319.229,140.635 319.509,140.149 					"/>
					
						<line fill="none" stroke="#333333" stroke-width="0.9957" stroke-linecap="round" stroke-miterlimit="10" x1="320.289" y1="138.796" x2="320.255" y2="138.856"/>
				</g>
			</g>
		</g>
		<g>
			
				<path fill="#A1C453" stroke="#333333" stroke-width="1.4936" stroke-linecap="round" stroke-linejoin="round" stroke-miterlimit="10" d="
				M303.48,142.088c0.461,2.332-0.613,3.767,3.471,6.636c4.085,2.87,4.227-1.229,6.914,0.662c-2.688-1.891,1.028-3.603-2.904-6.365
				C307.024,140.257,305.849,141.93,303.48,142.088z"/>
			<g>
				<line fill="none" x1="313.865" y1="149.386" x2="305.819" y2="143.73"/>
				<g>
					<polyline fill="none" stroke="#333333" stroke-width="0.9957" stroke-linecap="round" stroke-miterlimit="10" points="
						313.457,149.1 312.931,148.729 307.965,145.238 307.506,144.916 					"/>
					
						<line fill="none" stroke="#333333" stroke-width="0.9957" stroke-linecap="round" stroke-miterlimit="10" x1="306.227" y1="144.017" x2="306.283" y2="144.057"/>
				</g>
			</g>
		</g>
		<g>
			<g>
				<path fill="#EF4529" d="M281.897,162.906c-3.396-0.811-6.299-5.549-4.685-7.615c-0.61-2.855,4.218-5.494,7.616-4.686
					c3.395,0.81,6.354,3.275,3.864,7.64C288.962,163.03,285.293,163.715,281.897,162.906z"/>
				<g>
					<path fill="none" stroke="#333333" stroke-width="1.4936" stroke-linecap="round" stroke-miterlimit="10" d="M281.188,162.674
						c-0.295-0.132-0.591-0.26-0.86-0.438c-1.313-0.796-2.357-2.001-3.03-3.374c-0.327-0.688-0.565-1.442-0.538-2.213
						c0.03-0.379,0.096-0.769,0.297-1.097l0.148-0.246c0.012-0.091-0.014-0.189-0.019-0.284c-0.034-0.19-0.021-0.381,0.014-0.571
						c0.106-0.764,0.563-1.434,1.108-1.961c0.553-0.531,1.208-0.946,1.899-1.273c1.39-0.622,2.968-0.944,4.479-0.636
						c1.479,0.335,2.968,0.968,3.985,2.132c0.501,0.578,0.834,1.306,0.917,2.068c0.099,0.766-0.068,1.539-0.333,2.252
						c-0.12,0.365-0.302,0.703-0.478,1.045c-0.126,0.161-0.071,0.365-0.083,0.554c-0.004,0.191,0.017,0.384-0.009,0.574
						c-0.044,0.764-0.238,1.528-0.636,2.184c-0.396,0.657-1.025,1.158-1.738,1.436c-0.167,0.085-0.374,0.124-0.534,0.175
						c-0.088,0.025-0.176,0.054-0.268,0.065c-0.183,0.028-0.363,0.068-0.547,0.087"/>
					
						<line fill="none" stroke="#333333" stroke-width="1.4936" stroke-linecap="round" stroke-miterlimit="10" x1="282.63" y1="163.054" x2="282.733" y2="163.069"/>
				</g>
			</g>
			<path opacity="0.5" fill="#FFFFFF" enable-background="new    " d="M285.509,154.455c-0.529-0.597-0.562-1.434-0.067-1.869
				s1.321-0.305,1.852,0.294c0.531,0.598,0.562,1.436,0.068,1.87C286.868,155.186,286.039,155.053,285.509,154.455z"/>
		</g>
		<g>
			<g>
				<path fill="#D3F46C" d="M304.235,181.25c-2.813,2.066-8.306,1.214-8.838-1.354c-2.57-1.381-1.459-6.771,1.356-8.838
					c2.813-2.064,6.607-2.729,8.324,1.993C308.9,175.944,307.05,179.186,304.235,181.25z"/>
				<g>
					<path fill="none" stroke="#333333" stroke-width="1.4936" stroke-linecap="round" stroke-miterlimit="10" d="M303.6,181.641
						c-0.291,0.139-0.581,0.282-0.893,0.373c-1.453,0.486-3.051,0.504-4.531,0.129c-0.736-0.195-1.466-0.502-2.035-1.021
						c-0.271-0.268-0.523-0.57-0.646-0.936l-0.093-0.272c-0.061-0.067-0.151-0.112-0.228-0.17c-0.167-0.098-0.304-0.23-0.428-0.379
						c-0.514-0.577-0.729-1.357-0.776-2.115c-0.047-0.765,0.06-1.533,0.259-2.272c0.424-1.461,1.199-2.874,2.413-3.825
						c1.213-0.911,2.656-1.637,4.203-1.661c0.766-0.008,1.535,0.209,2.171,0.639c0.646,0.421,1.129,1.048,1.501,1.711
						c0.201,0.328,0.341,0.686,0.488,1.039c0.041,0.201,0.231,0.292,0.368,0.422c0.144,0.127,0.304,0.237,0.433,0.379
						c0.555,0.527,1.011,1.17,1.254,1.897c0.245,0.727,0.219,1.53-0.03,2.254c-0.044,0.182-0.146,0.365-0.212,0.521
						c-0.038,0.084-0.073,0.169-0.124,0.246c-0.097,0.157-0.183,0.321-0.287,0.473"/>
					
						<line fill="none" stroke="#333333" stroke-width="1.4936" stroke-linecap="round" stroke-miterlimit="10" x1="304.821" y1="180.787" x2="304.9" y2="180.718"/>
				</g>
			</g>
			
				<ellipse transform="matrix(0.9998 -0.0201 0.0201 0.9998 -3.3918 6.0639)" opacity="0.5" fill="#FFFFFF" enable-background="new    " cx="300.104" cy="171.841" rx="1.446" ry="1.19"/>
		</g>
		<path fill="#CC924C" stroke="#333333" stroke-width="2.4893" stroke-linecap="round" stroke-miterlimit="10" d="M256.63,176.143
			l76.669-29.459c0.968-0.379,2.061,0.099,2.438,1.067l0,0c0.379,0.968-0.1,2.06-1.066,2.438l-76.306,30.388"/>
		<g>
			
				<path fill="#A1C453" stroke="#333333" stroke-width="0.9957" stroke-linecap="round" stroke-linejoin="round" stroke-miterlimit="10" d="
				M336.406,149.049c0,0,2.119-2.024,2.432-2.535c0.253-0.407-2.842,0.109-3.918,0.496L336.406,149.049z"/>
			
				<path fill="#A1C453" stroke="#333333" stroke-width="0.9957" stroke-linecap="round" stroke-linejoin="round" stroke-miterlimit="10" d="
				M335.783,146.807l-2.027,4.029c0,0,4.375-0.996,5.39-2.575C339.146,148.261,337.067,147.615,335.783,146.807z"/>
			
				<path fill="#A1C453" stroke="#333333" stroke-width="0.9957" stroke-linecap="round" stroke-linejoin="round" stroke-miterlimit="10" d="
				M330.587,148.214c0,0,3.96-3.921,7.212-3.396l-2.133,3.756L330.587,148.214z"/>
		</g>
	</g>
</g>
<g id="calque08">
	<g>
		
			<polygon fill="#CC924C" stroke="#333333" stroke-width="0.9957" stroke-linecap="round" stroke-linejoin="round" stroke-miterlimit="10" points="
			289.145,159.645 283.42,166.198 286.036,165.174 		"/>
		
			<polygon fill="#CC924C" stroke="#333333" stroke-width="0.9957" stroke-linecap="round" stroke-linejoin="round" stroke-miterlimit="10" points="
			314.281,149.208 310.774,155.496 313.391,154.472 		"/>
		
			<polygon fill="#CC924C" stroke="#333333" stroke-width="0.9957" stroke-linecap="round" stroke-linejoin="round" stroke-miterlimit="10" points="
			304.812,172.778 290.053,167.646 292.669,166.622 		"/>
		
			<polygon fill="#CC924C" stroke="#333333" stroke-width="0.9957" stroke-linecap="round" stroke-linejoin="round" stroke-miterlimit="10" points="
			327.276,158.318 319.647,156.067 321.337,155.406 		"/>
		<g>
			
				<path fill="#A1C453" stroke="#333333" stroke-width="1.4936" stroke-linecap="round" stroke-linejoin="round" stroke-miterlimit="10" d="
				M289.515,179.398c-0.871-2.534,0.111-4.301-4.893-6.883c-5.004-2.584-4.535,2.018-7.828,0.317c3.293,1.7-0.599,4.183,4.221,6.669
				C285.835,181.989,286.894,179.937,289.515,179.398z"/>
			<g>
				<line fill="none" x1="276.794" y1="172.833" x2="286.651" y2="177.922"/>
				<g>
					<polyline fill="none" stroke="#333333" stroke-width="0.9957" stroke-linecap="round" stroke-miterlimit="10" points="
						277.236,173.062 277.81,173.357 284.321,176.719 284.819,176.977 					"/>
					
						<line fill="none" stroke="#333333" stroke-width="0.9957" stroke-linecap="round" stroke-miterlimit="10" x1="286.209" y1="177.693" x2="286.146" y2="177.661"/>
				</g>
			</g>
		</g>
		<g>
			
				<path fill="#A1C453" stroke="#333333" stroke-width="1.4936" stroke-linecap="round" stroke-linejoin="round" stroke-miterlimit="10" d="
				M296.462,147.34c-2.582,0.719-4.288-0.367-7.166,4.473s1.743,4.647-0.151,7.832c1.896-3.185,4.14,0.848,6.91-3.813
				C298.825,151.169,296.843,149.988,296.462,147.34z"/>
			<g>
				<line fill="none" x1="289.145" y1="159.645" x2="294.815" y2="150.109"/>
				<g>
					<polyline fill="none" stroke="#333333" stroke-width="0.9957" stroke-linecap="round" stroke-miterlimit="10" points="
						289.399,159.217 289.729,158.662 293.476,152.363 293.762,151.881 					"/>
					
						<line fill="none" stroke="#333333" stroke-width="0.9957" stroke-linecap="round" stroke-miterlimit="10" x1="294.561" y1="150.537" x2="294.525" y2="150.598"/>
				</g>
			</g>
		</g>
		<g>
			
				<path fill="#A1C453" stroke="#333333" stroke-width="1.4936" stroke-linecap="round" stroke-linejoin="round" stroke-miterlimit="10" d="
				M320.697,169.913c-2.5-1.702-2.806-3.963-9.073-2.919c-6.269,1.046-2.736,4.89-6.86,5.576c4.124-0.687,2.283,4.184,8.318,3.176
				C319.119,174.741,318.691,172.172,320.697,169.913z"/>
			<g>
				<line fill="none" x1="304.763" y1="172.57" x2="317.112" y2="170.513"/>
				<g>
					<polyline fill="none" stroke="#333333" stroke-width="0.9957" stroke-linecap="round" stroke-miterlimit="10" points="
						305.254,172.488 305.89,172.383 314.526,170.943 315.078,170.852 					"/>
					
						<line fill="none" stroke="#333333" stroke-width="0.9957" stroke-linecap="round" stroke-miterlimit="10" x1="316.62" y1="170.595" x2="316.552" y2="170.606"/>
				</g>
			</g>
		</g>
		<g>
			
				<path fill="#A1C453" stroke="#333333" stroke-width="1.4936" stroke-linecap="round" stroke-linejoin="round" stroke-miterlimit="10" d="
				M317.524,182.178c-0.563-2.973,0.818-4.787-4.353-8.48c-5.171-3.692-5.393,1.521-8.794-0.91c3.401,2.432-1.344,4.575,3.637,8.13
				C312.994,184.475,314.51,182.355,317.524,182.178z"/>
			<g>
				<line fill="none" x1="304.378" y1="172.787" x2="314.565" y2="180.063"/>
				<g>
					<polyline fill="none" stroke="#333333" stroke-width="0.9957" stroke-linecap="round" stroke-miterlimit="10" points="
						304.782,173.076 305.308,173.451 312.432,178.539 312.888,178.865 					"/>
					
						<line fill="none" stroke="#333333" stroke-width="0.9957" stroke-linecap="round" stroke-miterlimit="10" x1="314.159" y1="179.774" x2="314.104" y2="179.733"/>
				</g>
			</g>
		</g>
		<g>
			
				<path fill="#A1C453" stroke="#333333" stroke-width="1.4936" stroke-linecap="round" stroke-linejoin="round" stroke-miterlimit="10" d="
				M338.737,161.757c-1.188-2.083-0.62-3.802-5.45-5.24c-4.831-1.438-3.652,2.531-6.832,1.584c3.18,0.947,0.171,3.775,4.823,5.163
				C335.931,164.648,336.521,162.667,338.737,161.757z"/>
			<g>
				<line fill="none" x1="326.454" y1="158.101" x2="335.972" y2="160.934"/>
				<g>
					<polyline fill="none" stroke="#333333" stroke-width="0.9957" stroke-linecap="round" stroke-miterlimit="10" points="
						326.933,158.242 327.551,158.427 333.459,160.186 333.995,160.346 					"/>
					
						<line fill="none" stroke="#333333" stroke-width="0.9957" stroke-linecap="round" stroke-miterlimit="10" x1="335.493" y1="160.791" x2="335.428" y2="160.771"/>
				</g>
			</g>
		</g>
		<g>
			
				<path fill="#A1C453" stroke="#333333" stroke-width="1.4936" stroke-linecap="round" stroke-linejoin="round" stroke-miterlimit="10" d="
				M332.677,169.668c0.633-2.313,2.25-3.125-0.149-7.558c-2.398-4.434-4.372-0.795-5.95-3.712c1.578,2.917-2.55,2.791-0.239,7.062
				C328.647,169.729,330.466,168.746,332.677,169.668z"/>
			<g>
				<line fill="none" x1="326.576" y1="158.398" x2="331.303" y2="167.133"/>
				<g>
					<polyline fill="none" stroke="#333333" stroke-width="0.9957" stroke-linecap="round" stroke-miterlimit="10" points="
						326.814,158.836 327.12,159.403 330.055,164.827 330.321,165.319 					"/>
					
						<line fill="none" stroke="#333333" stroke-width="0.9957" stroke-linecap="round" stroke-miterlimit="10" x1="331.065" y1="166.695" x2="331.031" y2="166.633"/>
				</g>
			</g>
		</g>
		<g>
			
				<path fill="#A1C453" stroke="#333333" stroke-width="1.4936" stroke-linecap="round" stroke-linejoin="round" stroke-miterlimit="10" d="
				M309.843,133.243c-1.452,2.653-3.674,3.177-2.027,9.313c1.647,6.138,5.131,2.25,6.213,6.289
				c-1.082-4.039,3.943-2.678,2.357-8.588C314.8,134.346,312.283,135.021,309.843,133.243z"/>
			<g>
				<line fill="none" x1="314.028" y1="148.846" x2="310.785" y2="136.755"/>
				<g>
					<polyline fill="none" stroke="#333333" stroke-width="0.9957" stroke-linecap="round" stroke-miterlimit="10" points="
						313.899,148.365 313.732,147.742 311.465,139.287 311.32,138.746 					"/>
					
						<line fill="none" stroke="#333333" stroke-width="0.9957" stroke-linecap="round" stroke-miterlimit="10" x1="310.914" y1="137.235" x2="310.934" y2="137.304"/>
				</g>
			</g>
		</g>
		<g>
			
				<path fill="#A1C453" stroke="#333333" stroke-width="1.4936" stroke-linecap="round" stroke-linejoin="round" stroke-miterlimit="10" d="
				M322.355,135.215c-2.903,0.849-4.844-0.352-8.019,5.152c-3.177,5.504,2.034,5.219-0.056,8.841c2.09-3.622,4.684,0.895,7.74-4.406
				C325.08,139.501,322.823,138.198,322.355,135.215z"/>
			<g>
				<line fill="none" x1="314.281" y1="149.208" x2="320.538" y2="138.364"/>
				<g>
					<polyline fill="none" stroke="#333333" stroke-width="0.9957" stroke-linecap="round" stroke-miterlimit="10" points="
						314.531,148.776 314.854,148.218 319.229,140.635 319.509,140.149 					"/>
					
						<line fill="none" stroke="#333333" stroke-width="0.9957" stroke-linecap="round" stroke-miterlimit="10" x1="320.289" y1="138.796" x2="320.255" y2="138.856"/>
				</g>
			</g>
		</g>
		<g>
			
				<path fill="#A1C453" stroke="#333333" stroke-width="1.4936" stroke-linecap="round" stroke-linejoin="round" stroke-miterlimit="10" d="
				M303.48,142.088c0.461,2.332-0.613,3.767,3.471,6.636c4.085,2.87,4.227-1.229,6.914,0.662c-2.688-1.891,1.028-3.603-2.904-6.365
				C307.024,140.256,305.849,141.93,303.48,142.088z"/>
			<g>
				<line fill="none" x1="313.865" y1="149.386" x2="305.819" y2="143.73"/>
				<g>
					<polyline fill="none" stroke="#333333" stroke-width="0.9957" stroke-linecap="round" stroke-miterlimit="10" points="
						313.457,149.1 312.931,148.729 307.965,145.238 307.506,144.916 					"/>
					
						<line fill="none" stroke="#333333" stroke-width="0.9957" stroke-linecap="round" stroke-miterlimit="10" x1="306.227" y1="144.017" x2="306.283" y2="144.057"/>
				</g>
			</g>
		</g>
		<g>
			<g>
				<path fill="#EF4529" d="M281.897,162.906c-3.396-0.811-6.299-5.549-4.685-7.615c-0.61-2.855,4.218-5.494,7.616-4.686
					c3.395,0.81,6.354,3.275,3.864,7.64C288.962,163.03,285.293,163.715,281.897,162.906z"/>
				<g>
					<path fill="none" stroke="#333333" stroke-width="1.4936" stroke-linecap="round" stroke-miterlimit="10" d="M281.188,162.674
						c-0.295-0.132-0.591-0.26-0.86-0.438c-1.313-0.796-2.357-2.001-3.03-3.374c-0.327-0.688-0.565-1.442-0.538-2.213
						c0.03-0.379,0.096-0.769,0.297-1.097l0.148-0.246c0.012-0.091-0.014-0.189-0.019-0.284c-0.034-0.19-0.021-0.381,0.014-0.571
						c0.106-0.764,0.563-1.434,1.108-1.961c0.553-0.531,1.208-0.946,1.899-1.273c1.39-0.622,2.968-0.944,4.479-0.636
						c1.479,0.335,2.968,0.968,3.985,2.132c0.501,0.578,0.834,1.306,0.917,2.068c0.099,0.766-0.068,1.539-0.333,2.252
						c-0.12,0.365-0.302,0.703-0.478,1.045c-0.126,0.161-0.071,0.365-0.083,0.554c-0.004,0.191,0.017,0.384-0.009,0.574
						c-0.044,0.764-0.238,1.528-0.636,2.184c-0.396,0.657-1.025,1.158-1.738,1.436c-0.167,0.085-0.374,0.124-0.534,0.175
						c-0.088,0.025-0.176,0.054-0.268,0.065c-0.183,0.028-0.363,0.068-0.547,0.087"/>
					
						<line fill="none" stroke="#333333" stroke-width="1.4936" stroke-linecap="round" stroke-miterlimit="10" x1="282.63" y1="163.054" x2="282.733" y2="163.069"/>
				</g>
			</g>
			<path opacity="0.5" fill="#FFFFFF" enable-background="new    " d="M285.509,154.455c-0.529-0.597-0.562-1.434-0.067-1.869
				c0.492-0.436,1.321-0.305,1.852,0.294c0.531,0.598,0.562,1.436,0.068,1.87C286.868,155.186,286.039,155.053,285.509,154.455z"/>
		</g>
		<g>
			<g>
				<path fill="#EF4529" d="M304.235,181.25c-2.813,2.066-8.306,1.214-8.838-1.354c-2.57-1.381-1.459-6.771,1.356-8.838
					c2.813-2.064,6.607-2.729,8.324,1.993C308.9,175.944,307.05,179.186,304.235,181.25z"/>
				<g>
					<path fill="none" stroke="#333333" stroke-width="1.4936" stroke-linecap="round" stroke-miterlimit="10" d="M303.6,181.641
						c-0.291,0.139-0.581,0.282-0.893,0.373c-1.453,0.486-3.051,0.504-4.531,0.129c-0.736-0.195-1.466-0.502-2.035-1.021
						c-0.271-0.268-0.523-0.57-0.646-0.936l-0.093-0.272c-0.061-0.067-0.151-0.112-0.228-0.17c-0.167-0.098-0.304-0.23-0.428-0.379
						c-0.514-0.577-0.729-1.357-0.776-2.115c-0.047-0.765,0.06-1.533,0.259-2.272c0.424-1.461,1.199-2.874,2.413-3.825
						c1.213-0.911,2.656-1.637,4.203-1.661c0.766-0.008,1.535,0.209,2.171,0.639c0.646,0.421,1.129,1.048,1.501,1.711
						c0.201,0.328,0.341,0.686,0.488,1.039c0.041,0.201,0.231,0.292,0.368,0.422c0.144,0.127,0.304,0.237,0.433,0.379
						c0.555,0.527,1.011,1.17,1.254,1.897c0.245,0.727,0.219,1.53-0.03,2.254c-0.044,0.182-0.146,0.365-0.212,0.521
						c-0.038,0.084-0.073,0.169-0.124,0.246c-0.097,0.157-0.183,0.321-0.287,0.473"/>
					
						<line fill="none" stroke="#333333" stroke-width="1.4936" stroke-linecap="round" stroke-miterlimit="10" x1="304.821" y1="180.787" x2="304.9" y2="180.718"/>
				</g>
			</g>
			
				<ellipse transform="matrix(0.9998 -0.0201 0.0201 0.9998 -3.3918 6.0639)" opacity="0.5" fill="#FFFFFF" enable-background="new    " cx="300.101" cy="171.839" rx="1.446" ry="1.19"/>
		</g>
		<path fill="#CC924C" stroke="#333333" stroke-width="2.4893" stroke-linecap="round" stroke-miterlimit="10" d="M256.63,176.143
			l76.669-29.459c0.968-0.379,2.061,0.099,2.438,1.067l0,0c0.379,0.968-0.1,2.06-1.066,2.438l-76.306,30.388"/>
		<g>
			
				<path fill="#A1C453" stroke="#333333" stroke-width="0.9957" stroke-linecap="round" stroke-linejoin="round" stroke-miterlimit="10" d="
				M336.406,149.049c0,0,2.119-2.024,2.432-2.535c0.253-0.407-2.842,0.109-3.918,0.496L336.406,149.049z"/>
			
				<path fill="#A1C453" stroke="#333333" stroke-width="0.9957" stroke-linecap="round" stroke-linejoin="round" stroke-miterlimit="10" d="
				M335.783,146.807l-2.027,4.029c0,0,4.375-0.996,5.39-2.575C339.146,148.261,337.067,147.615,335.783,146.807z"/>
			
				<path fill="#A1C453" stroke="#333333" stroke-width="0.9957" stroke-linecap="round" stroke-linejoin="round" stroke-miterlimit="10" d="
				M330.587,148.214c0,0,3.96-3.921,7.212-3.396l-2.133,3.756L330.587,148.214z"/>
		</g>
	</g>
</g>
</svg>
