<?xml version="1.0" encoding="utf-8"?>
<!-- Generator: Adobe Illustrator 16.0.0, SVG Export Plug-In . SVG Version: 6.00 Build 0)  -->
<!DOCTYPE svg PUBLIC "-//W3C//DTD SVG 1.1//EN" "http://www.w3.org/Graphics/SVG/1.1/DTD/svg11.dtd">
<svg version="1.1" id="Calque_1" xmlns="http://www.w3.org/2000/svg" xmlns:xlink="http://www.w3.org/1999/xlink" x="0px" y="0px"
	 width="340px" height="410px" viewBox="0 0 340 410" enable-background="new 0 0 340 410" xml:space="preserve">
<g id="calque00">
	<g>
		<path fill="#CC924C" stroke="#333333" stroke-width="2.4893" stroke-linecap="round" stroke-miterlimit="10" d="M91.713,238.904
			l-7.136-5.188c-0.873-0.563-1.127-1.728-0.563-2.603l0,0c0.563-0.873,1.729-1.125,2.603-0.563l7.675,4.353"/>
		<g>
			
				<path fill="#A1C453" stroke="#333333" stroke-width="0.9957" stroke-linecap="round" stroke-linejoin="round" stroke-miterlimit="10" d="
				M84.675,229.811c0,0-2.883-0.531-3.479-0.484c-0.479,0.035,1.751,2.24,2.696,2.886L84.675,229.811z"/>
			
				<path fill="#A1C453" stroke="#333333" stroke-width="0.9957" stroke-linecap="round" stroke-linejoin="round" stroke-miterlimit="10" d="
				M83.224,231.63l4.452-0.715c0,0-3.371-2.963-5.242-2.86C82.434,228.055,83.126,230.116,83.224,231.63z"/>
			
				<path fill="#A1C453" stroke="#333333" stroke-width="0.9957" stroke-linecap="round" stroke-linejoin="round" stroke-miterlimit="10" d="
				M87.406,235.018c0,0-5.496-0.912-6.976-3.855l4.294-0.471L87.406,235.018z"/>
		</g>
	</g>
</g>
<g id="calque01">
	<g>
		<g>
			
				<path fill="#A1C453" stroke="#333333" stroke-width="0.9957" stroke-linecap="round" stroke-linejoin="round" stroke-miterlimit="10" d="
				M69.926,230.501c0.623-1.062,0.342-1.944,2.826-2.649c2.482-0.707,1.854,1.317,3.489,0.854c-1.635,0.464-0.11,1.934-2.503,2.613
				C71.347,231.999,71.056,230.982,69.926,230.501z"/>
			<g>
				<line fill="none" x1="76.241" y1="228.705" x2="71.348" y2="230.098"/>
				<g>
					<polyline fill="none" stroke="#333333" stroke-width="0.9957" stroke-linecap="round" stroke-miterlimit="10" points="
						75.763,228.841 75.142,229.018 73.87,229.38 73.33,229.533 					"/>
					
						<line fill="none" stroke="#333333" stroke-width="0.9957" stroke-linecap="round" stroke-miterlimit="10" x1="71.826" y1="229.96" x2="71.894" y2="229.941"/>
				</g>
			</g>
		</g>
		<path fill="#CC924C" stroke="#333333" stroke-width="2.4893" stroke-linecap="round" stroke-miterlimit="10" d="M94.291,234.9
			l-23.29-14.407c-0.874-0.563-2.04-0.312-2.604,0.563l0,0c-0.563,0.875-0.311,2.039,0.564,2.603l22.751,15.245"/>
		<g>
			
				<path fill="#A1C453" stroke="#333333" stroke-width="0.9957" stroke-linecap="round" stroke-linejoin="round" stroke-miterlimit="10" d="
				M67.484,222.197c0,0-1.677-2.405-1.88-2.967c-0.166-0.451,2.764,0.67,3.743,1.261L67.484,222.197z"/>
			
				<path fill="#A1C453" stroke="#333333" stroke-width="0.9957" stroke-linecap="round" stroke-linejoin="round" stroke-miterlimit="10" d="
				M68.541,220.123l1.189,4.35c0,0-4.094-1.841-4.773-3.591C64.957,220.882,67.122,220.661,68.541,220.123z"/>
			
				<path fill="#A1C453" stroke="#333333" stroke-width="0.9957" stroke-linecap="round" stroke-linejoin="round" stroke-miterlimit="10" d="
				M73.354,222.529c0,0-3.104-4.627-6.396-4.756l1.348,4.104L73.354,222.529z"/>
		</g>
	</g>
</g>
<g id="calque02">
	<g>
		<g>
			
				<path fill="#A1C453" stroke="#333333" stroke-width="1.4936" stroke-linecap="round" stroke-linejoin="round" stroke-miterlimit="10" d="
				M61.413,231.582c1.354-2.311,0.741-4.236,6.157-5.779c5.416-1.539,4.048,2.877,7.61,1.862c-3.563,1.015-0.241,4.216-5.458,5.7
				C64.509,234.85,63.876,232.63,61.413,231.582z"/>
			<g>
				<line fill="none" x1="75.182" y1="227.665" x2="64.511" y2="230.702"/>
				<g>
					<polyline fill="none" stroke="#333333" stroke-width="0.9957" stroke-linecap="round" stroke-miterlimit="10" points="
						74.703,227.803 74.082,227.979 67.032,229.984 66.493,230.139 					"/>
					
						<line fill="none" stroke="#333333" stroke-width="0.9957" stroke-linecap="round" stroke-miterlimit="10" x1="64.989" y1="230.564" x2="65.057" y2="230.547"/>
				</g>
			</g>
		</g>
		<g>
			
				<path fill="#A1C453" stroke="#333333" stroke-width="0.9957" stroke-linecap="round" stroke-linejoin="round" stroke-miterlimit="10" d="
				M66.206,212.262c1.076,0.547,1.925,0.219,2.765,2.609c0.838,2.395-1.185,1.896-0.633,3.473c-0.552-1.574-1.901,0.004-2.708-2.3
				C64.821,213.738,65.802,213.396,66.206,212.262z"/>
			<g>
				<line fill="none" x1="68.338" y1="218.344" x2="66.899" y2="214.143"/>
				<g>
					<polyline fill="none" stroke="#333333" stroke-width="0.9957" stroke-linecap="round" stroke-miterlimit="10" points="
						68.177,217.872 67.968,217.262 67.749,216.623 67.567,216.094 					"/>
					
						<line fill="none" stroke="#333333" stroke-width="0.9957" stroke-linecap="round" stroke-miterlimit="10" x1="67.061" y1="214.613" x2="67.083" y2="214.68"/>
				</g>
			</g>
		</g>
		<path fill="#CC924C" stroke="#333333" stroke-width="2.4893" stroke-linecap="round" stroke-miterlimit="10" d="M94.291,234.9
			l-30.483-19.041c-0.874-0.563-2.04-0.311-2.604,0.563l0,0c-0.563,0.874-0.311,2.039,0.563,2.601l29.945,19.881"/>
		<g>
			
				<path fill="#A1C453" stroke="#333333" stroke-width="0.9957" stroke-linecap="round" stroke-linejoin="round" stroke-miterlimit="10" d="
				M60.291,217.563c0,0-1.678-2.403-1.881-2.967c-0.166-0.447,2.764,0.67,3.742,1.262L60.291,217.563z"/>
			
				<path fill="#A1C453" stroke="#333333" stroke-width="0.9957" stroke-linecap="round" stroke-linejoin="round" stroke-miterlimit="10" d="
				M61.347,215.49l1.191,4.349c0,0-4.095-1.84-4.774-3.59C57.764,216.249,59.929,216.025,61.347,215.49z"/>
			
				<path fill="#A1C453" stroke="#333333" stroke-width="0.9957" stroke-linecap="round" stroke-linejoin="round" stroke-miterlimit="10" d="
				M66.161,217.896c0,0-3.105-4.627-6.396-4.756l1.348,4.104L66.161,217.896z"/>
		</g>
	</g>
</g>
<g id="calque03">
	<g>
		
			<polygon fill="#CC924C" stroke="#333333" stroke-width="0.9957" stroke-linecap="round" stroke-linejoin="round" stroke-miterlimit="10" points="
			65.685,212.292 70,219.85 67.639,218.327 		"/>
		<g>
			
				<path fill="#A1C453" stroke="#333333" stroke-width="1.4936" stroke-linecap="round" stroke-linejoin="round" stroke-miterlimit="10" d="
				M61.412,231.583c1.355-2.312,0.745-4.239,6.158-5.78c5.416-1.539,4.048,2.877,7.61,1.862c-3.563,1.015-0.242,4.217-5.458,5.7
				C64.509,234.85,63.876,232.63,61.412,231.583z"/>
			<g>
				<line fill="none" x1="75.182" y1="227.665" x2="64.351" y2="230.734"/>
				<g>
					<polyline fill="none" stroke="#333333" stroke-width="0.9957" stroke-linecap="round" stroke-miterlimit="10" points="
						74.702,227.801 74.082,227.977 66.873,230.021 66.334,230.173 					"/>
					
						<line fill="none" stroke="#333333" stroke-width="0.9957" stroke-linecap="round" stroke-miterlimit="10" x1="64.829" y1="230.6" x2="64.897" y2="230.58"/>
				</g>
			</g>
		</g>
		<g>
			
				<path fill="#A1C453" stroke="#333333" stroke-width="1.4936" stroke-linecap="round" stroke-linejoin="round" stroke-miterlimit="10" d="
				M60.949,198.783c2.39,1.214,4.275,0.488,6.14,5.801c1.863,5.314-2.629,4.212-1.404,7.708c-1.225-3.496-4.222,0.013-6.016-5.104
				C57.873,202.068,60.052,201.305,60.949,198.783z"/>
			<g>
				<line fill="none" x1="65.524" y1="212.328" x2="61.854" y2="201.859"/>
				<g>
					<polyline fill="none" stroke="#333333" stroke-width="0.9957" stroke-linecap="round" stroke-miterlimit="10" points="
						65.359,211.857 65.146,211.25 62.721,204.334 62.536,203.805 					"/>
					
						<line fill="none" stroke="#333333" stroke-width="0.9957" stroke-linecap="round" stroke-miterlimit="10" x1="62.019" y1="202.329" x2="62.041" y2="202.396"/>
				</g>
			</g>
		</g>
		<g>
			
				<path fill="#A1C453" stroke="#333333" stroke-width="0.9957" stroke-linecap="round" stroke-linejoin="round" stroke-miterlimit="10" d="
				M52.007,221.936c0.59-1.451,0.076-2.518,3.081-3.863c3.007-1.346,2.583,1.328,4.562,0.441c-1.979,0.887,0.214,2.463-2.681,3.756
				C54.072,223.566,53.521,222.334,52.007,221.936z"/>
			<g>
				<line fill="none" x1="59.649" y1="218.514" x2="53.728" y2="221.164"/>
				<g>
					<polyline fill="none" stroke="#333333" stroke-width="0.9957" stroke-linecap="round" stroke-miterlimit="10" points="
						59.195,218.716 58.606,218.979 56.12,220.094 55.609,220.32 					"/>
					
						<line fill="none" stroke="#333333" stroke-width="0.9957" stroke-linecap="round" stroke-miterlimit="10" x1="54.182" y1="220.961" x2="54.246" y2="220.932"/>
				</g>
			</g>
		</g>
		<path fill="#CC924C" stroke="#333333" stroke-width="2.6551" stroke-linecap="round" stroke-miterlimit="10" d="M94.291,234.9
			l-37.152-23.336c-0.874-0.563-2.04-0.311-2.603,0.563l0,0c-0.563,0.874-0.313,2.038,0.563,2.601l36.613,24.176"/>
		<g>
			
				<path fill="#A1C453" stroke="#333333" stroke-width="0.9957" stroke-linecap="round" stroke-linejoin="round" stroke-miterlimit="10" d="
				M53.622,213.27c0,0-1.677-2.404-1.88-2.967c-0.167-0.449,2.764,0.67,3.742,1.262L53.622,213.27z"/>
			
				<path fill="#A1C453" stroke="#333333" stroke-width="0.9957" stroke-linecap="round" stroke-linejoin="round" stroke-miterlimit="10" d="
				M54.679,211.193l1.19,4.351c0,0-4.094-1.842-4.775-3.589C51.094,211.955,53.259,211.732,54.679,211.193z"/>
			
				<path fill="#A1C453" stroke="#333333" stroke-width="0.9957" stroke-linecap="round" stroke-linejoin="round" stroke-miterlimit="10" d="
				M59.493,213.602c0,0-3.105-4.627-6.397-4.754l1.348,4.104L59.493,213.602z"/>
		</g>
	</g>
</g>
<g id="calque04">
	<g>
		
			<polygon fill="#CC924C" stroke="#333333" stroke-width="0.9957" stroke-linecap="round" stroke-linejoin="round" stroke-miterlimit="10" points="
			65.685,212.292 70,219.85 67.639,218.327 		"/>
		
			<polygon fill="#CC924C" stroke="#333333" stroke-width="0.9957" stroke-linecap="round" stroke-linejoin="round" stroke-miterlimit="10" points="
			47.73,222.064 63.213,219.955 60.852,218.436 		"/>
		<g>
			
				<path fill="#A1C453" stroke="#333333" stroke-width="1.4936" stroke-linecap="round" stroke-linejoin="round" stroke-miterlimit="10" d="
				M61.412,231.583c1.355-2.312,0.742-4.237,6.158-5.778s4.048,2.875,7.61,1.86c-3.563,1.015-0.242,4.217-5.458,5.7
				C64.509,234.85,63.876,232.63,61.412,231.583z"/>
			<g>
				<line fill="none" x1="75.182" y1="227.665" x2="64.351" y2="230.734"/>
				<g>
					<polyline fill="none" stroke="#333333" stroke-width="0.9957" stroke-linecap="round" stroke-miterlimit="10" points="
						74.702,227.801 74.082,227.977 66.873,230.021 66.334,230.173 					"/>
					
						<line fill="none" stroke="#333333" stroke-width="0.9957" stroke-linecap="round" stroke-miterlimit="10" x1="64.829" y1="230.6" x2="64.897" y2="230.58"/>
				</g>
			</g>
		</g>
		<g>
			
				<path fill="#A1C453" stroke="#333333" stroke-width="1.4936" stroke-linecap="round" stroke-linejoin="round" stroke-miterlimit="10" d="
				M60.949,198.783c2.39,1.214,4.275,0.488,6.14,5.801c1.863,5.314-2.629,4.212-1.404,7.708c-1.225-3.496-4.222,0.013-6.016-5.104
				C57.873,202.068,60.052,201.305,60.949,198.783z"/>
			<g>
				<line fill="none" x1="65.524" y1="212.328" x2="61.854" y2="201.859"/>
				<g>
					<polyline fill="none" stroke="#333333" stroke-width="0.9957" stroke-linecap="round" stroke-miterlimit="10" points="
						65.359,211.857 65.146,211.25 62.721,204.334 62.536,203.805 					"/>
					
						<line fill="none" stroke="#333333" stroke-width="0.9957" stroke-linecap="round" stroke-miterlimit="10" x1="62.019" y1="202.329" x2="62.041" y2="202.396"/>
				</g>
			</g>
		</g>
		<g>
			
				<path fill="#A1C453" stroke="#333333" stroke-width="0.9957" stroke-linecap="round" stroke-linejoin="round" stroke-miterlimit="10" d="
				M40.247,218.893c1.354-0.572,1.721-1.621,4.608-0.52c2.89,1.104,0.835,2.596,2.735,3.32c-1.9-0.727-1.493,1.775-4.274,0.713
				C40.536,221.346,40.987,220.162,40.247,218.893z"/>
			<g>
				<line fill="none" x1="47.592" y1="221.693" x2="41.9" y2="219.521"/>
				<g>
					<polyline fill="none" stroke="#333333" stroke-width="0.9957" stroke-linecap="round" stroke-miterlimit="10" points="
						47.127,221.518 46.524,221.287 44.351,220.457 43.826,220.258 					"/>
					
						<line fill="none" stroke="#333333" stroke-width="0.9957" stroke-linecap="round" stroke-miterlimit="10" x1="42.365" y1="219.7" x2="42.431" y2="219.725"/>
				</g>
			</g>
		</g>
		<g>
			
				<path fill="#A1C453" stroke="#333333" stroke-width="1.4936" stroke-linecap="round" stroke-linejoin="round" stroke-miterlimit="10" d="
				M33.407,228.762c1.142-2.802,0.146-4.854,5.942-7.449c5.801-2.599,4.985,2.558,8.803,0.849c-3.816,1.709,0.41,4.749-5.174,7.249
				C37.393,231.909,36.328,229.533,33.407,228.762z"/>
			<g>
				<line fill="none" x1="48.153" y1="222.16" x2="36.726" y2="227.275"/>
				<g>
					<polyline fill="none" stroke="#333333" stroke-width="0.9957" stroke-linecap="round" stroke-miterlimit="10" points="
						47.699,222.363 47.11,222.627 39.118,226.205 38.607,226.436 					"/>
					
						<line fill="none" stroke="#333333" stroke-width="0.9957" stroke-linecap="round" stroke-miterlimit="10" x1="37.18" y1="227.072" x2="37.244" y2="227.044"/>
				</g>
			</g>
		</g>
		<g>
			
				<path fill="#A1C453" stroke="#333333" stroke-width="0.9957" stroke-linecap="round" stroke-linejoin="round" stroke-miterlimit="10" d="
				M40.878,195.192c1.231,0.646,2.218,0.281,3.147,3.056c0.933,2.774-1.394,2.17-0.78,3.995c-0.612-1.825-2.193-0.023-3.093-2.694
				C39.257,196.877,40.394,196.495,40.878,195.192z"/>
			<g>
				<line fill="none" x1="43.245" y1="202.243" x2="41.41" y2="196.778"/>
				<g>
					<polyline fill="none" stroke="#333333" stroke-width="0.9957" stroke-linecap="round" stroke-miterlimit="10" points="
						43.087,201.771 42.882,201.159 42.245,199.264 42.066,198.732 					"/>
					
						<line fill="none" stroke="#333333" stroke-width="0.9957" stroke-linecap="round" stroke-miterlimit="10" x1="41.568" y1="197.25" x2="41.591" y2="197.316"/>
				</g>
			</g>
		</g>
		<path fill="#CC924C" stroke="#333333" stroke-width="2.6551" stroke-linecap="round" stroke-miterlimit="10" d="M94.291,234.9
			l-53.919-34.136c-0.873-0.563-2.04-0.31-2.604,0.565l0,0c-0.563,0.873-0.31,2.038,0.564,2.601l53.38,34.974"/>
		<g>
			
				<path fill="#A1C453" stroke="#333333" stroke-width="0.9957" stroke-linecap="round" stroke-linejoin="round" stroke-miterlimit="10" d="
				M36.855,202.47c0,0-1.676-2.405-1.88-2.967c-0.167-0.449,2.763,0.67,3.743,1.262L36.855,202.47z"/>
			
				<path fill="#A1C453" stroke="#333333" stroke-width="0.9957" stroke-linecap="round" stroke-linejoin="round" stroke-miterlimit="10" d="
				M37.911,200.395l1.19,4.35c0,0-4.094-1.84-4.774-3.589C34.327,201.155,36.493,200.935,37.911,200.395z"/>
			
				<path fill="#A1C453" stroke="#333333" stroke-width="0.9957" stroke-linecap="round" stroke-linejoin="round" stroke-miterlimit="10" d="
				M42.727,202.802c0,0-3.104-4.626-6.396-4.754l1.348,4.104L42.727,202.802z"/>
		</g>
		<g>
			
				<path fill="#FFFFFF" stroke="#333333" stroke-width="0.9957" stroke-linecap="round" stroke-linejoin="round" stroke-miterlimit="10" d="
				M66.158,211.436c-0.021,0.443,0.721,0.932,1.314,1.235c1.072,0.548,2.917,0.32,2.985-1.08c0.067-1.405-1.745-1.817-2.865-1.383
				C66.972,210.452,66.179,210.986,66.158,211.436z"/>
			
				<path fill="#FFFFFF" stroke="#333333" stroke-width="0.9957" stroke-linecap="round" stroke-linejoin="round" stroke-miterlimit="10" d="
				M66.049,211.48c-0.374-0.24-1.166,0.156-1.728,0.521c-1.011,0.654-1.736,2.366-0.558,3.125c1.183,0.762,2.447-0.604,2.629-1.79
				C66.494,212.678,66.427,211.725,66.049,211.48z"/>
			
				<path fill="#FFFFFF" stroke="#333333" stroke-width="0.9957" stroke-linecap="round" stroke-linejoin="round" stroke-miterlimit="10" d="
				M66.061,211.37c0.397-0.203,0.447-1.091,0.412-1.757c-0.062-1.202-1.18-2.688-2.427-2.045c-1.252,0.644-0.701,2.42,0.234,3.17
				C64.803,211.156,65.663,211.576,66.061,211.37z"/>
			
				<path fill="#FFFFFF" stroke="#333333" stroke-width="0.9957" stroke-linecap="round" stroke-linejoin="round" stroke-miterlimit="10" d="
				M66.199,211.316c0.375,0.24,1.168-0.16,1.729-0.522c1.009-0.653,1.734-2.366,0.558-3.126c-1.184-0.762-2.448,0.604-2.631,1.791
				C65.755,210.119,65.821,211.072,66.199,211.316z"/>
			
				<path fill="#FFFFFF" stroke="#333333" stroke-width="0.9957" stroke-linecap="round" stroke-linejoin="round" stroke-miterlimit="10" d="
				M66.183,211.432c-0.396,0.202-0.447,1.09-0.412,1.756c0.062,1.203,1.183,2.687,2.427,2.045c1.253-0.644,0.701-2.42-0.234-3.172
				C67.44,211.645,66.581,211.225,66.183,211.432z"/>
			
				<path fill="#FFFFFF" stroke="#333333" stroke-width="0.9957" stroke-linecap="round" stroke-linejoin="round" stroke-miterlimit="10" d="
				M66.091,211.346c0.021-0.445-0.721-0.934-1.316-1.236c-1.071-0.547-2.916-0.319-2.984,1.08c-0.068,1.406,1.746,1.818,2.864,1.383
				C65.278,212.327,66.068,211.793,66.091,211.346z"/>
			
				<circle fill="#F9D53E" stroke="#333333" stroke-width="0.9957" stroke-linecap="round" stroke-linejoin="round" stroke-miterlimit="10" cx="66.2" cy="211.315" r="0.926"/>
		</g>
	</g>
</g>
<g id="calque05">
	<g>
		
			<polygon fill="#CC924C" stroke="#333333" stroke-width="0.9957" stroke-linecap="round" stroke-linejoin="round" stroke-miterlimit="10" points="
			65.685,212.292 70,219.85 67.639,218.327 		"/>
		
			<polygon fill="#CC924C" stroke="#333333" stroke-width="0.9957" stroke-linecap="round" stroke-linejoin="round" stroke-miterlimit="10" points="
			43.111,197.087 45.306,203.943 42.944,202.421 		"/>
		
			<polygon fill="#CC924C" stroke="#333333" stroke-width="0.9957" stroke-linecap="round" stroke-linejoin="round" stroke-miterlimit="10" points="
			47.73,222.064 63.213,219.955 60.852,218.436 		"/>
		<g>
			
				<path fill="#A1C453" stroke="#333333" stroke-width="1.4936" stroke-linecap="round" stroke-linejoin="round" stroke-miterlimit="10" d="
				M61.412,231.583c1.355-2.312,0.745-4.239,6.158-5.78c5.416-1.539,4.048,2.877,7.61,1.862c-3.563,1.015-0.242,4.217-5.458,5.7
				C64.509,234.85,63.876,232.629,61.412,231.583z"/>
			<g>
				<line fill="none" x1="75.182" y1="227.665" x2="64.351" y2="230.734"/>
				<g>
					<polyline fill="none" stroke="#333333" stroke-width="0.9957" stroke-linecap="round" stroke-miterlimit="10" points="
						74.702,227.801 74.082,227.977 66.873,230.021 66.334,230.173 					"/>
					
						<line fill="none" stroke="#333333" stroke-width="0.9957" stroke-linecap="round" stroke-miterlimit="10" x1="64.829" y1="230.6" x2="64.897" y2="230.58"/>
				</g>
			</g>
		</g>
		<g>
			
				<path fill="#A1C453" stroke="#333333" stroke-width="1.4936" stroke-linecap="round" stroke-linejoin="round" stroke-miterlimit="10" d="
				M60.949,198.783c2.39,1.214,4.275,0.488,6.14,5.801c1.863,5.314-2.629,4.212-1.404,7.708c-1.225-3.496-4.223,0.013-6.016-5.104
				C57.873,202.068,60.052,201.305,60.949,198.783z"/>
			<g>
				<line fill="none" x1="65.524" y1="212.328" x2="61.854" y2="201.859"/>
				<g>
					<polyline fill="none" stroke="#333333" stroke-width="0.9957" stroke-linecap="round" stroke-miterlimit="10" points="
						65.359,211.857 65.146,211.25 62.721,204.334 62.536,203.805 					"/>
					
						<line fill="none" stroke="#333333" stroke-width="0.9957" stroke-linecap="round" stroke-miterlimit="10" x1="62.019" y1="202.329" x2="62.041" y2="202.396"/>
				</g>
			</g>
		</g>
		<g>
			
				<path fill="#A1C453" stroke="#333333" stroke-width="1.4936" stroke-linecap="round" stroke-linejoin="round" stroke-miterlimit="10" d="
				M32.725,216.111c2.787-1.174,3.535-3.33,9.475-1.064c5.936,2.266,1.713,5.334,5.618,6.825c-3.905-1.491-3.065,3.647-8.782,1.466
				C33.315,221.156,34.245,218.723,32.725,216.111z"/>
			<g>
				<line fill="none" x1="47.817" y1="221.872" x2="36.121" y2="217.409"/>
				<g>
					<polyline fill="none" stroke="#333333" stroke-width="0.9957" stroke-linecap="round" stroke-miterlimit="10" points="
						47.353,221.693 46.749,221.465 38.571,218.344 38.047,218.145 					"/>
					
						<line fill="none" stroke="#333333" stroke-width="0.9957" stroke-linecap="round" stroke-miterlimit="10" x1="36.586" y1="217.587" x2="36.651" y2="217.611"/>
				</g>
			</g>
		</g>
		<g>
			
				<path fill="#A1C453" stroke="#333333" stroke-width="1.4936" stroke-linecap="round" stroke-linejoin="round" stroke-miterlimit="10" d="
				M33.407,228.762c1.142-2.802,0.146-4.855,5.944-7.451c5.799-2.597,4.983,2.56,8.801,0.851c-3.816,1.709,0.41,4.749-5.174,7.249
				C37.393,231.909,36.328,229.533,33.407,228.762z"/>
			<g>
				<line fill="none" x1="48.153" y1="222.16" x2="36.727" y2="227.275"/>
				<g>
					<polyline fill="none" stroke="#333333" stroke-width="0.9957" stroke-linecap="round" stroke-miterlimit="10" points="
						47.699,222.363 47.11,222.627 39.12,226.204 38.608,226.434 					"/>
					
						<line fill="none" stroke="#333333" stroke-width="0.9957" stroke-linecap="round" stroke-miterlimit="10" x1="37.181" y1="227.072" x2="37.245" y2="227.043"/>
				</g>
			</g>
		</g>
		<g>
			
				<path fill="#A1C453" stroke="#333333" stroke-width="0.9957" stroke-linecap="round" stroke-linejoin="round" stroke-miterlimit="10" d="
				M28.47,202.769c0.801-0.918,0.69-1.828,3.236-2.059s1.563,1.625,3.237,1.473c-1.676,0.152-0.466,1.861-2.917,2.083
				C29.574,204.487,29.48,203.442,28.47,202.769z"/>
			<g>
				<line fill="none" x1="34.944" y1="202.183" x2="29.928" y2="202.637"/>
				<g>
					<polyline fill="none" stroke="#333333" stroke-width="0.9957" stroke-linecap="round" stroke-miterlimit="10" points="
						34.448,202.228 33.806,202.286 32.539,202.4 31.98,202.451 					"/>
					
						<line fill="none" stroke="#333333" stroke-width="0.9957" stroke-linecap="round" stroke-miterlimit="10" x1="30.424" y1="202.592" x2="30.493" y2="202.586"/>
				</g>
			</g>
		</g>
		<g>
			
				<path fill="#A1C453" stroke="#333333" stroke-width="0.9957" stroke-linecap="round" stroke-linejoin="round" stroke-miterlimit="10" d="
				M40.446,188.154c1.482,0.777,2.666,0.34,3.785,3.671c1.119,3.334-1.676,2.607-0.938,4.802c-0.736-2.194-2.638-0.029-3.715-3.237
				C38.499,190.179,39.866,189.72,40.446,188.154z"/>
			<g>
				<line fill="none" x1="43.292" y1="196.627" x2="41.087" y2="190.061"/>
				<g>
					<polyline fill="none" stroke="#333333" stroke-width="0.9957" stroke-linecap="round" stroke-miterlimit="10" points="
						43.134,196.155 42.928,195.544 41.922,192.546 41.743,192.015 					"/>
					
						<line fill="none" stroke="#333333" stroke-width="0.9957" stroke-linecap="round" stroke-miterlimit="10" x1="41.245" y1="190.532" x2="41.268" y2="190.599"/>
				</g>
			</g>
		</g>
		<g>
			
				<path fill="#A1C453" stroke="#333333" stroke-width="1.4936" stroke-linecap="round" stroke-linejoin="round" stroke-miterlimit="10" d="
				M55.109,192.246c-0.915,2.194-0.144,3.812-4.716,5.815c-4.572,2.007-3.897-2.039-6.908-0.719c3.011-1.32-0.293-3.734,4.107-5.664
				C51.998,189.747,52.819,191.621,55.109,192.246z"/>
			<g>
				<line fill="none" x1="43.324" y1="197.377" x2="52.332" y2="193.428"/>
				<g>
					<polyline fill="none" stroke="#333333" stroke-width="0.9957" stroke-linecap="round" stroke-miterlimit="10" points="
						43.78,197.177 44.371,196.918 49.931,194.48 50.444,194.256 					"/>
					
						<line fill="none" stroke="#333333" stroke-width="0.9957" stroke-linecap="round" stroke-miterlimit="10" x1="51.876" y1="193.628" x2="51.812" y2="193.655"/>
				</g>
			</g>
		</g>
		<path fill="#CC924C" stroke="#333333" stroke-width="2.6551" stroke-linecap="round" stroke-miterlimit="10" d="M94.291,234.9
			l-61.353-38.922c-0.874-0.563-2.038-0.311-2.603,0.563l0,0c-0.563,0.875-0.311,2.039,0.563,2.602l60.813,39.761"/>
		<g>
			<g>
				<path fill="#D3F46C" d="M71.553,210.178c1.509,1.771,1.201,5.463-0.479,5.938c-0.799,1.777-4.436,1.294-5.941-0.48
					c-1.509-1.771-2.129-4.265,0.93-5.631C67.803,207.326,70.046,208.4,71.553,210.178z"/>
				<g>
					<path fill="none" stroke="#333333" stroke-width="0.9957" stroke-linecap="round" stroke-miterlimit="10" d="M71.843,210.581
						c0.106,0.187,0.216,0.372,0.291,0.573c0.393,0.945,0.479,2.006,0.301,3.009c-0.096,0.499-0.266,0.999-0.584,1.401
						c-0.165,0.191-0.354,0.375-0.592,0.473l-0.177,0.074c-0.04,0.045-0.067,0.106-0.103,0.16c-0.057,0.115-0.14,0.213-0.23,0.303
						c-0.759,0.73-1.919,0.732-2.895,0.553c-0.992-0.213-1.968-0.662-2.656-1.424c-0.664-0.764-1.217-1.688-1.306-2.717
						c-0.11-1.039,0.517-2.031,1.391-2.553c0.208-0.148,0.438-0.26,0.667-0.373c0.229-0.117,0.313-0.396,0.493-0.572
						c0.324-0.393,0.73-0.727,1.202-0.924c0.473-0.196,1.008-0.217,1.5-0.086c0.124,0.021,0.251,0.08,0.356,0.117
						c0.058,0.021,0.116,0.039,0.17,0.069c0.109,0.058,0.223,0.106,0.328,0.169"/>
					
						<line fill="none" stroke="#333333" stroke-width="0.9957" stroke-linecap="round" stroke-miterlimit="10" x1="71.218" y1="209.809" x2="71.168" y2="209.76"/>
				</g>
			</g>
			
				<ellipse transform="matrix(-0.0917 -0.9958 0.9958 -0.0917 -140.9658 298.1583)" opacity="0.5" fill="#FFFFFF" enable-background="new    " cx="65.502" cy="213.371" rx="0.964" ry="0.793"/>
		</g>
		<g>
			
				<path fill="#A1C453" stroke="#333333" stroke-width="0.9957" stroke-linecap="round" stroke-linejoin="round" stroke-miterlimit="10" d="
				M29.423,197.683c0,0-1.676-2.405-1.881-2.967c-0.165-0.45,2.765,0.67,3.743,1.262L29.423,197.683z"/>
			
				<path fill="#A1C453" stroke="#333333" stroke-width="0.9957" stroke-linecap="round" stroke-linejoin="round" stroke-miterlimit="10" d="
				M30.479,195.607l1.19,4.35c0,0-4.092-1.84-4.774-3.588C26.896,196.369,29.062,196.146,30.479,195.607z"/>
			
				<path fill="#A1C453" stroke="#333333" stroke-width="0.9957" stroke-linecap="round" stroke-linejoin="round" stroke-miterlimit="10" d="
				M35.294,198.015c0,0-3.105-4.626-6.397-4.754l1.348,4.104L35.294,198.015z"/>
		</g>
		<g>
			
				<path fill="#FFFFFF" stroke="#333333" stroke-width="0.9957" stroke-linecap="round" stroke-linejoin="round" stroke-miterlimit="10" d="
				M34.278,204.234c-0.022,0.446,0.721,0.934,1.316,1.236c1.07,0.547,2.916,0.319,2.984-1.079c0.067-1.408-1.746-1.818-2.867-1.384
				C35.093,203.251,34.298,203.787,34.278,204.234z"/>
			
				<path fill="#FFFFFF" stroke="#333333" stroke-width="0.9957" stroke-linecap="round" stroke-linejoin="round" stroke-miterlimit="10" d="
				M34.17,204.28c-0.375-0.24-1.168,0.16-1.729,0.522c-1.01,0.654-1.734,2.366-0.558,3.125c1.185,0.762,2.447-0.604,2.629-1.791
				C34.614,205.478,34.546,204.524,34.17,204.28z"/>
			
				<path fill="#FFFFFF" stroke="#333333" stroke-width="0.9957" stroke-linecap="round" stroke-linejoin="round" stroke-miterlimit="10" d="
				M34.181,204.171c0.396-0.204,0.447-1.091,0.412-1.758c-0.063-1.202-1.182-2.687-2.428-2.046
				c-1.251,0.645-0.701,2.422,0.233,3.174C32.922,203.958,33.782,204.375,34.181,204.171z"/>
			
				<path fill="#FFFFFF" stroke="#333333" stroke-width="0.9957" stroke-linecap="round" stroke-linejoin="round" stroke-miterlimit="10" d="
				M34.319,204.114c0.375,0.242,1.167-0.157,1.729-0.521c1.01-0.655,1.735-2.366,0.558-3.125c-1.184-0.762-2.447,0.603-2.63,1.791
				C33.874,202.919,33.941,203.872,34.319,204.114z"/>
			
				<path fill="#FFFFFF" stroke="#333333" stroke-width="0.9957" stroke-linecap="round" stroke-linejoin="round" stroke-miterlimit="10" d="
				M34.302,204.229c-0.396,0.204-0.447,1.091-0.411,1.757c0.062,1.201,1.181,2.688,2.427,2.047c1.252-0.646,0.702-2.422-0.234-3.173
				C35.56,204.442,34.701,204.024,34.302,204.229z"/>
			
				<path fill="#FFFFFF" stroke="#333333" stroke-width="0.9957" stroke-linecap="round" stroke-linejoin="round" stroke-miterlimit="10" d="
				M34.21,204.145c0.021-0.444-0.722-0.933-1.315-1.235c-1.07-0.548-2.918-0.32-2.983,1.078c-0.07,1.407,1.744,1.819,2.863,1.384
				C33.396,205.128,34.188,204.593,34.21,204.145z"/>
			
				<circle fill="#F9D53E" stroke="#333333" stroke-width="0.9957" stroke-linecap="round" stroke-linejoin="round" stroke-miterlimit="10" cx="34.318" cy="204.116" r="0.926"/>
		</g>
	</g>
</g>
<g id="calque06">
	<g>
		
			<polygon fill="#CC924C" stroke="#333333" stroke-width="0.9957" stroke-linecap="round" stroke-linejoin="round" stroke-miterlimit="10" points="
			65.685,212.292 70,219.85 67.639,218.327 		"/>
		
			<polygon fill="#CC924C" stroke="#333333" stroke-width="0.9957" stroke-linecap="round" stroke-linejoin="round" stroke-miterlimit="10" points="
			43.111,197.087 45.306,203.943 42.944,202.421 		"/>
		
			<polygon fill="#CC924C" stroke="#333333" stroke-width="0.9957" stroke-linecap="round" stroke-linejoin="round" stroke-miterlimit="10" points="
			47.73,222.064 63.213,219.955 60.852,218.436 		"/>
		
			<polygon fill="#CC924C" stroke="#333333" stroke-width="0.9957" stroke-linecap="round" stroke-linejoin="round" stroke-miterlimit="10" points="
			28.571,203.445 36.495,202.747 34.971,201.766 		"/>
		<g>
			
				<path fill="#A1C453" stroke="#333333" stroke-width="1.4936" stroke-linecap="round" stroke-linejoin="round" stroke-miterlimit="10" d="
				M61.412,231.583c1.355-2.312,0.742-4.237,6.158-5.778s4.048,2.875,7.61,1.86c-3.563,1.015-0.242,4.217-5.458,5.7
				C64.509,234.85,63.876,232.63,61.412,231.583z"/>
			<g>
				<line fill="none" x1="75.182" y1="227.665" x2="64.351" y2="230.734"/>
				<g>
					<polyline fill="none" stroke="#333333" stroke-width="0.9957" stroke-linecap="round" stroke-miterlimit="10" points="
						74.702,227.801 74.082,227.977 66.873,230.021 66.334,230.173 					"/>
					
						<line fill="none" stroke="#333333" stroke-width="0.9957" stroke-linecap="round" stroke-miterlimit="10" x1="64.829" y1="230.6" x2="64.897" y2="230.58"/>
				</g>
			</g>
		</g>
		<g>
			
				<path fill="#A1C453" stroke="#333333" stroke-width="1.4936" stroke-linecap="round" stroke-linejoin="round" stroke-miterlimit="10" d="
				M60.949,198.783c2.39,1.214,4.275,0.488,6.14,5.801c1.863,5.314-2.629,4.212-1.404,7.708c-1.225-3.496-4.222,0.013-6.016-5.104
				C57.873,202.068,60.052,201.305,60.949,198.783z"/>
			<g>
				<line fill="none" x1="65.524" y1="212.328" x2="61.854" y2="201.859"/>
				<g>
					<polyline fill="none" stroke="#333333" stroke-width="0.9957" stroke-linecap="round" stroke-miterlimit="10" points="
						65.359,211.857 65.146,211.25 62.721,204.334 62.536,203.805 					"/>
					
						<line fill="none" stroke="#333333" stroke-width="0.9957" stroke-linecap="round" stroke-miterlimit="10" x1="62.019" y1="202.329" x2="62.041" y2="202.396"/>
				</g>
			</g>
		</g>
		<g>
			
				<path fill="#A1C453" stroke="#333333" stroke-width="1.4936" stroke-linecap="round" stroke-linejoin="round" stroke-miterlimit="10" d="
				M32.725,216.111c2.787-1.174,3.535-3.33,9.475-1.064c5.936,2.266,1.713,5.335,5.618,6.825c-3.905-1.49-3.065,3.647-8.782,1.467
				C33.315,221.156,34.245,218.723,32.725,216.111z"/>
			<g>
				<line fill="none" x1="47.817" y1="221.872" x2="36.121" y2="217.409"/>
				<g>
					<polyline fill="none" stroke="#333333" stroke-width="0.9957" stroke-linecap="round" stroke-miterlimit="10" points="
						47.353,221.693 46.749,221.465 38.571,218.344 38.047,218.145 					"/>
					
						<line fill="none" stroke="#333333" stroke-width="0.9957" stroke-linecap="round" stroke-miterlimit="10" x1="36.586" y1="217.587" x2="36.651" y2="217.611"/>
				</g>
			</g>
		</g>
		<g>
			
				<path fill="#A1C453" stroke="#333333" stroke-width="1.4936" stroke-linecap="round" stroke-linejoin="round" stroke-miterlimit="10" d="
				M33.407,228.762c1.142-2.802,0.146-4.854,5.942-7.449c5.801-2.599,4.985,2.558,8.803,0.849c-3.816,1.709,0.41,4.749-5.174,7.249
				C37.393,231.909,36.328,229.533,33.407,228.762z"/>
			<g>
				<line fill="none" x1="48.153" y1="222.16" x2="36.726" y2="227.275"/>
				<g>
					<polyline fill="none" stroke="#333333" stroke-width="0.9957" stroke-linecap="round" stroke-miterlimit="10" points="
						47.699,222.363 47.11,222.627 39.118,226.205 38.607,226.436 					"/>
					
						<line fill="none" stroke="#333333" stroke-width="0.9957" stroke-linecap="round" stroke-miterlimit="10" x1="37.18" y1="227.072" x2="37.244" y2="227.044"/>
				</g>
			</g>
		</g>
		<g>
			
				<path fill="#A1C453" stroke="#333333" stroke-width="0.9957" stroke-linecap="round" stroke-linejoin="round" stroke-miterlimit="10" d="
				M22.528,204.384c0.877-1.006,0.757-2.006,3.552-2.258s1.715,1.784,3.555,1.616c-1.84,0.168-0.51,2.043-3.201,2.285
				C23.74,206.271,23.638,205.125,22.528,204.384z"/>
			<g>
				<line fill="none" x1="29.634" y1="203.742" x2="24.127" y2="204.241"/>
				<g>
					<polyline fill="none" stroke="#333333" stroke-width="0.9957" stroke-linecap="round" stroke-miterlimit="10" points="
						29.138,203.787 28.495,203.846 26.738,204.005 26.18,204.056 					"/>
					
						<line fill="none" stroke="#333333" stroke-width="0.9957" stroke-linecap="round" stroke-miterlimit="10" x1="24.623" y1="204.196" x2="24.692" y2="204.19"/>
				</g>
			</g>
		</g>
		<g>
			
				<path fill="#A1C453" stroke="#333333" stroke-width="1.4936" stroke-linecap="round" stroke-linejoin="round" stroke-miterlimit="10" d="
				M21.172,213.171c-0.164-2.394-1.588-3.511,1.641-7.38c3.229-3.871,4.443,0.088,6.568-2.461c-2.125,2.549,1.946,3.242-1.162,6.968
				C25.108,214.025,23.521,212.702,21.172,213.171z"/>
			<g>
				<line fill="none" x1="29.381" y1="203.33" x2="23.019" y2="210.957"/>
				<g>
					<polyline fill="none" stroke="#333333" stroke-width="0.9957" stroke-linecap="round" stroke-miterlimit="10" points="
						29.062,203.712 28.648,204.208 24.698,208.943 24.339,209.374 					"/>
					
						<line fill="none" stroke="#333333" stroke-width="0.9957" stroke-linecap="round" stroke-miterlimit="10" x1="23.338" y1="210.575" x2="23.382" y2="210.521"/>
				</g>
			</g>
		</g>
		<g>
			
				<path fill="#A1C453" stroke="#333333" stroke-width="0.9957" stroke-linecap="round" stroke-linejoin="round" stroke-miterlimit="10" d="
				M47.604,188.803c0.514,1.647,1.694,2.191,0.08,5.436c-1.613,3.244-3.121,0.679-4.183,2.814c1.062-2.136-1.902-1.942-0.35-5.066
				C44.708,188.86,46.039,189.521,47.604,188.803z"/>
			<g>
				<line fill="none" x1="43.411" y1="197.071" x2="46.589" y2="190.679"/>
				<g>
					<polyline fill="none" stroke="#333333" stroke-width="0.9957" stroke-linecap="round" stroke-miterlimit="10" points="
						43.633,196.626 43.92,196.048 45.422,193.026 45.671,192.524 					"/>
					
						<line fill="none" stroke="#333333" stroke-width="0.9957" stroke-linecap="round" stroke-miterlimit="10" x1="46.367" y1="191.124" x2="46.336" y2="191.188"/>
				</g>
			</g>
		</g>
		<g>
			
				<path fill="#A1C453" stroke="#333333" stroke-width="1.4936" stroke-linecap="round" stroke-linejoin="round" stroke-miterlimit="10" d="
				M37.968,181.771c2.679,1.406,4.818,0.614,6.841,6.639c2.023,6.025-3.029,4.712-1.697,8.677c-1.332-3.965-4.767-0.052-6.714-5.852
				C34.448,185.434,36.918,184.604,37.968,181.771z"/>
			<g>
				<line fill="none" x1="43.111" y1="197.087" x2="39.126" y2="185.22"/>
				<g>
					<polyline fill="none" stroke="#333333" stroke-width="0.9957" stroke-linecap="round" stroke-miterlimit="10" points="
						42.953,196.615 42.747,196.003 39.961,187.705 39.782,187.174 					"/>
					
						<line fill="none" stroke="#333333" stroke-width="0.9957" stroke-linecap="round" stroke-miterlimit="10" x1="39.284" y1="185.691" x2="39.307" y2="185.758"/>
				</g>
			</g>
		</g>
		<g>
			
				<path fill="#A1C453" stroke="#333333" stroke-width="1.4936" stroke-linecap="round" stroke-linejoin="round" stroke-miterlimit="10" d="
				M55.109,192.246c-0.915,2.194-0.146,3.813-4.716,5.815c-4.572,2.007-3.897-2.039-6.908-0.719c3.011-1.32-0.293-3.734,4.107-5.664
				C51.998,189.747,52.819,191.621,55.109,192.246z"/>
			<g>
				<line fill="none" x1="43.324" y1="197.377" x2="52.33" y2="193.429"/>
				<g>
					<polyline fill="none" stroke="#333333" stroke-width="0.9957" stroke-linecap="round" stroke-miterlimit="10" points="
						43.78,197.177 44.371,196.918 49.929,194.481 50.442,194.257 					"/>
					
						<line fill="none" stroke="#333333" stroke-width="0.9957" stroke-linecap="round" stroke-miterlimit="10" x1="51.874" y1="193.629" x2="51.81" y2="193.657"/>
				</g>
			</g>
		</g>
		<path fill="#CC924C" stroke="#333333" stroke-width="2.6551" stroke-linecap="round" stroke-miterlimit="10" d="M94.291,234.9
			l-69.319-44.054c-0.874-0.564-2.039-0.311-2.602,0.563l0,0c-0.563,0.875-0.312,2.038,0.563,2.602l68.78,44.893"/>
		<g>
			<g>
				<path fill="#D3F46C" d="M34.364,201.711c1.976,0.956,3.117,4.253,1.85,5.305c-0.009,1.834-3.33,2.803-5.304,1.85
					c-1.976-0.955-3.459-2.866-1.344-5.209C30.046,200.685,32.39,200.758,34.364,201.711z"/>
				<g>
					<path fill="none" stroke="#333333" stroke-width="0.9957" stroke-linecap="round" stroke-miterlimit="10" d="M34.791,201.967
						c0.176,0.124,0.343,0.259,0.494,0.413c0.678,0.67,1.15,1.541,1.363,2.469c0.104,0.463,0.143,0.954,0.019,1.417
						c-0.069,0.225-0.164,0.452-0.333,0.623l-0.121,0.131l-0.021,0.178c-0.004,0.119-0.042,0.232-0.086,0.344
						c-0.375,0.908-1.36,1.35-2.26,1.566c-0.927,0.192-1.928,0.191-2.808-0.189c-0.858-0.393-1.685-0.964-2.168-1.795
						c-0.238-0.413-0.364-0.895-0.328-1.371c0.033-0.479,0.217-0.932,0.459-1.339c0.735-0.683,0.617-1.771,1.291-2.502
						c0.307-0.366,0.74-0.617,1.206-0.716c0.113-0.02,0.239-0.055,0.346-0.054l0.185-0.012c0.123-0.011,0.245,0.007,0.368,0.009"/>
					
						<line fill="none" stroke="#333333" stroke-width="0.9957" stroke-linecap="round" stroke-miterlimit="10" x1="33.908" y1="201.512" x2="33.843" y2="201.487"/>
				</g>
			</g>
			
				<ellipse transform="matrix(-0.4871 -0.8733 0.8733 -0.4871 -135.4237 334.0102)" opacity="0.5" fill="#FFFFFF" enable-background="new    " cx="30.361" cy="206.769" rx="0.909" ry="0.748"/>
		</g>
		<g>
			<g>
				<path fill="#D3F46C" d="M73.826,210.225c2.261,2.659,1.802,8.195-0.724,8.91c-1.193,2.663-6.648,1.938-8.91-0.723
					c-2.263-2.66-3.191-6.396,1.396-8.447C68.2,205.947,71.564,207.563,73.826,210.225z"/>
				<g>
					<path fill="none" stroke="#333333" stroke-width="1.4936" stroke-linecap="round" stroke-miterlimit="10" d="M74.261,210.83
						c0.16,0.279,0.323,0.561,0.436,0.861c0.59,1.418,0.721,3.009,0.451,4.513c-0.144,0.749-0.396,1.498-0.875,2.103
						c-0.248,0.289-0.53,0.563-0.888,0.711l-0.265,0.11c-0.063,0.065-0.103,0.16-0.154,0.239c-0.085,0.174-0.208,0.318-0.347,0.453
						c-0.539,0.552-1.304,0.822-2.056,0.925c-0.76,0.103-1.534,0.05-2.285-0.097c-1.486-0.318-2.951-0.992-3.986-2.135
						c-0.995-1.145-1.822-2.533-1.955-4.074c-0.063-0.764,0.1-1.547,0.482-2.211c0.374-0.674,0.965-1.199,1.602-1.619
						c0.313-0.223,0.658-0.389,1.001-0.561c0.197-0.056,0.273-0.253,0.395-0.398c0.116-0.151,0.214-0.317,0.348-0.457
						c0.485-0.592,1.096-1.092,1.803-1.387c0.708-0.295,1.512-0.326,2.251-0.129c0.185,0.03,0.375,0.121,0.534,0.174
						c0.086,0.032,0.174,0.063,0.255,0.106c0.163,0.085,0.333,0.159,0.491,0.253"/>
					
						<line fill="none" stroke="#333333" stroke-width="1.4936" stroke-linecap="round" stroke-miterlimit="10" x1="73.323" y1="209.672" x2="73.248" y2="209.6"/>
				</g>
			</g>
			
				<ellipse transform="matrix(-0.0911 -0.9958 0.9958 -0.0911 -143.4899 299.052)" opacity="0.5" fill="#FFFFFF" enable-background="new    " cx="64.725" cy="215.006" rx="1.447" ry="1.189"/>
		</g>
		<g>
			
				<path fill="#A1C453" stroke="#333333" stroke-width="0.9957" stroke-linecap="round" stroke-linejoin="round" stroke-miterlimit="10" d="
				M21.456,192.55c0,0-1.677-2.404-1.882-2.966c-0.166-0.448,2.765,0.67,3.742,1.262L21.456,192.55z"/>
			
				<path fill="#A1C453" stroke="#333333" stroke-width="0.9957" stroke-linecap="round" stroke-linejoin="round" stroke-miterlimit="10" d="
				M22.511,190.477l1.191,4.35c0,0-4.094-1.841-4.774-3.589C18.928,191.237,21.094,191.015,22.511,190.477z"/>
			
				<path fill="#A1C453" stroke="#333333" stroke-width="0.9957" stroke-linecap="round" stroke-linejoin="round" stroke-miterlimit="10" d="
				M27.326,192.883c0,0-3.104-4.626-6.397-4.755l1.348,4.104L27.326,192.883z"/>
		</g>
	</g>
</g>
<g id="calque07">
	<g>
		
			<polygon fill="#CC924C" stroke="#333333" stroke-width="0.9957" stroke-linecap="round" stroke-linejoin="round" stroke-miterlimit="10" points="
			65.685,212.292 70,219.85 67.639,218.327 		"/>
		
			<polygon fill="#CC924C" stroke="#333333" stroke-width="0.9957" stroke-linecap="round" stroke-linejoin="round" stroke-miterlimit="10" points="
			43.111,197.087 45.306,203.943 42.944,202.421 		"/>
		
			<polygon fill="#CC924C" stroke="#333333" stroke-width="0.9957" stroke-linecap="round" stroke-linejoin="round" stroke-miterlimit="10" points="
			47.73,222.064 63.213,219.955 60.852,218.436 		"/>
		
			<polygon fill="#CC924C" stroke="#333333" stroke-width="0.9957" stroke-linecap="round" stroke-linejoin="round" stroke-miterlimit="10" points="
			28.571,203.445 36.495,202.747 34.971,201.766 		"/>
		<g>
			
				<path fill="#A1C453" stroke="#333333" stroke-width="1.4936" stroke-linecap="round" stroke-linejoin="round" stroke-miterlimit="10" d="
				M61.412,231.583c1.355-2.312,0.745-4.239,6.158-5.78c5.416-1.539,4.048,2.877,7.61,1.862c-3.563,1.015-0.242,4.217-5.458,5.7
				C64.509,234.85,63.876,232.63,61.412,231.583z"/>
			<g>
				<line fill="none" x1="75.182" y1="227.665" x2="64.351" y2="230.734"/>
				<g>
					<polyline fill="none" stroke="#333333" stroke-width="0.9957" stroke-linecap="round" stroke-miterlimit="10" points="
						74.702,227.801 74.082,227.977 66.873,230.021 66.334,230.173 					"/>
					
						<line fill="none" stroke="#333333" stroke-width="0.9957" stroke-linecap="round" stroke-miterlimit="10" x1="64.829" y1="230.6" x2="64.897" y2="230.58"/>
				</g>
			</g>
		</g>
		<g>
			
				<path fill="#A1C453" stroke="#333333" stroke-width="1.4936" stroke-linecap="round" stroke-linejoin="round" stroke-miterlimit="10" d="
				M60.949,198.783c2.39,1.214,4.275,0.488,6.14,5.801c1.863,5.314-2.629,4.212-1.404,7.708c-1.225-3.496-4.223,0.013-6.016-5.104
				C57.873,202.068,60.052,201.305,60.949,198.783z"/>
			<g>
				<line fill="none" x1="65.524" y1="212.328" x2="61.854" y2="201.859"/>
				<g>
					<polyline fill="none" stroke="#333333" stroke-width="0.9957" stroke-linecap="round" stroke-miterlimit="10" points="
						65.359,211.857 65.146,211.25 62.721,204.334 62.536,203.805 					"/>
					
						<line fill="none" stroke="#333333" stroke-width="0.9957" stroke-linecap="round" stroke-miterlimit="10" x1="62.019" y1="202.329" x2="62.041" y2="202.396"/>
				</g>
			</g>
		</g>
		<g>
			
				<path fill="#A1C453" stroke="#333333" stroke-width="1.4936" stroke-linecap="round" stroke-linejoin="round" stroke-miterlimit="10" d="
				M32.725,216.111c2.787-1.174,3.535-3.33,9.475-1.064c5.936,2.266,1.713,5.334,5.618,6.825c-3.905-1.491-3.065,3.647-8.782,1.466
				C33.315,221.156,34.245,218.723,32.725,216.111z"/>
			<g>
				<line fill="none" x1="47.817" y1="221.872" x2="36.121" y2="217.409"/>
				<g>
					<polyline fill="none" stroke="#333333" stroke-width="0.9957" stroke-linecap="round" stroke-miterlimit="10" points="
						47.353,221.693 46.749,221.465 38.571,218.344 38.047,218.145 					"/>
					
						<line fill="none" stroke="#333333" stroke-width="0.9957" stroke-linecap="round" stroke-miterlimit="10" x1="36.586" y1="217.587" x2="36.651" y2="217.611"/>
				</g>
			</g>
		</g>
		<g>
			
				<path fill="#A1C453" stroke="#333333" stroke-width="1.4936" stroke-linecap="round" stroke-linejoin="round" stroke-miterlimit="10" d="
				M33.407,228.762c1.142-2.802,0.146-4.855,5.944-7.451c5.799-2.597,4.983,2.56,8.801,0.851c-3.816,1.709,0.41,4.749-5.174,7.249
				C37.393,231.909,36.328,229.533,33.407,228.762z"/>
			<g>
				<line fill="none" x1="48.153" y1="222.16" x2="36.727" y2="227.275"/>
				<g>
					<polyline fill="none" stroke="#333333" stroke-width="0.9957" stroke-linecap="round" stroke-miterlimit="10" points="
						47.699,222.363 47.11,222.627 39.12,226.204 38.608,226.434 					"/>
					
						<line fill="none" stroke="#333333" stroke-width="0.9957" stroke-linecap="round" stroke-miterlimit="10" x1="37.181" y1="227.072" x2="37.245" y2="227.043"/>
				</g>
			</g>
		</g>
		<g>
			
				<path fill="#A1C453" stroke="#333333" stroke-width="1.4936" stroke-linecap="round" stroke-linejoin="round" stroke-miterlimit="10" d="
				M16.278,204.395c1.579-1.808,1.36-3.604,6.382-4.059c5.019-0.452,3.077,3.205,6.383,2.905c-3.306,0.3-0.914,3.669-5.75,4.104
				C18.456,207.784,18.271,205.725,16.278,204.395z"/>
			<g>
				<line fill="none" x1="29.042" y1="203.241" x2="19.153" y2="204.134"/>
				<g>
					<polyline fill="none" stroke="#333333" stroke-width="0.9957" stroke-linecap="round" stroke-miterlimit="10" points="
						28.546,203.286 27.903,203.344 21.765,203.898 21.206,203.948 					"/>
					
						<line fill="none" stroke="#333333" stroke-width="0.9957" stroke-linecap="round" stroke-miterlimit="10" x1="19.649" y1="204.089" x2="19.719" y2="204.083"/>
				</g>
			</g>
		</g>
		<g>
			
				<path fill="#A1C453" stroke="#333333" stroke-width="1.4936" stroke-linecap="round" stroke-linejoin="round" stroke-miterlimit="10" d="
				M21.172,213.171c-0.164-2.394-1.588-3.511,1.641-7.38c3.229-3.871,4.443,0.088,6.568-2.461c-2.125,2.549,1.946,3.242-1.162,6.968
				C25.108,214.025,23.521,212.702,21.172,213.171z"/>
			<g>
				<line fill="none" x1="29.381" y1="203.33" x2="23.019" y2="210.957"/>
				<g>
					<polyline fill="none" stroke="#333333" stroke-width="0.9957" stroke-linecap="round" stroke-miterlimit="10" points="
						29.062,203.712 28.648,204.208 24.698,208.943 24.339,209.374 					"/>
					
						<line fill="none" stroke="#333333" stroke-width="0.9957" stroke-linecap="round" stroke-miterlimit="10" x1="23.338" y1="210.575" x2="23.382" y2="210.521"/>
				</g>
			</g>
		</g>
		<g>
			
				<path fill="#A1C453" stroke="#333333" stroke-width="1.4936" stroke-linecap="round" stroke-linejoin="round" stroke-miterlimit="10" d="
				M50.625,182.315c0.896,2.89,2.97,3.842,0.143,9.531c-2.829,5.691-5.474,1.19-7.335,4.936c1.861-3.745-3.335-3.406-0.611-8.885
				C45.546,182.417,47.879,183.576,50.625,182.315z"/>
			<g>
				<line fill="none" x1="43.271" y1="196.817" x2="48.844" y2="185.605"/>
				<g>
					<polyline fill="none" stroke="#333333" stroke-width="0.9957" stroke-linecap="round" stroke-miterlimit="10" points="
						43.492,196.372 43.779,195.794 47.677,187.953 47.926,187.451 					"/>
					
						<line fill="none" stroke="#333333" stroke-width="0.9957" stroke-linecap="round" stroke-miterlimit="10" x1="48.622" y1="186.052" x2="48.591" y2="186.114"/>
				</g>
			</g>
		</g>
		<g>
			
				<path fill="#A1C453" stroke="#333333" stroke-width="1.4936" stroke-linecap="round" stroke-linejoin="round" stroke-miterlimit="10" d="
				M37.968,181.771c2.679,1.406,4.818,0.614,6.841,6.639c2.023,6.022-3.029,4.712-1.697,8.677c-1.332-3.965-4.767-0.052-6.714-5.852
				C34.448,185.434,36.918,184.604,37.968,181.771z"/>
			<g>
				<line fill="none" x1="43.111" y1="197.087" x2="39.126" y2="185.22"/>
				<g>
					<polyline fill="none" stroke="#333333" stroke-width="0.9957" stroke-linecap="round" stroke-miterlimit="10" points="
						42.953,196.615 42.747,196.003 39.961,187.705 39.782,187.174 					"/>
					
						<line fill="none" stroke="#333333" stroke-width="0.9957" stroke-linecap="round" stroke-miterlimit="10" x1="39.284" y1="185.691" x2="39.307" y2="185.758"/>
				</g>
			</g>
		</g>
		<g>
			
				<path fill="#A1C453" stroke="#333333" stroke-width="1.4936" stroke-linecap="round" stroke-linejoin="round" stroke-miterlimit="10" d="
				M55.109,192.246c-0.915,2.194-0.146,3.813-4.716,5.815c-4.572,2.007-3.897-2.039-6.908-0.719c3.011-1.32-0.293-3.734,4.107-5.664
				C51.998,189.747,52.819,191.621,55.109,192.246z"/>
			<g>
				<line fill="none" x1="43.324" y1="197.377" x2="52.332" y2="193.428"/>
				<g>
					<polyline fill="none" stroke="#333333" stroke-width="0.9957" stroke-linecap="round" stroke-miterlimit="10" points="
						43.78,197.177 44.371,196.918 49.931,194.48 50.444,194.256 					"/>
					
						<line fill="none" stroke="#333333" stroke-width="0.9957" stroke-linecap="round" stroke-miterlimit="10" x1="51.876" y1="193.628" x2="51.812" y2="193.655"/>
				</g>
			</g>
		</g>
		<path fill="#CC924C" stroke="#333333" stroke-width="2.6551" stroke-linecap="round" stroke-miterlimit="10" d="M94.291,234.9
			l-69.319-44.054c-0.874-0.564-2.039-0.311-2.602,0.563l0,0c-0.563,0.875-0.312,2.038,0.563,2.602l68.78,44.893"/>
		<g>
			<g>
				<path fill="#D3F46C" d="M37.33,201.023c3.144,1.52,4.961,6.77,2.939,8.443c-0.014,2.919-5.297,4.464-8.44,2.94
					c-3.146-1.518-5.508-4.559-2.14-8.288C30.454,199.388,34.185,199.505,37.33,201.023z"/>
				<g>
					<path fill="none" stroke="#333333" stroke-width="1.4936" stroke-linecap="round" stroke-miterlimit="10" d="M37.973,201.402
						c0.26,0.192,0.521,0.381,0.747,0.612c1.111,1.059,1.874,2.461,2.236,3.945c0.172,0.742,0.24,1.531,0.049,2.277
						c-0.11,0.363-0.258,0.729-0.524,1.008l-0.197,0.209c-0.031,0.086-0.027,0.188-0.043,0.279
						c-0.009,0.195-0.063,0.377-0.136,0.557c-0.269,0.723-0.856,1.279-1.504,1.677c-0.654,0.399-1.383,0.666-2.129,0.837
						c-1.49,0.311-3.102,0.285-4.51-0.343c-1.374-0.646-2.692-1.579-3.438-2.935c-0.364-0.674-0.532-1.455-0.451-2.219
						c0.069-0.769,0.397-1.488,0.812-2.127c0.195-0.331,0.445-0.622,0.688-0.918c0.158-0.131,0.147-0.342,0.198-0.524
						c0.046-0.186,0.067-0.378,0.132-0.559c0.206-0.736,0.563-1.441,1.091-1.996c0.526-0.558,1.25-0.91,2.006-1.028
						c0.182-0.047,0.393-0.04,0.56-0.057c0.092-0.006,0.185-0.015,0.276-0.006c0.184,0.012,0.368,0.011,0.552,0.032"/>
					
						<line fill="none" stroke="#333333" stroke-width="1.4936" stroke-linecap="round" stroke-miterlimit="10" x1="36.646" y1="200.723" x2="36.549" y2="200.686"/>
				</g>
			</g>
			
				<ellipse transform="matrix(-0.4862 -0.8738 0.8738 -0.4862 -136.7216 337.7887)" opacity="0.5" fill="#FFFFFF" enable-background="new    " cx="30.943" cy="209.088" rx="1.446" ry="1.19"/>
		</g>
		<g>
			<g>
				<path fill="#EF4529" d="M73.827,210.225c2.26,2.659,1.801,8.195-0.725,8.91c-1.193,2.663-6.648,1.938-8.91-0.723
					c-2.263-2.66-3.191-6.396,1.396-8.447C68.2,205.947,71.564,207.563,73.827,210.225z"/>
				<g>
					<path fill="none" stroke="#333333" stroke-width="1.4936" stroke-linecap="round" stroke-miterlimit="10" d="M74.262,210.83
						c0.159,0.279,0.323,0.561,0.436,0.861c0.589,1.418,0.72,3.009,0.45,4.514c-0.144,0.748-0.397,1.497-0.875,2.102
						c-0.249,0.289-0.531,0.563-0.888,0.711l-0.266,0.11c-0.063,0.065-0.103,0.16-0.153,0.239c-0.085,0.174-0.208,0.318-0.348,0.453
						c-0.539,0.553-1.303,0.822-2.056,0.925c-0.76,0.103-1.533,0.05-2.285-0.097c-1.486-0.318-2.95-0.992-3.985-2.135
						c-0.996-1.146-1.822-2.533-1.955-4.074c-0.063-0.764,0.1-1.547,0.482-2.211c0.374-0.676,0.966-1.201,1.602-1.619
						c0.313-0.225,0.659-0.389,1.002-0.562c0.197-0.056,0.272-0.253,0.394-0.397c0.116-0.151,0.215-0.318,0.348-0.459
						c0.485-0.59,1.096-1.09,1.804-1.385s1.512-0.326,2.251-0.129c0.185,0.03,0.375,0.121,0.533,0.174
						c0.087,0.033,0.175,0.063,0.256,0.106c0.163,0.085,0.333,0.159,0.491,0.253"/>
					
						<line fill="none" stroke="#333333" stroke-width="1.4936" stroke-linecap="round" stroke-miterlimit="10" x1="73.323" y1="209.672" x2="73.249" y2="209.6"/>
				</g>
			</g>
			
				<ellipse transform="matrix(-0.0911 -0.9958 0.9958 -0.0911 -143.4899 299.052)" opacity="0.5" fill="#FFFFFF" enable-background="new    " cx="64.725" cy="215.006" rx="1.447" ry="1.189"/>
		</g>
		<g>
			
				<path fill="#A1C453" stroke="#333333" stroke-width="0.9957" stroke-linecap="round" stroke-linejoin="round" stroke-miterlimit="10" d="
				M21.456,192.55c0,0-1.677-2.404-1.882-2.966c-0.165-0.45,2.765,0.67,3.742,1.262L21.456,192.55z"/>
			
				<path fill="#A1C453" stroke="#333333" stroke-width="0.9957" stroke-linecap="round" stroke-linejoin="round" stroke-miterlimit="10" d="
				M22.511,190.477l1.191,4.35c0,0-4.093-1.842-4.774-3.589C18.928,191.237,21.094,191.015,22.511,190.477z"/>
			
				<path fill="#A1C453" stroke="#333333" stroke-width="0.9957" stroke-linecap="round" stroke-linejoin="round" stroke-miterlimit="10" d="
				M27.326,192.883c0,0-3.104-4.626-6.397-4.755l1.348,4.104L27.326,192.883z"/>
		</g>
	</g>
</g>
<g id="calque08">
	<g>
		
			<polygon fill="#CC924C" stroke="#333333" stroke-width="0.9957" stroke-linecap="round" stroke-linejoin="round" stroke-miterlimit="10" points="
			65.687,212.291 70.002,219.848 67.64,218.325 		"/>
		
			<polygon fill="#CC924C" stroke="#333333" stroke-width="0.9957" stroke-linecap="round" stroke-linejoin="round" stroke-miterlimit="10" points="
			43.112,197.085 45.307,203.942 42.944,202.42 		"/>
		
			<polygon fill="#CC924C" stroke="#333333" stroke-width="0.9957" stroke-linecap="round" stroke-linejoin="round" stroke-miterlimit="10" points="
			47.732,222.063 63.215,219.954 60.853,218.434 		"/>
		
			<polygon fill="#CC924C" stroke="#333333" stroke-width="0.9957" stroke-linecap="round" stroke-linejoin="round" stroke-miterlimit="10" points="
			28.572,203.443 36.497,202.746 34.973,201.764 		"/>
		<g>
			
				<path fill="#A1C453" stroke="#333333" stroke-width="1.4936" stroke-linecap="round" stroke-linejoin="round" stroke-miterlimit="10" d="
				M61.413,231.581c1.356-2.312,0.742-4.238,6.159-5.778c5.415-1.543,4.048,2.875,7.609,1.86c-3.563,1.015-0.242,4.217-5.458,5.7
				C64.508,234.848,63.878,232.628,61.413,231.581z"/>
			<g>
				<line fill="none" x1="75.183" y1="227.663" x2="64.352" y2="230.734"/>
				<g>
					<polyline fill="none" stroke="#333333" stroke-width="0.9957" stroke-linecap="round" stroke-miterlimit="10" points="
						74.704,227.799 74.083,227.975 66.874,230.02 66.335,230.172 					"/>
					
						<line fill="none" stroke="#333333" stroke-width="0.9957" stroke-linecap="round" stroke-miterlimit="10" x1="64.831" y1="230.6" x2="64.897" y2="230.579"/>
				</g>
			</g>
		</g>
		<g>
			
				<path fill="#A1C453" stroke="#333333" stroke-width="1.4936" stroke-linecap="round" stroke-linejoin="round" stroke-miterlimit="10" d="
				M60.952,198.781c2.387,1.216,4.274,0.489,6.138,5.802c1.862,5.313-2.629,4.211-1.403,7.708c-1.226-3.497-4.224,0.012-6.017-5.107
				C57.875,202.067,60.054,201.304,60.952,198.781z"/>
			<g>
				<line fill="none" x1="65.526" y1="212.325" x2="61.854" y2="201.857"/>
				<g>
					<polyline fill="none" stroke="#333333" stroke-width="0.9957" stroke-linecap="round" stroke-miterlimit="10" points="
						65.361,211.855 65.148,211.247 62.723,204.331 62.537,203.803 					"/>
					
						<line fill="none" stroke="#333333" stroke-width="0.9957" stroke-linecap="round" stroke-miterlimit="10" x1="62.02" y1="202.327" x2="62.042" y2="202.394"/>
				</g>
			</g>
		</g>
		<g>
			
				<path fill="#A1C453" stroke="#333333" stroke-width="1.4936" stroke-linecap="round" stroke-linejoin="round" stroke-miterlimit="10" d="
				M32.726,216.109c2.787-1.174,3.535-3.328,9.474-1.063c5.937,2.266,1.714,5.333,5.62,6.821c-3.906-1.488-3.065,3.649-8.783,1.468
				C33.317,221.154,34.245,218.723,32.726,216.109z"/>
			<g>
				<line fill="none" x1="47.819" y1="221.868" x2="36.122" y2="217.408"/>
				<g>
					<polyline fill="none" stroke="#333333" stroke-width="0.9957" stroke-linecap="round" stroke-miterlimit="10" points="
						47.354,221.689 46.751,221.461 38.572,218.344 38.048,218.143 					"/>
					
						<line fill="none" stroke="#333333" stroke-width="0.9957" stroke-linecap="round" stroke-miterlimit="10" x1="36.587" y1="217.586" x2="36.652" y2="217.609"/>
				</g>
			</g>
		</g>
		<g>
			
				<path fill="#A1C453" stroke="#333333" stroke-width="1.4936" stroke-linecap="round" stroke-linejoin="round" stroke-miterlimit="10" d="
				M33.408,228.762c1.143-2.805,0.146-4.855,5.945-7.453c5.799-2.595,4.983,2.56,8.8,0.85c-3.815,1.71,0.41,4.751-5.174,7.25
				C37.395,231.908,36.329,229.531,33.408,228.762z"/>
			<g>
				<line fill="none" x1="48.154" y1="222.156" x2="36.728" y2="227.273"/>
				<g>
					<polyline fill="none" stroke="#333333" stroke-width="0.9957" stroke-linecap="round" stroke-miterlimit="10" points="
						47.7,222.359 47.111,222.624 39.12,226.203 38.608,226.432 					"/>
					
						<line fill="none" stroke="#333333" stroke-width="0.9957" stroke-linecap="round" stroke-miterlimit="10" x1="37.182" y1="227.07" x2="37.246" y2="227.042"/>
				</g>
			</g>
		</g>
		<g>
			
				<path fill="#A1C453" stroke="#333333" stroke-width="1.4936" stroke-linecap="round" stroke-linejoin="round" stroke-miterlimit="10" d="
				M16.281,204.393c1.577-1.808,1.358-3.604,6.38-4.059c5.02-0.452,3.08,3.205,6.384,2.906c-3.304,0.299-0.916,3.668-5.751,4.104
				C18.459,207.781,18.272,205.725,16.281,204.393z"/>
			<g>
				<line fill="none" x1="29.044" y1="203.24" x2="19.153" y2="204.134"/>
				<g>
					<polyline fill="none" stroke="#333333" stroke-width="0.9957" stroke-linecap="round" stroke-miterlimit="10" points="
						28.548,203.285 27.905,203.343 21.765,203.897 21.206,203.948 					"/>
					
						<line fill="none" stroke="#333333" stroke-width="0.9957" stroke-linecap="round" stroke-miterlimit="10" x1="19.649" y1="204.089" x2="19.719" y2="204.083"/>
				</g>
			</g>
		</g>
		<g>
			
				<path fill="#A1C453" stroke="#333333" stroke-width="1.4936" stroke-linecap="round" stroke-linejoin="round" stroke-miterlimit="10" d="
				M21.173,213.17c-0.164-2.395-1.588-3.511,1.641-7.381c3.23-3.87,4.444,0.087,6.568-2.46c-2.124,2.547,1.946,3.241-1.161,6.968
				C25.109,214.025,23.522,212.701,21.173,213.17z"/>
			<g>
				<line fill="none" x1="29.382" y1="203.329" x2="23.021" y2="210.954"/>
				<g>
					<polyline fill="none" stroke="#333333" stroke-width="0.9957" stroke-linecap="round" stroke-miterlimit="10" points="
						29.063,203.712 28.649,204.207 24.701,208.939 24.342,209.371 					"/>
					
						<line fill="none" stroke="#333333" stroke-width="0.9957" stroke-linecap="round" stroke-miterlimit="10" x1="23.341" y1="210.57" x2="23.386" y2="210.52"/>
				</g>
			</g>
		</g>
		<g>
			
				<path fill="#A1C453" stroke="#333333" stroke-width="1.4936" stroke-linecap="round" stroke-linejoin="round" stroke-miterlimit="10" d="
				M50.625,182.315c0.898,2.888,2.972,3.841,0.144,9.529c-2.829,5.69-5.475,1.191-7.335,4.936c1.86-3.744-3.335-3.405-0.609-8.885
				C45.548,182.414,47.881,183.575,50.625,182.315z"/>
			<g>
				<line fill="none" x1="43.272" y1="196.815" x2="48.846" y2="185.604"/>
				<g>
					<polyline fill="none" stroke="#333333" stroke-width="0.9957" stroke-linecap="round" stroke-miterlimit="10" points="
						43.494,196.37 43.781,195.792 47.679,187.952 47.928,187.45 					"/>
					
						<line fill="none" stroke="#333333" stroke-width="0.9957" stroke-linecap="round" stroke-miterlimit="10" x1="48.624" y1="186.05" x2="48.593" y2="186.113"/>
				</g>
			</g>
		</g>
		<g>
			
				<path fill="#A1C453" stroke="#333333" stroke-width="1.4936" stroke-linecap="round" stroke-linejoin="round" stroke-miterlimit="10" d="
				M37.97,181.771c2.679,1.406,4.817,0.614,6.841,6.638c2.022,6.024-3.028,4.713-1.698,8.677c-1.33-3.964-4.766-0.051-6.713-5.852
				C34.449,185.432,36.919,184.603,37.97,181.771z"/>
			<g>
				<line fill="none" x1="43.112" y1="197.085" x2="39.127" y2="185.218"/>
				<g>
					<polyline fill="none" stroke="#333333" stroke-width="0.9957" stroke-linecap="round" stroke-miterlimit="10" points="
						42.954,196.613 42.748,196.001 39.962,187.703 39.783,187.172 					"/>
					
						<line fill="none" stroke="#333333" stroke-width="0.9957" stroke-linecap="round" stroke-miterlimit="10" x1="39.285" y1="185.689" x2="39.308" y2="185.756"/>
				</g>
			</g>
		</g>
		<g>
			
				<path fill="#A1C453" stroke="#333333" stroke-width="1.4936" stroke-linecap="round" stroke-linejoin="round" stroke-miterlimit="10" d="
				M55.109,192.243c-0.911,2.195-0.142,3.813-4.714,5.817c-4.572,2.005-3.899-2.04-6.908-0.72c3.009-1.32-0.295-3.734,4.107-5.663
				C51.999,189.746,52.821,191.619,55.109,192.243z"/>
			<g>
				<line fill="none" x1="43.325" y1="197.376" x2="52.333" y2="193.426"/>
				<g>
					<polyline fill="none" stroke="#333333" stroke-width="0.9957" stroke-linecap="round" stroke-miterlimit="10" points="
						43.781,197.176 44.372,196.917 49.932,194.479 50.445,194.254 					"/>
					
						<line fill="none" stroke="#333333" stroke-width="0.9957" stroke-linecap="round" stroke-miterlimit="10" x1="51.877" y1="193.626" x2="51.813" y2="193.653"/>
				</g>
			</g>
		</g>
		<path fill="#CC924C" stroke="#333333" stroke-width="2.6551" stroke-linecap="round" stroke-miterlimit="10" d="M94.292,234.898
			l-69.319-44.054c-0.873-0.563-2.039-0.31-2.602,0.564l0,0c-0.563,0.874-0.311,2.039,0.563,2.602l68.779,44.892"/>
		<g>
			<g>
				<path fill="#EF4529" d="M37.33,201.022c3.146,1.519,4.962,6.77,2.943,8.442c-0.017,2.919-5.301,4.462-8.442,2.942
					c-3.146-1.52-5.507-4.561-2.14-8.289C30.457,199.386,34.188,199.503,37.33,201.022z"/>
				<g>
					<path fill="none" stroke="#333333" stroke-width="1.4936" stroke-linecap="round" stroke-miterlimit="10" d="M37.973,201.401
						c0.26,0.191,0.521,0.38,0.748,0.612c1.11,1.058,1.874,2.459,2.236,3.944c0.173,0.742,0.243,1.529,0.051,2.275
						c-0.11,0.365-0.258,0.73-0.524,1.01l-0.196,0.209c-0.031,0.086-0.027,0.188-0.044,0.279c-0.008,0.194-0.062,0.377-0.135,0.557
						c-0.271,0.723-0.858,1.279-1.506,1.677c-0.652,0.399-1.383,0.666-2.129,0.837c-1.489,0.311-3.101,0.287-4.51-0.34
						c-1.373-0.645-2.691-1.581-3.438-2.936c-0.364-0.674-0.533-1.455-0.451-2.219c0.068-0.769,0.396-1.488,0.81-2.127
						c0.195-0.331,0.445-0.622,0.689-0.918c0.156-0.131,0.147-0.342,0.198-0.523c0.045-0.187,0.067-0.379,0.132-0.56
						c0.206-0.736,0.562-1.441,1.09-1.996c0.526-0.558,1.25-0.911,2.005-1.03c0.182-0.047,0.393-0.04,0.56-0.056
						c0.092-0.006,0.186-0.015,0.276-0.007c0.184,0.012,0.369,0.012,0.552,0.033"/>
					
						<line fill="none" stroke="#333333" stroke-width="1.4936" stroke-linecap="round" stroke-miterlimit="10" x1="36.646" y1="200.722" x2="36.549" y2="200.684"/>
				</g>
			</g>
			
				<ellipse transform="matrix(-0.4859 -0.874 0.874 -0.4859 -136.7447 337.741)" opacity="0.5" fill="#FFFFFF" enable-background="new    " cx="30.954" cy="209.086" rx="1.447" ry="1.191"/>
		</g>
		<g>
			<g>
				<path fill="#EF4529" d="M73.828,210.221c2.261,2.66,1.8,8.199-0.724,8.912c-1.193,2.664-6.649,1.938-8.912-0.722
					c-2.261-2.661-3.191-6.397,1.396-8.446C68.202,205.943,71.566,207.563,73.828,210.221z"/>
				<g>
					<path fill="none" stroke="#333333" stroke-width="1.4936" stroke-linecap="round" stroke-miterlimit="10" d="M74.263,210.827
						c0.16,0.28,0.323,0.56,0.437,0.862c0.588,1.416,0.719,3.008,0.449,4.513c-0.143,0.748-0.396,1.498-0.874,2.103
						c-0.249,0.289-0.53,0.563-0.888,0.711l-0.266,0.11c-0.063,0.065-0.103,0.16-0.153,0.239c-0.085,0.174-0.208,0.32-0.348,0.453
						c-0.539,0.553-1.303,0.822-2.055,0.926c-0.761,0.102-1.533,0.05-2.286-0.096c-1.486-0.319-2.951-0.992-3.986-2.135
						c-0.995-1.146-1.822-2.535-1.956-4.076c-0.063-0.763,0.1-1.545,0.483-2.211c0.373-0.674,0.965-1.199,1.602-1.617
						c0.313-0.225,0.659-0.389,1.001-0.562c0.198-0.056,0.272-0.254,0.395-0.399c0.116-0.15,0.216-0.317,0.348-0.457
						c0.485-0.59,1.096-1.092,1.803-1.387c0.708-0.296,1.512-0.326,2.251-0.13c0.186,0.03,0.375,0.122,0.534,0.175
						c0.087,0.032,0.175,0.062,0.255,0.105c0.164,0.085,0.333,0.158,0.492,0.253"/>
					
						<line fill="none" stroke="#333333" stroke-width="1.4936" stroke-linecap="round" stroke-miterlimit="10" x1="73.325" y1="209.669" x2="73.25" y2="209.596"/>
				</g>
			</g>
			<path opacity="0.5" fill="#FFFFFF" enable-background="new    " d="M65.919,214.902c0.074,0.797-0.396,1.488-1.049,1.548
				c-0.656,0.063-1.246-0.535-1.32-1.331c-0.074-0.797,0.396-1.489,1.051-1.549C65.254,213.512,65.845,214.105,65.919,214.902z"/>
		</g>
		<g>
			
				<path fill="#A1C453" stroke="#333333" stroke-width="0.9957" stroke-linecap="round" stroke-linejoin="round" stroke-miterlimit="10" d="
				M21.458,192.549c0,0-1.679-2.405-1.882-2.966c-0.166-0.448,2.765,0.67,3.74,1.263L21.458,192.549z"/>
			
				<path fill="#A1C453" stroke="#333333" stroke-width="0.9957" stroke-linecap="round" stroke-linejoin="round" stroke-miterlimit="10" d="
				M22.513,190.476l1.191,4.35c0,0-4.094-1.842-4.773-3.592C18.931,191.233,21.095,191.014,22.513,190.476z"/>
			
				<path fill="#A1C453" stroke="#333333" stroke-width="0.9957" stroke-linecap="round" stroke-linejoin="round" stroke-miterlimit="10" d="
				M27.328,192.881c0,0-3.104-4.625-6.397-4.753l1.347,4.104L27.328,192.881z"/>
		</g>
	</g>
</g>
</svg>
