<?xml version="1.0" encoding="utf-8"?>
<!-- Generator: Adobe Illustrator 16.0.0, SVG Export Plug-In . SVG Version: 6.00 Build 0)  -->
<!DOCTYPE svg PUBLIC "-//W3C//DTD SVG 1.1//EN" "http://www.w3.org/Graphics/SVG/1.1/DTD/svg11.dtd">
<svg version="1.1" id="Calque_1" xmlns="http://www.w3.org/2000/svg" xmlns:xlink="http://www.w3.org/1999/xlink" x="0px" y="0px"
	 width="340px" height="410px" viewBox="0 0 340 410" enable-background="new 0 0 340 410" xml:space="preserve">
<g id="calque00">
	<g>
		<path fill="#CC924C" stroke="#333333" stroke-width="2.4893" stroke-linecap="round" stroke-miterlimit="10" d="M240.052,182.381
			l-7.906-3.914c-0.955-0.407-1.4-1.512-0.992-2.47l0,0c0.408-0.956,1.515-1.401,2.472-0.993l8.297,2.996"/>
		<g>
			
				<path fill="#A1C453" stroke="#333333" stroke-width="0.9957" stroke-linecap="round" stroke-linejoin="round" stroke-miterlimit="10" d="
				M231.584,174.602c0,0-2.932-0.039-3.513,0.107c-0.464,0.114,2.105,1.913,3.146,2.39L231.584,174.602z"/>
			
				<path fill="#A1C453" stroke="#333333" stroke-width="0.9957" stroke-linecap="round" stroke-linejoin="round" stroke-miterlimit="10" d="
				M230.46,176.641l4.27-1.457c0,0-3.819-2.353-5.649-1.938C229.079,173.246,230.109,175.164,230.46,176.641z"/>
			
				<path fill="#A1C453" stroke="#333333" stroke-width="0.9957" stroke-linecap="round" stroke-linejoin="round" stroke-miterlimit="10" d="
				M235.152,179.275c0,0-5.57,0.025-7.523-2.627l4.152-1.188L235.152,179.275z"/>
		</g>
	</g>
</g>
<g id="calque01">
	<g>
		<g>
			
				<path fill="#A1C453" stroke="#333333" stroke-width="0.9957" stroke-linecap="round" stroke-linejoin="round" stroke-miterlimit="10" d="
				M217.163,177.766c0.434-1.15,0.009-1.974,2.338-3.089c2.33-1.116,2.052,0.987,3.584,0.255c-1.532,0.732,0.217,1.924-2.027,2.998
				C218.815,179.004,218.356,178.049,217.163,177.766z"/>
			<g>
				<line fill="none" x1="223.085" y1="174.932" x2="218.495" y2="177.128"/>
				<g>
					<polyline fill="none" stroke="#333333" stroke-width="0.9957" stroke-linecap="round" stroke-miterlimit="10" points="
						222.636,175.146 222.054,175.425 220.86,175.996 220.354,176.238 					"/>
					
						<line fill="none" stroke="#333333" stroke-width="0.9957" stroke-linecap="round" stroke-miterlimit="10" x1="218.944" y1="176.913" x2="219.008" y2="176.883"/>
				</g>
			</g>
		</g>
		<path fill="#CC924C" stroke="#333333" stroke-width="2.4893" stroke-linecap="round" stroke-miterlimit="10" d="M241.921,178
			l-25.384-10.28c-0.956-0.407-2.063,0.036-2.472,0.993l0,0c-0.407,0.957,0.037,2.063,0.993,2.471l24.992,11.197"/>
		<g>
			
				<path fill="#A1C453" stroke="#333333" stroke-width="0.9957" stroke-linecap="round" stroke-linejoin="round" stroke-miterlimit="10" d="
				M213.358,169.99c0,0-2.057-2.088-2.353-2.607c-0.241-0.414,2.836,0.195,3.9,0.613L213.358,169.99z"/>
			
				<path fill="#A1C453" stroke="#333333" stroke-width="0.9957" stroke-linecap="round" stroke-linejoin="round" stroke-miterlimit="10" d="
				M214.05,167.768l1.906,4.088c0,0-4.346-1.127-5.313-2.734C210.644,169.121,212.741,168.538,214.05,167.768z"/>
			
				<path fill="#A1C453" stroke="#333333" stroke-width="0.9957" stroke-linecap="round" stroke-linejoin="round" stroke-miterlimit="10" d="
				M219.2,169.33c0,0-3.84-4.038-7.105-3.611l2.021,3.82L219.2,169.33z"/>
		</g>
	</g>
</g>
<g id="calque02">
	<g>
		<g>
			
				<path fill="#A1C453" stroke="#333333" stroke-width="1.4936" stroke-linecap="round" stroke-linejoin="round" stroke-miterlimit="10" d="
				M212.577,184.648c0.159-2.674-1.259-4.113,2.87-7.943c4.13-3.828,4.91,0.73,7.628-1.789c-2.718,2.52,1.696,3.867-2.281,7.555
				C216.819,186.158,215.247,184.467,212.577,184.648z"/>
			<g>
				<line fill="none" x1="223.075" y1="174.916" x2="214.94" y2="182.459"/>
				<g>
					<polyline fill="none" stroke="#333333" stroke-width="0.9957" stroke-linecap="round" stroke-miterlimit="10" points="
						222.71,175.255 222.237,175.693 216.863,180.676 216.452,181.058 					"/>
					
						<line fill="none" stroke="#333333" stroke-width="0.9957" stroke-linecap="round" stroke-miterlimit="10" x1="215.306" y1="182.12" x2="215.356" y2="182.073"/>
				</g>
			</g>
		</g>
		<g>
			
				<path fill="#A1C453" stroke="#333333" stroke-width="0.9957" stroke-linecap="round" stroke-linejoin="round" stroke-miterlimit="10" d="
				M218.037,162.422c1.062,0.575,1.919,0.27,2.694,2.682c0.776,2.415-1.23,1.865-0.722,3.455c-0.51-1.59-1.9-0.044-2.648-2.369
				S217.604,163.546,218.037,162.422z"/>
			<g>
				<line fill="none" x1="220.011" y1="168.559" x2="218.681" y2="164.322"/>
				<g>
					<polyline fill="none" stroke="#333333" stroke-width="0.9957" stroke-linecap="round" stroke-miterlimit="10" points="
						219.861,168.084 219.668,167.468 219.466,166.824 219.298,166.289 					"/>
					
						<line fill="none" stroke="#333333" stroke-width="0.9957" stroke-linecap="round" stroke-miterlimit="10" x1="218.83" y1="164.797" x2="218.851" y2="164.864"/>
				</g>
			</g>
		</g>
		<path fill="#CC924C" stroke="#333333" stroke-width="2.4893" stroke-linecap="round" stroke-miterlimit="10" d="M241.921,178
			l-33.254-13.637c-0.957-0.408-2.063,0.036-2.474,0.993l0,0c-0.407,0.958,0.037,2.063,0.994,2.472l32.863,14.553"/>
		<g>
			
				<path fill="#A1C453" stroke="#333333" stroke-width="0.9957" stroke-linecap="round" stroke-linejoin="round" stroke-miterlimit="10" d="
				M205.487,166.635c0,0-2.058-2.088-2.354-2.607c-0.24-0.415,2.837,0.194,3.9,0.615L205.487,166.635z"/>
			
				<path fill="#A1C453" stroke="#333333" stroke-width="0.9957" stroke-linecap="round" stroke-linejoin="round" stroke-miterlimit="10" d="
				M206.179,164.412l1.906,4.087c0,0-4.344-1.126-5.312-2.735C202.774,165.764,204.871,165.182,206.179,164.412z"/>
			
				<path fill="#A1C453" stroke="#333333" stroke-width="0.9957" stroke-linecap="round" stroke-linejoin="round" stroke-miterlimit="10" d="
				M211.329,165.975c0,0-3.841-4.038-7.105-3.611l2.021,3.818L211.329,165.975z"/>
		</g>
	</g>
</g>
<g id="calque03">
	<g>
		
			<polygon fill="#CC924C" stroke="#333333" stroke-width="0.9957" stroke-linecap="round" stroke-linejoin="round" stroke-miterlimit="10" points="
			218.286,162.727 221.468,169.385 219.799,168.675 		"/>
		<g>
			
				<path fill="#A1C453" stroke="#333333" stroke-width="1.4936" stroke-linecap="round" stroke-linejoin="round" stroke-miterlimit="10" d="
				M212.601,184.493c0.178-2.673-1.229-4.123,2.923-7.925c4.155-3.801,4.905,0.764,7.641-1.738c-2.734,2.502,1.671,3.88-2.332,7.541
				C216.83,186.031,215.271,184.328,212.601,184.493z"/>
			<g>
				<line fill="none" x1="223.163" y1="174.83" x2="214.978" y2="182.32"/>
				<g>
					<polyline fill="none" stroke="#333333" stroke-width="0.9957" stroke-linecap="round" stroke-miterlimit="10" points="
						222.796,175.166 222.32,175.602 216.912,180.551 216.498,180.929 					"/>
					
						<line fill="none" stroke="#333333" stroke-width="0.9957" stroke-linecap="round" stroke-miterlimit="10" x1="215.345" y1="181.984" x2="215.396" y2="181.938"/>
				</g>
			</g>
		</g>
		<g>
			
				<path fill="#A1C453" stroke="#333333" stroke-width="0.9957" stroke-linecap="round" stroke-linejoin="round" stroke-miterlimit="10" d="
				M198.909,174.613c0.409-1.859-0.427-3.03,2.899-5.256c3.328-2.229,3.367,1.061,5.558-0.408c-2.189,1.469,0.758,2.907-2.444,5.051
				C201.718,176.146,200.804,174.783,198.909,174.613z"/>
			<g>
				<line fill="none" x1="207.366" y1="168.949" x2="200.812" y2="173.34"/>
				<g>
					<polyline fill="none" stroke="#333333" stroke-width="0.9957" stroke-linecap="round" stroke-miterlimit="10" points="
						206.952,169.227 206.417,169.585 202.99,171.881 202.524,172.192 					"/>
					
						<line fill="none" stroke="#333333" stroke-width="0.9957" stroke-linecap="round" stroke-miterlimit="10" x1="201.226" y1="173.063" x2="201.283" y2="173.023"/>
				</g>
			</g>
		</g>
		<g>
			
				<path fill="#A1C453" stroke="#333333" stroke-width="1.4936" stroke-linecap="round" stroke-linejoin="round" stroke-miterlimit="10" d="
				M212.177,152.018c-0.611,2.322-2.222,3.148,0.219,7.559c2.441,4.41,4.381,0.752,5.986,3.654
				c-1.605-2.902,2.522-2.814,0.173-7.063S214.396,152.922,212.177,152.018z"/>
			<g>
				<line fill="none" x1="218.382" y1="163.23" x2="213.573" y2="154.543"/>
				<g>
					<polyline fill="none" stroke="#333333" stroke-width="0.9957" stroke-linecap="round" stroke-miterlimit="10" points="
						218.141,162.795 217.828,162.23 214.843,156.837 214.571,156.347 					"/>
					
						<line fill="none" stroke="#333333" stroke-width="0.9957" stroke-linecap="round" stroke-miterlimit="10" x1="213.814" y1="154.979" x2="213.849" y2="155.04"/>
				</g>
			</g>
		</g>
		<g>
			
				<path fill="#A1C453" stroke="#333333" stroke-width="0.9957" stroke-linecap="round" stroke-linejoin="round" stroke-miterlimit="10" d="
				M220.686,155.695c-1.222,0.713-2.236,0.388-3.058,3.242c-0.82,2.855,1.51,2.141,0.971,4.018c0.539-1.877,2.226-0.122,3.017-2.871
				C222.405,157.334,221.233,156.996,220.686,155.695z"/>
			<g>
				<line fill="none" x1="218.599" y1="162.955" x2="220.216" y2="157.332"/>
				<g>
					<polyline fill="none" stroke="#333333" stroke-width="0.9957" stroke-linecap="round" stroke-miterlimit="10" points="
						218.736,162.477 218.915,161.856 219.491,159.852 219.646,159.313 					"/>
					
						<line fill="none" stroke="#333333" stroke-width="0.9957" stroke-linecap="round" stroke-miterlimit="10" x1="220.078" y1="157.811" x2="220.059" y2="157.878"/>
				</g>
			</g>
		</g>
		<path fill="#CC924C" stroke="#333333" stroke-width="2.6551" stroke-linecap="round" stroke-miterlimit="10" d="M241.921,178
			l-41.405-17.113c-0.956-0.406-2.062,0.038-2.471,0.996l0,0c-0.408,0.956,0.037,2.062,0.993,2.469l41.014,18.029"/>
		<g>
			
				<path fill="#A1C453" stroke="#333333" stroke-width="0.9957" stroke-linecap="round" stroke-linejoin="round" stroke-miterlimit="10" d="
				M197.337,163.159c0,0-2.058-2.089-2.354-2.606c-0.239-0.415,2.837,0.193,3.902,0.612L197.337,163.159z"/>
			
				<path fill="#A1C453" stroke="#333333" stroke-width="0.9957" stroke-linecap="round" stroke-linejoin="round" stroke-miterlimit="10" d="
				M198.028,160.937l1.906,4.087c0,0-4.344-1.126-5.311-2.735C194.624,162.288,196.72,161.707,198.028,160.937z"/>
			
				<path fill="#A1C453" stroke="#333333" stroke-width="0.9957" stroke-linecap="round" stroke-linejoin="round" stroke-miterlimit="10" d="
				M203.179,162.499c0,0-3.838-4.04-7.104-3.61l2.018,3.817L203.179,162.499z"/>
		</g>
	</g>
</g>
<g id="calque04">
	<g>
		
			<polygon fill="#CC924C" stroke="#333333" stroke-width="0.9957" stroke-linecap="round" stroke-linejoin="round" stroke-miterlimit="10" points="
			191.931,176.361 210.345,169.174 207.761,168.071 		"/>
		
			<polygon fill="#CC924C" stroke="#333333" stroke-width="0.9957" stroke-linecap="round" stroke-linejoin="round" stroke-miterlimit="10" points="
			218.286,162.727 221.468,169.385 219.799,168.675 		"/>
		<g>
			
				<path fill="#A1C453" stroke="#333333" stroke-width="1.4936" stroke-linecap="round" stroke-linejoin="round" stroke-miterlimit="10" d="
				M212.601,184.493c0.178-2.673-1.229-4.123,2.922-7.925c4.156-3.8,4.906,0.764,7.642-1.738c-2.734,2.502,1.67,3.881-2.332,7.541
				C216.83,186.031,215.271,184.328,212.601,184.493z"/>
			<g>
				<line fill="none" x1="223.163" y1="174.83" x2="214.978" y2="182.32"/>
				<g>
					<polyline fill="none" stroke="#333333" stroke-width="0.9957" stroke-linecap="round" stroke-miterlimit="10" points="
						222.796,175.166 222.32,175.602 216.912,180.551 216.498,180.929 					"/>
					
						<line fill="none" stroke="#333333" stroke-width="0.9957" stroke-linecap="round" stroke-miterlimit="10" x1="215.345" y1="181.984" x2="215.396" y2="181.938"/>
				</g>
			</g>
		</g>
		<g>
			
				<path fill="#A1C453" stroke="#333333" stroke-width="0.9957" stroke-linecap="round" stroke-linejoin="round" stroke-miterlimit="10" d="
				M183.79,173.854c1.391-0.887,1.594-2.113,4.993-1.441c3.398,0.671,1.41,2.709,3.648,3.151c-2.238-0.442-1.313,2.243-4.588,1.596
				C184.571,176.51,184.847,175.117,183.79,173.854z"/>
			<g>
				<line fill="none" x1="192.433" y1="175.563" x2="185.735" y2="174.238"/>
				<g>
					<polyline fill="none" stroke="#333333" stroke-width="0.9957" stroke-linecap="round" stroke-miterlimit="10" points="
						191.944,175.467 191.312,175.342 188.308,174.747 187.758,174.639 					"/>
					
						<line fill="none" stroke="#333333" stroke-width="0.9957" stroke-linecap="round" stroke-miterlimit="10" x1="186.224" y1="174.335" x2="186.292" y2="174.349"/>
				</g>
			</g>
		</g>
		<g>
			
				<path fill="#A1C453" stroke="#333333" stroke-width="1.4936" stroke-linecap="round" stroke-linejoin="round" stroke-miterlimit="10" d="
				M178.941,185.375c0.652-2.953-0.675-4.809,4.606-8.346c5.277-3.535,5.342,1.684,8.814-0.644
				c-3.474,2.327,1.206,4.611-3.879,8.017C183.398,187.809,181.949,185.643,178.941,185.375z"/>
			<g>
				<line fill="none" x1="192.363" y1="176.386" x2="181.962" y2="183.352"/>
				<g>
					<polyline fill="none" stroke="#333333" stroke-width="0.9957" stroke-linecap="round" stroke-miterlimit="10" points="
						191.949,176.663 191.414,177.021 184.141,181.893 183.675,182.204 					"/>
					
						<line fill="none" stroke="#333333" stroke-width="0.9957" stroke-linecap="round" stroke-miterlimit="10" x1="182.376" y1="183.074" x2="182.434" y2="183.035"/>
				</g>
			</g>
		</g>
		<g>
			
				<path fill="#A1C453" stroke="#333333" stroke-width="1.4936" stroke-linecap="round" stroke-linejoin="round" stroke-miterlimit="10" d="
				M212.177,152.018c-0.611,2.32-2.222,3.148,0.219,7.559c2.441,4.41,4.381,0.752,5.986,3.654c-1.605-2.902,2.522-2.815,0.173-7.063
				C216.204,151.92,214.396,152.922,212.177,152.018z"/>
			<g>
				<line fill="none" x1="218.382" y1="163.23" x2="213.573" y2="154.541"/>
				<g>
					<polyline fill="none" stroke="#333333" stroke-width="0.9957" stroke-linecap="round" stroke-miterlimit="10" points="
						218.141,162.795 217.828,162.23 214.843,156.835 214.571,156.345 					"/>
					
						<line fill="none" stroke="#333333" stroke-width="0.9957" stroke-linecap="round" stroke-miterlimit="10" x1="213.814" y1="154.977" x2="213.849" y2="155.038"/>
				</g>
			</g>
		</g>
		<g>
			
				<path fill="#A1C453" stroke="#333333" stroke-width="1.4936" stroke-linecap="round" stroke-linejoin="round" stroke-miterlimit="10" d="
				M222.185,151.145c-2.071,1.208-3.793,0.654-5.187,5.5c-1.394,4.844,2.563,3.629,1.647,6.816c0.916-3.188,3.775-0.207,5.116-4.871
				C225.104,153.925,223.117,153.353,222.185,151.145z"/>
			<g>
				<line fill="none" x1="218.646" y1="163.461" x2="221.391" y2="153.916"/>
				<g>
					<polyline fill="none" stroke="#333333" stroke-width="0.9957" stroke-linecap="round" stroke-miterlimit="10" points="
						218.784,162.982 218.962,162.362 220.666,156.436 220.821,155.897 					"/>
					
						<line fill="none" stroke="#333333" stroke-width="0.9957" stroke-linecap="round" stroke-miterlimit="10" x1="221.253" y1="154.395" x2="221.233" y2="154.462"/>
				</g>
			</g>
		</g>
		<g>
			
				<path fill="#A1C453" stroke="#333333" stroke-width="0.9957" stroke-linecap="round" stroke-linejoin="round" stroke-miterlimit="10" d="
				M184.334,147.219c1.461,0.477,2.465-0.104,3.993,2.738c1.524,2.844-1.113,2.619-0.109,4.49c-1.004-1.871-2.391,0.381-3.861-2.356
				C182.886,149.353,184.052,148.727,184.334,147.219z"/>
			<g>
				<line fill="none" x1="188.218" y1="154.447" x2="185.208" y2="148.847"/>
				<g>
					<polyline fill="none" stroke="#333333" stroke-width="0.9957" stroke-linecap="round" stroke-miterlimit="10" points="
						187.982,154.009 187.677,153.44 186.449,151.156 186.184,150.662 					"/>
					
						<line fill="none" stroke="#333333" stroke-width="0.9957" stroke-linecap="round" stroke-miterlimit="10" x1="185.443" y1="149.285" x2="185.477" y2="149.347"/>
				</g>
			</g>
		</g>
		<path fill="#CC924C" stroke="#333333" stroke-width="2.6551" stroke-linecap="round" stroke-miterlimit="10" d="M241.921,178
			l-56.243-23.439c-0.956-0.408-2.063,0.038-2.472,0.994l0,0c-0.407,0.957,0.037,2.063,0.994,2.471l55.852,24.355"/>
		<g>
			
				<path fill="#A1C453" stroke="#333333" stroke-width="0.9957" stroke-linecap="round" stroke-linejoin="round" stroke-miterlimit="10" d="
				M182.499,156.832c0,0-2.06-2.088-2.354-2.607c-0.24-0.414,2.836,0.195,3.9,0.613L182.499,156.832z"/>
			
				<path fill="#A1C453" stroke="#333333" stroke-width="0.9957" stroke-linecap="round" stroke-linejoin="round" stroke-miterlimit="10" d="
				M183.189,154.61l1.906,4.087c0,0-4.344-1.125-5.311-2.736C179.785,155.961,181.882,155.38,183.189,154.61z"/>
			
				<path fill="#A1C453" stroke="#333333" stroke-width="0.9957" stroke-linecap="round" stroke-linejoin="round" stroke-miterlimit="10" d="
				M188.341,156.172c0,0-3.839-4.038-7.105-3.609l2.019,3.818L188.341,156.172z"/>
		</g>
		<g>
			
				<path fill="#FFFFFF" stroke="#333333" stroke-width="0.9957" stroke-linecap="round" stroke-linejoin="round" stroke-miterlimit="10" d="
				M192.831,177.278c0.055,0.442,0.869,0.798,1.506,0.997c1.147,0.357,2.93-0.176,2.762-1.566c-0.17-1.399-2.027-1.5-3.059-0.882
				C193.469,176.172,192.778,176.833,192.831,177.278z"/>
			
				<path fill="#FFFFFF" stroke="#333333" stroke-width="0.9957" stroke-linecap="round" stroke-linejoin="round" stroke-miterlimit="10" d="
				M192.733,177.344c-0.41-0.177-1.124,0.35-1.614,0.803c-0.887,0.816-1.313,2.625-0.024,3.176c1.295,0.552,2.313-1.007,2.292-2.209
				C193.374,178.445,193.146,177.518,192.733,177.344z"/>
			
				<path fill="#FFFFFF" stroke="#333333" stroke-width="0.9957" stroke-linecap="round" stroke-linejoin="round" stroke-miterlimit="10" d="
				M192.726,177.23c0.356-0.268,0.258-1.149,0.11-1.801c-0.265-1.174-1.617-2.449-2.737-1.607c-1.126,0.845-0.283,2.504,0.767,3.087
				C191.449,177.232,192.367,177.501,192.726,177.23z"/>
			
				<path fill="#FFFFFF" stroke="#333333" stroke-width="0.9957" stroke-linecap="round" stroke-linejoin="round" stroke-miterlimit="10" d="
				M192.853,177.154c0.41,0.174,1.125-0.354,1.615-0.807c0.885-0.813,1.313-2.623,0.023-3.174c-1.295-0.552-2.313,1.008-2.291,2.207
				C192.214,176.049,192.438,176.979,192.853,177.154z"/>
			
				<path fill="#FFFFFF" stroke="#333333" stroke-width="0.9957" stroke-linecap="round" stroke-linejoin="round" stroke-miterlimit="10" d="
				M192.854,177.27c-0.354,0.266-0.256,1.149-0.108,1.801c0.263,1.175,1.615,2.449,2.735,1.609c1.127-0.848,0.285-2.506-0.766-3.088
				C194.132,177.269,193.214,177,192.854,177.27z"/>
			
				<path fill="#FFFFFF" stroke="#333333" stroke-width="0.9957" stroke-linecap="round" stroke-linejoin="round" stroke-miterlimit="10" d="
				M192.751,177.201c-0.056-0.442-0.867-0.798-1.506-0.997c-1.148-0.358-2.931,0.176-2.763,1.567c0.17,1.396,2.027,1.498,3.06,0.879
				C192.114,178.307,192.804,177.646,192.751,177.201z"/>
			
				<circle fill="#F9D53E" stroke="#333333" stroke-width="0.9957" stroke-linecap="round" stroke-linejoin="round" stroke-miterlimit="10" cx="192.853" cy="177.154" r="0.926"/>
		</g>
	</g>
</g>
<g id="calque05">
	<g>
		
			<polygon fill="#CC924C" stroke="#333333" stroke-width="0.7966" stroke-linecap="round" stroke-linejoin="round" stroke-miterlimit="10" points="
			186.984,146.896 191.081,156.865 188.496,155.764 		"/>
		
			<polygon fill="#CC924C" stroke="#333333" stroke-width="0.9957" stroke-linecap="round" stroke-linejoin="round" stroke-miterlimit="10" points="
			191.931,176.361 210.345,169.174 207.761,168.071 		"/>
		
			<polygon fill="#CC924C" stroke="#333333" stroke-width="0.9957" stroke-linecap="round" stroke-linejoin="round" stroke-miterlimit="10" points="
			218.286,162.727 221.468,169.385 219.799,168.675 		"/>
		<g>
			
				<path fill="#A1C453" stroke="#333333" stroke-width="1.4936" stroke-linecap="round" stroke-linejoin="round" stroke-miterlimit="10" d="
				M212.601,184.493c0.178-2.673-1.229-4.123,2.922-7.925c4.156-3.8,4.906,0.764,7.642-1.736c-2.734,2.5,1.67,3.879-2.332,7.54
				C216.83,186.031,215.271,184.328,212.601,184.493z"/>
			<g>
				<line fill="none" x1="223.163" y1="174.832" x2="214.978" y2="182.32"/>
				<g>
					<polyline fill="none" stroke="#333333" stroke-width="0.9957" stroke-linecap="round" stroke-miterlimit="10" points="
						222.796,175.168 222.319,175.604 216.912,180.551 216.499,180.929 					"/>
					
						<line fill="none" stroke="#333333" stroke-width="0.9957" stroke-linecap="round" stroke-miterlimit="10" x1="215.345" y1="181.984" x2="215.396" y2="181.938"/>
				</g>
			</g>
		</g>
		<g>
			
				<path fill="#A1C453" stroke="#333333" stroke-width="1.4936" stroke-linecap="round" stroke-linejoin="round" stroke-miterlimit="10" d="
				M176.138,173.021c2.551-1.627,2.925-3.877,9.158-2.645c6.232,1.233,2.588,4.969,6.688,5.779c-4.102-0.811-2.408,4.113-8.41,2.926
				C177.57,177.895,178.075,175.34,176.138,173.021z"/>
			<g>
				<line fill="none" x1="191.985" y1="176.156" x2="179.704" y2="173.729"/>
				<g>
					<polyline fill="none" stroke="#333333" stroke-width="0.9957" stroke-linecap="round" stroke-miterlimit="10" points="
						191.497,176.06 190.864,175.935 182.276,174.237 181.727,174.128 					"/>
					
						<line fill="none" stroke="#333333" stroke-width="0.9957" stroke-linecap="round" stroke-miterlimit="10" x1="180.192" y1="173.825" x2="180.261" y2="173.839"/>
				</g>
			</g>
		</g>
		<g>
			
				<path fill="#A1C453" stroke="#333333" stroke-width="1.4936" stroke-linecap="round" stroke-linejoin="round" stroke-miterlimit="10" d="
				M178.941,185.375c0.651-2.953-0.675-4.809,4.604-8.346c5.279-3.535,5.344,1.684,8.816-0.644
				c-3.474,2.327,1.206,4.611-3.879,8.017C183.398,187.809,181.949,185.643,178.941,185.375z"/>
			<g>
				<line fill="none" x1="192.363" y1="176.386" x2="181.962" y2="183.352"/>
				<g>
					<polyline fill="none" stroke="#333333" stroke-width="0.9957" stroke-linecap="round" stroke-miterlimit="10" points="
						191.949,176.663 191.414,177.021 184.141,181.893 183.675,182.204 					"/>
					
						<line fill="none" stroke="#333333" stroke-width="0.9957" stroke-linecap="round" stroke-miterlimit="10" x1="182.376" y1="183.074" x2="182.434" y2="183.035"/>
				</g>
			</g>
		</g>
		<g>
			
				<path fill="#A1C453" stroke="#333333" stroke-width="1.4936" stroke-linecap="round" stroke-linejoin="round" stroke-miterlimit="10" d="
				M212.177,152.018c-0.611,2.322-2.222,3.148,0.219,7.559c2.44,4.411,4.381,0.752,5.986,3.654
				c-1.605-2.902,2.522-2.814,0.173-7.063S214.396,152.922,212.177,152.018z"/>
			<g>
				<line fill="none" x1="218.382" y1="163.23" x2="213.573" y2="154.543"/>
				<g>
					<polyline fill="none" stroke="#333333" stroke-width="0.9957" stroke-linecap="round" stroke-miterlimit="10" points="
						218.141,162.795 217.828,162.23 214.843,156.837 214.571,156.347 					"/>
					
						<line fill="none" stroke="#333333" stroke-width="0.9957" stroke-linecap="round" stroke-miterlimit="10" x1="213.814" y1="154.979" x2="213.849" y2="155.04"/>
				</g>
			</g>
		</g>
		<g>
			
				<path fill="#A1C453" stroke="#333333" stroke-width="1.4936" stroke-linecap="round" stroke-linejoin="round" stroke-miterlimit="10" d="
				M222.185,151.145c-2.071,1.208-3.795,0.656-5.187,5.5c-1.394,4.844,2.563,3.629,1.647,6.816c0.916-3.188,3.775-0.207,5.116-4.871
				C225.104,153.925,223.117,153.353,222.185,151.145z"/>
			<g>
				<line fill="none" x1="218.646" y1="163.461" x2="221.39" y2="153.917"/>
				<g>
					<polyline fill="none" stroke="#333333" stroke-width="0.9957" stroke-linecap="round" stroke-miterlimit="10" points="
						218.784,162.982 218.962,162.362 220.665,156.437 220.82,155.898 					"/>
					
						<line fill="none" stroke="#333333" stroke-width="0.9957" stroke-linecap="round" stroke-miterlimit="10" x1="221.252" y1="154.396" x2="221.232" y2="154.463"/>
				</g>
			</g>
		</g>
		<g>
			
				<path fill="#A1C453" stroke="#333333" stroke-width="1.4936" stroke-linecap="round" stroke-linejoin="round" stroke-miterlimit="10" d="
				M179.336,132.666c2.876,0.937,4.853-0.205,7.859,5.391c3.011,5.598-2.19,5.156-0.212,8.84c-1.979-3.684-4.706,0.752-7.603-4.637
				C176.485,136.867,178.778,135.635,179.336,132.666z"/>
			<g>
				<line fill="none" x1="186.984" y1="146.896" x2="181.059" y2="135.868"/>
				<g>
					<polyline fill="none" stroke="#333333" stroke-width="0.9957" stroke-linecap="round" stroke-miterlimit="10" points="
						186.749,146.458 186.443,145.89 182.3,138.178 182.034,137.684 					"/>
					
						<line fill="none" stroke="#333333" stroke-width="0.9957" stroke-linecap="round" stroke-miterlimit="10" x1="181.294" y1="136.307" x2="181.327" y2="136.368"/>
				</g>
			</g>
		</g>
		<g>
			
				<path fill="#A1C453" stroke="#333333" stroke-width="0.9957" stroke-linecap="round" stroke-linejoin="round" stroke-miterlimit="10" d="
				M194.476,142.51c-0.357,1.568,0.338,2.559-2.479,4.416c-2.82,1.855-2.832-0.916-4.688,0.307c1.855-1.223-0.621-2.456,2.094-4.244
				C192.118,141.199,192.878,142.355,194.476,142.51z"/>
			<g>
				<line fill="none" x1="187.308" y1="147.232" x2="192.862" y2="143.574"/>
				<g>
					<polyline fill="none" stroke="#333333" stroke-width="0.9957" stroke-linecap="round" stroke-miterlimit="10" points="
						187.724,146.959 188.262,146.604 190.673,145.017 191.141,144.708 					"/>
					
						<line fill="none" stroke="#333333" stroke-width="0.9957" stroke-linecap="round" stroke-miterlimit="10" x1="192.446" y1="143.848" x2="192.388" y2="143.887"/>
				</g>
			</g>
		</g>
		<g>
			<g>
				<path fill="#D3F46C" d="M196.534,173.793c2.482,0.679,4.507,4.243,3.268,5.729c0.383,2.117-3.242,3.945-5.726,3.266
					c-2.483-0.678-4.604-2.565-2.665-5.723C191.33,173.532,194.051,173.115,196.534,173.793z"/>
				<g>
					<path fill="none" stroke="#333333" stroke-width="0.9957" stroke-linecap="round" stroke-miterlimit="10" d="M197.004,173.958
						c0.188,0.103,0.394,0.175,0.568,0.302c0.982,0.6,1.736,1.53,2.229,2.562c0.235,0.521,0.393,1.09,0.372,1.666
						c-0.025,0.284-0.082,0.572-0.232,0.819c-0.258,0.219-0.035,0.543-0.146,0.816c-0.23,1.161-1.313,1.897-2.332,2.34
						c-1.056,0.435-2.25,0.606-3.369,0.328c-1.094-0.306-2.189-0.833-2.883-1.763c-0.724-0.932-0.667-2.242-0.168-3.263
						c0.098-0.269,0.3-0.498,0.37-0.77c0.01-0.287,0.003-0.574,0.057-0.857c0.081-0.564,0.268-1.13,0.633-1.577
						c0.359-0.45,0.881-0.751,1.435-0.896c0.135-0.034,0.287-0.076,0.41-0.086l0.184-0.025c0.121-0.022,0.245-0.017,0.368-0.024"/>
					
						<line fill="none" stroke="#333333" stroke-width="0.9957" stroke-linecap="round" stroke-miterlimit="10" x1="196.05" y1="173.676" x2="195.981" y2="173.664"/>
				</g>
			</g>
			
				<ellipse transform="matrix(-0.6368 -0.771 0.771 -0.6368 176.7235 444.2095)" opacity="0.5" fill="#FFFFFF" enable-background="new    " cx="192.981" cy="180.483" rx="1.068" ry="0.878"/>
		</g>
		<path fill="#CC924C" stroke="#333333" stroke-width="2.6551" stroke-linecap="round" stroke-miterlimit="10" d="M241.921,178
			l-63.648-26.598c-0.957-0.407-2.063,0.039-2.472,0.996l0,0c-0.407,0.956,0.037,2.062,0.995,2.469l63.256,27.514"/>
		<g>
			
				<path fill="#A1C453" stroke="#333333" stroke-width="0.9957" stroke-linecap="round" stroke-linejoin="round" stroke-miterlimit="10" d="
				M175.093,153.675c0,0-2.058-2.089-2.353-2.608c-0.24-0.413,2.837,0.195,3.898,0.615L175.093,153.675z"/>
			
				<path fill="#A1C453" stroke="#333333" stroke-width="0.9957" stroke-linecap="round" stroke-linejoin="round" stroke-miterlimit="10" d="
				M175.784,151.452l1.905,4.087c0,0-4.344-1.125-5.311-2.734C172.38,152.805,174.477,152.223,175.784,151.452z"/>
			
				<path fill="#A1C453" stroke="#333333" stroke-width="0.9957" stroke-linecap="round" stroke-linejoin="round" stroke-miterlimit="10" d="
				M180.935,153.015c0,0-3.838-4.038-7.104-3.61l2.02,3.818L180.935,153.015z"/>
		</g>
		<g>
			
				<path fill="#FFFFFF" stroke="#333333" stroke-width="0.9957" stroke-linecap="round" stroke-linejoin="round" stroke-miterlimit="10" d="
				M188.538,147.199c0.053,0.443,0.865,0.799,1.504,0.997c1.147,0.359,2.93-0.177,2.762-1.566c-0.171-1.397-2.027-1.5-3.059-0.882
				C189.173,146.094,188.483,146.754,188.538,147.199z"/>
			
				<path fill="#FFFFFF" stroke="#333333" stroke-width="0.9957" stroke-linecap="round" stroke-linejoin="round" stroke-miterlimit="10" d="
				M188.438,147.264c-0.41-0.175-1.125,0.352-1.615,0.805c-0.887,0.816-1.313,2.625-0.023,3.176
				c1.295,0.551,2.312-1.008,2.291-2.208C189.077,148.369,188.851,147.439,188.438,147.264z"/>
			
				<path fill="#FFFFFF" stroke="#333333" stroke-width="0.9957" stroke-linecap="round" stroke-linejoin="round" stroke-miterlimit="10" d="
				M188.431,147.152c0.356-0.266,0.257-1.149,0.109-1.801c-0.265-1.174-1.617-2.449-2.737-1.609
				c-1.124,0.848-0.284,2.507,0.769,3.088C187.153,147.154,188.071,147.424,188.431,147.152z"/>
			
				<path fill="#FFFFFF" stroke="#333333" stroke-width="0.9957" stroke-linecap="round" stroke-linejoin="round" stroke-miterlimit="10" d="
				M188.558,147.075c0.41,0.175,1.124-0.351,1.615-0.805c0.886-0.815,1.313-2.624,0.022-3.175c-1.295-0.552-2.313,1.006-2.291,2.207
				C187.917,145.973,188.144,146.899,188.558,147.075z"/>
			
				<path fill="#FFFFFF" stroke="#333333" stroke-width="0.9957" stroke-linecap="round" stroke-linejoin="round" stroke-miterlimit="10" d="
				M188.56,147.191c-0.354,0.268-0.258,1.15-0.109,1.801c0.263,1.175,1.615,2.449,2.736,1.608c1.126-0.847,0.284-2.505-0.766-3.088
				C189.835,147.189,188.919,146.92,188.56,147.191z"/>
			
				<path fill="#FFFFFF" stroke="#333333" stroke-width="0.9957" stroke-linecap="round" stroke-linejoin="round" stroke-miterlimit="10" d="
				M188.455,147.122c-0.055-0.44-0.868-0.798-1.505-0.997c-1.15-0.357-2.931,0.178-2.762,1.566c0.169,1.4,2.026,1.5,3.058,0.881
				C187.819,148.229,188.509,147.567,188.455,147.122z"/>
			
				<circle fill="#F9D53E" stroke="#333333" stroke-width="0.9957" stroke-linecap="round" stroke-linejoin="round" stroke-miterlimit="10" cx="188.558" cy="147.075" r="0.927"/>
		</g>
	</g>
</g>
<g id="calque06">
	<g>
		
			<polygon fill="#CC924C" stroke="#333333" stroke-width="0.7966" stroke-linecap="round" stroke-linejoin="round" stroke-miterlimit="10" points="
			186.985,146.895 191.081,156.865 188.496,155.764 		"/>
		
			<polygon fill="#CC924C" stroke="#333333" stroke-width="0.9957" stroke-linecap="round" stroke-linejoin="round" stroke-miterlimit="10" points="
			191.931,176.361 210.345,169.174 207.761,168.071 		"/>
		
			<polygon fill="#CC924C" stroke="#333333" stroke-width="0.9957" stroke-linecap="round" stroke-linejoin="round" stroke-miterlimit="10" points="
			218.286,162.727 221.468,169.385 219.799,168.675 		"/>
		<g>
			
				<path fill="#A1C453" stroke="#333333" stroke-width="1.4936" stroke-linecap="round" stroke-linejoin="round" stroke-miterlimit="10" d="
				M212.601,184.493c0.178-2.673-1.229-4.123,2.922-7.925c4.156-3.8,4.906,0.764,7.642-1.736c-2.734,2.5,1.67,3.879-2.332,7.54
				C216.83,186.031,215.271,184.328,212.601,184.493z"/>
			<g>
				<line fill="none" x1="223.163" y1="174.832" x2="214.978" y2="182.32"/>
				<g>
					<polyline fill="none" stroke="#333333" stroke-width="0.9957" stroke-linecap="round" stroke-miterlimit="10" points="
						222.796,175.168 222.319,175.604 216.912,180.551 216.499,180.929 					"/>
					
						<line fill="none" stroke="#333333" stroke-width="0.9957" stroke-linecap="round" stroke-miterlimit="10" x1="215.345" y1="181.984" x2="215.396" y2="181.938"/>
				</g>
			</g>
		</g>
		<g>
			
				<path fill="#A1C453" stroke="#333333" stroke-width="0.9957" stroke-linecap="round" stroke-linejoin="round" stroke-miterlimit="10" d="
				M169.034,158.023c1.411,0.78,1.687,1.965,4.961,1.098c3.276-0.865,1.211-2.729,3.366-3.299c-2.155,0.57-1.42-2.109-4.573-1.275
				C169.631,155.382,169.987,156.725,169.034,158.023z"/>
			<g>
				<line fill="none" x1="177.362" y1="155.822" x2="170.909" y2="157.527"/>
				<g>
					<polyline fill="none" stroke="#333333" stroke-width="0.9957" stroke-linecap="round" stroke-miterlimit="10" points="
						176.881,155.949 176.257,156.114 173.444,156.857 172.902,157.001 					"/>
					
						<line fill="none" stroke="#333333" stroke-width="0.9957" stroke-linecap="round" stroke-miterlimit="10" x1="171.391" y1="157.4" x2="171.458" y2="157.383"/>
				</g>
			</g>
		</g>
		<g>
			
				<path fill="#A1C453" stroke="#333333" stroke-width="1.4936" stroke-linecap="round" stroke-linejoin="round" stroke-miterlimit="10" d="
				M176.138,173.021c2.551-1.627,2.925-3.877,9.158-2.645c6.232,1.233,2.588,4.969,6.688,5.779c-4.102-0.811-2.408,4.113-8.41,2.926
				C177.57,177.895,178.075,175.338,176.138,173.021z"/>
			<g>
				<line fill="none" x1="191.985" y1="176.156" x2="179.704" y2="173.729"/>
				<g>
					<polyline fill="none" stroke="#333333" stroke-width="0.9957" stroke-linecap="round" stroke-miterlimit="10" points="
						191.497,176.06 190.864,175.935 182.276,174.237 181.727,174.128 					"/>
					
						<line fill="none" stroke="#333333" stroke-width="0.9957" stroke-linecap="round" stroke-miterlimit="10" x1="180.192" y1="173.825" x2="180.261" y2="173.839"/>
				</g>
			</g>
		</g>
		<g>
			
				<path fill="#A1C453" stroke="#333333" stroke-width="1.4936" stroke-linecap="round" stroke-linejoin="round" stroke-miterlimit="10" d="
				M178.941,185.375c0.651-2.953-0.675-4.809,4.604-8.346c5.279-3.535,5.344,1.684,8.816-0.644
				c-3.474,2.327,1.206,4.611-3.879,8.017C183.398,187.809,181.949,185.643,178.941,185.375z"/>
			<g>
				<line fill="none" x1="192.363" y1="176.386" x2="181.962" y2="183.352"/>
				<g>
					<polyline fill="none" stroke="#333333" stroke-width="0.9957" stroke-linecap="round" stroke-miterlimit="10" points="
						191.949,176.663 191.414,177.021 184.141,181.893 183.675,182.204 					"/>
					
						<line fill="none" stroke="#333333" stroke-width="0.9957" stroke-linecap="round" stroke-miterlimit="10" x1="182.376" y1="183.074" x2="182.434" y2="183.035"/>
				</g>
			</g>
		</g>
		<g>
			
				<path fill="#A1C453" stroke="#333333" stroke-width="1.4936" stroke-linecap="round" stroke-linejoin="round" stroke-miterlimit="10" d="
				M212.177,152.018c-0.611,2.322-2.222,3.148,0.219,7.559c2.44,4.411,4.381,0.752,5.986,3.654
				c-1.605-2.902,2.522-2.814,0.173-7.063S214.396,152.922,212.177,152.018z"/>
			<g>
				<line fill="none" x1="218.382" y1="163.23" x2="213.573" y2="154.543"/>
				<g>
					<polyline fill="none" stroke="#333333" stroke-width="0.9957" stroke-linecap="round" stroke-miterlimit="10" points="
						218.141,162.795 217.828,162.23 214.843,156.837 214.571,156.347 					"/>
					
						<line fill="none" stroke="#333333" stroke-width="0.9957" stroke-linecap="round" stroke-miterlimit="10" x1="213.814" y1="154.979" x2="213.849" y2="155.04"/>
				</g>
			</g>
		</g>
		<g>
			
				<path fill="#A1C453" stroke="#333333" stroke-width="1.4936" stroke-linecap="round" stroke-linejoin="round" stroke-miterlimit="10" d="
				M222.185,151.145c-2.071,1.208-3.795,0.656-5.187,5.5c-1.394,4.844,2.563,3.629,1.647,6.816c0.916-3.188,3.775-0.207,5.116-4.871
				C225.104,153.925,223.117,153.353,222.185,151.145z"/>
			<g>
				<line fill="none" x1="218.646" y1="163.461" x2="221.39" y2="153.917"/>
				<g>
					<polyline fill="none" stroke="#333333" stroke-width="0.9957" stroke-linecap="round" stroke-miterlimit="10" points="
						218.784,162.982 218.962,162.362 220.665,156.437 220.82,155.898 					"/>
					
						<line fill="none" stroke="#333333" stroke-width="0.9957" stroke-linecap="round" stroke-miterlimit="10" x1="221.252" y1="154.396" x2="221.232" y2="154.463"/>
				</g>
			</g>
		</g>
		<g>
			
				<path fill="#A1C453" stroke="#333333" stroke-width="0.9957" stroke-linecap="round" stroke-linejoin="round" stroke-miterlimit="10" d="
				M189.856,137.926c0.746,1.465,1.945,1.785,0.95,5.092c-0.996,3.311-2.825,1.141-3.479,3.318c0.653-2.178-2.101-1.52-1.144-4.705
				C187.146,138.442,188.501,138.85,189.856,137.926z"/>
			<g>
				<line fill="none" x1="187.327" y1="146.336" x2="189.288" y2="139.816"/>
				<g>
					<polyline fill="none" stroke="#333333" stroke-width="0.9957" stroke-linecap="round" stroke-miterlimit="10" points="
						187.471,145.859 187.656,145.241 188.533,142.327 188.694,141.791 					"/>
					
						<line fill="none" stroke="#333333" stroke-width="0.9957" stroke-linecap="round" stroke-miterlimit="10" x1="189.145" y1="140.293" x2="189.124" y2="140.36"/>
				</g>
			</g>
		</g>
		<g>
			
				<path fill="#A1C453" stroke="#333333" stroke-width="1.4936" stroke-linecap="round" stroke-linejoin="round" stroke-miterlimit="10" d="
				M179.336,132.666c2.876,0.937,4.853-0.205,7.859,5.391c3.011,5.598-2.19,5.156-0.211,8.838c-1.979-3.682-4.707,0.754-7.604-4.635
				C176.485,136.867,178.778,135.635,179.336,132.666z"/>
			<g>
				<line fill="none" x1="186.985" y1="146.895" x2="181.059" y2="135.868"/>
				<g>
					<polyline fill="none" stroke="#333333" stroke-width="0.9957" stroke-linecap="round" stroke-miterlimit="10" points="
						186.75,146.456 186.444,145.888 182.3,138.178 182.034,137.684 					"/>
					
						<line fill="none" stroke="#333333" stroke-width="0.9957" stroke-linecap="round" stroke-miterlimit="10" x1="181.294" y1="136.307" x2="181.327" y2="136.368"/>
				</g>
			</g>
		</g>
		<g>
			
				<path fill="#A1C453" stroke="#333333" stroke-width="1.4936" stroke-linecap="round" stroke-linejoin="round" stroke-miterlimit="10" d="
				M197.995,140.105c-0.53,2.314,0.5,3.781-3.668,6.526c-4.17,2.747-4.188-1.354-6.933,0.453c2.744-1.808-0.918-3.63,3.099-6.274
				C194.509,138.165,195.634,139.875,197.995,140.105z"/>
			<g>
				<line fill="none" x1="187.396" y1="147.085" x2="195.61" y2="141.676"/>
				<g>
					<polyline fill="none" stroke="#333333" stroke-width="0.9957" stroke-linecap="round" stroke-miterlimit="10" points="
						187.812,146.812 188.351,146.456 193.421,143.117 193.889,142.81 					"/>
					
						<line fill="none" stroke="#333333" stroke-width="0.9957" stroke-linecap="round" stroke-miterlimit="10" x1="195.194" y1="141.949" x2="195.136" y2="141.988"/>
				</g>
			</g>
		</g>
		<g>
			<g>
				<path fill="#D3F46C" d="M198.912,173.012c3.37,0.924,6.113,5.754,4.435,7.768c0.517,2.873-4.396,5.353-7.766,4.432
					c-3.369-0.922-6.247-3.482-3.615-7.763C191.856,172.656,195.545,172.093,198.912,173.012z"/>
				<g>
					<path fill="none" stroke="#333333" stroke-width="1.4936" stroke-linecap="round" stroke-miterlimit="10" d="M199.613,173.268
						c0.29,0.142,0.582,0.279,0.847,0.466c1.285,0.838,2.292,2.077,2.92,3.472c0.305,0.698,0.518,1.46,0.465,2.229
						c-0.041,0.378-0.12,0.765-0.331,1.087l-0.155,0.241c-0.018,0.09,0.006,0.189,0.008,0.284c0.026,0.191,0.009,0.382-0.031,0.57
						c-0.133,0.76-0.609,1.415-1.173,1.924c-0.57,0.513-1.238,0.907-1.94,1.211c-1.409,0.576-2.998,0.847-4.497,0.488
						c-1.469-0.384-2.935-1.064-3.915-2.261c-0.481-0.595-0.791-1.332-0.85-2.098c-0.073-0.769,0.118-1.536,0.407-2.24
						c0.131-0.361,0.323-0.693,0.51-1.028c0.132-0.157,0.085-0.363,0.102-0.552c0.011-0.19-0.002-0.384,0.027-0.573
						c0.069-0.762,0.289-1.52,0.707-2.162c0.417-0.644,1.063-1.124,1.784-1.378c0.17-0.079,0.379-0.111,0.54-0.157
						c0.089-0.022,0.178-0.048,0.271-0.057c0.183-0.022,0.364-0.057,0.549-0.068"/>
					
						<line fill="none" stroke="#333333" stroke-width="1.4936" stroke-linecap="round" stroke-miterlimit="10" x1="198.186" y1="172.841" x2="198.082" y2="172.822"/>
				</g>
			</g>
			
				<ellipse transform="matrix(-0.637 -0.7708 0.7708 -0.637 177.3763 447.7144)" opacity="0.5" fill="#FFFFFF" enable-background="new    " cx="194.095" cy="182.097" rx="1.447" ry="1.191"/>
		</g>
		<path fill="#CC924C" stroke="#333333" stroke-width="2.6551" stroke-linecap="round" stroke-miterlimit="10" d="M241.921,178
			l-70.122-29.357c-0.958-0.407-2.063,0.038-2.472,0.994l0,0c-0.408,0.957,0.036,2.063,0.993,2.471l69.73,30.273"/>
		<g>
			
				<path fill="#A1C453" stroke="#333333" stroke-width="0.9957" stroke-linecap="round" stroke-linejoin="round" stroke-miterlimit="10" d="
				M168.618,150.915c0,0-2.058-2.089-2.353-2.608c-0.24-0.414,2.836,0.195,3.9,0.613L168.618,150.915z"/>
			
				<path fill="#A1C453" stroke="#333333" stroke-width="0.9957" stroke-linecap="round" stroke-linejoin="round" stroke-miterlimit="10" d="
				M169.31,148.692l1.907,4.087c0,0-4.344-1.126-5.313-2.735C165.905,150.044,168.003,149.461,169.31,148.692z"/>
			
				<path fill="#A1C453" stroke="#333333" stroke-width="0.9957" stroke-linecap="round" stroke-linejoin="round" stroke-miterlimit="10" d="
				M174.462,150.254c0,0-3.84-4.037-7.105-3.609l2.02,3.818L174.462,150.254z"/>
		</g>
		<g>
			<g>
				<path fill="#D3F46C" d="M194.544,144.456c2.156,1.407,2.99,5.419,1.356,6.452c-0.284,2.135-4.293,2.764-6.449,1.359
					c-2.157-1.406-3.6-3.854-0.785-6.264C189.671,142.615,192.386,143.051,194.544,144.456z"/>
				<g>
					<path fill="none" stroke="#333333" stroke-width="0.9957" stroke-linecap="round" stroke-miterlimit="10" d="M194.94,144.757
						c0.148,0.155,0.321,0.288,0.449,0.462c0.751,0.871,1.187,1.988,1.336,3.12c0.065,0.568,0.041,1.158-0.155,1.7
						c-0.111,0.263-0.253,0.52-0.472,0.708c-0.313,0.129-0.198,0.508-0.389,0.733c-0.575,1.035-1.83,1.404-2.938,1.513
						c-1.139,0.091-2.327-0.111-3.308-0.718c-0.947-0.625-1.829-1.463-2.204-2.561c-0.403-1.107,0.052-2.338,0.839-3.157
						c0.176-0.225,0.438-0.382,0.588-0.618c0.099-0.271,0.181-0.547,0.317-0.8c0.249-0.513,0.6-0.993,1.084-1.308
						c0.479-0.319,1.067-0.445,1.64-0.415c0.14,0.009,0.296,0.016,0.417,0.044l0.183,0.031c0.122,0.016,0.237,0.06,0.356,0.089"/>
					
						<line fill="none" stroke="#333333" stroke-width="0.9957" stroke-linecap="round" stroke-miterlimit="10" x1="194.119" y1="144.197" x2="194.058" y2="144.164"/>
				</g>
			</g>
			
				<ellipse transform="matrix(-0.3715 -0.9284 0.9284 -0.3715 120.3642 380.959)" opacity="0.5" fill="#FFFFFF" enable-background="new    " cx="189.119" cy="149.742" rx="1.067" ry="0.877"/>
		</g>
	</g>
</g>
<g id="calque07">
	<g>
		
			<polygon fill="#CC924C" stroke="#333333" stroke-width="0.9957" stroke-linecap="round" stroke-linejoin="round" stroke-miterlimit="10" points="
			170.261,158.828 178.952,155.634 176.368,154.531 		"/>
		
			<polygon fill="#CC924C" stroke="#333333" stroke-width="0.7966" stroke-linecap="round" stroke-linejoin="round" stroke-miterlimit="10" points="
			186.984,146.896 191.081,156.865 188.496,155.764 		"/>
		
			<polygon fill="#CC924C" stroke="#333333" stroke-width="0.9957" stroke-linecap="round" stroke-linejoin="round" stroke-miterlimit="10" points="
			191.931,176.361 210.345,169.174 207.761,168.071 		"/>
		
			<polygon fill="#CC924C" stroke="#333333" stroke-width="0.9957" stroke-linecap="round" stroke-linejoin="round" stroke-miterlimit="10" points="
			218.286,162.727 221.468,169.385 219.799,168.675 		"/>
		<g>
			
				<path fill="#A1C453" stroke="#333333" stroke-width="1.4936" stroke-linecap="round" stroke-linejoin="round" stroke-miterlimit="10" d="
				M212.601,184.493c0.178-2.673-1.229-4.123,2.922-7.925c4.156-3.8,4.906,0.764,7.642-1.736c-2.734,2.5,1.67,3.879-2.332,7.54
				C216.83,186.031,215.271,184.328,212.601,184.493z"/>
			<g>
				<line fill="none" x1="223.163" y1="174.832" x2="214.978" y2="182.32"/>
				<g>
					<polyline fill="none" stroke="#333333" stroke-width="0.9957" stroke-linecap="round" stroke-miterlimit="10" points="
						222.796,175.168 222.319,175.604 216.912,180.551 216.499,180.929 					"/>
					
						<line fill="none" stroke="#333333" stroke-width="0.9957" stroke-linecap="round" stroke-miterlimit="10" x1="215.345" y1="181.984" x2="215.396" y2="181.938"/>
				</g>
			</g>
		</g>
		<g>
			
				<path fill="#A1C453" stroke="#333333" stroke-width="1.4936" stroke-linecap="round" stroke-linejoin="round" stroke-miterlimit="10" d="
				M156.421,162.486c2.346,1.297,2.803,3.266,8.246,1.828c5.442-1.439,2.012-4.54,5.594-5.486c-3.582,0.946-2.359-3.503-7.603-2.115
				C157.415,158.097,158.005,160.328,156.421,162.486z"/>
			<g>
				<line fill="none" x1="170.261" y1="158.828" x2="159.536" y2="161.664"/>
				<g>
					<polyline fill="none" stroke="#333333" stroke-width="0.9957" stroke-linecap="round" stroke-miterlimit="10" points="
						169.779,158.955 169.155,159.12 162.071,160.994 161.529,161.137 					"/>
					
						<line fill="none" stroke="#333333" stroke-width="0.9957" stroke-linecap="round" stroke-miterlimit="10" x1="160.018" y1="161.537" x2="160.085" y2="161.519"/>
				</g>
			</g>
		</g>
		<g>
			
				<path fill="#A1C453" stroke="#333333" stroke-width="1.4936" stroke-linecap="round" stroke-linejoin="round" stroke-miterlimit="10" d="
				M176.138,173.021c2.551-1.627,2.925-3.877,9.158-2.645c6.232,1.233,2.588,4.969,6.688,5.779c-4.102-0.811-2.408,4.113-8.41,2.926
				C177.57,177.895,178.075,175.34,176.138,173.021z"/>
			<g>
				<line fill="none" x1="191.985" y1="176.156" x2="179.704" y2="173.729"/>
				<g>
					<polyline fill="none" stroke="#333333" stroke-width="0.9957" stroke-linecap="round" stroke-miterlimit="10" points="
						191.497,176.06 190.864,175.935 182.276,174.237 181.727,174.128 					"/>
					
						<line fill="none" stroke="#333333" stroke-width="0.9957" stroke-linecap="round" stroke-miterlimit="10" x1="180.192" y1="173.825" x2="180.261" y2="173.839"/>
				</g>
			</g>
		</g>
		<g>
			
				<path fill="#A1C453" stroke="#333333" stroke-width="1.4936" stroke-linecap="round" stroke-linejoin="round" stroke-miterlimit="10" d="
				M178.941,185.375c0.652-2.953-0.675-4.809,4.606-8.346c5.277-3.535,5.342,1.684,8.814-0.644
				c-3.474,2.327,1.206,4.611-3.879,8.017C183.398,187.809,181.949,185.643,178.941,185.375z"/>
			<g>
				<line fill="none" x1="192.363" y1="176.386" x2="181.962" y2="183.352"/>
				<g>
					<polyline fill="none" stroke="#333333" stroke-width="0.9957" stroke-linecap="round" stroke-miterlimit="10" points="
						191.949,176.663 191.414,177.021 184.141,181.893 183.675,182.204 					"/>
					
						<line fill="none" stroke="#333333" stroke-width="0.9957" stroke-linecap="round" stroke-miterlimit="10" x1="182.376" y1="183.074" x2="182.434" y2="183.035"/>
				</g>
			</g>
		</g>
		<g>
			
				<path fill="#A1C453" stroke="#333333" stroke-width="1.4936" stroke-linecap="round" stroke-linejoin="round" stroke-miterlimit="10" d="
				M212.177,152.018c-0.611,2.322-2.222,3.148,0.219,7.559c2.441,4.41,4.381,0.752,5.986,3.654
				c-1.605-2.902,2.522-2.814,0.173-7.063C216.204,151.922,214.396,152.922,212.177,152.018z"/>
			<g>
				<line fill="none" x1="218.382" y1="163.23" x2="213.573" y2="154.541"/>
				<g>
					<polyline fill="none" stroke="#333333" stroke-width="0.9957" stroke-linecap="round" stroke-miterlimit="10" points="
						218.141,162.795 217.828,162.23 214.843,156.835 214.571,156.345 					"/>
					
						<line fill="none" stroke="#333333" stroke-width="0.9957" stroke-linecap="round" stroke-miterlimit="10" x1="213.814" y1="154.977" x2="213.849" y2="155.038"/>
				</g>
			</g>
		</g>
		<g>
			
				<path fill="#A1C453" stroke="#333333" stroke-width="1.4936" stroke-linecap="round" stroke-linejoin="round" stroke-miterlimit="10" d="
				M222.185,151.145c-2.071,1.208-3.793,0.654-5.187,5.5c-1.394,4.844,2.563,3.629,1.647,6.816c0.916-3.188,3.775-0.207,5.116-4.871
				C225.104,153.925,223.117,153.353,222.185,151.145z"/>
			<g>
				<line fill="none" x1="218.646" y1="163.461" x2="221.39" y2="153.917"/>
				<g>
					<polyline fill="none" stroke="#333333" stroke-width="0.9957" stroke-linecap="round" stroke-miterlimit="10" points="
						218.784,162.982 218.962,162.362 220.665,156.437 220.82,155.898 					"/>
					
						<line fill="none" stroke="#333333" stroke-width="0.9957" stroke-linecap="round" stroke-miterlimit="10" x1="221.252" y1="154.396" x2="221.232" y2="154.463"/>
				</g>
			</g>
		</g>
		<g>
			
				<path fill="#A1C453" stroke="#333333" stroke-width="1.4936" stroke-linecap="round" stroke-linejoin="round" stroke-miterlimit="10" d="
				M191.903,131.071c1.373,2.695,3.576,3.287,1.746,9.371c-1.832,6.086-5.194,2.095-6.399,6.101
				c1.205-4.006-3.859-2.797-2.099-8.655C186.915,132.025,189.409,132.775,191.903,131.071z"/>
			<g>
				<line fill="none" x1="187.249" y1="146.543" x2="190.856" y2="134.553"/>
				<g>
					<polyline fill="none" stroke="#333333" stroke-width="0.9957" stroke-linecap="round" stroke-miterlimit="10" points="
						187.393,146.066 187.578,145.448 190.101,137.063 190.263,136.526 					"/>
					
						<line fill="none" stroke="#333333" stroke-width="0.9957" stroke-linecap="round" stroke-miterlimit="10" x1="190.713" y1="135.029" x2="190.692" y2="135.097"/>
				</g>
			</g>
		</g>
		<g>
			
				<path fill="#A1C453" stroke="#333333" stroke-width="1.4936" stroke-linecap="round" stroke-linejoin="round" stroke-miterlimit="10" d="
				M179.337,132.664c2.875,0.938,4.852-0.203,7.858,5.393c3.011,5.598-2.19,5.156-0.212,8.84c-1.979-3.684-4.706,0.752-7.603-4.638
				C176.485,136.867,178.778,135.634,179.337,132.664z"/>
			<g>
				<line fill="none" x1="186.984" y1="146.896" x2="181.059" y2="135.868"/>
				<g>
					<polyline fill="none" stroke="#333333" stroke-width="0.9957" stroke-linecap="round" stroke-miterlimit="10" points="
						186.749,146.458 186.443,145.89 182.3,138.178 182.034,137.684 					"/>
					
						<line fill="none" stroke="#333333" stroke-width="0.9957" stroke-linecap="round" stroke-miterlimit="10" x1="181.294" y1="136.307" x2="181.327" y2="136.368"/>
				</g>
			</g>
		</g>
		<g>
			
				<path fill="#A1C453" stroke="#333333" stroke-width="1.4936" stroke-linecap="round" stroke-linejoin="round" stroke-miterlimit="10" d="
				M197.995,140.105c-0.53,2.314,0.5,3.781-3.668,6.526c-4.168,2.745-4.188-1.354-6.933,0.453c2.744-1.808-0.918-3.63,3.099-6.274
				C194.509,138.165,195.634,139.875,197.995,140.105z"/>
			<g>
				<line fill="none" x1="187.396" y1="147.085" x2="195.61" y2="141.676"/>
				<g>
					<polyline fill="none" stroke="#333333" stroke-width="0.9957" stroke-linecap="round" stroke-miterlimit="10" points="
						187.812,146.812 188.351,146.456 193.421,143.117 193.889,142.81 					"/>
					
						<line fill="none" stroke="#333333" stroke-width="0.9957" stroke-linecap="round" stroke-miterlimit="10" x1="195.194" y1="141.949" x2="195.136" y2="141.988"/>
				</g>
			</g>
		</g>
		<g>
			<g>
				<path fill="#EF4529" d="M198.912,173.012c3.37,0.924,6.113,5.754,4.435,7.768c0.517,2.873-4.396,5.353-7.766,4.432
					c-3.369-0.922-6.247-3.482-3.615-7.764C191.856,172.656,195.545,172.093,198.912,173.012z"/>
				<g>
					<path fill="none" stroke="#333333" stroke-width="1.4936" stroke-linecap="round" stroke-miterlimit="10" d="M199.613,173.268
						c0.29,0.142,0.582,0.279,0.847,0.466c1.285,0.838,2.292,2.077,2.92,3.472c0.305,0.698,0.518,1.46,0.465,2.229
						c-0.041,0.378-0.12,0.765-0.331,1.087l-0.155,0.241c-0.018,0.09,0.006,0.189,0.008,0.284c0.026,0.191,0.009,0.382-0.031,0.57
						c-0.133,0.761-0.609,1.415-1.173,1.924c-0.57,0.513-1.238,0.907-1.94,1.211c-1.409,0.576-2.998,0.847-4.497,0.488
						c-1.469-0.384-2.935-1.064-3.915-2.261c-0.481-0.595-0.791-1.332-0.85-2.098c-0.073-0.769,0.118-1.536,0.406-2.24
						c0.132-0.361,0.323-0.693,0.511-1.028c0.131-0.157,0.085-0.363,0.102-0.552c0.011-0.19-0.002-0.384,0.027-0.573
						c0.069-0.762,0.289-1.52,0.707-2.162c0.417-0.645,1.063-1.124,1.784-1.378c0.17-0.079,0.379-0.111,0.54-0.157
						c0.089-0.022,0.178-0.049,0.271-0.057c0.183-0.022,0.364-0.057,0.549-0.068"/>
					
						<line fill="none" stroke="#333333" stroke-width="1.4936" stroke-linecap="round" stroke-miterlimit="10" x1="198.186" y1="172.841" x2="198.082" y2="172.822"/>
				</g>
			</g>
			
				<ellipse transform="matrix(-0.6375 -0.7705 0.7705 -0.6375 177.5578 447.7449)" opacity="0.5" fill="#FFFFFF" enable-background="new    " cx="194.119" cy="182.099" rx="1.446" ry="1.19"/>
		</g>
		<g>
			<g>
				<path fill="#D3F46C" d="M196.994,144.484c2.622,2.307,2.968,7.852,0.572,8.922c-0.797,2.811-6.299,2.879-8.923,0.574
					c-2.622-2.307-4.083-5.871,0.162-8.561C190.81,141.066,194.372,142.179,196.994,144.484z"/>
				<g>
					<path fill="none" stroke="#333333" stroke-width="1.4936" stroke-linecap="round" stroke-miterlimit="10" d="M197.512,145.021
						c0.198,0.255,0.4,0.507,0.556,0.791c0.787,1.316,1.146,2.871,1.1,4.399c-0.033,0.761-0.178,1.539-0.563,2.207
						c-0.204,0.321-0.444,0.634-0.775,0.83l-0.246,0.148c-0.054,0.074-0.077,0.173-0.117,0.259c-0.06,0.185-0.159,0.347-0.278,0.499
						c-0.453,0.625-1.169,1.003-1.897,1.213c-0.737,0.211-1.512,0.271-2.275,0.235c-1.519-0.101-3.063-0.556-4.255-1.535
						c-1.15-0.989-2.169-2.244-2.523-3.75c-0.172-0.746-0.125-1.544,0.159-2.258c0.271-0.722,0.78-1.327,1.351-1.833
						c0.275-0.267,0.596-0.479,0.909-0.699c0.188-0.084,0.235-0.289,0.332-0.451c0.095-0.167,0.167-0.347,0.277-0.503
						c0.396-0.655,0.926-1.239,1.583-1.633c0.658-0.396,1.449-0.543,2.209-0.454c0.188,0.004,0.389,0.066,0.554,0.096
						c0.091,0.02,0.182,0.035,0.269,0.068c0.174,0.06,0.353,0.109,0.522,0.179"/>
					
						<line fill="none" stroke="#333333" stroke-width="1.4936" stroke-linecap="round" stroke-miterlimit="10" x1="196.416" y1="144.012" x2="196.332" y2="143.949"/>
				</g>
			</g>
			
				<ellipse transform="matrix(-0.2347 -0.9721 0.9721 -0.2347 86.6394 369.2788)" opacity="0.5" fill="#FFFFFF" enable-background="new    " cx="188.678" cy="150.536" rx="1.446" ry="1.192"/>
		</g>
		<path fill="#CC924C" stroke="#333333" stroke-width="2.6551" stroke-linecap="round" stroke-miterlimit="10" d="M241.921,178
			l-75.747-31.755c-0.956-0.409-2.063,0.037-2.471,0.995l0,0c-0.407,0.955,0.038,2.061,0.992,2.469l75.355,32.672"/>
		<g>
			
				<path fill="#A1C453" stroke="#333333" stroke-width="0.9957" stroke-linecap="round" stroke-linejoin="round" stroke-miterlimit="10" d="
				M162.995,148.517c0,0-2.06-2.087-2.354-2.606c-0.239-0.415,2.836,0.193,3.9,0.612L162.995,148.517z"/>
			
				<path fill="#A1C453" stroke="#333333" stroke-width="0.9957" stroke-linecap="round" stroke-linejoin="round" stroke-miterlimit="10" d="
				M163.686,146.295l1.907,4.086c0,0-4.344-1.125-5.311-2.736C160.282,147.645,162.38,147.063,163.686,146.295z"/>
			
				<path fill="#A1C453" stroke="#333333" stroke-width="0.9957" stroke-linecap="round" stroke-linejoin="round" stroke-miterlimit="10" d="
				M168.837,147.855c0,0-3.838-4.037-7.105-3.609l2.02,3.818L168.837,147.855z"/>
		</g>
	</g>
</g>
<g id="calque08">
	<g>
		
			<polygon fill="#CC924C" stroke="#333333" stroke-width="0.9957" stroke-linecap="round" stroke-linejoin="round" stroke-miterlimit="10" points="
			170.26,158.832 178.951,155.637 176.366,154.535 		"/>
		
			<polygon fill="#CC924C" stroke="#333333" stroke-width="0.7966" stroke-linecap="round" stroke-linejoin="round" stroke-miterlimit="10" points="
			186.984,146.898 191.079,156.868 188.495,155.766 		"/>
		
			<polygon fill="#CC924C" stroke="#333333" stroke-width="0.9957" stroke-linecap="round" stroke-linejoin="round" stroke-miterlimit="10" points="
			191.931,176.364 210.344,169.176 207.76,168.074 		"/>
		
			<polygon fill="#CC924C" stroke="#333333" stroke-width="0.9957" stroke-linecap="round" stroke-linejoin="round" stroke-miterlimit="10" points="
			218.284,162.729 221.466,169.387 219.799,168.676 		"/>
		<g>
			
				<path fill="#A1C453" stroke="#333333" stroke-width="1.4936" stroke-linecap="round" stroke-linejoin="round" stroke-miterlimit="10" d="
				M212.599,184.496c0.18-2.674-1.229-4.123,2.926-7.925c4.152-3.8,4.903,0.763,7.638-1.737c-2.733,2.5,1.671,3.88-2.331,7.54
				C216.829,186.035,215.271,184.33,212.599,184.496z"/>
			<g>
				<line fill="none" x1="223.161" y1="174.834" x2="214.978" y2="182.321"/>
				<g>
					<polyline fill="none" stroke="#333333" stroke-width="0.9957" stroke-linecap="round" stroke-miterlimit="10" points="
						222.794,175.17 222.317,175.605 216.912,180.552 216.498,180.93 					"/>
					
						<line fill="none" stroke="#333333" stroke-width="0.9957" stroke-linecap="round" stroke-miterlimit="10" x1="215.345" y1="181.985" x2="215.396" y2="181.938"/>
				</g>
			</g>
		</g>
		<g>
			
				<path fill="#A1C453" stroke="#333333" stroke-width="1.4936" stroke-linecap="round" stroke-linejoin="round" stroke-miterlimit="10" d="
				M156.419,162.49c2.346,1.296,2.803,3.265,8.248,1.825c5.442-1.438,2.01-4.538,5.593-5.483c-3.583,0.945-2.36-3.503-7.603-2.117
				C157.413,158.1,158.003,160.332,156.419,162.49z"/>
			<g>
				<line fill="none" x1="170.26" y1="158.832" x2="159.534" y2="161.666"/>
				<g>
					<polyline fill="none" stroke="#333333" stroke-width="0.9957" stroke-linecap="round" stroke-miterlimit="10" points="
						169.778,158.959 169.155,159.124 162.069,160.996 161.527,161.14 					"/>
					
						<line fill="none" stroke="#333333" stroke-width="0.9957" stroke-linecap="round" stroke-miterlimit="10" x1="160.016" y1="161.539" x2="160.083" y2="161.521"/>
				</g>
			</g>
		</g>
		<g>
			
				<path fill="#A1C453" stroke="#333333" stroke-width="1.4936" stroke-linecap="round" stroke-linejoin="round" stroke-miterlimit="10" d="
				M176.137,173.023c2.55-1.625,2.925-3.877,9.157-2.645c6.233,1.232,2.589,4.969,6.69,5.781c-4.103-0.813-2.409,4.113-8.412,2.924
				C177.569,177.896,178.073,175.342,176.137,173.023z"/>
			<g>
				<line fill="none" x1="191.985" y1="176.16" x2="179.704" y2="173.73"/>
				<g>
					<polyline fill="none" stroke="#333333" stroke-width="0.9957" stroke-linecap="round" stroke-miterlimit="10" points="
						191.497,176.063 190.864,175.938 182.276,174.239 181.727,174.131 					"/>
					
						<line fill="none" stroke="#333333" stroke-width="0.9957" stroke-linecap="round" stroke-miterlimit="10" x1="180.192" y1="173.827" x2="180.261" y2="173.841"/>
				</g>
			</g>
		</g>
		<g>
			
				<path fill="#A1C453" stroke="#333333" stroke-width="1.4936" stroke-linecap="round" stroke-linejoin="round" stroke-miterlimit="10" d="
				M178.94,185.378c0.652-2.954-0.675-4.812,4.604-8.345c5.28-3.535,5.344,1.682,8.816-0.645c-3.474,2.326,1.205,4.611-3.879,8.016
				C183.397,187.811,181.947,185.646,178.94,185.378z"/>
			<g>
				<line fill="none" x1="192.362" y1="176.389" x2="181.96" y2="183.355"/>
				<g>
					<polyline fill="none" stroke="#333333" stroke-width="0.9957" stroke-linecap="round" stroke-miterlimit="10" points="
						191.948,176.666 191.413,177.024 184.139,181.896 183.673,182.208 					"/>
					
						<line fill="none" stroke="#333333" stroke-width="0.9957" stroke-linecap="round" stroke-miterlimit="10" x1="182.374" y1="183.078" x2="182.432" y2="183.039"/>
				</g>
			</g>
		</g>
		<g>
			
				<path fill="#A1C453" stroke="#333333" stroke-width="1.4936" stroke-linecap="round" stroke-linejoin="round" stroke-miterlimit="10" d="
				M212.175,152.021c-0.609,2.32-2.221,3.147,0.22,7.558c2.441,4.411,4.38,0.752,5.985,3.655c-1.605-2.903,2.522-2.815,0.174-7.063
				C216.203,151.923,214.396,152.924,212.175,152.021z"/>
			<g>
				<line fill="none" x1="218.38" y1="163.234" x2="213.572" y2="154.545"/>
				<g>
					<polyline fill="none" stroke="#333333" stroke-width="0.9957" stroke-linecap="round" stroke-miterlimit="10" points="
						218.139,162.799 217.826,162.234 214.842,156.839 214.57,156.349 					"/>
					
						<line fill="none" stroke="#333333" stroke-width="0.9957" stroke-linecap="round" stroke-miterlimit="10" x1="213.813" y1="154.98" x2="213.847" y2="155.042"/>
				</g>
			</g>
		</g>
		<g>
			
				<path fill="#A1C453" stroke="#333333" stroke-width="1.4936" stroke-linecap="round" stroke-linejoin="round" stroke-miterlimit="10" d="
				M222.185,151.147c-2.073,1.21-3.796,0.655-5.188,5.499c-1.394,4.845,2.563,3.63,1.646,6.817c0.917-3.188,3.776-0.206,5.117-4.872
				S223.116,153.355,222.185,151.147z"/>
			<g>
				<line fill="none" x1="218.645" y1="163.464" x2="221.389" y2="153.92"/>
				<g>
					<polyline fill="none" stroke="#333333" stroke-width="0.9957" stroke-linecap="round" stroke-miterlimit="10" points="
						218.782,162.985 218.96,162.365 220.664,156.439 220.819,155.901 					"/>
					
						<line fill="none" stroke="#333333" stroke-width="0.9957" stroke-linecap="round" stroke-miterlimit="10" x1="221.251" y1="154.398" x2="221.231" y2="154.466"/>
				</g>
			</g>
		</g>
		<g>
			
				<path fill="#A1C453" stroke="#333333" stroke-width="1.4936" stroke-linecap="round" stroke-linejoin="round" stroke-miterlimit="10" d="
				M191.901,131.076c1.373,2.693,3.577,3.284,1.747,9.369c-1.831,6.085-5.195,2.095-6.398,6.1c1.203-4.005-3.861-2.796-2.099-8.656
				C186.914,132.027,189.407,132.778,191.901,131.076z"/>
			<g>
				<line fill="none" x1="187.249" y1="146.545" x2="190.854" y2="134.556"/>
				<g>
					<polyline fill="none" stroke="#333333" stroke-width="0.9957" stroke-linecap="round" stroke-miterlimit="10" points="
						187.393,146.068 187.578,145.45 190.1,137.066 190.261,136.529 					"/>
					
						<line fill="none" stroke="#333333" stroke-width="0.9957" stroke-linecap="round" stroke-miterlimit="10" x1="190.711" y1="135.032" x2="190.691" y2="135.1"/>
				</g>
			</g>
		</g>
		<g>
			
				<path fill="#A1C453" stroke="#333333" stroke-width="1.4936" stroke-linecap="round" stroke-linejoin="round" stroke-miterlimit="10" d="
				M179.335,132.668c2.877,0.936,4.854-0.205,7.86,5.393c3.008,5.598-2.192,5.154-0.212,8.838c-1.98-3.684-4.708,0.753-7.604-4.637
				C176.482,136.87,178.778,135.637,179.335,132.668z"/>
			<g>
				<line fill="none" x1="186.984" y1="146.898" x2="181.057" y2="135.871"/>
				<g>
					<polyline fill="none" stroke="#333333" stroke-width="0.9957" stroke-linecap="round" stroke-miterlimit="10" points="
						186.749,146.46 186.443,145.892 182.298,138.181 182.032,137.687 					"/>
					
						<line fill="none" stroke="#333333" stroke-width="0.9957" stroke-linecap="round" stroke-miterlimit="10" x1="181.292" y1="136.31" x2="181.325" y2="136.371"/>
				</g>
			</g>
		</g>
		<g>
			
				<path fill="#A1C453" stroke="#333333" stroke-width="1.4936" stroke-linecap="round" stroke-linejoin="round" stroke-miterlimit="10" d="
				M197.995,140.107c-0.531,2.315,0.5,3.782-3.669,6.527c-4.171,2.746-4.188-1.354-6.932,0.452c2.742-1.807-0.919-3.63,3.097-6.272
				C194.507,138.168,195.632,139.877,197.995,140.107z"/>
			<g>
				<line fill="none" x1="187.396" y1="147.087" x2="195.609" y2="141.678"/>
				<g>
					<polyline fill="none" stroke="#333333" stroke-width="0.9957" stroke-linecap="round" stroke-miterlimit="10" points="
						187.812,146.813 188.35,146.458 193.42,143.12 193.888,142.812 					"/>
					
						<line fill="none" stroke="#333333" stroke-width="0.9957" stroke-linecap="round" stroke-miterlimit="10" x1="195.193" y1="141.951" x2="195.135" y2="141.99"/>
				</g>
			</g>
		</g>
		<g>
			<g>
				<path fill="#EF4529" d="M198.911,173.015c3.369,0.923,6.114,5.755,4.435,7.767c0.517,2.873-4.396,5.354-7.767,4.432
					c-3.368-0.922-6.246-3.48-3.613-7.763C191.854,172.659,195.544,172.095,198.911,173.015z"/>
				<g>
					<path fill="none" stroke="#333333" stroke-width="1.4936" stroke-linecap="round" stroke-miterlimit="10" d="M199.612,173.271
						c0.29,0.142,0.582,0.279,0.847,0.466c1.285,0.838,2.292,2.077,2.92,3.471c0.305,0.698,0.518,1.461,0.466,2.229
						c-0.042,0.379-0.12,0.765-0.332,1.087l-0.155,0.242c-0.018,0.089,0.006,0.189,0.007,0.283c0.027,0.192,0.01,0.382-0.03,0.57
						c-0.133,0.761-0.609,1.415-1.173,1.924c-0.57,0.514-1.238,0.907-1.94,1.211c-1.409,0.576-2.998,0.848-4.497,0.488
						c-1.469-0.384-2.935-1.063-3.915-2.26c-0.481-0.596-0.791-1.333-0.85-2.099c-0.072-0.768,0.119-1.535,0.406-2.239
						c0.133-0.361,0.324-0.693,0.512-1.029c0.131-0.157,0.085-0.362,0.102-0.551c0.01-0.191-0.003-0.385,0.027-0.574
						c0.067-0.762,0.288-1.52,0.706-2.162c0.417-0.644,1.063-1.123,1.784-1.378c0.17-0.079,0.379-0.111,0.54-0.157
						c0.09-0.021,0.178-0.048,0.271-0.057c0.183-0.021,0.364-0.056,0.549-0.068"/>
					
						<line fill="none" stroke="#333333" stroke-width="1.4936" stroke-linecap="round" stroke-miterlimit="10" x1="198.185" y1="172.844" x2="198.081" y2="172.824"/>
				</g>
			</g>
			
				<ellipse transform="matrix(-0.6375 -0.7705 0.7705 -0.6375 177.5341 447.728)" opacity="0.5" fill="#FFFFFF" enable-background="new    " cx="194.097" cy="182.098" rx="1.447" ry="1.19"/>
		</g>
		<g>
			<g>
				<path fill="#EF4529" d="M197.062,144.325c2.623,2.305,2.969,7.851,0.574,8.921c-0.797,2.809-6.301,2.881-8.924,0.574
					c-2.62-2.307-4.082-5.871,0.163-8.561C190.878,140.906,194.441,142.018,197.062,144.325z"/>
				<g>
					<path fill="none" stroke="#333333" stroke-width="1.4936" stroke-linecap="round" stroke-miterlimit="10" d="M197.579,144.862
						c0.198,0.254,0.4,0.506,0.557,0.79c0.787,1.316,1.146,2.872,1.099,4.399c-0.032,0.762-0.177,1.54-0.563,2.207
						c-0.203,0.321-0.444,0.634-0.775,0.83l-0.246,0.148c-0.053,0.075-0.076,0.174-0.116,0.259c-0.061,0.186-0.16,0.347-0.278,0.499
						c-0.454,0.624-1.17,1.003-1.899,1.213c-0.736,0.21-1.511,0.271-2.274,0.236c-1.52-0.101-3.064-0.556-4.254-1.536
						c-1.15-0.989-2.169-2.244-2.523-3.75c-0.171-0.746-0.125-1.544,0.159-2.258c0.271-0.722,0.781-1.327,1.35-1.833
						c0.276-0.267,0.597-0.479,0.91-0.699c0.188-0.084,0.235-0.289,0.332-0.451c0.094-0.167,0.167-0.347,0.277-0.503
						c0.396-0.655,0.926-1.239,1.583-1.633c0.658-0.396,1.447-0.543,2.208-0.454c0.188,0.003,0.39,0.065,0.555,0.096
						c0.09,0.019,0.181,0.035,0.268,0.067c0.175,0.061,0.354,0.109,0.522,0.18"/>
					
						<line fill="none" stroke="#333333" stroke-width="1.4936" stroke-linecap="round" stroke-miterlimit="10" x1="196.484" y1="143.852" x2="196.399" y2="143.789"/>
				</g>
			</g>
			
				<ellipse transform="matrix(-0.2348 -0.972 0.972 -0.2348 86.9074 369.1748)" opacity="0.5" fill="#FFFFFF" enable-background="new    " cx="188.758" cy="150.381" rx="1.447" ry="1.19"/>
		</g>
		<path fill="#CC924C" stroke="#333333" stroke-width="2.6551" stroke-linecap="round" stroke-miterlimit="10" d="M241.919,178.004
			l-75.746-31.756c-0.957-0.408-2.063,0.036-2.47,0.994l0,0c-0.408,0.956,0.035,2.062,0.992,2.47l75.355,32.673"/>
		<g>
			
				<path fill="#A1C453" stroke="#333333" stroke-width="0.9957" stroke-linecap="round" stroke-linejoin="round" stroke-miterlimit="10" d="
				M162.994,148.52c0,0-2.059-2.088-2.354-2.606c-0.239-0.417,2.837,0.194,3.901,0.612L162.994,148.52z"/>
			
				<path fill="#A1C453" stroke="#333333" stroke-width="0.9957" stroke-linecap="round" stroke-linejoin="round" stroke-miterlimit="10" d="
				M163.685,146.297l1.906,4.088c0,0-4.344-1.126-5.312-2.735C160.28,147.649,162.378,147.066,163.685,146.297z"/>
			
				<path fill="#A1C453" stroke="#333333" stroke-width="0.9957" stroke-linecap="round" stroke-linejoin="round" stroke-miterlimit="10" d="
				M168.835,147.859c0,0-3.838-4.039-7.104-3.609l2.02,3.816L168.835,147.859z"/>
		</g>
	</g>
</g>
</svg>
