<?xml version="1.0" encoding="utf-8"?>
<!-- Generator: Adobe Illustrator 16.0.0, SVG Export Plug-In . SVG Version: 6.00 Build 0)  -->
<!DOCTYPE svg PUBLIC "-//W3C//DTD SVG 1.1//EN" "http://www.w3.org/Graphics/SVG/1.1/DTD/svg11.dtd">
<svg version="1.1" id="Calque_1" xmlns="http://www.w3.org/2000/svg" xmlns:xlink="http://www.w3.org/1999/xlink" x="0px" y="0px"
	 width="320px" height="410px" viewBox="0 0 320 410" enable-background="new 0 0 320 410" xml:space="preserve">
<g id="calque00">
	<g>
		<g>
			<g>
				<path fill="#D6E57F" d="M278.151,295.954H172.24c0,0,10.351,21.246,52.956,21.246
					C267.801,317.2,278.151,295.954,278.151,295.954z"/>
			</g>
			<g>
				<g>
					<path fill="#CC924C" d="M241.933,177.909c-4.891,3.85-4.674,8.425-4.674,8.425s0,90.887,0,96.878
						c0,5.992,3.338,8.802,8.906,8.802c3.815,0,4.904,3.939,4.904,3.939h-51.963c0,0,1.089-3.939,4.905-3.939
						c5.567,0,8.908-2.81,8.908-8.802c0-5.991,0-96.878,0-96.878s0.215-4.576-4.674-8.425
						C208.247,177.909,225.197,165.813,241.933,177.909z"/>
				</g>
			</g>
			<g>
				<g>
					<path fill="none" stroke="#333333" stroke-width="2.663" stroke-linecap="round" stroke-miterlimit="10" d="M199.639,294.734
						c0,0,0.066-0.11,0.192-0.319c0.131-0.205,0.337-0.499,0.641-0.838l0.123-0.125c0.056-0.05,0.026-0.041,0.269-0.257
						c0.363-0.336,0.813-0.603,1.3-0.824c1.004-0.447,2.204-0.307,3.432-0.447c1.229-0.139,2.545-0.449,3.751-1.158
						c1.194-0.713,2.238-1.842,2.806-3.269c0.612-1.41,0.786-3.026,0.771-4.671c0-1.648,0-3.352,0-5.104c0-3.505,0-7.199,0-11.021
						c0-7.644,0-15.798,0-23.95c0-16.307,0-32.613,0-44.843c0-3.058,0-5.86,0-8.345c-0.001-1.242-0.003-2.404-0.004-3.479
						c-0.024-0.537-0.118-1.047-0.221-1.527c-0.066-0.237-0.133-0.469-0.195-0.695c-0.033-0.112-0.06-0.226-0.1-0.333l-0.053-0.127
						c-0.176-0.42-0.313-0.75-0.407-0.975c-0.085-0.229-0.176-0.329-0.169-0.333"/>
					
						<line fill="none" stroke="#333333" stroke-width="2.663" stroke-linecap="round" stroke-miterlimit="10" x1="209.229" y1="178.808" x2="209.368" y2="178.934"/>
				</g>
			</g>
			<g>
				<g>
					<path fill="none" stroke="#333333" stroke-width="2.663" stroke-linecap="round" stroke-miterlimit="10" d="M240.95,178.808
						c0,0-0.098,0.088-0.276,0.252c-0.09,0.082-0.201,0.184-0.331,0.303c-0.112,0.137-0.24,0.294-0.384,0.471
						c-0.109,0.135-0.225,0.277-0.344,0.426c-0.154,0.191-0.313,0.388-0.476,0.588c-0.131,0.222-0.265,0.449-0.401,0.68
						c-0.136,0.231-0.274,0.468-0.417,0.708c-0.108,0.257-0.221,0.52-0.334,0.787c-0.252,0.525-0.385,1.115-0.549,1.713
						c-0.285,1.219-0.146,2.555-0.181,3.944c0,1.393,0,2.858,0,4.387c0,12.229,0,28.537,0,44.841c0,16.307,0,32.613,0,44.844
						c-0.011,1.525,0.13,3.005,0.597,4.322c0.465,1.314,1.272,2.424,2.25,3.189c0.977,0.774,2.092,1.2,3.135,1.44
						c0.527,0.104,1.034,0.2,1.526,0.235c0.245,0.03,0.484,0.049,0.72,0.051c0.166,0.006,0.328,0.011,0.485,0.017
						c0.913,0.015,1.418,0.159,1.418,0.159"/>
					
						<line fill="none" stroke="#333333" stroke-width="2.663" stroke-linecap="round" stroke-miterlimit="10" x1="250.539" y1="294.734" x2="250.443" y2="294.575"/>
				</g>
			</g>
			<g>
				<g>
					
						<line fill="none" stroke="#333333" stroke-width="2.663" stroke-linecap="round" stroke-miterlimit="10" x1="276.82" y1="295.954" x2="177.754" y2="295.954"/>
					
						<line fill="none" stroke="#333333" stroke-width="2.663" stroke-linecap="round" stroke-miterlimit="10" x1="173.572" y1="295.954" x2="173.759" y2="295.954"/>
				</g>
			</g>
			
				<line fill="none" stroke="#A1C453" stroke-width="1.3314" stroke-linecap="round" stroke-linejoin="round" stroke-miterlimit="10" x1="255.558" y1="289.689" x2="255.558" y2="299.045"/>
			
				<line fill="none" stroke="#A1C453" stroke-width="1.3314" stroke-linecap="round" stroke-linejoin="round" stroke-miterlimit="10" x1="262.337" y1="292.664" x2="262.337" y2="299.045"/>
			
				<line fill="none" stroke="#A1C453" stroke-width="1.3314" stroke-linecap="round" stroke-linejoin="round" stroke-miterlimit="10" x1="280.379" y1="295.021" x2="280.379" y2="297.414"/>
			
				<line fill="none" stroke="#A1C453" stroke-width="1.3314" stroke-linecap="round" stroke-linejoin="round" stroke-miterlimit="10" x1="194.203" y1="289.622" x2="194.203" y2="297.307"/>
			
				<line fill="none" stroke="#A1C453" stroke-width="1.3314" stroke-linecap="round" stroke-linejoin="round" stroke-miterlimit="10" x1="187.546" y1="291.785" x2="187.546" y2="297.307"/>
			<g>
				<g>
					
						<line fill="none" stroke="#AF773A" stroke-width="1.331" stroke-linecap="round" stroke-miterlimit="10" x1="230.957" y1="291.706" x2="230.957" y2="228.234"/>
					
						<line fill="none" stroke="#AF773A" stroke-width="1.331" stroke-linecap="round" stroke-miterlimit="10" x1="230.957" y1="226.145" x2="230.957" y2="226.238"/>
				</g>
			</g>
			<g>
				<g>
					
						<line fill="none" stroke="#AF773A" stroke-width="1.331" stroke-linecap="round" stroke-miterlimit="10" x1="217.642" y1="189.948" x2="217.642" y2="247.825"/>
					
						<line fill="none" stroke="#AF773A" stroke-width="1.331" stroke-linecap="round" stroke-miterlimit="10" x1="217.642" y1="249.916" x2="217.642" y2="249.822"/>
				</g>
			</g>
			<g>
				<g>
					<path fill="none" stroke="#AF773A" stroke-width="1.3314" stroke-linecap="round" stroke-miterlimit="10" d="M221.306,177.047
						c0.01,0.287,0.015,0.575,0.002,0.862c-0.064,2.11-0.794,4.332-2.477,5.706c-0.173,0.184-0.403,0.293-0.604,0.441"/>
					
						<line fill="none" stroke="#AF773A" stroke-width="1.3314" stroke-linecap="round" stroke-miterlimit="10" x1="216.34" y1="184.929" x2="216.429" y2="184.902"/>
				</g>
			</g>
			<g>
				<g>
					<path fill="none" stroke="#AF773A" stroke-width="1.3314" stroke-linecap="round" stroke-miterlimit="10" d="M232.834,184.874
						c-0.263-0.119-0.521-0.242-0.775-0.377c-2.051-1.082-3.882-2.691-4.955-4.772c-0.125-0.217-0.205-0.456-0.309-0.682"/>
					
						<line fill="none" stroke="#AF773A" stroke-width="1.3314" stroke-linecap="round" stroke-miterlimit="10" x1="226.214" y1="177.041" x2="226.229" y2="177.133"/>
				</g>
			</g>
			<g>
				<g>
					<path fill="none" stroke="#AF773A" stroke-width="1.3314" stroke-linecap="round" stroke-miterlimit="10" d="M224.11,178.573
						c-0.011,0.288-0.006,0.575,0.006,0.862c0.091,1.852,0.623,3.72,1.744,5.218c0.57,0.734,1.247,1.39,2.035,1.89l0.144,0.1
						c0.01,0.053,0.003,0.115,0.005,0.172v0.349v0.698v1.396v10.858"/>
					
						<line fill="none" stroke="#AF773A" stroke-width="1.3314" stroke-linecap="round" stroke-miterlimit="10" x1="228.043" y1="202.208" x2="228.043" y2="202.114"/>
				</g>
			</g>
		</g>
	</g>
</g>
</svg>
