<?xml version="1.0" encoding="utf-8"?>
<!-- Generator: Adobe Illustrator 16.0.0, SVG Export Plug-In . SVG Version: 6.00 Build 0)  -->
<!DOCTYPE svg PUBLIC "-//W3C//DTD SVG 1.1//EN" "http://www.w3.org/Graphics/SVG/1.1/DTD/svg11.dtd">
<svg version="1.1" id="Calque_1" xmlns="http://www.w3.org/2000/svg" xmlns:xlink="http://www.w3.org/1999/xlink" x="0px" y="0px"
	 width="320px" height="410px" viewBox="0 0 320 410" enable-background="new 0 0 320 410" xml:space="preserve">
<g id="calque01">
	<g>
		<path fill="#CC924C" stroke="#333333" stroke-width="2.4893" stroke-linecap="round" stroke-miterlimit="10" d="M230.754,238.464
			l7.404-4.797c0.839-0.612,2.017-0.433,2.631,0.409l0,0c0.612,0.838,0.43,2.018-0.408,2.631l-6.816,5.602"/>
		<g>
			
				<path fill="#A1C453" stroke="#333333" stroke-width="0.9957" stroke-linecap="round" stroke-linejoin="round" stroke-miterlimit="10" d="
				M241.769,235.16c0,0,1.53-2.5,1.702-3.072c0.139-0.459-2.721,0.83-3.662,1.48L241.769,235.16z"/>
			
				<path fill="#A1C453" stroke="#333333" stroke-width="0.9957" stroke-linecap="round" stroke-linejoin="round" stroke-miterlimit="10" d="
				M240.592,233.152l-0.932,4.412c0,0,3.976-2.082,4.553-3.865C244.213,233.699,242.039,233.605,240.592,233.152z"/>
			
				<path fill="#A1C453" stroke="#333333" stroke-width="0.9957" stroke-linecap="round" stroke-linejoin="round" stroke-miterlimit="10" d="
				M235.928,235.84c0,0,2.826-4.803,6.104-5.126l-1.104,4.177L235.928,235.84z"/>
		</g>
	</g>
</g>
<g id="calque02">
	<g>
		<g>
			
				<path fill="#A1C453" stroke="#333333" stroke-width="0.9957" stroke-linecap="round" stroke-linejoin="round" stroke-miterlimit="10" d="
				M246.419,221.146c0.767,0.963,1.692,1.018,1.46,3.59c-0.232,2.57-1.897,1.258-2.051,2.949c0.152-1.691-1.766-0.797-1.541-3.273
				C244.511,221.936,245.564,222.027,246.419,221.146z"/>
			<g>
				<line fill="none" x1="245.828" y1="227.686" x2="246.286" y2="222.619"/>
				<g>
					<polyline fill="none" stroke="#333333" stroke-width="0.9957" stroke-linecap="round" stroke-miterlimit="10" points="
						245.873,227.189 245.931,226.547 246.05,225.23 246.101,224.672 					"/>
					
						<line fill="none" stroke="#333333" stroke-width="0.9957" stroke-linecap="round" stroke-miterlimit="10" x1="246.241" y1="223.115" x2="246.235" y2="223.186"/>
				</g>
			</g>
		</g>
		<path fill="#CC924C" stroke="#333333" stroke-width="2.4893" stroke-linecap="round" stroke-miterlimit="10" d="M233.564,242.309
			l21.811-16.563c0.84-0.614,1.021-1.793,0.408-2.634l0,0c-0.614-0.838-1.791-1.021-2.632-0.406l-22.396,15.76"/>
		<g>
			
				<path fill="#A1C453" stroke="#333333" stroke-width="0.9957" stroke-linecap="round" stroke-linejoin="round" stroke-miterlimit="10" d="
				M255.046,221.85c0,0,2.847-0.701,3.443-0.688c0.479,0.007-1.616,2.338-2.521,3.041L255.046,221.85z"/>
			
				<path fill="#A1C453" stroke="#333333" stroke-width="0.9957" stroke-linecap="round" stroke-linejoin="round" stroke-miterlimit="10" d="
				M256.603,223.58l-4.485-0.45c0,0,3.188-3.159,5.064-3.167C257.182,219.963,256.61,222.063,256.603,223.58z"/>
			
				<path fill="#A1C453" stroke="#333333" stroke-width="0.9957" stroke-linecap="round" stroke-linejoin="round" stroke-miterlimit="10" d="
				M252.628,227.209c0,0,5.433-1.234,6.733-4.264l-4.313-0.215L252.628,227.209z"/>
		</g>
	</g>
</g>
<g id="calque03">
	<g>
		<g>
			
				<path fill="#A1C453" stroke="#333333" stroke-width="1.4936" stroke-linecap="round" stroke-linejoin="round" stroke-miterlimit="10" d="
				M248.467,212.813c1.67,2.096,3.688,2.215,3.183,7.824c-0.507,5.606-4.137,2.743-4.47,6.434c0.333-3.689-3.849-1.739-3.361-7.141
				C244.306,214.529,246.604,214.734,248.467,212.813z"/>
			<g>
				<line fill="none" x1="247.18" y1="227.07" x2="248.176" y2="216.021"/>
				<g>
					<polyline fill="none" stroke="#333333" stroke-width="0.9957" stroke-linecap="round" stroke-miterlimit="10" points="
						247.225,226.574 247.282,225.932 247.94,218.632 247.99,218.072 					"/>
					
						<line fill="none" stroke="#333333" stroke-width="0.9957" stroke-linecap="round" stroke-miterlimit="10" x1="248.131" y1="216.518" x2="248.125" y2="216.586"/>
				</g>
			</g>
		</g>
		<g>
			
				<path fill="#A1C453" stroke="#333333" stroke-width="0.9957" stroke-linecap="round" stroke-linejoin="round" stroke-miterlimit="10" d="
				M264.779,224.225c-0.896,0.809-0.896,1.717-3.43,1.644c-2.534-0.077-1.345-1.787-3.013-1.837c1.668,0.05,0.678-1.776,3.118-1.702
				C263.896,222.4,263.865,223.439,264.779,224.225z"/>
			<g>
				<line fill="none" x1="258.337" y1="224.029" x2="262.773" y2="224.195"/>
				<g>
					<polyline fill="none" stroke="#333333" stroke-width="0.9957" stroke-linecap="round" stroke-miterlimit="10" points="
						258.834,224.049 259.479,224.072 260.153,224.098 260.713,224.119 					"/>
					
						<line fill="none" stroke="#333333" stroke-width="0.9957" stroke-linecap="round" stroke-miterlimit="10" x1="262.275" y1="224.178" x2="262.206" y2="224.174"/>
				</g>
			</g>
		</g>
		<path fill="#CC924C" stroke="#333333" stroke-width="2.4893" stroke-linecap="round" stroke-miterlimit="10" d="M233.564,242.309
			l28.717-21.615c0.84-0.612,1.021-1.793,0.408-2.631l0,0c-0.613-0.84-1.792-1.021-2.63-0.408l-29.306,20.811"/>
		<g>
			
				<path fill="#A1C453" stroke="#333333" stroke-width="0.9957" stroke-linecap="round" stroke-linejoin="round" stroke-miterlimit="10" d="
				M261.953,216.8c0,0,2.847-0.702,3.443-0.69c0.479,0.007-1.617,2.34-2.521,3.041L261.953,216.8z"/>
			
				<path fill="#A1C453" stroke="#333333" stroke-width="0.9957" stroke-linecap="round" stroke-linejoin="round" stroke-miterlimit="10" d="
				M263.51,218.529l-4.486-0.449c0,0,3.188-3.16,5.064-3.167C264.088,214.913,263.518,217.014,263.51,218.529z"/>
			
				<path fill="#A1C453" stroke="#333333" stroke-width="0.9957" stroke-linecap="round" stroke-linejoin="round" stroke-miterlimit="10" d="
				M259.535,222.159c0,0,5.433-1.237,6.733-4.263l-4.313-0.217L259.535,222.159z"/>
		</g>
	</g>
</g>
<g id="calque04">
	<g>
		
			<polygon fill="#CC924C" stroke="#333333" stroke-width="0.9957" stroke-linecap="round" stroke-linejoin="round" stroke-miterlimit="10" points="
			264.937,223.727 256.335,225.041 258.603,223.383 		"/>
		<g>
			
				<path fill="#A1C453" stroke="#333333" stroke-width="1.4936" stroke-linecap="round" stroke-linejoin="round" stroke-miterlimit="10" d="
				M248.467,212.813c1.67,2.097,3.688,2.217,3.183,7.824c-0.507,5.607-4.137,2.744-4.47,6.434c0.333-3.688-3.85-1.739-3.361-7.141
				C244.306,214.529,246.604,214.734,248.467,212.813z"/>
			<g>
				<line fill="none" x1="247.18" y1="227.07" x2="248.202" y2="215.857"/>
				<g>
					<polyline fill="none" stroke="#333333" stroke-width="0.9957" stroke-linecap="round" stroke-miterlimit="10" points="
						247.225,226.574 247.283,225.932 247.964,218.471 248.015,217.911 					"/>
					
						<line fill="none" stroke="#333333" stroke-width="0.9957" stroke-linecap="round" stroke-miterlimit="10" x1="248.157" y1="216.354" x2="248.15" y2="216.424"/>
				</g>
			</g>
		</g>
		<g>
			
				<path fill="#A1C453" stroke="#333333" stroke-width="1.4936" stroke-linecap="round" stroke-linejoin="round" stroke-miterlimit="10" d="
				M279.245,224.156c-1.991,1.795-1.991,3.816-7.618,3.648c-5.629-0.171-2.987-3.968-6.69-4.078c3.703,0.11,1.505-3.945,6.926-3.783
				S277.214,222.414,279.245,224.156z"/>
			<g>
				<line fill="none" x1="264.961" y1="223.564" x2="276.05" y2="223.896"/>
				<g>
					<polyline fill="none" stroke="#333333" stroke-width="0.9957" stroke-linecap="round" stroke-miterlimit="10" points="
						265.459,223.579 266.104,223.6 273.429,223.818 273.989,223.835 					"/>
					
						<line fill="none" stroke="#333333" stroke-width="0.9957" stroke-linecap="round" stroke-miterlimit="10" x1="275.552" y1="223.882" x2="275.482" y2="223.88"/>
				</g>
			</g>
		</g>
		<g>
			
				<path fill="#A1C453" stroke="#333333" stroke-width="0.9957" stroke-linecap="round" stroke-linejoin="round" stroke-miterlimit="10" d="
				M260.848,207.498c1.145,1.072,2.322,0.975,2.499,4.264s-2.166,1.934-2.049,4.098c-0.117-2.164-2.375-0.684-2.544-3.851
				C258.583,208.84,259.932,208.768,260.848,207.498z"/>
			<g>
				<line fill="none" x1="261.298" y1="215.859" x2="260.949" y2="209.381"/>
				<g>
					<polyline fill="none" stroke="#333333" stroke-width="0.9957" stroke-linecap="round" stroke-miterlimit="10" points="
						261.271,215.361 261.236,214.719 261.09,211.999 261.06,211.439 					"/>
					
						<line fill="none" stroke="#333333" stroke-width="0.9957" stroke-linecap="round" stroke-miterlimit="10" x1="260.976" y1="209.878" x2="260.979" y2="209.947"/>
				</g>
			</g>
		</g>
		<path fill="#CC924C" stroke="#333333" stroke-width="2.6551" stroke-linecap="round" stroke-miterlimit="10" d="M233.564,242.309
			l35.12-26.297c0.84-0.613,1.021-1.793,0.407-2.632l0,0c-0.613-0.839-1.79-1.022-2.63-0.407l-35.708,25.491"/>
		<g>
			
				<path fill="#A1C453" stroke="#333333" stroke-width="0.9957" stroke-linecap="round" stroke-linejoin="round" stroke-miterlimit="10" d="
				M268.356,212.117c0,0,2.847-0.7,3.443-0.689c0.479,0.006-1.617,2.34-2.521,3.041L268.356,212.117z"/>
			
				<path fill="#A1C453" stroke="#333333" stroke-width="0.9957" stroke-linecap="round" stroke-linejoin="round" stroke-miterlimit="10" d="
				M269.913,213.848l-4.487-0.449c0,0,3.188-3.158,5.063-3.168C270.49,210.229,269.92,212.33,269.913,213.848z"/>
			
				<path fill="#A1C453" stroke="#333333" stroke-width="0.9957" stroke-linecap="round" stroke-linejoin="round" stroke-miterlimit="10" d="
				M265.938,217.479c0,0,5.434-1.237,6.734-4.265l-4.313-0.216L265.938,217.479z"/>
		</g>
	</g>
</g>
<g id="calque05">
	<g>
		
			<polygon fill="#CC924C" stroke="#333333" stroke-width="0.9957" stroke-linecap="round" stroke-linejoin="round" stroke-miterlimit="10" points="
			264.937,223.727 256.335,225.041 258.603,223.383 		"/>
		
			<polygon fill="#CC924C" stroke="#333333" stroke-width="0.9957" stroke-linecap="round" stroke-linejoin="round" stroke-miterlimit="10" points="
			262.263,203.461 258.672,218.668 260.939,217.01 		"/>
		<g>
			
				<path fill="#A1C453" stroke="#333333" stroke-width="1.4936" stroke-linecap="round" stroke-linejoin="round" stroke-miterlimit="10" d="
				M248.467,212.813c1.67,2.097,3.688,2.215,3.182,7.824c-0.506,5.607-4.136,2.744-4.469,6.434c0.333-3.688-3.85-1.739-3.361-7.141
				C244.306,214.529,246.604,214.734,248.467,212.813z"/>
			<g>
				<line fill="none" x1="247.18" y1="227.07" x2="248.202" y2="215.857"/>
				<g>
					<polyline fill="none" stroke="#333333" stroke-width="0.9957" stroke-linecap="round" stroke-miterlimit="10" points="
						247.225,226.574 247.283,225.932 247.964,218.471 248.015,217.911 					"/>
					
						<line fill="none" stroke="#333333" stroke-width="0.9957" stroke-linecap="round" stroke-miterlimit="10" x1="248.157" y1="216.354" x2="248.15" y2="216.424"/>
				</g>
			</g>
		</g>
		<g>
			
				<path fill="#A1C453" stroke="#333333" stroke-width="1.4936" stroke-linecap="round" stroke-linejoin="round" stroke-miterlimit="10" d="
				M279.245,224.156c-1.991,1.795-1.991,3.816-7.618,3.648c-5.629-0.171-2.987-3.968-6.69-4.078c3.703,0.11,1.505-3.945,6.926-3.783
				S277.214,222.414,279.245,224.156z"/>
			<g>
				<line fill="none" x1="264.961" y1="223.564" x2="276.05" y2="223.896"/>
				<g>
					<polyline fill="none" stroke="#333333" stroke-width="0.9957" stroke-linecap="round" stroke-miterlimit="10" points="
						265.459,223.579 266.104,223.6 273.429,223.818 273.989,223.835 					"/>
					
						<line fill="none" stroke="#333333" stroke-width="0.9957" stroke-linecap="round" stroke-miterlimit="10" x1="275.552" y1="223.882" x2="275.482" y2="223.88"/>
				</g>
			</g>
		</g>
		<g>
			
				<path fill="#A1C453" stroke="#333333" stroke-width="0.9957" stroke-linecap="round" stroke-linejoin="round" stroke-miterlimit="10" d="
				M267.91,197.615c0.047,1.471,0.895,2.188-1.172,4.488c-2.065,2.3-2.722-0.152-4.08,1.36c1.358-1.513-1.121-2.03,0.867-4.245
				C265.518,197.004,266.459,197.85,267.91,197.615z"/>
			<g>
				<line fill="none" x1="262.658" y1="203.464" x2="266.729" y2="198.932"/>
				<g>
					<polyline fill="none" stroke="#333333" stroke-width="0.9957" stroke-linecap="round" stroke-miterlimit="10" points="
						262.991,203.094 263.422,202.613 264.977,200.883 265.352,200.465 					"/>
					
						<line fill="none" stroke="#333333" stroke-width="0.9957" stroke-linecap="round" stroke-miterlimit="10" x1="266.396" y1="199.302" x2="266.35" y2="199.354"/>
				</g>
			</g>
		</g>
		<g>
			
				<path fill="#A1C453" stroke="#333333" stroke-width="1.4936" stroke-linecap="round" stroke-linejoin="round" stroke-miterlimit="10" d="
				M261.154,187.688c2.205,2.071,4.479,1.879,4.819,8.223c0.342,6.346-4.177,3.734-3.952,7.91c-0.225-4.176-4.58-1.322-4.908-7.432
				C256.786,190.277,259.386,190.137,261.154,187.688z"/>
			<g>
				<line fill="none" x1="262.021" y1="203.82" x2="261.349" y2="191.318"/>
				<g>
					<polyline fill="none" stroke="#333333" stroke-width="0.9957" stroke-linecap="round" stroke-miterlimit="10" points="
						261.995,203.323 261.96,202.679 261.489,193.937 261.459,193.377 					"/>
					
						<line fill="none" stroke="#333333" stroke-width="0.9957" stroke-linecap="round" stroke-miterlimit="10" x1="261.375" y1="191.815" x2="261.379" y2="191.886"/>
				</g>
			</g>
		</g>
		<g>
			
				<path fill="#A1C453" stroke="#333333" stroke-width="0.9957" stroke-linecap="round" stroke-linejoin="round" stroke-miterlimit="10" d="
				M289.804,206.713c-1.047,0.918-1.06,1.969-3.983,1.842c-2.923-0.127-1.523-2.08-3.447-2.164c1.924,0.084,0.81-2.039,3.625-1.917
				C288.813,204.596,288.762,205.793,289.804,206.713z"/>
			<g>
				<line fill="none" x1="282.372" y1="206.391" x2="288.132" y2="206.641"/>
				<g>
					<polyline fill="none" stroke="#333333" stroke-width="0.9957" stroke-linecap="round" stroke-miterlimit="10" points="
						282.869,206.412 283.514,206.439 285.513,206.527 286.072,206.551 					"/>
					
						<line fill="none" stroke="#333333" stroke-width="0.9957" stroke-linecap="round" stroke-miterlimit="10" x1="287.635" y1="206.619" x2="287.564" y2="206.616"/>
				</g>
			</g>
		</g>
		<path fill="#CC924C" stroke="#333333" stroke-width="2.6551" stroke-linecap="round" stroke-miterlimit="10" d="M233.564,242.309
			l51.221-38.067c0.838-0.613,1.021-1.793,0.406-2.633l0,0c-0.612-0.839-1.791-1.021-2.63-0.407l-51.808,37.264"/>
		<g>
			
				<path fill="#A1C453" stroke="#333333" stroke-width="0.9957" stroke-linecap="round" stroke-linejoin="round" stroke-miterlimit="10" d="
				M284.455,200.346c0,0,2.847-0.7,3.443-0.689c0.479,0.006-1.617,2.339-2.521,3.041L284.455,200.346z"/>
			
				<path fill="#A1C453" stroke="#333333" stroke-width="0.9957" stroke-linecap="round" stroke-linejoin="round" stroke-miterlimit="10" d="
				M286.013,202.076l-4.487-0.449c0,0,3.188-3.16,5.064-3.169C286.59,198.458,286.019,200.559,286.013,202.076z"/>
			
				<path fill="#A1C453" stroke="#333333" stroke-width="0.9957" stroke-linecap="round" stroke-linejoin="round" stroke-miterlimit="10" d="
				M282.037,205.706c0,0,5.433-1.237,6.733-4.264l-4.313-0.216L282.037,205.706z"/>
		</g>
		<g>
			
				<path fill="#FFFFFF" stroke="#333333" stroke-width="0.9957" stroke-linecap="round" stroke-linejoin="round" stroke-miterlimit="10" d="
				M265.566,224.477c-0.405-0.18-1.128,0.338-1.625,0.783c-0.896,0.805-1.347,2.607-0.063,3.174
				c1.288,0.569,2.324-0.976,2.318-2.178C266.192,225.588,265.978,224.656,265.566,224.477z"/>
			
				<path fill="#FFFFFF" stroke="#333333" stroke-width="0.9957" stroke-linecap="round" stroke-linejoin="round" stroke-miterlimit="10" d="
				M265.563,224.357c0.359-0.264,0.272-1.146,0.134-1.799c-0.247-1.179-1.585-2.472-2.717-1.644
				c-1.136,0.83-0.315,2.501,0.728,3.097C264.287,224.344,265.2,224.623,265.563,224.357z"/>
			
				<path fill="#FFFFFF" stroke="#333333" stroke-width="0.9957" stroke-linecap="round" stroke-linejoin="round" stroke-miterlimit="10" d="
				M265.662,224.408c0.047,0.443,0.855,0.809,1.491,1.016c1.145,0.374,2.933-0.137,2.779-1.531
				c-0.149-1.398-2.006-1.522-3.044-0.918C266.313,223.311,265.613,223.963,265.662,224.408z"/>
			
				<path fill="#FFFFFF" stroke="#333333" stroke-width="0.9957" stroke-linecap="round" stroke-linejoin="round" stroke-miterlimit="10" d="
				M265.663,224.557c-0.359,0.264-0.271,1.147-0.134,1.801c0.248,1.178,1.585,2.47,2.718,1.644c1.136-0.831,0.314-2.502-0.729-3.099
				C266.939,224.572,266.025,224.292,265.663,224.557z"/>
			
				<path fill="#FFFFFF" stroke="#333333" stroke-width="0.9957" stroke-linecap="round" stroke-linejoin="round" stroke-miterlimit="10" d="
				M265.563,224.5c-0.048-0.443-0.855-0.809-1.492-1.016c-1.144-0.375-2.931,0.139-2.779,1.531c0.15,1.398,2.007,1.522,3.046,0.92
				C264.912,225.598,265.611,224.945,265.563,224.5z"/>
			
				<path fill="#FFFFFF" stroke="#333333" stroke-width="0.9957" stroke-linecap="round" stroke-linejoin="round" stroke-miterlimit="10" d="
				M265.675,224.445c0.408,0.18,1.13-0.338,1.626-0.785c0.896-0.805,1.346-2.605,0.063-3.174c-1.287-0.568-2.323,0.977-2.318,2.178
				C265.05,223.334,265.265,224.264,265.675,224.445z"/>
			
				<circle fill="#F9D53E" stroke="#333333" stroke-width="0.9957" stroke-linecap="round" stroke-linejoin="round" stroke-miterlimit="10" cx="265.664" cy="224.558" r="0.926"/>
		</g>
	</g>
</g>
<g id="calque06">
	<g>
		
			<polygon fill="#CC924C" stroke="#333333" stroke-width="0.9957" stroke-linecap="round" stroke-linejoin="round" stroke-miterlimit="10" points="
			264.937,223.727 256.335,225.041 258.603,223.383 		"/>
		
			<polygon fill="#CC924C" stroke="#333333" stroke-width="0.9957" stroke-linecap="round" stroke-linejoin="round" stroke-miterlimit="10" points="
			287.233,208.117 280.046,207.704 282.314,206.046 		"/>
		
			<polygon fill="#CC924C" stroke="#333333" stroke-width="0.9957" stroke-linecap="round" stroke-linejoin="round" stroke-miterlimit="10" points="
			262.263,203.461 258.672,218.668 260.939,217.01 		"/>
		<g>
			
				<path fill="#A1C453" stroke="#333333" stroke-width="1.4936" stroke-linecap="round" stroke-linejoin="round" stroke-miterlimit="10" d="
				M248.467,212.813c1.67,2.097,3.688,2.217,3.183,7.824c-0.507,5.607-4.137,2.744-4.47,6.434c0.333-3.688-3.85-1.739-3.361-7.141
				C244.306,214.529,246.605,214.736,248.467,212.813z"/>
			<g>
				<line fill="none" x1="247.18" y1="227.07" x2="248.202" y2="215.857"/>
				<g>
					<polyline fill="none" stroke="#333333" stroke-width="0.9957" stroke-linecap="round" stroke-miterlimit="10" points="
						247.225,226.574 247.283,225.932 247.964,218.471 248.015,217.911 					"/>
					
						<line fill="none" stroke="#333333" stroke-width="0.9957" stroke-linecap="round" stroke-miterlimit="10" x1="248.157" y1="216.354" x2="248.15" y2="216.424"/>
				</g>
			</g>
		</g>
		<g>
			
				<path fill="#A1C453" stroke="#333333" stroke-width="1.4936" stroke-linecap="round" stroke-linejoin="round" stroke-miterlimit="10" d="
				M279.245,224.156c-1.991,1.795-1.991,3.816-7.618,3.648c-5.629-0.171-2.987-3.968-6.69-4.078c3.703,0.11,1.506-3.945,6.926-3.783
				C277.283,220.105,277.214,222.414,279.245,224.156z"/>
			<g>
				<line fill="none" x1="264.961" y1="223.564" x2="276.05" y2="223.896"/>
				<g>
					<polyline fill="none" stroke="#333333" stroke-width="0.9957" stroke-linecap="round" stroke-miterlimit="10" points="
						265.459,223.579 266.104,223.6 273.429,223.818 273.989,223.835 					"/>
					
						<line fill="none" stroke="#333333" stroke-width="0.9957" stroke-linecap="round" stroke-miterlimit="10" x1="275.552" y1="223.882" x2="275.482" y2="223.88"/>
				</g>
			</g>
		</g>
		<g>
			
				<path fill="#A1C453" stroke="#333333" stroke-width="1.4936" stroke-linecap="round" stroke-linejoin="round" stroke-miterlimit="10" d="
				M273.206,191.593c0.095,3.021,1.838,4.494-2.407,9.224c-4.246,4.727-5.594-0.315-8.388,2.795c2.794-3.11-2.305-4.172,1.784-8.725
				C268.285,190.332,270.225,192.074,273.206,191.593z"/>
			<g>
				<line fill="none" x1="262.411" y1="203.611" x2="270.775" y2="194.297"/>
				<g>
					<polyline fill="none" stroke="#333333" stroke-width="0.9957" stroke-linecap="round" stroke-miterlimit="10" points="
						262.744,203.241 263.175,202.761 269.023,196.248 269.398,195.831 					"/>
					
						<line fill="none" stroke="#333333" stroke-width="0.9957" stroke-linecap="round" stroke-miterlimit="10" x1="270.442" y1="194.667" x2="270.396" y2="194.72"/>
				</g>
			</g>
		</g>
		<g>
			
				<path fill="#A1C453" stroke="#333333" stroke-width="1.4936" stroke-linecap="round" stroke-linejoin="round" stroke-miterlimit="10" d="
				M261.155,187.688c2.204,2.07,4.479,1.878,4.819,8.224c0.341,6.344-4.178,3.732-3.953,7.908c-0.225-4.176-4.58-1.322-4.908-7.432
				C256.786,190.277,259.386,190.137,261.155,187.688z"/>
			<g>
				<line fill="none" x1="262.021" y1="203.82" x2="261.35" y2="191.319"/>
				<g>
					<polyline fill="none" stroke="#333333" stroke-width="0.9957" stroke-linecap="round" stroke-miterlimit="10" points="
						261.995,203.323 261.96,202.679 261.49,193.938 261.46,193.378 					"/>
					
						<line fill="none" stroke="#333333" stroke-width="0.9957" stroke-linecap="round" stroke-miterlimit="10" x1="261.376" y1="191.816" x2="261.38" y2="191.887"/>
				</g>
			</g>
		</g>
		<g>
			
				<path fill="#A1C453" stroke="#333333" stroke-width="0.9957" stroke-linecap="round" stroke-linejoin="round" stroke-miterlimit="10" d="
				M287.188,192.412c0.568,1.077,1.458,1.301,0.759,3.76c-0.698,2.459-2.076,0.875-2.536,2.493c0.46-1.618-1.57-1.103-0.896-3.47
				C285.187,192.826,286.195,193.113,287.188,192.412z"/>
			<g>
				<line fill="none" x1="285.409" y1="198.665" x2="286.787" y2="193.82"/>
				<g>
					<polyline fill="none" stroke="#333333" stroke-width="0.9957" stroke-linecap="round" stroke-miterlimit="10" points="
						285.545,198.187 285.722,197.565 286.07,196.342 286.223,195.803 					"/>
					
						<line fill="none" stroke="#333333" stroke-width="0.9957" stroke-linecap="round" stroke-miterlimit="10" x1="286.65" y1="194.299" x2="286.632" y2="194.366"/>
				</g>
			</g>
		</g>
		<g>
			
				<path fill="#A1C453" stroke="#333333" stroke-width="0.9957" stroke-linecap="round" stroke-linejoin="round" stroke-miterlimit="10" d="
				M296.527,208.837c-1.258,1.104-1.273,2.366-4.784,2.216c-3.515-0.152-1.833-2.5-4.146-2.602c2.313,0.102,0.974-2.451,4.355-2.305
				C295.336,206.293,295.274,207.732,296.527,208.837z"/>
			<g>
				<line fill="none" x1="287.598" y1="208.451" x2="294.518" y2="208.751"/>
				<g>
					<polyline fill="none" stroke="#333333" stroke-width="0.9957" stroke-linecap="round" stroke-miterlimit="10" points="
						288.095,208.473 288.739,208.501 291.898,208.639 292.458,208.662 					"/>
					
						<line fill="none" stroke="#333333" stroke-width="0.9957" stroke-linecap="round" stroke-miterlimit="10" x1="294.021" y1="208.729" x2="293.95" y2="208.727"/>
				</g>
			</g>
		</g>
		<g>
			
				<path fill="#A1C453" stroke="#333333" stroke-width="1.4936" stroke-linecap="round" stroke-linejoin="round" stroke-miterlimit="10" d="
				M287.443,221.055c-1.72-1.643-3.506-1.504-3.734-6.49c-0.23-4.987,3.304-2.906,3.151-6.188c0.151,3.282,3.591,1.065,3.812,5.867
				C290.893,219.047,288.849,219.141,287.443,221.055z"/>
			<g>
				<line fill="none" x1="286.886" y1="208.212" x2="287.338" y2="218.037"/>
				<g>
					<polyline fill="none" stroke="#333333" stroke-width="0.9957" stroke-linecap="round" stroke-miterlimit="10" points="
						286.908,208.709 286.938,209.354 287.218,215.418 287.243,215.979 					"/>
					
						<line fill="none" stroke="#333333" stroke-width="0.9957" stroke-linecap="round" stroke-miterlimit="10" x1="287.315" y1="217.54" x2="287.312" y2="217.471"/>
				</g>
			</g>
		</g>
		<path fill="#CC924C" stroke="#333333" stroke-width="2.6551" stroke-linecap="round" stroke-miterlimit="10" d="M233.564,242.309
			l58.355-43.287c0.839-0.613,1.021-1.791,0.408-2.631l0,0c-0.614-0.84-1.792-1.021-2.632-0.408l-58.942,42.481"/>
		<g>
			<g>
				<path fill="#D3F46C" d="M264.805,229.963c-2.196,0.771-5.531-0.841-5.371-2.58c-1.373-1.383,0.385-4.604,2.582-5.373
					c2.196-0.771,4.745-0.455,4.922,2.891C268.812,227.486,267.002,229.193,264.805,229.963z"/>
				<g>
					<path fill="none" stroke="#333333" stroke-width="0.9957" stroke-linecap="round" stroke-miterlimit="10" d="M264.323,230.089
						c-0.213,0.032-0.425,0.067-0.641,0.063c-1.021,0.027-2.044-0.271-2.915-0.799c-0.432-0.269-0.837-0.605-1.1-1.047
						c-0.119-0.225-0.224-0.467-0.229-0.724l-0.006-0.19c-0.027-0.056-0.076-0.103-0.113-0.152
						c-0.088-0.096-0.147-0.206-0.197-0.325c-0.409-0.97,0.004-2.054,0.521-2.897c0.555-0.851,1.324-1.6,2.283-1.971
						c0.95-0.346,2.013-0.527,3.003-0.242c1.01,0.27,1.712,1.211,1.885,2.213c0.064,0.248,0.084,0.504,0.109,0.758
						c0.024,0.256,0.255,0.436,0.354,0.666c0.251,0.443,0.417,0.943,0.432,1.453c0.015,0.512-0.158,1.021-0.458,1.433
						c-0.063,0.108-0.166,0.205-0.236,0.291c-0.041,0.046-0.08,0.094-0.127,0.133c-0.093,0.082-0.179,0.17-0.275,0.246"/>
					
						<line fill="none" stroke="#333333" stroke-width="0.9957" stroke-linecap="round" stroke-miterlimit="10" x1="265.269" y1="229.781" x2="265.332" y2="229.753"/>
				</g>
			</g>
			
				<ellipse transform="matrix(0.9623 0.272 -0.272 0.9623 70.6496 -63.3885)" opacity="0.5" fill="#FFFFFF" enable-background="new    " cx="263.997" cy="223.172" rx="0.964" ry="0.793"/>
		</g>
		<g>
			
				<path fill="#A1C453" stroke="#333333" stroke-width="0.9957" stroke-linecap="round" stroke-linejoin="round" stroke-miterlimit="10" d="
				M291.592,195.128c0,0,2.847-0.7,3.444-0.69c0.479,0.008-1.618,2.34-2.521,3.041L291.592,195.128z"/>
			
				<path fill="#A1C453" stroke="#333333" stroke-width="0.9957" stroke-linecap="round" stroke-linejoin="round" stroke-miterlimit="10" d="
				M293.149,196.859l-4.486-0.451c0,0,3.187-3.158,5.063-3.168C293.726,193.24,293.155,195.342,293.149,196.859z"/>
			
				<path fill="#A1C453" stroke="#333333" stroke-width="0.9957" stroke-linecap="round" stroke-linejoin="round" stroke-miterlimit="10" d="
				M289.174,200.488c0,0,5.433-1.237,6.734-4.264l-4.314-0.217L289.174,200.488z"/>
		</g>
		<g>
			
				<path fill="#FFFFFF" stroke="#333333" stroke-width="0.9957" stroke-linecap="round" stroke-linejoin="round" stroke-miterlimit="10" d="
				M283.733,197.307c-0.407-0.182-1.13,0.337-1.626,0.785c-0.896,0.803-1.346,2.607-0.063,3.173
				c1.289,0.569,2.324-0.977,2.319-2.179C284.359,198.42,284.144,197.486,283.733,197.307z"/>
			
				<path fill="#FFFFFF" stroke="#333333" stroke-width="0.9957" stroke-linecap="round" stroke-linejoin="round" stroke-miterlimit="10" d="
				M283.729,197.189c0.359-0.264,0.271-1.147,0.133-1.801c-0.248-1.178-1.585-2.469-2.716-1.643c-1.137,0.832-0.315,2.5,0.728,3.097
				C282.453,197.174,283.367,197.453,283.729,197.189z"/>
			
				<path fill="#FFFFFF" stroke="#333333" stroke-width="0.9957" stroke-linecap="round" stroke-linejoin="round" stroke-miterlimit="10" d="
				M283.828,197.238c0.048,0.443,0.856,0.81,1.491,1.016c1.146,0.375,2.933-0.138,2.781-1.531c-0.151-1.398-2.009-1.523-3.047-0.92
				C284.479,196.141,283.78,196.793,283.828,197.238z"/>
			
				<path fill="#FFFFFF" stroke="#333333" stroke-width="0.9957" stroke-linecap="round" stroke-linejoin="round" stroke-miterlimit="10" d="
				M283.831,197.389c-0.36,0.263-0.272,1.146-0.136,1.799c0.249,1.178,1.585,2.47,2.718,1.643c1.136-0.831,0.315-2.501-0.729-3.098
				C285.106,197.402,284.192,197.123,283.831,197.389z"/>
			
				<path fill="#FFFFFF" stroke="#333333" stroke-width="0.9957" stroke-linecap="round" stroke-linejoin="round" stroke-miterlimit="10" d="
				M283.729,197.331c-0.048-0.443-0.856-0.81-1.492-1.015c-1.144-0.375-2.932,0.137-2.78,1.529c0.151,1.4,2.007,1.525,3.046,0.92
				C283.079,198.429,283.777,197.777,283.729,197.331z"/>
			
				<path fill="#FFFFFF" stroke="#333333" stroke-width="0.9957" stroke-linecap="round" stroke-linejoin="round" stroke-miterlimit="10" d="
				M283.842,197.275c0.407,0.18,1.129-0.338,1.626-0.784c0.896-0.803,1.346-2.608,0.064-3.173c-1.288-0.57-2.324,0.976-2.319,2.177
				C283.216,196.163,283.431,197.095,283.842,197.275z"/>
			
				<circle fill="#F9D53E" stroke="#333333" stroke-width="0.9957" stroke-linecap="round" stroke-linejoin="round" stroke-miterlimit="10" cx="283.83" cy="197.387" r="0.927"/>
		</g>
	</g>
</g>
<g id="calque07">
	<g>
		
			<polygon fill="#CC924C" stroke="#333333" stroke-width="0.9957" stroke-linecap="round" stroke-linejoin="round" stroke-miterlimit="10" points="
			264.937,223.727 256.335,225.041 258.603,223.383 		"/>
		
			<polygon fill="#CC924C" stroke="#333333" stroke-width="0.9957" stroke-linecap="round" stroke-linejoin="round" stroke-miterlimit="10" points="
			287.233,208.117 280.046,207.704 282.314,206.046 		"/>
		
			<polygon fill="#CC924C" stroke="#333333" stroke-width="0.9957" stroke-linecap="round" stroke-linejoin="round" stroke-miterlimit="10" points="
			262.263,203.461 258.672,218.668 260.939,217.01 		"/>
		
			<polygon fill="#CC924C" stroke="#333333" stroke-width="0.9957" stroke-linecap="round" stroke-linejoin="round" stroke-miterlimit="10" points="
			286.52,192.264 284.325,199.91 285.789,198.84 		"/>
		<g>
			
				<path fill="#A1C453" stroke="#333333" stroke-width="1.4936" stroke-linecap="round" stroke-linejoin="round" stroke-miterlimit="10" d="
				M248.467,212.813c1.67,2.097,3.688,2.215,3.182,7.824c-0.506,5.607-4.136,2.744-4.469,6.434c0.333-3.688-3.85-1.739-3.361-7.141
				C244.306,214.529,246.604,214.734,248.467,212.813z"/>
			<g>
				<line fill="none" x1="247.18" y1="227.07" x2="248.202" y2="215.857"/>
				<g>
					<polyline fill="none" stroke="#333333" stroke-width="0.9957" stroke-linecap="round" stroke-miterlimit="10" points="
						247.225,226.574 247.283,225.932 247.964,218.471 248.015,217.911 					"/>
					
						<line fill="none" stroke="#333333" stroke-width="0.9957" stroke-linecap="round" stroke-miterlimit="10" x1="248.157" y1="216.354" x2="248.15" y2="216.424"/>
				</g>
			</g>
		</g>
		<g>
			
				<path fill="#A1C453" stroke="#333333" stroke-width="1.4936" stroke-linecap="round" stroke-linejoin="round" stroke-miterlimit="10" d="
				M279.245,224.156c-1.991,1.795-1.991,3.816-7.618,3.648c-5.629-0.171-2.987-3.968-6.69-4.078c3.703,0.11,1.505-3.945,6.926-3.783
				S277.214,222.414,279.245,224.156z"/>
			<g>
				<line fill="none" x1="264.961" y1="223.564" x2="276.05" y2="223.896"/>
				<g>
					<polyline fill="none" stroke="#333333" stroke-width="0.9957" stroke-linecap="round" stroke-miterlimit="10" points="
						265.459,223.579 266.104,223.6 273.429,223.818 273.989,223.835 					"/>
					
						<line fill="none" stroke="#333333" stroke-width="0.9957" stroke-linecap="round" stroke-miterlimit="10" x1="275.552" y1="223.882" x2="275.482" y2="223.88"/>
				</g>
			</g>
		</g>
		<g>
			
				<path fill="#A1C453" stroke="#333333" stroke-width="1.4936" stroke-linecap="round" stroke-linejoin="round" stroke-miterlimit="10" d="
				M273.206,191.593c0.095,3.021,1.838,4.494-2.407,9.224c-4.246,4.727-5.595-0.316-8.388,2.795
				c2.793-3.111-2.305-4.172,1.783-8.725C268.285,190.332,270.225,192.074,273.206,191.593z"/>
			<g>
				<line fill="none" x1="262.411" y1="203.611" x2="270.775" y2="194.297"/>
				<g>
					<polyline fill="none" stroke="#333333" stroke-width="0.9957" stroke-linecap="round" stroke-miterlimit="10" points="
						262.744,203.241 263.175,202.761 269.023,196.248 269.398,195.831 					"/>
					
						<line fill="none" stroke="#333333" stroke-width="0.9957" stroke-linecap="round" stroke-miterlimit="10" x1="270.442" y1="194.667" x2="270.396" y2="194.72"/>
				</g>
			</g>
		</g>
		<g>
			
				<path fill="#A1C453" stroke="#333333" stroke-width="1.4936" stroke-linecap="round" stroke-linejoin="round" stroke-miterlimit="10" d="
				M261.154,187.688c2.205,2.071,4.479,1.879,4.819,8.223c0.342,6.346-4.177,3.734-3.952,7.91c-0.225-4.176-4.58-1.322-4.908-7.432
				C256.786,190.277,259.386,190.137,261.154,187.688z"/>
			<g>
				<line fill="none" x1="262.021" y1="203.82" x2="261.349" y2="191.318"/>
				<g>
					<polyline fill="none" stroke="#333333" stroke-width="0.9957" stroke-linecap="round" stroke-miterlimit="10" points="
						261.995,203.323 261.96,202.679 261.489,193.937 261.459,193.377 					"/>
					
						<line fill="none" stroke="#333333" stroke-width="0.9957" stroke-linecap="round" stroke-miterlimit="10" x1="261.375" y1="191.815" x2="261.379" y2="191.886"/>
				</g>
			</g>
		</g>
		<g>
			
				<path fill="#A1C453" stroke="#333333" stroke-width="0.9957" stroke-linecap="round" stroke-linejoin="round" stroke-miterlimit="10" d="
				M287.813,186.287c0.624,1.18,1.602,1.426,0.833,4.125c-0.769,2.698-2.281,0.959-2.785,2.736c0.504-1.777-1.724-1.209-0.983-3.808
				C285.616,186.74,286.723,187.056,287.813,186.287z"/>
			<g>
				<line fill="none" x1="285.86" y1="193.148" x2="287.372" y2="187.83"/>
				<g>
					<polyline fill="none" stroke="#333333" stroke-width="0.9957" stroke-linecap="round" stroke-miterlimit="10" points="
						285.996,192.67 286.173,192.049 286.655,190.353 286.809,189.813 					"/>
					
						<line fill="none" stroke="#333333" stroke-width="0.9957" stroke-linecap="round" stroke-miterlimit="10" x1="287.236" y1="188.309" x2="287.217" y2="188.376"/>
				</g>
			</g>
		</g>
		<g>
			
				<path fill="#A1C453" stroke="#333333" stroke-width="1.4936" stroke-linecap="round" stroke-linejoin="round" stroke-miterlimit="10" d="
				M280.099,181.866c2.293,0.706,3.847-0.222,6.299,4.181c2.453,4.404-1.678,4.115-0.062,7.014
				c-1.616-2.898-3.726,0.653-6.086-3.586C277.887,185.232,279.692,184.227,280.099,181.866z"/>
			<g>
				<line fill="none" x1="286.336" y1="193.061" x2="281.502" y2="184.385"/>
				<g>
					<polyline fill="none" stroke="#333333" stroke-width="0.9957" stroke-linecap="round" stroke-miterlimit="10" points="
						286.094,192.626 285.779,192.063 282.778,186.675 282.506,186.186 					"/>
					
						<line fill="none" stroke="#333333" stroke-width="0.9957" stroke-linecap="round" stroke-miterlimit="10" x1="281.744" y1="184.819" x2="281.778" y2="184.881"/>
				</g>
			</g>
		</g>
		<g>
			
				<path fill="#A1C453" stroke="#333333" stroke-width="0.9957" stroke-linecap="round" stroke-linejoin="round" stroke-miterlimit="10" d="
				M293.352,215.285c-1.722-0.113-2.653,0.795-5.102-1.877c-2.449-2.67,0.486-3.156-1.125-4.914
				c1.611,1.758,2.495-1.078,4.854,1.494C294.338,212.563,293.244,213.566,293.352,215.285z"/>
			<g>
				<line fill="none" x1="287.14" y1="208.402" x2="291.965" y2="213.664"/>
				<g>
					<polyline fill="none" stroke="#333333" stroke-width="0.9957" stroke-linecap="round" stroke-miterlimit="10" points="
						287.477,208.77 287.912,209.245 290.192,211.73 290.571,212.145 					"/>
					
						<line fill="none" stroke="#333333" stroke-width="0.9957" stroke-linecap="round" stroke-miterlimit="10" x1="291.628" y1="213.297" x2="291.581" y2="213.245"/>
				</g>
			</g>
		</g>
		<g>
			
				<path fill="#A1C453" stroke="#333333" stroke-width="1.4936" stroke-linecap="round" stroke-linejoin="round" stroke-miterlimit="10" d="
				M303.373,208.814c-2.273,1.996-2.304,4.276-8.651,4.002c-6.349-0.274-3.311-4.52-7.488-4.699c4.179,0.181,1.76-4.43,7.871-4.165
				C301.22,204.216,301.107,206.818,303.373,208.814z"/>
			<g>
				<line fill="none" x1="287.233" y1="208.117" x2="299.74" y2="208.658"/>
				<g>
					<polyline fill="none" stroke="#333333" stroke-width="0.9957" stroke-linecap="round" stroke-miterlimit="10" points="
						287.73,208.139 288.375,208.167 297.121,208.545 297.681,208.568 					"/>
					
						<line fill="none" stroke="#333333" stroke-width="0.9957" stroke-linecap="round" stroke-miterlimit="10" x1="299.242" y1="208.637" x2="299.173" y2="208.634"/>
				</g>
			</g>
		</g>
		<g>
			
				<path fill="#A1C453" stroke="#333333" stroke-width="1.4936" stroke-linecap="round" stroke-linejoin="round" stroke-miterlimit="10" d="
				M287.443,221.055c-1.72-1.643-3.507-1.506-3.734-6.49c-0.23-4.987,3.304-2.906,3.151-6.188c0.151,3.282,3.591,1.065,3.812,5.867
				C290.893,219.047,288.849,219.141,287.443,221.055z"/>
			<g>
				<line fill="none" x1="286.886" y1="208.212" x2="287.337" y2="218.035"/>
				<g>
					<polyline fill="none" stroke="#333333" stroke-width="0.9957" stroke-linecap="round" stroke-miterlimit="10" points="
						286.908,208.709 286.938,209.354 287.217,215.416 287.242,215.977 					"/>
					
						<line fill="none" stroke="#333333" stroke-width="0.9957" stroke-linecap="round" stroke-miterlimit="10" x1="287.314" y1="217.538" x2="287.311" y2="217.469"/>
				</g>
			</g>
		</g>
		<path fill="#CC924C" stroke="#333333" stroke-width="2.6551" stroke-linecap="round" stroke-miterlimit="10" d="M233.564,242.309
			l66.006-48.88c0.84-0.613,1.021-1.791,0.408-2.631l0,0c-0.614-0.84-1.791-1.021-2.631-0.408l-66.594,48.075"/>
		<g>
			<g>
				<path fill="#D3F46C" d="M286.058,198.293c-1.601,1.5-5.088,1.383-5.614-0.179c-1.708-0.667-1.421-4.114,0.18-5.614
					s3.917-2.199,5.344,0.617C288.566,194.632,287.656,196.793,286.058,198.293z"/>
				<g>
					<path fill="none" stroke="#333333" stroke-width="0.9957" stroke-linecap="round" stroke-miterlimit="10" d="M285.666,198.6
						c-0.18,0.12-0.365,0.227-0.563,0.313c-0.869,0.392-1.853,0.521-2.795,0.387c-0.469-0.07-0.939-0.21-1.327-0.492
						c-0.187-0.146-0.363-0.316-0.462-0.535l-0.079-0.159l-0.158-0.084c-0.109-0.047-0.201-0.123-0.29-0.204
						c-0.713-0.677-0.771-1.754-0.651-2.672c0.153-0.934,0.515-1.868,1.188-2.552c0.675-0.66,1.504-1.226,2.453-1.379
						c0.472-0.074,0.965-0.02,1.397,0.186c0.435,0.203,0.791,0.537,1.085,0.909c0.372,0.932,1.431,1.212,1.871,2.104
						c0.231,0.417,0.31,0.913,0.234,1.383c-0.022,0.113-0.036,0.243-0.073,0.343l-0.057,0.176c-0.033,0.118-0.094,0.227-0.14,0.34"
						/>
					
						<line fill="none" stroke="#333333" stroke-width="0.9957" stroke-linecap="round" stroke-miterlimit="10" x1="286.407" y1="197.938" x2="286.454" y2="197.887"/>
				</g>
			</g>
			
				<ellipse transform="matrix(0.99 -0.1412 0.1412 0.99 -24.3757 41.8474)" opacity="0.5" fill="#FFFFFF" enable-background="new    " cx="282.786" cy="192.743" rx="0.908" ry="0.748"/>
		</g>
		<g>
			<g>
				<path fill="#D3F46C" d="M263.944,232.066c-3.295,1.156-8.297-1.26-8.058-3.873c-2.057-2.07,0.579-6.901,3.874-8.057
					c3.295-1.156,7.117-0.684,7.383,4.336C269.955,228.352,267.24,230.912,263.944,232.066z"/>
				<g>
					<path fill="none" stroke="#333333" stroke-width="1.4936" stroke-linecap="round" stroke-miterlimit="10" d="M263.223,232.256
						c-0.319,0.049-0.638,0.102-0.962,0.098c-1.533,0.039-3.065-0.408-4.373-1.199c-0.646-0.402-1.255-0.909-1.646-1.571
						c-0.182-0.336-0.336-0.698-0.345-1.083l-0.009-0.288c-0.038-0.082-0.113-0.151-0.168-0.229
						c-0.132-0.143-0.224-0.31-0.299-0.486c-0.322-0.701-0.301-1.512-0.126-2.249c0.179-0.746,0.505-1.45,0.91-2.099
						c0.832-1.274,1.985-2.398,3.424-2.955c1.427-0.52,3.02-0.791,4.506-0.362c0.734,0.217,1.407,0.647,1.89,1.245
						c0.495,0.591,0.773,1.33,0.937,2.074c0.098,0.373,0.127,0.754,0.165,1.137c-0.021,0.204,0.137,0.347,0.229,0.511
						c0.102,0.164,0.222,0.315,0.304,0.488c0.377,0.666,0.626,1.414,0.646,2.181c0.022,0.768-0.237,1.528-0.688,2.146
						c-0.096,0.162-0.248,0.307-0.354,0.437c-0.062,0.068-0.119,0.142-0.189,0.199c-0.14,0.122-0.27,0.254-0.413,0.368"/>
					
						<line fill="none" stroke="#333333" stroke-width="1.4936" stroke-linecap="round" stroke-miterlimit="10" x1="264.64" y1="231.796" x2="264.735" y2="231.753"/>
				</g>
			</g>
			
				<ellipse transform="matrix(0.9621 0.2727 -0.2727 0.9621 70.4448 -63.2343)" opacity="0.5" fill="#FFFFFF" enable-background="new    " cx="262.736" cy="221.84" rx="1.447" ry="1.19"/>
		</g>
		<g>
			
				<path fill="#A1C453" stroke="#333333" stroke-width="0.9957" stroke-linecap="round" stroke-linejoin="round" stroke-miterlimit="10" d="
				M299.241,189.535c0,0,2.848-0.701,3.444-0.691c0.479,0.006-1.618,2.34-2.521,3.041L299.241,189.535z"/>
			
				<path fill="#A1C453" stroke="#333333" stroke-width="0.9957" stroke-linecap="round" stroke-linejoin="round" stroke-miterlimit="10" d="
				M300.799,191.264l-4.487-0.449c0,0,3.188-3.159,5.064-3.168C301.376,187.646,300.806,189.748,300.799,191.264z"/>
			
				<path fill="#A1C453" stroke="#333333" stroke-width="0.9957" stroke-linecap="round" stroke-linejoin="round" stroke-miterlimit="10" d="
				M296.824,194.895c0,0,5.433-1.237,6.733-4.264l-4.314-0.216L296.824,194.895z"/>
		</g>
	</g>
</g>
<g id="calque08">
	<g>
		
			<polygon fill="#CC924C" stroke="#333333" stroke-width="0.9957" stroke-linecap="round" stroke-linejoin="round" stroke-miterlimit="10" points="
			264.937,223.727 256.335,225.041 258.603,223.383 		"/>
		
			<polygon fill="#CC924C" stroke="#333333" stroke-width="0.9957" stroke-linecap="round" stroke-linejoin="round" stroke-miterlimit="10" points="
			287.233,208.117 280.046,207.704 282.314,206.046 		"/>
		
			<polygon fill="#CC924C" stroke="#333333" stroke-width="0.9957" stroke-linecap="round" stroke-linejoin="round" stroke-miterlimit="10" points="
			262.263,203.461 258.672,218.668 260.939,217.01 		"/>
		
			<polygon fill="#CC924C" stroke="#333333" stroke-width="0.9957" stroke-linecap="round" stroke-linejoin="round" stroke-miterlimit="10" points="
			286.52,192.264 284.325,199.91 285.789,198.84 		"/>
		<g>
			
				<path fill="#A1C453" stroke="#333333" stroke-width="1.4936" stroke-linecap="round" stroke-linejoin="round" stroke-miterlimit="10" d="
				M248.467,212.813c1.67,2.097,3.688,2.217,3.183,7.824c-0.507,5.607-4.137,2.744-4.47,6.434c0.333-3.688-3.85-1.739-3.361-7.141
				C244.306,214.529,246.604,214.734,248.467,212.813z"/>
			<g>
				<line fill="none" x1="247.18" y1="227.07" x2="248.202" y2="215.857"/>
				<g>
					<polyline fill="none" stroke="#333333" stroke-width="0.9957" stroke-linecap="round" stroke-miterlimit="10" points="
						247.225,226.574 247.283,225.932 247.964,218.471 248.015,217.911 					"/>
					
						<line fill="none" stroke="#333333" stroke-width="0.9957" stroke-linecap="round" stroke-miterlimit="10" x1="248.157" y1="216.354" x2="248.15" y2="216.424"/>
				</g>
			</g>
		</g>
		<g>
			
				<path fill="#A1C453" stroke="#333333" stroke-width="1.4936" stroke-linecap="round" stroke-linejoin="round" stroke-miterlimit="10" d="
				M279.245,224.156c-1.991,1.795-1.991,3.816-7.618,3.648c-5.629-0.171-2.987-3.968-6.69-4.078c3.703,0.11,1.506-3.945,6.926-3.783
				C277.283,220.105,277.214,222.414,279.245,224.156z"/>
			<g>
				<line fill="none" x1="264.961" y1="223.564" x2="276.05" y2="223.896"/>
				<g>
					<polyline fill="none" stroke="#333333" stroke-width="0.9957" stroke-linecap="round" stroke-miterlimit="10" points="
						265.459,223.579 266.104,223.6 273.429,223.818 273.989,223.835 					"/>
					
						<line fill="none" stroke="#333333" stroke-width="0.9957" stroke-linecap="round" stroke-miterlimit="10" x1="275.552" y1="223.882" x2="275.482" y2="223.88"/>
				</g>
			</g>
		</g>
		<g>
			
				<path fill="#A1C453" stroke="#333333" stroke-width="1.4936" stroke-linecap="round" stroke-linejoin="round" stroke-miterlimit="10" d="
				M273.206,191.593c0.095,3.021,1.838,4.494-2.407,9.224c-4.246,4.727-5.594-0.315-8.388,2.795c2.794-3.11-2.305-4.172,1.784-8.725
				C268.285,190.332,270.225,192.074,273.206,191.593z"/>
			<g>
				<line fill="none" x1="262.411" y1="203.611" x2="270.775" y2="194.297"/>
				<g>
					<polyline fill="none" stroke="#333333" stroke-width="0.9957" stroke-linecap="round" stroke-miterlimit="10" points="
						262.744,203.241 263.175,202.761 269.023,196.248 269.398,195.831 					"/>
					
						<line fill="none" stroke="#333333" stroke-width="0.9957" stroke-linecap="round" stroke-miterlimit="10" x1="270.442" y1="194.667" x2="270.396" y2="194.72"/>
				</g>
			</g>
		</g>
		<g>
			
				<path fill="#A1C453" stroke="#333333" stroke-width="1.4936" stroke-linecap="round" stroke-linejoin="round" stroke-miterlimit="10" d="
				M261.155,187.688c2.204,2.07,4.479,1.878,4.819,8.224c0.341,6.344-4.178,3.732-3.953,7.908c-0.225-4.176-4.58-1.322-4.908-7.432
				C256.786,190.277,259.386,190.137,261.155,187.688z"/>
			<g>
				<line fill="none" x1="262.021" y1="203.82" x2="261.35" y2="191.319"/>
				<g>
					<polyline fill="none" stroke="#333333" stroke-width="0.9957" stroke-linecap="round" stroke-miterlimit="10" points="
						261.995,203.323 261.96,202.679 261.49,193.938 261.46,193.378 					"/>
					
						<line fill="none" stroke="#333333" stroke-width="0.9957" stroke-linecap="round" stroke-miterlimit="10" x1="261.376" y1="191.816" x2="261.38" y2="191.887"/>
				</g>
			</g>
		</g>
		<g>
			
				<path fill="#A1C453" stroke="#333333" stroke-width="1.4936" stroke-linecap="round" stroke-linejoin="round" stroke-miterlimit="10" d="
				M290.047,180.45c1.12,2.122,2.876,2.563,1.497,7.412c-1.38,4.847-4.098,1.723-5.004,4.914c0.906-3.191-3.097-2.171-1.768-6.84
				C286.102,181.266,288.09,181.832,290.047,180.45z"/>
			<g>
				<line fill="none" x1="286.54" y1="192.776" x2="289.258" y2="183.227"/>
				<g>
					<polyline fill="none" stroke="#333333" stroke-width="0.9957" stroke-linecap="round" stroke-miterlimit="10" points="
						286.676,192.298 286.853,191.677 288.54,185.748 288.693,185.209 					"/>
					
						<line fill="none" stroke="#333333" stroke-width="0.9957" stroke-linecap="round" stroke-miterlimit="10" x1="289.121" y1="183.705" x2="289.103" y2="183.772"/>
				</g>
			</g>
		</g>
		<g>
			
				<path fill="#A1C453" stroke="#333333" stroke-width="1.4936" stroke-linecap="round" stroke-linejoin="round" stroke-miterlimit="10" d="
				M280.099,181.866c2.293,0.706,3.847-0.222,6.299,4.181c2.453,4.404-1.678,4.115-0.062,7.014
				c-1.616-2.898-3.726,0.653-6.086-3.586C277.887,185.232,279.692,184.227,280.099,181.866z"/>
			<g>
				<line fill="none" x1="286.336" y1="193.061" x2="281.502" y2="184.385"/>
				<g>
					<polyline fill="none" stroke="#333333" stroke-width="0.9957" stroke-linecap="round" stroke-miterlimit="10" points="
						286.094,192.626 285.779,192.063 282.778,186.675 282.506,186.186 					"/>
					
						<line fill="none" stroke="#333333" stroke-width="0.9957" stroke-linecap="round" stroke-miterlimit="10" x1="281.744" y1="184.819" x2="281.778" y2="184.881"/>
				</g>
			</g>
		</g>
		<g>
			
				<path fill="#A1C453" stroke="#333333" stroke-width="1.4936" stroke-linecap="round" stroke-linejoin="round" stroke-miterlimit="10" d="
				M298.322,220.434c-3.02-0.199-4.651,1.394-8.946-3.289c-4.296-4.684,0.854-5.535-1.974-8.617
				c2.827,3.082,4.376-1.891,8.513,2.619S298.131,217.418,298.322,220.434z"/>
			<g>
				<line fill="none" x1="287.428" y1="208.363" x2="295.891" y2="217.59"/>
				<g>
					<polyline fill="none" stroke="#333333" stroke-width="0.9957" stroke-linecap="round" stroke-miterlimit="10" points="
						287.765,208.73 288.2,209.205 294.118,215.656 294.497,216.07 					"/>
					
						<line fill="none" stroke="#333333" stroke-width="0.9957" stroke-linecap="round" stroke-miterlimit="10" x1="295.554" y1="217.223" x2="295.507" y2="217.172"/>
				</g>
			</g>
		</g>
		<g>
			
				<path fill="#A1C453" stroke="#333333" stroke-width="1.4936" stroke-linecap="round" stroke-linejoin="round" stroke-miterlimit="10" d="
				M303.373,208.814c-2.273,1.996-2.304,4.276-8.651,4.002c-6.347-0.273-3.311-4.52-7.488-4.699c4.179,0.181,1.76-4.43,7.871-4.165
				C301.22,204.216,301.107,206.818,303.373,208.814z"/>
			<g>
				<line fill="none" x1="287.233" y1="208.117" x2="299.74" y2="208.658"/>
				<g>
					<polyline fill="none" stroke="#333333" stroke-width="0.9957" stroke-linecap="round" stroke-miterlimit="10" points="
						287.73,208.139 288.375,208.167 297.121,208.545 297.681,208.568 					"/>
					
						<line fill="none" stroke="#333333" stroke-width="0.9957" stroke-linecap="round" stroke-miterlimit="10" x1="299.242" y1="208.637" x2="299.173" y2="208.634"/>
				</g>
			</g>
		</g>
		<g>
			
				<path fill="#A1C453" stroke="#333333" stroke-width="1.4936" stroke-linecap="round" stroke-linejoin="round" stroke-miterlimit="10" d="
				M287.443,221.055c-1.72-1.643-3.507-1.506-3.734-6.49c-0.23-4.987,3.304-2.906,3.151-6.188c0.151,3.282,3.591,1.065,3.812,5.867
				C290.893,219.047,288.849,219.141,287.443,221.055z"/>
			<g>
				<line fill="none" x1="286.886" y1="208.212" x2="287.338" y2="218.037"/>
				<g>
					<polyline fill="none" stroke="#333333" stroke-width="0.9957" stroke-linecap="round" stroke-miterlimit="10" points="
						286.908,208.709 286.938,209.354 287.218,215.418 287.243,215.979 					"/>
					
						<line fill="none" stroke="#333333" stroke-width="0.9957" stroke-linecap="round" stroke-miterlimit="10" x1="287.315" y1="217.54" x2="287.312" y2="217.471"/>
				</g>
			</g>
		</g>
		<path fill="#CC924C" stroke="#333333" stroke-width="2.6551" stroke-linecap="round" stroke-miterlimit="10" d="M233.564,242.309
			l66.006-48.88c0.84-0.613,1.021-1.791,0.408-2.631l0,0c-0.614-0.84-1.791-1.021-2.631-0.408l-66.594,48.075"/>
		<g>
			<g>
				<path fill="#D3F46C" d="M285.635,201.309c-2.547,2.389-8.1,2.199-8.938-0.287c-2.719-1.061-2.263-6.547,0.286-8.935
					c2.546-2.39,6.232-3.503,8.504,0.979C289.63,195.479,288.181,198.918,285.635,201.309z"/>
				<g>
					<path fill="none" stroke="#333333" stroke-width="1.4936" stroke-linecap="round" stroke-miterlimit="10" d="M285.051,201.772
						c-0.272,0.173-0.543,0.35-0.841,0.478c-1.386,0.656-2.969,0.865-4.484,0.67c-0.755-0.106-1.516-0.324-2.143-0.771
						c-0.302-0.233-0.589-0.503-0.753-0.852l-0.124-0.259c-0.068-0.061-0.165-0.094-0.246-0.142c-0.18-0.077-0.33-0.192-0.471-0.325
						c-0.578-0.511-0.887-1.26-1.024-2.007c-0.139-0.754-0.125-1.529-0.018-2.287c0.246-1.501,0.848-2.997,1.938-4.086
						c1.095-1.051,2.441-1.945,3.974-2.153c0.76-0.1,1.55,0.023,2.231,0.374c0.691,0.341,1.246,0.905,1.695,1.52
						c0.238,0.302,0.421,0.64,0.608,0.974c0.065,0.194,0.268,0.261,0.418,0.373c0.157,0.109,0.328,0.199,0.475,0.324
						c0.613,0.457,1.145,1.041,1.473,1.733c0.33,0.693,0.4,1.494,0.239,2.242c-0.021,0.186-0.104,0.381-0.148,0.542
						c-0.027,0.088-0.053,0.177-0.094,0.26c-0.076,0.167-0.144,0.341-0.229,0.504"/>
					
						<line fill="none" stroke="#333333" stroke-width="1.4936" stroke-linecap="round" stroke-miterlimit="10" x1="286.161" y1="200.778" x2="286.23" y2="200.7"/>
				</g>
			</g>
			
				<ellipse transform="matrix(0.9902 -0.1398 0.1398 0.9902 -24.1592 41.1007)" opacity="0.5" fill="#FFFFFF" enable-background="new    " cx="280.391" cy="192.466" rx="1.447" ry="1.19"/>
		</g>
		<g>
			<g>
				<path fill="#EF4529" d="M263.944,232.068c-3.295,1.154-8.297-1.262-8.058-3.875c-2.057-2.07,0.579-6.901,3.874-8.057
					c3.295-1.156,7.117-0.684,7.383,4.336C269.955,228.352,267.24,230.912,263.944,232.068z"/>
				<g>
					<path fill="none" stroke="#333333" stroke-width="1.4936" stroke-linecap="round" stroke-miterlimit="10" d="M263.223,232.256
						c-0.319,0.049-0.639,0.102-0.962,0.098c-1.533,0.041-3.065-0.408-4.373-1.199c-0.646-0.402-1.255-0.909-1.646-1.571
						c-0.182-0.336-0.336-0.698-0.345-1.084l-0.01-0.287c-0.038-0.082-0.112-0.151-0.167-0.229c-0.132-0.143-0.224-0.31-0.299-0.486
						c-0.322-0.701-0.301-1.512-0.126-2.25c0.179-0.745,0.505-1.449,0.91-2.1c0.832-1.272,1.985-2.397,3.425-2.953
						c1.426-0.52,3.019-0.791,4.505-0.362c0.734,0.217,1.407,0.647,1.89,1.245c0.495,0.592,0.774,1.33,0.938,2.074
						c0.097,0.373,0.126,0.756,0.164,1.137c-0.021,0.204,0.137,0.347,0.229,0.512c0.101,0.163,0.221,0.314,0.304,0.487
						c0.376,0.666,0.625,1.415,0.646,2.181c0.021,0.768-0.238,1.528-0.688,2.146c-0.096,0.162-0.248,0.308-0.354,0.437
						c-0.062,0.069-0.12,0.142-0.191,0.2c-0.138,0.122-0.268,0.254-0.411,0.368"/>
					
						<line fill="none" stroke="#333333" stroke-width="1.4936" stroke-linecap="round" stroke-miterlimit="10" x1="264.64" y1="231.797" x2="264.735" y2="231.753"/>
				</g>
			</g>
			
				<ellipse transform="matrix(0.9621 0.2727 -0.2727 0.9621 70.4448 -63.2343)" opacity="0.5" fill="#FFFFFF" enable-background="new    " cx="262.736" cy="221.84" rx="1.447" ry="1.19"/>
		</g>
		<g>
			
				<path fill="#A1C453" stroke="#333333" stroke-width="0.9957" stroke-linecap="round" stroke-linejoin="round" stroke-miterlimit="10" d="
				M299.241,189.535c0,0,2.848-0.701,3.444-0.691c0.479,0.008-1.618,2.34-2.521,3.041L299.241,189.535z"/>
			
				<path fill="#A1C453" stroke="#333333" stroke-width="0.9957" stroke-linecap="round" stroke-linejoin="round" stroke-miterlimit="10" d="
				M300.799,191.264l-4.487-0.449c0,0,3.188-3.158,5.064-3.168C301.376,187.646,300.806,189.748,300.799,191.264z"/>
			
				<path fill="#A1C453" stroke="#333333" stroke-width="0.9957" stroke-linecap="round" stroke-linejoin="round" stroke-miterlimit="10" d="
				M296.824,194.895c0,0,5.433-1.237,6.733-4.264l-4.314-0.216L296.824,194.895z"/>
		</g>
	</g>
</g>
<g id="calque09">
	<g>
		
			<polygon fill="#CC924C" stroke="#333333" stroke-width="0.9957" stroke-linecap="round" stroke-linejoin="round" stroke-miterlimit="10" points="
			264.938,223.729 256.335,225.043 258.604,223.385 		"/>
		
			<polygon fill="#CC924C" stroke="#333333" stroke-width="0.9957" stroke-linecap="round" stroke-linejoin="round" stroke-miterlimit="10" points="
			287.234,208.119 280.047,207.705 282.315,206.047 		"/>
		
			<polygon fill="#CC924C" stroke="#333333" stroke-width="0.9957" stroke-linecap="round" stroke-linejoin="round" stroke-miterlimit="10" points="
			262.264,203.463 258.673,218.67 260.94,217.012 		"/>
		
			<polygon fill="#CC924C" stroke="#333333" stroke-width="0.9957" stroke-linecap="round" stroke-linejoin="round" stroke-miterlimit="10" points="
			286.521,192.266 284.326,199.912 285.79,198.842 		"/>
		<g>
			
				<path fill="#A1C453" stroke="#333333" stroke-width="1.4936" stroke-linecap="round" stroke-linejoin="round" stroke-miterlimit="10" d="
				M248.468,212.814c1.67,2.096,3.688,2.215,3.183,7.824c-0.506,5.606-4.137,2.743-4.47,6.434c0.333-3.689-3.849-1.74-3.361-7.143
				C244.307,214.529,246.606,214.738,248.468,212.814z"/>
			<g>
				<line fill="none" x1="247.181" y1="227.072" x2="248.203" y2="215.859"/>
				<g>
					<polyline fill="none" stroke="#333333" stroke-width="0.9957" stroke-linecap="round" stroke-miterlimit="10" points="
						247.226,226.576 247.284,225.934 247.965,218.473 248.016,217.913 					"/>
					
						<line fill="none" stroke="#333333" stroke-width="0.9957" stroke-linecap="round" stroke-miterlimit="10" x1="248.158" y1="216.355" x2="248.151" y2="216.426"/>
				</g>
			</g>
		</g>
		<g>
			
				<path fill="#A1C453" stroke="#333333" stroke-width="1.4936" stroke-linecap="round" stroke-linejoin="round" stroke-miterlimit="10" d="
				M279.246,224.16c-1.992,1.791-1.991,3.814-7.618,3.646c-5.628-0.17-2.987-3.967-6.69-4.078c3.703,0.111,1.505-3.945,6.927-3.781
				C277.283,220.107,277.215,222.416,279.246,224.16z"/>
			<g>
				<line fill="none" x1="264.963" y1="223.566" x2="276.051" y2="223.898"/>
				<g>
					<polyline fill="none" stroke="#333333" stroke-width="0.9957" stroke-linecap="round" stroke-miterlimit="10" points="
						265.461,223.581 266.105,223.602 273.43,223.82 273.99,223.837 					"/>
					
						<line fill="none" stroke="#333333" stroke-width="0.9957" stroke-linecap="round" stroke-miterlimit="10" x1="275.553" y1="223.884" x2="275.483" y2="223.882"/>
				</g>
			</g>
		</g>
		<g>
			
				<path fill="#A1C453" stroke="#333333" stroke-width="1.4936" stroke-linecap="round" stroke-linejoin="round" stroke-miterlimit="10" d="
				M273.207,191.594c0.095,3.023,1.838,4.495-2.408,9.223c-4.245,4.729-5.593-0.314-8.386,2.798
				c2.793-3.112-2.306-4.173,1.783-8.726C268.286,190.335,270.224,192.074,273.207,191.594z"/>
			<g>
				<line fill="none" x1="262.413" y1="203.614" x2="270.776" y2="194.298"/>
				<g>
					<polyline fill="none" stroke="#333333" stroke-width="0.9957" stroke-linecap="round" stroke-miterlimit="10" points="
						262.746,203.244 263.177,202.764 269.025,196.249 269.399,195.832 					"/>
					
						<line fill="none" stroke="#333333" stroke-width="0.9957" stroke-linecap="round" stroke-miterlimit="10" x1="270.443" y1="194.668" x2="270.396" y2="194.721"/>
				</g>
			</g>
		</g>
		<g>
			
				<path fill="#A1C453" stroke="#333333" stroke-width="1.4936" stroke-linecap="round" stroke-linejoin="round" stroke-miterlimit="10" d="
				M261.155,187.689c2.206,2.072,4.479,1.879,4.82,8.225c0.34,6.344-4.178,3.732-3.952,7.908c-0.226-4.176-4.581-1.322-4.909-7.432
				C256.786,190.279,259.387,190.139,261.155,187.689z"/>
			<g>
				<line fill="none" x1="262.023" y1="203.822" x2="261.351" y2="191.32"/>
				<g>
					<polyline fill="none" stroke="#333333" stroke-width="0.9957" stroke-linecap="round" stroke-miterlimit="10" points="
						261.997,203.325 261.962,202.681 261.491,193.938 261.461,193.379 					"/>
					
						<line fill="none" stroke="#333333" stroke-width="0.9957" stroke-linecap="round" stroke-miterlimit="10" x1="261.377" y1="191.817" x2="261.381" y2="191.888"/>
				</g>
			</g>
		</g>
		<g>
			
				<path fill="#A1C453" stroke="#333333" stroke-width="1.4936" stroke-linecap="round" stroke-linejoin="round" stroke-miterlimit="10" d="
				M290.048,180.453c1.121,2.121,2.876,2.563,1.497,7.411c-1.38,4.847-4.098,1.724-5.004,4.914c0.907-3.19-3.096-2.171-1.768-6.841
				C286.103,181.269,288.091,181.834,290.048,180.453z"/>
			<g>
				<line fill="none" x1="286.541" y1="192.778" x2="289.258" y2="183.227"/>
				<g>
					<polyline fill="none" stroke="#333333" stroke-width="0.9957" stroke-linecap="round" stroke-miterlimit="10" points="
						286.678,192.3 286.854,191.679 288.541,185.748 288.693,185.209 					"/>
					
						<line fill="none" stroke="#333333" stroke-width="0.9957" stroke-linecap="round" stroke-miterlimit="10" x1="289.121" y1="183.705" x2="289.103" y2="183.772"/>
				</g>
			</g>
		</g>
		<g>
			
				<path fill="#A1C453" stroke="#333333" stroke-width="1.4936" stroke-linecap="round" stroke-linejoin="round" stroke-miterlimit="10" d="
				M280.1,181.867c2.293,0.707,3.847-0.221,6.299,4.182c2.453,4.404-1.677,4.116-0.063,7.014c-1.614-2.897-3.725,0.652-6.086-3.586
				C277.888,185.234,279.693,184.229,280.1,181.867z"/>
			<g>
				<line fill="none" x1="286.336" y1="193.063" x2="281.504" y2="184.389"/>
				<g>
					<polyline fill="none" stroke="#333333" stroke-width="0.9957" stroke-linecap="round" stroke-miterlimit="10" points="
						286.094,192.628 285.779,192.064 282.78,186.68 282.507,186.189 					"/>
					
						<line fill="none" stroke="#333333" stroke-width="0.9957" stroke-linecap="round" stroke-miterlimit="10" x1="281.746" y1="184.823" x2="281.78" y2="184.885"/>
				</g>
			</g>
		</g>
		<g>
			
				<path fill="#A1C453" stroke="#333333" stroke-width="1.4936" stroke-linecap="round" stroke-linejoin="round" stroke-miterlimit="10" d="
				M298.322,220.434c-3.019-0.197-4.651,1.396-8.945-3.287c-4.295-4.684,0.854-5.537-1.974-8.617
				c2.827,3.08,4.376-1.891,8.513,2.619C300.053,215.66,298.132,217.42,298.322,220.434z"/>
			<g>
				<line fill="none" x1="287.429" y1="208.365" x2="295.891" y2="217.592"/>
				<g>
					<polyline fill="none" stroke="#333333" stroke-width="0.9957" stroke-linecap="round" stroke-miterlimit="10" points="
						287.766,208.732 288.201,209.207 294.118,215.659 294.497,216.072 					"/>
					
						<line fill="none" stroke="#333333" stroke-width="0.9957" stroke-linecap="round" stroke-miterlimit="10" x1="295.554" y1="217.225" x2="295.507" y2="217.174"/>
				</g>
			</g>
		</g>
		<g>
			
				<path fill="#A1C453" stroke="#333333" stroke-width="1.4936" stroke-linecap="round" stroke-linejoin="round" stroke-miterlimit="10" d="
				M303.373,208.818c-2.273,1.994-2.303,4.274-8.65,4c-6.349-0.274-3.311-4.52-7.488-4.699c4.179,0.181,1.76-4.43,7.872-4.164
				C301.221,204.218,301.108,206.82,303.373,208.818z"/>
			<g>
				<line fill="none" x1="287.234" y1="208.119" x2="299.74" y2="208.66"/>
				<g>
					<polyline fill="none" stroke="#333333" stroke-width="0.9957" stroke-linecap="round" stroke-miterlimit="10" points="
						287.731,208.141 288.376,208.169 297.122,208.547 297.682,208.57 					"/>
					
						<line fill="none" stroke="#333333" stroke-width="0.9957" stroke-linecap="round" stroke-miterlimit="10" x1="299.243" y1="208.639" x2="299.174" y2="208.637"/>
				</g>
			</g>
		</g>
		<g>
			
				<path fill="#A1C453" stroke="#333333" stroke-width="1.4936" stroke-linecap="round" stroke-linejoin="round" stroke-miterlimit="10" d="
				M287.445,221.055c-1.721-1.639-3.508-1.502-3.735-6.488c-0.229-4.986,3.305-2.907,3.151-6.188
				c0.152,3.281,3.592,1.065,3.812,5.867C290.894,219.048,288.85,219.143,287.445,221.055z"/>
			<g>
				<line fill="none" x1="286.887" y1="208.214" x2="287.339" y2="218.038"/>
				<g>
					<polyline fill="none" stroke="#333333" stroke-width="0.9957" stroke-linecap="round" stroke-miterlimit="10" points="
						286.91,208.711 286.939,209.355 287.219,215.419 287.244,215.979 					"/>
					
						<line fill="none" stroke="#333333" stroke-width="0.9957" stroke-linecap="round" stroke-miterlimit="10" x1="287.316" y1="217.541" x2="287.313" y2="217.471"/>
				</g>
			</g>
		</g>
		<path fill="#CC924C" stroke="#333333" stroke-width="2.6551" stroke-linecap="round" stroke-miterlimit="10" d="M233.565,242.309
			l66.006-48.878c0.839-0.613,1.021-1.792,0.407-2.631l0,0c-0.613-0.84-1.791-1.021-2.63-0.408l-66.594,48.074"/>
		<g>
			<g>
				<path fill="#EF4529" d="M285.636,201.309c-2.547,2.391-8.1,2.201-8.938-0.283c-2.719-1.063-2.262-6.549,0.284-8.938
					c2.548-2.389,6.234-3.502,8.506,0.98C289.631,195.481,288.182,198.921,285.636,201.309z"/>
				<g>
					<path fill="none" stroke="#333333" stroke-width="1.4936" stroke-linecap="round" stroke-miterlimit="10" d="M285.052,201.772
						c-0.272,0.174-0.543,0.351-0.84,0.478c-1.387,0.658-2.969,0.867-4.485,0.672c-0.754-0.105-1.515-0.323-2.143-0.77
						c-0.301-0.234-0.589-0.504-0.753-0.852l-0.124-0.26c-0.069-0.06-0.165-0.094-0.246-0.142c-0.179-0.076-0.33-0.192-0.471-0.325
						c-0.577-0.511-0.887-1.26-1.024-2.007c-0.139-0.754-0.125-1.529-0.017-2.287c0.245-1.502,0.846-2.997,1.936-4.088
						c1.096-1.05,2.442-1.943,3.975-2.153c0.761-0.099,1.55,0.023,2.232,0.375c0.692,0.34,1.246,0.904,1.695,1.519
						c0.238,0.301,0.421,0.64,0.608,0.973c0.065,0.194,0.267,0.262,0.417,0.374c0.157,0.109,0.329,0.199,0.476,0.324
						c0.612,0.457,1.144,1.041,1.473,1.733c0.33,0.692,0.401,1.493,0.24,2.241c-0.021,0.187-0.104,0.381-0.147,0.542
						c-0.027,0.088-0.053,0.178-0.094,0.261c-0.077,0.167-0.143,0.34-0.229,0.503"/>
					
						<line fill="none" stroke="#333333" stroke-width="1.4936" stroke-linecap="round" stroke-miterlimit="10" x1="286.162" y1="200.779" x2="286.232" y2="200.701"/>
				</g>
			</g>
			
				<ellipse transform="matrix(0.9902 -0.1397 0.1397 0.9902 -24.1462 41.0746)" opacity="0.5" fill="#FFFFFF" enable-background="new    " cx="280.409" cy="192.476" rx="1.448" ry="1.19"/>
		</g>
		<g>
			<g>
				<path fill="#EF4529" d="M263.946,232.07c-3.295,1.154-8.299-1.264-8.059-3.875c-2.058-2.07,0.579-6.902,3.874-8.059
					s7.118-0.683,7.382,4.336C269.957,228.355,267.24,230.914,263.946,232.07z"/>
				<g>
					<path fill="none" stroke="#333333" stroke-width="1.4936" stroke-linecap="round" stroke-miterlimit="10" d="M263.225,232.258
						c-0.319,0.049-0.638,0.102-0.962,0.098c-1.533,0.041-3.065-0.408-4.373-1.199c-0.646-0.402-1.255-0.908-1.647-1.571
						c-0.182-0.335-0.335-0.698-0.346-1.083l-0.008-0.287c-0.039-0.083-0.113-0.152-0.168-0.229
						c-0.133-0.143-0.225-0.309-0.299-0.486c-0.322-0.702-0.301-1.512-0.126-2.25c0.178-0.746,0.504-1.45,0.909-2.1
						c0.833-1.273,1.985-2.398,3.425-2.955c1.426-0.518,3.019-0.791,4.505-0.362c0.735,0.216,1.408,0.647,1.891,1.245
						c0.495,0.591,0.773,1.331,0.937,2.074c0.097,0.373,0.126,0.756,0.164,1.137c-0.021,0.205,0.138,0.348,0.229,0.512
						c0.101,0.163,0.222,0.314,0.304,0.487c0.377,0.666,0.626,1.415,0.646,2.181c0.021,0.768-0.237,1.529-0.687,2.147
						c-0.097,0.161-0.249,0.307-0.355,0.437c-0.061,0.068-0.119,0.141-0.19,0.199c-0.138,0.123-0.268,0.254-0.411,0.368"/>
					
						<line fill="none" stroke="#333333" stroke-width="1.4936" stroke-linecap="round" stroke-miterlimit="10" x1="264.642" y1="231.799" x2="264.737" y2="231.755"/>
				</g>
			</g>
			
				<ellipse transform="matrix(0.962 0.273 -0.273 0.962 70.5505 -63.3053)" opacity="0.5" fill="#FFFFFF" enable-background="new    " cx="262.737" cy="221.842" rx="1.445" ry="1.19"/>
		</g>
		<g>
			
				<path fill="#A1C453" stroke="#333333" stroke-width="0.9957" stroke-linecap="round" stroke-linejoin="round" stroke-miterlimit="10" d="
				M299.242,189.537c0,0,2.848-0.702,3.443-0.691c0.479,0.006-1.617,2.34-2.521,3.039L299.242,189.537z"/>
			
				<path fill="#A1C453" stroke="#333333" stroke-width="0.9957" stroke-linecap="round" stroke-linejoin="round" stroke-miterlimit="10" d="
				M300.8,191.266l-4.487-0.449c0,0,3.188-3.159,5.065-3.166C301.378,187.65,300.807,189.749,300.8,191.266z"/>
			
				<path fill="#A1C453" stroke="#333333" stroke-width="0.9957" stroke-linecap="round" stroke-linejoin="round" stroke-miterlimit="10" d="
				M296.825,194.896c0,0,5.432-1.236,6.732-4.264l-4.313-0.217L296.825,194.896z"/>
		</g>
	</g>
</g>
</svg>
