<?xml version="1.0" encoding="utf-8"?>
<!-- Generator: Adobe Illustrator 16.0.0, SVG Export Plug-In . SVG Version: 6.00 Build 0)  -->
<!DOCTYPE svg PUBLIC "-//W3C//DTD SVG 1.1//EN" "http://www.w3.org/Graphics/SVG/1.1/DTD/svg11.dtd">
<svg version="1.1" id="Calque_1" xmlns="http://www.w3.org/2000/svg" xmlns:xlink="http://www.w3.org/1999/xlink" x="0px" y="0px"
	 width="320px" height="410px" viewBox="0 0 320 410" enable-background="new 0 0 320 410" xml:space="preserve">
<g id="calque00">
	<g>
		<g>
			<g>
				<path fill="#D6E57F" d="M150.635,295.955H44.723c0,0,10.352,21.245,52.956,21.245
					C140.285,317.2,150.635,295.955,150.635,295.955z"/>
			</g>
			<g>
				<g>
					<path fill="#CC924C" d="M114.416,177.91c-4.89,3.85-4.675,8.425-4.675,8.425s0,90.888,0,96.88c0,5.991,3.339,8.801,8.906,8.801
						c3.818,0,4.906,3.939,4.906,3.939H71.591c0,0,1.088-3.939,4.906-3.939c5.567,0,8.906-2.81,8.906-8.801c0-5.992,0-96.88,0-96.88
						s0.215-4.576-4.674-8.425C80.73,177.91,97.679,165.813,114.416,177.91z"/>
				</g>
			</g>
			<g>
				<g>
					<path fill="none" stroke="#333333" stroke-width="2.663" stroke-linecap="round" stroke-miterlimit="10" d="M72.122,294.736
						c0,0,0.066-0.111,0.191-0.32c0.131-0.205,0.336-0.499,0.642-0.838l0.123-0.125c0.056-0.051,0.025-0.041,0.268-0.258
						c0.364-0.334,0.813-0.602,1.299-0.823c1.004-0.448,2.204-0.308,3.432-0.448c1.229-0.139,2.546-0.447,3.752-1.156
						c1.193-0.713,2.237-1.843,2.806-3.27c0.612-1.409,0.785-3.027,0.77-4.671c0-1.647,0-3.353,0-5.104c0-3.502,0-7.197,0-11.02
						c0-7.645,0-15.797,0-23.95c0-16.308,0-32.612,0-44.843c0-3.058,0-5.86,0-8.345c-0.001-1.242-0.002-2.404-0.003-3.479
						c-0.024-0.537-0.118-1.046-0.222-1.527c-0.066-0.237-0.131-0.469-0.195-0.695c-0.033-0.112-0.059-0.226-0.099-0.333
						l-0.053-0.127c-0.175-0.42-0.313-0.75-0.407-0.975c-0.085-0.229-0.176-0.329-0.168-0.333"/>
					
						<line fill="none" stroke="#333333" stroke-width="2.663" stroke-linecap="round" stroke-miterlimit="10" x1="81.712" y1="178.808" x2="81.851" y2="178.935"/>
				</g>
			</g>
			<g>
				<g>
					<path fill="none" stroke="#333333" stroke-width="2.663" stroke-linecap="round" stroke-miterlimit="10" d="M113.433,178.808
						c0,0-0.096,0.088-0.275,0.252c-0.091,0.082-0.201,0.184-0.332,0.303c-0.112,0.137-0.24,0.294-0.385,0.471
						c-0.108,0.135-0.223,0.277-0.344,0.426c-0.154,0.192-0.313,0.388-0.475,0.588c-0.131,0.222-0.266,0.449-0.401,0.68
						c-0.136,0.232-0.275,0.468-0.417,0.709c-0.109,0.257-0.221,0.519-0.334,0.786c-0.252,0.525-0.385,1.115-0.549,1.713
						c-0.285,1.219-0.146,2.555-0.182,3.944c0,1.394,0,2.858,0,4.387c0,12.23,0,28.537,0,44.843s0,32.613,0,44.844
						c-0.011,1.525,0.131,3.005,0.598,4.323c0.465,1.313,1.272,2.423,2.251,3.188c0.977,0.774,2.093,1.199,3.136,1.44
						c0.527,0.104,1.034,0.2,1.526,0.235c0.245,0.029,0.483,0.049,0.72,0.049c0.166,0.007,0.328,0.012,0.485,0.018
						c0.913,0.014,1.418,0.159,1.418,0.159"/>
					
						<line fill="none" stroke="#333333" stroke-width="2.663" stroke-linecap="round" stroke-miterlimit="10" x1="123.022" y1="294.736" x2="122.927" y2="294.575"/>
				</g>
			</g>
			<g>
				<g>
					
						<line fill="none" stroke="#333333" stroke-width="2.663" stroke-linecap="round" stroke-miterlimit="10" x1="149.304" y1="295.955" x2="50.236" y2="295.955"/>
					
						<line fill="none" stroke="#333333" stroke-width="2.663" stroke-linecap="round" stroke-miterlimit="10" x1="46.055" y1="295.955" x2="46.242" y2="295.955"/>
				</g>
			</g>
			
				<line fill="none" stroke="#A1C453" stroke-width="1.3314" stroke-linecap="round" stroke-linejoin="round" stroke-miterlimit="10" x1="128.042" y1="289.689" x2="128.042" y2="299.046"/>
			
				<line fill="none" stroke="#A1C453" stroke-width="1.3314" stroke-linecap="round" stroke-linejoin="round" stroke-miterlimit="10" x1="134.819" y1="292.664" x2="134.819" y2="299.046"/>
			
				<line fill="none" stroke="#A1C453" stroke-width="1.3314" stroke-linecap="round" stroke-linejoin="round" stroke-miterlimit="10" x1="152.864" y1="295.021" x2="152.864" y2="297.414"/>
			
				<line fill="none" stroke="#A1C453" stroke-width="1.3314" stroke-linecap="round" stroke-linejoin="round" stroke-miterlimit="10" x1="66.685" y1="289.622" x2="66.685" y2="297.307"/>
			
				<line fill="none" stroke="#A1C453" stroke-width="1.3314" stroke-linecap="round" stroke-linejoin="round" stroke-miterlimit="10" x1="60.031" y1="291.786" x2="60.031" y2="297.307"/>
			<g>
				<g>
					
						<line fill="none" stroke="#AF773A" stroke-width="1.331" stroke-linecap="round" stroke-miterlimit="10" x1="103.44" y1="291.706" x2="103.44" y2="228.234"/>
					
						<line fill="none" stroke="#AF773A" stroke-width="1.331" stroke-linecap="round" stroke-miterlimit="10" x1="103.44" y1="226.146" x2="103.44" y2="226.238"/>
				</g>
			</g>
			<g>
				<g>
					
						<line fill="none" stroke="#AF773A" stroke-width="1.331" stroke-linecap="round" stroke-miterlimit="10" x1="90.126" y1="189.949" x2="90.126" y2="247.826"/>
					
						<line fill="none" stroke="#AF773A" stroke-width="1.331" stroke-linecap="round" stroke-miterlimit="10" x1="90.126" y1="249.917" x2="90.126" y2="249.822"/>
				</g>
			</g>
			<g>
				<g>
					<path fill="none" stroke="#AF773A" stroke-width="1.3314" stroke-linecap="round" stroke-miterlimit="10" d="M93.79,177.047
						c0.01,0.287,0.015,0.575,0.002,0.862c-0.065,2.11-0.795,4.332-2.479,5.706c-0.172,0.184-0.403,0.293-0.604,0.441"/>
					
						<line fill="none" stroke="#AF773A" stroke-width="1.3314" stroke-linecap="round" stroke-miterlimit="10" x1="88.822" y1="184.929" x2="88.912" y2="184.902"/>
				</g>
			</g>
			<g>
				<g>
					<path fill="none" stroke="#AF773A" stroke-width="1.3314" stroke-linecap="round" stroke-miterlimit="10" d="M105.319,184.874
						c-0.262-0.119-0.521-0.242-0.774-0.377c-2.051-1.082-3.883-2.692-4.957-4.772c-0.125-0.217-0.204-0.456-0.31-0.682"/>
					
						<line fill="none" stroke="#AF773A" stroke-width="1.3314" stroke-linecap="round" stroke-miterlimit="10" x1="98.697" y1="177.041" x2="98.712" y2="177.133"/>
				</g>
			</g>
			<g>
				<g>
					<path fill="none" stroke="#AF773A" stroke-width="1.3314" stroke-linecap="round" stroke-miterlimit="10" d="M96.596,178.573
						c-0.011,0.288-0.006,0.575,0.005,0.862c0.09,1.852,0.624,3.72,1.745,5.218c0.57,0.734,1.247,1.39,2.034,1.89l0.143,0.101
						c0.013,0.052,0.003,0.115,0.006,0.171v0.349v0.698v1.396v10.858"/>
					
						<line fill="none" stroke="#AF773A" stroke-width="1.3314" stroke-linecap="round" stroke-miterlimit="10" x1="100.528" y1="202.208" x2="100.528" y2="202.114"/>
				</g>
			</g>
		</g>
	</g>
</g>
</svg>
