<?xml version="1.0" encoding="utf-8"?>
<!-- Generator: Adobe Illustrator 16.0.0, SVG Export Plug-In . SVG Version: 6.00 Build 0)  -->
<!DOCTYPE svg PUBLIC "-//W3C//DTD SVG 1.1//EN" "http://www.w3.org/Graphics/SVG/1.1/DTD/svg11.dtd">
<svg version="1.1" id="Calque_1" xmlns="http://www.w3.org/2000/svg" xmlns:xlink="http://www.w3.org/1999/xlink" x="0px" y="0px"
	 width="400px" height="400px" viewBox="0 0 400 400" enable-background="new 0 0 400 400" xml:space="preserve">
<g id="calque00">
	<g>
		<path fill="#CC924C" stroke="#333333" stroke-width="2.6539" stroke-linecap="round" stroke-miterlimit="10" d="M302.075,205.916
			l1.114-9.339c0.069-1.105,1.021-1.948,2.129-1.878l0,0c1.105,0.068,1.947,1.021,1.878,2.128l-0.056,9.405"/>
		<g>
			
				<path fill="#A1C453" stroke="#333333" stroke-width="1.0616" stroke-linecap="round" stroke-linejoin="round" stroke-miterlimit="10" d="
				M306.875,194.635c0,0-1.006-2.959-1.358-3.489c-0.28-0.427-1.171,2.796-1.281,4.011L306.875,194.635z"/>
			
				<path fill="#A1C453" stroke="#333333" stroke-width="1.0616" stroke-linecap="round" stroke-linejoin="round" stroke-miterlimit="10" d="
				M304.427,194.231l2.982,3.771c0,0,1.004-4.676-0.065-6.367C307.344,191.635,305.784,193.354,304.427,194.231z"/>
			
				<path fill="#A1C453" stroke="#333333" stroke-width="1.0616" stroke-linecap="round" stroke-linejoin="round" stroke-miterlimit="10" d="
				M303.45,199.885c0,0-2.011-5.588-0.041-8.496l2.673,3.75L303.45,199.885z"/>
		</g>
	</g>
</g>
<g id="calque01">
	<g>
		<g>
			
				<path fill="#A1C453" stroke="#333333" stroke-width="1.0616" stroke-linecap="round" stroke-linejoin="round" stroke-miterlimit="10" d="
				M313.822,180.178c-1.304-0.135-1.886-0.935-4.061,0.752c-2.177,1.687-0.042,2.426-1.475,3.535
				c1.433-1.109,1.73,1.127,3.826-0.496C314.211,182.345,313.521,181.453,313.822,180.178z"/>
			<g>
				<line fill="none" x1="308.287" y1="184.465" x2="312.576" y2="181.143"/>
				<g>
					<polyline fill="none" stroke="#333333" stroke-width="1.0616" stroke-linecap="round" stroke-miterlimit="10" points="
						308.707,184.14 309.251,183.719 310.366,182.854 310.84,182.488 					"/>
					
						<line fill="none" stroke="#333333" stroke-width="1.0616" stroke-linecap="round" stroke-miterlimit="10" x1="312.156" y1="181.468" x2="312.099" y2="181.514"/>
				</g>
			</g>
		</g>
		<path fill="#CC924C" stroke="#333333" stroke-width="2.6539" stroke-linecap="round" stroke-miterlimit="10" d="M302.076,205.916
			l2.348-29.104c0.067-1.105,1.021-1.947,2.128-1.877l0,0c1.105,0.068,1.946,1.021,1.878,2.127l-1.288,29.17"/>
		<g>
			
				<path fill="#A1C453" stroke="#333333" stroke-width="1.0616" stroke-linecap="round" stroke-linejoin="round" stroke-miterlimit="10" d="
				M308.108,174.87c0,0-1.005-2.959-1.359-3.489c-0.278-0.426-1.172,2.796-1.28,4.012L308.108,174.87z"/>
			
				<path fill="#A1C453" stroke="#333333" stroke-width="1.0616" stroke-linecap="round" stroke-linejoin="round" stroke-miterlimit="10" d="
				M305.658,174.467l2.983,3.771c0,0,1.005-4.677-0.065-6.368C308.576,171.869,307.019,173.588,305.658,174.467z"/>
			
				<path fill="#A1C453" stroke="#333333" stroke-width="1.0616" stroke-linecap="round" stroke-linejoin="round" stroke-miterlimit="10" d="
				M304.683,180.121c0,0-2.009-5.59-0.039-8.497l2.672,3.75L304.683,180.121z"/>
		</g>
	</g>
</g>
<g id="calque02">
	<g>
		<g>
			
				<path fill="#A1C453" stroke="#333333" stroke-width="1.5923" stroke-linecap="round" stroke-linejoin="round" stroke-miterlimit="10" d="
				M320.004,175.589c-2.843-0.297-4.109-2.041-8.854,1.636c-4.745,3.676-0.088,5.292-3.21,7.711
				c3.122-2.419,3.772,2.457,8.344-1.084C320.854,180.312,319.348,178.364,320.004,175.589z"/>
			<g>
				<line fill="none" x1="307.939" y1="184.936" x2="317.288" y2="177.691"/>
				<g>
					<polyline fill="none" stroke="#333333" stroke-width="1.0616" stroke-linecap="round" stroke-miterlimit="10" points="
						308.359,184.61 308.902,184.189 315.078,179.403 315.552,179.037 					"/>
					
						<line fill="none" stroke="#333333" stroke-width="1.0616" stroke-linecap="round" stroke-miterlimit="10" x1="316.868" y1="178.017" x2="316.811" y2="178.063"/>
				</g>
			</g>
		</g>
		<g>
			
				<path fill="#A1C453" stroke="#333333" stroke-width="1.0616" stroke-linecap="round" stroke-linejoin="round" stroke-miterlimit="10" d="
				M300.384,167.492c-0.21,1.271-1.027,1.793,0.497,4.025c1.523,2.231,2.375,0.182,3.377,1.649
				c-1.002-1.468,1.207-1.628-0.262-3.777C302.528,167.238,301.612,167.863,300.384,167.492z"/>
			<g>
				<line fill="none" x1="304.258" y1="173.167" x2="301.563" y2="169.277"/>
				<g>
					<polyline fill="none" stroke="#333333" stroke-width="1.0616" stroke-linecap="round" stroke-miterlimit="10" points="
						303.954,172.73 303.563,172.165 303.154,171.575 302.814,171.084 					"/>
					
						<line fill="none" stroke="#333333" stroke-width="1.0616" stroke-linecap="round" stroke-miterlimit="10" x1="301.865" y1="169.714" x2="301.906" y2="169.775"/>
				</g>
			</g>
		</g>
		<path fill="#CC924C" stroke="#333333" stroke-width="2.6539" stroke-linecap="round" stroke-miterlimit="10" d="M302.076,205.916
			l2.914-38.207c0.068-1.107,1.021-1.949,2.129-1.88l0,0c1.105,0.068,1.947,1.022,1.877,2.13l-1.854,38.273"/>
		<g>
			
				<path fill="#A1C453" stroke="#333333" stroke-width="1.0616" stroke-linecap="round" stroke-linejoin="round" stroke-miterlimit="10" d="
				M308.676,165.766c0,0-1.005-2.959-1.358-3.489c-0.28-0.427-1.172,2.797-1.281,4.011L308.676,165.766z"/>
			
				<path fill="#A1C453" stroke="#333333" stroke-width="1.0616" stroke-linecap="round" stroke-linejoin="round" stroke-miterlimit="10" d="
				M306.228,165.36l2.983,3.772c0,0,1.004-4.678-0.066-6.368C309.145,162.765,307.587,164.484,306.228,165.36z"/>
			
				<path fill="#A1C453" stroke="#333333" stroke-width="1.0616" stroke-linecap="round" stroke-linejoin="round" stroke-miterlimit="10" d="
				M305.252,171.016c0,0-2.011-5.588-0.04-8.496l2.672,3.75L305.252,171.016z"/>
		</g>
	</g>
</g>
<g id="calque03">
	<g>
		
			<polygon fill="#CC924C" stroke="#333333" stroke-width="1.0616" stroke-linecap="round" stroke-linejoin="round" stroke-miterlimit="10" points="
			300.74,167.068 304.503,175.547 304.69,172.557 		"/>
		<g>
			
				<path fill="#A1C453" stroke="#333333" stroke-width="1.5923" stroke-linecap="round" stroke-linejoin="round" stroke-miterlimit="10" d="
				M320.004,175.589c-2.843-0.297-4.109-2.041-8.854,1.636c-4.745,3.676-0.088,5.292-3.21,7.711
				c3.122-2.419,3.774,2.457,8.344-1.084C320.854,180.312,319.348,178.364,320.004,175.589z"/>
			<g>
				<line fill="none" x1="307.939" y1="184.936" x2="317.288" y2="177.691"/>
				<g>
					<polyline fill="none" stroke="#333333" stroke-width="1.0616" stroke-linecap="round" stroke-miterlimit="10" points="
						308.359,184.61 308.902,184.189 315.078,179.403 315.552,179.037 					"/>
					
						<line fill="none" stroke="#333333" stroke-width="1.0616" stroke-linecap="round" stroke-miterlimit="10" x1="316.868" y1="178.017" x2="316.811" y2="178.063"/>
				</g>
			</g>
		</g>
		<g>
			
				<path fill="#A1C453" stroke="#333333" stroke-width="1.5923" stroke-linecap="round" stroke-linejoin="round" stroke-miterlimit="10" d="
				M292.134,154.464c-0.467,2.817-2.282,3.979,1.104,8.937c3.386,4.957,5.275,0.403,7.503,3.668
				c-2.228-3.265,2.681-3.621-0.58-8.396C296.899,153.897,294.866,155.285,292.134,154.464z"/>
			<g>
				<line fill="none" x1="300.74" y1="167.068" x2="294.072" y2="157.299"/>
				<g>
					<polyline fill="none" stroke="#333333" stroke-width="1.0616" stroke-linecap="round" stroke-miterlimit="10" points="
						300.441,166.63 300.054,166.062 295.648,159.607 295.312,159.114 					"/>
					
						<line fill="none" stroke="#333333" stroke-width="1.0616" stroke-linecap="round" stroke-miterlimit="10" x1="294.371" y1="157.737" x2="294.414" y2="157.799"/>
				</g>
			</g>
		</g>
		<g>
			
				<path fill="#A1C453" stroke="#333333" stroke-width="1.0616" stroke-linecap="round" stroke-linejoin="round" stroke-miterlimit="10" d="
				M315.656,164.154c-1.234-0.313-1.685-1.164-4.016,0.156c-2.331,1.32-0.377,2.332-1.91,3.201c1.533-0.869,1.51,1.326,3.753,0.054
				C315.731,166.295,315.19,165.338,315.656,164.154z"/>
			<g>
				<line fill="none" x1="309.731" y1="167.512" x2="314.323" y2="164.91"/>
				<g>
					<polyline fill="none" stroke="#333333" stroke-width="1.0616" stroke-linecap="round" stroke-miterlimit="10" points="
						310.193,167.25 310.791,166.911 311.892,166.288 312.411,165.993 					"/>
					
						<line fill="none" stroke="#333333" stroke-width="1.0616" stroke-linecap="round" stroke-miterlimit="10" x1="313.862" y1="165.172" x2="313.798" y2="165.209"/>
				</g>
			</g>
		</g>
		<path fill="#CC924C" stroke="#333333" stroke-width="2.6539" stroke-linecap="round" stroke-miterlimit="10" d="M302.076,205.916
			l3.361-45.365c0.069-1.105,1.021-1.946,2.128-1.877l0,0c1.106,0.068,1.946,1.021,1.878,2.127l-2.303,45.432"/>
		<g>
			
				<path fill="#A1C453" stroke="#333333" stroke-width="1.0616" stroke-linecap="round" stroke-linejoin="round" stroke-miterlimit="10" d="
				M309.122,158.609c0,0-1.006-2.959-1.358-3.49c-0.28-0.426-1.173,2.797-1.28,4.012L309.122,158.609z"/>
			
				<path fill="#A1C453" stroke="#333333" stroke-width="1.0616" stroke-linecap="round" stroke-linejoin="round" stroke-miterlimit="10" d="
				M306.674,158.203l2.982,3.773c0,0,1.004-4.678-0.065-6.369C309.591,155.607,308.031,157.327,306.674,158.203z"/>
			
				<path fill="#A1C453" stroke="#333333" stroke-width="1.0616" stroke-linecap="round" stroke-linejoin="round" stroke-miterlimit="10" d="
				M305.698,163.859c0,0-2.01-5.59-0.041-8.497l2.673,3.749L305.698,163.859z"/>
		</g>
	</g>
</g>
<g id="calque04">
	<g>
		
			<polygon fill="#CC924C" stroke="#333333" stroke-width="1.0616" stroke-linecap="round" stroke-linejoin="round" stroke-miterlimit="10" points="
			300.74,167.068 304.502,175.547 304.689,172.557 		"/>
		
			<polygon fill="#CC924C" stroke="#333333" stroke-width="1.0616" stroke-linecap="round" stroke-linejoin="round" stroke-miterlimit="10" points="
			320.479,157.824 308.884,169.785 309.07,166.797 		"/>
		<g>
			
				<path fill="#A1C453" stroke="#333333" stroke-width="1.5923" stroke-linecap="round" stroke-linejoin="round" stroke-miterlimit="10" d="
				M320.004,175.589c-2.843-0.297-4.109-2.041-8.854,1.636c-4.745,3.676-0.088,5.292-3.21,7.711
				c3.122-2.419,3.774,2.457,8.344-1.084C320.854,180.312,319.347,178.364,320.004,175.589z"/>
			<g>
				<line fill="none" x1="307.939" y1="184.936" x2="317.288" y2="177.691"/>
				<g>
					<polyline fill="none" stroke="#333333" stroke-width="1.0616" stroke-linecap="round" stroke-miterlimit="10" points="
						308.359,184.61 308.902,184.189 315.078,179.403 315.552,179.037 					"/>
					
						<line fill="none" stroke="#333333" stroke-width="1.0616" stroke-linecap="round" stroke-miterlimit="10" x1="316.868" y1="178.017" x2="316.811" y2="178.063"/>
				</g>
			</g>
		</g>
		<g>
			
				<path fill="#A1C453" stroke="#333333" stroke-width="1.5923" stroke-linecap="round" stroke-linejoin="round" stroke-miterlimit="10" d="
				M292.134,154.464c-0.467,2.817-2.282,3.979,1.104,8.937c3.386,4.957,5.275,0.403,7.503,3.668
				c-2.228-3.265,2.681-3.621-0.58-8.396C296.899,153.897,294.866,155.285,292.134,154.464z"/>
			<g>
				<line fill="none" x1="300.74" y1="167.068" x2="294.071" y2="157.299"/>
				<g>
					<polyline fill="none" stroke="#333333" stroke-width="1.0616" stroke-linecap="round" stroke-miterlimit="10" points="
						300.441,166.63 300.054,166.063 295.647,159.607 295.311,159.114 					"/>
					
						<line fill="none" stroke="#333333" stroke-width="1.0616" stroke-linecap="round" stroke-miterlimit="10" x1="294.37" y1="157.737" x2="294.413" y2="157.799"/>
				</g>
			</g>
		</g>
		<g>
			
				<path fill="#A1C453" stroke="#333333" stroke-width="1.0616" stroke-linecap="round" stroke-linejoin="round" stroke-miterlimit="10" d="
				M322.134,151.154c-1.103,0.658-2.025,0.371-2.744,2.968s1.39,1.927,0.917,3.635c0.473-1.708,2.018-0.13,2.709-2.631
				S322.644,152.33,322.134,151.154z"/>
			<g>
				<line fill="none" x1="320.307" y1="157.757" x2="321.724" y2="152.642"/>
				<g>
					<polyline fill="none" stroke="#333333" stroke-width="1.0616" stroke-linecap="round" stroke-miterlimit="10" points="
						320.448,157.245 320.632,156.582 320.978,155.336 321.137,154.76 					"/>
					
						<line fill="none" stroke="#333333" stroke-width="1.0616" stroke-linecap="round" stroke-miterlimit="10" x1="321.581" y1="153.153" x2="321.563" y2="153.225"/>
				</g>
			</g>
		</g>
		<g>
			
				<path fill="#A1C453" stroke="#333333" stroke-width="1.5923" stroke-linecap="round" stroke-linejoin="round" stroke-miterlimit="10" d="
				M335.28,149.759c-3.127-0.79-4.261-2.943-10.153,0.396c-5.896,3.339-0.953,5.897-4.833,8.092c3.88-2.194,3.818,3.354,9.493,0.14
				C335.466,155.171,334.097,152.754,335.28,149.759z"/>
			<g>
				<line fill="none" x1="320.293" y1="158.247" x2="331.906" y2="151.67"/>
				<g>
					<polyline fill="none" stroke="#333333" stroke-width="1.0616" stroke-linecap="round" stroke-miterlimit="10" points="
						320.755,157.985 321.354,157.646 329.475,153.047 329.994,152.753 					"/>
					
						<line fill="none" stroke="#333333" stroke-width="1.0616" stroke-linecap="round" stroke-miterlimit="10" x1="331.445" y1="151.932" x2="331.381" y2="151.969"/>
				</g>
			</g>
		</g>
		<path fill="#CC924C" stroke="#333333" stroke-width="2.6539" stroke-linecap="round" stroke-miterlimit="10" d="M302.075,205.916
			l4.213-59.031c0.069-1.105,1.022-1.946,2.128-1.878l0,0c1.107,0.069,1.948,1.022,1.881,2.128l-3.155,59.097"/>
		<g>
			
				<path fill="#A1C453" stroke="#333333" stroke-width="1.0616" stroke-linecap="round" stroke-linejoin="round" stroke-miterlimit="10" d="
				M309.974,144.943c0,0-1.005-2.96-1.358-3.49c-0.279-0.426-1.171,2.796-1.279,4.012L309.974,144.943z"/>
			
				<path fill="#A1C453" stroke="#333333" stroke-width="1.0616" stroke-linecap="round" stroke-linejoin="round" stroke-miterlimit="10" d="
				M307.526,144.539l2.982,3.771c0,0,1.004-4.678-0.066-6.369C310.442,141.941,308.885,143.66,307.526,144.539z"/>
			
				<path fill="#A1C453" stroke="#333333" stroke-width="1.0616" stroke-linecap="round" stroke-linejoin="round" stroke-miterlimit="10" d="
				M306.551,150.193c0,0-2.012-5.59-0.041-8.496l2.673,3.749L306.551,150.193z"/>
		</g>
		<g>
			
				<path fill="#FFFFFF" stroke="#333333" stroke-width="1.0616" stroke-linecap="round" stroke-linejoin="round" stroke-miterlimit="10" d="
				M298.757,166.902c0.396,0.262,0.346,1.209,0.229,1.91c-0.206,1.267-1.565,2.707-2.813,1.882c-1.251-0.83-0.457-2.649,0.624-3.335
				C297.399,166.98,298.358,166.637,298.757,166.902z"/>
			
				<path fill="#FFFFFF" stroke="#333333" stroke-width="1.0616" stroke-linecap="round" stroke-linejoin="round" stroke-miterlimit="10" d="
				M298.865,166.839c0.028-0.475,0.873-0.903,1.539-1.153c1.202-0.454,3.13,0.004,3.037,1.494c-0.094,1.499-2.063,1.723-3.2,1.127
				C299.611,167.976,298.835,167.316,298.865,166.839z"/>
			
				<path fill="#FFFFFF" stroke="#333333" stroke-width="1.0616" stroke-linecap="round" stroke-linejoin="round" stroke-miterlimit="10" d="
				M298.764,166.778c-0.426,0.212-1.219-0.306-1.77-0.757c-0.992-0.813-1.562-2.712-0.223-3.377
				c1.344-0.668,2.521,0.928,2.574,2.208C299.376,165.563,299.192,166.566,298.764,166.778z"/>
			
				<path fill="#FFFFFF" stroke="#333333" stroke-width="1.0616" stroke-linecap="round" stroke-linejoin="round" stroke-miterlimit="10" d="
				M298.63,166.861c-0.03,0.475-0.875,0.904-1.541,1.154c-1.2,0.453-3.129-0.004-3.035-1.496c0.093-1.496,2.063-1.721,3.198-1.126
				C297.882,165.725,298.658,166.385,298.63,166.861z"/>
			
				<path fill="#FFFFFF" stroke="#333333" stroke-width="1.0616" stroke-linecap="round" stroke-linejoin="round" stroke-miterlimit="10" d="
				M298.738,166.92c0.425-0.213,1.218,0.305,1.77,0.757c0.993,0.813,1.56,2.712,0.223,3.376c-1.344,0.669-2.522-0.926-2.576-2.205
				C298.126,168.135,298.309,167.133,298.738,166.92z"/>
			
				<path fill="#FFFFFF" stroke="#333333" stroke-width="1.0616" stroke-linecap="round" stroke-linejoin="round" stroke-miterlimit="10" d="
				M298.724,166.787c-0.397-0.263-0.346-1.207-0.231-1.91c0.208-1.267,1.569-2.707,2.815-1.882c1.25,0.831,0.457,2.648-0.625,3.333
				C300.08,166.71,299.12,167.053,298.724,166.787z"/>
			
				<circle fill="#F9D53E" stroke="#333333" stroke-width="1.0616" stroke-linecap="round" stroke-linejoin="round" stroke-miterlimit="10" cx="298.629" cy="166.862" r="0.987"/>
		</g>
	</g>
</g>
<g id="calque05">
	<g>
		
			<polygon fill="#CC924C" stroke="#333333" stroke-width="1.0616" stroke-linecap="round" stroke-linejoin="round" stroke-miterlimit="10" points="
			300.74,167.068 304.502,175.547 304.689,172.557 		"/>
		
			<polygon fill="#CC924C" stroke="#333333" stroke-width="1.0616" stroke-linecap="round" stroke-linejoin="round" stroke-miterlimit="10" points="
			320.479,157.824 308.884,169.785 309.07,166.797 		"/>
		<g>
			
				<path fill="#A1C453" stroke="#333333" stroke-width="1.5923" stroke-linecap="round" stroke-linejoin="round" stroke-miterlimit="10" d="
				M320.004,175.589c-2.843-0.297-4.109-2.041-8.854,1.636c-4.745,3.676-0.088,5.292-3.21,7.711
				c3.122-2.419,3.774,2.457,8.344-1.084C320.854,180.312,319.347,178.364,320.004,175.589z"/>
			<g>
				<line fill="none" x1="307.939" y1="184.936" x2="317.288" y2="177.691"/>
				<g>
					<polyline fill="none" stroke="#333333" stroke-width="1.0616" stroke-linecap="round" stroke-miterlimit="10" points="
						308.359,184.61 308.902,184.189 315.078,179.403 315.552,179.037 					"/>
					
						<line fill="none" stroke="#333333" stroke-width="1.0616" stroke-linecap="round" stroke-miterlimit="10" x1="316.868" y1="178.017" x2="316.811" y2="178.063"/>
				</g>
			</g>
		</g>
		<g>
			
				<path fill="#A1C453" stroke="#333333" stroke-width="1.5923" stroke-linecap="round" stroke-linejoin="round" stroke-miterlimit="10" d="
				M292.134,154.464c-0.467,2.817-2.282,3.979,1.104,8.937c3.386,4.957,5.275,0.403,7.503,3.668
				c-2.228-3.265,2.681-3.621-0.58-8.396C296.899,153.897,294.866,155.285,292.134,154.464z"/>
			<g>
				<line fill="none" x1="300.74" y1="167.068" x2="294.071" y2="157.299"/>
				<g>
					<polyline fill="none" stroke="#333333" stroke-width="1.0616" stroke-linecap="round" stroke-miterlimit="10" points="
						300.441,166.63 300.054,166.063 295.647,159.607 295.311,159.114 					"/>
					
						<line fill="none" stroke="#333333" stroke-width="1.0616" stroke-linecap="round" stroke-miterlimit="10" x1="294.37" y1="157.737" x2="294.413" y2="157.799"/>
				</g>
			</g>
		</g>
		<g>
			
				<path fill="#A1C453" stroke="#333333" stroke-width="1.5923" stroke-linecap="round" stroke-linejoin="round" stroke-miterlimit="10" d="
				M324.85,141.179c-2.771,1.651-5.092,0.931-6.899,7.461c-1.808,6.528,3.496,4.843,2.307,9.14c1.189-4.297,5.07-0.328,6.811-6.615
				C328.809,144.875,326.133,144.133,324.85,141.179z"/>
			<g>
				<line fill="none" x1="320.256" y1="157.779" x2="323.818" y2="144.914"/>
				<g>
					<polyline fill="none" stroke="#333333" stroke-width="1.0616" stroke-linecap="round" stroke-miterlimit="10" points="
						320.397,157.268 320.58,156.605 323.072,147.608 323.231,147.032 					"/>
					
						<line fill="none" stroke="#333333" stroke-width="1.0616" stroke-linecap="round" stroke-miterlimit="10" x1="323.677" y1="145.426" x2="323.656" y2="145.498"/>
				</g>
			</g>
		</g>
		<g>
			
				<path fill="#A1C453" stroke="#333333" stroke-width="1.5923" stroke-linecap="round" stroke-linejoin="round" stroke-miterlimit="10" d="
				M335.28,149.759c-3.127-0.79-4.261-2.943-10.153,0.396c-5.896,3.339-0.953,5.897-4.833,8.092c3.88-2.194,3.818,3.354,9.493,0.14
				C335.466,155.171,334.097,152.754,335.28,149.759z"/>
			<g>
				<line fill="none" x1="320.293" y1="158.247" x2="331.906" y2="151.67"/>
				<g>
					<polyline fill="none" stroke="#333333" stroke-width="1.0616" stroke-linecap="round" stroke-miterlimit="10" points="
						320.755,157.985 321.354,157.646 329.475,153.047 329.994,152.753 					"/>
					
						<line fill="none" stroke="#333333" stroke-width="1.0616" stroke-linecap="round" stroke-miterlimit="10" x1="331.445" y1="151.932" x2="331.381" y2="151.969"/>
				</g>
			</g>
		</g>
		<g>
			
				<path fill="#A1C453" stroke="#333333" stroke-width="1.0616" stroke-linecap="round" stroke-linejoin="round" stroke-miterlimit="10" d="
				M302.986,138.174c-0.142,0.934-0.735,1.324,0.402,2.947c1.139,1.621,1.744,0.107,2.493,1.176
				c-0.749-1.068,0.866-1.207-0.229-2.768C304.556,137.967,303.892,138.434,302.986,138.174z"/>
			<g>
				<line fill="none" x1="305.882" y1="142.297" x2="303.639" y2="139.103"/>
				<g>
					
						<line fill="none" stroke="#333333" stroke-width="1.0616" stroke-linecap="round" stroke-miterlimit="10" x1="305.808" y1="142.191" x2="303.947" y2="139.541"/>
					
						<line fill="none" stroke="#333333" stroke-width="1.0616" stroke-linecap="round" stroke-miterlimit="10" x1="303.713" y1="139.209" x2="303.724" y2="139.224"/>
				</g>
			</g>
		</g>
		<g>
			<g>
				<path fill="#D3F46C" d="M300.688,171.746c-1.408,1.781-4.999,2.193-5.775,0.674c-1.853-0.422-2.083-3.994-0.675-5.777
					c1.408-1.781,3.674-2.852,5.564-0.186C302.698,167.612,302.097,169.965,300.688,171.746z"/>
				<g>
					<path fill="none" stroke="#333333" stroke-width="1.0616" stroke-linecap="round" stroke-miterlimit="10" d="M300.322,172.13
						c-0.169,0.156-0.352,0.294-0.546,0.417c-0.832,0.521-1.813,0.803-2.795,0.803c-0.486-0.003-0.988-0.077-1.425-0.309
						c-0.211-0.12-0.418-0.269-0.549-0.478c-0.036-0.049-0.064-0.107-0.107-0.147l-0.174-0.061c-0.12-0.031-0.224-0.098-0.327-0.165
						c-0.826-0.583-1.05-1.671-1.069-2.625c0.013-0.975,0.236-1.98,0.813-2.784c0.581-0.78,1.338-1.483,2.277-1.795
						c0.466-0.152,0.978-0.18,1.45-0.046c0.477,0.13,0.896,0.407,1.258,0.736c0.392,0.298,0.555,0.851,1.074,0.964
						c0.436,0.224,0.854,0.501,1.162,0.886c0.312,0.383,0.486,0.869,0.494,1.361l-0.014,0.361l-0.03,0.194
						c-0.015,0.13-0.052,0.256-0.087,0.383"/>
					
						<line fill="none" stroke="#333333" stroke-width="1.0616" stroke-linecap="round" stroke-miterlimit="10" x1="301" y1="171.317" x2="301.04" y2="171.255"/>
				</g>
			</g>
			
				<ellipse transform="matrix(0.9586 -0.2846 0.2846 0.9586 -35.1465 91.2803)" opacity="0.5" fill="#FFFFFF" enable-background="new    " cx="296.486" cy="166.565" rx="0.942" ry="0.774"/>
		</g>
		<path fill="#CC924C" stroke="#333333" stroke-width="2.6539" stroke-linecap="round" stroke-miterlimit="10" d="M302.075,205.916
			l4.854-69.304c0.067-1.108,1.021-1.949,2.129-1.88l0,0c1.104,0.069,1.946,1.021,1.877,2.13l-3.795,69.371"/>
		<g>
			
				<path fill="#A1C453" stroke="#333333" stroke-width="1.0616" stroke-linecap="round" stroke-linejoin="round" stroke-miterlimit="10" d="
				M310.615,134.67c0,0-1.005-2.959-1.357-3.49c-0.28-0.428-1.173,2.797-1.282,4.012L310.615,134.67z"/>
			
				<path fill="#A1C453" stroke="#333333" stroke-width="1.0616" stroke-linecap="round" stroke-linejoin="round" stroke-miterlimit="10" d="
				M308.166,134.266l2.983,3.771c0,0,1.004-4.678-0.065-6.369C311.084,131.668,309.525,133.387,308.166,134.266z"/>
			
				<path fill="#A1C453" stroke="#333333" stroke-width="1.0616" stroke-linecap="round" stroke-linejoin="round" stroke-miterlimit="10" d="
				M307.191,139.921c0,0-2.01-5.59-0.041-8.497l2.673,3.75L307.191,139.921z"/>
		</g>
		<g>
			
				<path fill="#FFFFFF" stroke="#333333" stroke-width="1.0616" stroke-linecap="round" stroke-linejoin="round" stroke-miterlimit="10" d="
				M321.498,158.383c0.396,0.262,0.347,1.207,0.229,1.91c-0.207,1.268-1.568,2.707-2.813,1.881c-1.25-0.829-0.458-2.648,0.623-3.333
				C320.142,158.459,321.102,158.118,321.498,158.383z"/>
			
				<path fill="#FFFFFF" stroke="#333333" stroke-width="1.0616" stroke-linecap="round" stroke-linejoin="round" stroke-miterlimit="10" d="
				M321.607,158.319c0.029-0.474,0.874-0.903,1.54-1.153c1.2-0.453,3.13,0.005,3.036,1.494c-0.093,1.498-2.063,1.722-3.199,1.128
				C322.354,159.457,321.576,158.797,321.607,158.319z"/>
			
				<path fill="#FFFFFF" stroke="#333333" stroke-width="1.0616" stroke-linecap="round" stroke-linejoin="round" stroke-miterlimit="10" d="
				M321.507,158.259c-0.428,0.212-1.221-0.306-1.771-0.757c-0.993-0.813-1.561-2.711-0.223-3.377
				c1.345-0.668,2.521,0.928,2.576,2.207C322.117,157.044,321.935,158.047,321.507,158.259z"/>
			
				<path fill="#FFFFFF" stroke="#333333" stroke-width="1.0616" stroke-linecap="round" stroke-linejoin="round" stroke-miterlimit="10" d="
				M321.37,158.344c-0.028,0.475-0.873,0.902-1.54,1.152c-1.199,0.455-3.129-0.004-3.035-1.496c0.093-1.498,2.064-1.721,3.199-1.127
				C320.625,157.206,321.401,157.864,321.37,158.344z"/>
			
				<path fill="#FFFFFF" stroke="#333333" stroke-width="1.0616" stroke-linecap="round" stroke-linejoin="round" stroke-miterlimit="10" d="
				M321.479,158.401c0.426-0.212,1.22,0.304,1.77,0.756c0.993,0.813,1.562,2.712,0.225,3.376c-1.346,0.669-2.524-0.928-2.577-2.205
				C320.867,159.615,321.052,158.613,321.479,158.401z"/>
			
				<path fill="#FFFFFF" stroke="#333333" stroke-width="1.0616" stroke-linecap="round" stroke-linejoin="round" stroke-miterlimit="10" d="
				M321.465,158.268c-0.396-0.262-0.346-1.207-0.229-1.91c0.207-1.268,1.567-2.708,2.813-1.881c1.252,0.83,0.458,2.648-0.622,3.334
				C322.822,158.189,321.864,158.533,321.465,158.268z"/>
			
				<circle fill="#F9D53E" stroke="#333333" stroke-width="1.0616" stroke-linecap="round" stroke-linejoin="round" stroke-miterlimit="10" cx="321.371" cy="158.343" r="0.987"/>
		</g>
	</g>
</g>
<g id="calque06">
	<g>
		
			<polygon fill="#CC924C" stroke="#333333" stroke-width="1.0616" stroke-linecap="round" stroke-linejoin="round" stroke-miterlimit="10" points="
			300.74,167.068 304.502,175.547 304.689,172.557 		"/>
		
			<polygon fill="#CC924C" stroke="#333333" stroke-width="1.0616" stroke-linecap="round" stroke-linejoin="round" stroke-miterlimit="10" points="
			301.949,138.074 306.451,144.291 306.638,141.302 		"/>
		
			<polygon fill="#CC924C" stroke="#333333" stroke-width="1.0616" stroke-linecap="round" stroke-linejoin="round" stroke-miterlimit="10" points="
			320.479,157.824 308.884,169.785 309.07,166.797 		"/>
		<g>
			
				<path fill="#A1C453" stroke="#333333" stroke-width="1.5923" stroke-linecap="round" stroke-linejoin="round" stroke-miterlimit="10" d="
				M320.004,175.589c-2.843-0.297-4.109-2.041-8.854,1.636c-4.746,3.676-0.089,5.292-3.211,7.711
				c3.122-2.419,3.774,2.457,8.344-1.084C320.854,180.312,319.348,178.364,320.004,175.589z"/>
			<g>
				<line fill="none" x1="307.939" y1="184.936" x2="317.288" y2="177.691"/>
				<g>
					<polyline fill="none" stroke="#333333" stroke-width="1.0616" stroke-linecap="round" stroke-miterlimit="10" points="
						308.359,184.61 308.902,184.189 315.078,179.403 315.552,179.037 					"/>
					
						<line fill="none" stroke="#333333" stroke-width="1.0616" stroke-linecap="round" stroke-miterlimit="10" x1="316.868" y1="178.017" x2="316.811" y2="178.063"/>
				</g>
			</g>
		</g>
		<g>
			
				<path fill="#A1C453" stroke="#333333" stroke-width="1.5923" stroke-linecap="round" stroke-linejoin="round" stroke-miterlimit="10" d="
				M292.134,154.464c-0.467,2.817-2.282,3.979,1.104,8.937c3.386,4.957,5.275,0.403,7.503,3.668
				c-2.228-3.265,2.681-3.621-0.58-8.396C296.899,153.897,294.866,155.285,292.134,154.464z"/>
			<g>
				<line fill="none" x1="300.74" y1="167.068" x2="294.071" y2="157.299"/>
				<g>
					<polyline fill="none" stroke="#333333" stroke-width="1.0616" stroke-linecap="round" stroke-miterlimit="10" points="
						300.441,166.63 300.054,166.063 295.647,159.607 295.311,159.114 					"/>
					
						<line fill="none" stroke="#333333" stroke-width="1.0616" stroke-linecap="round" stroke-miterlimit="10" x1="294.37" y1="157.737" x2="294.413" y2="157.799"/>
				</g>
			</g>
		</g>
		<g>
			
				<path fill="#A1C453" stroke="#333333" stroke-width="1.5923" stroke-linecap="round" stroke-linejoin="round" stroke-miterlimit="10" d="
				M324.85,141.179c-2.771,1.651-5.092,0.931-6.899,7.461c-1.808,6.528,3.496,4.843,2.307,9.14c1.189-4.297,5.07-0.328,6.811-6.615
				C328.809,144.875,326.133,144.133,324.85,141.179z"/>
			<g>
				<line fill="none" x1="320.256" y1="157.779" x2="323.818" y2="144.914"/>
				<g>
					<polyline fill="none" stroke="#333333" stroke-width="1.0616" stroke-linecap="round" stroke-miterlimit="10" points="
						320.397,157.268 320.58,156.605 323.072,147.608 323.231,147.032 					"/>
					
						<line fill="none" stroke="#333333" stroke-width="1.0616" stroke-linecap="round" stroke-miterlimit="10" x1="323.677" y1="145.426" x2="323.656" y2="145.498"/>
				</g>
			</g>
		</g>
		<g>
			
				<path fill="#A1C453" stroke="#333333" stroke-width="1.5923" stroke-linecap="round" stroke-linejoin="round" stroke-miterlimit="10" d="
				M335.28,149.759c-3.126-0.79-4.261-2.943-10.153,0.396c-5.896,3.339-0.953,5.897-4.833,8.092c3.88-2.194,3.818,3.354,9.493,0.14
				C335.466,155.171,334.097,152.754,335.28,149.759z"/>
			<g>
				<line fill="none" x1="320.293" y1="158.247" x2="331.906" y2="151.67"/>
				<g>
					<polyline fill="none" stroke="#333333" stroke-width="1.0616" stroke-linecap="round" stroke-miterlimit="10" points="
						320.755,157.985 321.354,157.646 329.475,153.047 329.994,152.753 					"/>
					
						<line fill="none" stroke="#333333" stroke-width="1.0616" stroke-linecap="round" stroke-miterlimit="10" x1="331.445" y1="151.932" x2="331.381" y2="151.969"/>
				</g>
			</g>
		</g>
		<g>
			
				<path fill="#A1C453" stroke="#333333" stroke-width="1.0616" stroke-linecap="round" stroke-linejoin="round" stroke-miterlimit="10" d="
				M315.478,130.15c-1.055,0.088-1.636-0.457-3.108,1.204c-1.471,1.663,0.333,1.931-0.636,3.025c0.969-1.095,1.54,0.634,2.958-0.97
				C316.11,131.81,315.429,131.205,315.478,130.15z"/>
			<g>
				<line fill="none" x1="311.733" y1="134.38" x2="314.634" y2="131.103"/>
				<g>
					<polyline fill="none" stroke="#333333" stroke-width="1.0616" stroke-linecap="round" stroke-miterlimit="10" points="
						312.085,133.982 312.54,133.468 312.781,133.196 313.178,132.748 					"/>
					
						<line fill="none" stroke="#333333" stroke-width="1.0616" stroke-linecap="round" stroke-miterlimit="10" x1="314.281" y1="131.5" x2="314.232" y2="131.556"/>
				</g>
			</g>
		</g>
		<g>
			
				<path fill="#A1C453" stroke="#333333" stroke-width="1.0616" stroke-linecap="round" stroke-linejoin="round" stroke-miterlimit="10" d="
				M297.128,141.242c1.059,0.045,1.565,0.659,3.234-0.806c1.668-1.465-0.09-1.956,1.01-2.921c-1.1,0.965-1.447-0.822-3.057,0.59
				C296.709,139.518,297.309,140.201,297.128,141.242z"/>
			<g>
				<line fill="none" x1="301.372" y1="137.516" x2="298.084" y2="140.404"/>
				<g>
					<polyline fill="none" stroke="#333333" stroke-width="1.0616" stroke-linecap="round" stroke-miterlimit="10" points="
						300.975,137.866 300.456,138.319 300.185,138.56 299.735,138.954 					"/>
					
						<line fill="none" stroke="#333333" stroke-width="1.0616" stroke-linecap="round" stroke-miterlimit="10" x1="298.482" y1="140.054" x2="298.538" y2="140.005"/>
				</g>
			</g>
		</g>
		<g>
			
				<path fill="#A1C453" stroke="#333333" stroke-width="1.5923" stroke-linecap="round" stroke-linejoin="round" stroke-miterlimit="10" d="
				M292.051,123.979c-0.485,3.189-2.517,4.525,1.377,10.069c3.895,5.544,5.96,0.378,8.521,4.026c-2.563-3.648,2.97-4.125-0.78-9.463
				C297.419,123.271,295.146,124.868,292.051,123.979z"/>
			<g>
				<line fill="none" x1="301.949" y1="138.074" x2="294.279" y2="127.151"/>
				<g>
					<polyline fill="none" stroke="#333333" stroke-width="1.0616" stroke-linecap="round" stroke-miterlimit="10" points="
						301.646,137.64 301.25,137.077 295.886,129.439 295.542,128.95 					"/>
					
						<line fill="none" stroke="#333333" stroke-width="1.0616" stroke-linecap="round" stroke-miterlimit="10" x1="294.584" y1="127.586" x2="294.627" y2="127.646"/>
				</g>
			</g>
		</g>
		<g>
			<g>
				<path fill="#D3F46C" d="M300.636,175.539c-2.312,2.921-8.194,3.596-9.468,1.106c-3.034-0.692-3.415-6.548-1.106-9.47
					c2.311-2.918,6.023-4.672,9.123-0.303C303.931,168.766,302.944,172.621,300.636,175.539z"/>
				<g>
					<path fill="none" stroke="#333333" stroke-width="1.5923" stroke-linecap="round" stroke-miterlimit="10" d="M300.093,176.12
						c-0.261,0.226-0.519,0.454-0.812,0.636c-1.357,0.911-2.993,1.381-4.622,1.414c-0.813,0.007-1.649-0.103-2.383-0.476
						c-0.354-0.199-0.698-0.438-0.927-0.779l-0.172-0.254c-0.082-0.053-0.188-0.072-0.282-0.11
						c-0.199-0.053-0.378-0.151-0.547-0.269c-0.688-0.448-1.133-1.188-1.396-1.955c-0.267-0.772-0.373-1.593-0.378-2.409
						c0.022-1.622,0.42-3.294,1.396-4.615c0.989-1.28,2.271-2.434,3.854-2.896c0.784-0.224,1.637-0.219,2.411,0.044
						c0.784,0.249,1.457,0.758,2.027,1.334c0.299,0.28,0.544,0.608,0.795,0.931c0.1,0.194,0.321,0.234,0.499,0.329
						c0.183,0.09,0.378,0.158,0.551,0.267c0.719,0.386,1.37,0.918,1.826,1.597c0.457,0.678,0.658,1.512,0.605,2.325
						c0.007,0.2-0.049,0.418-0.07,0.595c-0.017,0.098-0.027,0.195-0.059,0.289c-0.055,0.188-0.097,0.382-0.161,0.566"/>
					
						<line fill="none" stroke="#333333" stroke-width="1.5923" stroke-linecap="round" stroke-miterlimit="10" x1="301.107" y1="174.897" x2="301.169" y2="174.805"/>
				</g>
			</g>
			<path opacity="0.5" fill="#FFFFFF" enable-background="new    " d="M294.089,168.248c-0.815,0.244-1.639-0.102-1.837-0.773
				c-0.199-0.672,0.301-1.414,1.115-1.658c0.816-0.244,1.641,0.104,1.84,0.775C295.406,167.263,294.905,168.005,294.089,168.248z"/>
		</g>
		<path fill="#CC924C" stroke="#333333" stroke-width="2.6539" stroke-linecap="round" stroke-miterlimit="10" d="M302.076,205.916
			l5.305-76.527c0.067-1.105,1.021-1.947,2.129-1.877l0,0c1.104,0.068,1.945,1.021,1.878,2.127l-4.246,76.593"/>
		<g>
			
				<path fill="#A1C453" stroke="#333333" stroke-width="1.0616" stroke-linecap="round" stroke-linejoin="round" stroke-miterlimit="10" d="
				M311.065,127.445c0,0-1.005-2.959-1.359-3.488c-0.278-0.426-1.171,2.797-1.279,4.012L311.065,127.445z"/>
			
				<path fill="#A1C453" stroke="#333333" stroke-width="1.0616" stroke-linecap="round" stroke-linejoin="round" stroke-miterlimit="10" d="
				M308.616,127.042l2.984,3.772c0,0,1.002-4.678-0.068-6.369C311.532,124.445,309.976,126.166,308.616,127.042z"/>
			
				<path fill="#A1C453" stroke="#333333" stroke-width="1.0616" stroke-linecap="round" stroke-linejoin="round" stroke-miterlimit="10" d="
				M307.642,132.697c0,0-2.011-5.588-0.04-8.496l2.672,3.75L307.642,132.697z"/>
		</g>
		<g>
			<g>
				<path fill="#D3F46C" d="M324.766,160c0.354,2.242-1.776,5.162-3.421,4.703c-1.564,1.074-4.35-1.178-4.702-3.42
					c-0.356-2.244,0.394-4.635,3.635-4.218C323.089,155.717,324.409,157.756,324.766,160z"/>
				<g>
					<path fill="none" stroke="#333333" stroke-width="1.0616" stroke-linecap="round" stroke-miterlimit="10" d="M324.8,160.529
						c0,0.229-0.022,0.457-0.063,0.684c-0.181,0.965-0.639,1.877-1.305,2.598c-0.333,0.357-0.728,0.676-1.192,0.839
						c-0.23,0.074-0.48,0.125-0.724,0.079c-0.061-0.006-0.122-0.024-0.181-0.021l-0.162,0.087c-0.104,0.067-0.225,0.099-0.344,0.129
						c-0.988,0.211-1.939-0.362-2.654-0.993c-0.709-0.67-1.296-1.518-1.496-2.485c-0.179-0.955-0.185-1.988,0.226-2.891
						c0.203-0.446,0.529-0.84,0.949-1.098c0.418-0.261,0.906-0.382,1.395-0.424c0.483-0.086,1.001,0.168,1.438-0.139
						c0.459-0.168,0.945-0.287,1.438-0.254c0.491,0.031,0.969,0.233,1.335,0.561l0.256,0.255l0.122,0.154
						c0.086,0.1,0.152,0.212,0.223,0.323"/>
					
						<line fill="none" stroke="#333333" stroke-width="1.0616" stroke-linecap="round" stroke-miterlimit="10" x1="324.661" y1="159.479" x2="324.644" y2="159.407"/>
				</g>
			</g>
			
				<ellipse transform="matrix(0.441 -0.8975 0.8975 0.441 34.5971 374.7194)" opacity="0.5" fill="#FFFFFF" enable-background="new    " cx="318.104" cy="159.587" rx="0.94" ry="0.774"/>
		</g>
	</g>
</g>
<g id="calque07">
	<g>
		
			<polygon fill="#CC924C" stroke="#333333" stroke-width="1.0616" stroke-linecap="round" stroke-linejoin="round" stroke-miterlimit="10" points="
			300.74,167.068 304.502,175.547 304.689,172.557 		"/>
		
			<polygon fill="#CC924C" stroke="#333333" stroke-width="1.0616" stroke-linecap="round" stroke-linejoin="round" stroke-miterlimit="10" points="
			301.949,138.074 306.451,144.291 306.638,141.302 		"/>
		
			<polygon fill="#CC924C" stroke="#333333" stroke-width="1.0616" stroke-linecap="round" stroke-linejoin="round" stroke-miterlimit="10" points="
			320.479,157.824 308.884,169.785 309.07,166.797 		"/>
		
			<polygon fill="#CC924C" stroke="#333333" stroke-width="1.0616" stroke-linecap="round" stroke-linejoin="round" stroke-miterlimit="10" points="
			316.598,129.607 310.991,135.971 311.113,134.041 		"/>
		<g>
			
				<path fill="#A1C453" stroke="#333333" stroke-width="1.5923" stroke-linecap="round" stroke-linejoin="round" stroke-miterlimit="10" d="
				M320.004,175.589c-2.843-0.297-4.109-2.041-8.854,1.636c-4.746,3.676-0.089,5.292-3.211,7.711
				c3.122-2.419,3.774,2.457,8.344-1.084C320.854,180.312,319.348,178.364,320.004,175.589z"/>
			<g>
				<line fill="none" x1="307.939" y1="184.936" x2="317.288" y2="177.691"/>
				<g>
					<polyline fill="none" stroke="#333333" stroke-width="1.0616" stroke-linecap="round" stroke-miterlimit="10" points="
						308.359,184.61 308.902,184.189 315.078,179.403 315.552,179.037 					"/>
					
						<line fill="none" stroke="#333333" stroke-width="1.0616" stroke-linecap="round" stroke-miterlimit="10" x1="316.868" y1="178.017" x2="316.811" y2="178.063"/>
				</g>
			</g>
		</g>
		<g>
			
				<path fill="#A1C453" stroke="#333333" stroke-width="1.5923" stroke-linecap="round" stroke-linejoin="round" stroke-miterlimit="10" d="
				M292.134,154.464c-0.467,2.817-2.282,3.979,1.104,8.937c3.386,4.957,5.275,0.403,7.503,3.668
				c-2.228-3.265,2.681-3.621-0.58-8.396C296.899,153.897,294.866,155.285,292.134,154.464z"/>
			<g>
				<line fill="none" x1="300.74" y1="167.068" x2="294.071" y2="157.299"/>
				<g>
					<polyline fill="none" stroke="#333333" stroke-width="1.0616" stroke-linecap="round" stroke-miterlimit="10" points="
						300.441,166.63 300.054,166.063 295.647,159.607 295.311,159.114 					"/>
					
						<line fill="none" stroke="#333333" stroke-width="1.0616" stroke-linecap="round" stroke-miterlimit="10" x1="294.37" y1="157.737" x2="294.413" y2="157.799"/>
				</g>
			</g>
		</g>
		<g>
			
				<path fill="#A1C453" stroke="#333333" stroke-width="1.5923" stroke-linecap="round" stroke-linejoin="round" stroke-miterlimit="10" d="
				M324.85,141.179c-2.771,1.651-5.092,0.931-6.899,7.461c-1.808,6.528,3.496,4.843,2.307,9.14c1.189-4.297,5.07-0.328,6.811-6.615
				C328.809,144.875,326.133,144.133,324.85,141.179z"/>
			<g>
				<line fill="none" x1="320.256" y1="157.779" x2="323.818" y2="144.914"/>
				<g>
					<polyline fill="none" stroke="#333333" stroke-width="1.0616" stroke-linecap="round" stroke-miterlimit="10" points="
						320.397,157.268 320.58,156.605 323.072,147.608 323.231,147.032 					"/>
					
						<line fill="none" stroke="#333333" stroke-width="1.0616" stroke-linecap="round" stroke-miterlimit="10" x1="323.677" y1="145.426" x2="323.656" y2="145.498"/>
				</g>
			</g>
		</g>
		<g>
			
				<path fill="#A1C453" stroke="#333333" stroke-width="1.5923" stroke-linecap="round" stroke-linejoin="round" stroke-miterlimit="10" d="
				M335.28,149.759c-3.126-0.79-4.261-2.943-10.153,0.396c-5.896,3.339-0.953,5.897-4.833,8.092c3.88-2.194,3.818,3.354,9.493,0.14
				C335.466,155.171,334.097,152.754,335.28,149.759z"/>
			<g>
				<line fill="none" x1="320.293" y1="158.247" x2="331.906" y2="151.67"/>
				<g>
					<polyline fill="none" stroke="#333333" stroke-width="1.0616" stroke-linecap="round" stroke-miterlimit="10" points="
						320.755,157.985 321.354,157.646 329.475,153.047 329.994,152.753 					"/>
					
						<line fill="none" stroke="#333333" stroke-width="1.0616" stroke-linecap="round" stroke-miterlimit="10" x1="331.445" y1="151.932" x2="331.381" y2="151.969"/>
				</g>
			</g>
		</g>
		<g>
			
				<path fill="#A1C453" stroke="#333333" stroke-width="1.5923" stroke-linecap="round" stroke-linejoin="round" stroke-miterlimit="10" d="
				M324.949,120.1c-2.55,0.213-3.956-1.109-7.518,2.913c-3.562,4.025,0.804,4.671-1.539,7.317c2.343-2.646,3.728,1.532,7.158-2.343
				C326.481,124.112,324.831,122.652,324.949,120.1z"/>
			<g>
				<line fill="none" x1="315.894" y1="130.33" x2="322.91" y2="122.402"/>
				<g>
					<polyline fill="none" stroke="#333333" stroke-width="1.0616" stroke-linecap="round" stroke-miterlimit="10" points="
						316.244,129.933 316.7,129.418 321.059,124.495 321.453,124.048 					"/>
					
						<line fill="none" stroke="#333333" stroke-width="1.0616" stroke-linecap="round" stroke-miterlimit="10" x1="322.56" y1="122.8" x2="322.51" y2="122.855"/>
				</g>
			</g>
		</g>
		<g>
			
				<path fill="#A1C453" stroke="#333333" stroke-width="0.8493" stroke-linecap="round" stroke-linejoin="round" stroke-miterlimit="10" d="
				M322.816,129.666c-0.897-0.76-0.927-1.649-3.395-1.5c-2.47,0.152-1.258,1.783-2.884,1.883c1.626-0.1,0.716,1.711,3.094,1.566
				C322.011,131.471,321.948,130.459,322.816,129.666z"/>
			<g>
				<line fill="none" x1="316.538" y1="130.049" x2="321.404" y2="129.752"/>
				<g>
					<polyline fill="none" stroke="#333333" stroke-width="1.0616" stroke-linecap="round" stroke-miterlimit="10" points="
						317.068,130.017 317.755,129.975 318.614,129.922 319.211,129.886 					"/>
					
						<line fill="none" stroke="#333333" stroke-width="1.0616" stroke-linecap="round" stroke-miterlimit="10" x1="320.875" y1="129.784" x2="320.8" y2="129.789"/>
				</g>
			</g>
		</g>
		<g>
			
				<path fill="#A1C453" stroke="#333333" stroke-width="1.0616" stroke-linecap="round" stroke-linejoin="round" stroke-miterlimit="10" d="
				M294.737,136.991c0.771,1.05,0.573,2.012,3.271,2.483c2.695,0.471,1.811-1.594,3.585-1.285c-1.774-0.309-0.329-2.025-2.928-2.48
				C296.068,135.254,295.876,136.36,294.737,136.991z"/>
			<g>
				<line fill="none" x1="301.593" y1="138.189" x2="296.279" y2="137.261"/>
				<g>
					<polyline fill="none" stroke="#333333" stroke-width="0.8493" stroke-linecap="round" stroke-miterlimit="10" points="
						301.175,138.116 300.633,138.021 298.482,137.646 298.012,137.563 					"/>
					
						<line fill="none" stroke="#333333" stroke-width="0.8493" stroke-linecap="round" stroke-miterlimit="10" x1="296.697" y1="137.334" x2="296.757" y2="137.344"/>
				</g>
			</g>
		</g>
		<g>
			
				<path fill="#A1C453" stroke="#333333" stroke-width="1.5923" stroke-linecap="round" stroke-linejoin="round" stroke-miterlimit="10" d="
				M292.051,123.979c-0.485,3.189-2.517,4.525,1.377,10.069c3.895,5.544,5.96,0.378,8.521,4.026c-2.563-3.648,2.97-4.125-0.78-9.463
				C297.419,123.271,295.146,124.868,292.051,123.979z"/>
			<g>
				<line fill="none" x1="301.949" y1="138.074" x2="294.279" y2="127.151"/>
				<g>
					<polyline fill="none" stroke="#333333" stroke-width="1.0616" stroke-linecap="round" stroke-miterlimit="10" points="
						301.646,137.64 301.25,137.077 295.886,129.439 295.542,128.95 					"/>
					
						<line fill="none" stroke="#333333" stroke-width="1.0616" stroke-linecap="round" stroke-miterlimit="10" x1="294.584" y1="127.586" x2="294.627" y2="127.646"/>
				</g>
			</g>
		</g>
		<g>
			
				<path fill="#A1C453" stroke="#333333" stroke-width="1.5923" stroke-linecap="round" stroke-linejoin="round" stroke-miterlimit="10" d="
				M290.211,145.316c2.462,0.602,3.366,2.286,7.976-0.373c4.61-2.659,0.712-4.637,3.748-6.387c-3.036,1.75-3.021-2.613-7.46-0.052
				S291.123,142.957,290.211,145.316z"/>
			<g>
				<line fill="none" x1="301.935" y1="138.557" x2="292.851" y2="143.794"/>
				<g>
					<polyline fill="none" stroke="#333333" stroke-width="1.0616" stroke-linecap="round" stroke-miterlimit="10" points="
						301.475,138.822 300.879,139.165 295.272,142.397 294.755,142.696 					"/>
					
						<line fill="none" stroke="#333333" stroke-width="1.0616" stroke-linecap="round" stroke-miterlimit="10" x1="293.311" y1="143.529" x2="293.375" y2="143.491"/>
				</g>
			</g>
		</g>
		<g>
			<g>
				<path fill="#EF4529" d="M300.636,175.539c-2.312,2.921-8.194,3.596-9.468,1.106c-3.034-0.692-3.415-6.548-1.106-9.47
					c2.311-2.918,6.023-4.672,9.123-0.303C303.931,168.766,302.944,172.621,300.636,175.539z"/>
				<g>
					<path fill="none" stroke="#333333" stroke-width="1.5923" stroke-linecap="round" stroke-miterlimit="10" d="M300.093,176.12
						c-0.261,0.226-0.519,0.454-0.812,0.636c-1.357,0.911-2.993,1.381-4.622,1.414c-0.813,0.007-1.649-0.103-2.383-0.476
						c-0.354-0.199-0.698-0.438-0.927-0.779l-0.172-0.254c-0.082-0.053-0.188-0.072-0.282-0.11
						c-0.199-0.053-0.378-0.151-0.547-0.269c-0.688-0.448-1.133-1.188-1.396-1.955c-0.267-0.772-0.373-1.593-0.378-2.409
						c0.022-1.622,0.42-3.294,1.396-4.615c0.989-1.28,2.271-2.434,3.854-2.896c0.784-0.224,1.637-0.219,2.411,0.044
						c0.784,0.249,1.457,0.758,2.027,1.334c0.299,0.28,0.544,0.608,0.795,0.931c0.1,0.194,0.321,0.234,0.499,0.329
						c0.183,0.09,0.378,0.158,0.551,0.267c0.719,0.386,1.37,0.918,1.826,1.597c0.457,0.678,0.658,1.512,0.605,2.325
						c0.007,0.2-0.049,0.418-0.07,0.595c-0.017,0.098-0.027,0.195-0.059,0.289c-0.055,0.188-0.097,0.382-0.161,0.566"/>
					
						<line fill="none" stroke="#333333" stroke-width="1.5923" stroke-linecap="round" stroke-miterlimit="10" x1="301.107" y1="174.897" x2="301.169" y2="174.805"/>
				</g>
			</g>
			<path opacity="0.5" fill="#FFFFFF" enable-background="new    " d="M294.089,168.248c-0.815,0.244-1.639-0.102-1.837-0.773
				c-0.199-0.672,0.3-1.414,1.115-1.658c0.816-0.244,1.641,0.104,1.84,0.775C295.406,167.263,294.905,168.005,294.089,168.248z"/>
		</g>
		<g>
			<g>
				<path fill="#D3F46C" d="M328.409,162.189c0.733,3.65-2.56,8.574-5.28,7.936c-2.49,1.865-7.2-1.633-7.936-5.283
					c-0.73-3.648,0.332-7.615,5.669-7.152C325.378,155.295,327.679,158.541,328.409,162.189z"/>
				<g>
					<path fill="none" stroke="#333333" stroke-width="1.5923" stroke-linecap="round" stroke-miterlimit="10" d="M328.502,162.979
						c0.004,0.344,0.013,0.688-0.039,1.029c-0.186,1.625-0.886,3.176-1.913,4.439c-0.521,0.624-1.146,1.191-1.902,1.509
						c-0.381,0.141-0.787,0.25-1.194,0.203l-0.305-0.033c-0.094,0.028-0.178,0.097-0.267,0.144c-0.17,0.118-0.36,0.19-0.56,0.243
						c-0.788,0.236-1.64,0.094-2.394-0.2c-0.761-0.298-1.456-0.747-2.081-1.271c-1.222-1.067-2.239-2.451-2.614-4.052
						c-0.336-1.582-0.389-3.305,0.283-4.81c0.337-0.744,0.892-1.391,1.594-1.812c0.697-0.437,1.521-0.621,2.329-0.682
						c0.407-0.048,0.815-0.022,1.224-0.006c0.214,0.051,0.387-0.094,0.573-0.167c0.188-0.081,0.365-0.187,0.562-0.248
						c0.759-0.298,1.586-0.45,2.396-0.359c0.813,0.09,1.579,0.477,2.166,1.042c0.156,0.125,0.287,0.308,0.407,0.439
						c0.063,0.074,0.131,0.146,0.184,0.23c0.108,0.164,0.229,0.32,0.327,0.49"/>
					
						<line fill="none" stroke="#333333" stroke-width="1.5923" stroke-linecap="round" stroke-miterlimit="10" x1="328.227" y1="161.415" x2="328.195" y2="161.308"/>
				</g>
			</g>
			
				<ellipse transform="matrix(0.4029 -0.9153 0.9153 0.4029 41.3347 387.2775)" opacity="0.5" fill="#FFFFFF" enable-background="new    " cx="317.471" cy="161.96" rx="1.543" ry="1.268"/>
		</g>
		<path fill="#CC924C" stroke="#333333" stroke-width="2.6539" stroke-linecap="round" stroke-miterlimit="10" d="M302.075,205.916
			l5.979-87.36c0.068-1.106,1.021-1.948,2.13-1.88l0,0c1.104,0.07,1.946,1.023,1.878,2.13l-4.922,87.426"/>
		<g>
			
				<path fill="#A1C453" stroke="#333333" stroke-width="1.0616" stroke-linecap="round" stroke-linejoin="round" stroke-miterlimit="10" d="
				M311.74,116.613c0,0-1.005-2.959-1.358-3.489c-0.28-0.427-1.171,2.796-1.28,4.011L311.74,116.613z"/>
			
				<path fill="#A1C453" stroke="#333333" stroke-width="1.0616" stroke-linecap="round" stroke-linejoin="round" stroke-miterlimit="10" d="
				M309.293,116.208l2.983,3.772c0,0,1.002-4.678-0.067-6.369C312.209,113.611,310.651,115.331,309.293,116.208z"/>
			
				<path fill="#A1C453" stroke="#333333" stroke-width="1.0616" stroke-linecap="round" stroke-linejoin="round" stroke-miterlimit="10" d="
				M308.317,121.864c0,0-2.011-5.59-0.041-8.497l2.672,3.748L308.317,121.864z"/>
		</g>
	</g>
</g>
<g id="calque08">
	<g>
		
			<polygon fill="#CC924C" stroke="#333333" stroke-width="1.0616" stroke-linecap="round" stroke-linejoin="round" stroke-miterlimit="10" points="
			300.74,167.068 304.502,175.547 304.689,172.557 		"/>
		
			<polygon fill="#CC924C" stroke="#333333" stroke-width="1.0616" stroke-linecap="round" stroke-linejoin="round" stroke-miterlimit="10" points="
			301.949,138.074 306.451,144.291 306.638,141.302 		"/>
		
			<polygon fill="#CC924C" stroke="#333333" stroke-width="1.0616" stroke-linecap="round" stroke-linejoin="round" stroke-miterlimit="10" points="
			320.479,157.824 308.884,169.785 309.07,166.797 		"/>
		
			<polygon fill="#CC924C" stroke="#333333" stroke-width="1.0616" stroke-linecap="round" stroke-linejoin="round" stroke-miterlimit="10" points="
			316.598,129.607 310.991,135.971 311.113,134.041 		"/>
		<g>
			
				<path fill="#A1C453" stroke="#333333" stroke-width="1.5923" stroke-linecap="round" stroke-linejoin="round" stroke-miterlimit="10" d="
				M320.004,175.589c-2.843-0.297-4.109-2.041-8.854,1.636c-4.746,3.676-0.089,5.292-3.211,7.711
				c3.122-2.419,3.774,2.457,8.344-1.084C320.854,180.312,319.347,178.364,320.004,175.589z"/>
			<g>
				<line fill="none" x1="307.939" y1="184.936" x2="317.288" y2="177.691"/>
				<g>
					<polyline fill="none" stroke="#333333" stroke-width="1.0616" stroke-linecap="round" stroke-miterlimit="10" points="
						308.359,184.61 308.902,184.189 315.078,179.403 315.552,179.037 					"/>
					
						<line fill="none" stroke="#333333" stroke-width="1.0616" stroke-linecap="round" stroke-miterlimit="10" x1="316.868" y1="178.017" x2="316.811" y2="178.063"/>
				</g>
			</g>
		</g>
		<g>
			
				<path fill="#A1C453" stroke="#333333" stroke-width="1.5923" stroke-linecap="round" stroke-linejoin="round" stroke-miterlimit="10" d="
				M292.134,154.464c-0.467,2.817-2.282,3.979,1.104,8.937c3.386,4.957,5.275,0.403,7.503,3.668
				c-2.228-3.265,2.681-3.621-0.58-8.396C296.899,153.897,294.866,155.285,292.134,154.464z"/>
			<g>
				<line fill="none" x1="300.74" y1="167.068" x2="294.071" y2="157.299"/>
				<g>
					<polyline fill="none" stroke="#333333" stroke-width="1.0616" stroke-linecap="round" stroke-miterlimit="10" points="
						300.441,166.63 300.054,166.063 295.647,159.607 295.311,159.114 					"/>
					
						<line fill="none" stroke="#333333" stroke-width="1.0616" stroke-linecap="round" stroke-miterlimit="10" x1="294.37" y1="157.737" x2="294.413" y2="157.799"/>
				</g>
			</g>
		</g>
		<g>
			
				<path fill="#A1C453" stroke="#333333" stroke-width="1.5923" stroke-linecap="round" stroke-linejoin="round" stroke-miterlimit="10" d="
				M324.85,141.179c-2.771,1.651-5.092,0.931-6.899,7.461c-1.808,6.528,3.496,4.843,2.307,9.14c1.189-4.297,5.07-0.328,6.811-6.615
				C328.809,144.875,326.133,144.133,324.85,141.179z"/>
			<g>
				<line fill="none" x1="320.256" y1="157.779" x2="323.818" y2="144.914"/>
				<g>
					<polyline fill="none" stroke="#333333" stroke-width="1.0616" stroke-linecap="round" stroke-miterlimit="10" points="
						320.397,157.268 320.58,156.605 323.072,147.608 323.231,147.032 					"/>
					
						<line fill="none" stroke="#333333" stroke-width="1.0616" stroke-linecap="round" stroke-miterlimit="10" x1="323.677" y1="145.426" x2="323.656" y2="145.498"/>
				</g>
			</g>
		</g>
		<g>
			
				<path fill="#A1C453" stroke="#333333" stroke-width="1.5923" stroke-linecap="round" stroke-linejoin="round" stroke-miterlimit="10" d="
				M335.28,149.759c-3.127-0.79-4.261-2.943-10.153,0.396c-5.896,3.339-0.953,5.897-4.833,8.092c3.88-2.194,3.818,3.354,9.493,0.14
				C335.466,155.171,334.097,152.754,335.28,149.759z"/>
			<g>
				<line fill="none" x1="320.293" y1="158.247" x2="331.906" y2="151.67"/>
				<g>
					<polyline fill="none" stroke="#333333" stroke-width="1.0616" stroke-linecap="round" stroke-miterlimit="10" points="
						320.755,157.985 321.354,157.646 329.475,153.047 329.994,152.753 					"/>
					
						<line fill="none" stroke="#333333" stroke-width="1.0616" stroke-linecap="round" stroke-miterlimit="10" x1="331.445" y1="151.932" x2="331.381" y2="151.969"/>
				</g>
			</g>
		</g>
		<g>
			
				<path fill="#A1C453" stroke="#333333" stroke-width="1.5923" stroke-linecap="round" stroke-linejoin="round" stroke-miterlimit="10" d="
				M325.073,120.074c-2.549,0.213-3.954-1.111-7.516,2.912c-3.563,4.024,0.805,4.67-1.539,7.316
				c2.344-2.646,3.727,1.533,7.158-2.342C326.607,124.085,324.956,122.625,325.073,120.074z"/>
			<g>
				<line fill="none" x1="316.019" y1="130.303" x2="323.034" y2="122.375"/>
				<g>
					<polyline fill="none" stroke="#333333" stroke-width="1.0616" stroke-linecap="round" stroke-miterlimit="10" points="
						316.369,129.905 316.825,129.391 321.183,124.469 321.577,124.021 					"/>
					
						<line fill="none" stroke="#333333" stroke-width="1.0616" stroke-linecap="round" stroke-miterlimit="10" x1="322.684" y1="122.772" x2="322.634" y2="122.828"/>
				</g>
			</g>
		</g>
		<g>
			
				<path fill="#A1C453" stroke="#333333" stroke-width="1.5923" stroke-linecap="round" stroke-linejoin="round" stroke-miterlimit="10" d="
				M329.996,129.488c-1.951-1.652-2.009-3.58-7.373-3.253c-5.363,0.325-2.732,3.87-6.263,4.084c3.529-0.214,1.553,3.72,6.719,3.405
				C328.244,133.41,328.112,131.211,329.996,129.488z"/>
			<g>
				<line fill="none" x1="316.361" y1="130.319" x2="326.929" y2="129.676"/>
				<g>
					<polyline fill="none" stroke="#333333" stroke-width="1.0616" stroke-linecap="round" stroke-miterlimit="10" points="
						316.892,130.287 317.576,130.245 324.139,129.846 324.735,129.81 					"/>
					
						<line fill="none" stroke="#333333" stroke-width="1.0616" stroke-linecap="round" stroke-miterlimit="10" x1="326.398" y1="129.708" x2="326.323" y2="129.713"/>
				</g>
			</g>
		</g>
		<g>
			
				<path fill="#A1C453" stroke="#333333" stroke-width="1.5923" stroke-linecap="round" stroke-linejoin="round" stroke-miterlimit="10" d="
				M284.521,135.189c1.912,2.598,1.42,4.979,8.091,6.147c6.675,1.166,4.483-3.949,8.874-3.18c-4.391-0.77-0.815-5.017-7.241-6.141
				C287.814,130.893,287.336,133.629,284.521,135.189z"/>
			<g>
				<line fill="none" x1="301.485" y1="138.157" x2="288.339" y2="135.857"/>
				<g>
					<polyline fill="none" stroke="#333333" stroke-width="1.0616" stroke-linecap="round" stroke-miterlimit="10" points="
						300.963,138.065 300.284,137.947 291.093,136.339 290.504,136.236 					"/>
					
						<line fill="none" stroke="#333333" stroke-width="1.0616" stroke-linecap="round" stroke-miterlimit="10" x1="288.861" y1="135.949" x2="288.936" y2="135.962"/>
				</g>
			</g>
		</g>
		<g>
			
				<path fill="#A1C453" stroke="#333333" stroke-width="1.5923" stroke-linecap="round" stroke-linejoin="round" stroke-miterlimit="10" d="
				M292.051,123.979c-0.485,3.189-2.517,4.525,1.377,10.069c3.895,5.544,5.96,0.378,8.521,4.026c-2.563-3.648,2.97-4.125-0.78-9.463
				C297.419,123.271,295.146,124.868,292.051,123.979z"/>
			<g>
				<line fill="none" x1="301.949" y1="138.074" x2="294.279" y2="127.151"/>
				<g>
					<polyline fill="none" stroke="#333333" stroke-width="1.0616" stroke-linecap="round" stroke-miterlimit="10" points="
						301.646,137.64 301.25,137.077 295.886,129.439 295.542,128.95 					"/>
					
						<line fill="none" stroke="#333333" stroke-width="1.0616" stroke-linecap="round" stroke-miterlimit="10" x1="294.584" y1="127.586" x2="294.627" y2="127.646"/>
				</g>
			</g>
		</g>
		<g>
			
				<path fill="#A1C453" stroke="#333333" stroke-width="1.5923" stroke-linecap="round" stroke-linejoin="round" stroke-miterlimit="10" d="
				M290.211,145.316c2.462,0.602,3.366,2.286,7.976-0.373c4.61-2.659,0.712-4.637,3.748-6.387c-3.036,1.75-3.021-2.613-7.46-0.052
				C290.033,141.066,291.123,142.957,290.211,145.316z"/>
			<g>
				<line fill="none" x1="301.935" y1="138.557" x2="292.851" y2="143.794"/>
				<g>
					<polyline fill="none" stroke="#333333" stroke-width="1.0616" stroke-linecap="round" stroke-miterlimit="10" points="
						301.475,138.822 300.879,139.165 295.272,142.397 294.755,142.696 					"/>
					
						<line fill="none" stroke="#333333" stroke-width="1.0616" stroke-linecap="round" stroke-miterlimit="10" x1="293.311" y1="143.529" x2="293.375" y2="143.491"/>
				</g>
			</g>
		</g>
		<g>
			<g>
				<path fill="#EF4529" d="M300.636,175.539c-2.312,2.921-8.194,3.596-9.468,1.106c-3.034-0.692-3.415-6.548-1.106-9.47
					c2.311-2.918,6.023-4.672,9.123-0.303C303.931,168.766,302.944,172.621,300.636,175.539z"/>
				<g>
					<path fill="none" stroke="#333333" stroke-width="1.5923" stroke-linecap="round" stroke-miterlimit="10" d="M300.093,176.12
						c-0.261,0.226-0.519,0.454-0.812,0.636c-1.357,0.911-2.993,1.381-4.622,1.414c-0.813,0.007-1.649-0.103-2.383-0.476
						c-0.354-0.199-0.698-0.438-0.927-0.779l-0.172-0.254c-0.082-0.053-0.188-0.072-0.282-0.11
						c-0.199-0.053-0.378-0.151-0.547-0.269c-0.688-0.448-1.133-1.188-1.396-1.955c-0.267-0.772-0.373-1.593-0.378-2.409
						c0.022-1.622,0.42-3.294,1.396-4.615c0.989-1.28,2.271-2.434,3.854-2.896c0.784-0.224,1.637-0.219,2.411,0.044
						c0.784,0.249,1.457,0.758,2.027,1.334c0.299,0.28,0.544,0.608,0.795,0.931c0.1,0.194,0.321,0.234,0.499,0.329
						c0.183,0.09,0.378,0.158,0.551,0.267c0.719,0.386,1.37,0.918,1.826,1.597c0.457,0.678,0.658,1.512,0.605,2.325
						c0.007,0.2-0.049,0.418-0.07,0.595c-0.017,0.098-0.027,0.195-0.059,0.289c-0.055,0.188-0.097,0.382-0.161,0.566"/>
					
						<line fill="none" stroke="#333333" stroke-width="1.5923" stroke-linecap="round" stroke-miterlimit="10" x1="301.107" y1="174.897" x2="301.169" y2="174.805"/>
				</g>
			</g>
			<path opacity="0.5" fill="#FFFFFF" enable-background="new    " d="M294.089,168.248c-0.815,0.244-1.639-0.102-1.837-0.773
				c-0.2-0.672,0.3-1.414,1.115-1.658c0.816-0.244,1.641,0.104,1.84,0.775C295.406,167.263,294.905,168.005,294.089,168.248z"/>
		</g>
		<g>
			<g>
				<path fill="#EF4529" d="M328.409,162.189c0.733,3.65-2.56,8.574-5.28,7.936c-2.49,1.865-7.2-1.633-7.936-5.283
					c-0.73-3.648,0.332-7.615,5.669-7.152C325.378,155.295,327.679,158.541,328.409,162.189z"/>
				<g>
					<path fill="none" stroke="#333333" stroke-width="1.5923" stroke-linecap="round" stroke-miterlimit="10" d="M328.502,162.979
						c0.004,0.344,0.013,0.688-0.039,1.029c-0.186,1.625-0.886,3.176-1.913,4.439c-0.521,0.624-1.146,1.191-1.902,1.509
						c-0.381,0.141-0.787,0.25-1.194,0.203l-0.305-0.033c-0.094,0.028-0.178,0.097-0.267,0.144c-0.17,0.118-0.36,0.19-0.56,0.243
						c-0.788,0.236-1.64,0.094-2.394-0.2c-0.761-0.298-1.456-0.747-2.081-1.271c-1.222-1.067-2.239-2.451-2.614-4.052
						c-0.336-1.582-0.389-3.305,0.283-4.81c0.337-0.744,0.892-1.391,1.594-1.812c0.697-0.437,1.521-0.621,2.329-0.682
						c0.407-0.048,0.815-0.022,1.224-0.006c0.214,0.051,0.387-0.094,0.573-0.167c0.188-0.081,0.365-0.187,0.562-0.248
						c0.759-0.298,1.586-0.45,2.396-0.359c0.813,0.09,1.579,0.477,2.166,1.042c0.156,0.125,0.287,0.308,0.407,0.439
						c0.063,0.074,0.131,0.146,0.184,0.23c0.108,0.164,0.229,0.32,0.327,0.49"/>
					
						<line fill="none" stroke="#333333" stroke-width="1.5923" stroke-linecap="round" stroke-miterlimit="10" x1="328.227" y1="161.415" x2="328.195" y2="161.308"/>
				</g>
			</g>
			
				<ellipse transform="matrix(0.4032 -0.9151 0.9151 0.4032 41.2774 387.1723)" opacity="0.5" fill="#FFFFFF" enable-background="new    " cx="317.466" cy="161.941" rx="1.542" ry="1.268"/>
		</g>
		<path fill="#CC924C" stroke="#333333" stroke-width="2.6539" stroke-linecap="round" stroke-miterlimit="10" d="M302.075,205.916
			l5.979-87.36c0.068-1.106,1.021-1.948,2.13-1.88l0,0c1.104,0.07,1.946,1.023,1.878,2.13l-4.922,87.426"/>
		<g>
			
				<path fill="#A1C453" stroke="#333333" stroke-width="1.0616" stroke-linecap="round" stroke-linejoin="round" stroke-miterlimit="10" d="
				M311.74,116.613c0,0-1.005-2.959-1.358-3.489c-0.28-0.427-1.171,2.796-1.28,4.011L311.74,116.613z"/>
			
				<path fill="#A1C453" stroke="#333333" stroke-width="1.0616" stroke-linecap="round" stroke-linejoin="round" stroke-miterlimit="10" d="
				M309.293,116.208l2.983,3.772c0,0,1.002-4.678-0.067-6.369C312.209,113.611,310.651,115.331,309.293,116.208z"/>
			
				<path fill="#A1C453" stroke="#333333" stroke-width="1.0616" stroke-linecap="round" stroke-linejoin="round" stroke-miterlimit="10" d="
				M308.317,121.864c0,0-2.011-5.59-0.041-8.497l2.672,3.748L308.317,121.864z"/>
		</g>
	</g>
</g>
</svg>
