<?xml version="1.0" encoding="utf-8"?>
<!-- Generator: Adobe Illustrator 16.0.0, SVG Export Plug-In . SVG Version: 6.00 Build 0)  -->
<!DOCTYPE svg PUBLIC "-//W3C//DTD SVG 1.1//EN" "http://www.w3.org/Graphics/SVG/1.1/DTD/svg11.dtd">
<svg version="1.1" id="Calque_1" xmlns="http://www.w3.org/2000/svg" xmlns:xlink="http://www.w3.org/1999/xlink" x="0px" y="0px"
	 width="320px" height="410px" viewBox="0 0 320 410" enable-background="new 0 0 320 410" xml:space="preserve">
<g id="calque01">
	<g>
		<path fill="#CC924C" stroke="#333333" stroke-width="2.4893" stroke-linecap="round" stroke-miterlimit="10" d="M101.971,206.322
			l8.661-1.676c1.007-0.255,2.032,0.356,2.287,1.363l0,0c0.255,1.009-0.355,2.032-1.363,2.287l-8.417,2.644"/>
		<g>
			
				<path fill="#A1C453" stroke="#333333" stroke-width="0.9957" stroke-linecap="round" stroke-linejoin="round" stroke-miterlimit="10" d="
				M113.422,207.382c0,0,2.354-1.743,2.729-2.211c0.301-0.373-2.833-0.246-3.95,0.002L113.422,207.382z"/>
			
				<path fill="#A1C453" stroke="#333333" stroke-width="0.9957" stroke-linecap="round" stroke-linejoin="round" stroke-miterlimit="10" d="
				M113.082,205.08l-2.516,3.742c0,0,4.466-0.439,5.669-1.881C116.236,206.941,114.255,206.043,113.082,205.08z"/>
			
				<path fill="#A1C453" stroke="#333333" stroke-width="0.9957" stroke-linecap="round" stroke-linejoin="round" stroke-miterlimit="10" d="
				M107.752,205.826c0,0,4.417-3.396,7.578-2.467l-2.585,3.459L107.752,205.826z"/>
		</g>
	</g>
</g>
<g id="calque02">
	<g>
		<g>
			
				<path fill="#A1C453" stroke="#333333" stroke-width="0.9957" stroke-linecap="round" stroke-linejoin="round" stroke-miterlimit="10" d="
				M122.979,196.129c0.353,1.179,1.188,1.576,0.013,3.874c-1.18,2.298-2.231,0.457-3.007,1.97c0.775-1.513-1.338-1.401-0.204-3.614
				C120.914,196.145,121.857,196.627,122.979,196.129z"/>
			<g>
				<line fill="none" x1="119.984" y1="201.973" x2="122.305" y2="197.444"/>
				<g>
					<polyline fill="none" stroke="#333333" stroke-width="0.9957" stroke-linecap="round" stroke-miterlimit="10" points="
						120.211,201.529 120.506,200.955 121.109,199.777 121.365,199.279 					"/>
					
						<line fill="none" stroke="#333333" stroke-width="0.9957" stroke-linecap="round" stroke-miterlimit="10" x1="122.078" y1="197.888" x2="122.046" y2="197.949"/>
				</g>
			</g>
		</g>
		<path fill="#CC924C" stroke="#333333" stroke-width="2.4893" stroke-linecap="round" stroke-miterlimit="10" d="M103.139,210.939
			l26.424-7.198c1.008-0.254,1.619-1.279,1.364-2.287l0,0c-0.255-1.007-1.28-1.617-2.288-1.363l-26.668,6.231"/>
		<g>
			
				<path fill="#A1C453" stroke="#333333" stroke-width="0.9957" stroke-linecap="round" stroke-linejoin="round" stroke-miterlimit="10" d="
				M130.716,200.009c0,0,2.902,0.414,3.452,0.649c0.441,0.185-2.375,1.563-3.478,1.875L130.716,200.009z"/>
			
				<path fill="#A1C453" stroke="#333333" stroke-width="0.9957" stroke-linecap="round" stroke-linejoin="round" stroke-miterlimit="10" d="
				M131.512,202.196l-3.993-2.098c0,0,4.139-1.736,5.883-1.041C133.402,199.058,132.086,200.792,131.512,202.196z"/>
			
				<path fill="#A1C453" stroke="#333333" stroke-width="0.9957" stroke-linecap="round" stroke-linejoin="round" stroke-miterlimit="10" d="
				M126.468,204.073c0,0,5.5,0.888,7.841-1.434l-3.92-1.813L126.468,204.073z"/>
		</g>
	</g>
</g>
<g id="calque03">
	<g>
		<g>
			
				<path fill="#A1C453" stroke="#333333" stroke-width="1.4936" stroke-linecap="round" stroke-linejoin="round" stroke-miterlimit="10" d="
				M122.456,187.874c1.493,2.227,3.494,2.511,2.528,8.059c-0.965,5.547-4.349,2.395-4.983,6.045c0.635-3.65-3.693-2.051-2.764-7.393
				C118.168,189.242,120.442,189.638,122.456,187.874z"/>
			<g>
				<line fill="none" x1="120.001" y1="201.978" x2="121.902" y2="191.048"/>
				<g>
					<polyline fill="none" stroke="#333333" stroke-width="0.9957" stroke-linecap="round" stroke-miterlimit="10" points="
						120.086,201.487 120.197,200.852 121.453,193.631 121.549,193.079 					"/>
					
						<line fill="none" stroke="#333333" stroke-width="0.9957" stroke-linecap="round" stroke-miterlimit="10" x1="121.817" y1="191.538" x2="121.805" y2="191.607"/>
				</g>
			</g>
		</g>
		<g>
			
				<path fill="#A1C453" stroke="#333333" stroke-width="0.9957" stroke-linecap="round" stroke-linejoin="round" stroke-miterlimit="10" d="
				M131.578,208.865c-1.192,0.186-1.689,0.947-3.77-0.502c-2.081-1.449-0.148-2.229-1.518-3.184c1.368,0.954,1.539-1.116,3.542,0.28
				C131.836,206.855,131.242,207.709,131.578,208.865z"/>
			<g>
				<line fill="none" x1="126.292" y1="205.18" x2="129.916" y2="207.744"/>
				<g>
					<polyline fill="none" stroke="#333333" stroke-width="0.9957" stroke-linecap="round" stroke-miterlimit="10" points="
						126.698,205.467 127.225,205.84 127.775,206.229 128.233,206.555 					"/>
					
						<line fill="none" stroke="#333333" stroke-width="0.9957" stroke-linecap="round" stroke-miterlimit="10" x1="129.509" y1="207.457" x2="129.452" y2="207.416"/>
				</g>
			</g>
		</g>
		<path fill="#CC924C" stroke="#333333" stroke-width="2.4893" stroke-linecap="round" stroke-miterlimit="10" d="M103.139,210.939
			l34.72-9.296c1.009-0.256,1.618-1.278,1.363-2.287l0,0c-0.255-1.008-1.279-1.619-2.287-1.363l-34.963,8.329"/>
		<g>
			
				<path fill="#A1C453" stroke="#333333" stroke-width="0.9957" stroke-linecap="round" stroke-linejoin="round" stroke-miterlimit="10" d="
				M139.011,197.91c0,0,2.901,0.415,3.452,0.649c0.441,0.186-2.375,1.563-3.477,1.874L139.011,197.91z"/>
			
				<path fill="#A1C453" stroke="#333333" stroke-width="0.9957" stroke-linecap="round" stroke-linejoin="round" stroke-miterlimit="10" d="
				M139.808,200.098L135.814,198c0,0,4.139-1.736,5.883-1.04C141.697,196.96,140.382,198.694,139.808,200.098z"/>
			
				<path fill="#A1C453" stroke="#333333" stroke-width="0.9957" stroke-linecap="round" stroke-linejoin="round" stroke-miterlimit="10" d="
				M134.763,201.976c0,0,5.5,0.887,7.84-1.434l-3.92-1.815L134.763,201.976z"/>
		</g>
	</g>
</g>
<g id="calque04">
	<g>
		
			<polygon fill="#CC924C" stroke="#333333" stroke-width="0.9957" stroke-linecap="round" stroke-linejoin="round" stroke-miterlimit="10" points="
			131.196,208.773 124.632,205.404 126.389,204.96 		"/>
		<g>
			
				<path fill="#A1C453" stroke="#333333" stroke-width="1.4936" stroke-linecap="round" stroke-linejoin="round" stroke-miterlimit="10" d="
				M122.532,188.012c1.478,2.236,3.477,2.534,2.476,8.076c-1.003,5.54-4.365,2.364-5.025,6.01c0.66-3.646-3.679-2.073-2.713-7.41
				S120.508,189.763,122.532,188.012z"/>
			<g>
				<line fill="none" x1="119.982" y1="202.098" x2="121.958" y2="191.183"/>
				<g>
					<polyline fill="none" stroke="#333333" stroke-width="0.9957" stroke-linecap="round" stroke-miterlimit="10" points="
						120.071,201.607 120.186,200.973 121.491,193.763 121.591,193.211 					"/>
					
						<line fill="none" stroke="#333333" stroke-width="0.9957" stroke-linecap="round" stroke-miterlimit="10" x1="121.869" y1="191.673" x2="121.857" y2="191.741"/>
				</g>
			</g>
		</g>
		<g>
			
				<path fill="#A1C453" stroke="#333333" stroke-width="0.9957" stroke-linecap="round" stroke-linejoin="round" stroke-miterlimit="10" d="
				M139.411,187.577c0.8,1.729,2.174,2.154,0.876,5.941c-1.299,3.787-3.322,1.195-4.175,3.688c0.853-2.492-2.364-1.853-1.115-5.498
				C136.247,188.06,137.8,188.591,139.411,187.577z"/>
			<g>
				<line fill="none" x1="136.114" y1="197.206" x2="138.668" y2="189.744"/>
				<g>
					<polyline fill="none" stroke="#333333" stroke-width="0.9957" stroke-linecap="round" stroke-miterlimit="10" points="
						136.275,196.735 136.484,196.125 137.819,192.225 138.001,191.694 					"/>
					
						<line fill="none" stroke="#333333" stroke-width="0.9957" stroke-linecap="round" stroke-miterlimit="10" x1="138.507" y1="190.215" x2="138.484" y2="190.281"/>
				</g>
			</g>
		</g>
		<g>
			
				<path fill="#A1C453" stroke="#333333" stroke-width="1.4936" stroke-linecap="round" stroke-linejoin="round" stroke-miterlimit="10" d="
				M142.544,213.591c-0.92-2.215-0.141-3.849-4.753-5.879c-4.614-2.028-3.94,2.056-6.977,0.72c3.036,1.336-0.302,3.769,4.142,5.723
				C139.399,216.109,140.231,214.219,142.544,213.591z"/>
			<g>
				<line fill="none" x1="130.814" y1="208.432" x2="139.904" y2="212.43"/>
				<g>
					<polyline fill="none" stroke="#333333" stroke-width="0.9957" stroke-linecap="round" stroke-miterlimit="10" points="
						131.27,208.631 131.861,208.891 137.504,211.374 138.018,211.6 					"/>
					
						<line fill="none" stroke="#333333" stroke-width="0.9957" stroke-linecap="round" stroke-miterlimit="10" x1="139.449" y1="212.229" x2="139.384" y2="212.201"/>
				</g>
			</g>
		</g>
		<g>
			
				<path fill="#A1C453" stroke="#333333" stroke-width="0.9957" stroke-linecap="round" stroke-linejoin="round" stroke-miterlimit="10" d="
				M133.546,215.82c0.54-1.307,1.545-1.662,0.469-4.432c-1.078-2.77-2.499-0.787-3.207-2.607c0.708,1.82-1.696,1.443-0.66,4.111
				C131.186,215.561,132.322,215.118,133.546,215.82z"/>
			<g>
				<line fill="none" x1="130.809" y1="208.781" x2="132.929" y2="214.236"/>
				<g>
					<polyline fill="none" stroke="#333333" stroke-width="0.9957" stroke-linecap="round" stroke-miterlimit="10" points="
						130.989,209.246 131.223,209.848 131.979,211.793 132.182,212.314 					"/>
					
						<line fill="none" stroke="#333333" stroke-width="0.9957" stroke-linecap="round" stroke-miterlimit="10" x1="132.749" y1="213.771" x2="132.724" y2="213.707"/>
				</g>
			</g>
		</g>
		<path fill="#CC924C" stroke="#333333" stroke-width="2.6551" stroke-linecap="round" stroke-miterlimit="10" d="M103.139,210.939
			l43.309-11.47c1.01-0.255,1.619-1.277,1.364-2.286l0,0c-0.255-1.009-1.278-1.619-2.287-1.364l-43.553,10.503"/>
		<g>
			
				<path fill="#A1C453" stroke="#333333" stroke-width="0.9957" stroke-linecap="round" stroke-linejoin="round" stroke-miterlimit="10" d="
				M147.601,195.737c0,0,2.901,0.414,3.452,0.649c0.442,0.186-2.375,1.564-3.476,1.875L147.601,195.737z"/>
			
				<path fill="#A1C453" stroke="#333333" stroke-width="0.9957" stroke-linecap="round" stroke-linejoin="round" stroke-miterlimit="10" d="
				M148.397,197.925l-3.993-2.098c0,0,4.14-1.735,5.883-1.041C150.286,194.786,148.971,196.521,148.397,197.925z"/>
			
				<path fill="#A1C453" stroke="#333333" stroke-width="0.9957" stroke-linecap="round" stroke-linejoin="round" stroke-miterlimit="10" d="
				M143.353,199.802c0,0,5.5,0.888,7.839-1.434l-3.918-1.813L143.353,199.802z"/>
		</g>
	</g>
</g>
<g id="calque05">
	<g>
		
			<polygon fill="#CC924C" stroke="#333333" stroke-width="0.9957" stroke-linecap="round" stroke-linejoin="round" stroke-miterlimit="10" points="
			143.902,181.959 133.608,198.834 136.332,198.146 		"/>
		
			<polygon fill="#CC924C" stroke="#333333" stroke-width="0.9957" stroke-linecap="round" stroke-linejoin="round" stroke-miterlimit="10" points="
			131.196,208.773 124.632,205.404 126.389,204.96 		"/>
		<g>
			
				<path fill="#A1C453" stroke="#333333" stroke-width="1.4936" stroke-linecap="round" stroke-linejoin="round" stroke-miterlimit="10" d="
				M122.532,188.012c1.478,2.236,3.477,2.535,2.476,8.076c-1.003,5.54-4.365,2.364-5.025,6.01c0.66-3.646-3.679-2.074-2.713-7.41
				C118.235,189.35,120.508,189.763,122.532,188.012z"/>
			<g>
				<line fill="none" x1="119.982" y1="202.098" x2="121.958" y2="191.183"/>
				<g>
					<polyline fill="none" stroke="#333333" stroke-width="0.9957" stroke-linecap="round" stroke-miterlimit="10" points="
						120.071,201.607 120.186,200.973 121.491,193.763 121.591,193.211 					"/>
					
						<line fill="none" stroke="#333333" stroke-width="0.9957" stroke-linecap="round" stroke-miterlimit="10" x1="121.869" y1="191.673" x2="121.857" y2="191.741"/>
				</g>
			</g>
		</g>
		<g>
			
				<path fill="#A1C453" stroke="#333333" stroke-width="0.9957" stroke-linecap="round" stroke-linejoin="round" stroke-miterlimit="10" d="
				M151.899,179.022c-0.567,1.549,0.014,2.648-3.098,4.173c-3.111,1.524-2.766-1.301-4.813-0.298
				c2.048-1.003-0.313-2.58,2.684-4.047C149.668,177.381,150.294,178.657,151.899,179.022z"/>
			<g>
				<line fill="none" x1="143.988" y1="182.897" x2="150.119" y2="179.894"/>
				<g>
					<polyline fill="none" stroke="#333333" stroke-width="0.9957" stroke-linecap="round" stroke-miterlimit="10" points="
						144.436,182.679 145.015,182.395 147.765,181.047 148.268,180.801 					"/>
					
						<line fill="none" stroke="#333333" stroke-width="0.9957" stroke-linecap="round" stroke-miterlimit="10" x1="149.672" y1="180.112" x2="149.609" y2="180.144"/>
				</g>
			</g>
		</g>
		<g>
			
				<path fill="#A1C453" stroke="#333333" stroke-width="1.4936" stroke-linecap="round" stroke-linejoin="round" stroke-miterlimit="10" d="
				M148.777,166.919c1.271,2.745,3.451,3.418,1.393,9.429c-2.059,6.012-5.271,1.898-6.625,5.854
				c1.354-3.956-3.752-2.939-1.771-8.728C143.757,167.683,146.222,168.527,148.777,166.919z"/>
			<g>
				<line fill="none" x1="143.544" y1="182.202" x2="147.6" y2="170.358"/>
				<g>
					<polyline fill="none" stroke="#333333" stroke-width="0.9957" stroke-linecap="round" stroke-miterlimit="10" points="
						143.705,181.731 143.914,181.121 146.75,172.839 146.932,172.309 					"/>
					
						<line fill="none" stroke="#333333" stroke-width="0.9957" stroke-linecap="round" stroke-miterlimit="10" x1="147.438" y1="170.829" x2="147.416" y2="170.896"/>
				</g>
			</g>
		</g>
		<g>
			
				<path fill="#A1C453" stroke="#333333" stroke-width="1.4936" stroke-linecap="round" stroke-linejoin="round" stroke-miterlimit="10" d="
				M142.544,213.591c-0.92-2.215-0.141-3.849-4.753-5.879c-4.614-2.028-3.94,2.056-6.977,0.72c3.036,1.336-0.302,3.769,4.142,5.723
				C139.399,216.109,140.231,214.219,142.544,213.591z"/>
			<g>
				<line fill="none" x1="130.814" y1="208.432" x2="139.904" y2="212.43"/>
				<g>
					<polyline fill="none" stroke="#333333" stroke-width="0.9957" stroke-linecap="round" stroke-miterlimit="10" points="
						131.27,208.631 131.861,208.891 137.504,211.374 138.018,211.6 					"/>
					
						<line fill="none" stroke="#333333" stroke-width="0.9957" stroke-linecap="round" stroke-miterlimit="10" x1="139.449" y1="212.229" x2="139.384" y2="212.201"/>
				</g>
			</g>
		</g>
		<g>
			
				<path fill="#A1C453" stroke="#333333" stroke-width="1.4936" stroke-linecap="round" stroke-linejoin="round" stroke-miterlimit="10" d="
				M135.11,220.352c0.917-2.215,2.622-2.82,0.795-7.519c-1.825-4.698-4.238-1.334-5.44-4.426c1.202,3.092-2.878,2.45-1.119,6.976
				C131.105,219.908,133.032,219.159,135.11,220.352z"/>
			<g>
				<line fill="none" x1="130.464" y1="208.406" x2="134.063" y2="217.663"/>
				<g>
					<polyline fill="none" stroke="#333333" stroke-width="0.9957" stroke-linecap="round" stroke-miterlimit="10" points="
						130.645,208.871 130.878,209.473 133.113,215.221 133.316,215.742 					"/>
					
						<line fill="none" stroke="#333333" stroke-width="0.9957" stroke-linecap="round" stroke-miterlimit="10" x1="133.883" y1="217.199" x2="133.857" y2="217.134"/>
				</g>
			</g>
		</g>
		<g>
			
				<path fill="#A1C453" stroke="#333333" stroke-width="0.9957" stroke-linecap="round" stroke-linejoin="round" stroke-miterlimit="10" d="
				M167.603,200.543c-1.45,0.506-1.896,1.575-4.835,0.239c-2.938-1.336-0.701-2.758-2.633-3.636c1.932,0.878,1.67-1.753,4.499-0.467
				C167.463,197.967,166.914,199.171,167.603,200.543z"/>
			<g>
				<line fill="none" x1="160.134" y1="197.146" x2="165.922" y2="199.778"/>
				<g>
					<polyline fill="none" stroke="#333333" stroke-width="0.9957" stroke-linecap="round" stroke-miterlimit="10" points="
						160.587,197.353 161.175,197.619 163.535,198.693 164.045,198.925 					"/>
					
						<line fill="none" stroke="#333333" stroke-width="0.9957" stroke-linecap="round" stroke-miterlimit="10" x1="165.469" y1="199.572" x2="165.405" y2="199.543"/>
				</g>
			</g>
		</g>
		<path fill="#CC924C" stroke="#333333" stroke-width="2.6551" stroke-linecap="round" stroke-miterlimit="10" d="M103.139,210.939
			l58.947-15.426c1.008-0.255,1.619-1.277,1.363-2.286l0,0c-0.255-1.008-1.279-1.619-2.287-1.364l-59.191,14.459"/>
		<g>
			
				<path fill="#A1C453" stroke="#333333" stroke-width="0.9957" stroke-linecap="round" stroke-linejoin="round" stroke-miterlimit="10" d="
				M163.239,191.781c0,0,2.901,0.414,3.452,0.649c0.441,0.186-2.374,1.564-3.477,1.875L163.239,191.781z"/>
			
				<path fill="#A1C453" stroke="#333333" stroke-width="0.9957" stroke-linecap="round" stroke-linejoin="round" stroke-miterlimit="10" d="
				M164.035,193.969l-3.992-2.098c0,0,4.138-1.736,5.882-1.041C165.925,190.83,164.609,192.565,164.035,193.969z"/>
			
				<path fill="#A1C453" stroke="#333333" stroke-width="0.9957" stroke-linecap="round" stroke-linejoin="round" stroke-miterlimit="10" d="
				M158.991,195.846c0,0,5.501,0.888,7.841-1.432l-3.92-1.814L158.991,195.846z"/>
		</g>
		<g>
			
				<path fill="#FFFFFF" stroke="#333333" stroke-width="0.9957" stroke-linecap="round" stroke-linejoin="round" stroke-miterlimit="10" d="
				M142.631,181.776c-0.312-0.32-1.173-0.11-1.801,0.119c-1.131,0.41-2.226,1.914-1.248,2.918c0.98,1.009,2.521-0.035,2.967-1.15
				C142.795,183.042,142.944,182.099,142.631,181.776z"/>
			
				<path fill="#FFFFFF" stroke="#333333" stroke-width="0.9957" stroke-linecap="round" stroke-linejoin="round" stroke-miterlimit="10" d="
				M142.671,181.665c0.432-0.109,0.682-0.961,0.797-1.619c0.211-1.184-0.545-2.884-1.904-2.54c-1.364,0.346-1.229,2.202-0.484,3.144
				C141.493,181.175,142.236,181.775,142.671,181.665z"/>
			
				<path fill="#FFFFFF" stroke="#333333" stroke-width="0.9957" stroke-linecap="round" stroke-linejoin="round" stroke-miterlimit="10" d="
				M142.744,181.748c-0.121,0.43,0.491,1.071,1.003,1.5c0.921,0.775,2.771,0.97,3.151-0.378c0.384-1.356-1.292-2.165-2.479-1.993
				C143.759,180.974,142.867,181.316,142.744,181.748z"/>
			
				<path fill="#FFFFFF" stroke="#333333" stroke-width="0.9957" stroke-linecap="round" stroke-linejoin="round" stroke-miterlimit="10" d="
				M142.689,181.886c-0.432,0.109-0.681,0.963-0.796,1.62c-0.21,1.186,0.546,2.884,1.904,2.54c1.365-0.345,1.229-2.2,0.485-3.145
				C143.867,182.378,143.125,181.776,142.689,181.886z"/>
			
				<path fill="#FFFFFF" stroke="#333333" stroke-width="0.9957" stroke-linecap="round" stroke-linejoin="round" stroke-miterlimit="10" d="
				M142.618,181.797c0.12-0.429-0.492-1.071-1.005-1.5c-0.921-0.774-2.77-0.97-3.151,0.38c-0.383,1.354,1.291,2.164,2.479,1.992
				C141.604,182.572,142.496,182.229,142.618,181.797z"/>
			
				<path fill="#FFFFFF" stroke="#333333" stroke-width="0.9957" stroke-linecap="round" stroke-linejoin="round" stroke-miterlimit="10" d="
				M142.743,181.788c0.311,0.319,1.173,0.109,1.801-0.119c1.131-0.411,2.225-1.914,1.248-2.92c-0.981-1.009-2.521,0.037-2.966,1.152
				C142.579,180.522,142.43,181.467,142.743,181.788z"/>
			
				<circle fill="#F9D53E" stroke="#333333" stroke-width="0.9957" stroke-linecap="round" stroke-linejoin="round" stroke-miterlimit="10" cx="142.689" cy="181.887" r="0.926"/>
		</g>
	</g>
</g>
<g id="calque06">
	<g>
		
			<polygon fill="#CC924C" stroke="#333333" stroke-width="0.7966" stroke-linecap="round" stroke-linejoin="round" stroke-miterlimit="10" points="
			165.689,202.405 156.392,196.955 159.115,196.266 		"/>
		
			<polygon fill="#CC924C" stroke="#333333" stroke-width="0.9957" stroke-linecap="round" stroke-linejoin="round" stroke-miterlimit="10" points="
			143.902,181.959 133.608,198.834 136.332,198.146 		"/>
		
			<polygon fill="#CC924C" stroke="#333333" stroke-width="0.9957" stroke-linecap="round" stroke-linejoin="round" stroke-miterlimit="10" points="
			131.196,208.773 124.632,205.404 126.389,204.96 		"/>
		<g>
			
				<path fill="#A1C453" stroke="#333333" stroke-width="1.4936" stroke-linecap="round" stroke-linejoin="round" stroke-miterlimit="10" d="
				M122.532,188.012c1.478,2.236,3.477,2.534,2.476,8.076c-1.003,5.54-4.365,2.364-5.025,6.01c0.66-3.646-3.679-2.074-2.713-7.41
				C118.235,189.35,120.508,189.763,122.532,188.012z"/>
			<g>
				<line fill="none" x1="119.982" y1="202.098" x2="121.958" y2="191.183"/>
				<g>
					<polyline fill="none" stroke="#333333" stroke-width="0.9957" stroke-linecap="round" stroke-miterlimit="10" points="
						120.071,201.607 120.186,200.973 121.491,193.763 121.591,193.211 					"/>
					
						<line fill="none" stroke="#333333" stroke-width="0.9957" stroke-linecap="round" stroke-miterlimit="10" x1="121.869" y1="191.673" x2="121.857" y2="191.741"/>
				</g>
			</g>
		</g>
		<g>
			
				<path fill="#A1C453" stroke="#333333" stroke-width="1.4936" stroke-linecap="round" stroke-linejoin="round" stroke-miterlimit="10" d="
				M158.491,175.049c-1.044,2.838,0.022,4.856-5.685,7.652c-5.707,2.795-5.069-2.386-8.824-0.546c3.754-1.84-0.576-4.731,4.92-7.424
				C154.4,172.04,155.546,174.379,158.491,175.049z"/>
			<g>
				<line fill="none" x1="143.984" y1="182.155" x2="155.226" y2="176.648"/>
				<g>
					<polyline fill="none" stroke="#333333" stroke-width="0.9957" stroke-linecap="round" stroke-miterlimit="10" points="
						144.431,181.937 145.01,181.652 152.872,177.802 153.375,177.556 					"/>
					
						<line fill="none" stroke="#333333" stroke-width="0.9957" stroke-linecap="round" stroke-miterlimit="10" x1="154.779" y1="176.867" x2="154.716" y2="176.898"/>
				</g>
			</g>
		</g>
		<g>
			
				<path fill="#A1C453" stroke="#333333" stroke-width="1.4936" stroke-linecap="round" stroke-linejoin="round" stroke-miterlimit="10" d="
				M148.777,166.919c1.271,2.744,3.451,3.418,1.393,9.429c-2.059,6.011-5.271,1.898-6.625,5.854
				c1.354-3.956-3.752-2.939-1.771-8.728C143.757,167.683,146.221,168.526,148.777,166.919z"/>
			<g>
				<line fill="none" x1="143.544" y1="182.202" x2="147.6" y2="170.358"/>
				<g>
					<polyline fill="none" stroke="#333333" stroke-width="0.9957" stroke-linecap="round" stroke-miterlimit="10" points="
						143.705,181.731 143.914,181.121 146.75,172.839 146.932,172.309 					"/>
					
						<line fill="none" stroke="#333333" stroke-width="0.9957" stroke-linecap="round" stroke-miterlimit="10" x1="147.438" y1="170.829" x2="147.416" y2="170.896"/>
				</g>
			</g>
		</g>
		<g>
			
				<path fill="#A1C453" stroke="#333333" stroke-width="1.4936" stroke-linecap="round" stroke-linejoin="round" stroke-miterlimit="10" d="
				M142.544,213.591c-0.92-2.215-0.141-3.849-4.753-5.879c-4.614-2.028-3.94,2.056-6.977,0.72c3.036,1.336-0.302,3.769,4.142,5.723
				C139.399,216.109,140.231,214.219,142.544,213.591z"/>
			<g>
				<line fill="none" x1="130.814" y1="208.432" x2="139.904" y2="212.43"/>
				<g>
					<polyline fill="none" stroke="#333333" stroke-width="0.9957" stroke-linecap="round" stroke-miterlimit="10" points="
						131.27,208.631 131.861,208.891 137.504,211.374 138.018,211.6 					"/>
					
						<line fill="none" stroke="#333333" stroke-width="0.9957" stroke-linecap="round" stroke-miterlimit="10" x1="139.449" y1="212.229" x2="139.384" y2="212.201"/>
				</g>
			</g>
		</g>
		<g>
			
				<path fill="#A1C453" stroke="#333333" stroke-width="1.4936" stroke-linecap="round" stroke-linejoin="round" stroke-miterlimit="10" d="
				M135.11,220.352c0.917-2.215,2.622-2.82,0.795-7.519c-1.825-4.698-4.238-1.334-5.44-4.426c1.202,3.092-2.878,2.45-1.119,6.976
				C131.105,219.908,133.032,219.159,135.11,220.352z"/>
			<g>
				<line fill="none" x1="130.464" y1="208.406" x2="134.063" y2="217.663"/>
				<g>
					<polyline fill="none" stroke="#333333" stroke-width="0.9957" stroke-linecap="round" stroke-miterlimit="10" points="
						130.645,208.871 130.878,209.473 133.113,215.221 133.316,215.742 					"/>
					
						<line fill="none" stroke="#333333" stroke-width="0.9957" stroke-linecap="round" stroke-miterlimit="10" x1="133.883" y1="217.199" x2="133.857" y2="217.134"/>
				</g>
			</g>
		</g>
		<g>
			
				<path fill="#A1C453" stroke="#333333" stroke-width="1.4936" stroke-linecap="round" stroke-linejoin="round" stroke-miterlimit="10" d="
				M180.396,209.094c-2.854,0.998-3.735,3.102-9.521,0.473c-5.784-2.631-1.378-5.43-5.187-7.161c3.809,1.73,3.289-3.451,8.859-0.917
				C180.12,204.022,179.041,206.395,180.396,209.094z"/>
			<g>
				<line fill="none" x1="165.689" y1="202.405" x2="177.086" y2="207.587"/>
				<g>
					<polyline fill="none" stroke="#333333" stroke-width="0.9957" stroke-linecap="round" stroke-miterlimit="10" points="
						166.143,202.611 166.729,202.878 174.699,206.502 175.209,206.732 					"/>
					
						<line fill="none" stroke="#333333" stroke-width="0.9957" stroke-linecap="round" stroke-miterlimit="10" x1="176.633" y1="207.381" x2="176.569" y2="207.352"/>
				</g>
			</g>
		</g>
		<g>
			
				<path fill="#A1C453" stroke="#333333" stroke-width="0.9957" stroke-linecap="round" stroke-linejoin="round" stroke-miterlimit="10" d="
				M162.387,210.432c-0.664-1.463-1.819-1.83-0.701-5.015c1.119-3.187,2.81-0.987,3.544-3.082c-0.734,2.095,1.981,1.575,0.905,4.644
				C165.057,210.046,163.752,209.588,162.387,210.432z"/>
			<g>
				<line fill="none" x1="165.229" y1="202.335" x2="163.026" y2="208.609"/>
				<g>
					<polyline fill="none" stroke="#333333" stroke-width="0.9957" stroke-linecap="round" stroke-miterlimit="10" points="
						165.064,202.805 164.851,203.413 163.895,206.137 163.709,206.664 					"/>
					
						<line fill="none" stroke="#333333" stroke-width="0.9957" stroke-linecap="round" stroke-miterlimit="10" x1="163.191" y1="208.141" x2="163.215" y2="208.072"/>
				</g>
			</g>
		</g>
		<g>
			<g>
				<path fill="#D3F46C" d="M141.798,186.791c-2.388,0.964-6.157-0.646-6.071-2.575c-1.587-1.454,0.189-5.104,2.577-6.069
					c2.387-0.964,5.219-0.748,5.586,2.938C146.096,183.847,144.184,185.826,141.798,186.791z"/>
				<g>
					<path fill="none" stroke="#333333" stroke-width="0.9957" stroke-linecap="round" stroke-miterlimit="10" d="M141.324,186.944
						c-0.213,0.033-0.421,0.099-0.637,0.104c-1.145,0.118-2.309-0.165-3.324-0.688c-0.503-0.271-0.974-0.629-1.306-1.099
						c-0.152-0.242-0.282-0.506-0.312-0.793c0.072-0.33-0.304-0.453-0.379-0.737c-0.521-1.064-0.105-2.306,0.438-3.275
						c0.577-0.985,1.423-1.846,2.481-2.303c1.055-0.419,2.247-0.663,3.36-0.344c1.141,0.303,1.891,1.379,2.111,2.493
						c0.084,0.272,0.063,0.578,0.171,0.837c0.166,0.233,0.346,0.459,0.474,0.717c0.278,0.497,0.473,1.06,0.454,1.637
						c-0.013,0.577-0.246,1.132-0.598,1.582c-0.087,0.109-0.182,0.234-0.274,0.318l-0.13,0.131
						c-0.083,0.091-0.185,0.161-0.276,0.242"/>
					
						<line fill="none" stroke="#333333" stroke-width="0.9957" stroke-linecap="round" stroke-miterlimit="10" x1="142.253" y1="186.591" x2="142.316" y2="186.559"/>
				</g>
			</g>
			
				<ellipse transform="matrix(0.9738 0.2274 -0.2274 0.9738 44.4655 -27.2696)" opacity="0.5" fill="#FFFFFF" enable-background="new    " cx="140.564" cy="179.314" rx="1.067" ry="0.877"/>
		</g>
		<path fill="#CC924C" stroke="#333333" stroke-width="2.6551" stroke-linecap="round" stroke-miterlimit="10" d="M103.139,210.939
			l66.752-17.399c1.009-0.256,1.619-1.278,1.363-2.287l0,0c-0.255-1.009-1.278-1.619-2.287-1.363l-66.996,16.434"/>
		<g>
			
				<path fill="#A1C453" stroke="#333333" stroke-width="0.9957" stroke-linecap="round" stroke-linejoin="round" stroke-miterlimit="10" d="
				M171.043,189.808c0,0,2.902,0.414,3.453,0.648c0.44,0.186-2.375,1.563-3.477,1.875L171.043,189.808z"/>
			
				<path fill="#A1C453" stroke="#333333" stroke-width="0.9957" stroke-linecap="round" stroke-linejoin="round" stroke-miterlimit="10" d="
				M171.841,191.994l-3.993-2.098c0,0,4.138-1.736,5.882-1.04C173.729,188.856,172.414,190.591,171.841,191.994z"/>
			
				<path fill="#A1C453" stroke="#333333" stroke-width="0.9957" stroke-linecap="round" stroke-linejoin="round" stroke-miterlimit="10" d="
				M166.796,193.872c0,0,5.5,0.887,7.84-1.434l-3.919-1.813L166.796,193.872z"/>
		</g>
		<g>
			
				<path fill="#FFFFFF" stroke="#333333" stroke-width="0.9957" stroke-linecap="round" stroke-linejoin="round" stroke-miterlimit="10" d="
				M164.271,203.103c-0.311-0.318-1.173-0.109-1.801,0.119c-1.131,0.412-2.225,1.915-1.247,2.92c0.98,1.008,2.521-0.037,2.966-1.151
				C164.435,204.369,164.584,203.425,164.271,203.103z"/>
			
				<path fill="#FFFFFF" stroke="#333333" stroke-width="0.9957" stroke-linecap="round" stroke-linejoin="round" stroke-miterlimit="10" d="
				M164.311,202.992c0.433-0.108,0.683-0.96,0.798-1.618c0.211-1.186-0.546-2.884-1.903-2.54c-1.365,0.345-1.229,2.2-0.485,3.144
				C163.133,202.503,163.876,203.103,164.311,202.992z"/>
			
				<path fill="#FFFFFF" stroke="#333333" stroke-width="0.9957" stroke-linecap="round" stroke-linejoin="round" stroke-miterlimit="10" d="
				M164.384,203.076c-0.122,0.429,0.491,1.07,1.005,1.501c0.92,0.774,2.771,0.969,3.15-0.381c0.383-1.354-1.291-2.164-2.48-1.991
				C165.398,202.302,164.506,202.645,164.384,203.076z"/>
			
				<path fill="#FFFFFF" stroke="#333333" stroke-width="0.9957" stroke-linecap="round" stroke-linejoin="round" stroke-miterlimit="10" d="
				M164.329,203.215c-0.433,0.109-0.682,0.961-0.797,1.619c-0.211,1.186,0.546,2.883,1.903,2.539c1.364-0.346,1.229-2.2,0.485-3.144
				C165.508,203.705,164.765,203.104,164.329,203.215z"/>
			
				<path fill="#FFFFFF" stroke="#333333" stroke-width="0.9957" stroke-linecap="round" stroke-linejoin="round" stroke-miterlimit="10" d="
				M164.258,203.124c0.121-0.429-0.492-1.07-1.004-1.5c-0.921-0.775-2.771-0.969-3.151,0.379c-0.383,1.354,1.291,2.165,2.48,1.993
				C163.243,203.898,164.136,203.556,164.258,203.124z"/>
			
				<path fill="#FFFFFF" stroke="#333333" stroke-width="0.9957" stroke-linecap="round" stroke-linejoin="round" stroke-miterlimit="10" d="
				M164.383,203.114c0.311,0.321,1.173,0.111,1.801-0.118c1.132-0.41,2.226-1.915,1.247-2.919c-0.98-1.009-2.521,0.036-2.966,1.151
				C164.219,201.85,164.07,202.793,164.383,203.114z"/>
			
				<circle fill="#F9D53E" stroke="#333333" stroke-width="0.9957" stroke-linecap="round" stroke-linejoin="round" stroke-miterlimit="10" cx="164.329" cy="203.214" r="0.926"/>
		</g>
	</g>
</g>
<g id="calque07">
	<g>
		
			<polygon fill="#CC924C" stroke="#333333" stroke-width="0.7966" stroke-linecap="round" stroke-linejoin="round" stroke-miterlimit="10" points="
			165.689,202.405 156.392,196.955 159.115,196.266 		"/>
		
			<polygon fill="#CC924C" stroke="#333333" stroke-width="0.9957" stroke-linecap="round" stroke-linejoin="round" stroke-miterlimit="10" points="
			143.902,181.959 133.608,198.834 136.332,198.146 		"/>
		
			<polygon fill="#CC924C" stroke="#333333" stroke-width="0.9957" stroke-linecap="round" stroke-linejoin="round" stroke-miterlimit="10" points="
			131.196,208.773 124.632,205.404 126.389,204.96 		"/>
		<g>
			
				<path fill="#A1C453" stroke="#333333" stroke-width="1.4936" stroke-linecap="round" stroke-linejoin="round" stroke-miterlimit="10" d="
				M122.532,188.012c1.478,2.236,3.477,2.534,2.476,8.076c-1.003,5.54-4.365,2.364-5.025,6.01c0.66-3.646-3.679-2.074-2.713-7.41
				C118.235,189.35,120.508,189.763,122.532,188.012z"/>
			<g>
				<line fill="none" x1="119.982" y1="202.098" x2="121.958" y2="191.183"/>
				<g>
					<polyline fill="none" stroke="#333333" stroke-width="0.9957" stroke-linecap="round" stroke-miterlimit="10" points="
						120.071,201.607 120.186,200.973 121.491,193.763 121.591,193.211 					"/>
					
						<line fill="none" stroke="#333333" stroke-width="0.9957" stroke-linecap="round" stroke-miterlimit="10" x1="121.869" y1="191.673" x2="121.857" y2="191.741"/>
				</g>
			</g>
		</g>
		<g>
			
				<path fill="#A1C453" stroke="#333333" stroke-width="0.9957" stroke-linecap="round" stroke-linejoin="round" stroke-miterlimit="10" d="
				M173.23,182.678c-1.596,0.235-2.533-0.541-4.613,2.131c-2.082,2.674,0.69,2.906-0.68,4.666c1.37-1.76,2.407,0.816,4.411-1.759
				C174.355,185.142,173.258,184.288,173.23,182.678z"/>
			<g>
				<line fill="none" x1="167.938" y1="189.475" x2="172.039" y2="184.206"/>
				<g>
					<polyline fill="none" stroke="#333333" stroke-width="0.9957" stroke-linecap="round" stroke-miterlimit="10" points="
						168.243,189.082 168.64,188.572 170.429,186.275 170.772,185.833 					"/>
					
						<line fill="none" stroke="#333333" stroke-width="0.9957" stroke-linecap="round" stroke-miterlimit="10" x1="171.733" y1="184.599" x2="171.69" y2="184.654"/>
				</g>
			</g>
		</g>
		<g>
			
				<path fill="#A1C453" stroke="#333333" stroke-width="1.4936" stroke-linecap="round" stroke-linejoin="round" stroke-miterlimit="10" d="
				M158.491,175.049c-1.044,2.838,0.022,4.856-5.685,7.652c-5.707,2.795-5.069-2.386-8.824-0.546c3.754-1.84-0.576-4.731,4.92-7.424
				C154.4,172.04,155.546,174.379,158.491,175.049z"/>
			<g>
				<line fill="none" x1="143.984" y1="182.155" x2="155.226" y2="176.648"/>
				<g>
					<polyline fill="none" stroke="#333333" stroke-width="0.9957" stroke-linecap="round" stroke-miterlimit="10" points="
						144.431,181.937 145.01,181.652 152.872,177.802 153.375,177.556 					"/>
					
						<line fill="none" stroke="#333333" stroke-width="0.9957" stroke-linecap="round" stroke-miterlimit="10" x1="154.779" y1="176.867" x2="154.716" y2="176.898"/>
				</g>
			</g>
		</g>
		<g>
			
				<path fill="#A1C453" stroke="#333333" stroke-width="1.4936" stroke-linecap="round" stroke-linejoin="round" stroke-miterlimit="10" d="
				M148.777,166.919c1.271,2.744,3.451,3.418,1.393,9.429c-2.059,6.011-5.271,1.898-6.625,5.854
				c1.354-3.956-3.752-2.939-1.771-8.728C143.757,167.683,146.221,168.526,148.777,166.919z"/>
			<g>
				<line fill="none" x1="143.544" y1="182.202" x2="147.6" y2="170.358"/>
				<g>
					<polyline fill="none" stroke="#333333" stroke-width="0.9957" stroke-linecap="round" stroke-miterlimit="10" points="
						143.705,181.731 143.914,181.121 146.75,172.839 146.932,172.309 					"/>
					
						<line fill="none" stroke="#333333" stroke-width="0.9957" stroke-linecap="round" stroke-miterlimit="10" x1="147.438" y1="170.829" x2="147.416" y2="170.896"/>
				</g>
			</g>
		</g>
		<g>
			
				<path fill="#A1C453" stroke="#333333" stroke-width="1.4936" stroke-linecap="round" stroke-linejoin="round" stroke-miterlimit="10" d="
				M142.544,213.591c-0.92-2.215-0.141-3.849-4.753-5.879c-4.614-2.028-3.94,2.056-6.977,0.72c3.036,1.336-0.302,3.769,4.142,5.723
				C139.399,216.109,140.231,214.219,142.544,213.591z"/>
			<g>
				<line fill="none" x1="130.814" y1="208.432" x2="139.904" y2="212.43"/>
				<g>
					<polyline fill="none" stroke="#333333" stroke-width="0.9957" stroke-linecap="round" stroke-miterlimit="10" points="
						131.27,208.631 131.861,208.891 137.504,211.374 138.018,211.6 					"/>
					
						<line fill="none" stroke="#333333" stroke-width="0.9957" stroke-linecap="round" stroke-miterlimit="10" x1="139.449" y1="212.229" x2="139.384" y2="212.201"/>
				</g>
			</g>
		</g>
		<g>
			
				<path fill="#A1C453" stroke="#333333" stroke-width="1.4936" stroke-linecap="round" stroke-linejoin="round" stroke-miterlimit="10" d="
				M135.11,220.352c0.917-2.215,2.622-2.82,0.795-7.519c-1.825-4.698-4.238-1.334-5.44-4.426c1.202,3.092-2.878,2.45-1.119,6.976
				C131.105,219.908,133.032,219.159,135.11,220.352z"/>
			<g>
				<line fill="none" x1="130.464" y1="208.406" x2="134.063" y2="217.663"/>
				<g>
					<polyline fill="none" stroke="#333333" stroke-width="0.9957" stroke-linecap="round" stroke-miterlimit="10" points="
						130.645,208.871 130.878,209.473 133.113,215.221 133.316,215.742 					"/>
					
						<line fill="none" stroke="#333333" stroke-width="0.9957" stroke-linecap="round" stroke-miterlimit="10" x1="133.883" y1="217.199" x2="133.857" y2="217.134"/>
				</g>
			</g>
		</g>
		<g>
			
				<path fill="#A1C453" stroke="#333333" stroke-width="0.9957" stroke-linecap="round" stroke-linejoin="round" stroke-miterlimit="10" d="
				M168.84,211.283c-1.48-0.715-2.629-0.243-3.842-3.479c-1.213-3.237,1.558-2.619,0.759-4.746c0.799,2.127,2.591-0.063,3.759,3.052
				C170.683,209.229,169.357,209.725,168.84,211.283z"/>
			<g>
				<line fill="none" x1="165.757" y1="203.06" x2="168.146" y2="209.432"/>
				<g>
					<polyline fill="none" stroke="#333333" stroke-width="0.9957" stroke-linecap="round" stroke-miterlimit="10" points="
						165.932,203.525 166.158,204.13 167.226,206.977 167.423,207.502 					"/>
					
						<line fill="none" stroke="#333333" stroke-width="0.9957" stroke-linecap="round" stroke-miterlimit="10" x1="167.972" y1="208.966" x2="167.947" y2="208.9"/>
				</g>
			</g>
		</g>
		<g>
			
				<path fill="#A1C453" stroke="#333333" stroke-width="1.4936" stroke-linecap="round" stroke-linejoin="round" stroke-miterlimit="10" d="
				M180.396,209.094c-2.854,0.998-3.735,3.102-9.521,0.473c-5.783-2.631-1.378-5.43-5.187-7.161c3.809,1.73,3.289-3.451,8.859-0.917
				C180.12,204.022,179.041,206.395,180.396,209.094z"/>
			<g>
				<line fill="none" x1="165.689" y1="202.405" x2="177.086" y2="207.587"/>
				<g>
					<polyline fill="none" stroke="#333333" stroke-width="0.9957" stroke-linecap="round" stroke-miterlimit="10" points="
						166.143,202.611 166.729,202.878 174.699,206.502 175.209,206.732 					"/>
					
						<line fill="none" stroke="#333333" stroke-width="0.9957" stroke-linecap="round" stroke-miterlimit="10" x1="176.633" y1="207.381" x2="176.569" y2="207.352"/>
				</g>
			</g>
		</g>
		<g>
			
				<path fill="#A1C453" stroke="#333333" stroke-width="1.4936" stroke-linecap="round" stroke-linejoin="round" stroke-miterlimit="10" d="
				M161.044,214.479c-0.981-2.164-2.689-2.707-1.036-7.416c1.654-4.71,4.152-1.459,5.24-4.559c-1.088,3.1,2.931,2.331,1.338,6.866
				C164.993,213.908,163.063,213.23,161.044,214.479z"/>
			<g>
				<line fill="none" x1="165.248" y1="202.505" x2="161.99" y2="211.784"/>
				<g>
					<polyline fill="none" stroke="#333333" stroke-width="0.9957" stroke-linecap="round" stroke-miterlimit="10" points="
						165.083,202.975 164.869,203.583 162.858,209.311 162.673,209.839 					"/>
					
						<line fill="none" stroke="#333333" stroke-width="0.9957" stroke-linecap="round" stroke-miterlimit="10" x1="162.155" y1="211.314" x2="162.179" y2="211.248"/>
				</g>
			</g>
		</g>
		<g>
			<g>
				<path fill="#D3F46C" d="M140.377,188.854c-3.239,1.31-8.351-0.873-8.232-3.492c-2.151-1.974,0.255-6.922,3.494-8.23
					c3.237-1.309,7.078-1.016,7.577,3.985C146.208,184.86,143.614,187.545,140.377,188.854z"/>
				<g>
					<path fill="none" stroke="#333333" stroke-width="1.4936" stroke-linecap="round" stroke-miterlimit="10" d="M139.665,189.075
						c-0.316,0.063-0.632,0.131-0.956,0.143c-1.53,0.112-3.082-0.265-4.425-0.993c-0.666-0.371-1.297-0.849-1.722-1.492
						c-0.195-0.326-0.367-0.682-0.395-1.066l-0.022-0.286c-0.042-0.081-0.12-0.147-0.178-0.222
						c-0.139-0.136-0.239-0.298-0.321-0.473c-0.354-0.685-0.372-1.494-0.231-2.241c0.143-0.753,0.436-1.472,0.811-2.139
						c0.772-1.312,1.872-2.489,3.282-3.112c1.4-0.584,2.979-0.932,4.484-0.574c0.743,0.182,1.437,0.581,1.945,1.155
						c0.523,0.567,0.836,1.294,1.033,2.028c0.114,0.367,0.162,0.748,0.217,1.128c-0.009,0.204,0.153,0.34,0.254,0.5
						c0.107,0.158,0.235,0.304,0.326,0.473c0.407,0.647,0.691,1.384,0.748,2.148c0.059,0.765-0.166,1.538-0.585,2.177
						c-0.087,0.166-0.233,0.318-0.334,0.452c-0.058,0.072-0.113,0.146-0.181,0.209c-0.132,0.128-0.256,0.266-0.396,0.387"/>
					
						<line fill="none" stroke="#333333" stroke-width="1.4936" stroke-linecap="round" stroke-miterlimit="10" x1="141.06" y1="188.55" x2="141.153" y2="188.502"/>
				</g>
			</g>
			
				<ellipse transform="matrix(0.9739 0.2268 -0.2268 0.9739 44.1407 -26.7989)" opacity="0.5" fill="#FFFFFF" enable-background="new    " cx="138.701" cy="178.705" rx="1.447" ry="1.191"/>
		</g>
		<path fill="#CC924C" stroke="#333333" stroke-width="2.6551" stroke-linecap="round" stroke-miterlimit="10" d="M103.139,210.939
			l73.574-19.126c1.009-0.255,1.619-1.277,1.364-2.287l0,0c-0.256-1.008-1.279-1.618-2.288-1.363l-73.818,18.159"/>
		<g>
			
				<path fill="#A1C453" stroke="#333333" stroke-width="0.9957" stroke-linecap="round" stroke-linejoin="round" stroke-miterlimit="10" d="
				M177.866,188.081c0,0,2.901,0.414,3.451,0.649c0.442,0.185-2.375,1.563-3.477,1.875L177.866,188.081z"/>
			
				<path fill="#A1C453" stroke="#333333" stroke-width="0.9957" stroke-linecap="round" stroke-linejoin="round" stroke-miterlimit="10" d="
				M178.663,190.268l-3.993-2.097c0,0,4.139-1.736,5.883-1.041C180.553,187.13,179.236,188.865,178.663,190.268z"/>
			
				<path fill="#A1C453" stroke="#333333" stroke-width="0.9957" stroke-linecap="round" stroke-linejoin="round" stroke-miterlimit="10" d="
				M173.619,192.146c0,0,5.5,0.888,7.84-1.434l-3.92-1.813L173.619,192.146z"/>
		</g>
		<g>
			<g>
				<path fill="#D3F46C" d="M161.154,208.926c-2.567,0.188-5.662-2.498-4.988-4.311c-1.066-1.87,1.74-4.802,4.309-4.988
					c2.567-0.188,5.196,0.884,4.42,4.507C166.146,207.438,163.722,208.736,161.154,208.926z"/>
				<g>
					<path fill="none" stroke="#333333" stroke-width="0.9957" stroke-linecap="round" stroke-miterlimit="10" d="M160.657,208.928
						c-0.213-0.035-0.431-0.035-0.639-0.096c-1.125-0.238-2.146-0.863-2.954-1.673c-0.396-0.413-0.733-0.896-0.905-1.446
						c-0.07-0.276-0.113-0.567-0.054-0.85c0.17-0.292-0.148-0.523-0.135-0.818c-0.169-1.172,0.604-2.227,1.418-2.983
						c0.852-0.762,1.919-1.321,3.067-1.433c1.133-0.076,2.342,0.056,3.305,0.701c0.992,0.638,1.377,1.892,1.246,3.021
						c-0.003,0.285-0.116,0.569-0.092,0.849c0.086,0.273,0.188,0.543,0.23,0.827c0.112,0.559,0.124,1.155-0.069,1.698
						c-0.188,0.545-0.58,1.002-1.054,1.322c-0.115,0.077-0.245,0.168-0.357,0.219l-0.164,0.086
						c-0.107,0.062-0.227,0.096-0.339,0.146"/>
					
						<line fill="none" stroke="#333333" stroke-width="0.9957" stroke-linecap="round" stroke-miterlimit="10" x1="161.649" y1="208.875" x2="161.719" y2="208.863"/>
				</g>
			</g>
			
				<ellipse transform="matrix(0.8576 0.5144 -0.5144 0.8576 126.7089 -54.7749)" opacity="0.5" fill="#FFFFFF" enable-background="new    " cx="162.262" cy="201.412" rx="1.067" ry="0.877"/>
		</g>
	</g>
</g>
<g id="calque08">
	<g>
		
			<polygon fill="#CC924C" stroke="#333333" stroke-width="0.9957" stroke-linecap="round" stroke-linejoin="round" stroke-miterlimit="10" points="
			171.766,182.778 166.787,190.586 169.511,189.896 		"/>
		
			<polygon fill="#CC924C" stroke="#333333" stroke-width="0.7966" stroke-linecap="round" stroke-linejoin="round" stroke-miterlimit="10" points="
			165.689,202.405 156.392,196.955 159.115,196.266 		"/>
		
			<polygon fill="#CC924C" stroke="#333333" stroke-width="0.9957" stroke-linecap="round" stroke-linejoin="round" stroke-miterlimit="10" points="
			143.902,181.959 133.608,198.834 136.332,198.146 		"/>
		
			<polygon fill="#CC924C" stroke="#333333" stroke-width="0.9957" stroke-linecap="round" stroke-linejoin="round" stroke-miterlimit="10" points="
			131.196,208.773 124.632,205.404 126.389,204.96 		"/>
		<g>
			
				<path fill="#A1C453" stroke="#333333" stroke-width="1.4936" stroke-linecap="round" stroke-linejoin="round" stroke-miterlimit="10" d="
				M122.532,188.012c1.478,2.236,3.477,2.535,2.476,8.076c-1.003,5.54-4.365,2.364-5.025,6.01c0.66-3.646-3.679-2.074-2.713-7.41
				C118.235,189.35,120.508,189.763,122.532,188.012z"/>
			<g>
				<line fill="none" x1="119.982" y1="202.098" x2="121.958" y2="191.183"/>
				<g>
					<polyline fill="none" stroke="#333333" stroke-width="0.9957" stroke-linecap="round" stroke-miterlimit="10" points="
						120.071,201.607 120.186,200.973 121.491,193.763 121.591,193.211 					"/>
					
						<line fill="none" stroke="#333333" stroke-width="0.9957" stroke-linecap="round" stroke-miterlimit="10" x1="121.869" y1="191.673" x2="121.857" y2="191.741"/>
				</g>
			</g>
		</g>
		<g>
			
				<path fill="#A1C453" stroke="#333333" stroke-width="1.4936" stroke-linecap="round" stroke-linejoin="round" stroke-miterlimit="10" d="
				M180.561,171.483c-2.65,0.392-4.207-0.899-7.667,3.544c-3.46,4.443,1.149,4.829-1.128,7.751c2.277-2.922,4,1.358,7.332-2.921
				C182.43,175.578,180.607,174.16,180.561,171.483z"/>
			<g>
				<line fill="none" x1="171.766" y1="182.778" x2="178.582" y2="174.027"/>
				<g>
					<polyline fill="none" stroke="#333333" stroke-width="0.9957" stroke-linecap="round" stroke-miterlimit="10" points="
						172.071,182.386 172.468,181.877 176.971,176.096 177.315,175.653 					"/>
					
						<line fill="none" stroke="#333333" stroke-width="0.9957" stroke-linecap="round" stroke-miterlimit="10" x1="178.276" y1="174.42" x2="178.233" y2="174.476"/>
				</g>
			</g>
		</g>
		<g>
			
				<path fill="#A1C453" stroke="#333333" stroke-width="1.4936" stroke-linecap="round" stroke-linejoin="round" stroke-miterlimit="10" d="
				M158.491,175.049c-1.044,2.838,0.022,4.856-5.685,7.652c-5.707,2.795-5.069-2.386-8.824-0.546c3.754-1.84-0.574-4.729,4.92-7.424
				C154.4,172.04,155.546,174.379,158.491,175.049z"/>
			<g>
				<line fill="none" x1="143.984" y1="182.155" x2="155.226" y2="176.648"/>
				<g>
					<polyline fill="none" stroke="#333333" stroke-width="0.9957" stroke-linecap="round" stroke-miterlimit="10" points="
						144.431,181.937 145.01,181.652 152.872,177.802 153.375,177.556 					"/>
					
						<line fill="none" stroke="#333333" stroke-width="0.9957" stroke-linecap="round" stroke-miterlimit="10" x1="154.779" y1="176.867" x2="154.716" y2="176.898"/>
				</g>
			</g>
		</g>
		<g>
			
				<path fill="#A1C453" stroke="#333333" stroke-width="1.4936" stroke-linecap="round" stroke-linejoin="round" stroke-miterlimit="10" d="
				M148.777,166.919c1.271,2.745,3.451,3.418,1.393,9.429c-2.059,6.011-5.271,1.898-6.625,5.854
				c1.354-3.956-3.752-2.939-1.771-8.728C143.757,167.683,146.221,168.526,148.777,166.919z"/>
			<g>
				<line fill="none" x1="143.544" y1="182.202" x2="147.6" y2="170.358"/>
				<g>
					<polyline fill="none" stroke="#333333" stroke-width="0.9957" stroke-linecap="round" stroke-miterlimit="10" points="
						143.705,181.731 143.914,181.121 146.75,172.839 146.932,172.309 					"/>
					
						<line fill="none" stroke="#333333" stroke-width="0.9957" stroke-linecap="round" stroke-miterlimit="10" x1="147.438" y1="170.829" x2="147.416" y2="170.896"/>
				</g>
			</g>
		</g>
		<g>
			
				<path fill="#A1C453" stroke="#333333" stroke-width="1.4936" stroke-linecap="round" stroke-linejoin="round" stroke-miterlimit="10" d="
				M142.544,213.591c-0.92-2.215-0.141-3.849-4.753-5.879c-4.614-2.028-3.94,2.056-6.977,0.72c3.036,1.336-0.302,3.769,4.142,5.723
				C139.399,216.109,140.23,214.219,142.544,213.591z"/>
			<g>
				<line fill="none" x1="130.814" y1="208.432" x2="139.904" y2="212.43"/>
				<g>
					<polyline fill="none" stroke="#333333" stroke-width="0.9957" stroke-linecap="round" stroke-miterlimit="10" points="
						131.27,208.631 131.861,208.891 137.504,211.374 138.018,211.6 					"/>
					
						<line fill="none" stroke="#333333" stroke-width="0.9957" stroke-linecap="round" stroke-miterlimit="10" x1="139.449" y1="212.229" x2="139.384" y2="212.201"/>
				</g>
			</g>
		</g>
		<g>
			
				<path fill="#A1C453" stroke="#333333" stroke-width="1.4936" stroke-linecap="round" stroke-linejoin="round" stroke-miterlimit="10" d="
				M135.11,220.352c0.916-2.218,2.622-2.82,0.795-7.519c-1.825-4.698-4.238-1.334-5.44-4.426c1.202,3.092-2.878,2.45-1.119,6.976
				C131.105,219.908,133.032,219.159,135.11,220.352z"/>
			<g>
				<line fill="none" x1="130.464" y1="208.406" x2="134.063" y2="217.663"/>
				<g>
					<polyline fill="none" stroke="#333333" stroke-width="0.9957" stroke-linecap="round" stroke-miterlimit="10" points="
						130.645,208.871 130.878,209.473 133.113,215.221 133.316,215.742 					"/>
					
						<line fill="none" stroke="#333333" stroke-width="0.9957" stroke-linecap="round" stroke-miterlimit="10" x1="133.883" y1="217.199" x2="133.857" y2="217.134"/>
				</g>
			</g>
		</g>
		<g>
			
				<path fill="#A1C453" stroke="#333333" stroke-width="1.4936" stroke-linecap="round" stroke-linejoin="round" stroke-miterlimit="10" d="
				M171.363,217.975c-2.725-1.313-4.836-0.447-7.065-6.396c-2.229-5.951,2.865-4.814,1.396-8.73c1.47,3.916,4.767-0.116,6.912,5.615
				C174.755,214.193,172.314,215.107,171.363,217.975z"/>
			<g>
				<line fill="none" x1="165.693" y1="202.848" x2="170.088" y2="214.568"/>
				<g>
					<polyline fill="none" stroke="#333333" stroke-width="0.9957" stroke-linecap="round" stroke-miterlimit="10" points="
						165.868,203.313 166.095,203.918 169.167,212.113 169.364,212.639 					"/>
					
						<line fill="none" stroke="#333333" stroke-width="0.9957" stroke-linecap="round" stroke-miterlimit="10" x1="169.913" y1="214.104" x2="169.889" y2="214.037"/>
				</g>
			</g>
		</g>
		<g>
			
				<path fill="#A1C453" stroke="#333333" stroke-width="1.4936" stroke-linecap="round" stroke-linejoin="round" stroke-miterlimit="10" d="
				M180.396,209.094c-2.854,0.998-3.735,3.102-9.521,0.473c-5.784-2.631-1.378-5.43-5.187-7.161c3.809,1.73,3.289-3.451,8.859-0.917
				C180.12,204.022,179.041,206.395,180.396,209.094z"/>
			<g>
				<line fill="none" x1="165.689" y1="202.405" x2="177.086" y2="207.587"/>
				<g>
					<polyline fill="none" stroke="#333333" stroke-width="0.9957" stroke-linecap="round" stroke-miterlimit="10" points="
						166.143,202.611 166.729,202.878 174.699,206.502 175.209,206.732 					"/>
					
						<line fill="none" stroke="#333333" stroke-width="0.9957" stroke-linecap="round" stroke-miterlimit="10" x1="176.633" y1="207.381" x2="176.569" y2="207.352"/>
				</g>
			</g>
		</g>
		<g>
			
				<path fill="#A1C453" stroke="#333333" stroke-width="1.4936" stroke-linecap="round" stroke-linejoin="round" stroke-miterlimit="10" d="
				M161.044,214.479c-0.981-2.164-2.689-2.705-1.036-7.416c1.654-4.71,4.152-1.459,5.24-4.561c-1.088,3.102,2.931,2.333,1.338,6.868
				C164.993,213.908,163.063,213.23,161.044,214.479z"/>
			<g>
				<line fill="none" x1="165.248" y1="202.503" x2="161.99" y2="211.784"/>
				<g>
					<polyline fill="none" stroke="#333333" stroke-width="0.9957" stroke-linecap="round" stroke-miterlimit="10" points="
						165.083,202.973 164.869,203.581 162.858,209.311 162.673,209.839 					"/>
					
						<line fill="none" stroke="#333333" stroke-width="0.9957" stroke-linecap="round" stroke-miterlimit="10" x1="162.155" y1="211.314" x2="162.179" y2="211.248"/>
				</g>
			</g>
		</g>
		<g>
			<g>
				<path fill="#EF4529" d="M140.377,188.854c-3.239,1.31-8.351-0.872-8.232-3.492c-2.151-1.974,0.255-6.922,3.494-8.23
					c3.237-1.309,7.078-1.016,7.577,3.985C146.208,184.86,143.614,187.545,140.377,188.854z"/>
				<g>
					<path fill="none" stroke="#333333" stroke-width="1.4936" stroke-linecap="round" stroke-miterlimit="10" d="M139.665,189.075
						c-0.316,0.063-0.632,0.131-0.956,0.143c-1.53,0.112-3.082-0.265-4.425-0.993c-0.666-0.371-1.297-0.849-1.721-1.492
						c-0.195-0.326-0.368-0.682-0.395-1.065l-0.022-0.287c-0.041-0.081-0.12-0.147-0.178-0.222
						c-0.139-0.136-0.239-0.298-0.321-0.472c-0.354-0.686-0.372-1.495-0.231-2.241c0.143-0.754,0.436-1.473,0.81-2.14
						c0.772-1.312,1.872-2.489,3.283-3.112c1.4-0.584,2.979-0.932,4.484-0.574c0.743,0.182,1.437,0.581,1.945,1.155
						c0.523,0.567,0.836,1.294,1.033,2.028c0.114,0.367,0.162,0.748,0.217,1.128c-0.009,0.204,0.153,0.34,0.254,0.5
						c0.107,0.158,0.235,0.304,0.325,0.473c0.407,0.647,0.692,1.384,0.748,2.148c0.059,0.765-0.166,1.538-0.585,2.177
						c-0.087,0.166-0.233,0.318-0.334,0.452c-0.058,0.072-0.113,0.146-0.181,0.209c-0.132,0.128-0.256,0.266-0.396,0.387"/>
					
						<line fill="none" stroke="#333333" stroke-width="1.4936" stroke-linecap="round" stroke-miterlimit="10" x1="141.06" y1="188.55" x2="141.153" y2="188.502"/>
				</g>
			</g>
			
				<ellipse transform="matrix(0.9739 0.2268 -0.2268 0.9739 44.1431 -26.7955)" opacity="0.5" fill="#FFFFFF" enable-background="new    " cx="138.688" cy="178.717" rx="1.447" ry="1.191"/>
		</g>
		<g>
			<g>
				<path fill="#D3F46C" d="M159.188,210.389c-3.482-0.246-7.118-4.449-5.86-6.75c-1.068-2.718,3.268-6.108,6.751-5.862
					c3.481,0.245,6.804,2.195,5.057,6.907C166.178,209.359,162.67,210.634,159.188,210.389z"/>
				<g>
					<path fill="none" stroke="#333333" stroke-width="1.4936" stroke-linecap="round" stroke-miterlimit="10" d="M158.45,210.273
						c-0.313-0.082-0.625-0.16-0.922-0.291c-1.424-0.571-2.651-1.59-3.54-2.836c-0.435-0.625-0.792-1.33-0.89-2.096
						c-0.032-0.38-0.03-0.774,0.114-1.131l0.105-0.268c-0.003-0.091-0.043-0.185-0.063-0.276c-0.065-0.183-0.083-0.373-0.081-0.565
						c-0.018-0.771,0.323-1.507,0.776-2.115c0.458-0.614,1.037-1.131,1.667-1.566c1.269-0.84,2.773-1.415,4.314-1.355
						c1.516,0.09,3.085,0.471,4.279,1.453c0.589,0.49,1.035,1.153,1.241,1.893c0.222,0.739,0.184,1.529,0.037,2.276
						c-0.06,0.38-0.185,0.742-0.301,1.107c-0.099,0.18-0.012,0.373,0.01,0.561c0.025,0.189,0.076,0.376,0.084,0.568
						c0.082,0.76,0.014,1.547-0.271,2.258c-0.283,0.713-0.823,1.31-1.48,1.699c-0.15,0.11-0.35,0.184-0.498,0.26
						c-0.083,0.039-0.165,0.082-0.255,0.107c-0.176,0.059-0.347,0.127-0.524,0.175"/>
					
						<line fill="none" stroke="#333333" stroke-width="1.4936" stroke-linecap="round" stroke-miterlimit="10" x1="159.934" y1="210.415" x2="160.039" y2="210.413"/>
				</g>
			</g>
			
				<ellipse transform="matrix(0.7755 0.6314 -0.6314 0.7755 163.0296 -57.3448)" opacity="0.5" fill="#FFFFFF" enable-background="new    " cx="162.139" cy="200.539" rx="1.446" ry="1.19"/>
		</g>
		<path fill="#CC924C" stroke="#333333" stroke-width="2.6551" stroke-linecap="round" stroke-miterlimit="10" d="M103.139,210.939
			l79.502-20.625c1.008-0.255,1.618-1.277,1.363-2.287l0,0c-0.255-1.007-1.279-1.618-2.287-1.363l-79.746,19.658"/>
		<g>
			
				<path fill="#A1C453" stroke="#333333" stroke-width="0.9957" stroke-linecap="round" stroke-linejoin="round" stroke-miterlimit="10" d="
				M183.793,186.582c0,0,2.901,0.414,3.453,0.648c0.44,0.186-2.375,1.564-3.478,1.876L183.793,186.582z"/>
			
				<path fill="#A1C453" stroke="#333333" stroke-width="0.9957" stroke-linecap="round" stroke-linejoin="round" stroke-miterlimit="10" d="
				M184.591,188.769l-3.993-2.098c0,0,4.138-1.735,5.882-1.04C186.479,185.631,185.164,187.365,184.591,188.769z"/>
			
				<path fill="#A1C453" stroke="#333333" stroke-width="0.9957" stroke-linecap="round" stroke-linejoin="round" stroke-miterlimit="10" d="
				M179.546,190.646c0,0,5.5,0.887,7.84-1.434l-3.919-1.813L179.546,190.646z"/>
		</g>
	</g>
</g>
<g id="calque09">
	<g>
		
			<polygon fill="#CC924C" stroke="#333333" stroke-width="0.9957" stroke-linecap="round" stroke-linejoin="round" stroke-miterlimit="10" points="
			171.765,182.776 166.787,190.584 169.51,189.895 		"/>
		
			<polygon fill="#CC924C" stroke="#333333" stroke-width="0.7966" stroke-linecap="round" stroke-linejoin="round" stroke-miterlimit="10" points="
			165.689,202.403 156.391,196.953 159.114,196.265 		"/>
		
			<polygon fill="#CC924C" stroke="#333333" stroke-width="0.9957" stroke-linecap="round" stroke-linejoin="round" stroke-miterlimit="10" points="
			143.902,181.956 133.607,198.831 136.331,198.143 		"/>
		
			<polygon fill="#CC924C" stroke="#333333" stroke-width="0.9957" stroke-linecap="round" stroke-linejoin="round" stroke-miterlimit="10" points="
			131.195,208.771 124.631,205.4 126.388,204.956 		"/>
		<g>
			
				<path fill="#A1C453" stroke="#333333" stroke-width="1.4936" stroke-linecap="round" stroke-linejoin="round" stroke-miterlimit="10" d="
				M122.532,188.009c1.478,2.236,3.477,2.535,2.474,8.076c-1.002,5.541-4.364,2.364-5.024,6.01c0.661-3.646-3.679-2.074-2.713-7.411
				C118.234,189.348,120.506,189.759,122.532,188.009z"/>
			<g>
				<line fill="none" x1="119.981" y1="202.095" x2="121.957" y2="191.179"/>
				<g>
					<polyline fill="none" stroke="#333333" stroke-width="0.9957" stroke-linecap="round" stroke-miterlimit="10" points="
						120.07,201.604 120.185,200.97 121.49,193.759 121.59,193.207 					"/>
					
						<line fill="none" stroke="#333333" stroke-width="0.9957" stroke-linecap="round" stroke-miterlimit="10" x1="121.868" y1="191.669" x2="121.856" y2="191.737"/>
				</g>
			</g>
		</g>
		<g>
			
				<path fill="#A1C453" stroke="#333333" stroke-width="1.4936" stroke-linecap="round" stroke-linejoin="round" stroke-miterlimit="10" d="
				M180.561,171.481c-2.651,0.391-4.209-0.901-7.668,3.543c-3.46,4.442,1.15,4.83-1.128,7.752c2.278-2.922,4,1.358,7.332-2.922
				C182.429,175.576,180.607,174.157,180.561,171.481z"/>
			<g>
				<line fill="none" x1="171.765" y1="182.776" x2="178.58" y2="174.024"/>
				<g>
					<polyline fill="none" stroke="#333333" stroke-width="0.9957" stroke-linecap="round" stroke-miterlimit="10" points="
						172.07,182.384 172.467,181.875 176.969,176.093 177.313,175.65 					"/>
					
						<line fill="none" stroke="#333333" stroke-width="0.9957" stroke-linecap="round" stroke-miterlimit="10" x1="178.274" y1="174.417" x2="178.231" y2="174.473"/>
				</g>
			</g>
		</g>
		<g>
			
				<path fill="#A1C453" stroke="#333333" stroke-width="1.4936" stroke-linecap="round" stroke-linejoin="round" stroke-miterlimit="10" d="
				M158.491,175.047c-1.044,2.839,0.021,4.855-5.685,7.65c-5.706,2.796-5.069-2.384-8.823-0.544c3.754-1.84-0.575-4.731,4.92-7.424
				C154.399,172.037,155.545,174.376,158.491,175.047z"/>
			<g>
				<line fill="none" x1="143.983" y1="182.153" x2="155.225" y2="176.645"/>
				<g>
					<polyline fill="none" stroke="#333333" stroke-width="0.9957" stroke-linecap="round" stroke-miterlimit="10" points="
						144.431,181.935 145.01,181.65 152.871,177.799 153.374,177.552 					"/>
					
						<line fill="none" stroke="#333333" stroke-width="0.9957" stroke-linecap="round" stroke-miterlimit="10" x1="154.778" y1="176.863" x2="154.715" y2="176.895"/>
				</g>
			</g>
		</g>
		<g>
			
				<path fill="#A1C453" stroke="#333333" stroke-width="1.4936" stroke-linecap="round" stroke-linejoin="round" stroke-miterlimit="10" d="
				M148.776,166.916c1.271,2.745,3.451,3.417,1.393,9.429c-2.059,6.012-5.271,1.898-6.625,5.855
				c1.354-3.957-3.752-2.939-1.771-8.729C143.756,167.68,146.221,168.523,148.776,166.916z"/>
			<g>
				<line fill="none" x1="143.543" y1="182.2" x2="147.599" y2="170.355"/>
				<g>
					<polyline fill="none" stroke="#333333" stroke-width="0.9957" stroke-linecap="round" stroke-miterlimit="10" points="
						143.705,181.729 143.914,181.119 146.75,172.836 146.931,172.306 					"/>
					
						<line fill="none" stroke="#333333" stroke-width="0.9957" stroke-linecap="round" stroke-miterlimit="10" x1="147.438" y1="170.826" x2="147.415" y2="170.893"/>
				</g>
			</g>
		</g>
		<g>
			
				<path fill="#A1C453" stroke="#333333" stroke-width="1.4936" stroke-linecap="round" stroke-linejoin="round" stroke-miterlimit="10" d="
				M142.543,213.59c-0.919-2.218-0.141-3.852-4.753-5.881c-4.613-2.029-3.94,2.057-6.977,0.719c3.036,1.338-0.302,3.77,4.142,5.725
				C139.398,216.105,140.23,214.215,142.543,213.59z"/>
			<g>
				<line fill="none" x1="130.813" y1="208.428" x2="139.903" y2="212.428"/>
				<g>
					<polyline fill="none" stroke="#333333" stroke-width="0.9957" stroke-linecap="round" stroke-miterlimit="10" points="
						131.269,208.628 131.86,208.889 137.503,211.371 138.017,211.598 					"/>
					
						<line fill="none" stroke="#333333" stroke-width="0.9957" stroke-linecap="round" stroke-miterlimit="10" x1="139.448" y1="212.227" x2="139.383" y2="212.197"/>
				</g>
			</g>
		</g>
		<g>
			
				<path fill="#A1C453" stroke="#333333" stroke-width="1.4936" stroke-linecap="round" stroke-linejoin="round" stroke-miterlimit="10" d="
				M135.109,220.348c0.917-2.216,2.622-2.82,0.795-7.519c-1.825-4.697-4.238-1.333-5.439-4.425c1.202,3.092-2.878,2.451-1.119,6.976
				S133.031,219.156,135.109,220.348z"/>
			<g>
				<line fill="none" x1="130.464" y1="208.404" x2="134.063" y2="217.66"/>
				<g>
					<polyline fill="none" stroke="#333333" stroke-width="0.9957" stroke-linecap="round" stroke-miterlimit="10" points="
						130.645,208.869 130.878,209.471 133.113,215.217 133.316,215.738 					"/>
					
						<line fill="none" stroke="#333333" stroke-width="0.9957" stroke-linecap="round" stroke-miterlimit="10" x1="133.882" y1="217.195" x2="133.857" y2="217.131"/>
				</g>
			</g>
		</g>
		<g>
			
				<path fill="#A1C453" stroke="#333333" stroke-width="1.4936" stroke-linecap="round" stroke-linejoin="round" stroke-miterlimit="10" d="
				M171.363,217.973c-2.726-1.313-4.837-0.449-7.066-6.397c-2.229-5.95,2.865-4.813,1.396-8.73c1.469,3.917,4.766-0.114,6.912,5.615
				C174.754,214.191,172.314,215.105,171.363,217.973z"/>
			<g>
				<line fill="none" x1="165.693" y1="202.844" x2="170.087" y2="214.566"/>
				<g>
					<polyline fill="none" stroke="#333333" stroke-width="0.9957" stroke-linecap="round" stroke-miterlimit="10" points="
						165.868,203.31 166.095,203.914 169.167,212.111 169.363,212.637 					"/>
					
						<line fill="none" stroke="#333333" stroke-width="0.9957" stroke-linecap="round" stroke-miterlimit="10" x1="169.912" y1="214.102" x2="169.888" y2="214.035"/>
				</g>
			</g>
		</g>
		<g>
			
				<path fill="#A1C453" stroke="#333333" stroke-width="1.4936" stroke-linecap="round" stroke-linejoin="round" stroke-miterlimit="10" d="
				M180.395,209.09c-2.854,0.998-3.735,3.104-9.52,0.475c-5.785-2.633-1.379-5.432-5.187-7.161c3.808,1.729,3.288-3.452,8.857-0.919
				C180.119,204.02,179.04,206.391,180.395,209.09z"/>
			<g>
				<line fill="none" x1="165.689" y1="202.403" x2="177.086" y2="207.585"/>
				<g>
					<polyline fill="none" stroke="#333333" stroke-width="0.9957" stroke-linecap="round" stroke-miterlimit="10" points="
						166.143,202.609 166.729,202.876 174.699,206.5 175.209,206.73 					"/>
					
						<line fill="none" stroke="#333333" stroke-width="0.9957" stroke-linecap="round" stroke-miterlimit="10" x1="176.633" y1="207.379" x2="176.569" y2="207.35"/>
				</g>
			</g>
		</g>
		<g>
			
				<path fill="#A1C453" stroke="#333333" stroke-width="1.4936" stroke-linecap="round" stroke-linejoin="round" stroke-miterlimit="10" d="
				M161.043,214.477c-0.98-2.164-2.689-2.707-1.036-7.416c1.654-4.709,4.153-1.459,5.241-4.56c-1.088,3.101,2.93,2.331,1.338,6.868
				C164.992,213.906,163.062,213.229,161.043,214.477z"/>
			<g>
				<line fill="none" x1="165.248" y1="202.501" x2="161.989" y2="211.781"/>
				<g>
					<polyline fill="none" stroke="#333333" stroke-width="0.9957" stroke-linecap="round" stroke-miterlimit="10" points="
						165.083,202.971 164.869,203.579 162.858,209.309 162.672,209.836 					"/>
					
						<line fill="none" stroke="#333333" stroke-width="0.9957" stroke-linecap="round" stroke-miterlimit="10" x1="162.154" y1="211.313" x2="162.178" y2="211.245"/>
				</g>
			</g>
		</g>
		<g>
			<g>
				<path fill="#EF4529" d="M140.377,188.852c-3.239,1.308-8.351-0.873-8.232-3.493c-2.151-1.973,0.255-6.923,3.494-8.229
					c3.237-1.309,7.078-1.017,7.577,3.983C146.207,184.858,143.614,187.543,140.377,188.852z"/>
				<g>
					<path fill="none" stroke="#333333" stroke-width="1.4936" stroke-linecap="round" stroke-miterlimit="10" d="M139.665,189.073
						c-0.316,0.063-0.632,0.13-0.956,0.142c-1.53,0.112-3.081-0.265-4.425-0.993c-0.666-0.371-1.298-0.849-1.722-1.492
						c-0.195-0.326-0.368-0.682-0.395-1.065l-0.022-0.287c-0.041-0.081-0.12-0.146-0.178-0.221
						c-0.139-0.137-0.239-0.299-0.321-0.473c-0.354-0.686-0.372-1.495-0.231-2.241c0.143-0.754,0.436-1.472,0.811-2.14
						c0.772-1.312,1.872-2.489,3.283-3.111c1.4-0.584,2.979-0.933,4.483-0.574c0.743,0.182,1.437,0.581,1.946,1.154
						c0.523,0.567,0.836,1.294,1.032,2.029c0.114,0.367,0.162,0.748,0.217,1.127c-0.01,0.205,0.154,0.34,0.254,0.5
						c0.107,0.158,0.235,0.305,0.325,0.474c0.407,0.647,0.691,1.384,0.747,2.148c0.058,0.765-0.166,1.538-0.585,2.177
						c-0.087,0.166-0.234,0.318-0.334,0.452c-0.058,0.072-0.113,0.146-0.181,0.209c-0.132,0.128-0.256,0.266-0.396,0.387"/>
					
						<line fill="none" stroke="#333333" stroke-width="1.4936" stroke-linecap="round" stroke-miterlimit="10" x1="141.059" y1="188.548" x2="141.152" y2="188.5"/>
				</g>
			</g>
			
				<ellipse transform="matrix(0.9739 0.2271 -0.2271 0.9739 44.2088 -26.8254)" opacity="0.5" fill="#FFFFFF" enable-background="new    " cx="138.682" cy="178.709" rx="1.447" ry="1.19"/>
		</g>
		<g>
			<g>
				<path fill="#EF4529" d="M159.23,210.557c-3.482-0.246-7.118-4.447-5.86-6.75c-1.068-2.717,3.268-6.106,6.751-5.862
					c3.481,0.245,6.805,2.196,5.058,6.908C166.221,209.529,162.713,210.803,159.23,210.557z"/>
				<g>
					<path fill="none" stroke="#333333" stroke-width="1.4936" stroke-linecap="round" stroke-miterlimit="10" d="M158.493,210.443
						c-0.313-0.084-0.625-0.162-0.922-0.293c-1.424-0.57-2.651-1.59-3.538-2.834c-0.436-0.627-0.792-1.332-0.891-2.097
						c-0.032-0.379-0.03-0.773,0.114-1.131l0.105-0.267c-0.003-0.092-0.043-0.186-0.063-0.277c-0.065-0.183-0.083-0.373-0.081-0.565
						c-0.018-0.771,0.323-1.507,0.777-2.115c0.459-0.614,1.038-1.131,1.667-1.565c1.269-0.84,2.773-1.415,4.314-1.356
						c1.516,0.09,3.085,0.471,4.28,1.454c0.588,0.49,1.035,1.153,1.24,1.893c0.222,0.739,0.184,1.529,0.037,2.276
						c-0.06,0.38-0.185,0.743-0.301,1.108c-0.099,0.18-0.012,0.372,0.01,0.56c0.025,0.19,0.076,0.377,0.084,0.568
						c0.082,0.761,0.014,1.548-0.271,2.259c-0.283,0.713-0.823,1.31-1.48,1.698c-0.151,0.11-0.351,0.183-0.498,0.261
						c-0.084,0.039-0.166,0.082-0.256,0.107c-0.175,0.057-0.347,0.126-0.523,0.174"/>
					
						<line fill="none" stroke="#333333" stroke-width="1.4936" stroke-linecap="round" stroke-miterlimit="10" x1="159.976" y1="210.583" x2="160.081" y2="210.581"/>
				</g>
			</g>
			
				<ellipse transform="matrix(0.7753 0.6316 -0.6316 0.7753 163.2162 -57.3241)" opacity="0.5" fill="#FFFFFF" enable-background="new    " cx="162.165" cy="200.705" rx="1.445" ry="1.191"/>
		</g>
		<path fill="#CC924C" stroke="#333333" stroke-width="2.6551" stroke-linecap="round" stroke-miterlimit="10" d="M103.139,210.938
			l79.502-20.625c1.008-0.255,1.617-1.279,1.362-2.288l0,0c-0.255-1.008-1.278-1.618-2.286-1.363l-79.746,19.659"/>
		<g>
			
				<path fill="#A1C453" stroke="#333333" stroke-width="0.9957" stroke-linecap="round" stroke-linejoin="round" stroke-miterlimit="10" d="
				M183.793,186.58c0,0,2.901,0.414,3.452,0.647c0.441,0.185-2.375,1.564-3.477,1.876L183.793,186.58z"/>
			
				<path fill="#A1C453" stroke="#333333" stroke-width="0.9957" stroke-linecap="round" stroke-linejoin="round" stroke-miterlimit="10" d="
				M184.59,188.766l-3.992-2.097c0,0,4.137-1.735,5.881-1.04C186.479,185.629,185.164,187.361,184.59,188.766z"/>
			
				<path fill="#A1C453" stroke="#333333" stroke-width="0.9957" stroke-linecap="round" stroke-linejoin="round" stroke-miterlimit="10" d="
				M179.545,190.645c0,0,5.5,0.886,7.84-1.434l-3.919-1.814L179.545,190.645z"/>
		</g>
	</g>
</g>
</svg>
