<?xml version="1.0" encoding="utf-8"?>
<!-- Generator: Adobe Illustrator 16.0.0, SVG Export Plug-In . SVG Version: 6.00 Build 0)  -->
<!DOCTYPE svg PUBLIC "-//W3C//DTD SVG 1.1//EN" "http://www.w3.org/Graphics/SVG/1.1/DTD/svg11.dtd">
<svg version="1.1" id="Calque_1" xmlns="http://www.w3.org/2000/svg" xmlns:xlink="http://www.w3.org/1999/xlink" x="0px" y="0px"
	 width="340px" height="410px" viewBox="0 0 340 410" enable-background="new 0 0 340 410" xml:space="preserve">
<g id="calque09">
	<g>
		<g>
			<g>
				<path fill="#D6E57F" d="M149.635,295.955H43.723c0,0,10.352,21.245,52.956,21.245
					C139.285,317.2,149.635,295.955,149.635,295.955z"/>
			</g>
			<g>
				<g>
					<path fill="#CC924C" d="M113.415,177.91c-4.89,3.85-4.675,8.425-4.675,8.425s0,90.888,0,96.88c0,5.991,3.339,8.801,8.906,8.801
						c3.818,0,4.906,3.939,4.906,3.939H70.591c0,0,1.088-3.939,4.906-3.939c5.567,0,8.906-2.81,8.906-8.801c0-5.992,0-96.88,0-96.88
						s0.215-4.576-4.674-8.425C79.729,177.91,96.679,165.813,113.415,177.91z"/>
				</g>
			</g>
			<g>
				<g>
					<path fill="none" stroke="#333333" stroke-width="2.663" stroke-linecap="round" stroke-miterlimit="10" d="M71.122,294.736
						c0,0,0.066-0.111,0.191-0.32c0.131-0.205,0.336-0.499,0.642-0.838l0.123-0.125c0.056-0.051,0.025-0.041,0.268-0.258
						c0.364-0.334,0.813-0.602,1.299-0.823c1.004-0.448,2.204-0.308,3.432-0.448c1.229-0.139,2.546-0.447,3.752-1.156
						c1.193-0.713,2.237-1.843,2.806-3.27c0.612-1.409,0.785-3.027,0.77-4.671c0-1.647,0-3.353,0-5.104c0-3.502,0-7.197,0-11.02
						c0-7.645,0-15.797,0-23.95c0-16.308,0-32.612,0-44.843c0-3.058,0-5.86,0-8.345c-0.001-1.242-0.002-2.404-0.003-3.479
						c-0.024-0.537-0.118-1.046-0.222-1.527c-0.066-0.237-0.131-0.469-0.195-0.695c-0.033-0.112-0.059-0.226-0.099-0.333
						l-0.053-0.127c-0.175-0.42-0.313-0.75-0.407-0.975c-0.085-0.229-0.176-0.329-0.168-0.333"/>
					
						<line fill="none" stroke="#333333" stroke-width="2.663" stroke-linecap="round" stroke-miterlimit="10" x1="80.712" y1="178.808" x2="80.85" y2="178.935"/>
				</g>
			</g>
			<g>
				<g>
					<path fill="none" stroke="#333333" stroke-width="2.663" stroke-linecap="round" stroke-miterlimit="10" d="M112.433,178.808
						c0,0-0.096,0.088-0.275,0.252c-0.091,0.082-0.201,0.184-0.332,0.303c-0.112,0.137-0.24,0.294-0.385,0.471
						c-0.108,0.135-0.223,0.277-0.344,0.426c-0.154,0.192-0.313,0.388-0.475,0.588c-0.131,0.222-0.266,0.449-0.401,0.68
						c-0.136,0.232-0.275,0.468-0.417,0.709c-0.109,0.257-0.221,0.519-0.334,0.786c-0.252,0.525-0.385,1.115-0.549,1.713
						c-0.285,1.219-0.146,2.555-0.182,3.944c0,1.394,0,2.858,0,4.387c0,12.23,0,28.537,0,44.843s0,32.613,0,44.844
						c-0.011,1.525,0.131,3.005,0.598,4.323c0.465,1.313,1.272,2.423,2.251,3.188c0.977,0.774,2.093,1.199,3.136,1.44
						c0.527,0.104,1.034,0.2,1.526,0.235c0.245,0.029,0.483,0.049,0.72,0.049c0.166,0.007,0.328,0.012,0.485,0.018
						c0.913,0.014,1.418,0.159,1.418,0.159"/>
					
						<line fill="none" stroke="#333333" stroke-width="2.663" stroke-linecap="round" stroke-miterlimit="10" x1="122.022" y1="294.736" x2="121.926" y2="294.575"/>
				</g>
			</g>
			<g>
				<g>
					
						<line fill="none" stroke="#333333" stroke-width="2.663" stroke-linecap="round" stroke-miterlimit="10" x1="148.303" y1="295.955" x2="49.236" y2="295.955"/>
					
						<line fill="none" stroke="#333333" stroke-width="2.663" stroke-linecap="round" stroke-miterlimit="10" x1="45.054" y1="295.955" x2="45.241" y2="295.955"/>
				</g>
			</g>
			
				<line fill="none" stroke="#A1C453" stroke-width="1.3314" stroke-linecap="round" stroke-linejoin="round" stroke-miterlimit="10" x1="127.042" y1="289.689" x2="127.042" y2="299.046"/>
			
				<line fill="none" stroke="#A1C453" stroke-width="1.3314" stroke-linecap="round" stroke-linejoin="round" stroke-miterlimit="10" x1="133.819" y1="292.664" x2="133.819" y2="299.046"/>
			
				<line fill="none" stroke="#A1C453" stroke-width="1.3314" stroke-linecap="round" stroke-linejoin="round" stroke-miterlimit="10" x1="151.863" y1="295.021" x2="151.863" y2="297.414"/>
			
				<line fill="none" stroke="#A1C453" stroke-width="1.3314" stroke-linecap="round" stroke-linejoin="round" stroke-miterlimit="10" x1="65.685" y1="289.622" x2="65.685" y2="297.307"/>
			
				<line fill="none" stroke="#A1C453" stroke-width="1.3314" stroke-linecap="round" stroke-linejoin="round" stroke-miterlimit="10" x1="59.03" y1="291.786" x2="59.03" y2="297.307"/>
			<g>
				<g>
					
						<line fill="none" stroke="#AF773A" stroke-width="1.331" stroke-linecap="round" stroke-miterlimit="10" x1="102.439" y1="291.706" x2="102.439" y2="228.234"/>
					
						<line fill="none" stroke="#AF773A" stroke-width="1.331" stroke-linecap="round" stroke-miterlimit="10" x1="102.439" y1="226.146" x2="102.439" y2="226.238"/>
				</g>
			</g>
			<g>
				<g>
					
						<line fill="none" stroke="#AF773A" stroke-width="1.331" stroke-linecap="round" stroke-miterlimit="10" x1="89.125" y1="189.949" x2="89.125" y2="247.826"/>
					
						<line fill="none" stroke="#AF773A" stroke-width="1.331" stroke-linecap="round" stroke-miterlimit="10" x1="89.125" y1="249.917" x2="89.125" y2="249.822"/>
				</g>
			</g>
			<g>
				<g>
					<path fill="none" stroke="#AF773A" stroke-width="1.3314" stroke-linecap="round" stroke-miterlimit="10" d="M92.789,177.047
						c0.01,0.287,0.015,0.575,0.002,0.862c-0.065,2.11-0.795,4.332-2.479,5.706c-0.172,0.184-0.403,0.293-0.604,0.441"/>
					
						<line fill="none" stroke="#AF773A" stroke-width="1.3314" stroke-linecap="round" stroke-miterlimit="10" x1="87.822" y1="184.929" x2="87.912" y2="184.902"/>
				</g>
			</g>
			<g>
				<g>
					<path fill="none" stroke="#AF773A" stroke-width="1.3314" stroke-linecap="round" stroke-miterlimit="10" d="M104.318,184.874
						c-0.262-0.119-0.521-0.242-0.774-0.377c-2.051-1.082-3.883-2.692-4.957-4.772c-0.125-0.217-0.204-0.456-0.31-0.682"/>
					
						<line fill="none" stroke="#AF773A" stroke-width="1.3314" stroke-linecap="round" stroke-miterlimit="10" x1="97.696" y1="177.041" x2="97.711" y2="177.133"/>
				</g>
			</g>
			<g>
				<g>
					<path fill="none" stroke="#AF773A" stroke-width="1.3314" stroke-linecap="round" stroke-miterlimit="10" d="M95.595,178.573
						c-0.011,0.288-0.006,0.575,0.005,0.862c0.09,1.852,0.624,3.72,1.745,5.218c0.57,0.734,1.247,1.39,2.034,1.89l0.143,0.101
						c0.013,0.052,0.003,0.115,0.006,0.171v0.349v0.698v1.396v10.858"/>
					
						<line fill="none" stroke="#AF773A" stroke-width="1.3314" stroke-linecap="round" stroke-miterlimit="10" x1="99.527" y1="202.208" x2="99.527" y2="202.114"/>
				</g>
			</g>
		</g>
	</g>
	<g>
		<g>
			<g>
				<path fill="#D6E57F" d="M301.154,295.954h-105.91c0,0,10.351,21.246,52.957,21.246
					C290.804,317.2,301.154,295.954,301.154,295.954z"/>
			</g>
			<g>
				<g>
					<path fill="#CC924C" d="M264.936,177.909c-4.891,3.85-4.674,8.425-4.674,8.425s0,90.887,0,96.878
						c0,5.992,3.338,8.802,8.906,8.802c3.815,0,4.904,3.939,4.904,3.939H222.11c0,0,1.09-3.939,4.905-3.939
						c5.567,0,8.908-2.81,8.908-8.802c0-5.991,0-96.878,0-96.878s0.215-4.576-4.674-8.425
						C231.25,177.909,248.2,165.813,264.936,177.909z"/>
				</g>
			</g>
			<g>
				<g>
					<path fill="none" stroke="#333333" stroke-width="2.663" stroke-linecap="round" stroke-miterlimit="10" d="M222.642,294.734
						c0,0,0.066-0.11,0.192-0.319c0.131-0.205,0.337-0.499,0.641-0.838l0.123-0.125c0.056-0.05,0.026-0.041,0.27-0.257
						c0.362-0.336,0.812-0.603,1.3-0.824c1.003-0.447,2.203-0.307,3.431-0.447c1.229-0.139,2.545-0.449,3.751-1.158
						c1.194-0.713,2.238-1.842,2.806-3.269c0.612-1.41,0.786-3.026,0.771-4.671c0-1.648,0-3.352,0-5.104c0-3.505,0-7.199,0-11.021
						c0-7.644,0-15.798,0-23.95c0-16.307,0-32.613,0-44.843c0-3.058,0-5.86,0-8.345c-0.001-1.242-0.003-2.404-0.004-3.479
						c-0.024-0.537-0.118-1.047-0.221-1.527c-0.066-0.237-0.133-0.469-0.195-0.695c-0.033-0.112-0.06-0.226-0.098-0.333
						l-0.055-0.127c-0.176-0.42-0.313-0.75-0.407-0.975c-0.085-0.229-0.176-0.329-0.169-0.333"/>
					
						<line fill="none" stroke="#333333" stroke-width="2.663" stroke-linecap="round" stroke-miterlimit="10" x1="232.232" y1="178.808" x2="232.371" y2="178.934"/>
				</g>
			</g>
			<g>
				<g>
					<path fill="none" stroke="#333333" stroke-width="2.663" stroke-linecap="round" stroke-miterlimit="10" d="M263.953,178.808
						c0,0-0.098,0.088-0.276,0.252c-0.09,0.082-0.201,0.184-0.331,0.303c-0.112,0.137-0.24,0.294-0.384,0.471
						c-0.109,0.135-0.225,0.277-0.344,0.426c-0.154,0.191-0.313,0.388-0.476,0.588c-0.131,0.222-0.265,0.449-0.4,0.68
						c-0.137,0.231-0.275,0.468-0.417,0.708c-0.109,0.257-0.222,0.52-0.334,0.787c-0.253,0.525-0.386,1.115-0.55,1.713
						c-0.285,1.219-0.146,2.555-0.181,3.944c0,1.393,0,2.858,0,4.387c0,12.229,0,28.537,0,44.841c0,16.307,0,32.613,0,44.844
						c-0.011,1.525,0.13,3.005,0.597,4.322c0.465,1.314,1.272,2.424,2.25,3.189c0.977,0.774,2.093,1.2,3.136,1.44
						c0.526,0.104,1.033,0.2,1.525,0.235c0.245,0.03,0.484,0.049,0.72,0.051c0.166,0.006,0.328,0.011,0.485,0.017
						c0.913,0.015,1.418,0.159,1.418,0.159"/>
					
						<line fill="none" stroke="#333333" stroke-width="2.663" stroke-linecap="round" stroke-miterlimit="10" x1="273.542" y1="294.734" x2="273.446" y2="294.575"/>
				</g>
			</g>
			<g>
				<g>
					
						<line fill="none" stroke="#333333" stroke-width="2.663" stroke-linecap="round" stroke-miterlimit="10" x1="299.823" y1="295.954" x2="200.757" y2="295.954"/>
					
						<line fill="none" stroke="#333333" stroke-width="2.663" stroke-linecap="round" stroke-miterlimit="10" x1="196.574" y1="295.954" x2="196.762" y2="295.954"/>
				</g>
			</g>
			
				<line fill="none" stroke="#A1C453" stroke-width="1.3314" stroke-linecap="round" stroke-linejoin="round" stroke-miterlimit="10" x1="278.561" y1="289.689" x2="278.561" y2="299.045"/>
			
				<line fill="none" stroke="#A1C453" stroke-width="1.3314" stroke-linecap="round" stroke-linejoin="round" stroke-miterlimit="10" x1="285.34" y1="292.664" x2="285.34" y2="299.045"/>
			
				<line fill="none" stroke="#A1C453" stroke-width="1.3314" stroke-linecap="round" stroke-linejoin="round" stroke-miterlimit="10" x1="303.382" y1="295.021" x2="303.382" y2="297.414"/>
			
				<line fill="none" stroke="#A1C453" stroke-width="1.3314" stroke-linecap="round" stroke-linejoin="round" stroke-miterlimit="10" x1="217.206" y1="289.622" x2="217.206" y2="297.307"/>
			
				<line fill="none" stroke="#A1C453" stroke-width="1.3314" stroke-linecap="round" stroke-linejoin="round" stroke-miterlimit="10" x1="210.549" y1="291.785" x2="210.549" y2="297.307"/>
			<g>
				<g>
					
						<line fill="none" stroke="#AF773A" stroke-width="1.331" stroke-linecap="round" stroke-miterlimit="10" x1="253.96" y1="291.706" x2="253.96" y2="228.234"/>
					
						<line fill="none" stroke="#AF773A" stroke-width="1.331" stroke-linecap="round" stroke-miterlimit="10" x1="253.96" y1="226.145" x2="253.96" y2="226.238"/>
				</g>
			</g>
			<g>
				<g>
					
						<line fill="none" stroke="#AF773A" stroke-width="1.331" stroke-linecap="round" stroke-miterlimit="10" x1="240.645" y1="189.948" x2="240.645" y2="247.825"/>
					
						<line fill="none" stroke="#AF773A" stroke-width="1.331" stroke-linecap="round" stroke-miterlimit="10" x1="240.645" y1="249.916" x2="240.645" y2="249.822"/>
				</g>
			</g>
			<g>
				<g>
					<path fill="none" stroke="#AF773A" stroke-width="1.3314" stroke-linecap="round" stroke-miterlimit="10" d="M244.309,177.047
						c0.01,0.287,0.016,0.575,0.002,0.862c-0.064,2.11-0.794,4.332-2.477,5.706c-0.173,0.184-0.403,0.293-0.604,0.441"/>
					
						<line fill="none" stroke="#AF773A" stroke-width="1.3314" stroke-linecap="round" stroke-miterlimit="10" x1="239.343" y1="184.929" x2="239.432" y2="184.902"/>
				</g>
			</g>
			<g>
				<g>
					<path fill="none" stroke="#AF773A" stroke-width="1.3314" stroke-linecap="round" stroke-miterlimit="10" d="M255.837,184.874
						c-0.262-0.119-0.521-0.242-0.775-0.377c-2.051-1.082-3.882-2.691-4.955-4.772c-0.125-0.217-0.205-0.456-0.309-0.682"/>
					
						<line fill="none" stroke="#AF773A" stroke-width="1.3314" stroke-linecap="round" stroke-miterlimit="10" x1="249.217" y1="177.041" x2="249.232" y2="177.133"/>
				</g>
			</g>
			<g>
				<g>
					<path fill="none" stroke="#AF773A" stroke-width="1.3314" stroke-linecap="round" stroke-miterlimit="10" d="M247.113,178.573
						c-0.011,0.288-0.006,0.575,0.006,0.862c0.091,1.852,0.624,3.72,1.744,5.218c0.57,0.734,1.247,1.39,2.035,1.89l0.144,0.1
						c0.01,0.053,0.003,0.115,0.005,0.172v0.349v0.698v1.396v10.858"/>
					
						<line fill="none" stroke="#AF773A" stroke-width="1.3314" stroke-linecap="round" stroke-miterlimit="10" x1="251.046" y1="202.208" x2="251.046" y2="202.114"/>
				</g>
			</g>
		</g>
	</g>
</g>
</svg>
