<?xml version="1.0" encoding="utf-8"?>
<!-- Generator: Adobe Illustrator 16.0.0, SVG Export Plug-In . SVG Version: 6.00 Build 0)  -->
<!DOCTYPE svg PUBLIC "-//W3C//DTD SVG 1.1//EN" "http://www.w3.org/Graphics/SVG/1.1/DTD/svg11.dtd">
<svg version="1.1" id="Calque_1" xmlns="http://www.w3.org/2000/svg" xmlns:xlink="http://www.w3.org/1999/xlink" x="0px" y="0px"
	 width="340px" height="410px" viewBox="0 0 340 410" enable-background="new 0 0 340 410" xml:space="preserve">
<g id="calque00">
	<g>
		<path fill="#CC924C" stroke="#333333" stroke-width="2.4893" stroke-linecap="round" stroke-miterlimit="10" d="M239.497,178.965
			l-4.404-7.646c-0.568-0.869-0.326-2.035,0.547-2.605l0,0c0.869-0.568,2.037-0.324,2.604,0.546l5.237,7.1"/>
		<g>
			
				<path fill="#A1C453" stroke="#333333" stroke-width="0.9957" stroke-linecap="round" stroke-linejoin="round" stroke-miterlimit="10" d="
				M236.773,167.793c0,0-2.417-1.66-2.979-1.86c-0.452-0.162,0.687,2.76,1.286,3.734L236.773,167.793z"/>
			
				<path fill="#A1C453" stroke="#333333" stroke-width="0.9957" stroke-linecap="round" stroke-linejoin="round" stroke-miterlimit="10" d="
				M234.707,168.862l4.356,1.161c0,0-1.87-4.079-3.623-4.748C235.441,165.275,235.235,167.441,234.707,168.862z"/>
			
				<path fill="#A1C453" stroke="#333333" stroke-width="0.9957" stroke-linecap="round" stroke-linejoin="round" stroke-miterlimit="10" d="
				M237.146,173.661c0,0-4.647-3.073-4.799-6.363l4.112,1.318L237.146,173.661z"/>
		</g>
	</g>
</g>
<g id="calque01">
	<g>
		<g>
			
				<path fill="#A1C453" stroke="#333333" stroke-width="0.9957" stroke-linecap="round" stroke-linejoin="round" stroke-miterlimit="10" d="
				M223.023,162.417c1-0.717,1.104-1.64,3.66-1.271c2.555,0.367,1.155,1.961,2.838,2.202c-1.683-0.241-0.889,1.721-3.349,1.368
				C223.71,164.362,223.857,163.315,223.023,162.417z"/>
			<g>
				<line fill="none" x1="229.521" y1="163.348" x2="224.485" y2="162.626"/>
				<g>
					<polyline fill="none" stroke="#333333" stroke-width="0.9957" stroke-linecap="round" stroke-miterlimit="10" points="
						229.028,163.277 228.39,163.186 227.081,162.998 226.526,162.918 					"/>
					
						<line fill="none" stroke="#333333" stroke-width="0.9957" stroke-linecap="round" stroke-miterlimit="10" x1="224.979" y1="162.696" x2="225.048" y2="162.707"/>
				</g>
			</g>
		</g>
		<path fill="#CC924C" stroke="#333333" stroke-width="2.4893" stroke-linecap="round" stroke-miterlimit="10" d="M243.482,176.359
			l-15.4-22.646c-0.569-0.87-1.736-1.114-2.606-0.545l0,0c-0.871,0.57-1.115,1.734-0.545,2.606l14.567,23.19"/>
		<g>
			
				<path fill="#A1C453" stroke="#333333" stroke-width="0.9957" stroke-linecap="round" stroke-linejoin="round" stroke-miterlimit="10" d="
				M224.176,153.838c0,0-0.552-2.88-0.509-3.476c0.03-0.479,2.251,1.736,2.902,2.676L224.176,153.838z"/>
			
				<path fill="#A1C453" stroke="#333333" stroke-width="0.9957" stroke-linecap="round" stroke-linejoin="round" stroke-miterlimit="10" d="
				M225.984,152.374l-0.683,4.457c0,0-2.988-3.349-2.898-5.225C222.403,151.606,224.47,152.286,225.984,152.374z"/>
			
				<path fill="#A1C453" stroke="#333333" stroke-width="0.9957" stroke-linecap="round" stroke-linejoin="round" stroke-miterlimit="10" d="
				M229.401,156.532c0,0-0.95-5.49-3.904-6.948l-0.441,4.298L229.401,156.532z"/>
		</g>
	</g>
</g>
<g id="calque02">
	<g>
		<g>
			
				<path fill="#A1C453" stroke="#333333" stroke-width="1.4936" stroke-linecap="round" stroke-linejoin="round" stroke-miterlimit="10" d="
				M214.809,159.936c2.178-1.558,2.402-3.567,7.979-2.77c5.572,0.8,2.521,4.274,6.189,4.801c-3.668-0.526-1.938,3.752-7.307,2.982
				C216.302,164.181,216.629,161.896,214.809,159.936z"/>
			<g>
				<line fill="none" x1="228.978" y1="161.967" x2="217.995" y2="160.395"/>
				<g>
					<polyline fill="none" stroke="#333333" stroke-width="0.9957" stroke-linecap="round" stroke-miterlimit="10" points="
						228.484,161.896 227.846,161.805 220.591,160.766 220.036,160.687 					"/>
					
						<line fill="none" stroke="#333333" stroke-width="0.9957" stroke-linecap="round" stroke-miterlimit="10" x1="218.488" y1="160.465" x2="218.558" y2="160.475"/>
				</g>
			</g>
		</g>
		<g>
			
				<path fill="#A1C453" stroke="#333333" stroke-width="0.9957" stroke-linecap="round" stroke-linejoin="round" stroke-miterlimit="10" d="
				M227.056,144.242c0.76,0.938,1.669,0.984,1.461,3.51c-0.209,2.528-1.854,1.25-1.992,2.914c0.139-1.664-1.737-0.771-1.536-3.204
				C225.188,145.027,226.226,145.113,227.056,144.242z"/>
			<g>
				<line fill="none" x1="226.524" y1="150.666" x2="226.92" y2="146.243"/>
				<g>
					<polyline fill="none" stroke="#333333" stroke-width="0.9957" stroke-linecap="round" stroke-miterlimit="10" points="
						226.568,150.17 226.626,149.527 226.687,148.854 226.736,148.297 					"/>
					
						<line fill="none" stroke="#333333" stroke-width="0.9957" stroke-linecap="round" stroke-miterlimit="10" x1="226.876" y1="146.739" x2="226.869" y2="146.809"/>
				</g>
			</g>
		</g>
		<path fill="#CC924C" stroke="#333333" stroke-width="2.4893" stroke-linecap="round" stroke-miterlimit="10" d="M243.482,176.359
			l-20.084-29.808c-0.568-0.871-1.734-1.114-2.604-0.545l0,0c-0.872,0.569-1.115,1.735-0.546,2.604l19.25,30.354"/>
		<g>
			
				<path fill="#A1C453" stroke="#333333" stroke-width="0.9957" stroke-linecap="round" stroke-linejoin="round" stroke-miterlimit="10" d="
				M219.493,146.676c0,0-0.552-2.88-0.511-3.476c0.031-0.478,2.25,1.737,2.905,2.677L219.493,146.676z"/>
			
				<path fill="#A1C453" stroke="#333333" stroke-width="0.9957" stroke-linecap="round" stroke-linejoin="round" stroke-miterlimit="10" d="
				M221.301,145.212l-0.684,4.458c0,0-2.987-3.349-2.896-5.225C217.721,144.445,219.789,145.124,221.301,145.212z"/>
			
				<path fill="#A1C453" stroke="#333333" stroke-width="0.9957" stroke-linecap="round" stroke-linejoin="round" stroke-miterlimit="10" d="
				M224.718,149.37c0,0-0.95-5.489-3.904-6.946l-0.44,4.296L224.718,149.37z"/>
		</g>
	</g>
</g>
<g id="calque03">
	<g>
		
			<polygon fill="#CC924C" stroke="#333333" stroke-width="0.9957" stroke-linecap="round" stroke-linejoin="round" stroke-miterlimit="10" points="
			226.566,144.059 227.43,152.718 225.894,150.366 		"/>
		<g>
			
				<path fill="#A1C453" stroke="#333333" stroke-width="1.4936" stroke-linecap="round" stroke-linejoin="round" stroke-miterlimit="10" d="
				M214.806,159.936c2.181-1.558,2.407-3.568,7.981-2.77c5.572,0.8,2.521,4.274,6.189,4.801c-3.668-0.526-1.938,3.752-7.307,2.982
				C216.302,164.181,216.629,161.896,214.806,159.936z"/>
			<g>
				<line fill="none" x1="228.978" y1="161.967" x2="217.836" y2="160.359"/>
				<g>
					<polyline fill="none" stroke="#333333" stroke-width="0.9957" stroke-linecap="round" stroke-miterlimit="10" points="
						228.484,161.896 227.847,161.804 220.431,160.733 219.876,160.653 					"/>
					
						<line fill="none" stroke="#333333" stroke-width="0.9957" stroke-linecap="round" stroke-miterlimit="10" x1="218.329" y1="160.431" x2="218.398" y2="160.44"/>
				</g>
			</g>
		</g>
		<g>
			
				<path fill="#A1C453" stroke="#333333" stroke-width="1.4936" stroke-linecap="round" stroke-linejoin="round" stroke-miterlimit="10" d="
				M227.745,129.793c1.687,2.081,3.705,2.187,3.242,7.798c-0.463,5.612-4.115,2.776-4.422,6.468c0.307-3.691-3.86-1.71-3.415-7.114
				C223.597,131.539,225.897,131.729,227.745,129.793z"/>
			<g>
				<line fill="none" x1="226.406" y1="144.024" x2="227.315" y2="132.969"/>
				<g>
					<polyline fill="none" stroke="#333333" stroke-width="0.9957" stroke-linecap="round" stroke-miterlimit="10" points="
						226.447,143.528 226.5,142.886 227.101,135.582 227.146,135.023 					"/>
					
						<line fill="none" stroke="#333333" stroke-width="0.9957" stroke-linecap="round" stroke-miterlimit="10" x1="227.274" y1="133.465" x2="227.269" y2="133.535"/>
				</g>
			</g>
		</g>
		<g>
			
				<path fill="#A1C453" stroke="#333333" stroke-width="0.9957" stroke-linecap="round" stroke-linejoin="round" stroke-miterlimit="10" d="
				M210.146,147.294c1.132-1.086,1.096-2.268,4.388-2.272c3.295-0.005,1.819,2.264,3.986,2.261
				c-2.167,0.003-0.809,2.334-3.979,2.339C211.367,149.626,211.366,148.274,210.146,147.294z"/>
			<g>
				<line fill="none" x1="218.521" y1="147.282" x2="212.032" y2="147.289"/>
				<g>
					<polyline fill="none" stroke="#333333" stroke-width="0.9957" stroke-linecap="round" stroke-miterlimit="10" points="
						218.022,147.283 217.378,147.283 214.654,147.286 214.094,147.287 					"/>
					
						<line fill="none" stroke="#333333" stroke-width="0.9957" stroke-linecap="round" stroke-miterlimit="10" x1="212.53" y1="147.289" x2="212.601" y2="147.288"/>
				</g>
			</g>
		</g>
		<path fill="#CC924C" stroke="#333333" stroke-width="2.6551" stroke-linecap="round" stroke-miterlimit="10" d="M243.482,176.359
			l-24.424-36.446c-0.57-0.871-1.736-1.114-2.607-0.545l0,0c-0.869,0.569-1.112,1.735-0.543,2.605l23.59,36.991"/>
		<g>
			
				<path fill="#A1C453" stroke="#333333" stroke-width="0.9957" stroke-linecap="round" stroke-linejoin="round" stroke-miterlimit="10" d="
				M215.152,140.038c0,0-0.553-2.88-0.509-3.477c0.03-0.479,2.25,1.737,2.904,2.677L215.152,140.038z"/>
			
				<path fill="#A1C453" stroke="#333333" stroke-width="0.9957" stroke-linecap="round" stroke-linejoin="round" stroke-miterlimit="10" d="
				M216.961,138.572l-0.685,4.458c0,0-2.986-3.349-2.897-5.223C213.379,137.808,215.446,138.485,216.961,138.572z"/>
			
				<path fill="#A1C453" stroke="#333333" stroke-width="0.9957" stroke-linecap="round" stroke-linejoin="round" stroke-miterlimit="10" d="
				M220.378,142.731c0,0-0.951-5.489-3.906-6.948l-0.441,4.297L220.378,142.731z"/>
		</g>
	</g>
</g>
<g id="calque04">
	<g>
		
			<polygon fill="#CC924C" stroke="#333333" stroke-width="0.9957" stroke-linecap="round" stroke-linejoin="round" stroke-miterlimit="10" points="
			226.566,144.059 227.43,152.718 225.894,150.366 		"/>
		
			<polygon fill="#CC924C" stroke="#333333" stroke-width="0.9957" stroke-linecap="round" stroke-linejoin="round" stroke-miterlimit="10" points="
			206.188,145.67 221.188,150.051 219.649,147.698 		"/>
		<g>
			
				<path fill="#A1C453" stroke="#333333" stroke-width="1.4936" stroke-linecap="round" stroke-linejoin="round" stroke-miterlimit="10" d="
				M214.806,159.936c2.181-1.558,2.405-3.567,7.98-2.769c5.573,0.799,2.522,4.273,6.19,4.8c-3.668-0.526-1.938,3.752-7.307,2.982
				C216.302,164.181,216.629,161.896,214.806,159.936z"/>
			<g>
				<line fill="none" x1="228.978" y1="161.967" x2="217.836" y2="160.359"/>
				<g>
					<polyline fill="none" stroke="#333333" stroke-width="0.9957" stroke-linecap="round" stroke-miterlimit="10" points="
						228.484,161.896 227.847,161.804 220.431,160.733 219.876,160.653 					"/>
					
						<line fill="none" stroke="#333333" stroke-width="0.9957" stroke-linecap="round" stroke-miterlimit="10" x1="218.329" y1="160.431" x2="218.398" y2="160.44"/>
				</g>
			</g>
		</g>
		<g>
			
				<path fill="#A1C453" stroke="#333333" stroke-width="1.4936" stroke-linecap="round" stroke-linejoin="round" stroke-miterlimit="10" d="
				M227.745,129.793c1.687,2.081,3.705,2.187,3.242,7.798c-0.463,5.612-4.115,2.776-4.422,6.468c0.307-3.691-3.86-1.71-3.415-7.114
				C223.597,131.539,225.897,131.729,227.745,129.793z"/>
			<g>
				<line fill="none" x1="226.406" y1="144.024" x2="227.315" y2="132.969"/>
				<g>
					<polyline fill="none" stroke="#333333" stroke-width="0.9957" stroke-linecap="round" stroke-miterlimit="10" points="
						226.447,143.528 226.5,142.886 227.101,135.582 227.146,135.023 					"/>
					
						<line fill="none" stroke="#333333" stroke-width="0.9957" stroke-linecap="round" stroke-miterlimit="10" x1="227.274" y1="133.465" x2="227.269" y2="133.535"/>
				</g>
			</g>
		</g>
		<g>
			
				<path fill="#A1C453" stroke="#333333" stroke-width="0.9957" stroke-linecap="round" stroke-linejoin="round" stroke-miterlimit="10" d="
				M200.646,139.724c1.473,0.03,2.23-0.777,4.421,1.404c2.189,2.184-0.295,2.709,1.146,4.146c-1.439-1.438-2.086,1.014-4.192-1.089
				C199.911,142.082,200.804,141.185,200.646,139.724z"/>
			<g>
				<line fill="none" x1="206.212" y1="145.274" x2="201.899" y2="140.974"/>
				<g>
					<polyline fill="none" stroke="#333333" stroke-width="0.9957" stroke-linecap="round" stroke-miterlimit="10" points="
						205.859,144.923 205.402,144.467 203.756,142.825 203.359,142.43 					"/>
					
						<line fill="none" stroke="#333333" stroke-width="0.9957" stroke-linecap="round" stroke-miterlimit="10" x1="202.252" y1="141.325" x2="202.302" y2="141.375"/>
				</g>
			</g>
		</g>
		<g>
			
				<path fill="#A1C453" stroke="#333333" stroke-width="1.4936" stroke-linecap="round" stroke-linejoin="round" stroke-miterlimit="10" d="
				M190.379,145.952c2.184-2.094,2.109-4.375,8.464-4.383c6.354-0.011,3.51,4.366,7.692,4.358c-4.184,0.008-1.561,4.506-7.679,4.515
				C192.735,150.45,192.733,147.846,190.379,145.952z"/>
			<g>
				<line fill="none" x1="206.535" y1="145.928" x2="194.016" y2="145.948"/>
				<g>
					<polyline fill="none" stroke="#333333" stroke-width="0.9957" stroke-linecap="round" stroke-miterlimit="10" points="
						206.037,145.929 205.393,145.93 196.638,145.944 196.077,145.945 					"/>
					
						<line fill="none" stroke="#333333" stroke-width="0.9957" stroke-linecap="round" stroke-miterlimit="10" x1="194.514" y1="145.947" x2="194.583" y2="145.947"/>
				</g>
			</g>
		</g>
		<g>
			
				<path fill="#A1C453" stroke="#333333" stroke-width="0.9957" stroke-linecap="round" stroke-linejoin="round" stroke-miterlimit="10" d="
				M210.876,118.335c0.862,1.096,1.91,1.162,1.63,4.075c-0.277,2.913-2.156,1.413-2.34,3.331c0.184-1.918-1.993-0.916-1.726-3.721
				C208.709,119.216,209.904,119.329,210.876,118.335z"/>
			<g>
				<line fill="none" x1="210.166" y1="125.741" x2="210.717" y2="120.002"/>
				<g>
					<polyline fill="none" stroke="#333333" stroke-width="0.9957" stroke-linecap="round" stroke-miterlimit="10" points="
						210.214,125.246 210.275,124.604 210.466,122.612 210.52,122.054 					"/>
					
						<line fill="none" stroke="#333333" stroke-width="0.9957" stroke-linecap="round" stroke-miterlimit="10" x1="210.669" y1="120.498" x2="210.662" y2="120.567"/>
				</g>
			</g>
		</g>
		<path fill="#CC924C" stroke="#333333" stroke-width="2.6551" stroke-linecap="round" stroke-miterlimit="10" d="M243.482,176.359
			l-35.337-53.14c-0.569-0.869-1.738-1.113-2.607-0.545l0,0c-0.871,0.569-1.113,1.736-0.545,2.605l34.505,53.685"/>
		<g>
			
				<path fill="#A1C453" stroke="#333333" stroke-width="0.9957" stroke-linecap="round" stroke-linejoin="round" stroke-miterlimit="10" d="
				M204.238,123.345c0,0-0.551-2.879-0.51-3.477c0.031-0.477,2.253,1.738,2.906,2.678L204.238,123.345z"/>
			
				<path fill="#A1C453" stroke="#333333" stroke-width="0.9957" stroke-linecap="round" stroke-linejoin="round" stroke-miterlimit="10" d="
				M206.047,121.88l-0.685,4.457c0,0-2.986-3.348-2.898-5.222C202.464,121.115,204.533,121.794,206.047,121.88z"/>
			
				<path fill="#A1C453" stroke="#333333" stroke-width="0.9957" stroke-linecap="round" stroke-linejoin="round" stroke-miterlimit="10" d="
				M209.464,126.039c0,0-0.951-5.489-3.906-6.948l-0.438,4.298L209.464,126.039z"/>
		</g>
		<g>
			
				<path fill="#FFFFFF" stroke="#333333" stroke-width="0.9957" stroke-linecap="round" stroke-linejoin="round" stroke-miterlimit="10" d="
				M227.347,143.469c-0.199,0.396,0.279,1.144,0.698,1.663c0.757,0.938,2.535,1.481,3.166,0.231
				c0.638-1.257-0.854-2.373-2.052-2.432C228.491,142.902,227.549,143.068,227.347,143.469z"/>
			
				<path fill="#FFFFFF" stroke="#333333" stroke-width="0.9957" stroke-linecap="round" stroke-linejoin="round" stroke-miterlimit="10" d="
				M227.23,143.468c-0.245-0.374-1.132-0.334-1.792-0.229c-1.188,0.188-2.548,1.454-1.781,2.628
				c0.771,1.178,2.482,0.446,3.132-0.563C227.149,144.74,227.476,143.843,227.23,143.468z"/>
			
				<path fill="#FFFFFF" stroke="#333333" stroke-width="0.9957" stroke-linecap="round" stroke-linejoin="round" stroke-miterlimit="10" d="
				M227.285,143.37c0.445-0.024,0.853-0.813,1.093-1.437c0.433-1.124,0.016-2.936-1.385-2.857c-1.404,0.077-1.626,1.925-1.078,2.993
				C226.224,142.663,226.837,143.395,227.285,143.37z"/>
			
				<path fill="#FFFFFF" stroke="#333333" stroke-width="0.9957" stroke-linecap="round" stroke-linejoin="round" stroke-miterlimit="10" d="
				M227.435,143.377c0.243,0.372,1.131,0.331,1.789,0.227c1.188-0.187,2.551-1.454,1.783-2.627
				c-0.771-1.178-2.482-0.445-3.133,0.563C227.517,142.103,227.188,143.001,227.435,143.377z"/>
			
				<path fill="#FFFFFF" stroke="#333333" stroke-width="0.9957" stroke-linecap="round" stroke-linejoin="round" stroke-miterlimit="10" d="
				M227.371,143.474c-0.444,0.025-0.853,0.813-1.092,1.438c-0.436,1.122-0.016,2.934,1.386,2.856
				c1.403-0.077,1.625-1.925,1.076-2.993C228.434,144.181,227.819,143.448,227.371,143.474z"/>
			
				<path fill="#FFFFFF" stroke="#333333" stroke-width="0.9957" stroke-linecap="round" stroke-linejoin="round" stroke-miterlimit="10" d="
				M227.322,143.358c0.202-0.397-0.276-1.145-0.698-1.664c-0.756-0.936-2.532-1.48-3.165-0.229
				c-0.635,1.256,0.854,2.372,2.053,2.429C226.18,143.925,227.121,143.759,227.322,143.358z"/>
			
				<circle fill="#F9D53E" stroke="#333333" stroke-width="0.9957" stroke-linecap="round" stroke-linejoin="round" stroke-miterlimit="10" cx="227.435" cy="143.376" r="0.926"/>
		</g>
	</g>
</g>
<g id="calque05">
	<g>
		
			<polygon fill="#CC924C" stroke="#333333" stroke-width="0.9957" stroke-linecap="round" stroke-linejoin="round" stroke-miterlimit="10" points="
			226.566,144.059 227.43,152.718 225.894,150.366 		"/>
		
			<polygon fill="#CC924C" stroke="#333333" stroke-width="0.9957" stroke-linecap="round" stroke-linejoin="round" stroke-miterlimit="10" points="
			212.146,120.976 211.356,128.132 209.818,125.78 		"/>
		
			<polygon fill="#CC924C" stroke="#333333" stroke-width="0.9957" stroke-linecap="round" stroke-linejoin="round" stroke-miterlimit="10" points="
			206.188,145.67 221.188,150.051 219.649,147.698 		"/>
		<g>
			
				<path fill="#A1C453" stroke="#333333" stroke-width="1.4936" stroke-linecap="round" stroke-linejoin="round" stroke-miterlimit="10" d="
				M214.806,159.936c2.181-1.558,2.407-3.568,7.981-2.77c5.572,0.8,2.521,4.274,6.189,4.801c-3.668-0.526-1.938,3.752-7.307,2.982
				C216.302,164.181,216.631,161.895,214.806,159.936z"/>
			<g>
				<line fill="none" x1="228.978" y1="161.967" x2="217.836" y2="160.359"/>
				<g>
					<polyline fill="none" stroke="#333333" stroke-width="0.9957" stroke-linecap="round" stroke-miterlimit="10" points="
						228.484,161.896 227.847,161.804 220.431,160.733 219.876,160.653 					"/>
					
						<line fill="none" stroke="#333333" stroke-width="0.9957" stroke-linecap="round" stroke-miterlimit="10" x1="218.329" y1="160.431" x2="218.398" y2="160.44"/>
				</g>
			</g>
		</g>
		<g>
			
				<path fill="#A1C453" stroke="#333333" stroke-width="1.4936" stroke-linecap="round" stroke-linejoin="round" stroke-miterlimit="10" d="
				M227.745,129.793c1.687,2.081,3.705,2.187,3.242,7.798c-0.463,5.612-4.115,2.776-4.422,6.468c0.307-3.691-3.859-1.71-3.415-7.114
				C223.597,131.539,225.897,131.729,227.745,129.793z"/>
			<g>
				<line fill="none" x1="226.406" y1="144.024" x2="227.318" y2="132.97"/>
				<g>
					<polyline fill="none" stroke="#333333" stroke-width="0.9957" stroke-linecap="round" stroke-miterlimit="10" points="
						226.447,143.528 226.5,142.886 227.103,135.583 227.148,135.024 					"/>
					
						<line fill="none" stroke="#333333" stroke-width="0.9957" stroke-linecap="round" stroke-miterlimit="10" x1="227.277" y1="133.466" x2="227.271" y2="133.535"/>
				</g>
			</g>
		</g>
		<g>
			
				<path fill="#A1C453" stroke="#333333" stroke-width="1.4936" stroke-linecap="round" stroke-linejoin="round" stroke-miterlimit="10" d="
				M194.909,134.12c3.022,0.064,4.584-1.6,9.084,2.887c4.498,4.488-0.607,5.57,2.354,8.522c-2.961-2.952-4.287,2.082-8.619-2.239
				C193.394,138.97,195.233,137.123,194.909,134.12z"/>
			<g>
				<line fill="none" x1="206.347" y1="145.529" x2="197.482" y2="136.69"/>
				<g>
					<polyline fill="none" stroke="#333333" stroke-width="0.9957" stroke-linecap="round" stroke-miterlimit="10" points="
						205.994,145.178 205.537,144.723 199.339,138.542 198.942,138.146 					"/>
					
						<line fill="none" stroke="#333333" stroke-width="0.9957" stroke-linecap="round" stroke-miterlimit="10" x1="197.835" y1="137.042" x2="197.885" y2="137.092"/>
				</g>
			</g>
		</g>
		<g>
			
				<path fill="#A1C453" stroke="#333333" stroke-width="1.4936" stroke-linecap="round" stroke-linejoin="round" stroke-miterlimit="10" d="
				M190.38,145.951c2.183-2.093,2.108-4.374,8.464-4.384c6.354-0.009,3.509,4.368,7.691,4.36c-4.184,0.008-1.561,4.506-7.679,4.515
				C192.735,150.45,192.733,147.846,190.38,145.951z"/>
			<g>
				<line fill="none" x1="206.535" y1="145.928" x2="194.016" y2="145.948"/>
				<g>
					<polyline fill="none" stroke="#333333" stroke-width="0.9957" stroke-linecap="round" stroke-miterlimit="10" points="
						206.037,145.929 205.393,145.93 196.638,145.944 196.077,145.945 					"/>
					
						<line fill="none" stroke="#333333" stroke-width="0.9957" stroke-linecap="round" stroke-miterlimit="10" x1="194.514" y1="145.947" x2="194.583" y2="145.947"/>
				</g>
			</g>
		</g>
		<g>
			
				<path fill="#A1C453" stroke="#333333" stroke-width="0.9957" stroke-linecap="round" stroke-linejoin="round" stroke-miterlimit="10" d="
				M196.458,120.201c1.105-0.511,1.374-1.388,3.793-0.562c2.42,0.828,0.767,2.121,2.358,2.664c-1.593-0.543-1.185,1.51-3.513,0.714
				C196.767,122.222,197.106,121.229,196.458,120.201z"/>
			<g>
				<line fill="none" x1="202.61" y1="122.304" x2="197.843" y2="120.674"/>
				<g>
					<polyline fill="none" stroke="#333333" stroke-width="0.9957" stroke-linecap="round" stroke-miterlimit="10" points="
						202.14,122.143 201.529,121.934 200.324,121.521 199.793,121.341 					"/>
					
						<line fill="none" stroke="#333333" stroke-width="0.9957" stroke-linecap="round" stroke-miterlimit="10" x1="198.313" y1="120.835" x2="198.38" y2="120.857"/>
				</g>
			</g>
		</g>
		<g>
			
				<path fill="#A1C453" stroke="#333333" stroke-width="0.9957" stroke-linecap="round" stroke-linejoin="round" stroke-miterlimit="10" d="
				M213.349,111.732c1.036,1.314,2.296,1.396,1.961,4.896s-2.592,1.699-2.813,4.002c0.222-2.303-2.397-1.101-2.074-4.47
				C210.746,112.789,212.181,112.927,213.349,111.732z"/>
			<g>
				<line fill="none" x1="212.496" y1="120.63" x2="213.157" y2="113.735"/>
				<g>
					<polyline fill="none" stroke="#333333" stroke-width="0.9957" stroke-linecap="round" stroke-miterlimit="10" points="
						212.544,120.135 212.605,119.492 212.907,116.346 212.96,115.787 					"/>
					
						<line fill="none" stroke="#333333" stroke-width="0.9957" stroke-linecap="round" stroke-miterlimit="10" x1="213.109" y1="114.23" x2="213.103" y2="114.301"/>
				</g>
			</g>
		</g>
		<g>
			
				<path fill="#A1C453" stroke="#333333" stroke-width="1.4936" stroke-linecap="round" stroke-linejoin="round" stroke-miterlimit="10" d="
				M225.075,121.442c-1.729,1.632-1.688,3.424-6.678,3.393c-4.994-0.032-2.729-3.453-6.017-3.473
				c3.287,0.02,1.252-3.529,6.059-3.498C223.251,117.894,223.237,119.939,225.075,121.442z"/>
			<g>
				<line fill="none" x1="212.221" y1="121.329" x2="222.055" y2="121.391"/>
				<g>
					<polyline fill="none" stroke="#333333" stroke-width="0.9957" stroke-linecap="round" stroke-miterlimit="10" points="
						212.719,121.332 213.363,121.336 219.433,121.374 219.993,121.378 					"/>
					
						<line fill="none" stroke="#333333" stroke-width="0.9957" stroke-linecap="round" stroke-miterlimit="10" x1="221.557" y1="121.388" x2="221.487" y2="121.387"/>
				</g>
			</g>
		</g>
		<path fill="#CC924C" stroke="#333333" stroke-width="2.6551" stroke-linecap="round" stroke-miterlimit="10" d="M243.482,176.359
			l-40.177-60.539c-0.568-0.869-1.736-1.113-2.607-0.545l0,0c-0.869,0.569-1.112,1.735-0.545,2.606l39.345,61.083"/>
		<g>
			<g>
				<path fill="#D3F46C" d="M232.787,144.517c0.655,2.233-1.129,5.48-2.858,5.229c-1.452,1.299-4.576-0.625-5.229-2.859
					c-0.656-2.234-0.207-4.763,3.143-4.765C230.523,140.386,232.134,142.282,232.787,144.517z"/>
				<g>
					<path fill="none" stroke="#333333" stroke-width="0.9957" stroke-linecap="round" stroke-miterlimit="10" d="M232.888,145.004
						c0.021,0.214,0.045,0.428,0.031,0.644c-0.026,1.022-0.378,2.026-0.951,2.869c-0.29,0.417-0.648,0.804-1.104,1.042
						c-0.229,0.108-0.477,0.199-0.732,0.191l-0.191-0.005c-0.056,0.024-0.104,0.07-0.157,0.104c-0.1,0.083-0.215,0.139-0.335,0.182
						c-0.99,0.359-2.052-0.111-2.867-0.673c-0.818-0.599-1.527-1.406-1.848-2.383c-0.295-0.968-0.422-2.038-0.085-3.012
						c0.32-0.995,1.298-1.646,2.309-1.767c0.252-0.052,0.507-0.059,0.763-0.07s0.447-0.231,0.684-0.319
						c0.456-0.228,0.965-0.367,1.476-0.354c0.511,0.012,1.009,0.211,1.405,0.532c0.104,0.068,0.194,0.176,0.276,0.251
						c0.044,0.043,0.09,0.085,0.127,0.134c0.076,0.097,0.159,0.188,0.23,0.288"/>
					
						<line fill="none" stroke="#333333" stroke-width="0.9957" stroke-linecap="round" stroke-miterlimit="10" x1="232.631" y1="144.044" x2="232.605" y2="143.979"/>
				</g>
			</g>
			
				<ellipse transform="matrix(0.3223 -0.9466 0.9466 0.3223 15.9163 312.1494)" opacity="0.5" fill="#FFFFFF" enable-background="new    " cx="225.968" cy="144.958" rx="0.965" ry="0.793"/>
		</g>
		<g>
			
				<path fill="#A1C453" stroke="#333333" stroke-width="0.9957" stroke-linecap="round" stroke-linejoin="round" stroke-miterlimit="10" d="
				M199.4,115.945c0,0-0.552-2.88-0.51-3.476c0.033-0.479,2.251,1.737,2.906,2.677L199.4,115.945z"/>
			
				<path fill="#A1C453" stroke="#333333" stroke-width="0.9957" stroke-linecap="round" stroke-linejoin="round" stroke-miterlimit="10" d="
				M201.21,114.479l-0.686,4.459c0,0-2.985-3.349-2.897-5.223C197.627,113.716,199.694,114.394,201.21,114.479z"/>
			
				<path fill="#A1C453" stroke="#333333" stroke-width="0.9957" stroke-linecap="round" stroke-linejoin="round" stroke-miterlimit="10" d="
				M204.626,118.64c0,0-0.949-5.49-3.904-6.948l-0.441,4.298L204.626,118.64z"/>
		</g>
		<g>
			
				<path fill="#FFFFFF" stroke="#333333" stroke-width="0.9957" stroke-linecap="round" stroke-linejoin="round" stroke-miterlimit="10" d="
				M201.165,123.907c-0.202,0.397,0.277,1.146,0.698,1.664c0.755,0.936,2.533,1.48,3.165,0.229c0.637-1.257-0.854-2.371-2.054-2.43
				C202.31,123.34,201.367,123.506,201.165,123.907z"/>
			
				<path fill="#FFFFFF" stroke="#333333" stroke-width="0.9957" stroke-linecap="round" stroke-linejoin="round" stroke-miterlimit="10" d="
				M201.048,123.905c-0.244-0.374-1.131-0.331-1.791-0.228c-1.188,0.186-2.549,1.452-1.782,2.626
				c0.771,1.178,2.479,0.447,3.13-0.563C200.966,125.179,201.293,124.28,201.048,123.905z"/>
			
				<path fill="#FFFFFF" stroke="#333333" stroke-width="0.9957" stroke-linecap="round" stroke-linejoin="round" stroke-miterlimit="10" d="
				M201.103,123.808c0.443-0.023,0.854-0.813,1.091-1.436c0.436-1.125,0.018-2.936-1.383-2.857
				c-1.405,0.078-1.627,1.925-1.077,2.993C200.04,123.102,200.655,123.833,201.103,123.808z"/>
			
				<path fill="#FFFFFF" stroke="#333333" stroke-width="0.9957" stroke-linecap="round" stroke-linejoin="round" stroke-miterlimit="10" d="
				M201.251,123.813c0.244,0.375,1.131,0.332,1.791,0.229c1.188-0.188,2.549-1.454,1.781-2.627c-0.771-1.178-2.48-0.447-3.132,0.564
				C201.333,122.541,201.006,123.438,201.251,123.813z"/>
			
				<path fill="#FFFFFF" stroke="#333333" stroke-width="0.9957" stroke-linecap="round" stroke-linejoin="round" stroke-miterlimit="10" d="
				M201.19,123.911c-0.446,0.026-0.854,0.814-1.093,1.438c-0.433,1.123-0.017,2.935,1.382,2.857c1.407-0.08,1.628-1.926,1.078-2.995
				C202.252,124.619,201.638,123.887,201.19,123.911z"/>
			
				<path fill="#FFFFFF" stroke="#333333" stroke-width="0.9957" stroke-linecap="round" stroke-linejoin="round" stroke-miterlimit="10" d="
				M201.141,123.797c0.201-0.397-0.278-1.145-0.699-1.664c-0.755-0.938-2.533-1.481-3.165-0.231
				c-0.637,1.258,0.854,2.373,2.055,2.431C199.996,124.363,200.938,124.198,201.141,123.797z"/>
			
				<circle fill="#F9D53E" stroke="#333333" stroke-width="0.9957" stroke-linecap="round" stroke-linejoin="round" stroke-miterlimit="10" cx="201.25" cy="123.814" r="0.927"/>
		</g>
	</g>
</g>
<g id="calque06">
	<g>
		
			<polygon fill="#CC924C" stroke="#333333" stroke-width="0.9957" stroke-linecap="round" stroke-linejoin="round" stroke-miterlimit="10" points="
			226.566,144.059 227.43,152.718 225.894,150.366 		"/>
		
			<polygon fill="#CC924C" stroke="#333333" stroke-width="0.9957" stroke-linecap="round" stroke-linejoin="round" stroke-miterlimit="10" points="
			212.146,120.976 211.356,128.132 209.818,125.78 		"/>
		
			<polygon fill="#CC924C" stroke="#333333" stroke-width="0.9957" stroke-linecap="round" stroke-linejoin="round" stroke-miterlimit="10" points="
			206.188,145.67 221.188,150.051 219.649,147.698 		"/>
		
			<polygon fill="#CC924C" stroke="#333333" stroke-width="0.9957" stroke-linecap="round" stroke-linejoin="round" stroke-miterlimit="10" points="
			196.275,120.86 203.796,123.451 202.804,121.934 		"/>
		<g>
			
				<path fill="#A1C453" stroke="#333333" stroke-width="1.4936" stroke-linecap="round" stroke-linejoin="round" stroke-miterlimit="10" d="
				M214.806,159.936c2.181-1.558,2.405-3.567,7.98-2.769c5.573,0.799,2.522,4.273,6.19,4.8c-3.668-0.526-1.938,3.752-7.307,2.982
				C216.302,164.181,216.629,161.896,214.806,159.936z"/>
			<g>
				<line fill="none" x1="228.978" y1="161.967" x2="217.836" y2="160.359"/>
				<g>
					<polyline fill="none" stroke="#333333" stroke-width="0.9957" stroke-linecap="round" stroke-miterlimit="10" points="
						228.484,161.896 227.847,161.804 220.431,160.733 219.876,160.653 					"/>
					
						<line fill="none" stroke="#333333" stroke-width="0.9957" stroke-linecap="round" stroke-miterlimit="10" x1="218.329" y1="160.431" x2="218.398" y2="160.44"/>
				</g>
			</g>
		</g>
		<g>
			
				<path fill="#A1C453" stroke="#333333" stroke-width="1.4936" stroke-linecap="round" stroke-linejoin="round" stroke-miterlimit="10" d="
				M227.745,129.793c1.687,2.081,3.705,2.187,3.242,7.798c-0.463,5.612-4.115,2.776-4.422,6.468c0.307-3.691-3.86-1.71-3.415-7.114
				C223.597,131.539,225.897,131.729,227.745,129.793z"/>
			<g>
				<line fill="none" x1="226.406" y1="144.024" x2="227.315" y2="132.969"/>
				<g>
					<polyline fill="none" stroke="#333333" stroke-width="0.9957" stroke-linecap="round" stroke-miterlimit="10" points="
						226.447,143.528 226.5,142.886 227.101,135.582 227.146,135.023 					"/>
					
						<line fill="none" stroke="#333333" stroke-width="0.9957" stroke-linecap="round" stroke-miterlimit="10" x1="227.274" y1="133.465" x2="227.269" y2="133.535"/>
				</g>
			</g>
		</g>
		<g>
			
				<path fill="#A1C453" stroke="#333333" stroke-width="1.4936" stroke-linecap="round" stroke-linejoin="round" stroke-miterlimit="10" d="
				M194.909,134.12c3.022,0.064,4.584-1.6,9.084,2.887c4.498,4.488-0.608,5.57,2.354,8.522c-2.962-2.952-4.287,2.082-8.62-2.238
				C193.394,138.97,195.233,137.123,194.909,134.12z"/>
			<g>
				<line fill="none" x1="206.347" y1="145.529" x2="197.482" y2="136.69"/>
				<g>
					<polyline fill="none" stroke="#333333" stroke-width="0.9957" stroke-linecap="round" stroke-miterlimit="10" points="
						205.994,145.178 205.537,144.723 199.339,138.542 198.942,138.146 					"/>
					
						<line fill="none" stroke="#333333" stroke-width="0.9957" stroke-linecap="round" stroke-miterlimit="10" x1="197.835" y1="137.042" x2="197.885" y2="137.092"/>
				</g>
			</g>
		</g>
		<g>
			
				<path fill="#A1C453" stroke="#333333" stroke-width="1.4936" stroke-linecap="round" stroke-linejoin="round" stroke-miterlimit="10" d="
				M190.379,145.952c2.184-2.094,2.109-4.375,8.464-4.383c6.354-0.011,3.51,4.366,7.692,4.358c-4.184,0.008-1.561,4.506-7.679,4.515
				C192.735,150.45,192.733,147.846,190.379,145.952z"/>
			<g>
				<line fill="none" x1="206.535" y1="145.928" x2="194.016" y2="145.948"/>
				<g>
					<polyline fill="none" stroke="#333333" stroke-width="0.9957" stroke-linecap="round" stroke-miterlimit="10" points="
						206.037,145.929 205.393,145.93 196.638,145.944 196.077,145.945 					"/>
					
						<line fill="none" stroke="#333333" stroke-width="0.9957" stroke-linecap="round" stroke-miterlimit="10" x1="194.514" y1="145.947" x2="194.583" y2="145.947"/>
				</g>
			</g>
		</g>
		<g>
			
				<path fill="#A1C453" stroke="#333333" stroke-width="0.9957" stroke-linecap="round" stroke-linejoin="round" stroke-miterlimit="10" d="
				M190.373,119.257c1.213-0.561,1.507-1.523,4.165-0.616c2.652,0.908,0.838,2.328,2.586,2.925
				c-1.748-0.597-1.297,1.658-3.854,0.784C190.712,121.474,191.085,120.386,190.373,119.257z"/>
			<g>
				<line fill="none" x1="197.124" y1="121.565" x2="191.892" y2="119.776"/>
				<g>
					<polyline fill="none" stroke="#333333" stroke-width="0.9957" stroke-linecap="round" stroke-miterlimit="10" points="
						196.653,121.404 196.043,121.195 194.372,120.625 193.842,120.443 					"/>
					
						<line fill="none" stroke="#333333" stroke-width="0.9957" stroke-linecap="round" stroke-miterlimit="10" x1="192.362" y1="119.938" x2="192.429" y2="119.96"/>
				</g>
			</g>
		</g>
		<g>
			
				<path fill="#A1C453" stroke="#333333" stroke-width="1.4936" stroke-linecap="round" stroke-linejoin="round" stroke-miterlimit="10" d="
				M185.556,126.729c0.825-2.252-0.021-3.853,4.504-6.071c4.527-2.219,4.022,1.89,7.002,0.429c-2.979,1.461,0.457,3.754-3.899,5.891
				C188.801,129.114,187.892,127.259,185.556,126.729z"/>
			<g>
				<line fill="none" x1="197.062" y1="121.086" x2="188.145" y2="125.46"/>
				<g>
					<polyline fill="none" stroke="#333333" stroke-width="0.9957" stroke-linecap="round" stroke-miterlimit="10" points="
						196.614,121.305 196.035,121.589 190.499,124.306 189.995,124.552 					"/>
					
						<line fill="none" stroke="#333333" stroke-width="0.9957" stroke-linecap="round" stroke-miterlimit="10" x1="188.592" y1="125.24" x2="188.654" y2="125.21"/>
				</g>
			</g>
		</g>
		<g>
			
				<path fill="#A1C453" stroke="#333333" stroke-width="0.9957" stroke-linecap="round" stroke-linejoin="round" stroke-miterlimit="10" d="
				M219.622,115.241c-0.203,1.713,0.654,2.691-2.141,4.996c-2.796,2.307-3.128-0.65-4.968,0.867c1.84-1.518-0.946-2.548,1.745-4.77
				C216.954,114.114,217.899,115.26,219.622,115.241z"/>
			<g>
				<line fill="none" x1="212.423" y1="121.085" x2="217.931" y2="116.541"/>
				<g>
					<polyline fill="none" stroke="#333333" stroke-width="0.9957" stroke-linecap="round" stroke-miterlimit="10" points="
						212.807,120.769 213.305,120.357 215.908,118.21 216.341,117.853 					"/>
					
						<line fill="none" stroke="#333333" stroke-width="0.9957" stroke-linecap="round" stroke-miterlimit="10" x1="217.547" y1="116.857" x2="217.492" y2="116.902"/>
				</g>
			</g>
		</g>
		<g>
			
				<path fill="#A1C453" stroke="#333333" stroke-width="1.4936" stroke-linecap="round" stroke-linejoin="round" stroke-miterlimit="10" d="
				M213.685,104.896c1.874,2.375,4.151,2.522,3.544,8.849c-0.606,6.325-4.687,3.069-5.083,7.231c0.396-4.162-4.332-1.986-3.75-8.077
				C208.979,106.806,211.573,107.054,213.685,104.896z"/>
			<g>
				<line fill="none" x1="212.146" y1="120.976" x2="213.339" y2="108.515"/>
				<g>
					<polyline fill="none" stroke="#333333" stroke-width="0.9957" stroke-linecap="round" stroke-miterlimit="10" points="
						212.193,120.48 212.255,119.838 213.089,111.125 213.143,110.566 					"/>
					
						<line fill="none" stroke="#333333" stroke-width="0.9957" stroke-linecap="round" stroke-miterlimit="10" x1="213.291" y1="109.01" x2="213.285" y2="109.08"/>
				</g>
			</g>
		</g>
		<g>
			
				<path fill="#A1C453" stroke="#333333" stroke-width="1.4936" stroke-linecap="round" stroke-linejoin="round" stroke-miterlimit="10" d="
				M225.075,121.442c-1.729,1.632-1.688,3.424-6.678,3.393c-4.994-0.032-2.729-3.453-6.017-3.473
				c3.287,0.02,1.252-3.529,6.059-3.498C223.251,117.894,223.237,119.939,225.075,121.442z"/>
			<g>
				<line fill="none" x1="212.221" y1="121.329" x2="222.055" y2="121.391"/>
				<g>
					<polyline fill="none" stroke="#333333" stroke-width="0.9957" stroke-linecap="round" stroke-miterlimit="10" points="
						212.719,121.332 213.363,121.336 219.433,121.374 219.993,121.378 					"/>
					
						<line fill="none" stroke="#333333" stroke-width="0.9957" stroke-linecap="round" stroke-miterlimit="10" x1="221.557" y1="121.388" x2="221.487" y2="121.387"/>
				</g>
			</g>
		</g>
		<path fill="#CC924C" stroke="#333333" stroke-width="2.6551" stroke-linecap="round" stroke-miterlimit="10" d="M243.482,176.359
			l-45.361-68.471c-0.57-0.871-1.736-1.114-2.605-0.546l0,0c-0.872,0.57-1.115,1.736-0.546,2.606l44.528,69.016"/>
		<g>
			<g>
				<path fill="#D3F46C" d="M202.271,121.637c1.414,1.677,1.116,5.153-0.471,5.598c-0.757,1.671-4.184,1.204-5.599-0.472
					c-1.414-1.677-1.991-4.026,0.896-5.305C198.746,118.939,200.857,119.962,202.271,121.637z"/>
				<g>
					<path fill="none" stroke="#333333" stroke-width="0.9957" stroke-linecap="round" stroke-miterlimit="10" d="M202.558,122.044
						c0.109,0.185,0.207,0.376,0.283,0.578c0.346,0.889,0.424,1.877,0.24,2.812c-0.095,0.464-0.258,0.928-0.562,1.3
						c-0.154,0.179-0.335,0.347-0.558,0.434l-0.164,0.07l-0.091,0.153c-0.055,0.108-0.136,0.196-0.221,0.28
						c-0.713,0.675-1.792,0.677-2.702,0.511c-0.925-0.201-1.839-0.611-2.486-1.318c-0.624-0.708-1.146-1.566-1.249-2.522
						c-0.049-0.474,0.032-0.965,0.26-1.386c0.225-0.423,0.576-0.762,0.964-1.036c0.95-0.323,1.284-1.366,2.198-1.76
						c0.429-0.21,0.928-0.262,1.395-0.163c0.11,0.03,0.24,0.049,0.337,0.093l0.173,0.064c0.117,0.04,0.222,0.106,0.333,0.158"/>
					
						<line fill="none" stroke="#333333" stroke-width="0.9957" stroke-linecap="round" stroke-miterlimit="10" x1="201.937" y1="121.269" x2="201.887" y2="121.22"/>
				</g>
			</g>
			
				<ellipse transform="matrix(-0.0877 -0.9961 0.9961 -0.0877 89.6551 331.3497)" opacity="0.5" fill="#FFFFFF" enable-background="new    " cx="196.551" cy="124.622" rx="0.907" ry="0.748"/>
		</g>
		<g>
			<g>
				<path fill="#D3F46C" d="M234.844,145.485c0.983,3.351-1.692,8.22-4.288,7.844c-2.178,1.947-6.863-0.938-7.845-4.289
					c-0.981-3.352-0.311-7.145,4.716-7.146C231.448,139.288,233.863,142.134,234.844,145.485z"/>
				<g>
					<path fill="none" stroke="#333333" stroke-width="1.4936" stroke-linecap="round" stroke-miterlimit="10" d="M234.994,146.216
						c0.03,0.321,0.066,0.643,0.047,0.966c-0.039,1.533-0.567,3.039-1.426,4.304c-0.437,0.626-0.975,1.206-1.655,1.563
						c-0.345,0.163-0.715,0.299-1.102,0.287l-0.287-0.007c-0.084,0.036-0.157,0.105-0.236,0.156
						c-0.148,0.125-0.32,0.208-0.502,0.272c-0.717,0.285-1.524,0.223-2.253,0.009c-0.735-0.217-1.422-0.579-2.05-1.019
						c-1.229-0.897-2.29-2.108-2.771-3.574c-0.442-1.451-0.632-3.056-0.126-4.518c0.254-0.723,0.72-1.372,1.342-1.822
						c0.616-0.465,1.37-0.704,2.121-0.827c0.376-0.077,0.76-0.087,1.144-0.104c0.202,0.03,0.354-0.118,0.521-0.203
						c0.169-0.091,0.326-0.203,0.503-0.276c0.686-0.341,1.445-0.551,2.212-0.531c0.768,0.018,1.515,0.316,2.108,0.798
						c0.156,0.104,0.293,0.264,0.416,0.377c0.065,0.065,0.135,0.127,0.189,0.201c0.114,0.145,0.239,0.281,0.347,0.432"/>
					
						<line fill="none" stroke="#333333" stroke-width="1.4936" stroke-linecap="round" stroke-miterlimit="10" x1="234.609" y1="144.776" x2="234.571" y2="144.679"/>
				</g>
			</g>
			
				<ellipse transform="matrix(0.3218 -0.9468 0.9468 0.3218 13.9243 311.7593)" opacity="0.5" fill="#FFFFFF" enable-background="new    " cx="224.578" cy="146.16" rx="1.446" ry="1.19"/>
		</g>
		<g>
			
				<path fill="#A1C453" stroke="#333333" stroke-width="0.9957" stroke-linecap="round" stroke-linejoin="round" stroke-miterlimit="10" d="
				M194.214,108.013c0,0-0.552-2.879-0.508-3.475c0.028-0.479,2.25,1.736,2.903,2.676L194.214,108.013z"/>
			
				<path fill="#A1C453" stroke="#333333" stroke-width="0.9957" stroke-linecap="round" stroke-linejoin="round" stroke-miterlimit="10" d="
				M196.022,106.548l-0.684,4.459c0,0-2.988-3.349-2.898-5.224C192.44,105.783,194.508,106.462,196.022,106.548z"/>
			
				<path fill="#A1C453" stroke="#333333" stroke-width="0.9957" stroke-linecap="round" stroke-linejoin="round" stroke-miterlimit="10" d="
				M199.439,110.708c0,0-0.95-5.491-3.903-6.947l-0.441,4.296L199.439,110.708z"/>
		</g>
	</g>
</g>
<g id="calque07">
	<g>
		
			<polygon fill="#CC924C" stroke="#333333" stroke-width="0.9957" stroke-linecap="round" stroke-linejoin="round" stroke-miterlimit="10" points="
			226.566,144.059 227.43,152.718 225.894,150.366 		"/>
		
			<polygon fill="#CC924C" stroke="#333333" stroke-width="0.9957" stroke-linecap="round" stroke-linejoin="round" stroke-miterlimit="10" points="
			212.146,120.976 211.356,128.132 209.818,125.78 		"/>
		
			<polygon fill="#CC924C" stroke="#333333" stroke-width="0.9957" stroke-linecap="round" stroke-linejoin="round" stroke-miterlimit="10" points="
			206.188,145.67 221.188,150.051 219.649,147.698 		"/>
		
			<polygon fill="#CC924C" stroke="#333333" stroke-width="0.9957" stroke-linecap="round" stroke-linejoin="round" stroke-miterlimit="10" points="
			196.275,120.86 203.796,123.451 202.804,121.934 		"/>
		<g>
			
				<path fill="#A1C453" stroke="#333333" stroke-width="1.4936" stroke-linecap="round" stroke-linejoin="round" stroke-miterlimit="10" d="
				M214.806,159.936c2.181-1.558,2.407-3.568,7.981-2.77c5.572,0.8,2.521,4.274,6.189,4.801c-3.668-0.526-1.938,3.752-7.307,2.982
				C216.302,164.181,216.629,161.896,214.806,159.936z"/>
			<g>
				<line fill="none" x1="228.978" y1="161.967" x2="217.836" y2="160.359"/>
				<g>
					<polyline fill="none" stroke="#333333" stroke-width="0.9957" stroke-linecap="round" stroke-miterlimit="10" points="
						228.484,161.896 227.847,161.804 220.431,160.733 219.876,160.653 					"/>
					
						<line fill="none" stroke="#333333" stroke-width="0.9957" stroke-linecap="round" stroke-miterlimit="10" x1="218.329" y1="160.431" x2="218.398" y2="160.44"/>
				</g>
			</g>
		</g>
		<g>
			
				<path fill="#A1C453" stroke="#333333" stroke-width="1.4936" stroke-linecap="round" stroke-linejoin="round" stroke-miterlimit="10" d="
				M227.745,129.793c1.687,2.081,3.705,2.187,3.242,7.798c-0.463,5.612-4.115,2.776-4.422,6.468c0.307-3.691-3.859-1.71-3.415-7.114
				C223.597,131.539,225.897,131.729,227.745,129.793z"/>
			<g>
				<line fill="none" x1="226.406" y1="144.024" x2="227.315" y2="132.969"/>
				<g>
					<polyline fill="none" stroke="#333333" stroke-width="0.9957" stroke-linecap="round" stroke-miterlimit="10" points="
						226.447,143.528 226.5,142.886 227.101,135.582 227.146,135.023 					"/>
					
						<line fill="none" stroke="#333333" stroke-width="0.9957" stroke-linecap="round" stroke-miterlimit="10" x1="227.274" y1="133.465" x2="227.269" y2="133.535"/>
				</g>
			</g>
		</g>
		<g>
			
				<path fill="#A1C453" stroke="#333333" stroke-width="1.4936" stroke-linecap="round" stroke-linejoin="round" stroke-miterlimit="10" d="
				M194.909,134.12c3.022,0.064,4.584-1.6,9.084,2.887c4.498,4.488-0.607,5.57,2.354,8.522c-2.961-2.952-4.287,2.082-8.619-2.239
				C193.394,138.97,195.233,137.123,194.909,134.12z"/>
			<g>
				<line fill="none" x1="206.347" y1="145.529" x2="197.482" y2="136.69"/>
				<g>
					<polyline fill="none" stroke="#333333" stroke-width="0.9957" stroke-linecap="round" stroke-miterlimit="10" points="
						205.994,145.178 205.537,144.723 199.339,138.542 198.942,138.146 					"/>
					
						<line fill="none" stroke="#333333" stroke-width="0.9957" stroke-linecap="round" stroke-miterlimit="10" x1="197.835" y1="137.042" x2="197.885" y2="137.092"/>
				</g>
			</g>
		</g>
		<g>
			
				<path fill="#A1C453" stroke="#333333" stroke-width="1.4936" stroke-linecap="round" stroke-linejoin="round" stroke-miterlimit="10" d="
				M190.38,145.951c2.183-2.093,2.108-4.374,8.464-4.384c6.354-0.009,3.509,4.368,7.691,4.36c-4.184,0.008-1.561,4.506-7.679,4.515
				C192.735,150.45,192.733,147.846,190.38,145.951z"/>
			<g>
				<line fill="none" x1="206.535" y1="145.928" x2="194.016" y2="145.948"/>
				<g>
					<polyline fill="none" stroke="#333333" stroke-width="0.9957" stroke-linecap="round" stroke-miterlimit="10" points="
						206.037,145.929 205.393,145.93 196.638,145.944 196.077,145.945 					"/>
					
						<line fill="none" stroke="#333333" stroke-width="0.9957" stroke-linecap="round" stroke-miterlimit="10" x1="194.514" y1="145.947" x2="194.583" y2="145.947"/>
				</g>
			</g>
		</g>
		<g>
			
				<path fill="#A1C453" stroke="#333333" stroke-width="1.4936" stroke-linecap="round" stroke-linejoin="round" stroke-miterlimit="10" d="
				M184.661,116.721c2.179-1.009,2.711-2.738,7.48-1.107c4.768,1.632,1.506,4.181,4.646,5.254c-3.141-1.073-2.33,2.978-6.925,1.406
				C185.271,120.704,185.939,118.747,184.661,116.721z"/>
			<g>
				<line fill="none" x1="196.788" y1="120.867" x2="187.394" y2="117.653"/>
				<g>
					<polyline fill="none" stroke="#333333" stroke-width="0.9957" stroke-linecap="round" stroke-miterlimit="10" points="
						196.317,120.706 195.707,120.497 189.874,118.502 189.344,118.32 					"/>
					
						<line fill="none" stroke="#333333" stroke-width="0.9957" stroke-linecap="round" stroke-miterlimit="10" x1="187.864" y1="117.814" x2="187.931" y2="117.837"/>
				</g>
			</g>
		</g>
		<g>
			
				<path fill="#A1C453" stroke="#333333" stroke-width="1.4936" stroke-linecap="round" stroke-linejoin="round" stroke-miterlimit="10" d="
				M185.556,126.729c0.825-2.252-0.021-3.853,4.504-6.071c4.527-2.219,4.022,1.89,7.002,0.429c-2.979,1.461,0.457,3.754-3.899,5.891
				C188.801,129.114,187.892,127.259,185.556,126.729z"/>
			<g>
				<line fill="none" x1="197.062" y1="121.086" x2="188.145" y2="125.46"/>
				<g>
					<polyline fill="none" stroke="#333333" stroke-width="0.9957" stroke-linecap="round" stroke-miterlimit="10" points="
						196.614,121.305 196.035,121.589 190.499,124.306 189.995,124.552 					"/>
					
						<line fill="none" stroke="#333333" stroke-width="0.9957" stroke-linecap="round" stroke-miterlimit="10" x1="188.592" y1="125.24" x2="188.654" y2="125.21"/>
				</g>
			</g>
		</g>
		<g>
			
				<path fill="#A1C453" stroke="#333333" stroke-width="1.4936" stroke-linecap="round" stroke-linejoin="round" stroke-miterlimit="10" d="
				M225.022,110.548c-0.356,3.004,1.149,4.718-3.751,8.762c-4.901,4.045-5.482-1.143-8.71,1.52c3.228-2.662-1.66-4.469,3.063-8.364
				C220.344,108.569,222.003,110.58,225.022,110.548z"/>
			<g>
				<line fill="none" x1="212.4" y1="120.796" x2="222.057" y2="112.827"/>
				<g>
					<polyline fill="none" stroke="#333333" stroke-width="0.9957" stroke-linecap="round" stroke-miterlimit="10" points="
						212.784,120.479 213.282,120.068 220.034,114.496 220.467,114.14 					"/>
					
						<line fill="none" stroke="#333333" stroke-width="0.9957" stroke-linecap="round" stroke-miterlimit="10" x1="221.673" y1="113.145" x2="221.618" y2="113.188"/>
				</g>
			</g>
		</g>
		<g>
			
				<path fill="#A1C453" stroke="#333333" stroke-width="1.4936" stroke-linecap="round" stroke-linejoin="round" stroke-miterlimit="10" d="
				M213.685,104.896c1.874,2.375,4.151,2.522,3.544,8.849c-0.604,6.323-4.687,3.069-5.083,7.231c0.396-4.162-4.332-1.986-3.75-8.077
				C208.979,106.806,211.573,107.054,213.685,104.896z"/>
			<g>
				<line fill="none" x1="212.146" y1="120.976" x2="213.339" y2="108.515"/>
				<g>
					<polyline fill="none" stroke="#333333" stroke-width="0.9957" stroke-linecap="round" stroke-miterlimit="10" points="
						212.193,120.48 212.255,119.838 213.089,111.125 213.143,110.566 					"/>
					
						<line fill="none" stroke="#333333" stroke-width="0.9957" stroke-linecap="round" stroke-miterlimit="10" x1="213.291" y1="109.01" x2="213.285" y2="109.08"/>
				</g>
			</g>
		</g>
		<g>
			
				<path fill="#A1C453" stroke="#333333" stroke-width="1.4936" stroke-linecap="round" stroke-linejoin="round" stroke-miterlimit="10" d="
				M225.075,121.442c-1.729,1.632-1.688,3.424-6.678,3.393c-4.994-0.032-2.729-3.453-6.017-3.473
				c3.287,0.02,1.252-3.529,6.059-3.498C223.251,117.894,223.237,119.939,225.075,121.442z"/>
			<g>
				<line fill="none" x1="212.221" y1="121.329" x2="222.055" y2="121.391"/>
				<g>
					<polyline fill="none" stroke="#333333" stroke-width="0.9957" stroke-linecap="round" stroke-miterlimit="10" points="
						212.719,121.332 213.363,121.336 219.433,121.374 219.993,121.378 					"/>
					
						<line fill="none" stroke="#333333" stroke-width="0.9957" stroke-linecap="round" stroke-miterlimit="10" x1="221.557" y1="121.388" x2="221.487" y2="121.387"/>
				</g>
			</g>
		</g>
		<path fill="#CC924C" stroke="#333333" stroke-width="2.6551" stroke-linecap="round" stroke-miterlimit="10" d="M243.482,176.359
			l-45.361-68.471c-0.57-0.871-1.736-1.114-2.605-0.546l0,0c-0.872,0.57-1.115,1.736-0.546,2.606l44.528,69.016"/>
		<g>
			<g>
				<path fill="#D3F46C" d="M205.26,122.216c2.253,2.669,1.774,8.205-0.752,8.911c-1.203,2.659-6.655,1.917-8.908-0.753
					c-2.253-2.668-3.171-6.408,1.424-8.441C199.649,117.923,203.007,119.55,205.26,122.216z"/>
				<g>
					<path fill="none" stroke="#333333" stroke-width="1.4936" stroke-linecap="round" stroke-miterlimit="10" d="M205.692,122.824
						c0.159,0.28,0.321,0.56,0.434,0.863c0.584,1.419,0.71,3.01,0.437,4.514c-0.146,0.748-0.4,1.496-0.881,2.1
						c-0.249,0.288-0.533,0.563-0.89,0.708l-0.266,0.11c-0.064,0.063-0.103,0.16-0.154,0.237c-0.086,0.174-0.209,0.32-0.35,0.453
						c-0.541,0.551-1.305,0.819-2.057,0.919c-0.761,0.1-1.534,0.046-2.285-0.102c-1.487-0.324-2.949-1.002-3.979-2.148
						c-0.992-1.147-1.814-2.539-1.943-4.08c-0.061-0.764,0.104-1.546,0.489-2.21c0.376-0.674,0.969-1.197,1.604-1.613
						c0.313-0.224,0.66-0.388,1.004-0.558c0.197-0.056,0.275-0.251,0.396-0.397c0.117-0.151,0.216-0.317,0.349-0.456
						c0.488-0.589,1.1-1.089,1.808-1.381c0.709-0.294,1.513-0.323,2.251-0.124c0.186,0.031,0.375,0.123,0.533,0.177
						c0.086,0.032,0.175,0.062,0.255,0.106c0.163,0.086,0.332,0.16,0.49,0.255"/>
					
						<line fill="none" stroke="#333333" stroke-width="1.4936" stroke-linecap="round" stroke-miterlimit="10" x1="204.758" y1="121.663" x2="204.684" y2="121.589"/>
				</g>
			</g>
			
				<ellipse transform="matrix(-0.0888 -0.996 0.996 -0.0888 87.0925 333.6412)" opacity="0.5" fill="#FFFFFF" enable-background="new    " cx="196.156" cy="126.984" rx="1.446" ry="1.19"/>
		</g>
		<g>
			<g>
				<path fill="#EF4529" d="M234.845,145.485c0.982,3.351-1.693,8.22-4.289,7.844c-2.178,1.947-6.863-0.938-7.845-4.289
					c-0.981-3.352-0.311-7.145,4.716-7.146C231.448,139.288,233.863,142.134,234.845,145.485z"/>
				<g>
					<path fill="none" stroke="#333333" stroke-width="1.4936" stroke-linecap="round" stroke-miterlimit="10" d="M234.995,146.217
						c0.03,0.32,0.066,0.642,0.047,0.965c-0.04,1.533-0.568,3.039-1.428,4.304c-0.436,0.626-0.974,1.206-1.654,1.563
						c-0.346,0.163-0.715,0.299-1.102,0.287l-0.287-0.007c-0.084,0.036-0.157,0.105-0.236,0.156
						c-0.148,0.125-0.32,0.208-0.502,0.272c-0.719,0.285-1.524,0.223-2.253,0.009c-0.735-0.217-1.422-0.579-2.05-1.019
						c-1.229-0.897-2.291-2.109-2.771-3.574c-0.442-1.451-0.632-3.057-0.126-4.518c0.254-0.723,0.721-1.372,1.342-1.822
						c0.616-0.465,1.37-0.704,2.121-0.827c0.377-0.077,0.761-0.087,1.145-0.104c0.201,0.03,0.353-0.119,0.521-0.203
						c0.168-0.091,0.325-0.203,0.503-0.276c0.686-0.342,1.445-0.551,2.211-0.531c0.769,0.018,1.516,0.317,2.108,0.798
						c0.156,0.104,0.293,0.265,0.417,0.378c0.064,0.064,0.134,0.126,0.188,0.2c0.115,0.145,0.239,0.281,0.348,0.432"/>
					
						<line fill="none" stroke="#333333" stroke-width="1.4936" stroke-linecap="round" stroke-miterlimit="10" x1="234.609" y1="144.776" x2="234.571" y2="144.679"/>
				</g>
			</g>
			
				<ellipse transform="matrix(0.3218 -0.9468 0.9468 0.3218 13.9243 311.7593)" opacity="0.5" fill="#FFFFFF" enable-background="new    " cx="224.578" cy="146.16" rx="1.446" ry="1.19"/>
		</g>
		<g>
			
				<path fill="#A1C453" stroke="#333333" stroke-width="0.9957" stroke-linecap="round" stroke-linejoin="round" stroke-miterlimit="10" d="
				M194.214,108.013c0,0-0.552-2.879-0.508-3.475c0.03-0.479,2.25,1.736,2.903,2.676L194.214,108.013z"/>
			
				<path fill="#A1C453" stroke="#333333" stroke-width="0.9957" stroke-linecap="round" stroke-linejoin="round" stroke-miterlimit="10" d="
				M196.022,106.548l-0.684,4.459c0,0-2.986-3.35-2.898-5.224C192.44,105.783,194.508,106.462,196.022,106.548z"/>
			
				<path fill="#A1C453" stroke="#333333" stroke-width="0.9957" stroke-linecap="round" stroke-linejoin="round" stroke-miterlimit="10" d="
				M199.439,110.708c0,0-0.95-5.491-3.903-6.947l-0.441,4.296L199.439,110.708z"/>
		</g>
	</g>
</g>
<g id="calque08">
	<g>
		
			<polygon fill="#CC924C" stroke="#333333" stroke-width="0.9957" stroke-linecap="round" stroke-linejoin="round" stroke-miterlimit="10" points="
			226.568,144.058 227.433,152.718 225.894,150.364 		"/>
		
			<polygon fill="#CC924C" stroke="#333333" stroke-width="0.9957" stroke-linecap="round" stroke-linejoin="round" stroke-miterlimit="10" points="
			212.146,120.976 211.358,128.131 209.82,125.78 		"/>
		
			<polygon fill="#CC924C" stroke="#333333" stroke-width="0.9957" stroke-linecap="round" stroke-linejoin="round" stroke-miterlimit="10" points="
			206.19,145.668 221.189,150.05 219.651,147.698 		"/>
		
			<polygon fill="#CC924C" stroke="#333333" stroke-width="0.9957" stroke-linecap="round" stroke-linejoin="round" stroke-miterlimit="10" points="
			196.278,120.859 203.798,123.45 202.805,121.932 		"/>
		<g>
			
				<path fill="#A1C453" stroke="#333333" stroke-width="1.4936" stroke-linecap="round" stroke-linejoin="round" stroke-miterlimit="10" d="
				M214.809,159.935c2.18-1.558,2.405-3.567,7.979-2.77c5.573,0.8,2.523,4.275,6.19,4.801c-3.667-0.525-1.938,3.752-7.307,2.982
				C216.304,164.18,216.632,161.894,214.809,159.935z"/>
			<g>
				<line fill="none" x1="228.979" y1="161.966" x2="217.837" y2="160.357"/>
				<g>
					<polyline fill="none" stroke="#333333" stroke-width="0.9957" stroke-linecap="round" stroke-miterlimit="10" points="
						228.486,161.895 227.849,161.803 220.432,160.732 219.877,160.652 					"/>
					
						<line fill="none" stroke="#333333" stroke-width="0.9957" stroke-linecap="round" stroke-miterlimit="10" x1="218.33" y1="160.429" x2="218.399" y2="160.438"/>
				</g>
			</g>
		</g>
		<g>
			
				<path fill="#A1C453" stroke="#333333" stroke-width="1.4936" stroke-linecap="round" stroke-linejoin="round" stroke-miterlimit="10" d="
				M227.747,129.791c1.687,2.083,3.705,2.188,3.241,7.798c-0.464,5.613-4.116,2.776-4.421,6.469
				c0.305-3.692-3.861-1.709-3.414-7.114C223.599,131.539,225.899,131.729,227.747,129.791z"/>
			<g>
				<line fill="none" x1="226.409" y1="144.023" x2="227.319" y2="132.969"/>
				<g>
					<polyline fill="none" stroke="#333333" stroke-width="0.9957" stroke-linecap="round" stroke-miterlimit="10" points="
						226.45,143.527 226.503,142.885 227.104,135.582 227.15,135.023 					"/>
					
						<line fill="none" stroke="#333333" stroke-width="0.9957" stroke-linecap="round" stroke-miterlimit="10" x1="227.278" y1="133.465" x2="227.272" y2="133.535"/>
				</g>
			</g>
		</g>
		<g>
			
				<path fill="#A1C453" stroke="#333333" stroke-width="1.4936" stroke-linecap="round" stroke-linejoin="round" stroke-miterlimit="10" d="
				M194.911,134.119c3.021,0.064,4.584-1.6,9.083,2.888c4.5,4.486-0.606,5.569,2.354,8.521c-2.962-2.952-4.287,2.082-8.62-2.238
				C193.395,138.968,195.234,137.124,194.911,134.119z"/>
			<g>
				<line fill="none" x1="206.35" y1="145.528" x2="197.483" y2="136.688"/>
				<g>
					<polyline fill="none" stroke="#333333" stroke-width="0.9957" stroke-linecap="round" stroke-miterlimit="10" points="
						205.997,145.177 205.54,144.722 199.34,138.54 198.943,138.144 					"/>
					
						<line fill="none" stroke="#333333" stroke-width="0.9957" stroke-linecap="round" stroke-miterlimit="10" x1="197.836" y1="137.04" x2="197.886" y2="137.09"/>
				</g>
			</g>
		</g>
		<g>
			
				<path fill="#A1C453" stroke="#333333" stroke-width="1.4936" stroke-linecap="round" stroke-linejoin="round" stroke-miterlimit="10" d="
				M190.38,145.95c2.186-2.094,2.111-4.373,8.467-4.383c6.354-0.009,3.509,4.366,7.689,4.36c-4.182,0.006-1.56,4.505-7.679,4.513
				C192.738,150.449,192.735,147.845,190.38,145.95z"/>
			<g>
				<line fill="none" x1="206.536" y1="145.928" x2="194.018" y2="145.946"/>
				<g>
					<polyline fill="none" stroke="#333333" stroke-width="0.9957" stroke-linecap="round" stroke-miterlimit="10" points="
						206.038,145.929 205.394,145.93 196.64,145.942 196.079,145.943 					"/>
					
						<line fill="none" stroke="#333333" stroke-width="0.9957" stroke-linecap="round" stroke-miterlimit="10" x1="194.516" y1="145.945" x2="194.585" y2="145.945"/>
				</g>
			</g>
		</g>
		<g>
			
				<path fill="#A1C453" stroke="#333333" stroke-width="1.4936" stroke-linecap="round" stroke-linejoin="round" stroke-miterlimit="10" d="
				M184.663,116.72c2.18-1.008,2.712-2.738,7.48-1.107c4.77,1.632,1.507,4.182,4.646,5.254c-3.14-1.072-2.328,2.978-6.924,1.406
				C185.273,120.702,185.94,118.747,184.663,116.72z"/>
			<g>
				<line fill="none" x1="196.79" y1="120.866" x2="187.394" y2="117.653"/>
				<g>
					<polyline fill="none" stroke="#333333" stroke-width="0.9957" stroke-linecap="round" stroke-miterlimit="10" points="
						196.319,120.705 195.709,120.496 189.874,118.502 189.344,118.32 					"/>
					
						<line fill="none" stroke="#333333" stroke-width="0.9957" stroke-linecap="round" stroke-miterlimit="10" x1="187.864" y1="117.814" x2="187.931" y2="117.837"/>
				</g>
			</g>
		</g>
		<g>
			
				<path fill="#A1C453" stroke="#333333" stroke-width="1.4936" stroke-linecap="round" stroke-linejoin="round" stroke-miterlimit="10" d="
				M185.558,126.728c0.826-2.253-0.021-3.852,4.506-6.07c4.524-2.221,4.021,1.889,7,0.428c-2.979,1.461,0.457,3.754-3.9,5.891
				C188.804,129.113,187.894,127.258,185.558,126.728z"/>
			<g>
				<line fill="none" x1="197.063" y1="121.085" x2="188.147" y2="125.458"/>
				<g>
					<polyline fill="none" stroke="#333333" stroke-width="0.9957" stroke-linecap="round" stroke-miterlimit="10" points="
						196.616,121.305 196.037,121.588 190.502,124.304 189.998,124.551 					"/>
					
						<line fill="none" stroke="#333333" stroke-width="0.9957" stroke-linecap="round" stroke-miterlimit="10" x1="188.595" y1="125.238" x2="188.657" y2="125.208"/>
				</g>
			</g>
		</g>
		<g>
			
				<path fill="#A1C453" stroke="#333333" stroke-width="1.4936" stroke-linecap="round" stroke-linejoin="round" stroke-miterlimit="10" d="
				M225.022,110.548c-0.354,3.002,1.151,4.717-3.75,8.762c-4.9,4.045-5.483-1.144-8.709,1.519c3.226-2.662-1.658-4.47,3.062-8.363
				C220.347,108.569,222.003,110.578,225.022,110.548z"/>
			<g>
				<line fill="none" x1="212.401" y1="120.794" x2="222.06" y2="112.826"/>
				<g>
					<polyline fill="none" stroke="#333333" stroke-width="0.9957" stroke-linecap="round" stroke-miterlimit="10" points="
						212.785,120.478 213.283,120.066 220.037,114.495 220.47,114.138 					"/>
					
						<line fill="none" stroke="#333333" stroke-width="0.9957" stroke-linecap="round" stroke-miterlimit="10" x1="221.676" y1="113.143" x2="221.621" y2="113.188"/>
				</g>
			</g>
		</g>
		<g>
			
				<path fill="#A1C453" stroke="#333333" stroke-width="1.4936" stroke-linecap="round" stroke-linejoin="round" stroke-miterlimit="10" d="
				M213.688,104.896c1.873,2.375,4.149,2.521,3.544,8.848c-0.607,6.325-4.687,3.07-5.085,7.232c0.398-4.162-4.332-1.988-3.747-8.079
				C208.98,106.805,211.575,107.053,213.688,104.896z"/>
			<g>
				<line fill="none" x1="212.146" y1="120.976" x2="213.34" y2="108.515"/>
				<g>
					<polyline fill="none" stroke="#333333" stroke-width="0.9957" stroke-linecap="round" stroke-miterlimit="10" points="
						212.194,120.48 212.256,119.838 213.09,111.125 213.144,110.566 					"/>
					
						<line fill="none" stroke="#333333" stroke-width="0.9957" stroke-linecap="round" stroke-miterlimit="10" x1="213.292" y1="109.01" x2="213.286" y2="109.08"/>
				</g>
			</g>
		</g>
		<g>
			
				<path fill="#A1C453" stroke="#333333" stroke-width="1.4936" stroke-linecap="round" stroke-linejoin="round" stroke-miterlimit="10" d="
				M225.075,121.44c-1.729,1.633-1.685,3.424-6.677,3.393c-4.991-0.031-2.729-3.451-6.016-3.472c3.285,0.021,1.252-3.53,6.06-3.499
				C223.251,117.893,223.239,119.938,225.075,121.44z"/>
			<g>
				<line fill="none" x1="212.224" y1="121.328" x2="222.057" y2="121.39"/>
				<g>
					<polyline fill="none" stroke="#333333" stroke-width="0.9957" stroke-linecap="round" stroke-miterlimit="10" points="
						212.722,121.331 213.366,121.335 219.435,121.373 219.995,121.377 					"/>
					
						<line fill="none" stroke="#333333" stroke-width="0.9957" stroke-linecap="round" stroke-miterlimit="10" x1="221.559" y1="121.387" x2="221.489" y2="121.386"/>
				</g>
			</g>
		</g>
		<path fill="#CC924C" stroke="#333333" stroke-width="2.6551" stroke-linecap="round" stroke-miterlimit="10" d="M243.483,176.358
			l-45.36-68.47c-0.568-0.872-1.736-1.114-2.607-0.546l0,0c-0.869,0.568-1.113,1.735-0.544,2.605l44.528,69.016"/>
		<g>
			<g>
				<path fill="#EF4529" d="M205.263,122.216c2.252,2.669,1.772,8.203-0.752,8.909c-1.203,2.66-6.657,1.917-8.91-0.751
					c-2.252-2.669-3.171-6.408,1.424-8.442C199.649,117.921,203.01,119.548,205.263,122.216z"/>
				<g>
					<path fill="none" stroke="#333333" stroke-width="1.4936" stroke-linecap="round" stroke-miterlimit="10" d="M205.695,122.824
						c0.158,0.28,0.321,0.56,0.434,0.863c0.583,1.419,0.709,3.01,0.436,4.514c-0.146,0.748-0.402,1.497-0.883,2.1
						c-0.249,0.288-0.533,0.563-0.89,0.707l-0.267,0.111c-0.062,0.066-0.102,0.16-0.152,0.238c-0.086,0.175-0.21,0.319-0.351,0.453
						c-0.541,0.55-1.305,0.818-2.058,0.918c-0.76,0.099-1.534,0.044-2.285-0.104c-1.486-0.324-2.948-1.002-3.979-2.148
						c-0.991-1.148-1.813-2.54-1.941-4.082c-0.06-0.763,0.104-1.545,0.491-2.209c0.376-0.674,0.969-1.197,1.605-1.613
						c0.313-0.223,0.66-0.387,1.003-0.558c0.198-0.055,0.274-0.253,0.396-0.397c0.117-0.151,0.216-0.318,0.348-0.457
						c0.488-0.589,1.101-1.088,1.81-1.38c0.709-0.293,1.513-0.321,2.251-0.122c0.185,0.031,0.375,0.123,0.532,0.177
						c0.088,0.032,0.176,0.062,0.256,0.106c0.162,0.086,0.333,0.16,0.49,0.255"/>
					
						<line fill="none" stroke="#333333" stroke-width="1.4936" stroke-linecap="round" stroke-miterlimit="10" x1="204.761" y1="121.663" x2="204.687" y2="121.589"/>
				</g>
			</g>
			
				<ellipse transform="matrix(-0.0887 -0.9961 0.9961 -0.0887 87.0727 333.6406)" opacity="0.5" fill="#FFFFFF" enable-background="new    " cx="196.155" cy="126.99" rx="1.447" ry="1.19"/>
		</g>
		<g>
			<g>
				<path fill="#EF4529" d="M234.847,145.483c0.981,3.352-1.695,8.222-4.291,7.846c-2.175,1.945-6.861-0.939-7.844-4.29
					c-0.983-3.351-0.31-7.144,4.715-7.146C231.45,139.288,233.864,142.134,234.847,145.483z"/>
				<g>
					<path fill="none" stroke="#333333" stroke-width="1.4936" stroke-linecap="round" stroke-miterlimit="10" d="M234.997,146.215
						c0.03,0.32,0.065,0.642,0.046,0.965c-0.04,1.533-0.568,3.039-1.426,4.305c-0.437,0.625-0.975,1.206-1.655,1.564
						c-0.345,0.162-0.715,0.298-1.101,0.287l-0.286-0.007c-0.087,0.033-0.158,0.104-0.238,0.155
						c-0.148,0.124-0.32,0.208-0.502,0.272c-0.717,0.285-1.524,0.222-2.253,0.009c-0.735-0.217-1.421-0.579-2.048-1.018
						c-1.229-0.898-2.292-2.109-2.773-3.574c-0.443-1.451-0.632-3.057-0.127-4.518c0.255-0.723,0.721-1.372,1.343-1.822
						c0.615-0.465,1.369-0.704,2.12-0.828c0.377-0.077,0.761-0.086,1.145-0.104c0.201,0.03,0.353-0.118,0.521-0.203
						c0.168-0.091,0.326-0.203,0.503-0.276c0.686-0.341,1.445-0.551,2.212-0.531c0.768,0.019,1.515,0.317,2.108,0.798
						c0.156,0.104,0.293,0.265,0.417,0.378c0.064,0.064,0.134,0.126,0.188,0.2c0.115,0.144,0.239,0.281,0.347,0.431"/>
					
						<line fill="none" stroke="#333333" stroke-width="1.4936" stroke-linecap="round" stroke-miterlimit="10" x1="234.611" y1="144.774" x2="234.573" y2="144.677"/>
				</g>
			</g>
			
				<ellipse transform="matrix(0.3225 -0.9466 0.9466 0.3225 13.815 311.6191)" opacity="0.5" fill="#FFFFFF" enable-background="new    " cx="224.597" cy="146.159" rx="1.446" ry="1.19"/>
		</g>
		<g>
			
				<path fill="#A1C453" stroke="#333333" stroke-width="0.9957" stroke-linecap="round" stroke-linejoin="round" stroke-miterlimit="10" d="
				M194.217,108.012c0,0-0.553-2.879-0.509-3.474c0.028-0.479,2.25,1.736,2.901,2.676L194.217,108.012z"/>
			
				<path fill="#A1C453" stroke="#333333" stroke-width="0.9957" stroke-linecap="round" stroke-linejoin="round" stroke-miterlimit="10" d="
				M196.024,106.548l-0.683,4.457c0,0-2.989-3.348-2.898-5.224C192.443,105.781,194.511,106.461,196.024,106.548z"/>
			
				<path fill="#A1C453" stroke="#333333" stroke-width="0.9957" stroke-linecap="round" stroke-linejoin="round" stroke-miterlimit="10" d="
				M199.442,110.707c0,0-0.95-5.49-3.905-6.948l-0.44,4.297L199.442,110.707z"/>
		</g>
	</g>
</g>
</svg>
