<?xml version="1.0" encoding="utf-8"?>
<!-- Generator: Adobe Illustrator 16.0.0, SVG Export Plug-In . SVG Version: 6.00 Build 0)  -->
<!DOCTYPE svg PUBLIC "-//W3C//DTD SVG 1.1//EN" "http://www.w3.org/Graphics/SVG/1.1/DTD/svg11.dtd">
<svg version="1.1" id="Calque_1" xmlns="http://www.w3.org/2000/svg" xmlns:xlink="http://www.w3.org/1999/xlink" x="0px" y="0px"
	 width="400px" height="400px" viewBox="0 0 400 400" enable-background="new 0 0 400 400" xml:space="preserve">
<g id="calque00">
	<g>
		<path fill="#CC924C" stroke="#333333" stroke-width="2.6539" stroke-linecap="round" stroke-miterlimit="10" d="M109.553,155.5
			l5.393-7.704c0.584-0.941,1.82-1.232,2.765-0.649l0,0c0.942,0.583,1.233,1.822,0.649,2.763l-4.491,8.265"/>
		<g>
			
				<path fill="#A1C453" stroke="#333333" stroke-width="1.0616" stroke-linecap="round" stroke-linejoin="round" stroke-miterlimit="10" d="
				M119.111,147.827c0,0,0.513-3.084,0.451-3.719c-0.047-0.508-2.354,1.911-3.024,2.93L119.111,147.827z"/>
			
				<path fill="#A1C453" stroke="#333333" stroke-width="1.0616" stroke-linecap="round" stroke-linejoin="round" stroke-miterlimit="10" d="
				M117.145,146.313l0.849,4.733c0,0,3.094-3.648,2.948-5.644C120.941,145.403,118.756,146.183,117.145,146.313z"/>
			
				<path fill="#A1C453" stroke="#333333" stroke-width="1.0616" stroke-linecap="round" stroke-linejoin="round" stroke-miterlimit="10" d="
				M113.611,150.836c0,0,0.869-5.876,3.98-7.509l0.582,4.568L113.611,150.836z"/>
		</g>
	</g>
</g>
<g id="calque01">
	<g>
		<g>
			
				<path fill="#A1C453" stroke="#333333" stroke-width="1.0616" stroke-linecap="round" stroke-linejoin="round" stroke-miterlimit="10" d="
				M132.063,138.367c-1.084-0.737-1.219-1.716-3.934-1.258s-1.183,2.12-2.969,2.422c1.786-0.302,0.993,1.81,3.606,1.37
				C131.383,140.46,131.195,139.346,132.063,138.367z"/>
			<g>
				<line fill="none" x1="125.16" y1="139.531" x2="130.51" y2="138.628"/>
				<g>
					<polyline fill="none" stroke="#333333" stroke-width="1.0616" stroke-linecap="round" stroke-miterlimit="10" points="
						125.684,139.443 126.361,139.328 127.754,139.094 128.343,138.994 					"/>
					
						<line fill="none" stroke="#333333" stroke-width="1.0616" stroke-linecap="round" stroke-miterlimit="10" x1="129.986" y1="138.717" x2="129.913" y2="138.729"/>
				</g>
			</g>
		</g>
		<path fill="#CC924C" stroke="#333333" stroke-width="2.6539" stroke-linecap="round" stroke-miterlimit="10" d="M109.553,155.5
			l15.816-24.541c0.584-0.941,1.819-1.233,2.764-0.65l0,0c0.943,0.583,1.234,1.822,0.65,2.764l-14.916,25.102"/>
		<g>
			
				<path fill="#A1C453" stroke="#333333" stroke-width="1.0616" stroke-linecap="round" stroke-linejoin="round" stroke-miterlimit="10" d="
				M129.535,130.989c0,0,0.512-3.083,0.45-3.719c-0.047-0.508-2.354,1.912-3.024,2.93L129.535,130.989z"/>
			
				<path fill="#A1C453" stroke="#333333" stroke-width="1.0616" stroke-linecap="round" stroke-linejoin="round" stroke-miterlimit="10" d="
				M127.568,129.476l0.849,4.733c0,0,3.094-3.648,2.949-5.646C131.365,128.563,129.18,129.345,127.568,129.476z"/>
			
				<path fill="#A1C453" stroke="#333333" stroke-width="1.0616" stroke-linecap="round" stroke-linejoin="round" stroke-miterlimit="10" d="
				M124.037,133.999c0,0,0.866-5.877,3.979-7.509l0.582,4.568L124.037,133.999z"/>
		</g>
	</g>
</g>
<g id="calque02">
	<g>
		<g>
			
				<path fill="#A1C453" stroke="#333333" stroke-width="1.5923" stroke-linecap="round" stroke-linejoin="round" stroke-miterlimit="10" d="
				M139.68,137.241c-2.365-1.604-2.656-3.74-8.576-2.74c-5.92,0.997-2.578,4.622-6.473,5.278c3.895-0.656,2.164,3.948,7.865,2.988
				C138.197,141.806,137.789,139.377,139.68,137.241z"/>
			<g>
				<line fill="none" x1="124.631" y1="139.779" x2="136.293" y2="137.813"/>
				<g>
					<polyline fill="none" stroke="#333333" stroke-width="1.0616" stroke-linecap="round" stroke-miterlimit="10" points="
						125.154,139.691 125.832,139.577 133.536,138.278 134.126,138.179 					"/>
					
						<line fill="none" stroke="#333333" stroke-width="1.0616" stroke-linecap="round" stroke-miterlimit="10" x1="135.77" y1="137.901" x2="135.696" y2="137.914"/>
				</g>
			</g>
		</g>
		<g>
			
				<path fill="#A1C453" stroke="#333333" stroke-width="1.0616" stroke-linecap="round" stroke-linejoin="round" stroke-miterlimit="10" d="
				M126.213,120.837c-0.785,1.02-1.754,1.095-1.465,3.781c0.289,2.688,2.008,1.282,2.196,3.051
				c-0.188-1.769,1.834-0.864,1.556-3.455C128.225,121.626,127.121,121.744,126.213,120.837z"/>
			<g>
				<line fill="none" x1="126.945" y1="127.669" x2="126.408" y2="122.967"/>
				<g>
					<polyline fill="none" stroke="#333333" stroke-width="1.0616" stroke-linecap="round" stroke-miterlimit="10" points="
						126.885,127.142 126.807,126.458 126.726,125.744 126.657,125.15 					"/>
					
						<line fill="none" stroke="#333333" stroke-width="1.0616" stroke-linecap="round" stroke-miterlimit="10" x1="126.469" y1="123.494" x2="126.477" y2="123.568"/>
				</g>
			</g>
		</g>
		<path fill="#CC924C" stroke="#333333" stroke-width="2.6539" stroke-linecap="round" stroke-miterlimit="10" d="M109.553,155.5
			l20.617-32.296c0.584-0.943,1.822-1.235,2.766-0.651l0,0c0.941,0.583,1.232,1.821,0.648,2.765l-19.717,32.856"/>
		<g>
			
				<path fill="#A1C453" stroke="#333333" stroke-width="1.0616" stroke-linecap="round" stroke-linejoin="round" stroke-miterlimit="10" d="
				M134.338,123.233c0,0,0.512-3.084,0.449-3.719c-0.045-0.509-2.354,1.911-3.023,2.93L134.338,123.233z"/>
			
				<path fill="#A1C453" stroke="#333333" stroke-width="1.0616" stroke-linecap="round" stroke-linejoin="round" stroke-miterlimit="10" d="
				M132.371,121.72l0.846,4.732c0,0,3.096-3.647,2.951-5.643C136.168,120.81,133.98,121.588,132.371,121.72z"/>
			
				<path fill="#A1C453" stroke="#333333" stroke-width="1.0616" stroke-linecap="round" stroke-linejoin="round" stroke-miterlimit="10" d="
				M128.838,126.242c0,0,0.869-5.876,3.979-7.509l0.584,4.568L128.838,126.242z"/>
		</g>
	</g>
</g>
<g id="calque03">
	<g>
		
			<polygon fill="#CC924C" stroke="#333333" stroke-width="1.0616" stroke-linecap="round" stroke-linejoin="round" stroke-miterlimit="10" points="
			126.729,120.63 126.037,129.882 127.615,127.335 		"/>
		<g>
			
				<path fill="#A1C453" stroke="#333333" stroke-width="1.5923" stroke-linecap="round" stroke-linejoin="round" stroke-miterlimit="10" d="
				M139.68,137.241c-2.363-1.604-2.656-3.74-8.576-2.74c-5.92,0.997-2.578,4.622-6.473,5.278c3.895-0.656,2.166,3.948,7.865,2.988
				C138.197,141.806,137.789,139.377,139.68,137.241z"/>
			<g>
				<line fill="none" x1="124.631" y1="139.779" x2="136.293" y2="137.813"/>
				<g>
					<polyline fill="none" stroke="#333333" stroke-width="1.0616" stroke-linecap="round" stroke-miterlimit="10" points="
						125.154,139.691 125.832,139.577 133.536,138.278 134.126,138.179 					"/>
					
						<line fill="none" stroke="#333333" stroke-width="1.0616" stroke-linecap="round" stroke-miterlimit="10" x1="135.77" y1="137.901" x2="135.696" y2="137.914"/>
				</g>
			</g>
		</g>
		<g>
			
				<path fill="#A1C453" stroke="#333333" stroke-width="1.5923" stroke-linecap="round" stroke-linejoin="round" stroke-miterlimit="10" d="
				M125.096,105.454c-1.742,2.266-3.891,2.431-3.248,8.398c0.641,5.97,4.459,2.849,4.881,6.777c-0.422-3.929,4.07-1.924,3.453-7.673
				S127.115,107.47,125.096,105.454z"/>
			<g>
				<line fill="none" x1="126.729" y1="120.63" x2="125.465" y2="108.869"/>
				<g>
					<polyline fill="none" stroke="#333333" stroke-width="1.0616" stroke-linecap="round" stroke-miterlimit="10" points="
						126.672,120.103 126.599,119.418 125.764,111.648 125.699,111.055 					"/>
					
						<line fill="none" stroke="#333333" stroke-width="1.0616" stroke-linecap="round" stroke-miterlimit="10" x1="125.521" y1="109.396" x2="125.529" y2="109.471"/>
				</g>
			</g>
		</g>
		<g>
			
				<path fill="#A1C453" stroke="#333333" stroke-width="1.0616" stroke-linecap="round" stroke-linejoin="round" stroke-miterlimit="10" d="
				M141.25,125.109c-0.941-0.858-0.935-1.822-3.611-1.758c-2.68,0.063-1.434,1.876-3.195,1.916c1.763-0.04,0.701,1.885,3.281,1.824
				S140.279,125.934,141.25,125.109z"/>
			<g>
				<line fill="none" x1="134.443" y1="125.268" x2="139.719" y2="125.146"/>
				<g>
					<polyline fill="none" stroke="#333333" stroke-width="1.0616" stroke-linecap="round" stroke-miterlimit="10" points="
						134.974,125.256 135.661,125.239 136.924,125.211 137.521,125.197 					"/>
					
						<line fill="none" stroke="#333333" stroke-width="1.0616" stroke-linecap="round" stroke-miterlimit="10" x1="139.188" y1="125.158" x2="139.113" y2="125.16"/>
				</g>
			</g>
		</g>
		<path fill="#CC924C" stroke="#333333" stroke-width="2.6539" stroke-linecap="round" stroke-miterlimit="10" d="M109.553,155.5
			l24.393-38.393c0.584-0.943,1.82-1.235,2.765-0.65l0,0c0.94,0.583,1.233,1.82,0.649,2.764l-23.491,38.953"/>
		<g>
			
				<path fill="#A1C453" stroke="#333333" stroke-width="1.0616" stroke-linecap="round" stroke-linejoin="round" stroke-miterlimit="10" d="
				M138.111,117.136c0,0,0.513-3.083,0.451-3.717c-0.047-0.51-2.354,1.91-3.024,2.928L138.111,117.136z"/>
			
				<path fill="#A1C453" stroke="#333333" stroke-width="1.0616" stroke-linecap="round" stroke-linejoin="round" stroke-miterlimit="10" d="
				M136.145,115.622l0.849,4.733c0,0,3.094-3.648,2.95-5.646C139.943,114.71,137.756,115.491,136.145,115.622z"/>
			
				<path fill="#A1C453" stroke="#333333" stroke-width="1.0616" stroke-linecap="round" stroke-linejoin="round" stroke-miterlimit="10" d="
				M132.613,120.146c0,0,0.869-5.877,3.979-7.509l0.584,4.568L132.613,120.146z"/>
		</g>
	</g>
</g>
<g id="calque04">
	<g>
		
			<polygon fill="#CC924C" stroke="#333333" stroke-width="1.0616" stroke-linecap="round" stroke-linejoin="round" stroke-miterlimit="10" points="
			126.729,120.63 126.037,129.882 127.613,127.333 		"/>
		
			<polygon fill="#CC924C" stroke="#333333" stroke-width="1.0616" stroke-linecap="round" stroke-linejoin="round" stroke-miterlimit="10" points="
			148.49,121.809 132.621,126.873 134.197,124.328 		"/>
		<g>
			
				<path fill="#A1C453" stroke="#333333" stroke-width="1.5923" stroke-linecap="round" stroke-linejoin="round" stroke-miterlimit="10" d="
				M139.68,137.241c-2.363-1.604-2.656-3.74-8.576-2.74c-5.92,0.997-2.578,4.622-6.473,5.278c3.895-0.656,2.166,3.948,7.865,2.988
				C138.197,141.806,137.789,139.377,139.68,137.241z"/>
			<g>
				<line fill="none" x1="124.631" y1="139.779" x2="136.293" y2="137.813"/>
				<g>
					<polyline fill="none" stroke="#333333" stroke-width="1.0616" stroke-linecap="round" stroke-miterlimit="10" points="
						125.154,139.691 125.832,139.577 133.536,138.278 134.126,138.179 					"/>
					
						<line fill="none" stroke="#333333" stroke-width="1.0616" stroke-linecap="round" stroke-miterlimit="10" x1="135.77" y1="137.901" x2="135.696" y2="137.914"/>
				</g>
			</g>
		</g>
		<g>
			
				<path fill="#A1C453" stroke="#333333" stroke-width="1.5923" stroke-linecap="round" stroke-linejoin="round" stroke-miterlimit="10" d="
				M125.096,105.454c-1.742,2.266-3.891,2.431-3.248,8.398c0.641,5.97,4.459,2.849,4.881,6.777c-0.422-3.929,4.07-1.924,3.453-7.673
				S127.115,107.47,125.096,105.454z"/>
			<g>
				<line fill="none" x1="126.729" y1="120.63" x2="125.465" y2="108.869"/>
				<g>
					<polyline fill="none" stroke="#333333" stroke-width="1.0616" stroke-linecap="round" stroke-miterlimit="10" points="
						126.672,120.103 126.599,119.418 125.764,111.648 125.699,111.055 					"/>
					
						<line fill="none" stroke="#333333" stroke-width="1.0616" stroke-linecap="round" stroke-miterlimit="10" x1="125.521" y1="109.396" x2="125.529" y2="109.471"/>
				</g>
			</g>
		</g>
		<g>
			
				<path fill="#A1C453" stroke="#333333" stroke-width="1.0616" stroke-linecap="round" stroke-linejoin="round" stroke-miterlimit="10" d="
				M153.102,116.714c-1.283,0.058-1.963-0.631-3.822,1.317c-1.858,1.949,0.316,2.354-0.907,3.636c1.225-1.282,1.84,0.84,3.631-1.039
				C153.793,118.752,152.994,117.99,153.102,116.714z"/>
			<g>
				<line fill="none" x1="148.371" y1="121.667" x2="152.037" y2="117.83"/>
				<g>
					<polyline fill="none" stroke="#333333" stroke-width="1.0616" stroke-linecap="round" stroke-miterlimit="10" points="
						148.738,121.283 149.213,120.786 150.106,119.852 150.519,119.419 					"/>
					
						<line fill="none" stroke="#333333" stroke-width="1.0616" stroke-linecap="round" stroke-miterlimit="10" x1="151.67" y1="118.214" x2="151.619" y2="118.268"/>
				</g>
			</g>
		</g>
		<g>
			
				<path fill="#A1C453" stroke="#333333" stroke-width="1.5923" stroke-linecap="round" stroke-linejoin="round" stroke-miterlimit="10" d="
				M165.35,121.694c-2.385-2.176-2.367-4.608-9.141-4.45c-6.771,0.158-3.625,4.748-8.08,4.85c4.455-0.102,1.779,4.761,8.301,4.608
				C162.955,126.55,162.891,123.774,165.35,121.694z"/>
			<g>
				<line fill="none" x1="148.129" y1="122.094" x2="161.473" y2="121.784"/>
				<g>
					<polyline fill="none" stroke="#333333" stroke-width="1.0616" stroke-linecap="round" stroke-miterlimit="10" points="
						148.659,122.081 149.347,122.065 158.678,121.849 159.275,121.835 					"/>
					
						<line fill="none" stroke="#333333" stroke-width="1.0616" stroke-linecap="round" stroke-miterlimit="10" x1="160.942" y1="121.797" x2="160.867" y2="121.798"/>
				</g>
			</g>
		</g>
		<path fill="#CC924C" stroke="#333333" stroke-width="2.6539" stroke-linecap="round" stroke-miterlimit="10" d="M109.553,155.5
			l31.6-50.035c0.584-0.943,1.822-1.234,2.765-0.649l0,0c0.942,0.583,1.233,1.819,0.649,2.763l-30.698,50.596"/>
		<g>
			
				<path fill="#A1C453" stroke="#333333" stroke-width="1.0616" stroke-linecap="round" stroke-linejoin="round" stroke-miterlimit="10" d="
				M145.318,105.494c0,0,0.515-3.084,0.451-3.719c-0.047-0.509-2.354,1.911-3.022,2.93L145.318,105.494z"/>
			
				<path fill="#A1C453" stroke="#333333" stroke-width="1.0616" stroke-linecap="round" stroke-linejoin="round" stroke-miterlimit="10" d="
				M143.352,103.98l0.849,4.732c0,0,3.094-3.647,2.95-5.643C147.15,103.07,144.963,103.849,143.352,103.98z"/>
			
				<path fill="#A1C453" stroke="#333333" stroke-width="1.0616" stroke-linecap="round" stroke-linejoin="round" stroke-miterlimit="10" d="
				M139.82,108.503c0,0,0.867-5.876,3.979-7.507l0.584,4.566L139.82,108.503z"/>
		</g>
		<g>
			
				<path fill="#FFFFFF" stroke="#333333" stroke-width="1.0616" stroke-linecap="round" stroke-linejoin="round" stroke-miterlimit="10" d="
				M125.057,119.548c0.228,0.418-0.266,1.229-0.699,1.793c-0.78,1.018-2.662,1.645-3.369,0.328
				c-0.709-1.322,0.849-2.551,2.125-2.645C123.824,118.975,124.832,119.127,125.057,119.548z"/>
			
				<path fill="#FFFFFF" stroke="#333333" stroke-width="1.0616" stroke-linecap="round" stroke-linejoin="round" stroke-miterlimit="10" d="
				M125.182,119.543c0.252-0.403,1.197-0.383,1.902-0.289c1.272,0.167,2.756,1.482,1.971,2.753
				c-0.791,1.276-2.633,0.541-3.352-0.519C125.303,120.899,124.932,119.949,125.182,119.543z"/>
			
				<path fill="#FFFFFF" stroke="#333333" stroke-width="1.0616" stroke-linecap="round" stroke-linejoin="round" stroke-miterlimit="10" d="
				M125.123,119.441c-0.478-0.015-0.931-0.846-1.203-1.504c-0.492-1.185-0.094-3.125,1.397-3.079c1.5,0.046,1.785,2.009,1.229,3.161
				C126.234,118.658,125.6,119.456,125.123,119.441z"/>
			
				<path fill="#FFFFFF" stroke="#333333" stroke-width="1.0616" stroke-linecap="round" stroke-linejoin="round" stroke-miterlimit="10" d="
				M124.965,119.452c-0.25,0.403-1.197,0.383-1.902,0.289c-1.272-0.169-2.756-1.482-1.971-2.753
				c0.791-1.276,2.633-0.541,3.354,0.519C124.842,118.099,125.217,119.046,124.965,119.452z"/>
			
				<path fill="#FFFFFF" stroke="#333333" stroke-width="1.0616" stroke-linecap="round" stroke-linejoin="round" stroke-miterlimit="10" d="
				M125.031,119.554c0.476,0.015,0.933,0.846,1.203,1.504c0.49,1.185,0.095,3.127-1.399,3.081c-1.5-0.046-1.785-2.009-1.228-3.163
				C123.918,120.335,124.553,119.539,125.031,119.554z"/>
			
				<path fill="#FFFFFF" stroke="#333333" stroke-width="1.0616" stroke-linecap="round" stroke-linejoin="round" stroke-miterlimit="10" d="
				M125.082,119.431c-0.226-0.418,0.266-1.229,0.698-1.793c0.781-1.018,2.66-1.645,3.369-0.329c0.711,1.322-0.848,2.552-2.123,2.645
				C126.314,120.004,125.309,119.852,125.082,119.431z"/>
			
				<path fill="#F9D53E" stroke="#333333" stroke-width="1.0616" stroke-linecap="round" stroke-linejoin="round" stroke-miterlimit="10" d="
				M125.803,119.973c0.287-0.465,0.145-1.072-0.318-1.36c-0.465-0.287-1.073-0.144-1.36,0.321c-0.285,0.462-0.144,1.07,0.321,1.357
				C124.908,120.578,125.518,120.435,125.803,119.973z"/>
		</g>
	</g>
</g>
<g id="calque05">
	<g>
		
			<polygon fill="#CC924C" stroke="#333333" stroke-width="1.0616" stroke-linecap="round" stroke-linejoin="round" stroke-miterlimit="10" points="
			126.729,120.63 126.037,129.882 127.613,127.333 		"/>
		
			<polygon fill="#CC924C" stroke="#333333" stroke-width="1.0616" stroke-linecap="round" stroke-linejoin="round" stroke-miterlimit="10" points="
			148.49,121.809 132.621,126.873 134.197,124.328 		"/>
		<g>
			
				<path fill="#A1C453" stroke="#333333" stroke-width="1.5923" stroke-linecap="round" stroke-linejoin="round" stroke-miterlimit="10" d="
				M139.68,137.241c-2.363-1.604-2.656-3.74-8.576-2.74c-5.92,0.997-2.578,4.622-6.473,5.278c3.895-0.656,2.166,3.948,7.865,2.988
				C138.197,141.806,137.789,139.377,139.68,137.241z"/>
			<g>
				<line fill="none" x1="124.631" y1="139.779" x2="136.293" y2="137.813"/>
				<g>
					<polyline fill="none" stroke="#333333" stroke-width="1.0616" stroke-linecap="round" stroke-miterlimit="10" points="
						125.154,139.691 125.832,139.577 133.536,138.278 134.126,138.179 					"/>
					
						<line fill="none" stroke="#333333" stroke-width="1.0616" stroke-linecap="round" stroke-miterlimit="10" x1="135.77" y1="137.901" x2="135.696" y2="137.914"/>
				</g>
			</g>
		</g>
		<g>
			
				<path fill="#A1C453" stroke="#333333" stroke-width="1.5923" stroke-linecap="round" stroke-linejoin="round" stroke-miterlimit="10" d="
				M125.096,105.454c-1.742,2.266-3.891,2.431-3.248,8.398c0.641,5.97,4.459,2.849,4.881,6.777c-0.422-3.929,4.07-1.924,3.453-7.673
				S127.115,107.47,125.096,105.454z"/>
			<g>
				<line fill="none" x1="126.729" y1="120.63" x2="125.465" y2="108.869"/>
				<g>
					<polyline fill="none" stroke="#333333" stroke-width="1.0616" stroke-linecap="round" stroke-miterlimit="10" points="
						126.672,120.103 126.599,119.418 125.764,111.648 125.699,111.055 					"/>
					
						<line fill="none" stroke="#333333" stroke-width="1.0616" stroke-linecap="round" stroke-miterlimit="10" x1="125.521" y1="109.396" x2="125.529" y2="109.471"/>
				</g>
			</g>
		</g>
		<g>
			
				<path fill="#A1C453" stroke="#333333" stroke-width="1.5923" stroke-linecap="round" stroke-linejoin="round" stroke-miterlimit="10" d="
				M160.207,109.205c-3.222,0.146-4.929-1.587-9.605,3.314c-4.676,4.899,0.793,5.92-2.285,9.144
				c3.078-3.224,4.625,2.107,9.129-2.613C161.951,114.329,159.941,112.414,160.207,109.205z"/>
			<g>
				<line fill="none" x1="148.316" y1="121.663" x2="157.533" y2="112.01"/>
				<g>
					<polyline fill="none" stroke="#333333" stroke-width="1.0616" stroke-linecap="round" stroke-miterlimit="10" points="
						148.683,121.279 149.158,120.781 155.603,114.031 156.016,113.6 					"/>
					
						<line fill="none" stroke="#333333" stroke-width="1.0616" stroke-linecap="round" stroke-miterlimit="10" x1="157.167" y1="112.394" x2="157.115" y2="112.447"/>
				</g>
			</g>
		</g>
		<g>
			
				<path fill="#A1C453" stroke="#333333" stroke-width="1.5923" stroke-linecap="round" stroke-linejoin="round" stroke-miterlimit="10" d="
				M165.35,121.694c-2.385-2.176-2.365-4.608-9.141-4.45c-6.771,0.158-3.625,4.748-8.08,4.85c4.455-0.102,1.779,4.761,8.301,4.608
				C162.955,126.55,162.891,123.774,165.35,121.694z"/>
			<g>
				<line fill="none" x1="148.129" y1="122.094" x2="161.473" y2="121.784"/>
				<g>
					<polyline fill="none" stroke="#333333" stroke-width="1.0616" stroke-linecap="round" stroke-miterlimit="10" points="
						148.659,122.081 149.347,122.065 158.678,121.849 159.275,121.835 					"/>
					
						<line fill="none" stroke="#333333" stroke-width="1.0616" stroke-linecap="round" stroke-miterlimit="10" x1="160.942" y1="121.797" x2="160.867" y2="121.798"/>
				</g>
			</g>
		</g>
		<g>
			
				<path fill="#A1C453" stroke="#333333" stroke-width="1.0616" stroke-linecap="round" stroke-linejoin="round" stroke-miterlimit="10" d="
				M142.357,96.226c-0.565,0.756-1.274,0.818-1.035,2.786c0.236,1.968,1.482,0.921,1.64,2.216c-0.156-1.295,1.336-0.651,1.106-2.547
				C143.838,96.786,143.033,96.882,142.357,96.226z"/>
			<g>
				<line fill="none" x1="142.961" y1="101.228" x2="142.494" y2="97.353"/>
				<g>
					
						<line fill="none" stroke="#333333" stroke-width="1.0616" stroke-linecap="round" stroke-miterlimit="10" x1="142.945" y1="101.099" x2="142.559" y2="97.885"/>
					
						<line fill="none" stroke="#333333" stroke-width="1.0616" stroke-linecap="round" stroke-miterlimit="10" x1="142.51" y1="97.481" x2="142.512" y2="97.499"/>
				</g>
			</g>
		</g>
		<g>
			<g>
				<path fill="#D3F46C" d="M124.471,124.729c-2.082,0.903-5.443-0.429-5.408-2.135c-1.434-1.247,0.049-4.506,2.133-5.409
					c2.084-0.904,4.587-0.777,4.994,2.465C128.197,122.036,126.553,123.824,124.471,124.729z"/>
				<g>
					<path fill="none" stroke="#333333" stroke-width="1.0616" stroke-linecap="round" stroke-miterlimit="10" d="M123.967,124.894
						c-0.223,0.059-0.448,0.093-0.678,0.109c-0.979,0.067-1.978-0.148-2.843-0.612c-0.429-0.233-0.836-0.535-1.109-0.945
						c-0.129-0.205-0.241-0.435-0.257-0.681c-0.011-0.06-0.006-0.125-0.025-0.18l-0.125-0.136c-0.092-0.084-0.151-0.191-0.21-0.3
						c-0.453-0.904-0.137-1.969,0.295-2.819c0.471-0.854,1.146-1.633,2.031-2.069c0.881-0.412,1.88-0.675,2.854-0.505
						c0.483,0.086,0.946,0.303,1.302,0.645c0.356,0.339,0.598,0.781,0.761,1.242c0.204,0.447,0.087,1.012,0.492,1.357
						c0.276,0.402,0.515,0.844,0.605,1.33c0.093,0.483,0.019,0.995-0.208,1.433l-0.183,0.312l-0.119,0.156
						c-0.074,0.108-0.167,0.202-0.258,0.297"/>
					
						<line fill="none" stroke="#333333" stroke-width="1.0616" stroke-linecap="round" stroke-miterlimit="10" x1="124.948" y1="124.498" x2="125.015" y2="124.463"/>
				</g>
			</g>
			
				<ellipse transform="matrix(0.9794 0.2019 -0.2019 0.9794 26.3958 -22.4435)" opacity="0.5" fill="#FFFFFF" enable-background="new    " cx="123.214" cy="118.168" rx="0.941" ry="0.774"/>
		</g>
		<path fill="#CC924C" stroke="#333333" stroke-width="2.6539" stroke-linecap="round" stroke-miterlimit="10" d="M109.553,155.5
			l37.02-58.787c0.585-0.943,1.82-1.234,2.765-0.651l0,0c0.94,0.583,1.231,1.822,0.649,2.765l-36.118,59.348"/>
		<g>
			
				<path fill="#A1C453" stroke="#333333" stroke-width="1.0616" stroke-linecap="round" stroke-linejoin="round" stroke-miterlimit="10" d="
				M150.736,96.742c0,0,0.513-3.084,0.451-3.719c-0.045-0.508-2.354,1.911-3.022,2.93L150.736,96.742z"/>
			
				<path fill="#A1C453" stroke="#333333" stroke-width="1.0616" stroke-linecap="round" stroke-linejoin="round" stroke-miterlimit="10" d="
				M148.771,95.229l0.847,4.733c0,0,3.096-3.648,2.95-5.646C152.568,94.316,150.383,95.098,148.771,95.229z"/>
			
				<path fill="#A1C453" stroke="#333333" stroke-width="1.0616" stroke-linecap="round" stroke-linejoin="round" stroke-miterlimit="10" d="
				M145.238,99.751c0,0,0.869-5.876,3.979-7.509l0.584,4.568L145.238,99.751z"/>
		</g>
		<g>
			
				<path fill="#FFFFFF" stroke="#333333" stroke-width="1.0616" stroke-linecap="round" stroke-linejoin="round" stroke-miterlimit="10" d="
				M149.127,122.783c0.225,0.419-0.269,1.229-0.701,1.793c-0.781,1.019-2.66,1.646-3.367,0.327c-0.711-1.32,0.849-2.549,2.125-2.643
				C147.893,122.211,148.9,122.362,149.127,122.783z"/>
			
				<path fill="#FFFFFF" stroke="#333333" stroke-width="1.0616" stroke-linecap="round" stroke-linejoin="round" stroke-miterlimit="10" d="
				M149.252,122.779c0.25-0.406,1.197-0.386,1.901-0.289c1.271,0.166,2.757,1.482,1.97,2.75c-0.789,1.276-2.631,0.542-3.353-0.517
				C149.373,124.133,148.998,123.186,149.252,122.779z"/>
			
				<path fill="#FFFFFF" stroke="#333333" stroke-width="1.0616" stroke-linecap="round" stroke-linejoin="round" stroke-miterlimit="10" d="
				M149.191,122.677c-0.477-0.014-0.93-0.845-1.203-1.503c-0.489-1.185-0.094-3.126,1.4-3.082c1.5,0.048,1.785,2.01,1.229,3.163
				C150.305,121.895,149.67,122.691,149.191,122.677z"/>
			
				<path fill="#FFFFFF" stroke="#333333" stroke-width="1.0616" stroke-linecap="round" stroke-linejoin="round" stroke-miterlimit="10" d="
				M149.033,122.688c-0.253,0.404-1.197,0.383-1.902,0.29c-1.271-0.167-2.756-1.483-1.971-2.753
				c0.791-1.276,2.635-0.542,3.354,0.519C148.912,121.332,149.285,122.279,149.033,122.688z"/>
			
				<path fill="#FFFFFF" stroke="#333333" stroke-width="1.0616" stroke-linecap="round" stroke-linejoin="round" stroke-miterlimit="10" d="
				M149.102,122.79c0.476,0.015,0.931,0.845,1.201,1.503c0.49,1.185,0.094,3.126-1.398,3.08c-1.5-0.046-1.784-2.008-1.229-3.161
				C147.988,123.572,148.623,122.775,149.102,122.79z"/>
			
				<path fill="#FFFFFF" stroke="#333333" stroke-width="1.0616" stroke-linecap="round" stroke-linejoin="round" stroke-miterlimit="10" d="
				M149.15,122.667c-0.225-0.419,0.269-1.229,0.701-1.793c0.781-1.019,2.66-1.646,3.367-0.329c0.711,1.322-0.846,2.551-2.125,2.645
				C150.385,123.239,149.377,123.088,149.15,122.667z"/>
			
				<circle fill="#F9D53E" stroke="#333333" stroke-width="1.0616" stroke-linecap="round" stroke-linejoin="round" stroke-miterlimit="10" cx="149.033" cy="122.688" r="0.988"/>
		</g>
	</g>
</g>
<g id="calque06">
	<g>
		
			<polygon fill="#CC924C" stroke="#333333" stroke-width="1.0616" stroke-linecap="round" stroke-linejoin="round" stroke-miterlimit="10" points="
			126.729,120.63 126.037,129.882 127.613,127.333 		"/>
		
			<polygon fill="#CC924C" stroke="#333333" stroke-width="1.0616" stroke-linecap="round" stroke-linejoin="round" stroke-miterlimit="10" points="
			141.49,95.649 142.521,103.254 144.098,100.707 		"/>
		
			<polygon fill="#CC924C" stroke="#333333" stroke-width="1.0616" stroke-linecap="round" stroke-linejoin="round" stroke-miterlimit="10" points="
			148.49,121.809 132.621,126.873 134.197,124.328 		"/>
		<g>
			
				<path fill="#A1C453" stroke="#333333" stroke-width="1.5923" stroke-linecap="round" stroke-linejoin="round" stroke-miterlimit="10" d="
				M139.68,137.241c-2.363-1.604-2.656-3.74-8.576-2.74c-5.92,0.997-2.578,4.622-6.473,5.278c3.895-0.656,2.166,3.948,7.865,2.988
				C138.197,141.806,137.789,139.377,139.68,137.241z"/>
			<g>
				<line fill="none" x1="124.631" y1="139.779" x2="136.293" y2="137.813"/>
				<g>
					<polyline fill="none" stroke="#333333" stroke-width="1.0616" stroke-linecap="round" stroke-miterlimit="10" points="
						125.154,139.691 125.832,139.577 133.536,138.278 134.126,138.179 					"/>
					
						<line fill="none" stroke="#333333" stroke-width="1.0616" stroke-linecap="round" stroke-miterlimit="10" x1="135.77" y1="137.901" x2="135.696" y2="137.914"/>
				</g>
			</g>
		</g>
		<g>
			
				<path fill="#A1C453" stroke="#333333" stroke-width="1.5923" stroke-linecap="round" stroke-linejoin="round" stroke-miterlimit="10" d="
				M125.096,105.454c-1.742,2.266-3.891,2.431-3.248,8.398c0.641,5.97,4.459,2.851,4.881,6.777c-0.422-3.927,4.07-1.924,3.453-7.673
				S127.115,107.47,125.096,105.454z"/>
			<g>
				<line fill="none" x1="126.729" y1="120.63" x2="125.465" y2="108.869"/>
				<g>
					<polyline fill="none" stroke="#333333" stroke-width="1.0616" stroke-linecap="round" stroke-miterlimit="10" points="
						126.672,120.103 126.599,119.418 125.764,111.648 125.699,111.055 					"/>
					
						<line fill="none" stroke="#333333" stroke-width="1.0616" stroke-linecap="round" stroke-miterlimit="10" x1="125.521" y1="109.396" x2="125.529" y2="109.471"/>
				</g>
			</g>
		</g>
		<g>
			
				<path fill="#A1C453" stroke="#333333" stroke-width="1.5923" stroke-linecap="round" stroke-linejoin="round" stroke-miterlimit="10" d="
				M160.207,109.205c-3.222,0.146-4.929-1.587-9.605,3.314c-4.676,4.899,0.793,5.92-2.285,9.144
				c3.078-3.224,4.625,2.107,9.129-2.613C161.951,114.329,159.941,112.414,160.207,109.205z"/>
			<g>
				<line fill="none" x1="148.316" y1="121.663" x2="157.533" y2="112.01"/>
				<g>
					<polyline fill="none" stroke="#333333" stroke-width="1.0616" stroke-linecap="round" stroke-miterlimit="10" points="
						148.683,121.279 149.158,120.781 155.603,114.031 156.016,113.6 					"/>
					
						<line fill="none" stroke="#333333" stroke-width="1.0616" stroke-linecap="round" stroke-miterlimit="10" x1="157.167" y1="112.394" x2="157.115" y2="112.447"/>
				</g>
			</g>
		</g>
		<g>
			
				<path fill="#A1C453" stroke="#333333" stroke-width="1.5923" stroke-linecap="round" stroke-linejoin="round" stroke-miterlimit="10" d="
				M165.35,121.694c-2.385-2.174-2.365-4.608-9.141-4.45c-6.771,0.158-3.625,4.748-8.08,4.85c4.455-0.102,1.779,4.761,8.301,4.608
				C162.955,126.55,162.891,123.774,165.35,121.694z"/>
			<g>
				<line fill="none" x1="148.129" y1="122.094" x2="161.473" y2="121.784"/>
				<g>
					<polyline fill="none" stroke="#333333" stroke-width="1.0616" stroke-linecap="round" stroke-miterlimit="10" points="
						148.659,122.081 149.347,122.065 158.678,121.849 159.275,121.835 					"/>
					
						<line fill="none" stroke="#333333" stroke-width="1.0616" stroke-linecap="round" stroke-miterlimit="10" x1="160.942" y1="121.797" x2="160.867" y2="121.798"/>
				</g>
			</g>
		</g>
		<g>
			
				<path fill="#A1C453" stroke="#333333" stroke-width="1.0616" stroke-linecap="round" stroke-linejoin="round" stroke-miterlimit="10" d="
				M157.156,95.056c-0.969-0.421-1.223-1.177-3.309-0.406c-2.082,0.771-0.617,1.857-1.988,2.363c1.371-0.506,1.06,1.287,3.066,0.546
				C156.932,96.817,156.615,95.961,157.156,95.056z"/>
			<g>
				<line fill="none" x1="151.859" y1="97.013" x2="155.965" y2="95.497"/>
				<g>
					<polyline fill="none" stroke="#333333" stroke-width="1.0616" stroke-linecap="round" stroke-miterlimit="10" points="
						152.357,96.829 153.003,96.591 153.343,96.465 153.903,96.258 					"/>
					
						<line fill="none" stroke="#333333" stroke-width="1.0616" stroke-linecap="round" stroke-miterlimit="10" x1="155.467" y1="95.681" x2="155.396" y2="95.707"/>
				</g>
			</g>
		</g>
		<g>
			
				<path fill="#A1C453" stroke="#333333" stroke-width="1.0616" stroke-linecap="round" stroke-linejoin="round" stroke-miterlimit="10" d="
				M135.746,96.163c0.907,0.537,1.065,1.32,3.229,0.816c2.162-0.502,0.846-1.766,2.271-2.097c-1.425,0.331-0.89-1.407-2.974-0.925
				C136.191,94.443,136.396,95.33,135.746,96.163z"/>
			<g>
				<line fill="none" x1="141.246" y1="94.883" x2="136.984" y2="95.874"/>
				<g>
					<polyline fill="none" stroke="#333333" stroke-width="1.0616" stroke-linecap="round" stroke-miterlimit="10" points="
						140.729,95.003 140.06,95.159 139.707,95.241 139.125,95.376 					"/>
					
						<line fill="none" stroke="#333333" stroke-width="1.0616" stroke-linecap="round" stroke-miterlimit="10" x1="137.501" y1="95.754" x2="137.574" y2="95.737"/>
				</g>
			</g>
		</g>
		<g>
			
				<path fill="#A1C453" stroke="#333333" stroke-width="1.5923" stroke-linecap="round" stroke-linejoin="round" stroke-miterlimit="10" d="
				M139.426,78.549c-1.934,2.582-4.355,2.799-3.543,9.524c0.813,6.727,5.074,3.148,5.606,7.576
				c-0.532-4.428,4.566-2.234,3.783-8.711C144.49,80.461,141.734,80.794,139.426,78.549z"/>
			<g>
				<line fill="none" x1="141.49" y1="95.649" x2="139.891" y2="82.397"/>
				<g>
					<polyline fill="none" stroke="#333333" stroke-width="1.0616" stroke-linecap="round" stroke-miterlimit="10" points="
						141.427,95.122 141.344,94.439 140.226,85.173 140.154,84.579 					"/>
					
						<line fill="none" stroke="#333333" stroke-width="1.0616" stroke-linecap="round" stroke-miterlimit="10" x1="139.954" y1="82.925" x2="139.963" y2="82.998"/>
				</g>
			</g>
		</g>
		<g>
			<g>
				<path fill="#D3F46C" d="M122.633,128.048c-3.416,1.482-8.92-0.702-8.867-3.499c-2.348-2.045,0.084-7.384,3.498-8.866
					s7.516-1.274,8.185,4.042C128.736,123.635,126.047,126.567,122.633,128.048z"/>
				<g>
					<path fill="none" stroke="#333333" stroke-width="1.5923" stroke-linecap="round" stroke-miterlimit="10" d="M121.88,128.304
						c-0.336,0.075-0.671,0.156-1.015,0.177c-1.629,0.161-3.291-0.197-4.743-0.938c-0.72-0.377-1.404-0.869-1.873-1.544
						c-0.219-0.342-0.41-0.716-0.45-1.125l-0.031-0.305c-0.047-0.085-0.132-0.153-0.195-0.23c-0.15-0.142-0.263-0.312-0.354-0.495
						c-0.396-0.721-0.438-1.583-0.308-2.383c0.131-0.807,0.424-1.58,0.805-2.302c0.787-1.418,1.928-2.703,3.413-3.406
						c1.477-0.66,3.148-1.073,4.763-0.732c0.798,0.174,1.547,0.581,2.105,1.179c0.572,0.59,0.926,1.355,1.154,2.134
						c0.133,0.389,0.193,0.793,0.264,1.195c-0.005,0.219,0.172,0.358,0.283,0.526c0.118,0.166,0.259,0.317,0.359,0.495
						c0.451,0.68,0.774,1.456,0.854,2.269c0.083,0.814-0.135,1.644-0.563,2.337c-0.088,0.179-0.24,0.345-0.344,0.491
						c-0.061,0.078-0.115,0.158-0.188,0.228c-0.138,0.14-0.266,0.29-0.409,0.423"/>
					
						<line fill="none" stroke="#333333" stroke-width="1.5923" stroke-linecap="round" stroke-miterlimit="10" x1="123.352" y1="127.705" x2="123.45" y2="127.652"/>
				</g>
			</g>
			
				<ellipse transform="matrix(0.9794 0.2017 -0.2017 0.9794 26.1409 -21.9133)" opacity="0.5" fill="#FFFFFF" enable-background="new    " cx="120.574" cy="117.287" rx="1.543" ry="1.268"/>
		</g>
		<path fill="#CC924C" stroke="#333333" stroke-width="2.6539" stroke-linecap="round" stroke-miterlimit="10" d="M109.553,155.5
			l40.828-64.94c0.584-0.943,1.82-1.232,2.764-0.649l0,0c0.941,0.583,1.232,1.82,0.65,2.764l-39.928,65.5"/>
		<g>
			
				<path fill="#A1C453" stroke="#333333" stroke-width="1.0616" stroke-linecap="round" stroke-linejoin="round" stroke-miterlimit="10" d="
				M154.547,90.589c0,0,0.512-3.084,0.451-3.719c-0.047-0.508-2.354,1.911-3.025,2.93L154.547,90.589z"/>
			
				<path fill="#A1C453" stroke="#333333" stroke-width="1.0616" stroke-linecap="round" stroke-linejoin="round" stroke-miterlimit="10" d="
				M152.58,89.075l0.848,4.733c0,0,3.094-3.648,2.949-5.644C156.377,88.165,154.191,88.944,152.58,89.075z"/>
			
				<path fill="#A1C453" stroke="#333333" stroke-width="1.0616" stroke-linecap="round" stroke-linejoin="round" stroke-miterlimit="10" d="
				M149.047,93.598c0,0,0.871-5.876,3.979-7.507l0.584,4.567L149.047,93.598z"/>
		</g>
		<g>
			<g>
				<path fill="#D3F46C" d="M151.242,125.751c-0.748,2.145-4.007,3.71-5.238,2.529c-1.887,0.209-3.275-3.092-2.529-5.234
					c0.748-2.146,2.539-3.9,5.197-2.001C151.787,121.187,151.988,123.605,151.242,125.751z"/>
				<g>
					<path fill="none" stroke="#333333" stroke-width="1.0616" stroke-linecap="round" stroke-miterlimit="10" d="M151.022,126.233
						c-0.107,0.203-0.235,0.393-0.379,0.572c-0.615,0.766-1.45,1.353-2.378,1.674c-0.462,0.157-0.959,0.252-1.447,0.177
						c-0.237-0.045-0.481-0.117-0.675-0.271c-0.05-0.034-0.097-0.079-0.148-0.104h-0.186c-0.124,0.01-0.243-0.019-0.362-0.049
						c-0.973-0.279-1.539-1.234-1.871-2.128c-0.309-0.926-0.426-1.949-0.146-2.896c0.294-0.928,0.778-1.84,1.564-2.442
						c0.391-0.297,0.863-0.49,1.354-0.52c0.491-0.033,0.979,0.091,1.429,0.283c0.469,0.153,0.804,0.622,1.331,0.559
						c0.484,0.068,0.971,0.193,1.39,0.456c0.419,0.26,0.744,0.661,0.913,1.123l0.104,0.346l0.034,0.193
						c0.029,0.129,0.035,0.26,0.044,0.391"/>
					
						<line fill="none" stroke="#333333" stroke-width="1.0616" stroke-linecap="round" stroke-miterlimit="10" x1="151.396" y1="125.243" x2="151.415" y2="125.171"/>
				</g>
			</g>
			
				<ellipse transform="matrix(0.8133 -0.5819 0.5819 0.8133 -43.9403 107.5306)" opacity="0.5" fill="#FFFFFF" enable-background="new    " cx="145.568" cy="122.226" rx="0.94" ry="0.773"/>
		</g>
	</g>
</g>
<g id="calque07">
	<g>
		
			<polygon fill="#CC924C" stroke="#333333" stroke-width="1.0616" stroke-linecap="round" stroke-linejoin="round" stroke-miterlimit="10" points="
			126.729,120.63 126.037,129.882 127.613,127.333 		"/>
		
			<polygon fill="#CC924C" stroke="#333333" stroke-width="1.0616" stroke-linecap="round" stroke-linejoin="round" stroke-miterlimit="10" points="
			141.49,95.649 142.521,103.254 144.098,100.707 		"/>
		
			<polygon fill="#CC924C" stroke="#333333" stroke-width="1.0616" stroke-linecap="round" stroke-linejoin="round" stroke-miterlimit="10" points="
			148.49,121.809 132.621,126.873 134.197,124.328 		"/>
		
			<polygon fill="#CC924C" stroke="#333333" stroke-width="1.0616" stroke-linecap="round" stroke-linejoin="round" stroke-miterlimit="10" points="
			158.402,95.105 150.455,98.066 151.473,96.422 		"/>
		<g>
			
				<path fill="#A1C453" stroke="#333333" stroke-width="1.5923" stroke-linecap="round" stroke-linejoin="round" stroke-miterlimit="10" d="
				M139.68,137.241c-2.363-1.604-2.656-3.74-8.576-2.74c-5.92,0.997-2.578,4.622-6.473,5.278c3.895-0.656,2.166,3.948,7.865,2.988
				C138.197,141.806,137.789,139.377,139.68,137.241z"/>
			<g>
				<line fill="none" x1="124.631" y1="139.779" x2="136.293" y2="137.813"/>
				<g>
					<polyline fill="none" stroke="#333333" stroke-width="1.0616" stroke-linecap="round" stroke-miterlimit="10" points="
						125.154,139.691 125.832,139.577 133.536,138.278 134.126,138.179 					"/>
					
						<line fill="none" stroke="#333333" stroke-width="1.0616" stroke-linecap="round" stroke-miterlimit="10" x1="135.77" y1="137.901" x2="135.696" y2="137.914"/>
				</g>
			</g>
		</g>
		<g>
			
				<path fill="#A1C453" stroke="#333333" stroke-width="1.5923" stroke-linecap="round" stroke-linejoin="round" stroke-miterlimit="10" d="
				M125.096,105.454c-1.742,2.266-3.891,2.431-3.248,8.398c0.641,5.97,4.459,2.851,4.881,6.777c-0.422-3.927,4.07-1.924,3.453-7.673
				S127.115,107.47,125.096,105.454z"/>
			<g>
				<line fill="none" x1="126.729" y1="120.63" x2="125.465" y2="108.869"/>
				<g>
					<polyline fill="none" stroke="#333333" stroke-width="1.0616" stroke-linecap="round" stroke-miterlimit="10" points="
						126.672,120.103 126.599,119.418 125.764,111.648 125.699,111.055 					"/>
					
						<line fill="none" stroke="#333333" stroke-width="1.0616" stroke-linecap="round" stroke-miterlimit="10" x1="125.521" y1="109.396" x2="125.529" y2="109.471"/>
				</g>
			</g>
		</g>
		<g>
			
				<path fill="#A1C453" stroke="#333333" stroke-width="1.5923" stroke-linecap="round" stroke-linejoin="round" stroke-miterlimit="10" d="
				M160.207,109.205c-3.222,0.146-4.929-1.587-9.605,3.314c-4.676,4.899,0.793,5.92-2.285,9.144
				c3.078-3.224,4.625,2.107,9.129-2.613C161.951,114.329,159.941,112.414,160.207,109.205z"/>
			<g>
				<line fill="none" x1="148.316" y1="121.663" x2="157.533" y2="112.01"/>
				<g>
					<polyline fill="none" stroke="#333333" stroke-width="1.0616" stroke-linecap="round" stroke-miterlimit="10" points="
						148.683,121.279 149.158,120.781 155.603,114.031 156.016,113.6 					"/>
					
						<line fill="none" stroke="#333333" stroke-width="1.0616" stroke-linecap="round" stroke-miterlimit="10" x1="157.167" y1="112.394" x2="157.115" y2="112.447"/>
				</g>
			</g>
		</g>
		<g>
			
				<path fill="#A1C453" stroke="#333333" stroke-width="1.5923" stroke-linecap="round" stroke-linejoin="round" stroke-miterlimit="10" d="
				M165.35,121.694c-2.385-2.174-2.365-4.608-9.141-4.45c-6.771,0.158-3.625,4.748-8.08,4.85c4.455-0.102,1.779,4.761,8.301,4.608
				C162.955,126.55,162.891,123.774,165.35,121.694z"/>
			<g>
				<line fill="none" x1="148.129" y1="122.094" x2="161.473" y2="121.784"/>
				<g>
					<polyline fill="none" stroke="#333333" stroke-width="1.0616" stroke-linecap="round" stroke-miterlimit="10" points="
						148.659,122.081 149.347,122.065 158.678,121.849 159.275,121.835 					"/>
					
						<line fill="none" stroke="#333333" stroke-width="1.0616" stroke-linecap="round" stroke-miterlimit="10" x1="160.942" y1="121.797" x2="160.867" y2="121.798"/>
				</g>
			</g>
		</g>
		<g>
			
				<path fill="#A1C453" stroke="#333333" stroke-width="1.5923" stroke-linecap="round" stroke-linejoin="round" stroke-miterlimit="10" d="
				M170.258,90.672c-2.35-1.016-2.963-2.846-8.004-0.982c-5.041,1.864-1.498,4.496-4.816,5.72c3.318-1.224,2.563,3.113,7.42,1.318
				C169.711,94.933,168.947,92.867,170.258,90.672z"/>
			<g>
				<line fill="none" x1="157.438" y1="95.409" x2="167.371" y2="91.738"/>
				<g>
					<polyline fill="none" stroke="#333333" stroke-width="1.0616" stroke-linecap="round" stroke-miterlimit="10" points="
						157.936,95.226 158.58,94.986 164.749,92.707 165.31,92.5 					"/>
					
						<line fill="none" stroke="#333333" stroke-width="1.0616" stroke-linecap="round" stroke-miterlimit="10" x1="166.873" y1="91.922" x2="166.803" y2="91.948"/>
				</g>
			</g>
		</g>
		<g>
			
				<path fill="#A1C453" stroke="#333333" stroke-width="0.8493" stroke-linecap="round" stroke-linejoin="round" stroke-miterlimit="10" d="
				M163.855,98.096c-0.432-1.096-0.037-1.891-2.283-2.924c-2.247-1.034-1.95,0.975-3.432,0.296c1.48,0.679-0.178,1.845,1.986,2.843
				C162.293,99.306,162.717,98.385,163.855,98.096z"/>
			<g>
				<line fill="none" x1="158.141" y1="95.468" x2="162.57" y2="97.504"/>
				<g>
					<polyline fill="none" stroke="#333333" stroke-width="1.0616" stroke-linecap="round" stroke-miterlimit="10" points="
						158.623,95.689 159.248,95.977 160.03,96.336 160.573,96.586 					"/>
					
						<line fill="none" stroke="#333333" stroke-width="1.0616" stroke-linecap="round" stroke-miterlimit="10" x1="162.088" y1="97.282" x2="162.021" y2="97.251"/>
				</g>
			</g>
		</g>
		<g>
			
				<path fill="#A1C453" stroke="#333333" stroke-width="1.0616" stroke-linecap="round" stroke-linejoin="round" stroke-miterlimit="10" d="
				M135.646,91.286c0.185,1.291-0.444,2.043,1.709,3.734c2.154,1.688,2.351-0.55,3.767,0.56c-1.416-1.109,0.668-1.94-1.406-3.566
				C137.641,90.385,136.947,91.268,135.646,91.286z"/>
			<g>
				<line fill="none" x1="141.121" y1="95.58" x2="136.877" y2="92.253"/>
				<g>
					<polyline fill="none" stroke="#333333" stroke-width="0.8493" stroke-linecap="round" stroke-miterlimit="10" points="
						140.787,95.318 140.354,94.979 138.637,93.633 138.261,93.338 					"/>
					
						<line fill="none" stroke="#333333" stroke-width="0.8493" stroke-linecap="round" stroke-miterlimit="10" x1="137.211" y1="92.515" x2="137.258" y2="92.552"/>
				</g>
			</g>
		</g>
		<g>
			
				<path fill="#A1C453" stroke="#333333" stroke-width="1.5923" stroke-linecap="round" stroke-linejoin="round" stroke-miterlimit="10" d="
				M139.426,78.549c-1.934,2.582-4.355,2.799-3.543,9.524c0.813,6.727,5.074,3.148,5.606,7.576
				c-0.532-4.428,4.566-2.234,3.783-8.711C144.49,80.461,141.734,80.794,139.426,78.549z"/>
			<g>
				<line fill="none" x1="141.49" y1="95.649" x2="139.891" y2="82.397"/>
				<g>
					<polyline fill="none" stroke="#333333" stroke-width="1.0616" stroke-linecap="round" stroke-miterlimit="10" points="
						141.427,95.122 141.344,94.439 140.226,85.173 140.154,84.579 					"/>
					
						<line fill="none" stroke="#333333" stroke-width="1.0616" stroke-linecap="round" stroke-miterlimit="10" x1="139.954" y1="82.925" x2="139.963" y2="82.998"/>
				</g>
			</g>
		</g>
		<g>
			
				<path fill="#A1C453" stroke="#333333" stroke-width="1.5923" stroke-linecap="round" stroke-linejoin="round" stroke-miterlimit="10" d="
				M127.725,96.484c1.885,1.694,1.887,3.606,7.203,3.439c5.32-0.164,2.82-3.75,6.32-3.858c-3.5,0.108-1.427-3.729-6.549-3.569
				C129.574,92.654,129.643,94.837,127.725,96.484z"/>
			<g>
				<line fill="none" x1="141.248" y1="96.065" x2="130.768" y2="96.391"/>
				<g>
					<polyline fill="none" stroke="#333333" stroke-width="1.0616" stroke-linecap="round" stroke-miterlimit="10" points="
						140.718,96.082 140.03,96.104 133.562,96.304 132.964,96.322 					"/>
					
						<line fill="none" stroke="#333333" stroke-width="1.0616" stroke-linecap="round" stroke-miterlimit="10" x1="131.298" y1="96.374" x2="131.373" y2="96.372"/>
				</g>
			</g>
		</g>
		<g>
			<g>
				<path fill="#EF4529" d="M122.633,128.048c-3.416,1.482-8.92-0.702-8.867-3.499c-2.348-2.045,0.084-7.384,3.498-8.866
					s7.516-1.274,8.185,4.042C128.736,123.635,126.047,126.567,122.633,128.048z"/>
				<g>
					<path fill="none" stroke="#333333" stroke-width="1.5923" stroke-linecap="round" stroke-miterlimit="10" d="M121.88,128.304
						c-0.336,0.075-0.671,0.156-1.015,0.177c-1.629,0.161-3.291-0.197-4.743-0.938c-0.72-0.377-1.404-0.869-1.873-1.544
						c-0.219-0.342-0.41-0.716-0.45-1.125l-0.031-0.305c-0.047-0.085-0.132-0.153-0.195-0.23c-0.15-0.142-0.263-0.312-0.354-0.495
						c-0.396-0.721-0.438-1.583-0.308-2.383c0.131-0.807,0.424-1.58,0.805-2.302c0.787-1.418,1.928-2.703,3.413-3.406
						c1.477-0.66,3.148-1.073,4.763-0.732c0.798,0.174,1.547,0.581,2.105,1.179c0.572,0.59,0.926,1.355,1.154,2.134
						c0.133,0.389,0.193,0.793,0.264,1.195c-0.005,0.219,0.172,0.358,0.283,0.526c0.118,0.166,0.259,0.317,0.359,0.495
						c0.451,0.68,0.774,1.456,0.854,2.269c0.083,0.814-0.135,1.644-0.563,2.337c-0.088,0.179-0.24,0.345-0.344,0.491
						c-0.061,0.078-0.115,0.158-0.188,0.228c-0.138,0.14-0.266,0.29-0.409,0.423"/>
					
						<line fill="none" stroke="#333333" stroke-width="1.5923" stroke-linecap="round" stroke-miterlimit="10" x1="123.352" y1="127.705" x2="123.45" y2="127.652"/>
				</g>
			</g>
			
				<ellipse transform="matrix(0.9794 0.2017 -0.2017 0.9794 26.1409 -21.9133)" opacity="0.5" fill="#FFFFFF" enable-background="new    " cx="120.574" cy="117.287" rx="1.543" ry="1.268"/>
		</g>
		<g>
			<g>
				<path fill="#D3F46C" d="M153.42,129.405c-1.078,3.563-6.31,6.347-8.404,4.498c-3.076,0.466-5.576-4.842-4.496-8.406
					c1.078-3.562,3.892-6.554,8.375-3.624C154.004,121.895,154.5,125.843,153.42,129.405z"/>
				<g>
					<path fill="none" stroke="#333333" stroke-width="1.5923" stroke-linecap="round" stroke-miterlimit="10" d="M153.128,130.146
						c-0.159,0.305-0.315,0.611-0.521,0.888c-0.931,1.346-2.279,2.381-3.783,3.009c-0.755,0.304-1.572,0.509-2.391,0.431
						c-0.401-0.056-0.812-0.151-1.147-0.386l-0.253-0.173c-0.097-0.019-0.202,0.001-0.304,0c-0.206,0.024-0.407-0.002-0.606-0.05
						c-0.807-0.164-1.489-0.692-2.016-1.308c-0.529-0.622-0.931-1.347-1.232-2.104c-0.573-1.518-0.814-3.219-0.39-4.807
						c0.451-1.553,1.22-3.096,2.522-4.105c0.647-0.496,1.443-0.803,2.261-0.843c0.82-0.055,1.633,0.172,2.375,0.501
						c0.381,0.15,0.729,0.366,1.081,0.573c0.163,0.146,0.385,0.1,0.585,0.123c0.203,0.017,0.409,0.009,0.61,0.047
						c0.81,0.095,1.609,0.352,2.282,0.816c0.675,0.463,1.167,1.165,1.416,1.941c0.079,0.184,0.107,0.406,0.151,0.58
						c0.021,0.096,0.046,0.191,0.052,0.289c0.02,0.196,0.051,0.391,0.059,0.587"/>
					
						<line fill="none" stroke="#333333" stroke-width="1.5923" stroke-linecap="round" stroke-miterlimit="10" x1="153.624" y1="128.636" x2="153.646" y2="128.526"/>
				</g>
			</g>
			
				<ellipse transform="matrix(0.7875 -0.6163 0.6163 0.7875 -45.8606 115.0335)" opacity="0.5" fill="#FFFFFF" enable-background="new    " cx="143.878" cy="124.018" rx="1.542" ry="1.269"/>
		</g>
		<path fill="#CC924C" stroke="#333333" stroke-width="2.6539" stroke-linecap="round" stroke-miterlimit="10" d="M109.553,155.5
			l46.543-74.171c0.582-0.941,1.82-1.232,2.764-0.649l0,0c0.941,0.583,1.232,1.821,0.648,2.763l-45.641,74.731"/>
		<g>
			
				<path fill="#A1C453" stroke="#333333" stroke-width="1.0616" stroke-linecap="round" stroke-linejoin="round" stroke-miterlimit="10" d="
				M160.26,81.358c0,0,0.512-3.082,0.451-3.717c-0.045-0.509-2.354,1.911-3.025,2.93L160.26,81.358z"/>
			
				<path fill="#A1C453" stroke="#333333" stroke-width="1.0616" stroke-linecap="round" stroke-linejoin="round" stroke-miterlimit="10" d="
				M158.295,79.847l0.848,4.732c0,0,3.094-3.647,2.949-5.645C162.092,78.935,159.906,79.713,158.295,79.847z"/>
			
				<path fill="#A1C453" stroke="#333333" stroke-width="1.0616" stroke-linecap="round" stroke-linejoin="round" stroke-miterlimit="10" d="
				M154.762,84.369c0,0,0.869-5.876,3.979-7.509l0.584,4.568L154.762,84.369z"/>
		</g>
	</g>
</g>
<g id="calque08">
	<g>
		
			<polygon fill="#CC924C" stroke="#333333" stroke-width="1.0616" stroke-linecap="round" stroke-linejoin="round" stroke-miterlimit="10" points="
			126.729,120.63 126.037,129.882 127.613,127.333 		"/>
		
			<polygon fill="#CC924C" stroke="#333333" stroke-width="1.0616" stroke-linecap="round" stroke-linejoin="round" stroke-miterlimit="10" points="
			141.49,95.649 142.521,103.254 144.098,100.707 		"/>
		
			<polygon fill="#CC924C" stroke="#333333" stroke-width="1.0616" stroke-linecap="round" stroke-linejoin="round" stroke-miterlimit="10" points="
			148.49,121.809 132.621,126.873 134.197,124.328 		"/>
		
			<polygon fill="#CC924C" stroke="#333333" stroke-width="1.0616" stroke-linecap="round" stroke-linejoin="round" stroke-miterlimit="10" points="
			158.402,95.105 150.455,98.066 151.473,96.422 		"/>
		<g>
			
				<path fill="#A1C453" stroke="#333333" stroke-width="1.5923" stroke-linecap="round" stroke-linejoin="round" stroke-miterlimit="10" d="
				M139.68,137.241c-2.363-1.604-2.656-3.74-8.576-2.74c-5.92,0.997-2.578,4.622-6.473,5.278c3.895-0.656,2.166,3.948,7.865,2.988
				C138.197,141.806,137.789,139.377,139.68,137.241z"/>
			<g>
				<line fill="none" x1="124.631" y1="139.779" x2="136.293" y2="137.813"/>
				<g>
					<polyline fill="none" stroke="#333333" stroke-width="1.0616" stroke-linecap="round" stroke-miterlimit="10" points="
						125.154,139.691 125.832,139.577 133.536,138.278 134.126,138.179 					"/>
					
						<line fill="none" stroke="#333333" stroke-width="1.0616" stroke-linecap="round" stroke-miterlimit="10" x1="135.77" y1="137.901" x2="135.696" y2="137.914"/>
				</g>
			</g>
		</g>
		<g>
			
				<path fill="#A1C453" stroke="#333333" stroke-width="1.5923" stroke-linecap="round" stroke-linejoin="round" stroke-miterlimit="10" d="
				M125.096,105.454c-1.742,2.266-3.891,2.431-3.248,8.398c0.641,5.97,4.459,2.849,4.881,6.777c-0.422-3.929,4.07-1.924,3.453-7.673
				S127.115,107.47,125.096,105.454z"/>
			<g>
				<line fill="none" x1="126.729" y1="120.63" x2="125.465" y2="108.869"/>
				<g>
					<polyline fill="none" stroke="#333333" stroke-width="1.0616" stroke-linecap="round" stroke-miterlimit="10" points="
						126.672,120.103 126.599,119.418 125.764,111.648 125.699,111.055 					"/>
					
						<line fill="none" stroke="#333333" stroke-width="1.0616" stroke-linecap="round" stroke-miterlimit="10" x1="125.521" y1="109.396" x2="125.529" y2="109.471"/>
				</g>
			</g>
		</g>
		<g>
			
				<path fill="#A1C453" stroke="#333333" stroke-width="1.5923" stroke-linecap="round" stroke-linejoin="round" stroke-miterlimit="10" d="
				M160.207,109.205c-3.222,0.146-4.929-1.587-9.605,3.314c-4.676,4.899,0.793,5.92-2.285,9.144
				c3.078-3.224,4.625,2.107,9.129-2.613C161.951,114.329,159.941,112.414,160.207,109.205z"/>
			<g>
				<line fill="none" x1="148.316" y1="121.663" x2="157.533" y2="112.01"/>
				<g>
					<polyline fill="none" stroke="#333333" stroke-width="1.0616" stroke-linecap="round" stroke-miterlimit="10" points="
						148.683,121.279 149.158,120.781 155.603,114.031 156.016,113.6 					"/>
					
						<line fill="none" stroke="#333333" stroke-width="1.0616" stroke-linecap="round" stroke-miterlimit="10" x1="157.167" y1="112.394" x2="157.115" y2="112.447"/>
				</g>
			</g>
		</g>
		<g>
			
				<path fill="#A1C453" stroke="#333333" stroke-width="1.5923" stroke-linecap="round" stroke-linejoin="round" stroke-miterlimit="10" d="
				M165.35,121.694c-2.385-2.176-2.365-4.608-9.141-4.45c-6.771,0.158-3.625,4.748-8.08,4.85c4.455-0.102,1.779,4.761,8.301,4.608
				C162.955,126.55,162.891,123.774,165.35,121.694z"/>
			<g>
				<line fill="none" x1="148.129" y1="122.094" x2="161.473" y2="121.784"/>
				<g>
					<polyline fill="none" stroke="#333333" stroke-width="1.0616" stroke-linecap="round" stroke-miterlimit="10" points="
						148.659,122.081 149.347,122.065 158.678,121.849 159.275,121.835 					"/>
					
						<line fill="none" stroke="#333333" stroke-width="1.0616" stroke-linecap="round" stroke-miterlimit="10" x1="160.942" y1="121.797" x2="160.867" y2="121.798"/>
				</g>
			</g>
		</g>
		<g>
			
				<path fill="#A1C453" stroke="#333333" stroke-width="1.5923" stroke-linecap="round" stroke-linejoin="round" stroke-miterlimit="10" d="
				M170.379,90.708c-2.349-1.017-2.961-2.847-8.002-0.983c-5.043,1.864-1.498,4.496-4.816,5.721c3.318-1.225,2.563,3.11,7.418,1.317
				C169.834,94.968,169.07,92.9,170.379,90.708z"/>
			<g>
				<line fill="none" x1="157.561" y1="95.445" x2="167.494" y2="91.773"/>
				<g>
					<polyline fill="none" stroke="#333333" stroke-width="1.0616" stroke-linecap="round" stroke-miterlimit="10" points="
						158.059,95.262 158.703,95.022 164.872,92.742 165.433,92.535 					"/>
					
						<line fill="none" stroke="#333333" stroke-width="1.0616" stroke-linecap="round" stroke-miterlimit="10" x1="166.996" y1="91.957" x2="166.926" y2="91.983"/>
				</g>
			</g>
		</g>
		<g>
			
				<path fill="#A1C453" stroke="#333333" stroke-width="1.5923" stroke-linecap="round" stroke-linejoin="round" stroke-miterlimit="10" d="
				M170.27,101.332c-0.938-2.378-0.078-4.104-4.961-6.352c-4.885-2.247-4.24,2.12-7.451,0.642c3.211,1.479-0.391,4.013,4.313,6.176
				C166.873,103.959,167.795,101.958,170.27,101.332z"/>
			<g>
				<line fill="none" x1="157.857" y1="95.622" x2="167.477" y2="100.047"/>
				<g>
					<polyline fill="none" stroke="#333333" stroke-width="1.0616" stroke-linecap="round" stroke-miterlimit="10" points="
						158.34,95.844 158.965,96.131 164.938,98.879 165.479,99.129 					"/>
					
						<line fill="none" stroke="#333333" stroke-width="1.0616" stroke-linecap="round" stroke-miterlimit="10" x1="166.994" y1="99.825" x2="166.927" y2="99.794"/>
				</g>
			</g>
		</g>
		<g>
			
				<path fill="#A1C453" stroke="#333333" stroke-width="1.5923" stroke-linecap="round" stroke-linejoin="round" stroke-miterlimit="10" d="
				M127.492,84.871c0.459,3.192-1.103,5.06,4.229,9.241c5.332,4.182,5.814-1.362,9.322,1.389c-3.508-2.751,1.649-4.806-3.482-8.833
				C132.426,82.641,130.713,84.827,127.492,84.871z"/>
			<g>
				<line fill="none" x1="141.043" y1="95.501" x2="130.541" y2="87.264"/>
				<g>
					<polyline fill="none" stroke="#333333" stroke-width="1.0616" stroke-linecap="round" stroke-miterlimit="10" points="
						140.625,95.174 140.084,94.749 132.74,88.989 132.271,88.62 					"/>
					
						<line fill="none" stroke="#333333" stroke-width="1.0616" stroke-linecap="round" stroke-miterlimit="10" x1="130.959" y1="87.591" x2="131.018" y2="87.638"/>
				</g>
			</g>
		</g>
		<g>
			
				<path fill="#A1C453" stroke="#333333" stroke-width="1.5923" stroke-linecap="round" stroke-linejoin="round" stroke-miterlimit="10" d="
				M139.426,78.549c-1.934,2.58-4.355,2.799-3.543,9.524c0.813,6.727,5.074,3.148,5.606,7.576c-0.532-4.428,4.566-2.234,3.783-8.711
				C144.49,80.461,141.734,80.794,139.426,78.549z"/>
			<g>
				<line fill="none" x1="141.49" y1="95.649" x2="139.891" y2="82.397"/>
				<g>
					<polyline fill="none" stroke="#333333" stroke-width="1.0616" stroke-linecap="round" stroke-miterlimit="10" points="
						141.427,95.122 141.344,94.439 140.226,85.173 140.154,84.579 					"/>
					
						<line fill="none" stroke="#333333" stroke-width="1.0616" stroke-linecap="round" stroke-miterlimit="10" x1="139.954" y1="82.925" x2="139.963" y2="82.998"/>
				</g>
			</g>
		</g>
		<g>
			
				<path fill="#A1C453" stroke="#333333" stroke-width="1.5923" stroke-linecap="round" stroke-linejoin="round" stroke-miterlimit="10" d="
				M127.725,96.484c1.885,1.694,1.887,3.606,7.203,3.439c5.32-0.164,2.82-3.75,6.32-3.858c-3.5,0.108-1.427-3.729-6.549-3.569
				C129.574,92.654,129.643,94.837,127.725,96.484z"/>
			<g>
				<line fill="none" x1="141.248" y1="96.065" x2="130.768" y2="96.391"/>
				<g>
					<polyline fill="none" stroke="#333333" stroke-width="1.0616" stroke-linecap="round" stroke-miterlimit="10" points="
						140.718,96.082 140.03,96.104 133.562,96.304 132.964,96.322 					"/>
					
						<line fill="none" stroke="#333333" stroke-width="1.0616" stroke-linecap="round" stroke-miterlimit="10" x1="131.298" y1="96.374" x2="131.373" y2="96.372"/>
				</g>
			</g>
		</g>
		<g>
			<g>
				<path fill="#EF4529" d="M122.633,128.048c-3.416,1.482-8.92-0.702-8.867-3.499c-2.348-2.045,0.084-7.384,3.498-8.866
					s7.516-1.274,8.185,4.042C128.736,123.635,126.047,126.567,122.633,128.048z"/>
				<g>
					<path fill="none" stroke="#333333" stroke-width="1.5923" stroke-linecap="round" stroke-miterlimit="10" d="M121.88,128.304
						c-0.336,0.075-0.671,0.156-1.015,0.177c-1.629,0.161-3.291-0.197-4.743-0.938c-0.72-0.377-1.404-0.869-1.873-1.544
						c-0.219-0.342-0.41-0.716-0.45-1.125l-0.031-0.305c-0.047-0.085-0.132-0.153-0.195-0.23c-0.15-0.142-0.263-0.312-0.354-0.495
						c-0.396-0.721-0.438-1.583-0.308-2.383c0.131-0.807,0.424-1.58,0.805-2.302c0.787-1.418,1.928-2.703,3.413-3.406
						c1.477-0.66,3.148-1.073,4.763-0.732c0.798,0.174,1.547,0.581,2.105,1.179c0.572,0.59,0.926,1.355,1.154,2.134
						c0.133,0.389,0.193,0.793,0.264,1.195c-0.005,0.219,0.172,0.358,0.283,0.526c0.118,0.166,0.259,0.317,0.359,0.495
						c0.451,0.68,0.774,1.456,0.854,2.269c0.083,0.814-0.135,1.644-0.563,2.337c-0.088,0.179-0.24,0.345-0.344,0.491
						c-0.061,0.078-0.115,0.158-0.188,0.228c-0.138,0.14-0.266,0.29-0.409,0.423"/>
					
						<line fill="none" stroke="#333333" stroke-width="1.5923" stroke-linecap="round" stroke-miterlimit="10" x1="123.352" y1="127.705" x2="123.45" y2="127.652"/>
				</g>
			</g>
			
				<ellipse transform="matrix(0.9794 0.2017 -0.2017 0.9794 26.1409 -21.9133)" opacity="0.5" fill="#FFFFFF" enable-background="new    " cx="120.574" cy="117.287" rx="1.543" ry="1.268"/>
		</g>
		<g>
			<g>
				<path fill="#EF4529" d="M153.42,129.405c-1.078,3.563-6.31,6.347-8.404,4.498c-3.076,0.466-5.576-4.842-4.496-8.406
					c1.078-3.562,3.892-6.554,8.375-3.624C154.004,121.895,154.5,125.843,153.42,129.405z"/>
				<g>
					<path fill="none" stroke="#333333" stroke-width="1.5923" stroke-linecap="round" stroke-miterlimit="10" d="M153.128,130.146
						c-0.159,0.305-0.315,0.611-0.521,0.888c-0.931,1.346-2.279,2.381-3.783,3.009c-0.755,0.304-1.572,0.509-2.391,0.431
						c-0.401-0.056-0.812-0.151-1.147-0.386l-0.253-0.173c-0.097-0.019-0.202,0.001-0.304,0c-0.206,0.024-0.407-0.002-0.606-0.05
						c-0.807-0.164-1.489-0.692-2.016-1.308c-0.529-0.622-0.931-1.347-1.232-2.104c-0.573-1.518-0.814-3.219-0.39-4.807
						c0.451-1.553,1.22-3.096,2.522-4.105c0.647-0.496,1.443-0.803,2.261-0.843c0.82-0.055,1.633,0.172,2.375,0.501
						c0.381,0.15,0.729,0.366,1.081,0.573c0.163,0.146,0.385,0.1,0.585,0.123c0.203,0.017,0.409,0.009,0.61,0.047
						c0.81,0.095,1.609,0.352,2.282,0.816c0.675,0.463,1.167,1.165,1.416,1.941c0.079,0.184,0.107,0.406,0.151,0.58
						c0.021,0.096,0.046,0.191,0.052,0.289c0.02,0.196,0.051,0.391,0.059,0.587"/>
					
						<line fill="none" stroke="#333333" stroke-width="1.5923" stroke-linecap="round" stroke-miterlimit="10" x1="153.624" y1="128.636" x2="153.646" y2="128.526"/>
				</g>
			</g>
			
				<ellipse transform="matrix(0.7875 -0.6163 0.6163 0.7875 -45.8606 115.0335)" opacity="0.5" fill="#FFFFFF" enable-background="new    " cx="143.878" cy="124.018" rx="1.542" ry="1.269"/>
		</g>
		<path fill="#CC924C" stroke="#333333" stroke-width="2.6539" stroke-linecap="round" stroke-miterlimit="10" d="M109.553,155.5
			l46.543-74.171c0.582-0.941,1.82-1.232,2.764-0.649l0,0c0.941,0.583,1.232,1.821,0.648,2.763l-45.641,74.731"/>
		<g>
			
				<path fill="#A1C453" stroke="#333333" stroke-width="1.0616" stroke-linecap="round" stroke-linejoin="round" stroke-miterlimit="10" d="
				M160.26,81.358c0,0,0.512-3.082,0.451-3.717c-0.045-0.509-2.354,1.911-3.025,2.93L160.26,81.358z"/>
			
				<path fill="#A1C453" stroke="#333333" stroke-width="1.0616" stroke-linecap="round" stroke-linejoin="round" stroke-miterlimit="10" d="
				M158.293,79.845l0.85,4.734c0,0,3.094-3.647,2.949-5.645C162.092,78.935,159.906,79.713,158.293,79.845z"/>
			
				<path fill="#A1C453" stroke="#333333" stroke-width="1.0616" stroke-linecap="round" stroke-linejoin="round" stroke-miterlimit="10" d="
				M154.762,84.369c0,0,0.869-5.876,3.979-7.509l0.584,4.568L154.762,84.369z"/>
		</g>
	</g>
</g>
</svg>
