<?xml version="1.0" encoding="utf-8"?>
<!-- Generator: Adobe Illustrator 16.0.0, SVG Export Plug-In . SVG Version: 6.00 Build 0)  -->
<!DOCTYPE svg PUBLIC "-//W3C//DTD SVG 1.1//EN" "http://www.w3.org/Graphics/SVG/1.1/DTD/svg11.dtd">
<svg version="1.1" id="Calque_1" xmlns="http://www.w3.org/2000/svg" xmlns:xlink="http://www.w3.org/1999/xlink" x="0px" y="0px"
	 width="340px" height="410px" viewBox="0 0 340 410" enable-background="new 0 0 340 410" xml:space="preserve">
<g id="calque00">
	<g>
		<path fill="#CC924C" stroke="#333333" stroke-width="2.4893" stroke-linecap="round" stroke-miterlimit="10" d="M100.971,206.322
			l8.661-1.676c1.007-0.255,2.032,0.356,2.287,1.363l0,0c0.255,1.009-0.355,2.032-1.363,2.287l-8.417,2.644"/>
		<g>
			
				<path fill="#A1C453" stroke="#333333" stroke-width="0.9957" stroke-linecap="round" stroke-linejoin="round" stroke-miterlimit="10" d="
				M112.421,207.382c0,0,2.354-1.743,2.729-2.211c0.301-0.373-2.833-0.246-3.95,0.002L112.421,207.382z"/>
			
				<path fill="#A1C453" stroke="#333333" stroke-width="0.9957" stroke-linecap="round" stroke-linejoin="round" stroke-miterlimit="10" d="
				M112.082,205.08l-2.516,3.742c0,0,4.466-0.439,5.669-1.881C115.236,206.941,113.254,206.043,112.082,205.08z"/>
			
				<path fill="#A1C453" stroke="#333333" stroke-width="0.9957" stroke-linecap="round" stroke-linejoin="round" stroke-miterlimit="10" d="
				M106.752,205.826c0,0,4.417-3.396,7.578-2.467l-2.585,3.459L106.752,205.826z"/>
		</g>
	</g>
</g>
<g id="calque01">
	<g>
		<g>
			
				<path fill="#A1C453" stroke="#333333" stroke-width="0.9957" stroke-linecap="round" stroke-linejoin="round" stroke-miterlimit="10" d="
				M121.978,196.129c0.353,1.179,1.188,1.576,0.013,3.874c-1.18,2.298-2.231,0.457-3.007,1.97c0.775-1.513-1.338-1.401-0.204-3.614
				C119.914,196.145,120.856,196.627,121.978,196.129z"/>
			<g>
				<line fill="none" x1="118.984" y1="201.973" x2="121.305" y2="197.444"/>
				<g>
					<polyline fill="none" stroke="#333333" stroke-width="0.9957" stroke-linecap="round" stroke-miterlimit="10" points="
						119.211,201.529 119.505,200.955 120.109,199.777 120.364,199.279 					"/>
					
						<line fill="none" stroke="#333333" stroke-width="0.9957" stroke-linecap="round" stroke-miterlimit="10" x1="121.078" y1="197.888" x2="121.046" y2="197.949"/>
				</g>
			</g>
		</g>
		<path fill="#CC924C" stroke="#333333" stroke-width="2.4893" stroke-linecap="round" stroke-miterlimit="10" d="M102.138,210.939
			l26.424-7.198c1.008-0.254,1.619-1.279,1.364-2.287l0,0c-0.255-1.007-1.28-1.617-2.288-1.363l-26.668,6.231"/>
		<g>
			
				<path fill="#A1C453" stroke="#333333" stroke-width="0.9957" stroke-linecap="round" stroke-linejoin="round" stroke-miterlimit="10" d="
				M129.715,200.009c0,0,2.902,0.414,3.452,0.649c0.441,0.185-2.375,1.563-3.478,1.875L129.715,200.009z"/>
			
				<path fill="#A1C453" stroke="#333333" stroke-width="0.9957" stroke-linecap="round" stroke-linejoin="round" stroke-miterlimit="10" d="
				M130.512,202.196l-3.993-2.098c0,0,4.139-1.736,5.883-1.041C132.402,199.058,131.085,200.792,130.512,202.196z"/>
			
				<path fill="#A1C453" stroke="#333333" stroke-width="0.9957" stroke-linecap="round" stroke-linejoin="round" stroke-miterlimit="10" d="
				M125.467,204.073c0,0,5.5,0.888,7.841-1.434l-3.92-1.813L125.467,204.073z"/>
		</g>
	</g>
</g>
<g id="calque02">
	<g>
		<g>
			
				<path fill="#A1C453" stroke="#333333" stroke-width="1.4936" stroke-linecap="round" stroke-linejoin="round" stroke-miterlimit="10" d="
				M121.456,187.874c1.493,2.227,3.494,2.511,2.528,8.059c-0.965,5.547-4.349,2.395-4.983,6.045c0.635-3.65-3.693-2.051-2.764-7.393
				C117.167,189.242,119.442,189.638,121.456,187.874z"/>
			<g>
				<line fill="none" x1="119" y1="201.978" x2="120.902" y2="191.048"/>
				<g>
					<polyline fill="none" stroke="#333333" stroke-width="0.9957" stroke-linecap="round" stroke-miterlimit="10" points="
						119.086,201.487 119.196,200.852 120.453,193.631 120.548,193.079 					"/>
					
						<line fill="none" stroke="#333333" stroke-width="0.9957" stroke-linecap="round" stroke-miterlimit="10" x1="120.816" y1="191.538" x2="120.805" y2="191.607"/>
				</g>
			</g>
		</g>
		<g>
			
				<path fill="#A1C453" stroke="#333333" stroke-width="0.9957" stroke-linecap="round" stroke-linejoin="round" stroke-miterlimit="10" d="
				M130.578,208.865c-1.192,0.186-1.689,0.947-3.77-0.502c-2.081-1.449-0.148-2.229-1.518-3.184c1.368,0.954,1.539-1.116,3.542,0.28
				C130.835,206.855,130.242,207.709,130.578,208.865z"/>
			<g>
				<line fill="none" x1="125.291" y1="205.18" x2="128.915" y2="207.744"/>
				<g>
					<polyline fill="none" stroke="#333333" stroke-width="0.9957" stroke-linecap="round" stroke-miterlimit="10" points="
						125.697,205.467 126.224,205.84 126.775,206.229 127.232,206.555 					"/>
					
						<line fill="none" stroke="#333333" stroke-width="0.9957" stroke-linecap="round" stroke-miterlimit="10" x1="128.509" y1="207.457" x2="128.452" y2="207.416"/>
				</g>
			</g>
		</g>
		<path fill="#CC924C" stroke="#333333" stroke-width="2.4893" stroke-linecap="round" stroke-miterlimit="10" d="M102.138,210.939
			l34.72-9.296c1.009-0.256,1.618-1.278,1.363-2.287l0,0c-0.255-1.008-1.279-1.619-2.287-1.363l-34.963,8.329"/>
		<g>
			
				<path fill="#A1C453" stroke="#333333" stroke-width="0.9957" stroke-linecap="round" stroke-linejoin="round" stroke-miterlimit="10" d="
				M138.011,197.91c0,0,2.901,0.415,3.452,0.649c0.441,0.186-2.375,1.563-3.477,1.874L138.011,197.91z"/>
			
				<path fill="#A1C453" stroke="#333333" stroke-width="0.9957" stroke-linecap="round" stroke-linejoin="round" stroke-miterlimit="10" d="
				M138.807,200.098L134.814,198c0,0,4.139-1.736,5.883-1.04C140.697,196.96,139.381,198.694,138.807,200.098z"/>
			
				<path fill="#A1C453" stroke="#333333" stroke-width="0.9957" stroke-linecap="round" stroke-linejoin="round" stroke-miterlimit="10" d="
				M133.763,201.976c0,0,5.5,0.887,7.84-1.434l-3.92-1.815L133.763,201.976z"/>
		</g>
	</g>
</g>
<g id="calque03">
	<g>
		
			<polygon fill="#CC924C" stroke="#333333" stroke-width="0.9957" stroke-linecap="round" stroke-linejoin="round" stroke-miterlimit="10" points="
			130.196,208.773 123.631,205.404 125.388,204.96 		"/>
		<g>
			
				<path fill="#A1C453" stroke="#333333" stroke-width="1.4936" stroke-linecap="round" stroke-linejoin="round" stroke-miterlimit="10" d="
				M121.532,188.012c1.478,2.236,3.477,2.534,2.476,8.076c-1.003,5.54-4.365,2.364-5.025,6.01c0.66-3.646-3.679-2.073-2.713-7.41
				S119.507,189.763,121.532,188.012z"/>
			<g>
				<line fill="none" x1="118.982" y1="202.098" x2="120.958" y2="191.183"/>
				<g>
					<polyline fill="none" stroke="#333333" stroke-width="0.9957" stroke-linecap="round" stroke-miterlimit="10" points="
						119.071,201.607 119.186,200.973 120.491,193.763 120.59,193.211 					"/>
					
						<line fill="none" stroke="#333333" stroke-width="0.9957" stroke-linecap="round" stroke-miterlimit="10" x1="120.869" y1="191.673" x2="120.856" y2="191.741"/>
				</g>
			</g>
		</g>
		<g>
			
				<path fill="#A1C453" stroke="#333333" stroke-width="0.9957" stroke-linecap="round" stroke-linejoin="round" stroke-miterlimit="10" d="
				M138.411,187.577c0.8,1.729,2.174,2.154,0.876,5.941c-1.299,3.787-3.322,1.195-4.175,3.688c0.853-2.492-2.364-1.853-1.115-5.498
				C135.247,188.06,136.8,188.591,138.411,187.577z"/>
			<g>
				<line fill="none" x1="135.113" y1="197.206" x2="137.668" y2="189.744"/>
				<g>
					<polyline fill="none" stroke="#333333" stroke-width="0.9957" stroke-linecap="round" stroke-miterlimit="10" points="
						135.274,196.735 135.483,196.125 136.819,192.225 137,191.694 					"/>
					
						<line fill="none" stroke="#333333" stroke-width="0.9957" stroke-linecap="round" stroke-miterlimit="10" x1="137.507" y1="190.215" x2="137.484" y2="190.281"/>
				</g>
			</g>
		</g>
		<g>
			
				<path fill="#A1C453" stroke="#333333" stroke-width="1.4936" stroke-linecap="round" stroke-linejoin="round" stroke-miterlimit="10" d="
				M141.543,213.591c-0.92-2.215-0.141-3.849-4.753-5.879c-4.614-2.028-3.94,2.056-6.977,0.72c3.036,1.336-0.302,3.769,4.142,5.723
				C138.398,216.109,139.23,214.219,141.543,213.591z"/>
			<g>
				<line fill="none" x1="129.814" y1="208.432" x2="138.904" y2="212.43"/>
				<g>
					<polyline fill="none" stroke="#333333" stroke-width="0.9957" stroke-linecap="round" stroke-miterlimit="10" points="
						130.27,208.631 130.86,208.891 136.504,211.374 137.017,211.6 					"/>
					
						<line fill="none" stroke="#333333" stroke-width="0.9957" stroke-linecap="round" stroke-miterlimit="10" x1="138.448" y1="212.229" x2="138.384" y2="212.201"/>
				</g>
			</g>
		</g>
		<g>
			
				<path fill="#A1C453" stroke="#333333" stroke-width="0.9957" stroke-linecap="round" stroke-linejoin="round" stroke-miterlimit="10" d="
				M132.546,215.82c0.54-1.307,1.545-1.662,0.469-4.432c-1.078-2.77-2.499-0.787-3.207-2.607c0.708,1.82-1.696,1.443-0.66,4.111
				C130.185,215.561,131.322,215.118,132.546,215.82z"/>
			<g>
				<line fill="none" x1="129.808" y1="208.781" x2="131.929" y2="214.236"/>
				<g>
					<polyline fill="none" stroke="#333333" stroke-width="0.9957" stroke-linecap="round" stroke-miterlimit="10" points="
						129.989,209.246 130.222,209.848 130.979,211.793 131.182,212.314 					"/>
					
						<line fill="none" stroke="#333333" stroke-width="0.9957" stroke-linecap="round" stroke-miterlimit="10" x1="131.749" y1="213.771" x2="131.723" y2="213.707"/>
				</g>
			</g>
		</g>
		<path fill="#CC924C" stroke="#333333" stroke-width="2.6551" stroke-linecap="round" stroke-miterlimit="10" d="M102.138,210.939
			l43.309-11.47c1.01-0.255,1.619-1.277,1.364-2.286l0,0c-0.255-1.009-1.279-1.619-2.287-1.364l-43.553,10.503"/>
		<g>
			
				<path fill="#A1C453" stroke="#333333" stroke-width="0.9957" stroke-linecap="round" stroke-linejoin="round" stroke-miterlimit="10" d="
				M146.601,195.737c0,0,2.901,0.414,3.452,0.649c0.442,0.186-2.375,1.564-3.476,1.875L146.601,195.737z"/>
			
				<path fill="#A1C453" stroke="#333333" stroke-width="0.9957" stroke-linecap="round" stroke-linejoin="round" stroke-miterlimit="10" d="
				M147.397,197.925l-3.993-2.098c0,0,4.14-1.735,5.883-1.041C149.286,194.786,147.971,196.521,147.397,197.925z"/>
			
				<path fill="#A1C453" stroke="#333333" stroke-width="0.9957" stroke-linecap="round" stroke-linejoin="round" stroke-miterlimit="10" d="
				M142.353,199.802c0,0,5.5,0.888,7.839-1.434l-3.918-1.813L142.353,199.802z"/>
		</g>
	</g>
</g>
<g id="calque04">
	<g>
		
			<polygon fill="#CC924C" stroke="#333333" stroke-width="0.9957" stroke-linecap="round" stroke-linejoin="round" stroke-miterlimit="10" points="
			142.902,181.959 132.608,198.834 135.332,198.146 		"/>
		
			<polygon fill="#CC924C" stroke="#333333" stroke-width="0.9957" stroke-linecap="round" stroke-linejoin="round" stroke-miterlimit="10" points="
			130.196,208.773 123.631,205.404 125.388,204.96 		"/>
		<g>
			
				<path fill="#A1C453" stroke="#333333" stroke-width="1.4936" stroke-linecap="round" stroke-linejoin="round" stroke-miterlimit="10" d="
				M121.532,188.012c1.478,2.236,3.477,2.535,2.476,8.076c-1.003,5.54-4.365,2.364-5.025,6.01c0.66-3.646-3.679-2.074-2.713-7.41
				C117.235,189.35,119.507,189.763,121.532,188.012z"/>
			<g>
				<line fill="none" x1="118.982" y1="202.098" x2="120.958" y2="191.183"/>
				<g>
					<polyline fill="none" stroke="#333333" stroke-width="0.9957" stroke-linecap="round" stroke-miterlimit="10" points="
						119.071,201.607 119.186,200.973 120.491,193.763 120.59,193.211 					"/>
					
						<line fill="none" stroke="#333333" stroke-width="0.9957" stroke-linecap="round" stroke-miterlimit="10" x1="120.869" y1="191.673" x2="120.856" y2="191.741"/>
				</g>
			</g>
		</g>
		<g>
			
				<path fill="#A1C453" stroke="#333333" stroke-width="0.9957" stroke-linecap="round" stroke-linejoin="round" stroke-miterlimit="10" d="
				M150.898,179.022c-0.567,1.549,0.014,2.648-3.098,4.173c-3.111,1.524-2.766-1.301-4.813-0.298
				c2.048-1.003-0.313-2.58,2.684-4.047C148.668,177.381,149.293,178.657,150.898,179.022z"/>
			<g>
				<line fill="none" x1="142.988" y1="182.897" x2="149.119" y2="179.894"/>
				<g>
					<polyline fill="none" stroke="#333333" stroke-width="0.9957" stroke-linecap="round" stroke-miterlimit="10" points="
						143.435,182.679 144.014,182.395 146.764,181.047 147.268,180.801 					"/>
					
						<line fill="none" stroke="#333333" stroke-width="0.9957" stroke-linecap="round" stroke-miterlimit="10" x1="148.671" y1="180.112" x2="148.609" y2="180.144"/>
				</g>
			</g>
		</g>
		<g>
			
				<path fill="#A1C453" stroke="#333333" stroke-width="1.4936" stroke-linecap="round" stroke-linejoin="round" stroke-miterlimit="10" d="
				M147.776,166.919c1.271,2.745,3.451,3.418,1.393,9.429c-2.059,6.012-5.271,1.898-6.625,5.854
				c1.354-3.956-3.752-2.939-1.771-8.728C142.756,167.683,145.221,168.527,147.776,166.919z"/>
			<g>
				<line fill="none" x1="142.543" y1="182.202" x2="146.599" y2="170.358"/>
				<g>
					<polyline fill="none" stroke="#333333" stroke-width="0.9957" stroke-linecap="round" stroke-miterlimit="10" points="
						142.705,181.731 142.914,181.121 145.75,172.839 145.931,172.309 					"/>
					
						<line fill="none" stroke="#333333" stroke-width="0.9957" stroke-linecap="round" stroke-miterlimit="10" x1="146.438" y1="170.829" x2="146.415" y2="170.896"/>
				</g>
			</g>
		</g>
		<g>
			
				<path fill="#A1C453" stroke="#333333" stroke-width="1.4936" stroke-linecap="round" stroke-linejoin="round" stroke-miterlimit="10" d="
				M141.543,213.591c-0.92-2.215-0.141-3.849-4.753-5.879c-4.614-2.028-3.94,2.056-6.977,0.72c3.036,1.336-0.302,3.769,4.142,5.723
				C138.398,216.109,139.23,214.219,141.543,213.591z"/>
			<g>
				<line fill="none" x1="129.814" y1="208.432" x2="138.904" y2="212.43"/>
				<g>
					<polyline fill="none" stroke="#333333" stroke-width="0.9957" stroke-linecap="round" stroke-miterlimit="10" points="
						130.27,208.631 130.86,208.891 136.504,211.374 137.017,211.6 					"/>
					
						<line fill="none" stroke="#333333" stroke-width="0.9957" stroke-linecap="round" stroke-miterlimit="10" x1="138.448" y1="212.229" x2="138.384" y2="212.201"/>
				</g>
			</g>
		</g>
		<g>
			
				<path fill="#A1C453" stroke="#333333" stroke-width="1.4936" stroke-linecap="round" stroke-linejoin="round" stroke-miterlimit="10" d="
				M134.11,220.352c0.917-2.215,2.622-2.82,0.795-7.519c-1.825-4.698-4.238-1.334-5.44-4.426c1.202,3.092-2.878,2.45-1.119,6.976
				S132.031,219.159,134.11,220.352z"/>
			<g>
				<line fill="none" x1="129.464" y1="208.406" x2="133.063" y2="217.663"/>
				<g>
					<polyline fill="none" stroke="#333333" stroke-width="0.9957" stroke-linecap="round" stroke-miterlimit="10" points="
						129.645,208.871 129.878,209.473 132.113,215.221 132.316,215.742 					"/>
					
						<line fill="none" stroke="#333333" stroke-width="0.9957" stroke-linecap="round" stroke-miterlimit="10" x1="132.882" y1="217.199" x2="132.857" y2="217.134"/>
				</g>
			</g>
		</g>
		<g>
			
				<path fill="#A1C453" stroke="#333333" stroke-width="0.9957" stroke-linecap="round" stroke-linejoin="round" stroke-miterlimit="10" d="
				M166.602,200.543c-1.45,0.506-1.896,1.575-4.835,0.239c-2.937-1.336-0.701-2.758-2.633-3.636c1.932,0.878,1.67-1.753,4.498-0.467
				C166.462,197.967,165.913,199.171,166.602,200.543z"/>
			<g>
				<line fill="none" x1="159.134" y1="197.146" x2="164.921" y2="199.778"/>
				<g>
					<polyline fill="none" stroke="#333333" stroke-width="0.9957" stroke-linecap="round" stroke-miterlimit="10" points="
						159.587,197.353 160.174,197.619 162.534,198.693 163.044,198.925 					"/>
					
						<line fill="none" stroke="#333333" stroke-width="0.9957" stroke-linecap="round" stroke-miterlimit="10" x1="164.468" y1="199.572" x2="164.404" y2="199.543"/>
				</g>
			</g>
		</g>
		<path fill="#CC924C" stroke="#333333" stroke-width="2.6551" stroke-linecap="round" stroke-miterlimit="10" d="M102.138,210.939
			l58.947-15.426c1.008-0.255,1.619-1.277,1.362-2.286l0,0c-0.254-1.008-1.278-1.619-2.286-1.364l-59.191,14.459"/>
		<g>
			
				<path fill="#A1C453" stroke="#333333" stroke-width="0.9957" stroke-linecap="round" stroke-linejoin="round" stroke-miterlimit="10" d="
				M162.238,191.781c0,0,2.901,0.414,3.452,0.649c0.441,0.186-2.374,1.564-3.477,1.875L162.238,191.781z"/>
			
				<path fill="#A1C453" stroke="#333333" stroke-width="0.9957" stroke-linecap="round" stroke-linejoin="round" stroke-miterlimit="10" d="
				M163.034,193.969l-3.992-2.098c0,0,4.137-1.736,5.881-1.041C164.924,190.83,163.608,192.565,163.034,193.969z"/>
			
				<path fill="#A1C453" stroke="#333333" stroke-width="0.9957" stroke-linecap="round" stroke-linejoin="round" stroke-miterlimit="10" d="
				M157.991,195.846c0,0,5.5,0.888,7.84-1.432l-3.92-1.814L157.991,195.846z"/>
		</g>
		<g>
			
				<path fill="#FFFFFF" stroke="#333333" stroke-width="0.9957" stroke-linecap="round" stroke-linejoin="round" stroke-miterlimit="10" d="
				M141.63,181.776c-0.312-0.32-1.173-0.11-1.801,0.119c-1.131,0.41-2.226,1.914-1.248,2.918c0.98,1.009,2.521-0.035,2.967-1.15
				C141.794,183.042,141.944,182.099,141.63,181.776z"/>
			
				<path fill="#FFFFFF" stroke="#333333" stroke-width="0.9957" stroke-linecap="round" stroke-linejoin="round" stroke-miterlimit="10" d="
				M141.67,181.665c0.432-0.109,0.682-0.961,0.797-1.619c0.211-1.184-0.545-2.884-1.904-2.54c-1.365,0.346-1.229,2.202-0.484,3.144
				C140.493,181.175,141.236,181.775,141.67,181.665z"/>
			
				<path fill="#FFFFFF" stroke="#333333" stroke-width="0.9957" stroke-linecap="round" stroke-linejoin="round" stroke-miterlimit="10" d="
				M141.744,181.748c-0.121,0.43,0.491,1.071,1.003,1.5c0.921,0.775,2.771,0.97,3.151-0.378c0.384-1.356-1.292-2.165-2.479-1.993
				C142.758,180.974,141.866,181.316,141.744,181.748z"/>
			
				<path fill="#FFFFFF" stroke="#333333" stroke-width="0.9957" stroke-linecap="round" stroke-linejoin="round" stroke-miterlimit="10" d="
				M141.688,181.886c-0.432,0.109-0.681,0.963-0.796,1.62c-0.21,1.186,0.546,2.884,1.904,2.54c1.365-0.345,1.229-2.2,0.484-3.145
				C142.867,182.378,142.125,181.776,141.688,181.886z"/>
			
				<path fill="#FFFFFF" stroke="#333333" stroke-width="0.9957" stroke-linecap="round" stroke-linejoin="round" stroke-miterlimit="10" d="
				M141.618,181.797c0.12-0.429-0.492-1.071-1.005-1.5c-0.921-0.774-2.77-0.97-3.151,0.38c-0.383,1.354,1.291,2.164,2.479,1.992
				C140.603,182.572,141.495,182.229,141.618,181.797z"/>
			
				<path fill="#FFFFFF" stroke="#333333" stroke-width="0.9957" stroke-linecap="round" stroke-linejoin="round" stroke-miterlimit="10" d="
				M141.742,181.788c0.311,0.319,1.173,0.109,1.801-0.119c1.131-0.411,2.225-1.914,1.248-2.92c-0.981-1.009-2.521,0.037-2.966,1.152
				C141.579,180.522,141.429,181.467,141.742,181.788z"/>
			
				<circle fill="#F9D53E" stroke="#333333" stroke-width="0.9957" stroke-linecap="round" stroke-linejoin="round" stroke-miterlimit="10" cx="141.689" cy="181.887" r="0.926"/>
		</g>
	</g>
</g>
<g id="calque05">
	<g>
		
			<polygon fill="#CC924C" stroke="#333333" stroke-width="0.7966" stroke-linecap="round" stroke-linejoin="round" stroke-miterlimit="10" points="
			164.688,202.405 155.391,196.955 158.115,196.266 		"/>
		
			<polygon fill="#CC924C" stroke="#333333" stroke-width="0.9957" stroke-linecap="round" stroke-linejoin="round" stroke-miterlimit="10" points="
			142.902,181.959 132.608,198.834 135.332,198.146 		"/>
		
			<polygon fill="#CC924C" stroke="#333333" stroke-width="0.9957" stroke-linecap="round" stroke-linejoin="round" stroke-miterlimit="10" points="
			130.196,208.773 123.631,205.404 125.388,204.96 		"/>
		<g>
			
				<path fill="#A1C453" stroke="#333333" stroke-width="1.4936" stroke-linecap="round" stroke-linejoin="round" stroke-miterlimit="10" d="
				M121.532,188.012c1.478,2.236,3.477,2.534,2.476,8.076c-1.003,5.54-4.365,2.364-5.025,6.01c0.66-3.646-3.679-2.074-2.713-7.41
				C117.235,189.35,119.507,189.763,121.532,188.012z"/>
			<g>
				<line fill="none" x1="118.982" y1="202.098" x2="120.958" y2="191.183"/>
				<g>
					<polyline fill="none" stroke="#333333" stroke-width="0.9957" stroke-linecap="round" stroke-miterlimit="10" points="
						119.071,201.607 119.186,200.973 120.491,193.763 120.59,193.211 					"/>
					
						<line fill="none" stroke="#333333" stroke-width="0.9957" stroke-linecap="round" stroke-miterlimit="10" x1="120.869" y1="191.673" x2="120.856" y2="191.741"/>
				</g>
			</g>
		</g>
		<g>
			
				<path fill="#A1C453" stroke="#333333" stroke-width="1.4936" stroke-linecap="round" stroke-linejoin="round" stroke-miterlimit="10" d="
				M157.491,175.049c-1.044,2.838,0.022,4.856-5.685,7.652c-5.707,2.795-5.069-2.386-8.824-0.546c3.754-1.84-0.576-4.731,4.92-7.424
				C153.399,172.04,154.545,174.379,157.491,175.049z"/>
			<g>
				<line fill="none" x1="142.983" y1="182.155" x2="154.226" y2="176.648"/>
				<g>
					<polyline fill="none" stroke="#333333" stroke-width="0.9957" stroke-linecap="round" stroke-miterlimit="10" points="
						143.431,181.937 144.01,181.652 151.871,177.802 152.375,177.556 					"/>
					
						<line fill="none" stroke="#333333" stroke-width="0.9957" stroke-linecap="round" stroke-miterlimit="10" x1="153.778" y1="176.867" x2="153.716" y2="176.898"/>
				</g>
			</g>
		</g>
		<g>
			
				<path fill="#A1C453" stroke="#333333" stroke-width="1.4936" stroke-linecap="round" stroke-linejoin="round" stroke-miterlimit="10" d="
				M147.776,166.919c1.271,2.744,3.451,3.418,1.393,9.429c-2.059,6.011-5.271,1.898-6.625,5.854
				c1.354-3.956-3.752-2.939-1.771-8.728C142.756,167.683,145.221,168.526,147.776,166.919z"/>
			<g>
				<line fill="none" x1="142.543" y1="182.202" x2="146.599" y2="170.358"/>
				<g>
					<polyline fill="none" stroke="#333333" stroke-width="0.9957" stroke-linecap="round" stroke-miterlimit="10" points="
						142.705,181.731 142.914,181.121 145.75,172.839 145.931,172.309 					"/>
					
						<line fill="none" stroke="#333333" stroke-width="0.9957" stroke-linecap="round" stroke-miterlimit="10" x1="146.438" y1="170.829" x2="146.415" y2="170.896"/>
				</g>
			</g>
		</g>
		<g>
			
				<path fill="#A1C453" stroke="#333333" stroke-width="1.4936" stroke-linecap="round" stroke-linejoin="round" stroke-miterlimit="10" d="
				M141.543,213.591c-0.92-2.215-0.141-3.849-4.753-5.879c-4.614-2.028-3.94,2.056-6.977,0.72c3.036,1.336-0.302,3.769,4.142,5.723
				C138.398,216.109,139.23,214.219,141.543,213.591z"/>
			<g>
				<line fill="none" x1="129.814" y1="208.432" x2="138.904" y2="212.43"/>
				<g>
					<polyline fill="none" stroke="#333333" stroke-width="0.9957" stroke-linecap="round" stroke-miterlimit="10" points="
						130.27,208.631 130.86,208.891 136.504,211.374 137.017,211.6 					"/>
					
						<line fill="none" stroke="#333333" stroke-width="0.9957" stroke-linecap="round" stroke-miterlimit="10" x1="138.448" y1="212.229" x2="138.384" y2="212.201"/>
				</g>
			</g>
		</g>
		<g>
			
				<path fill="#A1C453" stroke="#333333" stroke-width="1.4936" stroke-linecap="round" stroke-linejoin="round" stroke-miterlimit="10" d="
				M134.11,220.352c0.917-2.215,2.622-2.82,0.795-7.519c-1.825-4.698-4.238-1.334-5.44-4.426c1.202,3.092-2.878,2.45-1.119,6.976
				S132.031,219.159,134.11,220.352z"/>
			<g>
				<line fill="none" x1="129.464" y1="208.406" x2="133.063" y2="217.663"/>
				<g>
					<polyline fill="none" stroke="#333333" stroke-width="0.9957" stroke-linecap="round" stroke-miterlimit="10" points="
						129.645,208.871 129.878,209.473 132.113,215.221 132.316,215.742 					"/>
					
						<line fill="none" stroke="#333333" stroke-width="0.9957" stroke-linecap="round" stroke-miterlimit="10" x1="132.882" y1="217.199" x2="132.857" y2="217.134"/>
				</g>
			</g>
		</g>
		<g>
			
				<path fill="#A1C453" stroke="#333333" stroke-width="1.4936" stroke-linecap="round" stroke-linejoin="round" stroke-miterlimit="10" d="
				M179.395,209.094c-2.854,0.998-3.735,3.102-9.521,0.473c-5.784-2.631-1.378-5.43-5.187-7.161c3.809,1.73,3.289-3.451,8.859-0.917
				C179.119,204.022,178.04,206.395,179.395,209.094z"/>
			<g>
				<line fill="none" x1="164.688" y1="202.405" x2="176.085" y2="207.587"/>
				<g>
					<polyline fill="none" stroke="#333333" stroke-width="0.9957" stroke-linecap="round" stroke-miterlimit="10" points="
						165.142,202.611 165.729,202.878 173.698,206.502 174.208,206.732 					"/>
					
						<line fill="none" stroke="#333333" stroke-width="0.9957" stroke-linecap="round" stroke-miterlimit="10" x1="175.632" y1="207.381" x2="175.568" y2="207.352"/>
				</g>
			</g>
		</g>
		<g>
			
				<path fill="#A1C453" stroke="#333333" stroke-width="0.9957" stroke-linecap="round" stroke-linejoin="round" stroke-miterlimit="10" d="
				M161.386,210.432c-0.664-1.463-1.818-1.83-0.701-5.015c1.119-3.187,2.809-0.987,3.543-3.082
				c-0.734,2.095,1.981,1.575,0.905,4.644C164.056,210.046,162.751,209.588,161.386,210.432z"/>
			<g>
				<line fill="none" x1="164.229" y1="202.335" x2="162.025" y2="208.609"/>
				<g>
					<polyline fill="none" stroke="#333333" stroke-width="0.9957" stroke-linecap="round" stroke-miterlimit="10" points="
						164.063,202.805 163.85,203.413 162.894,206.137 162.708,206.664 					"/>
					
						<line fill="none" stroke="#333333" stroke-width="0.9957" stroke-linecap="round" stroke-miterlimit="10" x1="162.19" y1="208.141" x2="162.214" y2="208.072"/>
				</g>
			</g>
		</g>
		<g>
			<g>
				<path fill="#D3F46C" d="M140.797,186.791c-2.388,0.964-6.157-0.646-6.071-2.575c-1.587-1.454,0.189-5.104,2.577-6.069
					c2.387-0.964,5.219-0.748,5.586,2.938C145.096,183.847,143.183,185.826,140.797,186.791z"/>
				<g>
					<path fill="none" stroke="#333333" stroke-width="0.9957" stroke-linecap="round" stroke-miterlimit="10" d="M140.324,186.944
						c-0.213,0.033-0.421,0.099-0.637,0.104c-1.145,0.118-2.309-0.165-3.324-0.688c-0.503-0.271-0.974-0.629-1.306-1.099
						c-0.152-0.242-0.282-0.506-0.312-0.793c0.072-0.33-0.304-0.453-0.379-0.737c-0.521-1.064-0.105-2.306,0.438-3.275
						c0.577-0.985,1.423-1.846,2.481-2.303c1.055-0.419,2.247-0.663,3.36-0.344c1.141,0.303,1.891,1.379,2.111,2.493
						c0.084,0.272,0.063,0.578,0.171,0.837c0.166,0.233,0.346,0.459,0.474,0.717c0.278,0.497,0.473,1.06,0.454,1.637
						c-0.013,0.577-0.246,1.132-0.598,1.582c-0.087,0.109-0.182,0.234-0.274,0.318l-0.13,0.131
						c-0.083,0.091-0.185,0.161-0.276,0.242"/>
					
						<line fill="none" stroke="#333333" stroke-width="0.9957" stroke-linecap="round" stroke-miterlimit="10" x1="141.253" y1="186.591" x2="141.315" y2="186.559"/>
				</g>
			</g>
			
				<ellipse transform="matrix(0.9738 0.2274 -0.2274 0.9738 44.4394 -27.0421)" opacity="0.5" fill="#FFFFFF" enable-background="new    " cx="139.564" cy="179.315" rx="1.067" ry="0.877"/>
		</g>
		<path fill="#CC924C" stroke="#333333" stroke-width="2.6551" stroke-linecap="round" stroke-miterlimit="10" d="M102.138,210.939
			l66.751-17.399c1.009-0.256,1.619-1.278,1.363-2.287l0,0c-0.255-1.009-1.278-1.619-2.287-1.363l-66.995,16.434"/>
		<g>
			
				<path fill="#A1C453" stroke="#333333" stroke-width="0.9957" stroke-linecap="round" stroke-linejoin="round" stroke-miterlimit="10" d="
				M170.042,189.808c0,0,2.902,0.414,3.453,0.648c0.44,0.186-2.375,1.563-3.477,1.875L170.042,189.808z"/>
			
				<path fill="#A1C453" stroke="#333333" stroke-width="0.9957" stroke-linecap="round" stroke-linejoin="round" stroke-miterlimit="10" d="
				M170.84,191.994l-3.993-2.098c0,0,4.138-1.736,5.882-1.04C172.729,188.856,171.413,190.591,170.84,191.994z"/>
			
				<path fill="#A1C453" stroke="#333333" stroke-width="0.9957" stroke-linecap="round" stroke-linejoin="round" stroke-miterlimit="10" d="
				M165.795,193.872c0,0,5.5,0.887,7.84-1.434l-3.919-1.813L165.795,193.872z"/>
		</g>
		<g>
			
				<path fill="#FFFFFF" stroke="#333333" stroke-width="0.9957" stroke-linecap="round" stroke-linejoin="round" stroke-miterlimit="10" d="
				M163.27,203.103c-0.311-0.318-1.173-0.109-1.801,0.119c-1.13,0.412-2.224,1.915-1.247,2.92c0.98,1.008,2.521-0.037,2.965-1.151
				C163.434,204.369,163.583,203.425,163.27,203.103z"/>
			
				<path fill="#FFFFFF" stroke="#333333" stroke-width="0.9957" stroke-linecap="round" stroke-linejoin="round" stroke-miterlimit="10" d="
				M163.31,202.992c0.433-0.108,0.683-0.96,0.798-1.618c0.211-1.186-0.546-2.884-1.903-2.54c-1.365,0.345-1.229,2.2-0.485,3.144
				C162.132,202.503,162.875,203.103,163.31,202.992z"/>
			
				<path fill="#FFFFFF" stroke="#333333" stroke-width="0.9957" stroke-linecap="round" stroke-linejoin="round" stroke-miterlimit="10" d="
				M163.383,203.076c-0.122,0.429,0.491,1.07,1.005,1.501c0.92,0.774,2.771,0.969,3.15-0.381c0.383-1.354-1.291-2.164-2.48-1.991
				C164.397,202.302,163.505,202.645,163.383,203.076z"/>
			
				<path fill="#FFFFFF" stroke="#333333" stroke-width="0.9957" stroke-linecap="round" stroke-linejoin="round" stroke-miterlimit="10" d="
				M163.328,203.215c-0.433,0.109-0.682,0.961-0.798,1.619c-0.21,1.186,0.547,2.883,1.904,2.539c1.364-0.346,1.229-2.2,0.485-3.144
				C164.507,203.705,163.764,203.104,163.328,203.215z"/>
			
				<path fill="#FFFFFF" stroke="#333333" stroke-width="0.9957" stroke-linecap="round" stroke-linejoin="round" stroke-miterlimit="10" d="
				M163.257,203.124c0.121-0.429-0.492-1.07-1.004-1.5c-0.921-0.775-2.771-0.969-3.151,0.379c-0.383,1.354,1.291,2.165,2.48,1.993
				C162.242,203.898,163.135,203.556,163.257,203.124z"/>
			
				<path fill="#FFFFFF" stroke="#333333" stroke-width="0.9957" stroke-linecap="round" stroke-linejoin="round" stroke-miterlimit="10" d="
				M163.382,203.114c0.311,0.321,1.173,0.111,1.801-0.118c1.132-0.41,2.226-1.915,1.247-2.919c-0.98-1.009-2.521,0.036-2.966,1.151
				C163.218,201.85,163.069,202.793,163.382,203.114z"/>
			
				<circle fill="#F9D53E" stroke="#333333" stroke-width="0.9957" stroke-linecap="round" stroke-linejoin="round" stroke-miterlimit="10" cx="163.328" cy="203.214" r="0.926"/>
		</g>
	</g>
</g>
<g id="calque06">
	<g>
		
			<polygon fill="#CC924C" stroke="#333333" stroke-width="0.7966" stroke-linecap="round" stroke-linejoin="round" stroke-miterlimit="10" points="
			164.688,202.405 155.391,196.955 158.115,196.266 		"/>
		
			<polygon fill="#CC924C" stroke="#333333" stroke-width="0.9957" stroke-linecap="round" stroke-linejoin="round" stroke-miterlimit="10" points="
			142.902,181.959 132.608,198.834 135.332,198.146 		"/>
		
			<polygon fill="#CC924C" stroke="#333333" stroke-width="0.9957" stroke-linecap="round" stroke-linejoin="round" stroke-miterlimit="10" points="
			130.196,208.773 123.631,205.404 125.388,204.96 		"/>
		<g>
			
				<path fill="#A1C453" stroke="#333333" stroke-width="1.4936" stroke-linecap="round" stroke-linejoin="round" stroke-miterlimit="10" d="
				M121.532,188.012c1.478,2.236,3.477,2.534,2.476,8.076c-1.003,5.54-4.365,2.364-5.025,6.01c0.66-3.646-3.679-2.074-2.713-7.41
				C117.235,189.35,119.507,189.763,121.532,188.012z"/>
			<g>
				<line fill="none" x1="118.982" y1="202.098" x2="120.958" y2="191.183"/>
				<g>
					<polyline fill="none" stroke="#333333" stroke-width="0.9957" stroke-linecap="round" stroke-miterlimit="10" points="
						119.071,201.607 119.186,200.973 120.491,193.763 120.59,193.211 					"/>
					
						<line fill="none" stroke="#333333" stroke-width="0.9957" stroke-linecap="round" stroke-miterlimit="10" x1="120.869" y1="191.673" x2="120.856" y2="191.741"/>
				</g>
			</g>
		</g>
		<g>
			
				<path fill="#A1C453" stroke="#333333" stroke-width="0.9957" stroke-linecap="round" stroke-linejoin="round" stroke-miterlimit="10" d="
				M172.229,182.678c-1.596,0.235-2.533-0.541-4.613,2.131c-2.082,2.674,0.69,2.906-0.68,4.666c1.37-1.76,2.407,0.816,4.411-1.759
				C173.354,185.142,172.257,184.288,172.229,182.678z"/>
			<g>
				<line fill="none" x1="166.937" y1="189.475" x2="171.038" y2="184.206"/>
				<g>
					<polyline fill="none" stroke="#333333" stroke-width="0.9957" stroke-linecap="round" stroke-miterlimit="10" points="
						167.242,189.082 167.639,188.572 169.428,186.275 169.771,185.833 					"/>
					
						<line fill="none" stroke="#333333" stroke-width="0.9957" stroke-linecap="round" stroke-miterlimit="10" x1="170.732" y1="184.599" x2="170.689" y2="184.654"/>
				</g>
			</g>
		</g>
		<g>
			
				<path fill="#A1C453" stroke="#333333" stroke-width="1.4936" stroke-linecap="round" stroke-linejoin="round" stroke-miterlimit="10" d="
				M157.491,175.049c-1.044,2.838,0.022,4.856-5.685,7.652c-5.707,2.795-5.069-2.386-8.824-0.546c3.754-1.84-0.576-4.731,4.92-7.424
				C153.399,172.04,154.545,174.379,157.491,175.049z"/>
			<g>
				<line fill="none" x1="142.983" y1="182.155" x2="154.226" y2="176.648"/>
				<g>
					<polyline fill="none" stroke="#333333" stroke-width="0.9957" stroke-linecap="round" stroke-miterlimit="10" points="
						143.431,181.937 144.01,181.652 151.871,177.802 152.375,177.556 					"/>
					
						<line fill="none" stroke="#333333" stroke-width="0.9957" stroke-linecap="round" stroke-miterlimit="10" x1="153.778" y1="176.867" x2="153.716" y2="176.898"/>
				</g>
			</g>
		</g>
		<g>
			
				<path fill="#A1C453" stroke="#333333" stroke-width="1.4936" stroke-linecap="round" stroke-linejoin="round" stroke-miterlimit="10" d="
				M147.776,166.919c1.271,2.744,3.451,3.418,1.393,9.429c-2.059,6.011-5.271,1.898-6.625,5.854
				c1.354-3.956-3.752-2.939-1.771-8.728C142.756,167.683,145.221,168.526,147.776,166.919z"/>
			<g>
				<line fill="none" x1="142.543" y1="182.202" x2="146.599" y2="170.358"/>
				<g>
					<polyline fill="none" stroke="#333333" stroke-width="0.9957" stroke-linecap="round" stroke-miterlimit="10" points="
						142.705,181.731 142.914,181.121 145.75,172.839 145.931,172.309 					"/>
					
						<line fill="none" stroke="#333333" stroke-width="0.9957" stroke-linecap="round" stroke-miterlimit="10" x1="146.438" y1="170.829" x2="146.415" y2="170.896"/>
				</g>
			</g>
		</g>
		<g>
			
				<path fill="#A1C453" stroke="#333333" stroke-width="1.4936" stroke-linecap="round" stroke-linejoin="round" stroke-miterlimit="10" d="
				M141.543,213.591c-0.92-2.215-0.141-3.849-4.753-5.879c-4.614-2.028-3.94,2.056-6.977,0.72c3.036,1.336-0.302,3.769,4.142,5.723
				C138.398,216.109,139.23,214.219,141.543,213.591z"/>
			<g>
				<line fill="none" x1="129.814" y1="208.432" x2="138.904" y2="212.43"/>
				<g>
					<polyline fill="none" stroke="#333333" stroke-width="0.9957" stroke-linecap="round" stroke-miterlimit="10" points="
						130.27,208.631 130.86,208.891 136.504,211.374 137.017,211.6 					"/>
					
						<line fill="none" stroke="#333333" stroke-width="0.9957" stroke-linecap="round" stroke-miterlimit="10" x1="138.448" y1="212.229" x2="138.384" y2="212.201"/>
				</g>
			</g>
		</g>
		<g>
			
				<path fill="#A1C453" stroke="#333333" stroke-width="1.4936" stroke-linecap="round" stroke-linejoin="round" stroke-miterlimit="10" d="
				M134.11,220.352c0.917-2.215,2.622-2.82,0.795-7.519c-1.825-4.698-4.238-1.334-5.44-4.426c1.202,3.092-2.878,2.45-1.119,6.976
				S132.031,219.159,134.11,220.352z"/>
			<g>
				<line fill="none" x1="129.464" y1="208.406" x2="133.063" y2="217.663"/>
				<g>
					<polyline fill="none" stroke="#333333" stroke-width="0.9957" stroke-linecap="round" stroke-miterlimit="10" points="
						129.645,208.871 129.878,209.473 132.113,215.221 132.316,215.742 					"/>
					
						<line fill="none" stroke="#333333" stroke-width="0.9957" stroke-linecap="round" stroke-miterlimit="10" x1="132.882" y1="217.199" x2="132.857" y2="217.134"/>
				</g>
			</g>
		</g>
		<g>
			
				<path fill="#A1C453" stroke="#333333" stroke-width="0.9957" stroke-linecap="round" stroke-linejoin="round" stroke-miterlimit="10" d="
				M167.839,211.283c-1.48-0.715-2.629-0.243-3.842-3.479c-1.213-3.237,1.558-2.619,0.759-4.746
				c0.799,2.127,2.591-0.063,3.759,3.052C169.682,209.229,168.356,209.725,167.839,211.283z"/>
			<g>
				<line fill="none" x1="164.756" y1="203.06" x2="167.146" y2="209.432"/>
				<g>
					<polyline fill="none" stroke="#333333" stroke-width="0.9957" stroke-linecap="round" stroke-miterlimit="10" points="
						164.931,203.525 165.157,204.13 166.225,206.977 166.422,207.502 					"/>
					
						<line fill="none" stroke="#333333" stroke-width="0.9957" stroke-linecap="round" stroke-miterlimit="10" x1="166.971" y1="208.966" x2="166.946" y2="208.9"/>
				</g>
			</g>
		</g>
		<g>
			
				<path fill="#A1C453" stroke="#333333" stroke-width="1.4936" stroke-linecap="round" stroke-linejoin="round" stroke-miterlimit="10" d="
				M179.395,209.094c-2.854,0.998-3.735,3.102-9.521,0.473c-5.783-2.631-1.378-5.43-5.187-7.161c3.809,1.73,3.289-3.451,8.859-0.917
				C179.119,204.022,178.04,206.395,179.395,209.094z"/>
			<g>
				<line fill="none" x1="164.688" y1="202.405" x2="176.085" y2="207.587"/>
				<g>
					<polyline fill="none" stroke="#333333" stroke-width="0.9957" stroke-linecap="round" stroke-miterlimit="10" points="
						165.142,202.611 165.729,202.878 173.698,206.502 174.208,206.732 					"/>
					
						<line fill="none" stroke="#333333" stroke-width="0.9957" stroke-linecap="round" stroke-miterlimit="10" x1="175.632" y1="207.381" x2="175.568" y2="207.352"/>
				</g>
			</g>
		</g>
		<g>
			
				<path fill="#A1C453" stroke="#333333" stroke-width="1.4936" stroke-linecap="round" stroke-linejoin="round" stroke-miterlimit="10" d="
				M160.043,214.479c-0.981-2.164-2.689-2.707-1.036-7.416c1.654-4.71,4.152-1.459,5.24-4.559c-1.088,3.1,2.931,2.331,1.338,6.866
				C163.992,213.908,162.062,213.23,160.043,214.479z"/>
			<g>
				<line fill="none" x1="164.247" y1="202.505" x2="160.99" y2="211.784"/>
				<g>
					<polyline fill="none" stroke="#333333" stroke-width="0.9957" stroke-linecap="round" stroke-miterlimit="10" points="
						164.082,202.975 163.868,203.583 161.857,209.311 161.672,209.839 					"/>
					
						<line fill="none" stroke="#333333" stroke-width="0.9957" stroke-linecap="round" stroke-miterlimit="10" x1="161.154" y1="211.314" x2="161.178" y2="211.248"/>
				</g>
			</g>
		</g>
		<g>
			<g>
				<path fill="#D3F46C" d="M139.377,188.854c-3.239,1.31-8.351-0.873-8.232-3.492c-2.151-1.974,0.255-6.922,3.494-8.23
					c3.237-1.309,7.078-1.016,7.577,3.985C145.207,184.86,142.614,187.545,139.377,188.854z"/>
				<g>
					<path fill="none" stroke="#333333" stroke-width="1.4936" stroke-linecap="round" stroke-miterlimit="10" d="M138.665,189.075
						c-0.316,0.063-0.632,0.131-0.956,0.143c-1.53,0.112-3.082-0.265-4.425-0.993c-0.666-0.371-1.297-0.849-1.722-1.492
						c-0.195-0.326-0.367-0.682-0.395-1.066l-0.022-0.286c-0.042-0.081-0.12-0.147-0.178-0.222
						c-0.139-0.136-0.239-0.298-0.321-0.473c-0.354-0.685-0.372-1.494-0.231-2.241c0.143-0.753,0.436-1.472,0.811-2.139
						c0.772-1.312,1.872-2.489,3.282-3.112c1.4-0.584,2.979-0.932,4.484-0.574c0.743,0.182,1.437,0.581,1.945,1.155
						c0.523,0.567,0.836,1.294,1.033,2.028c0.114,0.367,0.162,0.748,0.217,1.128c-0.009,0.204,0.153,0.34,0.254,0.5
						c0.107,0.158,0.235,0.304,0.326,0.473c0.407,0.647,0.691,1.384,0.748,2.148c0.059,0.765-0.166,1.538-0.585,2.177
						c-0.087,0.166-0.233,0.318-0.334,0.452c-0.058,0.072-0.113,0.146-0.181,0.209c-0.132,0.128-0.256,0.266-0.396,0.387"/>
					
						<line fill="none" stroke="#333333" stroke-width="1.4936" stroke-linecap="round" stroke-miterlimit="10" x1="140.059" y1="188.55" x2="140.152" y2="188.502"/>
				</g>
			</g>
			
				<ellipse transform="matrix(0.9739 0.2269 -0.2269 0.9739 44.1483 -26.5873)" opacity="0.5" fill="#FFFFFF" enable-background="new    " cx="137.7" cy="178.704" rx="1.447" ry="1.191"/>
		</g>
		<path fill="#CC924C" stroke="#333333" stroke-width="2.6551" stroke-linecap="round" stroke-miterlimit="10" d="M102.138,210.939
			l73.574-19.126c1.009-0.255,1.619-1.277,1.364-2.287l0,0c-0.256-1.008-1.279-1.618-2.288-1.363l-73.817,18.159"/>
		<g>
			
				<path fill="#A1C453" stroke="#333333" stroke-width="0.9957" stroke-linecap="round" stroke-linejoin="round" stroke-miterlimit="10" d="
				M176.865,188.081c0,0,2.901,0.414,3.451,0.649c0.442,0.185-2.375,1.563-3.477,1.875L176.865,188.081z"/>
			
				<path fill="#A1C453" stroke="#333333" stroke-width="0.9957" stroke-linecap="round" stroke-linejoin="round" stroke-miterlimit="10" d="
				M177.662,190.268l-3.993-2.097c0,0,4.139-1.736,5.883-1.041C179.552,187.13,178.235,188.865,177.662,190.268z"/>
			
				<path fill="#A1C453" stroke="#333333" stroke-width="0.9957" stroke-linecap="round" stroke-linejoin="round" stroke-miterlimit="10" d="
				M172.618,192.146c0,0,5.5,0.888,7.84-1.434l-3.92-1.813L172.618,192.146z"/>
		</g>
		<g>
			<g>
				<path fill="#D3F46C" d="M160.154,208.926c-2.567,0.188-5.662-2.498-4.988-4.311c-1.066-1.87,1.74-4.802,4.309-4.988
					c2.567-0.188,5.196,0.884,4.419,4.507C165.146,207.438,162.721,208.736,160.154,208.926z"/>
				<g>
					<path fill="none" stroke="#333333" stroke-width="0.9957" stroke-linecap="round" stroke-miterlimit="10" d="M159.656,208.928
						c-0.212-0.035-0.43-0.035-0.638-0.096c-1.125-0.238-2.146-0.863-2.954-1.673c-0.396-0.413-0.733-0.896-0.905-1.446
						c-0.07-0.276-0.113-0.567-0.054-0.85c0.17-0.292-0.148-0.523-0.135-0.818c-0.169-1.172,0.604-2.227,1.418-2.983
						c0.851-0.762,1.919-1.321,3.067-1.433c1.133-0.076,2.341,0.056,3.304,0.701c0.992,0.638,1.377,1.892,1.246,3.021
						c-0.003,0.285-0.116,0.569-0.092,0.849c0.086,0.273,0.188,0.543,0.23,0.827c0.112,0.559,0.124,1.155-0.069,1.698
						c-0.188,0.545-0.58,1.002-1.054,1.322c-0.116,0.077-0.245,0.168-0.357,0.219l-0.164,0.086
						c-0.107,0.062-0.227,0.096-0.339,0.146"/>
					
						<line fill="none" stroke="#333333" stroke-width="0.9957" stroke-linecap="round" stroke-miterlimit="10" x1="160.649" y1="208.875" x2="160.718" y2="208.863"/>
				</g>
			</g>
			
				<ellipse transform="matrix(0.8578 0.514 -0.514 0.8578 126.4821 -54.2419)" opacity="0.5" fill="#FFFFFF" enable-background="new    " cx="161.261" cy="201.443" rx="1.067" ry="0.877"/>
		</g>
	</g>
</g>
<g id="calque07">
	<g>
		
			<polygon fill="#CC924C" stroke="#333333" stroke-width="0.9957" stroke-linecap="round" stroke-linejoin="round" stroke-miterlimit="10" points="
			170.765,182.778 165.786,190.586 168.51,189.896 		"/>
		
			<polygon fill="#CC924C" stroke="#333333" stroke-width="0.7966" stroke-linecap="round" stroke-linejoin="round" stroke-miterlimit="10" points="
			164.688,202.405 155.391,196.955 158.115,196.266 		"/>
		
			<polygon fill="#CC924C" stroke="#333333" stroke-width="0.9957" stroke-linecap="round" stroke-linejoin="round" stroke-miterlimit="10" points="
			142.902,181.959 132.608,198.834 135.332,198.146 		"/>
		
			<polygon fill="#CC924C" stroke="#333333" stroke-width="0.9957" stroke-linecap="round" stroke-linejoin="round" stroke-miterlimit="10" points="
			130.196,208.773 123.631,205.404 125.388,204.96 		"/>
		<g>
			
				<path fill="#A1C453" stroke="#333333" stroke-width="1.4936" stroke-linecap="round" stroke-linejoin="round" stroke-miterlimit="10" d="
				M121.532,188.012c1.478,2.236,3.477,2.535,2.476,8.076c-1.003,5.54-4.365,2.364-5.025,6.01c0.66-3.646-3.679-2.074-2.713-7.41
				C117.235,189.35,119.507,189.763,121.532,188.012z"/>
			<g>
				<line fill="none" x1="118.982" y1="202.098" x2="120.958" y2="191.183"/>
				<g>
					<polyline fill="none" stroke="#333333" stroke-width="0.9957" stroke-linecap="round" stroke-miterlimit="10" points="
						119.071,201.607 119.186,200.973 120.491,193.763 120.59,193.211 					"/>
					
						<line fill="none" stroke="#333333" stroke-width="0.9957" stroke-linecap="round" stroke-miterlimit="10" x1="120.869" y1="191.673" x2="120.856" y2="191.741"/>
				</g>
			</g>
		</g>
		<g>
			
				<path fill="#A1C453" stroke="#333333" stroke-width="1.4936" stroke-linecap="round" stroke-linejoin="round" stroke-miterlimit="10" d="
				M179.56,171.483c-2.65,0.392-4.207-0.899-7.667,3.544c-3.46,4.443,1.149,4.829-1.128,7.751c2.277-2.922,4,1.358,7.332-2.921
				C181.429,175.578,179.606,174.16,179.56,171.483z"/>
			<g>
				<line fill="none" x1="170.765" y1="182.778" x2="177.581" y2="174.027"/>
				<g>
					<polyline fill="none" stroke="#333333" stroke-width="0.9957" stroke-linecap="round" stroke-miterlimit="10" points="
						171.07,182.386 171.467,181.877 175.97,176.096 176.314,175.653 					"/>
					
						<line fill="none" stroke="#333333" stroke-width="0.9957" stroke-linecap="round" stroke-miterlimit="10" x1="177.275" y1="174.42" x2="177.232" y2="174.476"/>
				</g>
			</g>
		</g>
		<g>
			
				<path fill="#A1C453" stroke="#333333" stroke-width="1.4936" stroke-linecap="round" stroke-linejoin="round" stroke-miterlimit="10" d="
				M157.491,175.049c-1.044,2.838,0.022,4.856-5.685,7.652c-5.707,2.795-5.069-2.386-8.824-0.546c3.754-1.84-0.574-4.729,4.92-7.424
				C153.399,172.04,154.545,174.379,157.491,175.049z"/>
			<g>
				<line fill="none" x1="142.983" y1="182.155" x2="154.226" y2="176.648"/>
				<g>
					<polyline fill="none" stroke="#333333" stroke-width="0.9957" stroke-linecap="round" stroke-miterlimit="10" points="
						143.431,181.937 144.01,181.652 151.871,177.802 152.375,177.556 					"/>
					
						<line fill="none" stroke="#333333" stroke-width="0.9957" stroke-linecap="round" stroke-miterlimit="10" x1="153.778" y1="176.867" x2="153.716" y2="176.898"/>
				</g>
			</g>
		</g>
		<g>
			
				<path fill="#A1C453" stroke="#333333" stroke-width="1.4936" stroke-linecap="round" stroke-linejoin="round" stroke-miterlimit="10" d="
				M147.776,166.919c1.271,2.745,3.451,3.418,1.393,9.429c-2.059,6.011-5.271,1.898-6.625,5.854
				c1.354-3.956-3.752-2.939-1.771-8.728C142.756,167.683,145.221,168.526,147.776,166.919z"/>
			<g>
				<line fill="none" x1="142.543" y1="182.202" x2="146.599" y2="170.358"/>
				<g>
					<polyline fill="none" stroke="#333333" stroke-width="0.9957" stroke-linecap="round" stroke-miterlimit="10" points="
						142.705,181.731 142.914,181.121 145.75,172.839 145.931,172.309 					"/>
					
						<line fill="none" stroke="#333333" stroke-width="0.9957" stroke-linecap="round" stroke-miterlimit="10" x1="146.438" y1="170.829" x2="146.415" y2="170.896"/>
				</g>
			</g>
		</g>
		<g>
			
				<path fill="#A1C453" stroke="#333333" stroke-width="1.4936" stroke-linecap="round" stroke-linejoin="round" stroke-miterlimit="10" d="
				M141.543,213.591c-0.92-2.215-0.141-3.849-4.753-5.879c-4.614-2.028-3.94,2.056-6.977,0.72c3.036,1.336-0.302,3.769,4.142,5.723
				C138.398,216.109,139.23,214.219,141.543,213.591z"/>
			<g>
				<line fill="none" x1="129.814" y1="208.432" x2="138.904" y2="212.43"/>
				<g>
					<polyline fill="none" stroke="#333333" stroke-width="0.9957" stroke-linecap="round" stroke-miterlimit="10" points="
						130.27,208.631 130.86,208.891 136.504,211.374 137.017,211.6 					"/>
					
						<line fill="none" stroke="#333333" stroke-width="0.9957" stroke-linecap="round" stroke-miterlimit="10" x1="138.448" y1="212.229" x2="138.384" y2="212.201"/>
				</g>
			</g>
		</g>
		<g>
			
				<path fill="#A1C453" stroke="#333333" stroke-width="1.4936" stroke-linecap="round" stroke-linejoin="round" stroke-miterlimit="10" d="
				M134.11,220.352c0.916-2.218,2.622-2.82,0.795-7.519c-1.825-4.698-4.238-1.334-5.44-4.426c1.202,3.092-2.878,2.45-1.119,6.976
				S132.031,219.159,134.11,220.352z"/>
			<g>
				<line fill="none" x1="129.464" y1="208.406" x2="133.063" y2="217.663"/>
				<g>
					<polyline fill="none" stroke="#333333" stroke-width="0.9957" stroke-linecap="round" stroke-miterlimit="10" points="
						129.645,208.871 129.878,209.473 132.113,215.221 132.316,215.742 					"/>
					
						<line fill="none" stroke="#333333" stroke-width="0.9957" stroke-linecap="round" stroke-miterlimit="10" x1="132.882" y1="217.199" x2="132.857" y2="217.134"/>
				</g>
			</g>
		</g>
		<g>
			
				<path fill="#A1C453" stroke="#333333" stroke-width="1.4936" stroke-linecap="round" stroke-linejoin="round" stroke-miterlimit="10" d="
				M170.362,217.975c-2.725-1.313-4.836-0.447-7.065-6.396c-2.229-5.951,2.865-4.814,1.396-8.73c1.47,3.916,4.767-0.116,6.912,5.615
				C173.754,214.193,171.313,215.107,170.362,217.975z"/>
			<g>
				<line fill="none" x1="164.692" y1="202.848" x2="169.087" y2="214.568"/>
				<g>
					<polyline fill="none" stroke="#333333" stroke-width="0.9957" stroke-linecap="round" stroke-miterlimit="10" points="
						164.867,203.313 165.094,203.918 168.166,212.113 168.363,212.639 					"/>
					
						<line fill="none" stroke="#333333" stroke-width="0.9957" stroke-linecap="round" stroke-miterlimit="10" x1="168.912" y1="214.104" x2="168.888" y2="214.037"/>
				</g>
			</g>
		</g>
		<g>
			
				<path fill="#A1C453" stroke="#333333" stroke-width="1.4936" stroke-linecap="round" stroke-linejoin="round" stroke-miterlimit="10" d="
				M179.395,209.094c-2.854,0.998-3.735,3.102-9.521,0.473c-5.784-2.631-1.378-5.43-5.187-7.161c3.809,1.73,3.289-3.451,8.859-0.917
				C179.119,204.022,178.04,206.395,179.395,209.094z"/>
			<g>
				<line fill="none" x1="164.688" y1="202.405" x2="176.085" y2="207.587"/>
				<g>
					<polyline fill="none" stroke="#333333" stroke-width="0.9957" stroke-linecap="round" stroke-miterlimit="10" points="
						165.142,202.611 165.729,202.878 173.698,206.502 174.208,206.732 					"/>
					
						<line fill="none" stroke="#333333" stroke-width="0.9957" stroke-linecap="round" stroke-miterlimit="10" x1="175.632" y1="207.381" x2="175.568" y2="207.352"/>
				</g>
			</g>
		</g>
		<g>
			
				<path fill="#A1C453" stroke="#333333" stroke-width="1.4936" stroke-linecap="round" stroke-linejoin="round" stroke-miterlimit="10" d="
				M160.043,214.479c-0.981-2.164-2.689-2.705-1.036-7.416c1.654-4.71,4.152-1.459,5.24-4.561c-1.088,3.102,2.931,2.333,1.338,6.868
				C163.992,213.908,162.062,213.23,160.043,214.479z"/>
			<g>
				<line fill="none" x1="164.247" y1="202.503" x2="160.99" y2="211.784"/>
				<g>
					<polyline fill="none" stroke="#333333" stroke-width="0.9957" stroke-linecap="round" stroke-miterlimit="10" points="
						164.082,202.973 163.868,203.581 161.857,209.311 161.672,209.839 					"/>
					
						<line fill="none" stroke="#333333" stroke-width="0.9957" stroke-linecap="round" stroke-miterlimit="10" x1="161.154" y1="211.314" x2="161.178" y2="211.248"/>
				</g>
			</g>
		</g>
		<g>
			<g>
				<path fill="#EF4529" d="M139.377,188.854c-3.239,1.31-8.351-0.872-8.232-3.492c-2.151-1.974,0.255-6.922,3.494-8.23
					c3.237-1.309,7.078-1.016,7.577,3.985C145.207,184.86,142.614,187.545,139.377,188.854z"/>
				<g>
					<path fill="none" stroke="#333333" stroke-width="1.4936" stroke-linecap="round" stroke-miterlimit="10" d="M138.665,189.075
						c-0.316,0.063-0.632,0.131-0.956,0.143c-1.53,0.112-3.082-0.265-4.425-0.993c-0.666-0.371-1.297-0.849-1.721-1.492
						c-0.195-0.326-0.368-0.682-0.395-1.065l-0.022-0.287c-0.041-0.081-0.12-0.147-0.178-0.222
						c-0.139-0.136-0.239-0.298-0.321-0.472c-0.354-0.686-0.372-1.495-0.231-2.241c0.143-0.754,0.436-1.473,0.81-2.14
						c0.772-1.312,1.872-2.489,3.283-3.112c1.4-0.584,2.979-0.932,4.484-0.574c0.743,0.182,1.437,0.581,1.945,1.155
						c0.523,0.567,0.836,1.294,1.033,2.028c0.114,0.367,0.162,0.748,0.217,1.128c-0.009,0.204,0.153,0.34,0.254,0.5
						c0.107,0.158,0.235,0.304,0.325,0.473c0.407,0.647,0.692,1.384,0.748,2.148c0.059,0.765-0.166,1.538-0.585,2.177
						c-0.087,0.166-0.233,0.318-0.334,0.452c-0.058,0.072-0.113,0.146-0.181,0.209c-0.132,0.128-0.256,0.266-0.396,0.387"/>
					
						<line fill="none" stroke="#333333" stroke-width="1.4936" stroke-linecap="round" stroke-miterlimit="10" x1="140.059" y1="188.55" x2="140.152" y2="188.502"/>
				</g>
			</g>
			
				<ellipse transform="matrix(0.9739 0.2268 -0.2268 0.9739 44.1169 -26.5687)" opacity="0.5" fill="#FFFFFF" enable-background="new    " cx="137.688" cy="178.716" rx="1.447" ry="1.191"/>
		</g>
		<g>
			<g>
				<path fill="#D3F46C" d="M158.187,210.389c-3.482-0.246-7.118-4.449-5.86-6.75c-1.068-2.718,3.268-6.108,6.751-5.862
					c3.48,0.245,6.804,2.195,5.057,6.907C165.177,209.359,161.669,210.634,158.187,210.389z"/>
				<g>
					<path fill="none" stroke="#333333" stroke-width="1.4936" stroke-linecap="round" stroke-miterlimit="10" d="M157.45,210.273
						c-0.313-0.082-0.625-0.16-0.922-0.291c-1.424-0.571-2.651-1.59-3.54-2.836c-0.435-0.625-0.792-1.33-0.89-2.096
						c-0.032-0.38-0.03-0.774,0.114-1.131l0.105-0.268c-0.003-0.091-0.043-0.185-0.063-0.276c-0.065-0.183-0.083-0.373-0.081-0.565
						c-0.018-0.771,0.323-1.507,0.776-2.115c0.458-0.614,1.037-1.131,1.667-1.566c1.269-0.84,2.773-1.415,4.314-1.355
						c1.516,0.09,3.084,0.471,4.279,1.453c0.589,0.49,1.035,1.153,1.241,1.893c0.222,0.739,0.184,1.529,0.037,2.276
						c-0.06,0.38-0.185,0.742-0.301,1.107c-0.099,0.18-0.012,0.373,0.01,0.561c0.025,0.189,0.076,0.376,0.084,0.568
						c0.082,0.76,0.014,1.547-0.271,2.258c-0.283,0.713-0.823,1.31-1.48,1.699c-0.15,0.11-0.35,0.184-0.498,0.26
						c-0.083,0.039-0.165,0.082-0.255,0.107c-0.176,0.059-0.347,0.127-0.524,0.175"/>
					
						<line fill="none" stroke="#333333" stroke-width="1.4936" stroke-linecap="round" stroke-miterlimit="10" x1="158.933" y1="210.415" x2="159.038" y2="210.413"/>
				</g>
			</g>
			
				<ellipse transform="matrix(0.7756 0.6312 -0.6312 0.7756 162.7465 -56.712)" opacity="0.5" fill="#FFFFFF" enable-background="new    " cx="161.135" cy="200.535" rx="1.446" ry="1.19"/>
		</g>
		<path fill="#CC924C" stroke="#333333" stroke-width="2.6551" stroke-linecap="round" stroke-miterlimit="10" d="M102.138,210.939
			l79.501-20.625c1.008-0.255,1.618-1.277,1.363-2.287l0,0c-0.255-1.007-1.279-1.618-2.287-1.363l-79.745,19.658"/>
		<g>
			
				<path fill="#A1C453" stroke="#333333" stroke-width="0.9957" stroke-linecap="round" stroke-linejoin="round" stroke-miterlimit="10" d="
				M182.792,186.582c0,0,2.901,0.414,3.453,0.648c0.44,0.186-2.375,1.564-3.478,1.876L182.792,186.582z"/>
			
				<path fill="#A1C453" stroke="#333333" stroke-width="0.9957" stroke-linecap="round" stroke-linejoin="round" stroke-miterlimit="10" d="
				M183.59,188.769l-3.993-2.098c0,0,4.138-1.735,5.882-1.04C185.479,185.631,184.163,187.365,183.59,188.769z"/>
			
				<path fill="#A1C453" stroke="#333333" stroke-width="0.9957" stroke-linecap="round" stroke-linejoin="round" stroke-miterlimit="10" d="
				M178.545,190.646c0,0,5.5,0.887,7.84-1.434l-3.919-1.813L178.545,190.646z"/>
		</g>
	</g>
</g>
<g id="calque08">
	<g>
		
			<polygon fill="#CC924C" stroke="#333333" stroke-width="0.9957" stroke-linecap="round" stroke-linejoin="round" stroke-miterlimit="10" points="
			170.764,182.776 165.786,190.584 168.509,189.895 		"/>
		
			<polygon fill="#CC924C" stroke="#333333" stroke-width="0.7966" stroke-linecap="round" stroke-linejoin="round" stroke-miterlimit="10" points="
			164.688,202.403 155.39,196.953 158.114,196.265 		"/>
		
			<polygon fill="#CC924C" stroke="#333333" stroke-width="0.9957" stroke-linecap="round" stroke-linejoin="round" stroke-miterlimit="10" points="
			142.901,181.956 132.607,198.831 135.331,198.143 		"/>
		
			<polygon fill="#CC924C" stroke="#333333" stroke-width="0.9957" stroke-linecap="round" stroke-linejoin="round" stroke-miterlimit="10" points="
			130.195,208.771 123.63,205.4 125.387,204.956 		"/>
		<g>
			
				<path fill="#A1C453" stroke="#333333" stroke-width="1.4936" stroke-linecap="round" stroke-linejoin="round" stroke-miterlimit="10" d="
				M121.531,188.009c1.479,2.236,3.478,2.535,2.475,8.076c-1.002,5.541-4.364,2.364-5.024,6.01c0.661-3.646-3.679-2.074-2.713-7.411
				C117.234,189.348,119.506,189.759,121.531,188.009z"/>
			<g>
				<line fill="none" x1="118.981" y1="202.095" x2="120.957" y2="191.179"/>
				<g>
					<polyline fill="none" stroke="#333333" stroke-width="0.9957" stroke-linecap="round" stroke-miterlimit="10" points="
						119.07,201.604 119.185,200.97 120.49,193.759 120.589,193.207 					"/>
					
						<line fill="none" stroke="#333333" stroke-width="0.9957" stroke-linecap="round" stroke-miterlimit="10" x1="120.868" y1="191.669" x2="120.855" y2="191.737"/>
				</g>
			</g>
		</g>
		<g>
			
				<path fill="#A1C453" stroke="#333333" stroke-width="1.4936" stroke-linecap="round" stroke-linejoin="round" stroke-miterlimit="10" d="
				M179.56,171.481c-2.651,0.391-4.209-0.901-7.668,3.543c-3.46,4.442,1.15,4.83-1.128,7.752c2.278-2.922,4,1.358,7.332-2.922
				C181.428,175.576,179.606,174.157,179.56,171.481z"/>
			<g>
				<line fill="none" x1="170.764" y1="182.776" x2="177.579" y2="174.024"/>
				<g>
					<polyline fill="none" stroke="#333333" stroke-width="0.9957" stroke-linecap="round" stroke-miterlimit="10" points="
						171.069,182.384 171.466,181.875 175.968,176.093 176.313,175.65 					"/>
					
						<line fill="none" stroke="#333333" stroke-width="0.9957" stroke-linecap="round" stroke-miterlimit="10" x1="177.273" y1="174.417" x2="177.23" y2="174.473"/>
				</g>
			</g>
		</g>
		<g>
			
				<path fill="#A1C453" stroke="#333333" stroke-width="1.4936" stroke-linecap="round" stroke-linejoin="round" stroke-miterlimit="10" d="
				M157.49,175.047c-1.044,2.839,0.021,4.855-5.685,7.65c-5.706,2.796-5.069-2.384-8.823-0.544c3.754-1.84-0.575-4.731,4.92-7.424
				C153.399,172.037,154.545,174.376,157.49,175.047z"/>
			<g>
				<line fill="none" x1="142.983" y1="182.153" x2="154.225" y2="176.645"/>
				<g>
					<polyline fill="none" stroke="#333333" stroke-width="0.9957" stroke-linecap="round" stroke-miterlimit="10" points="
						143.43,181.935 144.009,181.65 151.87,177.799 152.374,177.552 					"/>
					
						<line fill="none" stroke="#333333" stroke-width="0.9957" stroke-linecap="round" stroke-miterlimit="10" x1="153.777" y1="176.863" x2="153.715" y2="176.895"/>
				</g>
			</g>
		</g>
		<g>
			
				<path fill="#A1C453" stroke="#333333" stroke-width="1.4936" stroke-linecap="round" stroke-linejoin="round" stroke-miterlimit="10" d="
				M147.776,166.916c1.271,2.745,3.451,3.417,1.393,9.429c-2.059,6.012-5.271,1.898-6.625,5.855
				c1.354-3.957-3.752-2.939-1.771-8.729C142.755,167.68,145.22,168.523,147.776,166.916z"/>
			<g>
				<line fill="none" x1="142.543" y1="182.2" x2="146.598" y2="170.355"/>
				<g>
					<polyline fill="none" stroke="#333333" stroke-width="0.9957" stroke-linecap="round" stroke-miterlimit="10" points="
						142.704,181.729 142.913,181.119 145.749,172.836 145.931,172.306 					"/>
					
						<line fill="none" stroke="#333333" stroke-width="0.9957" stroke-linecap="round" stroke-miterlimit="10" x1="146.437" y1="170.826" x2="146.414" y2="170.893"/>
				</g>
			</g>
		</g>
		<g>
			
				<path fill="#A1C453" stroke="#333333" stroke-width="1.4936" stroke-linecap="round" stroke-linejoin="round" stroke-miterlimit="10" d="
				M141.542,213.59c-0.919-2.218-0.141-3.852-4.753-5.881c-4.613-2.029-3.94,2.057-6.977,0.719c3.036,1.338-0.302,3.77,4.142,5.725
				C138.398,216.105,139.229,214.215,141.542,213.59z"/>
			<g>
				<line fill="none" x1="129.813" y1="208.428" x2="138.903" y2="212.428"/>
				<g>
					<polyline fill="none" stroke="#333333" stroke-width="0.9957" stroke-linecap="round" stroke-miterlimit="10" points="
						130.269,208.628 130.859,208.889 136.503,211.371 137.016,211.598 					"/>
					
						<line fill="none" stroke="#333333" stroke-width="0.9957" stroke-linecap="round" stroke-miterlimit="10" x1="138.447" y1="212.227" x2="138.383" y2="212.197"/>
				</g>
			</g>
		</g>
		<g>
			
				<path fill="#A1C453" stroke="#333333" stroke-width="1.4936" stroke-linecap="round" stroke-linejoin="round" stroke-miterlimit="10" d="
				M134.109,220.348c0.917-2.216,2.622-2.82,0.795-7.519c-1.825-4.697-4.238-1.333-5.439-4.425c1.202,3.092-2.878,2.451-1.119,6.976
				S132.03,219.156,134.109,220.348z"/>
			<g>
				<line fill="none" x1="129.463" y1="208.404" x2="133.063" y2="217.66"/>
				<g>
					<polyline fill="none" stroke="#333333" stroke-width="0.9957" stroke-linecap="round" stroke-miterlimit="10" points="
						129.644,208.869 129.877,209.471 132.112,215.217 132.315,215.738 					"/>
					
						<line fill="none" stroke="#333333" stroke-width="0.9957" stroke-linecap="round" stroke-miterlimit="10" x1="132.882" y1="217.195" x2="132.856" y2="217.131"/>
				</g>
			</g>
		</g>
		<g>
			
				<path fill="#A1C453" stroke="#333333" stroke-width="1.4936" stroke-linecap="round" stroke-linejoin="round" stroke-miterlimit="10" d="
				M170.362,217.973c-2.726-1.313-4.837-0.449-7.066-6.397c-2.229-5.95,2.865-4.813,1.396-8.73c1.469,3.917,4.766-0.114,6.912,5.615
				C173.753,214.191,171.313,215.105,170.362,217.973z"/>
			<g>
				<line fill="none" x1="164.692" y1="202.844" x2="169.086" y2="214.566"/>
				<g>
					<polyline fill="none" stroke="#333333" stroke-width="0.9957" stroke-linecap="round" stroke-miterlimit="10" points="
						164.867,203.31 165.094,203.914 168.166,212.111 168.362,212.637 					"/>
					
						<line fill="none" stroke="#333333" stroke-width="0.9957" stroke-linecap="round" stroke-miterlimit="10" x1="168.911" y1="214.102" x2="168.887" y2="214.035"/>
				</g>
			</g>
		</g>
		<g>
			
				<path fill="#A1C453" stroke="#333333" stroke-width="1.4936" stroke-linecap="round" stroke-linejoin="round" stroke-miterlimit="10" d="
				M179.394,209.09c-2.854,0.998-3.735,3.104-9.52,0.475c-5.785-2.633-1.379-5.432-5.187-7.161c3.808,1.729,3.288-3.452,8.857-0.919
				C179.118,204.02,178.039,206.391,179.394,209.09z"/>
			<g>
				<line fill="none" x1="164.688" y1="202.403" x2="176.085" y2="207.585"/>
				<g>
					<polyline fill="none" stroke="#333333" stroke-width="0.9957" stroke-linecap="round" stroke-miterlimit="10" points="
						165.142,202.609 165.729,202.876 173.698,206.5 174.208,206.73 					"/>
					
						<line fill="none" stroke="#333333" stroke-width="0.9957" stroke-linecap="round" stroke-miterlimit="10" x1="175.632" y1="207.379" x2="175.568" y2="207.35"/>
				</g>
			</g>
		</g>
		<g>
			
				<path fill="#A1C453" stroke="#333333" stroke-width="1.4936" stroke-linecap="round" stroke-linejoin="round" stroke-miterlimit="10" d="
				M160.042,214.477c-0.98-2.164-2.689-2.707-1.036-7.416c1.654-4.709,4.153-1.459,5.241-4.56c-1.088,3.101,2.93,2.331,1.338,6.868
				C163.991,213.906,162.061,213.229,160.042,214.477z"/>
			<g>
				<line fill="none" x1="164.247" y1="202.501" x2="160.989" y2="211.781"/>
				<g>
					<polyline fill="none" stroke="#333333" stroke-width="0.9957" stroke-linecap="round" stroke-miterlimit="10" points="
						164.082,202.971 163.868,203.579 161.857,209.309 161.671,209.836 					"/>
					
						<line fill="none" stroke="#333333" stroke-width="0.9957" stroke-linecap="round" stroke-miterlimit="10" x1="161.153" y1="211.313" x2="161.177" y2="211.245"/>
				</g>
			</g>
		</g>
		<g>
			<g>
				<path fill="#EF4529" d="M139.376,188.852c-3.239,1.308-8.351-0.873-8.232-3.493c-2.151-1.973,0.255-6.923,3.494-8.229
					c3.237-1.309,7.078-1.017,7.577,3.983C145.207,184.858,142.613,187.543,139.376,188.852z"/>
				<g>
					<path fill="none" stroke="#333333" stroke-width="1.4936" stroke-linecap="round" stroke-miterlimit="10" d="M138.664,189.073
						c-0.316,0.063-0.632,0.13-0.956,0.142c-1.53,0.112-3.081-0.265-4.425-0.993c-0.666-0.371-1.298-0.849-1.722-1.492
						c-0.195-0.326-0.368-0.682-0.395-1.065l-0.022-0.287c-0.041-0.081-0.12-0.146-0.178-0.221
						c-0.139-0.137-0.239-0.299-0.321-0.473c-0.354-0.686-0.372-1.495-0.231-2.241c0.143-0.754,0.436-1.472,0.811-2.14
						c0.772-1.312,1.872-2.489,3.283-3.111c1.4-0.584,2.979-0.933,4.483-0.574c0.743,0.182,1.437,0.581,1.946,1.154
						c0.523,0.567,0.836,1.294,1.032,2.029c0.114,0.367,0.162,0.748,0.217,1.127c-0.01,0.205,0.154,0.34,0.254,0.5
						c0.107,0.158,0.235,0.305,0.325,0.474c0.407,0.647,0.691,1.384,0.747,2.148c0.058,0.765-0.166,1.538-0.585,2.177
						c-0.087,0.166-0.234,0.318-0.334,0.452c-0.058,0.072-0.113,0.146-0.181,0.209c-0.133,0.128-0.256,0.266-0.396,0.387"/>
					
						<line fill="none" stroke="#333333" stroke-width="1.4936" stroke-linecap="round" stroke-miterlimit="10" x1="140.059" y1="188.548" x2="140.152" y2="188.5"/>
				</g>
			</g>
			
				<ellipse transform="matrix(0.9739 0.2271 -0.2271 0.9739 44.1828 -26.598)" opacity="0.5" fill="#FFFFFF" enable-background="new    " cx="137.681" cy="178.71" rx="1.447" ry="1.19"/>
		</g>
		<g>
			<g>
				<path fill="#EF4529" d="M158.229,210.557c-3.482-0.246-7.118-4.447-5.86-6.75c-1.068-2.717,3.268-6.106,6.751-5.862
					c3.481,0.245,6.804,2.196,5.057,6.908C165.22,209.529,161.712,210.803,158.229,210.557z"/>
				<g>
					<path fill="none" stroke="#333333" stroke-width="1.4936" stroke-linecap="round" stroke-miterlimit="10" d="M157.492,210.443
						c-0.313-0.084-0.625-0.162-0.922-0.293c-1.424-0.57-2.651-1.59-3.538-2.834c-0.436-0.627-0.793-1.332-0.891-2.097
						c-0.032-0.379-0.03-0.773,0.114-1.131l0.105-0.267c-0.003-0.092-0.043-0.186-0.063-0.277c-0.065-0.183-0.083-0.373-0.081-0.565
						c-0.018-0.771,0.323-1.507,0.777-2.115c0.459-0.614,1.038-1.131,1.667-1.565c1.269-0.84,2.773-1.415,4.314-1.356
						c1.516,0.09,3.085,0.471,4.279,1.454c0.588,0.49,1.035,1.153,1.24,1.893c0.222,0.739,0.184,1.529,0.037,2.276
						c-0.06,0.38-0.185,0.743-0.301,1.108c-0.099,0.18-0.012,0.372,0.01,0.56c0.025,0.19,0.076,0.377,0.084,0.568
						c0.082,0.761,0.014,1.548-0.271,2.259c-0.283,0.713-0.823,1.31-1.48,1.698c-0.151,0.11-0.351,0.183-0.498,0.261
						c-0.084,0.039-0.166,0.082-0.256,0.107c-0.175,0.057-0.347,0.126-0.523,0.174"/>
					
						<line fill="none" stroke="#333333" stroke-width="1.4936" stroke-linecap="round" stroke-miterlimit="10" x1="158.976" y1="210.583" x2="159.081" y2="210.581"/>
				</g>
			</g>
			
				<ellipse transform="matrix(0.7755 0.6314 -0.6314 0.7755 162.915 -56.6974)" opacity="0.5" fill="#FFFFFF" enable-background="new    " cx="161.177" cy="200.719" rx="1.445" ry="1.191"/>
		</g>
		<path fill="#CC924C" stroke="#333333" stroke-width="2.6551" stroke-linecap="round" stroke-miterlimit="10" d="M102.138,210.938
			l79.501-20.625c1.008-0.255,1.617-1.279,1.362-2.288l0,0c-0.255-1.008-1.278-1.618-2.286-1.363l-79.746,19.659"/>
		<g>
			
				<path fill="#A1C453" stroke="#333333" stroke-width="0.9957" stroke-linecap="round" stroke-linejoin="round" stroke-miterlimit="10" d="
				M182.792,186.58c0,0,2.901,0.414,3.452,0.647c0.441,0.185-2.375,1.564-3.477,1.876L182.792,186.58z"/>
			
				<path fill="#A1C453" stroke="#333333" stroke-width="0.9957" stroke-linecap="round" stroke-linejoin="round" stroke-miterlimit="10" d="
				M183.589,188.766l-3.992-2.097c0,0,4.137-1.735,5.881-1.04C185.478,185.629,184.163,187.361,183.589,188.766z"/>
			
				<path fill="#A1C453" stroke="#333333" stroke-width="0.9957" stroke-linecap="round" stroke-linejoin="round" stroke-miterlimit="10" d="
				M178.544,190.645c0,0,5.5,0.886,7.84-1.434l-3.919-1.814L178.544,190.645z"/>
		</g>
	</g>
</g>
</svg>
