<?xml version="1.0" encoding="utf-8"?>
<!-- Generator: Adobe Illustrator 16.0.0, SVG Export Plug-In . SVG Version: 6.00 Build 0)  -->
<!DOCTYPE svg PUBLIC "-//W3C//DTD SVG 1.1//EN" "http://www.w3.org/Graphics/SVG/1.1/DTD/svg11.dtd">
<svg version="1.1" id="Calque_1" xmlns="http://www.w3.org/2000/svg" xmlns:xlink="http://www.w3.org/1999/xlink" x="0px" y="0px"
	 width="340px" height="410px" viewBox="0 0 340 410" enable-background="new 0 0 340 410" xml:space="preserve">
<g id="calque00">
	<g>
		<path fill="#CC924C" stroke="#333333" stroke-width="2.4893" stroke-linecap="round" stroke-miterlimit="10" d="M244.7,175.94
			l-1.607-8.677c-0.246-1.009,0.373-2.027,1.38-2.275l0,0c1.011-0.247,2.031,0.373,2.276,1.382l2.578,8.439"/>
		<g>
			
				<path fill="#A1C453" stroke="#333333" stroke-width="0.9957" stroke-linecap="round" stroke-linejoin="round" stroke-miterlimit="10" d="
				M245.849,164.497c0,0-1.724-2.369-2.188-2.747c-0.371-0.301-0.269,2.834-0.029,3.952L245.849,164.497z"/>
			
				<path fill="#A1C453" stroke="#333333" stroke-width="0.9957" stroke-linecap="round" stroke-linejoin="round" stroke-miterlimit="10" d="
				M243.544,164.819l3.725,2.543c0,0-0.403-4.467-1.834-5.683C245.435,161.68,244.517,163.653,243.544,164.819z"/>
			
				<path fill="#A1C453" stroke="#333333" stroke-width="0.9957" stroke-linecap="round" stroke-linejoin="round" stroke-miterlimit="10" d="
				M244.249,170.156c0,0-3.361-4.445-2.405-7.599l3.437,2.612L244.249,170.156z"/>
		</g>
	</g>
</g>
<g id="calque01">
	<g>
		<g>
			
				<path fill="#A1C453" stroke="#333333" stroke-width="0.9957" stroke-linecap="round" stroke-linejoin="round" stroke-miterlimit="10" d="
				M248.036,149.614c-1.205,0.24-1.947-0.313-3.427,1.804c-1.481,2.118,0.642,2.187-0.334,3.58c0.976-1.394,1.865,0.524,3.29-1.515
				C248.989,151.445,248.122,150.84,248.036,149.614z"/>
			<g>
				<line fill="none" x1="244.276" y1="154.998" x2="247.19" y2="150.825"/>
				<g>
					<polyline fill="none" stroke="#333333" stroke-width="0.9957" stroke-linecap="round" stroke-miterlimit="10" points="
						244.562,154.59 244.931,154.061 245.689,152.975 246.01,152.516 					"/>
					
						<line fill="none" stroke="#333333" stroke-width="0.9957" stroke-linecap="round" stroke-miterlimit="10" x1="246.905" y1="151.233" x2="246.865" y2="151.291"/>
				</g>
			</g>
		</g>
		<path fill="#CC924C" stroke="#333333" stroke-width="2.4893" stroke-linecap="round" stroke-miterlimit="10" d="M244.7,175.94
			l-6.021-26.719c-0.246-1.009,0.37-2.028,1.381-2.275l0,0c1.01-0.246,2.031,0.373,2.277,1.381l6.988,26.482"/>
		<g>
			
				<path fill="#A1C453" stroke="#333333" stroke-width="0.9957" stroke-linecap="round" stroke-linejoin="round" stroke-miterlimit="10" d="
				M241.438,146.456c0,0-1.729-2.371-2.19-2.748c-0.369-0.303-0.27,2.831-0.027,3.951L241.438,146.456z"/>
			
				<path fill="#A1C453" stroke="#333333" stroke-width="0.9957" stroke-linecap="round" stroke-linejoin="round" stroke-miterlimit="10" d="
				M239.131,146.776l3.727,2.544c0,0-0.406-4.468-1.837-5.686C241.021,143.635,240.104,145.612,239.131,146.776z"/>
			
				<path fill="#A1C453" stroke="#333333" stroke-width="0.9957" stroke-linecap="round" stroke-linejoin="round" stroke-miterlimit="10" d="
				M239.838,152.112c0,0-3.362-4.444-2.407-7.599l3.438,2.612L239.838,152.112z"/>
		</g>
	</g>
</g>
<g id="calque02">
	<g>
		<g>
			
				<path fill="#A1C453" stroke="#333333" stroke-width="1.4936" stroke-linecap="round" stroke-linejoin="round" stroke-miterlimit="10" d="
				M256.02,147.786c-2.673-0.217-3.899-1.822-8.269,1.729c-4.368,3.554,0.037,4.965-2.838,7.303c2.875-2.338,3.592,2.22,7.799-1.202
				C256.92,152.195,255.463,150.405,256.02,147.786z"/>
			<g>
				<line fill="none" x1="244.913" y1="156.818" x2="253.521" y2="149.818"/>
				<g>
					<polyline fill="none" stroke="#333333" stroke-width="0.9957" stroke-linecap="round" stroke-miterlimit="10" points="
						245.3,156.504 245.8,156.098 251.486,151.473 251.921,151.119 					"/>
					
						<line fill="none" stroke="#333333" stroke-width="0.9957" stroke-linecap="round" stroke-miterlimit="10" x1="253.134" y1="150.133" x2="253.08" y2="150.177"/>
				</g>
			</g>
		</g>
		<g>
			
				<path fill="#A1C453" stroke="#333333" stroke-width="0.9957" stroke-linecap="round" stroke-linejoin="round" stroke-miterlimit="10" d="
				M233.433,148.329c0.258,1.18-0.277,1.92,1.826,3.336c2.102,1.418,2.134-0.665,3.519,0.268c-1.385-0.933,0.486-1.838-1.537-3.203
				C235.216,147.364,234.632,148.226,233.433,148.329z"/>
			<g>
				<line fill="none" x1="238.777" y1="151.933" x2="235.079" y2="149.478"/>
				<g>
					<polyline fill="none" stroke="#333333" stroke-width="0.9957" stroke-linecap="round" stroke-miterlimit="10" points="
						238.362,151.657 237.825,151.301 237.264,150.928 236.797,150.617 					"/>
					
						<line fill="none" stroke="#333333" stroke-width="0.9957" stroke-linecap="round" stroke-miterlimit="10" x1="235.494" y1="149.753" x2="235.552" y2="149.792"/>
				</g>
			</g>
		</g>
		<path fill="#CC924C" stroke="#333333" stroke-width="2.4893" stroke-linecap="round" stroke-miterlimit="10" d="M244.7,175.94
			l-8.053-35.029c-0.247-1.011,0.37-2.03,1.383-2.277l0,0c1.01-0.247,2.027,0.372,2.274,1.383l9.021,34.793"/>
		<g>
			
				<path fill="#A1C453" stroke="#333333" stroke-width="0.9957" stroke-linecap="round" stroke-linejoin="round" stroke-miterlimit="10" d="
				M239.406,138.144c0,0-1.726-2.371-2.19-2.746c-0.37-0.304-0.27,2.829-0.028,3.948L239.406,138.144z"/>
			
				<path fill="#A1C453" stroke="#333333" stroke-width="0.9957" stroke-linecap="round" stroke-linejoin="round" stroke-miterlimit="10" d="
				M237.101,138.464l3.726,2.546c0,0-0.404-4.47-1.836-5.688C238.989,135.323,238.071,137.298,237.101,138.464z"/>
			
				<path fill="#A1C453" stroke="#333333" stroke-width="0.9957" stroke-linecap="round" stroke-linejoin="round" stroke-miterlimit="10" d="
				M237.806,143.802c0,0-3.362-4.446-2.408-7.6l3.439,2.614L237.806,143.802z"/>
		</g>
	</g>
</g>
<g id="calque03">
	<g>
		
			<polygon fill="#CC924C" stroke="#333333" stroke-width="0.9957" stroke-linecap="round" stroke-linejoin="round" stroke-miterlimit="10" points="
			233.47,150.138 239.522,154.358 239.091,152.596 		"/>
		<g>
			
				<path fill="#A1C453" stroke="#333333" stroke-width="1.4936" stroke-linecap="round" stroke-linejoin="round" stroke-miterlimit="10" d="
				M255.872,148.063c-2.67-0.257-3.869-1.884-8.295,1.598c-4.425,3.481-0.045,4.963-2.955,7.256c2.91-2.293,3.555,2.277,7.817-1.077
				C256.702,152.485,255.272,150.673,255.872,148.063z"/>
			<g>
				<line fill="none" x1="244.622" y1="156.917" x2="253.339" y2="150.057"/>
				<g>
					<polyline fill="none" stroke="#333333" stroke-width="0.9957" stroke-linecap="round" stroke-miterlimit="10" points="
						245.014,156.609 245.521,156.21 251.278,151.678 251.719,151.332 					"/>
					
						<line fill="none" stroke="#333333" stroke-width="0.9957" stroke-linecap="round" stroke-miterlimit="10" x1="252.947" y1="150.364" x2="252.893" y2="150.408"/>
				</g>
			</g>
		</g>
		<g>
			
				<path fill="#A1C453" stroke="#333333" stroke-width="0.9957" stroke-linecap="round" stroke-linejoin="round" stroke-miterlimit="10" d="
				M247.042,127.61c-1.902,0.103-2.92-0.911-5.658,2.008c-2.74,2.92,0.498,3.494-1.303,5.416c1.801-1.922,2.744,1.222,5.381-1.59
				C248.099,130.631,246.901,129.507,247.042,127.61z"/>
			<g>
				<line fill="none" x1="240.081" y1="135.034" x2="245.478" y2="129.281"/>
				<g>
					<polyline fill="none" stroke="#333333" stroke-width="0.9957" stroke-linecap="round" stroke-miterlimit="10" points="
						240.422,134.671 240.863,134.2 243.684,131.193 244.067,130.785 					"/>
					
						<line fill="none" stroke="#333333" stroke-width="0.9957" stroke-linecap="round" stroke-miterlimit="10" x1="245.137" y1="129.645" x2="245.089" y2="129.695"/>
				</g>
			</g>
		</g>
		<g>
			
				<path fill="#A1C453" stroke="#333333" stroke-width="1.4936" stroke-linecap="round" stroke-linejoin="round" stroke-miterlimit="10" d="
				M223.897,142.368c2.388-0.227,3.466-1.681,7.422,1.446c3.953,3.123,0.031,4.444,2.634,6.499
				c-2.603-2.055-3.188,2.031-6.996-0.978C223.146,146.327,224.426,144.705,223.897,142.368z"/>
			<g>
				<line fill="none" x1="233.952" y1="150.313" x2="226.16" y2="144.157"/>
				<g>
					<polyline fill="none" stroke="#333333" stroke-width="0.9957" stroke-linecap="round" stroke-miterlimit="10" points="
						233.562,150.005 233.056,149.605 228.218,145.783 227.777,145.436 					"/>
					
						<line fill="none" stroke="#333333" stroke-width="0.9957" stroke-linecap="round" stroke-miterlimit="10" x1="226.551" y1="144.466" x2="226.605" y2="144.51"/>
				</g>
			</g>
		</g>
		<g>
			
				<path fill="#A1C453" stroke="#333333" stroke-width="0.9957" stroke-linecap="round" stroke-linejoin="round" stroke-miterlimit="10" d="
				M226.144,151.361c0.899-1.089,0.744-2.146,3.693-2.491c2.953-0.344,1.867,1.84,3.809,1.613c-1.94,0.227-0.481,2.175-3.324,2.507
				C227.481,153.323,227.339,152.115,226.144,151.361z"/>
			<g>
				<line fill="none" x1="233.646" y1="150.483" x2="227.832" y2="151.165"/>
				<g>
					<polyline fill="none" stroke="#333333" stroke-width="0.9957" stroke-linecap="round" stroke-miterlimit="10" points="
						233.151,150.541 232.511,150.616 230.437,150.859 229.88,150.925 					"/>
					
						<line fill="none" stroke="#333333" stroke-width="0.9957" stroke-linecap="round" stroke-miterlimit="10" x1="228.326" y1="151.107" x2="228.396" y2="151.099"/>
				</g>
			</g>
		</g>
		<path fill="#CC924C" stroke="#333333" stroke-width="2.6551" stroke-linecap="round" stroke-miterlimit="10" d="M244.7,175.94
			l-10.156-43.637c-0.248-1.011,0.371-2.029,1.383-2.274l0,0c1.009-0.248,2.027,0.37,2.275,1.381l11.125,43.399"/>
		<g>
			
				<path fill="#A1C453" stroke="#333333" stroke-width="0.9957" stroke-linecap="round" stroke-linejoin="round" stroke-miterlimit="10" d="
				M237.302,129.536c0,0-1.727-2.37-2.191-2.745c-0.37-0.305-0.268,2.83-0.027,3.949L237.302,129.536z"/>
			
				<path fill="#A1C453" stroke="#333333" stroke-width="0.9957" stroke-linecap="round" stroke-linejoin="round" stroke-miterlimit="10" d="
				M234.997,129.857l3.723,2.546c0,0-0.404-4.47-1.836-5.686C236.884,126.718,235.968,128.694,234.997,129.857z"/>
			
				<path fill="#A1C453" stroke="#333333" stroke-width="0.9957" stroke-linecap="round" stroke-linejoin="round" stroke-miterlimit="10" d="
				M235.7,135.193c0,0-3.36-4.445-2.406-7.597l3.438,2.611L235.7,135.193z"/>
		</g>
	</g>
</g>
<g id="calque04">
	<g>
		
			<polygon fill="#CC924C" stroke="#333333" stroke-width="0.9957" stroke-linecap="round" stroke-linejoin="round" stroke-miterlimit="10" points="
			249.901,121.011 239.815,138.01 239.147,135.279 		"/>
		
			<polygon fill="#CC924C" stroke="#333333" stroke-width="0.9957" stroke-linecap="round" stroke-linejoin="round" stroke-miterlimit="10" points="
			233.47,150.138 239.522,154.358 239.091,152.596 		"/>
		<g>
			
				<path fill="#A1C453" stroke="#333333" stroke-width="1.4936" stroke-linecap="round" stroke-linejoin="round" stroke-miterlimit="10" d="
				M255.872,148.063c-2.67-0.257-3.869-1.884-8.295,1.598c-4.425,3.481-0.045,4.963-2.955,7.256c2.91-2.293,3.555,2.277,7.817-1.077
				C256.702,152.485,255.272,150.673,255.872,148.063z"/>
			<g>
				<line fill="none" x1="244.622" y1="156.917" x2="253.339" y2="150.057"/>
				<g>
					<polyline fill="none" stroke="#333333" stroke-width="0.9957" stroke-linecap="round" stroke-miterlimit="10" points="
						245.014,156.609 245.521,156.21 251.278,151.678 251.719,151.332 					"/>
					
						<line fill="none" stroke="#333333" stroke-width="0.9957" stroke-linecap="round" stroke-miterlimit="10" x1="252.947" y1="150.364" x2="252.893" y2="150.408"/>
				</g>
			</g>
		</g>
		<g>
			
				<path fill="#A1C453" stroke="#333333" stroke-width="0.9957" stroke-linecap="round" stroke-linejoin="round" stroke-miterlimit="10" d="
				M248.749,112.569c-1.101,1.227-2.347,1.23-2.234,4.692c0.111,3.464,2.445,1.834,2.52,4.112c-0.073-2.278,2.427-0.933,2.317-4.267
				C251.243,113.771,249.825,113.817,248.749,112.569z"/>
			<g>
				<line fill="none" x1="249.033" y1="121.374" x2="248.815" y2="114.551"/>
				<g>
					<polyline fill="none" stroke="#333333" stroke-width="0.9957" stroke-linecap="round" stroke-miterlimit="10" points="
						249.018,120.877 248.997,120.231 248.899,117.172 248.881,116.611 					"/>
					
						<line fill="none" stroke="#333333" stroke-width="0.9957" stroke-linecap="round" stroke-miterlimit="10" x1="248.831" y1="115.049" x2="248.833" y2="115.118"/>
				</g>
			</g>
		</g>
		<g>
			
				<path fill="#A1C453" stroke="#333333" stroke-width="1.4936" stroke-linecap="round" stroke-linejoin="round" stroke-miterlimit="10" d="
				M260.906,109.656c-3.021,0.164-4.636-1.447-8.98,3.189c-4.348,4.635,0.79,5.546-2.068,8.596c2.858-3.05,4.353,1.938,8.537-2.525
				C262.583,114.45,260.682,112.669,260.906,109.656z"/>
			<g>
				<line fill="none" x1="249.856" y1="121.441" x2="258.419" y2="112.31"/>
				<g>
					<polyline fill="none" stroke="#333333" stroke-width="0.9957" stroke-linecap="round" stroke-miterlimit="10" points="
						250.197,121.078 250.638,120.607 256.626,114.223 257.009,113.813 					"/>
					
						<line fill="none" stroke="#333333" stroke-width="0.9957" stroke-linecap="round" stroke-miterlimit="10" x1="258.078" y1="112.673" x2="258.03" y2="112.724"/>
				</g>
			</g>
		</g>
		<g>
			
				<path fill="#A1C453" stroke="#333333" stroke-width="1.4936" stroke-linecap="round" stroke-linejoin="round" stroke-miterlimit="10" d="
				M223.897,142.368c2.388-0.227,3.466-1.681,7.422,1.446c3.953,3.123,0.031,4.444,2.634,6.499
				c-2.603-2.055-3.188,2.031-6.996-0.978C223.146,146.327,224.426,144.705,223.897,142.368z"/>
			<g>
				<line fill="none" x1="233.952" y1="150.313" x2="226.16" y2="144.157"/>
				<g>
					<polyline fill="none" stroke="#333333" stroke-width="0.9957" stroke-linecap="round" stroke-miterlimit="10" points="
						233.562,150.005 233.056,149.605 228.218,145.783 227.777,145.436 					"/>
					
						<line fill="none" stroke="#333333" stroke-width="0.9957" stroke-linecap="round" stroke-miterlimit="10" x1="226.551" y1="144.466" x2="226.605" y2="144.51"/>
				</g>
			</g>
		</g>
		<g>
			
				<path fill="#A1C453" stroke="#333333" stroke-width="1.4936" stroke-linecap="round" stroke-linejoin="round" stroke-miterlimit="10" d="
				M221.407,152.104c1.529-1.85,1.264-3.641,6.271-4.227c5.006-0.588,3.164,3.119,6.457,2.733c-3.293,0.386-0.818,3.69-5.639,4.257
				C223.675,155.432,223.435,153.38,221.407,152.104z"/>
			<g>
				<line fill="none" x1="234.136" y1="150.611" x2="224.274" y2="151.769"/>
				<g>
					<polyline fill="none" stroke="#333333" stroke-width="0.9957" stroke-linecap="round" stroke-miterlimit="10" points="
						233.642,150.669 233.001,150.744 226.879,151.463 226.321,151.528 					"/>
					
						<line fill="none" stroke="#333333" stroke-width="0.9957" stroke-linecap="round" stroke-miterlimit="10" x1="224.769" y1="151.711" x2="224.839" y2="151.702"/>
				</g>
			</g>
		</g>
		<g>
			
				<path fill="#A1C453" stroke="#333333" stroke-width="0.9957" stroke-linecap="round" stroke-linejoin="round" stroke-miterlimit="10" d="
				M224.161,116.058c0.229,1.518-0.503,2.414,2.054,4.383c2.556,1.971,2.763-0.673,4.445,0.622c-1.684-1.295,0.767-2.294-1.694-4.19
				C226.501,114.974,225.695,116.022,224.161,116.058z"/>
			<g>
				<line fill="none" x1="230.66" y1="121.063" x2="225.622" y2="117.183"/>
				<g>
					<polyline fill="none" stroke="#333333" stroke-width="0.9957" stroke-linecap="round" stroke-miterlimit="10" points="
						230.266,120.759 229.755,120.365 227.699,118.782 227.255,118.44 					"/>
					
						<line fill="none" stroke="#333333" stroke-width="0.9957" stroke-linecap="round" stroke-miterlimit="10" x1="226.017" y1="117.486" x2="226.072" y2="117.529"/>
				</g>
			</g>
		</g>
		<path fill="#CC924C" stroke="#333333" stroke-width="2.6551" stroke-linecap="round" stroke-miterlimit="10" d="M244.7,175.94
			l-13.986-59.306c-0.248-1.011,0.37-2.029,1.381-2.276l0,0c1.009-0.248,2.027,0.371,2.275,1.381l14.957,59.07"/>
		<g>
			
				<path fill="#A1C453" stroke="#333333" stroke-width="0.9957" stroke-linecap="round" stroke-linejoin="round" stroke-miterlimit="10" d="
				M233.47,113.867c0,0-1.725-2.37-2.191-2.746c-0.368-0.304-0.268,2.831-0.026,3.95L233.47,113.867z"/>
			
				<path fill="#A1C453" stroke="#333333" stroke-width="0.9957" stroke-linecap="round" stroke-linejoin="round" stroke-miterlimit="10" d="
				M231.165,114.188l3.724,2.545c0,0-0.404-4.469-1.836-5.686C233.053,111.048,232.136,113.023,231.165,114.188z"/>
			
				<path fill="#A1C453" stroke="#333333" stroke-width="0.9957" stroke-linecap="round" stroke-linejoin="round" stroke-miterlimit="10" d="
				M231.868,119.524c0,0-3.359-4.444-2.406-7.599l3.438,2.613L231.868,119.524z"/>
		</g>
		<g>
			
				<path fill="#FFFFFF" stroke="#333333" stroke-width="0.9957" stroke-linecap="round" stroke-linejoin="round" stroke-miterlimit="10" d="
				M250.658,122.048c0.429,0.124,0.646,0.985,0.738,1.646c0.168,1.191-0.649,2.86-1.994,2.471c-1.352-0.395-1.148-2.244-0.373-3.16
				C249.466,122.496,250.228,121.921,250.658,122.048z"/>
			
				<path fill="#FFFFFF" stroke="#333333" stroke-width="0.9957" stroke-linecap="round" stroke-linejoin="round" stroke-miterlimit="10" d="
				M250.737,121.96c-0.104-0.432,0.533-1.052,1.058-1.464c0.947-0.741,2.805-0.868,3.139,0.493c0.332,1.367-1.371,2.118-2.553,1.901
				C251.724,122.772,250.845,122.397,250.737,121.96z"/>
			
				<path fill="#FFFFFF" stroke="#333333" stroke-width="0.9957" stroke-linecap="round" stroke-linejoin="round" stroke-miterlimit="10" d="
				M250.631,121.935c-0.323,0.309-1.177,0.067-1.796-0.184c-1.117-0.451-2.153-1.992-1.144-2.963
				c1.019-0.974,2.521,0.129,2.925,1.258C250.841,120.677,250.956,121.625,250.631,121.935z"/>
			
				<path fill="#FFFFFF" stroke="#333333" stroke-width="0.9957" stroke-linecap="round" stroke-linejoin="round" stroke-miterlimit="10" d="
				M250.534,122.047c0.105,0.435-0.531,1.054-1.059,1.464c-0.948,0.741-2.805,0.869-3.138-0.493
				c-0.332-1.367,1.369-2.117,2.552-1.902C249.549,121.239,250.429,121.612,250.534,122.047z"/>
			
				<path fill="#FFFFFF" stroke="#333333" stroke-width="0.9957" stroke-linecap="round" stroke-linejoin="round" stroke-miterlimit="10" d="
				M250.647,122.068c0.321-0.309,1.176-0.066,1.795,0.184c1.115,0.451,2.154,1.995,1.142,2.963
				c-1.018,0.974-2.518-0.126-2.922-1.257C250.437,123.327,250.321,122.379,250.647,122.068z"/>
			
				<path fill="#FFFFFF" stroke="#333333" stroke-width="0.9957" stroke-linecap="round" stroke-linejoin="round" stroke-miterlimit="10" d="
				M250.595,121.955c-0.426-0.126-0.645-0.986-0.737-1.647c-0.167-1.191,0.649-2.86,1.995-2.47c1.352,0.395,1.147,2.242,0.369,3.159
				C251.791,121.507,251.026,122.081,250.595,121.955z"/>
			
				<path fill="#F9D53E" stroke="#333333" stroke-width="0.9957" stroke-linecap="round" stroke-linejoin="round" stroke-miterlimit="10" d="
				M251.433,121.826c-0.121-0.496-0.621-0.799-1.119-0.678c-0.496,0.12-0.801,0.622-0.68,1.12c0.123,0.495,0.625,0.801,1.119,0.678
				C251.251,122.827,251.556,122.324,251.433,121.826z"/>
		</g>
	</g>
</g>
<g id="calque05">
	<g>
		
			<polygon fill="#CC924C" stroke="#333333" stroke-width="0.7966" stroke-linecap="round" stroke-linejoin="round" stroke-miterlimit="10" points="
			223.407,118.622 232.283,123.07 231.616,120.34 		"/>
		
			<polygon fill="#CC924C" stroke="#333333" stroke-width="0.9957" stroke-linecap="round" stroke-linejoin="round" stroke-miterlimit="10" points="
			249.897,121.01 239.812,138.011 239.144,135.279 		"/>
		
			<polygon fill="#CC924C" stroke="#333333" stroke-width="0.9957" stroke-linecap="round" stroke-linejoin="round" stroke-miterlimit="10" points="
			233.468,150.137 239.519,154.357 239.089,152.597 		"/>
		<g>
			
				<path fill="#A1C453" stroke="#333333" stroke-width="1.4936" stroke-linecap="round" stroke-linejoin="round" stroke-miterlimit="10" d="
				M255.868,148.065c-2.671-0.258-3.869-1.884-8.293,1.598c-4.427,3.48-0.047,4.962-2.959,7.254
				c2.912-2.292,3.559,2.277,7.821-1.075C256.698,152.487,255.271,150.673,255.868,148.065z"/>
			<g>
				<line fill="none" x1="244.616" y1="156.917" x2="253.337" y2="150.057"/>
				<g>
					<polyline fill="none" stroke="#333333" stroke-width="0.9957" stroke-linecap="round" stroke-miterlimit="10" points="
						245.008,156.609 245.515,156.21 251.276,151.678 251.717,151.331 					"/>
					
						<line fill="none" stroke="#333333" stroke-width="0.9957" stroke-linecap="round" stroke-miterlimit="10" x1="252.945" y1="150.364" x2="252.891" y2="150.408"/>
				</g>
			</g>
		</g>
		<g>
			
				<path fill="#A1C453" stroke="#333333" stroke-width="1.4936" stroke-linecap="round" stroke-linejoin="round" stroke-miterlimit="10" d="
				M249.169,104.885c-2.02,2.252-4.301,2.254-4.099,8.606c0.204,6.352,4.482,3.359,4.615,7.54c-0.133-4.181,4.451-1.708,4.254-7.825
				C253.743,107.09,251.14,107.172,249.169,104.885z"/>
			<g>
				<line fill="none" x1="249.687" y1="121.031" x2="249.286" y2="108.519"/>
				<g>
					<polyline fill="none" stroke="#333333" stroke-width="0.9957" stroke-linecap="round" stroke-miterlimit="10" points="
						249.671,120.533 249.65,119.889 249.37,111.139 249.353,110.579 					"/>
					
						<line fill="none" stroke="#333333" stroke-width="0.9957" stroke-linecap="round" stroke-miterlimit="10" x1="249.302" y1="109.016" x2="249.305" y2="109.086"/>
				</g>
			</g>
		</g>
		<g>
			
				<path fill="#A1C453" stroke="#333333" stroke-width="1.4936" stroke-linecap="round" stroke-linejoin="round" stroke-miterlimit="10" d="
				M260.903,109.658c-3.02,0.163-4.637-1.448-8.981,3.187c-4.348,4.636,0.791,5.547-2.07,8.597c2.861-3.05,4.355,1.938,8.541-2.524
				C262.579,114.451,260.679,112.669,260.903,109.658z"/>
			<g>
				<line fill="none" x1="249.851" y1="121.441" x2="258.417" y2="112.31"/>
				<g>
					<polyline fill="none" stroke="#333333" stroke-width="0.9957" stroke-linecap="round" stroke-miterlimit="10" points="
						250.191,121.078 250.633,120.607 256.623,114.222 257.007,113.813 					"/>
					
						<line fill="none" stroke="#333333" stroke-width="0.9957" stroke-linecap="round" stroke-miterlimit="10" x1="258.076" y1="112.673" x2="258.028" y2="112.724"/>
				</g>
			</g>
		</g>
		<g>
			
				<path fill="#A1C453" stroke="#333333" stroke-width="1.4936" stroke-linecap="round" stroke-linejoin="round" stroke-miterlimit="10" d="
				M223.894,142.369c2.389-0.228,3.467-1.679,7.422,1.444c3.955,3.125,0.033,4.444,2.634,6.5c-2.601-2.056-3.188,2.033-6.996-0.978
				C223.144,146.327,224.424,144.706,223.894,142.369z"/>
			<g>
				<line fill="none" x1="233.948" y1="150.313" x2="226.156" y2="144.158"/>
				<g>
					<polyline fill="none" stroke="#333333" stroke-width="0.9957" stroke-linecap="round" stroke-miterlimit="10" points="
						233.558,150.005 233.052,149.605 228.214,145.783 227.773,145.436 					"/>
					
						<line fill="none" stroke="#333333" stroke-width="0.9957" stroke-linecap="round" stroke-miterlimit="10" x1="226.547" y1="144.467" x2="226.602" y2="144.51"/>
				</g>
			</g>
		</g>
		<g>
			
				<path fill="#A1C453" stroke="#333333" stroke-width="1.4936" stroke-linecap="round" stroke-linejoin="round" stroke-miterlimit="10" d="
				M221.405,152.104c1.528-1.849,1.265-3.638,6.271-4.225s3.164,3.12,6.459,2.733c-3.295,0.387-0.818,3.69-5.641,4.256
				C223.67,155.434,223.431,153.381,221.405,152.104z"/>
			<g>
				<line fill="none" x1="234.134" y1="150.612" x2="224.27" y2="151.769"/>
				<g>
					<polyline fill="none" stroke="#333333" stroke-width="0.9957" stroke-linecap="round" stroke-miterlimit="10" points="
						233.64,150.67 232.999,150.745 226.874,151.463 226.317,151.528 					"/>
					
						<line fill="none" stroke="#333333" stroke-width="0.9957" stroke-linecap="round" stroke-miterlimit="10" x1="224.764" y1="151.711" x2="224.833" y2="151.702"/>
				</g>
			</g>
		</g>
		<g>
			
				<path fill="#A1C453" stroke="#333333" stroke-width="1.4936" stroke-linecap="round" stroke-linejoin="round" stroke-miterlimit="10" d="
				M210.608,108.761c0.459,2.991-0.989,4.755,4.043,8.633c5.033,3.877,5.445-1.323,8.757,1.229
				c-3.312-2.552,1.508-4.524-3.339-8.258C215.218,106.631,213.629,108.694,210.608,108.761z"/>
			<g>
				<line fill="none" x1="223.407" y1="118.622" x2="213.491" y2="110.981"/>
				<g>
					<polyline fill="none" stroke="#333333" stroke-width="0.9957" stroke-linecap="round" stroke-miterlimit="10" points="
						223.013,118.318 222.502,117.925 215.568,112.582 215.124,112.239 					"/>
					
						<line fill="none" stroke="#333333" stroke-width="0.9957" stroke-linecap="round" stroke-miterlimit="10" x1="213.886" y1="111.285" x2="213.941" y2="111.328"/>
				</g>
			</g>
		</g>
		<g>
			
				<path fill="#A1C453" stroke="#333333" stroke-width="0.9957" stroke-linecap="round" stroke-linejoin="round" stroke-miterlimit="10" d="
				M217.864,125.299c1.605-0.099,2.47,0.75,4.759-1.729c2.293-2.481-0.441-2.945,1.063-4.577c-1.506,1.632-2.321-1.011-4.526,1.377
				C216.952,122.76,217.972,123.699,217.864,125.299z"/>
			<g>
				<line fill="none" x1="223.687" y1="118.993" x2="219.173" y2="123.881"/>
				<g>
					<polyline fill="none" stroke="#333333" stroke-width="0.9957" stroke-linecap="round" stroke-miterlimit="10" points="
						223.349,119.359 222.911,119.833 220.952,121.955 220.571,122.366 					"/>
					
						<line fill="none" stroke="#333333" stroke-width="0.9957" stroke-linecap="round" stroke-miterlimit="10" x1="219.511" y1="123.516" x2="219.558" y2="123.464"/>
				</g>
			</g>
		</g>
		<g>
			<g>
				<path fill="#D3F46C" d="M255.624,122.932c0.945,2.396-0.691,6.15-2.623,6.049c-1.469,1.574-5.104-0.229-6.047-2.624
					c-0.947-2.395-0.709-5.224,2.981-5.563C252.712,118.608,254.679,120.537,255.624,122.932z"/>
				<g>
					<path fill="none" stroke="#333333" stroke-width="0.9957" stroke-linecap="round" stroke-miterlimit="10" d="M255.773,123.406
						c0.032,0.213,0.098,0.421,0.102,0.637c0.108,1.146-0.184,2.308-0.714,3.318c-0.275,0.501-0.638,0.969-1.109,1.297
						c-0.243,0.149-0.508,0.277-0.795,0.305c-0.33-0.075-0.456,0.299-0.741,0.372c-1.068,0.512-2.306,0.088-3.271-0.463
						c-0.981-0.585-1.834-1.438-2.281-2.5c-0.412-1.059-0.647-2.252-0.318-3.363c0.313-1.138,1.396-1.878,2.511-2.091
						c0.273-0.082,0.578-0.059,0.839-0.164c0.234-0.164,0.461-0.343,0.72-0.47c0.5-0.274,1.063-0.464,1.641-0.44
						c0.576,0.019,1.129,0.257,1.577,0.611c0.108,0.088,0.233,0.185,0.315,0.277l0.13,0.131c0.091,0.084,0.16,0.187,0.24,0.279"/>
					
						<line fill="none" stroke="#333333" stroke-width="0.9957" stroke-linecap="round" stroke-miterlimit="10" x1="255.428" y1="122.475" x2="255.396" y2="122.412"/>
				</g>
			</g>
			<path opacity="0.5" fill="#FFFFFF" enable-background="new    " d="M248.991,124.319c-0.14,0.571-0.633,0.943-1.101,0.829
				c-0.474-0.112-0.744-0.669-0.606-1.243c0.138-0.571,0.631-0.944,1.103-0.83C248.858,123.188,249.129,123.745,248.991,124.319z"/>
		</g>
		<path fill="#CC924C" stroke="#333333" stroke-width="2.6551" stroke-linecap="round" stroke-miterlimit="10" d="M244.696,175.94
			l-15.897-67.125c-0.248-1.011,0.371-2.029,1.383-2.277l0,0c1.008-0.247,2.026,0.373,2.273,1.383l16.868,66.889"/>
		<g>
			
				<path fill="#A1C453" stroke="#333333" stroke-width="0.9957" stroke-linecap="round" stroke-linejoin="round" stroke-miterlimit="10" d="
				M231.556,106.049c0,0-1.726-2.37-2.19-2.747c-0.369-0.303-0.269,2.831-0.029,3.949L231.556,106.049z"/>
			
				<path fill="#A1C453" stroke="#333333" stroke-width="0.9957" stroke-linecap="round" stroke-linejoin="round" stroke-miterlimit="10" d="
				M229.25,106.368l3.722,2.545c0,0-0.402-4.469-1.834-5.684C231.138,103.229,230.221,105.203,229.25,106.368z"/>
			
				<path fill="#A1C453" stroke="#333333" stroke-width="0.9957" stroke-linecap="round" stroke-linejoin="round" stroke-miterlimit="10" d="
				M229.954,111.707c0,0-3.361-4.446-2.407-7.602l3.438,2.614L229.954,111.707z"/>
		</g>
		<g>
			
				<path fill="#FFFFFF" stroke="#333333" stroke-width="0.9957" stroke-linecap="round" stroke-linejoin="round" stroke-miterlimit="10" d="
				M223.456,120.202c0.428,0.125,0.646,0.985,0.736,1.646c0.168,1.19-0.646,2.862-1.992,2.469c-1.353-0.394-1.15-2.243-0.371-3.159
				C222.262,120.649,223.024,120.075,223.456,120.202z"/>
			
				<path fill="#FFFFFF" stroke="#333333" stroke-width="0.9957" stroke-linecap="round" stroke-linejoin="round" stroke-miterlimit="10" d="
				M223.534,120.113c-0.104-0.433,0.529-1.051,1.057-1.462c0.95-0.741,2.805-0.868,3.137,0.49c0.335,1.37-1.369,2.12-2.551,1.904
				C224.521,120.925,223.642,120.551,223.534,120.113z"/>
			
				<path fill="#FFFFFF" stroke="#333333" stroke-width="0.9957" stroke-linecap="round" stroke-linejoin="round" stroke-miterlimit="10" d="
				M223.427,120.087c-0.32,0.311-1.176,0.069-1.794-0.183c-1.116-0.449-2.155-1.992-1.145-2.96c1.019-0.974,2.519,0.125,2.923,1.255
				C223.636,118.83,223.751,119.778,223.427,120.087z"/>
			
				<path fill="#FFFFFF" stroke="#333333" stroke-width="0.9957" stroke-linecap="round" stroke-linejoin="round" stroke-miterlimit="10" d="
				M223.331,120.201c0.104,0.434-0.531,1.053-1.058,1.464c-0.947,0.741-2.805,0.868-3.138-0.492
				c-0.334-1.368,1.368-2.117,2.552-1.902C222.345,119.391,223.224,119.766,223.331,120.201z"/>
			
				<path fill="#FFFFFF" stroke="#333333" stroke-width="0.9957" stroke-linecap="round" stroke-linejoin="round" stroke-miterlimit="10" d="
				M223.444,120.222c0.322-0.307,1.175-0.065,1.795,0.186c1.115,0.45,2.155,1.992,1.144,2.962c-1.019,0.974-2.519-0.127-2.925-1.257
				C223.235,121.48,223.119,120.533,223.444,120.222z"/>
			
				<path fill="#FFFFFF" stroke="#333333" stroke-width="0.9957" stroke-linecap="round" stroke-linejoin="round" stroke-miterlimit="10" d="
				M223.392,120.108c-0.427-0.124-0.645-0.986-0.736-1.647c-0.168-1.191,0.648-2.861,1.992-2.468
				c1.354,0.393,1.15,2.242,0.372,3.158C224.587,119.66,223.825,120.234,223.392,120.108z"/>
			
				<circle fill="#F9D53E" stroke="#333333" stroke-width="0.9957" stroke-linecap="round" stroke-linejoin="round" stroke-miterlimit="10" cx="223.331" cy="120.201" r="0.927"/>
		</g>
	</g>
</g>
<g id="calque06">
	<g>
		
			<polygon fill="#CC924C" stroke="#333333" stroke-width="0.7966" stroke-linecap="round" stroke-linejoin="round" stroke-miterlimit="10" points="
			223.409,118.62 232.286,123.069 231.618,120.338 		"/>
		
			<polygon fill="#CC924C" stroke="#333333" stroke-width="0.9957" stroke-linecap="round" stroke-linejoin="round" stroke-miterlimit="10" points="
			249.901,121.011 239.815,138.01 239.147,135.279 		"/>
		
			<polygon fill="#CC924C" stroke="#333333" stroke-width="0.9957" stroke-linecap="round" stroke-linejoin="round" stroke-miterlimit="10" points="
			233.47,150.138 239.522,154.358 239.091,152.596 		"/>
		<g>
			
				<path fill="#A1C453" stroke="#333333" stroke-width="1.4936" stroke-linecap="round" stroke-linejoin="round" stroke-miterlimit="10" d="
				M255.872,148.063c-2.67-0.257-3.869-1.884-8.295,1.598c-4.425,3.481-0.045,4.963-2.955,7.256c2.91-2.293,3.555,2.277,7.817-1.077
				C256.7,152.487,255.272,150.673,255.872,148.063z"/>
			<g>
				<line fill="none" x1="244.622" y1="156.917" x2="253.339" y2="150.057"/>
				<g>
					<polyline fill="none" stroke="#333333" stroke-width="0.9957" stroke-linecap="round" stroke-miterlimit="10" points="
						245.014,156.609 245.521,156.21 251.278,151.678 251.719,151.332 					"/>
					
						<line fill="none" stroke="#333333" stroke-width="0.9957" stroke-linecap="round" stroke-miterlimit="10" x1="252.947" y1="150.364" x2="252.893" y2="150.408"/>
				</g>
			</g>
		</g>
		<g>
			
				<path fill="#A1C453" stroke="#333333" stroke-width="0.9957" stroke-linecap="round" stroke-linejoin="round" stroke-miterlimit="10" d="
				M236.834,100.775c0.538,1.52,1.662,1.984,0.275,5.073c-1.385,3.093-2.891,0.752-3.803,2.787c0.912-2.035-1.85-1.744-0.514-4.722
				C234.129,100.936,235.397,101.504,236.834,100.775z"/>
			<g>
				<line fill="none" x1="233.308" y1="108.636" x2="236.04" y2="102.543"/>
				<g>
					<polyline fill="none" stroke="#333333" stroke-width="0.9957" stroke-linecap="round" stroke-miterlimit="10" points="
						233.512,108.182 233.775,107.593 234.967,104.936 235.196,104.424 					"/>
					
						<line fill="none" stroke="#333333" stroke-width="0.9957" stroke-linecap="round" stroke-miterlimit="10" x1="235.836" y1="102.997" x2="235.808" y2="103.062"/>
				</g>
			</g>
		</g>
		<g>
			
				<path fill="#A1C453" stroke="#333333" stroke-width="1.4936" stroke-linecap="round" stroke-linejoin="round" stroke-miterlimit="10" d="
				M249.173,104.883c-2.021,2.252-4.303,2.256-4.101,8.607c0.205,6.352,4.483,3.36,4.617,7.541
				c-0.134-4.181,4.449-1.708,4.254-7.825C253.747,107.088,251.142,107.171,249.173,104.883z"/>
			<g>
				<line fill="none" x1="249.69" y1="121.031" x2="249.288" y2="108.518"/>
				<g>
					<polyline fill="none" stroke="#333333" stroke-width="0.9957" stroke-linecap="round" stroke-miterlimit="10" points="
						249.675,120.533 249.653,119.889 249.372,111.139 249.354,110.578 					"/>
					
						<line fill="none" stroke="#333333" stroke-width="0.9957" stroke-linecap="round" stroke-miterlimit="10" x1="249.304" y1="109.016" x2="249.307" y2="109.085"/>
				</g>
			</g>
		</g>
		<g>
			
				<path fill="#A1C453" stroke="#333333" stroke-width="1.4936" stroke-linecap="round" stroke-linejoin="round" stroke-miterlimit="10" d="
				M260.906,109.656c-3.021,0.164-4.636-1.447-8.98,3.189c-4.348,4.635,0.79,5.546-2.07,8.595c2.86-3.049,4.354,1.939,8.539-2.524
				C262.583,114.45,260.682,112.669,260.906,109.656z"/>
			<g>
				<line fill="none" x1="249.854" y1="121.44" x2="258.419" y2="112.31"/>
				<g>
					<polyline fill="none" stroke="#333333" stroke-width="0.9957" stroke-linecap="round" stroke-miterlimit="10" points="
						250.195,121.077 250.637,120.606 256.625,114.222 257.009,113.813 					"/>
					
						<line fill="none" stroke="#333333" stroke-width="0.9957" stroke-linecap="round" stroke-miterlimit="10" x1="258.078" y1="112.673" x2="258.03" y2="112.724"/>
				</g>
			</g>
		</g>
		<g>
			
				<path fill="#A1C453" stroke="#333333" stroke-width="1.4936" stroke-linecap="round" stroke-linejoin="round" stroke-miterlimit="10" d="
				M223.897,142.368c2.388-0.227,3.466-1.681,7.422,1.446c3.953,3.123,0.031,4.444,2.634,6.499
				c-2.603-2.055-3.188,2.031-6.996-0.978C223.146,146.327,224.426,144.705,223.897,142.368z"/>
			<g>
				<line fill="none" x1="233.952" y1="150.313" x2="226.16" y2="144.157"/>
				<g>
					<polyline fill="none" stroke="#333333" stroke-width="0.9957" stroke-linecap="round" stroke-miterlimit="10" points="
						233.562,150.005 233.056,149.605 228.218,145.783 227.777,145.436 					"/>
					
						<line fill="none" stroke="#333333" stroke-width="0.9957" stroke-linecap="round" stroke-miterlimit="10" x1="226.551" y1="144.466" x2="226.605" y2="144.51"/>
				</g>
			</g>
		</g>
		<g>
			
				<path fill="#A1C453" stroke="#333333" stroke-width="1.4936" stroke-linecap="round" stroke-linejoin="round" stroke-miterlimit="10" d="
				M221.407,152.104c1.53-1.851,1.264-3.641,6.271-4.227c5.006-0.588,3.164,3.119,6.457,2.733c-3.293,0.386-0.818,3.69-5.639,4.257
				C223.675,155.432,223.435,153.38,221.407,152.104z"/>
			<g>
				<line fill="none" x1="234.136" y1="150.611" x2="224.274" y2="151.769"/>
				<g>
					<polyline fill="none" stroke="#333333" stroke-width="0.9957" stroke-linecap="round" stroke-miterlimit="10" points="
						233.642,150.669 233.001,150.744 226.879,151.463 226.321,151.528 					"/>
					
						<line fill="none" stroke="#333333" stroke-width="0.9957" stroke-linecap="round" stroke-miterlimit="10" x1="224.769" y1="151.711" x2="224.839" y2="151.702"/>
				</g>
			</g>
		</g>
		<g>
			
				<path fill="#A1C453" stroke="#333333" stroke-width="0.9957" stroke-linecap="round" stroke-linejoin="round" stroke-miterlimit="10" d="
				M214.093,119.996c1.322,0.974,1.445,2.209,4.873,1.765c3.426-0.444,1.582-2.603,3.835-2.895
				c-2.253,0.292-1.157-2.319-4.454-1.888C215.044,117.405,215.227,118.811,214.093,119.996z"/>
			<g>
				<line fill="none" x1="222.801" y1="118.866" x2="216.052" y2="119.741"/>
				<g>
					<polyline fill="none" stroke="#333333" stroke-width="0.9957" stroke-linecap="round" stroke-miterlimit="10" points="
						222.307,118.93 221.667,119.014 218.652,119.404 218.096,119.477 					"/>
					
						<line fill="none" stroke="#333333" stroke-width="0.9957" stroke-linecap="round" stroke-miterlimit="10" x1="216.546" y1="119.678" x2="216.615" y2="119.668"/>
				</g>
			</g>
		</g>
		<g>
			
				<path fill="#A1C453" stroke="#333333" stroke-width="1.4936" stroke-linecap="round" stroke-linejoin="round" stroke-miterlimit="10" d="
				M210.612,108.762c0.457,2.99-0.989,4.754,4.046,8.632c5.032,3.878,5.44-1.325,8.752,1.227c-3.312-2.552,1.51-4.521-3.339-8.256
				C215.222,106.63,213.632,108.692,210.612,108.762z"/>
			<g>
				<line fill="none" x1="223.409" y1="118.62" x2="213.493" y2="110.979"/>
				<g>
					<polyline fill="none" stroke="#333333" stroke-width="0.9957" stroke-linecap="round" stroke-miterlimit="10" points="
						223.015,118.316 222.504,117.923 215.57,112.58 215.126,112.237 					"/>
					
						<line fill="none" stroke="#333333" stroke-width="0.9957" stroke-linecap="round" stroke-miterlimit="10" x1="213.888" y1="111.283" x2="213.943" y2="111.326"/>
				</g>
			</g>
		</g>
		<g>
			
				<path fill="#A1C453" stroke="#333333" stroke-width="1.4936" stroke-linecap="round" stroke-linejoin="round" stroke-miterlimit="10" d="
				M214.921,128.38c2.371-0.146,3.649,1.109,7.038-2.558c3.386-3.667-0.659-4.353,1.57-6.765c-2.229,2.412-3.434-1.498-6.692,2.035
				C213.574,124.625,215.077,126.013,214.921,128.38z"/>
			<g>
				<line fill="none" x1="223.53" y1="119.058" x2="216.856" y2="126.282"/>
				<g>
					<polyline fill="none" stroke="#333333" stroke-width="0.9957" stroke-linecap="round" stroke-miterlimit="10" points="
						223.192,119.424 222.755,119.897 218.636,124.356 218.255,124.768 					"/>
					
						<line fill="none" stroke="#333333" stroke-width="0.9957" stroke-linecap="round" stroke-miterlimit="10" x1="217.194" y1="125.916" x2="217.242" y2="125.865"/>
				</g>
			</g>
		</g>
		<g>
			<g>
				<path fill="#D3F46C" d="M257.678,124.367c1.282,3.248-0.938,8.341-3.558,8.204c-1.992,2.135-6.92-0.312-8.202-3.561
					c-1.282-3.246-0.96-7.086,4.046-7.545C253.733,118.506,256.397,121.121,257.678,124.367z"/>
				<g>
					<path fill="none" stroke="#333333" stroke-width="1.4936" stroke-linecap="round" stroke-miterlimit="10" d="M257.894,125.081
						c0.062,0.317,0.125,0.634,0.135,0.957c0.101,1.531-0.288,3.079-1.028,4.417c-0.376,0.662-0.858,1.289-1.505,1.709
						c-0.328,0.192-0.686,0.361-1.069,0.386l-0.286,0.021c-0.082,0.041-0.147,0.118-0.224,0.176c-0.138,0.138-0.3,0.236-0.476,0.317
						c-0.688,0.349-1.498,0.359-2.242,0.213c-0.753-0.148-1.469-0.448-2.134-0.827c-1.305-0.783-2.474-1.893-3.085-3.308
						c-0.572-1.405-0.908-2.986-0.538-4.488c0.188-0.742,0.594-1.432,1.171-1.938c0.57-0.519,1.301-0.825,2.036-1.016
						c0.368-0.111,0.75-0.156,1.13-0.208c0.204,0.011,0.342-0.15,0.502-0.25c0.159-0.105,0.307-0.231,0.477-0.321
						c0.65-0.401,1.39-0.68,2.153-0.729c0.766-0.053,1.537,0.177,2.173,0.602c0.165,0.089,0.315,0.236,0.449,0.338
						c0.07,0.059,0.146,0.114,0.208,0.183c0.127,0.133,0.264,0.258,0.384,0.397"/>
					
						<line fill="none" stroke="#333333" stroke-width="1.4936" stroke-linecap="round" stroke-miterlimit="10" x1="257.38" y1="123.683" x2="257.333" y2="123.589"/>
				</g>
			</g>
			<path opacity="0.5" fill="#FFFFFF" enable-background="new    " d="M248.683,126.247c-0.186,0.776-0.854,1.282-1.492,1.129
				c-0.639-0.155-1.008-0.911-0.819-1.688c0.186-0.775,0.854-1.281,1.492-1.127C248.503,124.717,248.87,125.47,248.683,126.247z"/>
		</g>
		<path fill="#CC924C" stroke="#333333" stroke-width="2.6551" stroke-linecap="round" stroke-miterlimit="10" d="M244.7,175.94
			l-17.57-73.961c-0.248-1.012,0.369-2.03,1.381-2.277l0,0c1.01-0.246,2.029,0.371,2.277,1.382l18.539,73.726"/>
		<g>
			
				<path fill="#A1C453" stroke="#333333" stroke-width="0.9957" stroke-linecap="round" stroke-linejoin="round" stroke-miterlimit="10" d="
				M229.888,99.211c0,0-1.725-2.371-2.191-2.747c-0.37-0.302-0.271,2.833-0.028,3.951L229.888,99.211z"/>
			
				<path fill="#A1C453" stroke="#333333" stroke-width="0.9957" stroke-linecap="round" stroke-linejoin="round" stroke-miterlimit="10" d="
				M227.581,99.532l3.723,2.544c0,0-0.404-4.469-1.834-5.684C229.47,96.393,228.551,98.366,227.581,99.532z"/>
			
				<path fill="#A1C453" stroke="#333333" stroke-width="0.9957" stroke-linecap="round" stroke-linejoin="round" stroke-miterlimit="10" d="
				M228.286,104.868c0,0-3.361-4.444-2.408-7.599l3.438,2.613L228.286,104.868z"/>
		</g>
		<g>
			<g>
				<path fill="#D3F46C" d="M227.769,122.226c0.945,2.395-0.69,6.15-2.624,6.047c-1.466,1.577-5.101-0.228-6.048-2.623
					c-0.945-2.396-0.705-5.223,2.983-5.563C224.86,117.904,226.823,119.831,227.769,122.226z"/>
				<g>
					<path fill="none" stroke="#333333" stroke-width="0.9957" stroke-linecap="round" stroke-miterlimit="10" d="M227.918,122.7
						c0.031,0.213,0.096,0.421,0.101,0.637c0.108,1.146-0.183,2.308-0.715,3.318c-0.275,0.501-0.637,0.968-1.109,1.296
						c-0.243,0.149-0.509,0.277-0.796,0.304c-0.33-0.076-0.455,0.3-0.739,0.374c-1.067,0.512-2.307,0.087-3.271-0.464
						c-0.98-0.585-1.834-1.438-2.283-2.499c-0.411-1.059-0.646-2.252-0.316-3.363c0.313-1.137,1.396-1.878,2.512-2.091
						c0.271-0.082,0.578-0.058,0.837-0.165c0.235-0.163,0.462-0.341,0.721-0.468c0.5-0.274,1.064-0.464,1.642-0.44
						c0.576,0.018,1.13,0.256,1.577,0.61c0.107,0.088,0.232,0.185,0.314,0.277l0.13,0.131c0.091,0.084,0.16,0.187,0.24,0.279"/>
					
						<line fill="none" stroke="#333333" stroke-width="0.9957" stroke-linecap="round" stroke-miterlimit="10" x1="227.572" y1="121.769" x2="227.541" y2="121.705"/>
				</g>
			</g>
			
				<ellipse transform="matrix(0.2336 -0.9723 0.9723 0.2336 48.8214 308.7753)" opacity="0.5" fill="#FFFFFF" enable-background="new    " cx="220.279" cy="123.418" rx="1.066" ry="0.877"/>
		</g>
	</g>
</g>
<g id="calque07">
	<g>
		
			<polygon fill="#CC924C" stroke="#333333" stroke-width="0.9957" stroke-linecap="round" stroke-linejoin="round" stroke-miterlimit="10" points="
			237.426,102.116 232.862,110.175 232.194,107.445 		"/>
		
			<polygon fill="#CC924C" stroke="#333333" stroke-width="0.7966" stroke-linecap="round" stroke-linejoin="round" stroke-miterlimit="10" points="
			223.407,118.622 232.283,123.07 231.616,120.34 		"/>
		
			<polygon fill="#CC924C" stroke="#333333" stroke-width="0.9957" stroke-linecap="round" stroke-linejoin="round" stroke-miterlimit="10" points="
			249.897,121.01 239.812,138.011 239.144,135.279 		"/>
		
			<polygon fill="#CC924C" stroke="#333333" stroke-width="0.9957" stroke-linecap="round" stroke-linejoin="round" stroke-miterlimit="10" points="
			233.468,150.138 239.519,154.357 239.089,152.597 		"/>
		<g>
			
				<path fill="#A1C453" stroke="#333333" stroke-width="1.4936" stroke-linecap="round" stroke-linejoin="round" stroke-miterlimit="10" d="
				M255.868,148.065c-2.671-0.258-3.869-1.884-8.293,1.598c-4.427,3.48-0.047,4.962-2.959,7.254
				c2.912-2.292,3.559,2.277,7.821-1.075C256.698,152.487,255.271,150.673,255.868,148.065z"/>
			<g>
				<line fill="none" x1="244.616" y1="156.917" x2="253.336" y2="150.059"/>
				<g>
					<polyline fill="none" stroke="#333333" stroke-width="0.9957" stroke-linecap="round" stroke-miterlimit="10" points="
						245.008,156.609 245.515,156.211 251.275,151.68 251.716,151.333 					"/>
					
						<line fill="none" stroke="#333333" stroke-width="0.9957" stroke-linecap="round" stroke-miterlimit="10" x1="252.944" y1="150.366" x2="252.89" y2="150.41"/>
				</g>
			</g>
		</g>
		<g>
			
				<path fill="#A1C453" stroke="#333333" stroke-width="1.4936" stroke-linecap="round" stroke-linejoin="round" stroke-miterlimit="10" d="
				M243.284,89.056c0.896,2.524,2.767,3.297,0.463,8.434c-2.308,5.137-4.808,1.246-6.321,4.627c1.515-3.381-3.075-2.897-0.854-7.844
				C238.792,89.322,240.897,90.268,243.284,89.056z"/>
			<g>
				<line fill="none" x1="237.426" y1="102.116" x2="241.966" y2="91.996"/>
				<g>
					<polyline fill="none" stroke="#333333" stroke-width="0.9957" stroke-linecap="round" stroke-miterlimit="10" points="
						237.63,101.662 237.894,101.073 240.893,94.389 241.122,93.877 					"/>
					
						<line fill="none" stroke="#333333" stroke-width="0.9957" stroke-linecap="round" stroke-miterlimit="10" x1="241.762" y1="92.45" x2="241.733" y2="92.515"/>
				</g>
			</g>
		</g>
		<g>
			
				<path fill="#A1C453" stroke="#333333" stroke-width="1.4936" stroke-linecap="round" stroke-linejoin="round" stroke-miterlimit="10" d="
				M249.169,104.885c-2.02,2.252-4.301,2.254-4.099,8.606c0.204,6.352,4.482,3.359,4.615,7.54c-0.133-4.181,4.451-1.708,4.254-7.825
				C253.743,107.09,251.138,107.172,249.169,104.885z"/>
			<g>
				<line fill="none" x1="249.687" y1="121.031" x2="249.286" y2="108.519"/>
				<g>
					<polyline fill="none" stroke="#333333" stroke-width="0.9957" stroke-linecap="round" stroke-miterlimit="10" points="
						249.671,120.533 249.65,119.889 249.37,111.139 249.353,110.579 					"/>
					
						<line fill="none" stroke="#333333" stroke-width="0.9957" stroke-linecap="round" stroke-miterlimit="10" x1="249.302" y1="109.016" x2="249.305" y2="109.086"/>
				</g>
			</g>
		</g>
		<g>
			
				<path fill="#A1C453" stroke="#333333" stroke-width="1.4936" stroke-linecap="round" stroke-linejoin="round" stroke-miterlimit="10" d="
				M260.901,109.658c-3.018,0.163-4.635-1.448-8.979,3.187c-4.349,4.636,0.791,5.547-2.07,8.597c2.861-3.05,4.355,1.938,8.541-2.524
				C262.579,114.451,260.679,112.669,260.901,109.658z"/>
			<g>
				<line fill="none" x1="249.851" y1="121.441" x2="258.417" y2="112.31"/>
				<g>
					<polyline fill="none" stroke="#333333" stroke-width="0.9957" stroke-linecap="round" stroke-miterlimit="10" points="
						250.191,121.078 250.633,120.607 256.623,114.222 257.007,113.813 					"/>
					
						<line fill="none" stroke="#333333" stroke-width="0.9957" stroke-linecap="round" stroke-miterlimit="10" x1="258.076" y1="112.673" x2="258.028" y2="112.724"/>
				</g>
			</g>
		</g>
		<g>
			
				<path fill="#A1C453" stroke="#333333" stroke-width="1.4936" stroke-linecap="round" stroke-linejoin="round" stroke-miterlimit="10" d="
				M223.894,142.369c2.389-0.228,3.467-1.679,7.422,1.444c3.955,3.125,0.033,4.444,2.634,6.5c-2.601-2.056-3.188,2.033-6.996-0.978
				C223.142,146.326,224.424,144.706,223.894,142.369z"/>
			<g>
				<line fill="none" x1="233.948" y1="150.313" x2="226.156" y2="144.158"/>
				<g>
					<polyline fill="none" stroke="#333333" stroke-width="0.9957" stroke-linecap="round" stroke-miterlimit="10" points="
						233.558,150.005 233.052,149.605 228.214,145.783 227.773,145.436 					"/>
					
						<line fill="none" stroke="#333333" stroke-width="0.9957" stroke-linecap="round" stroke-miterlimit="10" x1="226.547" y1="144.467" x2="226.602" y2="144.51"/>
				</g>
			</g>
		</g>
		<g>
			
				<path fill="#A1C453" stroke="#333333" stroke-width="1.4936" stroke-linecap="round" stroke-linejoin="round" stroke-miterlimit="10" d="
				M221.405,152.104c1.528-1.849,1.265-3.638,6.271-4.225s3.164,3.12,6.459,2.733c-3.295,0.387-0.818,3.69-5.641,4.256
				C223.67,155.434,223.431,153.381,221.405,152.104z"/>
			<g>
				<line fill="none" x1="234.134" y1="150.612" x2="224.27" y2="151.769"/>
				<g>
					<polyline fill="none" stroke="#333333" stroke-width="0.9957" stroke-linecap="round" stroke-miterlimit="10" points="
						233.64,150.67 232.999,150.745 226.874,151.463 226.317,151.528 					"/>
					
						<line fill="none" stroke="#333333" stroke-width="0.9957" stroke-linecap="round" stroke-miterlimit="10" x1="224.764" y1="151.711" x2="224.833" y2="151.702"/>
				</g>
			</g>
		</g>
		<g>
			
				<path fill="#A1C453" stroke="#333333" stroke-width="1.4936" stroke-linecap="round" stroke-linejoin="round" stroke-miterlimit="10" d="
				M206.995,120.9c2.438,1.794,2.662,4.065,8.961,3.248c6.303-0.819,2.914-4.787,7.059-5.324c-4.145,0.537-2.131-4.263-8.198-3.476
				C208.747,116.136,209.081,118.719,206.995,120.9z"/>
			<g>
				<line fill="none" x1="223.015" y1="118.824" x2="210.601" y2="120.435"/>
				<g>
					<polyline fill="none" stroke="#333333" stroke-width="0.9957" stroke-linecap="round" stroke-miterlimit="10" points="
						222.521,118.889 221.881,118.971 213.201,120.098 212.645,120.17 					"/>
					
						<line fill="none" stroke="#333333" stroke-width="0.9957" stroke-linecap="round" stroke-miterlimit="10" x1="211.095" y1="120.37" x2="211.164" y2="120.361"/>
				</g>
			</g>
		</g>
		<g>
			
				<path fill="#A1C453" stroke="#333333" stroke-width="1.4936" stroke-linecap="round" stroke-linejoin="round" stroke-miterlimit="10" d="
				M210.608,108.761c0.459,2.991-0.989,4.755,4.043,8.633c5.033,3.877,5.445-1.323,8.757,1.229
				c-3.312-2.552,1.508-4.524-3.339-8.258C215.218,106.631,213.629,108.694,210.608,108.761z"/>
			<g>
				<line fill="none" x1="223.407" y1="118.622" x2="213.491" y2="110.981"/>
				<g>
					<polyline fill="none" stroke="#333333" stroke-width="0.9957" stroke-linecap="round" stroke-miterlimit="10" points="
						223.013,118.318 222.502,117.925 215.568,112.582 215.124,112.239 					"/>
					
						<line fill="none" stroke="#333333" stroke-width="0.9957" stroke-linecap="round" stroke-miterlimit="10" x1="213.886" y1="111.285" x2="213.941" y2="111.328"/>
				</g>
			</g>
		</g>
		<g>
			
				<path fill="#A1C453" stroke="#333333" stroke-width="1.4936" stroke-linecap="round" stroke-linejoin="round" stroke-miterlimit="10" d="
				M214.919,128.382c2.371-0.146,3.649,1.108,7.036-2.559c3.386-3.669-0.655-4.353,1.571-6.765
				c-2.228,2.412-3.433-1.498-6.693,2.034C213.572,124.626,215.075,126.015,214.919,128.382z"/>
			<g>
				<line fill="none" x1="223.527" y1="119.059" x2="216.854" y2="126.284"/>
				<g>
					<polyline fill="none" stroke="#333333" stroke-width="0.9957" stroke-linecap="round" stroke-miterlimit="10" points="
						223.189,119.424 222.752,119.898 218.634,124.357 218.253,124.77 					"/>
					
						<line fill="none" stroke="#333333" stroke-width="0.9957" stroke-linecap="round" stroke-miterlimit="10" x1="217.192" y1="125.918" x2="217.239" y2="125.867"/>
				</g>
			</g>
		</g>
		<g>
			<g>
				<path fill="#EF4529" d="M257.675,124.368c1.282,3.247-0.939,8.341-3.559,8.203c-1.99,2.135-6.921-0.311-8.201-3.56
					c-1.281-3.245-0.959-7.086,4.045-7.544C253.731,118.508,256.392,121.121,257.675,124.368z"/>
				<g>
					<path fill="none" stroke="#333333" stroke-width="1.4936" stroke-linecap="round" stroke-miterlimit="10" d="M257.891,125.082
						c0.062,0.317,0.126,0.634,0.135,0.957c0.101,1.531-0.29,3.078-1.028,4.416c-0.377,0.663-0.858,1.29-1.506,1.709
						c-0.328,0.193-0.686,0.361-1.068,0.386l-0.287,0.021c-0.081,0.04-0.147,0.118-0.223,0.176
						c-0.138,0.137-0.301,0.236-0.477,0.317c-0.688,0.349-1.497,0.359-2.242,0.213c-0.752-0.148-1.469-0.447-2.133-0.827
						c-1.305-0.782-2.474-1.892-3.085-3.307c-0.573-1.405-0.907-2.986-0.537-4.487c0.188-0.743,0.593-1.433,1.17-1.938
						c0.571-0.519,1.301-0.825,2.036-1.017c0.368-0.11,0.75-0.155,1.129-0.207c0.205,0.011,0.343-0.15,0.502-0.25
						c0.159-0.106,0.308-0.232,0.478-0.321c0.649-0.401,1.389-0.68,2.153-0.73c0.766-0.052,1.535,0.177,2.173,0.603
						c0.165,0.088,0.314,0.235,0.448,0.337c0.071,0.059,0.146,0.114,0.207,0.183c0.127,0.134,0.265,0.259,0.385,0.398"/>
					
						<line fill="none" stroke="#333333" stroke-width="1.4936" stroke-linecap="round" stroke-miterlimit="10" x1="257.376" y1="123.684" x2="257.329" y2="123.59"/>
				</g>
			</g>
			
				<ellipse transform="matrix(0.2349 -0.972 0.972 0.2349 66.9442 336.984)" opacity="0.5" fill="#FFFFFF" enable-background="new    " cx="247.525" cy="125.969" rx="1.447" ry="1.191"/>
		</g>
		<g>
			<g>
				<path fill="#D3F46C" d="M228.784,125.595c-0.272,3.481-4.505,7.081-6.798,5.807c-2.726,1.047-6.079-3.317-5.807-6.798
					c0.272-3.479,2.25-6.786,6.949-5C227.815,118.599,229.06,122.113,228.784,125.595z"/>
				<g>
					<path fill="none" stroke="#333333" stroke-width="1.4936" stroke-linecap="round" stroke-miterlimit="10" d="M228.665,126.331
						c-0.085,0.312-0.165,0.624-0.299,0.919c-0.582,1.419-1.611,2.64-2.863,3.516c-0.629,0.43-1.338,0.781-2.104,0.873
						c-0.379,0.029-0.772,0.024-1.129-0.123l-0.267-0.107c-0.091,0.002-0.186,0.042-0.277,0.061
						c-0.184,0.063-0.373,0.08-0.565,0.077c-0.771,0.012-1.505-0.335-2.108-0.793c-0.61-0.464-1.122-1.047-1.553-1.68
						c-0.829-1.276-1.394-2.786-1.32-4.325c0.102-1.514,0.495-3.082,1.487-4.268c0.494-0.585,1.161-1.026,1.901-1.226
						c0.741-0.216,1.53-0.171,2.276-0.019c0.379,0.062,0.741,0.188,1.105,0.309c0.179,0.1,0.371,0.017,0.561-0.003
						c0.189-0.025,0.376-0.074,0.568-0.08c0.761-0.075,1.546-0.002,2.256,0.288c0.71,0.289,1.303,0.833,1.688,1.494
						c0.109,0.152,0.181,0.351,0.255,0.5c0.039,0.084,0.081,0.167,0.106,0.256c0.056,0.176,0.124,0.348,0.17,0.525"/>
					
						<line fill="none" stroke="#333333" stroke-width="1.4936" stroke-linecap="round" stroke-miterlimit="10" x1="228.816" y1="124.849" x2="228.815" y2="124.744"/>
				</g>
			</g>
			<path opacity="0.5" fill="#FFFFFF" enable-background="new    " d="M219.879,123.336c-0.51,0.616-1.332,0.775-1.837,0.356
				c-0.508-0.42-0.506-1.26,0.002-1.875c0.509-0.616,1.332-0.776,1.84-0.356C220.388,121.879,220.386,122.72,219.879,123.336z"/>
		</g>
		<path fill="#CC924C" stroke="#333333" stroke-width="2.6551" stroke-linecap="round" stroke-miterlimit="10" d="M244.696,175.94
			l-19.021-79.899c-0.247-1.011,0.37-2.03,1.382-2.277l0,0c1.011-0.246,2.028,0.371,2.274,1.383l19.992,79.663"/>
		<g>
			
				<path fill="#A1C453" stroke="#333333" stroke-width="0.9957" stroke-linecap="round" stroke-linejoin="round" stroke-miterlimit="10" d="
				M228.431,93.273c0,0-1.726-2.372-2.188-2.747c-0.37-0.302-0.271,2.832-0.03,3.949L228.431,93.273z"/>
			
				<path fill="#A1C453" stroke="#333333" stroke-width="0.9957" stroke-linecap="round" stroke-linejoin="round" stroke-miterlimit="10" d="
				M226.126,93.593l3.723,2.547c0,0-0.406-4.471-1.836-5.686C228.013,90.454,227.099,92.428,226.126,93.593z"/>
			
				<path fill="#A1C453" stroke="#333333" stroke-width="0.9957" stroke-linecap="round" stroke-linejoin="round" stroke-miterlimit="10" d="
				M226.829,98.929c0,0-3.359-4.442-2.404-7.597l3.438,2.613L226.829,98.929z"/>
		</g>
	</g>
</g>
<g id="calque08">
	<g>
		
			<polygon fill="#CC924C" stroke="#333333" stroke-width="0.9957" stroke-linecap="round" stroke-linejoin="round" stroke-miterlimit="10" points="
			237.426,102.116 232.862,110.175 232.194,107.445 		"/>
		
			<polygon fill="#CC924C" stroke="#333333" stroke-width="0.7966" stroke-linecap="round" stroke-linejoin="round" stroke-miterlimit="10" points="
			223.407,118.622 232.283,123.07 231.616,120.34 		"/>
		
			<polygon fill="#CC924C" stroke="#333333" stroke-width="0.9957" stroke-linecap="round" stroke-linejoin="round" stroke-miterlimit="10" points="
			249.897,121.01 239.812,138.011 239.144,135.279 		"/>
		
			<polygon fill="#CC924C" stroke="#333333" stroke-width="0.9957" stroke-linecap="round" stroke-linejoin="round" stroke-miterlimit="10" points="
			233.468,150.138 239.519,154.357 239.089,152.597 		"/>
		<g>
			
				<path fill="#A1C453" stroke="#333333" stroke-width="1.4936" stroke-linecap="round" stroke-linejoin="round" stroke-miterlimit="10" d="
				M255.868,148.065c-2.668-0.259-3.869-1.884-8.293,1.598c-4.427,3.48-0.047,4.962-2.959,7.254
				c2.912-2.292,3.559,2.277,7.819-1.075C256.698,152.487,255.271,150.673,255.868,148.065z"/>
			<g>
				<line fill="none" x1="244.616" y1="156.917" x2="253.336" y2="150.059"/>
				<g>
					<polyline fill="none" stroke="#333333" stroke-width="0.9957" stroke-linecap="round" stroke-miterlimit="10" points="
						245.008,156.609 245.515,156.211 251.275,151.68 251.716,151.333 					"/>
					
						<line fill="none" stroke="#333333" stroke-width="0.9957" stroke-linecap="round" stroke-miterlimit="10" x1="252.944" y1="150.366" x2="252.89" y2="150.41"/>
				</g>
			</g>
		</g>
		<g>
			
				<path fill="#A1C453" stroke="#333333" stroke-width="1.4936" stroke-linecap="round" stroke-linejoin="round" stroke-miterlimit="10" d="
				M243.284,89.056c0.896,2.524,2.766,3.297,0.463,8.434c-2.308,5.139-4.808,1.246-6.321,4.627c1.515-3.381-3.075-2.897-0.854-7.844
				C238.792,89.322,240.897,90.268,243.284,89.056z"/>
			<g>
				<line fill="none" x1="237.426" y1="102.116" x2="241.966" y2="91.996"/>
				<g>
					<polyline fill="none" stroke="#333333" stroke-width="0.9957" stroke-linecap="round" stroke-miterlimit="10" points="
						237.63,101.662 237.894,101.073 240.893,94.389 241.122,93.877 					"/>
					
						<line fill="none" stroke="#333333" stroke-width="0.9957" stroke-linecap="round" stroke-miterlimit="10" x1="241.762" y1="92.45" x2="241.733" y2="92.515"/>
				</g>
			</g>
		</g>
		<g>
			
				<path fill="#A1C453" stroke="#333333" stroke-width="1.4936" stroke-linecap="round" stroke-linejoin="round" stroke-miterlimit="10" d="
				M249.169,104.885c-2.02,2.252-4.301,2.254-4.099,8.606c0.204,6.352,4.482,3.359,4.615,7.54c-0.133-4.181,4.449-1.708,4.254-7.825
				C253.743,107.09,251.138,107.172,249.169,104.885z"/>
			<g>
				<line fill="none" x1="249.687" y1="121.031" x2="249.286" y2="108.519"/>
				<g>
					<polyline fill="none" stroke="#333333" stroke-width="0.9957" stroke-linecap="round" stroke-miterlimit="10" points="
						249.671,120.533 249.65,119.889 249.37,111.139 249.353,110.579 					"/>
					
						<line fill="none" stroke="#333333" stroke-width="0.9957" stroke-linecap="round" stroke-miterlimit="10" x1="249.302" y1="109.016" x2="249.305" y2="109.086"/>
				</g>
			</g>
		</g>
		<g>
			
				<path fill="#A1C453" stroke="#333333" stroke-width="1.4936" stroke-linecap="round" stroke-linejoin="round" stroke-miterlimit="10" d="
				M260.901,109.658c-3.02,0.163-4.635-1.448-8.979,3.187c-4.349,4.636,0.791,5.547-2.07,8.597c2.861-3.05,4.355,1.938,8.541-2.524
				C262.579,114.451,260.679,112.669,260.901,109.658z"/>
			<g>
				<line fill="none" x1="249.851" y1="121.441" x2="258.417" y2="112.31"/>
				<g>
					<polyline fill="none" stroke="#333333" stroke-width="0.9957" stroke-linecap="round" stroke-miterlimit="10" points="
						250.191,121.078 250.633,120.607 256.623,114.222 257.007,113.813 					"/>
					
						<line fill="none" stroke="#333333" stroke-width="0.9957" stroke-linecap="round" stroke-miterlimit="10" x1="258.076" y1="112.673" x2="258.028" y2="112.724"/>
				</g>
			</g>
		</g>
		<g>
			
				<path fill="#A1C453" stroke="#333333" stroke-width="1.4936" stroke-linecap="round" stroke-linejoin="round" stroke-miterlimit="10" d="
				M223.894,142.369c2.387-0.227,3.467-1.679,7.422,1.444c3.955,3.125,0.033,4.444,2.634,6.5c-2.601-2.056-3.188,2.033-6.996-0.978
				C223.142,146.326,224.424,144.706,223.894,142.369z"/>
			<g>
				<line fill="none" x1="233.948" y1="150.313" x2="226.156" y2="144.158"/>
				<g>
					<polyline fill="none" stroke="#333333" stroke-width="0.9957" stroke-linecap="round" stroke-miterlimit="10" points="
						233.558,150.005 233.052,149.605 228.214,145.783 227.773,145.436 					"/>
					
						<line fill="none" stroke="#333333" stroke-width="0.9957" stroke-linecap="round" stroke-miterlimit="10" x1="226.547" y1="144.467" x2="226.602" y2="144.51"/>
				</g>
			</g>
		</g>
		<g>
			
				<path fill="#A1C453" stroke="#333333" stroke-width="1.4936" stroke-linecap="round" stroke-linejoin="round" stroke-miterlimit="10" d="
				M221.405,152.104c1.528-1.849,1.265-3.638,6.271-4.225s3.164,3.12,6.459,2.733c-3.295,0.387-0.818,3.69-5.641,4.256
				C223.67,155.434,223.431,153.381,221.405,152.104z"/>
			<g>
				<line fill="none" x1="234.134" y1="150.612" x2="224.27" y2="151.769"/>
				<g>
					<polyline fill="none" stroke="#333333" stroke-width="0.9957" stroke-linecap="round" stroke-miterlimit="10" points="
						233.64,150.67 232.999,150.745 226.874,151.463 226.317,151.528 					"/>
					
						<line fill="none" stroke="#333333" stroke-width="0.9957" stroke-linecap="round" stroke-miterlimit="10" x1="224.764" y1="151.711" x2="224.833" y2="151.702"/>
				</g>
			</g>
		</g>
		<g>
			
				<path fill="#A1C453" stroke="#333333" stroke-width="1.4936" stroke-linecap="round" stroke-linejoin="round" stroke-miterlimit="10" d="
				M206.995,120.9c2.438,1.794,2.662,4.065,8.961,3.248c6.303-0.819,2.914-4.787,7.059-5.324c-4.145,0.537-2.131-4.263-8.198-3.476
				C208.747,116.136,209.081,118.719,206.995,120.9z"/>
			<g>
				<line fill="none" x1="223.015" y1="118.824" x2="210.601" y2="120.435"/>
				<g>
					<polyline fill="none" stroke="#333333" stroke-width="0.9957" stroke-linecap="round" stroke-miterlimit="10" points="
						222.521,118.889 221.881,118.971 213.201,120.098 212.645,120.17 					"/>
					
						<line fill="none" stroke="#333333" stroke-width="0.9957" stroke-linecap="round" stroke-miterlimit="10" x1="211.095" y1="120.37" x2="211.164" y2="120.361"/>
				</g>
			</g>
		</g>
		<g>
			
				<path fill="#A1C453" stroke="#333333" stroke-width="1.4936" stroke-linecap="round" stroke-linejoin="round" stroke-miterlimit="10" d="
				M210.608,108.761c0.459,2.991-0.989,4.755,4.043,8.633c5.033,3.877,5.445-1.323,8.757,1.229
				c-3.312-2.552,1.508-4.524-3.339-8.258C215.218,106.631,213.629,108.694,210.608,108.761z"/>
			<g>
				<line fill="none" x1="223.407" y1="118.622" x2="213.491" y2="110.981"/>
				<g>
					<polyline fill="none" stroke="#333333" stroke-width="0.9957" stroke-linecap="round" stroke-miterlimit="10" points="
						223.013,118.318 222.502,117.925 215.568,112.582 215.124,112.239 					"/>
					
						<line fill="none" stroke="#333333" stroke-width="0.9957" stroke-linecap="round" stroke-miterlimit="10" x1="213.886" y1="111.285" x2="213.941" y2="111.328"/>
				</g>
			</g>
		</g>
		<g>
			
				<path fill="#A1C453" stroke="#333333" stroke-width="1.4936" stroke-linecap="round" stroke-linejoin="round" stroke-miterlimit="10" d="
				M214.919,128.382c2.371-0.146,3.647,1.106,7.036-2.559c3.386-3.669-0.655-4.353,1.571-6.765
				c-2.228,2.412-3.433-1.498-6.693,2.034C213.572,124.626,215.075,126.015,214.919,128.382z"/>
			<g>
				<line fill="none" x1="223.527" y1="119.059" x2="216.854" y2="126.284"/>
				<g>
					<polyline fill="none" stroke="#333333" stroke-width="0.9957" stroke-linecap="round" stroke-miterlimit="10" points="
						223.189,119.424 222.752,119.898 218.634,124.357 218.253,124.77 					"/>
					
						<line fill="none" stroke="#333333" stroke-width="0.9957" stroke-linecap="round" stroke-miterlimit="10" x1="217.192" y1="125.918" x2="217.239" y2="125.867"/>
				</g>
			</g>
		</g>
		<g>
			<g>
				<path fill="#EF4529" d="M257.675,124.368c1.282,3.247-0.939,8.341-3.559,8.203c-1.99,2.135-6.921-0.312-8.201-3.56
					c-1.281-3.245-0.959-7.086,4.045-7.544C253.731,118.508,256.392,121.121,257.675,124.368z"/>
				<g>
					<path fill="none" stroke="#333333" stroke-width="1.4936" stroke-linecap="round" stroke-miterlimit="10" d="M257.891,125.082
						c0.062,0.317,0.126,0.634,0.135,0.957c0.101,1.531-0.29,3.078-1.028,4.416c-0.377,0.662-0.858,1.29-1.506,1.709
						c-0.328,0.193-0.686,0.361-1.068,0.386l-0.287,0.021c-0.081,0.04-0.147,0.118-0.223,0.176
						c-0.138,0.137-0.301,0.235-0.477,0.316c-0.688,0.35-1.497,0.36-2.242,0.214c-0.752-0.148-1.468-0.447-2.133-0.827
						c-1.305-0.782-2.474-1.892-3.085-3.307c-0.573-1.405-0.907-2.986-0.537-4.487c0.188-0.743,0.593-1.433,1.17-1.938
						c0.571-0.519,1.301-0.825,2.036-1.017c0.368-0.11,0.75-0.155,1.129-0.207c0.205,0.011,0.343-0.15,0.502-0.25
						c0.159-0.106,0.308-0.232,0.478-0.321c0.649-0.401,1.389-0.68,2.153-0.73c0.766-0.052,1.535,0.177,2.173,0.603
						c0.165,0.088,0.314,0.235,0.448,0.337c0.071,0.059,0.146,0.114,0.207,0.183c0.127,0.134,0.265,0.259,0.385,0.398"/>
					
						<line fill="none" stroke="#333333" stroke-width="1.4936" stroke-linecap="round" stroke-miterlimit="10" x1="257.376" y1="123.684" x2="257.329" y2="123.59"/>
				</g>
			</g>
			
				<ellipse transform="matrix(0.2349 -0.972 0.972 0.2349 66.9442 336.984)" opacity="0.5" fill="#FFFFFF" enable-background="new    " cx="247.525" cy="125.969" rx="1.447" ry="1.191"/>
		</g>
		<g>
			<g>
				<path fill="#EF4529" d="M228.784,125.595c-0.272,3.481-4.505,7.081-6.796,5.808c-2.728,1.046-6.081-3.318-5.809-6.799
					c0.272-3.479,2.25-6.786,6.949-5C227.815,118.599,229.06,122.113,228.784,125.595z"/>
				<g>
					<path fill="none" stroke="#333333" stroke-width="1.4936" stroke-linecap="round" stroke-miterlimit="10" d="M228.665,126.331
						c-0.085,0.312-0.165,0.624-0.299,0.919c-0.582,1.419-1.611,2.64-2.863,3.517c-0.629,0.43-1.338,0.781-2.104,0.873
						c-0.38,0.029-0.773,0.024-1.13-0.123l-0.267-0.108c-0.091,0.004-0.186,0.043-0.277,0.063c-0.183,0.063-0.373,0.079-0.565,0.076
						c-0.771,0.011-1.503-0.336-2.108-0.794c-0.61-0.464-1.122-1.047-1.553-1.68c-0.828-1.275-1.394-2.785-1.32-4.325
						c0.102-1.514,0.495-3.082,1.487-4.268c0.494-0.585,1.161-1.025,1.901-1.226c0.74-0.216,1.53-0.171,2.276-0.019
						c0.379,0.062,0.741,0.188,1.105,0.309c0.179,0.1,0.371,0.017,0.56-0.003c0.19-0.025,0.377-0.074,0.569-0.08
						c0.761-0.075,1.546-0.002,2.256,0.288c0.71,0.289,1.303,0.833,1.688,1.494c0.109,0.152,0.181,0.351,0.255,0.5
						c0.039,0.084,0.081,0.167,0.106,0.256c0.056,0.176,0.124,0.348,0.17,0.525"/>
					
						<line fill="none" stroke="#333333" stroke-width="1.4936" stroke-linecap="round" stroke-miterlimit="10" x1="228.816" y1="124.849" x2="228.815" y2="124.744"/>
				</g>
			</g>
			<path opacity="0.5" fill="#FFFFFF" enable-background="new    " d="M219.879,123.336c-0.51,0.616-1.332,0.775-1.837,0.356
				c-0.508-0.42-0.506-1.26,0.002-1.875c0.509-0.616,1.332-0.776,1.84-0.356C220.388,121.879,220.386,122.72,219.879,123.336z"/>
		</g>
		<path fill="#CC924C" stroke="#333333" stroke-width="2.6551" stroke-linecap="round" stroke-miterlimit="10" d="M244.696,175.94
			l-19.021-79.899c-0.247-1.011,0.37-2.03,1.382-2.277l0,0c1.01-0.245,2.028,0.371,2.274,1.383l19.992,79.663"/>
		<g>
			
				<path fill="#A1C453" stroke="#333333" stroke-width="0.9957" stroke-linecap="round" stroke-linejoin="round" stroke-miterlimit="10" d="
				M228.431,93.273c0,0-1.726-2.372-2.188-2.747c-0.37-0.302-0.271,2.832-0.03,3.949L228.431,93.273z"/>
			
				<path fill="#A1C453" stroke="#333333" stroke-width="0.9957" stroke-linecap="round" stroke-linejoin="round" stroke-miterlimit="10" d="
				M226.126,93.593l3.723,2.547c0,0-0.406-4.471-1.836-5.686C228.013,90.454,227.099,92.428,226.126,93.593z"/>
			
				<path fill="#A1C453" stroke="#333333" stroke-width="0.9957" stroke-linecap="round" stroke-linejoin="round" stroke-miterlimit="10" d="
				M226.829,98.929c0,0-3.359-4.442-2.406-7.597l3.438,2.613L226.829,98.929z"/>
		</g>
	</g>
</g>
</svg>
