<?xml version="1.0" encoding="utf-8"?>
<!-- Generator: Adobe Illustrator 16.0.0, SVG Export Plug-In . SVG Version: 6.00 Build 0)  -->
<!DOCTYPE svg PUBLIC "-//W3C//DTD SVG 1.1//EN" "http://www.w3.org/Graphics/SVG/1.1/DTD/svg11.dtd">
<svg version="1.1" id="Calque_1" xmlns="http://www.w3.org/2000/svg" xmlns:xlink="http://www.w3.org/1999/xlink" x="0px" y="0px"
	 width="340px" height="410px" viewBox="0 0 340 410" enable-background="new 0 0 340 410" xml:space="preserve">
<g id="calque00">
	<g>
		<path fill="#CC924C" stroke="#333333" stroke-width="2.4893" stroke-linecap="round" stroke-miterlimit="10" d="M104.236,176.923
			l7.844-4.041c0.895-0.527,2.049-0.229,2.575,0.666l0,0c0.528,0.896,0.229,2.051-0.666,2.578l-7.336,4.9"/>
		<g>
			
				<path fill="#A1C453" stroke="#333333" stroke-width="0.9957" stroke-linecap="round" stroke-linejoin="round" stroke-miterlimit="10" d="
				M115.523,174.725c0,0,1.771-2.337,1.997-2.89c0.186-0.442-2.788,0.559-3.789,1.111L115.523,174.725z"/>
			
				<path fill="#A1C453" stroke="#333333" stroke-width="0.9957" stroke-linecap="round" stroke-linejoin="round" stroke-miterlimit="10" d="
				M114.552,172.61l-1.363,4.299c0,0,4.162-1.677,4.913-3.398C118.102,173.511,115.947,173.204,114.552,172.61z"/>
			
				<path fill="#A1C453" stroke="#333333" stroke-width="0.9957" stroke-linecap="round" stroke-linejoin="round" stroke-miterlimit="10" d="
				M109.646,174.823c0,0,3.285-4.5,6.58-4.496l-1.51,4.046L109.646,174.823z"/>
		</g>
	</g>
</g>
<g id="calque01">
	<g>
		<g>
			
				<path fill="#A1C453" stroke="#333333" stroke-width="0.9957" stroke-linecap="round" stroke-linejoin="round" stroke-miterlimit="10" d="
				M130.405,172.525c-0.577-1.085-0.263-1.956-2.717-2.762c-2.453-0.806-1.905,1.244-3.521,0.715
				c1.615,0.529,0.033,1.937,2.396,2.712C128.926,173.965,129.258,172.96,130.405,172.525z"/>
			<g>
				<line fill="none" x1="124.167" y1="170.479" x2="129.002" y2="172.065"/>
				<g>
					<polyline fill="none" stroke="#333333" stroke-width="0.9957" stroke-linecap="round" stroke-miterlimit="10" points="
						124.64,170.634 125.253,170.835 126.511,171.248 127.043,171.423 					"/>
					
						<line fill="none" stroke="#333333" stroke-width="0.9957" stroke-linecap="round" stroke-miterlimit="10" x1="128.529" y1="171.91" x2="128.462" y2="171.889"/>
				</g>
			</g>
		</g>
		<path fill="#CC924C" stroke="#333333" stroke-width="2.4893" stroke-linecap="round" stroke-miterlimit="10" d="M104.236,176.923
			l23.848-13.469c0.895-0.527,2.049-0.23,2.576,0.666l0,0c0.527,0.896,0.229,2.051-0.666,2.578l-23.341,14.328"/>
		<g>
			
				<path fill="#A1C453" stroke="#333333" stroke-width="0.9957" stroke-linecap="round" stroke-linejoin="round" stroke-miterlimit="10" d="
				M131.526,165.297c0,0,1.772-2.337,1.998-2.89c0.185-0.442-2.788,0.559-3.79,1.111L131.526,165.297z"/>
			
				<path fill="#A1C453" stroke="#333333" stroke-width="0.9957" stroke-linecap="round" stroke-linejoin="round" stroke-miterlimit="10" d="
				M130.556,163.181l-1.363,4.3c0,0,4.162-1.677,4.914-3.397C134.106,164.083,131.95,163.776,130.556,163.181z"/>
			
				<path fill="#A1C453" stroke="#333333" stroke-width="0.9957" stroke-linecap="round" stroke-linejoin="round" stroke-miterlimit="10" d="
				M125.648,165.395c0,0,3.286-4.499,6.581-4.495l-1.51,4.045L125.648,165.395z"/>
		</g>
	</g>
</g>
<g id="calque02">
	<g>
		<g>
			
				<path fill="#A1C453" stroke="#333333" stroke-width="1.4936" stroke-linecap="round" stroke-linejoin="round" stroke-miterlimit="10" d="
				M134.458,179.642c-0.564-2.621,0.62-4.259-4.041-7.418c-4.662-3.158-4.744,1.467-7.812-0.611c3.066,2.078-1.09,4.08,3.4,7.121
				C130.496,181.776,131.79,179.865,134.458,179.642z"/>
			<g>
				<line fill="none" x1="122.606" y1="171.612" x2="131.792" y2="177.835"/>
				<g>
					<polyline fill="none" stroke="#333333" stroke-width="0.9957" stroke-linecap="round" stroke-miterlimit="10" points="
						123.019,171.892 123.553,172.253 129.621,176.364 130.085,176.679 					"/>
					
						<line fill="none" stroke="#333333" stroke-width="0.9957" stroke-linecap="round" stroke-miterlimit="10" x1="131.38" y1="177.556" x2="131.322" y2="177.517"/>
				</g>
			</g>
		</g>
		<g>
			
				<path fill="#A1C453" stroke="#333333" stroke-width="0.9957" stroke-linecap="round" stroke-linejoin="round" stroke-miterlimit="10" d="
				M127.424,158.172c-1.056,0.586-1.916,0.29-2.667,2.711c-0.751,2.421,1.252,1.851,0.758,3.444c0.494-1.594,1.9-0.064,2.623-2.396
				C128.862,159.599,127.868,159.291,127.424,158.172z"/>
			<g>
				<line fill="none" x1="125.515" y1="164.327" x2="126.8" y2="160.079"/>
				<g>
					<polyline fill="none" stroke="#333333" stroke-width="0.9957" stroke-linecap="round" stroke-miterlimit="10" points="
						125.659,163.851 125.846,163.233 126.04,162.589 126.203,162.053 					"/>
					
						<line fill="none" stroke="#333333" stroke-width="0.9957" stroke-linecap="round" stroke-miterlimit="10" x1="126.655" y1="160.556" x2="126.636" y2="160.623"/>
				</g>
			</g>
		</g>
		<path fill="#CC924C" stroke="#333333" stroke-width="2.4893" stroke-linecap="round" stroke-miterlimit="10" d="M104.236,176.923
			l31.219-17.813c0.896-0.527,2.051-0.229,2.578,0.667l0,0c0.527,0.896,0.229,2.05-0.666,2.577l-30.714,18.672"/>
		<g>
			
				<path fill="#A1C453" stroke="#333333" stroke-width="0.9957" stroke-linecap="round" stroke-linejoin="round" stroke-miterlimit="10" d="
				M138.899,160.954c0,0,1.771-2.337,1.998-2.891c0.185-0.441-2.787,0.559-3.789,1.113L138.899,160.954z"/>
			
				<path fill="#A1C453" stroke="#333333" stroke-width="0.9957" stroke-linecap="round" stroke-linejoin="round" stroke-miterlimit="10" d="
				M137.928,158.839l-1.362,4.299c0,0,4.162-1.676,4.912-3.397C141.478,159.74,139.323,159.433,137.928,158.839z"/>
			
				<path fill="#A1C453" stroke="#333333" stroke-width="0.9957" stroke-linecap="round" stroke-linejoin="round" stroke-miterlimit="10" d="
				M133.021,161.052c0,0,3.286-4.499,6.58-4.496l-1.509,4.047L133.021,161.052z"/>
		</g>
	</g>
</g>
<g id="calque03">
	<g>
		
			<polygon fill="#CC924C" stroke="#333333" stroke-width="0.9957" stroke-linecap="round" stroke-linejoin="round" stroke-miterlimit="10" points="
			125.704,158.729 123.408,165.741 124.971,164.82 		"/>
		<g>
			
				<path fill="#A1C453" stroke="#333333" stroke-width="1.4936" stroke-linecap="round" stroke-linejoin="round" stroke-miterlimit="10" d="
				M134.149,179.58c-0.522-2.629,0.688-4.247-3.922-7.481c-4.608-3.232-4.766,1.39-7.799-0.737c3.033,2.127-1.155,4.062,3.285,7.176
				C130.153,181.651,131.479,179.761,134.149,179.58z"/>
			<g>
				<line fill="none" x1="122.429" y1="171.361" x2="131.511" y2="177.731"/>
				<g>
					<polyline fill="none" stroke="#333333" stroke-width="0.9957" stroke-linecap="round" stroke-miterlimit="10" points="
						122.836,171.647 123.364,172.018 129.364,176.226 129.823,176.548 					"/>
					
						<line fill="none" stroke="#333333" stroke-width="0.9957" stroke-linecap="round" stroke-miterlimit="10" x1="131.104" y1="177.445" x2="131.046" y2="177.405"/>
				</g>
			</g>
		</g>
		<g>
			
				<path fill="#A1C453" stroke="#333333" stroke-width="0.9957" stroke-linecap="round" stroke-linejoin="round" stroke-miterlimit="10" d="
				M151.188,165.228c-0.646-1.792,0.03-3.06-3.555-4.84c-3.585-1.779-3.202,1.486-5.562,0.314c2.358,1.172-0.378,2.979,3.074,4.692
				C148.601,167.11,149.331,165.64,151.188,165.228z"/>
			<g>
				<line fill="none" x1="142.072" y1="160.702" x2="149.136" y2="164.21"/>
				<g>
					<polyline fill="none" stroke="#333333" stroke-width="0.9957" stroke-linecap="round" stroke-miterlimit="10" points="
						142.519,160.924 143.096,161.211 146.787,163.044 147.289,163.293 					"/>
					
						<line fill="none" stroke="#333333" stroke-width="0.9957" stroke-linecap="round" stroke-miterlimit="10" x1="148.689" y1="163.988" x2="148.627" y2="163.957"/>
				</g>
			</g>
		</g>
		<g>
			
				<path fill="#A1C453" stroke="#333333" stroke-width="1.4936" stroke-linecap="round" stroke-linejoin="round" stroke-miterlimit="10" d="
				M130.381,147.321c0.905,2.223,2.607,2.836,0.758,7.523c-1.853,4.688-4.247,1.311-5.464,4.396
				c1.217-3.086-2.865-2.467-1.083-6.981C126.375,147.744,128.298,148.503,130.381,147.321z"/>
			<g>
				<line fill="none" x1="125.675" y1="159.241" x2="129.321" y2="150.005"/>
				<g>
					<polyline fill="none" stroke="#333333" stroke-width="0.9957" stroke-linecap="round" stroke-miterlimit="10" points="
						125.857,158.778 126.095,158.178 128.358,152.443 128.564,151.922 					"/>
					
						<line fill="none" stroke="#333333" stroke-width="0.9957" stroke-linecap="round" stroke-miterlimit="10" x1="129.139" y1="150.468" x2="129.112" y2="150.533"/>
				</g>
			</g>
		</g>
		<g>
			
				<path fill="#A1C453" stroke="#333333" stroke-width="0.9957" stroke-linecap="round" stroke-linejoin="round" stroke-miterlimit="10" d="
				M122.418,152.065c1.303,0.549,2.269,0.096,3.45,2.82c1.182,2.727-1.224,2.316-0.445,4.109c-0.777-1.793-2.222,0.166-3.36-2.458
				C120.925,153.912,122.04,153.428,122.418,152.065z"/>
			<g>
				<line fill="none" x1="125.423" y1="158.995" x2="123.093" y2="153.626"/>
				<g>
					<polyline fill="none" stroke="#333333" stroke-width="0.9957" stroke-linecap="round" stroke-miterlimit="10" points="
						125.225,158.538 124.968,157.946 124.137,156.031 123.913,155.517 					"/>
					
						<line fill="none" stroke="#333333" stroke-width="0.9957" stroke-linecap="round" stroke-miterlimit="10" x1="123.291" y1="154.083" x2="123.319" y2="154.146"/>
				</g>
			</g>
		</g>
		<path fill="#CC924C" stroke="#333333" stroke-width="2.6551" stroke-linecap="round" stroke-miterlimit="10" d="M104.236,176.923
			l38.854-22.31c0.896-0.528,2.05-0.229,2.578,0.667l0,0c0.526,0.896,0.229,2.05-0.668,2.578l-38.347,23.168"/>
		<g>
			
				<path fill="#A1C453" stroke="#333333" stroke-width="0.9957" stroke-linecap="round" stroke-linejoin="round" stroke-miterlimit="10" d="
				M146.534,156.456c0,0,1.771-2.336,1.996-2.889c0.186-0.443-2.787,0.559-3.789,1.111L146.534,156.456z"/>
			
				<path fill="#A1C453" stroke="#333333" stroke-width="0.9957" stroke-linecap="round" stroke-linejoin="round" stroke-miterlimit="10" d="
				M145.562,154.341l-1.362,4.3c0,0,4.162-1.677,4.913-3.397C149.112,155.243,146.958,154.936,145.562,154.341z"/>
			
				<path fill="#A1C453" stroke="#333333" stroke-width="0.9957" stroke-linecap="round" stroke-linejoin="round" stroke-miterlimit="10" d="
				M140.655,156.555c0,0,3.286-4.5,6.58-4.497l-1.509,4.047L140.655,156.555z"/>
		</g>
	</g>
</g>
<g id="calque04">
	<g>
		
			<polygon fill="#CC924C" stroke="#333333" stroke-width="0.9957" stroke-linecap="round" stroke-linejoin="round" stroke-miterlimit="10" points="
			158.331,166.062 139.146,161.306 141.567,159.88 		"/>
		
			<polygon fill="#CC924C" stroke="#333333" stroke-width="0.9957" stroke-linecap="round" stroke-linejoin="round" stroke-miterlimit="10" points="
			125.704,158.729 123.409,165.741 124.972,164.821 		"/>
		<g>
			
				<path fill="#A1C453" stroke="#333333" stroke-width="1.4936" stroke-linecap="round" stroke-linejoin="round" stroke-miterlimit="10" d="
				M134.149,179.58c-0.522-2.629,0.688-4.247-3.922-7.481c-4.608-3.232-4.766,1.39-7.799-0.737c3.033,2.127-1.155,4.062,3.285,7.176
				C130.153,181.651,131.479,179.761,134.149,179.58z"/>
			<g>
				<line fill="none" x1="122.429" y1="171.361" x2="131.511" y2="177.731"/>
				<g>
					<polyline fill="none" stroke="#333333" stroke-width="0.9957" stroke-linecap="round" stroke-miterlimit="10" points="
						122.836,171.647 123.364,172.018 129.364,176.226 129.823,176.548 					"/>
					
						<line fill="none" stroke="#333333" stroke-width="0.9957" stroke-linecap="round" stroke-miterlimit="10" x1="131.104" y1="177.445" x2="131.046" y2="177.405"/>
				</g>
			</g>
		</g>
		<g>
			
				<path fill="#A1C453" stroke="#333333" stroke-width="0.9957" stroke-linecap="round" stroke-linejoin="round" stroke-miterlimit="10" d="
				M166.081,162.524c-1.492-0.701-1.854-1.891-5.138-0.785c-3.284,1.104-1.051,2.868-3.211,3.596c2.16-0.728,1.592,2.055,4.754,0.99
				S165.197,163.914,166.081,162.524z"/>
			<g>
				<line fill="none" x1="157.733" y1="165.335" x2="164.202" y2="163.157"/>
				<g>
					<polyline fill="none" stroke="#333333" stroke-width="0.9957" stroke-linecap="round" stroke-miterlimit="10" points="
						158.205,165.176 158.816,164.971 161.717,163.994 162.248,163.814 					"/>
					
						<line fill="none" stroke="#333333" stroke-width="0.9957" stroke-linecap="round" stroke-miterlimit="10" x1="163.73" y1="163.316" x2="163.664" y2="163.339"/>
				</g>
			</g>
		</g>
		<g>
			
				<path fill="#A1C453" stroke="#333333" stroke-width="1.4936" stroke-linecap="round" stroke-linejoin="round" stroke-miterlimit="10" d="
				M172.376,173.324c-1.027-2.845,0.049-4.856-5.644-7.683c-5.69-2.823-5.082,2.359-8.827,0.5c3.745,1.859-0.601,4.729,4.881,7.448
				C168.27,176.312,169.427,173.979,172.376,173.324z"/>
			<g>
				<line fill="none" x1="157.906" y1="166.142" x2="169.12" y2="171.708"/>
				<g>
					<polyline fill="none" stroke="#333333" stroke-width="0.9957" stroke-linecap="round" stroke-miterlimit="10" points="
						158.353,166.363 158.93,166.649 166.771,170.542 167.273,170.791 					"/>
					
						<line fill="none" stroke="#333333" stroke-width="0.9957" stroke-linecap="round" stroke-miterlimit="10" x1="168.674" y1="171.486" x2="168.611" y2="171.455"/>
				</g>
			</g>
		</g>
		<g>
			
				<path fill="#A1C453" stroke="#333333" stroke-width="1.4936" stroke-linecap="round" stroke-linejoin="round" stroke-miterlimit="10" d="
				M130.381,147.321c0.905,2.223,2.607,2.836,0.758,7.523c-1.853,4.688-4.247,1.311-5.464,4.396
				c1.217-3.086-2.865-2.467-1.083-6.981C126.375,147.744,128.298,148.503,130.381,147.321z"/>
			<g>
				<line fill="none" x1="125.675" y1="159.241" x2="129.321" y2="150.005"/>
				<g>
					<polyline fill="none" stroke="#333333" stroke-width="0.9957" stroke-linecap="round" stroke-miterlimit="10" points="
						125.857,158.778 126.095,158.178 128.358,152.443 128.564,151.922 					"/>
					
						<line fill="none" stroke="#333333" stroke-width="0.9957" stroke-linecap="round" stroke-miterlimit="10" x1="129.139" y1="150.468" x2="129.112" y2="150.533"/>
				</g>
			</g>
		</g>
		<g>
			
				<path fill="#A1C453" stroke="#333333" stroke-width="1.4936" stroke-linecap="round" stroke-linejoin="round" stroke-miterlimit="10" d="
				M120.343,147.746c2.211,0.931,3.848,0.161,5.854,4.784c2.007,4.625-2.074,3.931-0.755,6.973c-1.319-3.042-3.771,0.282-5.703-4.17
				C117.808,150.878,119.704,150.056,120.343,147.746z"/>
			<g>
				<line fill="none" x1="125.442" y1="159.503" x2="121.489" y2="150.393"/>
				<g>
					<polyline fill="none" stroke="#333333" stroke-width="0.9957" stroke-linecap="round" stroke-miterlimit="10" points="
						125.244,159.046 124.987,158.454 122.533,152.798 122.31,152.283 					"/>
					
						<line fill="none" stroke="#333333" stroke-width="0.9957" stroke-linecap="round" stroke-miterlimit="10" x1="121.688" y1="150.85" x2="121.716" y2="150.913"/>
				</g>
			</g>
		</g>
		<g>
			
				<path fill="#A1C453" stroke="#333333" stroke-width="0.9957" stroke-linecap="round" stroke-linejoin="round" stroke-miterlimit="10" d="
				M155.649,139.986c-1.387,0.659-2.456,0.214-3.604,3.23c-1.148,3.016,1.441,2.452,0.686,4.438c0.757-1.985,2.42,0.071,3.526-2.833
				C157.362,141.915,156.126,141.445,155.649,139.986z"/>
			<g>
				<line fill="none" x1="152.73" y1="147.654" x2="154.993" y2="141.712"/>
				<g>
					<polyline fill="none" stroke="#333333" stroke-width="0.9957" stroke-linecap="round" stroke-miterlimit="10" points="
						152.907,147.189 153.138,146.586 154.061,144.162 154.26,143.639 					"/>
					
						<line fill="none" stroke="#333333" stroke-width="0.9957" stroke-linecap="round" stroke-miterlimit="10" x1="154.816" y1="142.177" x2="154.791" y2="142.242"/>
				</g>
			</g>
		</g>
		<path fill="#CC924C" stroke="#333333" stroke-width="2.6551" stroke-linecap="round" stroke-miterlimit="10" d="M104.236,176.923
			l52.751-30.497c0.896-0.528,2.052-0.229,2.578,0.667l0,0c0.527,0.896,0.229,2.05-0.667,2.578l-52.245,31.355"/>
		<g>
			
				<path fill="#A1C453" stroke="#333333" stroke-width="0.9957" stroke-linecap="round" stroke-linejoin="round" stroke-miterlimit="10" d="
				M160.433,148.269c0,0,1.771-2.336,1.998-2.889c0.185-0.443-2.788,0.558-3.791,1.111L160.433,148.269z"/>
			
				<path fill="#A1C453" stroke="#333333" stroke-width="0.9957" stroke-linecap="round" stroke-linejoin="round" stroke-miterlimit="10" d="
				M159.46,146.153l-1.363,4.299c0,0,4.163-1.676,4.914-3.396C163.011,147.056,160.856,146.748,159.46,146.153z"/>
			
				<path fill="#A1C453" stroke="#333333" stroke-width="0.9957" stroke-linecap="round" stroke-linejoin="round" stroke-miterlimit="10" d="
				M154.554,148.367c0,0,3.286-4.5,6.58-4.497l-1.509,4.047L154.554,148.367z"/>
		</g>
		<g>
			
				<path fill="#FFFFFF" stroke="#333333" stroke-width="0.9957" stroke-linecap="round" stroke-linejoin="round" stroke-miterlimit="10" d="
				M157.558,167.087c0.004,0.445-0.758,0.902-1.365,1.182c-1.092,0.504-2.927,0.204-2.938-1.197
				c-0.012-1.408,1.816-1.747,2.919-1.268C156.782,166.072,157.554,166.638,157.558,167.087z"/>
			
				<path fill="#FFFFFF" stroke="#333333" stroke-width="0.9957" stroke-linecap="round" stroke-linejoin="round" stroke-miterlimit="10" d="
				M157.663,167.138c0.384-0.227,1.161,0.203,1.706,0.59c0.982,0.693,1.64,2.434,0.433,3.145c-1.213,0.715-2.422-0.7-2.557-1.894
				C157.171,168.314,157.276,167.364,157.663,167.138z"/>
			
				<path fill="#FFFFFF" stroke="#333333" stroke-width="0.9957" stroke-linecap="round" stroke-linejoin="round" stroke-miterlimit="10" d="
				M157.656,167.026c-0.388-0.219-0.402-1.107-0.341-1.772c0.109-1.198,1.287-2.638,2.507-1.947
				c1.227,0.693,0.604,2.446-0.361,3.161C158.923,166.863,158.048,167.247,157.656,167.026z"/>
			
				<path fill="#FFFFFF" stroke="#333333" stroke-width="0.9957" stroke-linecap="round" stroke-linejoin="round" stroke-miterlimit="10" d="
				M157.521,166.966c-0.385,0.227-1.16-0.205-1.705-0.59c-0.981-0.695-1.641-2.434-0.434-3.145c1.213-0.715,2.422,0.699,2.557,1.893
				C158.013,165.788,157.907,166.738,157.521,166.966z"/>
			
				<path fill="#FFFFFF" stroke="#333333" stroke-width="0.9957" stroke-linecap="round" stroke-linejoin="round" stroke-miterlimit="10" d="
				M157.533,167.081c0.388,0.219,0.402,1.106,0.342,1.771c-0.109,1.199-1.287,2.637-2.507,1.947c-1.228-0.693-0.605-2.446,0.36-3.16
				C156.268,167.243,157.143,166.858,157.533,167.081z"/>
			
				<path fill="#FFFFFF" stroke="#333333" stroke-width="0.9957" stroke-linecap="round" stroke-linejoin="round" stroke-miterlimit="10" d="
				M157.628,166.999c-0.004-0.445,0.757-0.902,1.363-1.182c1.094-0.504,2.928-0.204,2.939,1.197
				c0.012,1.408-1.815,1.747-2.917,1.268C158.401,168.014,157.632,167.448,157.628,166.999z"/>
			
				<circle fill="#F9D53E" stroke="#333333" stroke-width="0.9957" stroke-linecap="round" stroke-linejoin="round" stroke-miterlimit="10" cx="157.521" cy="166.966" r="0.926"/>
		</g>
	</g>
</g>
<g id="calque05">
	<g>
		
			<polygon fill="#CC924C" stroke="#333333" stroke-width="0.7966" stroke-linecap="round" stroke-linejoin="round" stroke-miterlimit="10" points="
			152.979,140.005 151.278,149.785 153.7,148.358 		"/>
		
			<polygon fill="#CC924C" stroke="#333333" stroke-width="0.9957" stroke-linecap="round" stroke-linejoin="round" stroke-miterlimit="10" points="
			158.33,166.06 139.146,161.304 141.565,159.878 		"/>
		
			<polygon fill="#CC924C" stroke="#333333" stroke-width="0.9957" stroke-linecap="round" stroke-linejoin="round" stroke-miterlimit="10" points="
			125.702,158.726 123.407,165.738 124.97,164.817 		"/>
		<g>
			
				<path fill="#A1C453" stroke="#333333" stroke-width="1.4936" stroke-linecap="round" stroke-linejoin="round" stroke-miterlimit="10" d="
				M134.147,179.577c-0.521-2.629,0.689-4.248-3.921-7.481c-4.609-3.232-4.767,1.39-7.8-0.737c3.033,2.127-1.154,4.063,3.285,7.176
				C130.15,181.648,131.478,179.757,134.147,179.577z"/>
			<g>
				<line fill="none" x1="122.427" y1="171.358" x2="131.509" y2="177.729"/>
				<g>
					<polyline fill="none" stroke="#333333" stroke-width="0.9957" stroke-linecap="round" stroke-miterlimit="10" points="
						122.834,171.645 123.362,172.015 129.362,176.223 129.821,176.545 					"/>
					
						<line fill="none" stroke="#333333" stroke-width="0.9957" stroke-linecap="round" stroke-miterlimit="10" x1="131.102" y1="177.442" x2="131.044" y2="177.402"/>
				</g>
			</g>
		</g>
		<g>
			
				<path fill="#A1C453" stroke="#333333" stroke-width="1.4936" stroke-linecap="round" stroke-linejoin="round" stroke-miterlimit="10" d="
				M173.562,160.71c-2.739-1.285-3.399-3.467-9.423-1.441c-6.021,2.026-1.926,5.261-5.89,6.594c3.964-1.333,2.92,3.768,8.719,1.816
				C172.77,165.726,171.938,163.258,173.562,160.71z"/>
			<g>
				<line fill="none" x1="158.249" y1="165.862" x2="170.115" y2="161.87"/>
				<g>
					<polyline fill="none" stroke="#333333" stroke-width="0.9957" stroke-linecap="round" stroke-miterlimit="10" points="
						158.721,165.703 159.332,165.498 167.63,162.706 168.161,162.527 					"/>
					
						<line fill="none" stroke="#333333" stroke-width="0.9957" stroke-linecap="round" stroke-miterlimit="10" x1="169.644" y1="162.029" x2="169.577" y2="162.051"/>
				</g>
			</g>
		</g>
		<g>
			
				<path fill="#A1C453" stroke="#333333" stroke-width="1.4936" stroke-linecap="round" stroke-linejoin="round" stroke-miterlimit="10" d="
				M172.375,173.321c-1.028-2.844,0.048-4.855-5.645-7.682c-5.69-2.824-5.082,2.358-8.827,0.498c3.745,1.86-0.6,4.729,4.882,7.449
				C168.269,176.31,169.426,173.976,172.375,173.321z"/>
			<g>
				<line fill="none" x1="157.904" y1="166.138" x2="169.118" y2="171.705"/>
				<g>
					<polyline fill="none" stroke="#333333" stroke-width="0.9957" stroke-linecap="round" stroke-miterlimit="10" points="
						158.351,166.359 158.928,166.646 166.77,170.539 167.271,170.788 					"/>
					
						<line fill="none" stroke="#333333" stroke-width="0.9957" stroke-linecap="round" stroke-miterlimit="10" x1="168.672" y1="171.483" x2="168.609" y2="171.452"/>
				</g>
			</g>
		</g>
		<g>
			
				<path fill="#A1C453" stroke="#333333" stroke-width="1.4936" stroke-linecap="round" stroke-linejoin="round" stroke-miterlimit="10" d="
				M130.38,147.319c0.905,2.222,2.607,2.835,0.758,7.523c-1.854,4.688-4.248,1.311-5.465,4.396c1.217-3.085-2.865-2.466-1.082-6.981
				C126.374,147.742,128.296,148.501,130.38,147.319z"/>
			<g>
				<line fill="none" x1="125.673" y1="159.238" x2="129.32" y2="150.002"/>
				<g>
					<polyline fill="none" stroke="#333333" stroke-width="0.9957" stroke-linecap="round" stroke-miterlimit="10" points="
						125.855,158.775 126.093,158.175 128.357,152.44 128.563,151.919 					"/>
					
						<line fill="none" stroke="#333333" stroke-width="0.9957" stroke-linecap="round" stroke-miterlimit="10" x1="129.138" y1="150.465" x2="129.111" y2="150.53"/>
				</g>
			</g>
		</g>
		<g>
			
				<path fill="#A1C453" stroke="#333333" stroke-width="1.4936" stroke-linecap="round" stroke-linejoin="round" stroke-miterlimit="10" d="
				M120.341,147.743c2.212,0.932,3.849,0.16,5.854,4.785c2.008,4.623-2.074,3.93-0.755,6.972c-1.319-3.042-3.771,0.282-5.702-4.171
				C117.806,150.875,119.702,150.053,120.341,147.743z"/>
			<g>
				<line fill="none" x1="125.44" y1="159.5" x2="121.487" y2="150.39"/>
				<g>
					<polyline fill="none" stroke="#333333" stroke-width="0.9957" stroke-linecap="round" stroke-miterlimit="10" points="
						125.242,159.043 124.985,158.451 122.531,152.795 122.308,152.28 					"/>
					
						<line fill="none" stroke="#333333" stroke-width="0.9957" stroke-linecap="round" stroke-miterlimit="10" x1="121.686" y1="150.847" x2="121.714" y2="150.91"/>
				</g>
			</g>
		</g>
		<g>
			
				<path fill="#A1C453" stroke="#333333" stroke-width="1.4936" stroke-linecap="round" stroke-linejoin="round" stroke-miterlimit="10" d="
				M158.728,124.907c-2.73,1.299-4.838,0.422-7.1,6.361c-2.26,5.938,2.84,4.828,1.351,8.736c1.489-3.908,4.766,0.139,6.942-5.578
				C162.099,128.706,159.663,127.779,158.728,124.907z"/>
			<g>
				<line fill="none" x1="152.979" y1="140.005" x2="157.435" y2="128.306"/>
				<g>
					<polyline fill="none" stroke="#333333" stroke-width="0.9957" stroke-linecap="round" stroke-miterlimit="10" points="
						153.155,139.54 153.386,138.937 156.501,130.756 156.701,130.232 					"/>
					
						<line fill="none" stroke="#333333" stroke-width="0.9957" stroke-linecap="round" stroke-miterlimit="10" x1="157.257" y1="128.771" x2="157.232" y2="128.836"/>
				</g>
			</g>
		</g>
		<g>
			
				<path fill="#A1C453" stroke="#333333" stroke-width="0.9957" stroke-linecap="round" stroke-linejoin="round" stroke-miterlimit="10" d="
				M144.985,136.622c0.559,1.508-0.006,2.582,3.029,4.059c3.035,1.479,2.69-1.273,4.688-0.303c-1.997-0.971,0.3-2.513-2.623-3.936
				C147.154,135.019,146.548,136.263,144.985,136.622z"/>
			<g>
				<line fill="none" x1="152.702" y1="140.378" x2="146.722" y2="137.468"/>
				<g>
					<polyline fill="none" stroke="#333333" stroke-width="0.9957" stroke-linecap="round" stroke-miterlimit="10" points="
						152.255,140.16 151.675,139.878 149.079,138.615 148.575,138.37 					"/>
					
						<line fill="none" stroke="#333333" stroke-width="0.9957" stroke-linecap="round" stroke-miterlimit="10" x1="147.169" y1="137.686" x2="147.232" y2="137.716"/>
				</g>
			</g>
		</g>
		<g>
			<g>
				<path fill="#D3F46C" d="M158.142,172.095c-2.021,1.596-6.088,1.11-6.547-0.768c-1.932-0.95-1.252-4.951,0.768-6.547
					c2.021-1.596,4.8-2.185,6.188,1.252C161.441,168.063,160.161,170.499,158.142,172.095z"/>
				<g>
					<path fill="none" stroke="#333333" stroke-width="0.9957" stroke-linecap="round" stroke-miterlimit="10" d="M157.73,172.375
						c-0.193,0.091-0.375,0.213-0.581,0.279c-1.064,0.434-2.262,0.49-3.383,0.272c-0.56-0.119-1.11-0.33-1.562-0.688
						c-0.213-0.19-0.412-0.406-0.521-0.674c-0.021-0.338-0.419-0.349-0.571-0.602c-0.797-0.875-0.748-2.183-0.498-3.266
						c0.276-1.107,0.848-2.17,1.734-2.906c0.896-0.698,1.97-1.268,3.129-1.273c1.179-0.028,2.201,0.794,2.727,1.802
						c0.156,0.237,0.223,0.537,0.398,0.755c0.226,0.178,0.46,0.343,0.656,0.555c0.406,0.399,0.751,0.885,0.895,1.443
						c0.149,0.558,0.081,1.155-0.13,1.687c-0.053,0.128-0.108,0.275-0.175,0.382l-0.088,0.162c-0.054,0.11-0.132,0.207-0.198,0.311"
						/>
					
						<line fill="none" stroke="#333333" stroke-width="0.9957" stroke-linecap="round" stroke-miterlimit="10" x1="158.522" y1="171.774" x2="158.574" y2="171.727"/>
				</g>
			</g>
			
				<ellipse transform="matrix(0.9985 -0.0551 0.0551 0.9985 -8.8778 8.7902)" opacity="0.5" fill="#FFFFFF" enable-background="new    " cx="154.855" cy="165.276" rx="1.067" ry="0.878"/>
		</g>
		<path fill="#CC924C" stroke="#333333" stroke-width="2.6551" stroke-linecap="round" stroke-miterlimit="10" d="M104.235,176.92
			l59.688-34.583c0.896-0.527,2.049-0.229,2.577,0.667l0,0c0.527,0.896,0.229,2.05-0.667,2.577l-59.183,35.442"/>
		<g>
			
				<path fill="#A1C453" stroke="#333333" stroke-width="0.9957" stroke-linecap="round" stroke-linejoin="round" stroke-miterlimit="10" d="
				M167.366,144.18c0,0,1.772-2.337,1.998-2.89c0.185-0.441-2.787,0.559-3.789,1.111L167.366,144.18z"/>
			
				<path fill="#A1C453" stroke="#333333" stroke-width="0.9957" stroke-linecap="round" stroke-linejoin="round" stroke-miterlimit="10" d="
				M166.396,142.065l-1.362,4.298c0,0,4.161-1.677,4.913-3.397C169.946,142.966,167.791,142.659,166.396,142.065z"/>
			
				<path fill="#A1C453" stroke="#333333" stroke-width="0.9957" stroke-linecap="round" stroke-linejoin="round" stroke-miterlimit="10" d="
				M161.489,144.278c0,0,3.285-4.5,6.58-4.496l-1.51,4.045L161.489,144.278z"/>
		</g>
		<g>
			
				<path fill="#FFFFFF" stroke="#333333" stroke-width="0.9957" stroke-linecap="round" stroke-linejoin="round" stroke-miterlimit="10" d="
				M151.479,140.507c0.003,0.445-0.758,0.902-1.363,1.182c-1.094,0.504-2.929,0.204-2.94-1.197
				c-0.012-1.408,1.817-1.748,2.918-1.267C150.704,139.493,151.476,140.058,151.479,140.507z"/>
			
				<path fill="#FFFFFF" stroke="#333333" stroke-width="0.9957" stroke-linecap="round" stroke-linejoin="round" stroke-miterlimit="10" d="
				M151.585,140.558c0.385-0.227,1.16,0.203,1.706,0.59c0.982,0.694,1.64,2.434,0.433,3.145c-1.213,0.715-2.422-0.699-2.557-1.893
				C151.093,141.735,151.198,140.785,151.585,140.558z"/>
			
				<path fill="#FFFFFF" stroke="#333333" stroke-width="0.9957" stroke-linecap="round" stroke-linejoin="round" stroke-miterlimit="10" d="
				M151.579,140.446c-0.39-0.219-0.404-1.107-0.343-1.772c0.109-1.198,1.287-2.637,2.507-1.946c1.227,0.693,0.604,2.446-0.36,3.159
				C152.845,140.284,151.969,140.668,151.579,140.446z"/>
			
				<path fill="#FFFFFF" stroke="#333333" stroke-width="0.9957" stroke-linecap="round" stroke-linejoin="round" stroke-miterlimit="10" d="
				M151.442,140.386c-0.384,0.227-1.159-0.203-1.705-0.59c-0.981-0.695-1.641-2.434-0.434-3.145
				c1.213-0.715,2.422,0.699,2.557,1.893C151.935,139.208,151.829,140.158,151.442,140.386z"/>
			
				<path fill="#FFFFFF" stroke="#333333" stroke-width="0.9957" stroke-linecap="round" stroke-linejoin="round" stroke-miterlimit="10" d="
				M151.455,140.501c0.388,0.219,0.402,1.107,0.341,1.771c-0.109,1.199-1.286,2.638-2.506,1.947c-1.228-0.693-0.605-2.446,0.36-3.16
				C150.188,140.663,151.064,140.279,151.455,140.501z"/>
			
				<path fill="#FFFFFF" stroke="#333333" stroke-width="0.9957" stroke-linecap="round" stroke-linejoin="round" stroke-miterlimit="10" d="
				M151.55,140.42c-0.004-0.446,0.758-0.903,1.364-1.183c1.093-0.504,2.927-0.204,2.938,1.197c0.015,1.408-1.815,1.748-2.916,1.268
				C152.323,141.435,151.554,140.868,151.55,140.42z"/>
			
				<circle fill="#F9D53E" stroke="#333333" stroke-width="0.9957" stroke-linecap="round" stroke-linejoin="round" stroke-miterlimit="10" cx="151.443" cy="140.387" r="0.926"/>
		</g>
	</g>
</g>
<g id="calque06">
	<g>
		
			<polygon fill="#CC924C" stroke="#333333" stroke-width="0.7966" stroke-linecap="round" stroke-linejoin="round" stroke-miterlimit="10" points="
			152.979,140.007 151.28,149.788 153.701,148.361 		"/>
		
			<polygon fill="#CC924C" stroke="#333333" stroke-width="0.9957" stroke-linecap="round" stroke-linejoin="round" stroke-miterlimit="10" points="
			158.331,166.062 139.146,161.306 141.567,159.88 		"/>
		
			<polygon fill="#CC924C" stroke="#333333" stroke-width="0.9957" stroke-linecap="round" stroke-linejoin="round" stroke-miterlimit="10" points="
			125.704,158.729 123.409,165.741 124.972,164.821 		"/>
		<g>
			
				<path fill="#A1C453" stroke="#333333" stroke-width="1.4936" stroke-linecap="round" stroke-linejoin="round" stroke-miterlimit="10" d="
				M134.149,179.58c-0.522-2.629,0.688-4.247-3.922-7.481c-4.608-3.232-4.766,1.39-7.799-0.737c3.033,2.127-1.155,4.062,3.285,7.176
				C130.153,181.651,131.479,179.761,134.149,179.58z"/>
			<g>
				<line fill="none" x1="122.429" y1="171.361" x2="131.511" y2="177.731"/>
				<g>
					<polyline fill="none" stroke="#333333" stroke-width="0.9957" stroke-linecap="round" stroke-miterlimit="10" points="
						122.836,171.647 123.364,172.018 129.364,176.226 129.823,176.548 					"/>
					
						<line fill="none" stroke="#333333" stroke-width="0.9957" stroke-linecap="round" stroke-miterlimit="10" x1="131.104" y1="177.445" x2="131.046" y2="177.405"/>
				</g>
			</g>
		</g>
		<g>
			
				<path fill="#A1C453" stroke="#333333" stroke-width="0.9957" stroke-linecap="round" stroke-linejoin="round" stroke-miterlimit="10" d="
				M173.938,147.713c-1.3,0.955-1.42,2.166-4.778,1.729c-3.36-0.437-1.554-2.553-3.765-2.839c2.211,0.286,1.136-2.273,4.371-1.853
				C173.005,145.169,172.825,146.548,173.938,147.713z"/>
			<g>
				<line fill="none" x1="165.396" y1="146.604" x2="172.016" y2="147.463"/>
				<g>
					<polyline fill="none" stroke="#333333" stroke-width="0.9957" stroke-linecap="round" stroke-miterlimit="10" points="
						165.89,146.668 166.529,146.751 169.415,147.125 169.972,147.197 					"/>
					
						<line fill="none" stroke="#333333" stroke-width="0.9957" stroke-linecap="round" stroke-miterlimit="10" x1="171.521" y1="147.398" x2="171.452" y2="147.39"/>
				</g>
			</g>
		</g>
		<g>
			
				<path fill="#A1C453" stroke="#333333" stroke-width="1.4936" stroke-linecap="round" stroke-linejoin="round" stroke-miterlimit="10" d="
				M173.563,160.712c-2.737-1.283-3.398-3.467-9.423-1.441c-6.021,2.027-1.926,5.262-5.889,6.594
				c3.963-1.332,2.919,3.769,8.719,1.817C172.771,165.729,171.94,163.261,173.563,160.712z"/>
			<g>
				<line fill="none" x1="158.251" y1="165.864" x2="170.117" y2="161.872"/>
				<g>
					<polyline fill="none" stroke="#333333" stroke-width="0.9957" stroke-linecap="round" stroke-miterlimit="10" points="
						158.723,165.705 159.334,165.5 167.632,162.708 168.163,162.529 					"/>
					
						<line fill="none" stroke="#333333" stroke-width="0.9957" stroke-linecap="round" stroke-miterlimit="10" x1="169.646" y1="162.031" x2="169.579" y2="162.053"/>
				</g>
			</g>
		</g>
		<g>
			
				<path fill="#A1C453" stroke="#333333" stroke-width="1.4936" stroke-linecap="round" stroke-linejoin="round" stroke-miterlimit="10" d="
				M172.376,173.324c-1.027-2.845,0.049-4.856-5.644-7.683c-5.69-2.823-5.082,2.359-8.828,0.499c3.746,1.86-0.6,4.729,4.882,7.448
				C168.27,176.312,169.427,173.979,172.376,173.324z"/>
			<g>
				<line fill="none" x1="157.905" y1="166.141" x2="169.12" y2="171.708"/>
				<g>
					<polyline fill="none" stroke="#333333" stroke-width="0.9957" stroke-linecap="round" stroke-miterlimit="10" points="
						158.352,166.362 158.929,166.648 166.771,170.542 167.273,170.791 					"/>
					
						<line fill="none" stroke="#333333" stroke-width="0.9957" stroke-linecap="round" stroke-miterlimit="10" x1="168.674" y1="171.486" x2="168.611" y2="171.455"/>
				</g>
			</g>
		</g>
		<g>
			
				<path fill="#A1C453" stroke="#333333" stroke-width="1.4936" stroke-linecap="round" stroke-linejoin="round" stroke-miterlimit="10" d="
				M130.381,147.321c0.905,2.223,2.607,2.836,0.758,7.523c-1.853,4.688-4.247,1.311-5.464,4.396
				c1.217-3.086-2.866-2.467-1.083-6.981C126.375,147.744,128.298,148.503,130.381,147.321z"/>
			<g>
				<line fill="none" x1="125.675" y1="159.241" x2="129.321" y2="150.005"/>
				<g>
					<polyline fill="none" stroke="#333333" stroke-width="0.9957" stroke-linecap="round" stroke-miterlimit="10" points="
						125.857,158.778 126.095,158.178 128.358,152.443 128.564,151.922 					"/>
					
						<line fill="none" stroke="#333333" stroke-width="0.9957" stroke-linecap="round" stroke-miterlimit="10" x1="129.139" y1="150.468" x2="129.112" y2="150.533"/>
				</g>
			</g>
		</g>
		<g>
			
				<path fill="#A1C453" stroke="#333333" stroke-width="1.4936" stroke-linecap="round" stroke-linejoin="round" stroke-miterlimit="10" d="
				M120.343,147.746c2.212,0.932,3.848,0.161,5.854,4.784c2.008,4.625-2.073,3.931-0.754,6.973c-1.319-3.042-3.771,0.282-5.702-4.17
				C117.808,150.878,119.704,150.056,120.343,147.746z"/>
			<g>
				<line fill="none" x1="125.442" y1="159.503" x2="121.489" y2="150.393"/>
				<g>
					<polyline fill="none" stroke="#333333" stroke-width="0.9957" stroke-linecap="round" stroke-miterlimit="10" points="
						125.244,159.046 124.987,158.454 122.533,152.798 122.31,152.283 					"/>
					
						<line fill="none" stroke="#333333" stroke-width="0.9957" stroke-linecap="round" stroke-miterlimit="10" x1="121.688" y1="150.85" x2="121.716" y2="150.913"/>
				</g>
			</g>
		</g>
		<g>
			
				<path fill="#A1C453" stroke="#333333" stroke-width="0.9957" stroke-linecap="round" stroke-linejoin="round" stroke-miterlimit="10" d="
				M148.976,131.481c-0.552,1.549-1.698,2.022-0.285,5.175c1.414,3.152,2.949,0.765,3.878,2.839
				c-0.929-2.074,1.887-1.777,0.524-4.813S150.438,132.226,148.976,131.481z"/>
			<g>
				<line fill="none" x1="152.568" y1="139.495" x2="149.784" y2="133.284"/>
				<g>
					<polyline fill="none" stroke="#333333" stroke-width="0.9957" stroke-linecap="round" stroke-miterlimit="10" points="
						152.364,139.041 152.101,138.452 150.856,135.677 150.628,135.165 					"/>
					
						<line fill="none" stroke="#333333" stroke-width="0.9957" stroke-linecap="round" stroke-miterlimit="10" x1="149.987" y1="133.738" x2="150.017" y2="133.803"/>
				</g>
			</g>
		</g>
		<g>
			
				<path fill="#A1C453" stroke="#333333" stroke-width="1.4936" stroke-linecap="round" stroke-linejoin="round" stroke-miterlimit="10" d="
				M158.729,124.91c-2.73,1.299-4.838,0.422-7.1,6.36c-2.261,5.938,2.839,4.829,1.35,8.736c1.489-3.907,4.767,0.141,6.943-5.577
				C162.101,128.708,159.665,127.782,158.729,124.91z"/>
			<g>
				<line fill="none" x1="152.979" y1="140.007" x2="157.436" y2="128.308"/>
				<g>
					<polyline fill="none" stroke="#333333" stroke-width="0.9957" stroke-linecap="round" stroke-miterlimit="10" points="
						153.157,139.542 153.387,138.938 156.502,130.758 156.702,130.234 					"/>
					
						<line fill="none" stroke="#333333" stroke-width="0.9957" stroke-linecap="round" stroke-miterlimit="10" x1="157.259" y1="128.772" x2="157.233" y2="128.838"/>
				</g>
			</g>
		</g>
		<g>
			
				<path fill="#A1C453" stroke="#333333" stroke-width="1.4936" stroke-linecap="round" stroke-linejoin="round" stroke-miterlimit="10" d="
				M141.186,134.692c0.825,2.229-0.009,3.816,4.479,6.001s3.979-1.884,6.932-0.445c-2.953-1.438,0.443-3.719-3.88-5.822
				C144.394,132.32,143.497,134.161,141.186,134.692z"/>
			<g>
				<line fill="none" x1="152.597" y1="140.248" x2="143.755" y2="135.942"/>
				<g>
					<polyline fill="none" stroke="#333333" stroke-width="0.9957" stroke-linecap="round" stroke-miterlimit="10" points="
						152.149,140.03 151.569,139.748 146.112,137.09 145.608,136.845 					"/>
					
						<line fill="none" stroke="#333333" stroke-width="0.9957" stroke-linecap="round" stroke-miterlimit="10" x1="144.202" y1="136.16" x2="144.266" y2="136.191"/>
				</g>
			</g>
		</g>
		<g>
			<g>
				<path fill="#D3F46C" d="M157.36,174.477c-2.739,2.165-8.258,1.505-8.881-1.042c-2.619-1.289-1.698-6.715,1.042-8.879
					c2.739-2.164,6.509-2.962,8.393,1.697C161.834,169.009,160.099,172.313,157.36,174.477z"/>
				<g>
					<path fill="none" stroke="#333333" stroke-width="1.4936" stroke-linecap="round" stroke-miterlimit="10" d="M156.739,174.89
						c-0.285,0.149-0.569,0.303-0.878,0.404c-1.437,0.537-3.03,0.61-4.524,0.288c-0.743-0.17-1.482-0.451-2.07-0.949
						c-0.279-0.259-0.544-0.551-0.678-0.912l-0.103-0.269c-0.063-0.066-0.155-0.107-0.232-0.163
						c-0.171-0.091-0.313-0.219-0.44-0.363c-0.533-0.558-0.775-1.33-0.852-2.086c-0.074-0.763,0.005-1.534,0.177-2.28
						c0.373-1.476,1.098-2.914,2.277-3.908c1.18-0.953,2.597-1.729,4.142-1.809c0.765-0.034,1.542,0.154,2.192,0.562
						c0.661,0.397,1.165,1.007,1.561,1.657c0.213,0.32,0.365,0.673,0.524,1.021c0.049,0.198,0.242,0.283,0.384,0.408
						c0.146,0.122,0.311,0.226,0.445,0.363c0.571,0.507,1.052,1.134,1.319,1.852c0.271,0.718,0.273,1.522,0.051,2.254
						c-0.038,0.184-0.136,0.37-0.194,0.527c-0.035,0.085-0.066,0.172-0.114,0.251c-0.091,0.161-0.171,0.327-0.271,0.482"/>
					
						<line fill="none" stroke="#333333" stroke-width="1.4936" stroke-linecap="round" stroke-miterlimit="10" x1="157.93" y1="173.993" x2="158.006" y2="173.921"/>
				</g>
			</g>
			
				<ellipse transform="matrix(0.9984 -0.0558 0.0558 0.9984 -8.9873 8.7966)" opacity="0.5" fill="#FFFFFF" enable-background="new    " cx="152.905" cy="165.209" rx="1.447" ry="1.19"/>
		</g>
		<path fill="#CC924C" stroke="#333333" stroke-width="2.6551" stroke-linecap="round" stroke-miterlimit="10" d="M104.236,176.923
			l65.751-38.155c0.896-0.528,2.051-0.229,2.578,0.667l0,0c0.527,0.896,0.229,2.05-0.667,2.578l-65.245,39.014"/>
		<g>
			
				<path fill="#A1C453" stroke="#333333" stroke-width="0.9957" stroke-linecap="round" stroke-linejoin="round" stroke-miterlimit="10" d="
				M173.433,140.61c0,0,1.771-2.336,1.997-2.889c0.185-0.443-2.788,0.559-3.79,1.111L173.433,140.61z"/>
			
				<path fill="#A1C453" stroke="#333333" stroke-width="0.9957" stroke-linecap="round" stroke-linejoin="round" stroke-miterlimit="10" d="
				M172.461,138.495l-1.364,4.299c0,0,4.163-1.676,4.914-3.396C176.011,139.397,173.856,139.09,172.461,138.495z"/>
			
				<path fill="#A1C453" stroke="#333333" stroke-width="0.9957" stroke-linecap="round" stroke-linejoin="round" stroke-miterlimit="10" d="
				M167.554,140.708c0,0,3.286-4.499,6.581-4.496l-1.511,4.047L167.554,140.708z"/>
		</g>
		<g>
			<g>
				<path fill="#D3F46C" d="M150.785,145.221c-2.021,1.597-6.09,1.11-6.549-0.769c-1.932-0.95-1.253-4.951,0.77-6.547
					c2.02-1.597,4.798-2.184,6.187,1.252C154.084,141.188,152.805,143.624,150.785,145.221z"/>
				<g>
					<path fill="none" stroke="#333333" stroke-width="0.9957" stroke-linecap="round" stroke-miterlimit="10" d="M150.374,145.501
						c-0.194,0.091-0.375,0.213-0.581,0.279c-1.065,0.435-2.263,0.49-3.384,0.273c-0.56-0.12-1.109-0.331-1.562-0.689
						c-0.214-0.19-0.412-0.406-0.521-0.674c-0.022-0.338-0.417-0.35-0.57-0.602c-0.798-0.875-0.749-2.183-0.5-3.266
						c0.277-1.107,0.848-2.171,1.735-2.906c0.895-0.698,1.97-1.269,3.129-1.274c1.179-0.028,2.199,0.794,2.726,1.802
						c0.158,0.238,0.223,0.537,0.399,0.755c0.225,0.178,0.461,0.344,0.655,0.555c0.407,0.399,0.751,0.885,0.896,1.444
						c0.148,0.557,0.081,1.154-0.13,1.686c-0.054,0.129-0.108,0.276-0.174,0.382l-0.089,0.162c-0.055,0.111-0.133,0.207-0.198,0.311
						"/>
					
						<line fill="none" stroke="#333333" stroke-width="0.9957" stroke-linecap="round" stroke-miterlimit="10" x1="151.166" y1="144.9" x2="151.218" y2="144.853"/>
				</g>
			</g>
			
				<ellipse transform="matrix(0.9984 -0.0561 0.0561 0.9984 -7.5252 8.4852)" opacity="0.5" fill="#FFFFFF" enable-background="new    " cx="147.496" cy="138.389" rx="1.067" ry="0.877"/>
		</g>
	</g>
</g>
<g id="calque07">
	<g>
		
			<polygon fill="#CC924C" stroke="#333333" stroke-width="0.9957" stroke-linecap="round" stroke-linejoin="round" stroke-miterlimit="10" points="
			172.823,148.667 163.793,146.62 166.214,145.193 		"/>
		
			<polygon fill="#CC924C" stroke="#333333" stroke-width="0.7966" stroke-linecap="round" stroke-linejoin="round" stroke-miterlimit="10" points="
			152.978,140.004 151.278,149.785 153.7,148.358 		"/>
		
			<polygon fill="#CC924C" stroke="#333333" stroke-width="0.9957" stroke-linecap="round" stroke-linejoin="round" stroke-miterlimit="10" points="
			158.33,166.06 139.146,161.304 141.565,159.878 		"/>
		
			<polygon fill="#CC924C" stroke="#333333" stroke-width="0.9957" stroke-linecap="round" stroke-linejoin="round" stroke-miterlimit="10" points="
			125.702,158.726 123.407,165.738 124.97,164.817 		"/>
		<g>
			
				<path fill="#A1C453" stroke="#333333" stroke-width="1.4936" stroke-linecap="round" stroke-linejoin="round" stroke-miterlimit="10" d="
				M134.147,179.577c-0.521-2.629,0.689-4.248-3.921-7.481c-4.609-3.232-4.767,1.39-7.8-0.737c3.033,2.127-1.155,4.063,3.285,7.176
				C130.151,181.647,131.478,179.757,134.147,179.577z"/>
			<g>
				<line fill="none" x1="122.427" y1="171.358" x2="131.509" y2="177.728"/>
				<g>
					<polyline fill="none" stroke="#333333" stroke-width="0.9957" stroke-linecap="round" stroke-miterlimit="10" points="
						122.834,171.645 123.362,172.015 129.362,176.222 129.821,176.544 					"/>
					
						<line fill="none" stroke="#333333" stroke-width="0.9957" stroke-linecap="round" stroke-miterlimit="10" x1="131.102" y1="177.441" x2="131.044" y2="177.401"/>
				</g>
			</g>
		</g>
		<g>
			
				<path fill="#A1C453" stroke="#333333" stroke-width="1.4936" stroke-linecap="round" stroke-linejoin="round" stroke-miterlimit="10" d="
				M187.021,150.51c-2.16,1.587-2.357,3.601-7.941,2.874c-5.585-0.725-2.579-4.241-6.255-4.717c3.676,0.476,1.889-3.777,7.267-3.08
				C185.469,146.284,185.171,148.573,187.021,150.51z"/>
			<g>
				<line fill="none" x1="172.823" y1="148.667" x2="183.825" y2="150.095"/>
				<g>
					<polyline fill="none" stroke="#333333" stroke-width="0.9957" stroke-linecap="round" stroke-miterlimit="10" points="
						173.317,148.731 173.957,148.814 181.225,149.758 181.781,149.829 					"/>
					
						<line fill="none" stroke="#333333" stroke-width="0.9957" stroke-linecap="round" stroke-miterlimit="10" x1="183.331" y1="150.03" x2="183.262" y2="150.021"/>
				</g>
			</g>
		</g>
		<g>
			
				<path fill="#A1C453" stroke="#333333" stroke-width="1.4936" stroke-linecap="round" stroke-linejoin="round" stroke-miterlimit="10" d="
				M173.562,160.71c-2.739-1.285-3.399-3.468-9.423-1.441c-6.022,2.027-1.926,5.26-5.89,6.594c3.964-1.334,2.92,3.768,8.719,1.816
				C172.77,165.726,171.938,163.257,173.562,160.71z"/>
			<g>
				<line fill="none" x1="158.249" y1="165.862" x2="170.115" y2="161.87"/>
				<g>
					<polyline fill="none" stroke="#333333" stroke-width="0.9957" stroke-linecap="round" stroke-miterlimit="10" points="
						158.721,165.703 159.332,165.498 167.63,162.706 168.161,162.527 					"/>
					
						<line fill="none" stroke="#333333" stroke-width="0.9957" stroke-linecap="round" stroke-miterlimit="10" x1="169.644" y1="162.029" x2="169.577" y2="162.051"/>
				</g>
			</g>
		</g>
		<g>
			
				<path fill="#A1C453" stroke="#333333" stroke-width="1.4936" stroke-linecap="round" stroke-linejoin="round" stroke-miterlimit="10" d="
				M172.374,173.321c-1.027-2.844,0.049-4.855-5.644-7.682c-5.69-2.824-5.082,2.358-8.827,0.498c3.745,1.86-0.6,4.729,4.882,7.449
				C168.269,176.31,169.426,173.976,172.374,173.321z"/>
			<g>
				<line fill="none" x1="157.904" y1="166.138" x2="169.118" y2="171.705"/>
				<g>
					<polyline fill="none" stroke="#333333" stroke-width="0.9957" stroke-linecap="round" stroke-miterlimit="10" points="
						158.351,166.359 158.928,166.646 166.77,170.539 167.271,170.788 					"/>
					
						<line fill="none" stroke="#333333" stroke-width="0.9957" stroke-linecap="round" stroke-miterlimit="10" x1="168.672" y1="171.483" x2="168.609" y2="171.452"/>
				</g>
			</g>
		</g>
		<g>
			
				<path fill="#A1C453" stroke="#333333" stroke-width="1.4936" stroke-linecap="round" stroke-linejoin="round" stroke-miterlimit="10" d="
				M130.38,147.319c0.905,2.222,2.607,2.835,0.758,7.523c-1.854,4.688-4.248,1.311-5.465,4.395c1.217-3.084-2.865-2.465-1.082-6.98
				C126.373,147.741,128.296,148.501,130.38,147.319z"/>
			<g>
				<line fill="none" x1="125.673" y1="159.237" x2="129.32" y2="150.002"/>
				<g>
					<polyline fill="none" stroke="#333333" stroke-width="0.9957" stroke-linecap="round" stroke-miterlimit="10" points="
						125.855,158.774 126.093,158.174 128.357,152.44 128.563,151.919 					"/>
					
						<line fill="none" stroke="#333333" stroke-width="0.9957" stroke-linecap="round" stroke-miterlimit="10" x1="129.138" y1="150.465" x2="129.111" y2="150.53"/>
				</g>
			</g>
		</g>
		<g>
			
				<path fill="#A1C453" stroke="#333333" stroke-width="1.4936" stroke-linecap="round" stroke-linejoin="round" stroke-miterlimit="10" d="
				M120.341,147.743c2.212,0.932,3.849,0.16,5.854,4.785c2.008,4.623-2.074,3.93-0.755,6.972c-1.319-3.042-3.771,0.282-5.702-4.171
				C117.806,150.875,119.702,150.053,120.341,147.743z"/>
			<g>
				<line fill="none" x1="125.44" y1="159.5" x2="121.487" y2="150.39"/>
				<g>
					<polyline fill="none" stroke="#333333" stroke-width="0.9957" stroke-linecap="round" stroke-miterlimit="10" points="
						125.242,159.043 124.985,158.451 122.531,152.795 122.308,152.28 					"/>
					
						<line fill="none" stroke="#333333" stroke-width="0.9957" stroke-linecap="round" stroke-miterlimit="10" x1="121.686" y1="150.847" x2="121.714" y2="150.91"/>
				</g>
			</g>
		</g>
		<g>
			
				<path fill="#A1C453" stroke="#333333" stroke-width="1.4936" stroke-linecap="round" stroke-linejoin="round" stroke-miterlimit="10" d="
				M146.062,124.947c-1.014,2.851-3.124,3.72-0.522,9.517c2.6,5.799,5.422,1.408,7.133,5.225c-1.711-3.816,3.467-3.271,0.964-8.854
				C151.13,125.249,148.754,126.315,146.062,124.947z"/>
			<g>
				<line fill="none" x1="152.671" y1="139.688" x2="147.548" y2="128.265"/>
				<g>
					<polyline fill="none" stroke="#333333" stroke-width="0.9957" stroke-linecap="round" stroke-miterlimit="10" points="
						152.467,139.234 152.203,138.646 148.621,130.657 148.392,130.146 					"/>
					
						<line fill="none" stroke="#333333" stroke-width="0.9957" stroke-linecap="round" stroke-miterlimit="10" x1="147.752" y1="128.719" x2="147.78" y2="128.783"/>
				</g>
			</g>
		</g>
		<g>
			
				<path fill="#A1C453" stroke="#333333" stroke-width="1.4936" stroke-linecap="round" stroke-linejoin="round" stroke-miterlimit="10" d="
				M158.728,124.907c-2.73,1.299-4.838,0.422-7.1,6.36c-2.26,5.938,2.84,4.829,1.35,8.736c1.49-3.907,4.767,0.14,6.943-5.577
				C162.099,128.706,159.663,127.779,158.728,124.907z"/>
			<g>
				<line fill="none" x1="152.978" y1="140.004" x2="157.435" y2="128.306"/>
				<g>
					<polyline fill="none" stroke="#333333" stroke-width="0.9957" stroke-linecap="round" stroke-miterlimit="10" points="
						153.155,139.539 153.385,138.936 156.501,130.756 156.7,130.232 					"/>
					
						<line fill="none" stroke="#333333" stroke-width="0.9957" stroke-linecap="round" stroke-miterlimit="10" x1="157.257" y1="128.771" x2="157.232" y2="128.836"/>
				</g>
			</g>
		</g>
		<g>
			
				<path fill="#A1C453" stroke="#333333" stroke-width="1.4936" stroke-linecap="round" stroke-linejoin="round" stroke-miterlimit="10" d="
				M141.184,134.69c0.825,2.229-0.008,3.816,4.479,6c4.489,2.185,3.979-1.884,6.932-0.445c-2.953-1.438,0.443-3.719-3.879-5.822
				C144.392,132.317,143.496,134.157,141.184,134.69z"/>
			<g>
				<line fill="none" x1="152.595" y1="140.245" x2="143.753" y2="135.94"/>
				<g>
					<polyline fill="none" stroke="#333333" stroke-width="0.9957" stroke-linecap="round" stroke-miterlimit="10" points="
						152.147,140.027 151.567,139.745 146.11,137.088 145.606,136.843 					"/>
					
						<line fill="none" stroke="#333333" stroke-width="0.9957" stroke-linecap="round" stroke-miterlimit="10" x1="144.2" y1="136.158" x2="144.264" y2="136.189"/>
				</g>
			</g>
		</g>
		<g>
			<g>
				<path fill="#EF4529" d="M157.358,174.474c-2.739,2.164-8.258,1.506-8.881-1.042c-2.619-1.289-1.697-6.715,1.043-8.88
					c2.738-2.164,6.508-2.961,8.392,1.697C161.833,169.005,160.097,172.31,157.358,174.474z"/>
				<g>
					<path fill="none" stroke="#333333" stroke-width="1.4936" stroke-linecap="round" stroke-miterlimit="10" d="M156.736,174.887
						c-0.285,0.149-0.568,0.302-0.877,0.404c-1.437,0.537-3.03,0.61-4.524,0.288c-0.743-0.17-1.482-0.45-2.07-0.949
						c-0.279-0.259-0.544-0.551-0.678-0.912l-0.103-0.269c-0.063-0.066-0.156-0.107-0.232-0.163
						c-0.171-0.091-0.313-0.219-0.44-0.363c-0.533-0.558-0.775-1.33-0.852-2.086c-0.074-0.763,0.006-1.535,0.178-2.28
						c0.373-1.476,1.098-2.914,2.276-3.908c1.18-0.954,2.598-1.73,4.143-1.809c0.765-0.035,1.541,0.154,2.192,0.562
						c0.661,0.397,1.165,1.007,1.561,1.657c0.212,0.32,0.364,0.673,0.524,1.021c0.049,0.199,0.243,0.282,0.385,0.408
						c0.146,0.122,0.311,0.226,0.444,0.362c0.571,0.508,1.052,1.135,1.318,1.853c0.271,0.718,0.273,1.522,0.05,2.254
						c-0.036,0.184-0.135,0.37-0.193,0.527c-0.035,0.085-0.066,0.172-0.114,0.251c-0.091,0.161-0.171,0.327-0.271,0.482"/>
					
						<line fill="none" stroke="#333333" stroke-width="1.4936" stroke-linecap="round" stroke-miterlimit="10" x1="157.928" y1="173.99" x2="158.004" y2="173.918"/>
				</g>
			</g>
			
				<ellipse transform="matrix(0.9984 -0.0558 0.0558 0.9984 -8.9873 8.7967)" opacity="0.5" fill="#FFFFFF" enable-background="new    " cx="152.906" cy="165.21" rx="1.447" ry="1.19"/>
		</g>
		<g>
			<g>
				<path fill="#D3F46C" d="M147.853,147.165c-3.412,0.742-8.08-2.271-7.521-4.834c-1.788-2.308,1.422-6.779,4.834-7.521
					c3.41-0.742,7.146,0.197,6.794,5.211C154.272,144.217,151.264,146.423,147.853,147.165z"/>
				<g>
					<path fill="none" stroke="#333333" stroke-width="1.4936" stroke-linecap="round" stroke-miterlimit="10" d="M147.112,147.263
						c-0.321,0.009-0.645,0.022-0.966-0.021c-1.525-0.148-2.991-0.781-4.191-1.728c-0.594-0.479-1.135-1.056-1.443-1.762
						c-0.137-0.354-0.246-0.733-0.208-1.117l0.026-0.286c-0.027-0.087-0.094-0.165-0.139-0.248c-0.113-0.157-0.185-0.334-0.236-0.52
						c-0.233-0.735-0.113-1.536,0.15-2.248c0.269-0.718,0.68-1.377,1.16-1.971c0.982-1.162,2.267-2.138,3.761-2.513
						c1.479-0.34,3.095-0.415,4.517,0.193c0.702,0.305,1.315,0.815,1.723,1.468c0.42,0.646,0.604,1.416,0.675,2.174
						c0.052,0.381,0.033,0.765,0.023,1.147c-0.044,0.2,0.093,0.361,0.165,0.535c0.079,0.175,0.18,0.34,0.241,0.521
						c0.291,0.707,0.446,1.48,0.373,2.243c-0.071,0.765-0.424,1.488-0.944,2.047c-0.114,0.149-0.284,0.274-0.405,0.39
						c-0.068,0.061-0.136,0.125-0.214,0.175c-0.152,0.104-0.297,0.219-0.455,0.314"/>
					
						<line fill="none" stroke="#333333" stroke-width="1.4936" stroke-linecap="round" stroke-miterlimit="10" x1="148.576" y1="146.98" x2="148.677" y2="146.949"/>
				</g>
			</g>
			
				<ellipse transform="matrix(0.9216 0.3881 -0.3881 0.9216 64.7202 -46.6724)" opacity="0.5" fill="#FFFFFF" enable-background="new    " cx="147.903" cy="136.885" rx="1.447" ry="1.19"/>
		</g>
		<path fill="#CC924C" stroke="#333333" stroke-width="2.6551" stroke-linecap="round" stroke-miterlimit="10" d="M104.235,176.92
			l71.019-41.258c0.896-0.528,2.051-0.23,2.578,0.666l0,0c0.527,0.896,0.229,2.05-0.666,2.579l-70.515,42.116"/>
		<g>
			
				<path fill="#A1C453" stroke="#333333" stroke-width="0.9957" stroke-linecap="round" stroke-linejoin="round" stroke-miterlimit="10" d="
				M178.698,137.505c0,0,1.771-2.338,1.998-2.889c0.185-0.443-2.787,0.557-3.788,1.109L178.698,137.505z"/>
			
				<path fill="#A1C453" stroke="#333333" stroke-width="0.9957" stroke-linecap="round" stroke-linejoin="round" stroke-miterlimit="10" d="
				M177.728,135.39l-1.363,4.299c0,0,4.162-1.677,4.912-3.398C181.276,136.29,179.122,135.983,177.728,135.39z"/>
			
				<path fill="#A1C453" stroke="#333333" stroke-width="0.9957" stroke-linecap="round" stroke-linejoin="round" stroke-miterlimit="10" d="
				M172.82,137.603c0,0,3.286-4.499,6.581-4.496l-1.51,4.047L172.82,137.603z"/>
		</g>
	</g>
</g>
<g id="calque08">
	<g>
		
			<polygon fill="#CC924C" stroke="#333333" stroke-width="0.9957" stroke-linecap="round" stroke-linejoin="round" stroke-miterlimit="10" points="
			172.823,148.667 163.793,146.62 166.214,145.193 		"/>
		
			<polygon fill="#CC924C" stroke="#333333" stroke-width="0.7966" stroke-linecap="round" stroke-linejoin="round" stroke-miterlimit="10" points="
			152.978,140.004 151.278,149.784 153.699,148.358 		"/>
		
			<polygon fill="#CC924C" stroke="#333333" stroke-width="0.9957" stroke-linecap="round" stroke-linejoin="round" stroke-miterlimit="10" points="
			158.33,166.06 139.146,161.304 141.565,159.878 		"/>
		
			<polygon fill="#CC924C" stroke="#333333" stroke-width="0.9957" stroke-linecap="round" stroke-linejoin="round" stroke-miterlimit="10" points="
			125.702,158.726 123.407,165.738 124.97,164.817 		"/>
		<g>
			
				<path fill="#A1C453" stroke="#333333" stroke-width="1.4936" stroke-linecap="round" stroke-linejoin="round" stroke-miterlimit="10" d="
				M134.147,179.577c-0.521-2.629,0.689-4.248-3.921-7.481c-4.609-3.232-4.767,1.39-7.8-0.737c3.033,2.127-1.155,4.063,3.285,7.176
				C130.151,181.648,131.478,179.757,134.147,179.577z"/>
			<g>
				<line fill="none" x1="122.427" y1="171.358" x2="131.509" y2="177.728"/>
				<g>
					<polyline fill="none" stroke="#333333" stroke-width="0.9957" stroke-linecap="round" stroke-miterlimit="10" points="
						122.834,171.645 123.362,172.015 129.362,176.222 129.821,176.544 					"/>
					
						<line fill="none" stroke="#333333" stroke-width="0.9957" stroke-linecap="round" stroke-miterlimit="10" x1="131.102" y1="177.441" x2="131.044" y2="177.401"/>
				</g>
			</g>
		</g>
		<g>
			
				<path fill="#A1C453" stroke="#333333" stroke-width="1.4936" stroke-linecap="round" stroke-linejoin="round" stroke-miterlimit="10" d="
				M187.021,150.51c-2.16,1.587-2.358,3.6-7.941,2.874c-5.585-0.725-2.579-4.241-6.255-4.717c3.676,0.476,1.889-3.777,7.267-3.08
				C185.469,146.284,185.171,148.573,187.021,150.51z"/>
			<g>
				<line fill="none" x1="172.823" y1="148.667" x2="183.825" y2="150.095"/>
				<g>
					<polyline fill="none" stroke="#333333" stroke-width="0.9957" stroke-linecap="round" stroke-miterlimit="10" points="
						173.317,148.731 173.957,148.814 181.225,149.758 181.781,149.829 					"/>
					
						<line fill="none" stroke="#333333" stroke-width="0.9957" stroke-linecap="round" stroke-miterlimit="10" x1="183.331" y1="150.03" x2="183.262" y2="150.021"/>
				</g>
			</g>
		</g>
		<g>
			
				<path fill="#A1C453" stroke="#333333" stroke-width="1.4936" stroke-linecap="round" stroke-linejoin="round" stroke-miterlimit="10" d="
				M173.562,160.71c-2.739-1.285-3.399-3.468-9.423-1.441c-6.022,2.027-1.926,5.26-5.89,6.594c3.964-1.334,2.919,3.768,8.719,1.816
				C172.77,165.726,171.938,163.257,173.562,160.71z"/>
			<g>
				<line fill="none" x1="158.249" y1="165.862" x2="170.115" y2="161.87"/>
				<g>
					<polyline fill="none" stroke="#333333" stroke-width="0.9957" stroke-linecap="round" stroke-miterlimit="10" points="
						158.721,165.703 159.332,165.498 167.63,162.706 168.161,162.527 					"/>
					
						<line fill="none" stroke="#333333" stroke-width="0.9957" stroke-linecap="round" stroke-miterlimit="10" x1="169.644" y1="162.029" x2="169.577" y2="162.051"/>
				</g>
			</g>
		</g>
		<g>
			
				<path fill="#A1C453" stroke="#333333" stroke-width="1.4936" stroke-linecap="round" stroke-linejoin="round" stroke-miterlimit="10" d="
				M172.374,173.321c-1.027-2.846,0.049-4.855-5.644-7.682c-5.69-2.824-5.082,2.358-8.827,0.498c3.745,1.86-0.6,4.729,4.882,7.449
				C168.269,176.31,169.426,173.976,172.374,173.321z"/>
			<g>
				<line fill="none" x1="157.904" y1="166.138" x2="169.118" y2="171.705"/>
				<g>
					<polyline fill="none" stroke="#333333" stroke-width="0.9957" stroke-linecap="round" stroke-miterlimit="10" points="
						158.351,166.359 158.928,166.646 166.77,170.539 167.271,170.788 					"/>
					
						<line fill="none" stroke="#333333" stroke-width="0.9957" stroke-linecap="round" stroke-miterlimit="10" x1="168.672" y1="171.483" x2="168.609" y2="171.452"/>
				</g>
			</g>
		</g>
		<g>
			
				<path fill="#A1C453" stroke="#333333" stroke-width="1.4936" stroke-linecap="round" stroke-linejoin="round" stroke-miterlimit="10" d="
				M130.38,147.319c0.904,2.221,2.607,2.835,0.758,7.523c-1.853,4.688-4.248,1.311-5.465,4.395c1.217-3.084-2.865-2.465-1.082-6.98
				C126.373,147.741,128.296,148.501,130.38,147.319z"/>
			<g>
				<line fill="none" x1="125.673" y1="159.237" x2="129.32" y2="150.002"/>
				<g>
					<polyline fill="none" stroke="#333333" stroke-width="0.9957" stroke-linecap="round" stroke-miterlimit="10" points="
						125.855,158.774 126.093,158.174 128.357,152.44 128.563,151.919 					"/>
					
						<line fill="none" stroke="#333333" stroke-width="0.9957" stroke-linecap="round" stroke-miterlimit="10" x1="129.138" y1="150.465" x2="129.111" y2="150.53"/>
				</g>
			</g>
		</g>
		<g>
			
				<path fill="#A1C453" stroke="#333333" stroke-width="1.4936" stroke-linecap="round" stroke-linejoin="round" stroke-miterlimit="10" d="
				M120.341,147.743c2.212,0.932,3.849,0.16,5.854,4.785c2.008,4.623-2.074,3.93-0.755,6.972c-1.319-3.042-3.771,0.282-5.702-4.171
				C117.806,150.875,119.702,150.052,120.341,147.743z"/>
			<g>
				<line fill="none" x1="125.44" y1="159.5" x2="121.487" y2="150.39"/>
				<g>
					<polyline fill="none" stroke="#333333" stroke-width="0.9957" stroke-linecap="round" stroke-miterlimit="10" points="
						125.242,159.043 124.985,158.451 122.531,152.795 122.308,152.28 					"/>
					
						<line fill="none" stroke="#333333" stroke-width="0.9957" stroke-linecap="round" stroke-miterlimit="10" x1="121.686" y1="150.847" x2="121.714" y2="150.91"/>
				</g>
			</g>
		</g>
		<g>
			
				<path fill="#A1C453" stroke="#333333" stroke-width="1.4936" stroke-linecap="round" stroke-linejoin="round" stroke-miterlimit="10" d="
				M146.062,124.947c-1.014,2.851-3.124,3.72-0.522,9.517c2.6,5.799,5.422,1.408,7.133,5.225c-1.711-3.816,3.467-3.271,0.964-8.854
				C151.13,125.249,148.754,126.315,146.062,124.947z"/>
			<g>
				<line fill="none" x1="152.671" y1="139.688" x2="147.548" y2="128.265"/>
				<g>
					<polyline fill="none" stroke="#333333" stroke-width="0.9957" stroke-linecap="round" stroke-miterlimit="10" points="
						152.467,139.234 152.203,138.646 148.621,130.657 148.392,130.146 					"/>
					
						<line fill="none" stroke="#333333" stroke-width="0.9957" stroke-linecap="round" stroke-miterlimit="10" x1="147.752" y1="128.719" x2="147.78" y2="128.783"/>
				</g>
			</g>
		</g>
		<g>
			
				<path fill="#A1C453" stroke="#333333" stroke-width="1.4936" stroke-linecap="round" stroke-linejoin="round" stroke-miterlimit="10" d="
				M158.728,124.907c-2.73,1.299-4.838,0.422-7.1,6.36c-2.26,5.938,2.84,4.829,1.35,8.736c1.49-3.907,4.767,0.14,6.943-5.577
				C162.099,128.706,159.663,127.779,158.728,124.907z"/>
			<g>
				<line fill="none" x1="152.978" y1="140.004" x2="157.435" y2="128.306"/>
				<g>
					<polyline fill="none" stroke="#333333" stroke-width="0.9957" stroke-linecap="round" stroke-miterlimit="10" points="
						153.155,139.539 153.385,138.936 156.501,130.756 156.7,130.232 					"/>
					
						<line fill="none" stroke="#333333" stroke-width="0.9957" stroke-linecap="round" stroke-miterlimit="10" x1="157.257" y1="128.771" x2="157.232" y2="128.836"/>
				</g>
			</g>
		</g>
		<g>
			
				<path fill="#A1C453" stroke="#333333" stroke-width="1.4936" stroke-linecap="round" stroke-linejoin="round" stroke-miterlimit="10" d="
				M141.184,134.69c0.825,2.229-0.009,3.814,4.479,6c4.489,2.185,3.979-1.884,6.932-0.445c-2.953-1.438,0.443-3.719-3.879-5.822
				C144.392,132.317,143.496,134.157,141.184,134.69z"/>
			<g>
				<line fill="none" x1="152.595" y1="140.245" x2="143.753" y2="135.94"/>
				<g>
					<polyline fill="none" stroke="#333333" stroke-width="0.9957" stroke-linecap="round" stroke-miterlimit="10" points="
						152.147,140.027 151.567,139.745 146.11,137.088 145.606,136.843 					"/>
					
						<line fill="none" stroke="#333333" stroke-width="0.9957" stroke-linecap="round" stroke-miterlimit="10" x1="144.2" y1="136.158" x2="144.264" y2="136.189"/>
				</g>
			</g>
		</g>
		<g>
			<g>
				<path fill="#EF4529" d="M157.358,174.474c-2.739,2.164-8.258,1.506-8.881-1.042c-2.619-1.289-1.697-6.715,1.043-8.88
					c2.738-2.164,6.508-2.961,8.392,1.697C161.833,169.005,160.097,172.31,157.358,174.474z"/>
				<g>
					<path fill="none" stroke="#333333" stroke-width="1.4936" stroke-linecap="round" stroke-miterlimit="10" d="M156.736,174.887
						c-0.285,0.149-0.568,0.302-0.877,0.404c-1.437,0.537-3.03,0.61-4.524,0.288c-0.743-0.17-1.482-0.45-2.07-0.949
						c-0.279-0.259-0.544-0.551-0.678-0.912l-0.103-0.269c-0.063-0.066-0.156-0.107-0.232-0.163
						c-0.171-0.091-0.313-0.219-0.44-0.363c-0.533-0.558-0.775-1.33-0.852-2.086c-0.074-0.763,0.006-1.535,0.178-2.28
						c0.373-1.476,1.098-2.914,2.276-3.908c1.18-0.954,2.598-1.73,4.143-1.809c0.765-0.035,1.541,0.154,2.192,0.562
						c0.661,0.397,1.165,1.007,1.561,1.657c0.212,0.32,0.364,0.673,0.524,1.021c0.049,0.199,0.243,0.282,0.385,0.408
						c0.146,0.122,0.311,0.226,0.444,0.362c0.571,0.508,1.052,1.135,1.318,1.853c0.271,0.718,0.273,1.522,0.05,2.254
						c-0.036,0.184-0.135,0.37-0.193,0.527c-0.035,0.085-0.066,0.172-0.114,0.251c-0.091,0.161-0.171,0.327-0.271,0.482"/>
					
						<line fill="none" stroke="#333333" stroke-width="1.4936" stroke-linecap="round" stroke-miterlimit="10" x1="157.928" y1="173.99" x2="158.004" y2="173.918"/>
				</g>
			</g>
			
				<ellipse transform="matrix(0.9984 -0.0558 0.0558 0.9984 -8.9873 8.7967)" opacity="0.5" fill="#FFFFFF" enable-background="new    " cx="152.906" cy="165.21" rx="1.447" ry="1.19"/>
		</g>
		<g>
			<g>
				<path fill="#EF4529" d="M147.853,147.165c-3.412,0.742-8.08-2.271-7.521-4.834c-1.788-2.308,1.422-6.779,4.834-7.521
					c3.41-0.742,7.146,0.197,6.794,5.21C154.272,144.217,151.264,146.423,147.853,147.165z"/>
				<g>
					<path fill="none" stroke="#333333" stroke-width="1.4936" stroke-linecap="round" stroke-miterlimit="10" d="M147.112,147.263
						c-0.321,0.009-0.645,0.022-0.966-0.021c-1.525-0.148-2.991-0.781-4.191-1.728c-0.594-0.479-1.135-1.056-1.443-1.762
						c-0.137-0.354-0.246-0.733-0.208-1.117l0.026-0.286c-0.027-0.087-0.095-0.165-0.139-0.248c-0.113-0.157-0.185-0.334-0.236-0.52
						c-0.233-0.735-0.113-1.536,0.15-2.248c0.269-0.718,0.68-1.377,1.16-1.971c0.982-1.162,2.267-2.138,3.761-2.513
						c1.479-0.34,3.095-0.415,4.517,0.193c0.702,0.305,1.316,0.815,1.723,1.467c0.42,0.647,0.605,1.416,0.675,2.174
						c0.052,0.382,0.033,0.765,0.023,1.148c-0.044,0.2,0.093,0.36,0.166,0.535c0.079,0.175,0.18,0.34,0.24,0.521
						c0.291,0.707,0.446,1.48,0.373,2.243c-0.071,0.764-0.424,1.488-0.944,2.047c-0.114,0.149-0.284,0.274-0.405,0.39
						c-0.068,0.061-0.136,0.125-0.214,0.175c-0.152,0.104-0.297,0.219-0.455,0.314"/>
					
						<line fill="none" stroke="#333333" stroke-width="1.4936" stroke-linecap="round" stroke-miterlimit="10" x1="148.576" y1="146.98" x2="148.677" y2="146.949"/>
				</g>
			</g>
			
				<ellipse transform="matrix(0.9216 0.3881 -0.3881 0.9216 64.7202 -46.6724)" opacity="0.5" fill="#FFFFFF" enable-background="new    " cx="147.903" cy="136.885" rx="1.447" ry="1.19"/>
		</g>
		<path fill="#CC924C" stroke="#333333" stroke-width="2.6551" stroke-linecap="round" stroke-miterlimit="10" d="M104.235,176.92
			l71.019-41.259c0.896-0.527,2.051-0.229,2.578,0.667l0,0c0.527,0.896,0.229,2.05-0.666,2.579l-70.515,42.116"/>
		<g>
			
				<path fill="#A1C453" stroke="#333333" stroke-width="0.9957" stroke-linecap="round" stroke-linejoin="round" stroke-miterlimit="10" d="
				M178.698,137.505c0,0,1.771-2.338,1.998-2.89c0.185-0.442-2.787,0.558-3.788,1.11L178.698,137.505z"/>
			
				<path fill="#A1C453" stroke="#333333" stroke-width="0.9957" stroke-linecap="round" stroke-linejoin="round" stroke-miterlimit="10" d="
				M177.728,135.39l-1.363,4.299c0,0,4.162-1.677,4.912-3.398C181.276,136.29,179.122,135.983,177.728,135.39z"/>
			
				<path fill="#A1C453" stroke="#333333" stroke-width="0.9957" stroke-linecap="round" stroke-linejoin="round" stroke-miterlimit="10" d="
				M172.82,137.603c0,0,3.286-4.499,6.581-4.496l-1.51,4.047L172.82,137.603z"/>
		</g>
	</g>
</g>
</svg>
