<?xml version="1.0" encoding="utf-8"?>
<!-- Generator: Adobe Illustrator 16.0.0, SVG Export Plug-In . SVG Version: 6.00 Build 0)  -->
<!DOCTYPE svg PUBLIC "-//W3C//DTD SVG 1.1//EN" "http://www.w3.org/Graphics/SVG/1.1/DTD/svg11.dtd">
<svg version="1.1" id="Calque_1" xmlns="http://www.w3.org/2000/svg" xmlns:xlink="http://www.w3.org/1999/xlink" x="0px" y="0px"
	 width="400px" height="400px" viewBox="0 0 400 400" enable-background="new 0 0 400 400" xml:space="preserve">
<g id="calque00">
	<g>
		<path fill="#CC924C" stroke="#333333" stroke-width="2.6539" stroke-linecap="round" stroke-miterlimit="10" d="M97.392,158.488
			l-2.381-9.1c-0.339-1.054,0.239-2.186,1.294-2.525l0,0c1.055-0.341,2.188,0.237,2.527,1.292l3.392,8.772"/>
		<g>
			
				<path fill="#A1C453" stroke="#333333" stroke-width="1.0616" stroke-linecap="round" stroke-linejoin="round" stroke-miterlimit="10" d="
				M97.73,146.233c0,0-2.02-2.387-2.542-2.75c-0.418-0.295-0.066,3.03,0.275,4.202L97.73,146.233z"/>
			
				<path fill="#A1C453" stroke="#333333" stroke-width="1.0616" stroke-linecap="round" stroke-linejoin="round" stroke-miterlimit="10" d="
				M95.304,146.753l4.156,2.418c0,0-0.777-4.72-2.394-5.902C97.067,143.269,96.247,145.439,95.304,146.753z"/>
			
				<path fill="#A1C453" stroke="#333333" stroke-width="1.0616" stroke-linecap="round" stroke-linejoin="round" stroke-miterlimit="10" d="
				M96.464,152.373c0,0-3.917-4.466-3.146-7.894l3.858,2.513L96.464,152.373z"/>
		</g>
	</g>
</g>
<g id="calque01">
	<g>
		<g>
			
				<path fill="#A1C453" stroke="#333333" stroke-width="1.0616" stroke-linecap="round" stroke-linejoin="round" stroke-miterlimit="10" d="
				M85.099,136.841c1.229-0.455,1.594-1.372,4.121-0.278c2.526,1.095,0.639,2.34,2.301,3.063c-1.662-0.723-1.396,1.519-3.83,0.464
				C85.258,139.035,85.705,138,85.099,136.841z"/>
			<g>
				<line fill="none" x1="91.521" y1="139.625" x2="86.544" y2="137.466"/>
				<g>
					<polyline fill="none" stroke="#333333" stroke-width="1.0616" stroke-linecap="round" stroke-miterlimit="10" points="
						91.034,139.414 90.403,139.14 89.109,138.578 88.561,138.341 					"/>
					
						<line fill="none" stroke="#333333" stroke-width="1.0616" stroke-linecap="round" stroke-miterlimit="10" x1="87.031" y1="137.677" x2="87.1" y2="137.707"/>
				</g>
			</g>
		</g>
		<path fill="#CC924C" stroke="#333333" stroke-width="2.6539" stroke-linecap="round" stroke-miterlimit="10" d="M102.224,156.928
			l-9.479-27.616c-0.342-1.054-1.473-1.635-2.527-1.294l0,0c-1.055,0.341-1.634,1.474-1.293,2.527l8.468,27.943"/>
		<g>
			
				<path fill="#A1C453" stroke="#333333" stroke-width="1.0616" stroke-linecap="round" stroke-linejoin="round" stroke-miterlimit="10" d="
				M88.694,128.341c0,0,0.241-3.115,0.452-3.717c0.167-0.483,1.828,2.42,2.235,3.569L88.694,128.341z"/>
			
				<path fill="#A1C453" stroke="#333333" stroke-width="1.0616" stroke-linecap="round" stroke-linejoin="round" stroke-miterlimit="10" d="
				M90.966,127.344l-1.957,4.392c0,0-2.132-4.283-1.514-6.186C87.496,125.55,89.433,126.831,90.966,127.344z"/>
			
				<path fill="#A1C453" stroke="#333333" stroke-width="1.0616" stroke-linecap="round" stroke-linejoin="round" stroke-miterlimit="10" d="
				M93.311,132.58c0,0,0.564-5.912-2.064-8.241l-1.66,4.296L93.311,132.58z"/>
		</g>
	</g>
</g>
<g id="calque02">
	<g>
		<g>
			
				<path fill="#A1C453" stroke="#333333" stroke-width="1.5923" stroke-linecap="round" stroke-linejoin="round" stroke-miterlimit="10" d="
				M76.353,137.965c2.267-1.741,2.432-3.89,8.399-3.246c5.969,0.646,2.848,4.463,6.774,4.887c-3.927-0.424-1.927,4.07-7.675,3.449
				C78.104,142.434,78.367,139.986,76.353,137.965z"/>
			<g>
				<line fill="none" x1="91.526" y1="139.605" x2="79.767" y2="138.336"/>
				<g>
					<polyline fill="none" stroke="#333333" stroke-width="1.0616" stroke-linecap="round" stroke-miterlimit="10" points="
						90.999,139.549 90.315,139.475 82.546,138.636 81.952,138.572 					"/>
					
						<line fill="none" stroke="#333333" stroke-width="1.0616" stroke-linecap="round" stroke-miterlimit="10" x1="80.294" y1="138.393" x2="80.369" y2="138.401"/>
				</g>
			</g>
		</g>
		<g>
			
				<path fill="#A1C453" stroke="#333333" stroke-width="1.0616" stroke-linecap="round" stroke-linejoin="round" stroke-miterlimit="10" d="
				M98.058,126.814c0.279,1.256,1.125,1.731-0.273,4.044c-1.4,2.313-2.362,0.313-3.285,1.834c0.922-1.521-1.293-1.56,0.055-3.787
				C95.9,126.677,96.85,127.251,98.058,126.814z"/>
			<g>
				<line fill="none" x1="94.499" y1="132.692" x2="96.979" y2="128.66"/>
				<g>
					<polyline fill="none" stroke="#333333" stroke-width="1.0616" stroke-linecap="round" stroke-miterlimit="10" points="
						94.777,132.24 95.137,131.654 95.515,131.041 95.828,130.532 					"/>
					
						<line fill="none" stroke="#333333" stroke-width="1.0616" stroke-linecap="round" stroke-miterlimit="10" x1="96.701" y1="129.112" x2="96.662" y2="129.176"/>
				</g>
			</g>
		</g>
		<path fill="#CC924C" stroke="#333333" stroke-width="2.6539" stroke-linecap="round" stroke-miterlimit="10" d="M102.224,156.928
			L89.942,120.63c-0.342-1.056-1.474-1.635-2.527-1.293l0,0c-1.056,0.341-1.635,1.473-1.293,2.527l11.271,36.624"/>
		<g>
			
				<path fill="#A1C453" stroke="#333333" stroke-width="1.0616" stroke-linecap="round" stroke-linejoin="round" stroke-miterlimit="10" d="
				M85.891,119.66c0,0,0.241-3.115,0.452-3.718c0.167-0.482,1.827,2.42,2.234,3.569L85.891,119.66z"/>
			
				<path fill="#A1C453" stroke="#333333" stroke-width="1.0616" stroke-linecap="round" stroke-linejoin="round" stroke-miterlimit="10" d="
				M88.163,118.663l-1.957,4.392c0,0-2.132-4.282-1.514-6.186C84.693,116.869,86.629,118.148,88.163,118.663z"/>
			
				<path fill="#A1C453" stroke="#333333" stroke-width="1.0616" stroke-linecap="round" stroke-linejoin="round" stroke-miterlimit="10" d="
				M90.507,123.899c0,0,0.563-5.913-2.064-8.242l-1.66,4.295L90.507,123.899z"/>
		</g>
	</g>
</g>
<g id="calque03">
	<g>
		
			<polygon fill="#CC924C" stroke="#333333" stroke-width="1.0616" stroke-linecap="round" stroke-linejoin="round" stroke-miterlimit="10" points="
			97.987,127.227 94.853,134.443 94.258,132.604 		"/>
		<g>
			
				<path fill="#A1C453" stroke="#333333" stroke-width="1.5923" stroke-linecap="round" stroke-linejoin="round" stroke-miterlimit="10" d="
				M76.494,137.874c2.276-1.727,2.457-3.874,8.422-3.189c5.964,0.685,2.814,4.481,6.739,4.932c-3.925-0.45-1.952,4.058-7.697,3.397
				C78.214,142.354,78.495,139.908,76.494,137.874z"/>
			<g>
				<line fill="none" x1="91.656" y1="139.616" x2="79.906" y2="138.268"/>
				<g>
					<polyline fill="none" stroke="#333333" stroke-width="1.0616" stroke-linecap="round" stroke-miterlimit="10" points="
						91.129,139.556 90.446,139.478 82.684,138.586 82.09,138.519 					"/>
					
						<line fill="none" stroke="#333333" stroke-width="1.0616" stroke-linecap="round" stroke-miterlimit="10" x1="80.434" y1="138.328" x2="80.508" y2="138.337"/>
				</g>
			</g>
		</g>
		<g>
			
				<path fill="#A1C453" stroke="#333333" stroke-width="1.0616" stroke-linecap="round" stroke-linejoin="round" stroke-miterlimit="10" d="
				M74.869,119.947c1.783-0.971,2.141-2.462,6.259-1.344c4.119,1.121,1.501,3.453,4.211,4.188c-2.71-0.734-1.809,2.644-5.772,1.566
				C75.6,123.279,76.058,121.59,74.869,119.947z"/>
			<g>
				<line fill="none" x1="85.34" y1="122.791" x2="77.225" y2="120.587"/>
				<g>
					<polyline fill="none" stroke="#333333" stroke-width="1.0616" stroke-linecap="round" stroke-miterlimit="10" points="
						84.828,122.652 84.164,122.472 79.923,121.319 79.346,121.163 					"/>
					
						<line fill="none" stroke="#333333" stroke-width="1.0616" stroke-linecap="round" stroke-miterlimit="10" x1="77.737" y1="120.726" x2="77.81" y2="120.746"/>
				</g>
			</g>
		</g>
		<g>
			
				<path fill="#A1C453" stroke="#333333" stroke-width="1.5923" stroke-linecap="round" stroke-linejoin="round" stroke-miterlimit="10" d="
				M102.331,114.822c-2.295,1.13-4.087,0.414-5.93,5.462c-1.842,5.048,2.458,4.05,1.246,7.373c1.213-3.323,4.029,0.061,5.804-4.801
				C105.225,117.994,103.157,117.24,102.331,114.822z"/>
			<g>
				<line fill="none" x1="97.647" y1="127.657" x2="101.276" y2="117.711"/>
				<g>
					<polyline fill="none" stroke="#333333" stroke-width="1.0616" stroke-linecap="round" stroke-miterlimit="10" points="
						97.83,127.158 98.065,126.513 100.318,120.337 100.522,119.775 					"/>
					
						<line fill="none" stroke="#333333" stroke-width="1.0616" stroke-linecap="round" stroke-miterlimit="10" x1="101.094" y1="118.21" x2="101.068" y2="118.279"/>
				</g>
			</g>
		</g>
		<g>
			
				<path fill="#A1C453" stroke="#333333" stroke-width="1.0616" stroke-linecap="round" stroke-linejoin="round" stroke-miterlimit="10" d="
				M105.322,124.241c-1.427-0.484-1.876-1.53-4.746-0.194c-2.872,1.337-0.666,2.713-2.556,3.592c1.89-0.879,1.655,1.705,4.421,0.419
				C105.206,126.771,104.658,125.592,105.322,124.241z"/>
			<g>
				<line fill="none" x1="98.02" y1="127.639" x2="103.678" y2="125.006"/>
				<g>
					<polyline fill="none" stroke="#333333" stroke-width="1.0616" stroke-linecap="round" stroke-miterlimit="10" points="
						98.501,127.415 99.125,127.125 101.144,126.186 101.685,125.934 					"/>
					
						<line fill="none" stroke="#333333" stroke-width="1.0616" stroke-linecap="round" stroke-miterlimit="10" x1="103.196" y1="125.229" x2="103.129" y2="125.262"/>
				</g>
			</g>
		</g>
		<path fill="#CC924C" stroke="#333333" stroke-width="2.8307" stroke-linecap="round" stroke-miterlimit="10" d="M102.224,156.928
			l-15.186-45.287c-0.342-1.055-1.473-1.634-2.528-1.292l0,0c-1.055,0.341-1.634,1.472-1.293,2.527l14.175,45.612"/>
		<g>
			
				<path fill="#A1C453" stroke="#333333" stroke-width="1.0616" stroke-linecap="round" stroke-linejoin="round" stroke-miterlimit="10" d="
				M82.987,110.672c0,0,0.241-3.116,0.452-3.719c0.167-0.481,1.829,2.42,2.237,3.569L82.987,110.672z"/>
			
				<path fill="#A1C453" stroke="#333333" stroke-width="1.0616" stroke-linecap="round" stroke-linejoin="round" stroke-miterlimit="10" d="
				M85.259,109.673l-1.957,4.393c0,0-2.131-4.282-1.512-6.186C81.791,107.88,83.725,109.16,85.259,109.673z"/>
			
				<path fill="#A1C453" stroke="#333333" stroke-width="1.0616" stroke-linecap="round" stroke-linejoin="round" stroke-miterlimit="10" d="
				M87.604,114.911c0,0,0.564-5.914-2.065-8.243l-1.66,4.295L87.604,114.911z"/>
		</g>
	</g>
</g>
<g id="calque04">
	<g>
		
			<polygon fill="#CC924C" stroke="#333333" stroke-width="1.0616" stroke-linecap="round" stroke-linejoin="round" stroke-miterlimit="10" points="
			68.583,115.556 87.244,125.345 86.324,122.495 		"/>
		
			<polygon fill="#CC924C" stroke="#333333" stroke-width="1.0616" stroke-linecap="round" stroke-linejoin="round" stroke-miterlimit="10" points="
			97.987,127.227 94.853,134.443 94.258,132.604 		"/>
		<g>
			
				<path fill="#A1C453" stroke="#333333" stroke-width="1.5923" stroke-linecap="round" stroke-linejoin="round" stroke-miterlimit="10" d="
				M76.494,137.874c2.276-1.727,2.458-3.874,8.421-3.189c5.964,0.687,2.815,4.481,6.74,4.932c-3.925-0.45-1.953,4.058-7.697,3.397
				C78.214,142.354,78.495,139.908,76.494,137.874z"/>
			<g>
				<line fill="none" x1="91.656" y1="139.616" x2="79.906" y2="138.268"/>
				<g>
					<polyline fill="none" stroke="#333333" stroke-width="1.0616" stroke-linecap="round" stroke-miterlimit="10" points="
						91.129,139.556 90.446,139.478 82.684,138.586 82.09,138.519 					"/>
					
						<line fill="none" stroke="#333333" stroke-width="1.0616" stroke-linecap="round" stroke-miterlimit="10" x1="80.434" y1="138.328" x2="80.508" y2="138.337"/>
				</g>
			</g>
		</g>
		<g>
			
				<path fill="#A1C453" stroke="#333333" stroke-width="1.0616" stroke-linecap="round" stroke-linejoin="round" stroke-miterlimit="10" d="
				M64.907,107.249c1.687,0.499,2.815-0.194,4.651,3.01c1.836,3.206-1.192,3.031,0.017,5.141c-1.208-2.109-2.725,0.511-4.491-2.576
				C63.314,109.735,64.628,108.983,64.907,107.249z"/>
			<g>
				<line fill="none" x1="69.575" y1="115.399" x2="65.958" y2="109.084"/>
				<g>
					<polyline fill="none" stroke="#333333" stroke-width="1.0616" stroke-linecap="round" stroke-miterlimit="10" points="
						69.311,114.938 68.969,114.342 67.347,111.51 67.05,110.991 					"/>
					
						<line fill="none" stroke="#333333" stroke-width="1.0616" stroke-linecap="round" stroke-miterlimit="10" x1="66.222" y1="109.545" x2="66.259" y2="109.609"/>
				</g>
			</g>
		</g>
		<g>
			
				<path fill="#A1C453" stroke="#333333" stroke-width="1.5923" stroke-linecap="round" stroke-linejoin="round" stroke-miterlimit="10" d="
				M52.245,111.405c2.833-1.54,3.397-3.906,9.937-2.13c6.536,1.775,2.382,5.477,6.685,6.645c-4.303-1.168-2.868,4.194-9.164,2.484
				C53.405,116.693,54.132,114.014,52.245,111.405z"/>
			<g>
				<line fill="none" x1="68.866" y1="115.92" x2="55.986" y2="112.422"/>
				<g>
					<polyline fill="none" stroke="#333333" stroke-width="1.0616" stroke-linecap="round" stroke-miterlimit="10" points="
						68.354,115.781 67.69,115.601 58.684,113.154 58.107,112.998 					"/>
					
						<line fill="none" stroke="#333333" stroke-width="1.0616" stroke-linecap="round" stroke-miterlimit="10" x1="56.498" y1="112.561" x2="56.57" y2="112.58"/>
				</g>
			</g>
		</g>
		<g>
			
				<path fill="#A1C453" stroke="#333333" stroke-width="1.5923" stroke-linecap="round" stroke-linejoin="round" stroke-miterlimit="10" d="
				M102.331,114.822c-2.295,1.13-4.087,0.414-5.931,5.462c-1.841,5.048,2.459,4.05,1.247,7.373c1.213-3.323,4.03,0.061,5.804-4.801
				S103.157,117.24,102.331,114.822z"/>
			<g>
				<line fill="none" x1="97.647" y1="127.657" x2="101.277" y2="117.711"/>
				<g>
					<polyline fill="none" stroke="#333333" stroke-width="1.0616" stroke-linecap="round" stroke-miterlimit="10" points="
						97.83,127.158 98.065,126.513 100.319,120.337 100.523,119.775 					"/>
					
						<line fill="none" stroke="#333333" stroke-width="1.0616" stroke-linecap="round" stroke-miterlimit="10" x1="101.095" y1="118.21" x2="101.069" y2="118.279"/>
				</g>
			</g>
		</g>
		<g>
			
				<path fill="#A1C453" stroke="#333333" stroke-width="1.5923" stroke-linecap="round" stroke-linejoin="round" stroke-miterlimit="10" d="
				M110.034,122.267c-2.422-0.824-3.183-2.597-8.054-0.329c-4.873,2.266-1.127,4.602-4.333,6.093
				c3.206-1.491,2.806,2.893,7.497,0.71C109.837,126.558,108.908,124.56,110.034,122.267z"/>
			<g>
				<line fill="none" x1="97.647" y1="128.03" x2="107.246" y2="123.564"/>
				<g>
					<polyline fill="none" stroke="#333333" stroke-width="1.0616" stroke-linecap="round" stroke-miterlimit="10" points="
						98.129,127.807 98.752,127.517 104.711,124.744 105.253,124.491 					"/>
					
						<line fill="none" stroke="#333333" stroke-width="1.0616" stroke-linecap="round" stroke-miterlimit="10" x1="106.764" y1="123.788" x2="106.697" y2="123.82"/>
				</g>
			</g>
		</g>
		<g>
			
				<path fill="#A1C453" stroke="#333333" stroke-width="1.0616" stroke-linecap="round" stroke-linejoin="round" stroke-miterlimit="10" d="
				M86.721,89.061c0.639,1.508,1.807,1.91,0.587,5.128c-1.218,3.217-2.886,0.936-3.687,3.051c0.8-2.115-1.98-1.655-0.807-4.754
				C83.991,89.388,85.31,89.888,86.721,89.061z"/>
			<g>
				<line fill="none" x1="83.622" y1="97.239" x2="86.023" y2="90.901"/>
				<g>
					<polyline fill="none" stroke="#333333" stroke-width="1.0616" stroke-linecap="round" stroke-miterlimit="10" points="
						83.81,96.743 84.054,96.1 85.033,93.516 85.245,92.957 					"/>
					
						<line fill="none" stroke="#333333" stroke-width="1.0616" stroke-linecap="round" stroke-miterlimit="10" x1="85.835" y1="91.397" x2="85.809" y2="91.468"/>
				</g>
			</g>
		</g>
		<path fill="#CC924C" stroke="#333333" stroke-width="2.8307" stroke-linecap="round" stroke-miterlimit="10" d="M102.224,156.928
			L81.752,95.276c-0.34-1.055-1.473-1.635-2.528-1.293l0,0c-1.055,0.34-1.634,1.472-1.293,2.526l19.461,61.979"/>
		<g>
			
				<path fill="#A1C453" stroke="#333333" stroke-width="1.0616" stroke-linecap="round" stroke-linejoin="round" stroke-miterlimit="10" d="
				M77.701,94.306c0,0,0.24-3.115,0.451-3.717c0.167-0.483,1.828,2.419,2.235,3.569L77.701,94.306z"/>
			
				<path fill="#A1C453" stroke="#333333" stroke-width="1.0616" stroke-linecap="round" stroke-linejoin="round" stroke-miterlimit="10" d="
				M79.973,93.309l-1.956,4.393c0,0-2.131-4.282-1.513-6.187C76.503,91.515,78.439,92.794,79.973,93.309z"/>
			
				<path fill="#A1C453" stroke="#333333" stroke-width="1.0616" stroke-linecap="round" stroke-linejoin="round" stroke-miterlimit="10" d="
				M82.317,98.545c0,0,0.564-5.912-2.063-8.241l-1.661,4.295L82.317,98.545z"/>
		</g>
		<g>
			
				<path fill="#FFFFFF" stroke="#333333" stroke-width="1.0616" stroke-linecap="round" stroke-linejoin="round" stroke-miterlimit="10" d="
				M68.474,116.922c-0.316,0.352-0.035,1.254,0.252,1.907c0.516,1.175,2.189,2.234,3.191,1.126c1.007-1.113-0.211-2.68-1.431-3.076
				C69.81,116.659,68.795,116.565,68.474,116.922z"/>
			
				<path fill="#FFFFFF" stroke="#333333" stroke-width="1.0616" stroke-linecap="round" stroke-linejoin="round" stroke-miterlimit="10" d="
				M68.354,116.886c-0.146-0.451-1.068-0.659-1.777-0.736c-1.274-0.144-3.03,0.778-2.57,2.2c0.461,1.429,2.427,1.157,3.378,0.3
				C67.914,118.173,68.501,117.341,68.354,116.886z"/>
			
				<path fill="#FFFFFF" stroke="#333333" stroke-width="1.0616" stroke-linecap="round" stroke-linejoin="round" stroke-miterlimit="10" d="
				M68.438,116.803c0.464,0.099,1.105-0.598,1.527-1.171c0.761-1.034,0.84-3.015-0.621-3.328c-1.468-0.314-2.213,1.523-1.949,2.776
				C67.544,115.776,67.97,116.702,68.438,116.803z"/>
			
				<path fill="#FFFFFF" stroke="#333333" stroke-width="1.0616" stroke-linecap="round" stroke-linejoin="round" stroke-miterlimit="10" d="
				M68.589,116.851c0.146,0.452,1.07,0.658,1.778,0.736c1.273,0.143,3.03-0.779,2.57-2.201c-0.462-1.429-2.428-1.156-3.379-0.299
				C69.03,115.563,68.441,116.395,68.589,116.851z"/>
			
				<path fill="#FFFFFF" stroke="#333333" stroke-width="1.0616" stroke-linecap="round" stroke-linejoin="round" stroke-miterlimit="10" d="
				M68.498,116.933c-0.464-0.1-1.104,0.598-1.527,1.172c-0.76,1.032-0.839,3.013,0.622,3.327c1.468,0.313,2.213-1.522,1.948-2.775
				C69.393,117.96,68.966,117.034,68.498,116.933z"/>
			
				<path fill="#FFFFFF" stroke="#333333" stroke-width="1.0616" stroke-linecap="round" stroke-linejoin="round" stroke-miterlimit="10" d="
				M68.48,116.801c0.319-0.352,0.036-1.256-0.252-1.907c-0.514-1.177-2.188-2.235-3.19-1.127c-1.007,1.114,0.212,2.679,1.43,3.076
				C67.145,117.063,68.16,117.155,68.48,116.801z"/>
			
				<circle fill="#F9D53E" stroke="#333333" stroke-width="1.0616" stroke-linecap="round" stroke-linejoin="round" stroke-miterlimit="10" cx="68.589" cy="116.851" r="0.987"/>
		</g>
	</g>
</g>
<g id="calque05">
	<g>
		
			<polygon fill="#CC924C" stroke="#333333" stroke-width="0.8493" stroke-linecap="round" stroke-linejoin="round" stroke-miterlimit="10" points="
			88.834,90.968 83.677,101.235 82.757,98.385 		"/>
		
			<polygon fill="#CC924C" stroke="#333333" stroke-width="1.0616" stroke-linecap="round" stroke-linejoin="round" stroke-miterlimit="10" points="
			68.583,115.556 87.244,125.345 86.324,122.495 		"/>
		
			<polygon fill="#CC924C" stroke="#333333" stroke-width="1.0616" stroke-linecap="round" stroke-linejoin="round" stroke-miterlimit="10" points="
			97.987,127.227 94.853,134.443 94.258,132.604 		"/>
		<g>
			
				<path fill="#A1C453" stroke="#333333" stroke-width="1.5923" stroke-linecap="round" stroke-linejoin="round" stroke-miterlimit="10" d="
				M76.494,137.874c2.276-1.727,2.457-3.874,8.421-3.189c5.964,0.687,2.815,4.481,6.739,4.933c-3.924-0.451-1.952,4.057-7.696,3.396
				C78.214,142.354,78.495,139.908,76.494,137.874z"/>
			<g>
				<line fill="none" x1="91.655" y1="139.617" x2="79.906" y2="138.268"/>
				<g>
					<polyline fill="none" stroke="#333333" stroke-width="1.0616" stroke-linecap="round" stroke-miterlimit="10" points="
						91.128,139.557 90.445,139.479 82.684,138.587 82.09,138.519 					"/>
					
						<line fill="none" stroke="#333333" stroke-width="1.0616" stroke-linecap="round" stroke-miterlimit="10" x1="80.434" y1="138.328" x2="80.508" y2="138.337"/>
				</g>
			</g>
		</g>
		<g>
			
				<path fill="#A1C453" stroke="#333333" stroke-width="1.5923" stroke-linecap="round" stroke-linejoin="round" stroke-miterlimit="10" d="
				M60.225,100.51c3.092,0.915,5.166-0.358,8.532,5.52c3.367,5.879-2.188,5.559,0.028,9.426c-2.218-3.867-4.995,0.938-8.237-4.723
				C57.306,105.07,59.715,103.689,60.225,100.51z"/>
			<g>
				<line fill="none" x1="68.786" y1="115.455" x2="62.151" y2="103.874"/>
				<g>
					<polyline fill="none" stroke="#333333" stroke-width="1.0616" stroke-linecap="round" stroke-miterlimit="10" points="
						68.522,114.994 68.18,114.397 63.541,106.3 63.244,105.781 					"/>
					
						<line fill="none" stroke="#333333" stroke-width="1.0616" stroke-linecap="round" stroke-miterlimit="10" x1="62.415" y1="104.335" x2="62.452" y2="104.399"/>
				</g>
			</g>
		</g>
		<g>
			
				<path fill="#A1C453" stroke="#333333" stroke-width="1.5923" stroke-linecap="round" stroke-linejoin="round" stroke-miterlimit="10" d="
				M52.245,111.405c2.832-1.54,3.397-3.906,9.936-2.13c6.537,1.775,2.383,5.477,6.686,6.645c-4.303-1.168-2.868,4.194-9.164,2.484
				C53.405,116.693,54.131,114.014,52.245,111.405z"/>
			<g>
				<line fill="none" x1="68.866" y1="115.92" x2="55.985" y2="112.422"/>
				<g>
					<polyline fill="none" stroke="#333333" stroke-width="1.0616" stroke-linecap="round" stroke-miterlimit="10" points="
						68.354,115.781 67.69,115.601 58.683,113.154 58.106,112.998 					"/>
					
						<line fill="none" stroke="#333333" stroke-width="1.0616" stroke-linecap="round" stroke-miterlimit="10" x1="56.497" y1="112.561" x2="56.569" y2="112.58"/>
				</g>
			</g>
		</g>
		<g>
			
				<path fill="#A1C453" stroke="#333333" stroke-width="1.5923" stroke-linecap="round" stroke-linejoin="round" stroke-miterlimit="10" d="
				M102.331,114.822c-2.295,1.13-4.087,0.414-5.931,5.462c-1.841,5.048,2.459,4.05,1.247,7.373c1.213-3.323,4.029,0.061,5.804-4.801
				C105.225,117.994,103.157,117.24,102.331,114.822z"/>
			<g>
				<line fill="none" x1="97.647" y1="127.657" x2="101.276" y2="117.711"/>
				<g>
					<polyline fill="none" stroke="#333333" stroke-width="1.0616" stroke-linecap="round" stroke-miterlimit="10" points="
						97.83,127.158 98.065,126.513 100.318,120.337 100.522,119.775 					"/>
					
						<line fill="none" stroke="#333333" stroke-width="1.0616" stroke-linecap="round" stroke-miterlimit="10" x1="101.094" y1="118.21" x2="101.068" y2="118.279"/>
				</g>
			</g>
		</g>
		<g>
			
				<path fill="#A1C453" stroke="#333333" stroke-width="1.5923" stroke-linecap="round" stroke-linejoin="round" stroke-miterlimit="10" d="
				M110.034,122.267c-2.422-0.824-3.184-2.597-8.055-0.329c-4.872,2.266-1.126,4.602-4.332,6.093
				c3.206-1.491,2.806,2.893,7.497,0.71C109.837,126.558,108.908,124.56,110.034,122.267z"/>
			<g>
				<line fill="none" x1="97.647" y1="128.03" x2="107.246" y2="123.564"/>
				<g>
					<polyline fill="none" stroke="#333333" stroke-width="1.0616" stroke-linecap="round" stroke-miterlimit="10" points="
						98.129,127.807 98.752,127.517 104.711,124.744 105.253,124.491 					"/>
					
						<line fill="none" stroke="#333333" stroke-width="1.0616" stroke-linecap="round" stroke-miterlimit="10" x1="106.764" y1="123.788" x2="106.697" y2="123.82"/>
				</g>
			</g>
		</g>
		<g>
			
				<path fill="#A1C453" stroke="#333333" stroke-width="1.5923" stroke-linecap="round" stroke-linejoin="round" stroke-miterlimit="10" d="
				M94.936,74.861c1.259,2.969,3.56,3.761,1.16,10.096c-2.401,6.336-5.682,1.841-7.262,6.011c1.58-4.17-3.897-3.262-1.586-9.362
				C89.561,75.504,92.157,76.488,94.936,74.861z"/>
			<g>
				<line fill="none" x1="88.834" y1="90.968" x2="93.564" y2="78.486"/>
				<g>
					<polyline fill="none" stroke="#333333" stroke-width="1.0616" stroke-linecap="round" stroke-miterlimit="10" points="
						89.022,90.472 89.266,89.828 92.573,81.101 92.785,80.541 					"/>
					
						<line fill="none" stroke="#333333" stroke-width="1.0616" stroke-linecap="round" stroke-miterlimit="10" x1="93.376" y1="78.982" x2="93.35" y2="79.053"/>
				</g>
			</g>
		</g>
		<g>
			
				<path fill="#A1C453" stroke="#333333" stroke-width="1.0616" stroke-linecap="round" stroke-linejoin="round" stroke-miterlimit="10" d="
				M97.602,93.929c-1.512,0.807-1.822,2.061-5.287,1.091c-3.466-0.97-1.244-2.919-3.523-3.559c2.279,0.64,1.541-2.215,4.879-1.281
				C97.008,91.114,96.609,92.535,97.602,93.929z"/>
			<g>
				<line fill="none" x1="88.79" y1="91.461" x2="95.618" y2="93.374"/>
				<g>
					<polyline fill="none" stroke="#333333" stroke-width="1.0616" stroke-linecap="round" stroke-miterlimit="10" points="
						89.301,91.604 89.963,91.79 92.926,92.62 93.502,92.781 					"/>
					
						<line fill="none" stroke="#333333" stroke-width="1.0616" stroke-linecap="round" stroke-miterlimit="10" x1="95.107" y1="93.23" x2="95.035" y2="93.211"/>
				</g>
			</g>
		</g>
		<g>
			<g>
				<path fill="#D3F46C" d="M73.869,117.463c1.189,2.474-0.265,6.594-2.323,6.635c-1.438,1.788-5.444,0.15-6.634-2.323
					c-1.19-2.473-1.156-5.501,2.74-6.146C70.439,113.092,72.676,114.99,73.869,117.463z"/>
				<g>
					<path fill="none" stroke="#333333" stroke-width="1.0616" stroke-linecap="round" stroke-miterlimit="10" d="M74.064,117.956
						c0.049,0.224,0.135,0.44,0.155,0.669c0.204,1.21-0.017,2.468-0.504,3.584c-0.255,0.555-0.603,1.079-1.08,1.465
						c-0.247,0.178-0.518,0.335-0.822,0.386c-0.356-0.056-0.461,0.354-0.759,0.454c-0.525,0.322-1.17,0.378-1.771,0.303
						c-0.607-0.076-1.194-0.276-1.743-0.545c-1.088-0.545-2.063-1.386-2.62-2.481c-0.52-1.093-0.86-2.344-0.598-3.552
						c0.244-1.233,1.339-2.105,2.51-2.417c0.284-0.108,0.61-0.106,0.878-0.24c0.236-0.192,0.465-0.399,0.729-0.554
						c0.511-0.33,1.097-0.575,1.711-0.594c0.614-0.025,1.221,0.185,1.725,0.527c0.122,0.085,0.262,0.178,0.356,0.271l0.148,0.13
						c0.103,0.081,0.185,0.186,0.276,0.278"/>
					
						<line fill="none" stroke="#333333" stroke-width="1.0616" stroke-linecap="round" stroke-miterlimit="10" x1="73.624" y1="116.992" x2="73.586" y2="116.928"/>
				</g>
			</g>
			
				<ellipse transform="matrix(0.1633 -0.9866 0.9866 0.1633 -62.4791 164.9306)" opacity="0.5" fill="#FFFFFF" enable-background="new    " cx="66" cy="119.302" rx="1.139" ry="0.935"/>
		</g>
		<path fill="#CC924C" stroke="#333333" stroke-width="2.8307" stroke-linecap="round" stroke-miterlimit="10" d="M102.224,156.928
			L79.114,87.11c-0.34-1.056-1.472-1.635-2.527-1.294l0,0c-1.056,0.34-1.634,1.472-1.293,2.527l22.099,70.146"/>
		<g>
			
				<path fill="#A1C453" stroke="#333333" stroke-width="1.0616" stroke-linecap="round" stroke-linejoin="round" stroke-miterlimit="10" d="
				M75.063,86.139c0,0,0.241-3.117,0.452-3.717c0.167-0.483,1.828,2.419,2.235,3.568L75.063,86.139z"/>
			
				<path fill="#A1C453" stroke="#333333" stroke-width="1.0616" stroke-linecap="round" stroke-linejoin="round" stroke-miterlimit="10" d="
				M77.334,85.141l-1.957,4.393c0,0-2.131-4.283-1.514-6.187C73.865,83.347,75.801,84.626,77.334,85.141z"/>
			
				<path fill="#A1C453" stroke="#333333" stroke-width="1.0616" stroke-linecap="round" stroke-linejoin="round" stroke-miterlimit="10" d="
				M79.679,90.379c0,0,0.564-5.914-2.063-8.243l-1.66,4.295L79.679,90.379z"/>
		</g>
		<g>
			
				<path fill="#FFFFFF" stroke="#333333" stroke-width="1.0616" stroke-linecap="round" stroke-linejoin="round" stroke-miterlimit="10" d="
				M89.674,92.43c-0.318,0.352-0.036,1.256,0.252,1.907c0.514,1.176,2.189,2.234,3.191,1.127c1.006-1.114-0.212-2.681-1.431-3.077
				C91.011,92.167,89.996,92.073,89.674,92.43z"/>
			
				<path fill="#FFFFFF" stroke="#333333" stroke-width="1.0616" stroke-linecap="round" stroke-linejoin="round" stroke-miterlimit="10" d="
				M89.554,92.395c-0.146-0.452-1.069-0.659-1.777-0.737c-1.274-0.143-3.029,0.778-2.571,2.201c0.462,1.428,2.426,1.156,3.378,0.3
				C89.114,93.681,89.701,92.849,89.554,92.395z"/>
			
				<path fill="#FFFFFF" stroke="#333333" stroke-width="1.0616" stroke-linecap="round" stroke-linejoin="round" stroke-miterlimit="10" d="
				M89.639,92.31c0.464,0.102,1.104-0.597,1.526-1.171c0.761-1.033,0.84-3.014-0.621-3.326c-1.468-0.313-2.213,1.522-1.949,2.776
				C88.745,91.284,89.17,92.211,89.639,92.31z"/>
			
				<path fill="#FFFFFF" stroke="#333333" stroke-width="1.0616" stroke-linecap="round" stroke-linejoin="round" stroke-miterlimit="10" d="
				M89.79,92.358c0.146,0.452,1.068,0.658,1.776,0.736c1.274,0.143,3.03-0.778,2.571-2.201c-0.461-1.427-2.426-1.156-3.379-0.3
				C90.23,91.072,89.642,91.902,89.79,92.358z"/>
			
				<path fill="#FFFFFF" stroke="#333333" stroke-width="1.0616" stroke-linecap="round" stroke-linejoin="round" stroke-miterlimit="10" d="
				M89.698,92.442c-0.464-0.102-1.104,0.597-1.526,1.17c-0.76,1.033-0.839,3.014,0.62,3.327c1.468,0.313,2.215-1.522,1.95-2.776
				C90.592,93.468,90.167,92.542,89.698,92.442z"/>
			
				<path fill="#FFFFFF" stroke="#333333" stroke-width="1.0616" stroke-linecap="round" stroke-linejoin="round" stroke-miterlimit="10" d="
				M89.68,92.309c0.318-0.352,0.036-1.256-0.25-1.907c-0.515-1.176-2.191-2.234-3.191-1.127c-1.007,1.114,0.212,2.68,1.43,3.076
				C88.345,92.57,89.36,92.664,89.68,92.309z"/>
			
				<circle fill="#F9D53E" stroke="#333333" stroke-width="1.0616" stroke-linecap="round" stroke-linejoin="round" stroke-miterlimit="10" cx="89.789" cy="92.359" r="0.988"/>
		</g>
	</g>
</g>
<g id="calque06">
	<g>
		
			<polygon fill="#CC924C" stroke="#333333" stroke-width="0.8493" stroke-linecap="round" stroke-linejoin="round" stroke-miterlimit="10" points="
			88.835,90.968 83.677,101.235 82.757,98.385 		"/>
		
			<polygon fill="#CC924C" stroke="#333333" stroke-width="1.0616" stroke-linecap="round" stroke-linejoin="round" stroke-miterlimit="10" points="
			68.583,115.556 87.244,125.345 86.324,122.495 		"/>
		
			<polygon fill="#CC924C" stroke="#333333" stroke-width="1.0616" stroke-linecap="round" stroke-linejoin="round" stroke-miterlimit="10" points="
			97.987,127.227 94.853,134.443 94.258,132.604 		"/>
		<g>
			
				<path fill="#A1C453" stroke="#333333" stroke-width="1.5923" stroke-linecap="round" stroke-linejoin="round" stroke-miterlimit="10" d="
				M76.494,137.874c2.276-1.727,2.457-3.874,8.421-3.189c5.964,0.687,2.815,4.481,6.739,4.933c-3.924-0.451-1.952,4.057-7.696,3.396
				C78.214,142.354,78.495,139.908,76.494,137.874z"/>
			<g>
				<line fill="none" x1="91.655" y1="139.617" x2="79.906" y2="138.268"/>
				<g>
					<polyline fill="none" stroke="#333333" stroke-width="1.0616" stroke-linecap="round" stroke-miterlimit="10" points="
						91.128,139.557 90.445,139.479 82.684,138.587 82.09,138.519 					"/>
					
						<line fill="none" stroke="#333333" stroke-width="1.0616" stroke-linecap="round" stroke-miterlimit="10" x1="80.434" y1="138.328" x2="80.508" y2="138.337"/>
				</g>
			</g>
		</g>
		<g>
			
				<path fill="#A1C453" stroke="#333333" stroke-width="1.0616" stroke-linecap="round" stroke-linejoin="round" stroke-miterlimit="10" d="
				M67.327,84.305c0.358,1.682-0.402,2.73,2.585,4.761c2.987,2.031,3.044-0.936,5.01,0.401c-1.965-1.337,0.704-2.618-2.174-4.573
				C69.871,82.938,69.038,84.163,67.327,84.305z"/>
			<g>
				<line fill="none" x1="74.922" y1="89.467" x2="69.037" y2="85.467"/>
				<g>
					<polyline fill="none" stroke="#333333" stroke-width="1.0616" stroke-linecap="round" stroke-miterlimit="10" points="
						74.483,89.168 73.914,88.782 71.349,87.038 70.854,86.702 					"/>
					
						<line fill="none" stroke="#333333" stroke-width="1.0616" stroke-linecap="round" stroke-miterlimit="10" x1="69.476" y1="85.766" x2="69.537" y2="85.807"/>
				</g>
			</g>
		</g>
		<g>
			
				<path fill="#A1C453" stroke="#333333" stroke-width="1.5923" stroke-linecap="round" stroke-linejoin="round" stroke-miterlimit="10" d="
				M60.225,100.51c3.092,0.915,5.166-0.358,8.532,5.52c3.367,5.879-2.188,5.559,0.028,9.426c-2.218-3.867-4.995,0.938-8.237-4.723
				C57.306,105.07,59.716,103.689,60.225,100.51z"/>
			<g>
				<line fill="none" x1="68.786" y1="115.455" x2="62.151" y2="103.874"/>
				<g>
					<polyline fill="none" stroke="#333333" stroke-width="1.0616" stroke-linecap="round" stroke-miterlimit="10" points="
						68.522,114.994 68.18,114.397 63.541,106.3 63.244,105.781 					"/>
					
						<line fill="none" stroke="#333333" stroke-width="1.0616" stroke-linecap="round" stroke-miterlimit="10" x1="62.415" y1="104.335" x2="62.452" y2="104.399"/>
				</g>
			</g>
		</g>
		<g>
			
				<path fill="#A1C453" stroke="#333333" stroke-width="1.5923" stroke-linecap="round" stroke-linejoin="round" stroke-miterlimit="10" d="
				M52.245,111.405c2.832-1.54,3.397-3.906,9.936-2.13c6.537,1.775,2.383,5.477,6.686,6.645c-4.303-1.168-2.868,4.194-9.164,2.484
				C53.405,116.693,54.131,114.014,52.245,111.405z"/>
			<g>
				<line fill="none" x1="68.866" y1="115.92" x2="55.985" y2="112.422"/>
				<g>
					<polyline fill="none" stroke="#333333" stroke-width="1.0616" stroke-linecap="round" stroke-miterlimit="10" points="
						68.354,115.781 67.69,115.601 58.683,113.154 58.106,112.998 					"/>
					
						<line fill="none" stroke="#333333" stroke-width="1.0616" stroke-linecap="round" stroke-miterlimit="10" x1="56.497" y1="112.561" x2="56.569" y2="112.58"/>
				</g>
			</g>
		</g>
		<g>
			
				<path fill="#A1C453" stroke="#333333" stroke-width="1.5923" stroke-linecap="round" stroke-linejoin="round" stroke-miterlimit="10" d="
				M102.331,114.822c-2.295,1.13-4.087,0.414-5.931,5.462c-1.841,5.048,2.459,4.05,1.247,7.373c1.213-3.323,4.029,0.061,5.804-4.801
				C105.225,117.994,103.157,117.24,102.331,114.822z"/>
			<g>
				<line fill="none" x1="97.647" y1="127.657" x2="101.276" y2="117.711"/>
				<g>
					<polyline fill="none" stroke="#333333" stroke-width="1.0616" stroke-linecap="round" stroke-miterlimit="10" points="
						97.83,127.158 98.065,126.513 100.318,120.337 100.522,119.775 					"/>
					
						<line fill="none" stroke="#333333" stroke-width="1.0616" stroke-linecap="round" stroke-miterlimit="10" x1="101.094" y1="118.21" x2="101.068" y2="118.279"/>
				</g>
			</g>
		</g>
		<g>
			
				<path fill="#A1C453" stroke="#333333" stroke-width="1.5923" stroke-linecap="round" stroke-linejoin="round" stroke-miterlimit="10" d="
				M110.034,122.267c-2.422-0.824-3.184-2.597-8.055-0.329c-4.872,2.266-1.126,4.602-4.332,6.093
				c3.206-1.491,2.806,2.893,7.497,0.71C109.837,126.558,108.908,124.56,110.034,122.267z"/>
			<g>
				<line fill="none" x1="97.647" y1="128.03" x2="107.246" y2="123.564"/>
				<g>
					<polyline fill="none" stroke="#333333" stroke-width="1.0616" stroke-linecap="round" stroke-miterlimit="10" points="
						98.129,127.807 98.752,127.517 104.711,124.744 105.253,124.491 					"/>
					
						<line fill="none" stroke="#333333" stroke-width="1.0616" stroke-linecap="round" stroke-miterlimit="10" x1="106.764" y1="123.788" x2="106.697" y2="123.82"/>
				</g>
			</g>
		</g>
		<g>
			
				<path fill="#A1C453" stroke="#333333" stroke-width="1.0616" stroke-linecap="round" stroke-linejoin="round" stroke-miterlimit="10" d="
				M98.062,87.005c-0.656,1.624-0.077,2.813-3.435,4.326c-3.359,1.513-2.894-1.478-5.103-0.479c2.209-0.998-0.245-2.753,2.988-4.21
				C95.749,85.186,96.369,86.562,98.062,87.005z"/>
			<g>
				<line fill="none" x1="89.525" y1="90.852" x2="96.142" y2="87.869"/>
				<g>
					<polyline fill="none" stroke="#333333" stroke-width="1.0616" stroke-linecap="round" stroke-miterlimit="10" points="
						90.009,90.634 90.636,90.351 93.593,89.018 94.138,88.772 					"/>
					
						<line fill="none" stroke="#333333" stroke-width="1.0616" stroke-linecap="round" stroke-miterlimit="10" x1="95.658" y1="88.087" x2="95.59" y2="88.118"/>
				</g>
			</g>
		</g>
		<g>
			
				<path fill="#A1C453" stroke="#333333" stroke-width="1.5923" stroke-linecap="round" stroke-linejoin="round" stroke-miterlimit="10" d="
				M94.936,74.861c1.259,2.969,3.56,3.761,1.16,10.096c-2.401,6.336-5.682,1.841-7.261,6.011c1.579-4.17-3.898-3.262-1.587-9.362
				C89.561,75.504,92.157,76.488,94.936,74.861z"/>
			<g>
				<line fill="none" x1="88.835" y1="90.968" x2="93.564" y2="78.486"/>
				<g>
					<polyline fill="none" stroke="#333333" stroke-width="1.0616" stroke-linecap="round" stroke-miterlimit="10" points="
						89.023,90.472 89.267,89.828 92.574,81.101 92.785,80.542 					"/>
					
						<line fill="none" stroke="#333333" stroke-width="1.0616" stroke-linecap="round" stroke-miterlimit="10" x1="93.376" y1="78.982" x2="93.35" y2="79.053"/>
				</g>
			</g>
		</g>
		<g>
			
				<path fill="#A1C453" stroke="#333333" stroke-width="1.5923" stroke-linecap="round" stroke-linejoin="round" stroke-miterlimit="10" d="
				M102,95.078c-2.235,1.193-2.696,3.049-7.819,1.614c-5.125-1.437-1.838-4.318-5.211-5.263c3.373,0.944,2.278-3.277,7.214-1.896
				C101.12,90.914,100.533,93.018,102,95.078z"/>
			<g>
				<line fill="none" x1="88.97" y1="91.43" x2="99.067" y2="94.258"/>
				<g>
					<polyline fill="none" stroke="#333333" stroke-width="1.0616" stroke-linecap="round" stroke-miterlimit="10" points="
						89.481,91.573 90.144,91.759 96.375,93.504 96.951,93.665 					"/>
					
						<line fill="none" stroke="#333333" stroke-width="1.0616" stroke-linecap="round" stroke-miterlimit="10" x1="98.556" y1="94.114" x2="98.484" y2="94.095"/>
				</g>
			</g>
		</g>
		<g>
			<g>
				<path fill="#D3F46C" d="M76.16,118.831c1.615,3.355-0.354,8.943-3.148,9c-1.951,2.424-7.382,0.204-8.998-3.151
					c-1.615-3.354-1.567-7.46,3.719-8.337C71.511,112.902,74.545,115.478,76.16,118.831z"/>
				<g>
					<path fill="none" stroke="#333333" stroke-width="1.5924" stroke-linecap="round" stroke-miterlimit="10" d="M76.445,119.574
						c0.09,0.332,0.183,0.663,0.218,1.007c0.225,1.62-0.069,3.296-0.752,4.776c-0.35,0.733-0.813,1.438-1.47,1.934
						c-0.333,0.23-0.699,0.438-1.105,0.494l-0.303,0.043c-0.085,0.05-0.148,0.138-0.225,0.204c-0.135,0.157-0.301,0.274-0.479,0.374
						c-0.705,0.425-1.565,0.498-2.369,0.4c-0.812-0.1-1.597-0.362-2.332-0.715c-1.449-0.731-2.777-1.82-3.538-3.278
						c-0.718-1.449-1.196-3.105-0.918-4.73c0.142-0.805,0.52-1.568,1.095-2.15c0.567-0.596,1.319-0.979,2.087-1.239
						c0.383-0.146,0.785-0.224,1.186-0.309c0.218-0.004,0.351-0.186,0.514-0.305c0.161-0.125,0.308-0.271,0.481-0.379
						c0.66-0.478,1.425-0.83,2.233-0.942c0.811-0.115,1.648,0.069,2.357,0.473c0.183,0.082,0.354,0.227,0.504,0.324
						c0.08,0.057,0.163,0.11,0.233,0.179c0.146,0.132,0.302,0.254,0.439,0.394"/>
					
						<line fill="none" stroke="#333333" stroke-width="1.5924" stroke-linecap="round" stroke-miterlimit="10" x1="75.79" y1="118.127" x2="75.732" y2="118.03"/>
				</g>
			</g>
			
				<ellipse transform="matrix(0.163 -0.9866 0.9866 0.163 -64.8877 166.1557)" opacity="0.5" fill="#FFFFFF" enable-background="new    " cx="65.484" cy="121.321" rx="1.543" ry="1.269"/>
		</g>
		<path fill="#CC924C" stroke="#333333" stroke-width="2.8307" stroke-linecap="round" stroke-miterlimit="10" d="M102.224,156.928
			L76.808,79.969c-0.34-1.056-1.472-1.635-2.528-1.293l0,0c-1.055,0.341-1.634,1.472-1.293,2.527l24.405,77.285"/>
		<g>
			
				<path fill="#A1C453" stroke="#333333" stroke-width="1.0616" stroke-linecap="round" stroke-linejoin="round" stroke-miterlimit="10" d="
				M72.756,78.999c0,0,0.241-3.115,0.452-3.717c0.167-0.483,1.828,2.419,2.234,3.568L72.756,78.999z"/>
			
				<path fill="#A1C453" stroke="#333333" stroke-width="1.0616" stroke-linecap="round" stroke-linejoin="round" stroke-miterlimit="10" d="
				M75.028,78l-1.957,4.394c0,0-2.132-4.284-1.512-6.188C71.56,76.206,73.495,77.487,75.028,78z"/>
			
				<path fill="#A1C453" stroke="#333333" stroke-width="1.0616" stroke-linecap="round" stroke-linejoin="round" stroke-miterlimit="10" d="
				M77.374,83.238c0,0,0.563-5.913-2.065-8.243l-1.66,4.296L77.374,83.238z"/>
		</g>
		<g>
			<g>
				<path fill="#D3F46C" d="M96.083,95.344c0.376,2.72-2.269,6.197-4.242,5.604c-1.917,1.264-5.229-1.521-5.604-4.239
					c-0.377-2.719,0.582-5.59,4.489-5.013C94.157,90.135,95.707,92.625,96.083,95.344z"/>
				<g>
					<path fill="none" stroke="#333333" stroke-width="1.0616" stroke-linecap="round" stroke-miterlimit="10" d="M96.119,95.873
						c-0.021,0.229-0.007,0.46-0.058,0.685c-0.176,1.214-0.771,2.345-1.576,3.258c-0.411,0.449-0.902,0.843-1.476,1.063
						c-0.29,0.094-0.596,0.16-0.9,0.115c-0.322-0.162-0.547,0.195-0.86,0.2c-0.599,0.146-1.23,0.003-1.779-0.253
						c-0.555-0.258-1.052-0.628-1.493-1.051c-0.869-0.853-1.538-1.95-1.733-3.164c-0.16-1.199-0.104-2.495,0.518-3.563
						c0.61-1.1,1.917-1.595,3.127-1.534c0.304-0.016,0.614,0.086,0.909,0.04c0.285-0.11,0.563-0.237,0.864-0.304
						c0.586-0.158,1.219-0.212,1.811-0.043c0.593,0.164,1.105,0.549,1.48,1.029c0.09,0.118,0.194,0.25,0.257,0.367l0.102,0.168
						c0.073,0.109,0.119,0.233,0.178,0.35"/>
					
						<line fill="none" stroke="#333333" stroke-width="1.0616" stroke-linecap="round" stroke-miterlimit="10" x1="95.995" y1="94.82" x2="95.979" y2="94.748"/>
				</g>
			</g>
			
				<ellipse transform="matrix(0.4581 -0.8889 0.8889 0.4581 -36.4543 129.5646)" opacity="0.5" fill="#FFFFFF" enable-background="new    " cx="88.036" cy="94.68" rx="1.137" ry="0.935"/>
		</g>
	</g>
</g>
<g id="calque07">
	<g>
		
			<polygon fill="#CC924C" stroke="#333333" stroke-width="1.0616" stroke-linecap="round" stroke-linejoin="round" stroke-miterlimit="10" points="
			67.536,85.854 76.185,90.613 75.264,87.764 		"/>
		
			<polygon fill="#CC924C" stroke="#333333" stroke-width="0.8493" stroke-linecap="round" stroke-linejoin="round" stroke-miterlimit="10" points="
			88.834,90.968 83.677,101.235 82.757,98.385 		"/>
		
			<polygon fill="#CC924C" stroke="#333333" stroke-width="1.0616" stroke-linecap="round" stroke-linejoin="round" stroke-miterlimit="10" points="
			68.583,115.556 87.244,125.345 86.324,122.495 		"/>
		
			<polygon fill="#CC924C" stroke="#333333" stroke-width="1.0616" stroke-linecap="round" stroke-linejoin="round" stroke-miterlimit="10" points="
			97.986,127.228 94.853,134.443 94.258,132.604 		"/>
		<g>
			
				<path fill="#A1C453" stroke="#333333" stroke-width="1.5923" stroke-linecap="round" stroke-linejoin="round" stroke-miterlimit="10" d="
				M76.494,137.874c2.276-1.727,2.458-3.874,8.421-3.189c5.964,0.687,2.815,4.481,6.739,4.933c-3.924-0.451-1.952,4.057-7.696,3.396
				C78.214,142.354,78.495,139.908,76.494,137.874z"/>
			<g>
				<line fill="none" x1="91.655" y1="139.617" x2="79.906" y2="138.268"/>
				<g>
					<polyline fill="none" stroke="#333333" stroke-width="1.0616" stroke-linecap="round" stroke-miterlimit="10" points="
						91.128,139.557 90.445,139.479 82.684,138.587 82.09,138.519 					"/>
					
						<line fill="none" stroke="#333333" stroke-width="1.0616" stroke-linecap="round" stroke-miterlimit="10" x1="80.434" y1="138.328" x2="80.508" y2="138.337"/>
				</g>
			</g>
		</g>
		<g>
			
				<path fill="#A1C453" stroke="#333333" stroke-width="1.5923" stroke-linecap="round" stroke-linejoin="round" stroke-miterlimit="10" d="
				M54.913,77.275c0.598,2.795-0.668,4.54,4.297,7.914s5.059-1.557,8.326,0.665c-3.268-2.222,1.168-4.349-3.614-7.598
				C59.14,75.006,57.757,77.041,54.913,77.275z"/>
			<g>
				<line fill="none" x1="67.536" y1="85.854" x2="57.754" y2="79.206"/>
				<g>
					<polyline fill="none" stroke="#333333" stroke-width="1.0616" stroke-linecap="round" stroke-miterlimit="10" points="
						67.097,85.557 66.528,85.17 60.066,80.777 59.572,80.441 					"/>
					
						<line fill="none" stroke="#333333" stroke-width="1.0616" stroke-linecap="round" stroke-miterlimit="10" x1="58.193" y1="79.504" x2="58.255" y2="79.547"/>
				</g>
			</g>
		</g>
		<g>
			
				<path fill="#A1C453" stroke="#333333" stroke-width="1.5923" stroke-linecap="round" stroke-linejoin="round" stroke-miterlimit="10" d="
				M60.225,100.51c3.092,0.915,5.166-0.358,8.532,5.52c3.367,5.879-2.188,5.558,0.028,9.426c-2.217-3.868-4.994,0.938-8.237-4.723
				C57.306,105.07,59.715,103.689,60.225,100.51z"/>
			<g>
				<line fill="none" x1="68.786" y1="115.455" x2="62.151" y2="103.874"/>
				<g>
					<polyline fill="none" stroke="#333333" stroke-width="1.0616" stroke-linecap="round" stroke-miterlimit="10" points="
						68.522,114.994 68.18,114.397 63.541,106.3 63.244,105.781 					"/>
					
						<line fill="none" stroke="#333333" stroke-width="1.0616" stroke-linecap="round" stroke-miterlimit="10" x1="62.415" y1="104.335" x2="62.452" y2="104.399"/>
				</g>
			</g>
		</g>
		<g>
			
				<path fill="#A1C453" stroke="#333333" stroke-width="1.5923" stroke-linecap="round" stroke-linejoin="round" stroke-miterlimit="10" d="
				M52.245,111.405c2.833-1.54,3.397-3.906,9.937-2.13c6.536,1.775,2.382,5.477,6.685,6.645c-4.303-1.168-2.868,4.194-9.164,2.484
				C53.405,116.693,54.131,114.014,52.245,111.405z"/>
			<g>
				<line fill="none" x1="68.866" y1="115.92" x2="55.985" y2="112.422"/>
				<g>
					<polyline fill="none" stroke="#333333" stroke-width="1.0616" stroke-linecap="round" stroke-miterlimit="10" points="
						68.354,115.781 67.69,115.601 58.683,113.154 58.106,112.998 					"/>
					
						<line fill="none" stroke="#333333" stroke-width="1.0616" stroke-linecap="round" stroke-miterlimit="10" x1="56.497" y1="112.561" x2="56.569" y2="112.58"/>
				</g>
			</g>
		</g>
		<g>
			
				<path fill="#A1C453" stroke="#333333" stroke-width="1.5923" stroke-linecap="round" stroke-linejoin="round" stroke-miterlimit="10" d="
				M102.331,114.822c-2.295,1.13-4.087,0.414-5.931,5.462c-1.841,5.048,2.459,4.05,1.247,7.373c1.213-3.323,4.029,0.061,5.804-4.801
				C105.225,117.994,103.156,117.24,102.331,114.822z"/>
			<g>
				<line fill="none" x1="97.647" y1="127.657" x2="101.277" y2="117.711"/>
				<g>
					<polyline fill="none" stroke="#333333" stroke-width="1.0616" stroke-linecap="round" stroke-miterlimit="10" points="
						97.83,127.158 98.065,126.513 100.319,120.337 100.523,119.775 					"/>
					
						<line fill="none" stroke="#333333" stroke-width="1.0616" stroke-linecap="round" stroke-miterlimit="10" x1="101.095" y1="118.21" x2="101.069" y2="118.279"/>
				</g>
			</g>
		</g>
		<g>
			
				<path fill="#A1C453" stroke="#333333" stroke-width="1.5923" stroke-linecap="round" stroke-linejoin="round" stroke-miterlimit="10" d="
				M110.034,122.267c-2.424-0.824-3.183-2.597-8.055-0.329c-4.872,2.266-1.126,4.602-4.332,6.093
				c3.206-1.491,2.806,2.893,7.497,0.71C109.837,126.558,108.908,124.56,110.034,122.267z"/>
			<g>
				<line fill="none" x1="97.647" y1="128.03" x2="107.246" y2="123.564"/>
				<g>
					<polyline fill="none" stroke="#333333" stroke-width="1.0616" stroke-linecap="round" stroke-miterlimit="10" points="
						98.129,127.807 98.752,127.517 104.711,124.744 105.253,124.491 					"/>
					
						<line fill="none" stroke="#333333" stroke-width="1.0616" stroke-linecap="round" stroke-miterlimit="10" x1="106.764" y1="123.788" x2="106.697" y2="123.82"/>
				</g>
			</g>
		</g>
		<g>
			
				<path fill="#A1C453" stroke="#333333" stroke-width="1.5923" stroke-linecap="round" stroke-linejoin="round" stroke-miterlimit="10" d="
				M105.008,83.858c-1.21,2.989-0.145,5.176-6.32,7.959c-6.178,2.782-5.319-2.717-9.384-0.885c4.063-1.832-0.45-5.062,5.497-7.74
				C100.753,80.512,101.893,83.044,105.008,83.858z"/>
			<g>
				<line fill="none" x1="89.305" y1="90.933" x2="101.474" y2="85.449"/>
				<g>
					<polyline fill="none" stroke="#333333" stroke-width="1.0616" stroke-linecap="round" stroke-miterlimit="10" points="
						89.789,90.715 90.416,90.432 98.925,86.598 99.47,86.353 					"/>
					
						<line fill="none" stroke="#333333" stroke-width="1.0616" stroke-linecap="round" stroke-miterlimit="10" x1="100.99" y1="85.667" x2="100.922" y2="85.698"/>
				</g>
			</g>
		</g>
		<g>
			
				<path fill="#A1C453" stroke="#333333" stroke-width="1.5923" stroke-linecap="round" stroke-linejoin="round" stroke-miterlimit="10" d="
				M94.937,74.86c1.258,2.97,3.56,3.762,1.159,10.097c-2.401,6.336-5.682,1.841-7.262,6.011c1.58-4.17-3.897-3.262-1.586-9.362
				C89.561,75.504,92.158,76.488,94.937,74.86z"/>
			<g>
				<line fill="none" x1="88.834" y1="90.968" x2="93.564" y2="78.486"/>
				<g>
					<polyline fill="none" stroke="#333333" stroke-width="1.0616" stroke-linecap="round" stroke-miterlimit="10" points="
						89.022,90.472 89.266,89.828 92.573,81.101 92.785,80.541 					"/>
					
						<line fill="none" stroke="#333333" stroke-width="1.0616" stroke-linecap="round" stroke-miterlimit="10" x1="93.376" y1="78.982" x2="93.35" y2="79.053"/>
				</g>
			</g>
		</g>
		<g>
			
				<path fill="#A1C453" stroke="#333333" stroke-width="1.5923" stroke-linecap="round" stroke-linejoin="round" stroke-miterlimit="10" d="
				M102,95.078c-2.235,1.193-2.694,3.049-7.819,1.614c-5.125-1.437-1.837-4.318-5.212-5.263c3.375,0.944,2.279-3.277,7.215-1.896
				C101.12,90.914,100.533,93.018,102,95.078z"/>
			<g>
				<line fill="none" x1="88.969" y1="91.43" x2="99.067" y2="94.258"/>
				<g>
					<polyline fill="none" stroke="#333333" stroke-width="1.0616" stroke-linecap="round" stroke-miterlimit="10" points="
						89.48,91.573 90.143,91.758 96.375,93.504 96.951,93.665 					"/>
					
						<line fill="none" stroke="#333333" stroke-width="1.0616" stroke-linecap="round" stroke-miterlimit="10" x1="98.556" y1="94.114" x2="98.484" y2="94.095"/>
				</g>
			</g>
		</g>
		<g>
			<g>
				<path fill="#EF4529" d="M76.16,118.831c1.615,3.355-0.354,8.943-3.148,9c-1.951,2.424-7.382,0.204-8.998-3.151
					c-1.615-3.354-1.567-7.46,3.719-8.337C71.511,112.902,74.545,115.478,76.16,118.831z"/>
				<g>
					<path fill="none" stroke="#333333" stroke-width="1.5924" stroke-linecap="round" stroke-miterlimit="10" d="M76.445,119.574
						c0.09,0.332,0.183,0.663,0.218,1.007c0.225,1.62-0.069,3.296-0.751,4.776c-0.35,0.733-0.813,1.438-1.47,1.934
						c-0.334,0.23-0.699,0.438-1.106,0.494l-0.303,0.043c-0.085,0.049-0.148,0.138-0.224,0.204c-0.135,0.156-0.301,0.274-0.48,0.374
						c-0.705,0.425-1.565,0.498-2.369,0.4c-0.813-0.1-1.597-0.362-2.332-0.715c-1.448-0.731-2.777-1.82-3.537-3.278
						c-0.718-1.449-1.197-3.104-0.919-4.73c0.142-0.804,0.52-1.568,1.095-2.15c0.567-0.596,1.319-0.979,2.087-1.238
						c0.383-0.147,0.785-0.225,1.186-0.31c0.218-0.004,0.351-0.186,0.514-0.305c0.161-0.125,0.308-0.271,0.481-0.378
						c0.66-0.479,1.425-0.831,2.233-0.943c0.811-0.115,1.648,0.069,2.357,0.473c0.183,0.082,0.354,0.227,0.504,0.324
						c0.08,0.057,0.163,0.11,0.233,0.179c0.146,0.132,0.302,0.254,0.439,0.394"/>
					
						<line fill="none" stroke="#333333" stroke-width="1.5924" stroke-linecap="round" stroke-miterlimit="10" x1="75.79" y1="118.127" x2="75.732" y2="118.03"/>
				</g>
			</g>
			
				<ellipse transform="matrix(0.163 -0.9866 0.9866 0.163 -64.8805 166.1589)" opacity="0.5" fill="#FFFFFF" enable-background="new    " cx="65.487" cy="121.317" rx="1.543" ry="1.268"/>
		</g>
		<g>
			<g>
				<path fill="#D3F46C" d="M97.775,97.335c-0.022,3.724-4.242,7.879-6.778,6.701c-2.817,1.323-6.724-3.056-6.701-6.778
					c0.021-3.723,1.867-7.392,7-5.857C96.201,89.97,97.797,93.614,97.775,97.335z"/>
				<g>
					<path fill="none" stroke="#333333" stroke-width="1.5924" stroke-linecap="round" stroke-miterlimit="10" d="M97.705,98.127
						c-0.066,0.338-0.127,0.677-0.248,1c-0.51,1.555-1.51,2.932-2.772,3.961c-0.636,0.506-1.362,0.935-2.168,1.092
						c-0.4,0.061-0.821,0.086-1.211-0.043l-0.292-0.095c-0.097,0.009-0.194,0.059-0.291,0.087c-0.189,0.081-0.391,0.113-0.596,0.125
						c-0.819,0.071-1.625-0.24-2.305-0.681c-0.685-0.445-1.273-1.025-1.78-1.665c-0.981-1.293-1.696-2.854-1.739-4.498
						c-0.009-1.617,0.288-3.314,1.251-4.653c0.48-0.66,1.155-1.181,1.927-1.451c0.771-0.286,1.614-0.3,2.419-0.196
						c0.408,0.036,0.804,0.144,1.2,0.243c0.198,0.092,0.397-0.013,0.596-0.048c0.2-0.041,0.396-0.107,0.599-0.129
						c0.804-0.139,1.645-0.12,2.421,0.134c0.778,0.252,1.45,0.785,1.91,1.459c0.128,0.153,0.219,0.358,0.311,0.512
						c0.047,0.087,0.1,0.171,0.133,0.264c0.073,0.182,0.158,0.36,0.223,0.546"/>
					
						<line fill="none" stroke="#333333" stroke-width="1.5924" stroke-linecap="round" stroke-miterlimit="10" x1="97.752" y1="96.539" x2="97.743" y2="96.428"/>
				</g>
			</g>
			
				<ellipse transform="matrix(0.5801 -0.8145 0.8145 0.5801 -40.7201 110.7863)" opacity="0.5" fill="#FFFFFF" enable-background="new    " cx="87.094" cy="94.889" rx="1.541" ry="1.269"/>
		</g>
		<path fill="#CC924C" stroke="#333333" stroke-width="2.8307" stroke-linecap="round" stroke-miterlimit="10" d="M102.224,156.928
			L74.805,73.766c-0.342-1.055-1.473-1.633-2.528-1.293l0,0c-1.055,0.341-1.634,1.473-1.293,2.527l26.409,83.488"/>
		<g>
			
				<path fill="#A1C453" stroke="#333333" stroke-width="1.0616" stroke-linecap="round" stroke-linejoin="round" stroke-miterlimit="10" d="
				M70.753,72.797c0,0,0.24-3.116,0.452-3.718c0.167-0.483,1.829,2.419,2.234,3.568L70.753,72.797z"/>
			
				<path fill="#A1C453" stroke="#333333" stroke-width="1.0616" stroke-linecap="round" stroke-linejoin="round" stroke-miterlimit="10" d="
				M73.024,71.798l-1.955,4.393c0,0-2.132-4.282-1.513-6.187C69.556,70.004,71.492,71.284,73.024,71.798z"/>
			
				<path fill="#A1C453" stroke="#333333" stroke-width="1.0616" stroke-linecap="round" stroke-linejoin="round" stroke-miterlimit="10" d="
				M75.37,77.035c0,0,0.563-5.912-2.064-8.242l-1.66,4.295L75.37,77.035z"/>
		</g>
	</g>
</g>
<g id="calque08">
	<g>
		
			<polygon fill="#CC924C" stroke="#333333" stroke-width="1.0616" stroke-linecap="round" stroke-linejoin="round" stroke-miterlimit="10" points="
			67.533,85.855 76.182,90.615 75.262,87.766 		"/>
		
			<polygon fill="#CC924C" stroke="#333333" stroke-width="0.8493" stroke-linecap="round" stroke-linejoin="round" stroke-miterlimit="10" points="
			88.832,90.968 83.674,101.236 82.752,98.386 		"/>
		
			<polygon fill="#CC924C" stroke="#333333" stroke-width="1.0616" stroke-linecap="round" stroke-linejoin="round" stroke-miterlimit="10" points="
			68.58,115.557 87.242,125.346 86.322,122.496 		"/>
		
			<polygon fill="#CC924C" stroke="#333333" stroke-width="1.0616" stroke-linecap="round" stroke-linejoin="round" stroke-miterlimit="10" points="
			97.982,127.229 94.85,134.444 94.255,132.605 		"/>
		<g>
			
				<path fill="#A1C453" stroke="#333333" stroke-width="1.5923" stroke-linecap="round" stroke-linejoin="round" stroke-miterlimit="10" d="
				M76.491,137.875c2.276-1.727,2.456-3.873,8.422-3.188c5.963,0.685,2.815,4.48,6.738,4.932c-3.923-0.451-1.952,4.057-7.697,3.396
				C78.211,142.354,78.492,139.909,76.491,137.875z"/>
			<g>
				<line fill="none" x1="91.652" y1="139.618" x2="79.903" y2="138.268"/>
				<g>
					<polyline fill="none" stroke="#333333" stroke-width="1.0616" stroke-linecap="round" stroke-miterlimit="10" points="
						91.125,139.558 90.442,139.479 82.68,138.587 82.086,138.519 					"/>
					
						<line fill="none" stroke="#333333" stroke-width="1.0616" stroke-linecap="round" stroke-miterlimit="10" x1="80.43" y1="138.328" x2="80.504" y2="138.337"/>
				</g>
			</g>
		</g>
		<g>
			
				<path fill="#A1C453" stroke="#333333" stroke-width="1.5923" stroke-linecap="round" stroke-linejoin="round" stroke-miterlimit="10" d="
				M54.91,77.276c0.598,2.795-0.668,4.54,4.298,7.913c4.964,3.375,5.058-1.556,8.325,0.666c-3.268-2.222,1.168-4.349-3.614-7.598
				C59.138,75.007,57.753,77.041,54.91,77.276z"/>
			<g>
				<line fill="none" x1="67.533" y1="85.855" x2="57.751" y2="79.207"/>
				<g>
					<polyline fill="none" stroke="#333333" stroke-width="1.0616" stroke-linecap="round" stroke-miterlimit="10" points="
						67.094,85.557 66.525,85.171 60.063,80.778 59.569,80.442 					"/>
					
						<line fill="none" stroke="#333333" stroke-width="1.0616" stroke-linecap="round" stroke-miterlimit="10" x1="58.19" y1="79.506" x2="58.252" y2="79.547"/>
				</g>
			</g>
		</g>
		<g>
			
				<path fill="#A1C453" stroke="#333333" stroke-width="1.5923" stroke-linecap="round" stroke-linejoin="round" stroke-miterlimit="10" d="
				M60.223,100.511c3.091,0.914,5.164-0.358,8.531,5.521c3.367,5.878-2.188,5.558,0.028,9.424c-2.216-3.866-4.994,0.939-8.236-4.723
				C57.303,105.071,59.713,103.69,60.223,100.511z"/>
			<g>
				<line fill="none" x1="68.782" y1="115.455" x2="62.148" y2="103.876"/>
				<g>
					<polyline fill="none" stroke="#333333" stroke-width="1.0616" stroke-linecap="round" stroke-miterlimit="10" points="
						68.519,114.994 68.176,114.397 63.538,106.302 63.241,105.783 					"/>
					
						<line fill="none" stroke="#333333" stroke-width="1.0616" stroke-linecap="round" stroke-miterlimit="10" x1="62.412" y1="104.337" x2="62.449" y2="104.401"/>
				</g>
			</g>
		</g>
		<g>
			
				<path fill="#A1C453" stroke="#333333" stroke-width="1.5923" stroke-linecap="round" stroke-linejoin="round" stroke-miterlimit="10" d="
				M52.242,111.406c2.833-1.54,3.398-3.907,9.936-2.13c6.538,1.775,2.383,5.477,6.688,6.644c-4.304-1.167-2.87,4.196-9.164,2.485
				C53.4,116.694,54.129,114.015,52.242,111.406z"/>
			<g>
				<line fill="none" x1="68.864" y1="115.92" x2="55.982" y2="112.423"/>
				<g>
					<polyline fill="none" stroke="#333333" stroke-width="1.0616" stroke-linecap="round" stroke-miterlimit="10" points="
						68.352,115.781 67.688,115.601 58.68,113.155 58.104,112.999 					"/>
					
						<line fill="none" stroke="#333333" stroke-width="1.0616" stroke-linecap="round" stroke-miterlimit="10" x1="56.495" y1="112.562" x2="56.567" y2="112.581"/>
				</g>
			</g>
		</g>
		<g>
			
				<path fill="#A1C453" stroke="#333333" stroke-width="1.5923" stroke-linecap="round" stroke-linejoin="round" stroke-miterlimit="10" d="
				M102.327,114.822c-2.294,1.131-4.086,0.415-5.929,5.463c-1.842,5.048,2.458,4.051,1.245,7.373
				c1.213-3.322,4.029,0.061,5.806-4.801C105.223,117.995,103.153,117.241,102.327,114.822z"/>
			<g>
				<line fill="none" x1="97.644" y1="127.658" x2="101.272" y2="117.712"/>
				<g>
					<polyline fill="none" stroke="#333333" stroke-width="1.0616" stroke-linecap="round" stroke-miterlimit="10" points="
						97.826,127.159 98.062,126.514 100.314,120.338 100.519,119.776 					"/>
					
						<line fill="none" stroke="#333333" stroke-width="1.0616" stroke-linecap="round" stroke-miterlimit="10" x1="101.09" y1="118.211" x2="101.065" y2="118.28"/>
				</g>
			</g>
		</g>
		<g>
			
				<path fill="#A1C453" stroke="#333333" stroke-width="1.5923" stroke-linecap="round" stroke-linejoin="round" stroke-miterlimit="10" d="
				M110.031,122.267c-2.423-0.823-3.182-2.596-8.054-0.329c-4.873,2.268-1.127,4.603-4.333,6.094
				c3.206-1.491,2.807,2.894,7.498,0.71C109.835,126.559,108.905,124.561,110.031,122.267z"/>
			<g>
				<line fill="none" x1="97.644" y1="128.031" x2="107.243" y2="123.565"/>
				<g>
					<polyline fill="none" stroke="#333333" stroke-width="1.0616" stroke-linecap="round" stroke-miterlimit="10" points="
						98.125,127.808 98.749,127.518 104.708,124.744 105.25,124.492 					"/>
					
						<line fill="none" stroke="#333333" stroke-width="1.0616" stroke-linecap="round" stroke-miterlimit="10" x1="106.761" y1="123.789" x2="106.694" y2="123.82"/>
				</g>
			</g>
		</g>
		<g>
			
				<path fill="#A1C453" stroke="#333333" stroke-width="1.5923" stroke-linecap="round" stroke-linejoin="round" stroke-miterlimit="10" d="
				M105.004,83.859c-1.208,2.989-0.144,5.176-6.317,7.958c-6.178,2.783-5.319-2.716-9.385-0.883c4.065-1.833-0.45-5.063,5.498-7.741
				C100.749,80.513,101.889,83.045,105.004,83.859z"/>
			<g>
				<line fill="none" x1="89.301" y1="90.935" x2="101.47" y2="85.452"/>
				<g>
					<polyline fill="none" stroke="#333333" stroke-width="1.0616" stroke-linecap="round" stroke-miterlimit="10" points="
						89.785,90.717 90.412,90.434 98.921,86.601 99.466,86.354 					"/>
					
						<line fill="none" stroke="#333333" stroke-width="1.0616" stroke-linecap="round" stroke-miterlimit="10" x1="100.986" y1="85.67" x2="100.918" y2="85.701"/>
				</g>
			</g>
		</g>
		<g>
			
				<path fill="#A1C453" stroke="#333333" stroke-width="1.5923" stroke-linecap="round" stroke-linejoin="round" stroke-miterlimit="10" d="
				M94.934,74.861c1.258,2.969,3.56,3.763,1.158,10.097c-2.4,6.336-5.682,1.841-7.26,6.01c1.578-4.169-3.898-3.261-1.587-9.361
				C89.558,75.505,92.154,76.489,94.934,74.861z"/>
			<g>
				<line fill="none" x1="88.832" y1="90.968" x2="93.56" y2="78.487"/>
				<g>
					<polyline fill="none" stroke="#333333" stroke-width="1.0616" stroke-linecap="round" stroke-miterlimit="10" points="
						89.02,90.472 89.264,89.828 92.569,81.102 92.781,80.543 					"/>
					
						<line fill="none" stroke="#333333" stroke-width="1.0616" stroke-linecap="round" stroke-miterlimit="10" x1="93.372" y1="78.983" x2="93.345" y2="79.054"/>
				</g>
			</g>
		</g>
		<g>
			
				<path fill="#A1C453" stroke="#333333" stroke-width="1.5923" stroke-linecap="round" stroke-linejoin="round" stroke-miterlimit="10" d="
				M101.997,95.079c-2.234,1.193-2.694,3.048-7.818,1.613c-5.126-1.436-1.84-4.317-5.211-5.262c3.371,0.944,2.278-3.278,7.213-1.896
				C101.119,90.918,100.53,93.019,101.997,95.079z"/>
			<g>
				<line fill="none" x1="88.968" y1="91.431" x2="99.065" y2="94.258"/>
				<g>
					<polyline fill="none" stroke="#333333" stroke-width="1.0616" stroke-linecap="round" stroke-miterlimit="10" points="
						89.479,91.574 90.142,91.759 96.374,93.504 96.949,93.665 					"/>
					
						<line fill="none" stroke="#333333" stroke-width="1.0616" stroke-linecap="round" stroke-miterlimit="10" x1="98.554" y1="94.114" x2="98.482" y2="94.095"/>
				</g>
			</g>
		</g>
		<g>
			<g>
				<path fill="#EF4529" d="M76.158,118.831c1.613,3.356-0.354,8.944-3.149,9.001c-1.951,2.424-7.383,0.205-8.997-3.152
					c-1.615-3.354-1.568-7.459,3.717-8.335C71.508,112.903,74.542,115.479,76.158,118.831z"/>
				<g>
					<path fill="none" stroke="#333333" stroke-width="1.5924" stroke-linecap="round" stroke-miterlimit="10" d="M76.442,119.574
						c0.089,0.332,0.183,0.663,0.218,1.007c0.224,1.62-0.069,3.296-0.752,4.776c-0.35,0.733-0.813,1.438-1.469,1.934
						c-0.333,0.231-0.7,0.438-1.105,0.494l-0.304,0.044c-0.084,0.048-0.147,0.137-0.224,0.204c-0.135,0.156-0.301,0.274-0.479,0.374
						c-0.705,0.425-1.565,0.498-2.369,0.4c-0.813-0.1-1.597-0.361-2.332-0.714c-1.449-0.731-2.777-1.82-3.537-3.278
						c-0.718-1.45-1.197-3.105-0.92-4.731c0.142-0.804,0.519-1.568,1.094-2.15c0.567-0.596,1.319-0.979,2.087-1.238
						c0.383-0.146,0.785-0.224,1.186-0.309c0.219-0.004,0.351-0.187,0.514-0.305c0.161-0.125,0.308-0.271,0.48-0.379
						c0.661-0.478,1.426-0.831,2.234-0.943c0.81-0.114,1.648,0.069,2.357,0.473c0.183,0.081,0.354,0.227,0.504,0.324
						c0.081,0.057,0.163,0.109,0.233,0.178c0.146,0.132,0.302,0.254,0.439,0.394"/>
					
						<line fill="none" stroke="#333333" stroke-width="1.5924" stroke-linecap="round" stroke-miterlimit="10" x1="75.787" y1="118.127" x2="75.73" y2="118.03"/>
				</g>
			</g>
			
				<ellipse transform="matrix(0.1636 -0.9865 0.9865 0.1636 -64.9139 166.0651)" opacity="0.5" fill="#FFFFFF" enable-background="new    " cx="65.482" cy="121.316" rx="1.543" ry="1.27"/>
		</g>
		<g>
			<g>
				<path fill="#EF4529" d="M97.951,97.278c-0.022,3.723-4.243,7.878-6.779,6.702c-2.816,1.322-6.722-3.058-6.701-6.78
					c0.021-3.723,1.868-7.391,7-5.856C96.377,89.912,97.974,93.557,97.951,97.278z"/>
				<g>
					<path fill="none" stroke="#333333" stroke-width="1.5924" stroke-linecap="round" stroke-miterlimit="10" d="M97.881,98.07
						c-0.066,0.338-0.127,0.677-0.247,1c-0.51,1.555-1.509,2.932-2.772,3.961c-0.636,0.506-1.361,0.935-2.168,1.092
						c-0.4,0.061-0.82,0.086-1.211-0.043l-0.292-0.094c-0.097,0.009-0.193,0.059-0.291,0.086c-0.189,0.082-0.391,0.114-0.596,0.125
						c-0.819,0.072-1.625-0.24-2.303-0.681c-0.686-0.446-1.274-1.026-1.781-1.666c-0.98-1.293-1.696-2.854-1.739-4.498
						c-0.009-1.617,0.289-3.314,1.252-4.652c0.48-0.66,1.155-1.182,1.929-1.451c0.771-0.286,1.613-0.3,2.418-0.196
						c0.408,0.036,0.803,0.145,1.199,0.243c0.198,0.092,0.397-0.014,0.597-0.048c0.2-0.042,0.395-0.108,0.599-0.129
						c0.803-0.139,1.646-0.121,2.421,0.133c0.778,0.253,1.449,0.786,1.91,1.459c0.128,0.153,0.219,0.359,0.312,0.513
						c0.047,0.086,0.099,0.171,0.132,0.263c0.072,0.183,0.159,0.36,0.222,0.547"/>
					
						<line fill="none" stroke="#333333" stroke-width="1.5924" stroke-linecap="round" stroke-miterlimit="10" x1="97.928" y1="96.482" x2="97.919" y2="96.371"/>
				</g>
			</g>
			
				<ellipse transform="matrix(0.5801 -0.8146 0.8146 0.5801 -40.5986 110.9129)" opacity="0.5" fill="#FFFFFF" enable-background="new    " cx="87.276" cy="94.833" rx="1.542" ry="1.269"/>
		</g>
		<path fill="#CC924C" stroke="#333333" stroke-width="2.8307" stroke-linecap="round" stroke-miterlimit="10" d="M102.22,156.929
			L74.8,73.767c-0.34-1.055-1.471-1.633-2.527-1.293l0,0c-1.055,0.341-1.634,1.473-1.293,2.527l26.409,83.487"/>
		<g>
			
				<path fill="#A1C453" stroke="#333333" stroke-width="1.0616" stroke-linecap="round" stroke-linejoin="round" stroke-miterlimit="10" d="
				M70.75,72.798c0,0,0.242-3.117,0.452-3.717c0.167-0.483,1.826,2.418,2.234,3.566L70.75,72.798z"/>
			
				<path fill="#A1C453" stroke="#333333" stroke-width="1.0616" stroke-linecap="round" stroke-linejoin="round" stroke-miterlimit="10" d="
				M73.021,71.799l-1.955,4.393c0,0-2.132-4.283-1.513-6.187C69.553,70.005,71.487,71.286,73.021,71.799z"/>
			
				<path fill="#A1C453" stroke="#333333" stroke-width="1.0616" stroke-linecap="round" stroke-linejoin="round" stroke-miterlimit="10" d="
				M75.367,77.037c0,0,0.564-5.914-2.063-8.244l-1.662,4.296L75.367,77.037z"/>
		</g>
	</g>
</g>
</svg>
