<?xml version="1.0" encoding="utf-8"?>
<!-- Generator: Adobe Illustrator 16.0.0, SVG Export Plug-In . SVG Version: 6.00 Build 0)  -->
<!DOCTYPE svg PUBLIC "-//W3C//DTD SVG 1.1//EN" "http://www.w3.org/Graphics/SVG/1.1/DTD/svg11.dtd">
<svg version="1.1" id="Calque_1" xmlns="http://www.w3.org/2000/svg" xmlns:xlink="http://www.w3.org/1999/xlink" x="0px" y="0px"
	 width="340px" height="410px" viewBox="0 0 340 410" enable-background="new 0 0 340 410" xml:space="preserve">
<g id="calque00">
	<g>
		<path fill="#CC924C" stroke="#333333" stroke-width="2.4893" stroke-linecap="round" stroke-miterlimit="10" d="M251.99,174.72
			l1.046-8.76c0.063-1.037,0.958-1.827,1.996-1.762l0,0c1.036,0.064,1.826,0.959,1.762,1.996l-0.052,8.821"/>
		<g>
			
				<path fill="#A1C453" stroke="#333333" stroke-width="0.9957" stroke-linecap="round" stroke-linejoin="round" stroke-miterlimit="10" d="
				M256.492,164.139c0,0-0.943-2.776-1.274-3.273c-0.263-0.4-1.099,2.623-1.202,3.762L256.492,164.139z"/>
			
				<path fill="#A1C453" stroke="#333333" stroke-width="0.9957" stroke-linecap="round" stroke-linejoin="round" stroke-miterlimit="10" d="
				M254.195,163.76l2.8,3.537c0,0,0.94-4.387-0.063-5.973C256.932,161.324,255.47,162.937,254.195,163.76z"/>
			
				<path fill="#A1C453" stroke="#333333" stroke-width="0.9957" stroke-linecap="round" stroke-linejoin="round" stroke-miterlimit="10" d="
				M253.28,169.063c0,0-1.886-5.241-0.037-7.969l2.507,3.518L253.28,169.063z"/>
		</g>
	</g>
</g>
<g id="calque01">
	<g>
		<g>
			
				<path fill="#A1C453" stroke="#333333" stroke-width="0.9957" stroke-linecap="round" stroke-linejoin="round" stroke-miterlimit="10" d="
				M263.008,150.578c-1.223-0.127-1.77-0.877-3.809,0.705c-2.042,1.582-0.039,2.275-1.383,3.316
				c1.344-1.041,1.623,1.057,3.589-0.466C263.373,152.61,262.725,151.773,263.008,150.578z"/>
			<g>
				<line fill="none" x1="257.817" y1="154.6" x2="261.84" y2="151.483"/>
				<g>
					<polyline fill="none" stroke="#333333" stroke-width="0.9957" stroke-linecap="round" stroke-miterlimit="10" points="
						258.211,154.295 258.721,153.899 259.768,153.089 260.21,152.746 					"/>
					
						<line fill="none" stroke="#333333" stroke-width="0.9957" stroke-linecap="round" stroke-miterlimit="10" x1="261.446" y1="151.788" x2="261.391" y2="151.831"/>
				</g>
			</g>
		</g>
		<path fill="#CC924C" stroke="#333333" stroke-width="2.4893" stroke-linecap="round" stroke-miterlimit="10" d="M251.991,174.72
			l2.2-27.298c0.064-1.037,0.958-1.827,1.996-1.762l0,0c1.038,0.064,1.826,0.959,1.763,1.996l-1.208,27.359"/>
		<g>
			
				<path fill="#A1C453" stroke="#333333" stroke-width="0.9957" stroke-linecap="round" stroke-linejoin="round" stroke-miterlimit="10" d="
				M257.648,145.6c0,0-0.941-2.775-1.273-3.273c-0.264-0.398-1.101,2.623-1.202,3.764L257.648,145.6z"/>
			
				<path fill="#A1C453" stroke="#333333" stroke-width="0.9957" stroke-linecap="round" stroke-linejoin="round" stroke-miterlimit="10" d="
				M255.352,145.221l2.798,3.537c0,0,0.942-4.387-0.062-5.973C258.088,142.785,256.626,144.397,255.352,145.221z"/>
			
				<path fill="#A1C453" stroke="#333333" stroke-width="0.9957" stroke-linecap="round" stroke-linejoin="round" stroke-miterlimit="10" d="
				M254.436,150.525c0,0-1.885-5.243-0.037-7.971l2.507,3.518L254.436,150.525z"/>
		</g>
	</g>
</g>
<g id="calque02">
	<g>
		<g>
			
				<path fill="#A1C453" stroke="#333333" stroke-width="1.4936" stroke-linecap="round" stroke-linejoin="round" stroke-miterlimit="10" d="
				M268.807,146.273c-2.666-0.278-3.854-1.914-8.306,1.534c-4.452,3.448-0.082,4.964-3.011,7.233
				c2.929-2.27,3.537,2.304,7.825-1.018C269.604,150.703,268.19,148.877,268.807,146.273z"/>
			<g>
				<line fill="none" x1="257.49" y1="155.041" x2="266.26" y2="148.246"/>
				<g>
					<polyline fill="none" stroke="#333333" stroke-width="0.9957" stroke-linecap="round" stroke-miterlimit="10" points="
						257.884,154.736 258.394,154.341 264.188,149.852 264.63,149.509 					"/>
					
						<line fill="none" stroke="#333333" stroke-width="0.9957" stroke-linecap="round" stroke-miterlimit="10" x1="265.866" y1="148.551" x2="265.811" y2="148.594"/>
				</g>
			</g>
		</g>
		<g>
			
				<path fill="#A1C453" stroke="#333333" stroke-width="0.9957" stroke-linecap="round" stroke-linejoin="round" stroke-miterlimit="10" d="
				M250.403,138.68c-0.196,1.191-0.964,1.682,0.467,3.775c1.43,2.093,2.228,0.17,3.168,1.547c-0.94-1.377,1.132-1.527-0.245-3.543
				C252.415,138.441,251.556,139.027,250.403,138.68z"/>
			<g>
				<line fill="none" x1="254.037" y1="144.002" x2="251.509" y2="140.354"/>
				<g>
					<polyline fill="none" stroke="#333333" stroke-width="0.9957" stroke-linecap="round" stroke-miterlimit="10" points="
						253.754,143.593 253.386,143.063 253.002,142.509 252.683,142.048 					"/>
					
						<line fill="none" stroke="#333333" stroke-width="0.9957" stroke-linecap="round" stroke-miterlimit="10" x1="251.792" y1="140.763" x2="251.832" y2="140.82"/>
				</g>
			</g>
		</g>
		<path fill="#CC924C" stroke="#333333" stroke-width="2.4893" stroke-linecap="round" stroke-miterlimit="10" d="M251.991,174.72
			l2.732-35.837c0.064-1.039,0.958-1.828,1.997-1.764l0,0c1.037,0.064,1.826,0.959,1.761,1.998l-1.739,35.898"/>
		<g>
			
				<path fill="#A1C453" stroke="#333333" stroke-width="0.9957" stroke-linecap="round" stroke-linejoin="round" stroke-miterlimit="10" d="
				M258.181,137.06c0,0-0.942-2.775-1.273-3.272c-0.264-0.4-1.1,2.623-1.201,3.762L258.181,137.06z"/>
			
				<path fill="#A1C453" stroke="#333333" stroke-width="0.9957" stroke-linecap="round" stroke-linejoin="round" stroke-miterlimit="10" d="
				M255.885,136.68l2.798,3.539c0,0,0.941-4.388-0.063-5.974C258.62,134.245,257.159,135.857,255.885,136.68z"/>
			
				<path fill="#A1C453" stroke="#333333" stroke-width="0.9957" stroke-linecap="round" stroke-linejoin="round" stroke-miterlimit="10" d="
				M254.97,141.984c0,0-1.886-5.242-0.038-7.969l2.506,3.517L254.97,141.984z"/>
		</g>
	</g>
</g>
<g id="calque03">
	<g>
		
			<polygon fill="#CC924C" stroke="#333333" stroke-width="0.9957" stroke-linecap="round" stroke-linejoin="round" stroke-miterlimit="10" points="
			250.737,138.281 254.267,146.234 254.442,143.43 		"/>
		<g>
			
				<path fill="#A1C453" stroke="#333333" stroke-width="1.4936" stroke-linecap="round" stroke-linejoin="round" stroke-miterlimit="10" d="
				M268.807,146.273c-2.666-0.278-3.854-1.914-8.306,1.534c-4.452,3.448-0.082,4.964-3.011,7.233
				c2.929-2.27,3.539,2.304,7.825-1.018C269.604,150.703,268.19,148.877,268.807,146.273z"/>
			<g>
				<line fill="none" x1="257.49" y1="155.041" x2="266.26" y2="148.246"/>
				<g>
					<polyline fill="none" stroke="#333333" stroke-width="0.9957" stroke-linecap="round" stroke-miterlimit="10" points="
						257.884,154.736 258.394,154.341 264.188,149.852 264.63,149.509 					"/>
					
						<line fill="none" stroke="#333333" stroke-width="0.9957" stroke-linecap="round" stroke-miterlimit="10" x1="265.866" y1="148.551" x2="265.811" y2="148.594"/>
				</g>
			</g>
		</g>
		<g>
			
				<path fill="#A1C453" stroke="#333333" stroke-width="1.4936" stroke-linecap="round" stroke-linejoin="round" stroke-miterlimit="10" d="
				M242.665,126.459c-0.438,2.643-2.142,3.732,1.035,8.383c3.175,4.649,4.947,0.378,7.036,3.439
				c-2.089-3.062,2.515-3.396-0.544-7.875C247.135,125.928,245.228,127.229,242.665,126.459z"/>
			<g>
				<line fill="none" x1="250.737" y1="138.281" x2="244.483" y2="129.118"/>
				<g>
					<polyline fill="none" stroke="#333333" stroke-width="0.9957" stroke-linecap="round" stroke-miterlimit="10" points="
						250.457,137.87 250.093,137.337 245.962,131.284 245.646,130.82 					"/>
					
						<line fill="none" stroke="#333333" stroke-width="0.9957" stroke-linecap="round" stroke-miterlimit="10" x1="244.764" y1="129.529" x2="244.804" y2="129.587"/>
				</g>
			</g>
		</g>
		<g>
			
				<path fill="#A1C453" stroke="#333333" stroke-width="0.9957" stroke-linecap="round" stroke-linejoin="round" stroke-miterlimit="10" d="
				M264.729,135.549c-1.159-0.294-1.58-1.093-3.767,0.146c-2.188,1.238-0.354,2.187-1.792,3.002
				c1.438-0.815,1.416,1.244,3.521,0.051C264.799,137.557,264.291,136.659,264.729,135.549z"/>
			<g>
				<line fill="none" x1="259.171" y1="138.697" x2="263.479" y2="136.258"/>
				<g>
					<polyline fill="none" stroke="#333333" stroke-width="0.9957" stroke-linecap="round" stroke-miterlimit="10" points="
						259.604,138.452 260.165,138.134 261.197,137.55 261.685,137.273 					"/>
					
						<line fill="none" stroke="#333333" stroke-width="0.9957" stroke-linecap="round" stroke-miterlimit="10" x1="263.045" y1="136.503" x2="262.984" y2="136.537"/>
				</g>
			</g>
		</g>
		<path fill="#CC924C" stroke="#333333" stroke-width="2.4893" stroke-linecap="round" stroke-miterlimit="10" d="M251.991,174.72
			l3.152-42.551c0.064-1.038,0.957-1.826,1.996-1.762l0,0c1.037,0.065,1.825,0.958,1.761,1.996l-2.158,42.612"/>
		<g>
			
				<path fill="#A1C453" stroke="#333333" stroke-width="0.9957" stroke-linecap="round" stroke-linejoin="round" stroke-miterlimit="10" d="
				M258.601,130.348c0,0-0.942-2.775-1.274-3.273c-0.264-0.4-1.101,2.623-1.201,3.763L258.601,130.348z"/>
			
				<path fill="#A1C453" stroke="#333333" stroke-width="0.9957" stroke-linecap="round" stroke-linejoin="round" stroke-miterlimit="10" d="
				M256.303,129.967l2.799,3.539c0,0,0.941-4.388-0.063-5.975C259.039,127.531,257.577,129.145,256.303,129.967z"/>
			
				<path fill="#A1C453" stroke="#333333" stroke-width="0.9957" stroke-linecap="round" stroke-linejoin="round" stroke-miterlimit="10" d="
				M255.388,135.271c0,0-1.885-5.242-0.038-7.97l2.507,3.517L255.388,135.271z"/>
		</g>
	</g>
</g>
<g id="calque04">
	<g>
		
			<polygon fill="#CC924C" stroke="#333333" stroke-width="0.9957" stroke-linecap="round" stroke-linejoin="round" stroke-miterlimit="10" points="
			250.737,138.281 254.266,146.234 254.441,143.43 		"/>
		
			<polygon fill="#CC924C" stroke="#333333" stroke-width="0.9957" stroke-linecap="round" stroke-linejoin="round" stroke-miterlimit="10" points="
			269.251,129.611 258.376,140.83 258.551,138.027 		"/>
		<g>
			
				<path fill="#A1C453" stroke="#333333" stroke-width="1.4936" stroke-linecap="round" stroke-linejoin="round" stroke-miterlimit="10" d="
				M268.807,146.273c-2.666-0.278-3.854-1.914-8.306,1.534c-4.452,3.448-0.082,4.964-3.011,7.233
				c2.929-2.27,3.539,2.304,7.825-1.018C269.604,150.703,268.189,148.877,268.807,146.273z"/>
			<g>
				<line fill="none" x1="257.49" y1="155.041" x2="266.26" y2="148.246"/>
				<g>
					<polyline fill="none" stroke="#333333" stroke-width="0.9957" stroke-linecap="round" stroke-miterlimit="10" points="
						257.884,154.736 258.394,154.341 264.188,149.852 264.63,149.509 					"/>
					
						<line fill="none" stroke="#333333" stroke-width="0.9957" stroke-linecap="round" stroke-miterlimit="10" x1="265.866" y1="148.551" x2="265.811" y2="148.594"/>
				</g>
			</g>
		</g>
		<g>
			
				<path fill="#A1C453" stroke="#333333" stroke-width="1.4936" stroke-linecap="round" stroke-linejoin="round" stroke-miterlimit="10" d="
				M242.665,126.459c-0.438,2.643-2.142,3.732,1.035,8.383c3.175,4.649,4.947,0.378,7.036,3.439
				c-2.089-3.062,2.515-3.396-0.544-7.875C247.135,125.928,245.228,127.229,242.665,126.459z"/>
			<g>
				<line fill="none" x1="250.737" y1="138.281" x2="244.482" y2="129.118"/>
				<g>
					<polyline fill="none" stroke="#333333" stroke-width="0.9957" stroke-linecap="round" stroke-miterlimit="10" points="
						250.457,137.87 250.093,137.337 245.961,131.283 245.645,130.82 					"/>
					
						<line fill="none" stroke="#333333" stroke-width="0.9957" stroke-linecap="round" stroke-miterlimit="10" x1="244.763" y1="129.529" x2="244.803" y2="129.587"/>
				</g>
			</g>
		</g>
		<g>
			
				<path fill="#A1C453" stroke="#333333" stroke-width="0.9957" stroke-linecap="round" stroke-linejoin="round" stroke-miterlimit="10" d="
				M270.804,123.355c-1.033,0.616-1.899,0.348-2.573,2.783c-0.675,2.436,1.304,1.807,0.859,3.409
				c0.443-1.603,1.893-0.122,2.541-2.468C272.28,124.734,271.282,124.457,270.804,123.355z"/>
			<g>
				<line fill="none" x1="269.09" y1="129.548" x2="270.419" y2="124.75"/>
				<g>
					<polyline fill="none" stroke="#333333" stroke-width="0.9957" stroke-linecap="round" stroke-miterlimit="10" points="
						269.223,129.068 269.395,128.446 269.719,127.277 269.868,126.736 					"/>
					
						<line fill="none" stroke="#333333" stroke-width="0.9957" stroke-linecap="round" stroke-miterlimit="10" x1="270.286" y1="125.229" x2="270.268" y2="125.297"/>
				</g>
			</g>
		</g>
		<g>
			
				<path fill="#A1C453" stroke="#333333" stroke-width="1.4936" stroke-linecap="round" stroke-linejoin="round" stroke-miterlimit="10" d="
				M283.135,122.046c-2.933-0.741-3.996-2.761-9.524,0.372c-5.528,3.131-0.894,5.531-4.532,7.59c3.64-2.059,3.583,3.146,8.904,0.131
				C283.309,127.122,282.024,124.855,283.135,122.046z"/>
			<g>
				<line fill="none" x1="269.077" y1="130.008" x2="279.971" y2="123.838"/>
				<g>
					<polyline fill="none" stroke="#333333" stroke-width="0.9957" stroke-linecap="round" stroke-miterlimit="10" points="
						269.511,129.763 270.071,129.444 277.689,125.13 278.177,124.854 					"/>
					
						<line fill="none" stroke="#333333" stroke-width="0.9957" stroke-linecap="round" stroke-miterlimit="10" x1="279.537" y1="124.083" x2="279.477" y2="124.118"/>
				</g>
			</g>
		</g>
		<path fill="#CC924C" stroke="#333333" stroke-width="2.4893" stroke-linecap="round" stroke-miterlimit="10" d="M251.99,174.72
			l3.951-55.369c0.064-1.037,0.959-1.826,1.996-1.762l0,0c1.038,0.065,1.827,0.959,1.764,1.996l-2.959,55.431"/>
		<g>
			
				<path fill="#A1C453" stroke="#333333" stroke-width="0.9957" stroke-linecap="round" stroke-linejoin="round" stroke-miterlimit="10" d="
				M259.398,117.529c0,0-0.941-2.776-1.273-3.273c-0.264-0.4-1.1,2.622-1.201,3.763L259.398,117.529z"/>
			
				<path fill="#A1C453" stroke="#333333" stroke-width="0.9957" stroke-linecap="round" stroke-linejoin="round" stroke-miterlimit="10" d="
				M257.103,117.149l2.798,3.538c0,0,0.941-4.388-0.063-5.974C259.838,114.714,258.377,116.326,257.103,117.149z"/>
			
				<path fill="#A1C453" stroke="#333333" stroke-width="0.9957" stroke-linecap="round" stroke-linejoin="round" stroke-miterlimit="10" d="
				M256.188,122.453c0,0-1.886-5.242-0.038-7.969l2.507,3.517L256.188,122.453z"/>
		</g>
		<g>
			
				<path fill="#FFFFFF" stroke="#333333" stroke-width="0.9957" stroke-linecap="round" stroke-linejoin="round" stroke-miterlimit="10" d="
				M248.877,138.126c0.372,0.246,0.324,1.134,0.215,1.792c-0.193,1.188-1.47,2.539-2.639,1.765c-1.174-0.778-0.43-2.484,0.586-3.128
				C247.604,138.199,248.504,137.877,248.877,138.126z"/>
			
				<path fill="#FFFFFF" stroke="#333333" stroke-width="0.9957" stroke-linecap="round" stroke-linejoin="round" stroke-miterlimit="10" d="
				M248.979,138.066c0.027-0.445,0.819-0.847,1.444-1.082c1.127-0.426,2.936,0.004,2.849,1.402
				c-0.088,1.405-1.937,1.615-3.002,1.057C249.679,139.133,248.95,138.514,248.979,138.066z"/>
			
				<path fill="#FFFFFF" stroke="#333333" stroke-width="0.9957" stroke-linecap="round" stroke-linejoin="round" stroke-miterlimit="10" d="
				M248.884,138.01c-0.399,0.199-1.144-0.287-1.66-0.71c-0.931-0.763-1.464-2.544-0.208-3.167c1.261-0.627,2.365,0.87,2.415,2.07
				C249.458,136.869,249.286,137.811,248.884,138.01z"/>
			
				<path fill="#FFFFFF" stroke="#333333" stroke-width="0.9957" stroke-linecap="round" stroke-linejoin="round" stroke-miterlimit="10" d="
				M248.758,138.088c-0.028,0.445-0.82,0.848-1.445,1.082c-1.126,0.426-2.935-0.004-2.847-1.402c0.087-1.404,1.935-1.614,3-1.057
				C248.057,137.021,248.785,137.641,248.758,138.088z"/>
			
				<path fill="#FFFFFF" stroke="#333333" stroke-width="0.9957" stroke-linecap="round" stroke-linejoin="round" stroke-miterlimit="10" d="
				M248.859,138.143c0.398-0.199,1.144,0.286,1.659,0.71c0.933,0.763,1.463,2.543,0.209,3.167c-1.261,0.627-2.366-0.869-2.416-2.069
				C248.285,139.282,248.457,138.342,248.859,138.143z"/>
			
				<path fill="#FFFFFF" stroke="#333333" stroke-width="0.9957" stroke-linecap="round" stroke-linejoin="round" stroke-miterlimit="10" d="
				M248.846,138.019c-0.372-0.247-0.324-1.133-0.217-1.792c0.195-1.188,1.472-2.539,2.641-1.766c1.173,0.779,0.43,2.484-0.586,3.127
				C250.119,137.945,249.219,138.267,248.846,138.019z"/>
			
				<circle fill="#F9D53E" stroke="#333333" stroke-width="0.9957" stroke-linecap="round" stroke-linejoin="round" stroke-miterlimit="10" cx="248.758" cy="138.089" r="0.926"/>
		</g>
	</g>
</g>
<g id="calque05">
	<g>
		
			<polygon fill="#CC924C" stroke="#333333" stroke-width="0.9957" stroke-linecap="round" stroke-linejoin="round" stroke-miterlimit="10" points="
			250.737,138.281 254.266,146.234 254.441,143.43 		"/>
		
			<polygon fill="#CC924C" stroke="#333333" stroke-width="0.9957" stroke-linecap="round" stroke-linejoin="round" stroke-miterlimit="10" points="
			269.252,129.611 258.376,140.83 258.551,138.027 		"/>
		<g>
			
				<path fill="#A1C453" stroke="#333333" stroke-width="1.4936" stroke-linecap="round" stroke-linejoin="round" stroke-miterlimit="10" d="
				M268.807,146.273c-2.666-0.278-3.854-1.914-8.306,1.534c-4.452,3.448-0.082,4.964-3.011,7.233
				c2.929-2.27,3.539,2.304,7.825-1.018C269.604,150.703,268.189,148.877,268.807,146.273z"/>
			<g>
				<line fill="none" x1="257.49" y1="155.041" x2="266.26" y2="148.246"/>
				<g>
					<polyline fill="none" stroke="#333333" stroke-width="0.9957" stroke-linecap="round" stroke-miterlimit="10" points="
						257.884,154.736 258.394,154.341 264.188,149.852 264.63,149.509 					"/>
					
						<line fill="none" stroke="#333333" stroke-width="0.9957" stroke-linecap="round" stroke-miterlimit="10" x1="265.866" y1="148.551" x2="265.811" y2="148.594"/>
				</g>
			</g>
		</g>
		<g>
			
				<path fill="#A1C453" stroke="#333333" stroke-width="1.4936" stroke-linecap="round" stroke-linejoin="round" stroke-miterlimit="10" d="
				M242.665,126.459c-0.438,2.643-2.142,3.732,1.035,8.383c3.175,4.649,4.947,0.378,7.036,3.439
				c-2.089-3.062,2.515-3.396-0.544-7.875C247.135,125.928,245.228,127.229,242.665,126.459z"/>
			<g>
				<line fill="none" x1="250.737" y1="138.281" x2="244.482" y2="129.118"/>
				<g>
					<polyline fill="none" stroke="#333333" stroke-width="0.9957" stroke-linecap="round" stroke-miterlimit="10" points="
						250.457,137.87 250.093,137.337 245.961,131.283 245.645,130.82 					"/>
					
						<line fill="none" stroke="#333333" stroke-width="0.9957" stroke-linecap="round" stroke-miterlimit="10" x1="244.763" y1="129.529" x2="244.803" y2="129.587"/>
				</g>
			</g>
		</g>
		<g>
			
				<path fill="#A1C453" stroke="#333333" stroke-width="1.4936" stroke-linecap="round" stroke-linejoin="round" stroke-miterlimit="10" d="
				M273.352,113.998c-2.598,1.549-4.775,0.873-6.472,6.998c-1.695,6.124,3.279,4.543,2.163,8.572
				c1.116-4.029,4.756-0.307,6.388-6.205C277.064,117.465,274.555,116.77,273.352,113.998z"/>
			<g>
				<line fill="none" x1="269.043" y1="129.568" x2="272.384" y2="117.502"/>
				<g>
					<polyline fill="none" stroke="#333333" stroke-width="0.9957" stroke-linecap="round" stroke-miterlimit="10" points="
						269.176,129.089 269.348,128.467 271.685,120.029 271.834,119.488 					"/>
					
						<line fill="none" stroke="#333333" stroke-width="0.9957" stroke-linecap="round" stroke-miterlimit="10" x1="272.251" y1="117.981" x2="272.232" y2="118.049"/>
				</g>
			</g>
		</g>
		<g>
			
				<path fill="#A1C453" stroke="#333333" stroke-width="1.4936" stroke-linecap="round" stroke-linejoin="round" stroke-miterlimit="10" d="
				M283.135,122.046c-2.933-0.741-3.996-2.761-9.524,0.372c-5.527,3.131-0.894,5.531-4.532,7.59c3.64-2.059,3.583,3.146,8.904,0.131
				C283.309,127.122,282.024,124.855,283.135,122.046z"/>
			<g>
				<line fill="none" x1="269.077" y1="130.008" x2="279.971" y2="123.838"/>
				<g>
					<polyline fill="none" stroke="#333333" stroke-width="0.9957" stroke-linecap="round" stroke-miterlimit="10" points="
						269.511,129.763 270.071,129.444 277.689,125.13 278.177,124.854 					"/>
					
						<line fill="none" stroke="#333333" stroke-width="0.9957" stroke-linecap="round" stroke-miterlimit="10" x1="279.537" y1="124.083" x2="279.477" y2="124.118"/>
				</g>
			</g>
		</g>
		<g>
			
				<path fill="#A1C453" stroke="#333333" stroke-width="0.9957" stroke-linecap="round" stroke-linejoin="round" stroke-miterlimit="10" d="
				M252.845,111.18c-0.133,0.875-0.691,1.242,0.377,2.764c1.068,1.521,1.636,0.102,2.339,1.104
				c-0.703-1.002,0.813-1.132-0.214-2.596C254.316,110.985,253.693,111.424,252.845,111.18z"/>
			<g>
				<line fill="none" x1="255.561" y1="115.047" x2="253.456" y2="112.051"/>
				<g>
					
						<line fill="none" stroke="#333333" stroke-width="0.9957" stroke-linecap="round" stroke-miterlimit="10" x1="255.491" y1="114.947" x2="253.745" y2="112.463"/>
					
						<line fill="none" stroke="#333333" stroke-width="0.9957" stroke-linecap="round" stroke-miterlimit="10" x1="253.526" y1="112.15" x2="253.536" y2="112.164"/>
				</g>
			</g>
		</g>
		<g>
			<g>
				<path fill="#D3F46C" d="M250.688,142.669c-1.32,1.671-4.688,2.058-5.418,0.632c-1.736-0.396-1.954-3.746-0.633-5.418
					c1.321-1.671,3.446-2.675,5.22-0.175C252.574,138.792,252.01,140.998,250.688,142.669z"/>
				<g>
					<path fill="none" stroke="#333333" stroke-width="0.9957" stroke-linecap="round" stroke-miterlimit="10" d="M250.346,143.029
						c-0.158,0.146-0.33,0.275-0.512,0.391c-0.78,0.489-1.7,0.753-2.621,0.753c-0.458-0.003-0.928-0.071-1.337-0.289
						c-0.198-0.113-0.393-0.252-0.516-0.448c-0.033-0.046-0.061-0.101-0.101-0.139l-0.163-0.057
						c-0.113-0.029-0.21-0.091-0.307-0.154c-0.775-0.547-0.985-1.567-1.005-2.461c0.012-0.915,0.223-1.858,0.762-2.612
						c0.545-0.731,1.255-1.392,2.137-1.683c0.887-0.324,1.887,0.001,2.54,0.646c0.366,0.279,0.521,0.797,1.009,0.903
						c0.407,0.21,0.799,0.47,1.09,0.831c0.291,0.359,0.455,0.815,0.465,1.276l-0.015,0.339l-0.027,0.183
						c-0.015,0.122-0.05,0.24-0.082,0.358"/>
					
						<line fill="none" stroke="#333333" stroke-width="0.9957" stroke-linecap="round" stroke-miterlimit="10" x1="250.981" y1="142.267" x2="251.02" y2="142.208"/>
				</g>
			</g>
			
				<ellipse transform="matrix(0.9587 -0.2845 0.2845 0.9587 -29.0048 75.8793)" opacity="0.5" fill="#FFFFFF" enable-background="new    " cx="246.74" cy="137.8" rx="0.883" ry="0.726"/>
		</g>
		<path fill="#CC924C" stroke="#333333" stroke-width="2.4893" stroke-linecap="round" stroke-miterlimit="10" d="M251.99,174.72
			l4.554-65.005c0.063-1.039,0.958-1.828,1.997-1.763l0,0c1.037,0.064,1.825,0.958,1.761,1.997l-3.56,65.066"/>
		<g>
			
				<path fill="#A1C453" stroke="#333333" stroke-width="0.9957" stroke-linecap="round" stroke-linejoin="round" stroke-miterlimit="10" d="
				M260,107.893c0,0-0.942-2.775-1.274-3.273c-0.263-0.4-1.1,2.623-1.202,3.763L260,107.893z"/>
			
				<path fill="#A1C453" stroke="#333333" stroke-width="0.9957" stroke-linecap="round" stroke-linejoin="round" stroke-miterlimit="10" d="
				M257.703,107.514l2.799,3.537c0,0,0.94-4.387-0.063-5.974C260.439,105.077,258.978,106.689,257.703,107.514z"/>
			
				<path fill="#A1C453" stroke="#333333" stroke-width="0.9957" stroke-linecap="round" stroke-linejoin="round" stroke-miterlimit="10" d="
				M256.788,112.818c0,0-1.886-5.243-0.038-7.971l2.507,3.518L256.788,112.818z"/>
		</g>
		<g>
			
				<path fill="#FFFFFF" stroke="#333333" stroke-width="0.9957" stroke-linecap="round" stroke-linejoin="round" stroke-miterlimit="10" d="
				M270.209,130.135c0.371,0.246,0.324,1.133,0.215,1.792c-0.194,1.188-1.471,2.539-2.639,1.764
				c-1.174-0.777-0.431-2.483,0.584-3.126C268.936,130.207,269.836,129.887,270.209,130.135z"/>
			
				<path fill="#FFFFFF" stroke="#333333" stroke-width="0.9957" stroke-linecap="round" stroke-linejoin="round" stroke-miterlimit="10" d="
				M270.311,130.075c0.027-0.444,0.819-0.847,1.444-1.081c1.126-0.426,2.936,0.004,2.848,1.401
				c-0.087,1.405-1.936,1.614-3.001,1.058C271.011,131.143,270.282,130.523,270.311,130.075z"/>
			
				<path fill="#FFFFFF" stroke="#333333" stroke-width="0.9957" stroke-linecap="round" stroke-linejoin="round" stroke-miterlimit="10" d="
				M270.216,130.019c-0.4,0.198-1.145-0.286-1.66-0.71c-0.932-0.762-1.464-2.543-0.209-3.168c1.261-0.626,2.365,0.871,2.416,2.07
				C270.789,128.879,270.617,129.819,270.216,130.019z"/>
			
				<path fill="#FFFFFF" stroke="#333333" stroke-width="0.9957" stroke-linecap="round" stroke-linejoin="round" stroke-miterlimit="10" d="
				M270.089,130.098c-0.027,0.445-0.819,0.848-1.444,1.082c-1.126,0.426-2.936-0.004-2.849-1.404
				c0.088-1.404,1.938-1.613,3.002-1.057C269.389,129.031,270.117,129.648,270.089,130.098z"/>
			
				<path fill="#FFFFFF" stroke="#333333" stroke-width="0.9957" stroke-linecap="round" stroke-linejoin="round" stroke-miterlimit="10" d="
				M270.19,130.152c0.399-0.199,1.145,0.285,1.659,0.709c0.932,0.762,1.464,2.543,0.21,3.167c-1.262,0.627-2.367-0.87-2.417-2.069
				C269.617,131.291,269.789,130.351,270.19,130.152z"/>
			
				<path fill="#FFFFFF" stroke="#333333" stroke-width="0.9957" stroke-linecap="round" stroke-linejoin="round" stroke-miterlimit="10" d="
				M270.177,130.027c-0.371-0.246-0.323-1.133-0.215-1.792c0.193-1.188,1.471-2.54,2.638-1.765c1.174,0.779,0.43,2.484-0.584,3.127
				C271.45,129.954,270.551,130.275,270.177,130.027z"/>
			
				<circle fill="#F9D53E" stroke="#333333" stroke-width="0.9957" stroke-linecap="round" stroke-linejoin="round" stroke-miterlimit="10" cx="270.089" cy="130.098" r="0.926"/>
		</g>
	</g>
</g>
<g id="calque06">
	<g>
		
			<polygon fill="#CC924C" stroke="#333333" stroke-width="0.9957" stroke-linecap="round" stroke-linejoin="round" stroke-miterlimit="10" points="
			250.737,138.281 254.266,146.234 254.441,143.43 		"/>
		
			<polygon fill="#CC924C" stroke="#333333" stroke-width="0.9957" stroke-linecap="round" stroke-linejoin="round" stroke-miterlimit="10" points="
			251.872,111.086 256.095,116.918 256.27,114.113 		"/>
		
			<polygon fill="#CC924C" stroke="#333333" stroke-width="0.9957" stroke-linecap="round" stroke-linejoin="round" stroke-miterlimit="10" points="
			269.252,129.611 258.376,140.83 258.551,138.027 		"/>
		<g>
			
				<path fill="#A1C453" stroke="#333333" stroke-width="1.4936" stroke-linecap="round" stroke-linejoin="round" stroke-miterlimit="10" d="
				M268.807,146.273c-2.666-0.278-3.854-1.914-8.305,1.534c-4.452,3.448-0.083,4.964-3.012,7.233
				c2.929-2.27,3.539,2.304,7.825-1.018C269.604,150.703,268.19,148.877,268.807,146.273z"/>
			<g>
				<line fill="none" x1="257.49" y1="155.041" x2="266.26" y2="148.246"/>
				<g>
					<polyline fill="none" stroke="#333333" stroke-width="0.9957" stroke-linecap="round" stroke-miterlimit="10" points="
						257.884,154.736 258.394,154.341 264.188,149.852 264.63,149.509 					"/>
					
						<line fill="none" stroke="#333333" stroke-width="0.9957" stroke-linecap="round" stroke-miterlimit="10" x1="265.866" y1="148.551" x2="265.811" y2="148.594"/>
				</g>
			</g>
		</g>
		<g>
			
				<path fill="#A1C453" stroke="#333333" stroke-width="1.4936" stroke-linecap="round" stroke-linejoin="round" stroke-miterlimit="10" d="
				M242.665,126.459c-0.438,2.643-2.142,3.732,1.035,8.383c3.175,4.649,4.947,0.378,7.036,3.439
				c-2.089-3.062,2.515-3.396-0.544-7.875C247.135,125.928,245.228,127.229,242.665,126.459z"/>
			<g>
				<line fill="none" x1="250.737" y1="138.281" x2="244.482" y2="129.118"/>
				<g>
					<polyline fill="none" stroke="#333333" stroke-width="0.9957" stroke-linecap="round" stroke-miterlimit="10" points="
						250.457,137.87 250.093,137.337 245.961,131.283 245.645,130.82 					"/>
					
						<line fill="none" stroke="#333333" stroke-width="0.9957" stroke-linecap="round" stroke-miterlimit="10" x1="244.763" y1="129.529" x2="244.803" y2="129.587"/>
				</g>
			</g>
		</g>
		<g>
			
				<path fill="#A1C453" stroke="#333333" stroke-width="1.4936" stroke-linecap="round" stroke-linejoin="round" stroke-miterlimit="10" d="
				M273.352,113.998c-2.598,1.549-4.775,0.873-6.472,6.998c-1.695,6.124,3.279,4.543,2.163,8.572
				c1.116-4.029,4.756-0.307,6.388-6.205C277.064,117.465,274.555,116.77,273.352,113.998z"/>
			<g>
				<line fill="none" x1="269.043" y1="129.568" x2="272.384" y2="117.502"/>
				<g>
					<polyline fill="none" stroke="#333333" stroke-width="0.9957" stroke-linecap="round" stroke-miterlimit="10" points="
						269.176,129.089 269.348,128.467 271.685,120.029 271.834,119.488 					"/>
					
						<line fill="none" stroke="#333333" stroke-width="0.9957" stroke-linecap="round" stroke-miterlimit="10" x1="272.251" y1="117.981" x2="272.232" y2="118.049"/>
				</g>
			</g>
		</g>
		<g>
			
				<path fill="#A1C453" stroke="#333333" stroke-width="1.4936" stroke-linecap="round" stroke-linejoin="round" stroke-miterlimit="10" d="
				M283.135,122.046c-2.932-0.741-3.996-2.761-9.524,0.372c-5.527,3.131-0.894,5.531-4.532,7.59c3.64-2.059,3.583,3.146,8.904,0.131
				C283.309,127.122,282.024,124.855,283.135,122.046z"/>
			<g>
				<line fill="none" x1="269.077" y1="130.008" x2="279.971" y2="123.838"/>
				<g>
					<polyline fill="none" stroke="#333333" stroke-width="0.9957" stroke-linecap="round" stroke-miterlimit="10" points="
						269.511,129.763 270.071,129.444 277.689,125.13 278.177,124.854 					"/>
					
						<line fill="none" stroke="#333333" stroke-width="0.9957" stroke-linecap="round" stroke-miterlimit="10" x1="279.537" y1="124.083" x2="279.477" y2="124.118"/>
				</g>
			</g>
		</g>
		<g>
			
				<path fill="#A1C453" stroke="#333333" stroke-width="0.9957" stroke-linecap="round" stroke-linejoin="round" stroke-miterlimit="10" d="
				M264.561,103.654c-0.989,0.082-1.534-0.43-2.915,1.129c-1.38,1.561,0.313,1.812-0.597,2.838c0.908-1.026,1.444,0.594,2.773-0.909
				C265.154,105.21,264.515,104.644,264.561,103.654z"/>
			<g>
				<line fill="none" x1="261.049" y1="107.621" x2="263.77" y2="104.547"/>
				<g>
					<polyline fill="none" stroke="#333333" stroke-width="0.9957" stroke-linecap="round" stroke-miterlimit="10" points="
						261.379,107.248 261.807,106.766 262.032,106.511 262.403,106.091 					"/>
					
						<line fill="none" stroke="#333333" stroke-width="0.9957" stroke-linecap="round" stroke-miterlimit="10" x1="263.439" y1="104.92" x2="263.394" y2="104.973"/>
				</g>
			</g>
		</g>
		<g>
			
				<path fill="#A1C453" stroke="#333333" stroke-width="0.9957" stroke-linecap="round" stroke-linejoin="round" stroke-miterlimit="10" d="
				M247.35,114.058c0.992,0.042,1.469,0.618,3.034-0.756c1.563-1.374-0.084-1.835,0.947-2.739c-1.031,0.904-1.358-0.771-2.867,0.553
				C246.956,112.439,247.519,113.081,247.35,114.058z"/>
			<g>
				<line fill="none" x1="251.331" y1="110.563" x2="248.246" y2="113.271"/>
				<g>
					<polyline fill="none" stroke="#333333" stroke-width="0.9957" stroke-linecap="round" stroke-miterlimit="10" points="
						250.957,110.891 250.473,111.316 250.216,111.541 249.795,111.911 					"/>
					
						<line fill="none" stroke="#333333" stroke-width="0.9957" stroke-linecap="round" stroke-miterlimit="10" x1="248.62" y1="112.943" x2="248.673" y2="112.896"/>
				</g>
			</g>
		</g>
		<g>
			
				<path fill="#A1C453" stroke="#333333" stroke-width="1.4936" stroke-linecap="round" stroke-linejoin="round" stroke-miterlimit="10" d="
				M242.587,97.865c-0.455,2.991-2.36,4.244,1.292,9.444c3.652,5.2,5.59,0.354,7.993,3.776c-2.403-3.422,2.785-3.869-0.732-8.876
				C247.622,97.201,245.49,98.699,242.587,97.865z"/>
			<g>
				<line fill="none" x1="251.872" y1="111.086" x2="244.678" y2="100.841"/>
				<g>
					<polyline fill="none" stroke="#333333" stroke-width="0.9957" stroke-linecap="round" stroke-miterlimit="10" points="
						251.586,110.679 251.215,110.15 246.185,102.986 245.862,102.527 					"/>
					
						<line fill="none" stroke="#333333" stroke-width="0.9957" stroke-linecap="round" stroke-miterlimit="10" x1="244.964" y1="101.248" x2="245.004" y2="101.306"/>
				</g>
			</g>
		</g>
		<g>
			<g>
				<path fill="#D3F46C" d="M250.64,146.227c-2.167,2.74-7.687,3.373-8.881,1.038c-2.846-0.649-3.203-6.142-1.037-8.882
					c2.166-2.737,5.649-4.382,8.557-0.284C253.73,139.873,252.805,143.49,250.64,146.227z"/>
				<g>
					<path fill="none" stroke="#333333" stroke-width="1.4936" stroke-linecap="round" stroke-miterlimit="10" d="M250.13,146.771
						c-0.243,0.212-0.484,0.427-0.76,0.597c-1.273,0.854-2.81,1.295-4.336,1.326c-0.764,0.007-1.548-0.096-2.233-0.445
						c-0.332-0.187-0.657-0.41-0.87-0.731l-0.161-0.237c-0.076-0.051-0.178-0.068-0.265-0.104c-0.188-0.05-0.354-0.142-0.513-0.252
						c-0.647-0.42-1.063-1.115-1.311-1.833c-0.249-0.726-0.35-1.494-0.354-2.26c0.021-1.521,0.394-3.089,1.311-4.329
						c0.928-1.2,2.128-2.283,3.613-2.716c0.735-0.21,1.535-0.206,2.263,0.041c0.735,0.233,1.366,0.71,1.901,1.251
						c0.279,0.264,0.511,0.57,0.746,0.873c0.094,0.183,0.301,0.22,0.468,0.309c0.172,0.085,0.354,0.148,0.517,0.25
						c0.676,0.361,1.286,0.86,1.713,1.497c0.43,0.636,0.617,1.418,0.569,2.181c0.006,0.188-0.046,0.393-0.067,0.559
						c-0.015,0.091-0.024,0.183-0.054,0.271c-0.051,0.178-0.091,0.358-0.15,0.532"/>
					
						<line fill="none" stroke="#333333" stroke-width="1.4936" stroke-linecap="round" stroke-miterlimit="10" x1="251.082" y1="145.625" x2="251.14" y2="145.537"/>
				</g>
			</g>
			
				<ellipse transform="matrix(0.9587 -0.2845 0.2845 0.9587 -29.2412 75.1751)" opacity="0.5" fill="#FFFFFF" enable-background="new    " cx="244.159" cy="138.246" rx="1.446" ry="1.19"/>
		</g>
		<path fill="#CC924C" stroke="#333333" stroke-width="2.4893" stroke-linecap="round" stroke-miterlimit="10" d="M251.991,174.72
			l4.975-71.78c0.063-1.037,0.958-1.826,1.997-1.761l0,0c1.037,0.064,1.826,0.958,1.762,1.995l-3.981,71.842"/>
		<g>
			
				<path fill="#A1C453" stroke="#333333" stroke-width="0.9957" stroke-linecap="round" stroke-linejoin="round" stroke-miterlimit="10" d="
				M260.422,101.117c0,0-0.942-2.775-1.274-3.272c-0.263-0.399-1.099,2.623-1.201,3.763L260.422,101.117z"/>
			
				<path fill="#A1C453" stroke="#333333" stroke-width="0.9957" stroke-linecap="round" stroke-linejoin="round" stroke-miterlimit="10" d="
				M258.126,100.738l2.799,3.538c0,0,0.94-4.388-0.063-5.974C260.861,98.303,259.4,99.916,258.126,100.738z"/>
			
				<path fill="#A1C453" stroke="#333333" stroke-width="0.9957" stroke-linecap="round" stroke-linejoin="round" stroke-miterlimit="10" d="
				M257.211,106.043c0,0-1.886-5.242-0.038-7.97l2.507,3.518L257.211,106.043z"/>
		</g>
		<g>
			<g>
				<path fill="#D3F46C" d="M273.272,131.651c0.332,2.104-1.666,4.842-3.209,4.412c-1.467,1.007-4.078-1.104-4.41-3.208
					c-0.334-2.105,0.369-4.348,3.409-3.956C271.7,127.635,272.939,129.547,273.272,131.651z"/>
				<g>
					<path fill="none" stroke="#333333" stroke-width="0.9957" stroke-linecap="round" stroke-miterlimit="10" d="M273.305,132.147
						c0,0.216-0.021,0.43-0.06,0.642c-0.169,0.905-0.601,1.76-1.225,2.437c-0.313,0.335-0.682,0.634-1.118,0.787
						c-0.218,0.069-0.45,0.117-0.679,0.075c-0.057-0.006-0.114-0.023-0.17-0.02l-0.152,0.081c-0.098,0.063-0.209,0.093-0.32,0.12
						c-0.929,0.199-1.82-0.339-2.49-0.931c-0.665-0.629-1.215-1.423-1.403-2.331c-0.168-0.896-0.173-1.865,0.211-2.711
						c0.363-0.872,1.281-1.386,2.198-1.428c0.453-0.081,0.938,0.158,1.348-0.13c0.431-0.157,0.888-0.27,1.351-0.238
						c0.461,0.029,0.908,0.218,1.252,0.525l0.24,0.239l0.113,0.145c0.081,0.093,0.145,0.199,0.209,0.303"/>
					
						<line fill="none" stroke="#333333" stroke-width="0.9957" stroke-linecap="round" stroke-miterlimit="10" x1="273.175" y1="131.163" x2="273.158" y2="131.096"/>
				</g>
			</g>
			
				<ellipse transform="matrix(0.4406 -0.8977 0.8977 0.4406 31.5401 313.146)" opacity="0.5" fill="#FFFFFF" enable-background="new    " cx="267.02" cy="131.267" rx="0.882" ry="0.726"/>
		</g>
	</g>
</g>
<g id="calque07">
	<g>
		
			<polygon fill="#CC924C" stroke="#333333" stroke-width="0.9957" stroke-linecap="round" stroke-linejoin="round" stroke-miterlimit="10" points="
			250.737,138.281 254.266,146.234 254.441,143.43 		"/>
		
			<polygon fill="#CC924C" stroke="#333333" stroke-width="0.9957" stroke-linecap="round" stroke-linejoin="round" stroke-miterlimit="10" points="
			251.872,111.086 256.095,116.918 256.27,114.113 		"/>
		
			<polygon fill="#CC924C" stroke="#333333" stroke-width="0.9957" stroke-linecap="round" stroke-linejoin="round" stroke-miterlimit="10" points="
			269.252,129.611 258.376,140.83 258.551,138.027 		"/>
		
			<polygon fill="#CC924C" stroke="#333333" stroke-width="0.9957" stroke-linecap="round" stroke-linejoin="round" stroke-miterlimit="10" points="
			265.611,103.145 260.354,109.113 260.467,107.303 		"/>
		<g>
			
				<path fill="#A1C453" stroke="#333333" stroke-width="1.4936" stroke-linecap="round" stroke-linejoin="round" stroke-miterlimit="10" d="
				M268.807,146.273c-2.666-0.278-3.854-1.914-8.305,1.534c-4.452,3.448-0.083,4.964-3.012,7.233
				c2.929-2.27,3.539,2.304,7.825-1.018C269.604,150.703,268.19,148.877,268.807,146.273z"/>
			<g>
				<line fill="none" x1="257.49" y1="155.041" x2="266.26" y2="148.246"/>
				<g>
					<polyline fill="none" stroke="#333333" stroke-width="0.9957" stroke-linecap="round" stroke-miterlimit="10" points="
						257.884,154.736 258.394,154.341 264.188,149.852 264.63,149.509 					"/>
					
						<line fill="none" stroke="#333333" stroke-width="0.9957" stroke-linecap="round" stroke-miterlimit="10" x1="265.866" y1="148.551" x2="265.811" y2="148.594"/>
				</g>
			</g>
		</g>
		<g>
			
				<path fill="#A1C453" stroke="#333333" stroke-width="1.4936" stroke-linecap="round" stroke-linejoin="round" stroke-miterlimit="10" d="
				M242.665,126.459c-0.438,2.643-2.142,3.732,1.035,8.383c3.175,4.649,4.947,0.378,7.036,3.439
				c-2.089-3.062,2.515-3.396-0.544-7.875C247.135,125.928,245.228,127.229,242.665,126.459z"/>
			<g>
				<line fill="none" x1="250.737" y1="138.281" x2="244.482" y2="129.118"/>
				<g>
					<polyline fill="none" stroke="#333333" stroke-width="0.9957" stroke-linecap="round" stroke-miterlimit="10" points="
						250.457,137.87 250.093,137.337 245.961,131.283 245.645,130.82 					"/>
					
						<line fill="none" stroke="#333333" stroke-width="0.9957" stroke-linecap="round" stroke-miterlimit="10" x1="244.763" y1="129.529" x2="244.803" y2="129.587"/>
				</g>
			</g>
		</g>
		<g>
			
				<path fill="#A1C453" stroke="#333333" stroke-width="1.4936" stroke-linecap="round" stroke-linejoin="round" stroke-miterlimit="10" d="
				M273.352,113.998c-2.598,1.549-4.775,0.873-6.472,6.998c-1.695,6.124,3.279,4.543,2.163,8.572
				c1.116-4.029,4.756-0.307,6.388-6.205C277.064,117.465,274.555,116.77,273.352,113.998z"/>
			<g>
				<line fill="none" x1="269.043" y1="129.568" x2="272.384" y2="117.502"/>
				<g>
					<polyline fill="none" stroke="#333333" stroke-width="0.9957" stroke-linecap="round" stroke-miterlimit="10" points="
						269.176,129.089 269.348,128.467 271.685,120.029 271.834,119.488 					"/>
					
						<line fill="none" stroke="#333333" stroke-width="0.9957" stroke-linecap="round" stroke-miterlimit="10" x1="272.251" y1="117.981" x2="272.232" y2="118.049"/>
				</g>
			</g>
		</g>
		<g>
			
				<path fill="#A1C453" stroke="#333333" stroke-width="1.4936" stroke-linecap="round" stroke-linejoin="round" stroke-miterlimit="10" d="
				M283.135,122.046c-2.932-0.741-3.996-2.761-9.524,0.372c-5.527,3.131-0.894,5.531-4.532,7.59c3.64-2.059,3.583,3.146,8.904,0.131
				C283.309,127.122,282.024,124.855,283.135,122.046z"/>
			<g>
				<line fill="none" x1="269.077" y1="130.008" x2="279.971" y2="123.838"/>
				<g>
					<polyline fill="none" stroke="#333333" stroke-width="0.9957" stroke-linecap="round" stroke-miterlimit="10" points="
						269.511,129.763 270.071,129.444 277.689,125.13 278.177,124.854 					"/>
					
						<line fill="none" stroke="#333333" stroke-width="0.9957" stroke-linecap="round" stroke-miterlimit="10" x1="279.537" y1="124.083" x2="279.477" y2="124.118"/>
				</g>
			</g>
		</g>
		<g>
			
				<path fill="#A1C453" stroke="#333333" stroke-width="1.4936" stroke-linecap="round" stroke-linejoin="round" stroke-miterlimit="10" d="
				M273.445,94.227c-2.392,0.199-3.71-1.041-7.051,2.732c-3.34,3.775,0.754,4.381-1.442,6.863c2.196-2.482,3.495,1.438,6.714-2.197
				C274.882,97.99,273.335,96.621,273.445,94.227z"/>
			<g>
				<line fill="none" x1="264.951" y1="103.822" x2="271.533" y2="96.387"/>
				<g>
					<polyline fill="none" stroke="#333333" stroke-width="0.9957" stroke-linecap="round" stroke-miterlimit="10" points="
						265.281,103.449 265.709,102.967 269.795,98.35 270.167,97.931 					"/>
					
						<line fill="none" stroke="#333333" stroke-width="0.9957" stroke-linecap="round" stroke-miterlimit="10" x1="271.203" y1="96.76" x2="271.157" y2="96.812"/>
				</g>
			</g>
		</g>
		<g>
			
				<path fill="#A1C453" stroke="#333333" stroke-width="0.7966" stroke-linecap="round" stroke-linejoin="round" stroke-miterlimit="10" d="
				M271.444,103.199c-0.843-0.713-0.868-1.547-3.184-1.406c-2.316,0.143-1.18,1.672-2.704,1.766c1.524-0.094,0.67,1.605,2.9,1.469
				C270.688,104.893,270.63,103.943,271.444,103.199z"/>
			<g>
				<line fill="none" x1="265.557" y1="103.559" x2="270.12" y2="103.28"/>
				<g>
					<polyline fill="none" stroke="#333333" stroke-width="0.9957" stroke-linecap="round" stroke-miterlimit="10" points="
						266.054,103.528 266.697,103.489 267.503,103.439 268.063,103.406 					"/>
					
						<line fill="none" stroke="#333333" stroke-width="0.9957" stroke-linecap="round" stroke-miterlimit="10" x1="269.623" y1="103.311" x2="269.554" y2="103.314"/>
				</g>
			</g>
		</g>
		<g>
			
				<path fill="#A1C453" stroke="#333333" stroke-width="0.9957" stroke-linecap="round" stroke-linejoin="round" stroke-miterlimit="10" d="
				M245.107,110.07c0.725,0.984,0.537,1.887,3.067,2.329c2.529,0.442,1.698-1.495,3.362-1.205c-1.664-0.29-0.31-1.9-2.745-2.327
				C246.355,108.441,246.175,109.479,245.107,110.07z"/>
			<g>
				<line fill="none" x1="251.537" y1="111.194" x2="246.554" y2="110.323"/>
				<g>
					<polyline fill="none" stroke="#333333" stroke-width="0.7966" stroke-linecap="round" stroke-miterlimit="10" points="
						251.145,111.126 250.637,111.037 248.62,110.685 248.179,110.607 					"/>
					
						<line fill="none" stroke="#333333" stroke-width="0.7966" stroke-linecap="round" stroke-miterlimit="10" x1="246.946" y1="110.392" x2="247.001" y2="110.401"/>
				</g>
			</g>
		</g>
		<g>
			
				<path fill="#A1C453" stroke="#333333" stroke-width="1.4936" stroke-linecap="round" stroke-linejoin="round" stroke-miterlimit="10" d="
				M242.587,97.865c-0.455,2.991-2.36,4.244,1.292,9.444c3.652,5.2,5.59,0.354,7.993,3.776c-2.403-3.422,2.785-3.869-0.732-8.876
				C247.622,97.201,245.49,98.699,242.587,97.865z"/>
			<g>
				<line fill="none" x1="251.872" y1="111.086" x2="244.678" y2="100.841"/>
				<g>
					<polyline fill="none" stroke="#333333" stroke-width="0.9957" stroke-linecap="round" stroke-miterlimit="10" points="
						251.586,110.679 251.215,110.15 246.185,102.986 245.862,102.527 					"/>
					
						<line fill="none" stroke="#333333" stroke-width="0.9957" stroke-linecap="round" stroke-miterlimit="10" x1="244.964" y1="101.248" x2="245.004" y2="101.306"/>
				</g>
			</g>
		</g>
		<g>
			
				<path fill="#A1C453" stroke="#333333" stroke-width="1.4936" stroke-linecap="round" stroke-linejoin="round" stroke-miterlimit="10" d="
				M240.861,117.879c2.311,0.564,3.157,2.145,7.48-0.35c4.325-2.494,0.668-4.35,3.516-5.99c-2.848,1.641-2.832-2.451-6.997-0.049
				C240.695,113.892,241.717,115.666,240.861,117.879z"/>
			<g>
				<line fill="none" x1="251.857" y1="111.539" x2="243.337" y2="116.451"/>
				<g>
					<polyline fill="none" stroke="#333333" stroke-width="0.9957" stroke-linecap="round" stroke-miterlimit="10" points="
						251.426,111.788 250.867,112.109 245.608,115.142 245.123,115.422 					"/>
					
						<line fill="none" stroke="#333333" stroke-width="0.9957" stroke-linecap="round" stroke-miterlimit="10" x1="243.769" y1="116.202" x2="243.829" y2="116.168"/>
				</g>
			</g>
		</g>
		<g>
			<g>
				<path fill="#EF4529" d="M250.64,146.227c-2.167,2.74-7.687,3.373-8.881,1.038c-2.846-0.649-3.203-6.142-1.037-8.882
					c2.166-2.737,5.649-4.382,8.557-0.284C253.73,139.873,252.805,143.49,250.64,146.227z"/>
				<g>
					<path fill="none" stroke="#333333" stroke-width="1.4936" stroke-linecap="round" stroke-miterlimit="10" d="M250.13,146.771
						c-0.243,0.212-0.484,0.427-0.76,0.597c-1.273,0.854-2.81,1.295-4.336,1.326c-0.764,0.007-1.548-0.096-2.233-0.445
						c-0.332-0.187-0.657-0.41-0.87-0.731l-0.161-0.237c-0.076-0.051-0.178-0.068-0.265-0.104c-0.188-0.05-0.354-0.142-0.513-0.252
						c-0.647-0.42-1.063-1.115-1.311-1.833c-0.249-0.726-0.35-1.494-0.354-2.26c0.021-1.521,0.394-3.089,1.311-4.329
						c0.928-1.2,2.128-2.283,3.613-2.716c0.735-0.21,1.535-0.206,2.263,0.041c0.735,0.233,1.366,0.71,1.901,1.251
						c0.279,0.264,0.511,0.57,0.746,0.873c0.094,0.183,0.301,0.22,0.468,0.309c0.172,0.085,0.354,0.148,0.517,0.25
						c0.676,0.361,1.286,0.86,1.713,1.497c0.43,0.636,0.617,1.418,0.569,2.181c0.006,0.188-0.046,0.393-0.067,0.559
						c-0.015,0.091-0.024,0.183-0.054,0.271c-0.051,0.178-0.091,0.358-0.15,0.532"/>
					
						<line fill="none" stroke="#333333" stroke-width="1.4936" stroke-linecap="round" stroke-miterlimit="10" x1="251.082" y1="145.625" x2="251.14" y2="145.537"/>
				</g>
			</g>
			
				<ellipse transform="matrix(0.9587 -0.2845 0.2845 0.9587 -29.2412 75.1751)" opacity="0.5" fill="#FFFFFF" enable-background="new    " cx="244.159" cy="138.246" rx="1.446" ry="1.19"/>
		</g>
		<g>
			<g>
				<path fill="#D3F46C" d="M276.691,133.706c0.688,3.423-2.4,8.042-4.954,7.442c-2.336,1.75-6.754-1.531-7.441-4.955
					c-0.687-3.422,0.312-7.143,5.316-6.709C273.847,127.238,276.005,130.283,276.691,133.706z"/>
				<g>
					<path fill="none" stroke="#333333" stroke-width="1.4936" stroke-linecap="round" stroke-miterlimit="10" d="M276.777,134.447
						c0.004,0.322,0.013,0.646-0.036,0.966c-0.174,1.523-0.83,2.979-1.796,4.164c-0.486,0.585-1.072,1.116-1.783,1.414
						c-0.357,0.132-0.738,0.235-1.121,0.19l-0.285-0.031c-0.087,0.026-0.167,0.091-0.25,0.135c-0.159,0.11-0.338,0.179-0.524,0.228
						c-0.737,0.222-1.537,0.089-2.245-0.188c-0.713-0.279-1.364-0.701-1.95-1.192c-1.146-1.001-2.101-2.3-2.452-3.801
						c-0.314-1.484-0.363-3.1,0.267-4.512c0.316-0.697,0.837-1.304,1.495-1.699c0.654-0.408,1.426-0.582,2.185-0.639
						c0.383-0.045,0.766-0.021,1.147-0.005c0.2,0.047,0.362-0.089,0.538-0.158c0.176-0.075,0.343-0.174,0.525-0.231
						c0.712-0.28,1.487-0.423,2.248-0.337c0.764,0.085,1.48,0.447,2.031,0.978c0.146,0.117,0.271,0.289,0.383,0.412
						c0.061,0.07,0.122,0.138,0.172,0.217c0.103,0.153,0.215,0.301,0.308,0.459"/>
					
						<line fill="none" stroke="#333333" stroke-width="1.4936" stroke-linecap="round" stroke-miterlimit="10" x1="276.519" y1="132.979" x2="276.489" y2="132.879"/>
				</g>
			</g>
			
				<ellipse transform="matrix(0.4028 -0.9153 0.9153 0.4028 36.9246 323.5554)" opacity="0.5" fill="#FFFFFF" enable-background="new    " cx="266.422" cy="133.48" rx="1.446" ry="1.19"/>
		</g>
		<path fill="#CC924C" stroke="#333333" stroke-width="2.4893" stroke-linecap="round" stroke-miterlimit="10" d="M251.99,174.72
			l5.608-81.941c0.064-1.038,0.958-1.827,1.997-1.763l0,0c1.037,0.065,1.826,0.959,1.762,1.997l-4.615,82.003"/>
		<g>
			
				<path fill="#A1C453" stroke="#333333" stroke-width="0.9957" stroke-linecap="round" stroke-linejoin="round" stroke-miterlimit="10" d="
				M261.056,90.957c0,0-0.942-2.775-1.273-3.273c-0.264-0.4-1.1,2.623-1.201,3.762L261.056,90.957z"/>
			
				<path fill="#A1C453" stroke="#333333" stroke-width="0.9957" stroke-linecap="round" stroke-linejoin="round" stroke-miterlimit="10" d="
				M258.76,90.576l2.799,3.538c0,0,0.94-4.388-0.063-5.974C261.495,88.141,260.034,89.754,258.76,90.576z"/>
			
				<path fill="#A1C453" stroke="#333333" stroke-width="0.9957" stroke-linecap="round" stroke-linejoin="round" stroke-miterlimit="10" d="
				M257.845,95.882c0,0-1.886-5.243-0.038-7.971l2.506,3.517L257.845,95.882z"/>
		</g>
	</g>
</g>
<g id="calque08">
	<g>
		
			<polygon fill="#CC924C" stroke="#333333" stroke-width="0.9957" stroke-linecap="round" stroke-linejoin="round" stroke-miterlimit="10" points="
			250.737,138.281 254.266,146.234 254.441,143.43 		"/>
		
			<polygon fill="#CC924C" stroke="#333333" stroke-width="0.9957" stroke-linecap="round" stroke-linejoin="round" stroke-miterlimit="10" points="
			251.872,111.086 256.095,116.918 256.27,114.113 		"/>
		
			<polygon fill="#CC924C" stroke="#333333" stroke-width="0.9957" stroke-linecap="round" stroke-linejoin="round" stroke-miterlimit="10" points="
			269.252,129.611 258.376,140.83 258.551,138.027 		"/>
		
			<polygon fill="#CC924C" stroke="#333333" stroke-width="0.9957" stroke-linecap="round" stroke-linejoin="round" stroke-miterlimit="10" points="
			265.611,103.145 260.354,109.113 260.467,107.303 		"/>
		<g>
			
				<path fill="#A1C453" stroke="#333333" stroke-width="1.4936" stroke-linecap="round" stroke-linejoin="round" stroke-miterlimit="10" d="
				M268.807,146.273c-2.666-0.278-3.854-1.914-8.305,1.534c-4.452,3.448-0.083,4.964-3.012,7.233
				c2.929-2.27,3.539,2.304,7.825-1.018C269.604,150.703,268.189,148.877,268.807,146.273z"/>
			<g>
				<line fill="none" x1="257.49" y1="155.041" x2="266.26" y2="148.246"/>
				<g>
					<polyline fill="none" stroke="#333333" stroke-width="0.9957" stroke-linecap="round" stroke-miterlimit="10" points="
						257.884,154.736 258.394,154.341 264.188,149.852 264.63,149.509 					"/>
					
						<line fill="none" stroke="#333333" stroke-width="0.9957" stroke-linecap="round" stroke-miterlimit="10" x1="265.866" y1="148.551" x2="265.811" y2="148.594"/>
				</g>
			</g>
		</g>
		<g>
			
				<path fill="#A1C453" stroke="#333333" stroke-width="1.4936" stroke-linecap="round" stroke-linejoin="round" stroke-miterlimit="10" d="
				M242.665,126.459c-0.438,2.643-2.142,3.732,1.035,8.383c3.175,4.649,4.947,0.378,7.036,3.439
				c-2.089-3.062,2.515-3.396-0.544-7.875C247.135,125.928,245.228,127.229,242.665,126.459z"/>
			<g>
				<line fill="none" x1="250.737" y1="138.281" x2="244.482" y2="129.118"/>
				<g>
					<polyline fill="none" stroke="#333333" stroke-width="0.9957" stroke-linecap="round" stroke-miterlimit="10" points="
						250.457,137.87 250.093,137.337 245.961,131.283 245.645,130.82 					"/>
					
						<line fill="none" stroke="#333333" stroke-width="0.9957" stroke-linecap="round" stroke-miterlimit="10" x1="244.763" y1="129.529" x2="244.803" y2="129.587"/>
				</g>
			</g>
		</g>
		<g>
			
				<path fill="#A1C453" stroke="#333333" stroke-width="1.4936" stroke-linecap="round" stroke-linejoin="round" stroke-miterlimit="10" d="
				M273.352,113.998c-2.598,1.549-4.775,0.873-6.472,6.998c-1.695,6.124,3.279,4.543,2.163,8.572
				c1.116-4.029,4.756-0.307,6.388-6.205C277.064,117.465,274.555,116.77,273.352,113.998z"/>
			<g>
				<line fill="none" x1="269.043" y1="129.568" x2="272.384" y2="117.502"/>
				<g>
					<polyline fill="none" stroke="#333333" stroke-width="0.9957" stroke-linecap="round" stroke-miterlimit="10" points="
						269.176,129.089 269.348,128.467 271.685,120.029 271.834,119.488 					"/>
					
						<line fill="none" stroke="#333333" stroke-width="0.9957" stroke-linecap="round" stroke-miterlimit="10" x1="272.251" y1="117.981" x2="272.232" y2="118.049"/>
				</g>
			</g>
		</g>
		<g>
			
				<path fill="#A1C453" stroke="#333333" stroke-width="1.4936" stroke-linecap="round" stroke-linejoin="round" stroke-miterlimit="10" d="
				M283.135,122.046c-2.933-0.741-3.996-2.761-9.524,0.372c-5.527,3.131-0.894,5.531-4.532,7.59c3.64-2.059,3.583,3.146,8.904,0.131
				C283.309,127.122,282.024,124.855,283.135,122.046z"/>
			<g>
				<line fill="none" x1="269.077" y1="130.008" x2="279.971" y2="123.838"/>
				<g>
					<polyline fill="none" stroke="#333333" stroke-width="0.9957" stroke-linecap="round" stroke-miterlimit="10" points="
						269.511,129.763 270.071,129.444 277.689,125.13 278.177,124.854 					"/>
					
						<line fill="none" stroke="#333333" stroke-width="0.9957" stroke-linecap="round" stroke-miterlimit="10" x1="279.537" y1="124.083" x2="279.477" y2="124.118"/>
				</g>
			</g>
		</g>
		<g>
			
				<path fill="#A1C453" stroke="#333333" stroke-width="1.4936" stroke-linecap="round" stroke-linejoin="round" stroke-miterlimit="10" d="
				M273.562,94.202c-2.392,0.2-3.709-1.042-7.05,2.731c-3.341,3.775,0.755,4.381-1.443,6.863c2.198-2.482,3.495,1.438,6.715-2.197
				C275,97.965,273.452,96.595,273.562,94.202z"/>
			<g>
				<line fill="none" x1="265.068" y1="103.797" x2="271.649" y2="96.361"/>
				<g>
					<polyline fill="none" stroke="#333333" stroke-width="0.9957" stroke-linecap="round" stroke-miterlimit="10" points="
						265.398,103.424 265.826,102.941 269.912,98.324 270.283,97.905 					"/>
					
						<line fill="none" stroke="#333333" stroke-width="0.9957" stroke-linecap="round" stroke-miterlimit="10" x1="271.319" y1="96.734" x2="271.273" y2="96.787"/>
				</g>
			</g>
		</g>
		<g>
			
				<path fill="#A1C453" stroke="#333333" stroke-width="1.4936" stroke-linecap="round" stroke-linejoin="round" stroke-miterlimit="10" d="
				M278.18,103.033c-1.831-1.55-1.885-3.358-6.916-3.052s-2.563,3.63-5.874,3.831c3.312-0.201,1.456,3.488,6.302,3.193
				C276.536,106.711,276.412,104.648,278.18,103.033z"/>
			<g>
				<line fill="none" x1="265.39" y1="103.813" x2="275.302" y2="103.209"/>
				<g>
					<polyline fill="none" stroke="#333333" stroke-width="0.9957" stroke-linecap="round" stroke-miterlimit="10" points="
						265.887,103.782 266.53,103.743 272.685,103.368 273.244,103.334 					"/>
					
						<line fill="none" stroke="#333333" stroke-width="0.9957" stroke-linecap="round" stroke-miterlimit="10" x1="274.805" y1="103.239" x2="274.735" y2="103.243"/>
				</g>
			</g>
		</g>
		<g>
			
				<path fill="#A1C453" stroke="#333333" stroke-width="1.4936" stroke-linecap="round" stroke-linejoin="round" stroke-miterlimit="10" d="
				M235.524,108.381c1.793,2.436,1.331,4.67,7.589,5.766c6.262,1.094,4.205-3.704,8.323-2.982c-4.118-0.722-0.766-4.705-6.793-5.76
				C238.613,104.351,238.165,106.917,235.524,108.381z"/>
			<g>
				<line fill="none" x1="251.437" y1="111.164" x2="239.105" y2="109.007"/>
				<g>
					<polyline fill="none" stroke="#333333" stroke-width="0.9957" stroke-linecap="round" stroke-miterlimit="10" points="
						250.946,111.078 250.311,110.967 241.688,109.459 241.136,109.362 					"/>
					
						<line fill="none" stroke="#333333" stroke-width="0.9957" stroke-linecap="round" stroke-miterlimit="10" x1="239.596" y1="109.093" x2="239.665" y2="109.104"/>
				</g>
			</g>
		</g>
		<g>
			
				<path fill="#A1C453" stroke="#333333" stroke-width="1.4936" stroke-linecap="round" stroke-linejoin="round" stroke-miterlimit="10" d="
				M242.587,97.865c-0.455,2.991-2.36,4.244,1.292,9.444c3.652,5.2,5.59,0.354,7.993,3.776c-2.403-3.422,2.785-3.869-0.732-8.876
				C247.622,97.201,245.49,98.699,242.587,97.865z"/>
			<g>
				<line fill="none" x1="251.872" y1="111.086" x2="244.678" y2="100.841"/>
				<g>
					<polyline fill="none" stroke="#333333" stroke-width="0.9957" stroke-linecap="round" stroke-miterlimit="10" points="
						251.586,110.679 251.215,110.15 246.185,102.986 245.862,102.527 					"/>
					
						<line fill="none" stroke="#333333" stroke-width="0.9957" stroke-linecap="round" stroke-miterlimit="10" x1="244.964" y1="101.248" x2="245.004" y2="101.306"/>
				</g>
			</g>
		</g>
		<g>
			
				<path fill="#A1C453" stroke="#333333" stroke-width="1.4936" stroke-linecap="round" stroke-linejoin="round" stroke-miterlimit="10" d="
				M240.861,117.879c2.311,0.564,3.157,2.145,7.48-0.35c4.325-2.494,0.668-4.35,3.516-5.99c-2.848,1.641-2.832-2.451-6.997-0.049
				C240.694,113.893,241.717,115.666,240.861,117.879z"/>
			<g>
				<line fill="none" x1="251.857" y1="111.539" x2="243.337" y2="116.451"/>
				<g>
					<polyline fill="none" stroke="#333333" stroke-width="0.9957" stroke-linecap="round" stroke-miterlimit="10" points="
						251.426,111.788 250.867,112.109 245.608,115.142 245.123,115.422 					"/>
					
						<line fill="none" stroke="#333333" stroke-width="0.9957" stroke-linecap="round" stroke-miterlimit="10" x1="243.769" y1="116.202" x2="243.829" y2="116.168"/>
				</g>
			</g>
		</g>
		<g>
			<g>
				<path fill="#EF4529" d="M250.64,146.227c-2.167,2.74-7.687,3.373-8.881,1.038c-2.846-0.649-3.203-6.142-1.037-8.882
					c2.166-2.737,5.649-4.382,8.557-0.284C253.73,139.873,252.805,143.49,250.64,146.227z"/>
				<g>
					<path fill="none" stroke="#333333" stroke-width="1.4936" stroke-linecap="round" stroke-miterlimit="10" d="M250.13,146.771
						c-0.243,0.212-0.484,0.427-0.76,0.597c-1.273,0.854-2.81,1.295-4.336,1.326c-0.764,0.007-1.548-0.096-2.233-0.445
						c-0.332-0.187-0.657-0.41-0.87-0.731l-0.161-0.237c-0.076-0.051-0.178-0.068-0.265-0.104c-0.188-0.05-0.354-0.142-0.513-0.252
						c-0.647-0.42-1.063-1.115-1.311-1.833c-0.249-0.726-0.35-1.494-0.354-2.26c0.021-1.521,0.394-3.089,1.311-4.329
						c0.928-1.2,2.128-2.283,3.613-2.716c0.735-0.21,1.535-0.206,2.263,0.041c0.735,0.233,1.366,0.71,1.901,1.251
						c0.279,0.264,0.511,0.57,0.746,0.873c0.094,0.183,0.301,0.22,0.468,0.309c0.172,0.085,0.354,0.148,0.517,0.25
						c0.676,0.361,1.286,0.86,1.713,1.497c0.43,0.636,0.617,1.418,0.569,2.181c0.006,0.188-0.046,0.393-0.067,0.559
						c-0.015,0.091-0.024,0.183-0.054,0.271c-0.051,0.178-0.091,0.358-0.15,0.532"/>
					
						<line fill="none" stroke="#333333" stroke-width="1.4936" stroke-linecap="round" stroke-miterlimit="10" x1="251.082" y1="145.625" x2="251.14" y2="145.537"/>
				</g>
			</g>
			
				<ellipse transform="matrix(0.9587 -0.2845 0.2845 0.9587 -29.2412 75.1751)" opacity="0.5" fill="#FFFFFF" enable-background="new    " cx="244.159" cy="138.246" rx="1.446" ry="1.19"/>
		</g>
		<g>
			<g>
				<path fill="#EF4529" d="M276.691,133.706c0.688,3.423-2.4,8.042-4.954,7.442c-2.336,1.75-6.754-1.531-7.441-4.955
					c-0.687-3.422,0.312-7.143,5.316-6.709C273.847,127.238,276.005,130.283,276.691,133.706z"/>
				<g>
					<path fill="none" stroke="#333333" stroke-width="1.4936" stroke-linecap="round" stroke-miterlimit="10" d="M276.777,134.447
						c0.004,0.322,0.013,0.646-0.036,0.966c-0.174,1.523-0.83,2.979-1.796,4.164c-0.486,0.585-1.072,1.116-1.783,1.414
						c-0.357,0.132-0.738,0.235-1.121,0.19l-0.285-0.031c-0.087,0.026-0.167,0.091-0.25,0.135c-0.159,0.11-0.338,0.179-0.524,0.228
						c-0.737,0.222-1.537,0.089-2.245-0.188c-0.713-0.279-1.364-0.701-1.95-1.192c-1.146-1.001-2.101-2.3-2.452-3.801
						c-0.314-1.484-0.363-3.1,0.267-4.512c0.316-0.697,0.837-1.304,1.495-1.699c0.654-0.408,1.426-0.582,2.185-0.639
						c0.383-0.045,0.766-0.021,1.147-0.005c0.2,0.047,0.362-0.089,0.538-0.158c0.176-0.075,0.343-0.174,0.525-0.231
						c0.712-0.28,1.487-0.423,2.248-0.337c0.764,0.085,1.48,0.447,2.031,0.978c0.146,0.117,0.271,0.289,0.383,0.412
						c0.061,0.07,0.122,0.138,0.172,0.217c0.103,0.153,0.215,0.301,0.308,0.459"/>
					
						<line fill="none" stroke="#333333" stroke-width="1.4936" stroke-linecap="round" stroke-miterlimit="10" x1="276.519" y1="132.979" x2="276.489" y2="132.879"/>
				</g>
			</g>
			
				<ellipse transform="matrix(0.4033 -0.9151 0.9151 0.4033 36.8228 323.4434)" opacity="0.5" fill="#FFFFFF" enable-background="new    " cx="266.406" cy="133.489" rx="1.446" ry="1.189"/>
		</g>
		<path fill="#CC924C" stroke="#333333" stroke-width="2.4893" stroke-linecap="round" stroke-miterlimit="10" d="M251.99,174.72
			l5.608-81.941c0.064-1.038,0.958-1.827,1.997-1.763l0,0c1.037,0.065,1.826,0.959,1.762,1.997l-4.615,82.003"/>
		<g>
			
				<path fill="#A1C453" stroke="#333333" stroke-width="0.9957" stroke-linecap="round" stroke-linejoin="round" stroke-miterlimit="10" d="
				M261.056,90.957c0,0-0.942-2.775-1.273-3.273c-0.264-0.4-1.1,2.623-1.201,3.762L261.056,90.957z"/>
			
				<path fill="#A1C453" stroke="#333333" stroke-width="0.9957" stroke-linecap="round" stroke-linejoin="round" stroke-miterlimit="10" d="
				M258.76,90.576l2.799,3.538c0,0,0.94-4.388-0.063-5.974C261.495,88.141,260.034,89.754,258.76,90.576z"/>
			
				<path fill="#A1C453" stroke="#333333" stroke-width="0.9957" stroke-linecap="round" stroke-linejoin="round" stroke-miterlimit="10" d="
				M257.845,95.882c0,0-1.886-5.243-0.038-7.971l2.506,3.517L257.845,95.882z"/>
		</g>
	</g>
</g>
</svg>
