<?xml version="1.0" encoding="utf-8"?>
<!-- Generator: Adobe Illustrator 16.0.0, SVG Export Plug-In . SVG Version: 6.00 Build 0)  -->
<!DOCTYPE svg PUBLIC "-//W3C//DTD SVG 1.1//EN" "http://www.w3.org/Graphics/SVG/1.1/DTD/svg11.dtd">
<svg version="1.1" id="Calque_1" xmlns="http://www.w3.org/2000/svg" xmlns:xlink="http://www.w3.org/1999/xlink" x="0px" y="0px"
	 width="320px" height="410px" viewBox="0 0 320 410" enable-background="new 0 0 320 410" xml:space="preserve">
<g id="calque01">
	<g>
		<path fill="#CC924C" stroke="#333333" stroke-width="2.4893" stroke-linecap="round" stroke-miterlimit="10" d="M221.697,175.94
			l-1.606-8.677c-0.246-1.009,0.373-2.027,1.38-2.275l0,0c1.011-0.247,2.031,0.373,2.276,1.382l2.578,8.439"/>
		<g>
			
				<path fill="#A1C453" stroke="#333333" stroke-width="0.9957" stroke-linecap="round" stroke-linejoin="round" stroke-miterlimit="10" d="
				M222.846,164.497c0,0-1.724-2.369-2.188-2.747c-0.371-0.301-0.269,2.834-0.029,3.952L222.846,164.497z"/>
			
				<path fill="#A1C453" stroke="#333333" stroke-width="0.9957" stroke-linecap="round" stroke-linejoin="round" stroke-miterlimit="10" d="
				M220.541,164.819l3.725,2.543c0,0-0.404-4.467-1.834-5.683C222.432,161.68,221.514,163.653,220.541,164.819z"/>
			
				<path fill="#A1C453" stroke="#333333" stroke-width="0.9957" stroke-linecap="round" stroke-linejoin="round" stroke-miterlimit="10" d="
				M221.246,170.156c0,0-3.361-4.445-2.405-7.599l3.437,2.612L221.246,170.156z"/>
		</g>
	</g>
</g>
<g id="calque02">
	<g>
		<g>
			
				<path fill="#A1C453" stroke="#333333" stroke-width="0.9957" stroke-linecap="round" stroke-linejoin="round" stroke-miterlimit="10" d="
				M225.033,149.614c-1.205,0.24-1.947-0.313-3.427,1.804c-1.481,2.118,0.642,2.187-0.334,3.58c0.976-1.394,1.865,0.524,3.29-1.515
				C225.986,151.445,225.119,150.84,225.033,149.614z"/>
			<g>
				<line fill="none" x1="221.273" y1="154.998" x2="224.188" y2="150.825"/>
				<g>
					<polyline fill="none" stroke="#333333" stroke-width="0.9957" stroke-linecap="round" stroke-miterlimit="10" points="
						221.559,154.59 221.928,154.061 222.687,152.975 223.007,152.516 					"/>
					
						<line fill="none" stroke="#333333" stroke-width="0.9957" stroke-linecap="round" stroke-miterlimit="10" x1="223.902" y1="151.233" x2="223.862" y2="151.291"/>
				</g>
			</g>
		</g>
		<path fill="#CC924C" stroke="#333333" stroke-width="2.4893" stroke-linecap="round" stroke-miterlimit="10" d="M221.697,175.94
			l-6.02-26.719c-0.246-1.009,0.37-2.028,1.381-2.275l0,0c1.01-0.246,2.031,0.373,2.277,1.381l6.987,26.482"/>
		<g>
			
				<path fill="#A1C453" stroke="#333333" stroke-width="0.9957" stroke-linecap="round" stroke-linejoin="round" stroke-miterlimit="10" d="
				M218.436,146.456c0,0-1.729-2.371-2.19-2.748c-0.369-0.303-0.27,2.831-0.027,3.951L218.436,146.456z"/>
			
				<path fill="#A1C453" stroke="#333333" stroke-width="0.9957" stroke-linecap="round" stroke-linejoin="round" stroke-miterlimit="10" d="
				M216.128,146.776l3.727,2.544c0,0-0.406-4.468-1.837-5.686C218.018,143.635,217.102,145.612,216.128,146.776z"/>
			
				<path fill="#A1C453" stroke="#333333" stroke-width="0.9957" stroke-linecap="round" stroke-linejoin="round" stroke-miterlimit="10" d="
				M216.835,152.112c0,0-3.362-4.444-2.407-7.599l3.438,2.612L216.835,152.112z"/>
		</g>
	</g>
</g>
<g id="calque03">
	<g>
		<g>
			
				<path fill="#A1C453" stroke="#333333" stroke-width="1.4936" stroke-linecap="round" stroke-linejoin="round" stroke-miterlimit="10" d="
				M233.017,147.786c-2.673-0.217-3.899-1.822-8.269,1.729c-4.368,3.554,0.037,4.965-2.838,7.303
				c2.875-2.338,3.592,2.22,7.799-1.202C233.917,152.195,232.46,150.405,233.017,147.786z"/>
			<g>
				<line fill="none" x1="221.91" y1="156.818" x2="230.518" y2="149.818"/>
				<g>
					<polyline fill="none" stroke="#333333" stroke-width="0.9957" stroke-linecap="round" stroke-miterlimit="10" points="
						222.297,156.504 222.797,156.098 228.483,151.473 228.918,151.119 					"/>
					
						<line fill="none" stroke="#333333" stroke-width="0.9957" stroke-linecap="round" stroke-miterlimit="10" x1="230.131" y1="150.133" x2="230.077" y2="150.177"/>
				</g>
			</g>
		</g>
		<g>
			
				<path fill="#A1C453" stroke="#333333" stroke-width="0.9957" stroke-linecap="round" stroke-linejoin="round" stroke-miterlimit="10" d="
				M210.43,148.329c0.258,1.18-0.277,1.92,1.826,3.336c2.102,1.418,2.134-0.665,3.519,0.268c-1.385-0.933,0.486-1.838-1.538-3.203
				C212.213,147.364,211.629,148.226,210.43,148.329z"/>
			<g>
				<line fill="none" x1="215.774" y1="151.933" x2="212.076" y2="149.478"/>
				<g>
					<polyline fill="none" stroke="#333333" stroke-width="0.9957" stroke-linecap="round" stroke-miterlimit="10" points="
						215.359,151.657 214.822,151.301 214.261,150.928 213.794,150.617 					"/>
					
						<line fill="none" stroke="#333333" stroke-width="0.9957" stroke-linecap="round" stroke-miterlimit="10" x1="212.491" y1="149.753" x2="212.549" y2="149.792"/>
				</g>
			</g>
		</g>
		<path fill="#CC924C" stroke="#333333" stroke-width="2.4893" stroke-linecap="round" stroke-miterlimit="10" d="M221.697,175.94
			l-8.052-35.029c-0.247-1.011,0.37-2.03,1.383-2.277l0,0c1.01-0.247,2.027,0.372,2.274,1.383l9.021,34.793"/>
		<g>
			
				<path fill="#A1C453" stroke="#333333" stroke-width="0.9957" stroke-linecap="round" stroke-linejoin="round" stroke-miterlimit="10" d="
				M216.403,138.144c0,0-1.726-2.371-2.19-2.746c-0.37-0.304-0.27,2.829-0.028,3.948L216.403,138.144z"/>
			
				<path fill="#A1C453" stroke="#333333" stroke-width="0.9957" stroke-linecap="round" stroke-linejoin="round" stroke-miterlimit="10" d="
				M214.098,138.464l3.726,2.546c0,0-0.404-4.47-1.837-5.688C215.986,135.323,215.068,137.298,214.098,138.464z"/>
			
				<path fill="#A1C453" stroke="#333333" stroke-width="0.9957" stroke-linecap="round" stroke-linejoin="round" stroke-miterlimit="10" d="
				M214.803,143.802c0,0-3.362-4.446-2.408-7.6l3.439,2.614L214.803,143.802z"/>
		</g>
	</g>
</g>
<g id="calque04">
	<g>
		
			<polygon fill="#CC924C" stroke="#333333" stroke-width="0.9957" stroke-linecap="round" stroke-linejoin="round" stroke-miterlimit="10" points="
			210.467,150.138 216.52,154.358 216.088,152.596 		"/>
		<g>
			
				<path fill="#A1C453" stroke="#333333" stroke-width="1.4936" stroke-linecap="round" stroke-linejoin="round" stroke-miterlimit="10" d="
				M232.869,148.063c-2.67-0.257-3.869-1.884-8.295,1.598c-4.425,3.481-0.046,4.963-2.955,7.256
				c2.909-2.293,3.555,2.277,7.817-1.077C233.699,152.485,232.27,150.673,232.869,148.063z"/>
			<g>
				<line fill="none" x1="221.619" y1="156.917" x2="230.336" y2="150.057"/>
				<g>
					<polyline fill="none" stroke="#333333" stroke-width="0.9957" stroke-linecap="round" stroke-miterlimit="10" points="
						222.011,156.609 222.518,156.21 228.275,151.678 228.716,151.332 					"/>
					
						<line fill="none" stroke="#333333" stroke-width="0.9957" stroke-linecap="round" stroke-miterlimit="10" x1="229.944" y1="150.364" x2="229.89" y2="150.408"/>
				</g>
			</g>
		</g>
		<g>
			
				<path fill="#A1C453" stroke="#333333" stroke-width="0.9957" stroke-linecap="round" stroke-linejoin="round" stroke-miterlimit="10" d="
				M224.039,127.61c-1.902,0.103-2.92-0.911-5.658,2.008c-2.74,2.92,0.498,3.494-1.303,5.416c1.801-1.922,2.743,1.222,5.381-1.59
				C225.096,130.631,223.898,129.507,224.039,127.61z"/>
			<g>
				<line fill="none" x1="217.078" y1="135.034" x2="222.475" y2="129.281"/>
				<g>
					<polyline fill="none" stroke="#333333" stroke-width="0.9957" stroke-linecap="round" stroke-miterlimit="10" points="
						217.419,134.671 217.86,134.2 220.681,131.193 221.064,130.785 					"/>
					
						<line fill="none" stroke="#333333" stroke-width="0.9957" stroke-linecap="round" stroke-miterlimit="10" x1="222.134" y1="129.645" x2="222.086" y2="129.695"/>
				</g>
			</g>
		</g>
		<g>
			
				<path fill="#A1C453" stroke="#333333" stroke-width="1.4936" stroke-linecap="round" stroke-linejoin="round" stroke-miterlimit="10" d="
				M200.895,142.368c2.388-0.227,3.466-1.681,7.422,1.446c3.953,3.123,0.031,4.444,2.634,6.499
				c-2.603-2.055-3.188,2.031-6.996-0.978C200.143,146.327,201.423,144.705,200.895,142.368z"/>
			<g>
				<line fill="none" x1="210.949" y1="150.313" x2="203.157" y2="144.157"/>
				<g>
					<polyline fill="none" stroke="#333333" stroke-width="0.9957" stroke-linecap="round" stroke-miterlimit="10" points="
						210.559,150.005 210.053,149.605 205.215,145.783 204.774,145.436 					"/>
					
						<line fill="none" stroke="#333333" stroke-width="0.9957" stroke-linecap="round" stroke-miterlimit="10" x1="203.548" y1="144.466" x2="203.603" y2="144.51"/>
				</g>
			</g>
		</g>
		<g>
			
				<path fill="#A1C453" stroke="#333333" stroke-width="0.9957" stroke-linecap="round" stroke-linejoin="round" stroke-miterlimit="10" d="
				M203.141,151.361c0.899-1.089,0.744-2.146,3.693-2.491c2.953-0.344,1.867,1.84,3.809,1.613c-1.94,0.227-0.481,2.175-3.324,2.507
				C204.479,153.323,204.336,152.115,203.141,151.361z"/>
			<g>
				<line fill="none" x1="210.643" y1="150.483" x2="204.829" y2="151.165"/>
				<g>
					<polyline fill="none" stroke="#333333" stroke-width="0.9957" stroke-linecap="round" stroke-miterlimit="10" points="
						210.148,150.541 209.508,150.616 207.434,150.859 206.877,150.925 					"/>
					
						<line fill="none" stroke="#333333" stroke-width="0.9957" stroke-linecap="round" stroke-miterlimit="10" x1="205.323" y1="151.107" x2="205.393" y2="151.099"/>
				</g>
			</g>
		</g>
		<path fill="#CC924C" stroke="#333333" stroke-width="2.6551" stroke-linecap="round" stroke-miterlimit="10" d="M221.697,175.94
			l-10.155-43.637c-0.248-1.011,0.371-2.029,1.383-2.274l0,0c1.009-0.248,2.027,0.37,2.275,1.381l11.125,43.399"/>
		<g>
			
				<path fill="#A1C453" stroke="#333333" stroke-width="0.9957" stroke-linecap="round" stroke-linejoin="round" stroke-miterlimit="10" d="
				M214.299,129.536c0,0-1.728-2.37-2.191-2.745c-0.371-0.305-0.268,2.83-0.027,3.949L214.299,129.536z"/>
			
				<path fill="#A1C453" stroke="#333333" stroke-width="0.9957" stroke-linecap="round" stroke-linejoin="round" stroke-miterlimit="10" d="
				M211.994,129.857l3.723,2.546c0,0-0.404-4.47-1.836-5.686C213.881,126.718,212.965,128.694,211.994,129.857z"/>
			
				<path fill="#A1C453" stroke="#333333" stroke-width="0.9957" stroke-linecap="round" stroke-linejoin="round" stroke-miterlimit="10" d="
				M212.697,135.193c0,0-3.359-4.445-2.405-7.597l3.438,2.611L212.697,135.193z"/>
		</g>
	</g>
</g>
<g id="calque05">
	<g>
		
			<polygon fill="#CC924C" stroke="#333333" stroke-width="0.9957" stroke-linecap="round" stroke-linejoin="round" stroke-miterlimit="10" points="
			226.898,121.011 216.813,138.01 216.145,135.279 		"/>
		
			<polygon fill="#CC924C" stroke="#333333" stroke-width="0.9957" stroke-linecap="round" stroke-linejoin="round" stroke-miterlimit="10" points="
			210.467,150.138 216.52,154.358 216.088,152.596 		"/>
		<g>
			
				<path fill="#A1C453" stroke="#333333" stroke-width="1.4936" stroke-linecap="round" stroke-linejoin="round" stroke-miterlimit="10" d="
				M232.869,148.063c-2.67-0.257-3.869-1.884-8.295,1.598c-4.425,3.481-0.046,4.963-2.955,7.256
				c2.909-2.293,3.555,2.277,7.817-1.077C233.699,152.485,232.27,150.673,232.869,148.063z"/>
			<g>
				<line fill="none" x1="221.619" y1="156.917" x2="230.336" y2="150.057"/>
				<g>
					<polyline fill="none" stroke="#333333" stroke-width="0.9957" stroke-linecap="round" stroke-miterlimit="10" points="
						222.011,156.609 222.518,156.21 228.275,151.678 228.716,151.332 					"/>
					
						<line fill="none" stroke="#333333" stroke-width="0.9957" stroke-linecap="round" stroke-miterlimit="10" x1="229.944" y1="150.364" x2="229.89" y2="150.408"/>
				</g>
			</g>
		</g>
		<g>
			
				<path fill="#A1C453" stroke="#333333" stroke-width="0.9957" stroke-linecap="round" stroke-linejoin="round" stroke-miterlimit="10" d="
				M225.746,112.569c-1.101,1.227-2.347,1.23-2.234,4.692c0.111,3.464,2.445,1.834,2.519,4.112
				c-0.072-2.278,2.428-0.933,2.318-4.267C228.24,113.771,226.822,113.817,225.746,112.569z"/>
			<g>
				<line fill="none" x1="226.03" y1="121.374" x2="225.813" y2="114.551"/>
				<g>
					<polyline fill="none" stroke="#333333" stroke-width="0.9957" stroke-linecap="round" stroke-miterlimit="10" points="
						226.015,120.877 225.994,120.231 225.896,117.172 225.878,116.611 					"/>
					
						<line fill="none" stroke="#333333" stroke-width="0.9957" stroke-linecap="round" stroke-miterlimit="10" x1="225.828" y1="115.049" x2="225.83" y2="115.118"/>
				</g>
			</g>
		</g>
		<g>
			
				<path fill="#A1C453" stroke="#333333" stroke-width="1.4936" stroke-linecap="round" stroke-linejoin="round" stroke-miterlimit="10" d="
				M237.903,109.656c-3.021,0.164-4.636-1.447-8.98,3.189c-4.348,4.635,0.79,5.546-2.068,8.596c2.858-3.05,4.353,1.938,8.537-2.525
				C239.58,114.45,237.679,112.669,237.903,109.656z"/>
			<g>
				<line fill="none" x1="226.854" y1="121.441" x2="235.416" y2="112.31"/>
				<g>
					<polyline fill="none" stroke="#333333" stroke-width="0.9957" stroke-linecap="round" stroke-miterlimit="10" points="
						227.194,121.078 227.635,120.607 233.623,114.223 234.006,113.813 					"/>
					
						<line fill="none" stroke="#333333" stroke-width="0.9957" stroke-linecap="round" stroke-miterlimit="10" x1="235.075" y1="112.673" x2="235.027" y2="112.724"/>
				</g>
			</g>
		</g>
		<g>
			
				<path fill="#A1C453" stroke="#333333" stroke-width="1.4936" stroke-linecap="round" stroke-linejoin="round" stroke-miterlimit="10" d="
				M200.895,142.368c2.388-0.227,3.466-1.681,7.422,1.446c3.953,3.123,0.031,4.444,2.634,6.499
				c-2.603-2.055-3.188,2.031-6.996-0.978C200.143,146.327,201.423,144.705,200.895,142.368z"/>
			<g>
				<line fill="none" x1="210.949" y1="150.313" x2="203.157" y2="144.157"/>
				<g>
					<polyline fill="none" stroke="#333333" stroke-width="0.9957" stroke-linecap="round" stroke-miterlimit="10" points="
						210.559,150.005 210.053,149.605 205.215,145.783 204.774,145.436 					"/>
					
						<line fill="none" stroke="#333333" stroke-width="0.9957" stroke-linecap="round" stroke-miterlimit="10" x1="203.548" y1="144.466" x2="203.603" y2="144.51"/>
				</g>
			</g>
		</g>
		<g>
			
				<path fill="#A1C453" stroke="#333333" stroke-width="1.4936" stroke-linecap="round" stroke-linejoin="round" stroke-miterlimit="10" d="
				M198.404,152.104c1.53-1.85,1.265-3.641,6.271-4.227c5.006-0.588,3.164,3.119,6.457,2.733c-3.293,0.386-0.818,3.69-5.639,4.257
				C200.672,155.432,200.432,153.38,198.404,152.104z"/>
			<g>
				<line fill="none" x1="211.133" y1="150.611" x2="201.271" y2="151.769"/>
				<g>
					<polyline fill="none" stroke="#333333" stroke-width="0.9957" stroke-linecap="round" stroke-miterlimit="10" points="
						210.639,150.669 209.998,150.744 203.876,151.463 203.318,151.528 					"/>
					
						<line fill="none" stroke="#333333" stroke-width="0.9957" stroke-linecap="round" stroke-miterlimit="10" x1="201.766" y1="151.711" x2="201.836" y2="151.702"/>
				</g>
			</g>
		</g>
		<g>
			
				<path fill="#A1C453" stroke="#333333" stroke-width="0.9957" stroke-linecap="round" stroke-linejoin="round" stroke-miterlimit="10" d="
				M201.158,116.058c0.229,1.518-0.504,2.414,2.054,4.383c2.556,1.971,2.763-0.673,4.445,0.622c-1.684-1.295,0.767-2.294-1.694-4.19
				C203.498,114.974,202.692,116.022,201.158,116.058z"/>
			<g>
				<line fill="none" x1="207.657" y1="121.063" x2="202.619" y2="117.183"/>
				<g>
					<polyline fill="none" stroke="#333333" stroke-width="0.9957" stroke-linecap="round" stroke-miterlimit="10" points="
						207.263,120.759 206.752,120.365 204.696,118.782 204.252,118.44 					"/>
					
						<line fill="none" stroke="#333333" stroke-width="0.9957" stroke-linecap="round" stroke-miterlimit="10" x1="203.014" y1="117.486" x2="203.069" y2="117.529"/>
				</g>
			</g>
		</g>
		<path fill="#CC924C" stroke="#333333" stroke-width="2.6551" stroke-linecap="round" stroke-miterlimit="10" d="M221.697,175.94
			l-13.985-59.306c-0.248-1.011,0.37-2.029,1.381-2.276l0,0c1.009-0.248,2.027,0.371,2.275,1.381l14.957,59.07"/>
		<g>
			
				<path fill="#A1C453" stroke="#333333" stroke-width="0.9957" stroke-linecap="round" stroke-linejoin="round" stroke-miterlimit="10" d="
				M210.467,113.867c0,0-1.725-2.37-2.191-2.746c-0.368-0.304-0.268,2.831-0.026,3.95L210.467,113.867z"/>
			
				<path fill="#A1C453" stroke="#333333" stroke-width="0.9957" stroke-linecap="round" stroke-linejoin="round" stroke-miterlimit="10" d="
				M208.162,114.188l3.724,2.545c0,0-0.404-4.469-1.836-5.686C210.05,111.048,209.133,113.023,208.162,114.188z"/>
			
				<path fill="#A1C453" stroke="#333333" stroke-width="0.9957" stroke-linecap="round" stroke-linejoin="round" stroke-miterlimit="10" d="
				M208.865,119.524c0,0-3.359-4.444-2.406-7.599l3.438,2.613L208.865,119.524z"/>
		</g>
		<g>
			
				<path fill="#FFFFFF" stroke="#333333" stroke-width="0.9957" stroke-linecap="round" stroke-linejoin="round" stroke-miterlimit="10" d="
				M227.655,122.048c0.43,0.124,0.647,0.985,0.739,1.646c0.168,1.191-0.649,2.86-1.994,2.471c-1.352-0.395-1.148-2.244-0.373-3.16
				C226.463,122.496,227.225,121.921,227.655,122.048z"/>
			
				<path fill="#FFFFFF" stroke="#333333" stroke-width="0.9957" stroke-linecap="round" stroke-linejoin="round" stroke-miterlimit="10" d="
				M227.734,121.96c-0.104-0.432,0.533-1.052,1.058-1.464c0.946-0.741,2.805-0.868,3.139,0.493c0.332,1.367-1.371,2.118-2.553,1.901
				C228.721,122.772,227.842,122.397,227.734,121.96z"/>
			
				<path fill="#FFFFFF" stroke="#333333" stroke-width="0.9957" stroke-linecap="round" stroke-linejoin="round" stroke-miterlimit="10" d="
				M227.628,121.935c-0.323,0.309-1.177,0.067-1.796-0.184c-1.117-0.451-2.153-1.992-1.144-2.963
				c1.019-0.974,2.521,0.129,2.924,1.258C227.838,120.677,227.953,121.625,227.628,121.935z"/>
			
				<path fill="#FFFFFF" stroke="#333333" stroke-width="0.9957" stroke-linecap="round" stroke-linejoin="round" stroke-miterlimit="10" d="
				M227.531,122.047c0.106,0.435-0.53,1.054-1.058,1.464c-0.948,0.741-2.805,0.869-3.138-0.493
				c-0.332-1.367,1.369-2.117,2.552-1.902C226.546,121.239,227.426,121.612,227.531,122.047z"/>
			
				<path fill="#FFFFFF" stroke="#333333" stroke-width="0.9957" stroke-linecap="round" stroke-linejoin="round" stroke-miterlimit="10" d="
				M227.645,122.068c0.321-0.309,1.176-0.066,1.795,0.184c1.115,0.451,2.154,1.995,1.142,2.963
				c-1.018,0.974-2.518-0.126-2.922-1.257C227.434,123.327,227.318,122.379,227.645,122.068z"/>
			
				<path fill="#FFFFFF" stroke="#333333" stroke-width="0.9957" stroke-linecap="round" stroke-linejoin="round" stroke-miterlimit="10" d="
				M227.592,121.955c-0.426-0.126-0.646-0.986-0.737-1.647c-0.167-1.191,0.649-2.86,1.995-2.47c1.352,0.395,1.147,2.242,0.369,3.159
				C228.788,121.507,228.023,122.081,227.592,121.955z"/>
			
				<path fill="#F9D53E" stroke="#333333" stroke-width="0.9957" stroke-linecap="round" stroke-linejoin="round" stroke-miterlimit="10" d="
				M228.43,121.826c-0.121-0.496-0.621-0.799-1.119-0.678c-0.496,0.12-0.801,0.622-0.68,1.12c0.123,0.495,0.625,0.801,1.119,0.678
				C228.248,122.827,228.553,122.324,228.43,121.826z"/>
		</g>
	</g>
</g>
<g id="calque06">
	<g>
		
			<polygon fill="#CC924C" stroke="#333333" stroke-width="0.7966" stroke-linecap="round" stroke-linejoin="round" stroke-miterlimit="10" points="
			200.404,118.622 209.28,123.07 208.613,120.34 		"/>
		
			<polygon fill="#CC924C" stroke="#333333" stroke-width="0.9957" stroke-linecap="round" stroke-linejoin="round" stroke-miterlimit="10" points="
			226.895,121.01 216.809,138.011 216.141,135.279 		"/>
		
			<polygon fill="#CC924C" stroke="#333333" stroke-width="0.9957" stroke-linecap="round" stroke-linejoin="round" stroke-miterlimit="10" points="
			210.465,150.137 216.516,154.357 216.086,152.597 		"/>
		<g>
			
				<path fill="#A1C453" stroke="#333333" stroke-width="1.4936" stroke-linecap="round" stroke-linejoin="round" stroke-miterlimit="10" d="
				M232.865,148.065c-2.671-0.258-3.869-1.884-8.294,1.598c-4.426,3.48-0.046,4.962-2.959,7.254c2.913-2.292,3.56,2.277,7.822-1.075
				C233.695,152.487,232.268,150.673,232.865,148.065z"/>
			<g>
				<line fill="none" x1="221.613" y1="156.917" x2="230.334" y2="150.057"/>
				<g>
					<polyline fill="none" stroke="#333333" stroke-width="0.9957" stroke-linecap="round" stroke-miterlimit="10" points="
						222.005,156.609 222.512,156.21 228.273,151.678 228.714,151.331 					"/>
					
						<line fill="none" stroke="#333333" stroke-width="0.9957" stroke-linecap="round" stroke-miterlimit="10" x1="229.942" y1="150.364" x2="229.888" y2="150.408"/>
				</g>
			</g>
		</g>
		<g>
			
				<path fill="#A1C453" stroke="#333333" stroke-width="1.4936" stroke-linecap="round" stroke-linejoin="round" stroke-miterlimit="10" d="
				M226.166,104.885c-2.02,2.252-4.301,2.254-4.099,8.606c0.204,6.352,4.482,3.359,4.615,7.54c-0.133-4.181,4.451-1.708,4.254-7.825
				C230.74,107.09,228.137,107.172,226.166,104.885z"/>
			<g>
				<line fill="none" x1="226.684" y1="121.031" x2="226.283" y2="108.519"/>
				<g>
					<polyline fill="none" stroke="#333333" stroke-width="0.9957" stroke-linecap="round" stroke-miterlimit="10" points="
						226.668,120.533 226.647,119.889 226.367,111.139 226.35,110.579 					"/>
					
						<line fill="none" stroke="#333333" stroke-width="0.9957" stroke-linecap="round" stroke-miterlimit="10" x1="226.299" y1="109.016" x2="226.302" y2="109.086"/>
				</g>
			</g>
		</g>
		<g>
			
				<path fill="#A1C453" stroke="#333333" stroke-width="1.4936" stroke-linecap="round" stroke-linejoin="round" stroke-miterlimit="10" d="
				M237.9,109.658c-3.02,0.163-4.637-1.448-8.981,3.187c-4.349,4.636,0.791,5.547-2.07,8.597c2.861-3.05,4.355,1.938,8.541-2.524
				C239.576,114.451,237.676,112.669,237.9,109.658z"/>
			<g>
				<line fill="none" x1="226.848" y1="121.441" x2="235.414" y2="112.31"/>
				<g>
					<polyline fill="none" stroke="#333333" stroke-width="0.9957" stroke-linecap="round" stroke-miterlimit="10" points="
						227.188,121.078 227.63,120.607 233.62,114.222 234.004,113.813 					"/>
					
						<line fill="none" stroke="#333333" stroke-width="0.9957" stroke-linecap="round" stroke-miterlimit="10" x1="235.073" y1="112.673" x2="235.025" y2="112.724"/>
				</g>
			</g>
		</g>
		<g>
			
				<path fill="#A1C453" stroke="#333333" stroke-width="1.4936" stroke-linecap="round" stroke-linejoin="round" stroke-miterlimit="10" d="
				M200.891,142.369c2.388-0.228,3.467-1.679,7.422,1.444c3.955,3.125,0.033,4.444,2.633,6.5c-2.6-2.056-3.188,2.033-6.995-0.978
				C200.141,146.327,201.421,144.706,200.891,142.369z"/>
			<g>
				<line fill="none" x1="210.945" y1="150.313" x2="203.153" y2="144.158"/>
				<g>
					<polyline fill="none" stroke="#333333" stroke-width="0.9957" stroke-linecap="round" stroke-miterlimit="10" points="
						210.555,150.005 210.049,149.605 205.211,145.783 204.771,145.436 					"/>
					
						<line fill="none" stroke="#333333" stroke-width="0.9957" stroke-linecap="round" stroke-miterlimit="10" x1="203.544" y1="144.467" x2="203.599" y2="144.51"/>
				</g>
			</g>
		</g>
		<g>
			
				<path fill="#A1C453" stroke="#333333" stroke-width="1.4936" stroke-linecap="round" stroke-linejoin="round" stroke-miterlimit="10" d="
				M198.402,152.104c1.528-1.849,1.265-3.638,6.271-4.225s3.164,3.12,6.459,2.733c-3.295,0.387-0.818,3.69-5.642,4.256
				C200.667,155.434,200.428,153.381,198.402,152.104z"/>
			<g>
				<line fill="none" x1="211.131" y1="150.612" x2="201.267" y2="151.769"/>
				<g>
					<polyline fill="none" stroke="#333333" stroke-width="0.9957" stroke-linecap="round" stroke-miterlimit="10" points="
						210.637,150.67 209.996,150.745 203.871,151.463 203.314,151.528 					"/>
					
						<line fill="none" stroke="#333333" stroke-width="0.9957" stroke-linecap="round" stroke-miterlimit="10" x1="201.761" y1="151.711" x2="201.83" y2="151.702"/>
				</g>
			</g>
		</g>
		<g>
			
				<path fill="#A1C453" stroke="#333333" stroke-width="1.4936" stroke-linecap="round" stroke-linejoin="round" stroke-miterlimit="10" d="
				M187.605,108.761c0.459,2.991-0.99,4.755,4.043,8.633c5.033,3.877,5.445-1.323,8.756,1.229c-3.311-2.552,1.509-4.524-3.338-8.258
				C192.215,106.631,190.626,108.694,187.605,108.761z"/>
			<g>
				<line fill="none" x1="200.404" y1="118.622" x2="190.488" y2="110.981"/>
				<g>
					<polyline fill="none" stroke="#333333" stroke-width="0.9957" stroke-linecap="round" stroke-miterlimit="10" points="
						200.01,118.318 199.499,117.925 192.565,112.582 192.121,112.239 					"/>
					
						<line fill="none" stroke="#333333" stroke-width="0.9957" stroke-linecap="round" stroke-miterlimit="10" x1="190.883" y1="111.285" x2="190.938" y2="111.328"/>
				</g>
			</g>
		</g>
		<g>
			
				<path fill="#A1C453" stroke="#333333" stroke-width="0.9957" stroke-linecap="round" stroke-linejoin="round" stroke-miterlimit="10" d="
				M194.861,125.299c1.605-0.099,2.47,0.75,4.759-1.729c2.293-2.481-0.441-2.945,1.063-4.577c-1.506,1.632-2.321-1.011-4.527,1.377
				C193.949,122.76,194.969,123.699,194.861,125.299z"/>
			<g>
				<line fill="none" x1="200.684" y1="118.993" x2="196.17" y2="123.881"/>
				<g>
					<polyline fill="none" stroke="#333333" stroke-width="0.9957" stroke-linecap="round" stroke-miterlimit="10" points="
						200.346,119.359 199.908,119.833 197.949,121.955 197.568,122.366 					"/>
					
						<line fill="none" stroke="#333333" stroke-width="0.9957" stroke-linecap="round" stroke-miterlimit="10" x1="196.508" y1="123.516" x2="196.555" y2="123.464"/>
				</g>
			</g>
		</g>
		<g>
			<g>
				<path fill="#D3F46C" d="M232.621,122.932c0.945,2.396-0.691,6.15-2.623,6.049c-1.47,1.574-5.104-0.229-6.047-2.624
					c-0.947-2.395-0.709-5.224,2.981-5.563C229.709,118.608,231.676,120.537,232.621,122.932z"/>
				<g>
					<path fill="none" stroke="#333333" stroke-width="0.9957" stroke-linecap="round" stroke-miterlimit="10" d="M232.771,123.406
						c0.032,0.213,0.098,0.421,0.102,0.637c0.108,1.146-0.184,2.308-0.714,3.318c-0.275,0.501-0.638,0.969-1.109,1.297
						c-0.243,0.149-0.508,0.277-0.795,0.305c-0.33-0.075-0.456,0.299-0.741,0.372c-1.068,0.512-2.306,0.088-3.271-0.463
						c-0.981-0.585-1.834-1.438-2.281-2.5c-0.412-1.059-0.647-2.252-0.318-3.363c0.313-1.138,1.396-1.878,2.511-2.091
						c0.273-0.082,0.578-0.059,0.839-0.164c0.234-0.164,0.461-0.343,0.72-0.47c0.5-0.274,1.063-0.464,1.641-0.44
						c0.576,0.019,1.129,0.257,1.577,0.611c0.108,0.088,0.233,0.185,0.315,0.277l0.13,0.131c0.091,0.084,0.16,0.187,0.24,0.279"/>
					
						<line fill="none" stroke="#333333" stroke-width="0.9957" stroke-linecap="round" stroke-miterlimit="10" x1="232.425" y1="122.475" x2="232.394" y2="122.412"/>
				</g>
			</g>
			<path opacity="0.5" fill="#FFFFFF" enable-background="new    " d="M225.988,124.319c-0.139,0.571-0.632,0.943-1.1,0.829
				c-0.474-0.112-0.744-0.669-0.607-1.243c0.139-0.571,0.632-0.944,1.104-0.83C225.855,123.188,226.126,123.745,225.988,124.319z"/>
		</g>
		<path fill="#CC924C" stroke="#333333" stroke-width="2.6551" stroke-linecap="round" stroke-miterlimit="10" d="M221.693,175.94
			l-15.897-67.125c-0.248-1.011,0.371-2.029,1.383-2.277l0,0c1.008-0.247,2.026,0.373,2.273,1.383l16.868,66.889"/>
		<g>
			
				<path fill="#A1C453" stroke="#333333" stroke-width="0.9957" stroke-linecap="round" stroke-linejoin="round" stroke-miterlimit="10" d="
				M208.553,106.049c0,0-1.726-2.37-2.191-2.747c-0.368-0.303-0.268,2.831-0.028,3.949L208.553,106.049z"/>
			
				<path fill="#A1C453" stroke="#333333" stroke-width="0.9957" stroke-linecap="round" stroke-linejoin="round" stroke-miterlimit="10" d="
				M206.247,106.368l3.722,2.545c0,0-0.402-4.469-1.834-5.684C208.135,103.229,207.218,105.203,206.247,106.368z"/>
			
				<path fill="#A1C453" stroke="#333333" stroke-width="0.9957" stroke-linecap="round" stroke-linejoin="round" stroke-miterlimit="10" d="
				M206.951,111.707c0,0-3.361-4.446-2.407-7.602l3.438,2.614L206.951,111.707z"/>
		</g>
		<g>
			
				<path fill="#FFFFFF" stroke="#333333" stroke-width="0.9957" stroke-linecap="round" stroke-linejoin="round" stroke-miterlimit="10" d="
				M200.453,120.202c0.428,0.125,0.646,0.985,0.736,1.646c0.168,1.19-0.646,2.862-1.993,2.469c-1.352-0.394-1.149-2.243-0.37-3.159
				C199.259,120.649,200.021,120.075,200.453,120.202z"/>
			
				<path fill="#FFFFFF" stroke="#333333" stroke-width="0.9957" stroke-linecap="round" stroke-linejoin="round" stroke-miterlimit="10" d="
				M200.531,120.113c-0.104-0.433,0.53-1.051,1.058-1.462c0.95-0.741,2.805-0.868,3.137,0.49c0.335,1.37-1.369,2.12-2.551,1.904
				C201.518,120.925,200.639,120.551,200.531,120.113z"/>
			
				<path fill="#FFFFFF" stroke="#333333" stroke-width="0.9957" stroke-linecap="round" stroke-linejoin="round" stroke-miterlimit="10" d="
				M200.424,120.087c-0.32,0.311-1.176,0.069-1.794-0.183c-1.116-0.449-2.155-1.992-1.145-2.96c1.019-0.974,2.519,0.125,2.923,1.255
				C200.633,118.83,200.748,119.778,200.424,120.087z"/>
			
				<path fill="#FFFFFF" stroke="#333333" stroke-width="0.9957" stroke-linecap="round" stroke-linejoin="round" stroke-miterlimit="10" d="
				M200.328,120.201c0.104,0.434-0.531,1.053-1.058,1.464c-0.948,0.741-2.805,0.868-3.138-0.492
				c-0.334-1.368,1.368-2.117,2.552-1.902C199.342,119.391,200.221,119.766,200.328,120.201z"/>
			
				<path fill="#FFFFFF" stroke="#333333" stroke-width="0.9957" stroke-linecap="round" stroke-linejoin="round" stroke-miterlimit="10" d="
				M200.441,120.222c0.322-0.307,1.174-0.065,1.795,0.186c1.115,0.45,2.155,1.992,1.144,2.962c-1.019,0.974-2.519-0.127-2.925-1.257
				C200.232,121.48,200.116,120.533,200.441,120.222z"/>
			
				<path fill="#FFFFFF" stroke="#333333" stroke-width="0.9957" stroke-linecap="round" stroke-linejoin="round" stroke-miterlimit="10" d="
				M200.389,120.108c-0.427-0.124-0.645-0.986-0.736-1.647c-0.168-1.191,0.648-2.861,1.992-2.468
				c1.354,0.393,1.15,2.242,0.372,3.158C201.584,119.66,200.822,120.234,200.389,120.108z"/>
			
				<circle fill="#F9D53E" stroke="#333333" stroke-width="0.9957" stroke-linecap="round" stroke-linejoin="round" stroke-miterlimit="10" cx="200.328" cy="120.201" r="0.927"/>
		</g>
	</g>
</g>
<g id="calque07">
	<g>
		
			<polygon fill="#CC924C" stroke="#333333" stroke-width="0.7966" stroke-linecap="round" stroke-linejoin="round" stroke-miterlimit="10" points="
			200.406,118.62 209.283,123.069 208.615,120.338 		"/>
		
			<polygon fill="#CC924C" stroke="#333333" stroke-width="0.9957" stroke-linecap="round" stroke-linejoin="round" stroke-miterlimit="10" points="
			226.898,121.011 216.813,138.01 216.145,135.279 		"/>
		
			<polygon fill="#CC924C" stroke="#333333" stroke-width="0.9957" stroke-linecap="round" stroke-linejoin="round" stroke-miterlimit="10" points="
			210.467,150.138 216.52,154.358 216.088,152.596 		"/>
		<g>
			
				<path fill="#A1C453" stroke="#333333" stroke-width="1.4936" stroke-linecap="round" stroke-linejoin="round" stroke-miterlimit="10" d="
				M232.869,148.063c-2.67-0.257-3.869-1.884-8.295,1.598c-4.425,3.481-0.046,4.963-2.955,7.256
				c2.909-2.293,3.555,2.277,7.817-1.077C233.697,152.487,232.27,150.673,232.869,148.063z"/>
			<g>
				<line fill="none" x1="221.619" y1="156.917" x2="230.336" y2="150.057"/>
				<g>
					<polyline fill="none" stroke="#333333" stroke-width="0.9957" stroke-linecap="round" stroke-miterlimit="10" points="
						222.011,156.609 222.518,156.21 228.275,151.678 228.716,151.332 					"/>
					
						<line fill="none" stroke="#333333" stroke-width="0.9957" stroke-linecap="round" stroke-miterlimit="10" x1="229.944" y1="150.364" x2="229.89" y2="150.408"/>
				</g>
			</g>
		</g>
		<g>
			
				<path fill="#A1C453" stroke="#333333" stroke-width="0.9957" stroke-linecap="round" stroke-linejoin="round" stroke-miterlimit="10" d="
				M213.831,100.775c0.538,1.52,1.662,1.984,0.275,5.073c-1.385,3.093-2.891,0.752-3.803,2.787c0.912-2.035-1.85-1.744-0.514-4.722
				C211.126,100.936,212.395,101.504,213.831,100.775z"/>
			<g>
				<line fill="none" x1="210.305" y1="108.636" x2="213.037" y2="102.543"/>
				<g>
					<polyline fill="none" stroke="#333333" stroke-width="0.9957" stroke-linecap="round" stroke-miterlimit="10" points="
						210.509,108.182 210.772,107.593 211.964,104.936 212.193,104.424 					"/>
					
						<line fill="none" stroke="#333333" stroke-width="0.9957" stroke-linecap="round" stroke-miterlimit="10" x1="212.833" y1="102.997" x2="212.805" y2="103.062"/>
				</g>
			</g>
		</g>
		<g>
			
				<path fill="#A1C453" stroke="#333333" stroke-width="1.4936" stroke-linecap="round" stroke-linejoin="round" stroke-miterlimit="10" d="
				M226.17,104.883c-2.021,2.252-4.303,2.256-4.101,8.607c0.205,6.352,4.483,3.36,4.617,7.541c-0.134-4.181,4.449-1.708,4.254-7.825
				C230.744,107.088,228.139,107.171,226.17,104.883z"/>
			<g>
				<line fill="none" x1="226.688" y1="121.031" x2="226.285" y2="108.518"/>
				<g>
					<polyline fill="none" stroke="#333333" stroke-width="0.9957" stroke-linecap="round" stroke-miterlimit="10" points="
						226.672,120.533 226.65,119.889 226.369,111.139 226.352,110.578 					"/>
					
						<line fill="none" stroke="#333333" stroke-width="0.9957" stroke-linecap="round" stroke-miterlimit="10" x1="226.301" y1="109.016" x2="226.304" y2="109.085"/>
				</g>
			</g>
		</g>
		<g>
			
				<path fill="#A1C453" stroke="#333333" stroke-width="1.4936" stroke-linecap="round" stroke-linejoin="round" stroke-miterlimit="10" d="
				M237.903,109.656c-3.021,0.164-4.636-1.447-8.98,3.189c-4.348,4.635,0.79,5.546-2.07,8.595c2.86-3.049,4.354,1.939,8.539-2.524
				C239.58,114.45,237.679,112.669,237.903,109.656z"/>
			<g>
				<line fill="none" x1="226.852" y1="121.44" x2="235.416" y2="112.31"/>
				<g>
					<polyline fill="none" stroke="#333333" stroke-width="0.9957" stroke-linecap="round" stroke-miterlimit="10" points="
						227.192,121.077 227.634,120.606 233.622,114.222 234.006,113.813 					"/>
					
						<line fill="none" stroke="#333333" stroke-width="0.9957" stroke-linecap="round" stroke-miterlimit="10" x1="235.075" y1="112.673" x2="235.027" y2="112.724"/>
				</g>
			</g>
		</g>
		<g>
			
				<path fill="#A1C453" stroke="#333333" stroke-width="1.4936" stroke-linecap="round" stroke-linejoin="round" stroke-miterlimit="10" d="
				M200.895,142.368c2.388-0.227,3.466-1.681,7.422,1.446c3.953,3.123,0.031,4.444,2.634,6.499
				c-2.603-2.055-3.188,2.031-6.996-0.978C200.143,146.327,201.423,144.705,200.895,142.368z"/>
			<g>
				<line fill="none" x1="210.949" y1="150.313" x2="203.157" y2="144.157"/>
				<g>
					<polyline fill="none" stroke="#333333" stroke-width="0.9957" stroke-linecap="round" stroke-miterlimit="10" points="
						210.559,150.005 210.053,149.605 205.215,145.783 204.774,145.436 					"/>
					
						<line fill="none" stroke="#333333" stroke-width="0.9957" stroke-linecap="round" stroke-miterlimit="10" x1="203.548" y1="144.466" x2="203.603" y2="144.51"/>
				</g>
			</g>
		</g>
		<g>
			
				<path fill="#A1C453" stroke="#333333" stroke-width="1.4936" stroke-linecap="round" stroke-linejoin="round" stroke-miterlimit="10" d="
				M198.404,152.104c1.531-1.851,1.265-3.641,6.271-4.227c5.006-0.588,3.164,3.119,6.457,2.733c-3.293,0.386-0.818,3.69-5.639,4.257
				C200.672,155.432,200.432,153.38,198.404,152.104z"/>
			<g>
				<line fill="none" x1="211.133" y1="150.611" x2="201.271" y2="151.769"/>
				<g>
					<polyline fill="none" stroke="#333333" stroke-width="0.9957" stroke-linecap="round" stroke-miterlimit="10" points="
						210.639,150.669 209.998,150.744 203.876,151.463 203.318,151.528 					"/>
					
						<line fill="none" stroke="#333333" stroke-width="0.9957" stroke-linecap="round" stroke-miterlimit="10" x1="201.766" y1="151.711" x2="201.836" y2="151.702"/>
				</g>
			</g>
		</g>
		<g>
			
				<path fill="#A1C453" stroke="#333333" stroke-width="0.9957" stroke-linecap="round" stroke-linejoin="round" stroke-miterlimit="10" d="
				M191.09,119.996c1.322,0.974,1.445,2.209,4.873,1.765c3.426-0.444,1.582-2.603,3.835-2.895c-2.253,0.292-1.157-2.319-4.454-1.888
				C192.041,117.405,192.224,118.811,191.09,119.996z"/>
			<g>
				<line fill="none" x1="199.798" y1="118.866" x2="193.049" y2="119.741"/>
				<g>
					<polyline fill="none" stroke="#333333" stroke-width="0.9957" stroke-linecap="round" stroke-miterlimit="10" points="
						199.304,118.93 198.664,119.014 195.649,119.404 195.093,119.477 					"/>
					
						<line fill="none" stroke="#333333" stroke-width="0.9957" stroke-linecap="round" stroke-miterlimit="10" x1="193.543" y1="119.678" x2="193.612" y2="119.668"/>
				</g>
			</g>
		</g>
		<g>
			
				<path fill="#A1C453" stroke="#333333" stroke-width="1.4936" stroke-linecap="round" stroke-linejoin="round" stroke-miterlimit="10" d="
				M187.609,108.762c0.457,2.99-0.989,4.754,4.045,8.632c5.033,3.878,5.441-1.325,8.752,1.227c-3.311-2.552,1.511-4.521-3.338-8.256
				C192.219,106.63,190.629,108.692,187.609,108.762z"/>
			<g>
				<line fill="none" x1="200.406" y1="118.62" x2="190.49" y2="110.979"/>
				<g>
					<polyline fill="none" stroke="#333333" stroke-width="0.9957" stroke-linecap="round" stroke-miterlimit="10" points="
						200.012,118.316 199.501,117.923 192.567,112.58 192.123,112.237 					"/>
					
						<line fill="none" stroke="#333333" stroke-width="0.9957" stroke-linecap="round" stroke-miterlimit="10" x1="190.885" y1="111.283" x2="190.94" y2="111.326"/>
				</g>
			</g>
		</g>
		<g>
			
				<path fill="#A1C453" stroke="#333333" stroke-width="1.4936" stroke-linecap="round" stroke-linejoin="round" stroke-miterlimit="10" d="
				M191.918,128.38c2.371-0.146,3.649,1.109,7.038-2.558c3.386-3.667-0.659-4.353,1.57-6.765c-2.229,2.412-3.434-1.498-6.692,2.035
				C190.571,124.625,192.074,126.013,191.918,128.38z"/>
			<g>
				<line fill="none" x1="200.527" y1="119.058" x2="193.854" y2="126.282"/>
				<g>
					<polyline fill="none" stroke="#333333" stroke-width="0.9957" stroke-linecap="round" stroke-miterlimit="10" points="
						200.189,119.424 199.752,119.897 195.633,124.356 195.252,124.768 					"/>
					
						<line fill="none" stroke="#333333" stroke-width="0.9957" stroke-linecap="round" stroke-miterlimit="10" x1="194.191" y1="125.916" x2="194.239" y2="125.865"/>
				</g>
			</g>
		</g>
		<g>
			<g>
				<path fill="#D3F46C" d="M234.675,124.367c1.282,3.248-0.938,8.341-3.558,8.204c-1.992,2.135-6.921-0.312-8.202-3.561
					c-1.282-3.246-0.96-7.086,4.046-7.545C230.73,118.506,233.395,121.121,234.675,124.367z"/>
				<g>
					<path fill="none" stroke="#333333" stroke-width="1.4936" stroke-linecap="round" stroke-miterlimit="10" d="M234.891,125.081
						c0.062,0.317,0.125,0.634,0.135,0.957c0.101,1.531-0.289,3.079-1.028,4.417c-0.376,0.662-0.858,1.289-1.505,1.709
						c-0.328,0.192-0.686,0.361-1.069,0.386l-0.286,0.021c-0.082,0.041-0.148,0.118-0.224,0.176
						c-0.138,0.138-0.301,0.236-0.476,0.317c-0.688,0.349-1.498,0.359-2.243,0.213c-0.752-0.148-1.468-0.448-2.133-0.827
						c-1.305-0.783-2.474-1.893-3.085-3.308c-0.573-1.405-0.908-2.986-0.538-4.488c0.188-0.742,0.594-1.432,1.171-1.938
						c0.57-0.519,1.301-0.825,2.036-1.016c0.368-0.111,0.75-0.156,1.13-0.208c0.204,0.011,0.342-0.15,0.501-0.25
						c0.16-0.105,0.308-0.231,0.478-0.321c0.649-0.401,1.39-0.68,2.153-0.729c0.766-0.053,1.536,0.177,2.173,0.602
						c0.165,0.089,0.315,0.236,0.448,0.338c0.071,0.059,0.146,0.114,0.208,0.183c0.127,0.133,0.265,0.258,0.385,0.397"/>
					
						<line fill="none" stroke="#333333" stroke-width="1.4936" stroke-linecap="round" stroke-miterlimit="10" x1="234.377" y1="123.683" x2="234.33" y2="123.589"/>
				</g>
			</g>
			<path opacity="0.5" fill="#FFFFFF" enable-background="new    " d="M225.68,126.247c-0.186,0.776-0.854,1.282-1.492,1.129
				c-0.639-0.155-1.008-0.911-0.819-1.688c0.186-0.775,0.854-1.281,1.492-1.127C225.5,124.717,225.867,125.47,225.68,126.247z"/>
		</g>
		<path fill="#CC924C" stroke="#333333" stroke-width="2.6551" stroke-linecap="round" stroke-miterlimit="10" d="M221.697,175.94
			l-17.569-73.961c-0.248-1.012,0.369-2.03,1.381-2.277l0,0c1.01-0.246,2.029,0.371,2.277,1.382l18.539,73.726"/>
		<g>
			
				<path fill="#A1C453" stroke="#333333" stroke-width="0.9957" stroke-linecap="round" stroke-linejoin="round" stroke-miterlimit="10" d="
				M206.885,99.211c0,0-1.725-2.371-2.191-2.747c-0.371-0.302-0.271,2.833-0.028,3.951L206.885,99.211z"/>
			
				<path fill="#A1C453" stroke="#333333" stroke-width="0.9957" stroke-linecap="round" stroke-linejoin="round" stroke-miterlimit="10" d="
				M204.578,99.532l3.723,2.544c0,0-0.404-4.469-1.834-5.684C206.467,96.393,205.548,98.366,204.578,99.532z"/>
			
				<path fill="#A1C453" stroke="#333333" stroke-width="0.9957" stroke-linecap="round" stroke-linejoin="round" stroke-miterlimit="10" d="
				M205.283,104.868c0,0-3.361-4.444-2.408-7.599l3.438,2.613L205.283,104.868z"/>
		</g>
		<g>
			<g>
				<path fill="#D3F46C" d="M204.766,122.226c0.945,2.395-0.69,6.15-2.624,6.047c-1.466,1.577-5.101-0.228-6.048-2.623
					c-0.945-2.396-0.705-5.223,2.983-5.563C201.857,117.904,203.82,119.831,204.766,122.226z"/>
				<g>
					<path fill="none" stroke="#333333" stroke-width="0.9957" stroke-linecap="round" stroke-miterlimit="10" d="M204.915,122.7
						c0.03,0.213,0.096,0.421,0.101,0.637c0.108,1.146-0.183,2.308-0.715,3.318c-0.275,0.501-0.637,0.968-1.109,1.296
						c-0.244,0.149-0.509,0.277-0.796,0.304c-0.33-0.076-0.455,0.3-0.74,0.374c-1.066,0.512-2.306,0.087-3.271-0.464
						c-0.981-0.585-1.834-1.438-2.283-2.499c-0.411-1.059-0.646-2.252-0.316-3.363c0.313-1.137,1.396-1.878,2.512-2.091
						c0.271-0.082,0.578-0.058,0.837-0.165c0.235-0.163,0.462-0.341,0.721-0.468c0.5-0.274,1.064-0.464,1.642-0.44
						c0.575,0.018,1.13,0.256,1.576,0.61c0.108,0.088,0.233,0.185,0.315,0.277l0.13,0.131c0.091,0.084,0.16,0.187,0.24,0.279"/>
					
						<line fill="none" stroke="#333333" stroke-width="0.9957" stroke-linecap="round" stroke-miterlimit="10" x1="204.569" y1="121.769" x2="204.538" y2="121.705"/>
				</g>
			</g>
			
				<ellipse transform="matrix(0.2336 -0.9723 0.9723 0.2336 31.1924 286.408)" opacity="0.5" fill="#FFFFFF" enable-background="new    " cx="197.276" cy="123.417" rx="1.066" ry="0.877"/>
		</g>
	</g>
</g>
<g id="calque08">
	<g>
		
			<polygon fill="#CC924C" stroke="#333333" stroke-width="0.9957" stroke-linecap="round" stroke-linejoin="round" stroke-miterlimit="10" points="
			214.423,102.116 209.859,110.175 209.191,107.445 		"/>
		
			<polygon fill="#CC924C" stroke="#333333" stroke-width="0.7966" stroke-linecap="round" stroke-linejoin="round" stroke-miterlimit="10" points="
			200.404,118.622 209.28,123.07 208.613,120.34 		"/>
		
			<polygon fill="#CC924C" stroke="#333333" stroke-width="0.9957" stroke-linecap="round" stroke-linejoin="round" stroke-miterlimit="10" points="
			226.895,121.01 216.809,138.011 216.141,135.279 		"/>
		
			<polygon fill="#CC924C" stroke="#333333" stroke-width="0.9957" stroke-linecap="round" stroke-linejoin="round" stroke-miterlimit="10" points="
			210.465,150.138 216.516,154.357 216.086,152.597 		"/>
		<g>
			
				<path fill="#A1C453" stroke="#333333" stroke-width="1.4936" stroke-linecap="round" stroke-linejoin="round" stroke-miterlimit="10" d="
				M232.865,148.065c-2.671-0.258-3.869-1.884-8.294,1.598c-4.426,3.48-0.046,4.962-2.959,7.254c2.913-2.292,3.56,2.277,7.822-1.075
				C233.695,152.487,232.268,150.673,232.865,148.065z"/>
			<g>
				<line fill="none" x1="221.613" y1="156.917" x2="230.333" y2="150.059"/>
				<g>
					<polyline fill="none" stroke="#333333" stroke-width="0.9957" stroke-linecap="round" stroke-miterlimit="10" points="
						222.005,156.609 222.512,156.211 228.272,151.68 228.713,151.333 					"/>
					
						<line fill="none" stroke="#333333" stroke-width="0.9957" stroke-linecap="round" stroke-miterlimit="10" x1="229.941" y1="150.366" x2="229.887" y2="150.41"/>
				</g>
			</g>
		</g>
		<g>
			
				<path fill="#A1C453" stroke="#333333" stroke-width="1.4936" stroke-linecap="round" stroke-linejoin="round" stroke-miterlimit="10" d="
				M220.281,89.056c0.896,2.524,2.768,3.297,0.464,8.434c-2.308,5.137-4.808,1.246-6.321,4.627c1.515-3.381-3.075-2.897-0.854-7.844
				C215.789,89.322,217.895,90.268,220.281,89.056z"/>
			<g>
				<line fill="none" x1="214.423" y1="102.116" x2="218.963" y2="91.996"/>
				<g>
					<polyline fill="none" stroke="#333333" stroke-width="0.9957" stroke-linecap="round" stroke-miterlimit="10" points="
						214.627,101.662 214.891,101.073 217.89,94.389 218.119,93.877 					"/>
					
						<line fill="none" stroke="#333333" stroke-width="0.9957" stroke-linecap="round" stroke-miterlimit="10" x1="218.759" y1="92.45" x2="218.73" y2="92.515"/>
				</g>
			</g>
		</g>
		<g>
			
				<path fill="#A1C453" stroke="#333333" stroke-width="1.4936" stroke-linecap="round" stroke-linejoin="round" stroke-miterlimit="10" d="
				M226.166,104.885c-2.02,2.252-4.301,2.254-4.099,8.606c0.204,6.352,4.482,3.359,4.615,7.54c-0.133-4.181,4.451-1.708,4.254-7.825
				C230.74,107.09,228.135,107.172,226.166,104.885z"/>
			<g>
				<line fill="none" x1="226.684" y1="121.031" x2="226.283" y2="108.519"/>
				<g>
					<polyline fill="none" stroke="#333333" stroke-width="0.9957" stroke-linecap="round" stroke-miterlimit="10" points="
						226.668,120.533 226.647,119.889 226.367,111.139 226.35,110.579 					"/>
					
						<line fill="none" stroke="#333333" stroke-width="0.9957" stroke-linecap="round" stroke-miterlimit="10" x1="226.299" y1="109.016" x2="226.302" y2="109.086"/>
				</g>
			</g>
		</g>
		<g>
			
				<path fill="#A1C453" stroke="#333333" stroke-width="1.4936" stroke-linecap="round" stroke-linejoin="round" stroke-miterlimit="10" d="
				M237.898,109.658c-3.018,0.163-4.635-1.448-8.979,3.187c-4.349,4.636,0.791,5.547-2.07,8.597c2.861-3.05,4.355,1.938,8.541-2.524
				C239.576,114.451,237.676,112.669,237.898,109.658z"/>
			<g>
				<line fill="none" x1="226.848" y1="121.441" x2="235.414" y2="112.31"/>
				<g>
					<polyline fill="none" stroke="#333333" stroke-width="0.9957" stroke-linecap="round" stroke-miterlimit="10" points="
						227.188,121.078 227.63,120.607 233.62,114.222 234.004,113.813 					"/>
					
						<line fill="none" stroke="#333333" stroke-width="0.9957" stroke-linecap="round" stroke-miterlimit="10" x1="235.073" y1="112.673" x2="235.025" y2="112.724"/>
				</g>
			</g>
		</g>
		<g>
			
				<path fill="#A1C453" stroke="#333333" stroke-width="1.4936" stroke-linecap="round" stroke-linejoin="round" stroke-miterlimit="10" d="
				M200.891,142.369c2.388-0.228,3.467-1.679,7.422,1.444c3.955,3.125,0.033,4.444,2.633,6.5c-2.6-2.056-3.188,2.033-6.995-0.978
				C200.139,146.326,201.421,144.706,200.891,142.369z"/>
			<g>
				<line fill="none" x1="210.945" y1="150.313" x2="203.153" y2="144.158"/>
				<g>
					<polyline fill="none" stroke="#333333" stroke-width="0.9957" stroke-linecap="round" stroke-miterlimit="10" points="
						210.555,150.005 210.049,149.605 205.211,145.783 204.771,145.436 					"/>
					
						<line fill="none" stroke="#333333" stroke-width="0.9957" stroke-linecap="round" stroke-miterlimit="10" x1="203.544" y1="144.467" x2="203.599" y2="144.51"/>
				</g>
			</g>
		</g>
		<g>
			
				<path fill="#A1C453" stroke="#333333" stroke-width="1.4936" stroke-linecap="round" stroke-linejoin="round" stroke-miterlimit="10" d="
				M198.402,152.104c1.528-1.849,1.265-3.638,6.271-4.225s3.164,3.12,6.459,2.733c-3.295,0.387-0.818,3.69-5.642,4.256
				C200.667,155.434,200.428,153.381,198.402,152.104z"/>
			<g>
				<line fill="none" x1="211.131" y1="150.612" x2="201.267" y2="151.769"/>
				<g>
					<polyline fill="none" stroke="#333333" stroke-width="0.9957" stroke-linecap="round" stroke-miterlimit="10" points="
						210.637,150.67 209.996,150.745 203.871,151.463 203.314,151.528 					"/>
					
						<line fill="none" stroke="#333333" stroke-width="0.9957" stroke-linecap="round" stroke-miterlimit="10" x1="201.761" y1="151.711" x2="201.83" y2="151.702"/>
				</g>
			</g>
		</g>
		<g>
			
				<path fill="#A1C453" stroke="#333333" stroke-width="1.4936" stroke-linecap="round" stroke-linejoin="round" stroke-miterlimit="10" d="
				M183.992,120.9c2.438,1.794,2.661,4.065,8.961,3.248c6.303-0.819,2.914-4.787,7.059-5.324c-4.145,0.537-2.131-4.263-8.198-3.476
				C185.744,116.136,186.078,118.719,183.992,120.9z"/>
			<g>
				<line fill="none" x1="200.012" y1="118.824" x2="187.598" y2="120.435"/>
				<g>
					<polyline fill="none" stroke="#333333" stroke-width="0.9957" stroke-linecap="round" stroke-miterlimit="10" points="
						199.518,118.889 198.878,118.971 190.198,120.098 189.642,120.17 					"/>
					
						<line fill="none" stroke="#333333" stroke-width="0.9957" stroke-linecap="round" stroke-miterlimit="10" x1="188.092" y1="120.37" x2="188.161" y2="120.361"/>
				</g>
			</g>
		</g>
		<g>
			
				<path fill="#A1C453" stroke="#333333" stroke-width="1.4936" stroke-linecap="round" stroke-linejoin="round" stroke-miterlimit="10" d="
				M187.605,108.761c0.459,2.991-0.99,4.755,4.043,8.633c5.033,3.877,5.445-1.323,8.756,1.229c-3.311-2.552,1.509-4.524-3.338-8.258
				C192.215,106.631,190.626,108.694,187.605,108.761z"/>
			<g>
				<line fill="none" x1="200.404" y1="118.622" x2="190.488" y2="110.981"/>
				<g>
					<polyline fill="none" stroke="#333333" stroke-width="0.9957" stroke-linecap="round" stroke-miterlimit="10" points="
						200.01,118.318 199.499,117.925 192.565,112.582 192.121,112.239 					"/>
					
						<line fill="none" stroke="#333333" stroke-width="0.9957" stroke-linecap="round" stroke-miterlimit="10" x1="190.883" y1="111.285" x2="190.938" y2="111.328"/>
				</g>
			</g>
		</g>
		<g>
			
				<path fill="#A1C453" stroke="#333333" stroke-width="1.4936" stroke-linecap="round" stroke-linejoin="round" stroke-miterlimit="10" d="
				M191.916,128.382c2.371-0.146,3.649,1.108,7.036-2.559c3.386-3.669-0.655-4.353,1.571-6.765
				c-2.228,2.412-3.433-1.498-6.693,2.034C190.569,124.626,192.072,126.015,191.916,128.382z"/>
			<g>
				<line fill="none" x1="200.524" y1="119.059" x2="193.852" y2="126.284"/>
				<g>
					<polyline fill="none" stroke="#333333" stroke-width="0.9957" stroke-linecap="round" stroke-miterlimit="10" points="
						200.187,119.424 199.749,119.898 195.631,124.357 195.25,124.77 					"/>
					
						<line fill="none" stroke="#333333" stroke-width="0.9957" stroke-linecap="round" stroke-miterlimit="10" x1="194.189" y1="125.918" x2="194.236" y2="125.867"/>
				</g>
			</g>
		</g>
		<g>
			<g>
				<path fill="#EF4529" d="M234.672,124.368c1.282,3.247-0.939,8.341-3.56,8.203c-1.989,2.135-6.92-0.311-8.2-3.56
					c-1.281-3.245-0.959-7.086,4.045-7.544C230.729,118.508,233.389,121.121,234.672,124.368z"/>
				<g>
					<path fill="none" stroke="#333333" stroke-width="1.4936" stroke-linecap="round" stroke-miterlimit="10" d="M234.888,125.082
						c0.062,0.317,0.126,0.634,0.135,0.957c0.101,1.531-0.29,3.078-1.028,4.416c-0.377,0.663-0.858,1.29-1.507,1.709
						c-0.327,0.193-0.685,0.361-1.067,0.386l-0.287,0.021c-0.081,0.04-0.147,0.118-0.223,0.176
						c-0.138,0.137-0.301,0.236-0.477,0.317c-0.688,0.349-1.497,0.359-2.242,0.213c-0.752-0.148-1.469-0.447-2.133-0.827
						c-1.305-0.782-2.474-1.892-3.085-3.307c-0.573-1.405-0.907-2.986-0.537-4.487c0.188-0.743,0.592-1.433,1.17-1.938
						c0.571-0.519,1.3-0.825,2.036-1.017c0.368-0.11,0.75-0.155,1.129-0.207c0.205,0.011,0.342-0.15,0.502-0.25
						c0.159-0.106,0.308-0.232,0.478-0.321c0.649-0.401,1.389-0.68,2.152-0.73c0.767-0.052,1.536,0.177,2.174,0.603
						c0.165,0.088,0.314,0.235,0.448,0.337c0.071,0.059,0.146,0.114,0.207,0.183c0.127,0.134,0.265,0.259,0.385,0.398"/>
					
						<line fill="none" stroke="#333333" stroke-width="1.4936" stroke-linecap="round" stroke-miterlimit="10" x1="234.373" y1="123.684" x2="234.326" y2="123.59"/>
				</g>
			</g>
			
				<ellipse transform="matrix(0.2352 -0.972 0.972 0.2352 49.2819 314.5679)" opacity="0.5" fill="#FFFFFF" enable-background="new    " cx="224.522" cy="125.969" rx="1.447" ry="1.191"/>
		</g>
		<g>
			<g>
				<path fill="#D3F46C" d="M205.781,125.595c-0.271,3.481-4.504,7.081-6.797,5.807c-2.726,1.047-6.08-3.317-5.807-6.798
					c0.272-3.479,2.25-6.786,6.949-5C204.813,118.599,206.057,122.113,205.781,125.595z"/>
				<g>
					<path fill="none" stroke="#333333" stroke-width="1.4936" stroke-linecap="round" stroke-miterlimit="10" d="M205.662,126.331
						c-0.085,0.312-0.165,0.624-0.3,0.919c-0.582,1.419-1.61,2.64-2.862,3.516c-0.629,0.43-1.338,0.781-2.104,0.873
						c-0.379,0.029-0.772,0.024-1.129-0.123L199,131.409c-0.091,0.002-0.186,0.042-0.277,0.061c-0.184,0.063-0.373,0.08-0.565,0.077
						c-0.771,0.012-1.505-0.335-2.108-0.793c-0.61-0.464-1.122-1.047-1.553-1.68c-0.829-1.276-1.394-2.786-1.32-4.325
						c0.102-1.514,0.495-3.082,1.487-4.268c0.494-0.585,1.161-1.026,1.901-1.226c0.741-0.216,1.53-0.171,2.276-0.019
						c0.379,0.062,0.741,0.188,1.104,0.309c0.18,0.1,0.372,0.017,0.562-0.003c0.188-0.025,0.376-0.074,0.568-0.08
						c0.761-0.075,1.546-0.002,2.256,0.288c0.71,0.289,1.303,0.833,1.688,1.494c0.109,0.152,0.181,0.351,0.255,0.5
						c0.039,0.084,0.081,0.167,0.106,0.256c0.056,0.176,0.124,0.348,0.17,0.525"/>
					
						<line fill="none" stroke="#333333" stroke-width="1.4936" stroke-linecap="round" stroke-miterlimit="10" x1="205.813" y1="124.849" x2="205.813" y2="124.744"/>
				</g>
			</g>
			<path opacity="0.5" fill="#FFFFFF" enable-background="new    " d="M196.876,123.336c-0.51,0.616-1.332,0.775-1.837,0.356
				c-0.509-0.42-0.506-1.26,0.002-1.875c0.509-0.616,1.332-0.776,1.84-0.356C197.385,121.879,197.383,122.72,196.876,123.336z"/>
		</g>
		<path fill="#CC924C" stroke="#333333" stroke-width="2.6551" stroke-linecap="round" stroke-miterlimit="10" d="M221.693,175.94
			l-19.021-79.899c-0.247-1.011,0.37-2.03,1.382-2.277l0,0c1.011-0.246,2.028,0.371,2.274,1.383l19.992,79.663"/>
		<g>
			
				<path fill="#A1C453" stroke="#333333" stroke-width="0.9957" stroke-linecap="round" stroke-linejoin="round" stroke-miterlimit="10" d="
				M205.428,93.273c0,0-1.726-2.372-2.189-2.747c-0.369-0.302-0.27,2.832-0.029,3.949L205.428,93.273z"/>
			
				<path fill="#A1C453" stroke="#333333" stroke-width="0.9957" stroke-linecap="round" stroke-linejoin="round" stroke-miterlimit="10" d="
				M203.123,93.593l3.723,2.547c0,0-0.406-4.471-1.836-5.686C205.01,90.454,204.096,92.428,203.123,93.593z"/>
			
				<path fill="#A1C453" stroke="#333333" stroke-width="0.9957" stroke-linecap="round" stroke-linejoin="round" stroke-miterlimit="10" d="
				M203.826,98.929c0,0-3.359-4.442-2.404-7.597l3.438,2.613L203.826,98.929z"/>
		</g>
	</g>
</g>
<g id="calque09">
	<g>
		
			<polygon fill="#CC924C" stroke="#333333" stroke-width="0.9957" stroke-linecap="round" stroke-linejoin="round" stroke-miterlimit="10" points="
			214.423,102.116 209.859,110.175 209.191,107.445 		"/>
		
			<polygon fill="#CC924C" stroke="#333333" stroke-width="0.7966" stroke-linecap="round" stroke-linejoin="round" stroke-miterlimit="10" points="
			200.404,118.622 209.28,123.07 208.613,120.34 		"/>
		
			<polygon fill="#CC924C" stroke="#333333" stroke-width="0.9957" stroke-linecap="round" stroke-linejoin="round" stroke-miterlimit="10" points="
			226.895,121.01 216.809,138.011 216.141,135.279 		"/>
		
			<polygon fill="#CC924C" stroke="#333333" stroke-width="0.9957" stroke-linecap="round" stroke-linejoin="round" stroke-miterlimit="10" points="
			210.465,150.138 216.516,154.357 216.086,152.597 		"/>
		<g>
			
				<path fill="#A1C453" stroke="#333333" stroke-width="1.4936" stroke-linecap="round" stroke-linejoin="round" stroke-miterlimit="10" d="
				M232.865,148.065c-2.669-0.259-3.869-1.884-8.294,1.598c-4.426,3.48-0.046,4.962-2.959,7.254c2.913-2.292,3.56,2.277,7.82-1.075
				C233.695,152.487,232.268,150.673,232.865,148.065z"/>
			<g>
				<line fill="none" x1="221.613" y1="156.917" x2="230.333" y2="150.059"/>
				<g>
					<polyline fill="none" stroke="#333333" stroke-width="0.9957" stroke-linecap="round" stroke-miterlimit="10" points="
						222.005,156.609 222.512,156.211 228.272,151.68 228.713,151.333 					"/>
					
						<line fill="none" stroke="#333333" stroke-width="0.9957" stroke-linecap="round" stroke-miterlimit="10" x1="229.941" y1="150.366" x2="229.887" y2="150.41"/>
				</g>
			</g>
		</g>
		<g>
			
				<path fill="#A1C453" stroke="#333333" stroke-width="1.4936" stroke-linecap="round" stroke-linejoin="round" stroke-miterlimit="10" d="
				M220.281,89.056c0.896,2.524,2.767,3.297,0.464,8.434c-2.308,5.139-4.808,1.246-6.321,4.627c1.515-3.381-3.075-2.897-0.854-7.844
				C215.789,89.322,217.895,90.268,220.281,89.056z"/>
			<g>
				<line fill="none" x1="214.423" y1="102.116" x2="218.963" y2="91.996"/>
				<g>
					<polyline fill="none" stroke="#333333" stroke-width="0.9957" stroke-linecap="round" stroke-miterlimit="10" points="
						214.627,101.662 214.891,101.073 217.89,94.389 218.119,93.877 					"/>
					
						<line fill="none" stroke="#333333" stroke-width="0.9957" stroke-linecap="round" stroke-miterlimit="10" x1="218.759" y1="92.45" x2="218.73" y2="92.515"/>
				</g>
			</g>
		</g>
		<g>
			
				<path fill="#A1C453" stroke="#333333" stroke-width="1.4936" stroke-linecap="round" stroke-linejoin="round" stroke-miterlimit="10" d="
				M226.166,104.885c-2.02,2.252-4.301,2.254-4.099,8.606c0.204,6.352,4.482,3.359,4.615,7.54c-0.133-4.181,4.449-1.708,4.254-7.825
				C230.74,107.09,228.135,107.172,226.166,104.885z"/>
			<g>
				<line fill="none" x1="226.684" y1="121.031" x2="226.283" y2="108.519"/>
				<g>
					<polyline fill="none" stroke="#333333" stroke-width="0.9957" stroke-linecap="round" stroke-miterlimit="10" points="
						226.668,120.533 226.647,119.889 226.367,111.139 226.35,110.579 					"/>
					
						<line fill="none" stroke="#333333" stroke-width="0.9957" stroke-linecap="round" stroke-miterlimit="10" x1="226.299" y1="109.016" x2="226.302" y2="109.086"/>
				</g>
			</g>
		</g>
		<g>
			
				<path fill="#A1C453" stroke="#333333" stroke-width="1.4936" stroke-linecap="round" stroke-linejoin="round" stroke-miterlimit="10" d="
				M237.898,109.658c-3.02,0.163-4.635-1.448-8.979,3.187c-4.349,4.636,0.791,5.547-2.07,8.597c2.861-3.05,4.355,1.938,8.541-2.524
				C239.576,114.451,237.676,112.669,237.898,109.658z"/>
			<g>
				<line fill="none" x1="226.848" y1="121.441" x2="235.414" y2="112.31"/>
				<g>
					<polyline fill="none" stroke="#333333" stroke-width="0.9957" stroke-linecap="round" stroke-miterlimit="10" points="
						227.188,121.078 227.63,120.607 233.62,114.222 234.004,113.813 					"/>
					
						<line fill="none" stroke="#333333" stroke-width="0.9957" stroke-linecap="round" stroke-miterlimit="10" x1="235.073" y1="112.673" x2="235.025" y2="112.724"/>
				</g>
			</g>
		</g>
		<g>
			
				<path fill="#A1C453" stroke="#333333" stroke-width="1.4936" stroke-linecap="round" stroke-linejoin="round" stroke-miterlimit="10" d="
				M200.891,142.369c2.387-0.227,3.467-1.679,7.422,1.444c3.955,3.125,0.033,4.444,2.633,6.5c-2.6-2.056-3.188,2.033-6.995-0.978
				C200.139,146.326,201.421,144.706,200.891,142.369z"/>
			<g>
				<line fill="none" x1="210.945" y1="150.313" x2="203.153" y2="144.158"/>
				<g>
					<polyline fill="none" stroke="#333333" stroke-width="0.9957" stroke-linecap="round" stroke-miterlimit="10" points="
						210.555,150.005 210.049,149.605 205.211,145.783 204.771,145.436 					"/>
					
						<line fill="none" stroke="#333333" stroke-width="0.9957" stroke-linecap="round" stroke-miterlimit="10" x1="203.544" y1="144.467" x2="203.599" y2="144.51"/>
				</g>
			</g>
		</g>
		<g>
			
				<path fill="#A1C453" stroke="#333333" stroke-width="1.4936" stroke-linecap="round" stroke-linejoin="round" stroke-miterlimit="10" d="
				M198.402,152.104c1.528-1.849,1.265-3.638,6.271-4.225s3.164,3.12,6.459,2.733c-3.295,0.387-0.818,3.69-5.642,4.256
				C200.667,155.434,200.428,153.381,198.402,152.104z"/>
			<g>
				<line fill="none" x1="211.131" y1="150.612" x2="201.267" y2="151.769"/>
				<g>
					<polyline fill="none" stroke="#333333" stroke-width="0.9957" stroke-linecap="round" stroke-miterlimit="10" points="
						210.637,150.67 209.996,150.745 203.871,151.463 203.314,151.528 					"/>
					
						<line fill="none" stroke="#333333" stroke-width="0.9957" stroke-linecap="round" stroke-miterlimit="10" x1="201.761" y1="151.711" x2="201.83" y2="151.702"/>
				</g>
			</g>
		</g>
		<g>
			
				<path fill="#A1C453" stroke="#333333" stroke-width="1.4936" stroke-linecap="round" stroke-linejoin="round" stroke-miterlimit="10" d="
				M183.992,120.9c2.438,1.794,2.661,4.065,8.961,3.248c6.303-0.819,2.914-4.787,7.059-5.324c-4.145,0.537-2.131-4.263-8.198-3.476
				C185.744,116.136,186.078,118.719,183.992,120.9z"/>
			<g>
				<line fill="none" x1="200.012" y1="118.824" x2="187.598" y2="120.435"/>
				<g>
					<polyline fill="none" stroke="#333333" stroke-width="0.9957" stroke-linecap="round" stroke-miterlimit="10" points="
						199.518,118.889 198.878,118.971 190.198,120.098 189.642,120.17 					"/>
					
						<line fill="none" stroke="#333333" stroke-width="0.9957" stroke-linecap="round" stroke-miterlimit="10" x1="188.092" y1="120.37" x2="188.161" y2="120.361"/>
				</g>
			</g>
		</g>
		<g>
			
				<path fill="#A1C453" stroke="#333333" stroke-width="1.4936" stroke-linecap="round" stroke-linejoin="round" stroke-miterlimit="10" d="
				M187.605,108.761c0.459,2.991-0.99,4.755,4.043,8.633c5.033,3.877,5.445-1.323,8.756,1.229c-3.311-2.552,1.509-4.524-3.338-8.258
				C192.215,106.631,190.626,108.694,187.605,108.761z"/>
			<g>
				<line fill="none" x1="200.404" y1="118.622" x2="190.488" y2="110.981"/>
				<g>
					<polyline fill="none" stroke="#333333" stroke-width="0.9957" stroke-linecap="round" stroke-miterlimit="10" points="
						200.01,118.318 199.499,117.925 192.565,112.582 192.121,112.239 					"/>
					
						<line fill="none" stroke="#333333" stroke-width="0.9957" stroke-linecap="round" stroke-miterlimit="10" x1="190.883" y1="111.285" x2="190.938" y2="111.328"/>
				</g>
			</g>
		</g>
		<g>
			
				<path fill="#A1C453" stroke="#333333" stroke-width="1.4936" stroke-linecap="round" stroke-linejoin="round" stroke-miterlimit="10" d="
				M191.916,128.382c2.371-0.146,3.647,1.106,7.036-2.559c3.386-3.669-0.655-4.353,1.571-6.765
				c-2.228,2.412-3.433-1.498-6.693,2.034C190.569,124.626,192.072,126.015,191.916,128.382z"/>
			<g>
				<line fill="none" x1="200.524" y1="119.059" x2="193.852" y2="126.284"/>
				<g>
					<polyline fill="none" stroke="#333333" stroke-width="0.9957" stroke-linecap="round" stroke-miterlimit="10" points="
						200.187,119.424 199.749,119.898 195.631,124.357 195.25,124.77 					"/>
					
						<line fill="none" stroke="#333333" stroke-width="0.9957" stroke-linecap="round" stroke-miterlimit="10" x1="194.189" y1="125.918" x2="194.236" y2="125.867"/>
				</g>
			</g>
		</g>
		<g>
			<g>
				<path fill="#EF4529" d="M234.672,124.368c1.282,3.247-0.939,8.341-3.56,8.203c-1.989,2.135-6.92-0.312-8.2-3.56
					c-1.281-3.245-0.959-7.086,4.045-7.544C230.729,118.508,233.389,121.121,234.672,124.368z"/>
				<g>
					<path fill="none" stroke="#333333" stroke-width="1.4936" stroke-linecap="round" stroke-miterlimit="10" d="M234.888,125.082
						c0.062,0.317,0.126,0.634,0.135,0.957c0.101,1.531-0.29,3.078-1.028,4.416c-0.377,0.662-0.858,1.29-1.507,1.709
						c-0.327,0.193-0.685,0.361-1.067,0.386l-0.287,0.021c-0.081,0.04-0.147,0.118-0.223,0.176
						c-0.138,0.137-0.301,0.235-0.477,0.316c-0.688,0.35-1.497,0.36-2.242,0.214c-0.752-0.148-1.468-0.447-2.133-0.827
						c-1.305-0.782-2.474-1.892-3.085-3.307c-0.573-1.405-0.907-2.986-0.537-4.487c0.188-0.743,0.592-1.433,1.17-1.938
						c0.571-0.519,1.3-0.825,2.036-1.017c0.368-0.11,0.75-0.155,1.129-0.207c0.205,0.011,0.342-0.15,0.502-0.25
						c0.159-0.106,0.308-0.232,0.478-0.321c0.649-0.401,1.389-0.68,2.152-0.73c0.767-0.052,1.536,0.177,2.174,0.603
						c0.165,0.088,0.314,0.235,0.448,0.337c0.071,0.059,0.146,0.114,0.207,0.183c0.127,0.134,0.265,0.259,0.385,0.398"/>
					
						<line fill="none" stroke="#333333" stroke-width="1.4936" stroke-linecap="round" stroke-miterlimit="10" x1="234.373" y1="123.684" x2="234.326" y2="123.59"/>
				</g>
			</g>
			
				<ellipse transform="matrix(0.2352 -0.972 0.972 0.2352 49.2819 314.5679)" opacity="0.5" fill="#FFFFFF" enable-background="new    " cx="224.522" cy="125.969" rx="1.447" ry="1.191"/>
		</g>
		<g>
			<g>
				<path fill="#EF4529" d="M205.781,125.595c-0.271,3.481-4.504,7.081-6.795,5.808c-2.728,1.046-6.082-3.318-5.809-6.799
					c0.272-3.479,2.25-6.786,6.949-5C204.813,118.599,206.057,122.113,205.781,125.595z"/>
				<g>
					<path fill="none" stroke="#333333" stroke-width="1.4936" stroke-linecap="round" stroke-miterlimit="10" d="M205.662,126.331
						c-0.085,0.312-0.165,0.624-0.3,0.919c-0.582,1.419-1.61,2.64-2.862,3.517c-0.629,0.43-1.338,0.781-2.104,0.873
						c-0.38,0.029-0.773,0.024-1.13-0.123L199,131.409c-0.091,0.004-0.186,0.043-0.277,0.063c-0.183,0.063-0.373,0.079-0.565,0.076
						c-0.771,0.011-1.504-0.336-2.108-0.794c-0.61-0.464-1.122-1.047-1.553-1.68c-0.828-1.275-1.394-2.785-1.32-4.325
						c0.102-1.514,0.495-3.082,1.487-4.268c0.494-0.585,1.161-1.025,1.901-1.226c0.74-0.216,1.53-0.171,2.276-0.019
						c0.379,0.062,0.741,0.188,1.104,0.309c0.18,0.1,0.372,0.017,0.561-0.003c0.189-0.025,0.377-0.074,0.569-0.08
						c0.761-0.075,1.546-0.002,2.256,0.288c0.71,0.289,1.303,0.833,1.688,1.494c0.109,0.152,0.181,0.351,0.255,0.5
						c0.039,0.084,0.081,0.167,0.106,0.256c0.056,0.176,0.124,0.348,0.17,0.525"/>
					
						<line fill="none" stroke="#333333" stroke-width="1.4936" stroke-linecap="round" stroke-miterlimit="10" x1="205.813" y1="124.849" x2="205.813" y2="124.744"/>
				</g>
			</g>
			<path opacity="0.5" fill="#FFFFFF" enable-background="new    " d="M196.876,123.336c-0.51,0.616-1.332,0.775-1.837,0.356
				c-0.509-0.42-0.506-1.26,0.002-1.875c0.509-0.616,1.332-0.776,1.84-0.356C197.385,121.879,197.383,122.72,196.876,123.336z"/>
		</g>
		<path fill="#CC924C" stroke="#333333" stroke-width="2.6551" stroke-linecap="round" stroke-miterlimit="10" d="M221.693,175.94
			l-19.021-79.899c-0.247-1.011,0.37-2.03,1.382-2.277l0,0c1.01-0.245,2.028,0.371,2.274,1.383l19.992,79.663"/>
		<g>
			
				<path fill="#A1C453" stroke="#333333" stroke-width="0.9957" stroke-linecap="round" stroke-linejoin="round" stroke-miterlimit="10" d="
				M205.428,93.273c0,0-1.726-2.372-2.189-2.747c-0.369-0.302-0.27,2.832-0.029,3.949L205.428,93.273z"/>
			
				<path fill="#A1C453" stroke="#333333" stroke-width="0.9957" stroke-linecap="round" stroke-linejoin="round" stroke-miterlimit="10" d="
				M203.123,93.593l3.723,2.547c0,0-0.406-4.471-1.836-5.686C205.01,90.454,204.096,92.428,203.123,93.593z"/>
			
				<path fill="#A1C453" stroke="#333333" stroke-width="0.9957" stroke-linecap="round" stroke-linejoin="round" stroke-miterlimit="10" d="
				M203.826,98.929c0,0-3.359-4.442-2.406-7.597l3.438,2.613L203.826,98.929z"/>
		</g>
	</g>
</g>
</svg>
