<?xml version="1.0" encoding="utf-8"?>
<!-- Generator: Adobe Illustrator 16.0.0, SVG Export Plug-In . SVG Version: 6.00 Build 0)  -->
<!DOCTYPE svg PUBLIC "-//W3C//DTD SVG 1.1//EN" "http://www.w3.org/Graphics/SVG/1.1/DTD/svg11.dtd">
<svg version="1.1" id="Calque_1" xmlns="http://www.w3.org/2000/svg" xmlns:xlink="http://www.w3.org/1999/xlink" x="0px" y="0px"
	 width="320px" height="410px" viewBox="0 0 320 410" enable-background="new 0 0 320 410" xml:space="preserve">
<g id="calque01">
	<g>
		<path fill="#CC924C" stroke="#333333" stroke-width="2.4893" stroke-linecap="round" stroke-miterlimit="10" d="M105.237,176.923
			l7.844-4.041c0.895-0.527,2.049-0.229,2.575,0.666l0,0c0.528,0.896,0.229,2.051-0.665,2.578l-7.337,4.9"/>
		<g>
			
				<path fill="#A1C453" stroke="#333333" stroke-width="0.9957" stroke-linecap="round" stroke-linejoin="round" stroke-miterlimit="10" d="
				M116.524,174.725c0,0,1.771-2.337,1.997-2.89c0.186-0.442-2.788,0.559-3.789,1.111L116.524,174.725z"/>
			
				<path fill="#A1C453" stroke="#333333" stroke-width="0.9957" stroke-linecap="round" stroke-linejoin="round" stroke-miterlimit="10" d="
				M115.553,172.61l-1.363,4.299c0,0,4.162-1.677,4.913-3.398C119.103,173.511,116.948,173.204,115.553,172.61z"/>
			
				<path fill="#A1C453" stroke="#333333" stroke-width="0.9957" stroke-linecap="round" stroke-linejoin="round" stroke-miterlimit="10" d="
				M110.646,174.823c0,0,3.285-4.5,6.58-4.496l-1.51,4.046L110.646,174.823z"/>
		</g>
	</g>
</g>
<g id="calque02">
	<g>
		<g>
			
				<path fill="#A1C453" stroke="#333333" stroke-width="0.9957" stroke-linecap="round" stroke-linejoin="round" stroke-miterlimit="10" d="
				M131.406,172.525c-0.577-1.085-0.263-1.956-2.717-2.762c-2.453-0.806-1.905,1.244-3.521,0.715
				c1.615,0.529,0.033,1.937,2.396,2.712C129.927,173.965,130.259,172.96,131.406,172.525z"/>
			<g>
				<line fill="none" x1="125.168" y1="170.479" x2="130.003" y2="172.065"/>
				<g>
					<polyline fill="none" stroke="#333333" stroke-width="0.9957" stroke-linecap="round" stroke-miterlimit="10" points="
						125.641,170.634 126.254,170.835 127.512,171.248 128.044,171.423 					"/>
					
						<line fill="none" stroke="#333333" stroke-width="0.9957" stroke-linecap="round" stroke-miterlimit="10" x1="129.53" y1="171.91" x2="129.463" y2="171.889"/>
				</g>
			</g>
		</g>
		<path fill="#CC924C" stroke="#333333" stroke-width="2.4893" stroke-linecap="round" stroke-miterlimit="10" d="M105.237,176.923
			l23.848-13.469c0.895-0.527,2.049-0.23,2.576,0.666l0,0c0.527,0.896,0.229,2.051-0.666,2.578l-23.341,14.328"/>
		<g>
			
				<path fill="#A1C453" stroke="#333333" stroke-width="0.9957" stroke-linecap="round" stroke-linejoin="round" stroke-miterlimit="10" d="
				M132.527,165.297c0,0,1.772-2.337,1.998-2.89c0.185-0.442-2.788,0.559-3.79,1.111L132.527,165.297z"/>
			
				<path fill="#A1C453" stroke="#333333" stroke-width="0.9957" stroke-linecap="round" stroke-linejoin="round" stroke-miterlimit="10" d="
				M131.557,163.181l-1.363,4.3c0,0,4.162-1.677,4.914-3.397C135.107,164.083,132.951,163.776,131.557,163.181z"/>
			
				<path fill="#A1C453" stroke="#333333" stroke-width="0.9957" stroke-linecap="round" stroke-linejoin="round" stroke-miterlimit="10" d="
				M126.649,165.395c0,0,3.286-4.499,6.581-4.495l-1.51,4.045L126.649,165.395z"/>
		</g>
	</g>
</g>
<g id="calque03">
	<g>
		<g>
			
				<path fill="#A1C453" stroke="#333333" stroke-width="1.4936" stroke-linecap="round" stroke-linejoin="round" stroke-miterlimit="10" d="
				M135.459,179.642c-0.564-2.621,0.62-4.259-4.041-7.418c-4.662-3.158-4.744,1.467-7.812-0.611c3.066,2.078-1.09,4.08,3.4,7.121
				C131.497,181.776,132.791,179.865,135.459,179.642z"/>
			<g>
				<line fill="none" x1="123.607" y1="171.612" x2="132.793" y2="177.835"/>
				<g>
					<polyline fill="none" stroke="#333333" stroke-width="0.9957" stroke-linecap="round" stroke-miterlimit="10" points="
						124.02,171.892 124.554,172.253 130.622,176.364 131.086,176.679 					"/>
					
						<line fill="none" stroke="#333333" stroke-width="0.9957" stroke-linecap="round" stroke-miterlimit="10" x1="132.381" y1="177.556" x2="132.323" y2="177.517"/>
				</g>
			</g>
		</g>
		<g>
			
				<path fill="#A1C453" stroke="#333333" stroke-width="0.9957" stroke-linecap="round" stroke-linejoin="round" stroke-miterlimit="10" d="
				M128.425,158.172c-1.056,0.586-1.916,0.29-2.667,2.711c-0.751,2.421,1.252,1.851,0.758,3.444c0.494-1.594,1.9-0.064,2.623-2.396
				C129.863,159.599,128.869,159.291,128.425,158.172z"/>
			<g>
				<line fill="none" x1="126.516" y1="164.327" x2="127.801" y2="160.079"/>
				<g>
					<polyline fill="none" stroke="#333333" stroke-width="0.9957" stroke-linecap="round" stroke-miterlimit="10" points="
						126.66,163.851 126.847,163.233 127.041,162.589 127.204,162.053 					"/>
					
						<line fill="none" stroke="#333333" stroke-width="0.9957" stroke-linecap="round" stroke-miterlimit="10" x1="127.656" y1="160.556" x2="127.637" y2="160.623"/>
				</g>
			</g>
		</g>
		<path fill="#CC924C" stroke="#333333" stroke-width="2.4893" stroke-linecap="round" stroke-miterlimit="10" d="M105.237,176.923
			l31.219-17.813c0.896-0.527,2.051-0.229,2.578,0.667l0,0c0.527,0.896,0.229,2.05-0.666,2.577l-30.714,18.672"/>
		<g>
			
				<path fill="#A1C453" stroke="#333333" stroke-width="0.9957" stroke-linecap="round" stroke-linejoin="round" stroke-miterlimit="10" d="
				M139.9,160.954c0,0,1.771-2.337,1.998-2.891c0.185-0.441-2.787,0.559-3.789,1.113L139.9,160.954z"/>
			
				<path fill="#A1C453" stroke="#333333" stroke-width="0.9957" stroke-linecap="round" stroke-linejoin="round" stroke-miterlimit="10" d="
				M138.929,158.839l-1.362,4.299c0,0,4.162-1.676,4.912-3.397C142.479,159.74,140.324,159.433,138.929,158.839z"/>
			
				<path fill="#A1C453" stroke="#333333" stroke-width="0.9957" stroke-linecap="round" stroke-linejoin="round" stroke-miterlimit="10" d="
				M134.022,161.052c0,0,3.286-4.499,6.58-4.496l-1.509,4.047L134.022,161.052z"/>
		</g>
	</g>
</g>
<g id="calque04">
	<g>
		
			<polygon fill="#CC924C" stroke="#333333" stroke-width="0.9957" stroke-linecap="round" stroke-linejoin="round" stroke-miterlimit="10" points="
			126.705,158.729 124.409,165.741 125.972,164.82 		"/>
		<g>
			
				<path fill="#A1C453" stroke="#333333" stroke-width="1.4936" stroke-linecap="round" stroke-linejoin="round" stroke-miterlimit="10" d="
				M135.15,179.58c-0.522-2.629,0.688-4.247-3.922-7.481c-4.608-3.232-4.766,1.39-7.799-0.737c3.033,2.127-1.155,4.062,3.285,7.176
				C131.154,181.651,132.48,179.761,135.15,179.58z"/>
			<g>
				<line fill="none" x1="123.43" y1="171.361" x2="132.512" y2="177.731"/>
				<g>
					<polyline fill="none" stroke="#333333" stroke-width="0.9957" stroke-linecap="round" stroke-miterlimit="10" points="
						123.837,171.647 124.365,172.018 130.365,176.226 130.824,176.548 					"/>
					
						<line fill="none" stroke="#333333" stroke-width="0.9957" stroke-linecap="round" stroke-miterlimit="10" x1="132.104" y1="177.445" x2="132.047" y2="177.405"/>
				</g>
			</g>
		</g>
		<g>
			
				<path fill="#A1C453" stroke="#333333" stroke-width="0.9957" stroke-linecap="round" stroke-linejoin="round" stroke-miterlimit="10" d="
				M152.188,165.228c-0.646-1.792,0.03-3.06-3.555-4.84c-3.585-1.779-3.202,1.486-5.562,0.314c2.358,1.172-0.378,2.979,3.074,4.692
				C149.602,167.11,150.332,165.64,152.188,165.228z"/>
			<g>
				<line fill="none" x1="143.073" y1="160.702" x2="150.137" y2="164.21"/>
				<g>
					<polyline fill="none" stroke="#333333" stroke-width="0.9957" stroke-linecap="round" stroke-miterlimit="10" points="
						143.52,160.924 144.097,161.211 147.788,163.044 148.29,163.293 					"/>
					
						<line fill="none" stroke="#333333" stroke-width="0.9957" stroke-linecap="round" stroke-miterlimit="10" x1="149.69" y1="163.988" x2="149.628" y2="163.957"/>
				</g>
			</g>
		</g>
		<g>
			
				<path fill="#A1C453" stroke="#333333" stroke-width="1.4936" stroke-linecap="round" stroke-linejoin="round" stroke-miterlimit="10" d="
				M131.382,147.321c0.905,2.223,2.608,2.836,0.758,7.523c-1.853,4.688-4.247,1.311-5.464,4.396
				c1.217-3.086-2.865-2.467-1.083-6.981C127.376,147.744,129.299,148.503,131.382,147.321z"/>
			<g>
				<line fill="none" x1="126.676" y1="159.241" x2="130.322" y2="150.005"/>
				<g>
					<polyline fill="none" stroke="#333333" stroke-width="0.9957" stroke-linecap="round" stroke-miterlimit="10" points="
						126.858,158.778 127.096,158.178 129.359,152.443 129.565,151.922 					"/>
					
						<line fill="none" stroke="#333333" stroke-width="0.9957" stroke-linecap="round" stroke-miterlimit="10" x1="130.14" y1="150.468" x2="130.113" y2="150.533"/>
				</g>
			</g>
		</g>
		<g>
			
				<path fill="#A1C453" stroke="#333333" stroke-width="0.9957" stroke-linecap="round" stroke-linejoin="round" stroke-miterlimit="10" d="
				M123.419,152.065c1.303,0.549,2.269,0.096,3.45,2.82c1.182,2.727-1.224,2.316-0.445,4.109c-0.777-1.793-2.222,0.166-3.36-2.458
				C121.926,153.912,123.041,153.428,123.419,152.065z"/>
			<g>
				<line fill="none" x1="126.424" y1="158.995" x2="124.094" y2="153.626"/>
				<g>
					<polyline fill="none" stroke="#333333" stroke-width="0.9957" stroke-linecap="round" stroke-miterlimit="10" points="
						126.226,158.538 125.969,157.946 125.138,156.031 124.914,155.517 					"/>
					
						<line fill="none" stroke="#333333" stroke-width="0.9957" stroke-linecap="round" stroke-miterlimit="10" x1="124.292" y1="154.083" x2="124.32" y2="154.146"/>
				</g>
			</g>
		</g>
		<path fill="#CC924C" stroke="#333333" stroke-width="2.6551" stroke-linecap="round" stroke-miterlimit="10" d="M105.237,176.923
			l38.854-22.31c0.896-0.528,2.05-0.229,2.578,0.667l0,0c0.526,0.896,0.229,2.05-0.668,2.578l-38.347,23.168"/>
		<g>
			
				<path fill="#A1C453" stroke="#333333" stroke-width="0.9957" stroke-linecap="round" stroke-linejoin="round" stroke-miterlimit="10" d="
				M147.535,156.456c0,0,1.771-2.336,1.997-2.889c0.185-0.443-2.788,0.559-3.79,1.111L147.535,156.456z"/>
			
				<path fill="#A1C453" stroke="#333333" stroke-width="0.9957" stroke-linecap="round" stroke-linejoin="round" stroke-miterlimit="10" d="
				M146.563,154.341l-1.362,4.3c0,0,4.162-1.677,4.913-3.397C150.113,155.243,147.959,154.936,146.563,154.341z"/>
			
				<path fill="#A1C453" stroke="#333333" stroke-width="0.9957" stroke-linecap="round" stroke-linejoin="round" stroke-miterlimit="10" d="
				M141.656,156.555c0,0,3.286-4.5,6.58-4.497l-1.509,4.047L141.656,156.555z"/>
		</g>
	</g>
</g>
<g id="calque05">
	<g>
		
			<polygon fill="#CC924C" stroke="#333333" stroke-width="0.9957" stroke-linecap="round" stroke-linejoin="round" stroke-miterlimit="10" points="
			159.332,166.062 140.147,161.306 142.568,159.88 		"/>
		
			<polygon fill="#CC924C" stroke="#333333" stroke-width="0.9957" stroke-linecap="round" stroke-linejoin="round" stroke-miterlimit="10" points="
			126.705,158.729 124.41,165.741 125.973,164.821 		"/>
		<g>
			
				<path fill="#A1C453" stroke="#333333" stroke-width="1.4936" stroke-linecap="round" stroke-linejoin="round" stroke-miterlimit="10" d="
				M135.15,179.58c-0.522-2.629,0.688-4.247-3.922-7.481c-4.608-3.232-4.766,1.39-7.799-0.737c3.033,2.127-1.155,4.062,3.285,7.176
				C131.154,181.651,132.48,179.761,135.15,179.58z"/>
			<g>
				<line fill="none" x1="123.43" y1="171.361" x2="132.512" y2="177.731"/>
				<g>
					<polyline fill="none" stroke="#333333" stroke-width="0.9957" stroke-linecap="round" stroke-miterlimit="10" points="
						123.837,171.647 124.365,172.018 130.365,176.226 130.824,176.548 					"/>
					
						<line fill="none" stroke="#333333" stroke-width="0.9957" stroke-linecap="round" stroke-miterlimit="10" x1="132.104" y1="177.445" x2="132.047" y2="177.405"/>
				</g>
			</g>
		</g>
		<g>
			
				<path fill="#A1C453" stroke="#333333" stroke-width="0.9957" stroke-linecap="round" stroke-linejoin="round" stroke-miterlimit="10" d="
				M167.082,162.524c-1.492-0.701-1.854-1.891-5.138-0.785c-3.284,1.104-1.051,2.868-3.211,3.596c2.16-0.728,1.592,2.055,4.754,0.99
				S166.198,163.914,167.082,162.524z"/>
			<g>
				<line fill="none" x1="158.734" y1="165.335" x2="165.203" y2="163.157"/>
				<g>
					<polyline fill="none" stroke="#333333" stroke-width="0.9957" stroke-linecap="round" stroke-miterlimit="10" points="
						159.206,165.176 159.817,164.971 162.718,163.994 163.249,163.814 					"/>
					
						<line fill="none" stroke="#333333" stroke-width="0.9957" stroke-linecap="round" stroke-miterlimit="10" x1="164.731" y1="163.316" x2="164.665" y2="163.339"/>
				</g>
			</g>
		</g>
		<g>
			
				<path fill="#A1C453" stroke="#333333" stroke-width="1.4936" stroke-linecap="round" stroke-linejoin="round" stroke-miterlimit="10" d="
				M173.377,173.324c-1.027-2.845,0.049-4.856-5.644-7.683c-5.69-2.823-5.082,2.359-8.826,0.5c3.744,1.859-0.602,4.729,4.88,7.448
				C169.271,176.312,170.428,173.979,173.377,173.324z"/>
			<g>
				<line fill="none" x1="158.907" y1="166.142" x2="170.121" y2="171.708"/>
				<g>
					<polyline fill="none" stroke="#333333" stroke-width="0.9957" stroke-linecap="round" stroke-miterlimit="10" points="
						159.354,166.363 159.931,166.649 167.772,170.542 168.274,170.791 					"/>
					
						<line fill="none" stroke="#333333" stroke-width="0.9957" stroke-linecap="round" stroke-miterlimit="10" x1="169.675" y1="171.486" x2="169.612" y2="171.455"/>
				</g>
			</g>
		</g>
		<g>
			
				<path fill="#A1C453" stroke="#333333" stroke-width="1.4936" stroke-linecap="round" stroke-linejoin="round" stroke-miterlimit="10" d="
				M131.382,147.321c0.905,2.223,2.608,2.836,0.758,7.523c-1.853,4.688-4.247,1.311-5.464,4.396
				c1.217-3.086-2.865-2.467-1.083-6.981C127.376,147.744,129.299,148.503,131.382,147.321z"/>
			<g>
				<line fill="none" x1="126.676" y1="159.241" x2="130.322" y2="150.005"/>
				<g>
					<polyline fill="none" stroke="#333333" stroke-width="0.9957" stroke-linecap="round" stroke-miterlimit="10" points="
						126.858,158.778 127.096,158.178 129.359,152.443 129.565,151.922 					"/>
					
						<line fill="none" stroke="#333333" stroke-width="0.9957" stroke-linecap="round" stroke-miterlimit="10" x1="130.14" y1="150.468" x2="130.113" y2="150.533"/>
				</g>
			</g>
		</g>
		<g>
			
				<path fill="#A1C453" stroke="#333333" stroke-width="1.4936" stroke-linecap="round" stroke-linejoin="round" stroke-miterlimit="10" d="
				M121.344,147.746c2.211,0.931,3.848,0.161,5.854,4.784c2.007,4.625-2.074,3.931-0.755,6.973c-1.319-3.042-3.771,0.282-5.702-4.17
				C118.809,150.878,120.705,150.056,121.344,147.746z"/>
			<g>
				<line fill="none" x1="126.443" y1="159.503" x2="122.49" y2="150.393"/>
				<g>
					<polyline fill="none" stroke="#333333" stroke-width="0.9957" stroke-linecap="round" stroke-miterlimit="10" points="
						126.245,159.046 125.988,158.454 123.534,152.798 123.311,152.283 					"/>
					
						<line fill="none" stroke="#333333" stroke-width="0.9957" stroke-linecap="round" stroke-miterlimit="10" x1="122.688" y1="150.85" x2="122.717" y2="150.913"/>
				</g>
			</g>
		</g>
		<g>
			
				<path fill="#A1C453" stroke="#333333" stroke-width="0.9957" stroke-linecap="round" stroke-linejoin="round" stroke-miterlimit="10" d="
				M156.65,139.986c-1.387,0.659-2.456,0.214-3.604,3.23c-1.148,3.016,1.441,2.452,0.686,4.438c0.757-1.985,2.42,0.071,3.526-2.833
				C158.363,141.915,157.127,141.445,156.65,139.986z"/>
			<g>
				<line fill="none" x1="153.731" y1="147.654" x2="155.994" y2="141.712"/>
				<g>
					<polyline fill="none" stroke="#333333" stroke-width="0.9957" stroke-linecap="round" stroke-miterlimit="10" points="
						153.908,147.189 154.139,146.586 155.062,144.162 155.261,143.639 					"/>
					
						<line fill="none" stroke="#333333" stroke-width="0.9957" stroke-linecap="round" stroke-miterlimit="10" x1="155.817" y1="142.177" x2="155.792" y2="142.242"/>
				</g>
			</g>
		</g>
		<path fill="#CC924C" stroke="#333333" stroke-width="2.6551" stroke-linecap="round" stroke-miterlimit="10" d="M105.237,176.923
			l52.751-30.497c0.896-0.528,2.052-0.229,2.578,0.667l0,0c0.527,0.896,0.229,2.05-0.667,2.578l-52.245,31.355"/>
		<g>
			
				<path fill="#A1C453" stroke="#333333" stroke-width="0.9957" stroke-linecap="round" stroke-linejoin="round" stroke-miterlimit="10" d="
				M161.434,148.269c0,0,1.771-2.336,1.998-2.889c0.185-0.443-2.788,0.558-3.791,1.111L161.434,148.269z"/>
			
				<path fill="#A1C453" stroke="#333333" stroke-width="0.9957" stroke-linecap="round" stroke-linejoin="round" stroke-miterlimit="10" d="
				M160.461,146.153l-1.363,4.299c0,0,4.163-1.676,4.914-3.396C164.012,147.056,161.857,146.748,160.461,146.153z"/>
			
				<path fill="#A1C453" stroke="#333333" stroke-width="0.9957" stroke-linecap="round" stroke-linejoin="round" stroke-miterlimit="10" d="
				M155.555,148.367c0,0,3.286-4.5,6.58-4.497l-1.509,4.047L155.555,148.367z"/>
		</g>
		<g>
			
				<path fill="#FFFFFF" stroke="#333333" stroke-width="0.9957" stroke-linecap="round" stroke-linejoin="round" stroke-miterlimit="10" d="
				M158.559,167.087c0.004,0.445-0.758,0.902-1.365,1.182c-1.092,0.504-2.927,0.204-2.938-1.197
				c-0.012-1.408,1.816-1.747,2.919-1.268C157.783,166.072,158.555,166.638,158.559,167.087z"/>
			
				<path fill="#FFFFFF" stroke="#333333" stroke-width="0.9957" stroke-linecap="round" stroke-linejoin="round" stroke-miterlimit="10" d="
				M158.664,167.138c0.384-0.227,1.161,0.203,1.706,0.59c0.982,0.693,1.64,2.434,0.433,3.145c-1.213,0.715-2.422-0.7-2.557-1.894
				C158.172,168.314,158.277,167.364,158.664,167.138z"/>
			
				<path fill="#FFFFFF" stroke="#333333" stroke-width="0.9957" stroke-linecap="round" stroke-linejoin="round" stroke-miterlimit="10" d="
				M158.657,167.026c-0.389-0.219-0.403-1.107-0.342-1.772c0.109-1.198,1.287-2.638,2.507-1.947
				c1.227,0.693,0.604,2.446-0.361,3.161C159.924,166.863,159.049,167.247,158.657,167.026z"/>
			
				<path fill="#FFFFFF" stroke="#333333" stroke-width="0.9957" stroke-linecap="round" stroke-linejoin="round" stroke-miterlimit="10" d="
				M158.521,166.966c-0.385,0.227-1.16-0.205-1.705-0.59c-0.981-0.695-1.641-2.434-0.434-3.145c1.213-0.715,2.422,0.699,2.557,1.893
				C159.014,165.788,158.908,166.738,158.521,166.966z"/>
			
				<path fill="#FFFFFF" stroke="#333333" stroke-width="0.9957" stroke-linecap="round" stroke-linejoin="round" stroke-miterlimit="10" d="
				M158.534,167.081c0.388,0.219,0.402,1.106,0.342,1.771c-0.109,1.199-1.287,2.637-2.507,1.947c-1.228-0.693-0.605-2.446,0.36-3.16
				C157.269,167.243,158.144,166.858,158.534,167.081z"/>
			
				<path fill="#FFFFFF" stroke="#333333" stroke-width="0.9957" stroke-linecap="round" stroke-linejoin="round" stroke-miterlimit="10" d="
				M158.629,166.999c-0.004-0.445,0.757-0.902,1.363-1.182c1.094-0.504,2.928-0.204,2.939,1.197
				c0.012,1.408-1.815,1.747-2.917,1.268C159.402,168.014,158.633,167.448,158.629,166.999z"/>
			
				<circle fill="#F9D53E" stroke="#333333" stroke-width="0.9957" stroke-linecap="round" stroke-linejoin="round" stroke-miterlimit="10" cx="158.522" cy="166.966" r="0.926"/>
		</g>
	</g>
</g>
<g id="calque06">
	<g>
		
			<polygon fill="#CC924C" stroke="#333333" stroke-width="0.7966" stroke-linecap="round" stroke-linejoin="round" stroke-miterlimit="10" points="
			153.979,140.005 152.279,149.785 154.701,148.358 		"/>
		
			<polygon fill="#CC924C" stroke="#333333" stroke-width="0.9957" stroke-linecap="round" stroke-linejoin="round" stroke-miterlimit="10" points="
			159.331,166.06 140.146,161.304 142.566,159.878 		"/>
		
			<polygon fill="#CC924C" stroke="#333333" stroke-width="0.9957" stroke-linecap="round" stroke-linejoin="round" stroke-miterlimit="10" points="
			126.703,158.726 124.408,165.738 125.971,164.817 		"/>
		<g>
			
				<path fill="#A1C453" stroke="#333333" stroke-width="1.4936" stroke-linecap="round" stroke-linejoin="round" stroke-miterlimit="10" d="
				M135.148,179.577c-0.521-2.629,0.689-4.248-3.921-7.481c-4.609-3.232-4.767,1.39-7.8-0.737c3.033,2.127-1.154,4.063,3.285,7.176
				C131.151,181.648,132.479,179.757,135.148,179.577z"/>
			<g>
				<line fill="none" x1="123.428" y1="171.358" x2="132.51" y2="177.729"/>
				<g>
					<polyline fill="none" stroke="#333333" stroke-width="0.9957" stroke-linecap="round" stroke-miterlimit="10" points="
						123.835,171.645 124.363,172.015 130.363,176.223 130.822,176.545 					"/>
					
						<line fill="none" stroke="#333333" stroke-width="0.9957" stroke-linecap="round" stroke-miterlimit="10" x1="132.103" y1="177.442" x2="132.045" y2="177.402"/>
				</g>
			</g>
		</g>
		<g>
			
				<path fill="#A1C453" stroke="#333333" stroke-width="1.4936" stroke-linecap="round" stroke-linejoin="round" stroke-miterlimit="10" d="
				M174.563,160.71c-2.738-1.285-3.399-3.467-9.423-1.441c-6.021,2.026-1.926,5.261-5.89,6.594c3.964-1.333,2.92,3.768,8.719,1.816
				C173.771,165.726,172.939,163.258,174.563,160.71z"/>
			<g>
				<line fill="none" x1="159.25" y1="165.862" x2="171.116" y2="161.87"/>
				<g>
					<polyline fill="none" stroke="#333333" stroke-width="0.9957" stroke-linecap="round" stroke-miterlimit="10" points="
						159.722,165.703 160.333,165.498 168.631,162.706 169.162,162.527 					"/>
					
						<line fill="none" stroke="#333333" stroke-width="0.9957" stroke-linecap="round" stroke-miterlimit="10" x1="170.645" y1="162.029" x2="170.578" y2="162.051"/>
				</g>
			</g>
		</g>
		<g>
			
				<path fill="#A1C453" stroke="#333333" stroke-width="1.4936" stroke-linecap="round" stroke-linejoin="round" stroke-miterlimit="10" d="
				M173.376,173.321c-1.028-2.844,0.048-4.855-5.645-7.682c-5.69-2.824-5.082,2.358-8.827,0.498c3.745,1.86-0.6,4.729,4.882,7.449
				C169.27,176.31,170.427,173.976,173.376,173.321z"/>
			<g>
				<line fill="none" x1="158.905" y1="166.138" x2="170.119" y2="171.705"/>
				<g>
					<polyline fill="none" stroke="#333333" stroke-width="0.9957" stroke-linecap="round" stroke-miterlimit="10" points="
						159.352,166.359 159.929,166.646 167.771,170.539 168.272,170.788 					"/>
					
						<line fill="none" stroke="#333333" stroke-width="0.9957" stroke-linecap="round" stroke-miterlimit="10" x1="169.673" y1="171.483" x2="169.61" y2="171.452"/>
				</g>
			</g>
		</g>
		<g>
			
				<path fill="#A1C453" stroke="#333333" stroke-width="1.4936" stroke-linecap="round" stroke-linejoin="round" stroke-miterlimit="10" d="
				M131.381,147.319c0.905,2.222,2.607,2.835,0.758,7.523c-1.854,4.688-4.248,1.311-5.465,4.396
				c1.217-3.085-2.865-2.466-1.082-6.981C127.375,147.742,129.297,148.501,131.381,147.319z"/>
			<g>
				<line fill="none" x1="126.674" y1="159.238" x2="130.321" y2="150.002"/>
				<g>
					<polyline fill="none" stroke="#333333" stroke-width="0.9957" stroke-linecap="round" stroke-miterlimit="10" points="
						126.856,158.775 127.094,158.175 129.358,152.44 129.564,151.919 					"/>
					
						<line fill="none" stroke="#333333" stroke-width="0.9957" stroke-linecap="round" stroke-miterlimit="10" x1="130.139" y1="150.465" x2="130.112" y2="150.53"/>
				</g>
			</g>
		</g>
		<g>
			
				<path fill="#A1C453" stroke="#333333" stroke-width="1.4936" stroke-linecap="round" stroke-linejoin="round" stroke-miterlimit="10" d="
				M121.342,147.743c2.212,0.932,3.849,0.16,5.854,4.785c2.008,4.623-2.074,3.93-0.755,6.972c-1.319-3.042-3.771,0.282-5.702-4.171
				C118.807,150.875,120.703,150.053,121.342,147.743z"/>
			<g>
				<line fill="none" x1="126.441" y1="159.5" x2="122.488" y2="150.39"/>
				<g>
					<polyline fill="none" stroke="#333333" stroke-width="0.9957" stroke-linecap="round" stroke-miterlimit="10" points="
						126.243,159.043 125.986,158.451 123.532,152.795 123.309,152.28 					"/>
					
						<line fill="none" stroke="#333333" stroke-width="0.9957" stroke-linecap="round" stroke-miterlimit="10" x1="122.687" y1="150.847" x2="122.715" y2="150.91"/>
				</g>
			</g>
		</g>
		<g>
			
				<path fill="#A1C453" stroke="#333333" stroke-width="1.4936" stroke-linecap="round" stroke-linejoin="round" stroke-miterlimit="10" d="
				M159.729,124.907c-2.73,1.299-4.838,0.422-7.1,6.361c-2.26,5.938,2.84,4.828,1.351,8.736c1.489-3.908,4.766,0.139,6.942-5.578
				C163.1,128.706,160.664,127.779,159.729,124.907z"/>
			<g>
				<line fill="none" x1="153.979" y1="140.005" x2="158.436" y2="128.306"/>
				<g>
					<polyline fill="none" stroke="#333333" stroke-width="0.9957" stroke-linecap="round" stroke-miterlimit="10" points="
						154.156,139.54 154.387,138.937 157.502,130.756 157.702,130.232 					"/>
					
						<line fill="none" stroke="#333333" stroke-width="0.9957" stroke-linecap="round" stroke-miterlimit="10" x1="158.258" y1="128.771" x2="158.233" y2="128.836"/>
				</g>
			</g>
		</g>
		<g>
			
				<path fill="#A1C453" stroke="#333333" stroke-width="0.9957" stroke-linecap="round" stroke-linejoin="round" stroke-miterlimit="10" d="
				M145.986,136.622c0.559,1.508-0.006,2.582,3.029,4.059c3.035,1.479,2.69-1.273,4.688-0.303c-1.997-0.971,0.3-2.513-2.623-3.936
				C148.155,135.019,147.549,136.263,145.986,136.622z"/>
			<g>
				<line fill="none" x1="153.703" y1="140.378" x2="147.723" y2="137.468"/>
				<g>
					<polyline fill="none" stroke="#333333" stroke-width="0.9957" stroke-linecap="round" stroke-miterlimit="10" points="
						153.256,140.16 152.676,139.878 150.08,138.615 149.576,138.37 					"/>
					
						<line fill="none" stroke="#333333" stroke-width="0.9957" stroke-linecap="round" stroke-miterlimit="10" x1="148.17" y1="137.686" x2="148.233" y2="137.716"/>
				</g>
			</g>
		</g>
		<g>
			<g>
				<path fill="#D3F46C" d="M159.143,172.095c-2.021,1.596-6.088,1.11-6.547-0.768c-1.932-0.95-1.252-4.951,0.768-6.547
					c2.021-1.596,4.8-2.185,6.188,1.252C162.442,168.063,161.162,170.499,159.143,172.095z"/>
				<g>
					<path fill="none" stroke="#333333" stroke-width="0.9957" stroke-linecap="round" stroke-miterlimit="10" d="M158.731,172.375
						c-0.193,0.091-0.375,0.213-0.581,0.279c-1.064,0.434-2.262,0.49-3.383,0.272c-0.56-0.119-1.109-0.33-1.562-0.688
						c-0.213-0.19-0.412-0.406-0.521-0.674c-0.021-0.338-0.419-0.349-0.571-0.602c-0.797-0.875-0.747-2.183-0.497-3.266
						c0.275-1.107,0.847-2.17,1.733-2.906c0.896-0.698,1.97-1.268,3.129-1.273c1.18-0.028,2.201,0.794,2.727,1.802
						c0.156,0.237,0.223,0.537,0.398,0.755c0.226,0.178,0.46,0.343,0.656,0.555c0.406,0.399,0.751,0.885,0.895,1.443
						c0.149,0.558,0.081,1.155-0.13,1.687c-0.053,0.128-0.108,0.275-0.175,0.382l-0.088,0.162c-0.054,0.11-0.132,0.207-0.198,0.311"
						/>
					
						<line fill="none" stroke="#333333" stroke-width="0.9957" stroke-linecap="round" stroke-miterlimit="10" x1="159.523" y1="171.774" x2="159.575" y2="171.727"/>
				</g>
			</g>
			
				<ellipse transform="matrix(0.9985 -0.0551 0.0551 0.9985 -8.8763 8.8454)" opacity="0.5" fill="#FFFFFF" enable-background="new    " cx="155.856" cy="165.276" rx="1.067" ry="0.878"/>
		</g>
		<path fill="#CC924C" stroke="#333333" stroke-width="2.6551" stroke-linecap="round" stroke-miterlimit="10" d="M105.236,176.92
			l59.688-34.583c0.896-0.527,2.049-0.229,2.577,0.667l0,0c0.527,0.896,0.229,2.05-0.667,2.577l-59.183,35.442"/>
		<g>
			
				<path fill="#A1C453" stroke="#333333" stroke-width="0.9957" stroke-linecap="round" stroke-linejoin="round" stroke-miterlimit="10" d="
				M168.367,144.18c0,0,1.772-2.337,1.999-2.89c0.184-0.441-2.788,0.559-3.79,1.111L168.367,144.18z"/>
			
				<path fill="#A1C453" stroke="#333333" stroke-width="0.9957" stroke-linecap="round" stroke-linejoin="round" stroke-miterlimit="10" d="
				M167.396,142.065l-1.362,4.298c0,0,4.161-1.677,4.913-3.397C170.947,142.966,168.792,142.659,167.396,142.065z"/>
			
				<path fill="#A1C453" stroke="#333333" stroke-width="0.9957" stroke-linecap="round" stroke-linejoin="round" stroke-miterlimit="10" d="
				M162.49,144.278c0,0,3.284-4.5,6.579-4.496l-1.51,4.045L162.49,144.278z"/>
		</g>
		<g>
			
				<path fill="#FFFFFF" stroke="#333333" stroke-width="0.9957" stroke-linecap="round" stroke-linejoin="round" stroke-miterlimit="10" d="
				M152.48,140.507c0.003,0.445-0.758,0.902-1.363,1.182c-1.094,0.504-2.929,0.204-2.94-1.197c-0.012-1.408,1.817-1.748,2.918-1.267
				C151.705,139.493,152.477,140.058,152.48,140.507z"/>
			
				<path fill="#FFFFFF" stroke="#333333" stroke-width="0.9957" stroke-linecap="round" stroke-linejoin="round" stroke-miterlimit="10" d="
				M152.586,140.558c0.385-0.227,1.16,0.203,1.706,0.59c0.982,0.694,1.64,2.434,0.433,3.145c-1.213,0.715-2.422-0.699-2.557-1.893
				C152.094,141.735,152.199,140.785,152.586,140.558z"/>
			
				<path fill="#FFFFFF" stroke="#333333" stroke-width="0.9957" stroke-linecap="round" stroke-linejoin="round" stroke-miterlimit="10" d="
				M152.58,140.446c-0.39-0.219-0.404-1.107-0.343-1.772c0.109-1.198,1.287-2.637,2.507-1.946c1.227,0.693,0.604,2.446-0.36,3.159
				C153.846,140.284,152.97,140.668,152.58,140.446z"/>
			
				<path fill="#FFFFFF" stroke="#333333" stroke-width="0.9957" stroke-linecap="round" stroke-linejoin="round" stroke-miterlimit="10" d="
				M152.443,140.386c-0.384,0.227-1.159-0.203-1.705-0.59c-0.981-0.695-1.641-2.434-0.434-3.145
				c1.213-0.715,2.422,0.699,2.557,1.893C152.936,139.208,152.83,140.158,152.443,140.386z"/>
			
				<path fill="#FFFFFF" stroke="#333333" stroke-width="0.9957" stroke-linecap="round" stroke-linejoin="round" stroke-miterlimit="10" d="
				M152.456,140.501c0.388,0.219,0.402,1.107,0.341,1.771c-0.109,1.199-1.286,2.638-2.506,1.947c-1.228-0.693-0.605-2.446,0.36-3.16
				C151.189,140.663,152.065,140.279,152.456,140.501z"/>
			
				<path fill="#FFFFFF" stroke="#333333" stroke-width="0.9957" stroke-linecap="round" stroke-linejoin="round" stroke-miterlimit="10" d="
				M152.551,140.42c-0.004-0.446,0.758-0.903,1.364-1.183c1.093-0.504,2.927-0.204,2.938,1.197c0.015,1.408-1.815,1.748-2.916,1.268
				C153.324,141.435,152.555,140.868,152.551,140.42z"/>
			
				<circle fill="#F9D53E" stroke="#333333" stroke-width="0.9957" stroke-linecap="round" stroke-linejoin="round" stroke-miterlimit="10" cx="152.444" cy="140.387" r="0.926"/>
		</g>
	</g>
</g>
<g id="calque07">
	<g>
		
			<polygon fill="#CC924C" stroke="#333333" stroke-width="0.7966" stroke-linecap="round" stroke-linejoin="round" stroke-miterlimit="10" points="
			153.98,140.007 152.281,149.788 154.702,148.361 		"/>
		
			<polygon fill="#CC924C" stroke="#333333" stroke-width="0.9957" stroke-linecap="round" stroke-linejoin="round" stroke-miterlimit="10" points="
			159.332,166.062 140.147,161.306 142.568,159.88 		"/>
		
			<polygon fill="#CC924C" stroke="#333333" stroke-width="0.9957" stroke-linecap="round" stroke-linejoin="round" stroke-miterlimit="10" points="
			126.705,158.729 124.41,165.741 125.973,164.821 		"/>
		<g>
			
				<path fill="#A1C453" stroke="#333333" stroke-width="1.4936" stroke-linecap="round" stroke-linejoin="round" stroke-miterlimit="10" d="
				M135.15,179.58c-0.522-2.629,0.688-4.247-3.922-7.481c-4.608-3.232-4.766,1.39-7.799-0.737c3.033,2.127-1.155,4.062,3.285,7.176
				C131.154,181.651,132.48,179.761,135.15,179.58z"/>
			<g>
				<line fill="none" x1="123.43" y1="171.361" x2="132.512" y2="177.731"/>
				<g>
					<polyline fill="none" stroke="#333333" stroke-width="0.9957" stroke-linecap="round" stroke-miterlimit="10" points="
						123.837,171.647 124.365,172.018 130.365,176.226 130.824,176.548 					"/>
					
						<line fill="none" stroke="#333333" stroke-width="0.9957" stroke-linecap="round" stroke-miterlimit="10" x1="132.104" y1="177.445" x2="132.047" y2="177.405"/>
				</g>
			</g>
		</g>
		<g>
			
				<path fill="#A1C453" stroke="#333333" stroke-width="0.9957" stroke-linecap="round" stroke-linejoin="round" stroke-miterlimit="10" d="
				M174.939,147.713c-1.3,0.955-1.42,2.166-4.778,1.729c-3.36-0.437-1.554-2.553-3.765-2.839c2.211,0.286,1.137-2.273,4.371-1.853
				C174.006,145.169,173.826,146.548,174.939,147.713z"/>
			<g>
				<line fill="none" x1="166.396" y1="146.604" x2="173.017" y2="147.463"/>
				<g>
					<polyline fill="none" stroke="#333333" stroke-width="0.9957" stroke-linecap="round" stroke-miterlimit="10" points="
						166.891,146.668 167.53,146.751 170.416,147.125 170.973,147.197 					"/>
					
						<line fill="none" stroke="#333333" stroke-width="0.9957" stroke-linecap="round" stroke-miterlimit="10" x1="172.522" y1="147.398" x2="172.453" y2="147.39"/>
				</g>
			</g>
		</g>
		<g>
			
				<path fill="#A1C453" stroke="#333333" stroke-width="1.4936" stroke-linecap="round" stroke-linejoin="round" stroke-miterlimit="10" d="
				M174.563,160.712c-2.737-1.283-3.398-3.467-9.423-1.441c-6.021,2.027-1.926,5.262-5.889,6.594
				c3.963-1.332,2.919,3.769,8.719,1.817C173.771,165.729,172.941,163.261,174.563,160.712z"/>
			<g>
				<line fill="none" x1="159.252" y1="165.864" x2="171.118" y2="161.872"/>
				<g>
					<polyline fill="none" stroke="#333333" stroke-width="0.9957" stroke-linecap="round" stroke-miterlimit="10" points="
						159.724,165.705 160.335,165.5 168.633,162.708 169.164,162.529 					"/>
					
						<line fill="none" stroke="#333333" stroke-width="0.9957" stroke-linecap="round" stroke-miterlimit="10" x1="170.646" y1="162.031" x2="170.58" y2="162.053"/>
				</g>
			</g>
		</g>
		<g>
			
				<path fill="#A1C453" stroke="#333333" stroke-width="1.4936" stroke-linecap="round" stroke-linejoin="round" stroke-miterlimit="10" d="
				M173.377,173.324c-1.027-2.845,0.049-4.856-5.644-7.683c-5.69-2.823-5.082,2.359-8.828,0.499c3.746,1.86-0.6,4.729,4.882,7.448
				C169.271,176.312,170.428,173.979,173.377,173.324z"/>
			<g>
				<line fill="none" x1="158.906" y1="166.141" x2="170.121" y2="171.708"/>
				<g>
					<polyline fill="none" stroke="#333333" stroke-width="0.9957" stroke-linecap="round" stroke-miterlimit="10" points="
						159.353,166.362 159.93,166.648 167.772,170.542 168.274,170.791 					"/>
					
						<line fill="none" stroke="#333333" stroke-width="0.9957" stroke-linecap="round" stroke-miterlimit="10" x1="169.675" y1="171.486" x2="169.612" y2="171.455"/>
				</g>
			</g>
		</g>
		<g>
			
				<path fill="#A1C453" stroke="#333333" stroke-width="1.4936" stroke-linecap="round" stroke-linejoin="round" stroke-miterlimit="10" d="
				M131.382,147.321c0.905,2.223,2.608,2.836,0.758,7.523c-1.853,4.688-4.247,1.311-5.464,4.396
				c1.217-3.086-2.866-2.467-1.083-6.981C127.376,147.744,129.299,148.503,131.382,147.321z"/>
			<g>
				<line fill="none" x1="126.676" y1="159.241" x2="130.322" y2="150.005"/>
				<g>
					<polyline fill="none" stroke="#333333" stroke-width="0.9957" stroke-linecap="round" stroke-miterlimit="10" points="
						126.858,158.778 127.096,158.178 129.359,152.443 129.565,151.922 					"/>
					
						<line fill="none" stroke="#333333" stroke-width="0.9957" stroke-linecap="round" stroke-miterlimit="10" x1="130.14" y1="150.468" x2="130.113" y2="150.533"/>
				</g>
			</g>
		</g>
		<g>
			
				<path fill="#A1C453" stroke="#333333" stroke-width="1.4936" stroke-linecap="round" stroke-linejoin="round" stroke-miterlimit="10" d="
				M121.344,147.746c2.212,0.932,3.848,0.161,5.854,4.784c2.008,4.625-2.073,3.931-0.754,6.973c-1.319-3.042-3.771,0.282-5.702-4.17
				C118.809,150.878,120.705,150.056,121.344,147.746z"/>
			<g>
				<line fill="none" x1="126.443" y1="159.503" x2="122.49" y2="150.393"/>
				<g>
					<polyline fill="none" stroke="#333333" stroke-width="0.9957" stroke-linecap="round" stroke-miterlimit="10" points="
						126.245,159.046 125.988,158.454 123.534,152.798 123.311,152.283 					"/>
					
						<line fill="none" stroke="#333333" stroke-width="0.9957" stroke-linecap="round" stroke-miterlimit="10" x1="122.688" y1="150.85" x2="122.717" y2="150.913"/>
				</g>
			</g>
		</g>
		<g>
			
				<path fill="#A1C453" stroke="#333333" stroke-width="0.9957" stroke-linecap="round" stroke-linejoin="round" stroke-miterlimit="10" d="
				M149.977,131.481c-0.552,1.549-1.698,2.022-0.285,5.175c1.414,3.152,2.949,0.765,3.878,2.839
				c-0.929-2.074,1.887-1.777,0.524-4.813S151.439,132.226,149.977,131.481z"/>
			<g>
				<line fill="none" x1="153.569" y1="139.495" x2="150.785" y2="133.284"/>
				<g>
					<polyline fill="none" stroke="#333333" stroke-width="0.9957" stroke-linecap="round" stroke-miterlimit="10" points="
						153.365,139.041 153.102,138.452 151.857,135.677 151.629,135.165 					"/>
					
						<line fill="none" stroke="#333333" stroke-width="0.9957" stroke-linecap="round" stroke-miterlimit="10" x1="150.988" y1="133.738" x2="151.018" y2="133.803"/>
				</g>
			</g>
		</g>
		<g>
			
				<path fill="#A1C453" stroke="#333333" stroke-width="1.4936" stroke-linecap="round" stroke-linejoin="round" stroke-miterlimit="10" d="
				M159.73,124.91c-2.73,1.299-4.838,0.422-7.1,6.36c-2.261,5.938,2.839,4.829,1.35,8.736c1.489-3.907,4.767,0.141,6.943-5.577
				C163.102,128.708,160.666,127.782,159.73,124.91z"/>
			<g>
				<line fill="none" x1="153.98" y1="140.007" x2="158.437" y2="128.308"/>
				<g>
					<polyline fill="none" stroke="#333333" stroke-width="0.9957" stroke-linecap="round" stroke-miterlimit="10" points="
						154.158,139.542 154.388,138.938 157.503,130.758 157.703,130.234 					"/>
					
						<line fill="none" stroke="#333333" stroke-width="0.9957" stroke-linecap="round" stroke-miterlimit="10" x1="158.26" y1="128.772" x2="158.234" y2="128.838"/>
				</g>
			</g>
		</g>
		<g>
			
				<path fill="#A1C453" stroke="#333333" stroke-width="1.4936" stroke-linecap="round" stroke-linejoin="round" stroke-miterlimit="10" d="
				M142.187,134.692c0.825,2.229-0.009,3.816,4.479,6.001s3.979-1.884,6.932-0.445c-2.953-1.438,0.443-3.719-3.88-5.822
				C145.395,132.32,144.498,134.161,142.187,134.692z"/>
			<g>
				<line fill="none" x1="153.598" y1="140.248" x2="144.756" y2="135.942"/>
				<g>
					<polyline fill="none" stroke="#333333" stroke-width="0.9957" stroke-linecap="round" stroke-miterlimit="10" points="
						153.15,140.03 152.57,139.748 147.113,137.09 146.609,136.845 					"/>
					
						<line fill="none" stroke="#333333" stroke-width="0.9957" stroke-linecap="round" stroke-miterlimit="10" x1="145.203" y1="136.16" x2="145.267" y2="136.191"/>
				</g>
			</g>
		</g>
		<g>
			<g>
				<path fill="#D3F46C" d="M158.361,174.477c-2.739,2.165-8.258,1.505-8.881-1.042c-2.619-1.289-1.697-6.715,1.042-8.879
					s6.509-2.962,8.393,1.697C162.835,169.009,161.1,172.313,158.361,174.477z"/>
				<g>
					<path fill="none" stroke="#333333" stroke-width="1.4936" stroke-linecap="round" stroke-miterlimit="10" d="M157.74,174.89
						c-0.286,0.149-0.57,0.303-0.879,0.404c-1.437,0.537-3.03,0.61-4.524,0.288c-0.743-0.17-1.482-0.451-2.07-0.949
						c-0.279-0.259-0.544-0.551-0.678-0.912l-0.103-0.269c-0.063-0.066-0.155-0.107-0.232-0.163
						c-0.171-0.091-0.313-0.219-0.44-0.363c-0.533-0.558-0.775-1.33-0.852-2.086c-0.074-0.763,0.005-1.534,0.177-2.28
						c0.373-1.476,1.098-2.914,2.277-3.908c1.18-0.953,2.597-1.729,4.142-1.809c0.765-0.034,1.542,0.154,2.192,0.562
						c0.661,0.397,1.165,1.007,1.561,1.657c0.213,0.32,0.365,0.673,0.524,1.021c0.049,0.198,0.242,0.283,0.384,0.408
						c0.147,0.122,0.311,0.226,0.445,0.363c0.571,0.507,1.052,1.134,1.319,1.852c0.271,0.718,0.273,1.522,0.051,2.254
						c-0.038,0.184-0.136,0.37-0.194,0.527c-0.035,0.085-0.066,0.172-0.114,0.251c-0.091,0.161-0.171,0.327-0.271,0.482"/>
					
						<line fill="none" stroke="#333333" stroke-width="1.4936" stroke-linecap="round" stroke-miterlimit="10" x1="158.931" y1="173.993" x2="159.007" y2="173.921"/>
				</g>
			</g>
			
				<ellipse transform="matrix(0.9984 -0.0558 0.0558 0.9984 -8.9857 8.8525)" opacity="0.5" fill="#FFFFFF" enable-background="new    " cx="153.906" cy="165.209" rx="1.447" ry="1.19"/>
		</g>
		<path fill="#CC924C" stroke="#333333" stroke-width="2.6551" stroke-linecap="round" stroke-miterlimit="10" d="M105.237,176.923
			l65.751-38.155c0.896-0.528,2.051-0.229,2.578,0.667l0,0c0.527,0.896,0.229,2.05-0.667,2.578l-65.245,39.014"/>
		<g>
			
				<path fill="#A1C453" stroke="#333333" stroke-width="0.9957" stroke-linecap="round" stroke-linejoin="round" stroke-miterlimit="10" d="
				M174.434,140.61c0,0,1.771-2.336,1.997-2.889c0.186-0.443-2.788,0.559-3.79,1.111L174.434,140.61z"/>
			
				<path fill="#A1C453" stroke="#333333" stroke-width="0.9957" stroke-linecap="round" stroke-linejoin="round" stroke-miterlimit="10" d="
				M173.462,138.495l-1.364,4.299c0,0,4.163-1.676,4.914-3.396C177.012,139.397,174.857,139.09,173.462,138.495z"/>
			
				<path fill="#A1C453" stroke="#333333" stroke-width="0.9957" stroke-linecap="round" stroke-linejoin="round" stroke-miterlimit="10" d="
				M168.555,140.708c0,0,3.286-4.499,6.581-4.496l-1.511,4.047L168.555,140.708z"/>
		</g>
		<g>
			<g>
				<path fill="#D3F46C" d="M151.786,145.221c-2.021,1.597-6.09,1.11-6.549-0.769c-1.932-0.95-1.253-4.951,0.77-6.547
					c2.02-1.597,4.798-2.184,6.187,1.252C155.085,141.188,153.806,143.624,151.786,145.221z"/>
				<g>
					<path fill="none" stroke="#333333" stroke-width="0.9957" stroke-linecap="round" stroke-miterlimit="10" d="M151.375,145.501
						c-0.194,0.091-0.375,0.213-0.581,0.279c-1.065,0.435-2.262,0.49-3.384,0.273c-0.56-0.12-1.109-0.331-1.562-0.689
						c-0.214-0.19-0.412-0.406-0.521-0.674c-0.022-0.338-0.417-0.35-0.57-0.602c-0.798-0.875-0.749-2.183-0.5-3.266
						c0.277-1.107,0.848-2.171,1.735-2.906c0.895-0.698,1.97-1.269,3.129-1.274c1.179-0.028,2.199,0.794,2.726,1.802
						c0.158,0.238,0.223,0.537,0.399,0.755c0.225,0.178,0.461,0.344,0.655,0.555c0.407,0.399,0.751,0.885,0.896,1.444
						c0.148,0.557,0.081,1.154-0.13,1.686c-0.053,0.129-0.108,0.276-0.174,0.382l-0.089,0.162c-0.055,0.111-0.133,0.207-0.198,0.311
						"/>
					
						<line fill="none" stroke="#333333" stroke-width="0.9957" stroke-linecap="round" stroke-miterlimit="10" x1="152.167" y1="144.9" x2="152.219" y2="144.853"/>
				</g>
			</g>
			
				<ellipse transform="matrix(0.9984 -0.0563 0.0563 0.9984 -7.5533 8.5769)" opacity="0.5" fill="#FFFFFF" enable-background="new    " cx="148.497" cy="138.389" rx="1.067" ry="0.877"/>
		</g>
	</g>
</g>
<g id="calque08">
	<g>
		
			<polygon fill="#CC924C" stroke="#333333" stroke-width="0.9957" stroke-linecap="round" stroke-linejoin="round" stroke-miterlimit="10" points="
			173.824,148.667 164.794,146.62 167.215,145.193 		"/>
		
			<polygon fill="#CC924C" stroke="#333333" stroke-width="0.7966" stroke-linecap="round" stroke-linejoin="round" stroke-miterlimit="10" points="
			153.979,140.004 152.279,149.785 154.701,148.358 		"/>
		
			<polygon fill="#CC924C" stroke="#333333" stroke-width="0.9957" stroke-linecap="round" stroke-linejoin="round" stroke-miterlimit="10" points="
			159.331,166.06 140.146,161.304 142.566,159.878 		"/>
		
			<polygon fill="#CC924C" stroke="#333333" stroke-width="0.9957" stroke-linecap="round" stroke-linejoin="round" stroke-miterlimit="10" points="
			126.703,158.726 124.408,165.738 125.971,164.817 		"/>
		<g>
			
				<path fill="#A1C453" stroke="#333333" stroke-width="1.4936" stroke-linecap="round" stroke-linejoin="round" stroke-miterlimit="10" d="
				M135.148,179.577c-0.521-2.629,0.689-4.248-3.921-7.481c-4.609-3.232-4.767,1.39-7.8-0.737c3.033,2.127-1.155,4.063,3.285,7.176
				C131.152,181.647,132.479,179.757,135.148,179.577z"/>
			<g>
				<line fill="none" x1="123.428" y1="171.358" x2="132.51" y2="177.728"/>
				<g>
					<polyline fill="none" stroke="#333333" stroke-width="0.9957" stroke-linecap="round" stroke-miterlimit="10" points="
						123.835,171.645 124.363,172.015 130.363,176.222 130.822,176.544 					"/>
					
						<line fill="none" stroke="#333333" stroke-width="0.9957" stroke-linecap="round" stroke-miterlimit="10" x1="132.103" y1="177.441" x2="132.045" y2="177.401"/>
				</g>
			</g>
		</g>
		<g>
			
				<path fill="#A1C453" stroke="#333333" stroke-width="1.4936" stroke-linecap="round" stroke-linejoin="round" stroke-miterlimit="10" d="
				M188.021,150.51c-2.16,1.587-2.357,3.601-7.941,2.874c-5.585-0.725-2.579-4.241-6.255-4.717c3.676,0.476,1.889-3.777,7.267-3.08
				C186.469,146.284,186.172,148.573,188.021,150.51z"/>
			<g>
				<line fill="none" x1="173.824" y1="148.667" x2="184.826" y2="150.095"/>
				<g>
					<polyline fill="none" stroke="#333333" stroke-width="0.9957" stroke-linecap="round" stroke-miterlimit="10" points="
						174.318,148.731 174.958,148.814 182.226,149.758 182.782,149.829 					"/>
					
						<line fill="none" stroke="#333333" stroke-width="0.9957" stroke-linecap="round" stroke-miterlimit="10" x1="184.332" y1="150.03" x2="184.263" y2="150.021"/>
				</g>
			</g>
		</g>
		<g>
			
				<path fill="#A1C453" stroke="#333333" stroke-width="1.4936" stroke-linecap="round" stroke-linejoin="round" stroke-miterlimit="10" d="
				M174.563,160.71c-2.738-1.285-3.399-3.468-9.423-1.441c-6.022,2.027-1.926,5.26-5.89,6.594c3.964-1.334,2.92,3.768,8.719,1.816
				C173.771,165.726,172.939,163.257,174.563,160.71z"/>
			<g>
				<line fill="none" x1="159.25" y1="165.862" x2="171.116" y2="161.87"/>
				<g>
					<polyline fill="none" stroke="#333333" stroke-width="0.9957" stroke-linecap="round" stroke-miterlimit="10" points="
						159.722,165.703 160.333,165.498 168.631,162.706 169.162,162.527 					"/>
					
						<line fill="none" stroke="#333333" stroke-width="0.9957" stroke-linecap="round" stroke-miterlimit="10" x1="170.645" y1="162.029" x2="170.578" y2="162.051"/>
				</g>
			</g>
		</g>
		<g>
			
				<path fill="#A1C453" stroke="#333333" stroke-width="1.4936" stroke-linecap="round" stroke-linejoin="round" stroke-miterlimit="10" d="
				M173.375,173.321c-1.027-2.844,0.049-4.855-5.644-7.682c-5.69-2.824-5.082,2.358-8.827,0.498c3.745,1.86-0.6,4.729,4.882,7.449
				C169.27,176.31,170.427,173.976,173.375,173.321z"/>
			<g>
				<line fill="none" x1="158.905" y1="166.138" x2="170.119" y2="171.705"/>
				<g>
					<polyline fill="none" stroke="#333333" stroke-width="0.9957" stroke-linecap="round" stroke-miterlimit="10" points="
						159.352,166.359 159.929,166.646 167.771,170.539 168.272,170.788 					"/>
					
						<line fill="none" stroke="#333333" stroke-width="0.9957" stroke-linecap="round" stroke-miterlimit="10" x1="169.673" y1="171.483" x2="169.61" y2="171.452"/>
				</g>
			</g>
		</g>
		<g>
			
				<path fill="#A1C453" stroke="#333333" stroke-width="1.4936" stroke-linecap="round" stroke-linejoin="round" stroke-miterlimit="10" d="
				M131.381,147.319c0.905,2.222,2.607,2.835,0.758,7.523c-1.854,4.688-4.248,1.311-5.465,4.395c1.217-3.084-2.865-2.465-1.082-6.98
				C127.374,147.741,129.297,148.501,131.381,147.319z"/>
			<g>
				<line fill="none" x1="126.674" y1="159.237" x2="130.321" y2="150.002"/>
				<g>
					<polyline fill="none" stroke="#333333" stroke-width="0.9957" stroke-linecap="round" stroke-miterlimit="10" points="
						126.856,158.774 127.094,158.174 129.358,152.44 129.564,151.919 					"/>
					
						<line fill="none" stroke="#333333" stroke-width="0.9957" stroke-linecap="round" stroke-miterlimit="10" x1="130.139" y1="150.465" x2="130.112" y2="150.53"/>
				</g>
			</g>
		</g>
		<g>
			
				<path fill="#A1C453" stroke="#333333" stroke-width="1.4936" stroke-linecap="round" stroke-linejoin="round" stroke-miterlimit="10" d="
				M121.342,147.743c2.212,0.932,3.849,0.16,5.854,4.785c2.008,4.623-2.074,3.93-0.755,6.972c-1.319-3.042-3.771,0.282-5.702-4.171
				C118.807,150.875,120.703,150.053,121.342,147.743z"/>
			<g>
				<line fill="none" x1="126.441" y1="159.5" x2="122.488" y2="150.39"/>
				<g>
					<polyline fill="none" stroke="#333333" stroke-width="0.9957" stroke-linecap="round" stroke-miterlimit="10" points="
						126.243,159.043 125.986,158.451 123.532,152.795 123.309,152.28 					"/>
					
						<line fill="none" stroke="#333333" stroke-width="0.9957" stroke-linecap="round" stroke-miterlimit="10" x1="122.687" y1="150.847" x2="122.715" y2="150.91"/>
				</g>
			</g>
		</g>
		<g>
			
				<path fill="#A1C453" stroke="#333333" stroke-width="1.4936" stroke-linecap="round" stroke-linejoin="round" stroke-miterlimit="10" d="
				M147.063,124.947c-1.014,2.851-3.124,3.72-0.522,9.517c2.6,5.799,5.422,1.408,7.133,5.225c-1.711-3.816,3.467-3.271,0.964-8.854
				C152.131,125.249,149.755,126.315,147.063,124.947z"/>
			<g>
				<line fill="none" x1="153.672" y1="139.688" x2="148.549" y2="128.265"/>
				<g>
					<polyline fill="none" stroke="#333333" stroke-width="0.9957" stroke-linecap="round" stroke-miterlimit="10" points="
						153.468,139.234 153.204,138.646 149.622,130.657 149.393,130.146 					"/>
					
						<line fill="none" stroke="#333333" stroke-width="0.9957" stroke-linecap="round" stroke-miterlimit="10" x1="148.753" y1="128.719" x2="148.781" y2="128.783"/>
				</g>
			</g>
		</g>
		<g>
			
				<path fill="#A1C453" stroke="#333333" stroke-width="1.4936" stroke-linecap="round" stroke-linejoin="round" stroke-miterlimit="10" d="
				M159.729,124.907c-2.73,1.299-4.838,0.422-7.1,6.36c-2.26,5.938,2.84,4.829,1.35,8.736c1.49-3.907,4.767,0.14,6.943-5.577
				C163.1,128.706,160.664,127.779,159.729,124.907z"/>
			<g>
				<line fill="none" x1="153.979" y1="140.004" x2="158.436" y2="128.306"/>
				<g>
					<polyline fill="none" stroke="#333333" stroke-width="0.9957" stroke-linecap="round" stroke-miterlimit="10" points="
						154.156,139.539 154.386,138.936 157.502,130.756 157.701,130.232 					"/>
					
						<line fill="none" stroke="#333333" stroke-width="0.9957" stroke-linecap="round" stroke-miterlimit="10" x1="158.258" y1="128.771" x2="158.233" y2="128.836"/>
				</g>
			</g>
		</g>
		<g>
			
				<path fill="#A1C453" stroke="#333333" stroke-width="1.4936" stroke-linecap="round" stroke-linejoin="round" stroke-miterlimit="10" d="
				M142.185,134.69c0.825,2.229-0.008,3.816,4.479,6c4.489,2.185,3.979-1.884,6.932-0.445c-2.953-1.438,0.443-3.719-3.879-5.822
				C145.393,132.317,144.497,134.157,142.185,134.69z"/>
			<g>
				<line fill="none" x1="153.596" y1="140.245" x2="144.754" y2="135.94"/>
				<g>
					<polyline fill="none" stroke="#333333" stroke-width="0.9957" stroke-linecap="round" stroke-miterlimit="10" points="
						153.148,140.027 152.568,139.745 147.111,137.088 146.607,136.843 					"/>
					
						<line fill="none" stroke="#333333" stroke-width="0.9957" stroke-linecap="round" stroke-miterlimit="10" x1="145.201" y1="136.158" x2="145.265" y2="136.189"/>
				</g>
			</g>
		</g>
		<g>
			<g>
				<path fill="#EF4529" d="M158.359,174.474c-2.739,2.164-8.258,1.506-8.881-1.042c-2.619-1.289-1.697-6.715,1.043-8.88
					c2.738-2.164,6.508-2.961,8.392,1.697C162.834,169.005,161.098,172.31,158.359,174.474z"/>
				<g>
					<path fill="none" stroke="#333333" stroke-width="1.4936" stroke-linecap="round" stroke-miterlimit="10" d="M157.737,174.887
						c-0.285,0.149-0.568,0.302-0.877,0.404c-1.437,0.537-3.03,0.61-4.524,0.288c-0.743-0.17-1.482-0.45-2.07-0.949
						c-0.279-0.259-0.544-0.551-0.678-0.912l-0.103-0.269c-0.063-0.066-0.156-0.107-0.232-0.163
						c-0.171-0.091-0.313-0.219-0.44-0.363c-0.533-0.558-0.775-1.33-0.852-2.086c-0.074-0.763,0.006-1.535,0.178-2.28
						c0.373-1.476,1.098-2.914,2.276-3.908c1.18-0.954,2.598-1.73,4.143-1.809c0.765-0.035,1.541,0.154,2.192,0.562
						c0.661,0.397,1.165,1.007,1.561,1.657c0.212,0.32,0.364,0.673,0.524,1.021c0.049,0.199,0.243,0.282,0.385,0.408
						c0.146,0.122,0.311,0.226,0.444,0.362c0.571,0.508,1.052,1.135,1.318,1.853c0.271,0.718,0.273,1.522,0.051,2.254
						c-0.037,0.184-0.136,0.37-0.194,0.527c-0.035,0.085-0.066,0.172-0.114,0.251c-0.091,0.161-0.171,0.327-0.271,0.482"/>
					
						<line fill="none" stroke="#333333" stroke-width="1.4936" stroke-linecap="round" stroke-miterlimit="10" x1="158.929" y1="173.99" x2="159.005" y2="173.918"/>
				</g>
			</g>
			
				<ellipse transform="matrix(0.9984 -0.0558 0.0558 0.9984 -8.9858 8.8526)" opacity="0.5" fill="#FFFFFF" enable-background="new    " cx="153.907" cy="165.21" rx="1.447" ry="1.19"/>
		</g>
		<g>
			<g>
				<path fill="#D3F46C" d="M148.854,147.165c-3.412,0.742-8.08-2.271-7.521-4.834c-1.788-2.308,1.422-6.779,4.834-7.521
					c3.41-0.742,7.146,0.197,6.794,5.211C155.273,144.217,152.265,146.423,148.854,147.165z"/>
				<g>
					<path fill="none" stroke="#333333" stroke-width="1.4936" stroke-linecap="round" stroke-miterlimit="10" d="M148.113,147.263
						c-0.321,0.009-0.645,0.022-0.966-0.021c-1.525-0.148-2.991-0.781-4.191-1.728c-0.594-0.479-1.135-1.056-1.443-1.762
						c-0.137-0.354-0.246-0.733-0.208-1.117l0.026-0.286c-0.027-0.087-0.094-0.165-0.139-0.248c-0.113-0.157-0.185-0.334-0.236-0.52
						c-0.233-0.735-0.113-1.536,0.15-2.248c0.269-0.718,0.68-1.377,1.16-1.971c0.982-1.162,2.267-2.138,3.761-2.513
						c1.479-0.34,3.095-0.415,4.517,0.193c0.702,0.305,1.315,0.815,1.723,1.468c0.42,0.646,0.604,1.416,0.675,2.174
						c0.052,0.381,0.033,0.765,0.023,1.147c-0.044,0.2,0.093,0.361,0.165,0.535c0.079,0.175,0.18,0.34,0.241,0.521
						c0.291,0.707,0.446,1.48,0.373,2.243c-0.071,0.765-0.424,1.488-0.944,2.047c-0.114,0.149-0.284,0.274-0.405,0.39
						c-0.068,0.061-0.136,0.125-0.214,0.175c-0.152,0.104-0.297,0.219-0.455,0.314"/>
					
						<line fill="none" stroke="#333333" stroke-width="1.4936" stroke-linecap="round" stroke-miterlimit="10" x1="149.577" y1="146.98" x2="149.678" y2="146.949"/>
				</g>
			</g>
			
				<ellipse transform="matrix(0.9216 0.3881 -0.3881 0.9216 64.7987 -47.0609)" opacity="0.5" fill="#FFFFFF" enable-background="new    " cx="148.904" cy="136.885" rx="1.447" ry="1.19"/>
		</g>
		<path fill="#CC924C" stroke="#333333" stroke-width="2.6551" stroke-linecap="round" stroke-miterlimit="10" d="M105.236,176.92
			l71.019-41.258c0.896-0.528,2.051-0.23,2.578,0.666l0,0c0.527,0.896,0.229,2.05-0.666,2.579l-70.515,42.116"/>
		<g>
			
				<path fill="#A1C453" stroke="#333333" stroke-width="0.9957" stroke-linecap="round" stroke-linejoin="round" stroke-miterlimit="10" d="
				M179.699,137.505c0,0,1.771-2.338,1.997-2.889c0.185-0.443-2.787,0.557-3.788,1.109L179.699,137.505z"/>
			
				<path fill="#A1C453" stroke="#333333" stroke-width="0.9957" stroke-linecap="round" stroke-linejoin="round" stroke-miterlimit="10" d="
				M178.729,135.39l-1.362,4.299c0,0,4.161-1.677,4.911-3.398C182.277,136.29,180.123,135.983,178.729,135.39z"/>
			
				<path fill="#A1C453" stroke="#333333" stroke-width="0.9957" stroke-linecap="round" stroke-linejoin="round" stroke-miterlimit="10" d="
				M173.821,137.603c0,0,3.286-4.499,6.581-4.496l-1.51,4.047L173.821,137.603z"/>
		</g>
	</g>
</g>
<g id="calque09">
	<g>
		
			<polygon fill="#CC924C" stroke="#333333" stroke-width="0.9957" stroke-linecap="round" stroke-linejoin="round" stroke-miterlimit="10" points="
			173.824,148.667 164.794,146.62 167.215,145.193 		"/>
		
			<polygon fill="#CC924C" stroke="#333333" stroke-width="0.7966" stroke-linecap="round" stroke-linejoin="round" stroke-miterlimit="10" points="
			153.979,140.004 152.279,149.784 154.7,148.358 		"/>
		
			<polygon fill="#CC924C" stroke="#333333" stroke-width="0.9957" stroke-linecap="round" stroke-linejoin="round" stroke-miterlimit="10" points="
			159.331,166.06 140.146,161.304 142.566,159.878 		"/>
		
			<polygon fill="#CC924C" stroke="#333333" stroke-width="0.9957" stroke-linecap="round" stroke-linejoin="round" stroke-miterlimit="10" points="
			126.703,158.726 124.408,165.738 125.971,164.817 		"/>
		<g>
			
				<path fill="#A1C453" stroke="#333333" stroke-width="1.4936" stroke-linecap="round" stroke-linejoin="round" stroke-miterlimit="10" d="
				M135.148,179.577c-0.521-2.629,0.689-4.248-3.921-7.481c-4.609-3.232-4.767,1.39-7.8-0.737c3.033,2.127-1.155,4.063,3.285,7.176
				C131.152,181.648,132.479,179.757,135.148,179.577z"/>
			<g>
				<line fill="none" x1="123.428" y1="171.358" x2="132.51" y2="177.728"/>
				<g>
					<polyline fill="none" stroke="#333333" stroke-width="0.9957" stroke-linecap="round" stroke-miterlimit="10" points="
						123.835,171.645 124.363,172.015 130.363,176.222 130.822,176.544 					"/>
					
						<line fill="none" stroke="#333333" stroke-width="0.9957" stroke-linecap="round" stroke-miterlimit="10" x1="132.103" y1="177.441" x2="132.045" y2="177.401"/>
				</g>
			</g>
		</g>
		<g>
			
				<path fill="#A1C453" stroke="#333333" stroke-width="1.4936" stroke-linecap="round" stroke-linejoin="round" stroke-miterlimit="10" d="
				M188.021,150.51c-2.16,1.587-2.358,3.6-7.941,2.874c-5.585-0.725-2.579-4.241-6.255-4.717c3.676,0.476,1.889-3.777,7.267-3.08
				C186.469,146.284,186.172,148.573,188.021,150.51z"/>
			<g>
				<line fill="none" x1="173.824" y1="148.667" x2="184.826" y2="150.095"/>
				<g>
					<polyline fill="none" stroke="#333333" stroke-width="0.9957" stroke-linecap="round" stroke-miterlimit="10" points="
						174.318,148.731 174.958,148.814 182.226,149.758 182.782,149.829 					"/>
					
						<line fill="none" stroke="#333333" stroke-width="0.9957" stroke-linecap="round" stroke-miterlimit="10" x1="184.332" y1="150.03" x2="184.263" y2="150.021"/>
				</g>
			</g>
		</g>
		<g>
			
				<path fill="#A1C453" stroke="#333333" stroke-width="1.4936" stroke-linecap="round" stroke-linejoin="round" stroke-miterlimit="10" d="
				M174.563,160.71c-2.738-1.285-3.399-3.468-9.423-1.441c-6.022,2.027-1.926,5.26-5.89,6.594c3.964-1.334,2.919,3.768,8.719,1.816
				C173.771,165.726,172.939,163.257,174.563,160.71z"/>
			<g>
				<line fill="none" x1="159.25" y1="165.862" x2="171.116" y2="161.87"/>
				<g>
					<polyline fill="none" stroke="#333333" stroke-width="0.9957" stroke-linecap="round" stroke-miterlimit="10" points="
						159.722,165.703 160.333,165.498 168.631,162.706 169.162,162.527 					"/>
					
						<line fill="none" stroke="#333333" stroke-width="0.9957" stroke-linecap="round" stroke-miterlimit="10" x1="170.645" y1="162.029" x2="170.578" y2="162.051"/>
				</g>
			</g>
		</g>
		<g>
			
				<path fill="#A1C453" stroke="#333333" stroke-width="1.4936" stroke-linecap="round" stroke-linejoin="round" stroke-miterlimit="10" d="
				M173.375,173.321c-1.027-2.846,0.049-4.855-5.644-7.682c-5.69-2.824-5.082,2.358-8.827,0.498c3.745,1.86-0.6,4.729,4.882,7.449
				C169.27,176.31,170.427,173.976,173.375,173.321z"/>
			<g>
				<line fill="none" x1="158.905" y1="166.138" x2="170.119" y2="171.705"/>
				<g>
					<polyline fill="none" stroke="#333333" stroke-width="0.9957" stroke-linecap="round" stroke-miterlimit="10" points="
						159.352,166.359 159.929,166.646 167.771,170.539 168.272,170.788 					"/>
					
						<line fill="none" stroke="#333333" stroke-width="0.9957" stroke-linecap="round" stroke-miterlimit="10" x1="169.673" y1="171.483" x2="169.61" y2="171.452"/>
				</g>
			</g>
		</g>
		<g>
			
				<path fill="#A1C453" stroke="#333333" stroke-width="1.4936" stroke-linecap="round" stroke-linejoin="round" stroke-miterlimit="10" d="
				M131.381,147.319c0.904,2.221,2.607,2.835,0.758,7.523c-1.853,4.688-4.248,1.311-5.465,4.395c1.217-3.084-2.865-2.465-1.082-6.98
				C127.374,147.741,129.297,148.501,131.381,147.319z"/>
			<g>
				<line fill="none" x1="126.674" y1="159.237" x2="130.321" y2="150.002"/>
				<g>
					<polyline fill="none" stroke="#333333" stroke-width="0.9957" stroke-linecap="round" stroke-miterlimit="10" points="
						126.856,158.774 127.094,158.174 129.358,152.44 129.564,151.919 					"/>
					
						<line fill="none" stroke="#333333" stroke-width="0.9957" stroke-linecap="round" stroke-miterlimit="10" x1="130.139" y1="150.465" x2="130.112" y2="150.53"/>
				</g>
			</g>
		</g>
		<g>
			
				<path fill="#A1C453" stroke="#333333" stroke-width="1.4936" stroke-linecap="round" stroke-linejoin="round" stroke-miterlimit="10" d="
				M121.342,147.743c2.212,0.932,3.849,0.16,5.854,4.785c2.008,4.623-2.074,3.93-0.755,6.972c-1.319-3.042-3.771,0.282-5.702-4.171
				C118.807,150.875,120.703,150.052,121.342,147.743z"/>
			<g>
				<line fill="none" x1="126.441" y1="159.5" x2="122.488" y2="150.39"/>
				<g>
					<polyline fill="none" stroke="#333333" stroke-width="0.9957" stroke-linecap="round" stroke-miterlimit="10" points="
						126.243,159.043 125.986,158.451 123.532,152.795 123.309,152.28 					"/>
					
						<line fill="none" stroke="#333333" stroke-width="0.9957" stroke-linecap="round" stroke-miterlimit="10" x1="122.687" y1="150.847" x2="122.715" y2="150.91"/>
				</g>
			</g>
		</g>
		<g>
			
				<path fill="#A1C453" stroke="#333333" stroke-width="1.4936" stroke-linecap="round" stroke-linejoin="round" stroke-miterlimit="10" d="
				M147.063,124.947c-1.014,2.851-3.124,3.72-0.522,9.517c2.6,5.799,5.422,1.408,7.133,5.225c-1.711-3.816,3.467-3.271,0.964-8.854
				C152.131,125.249,149.755,126.315,147.063,124.947z"/>
			<g>
				<line fill="none" x1="153.672" y1="139.688" x2="148.549" y2="128.265"/>
				<g>
					<polyline fill="none" stroke="#333333" stroke-width="0.9957" stroke-linecap="round" stroke-miterlimit="10" points="
						153.468,139.234 153.204,138.646 149.622,130.657 149.393,130.146 					"/>
					
						<line fill="none" stroke="#333333" stroke-width="0.9957" stroke-linecap="round" stroke-miterlimit="10" x1="148.753" y1="128.719" x2="148.781" y2="128.783"/>
				</g>
			</g>
		</g>
		<g>
			
				<path fill="#A1C453" stroke="#333333" stroke-width="1.4936" stroke-linecap="round" stroke-linejoin="round" stroke-miterlimit="10" d="
				M159.729,124.907c-2.73,1.299-4.838,0.422-7.1,6.36c-2.26,5.938,2.84,4.829,1.35,8.736c1.49-3.907,4.767,0.14,6.943-5.577
				C163.1,128.706,160.664,127.779,159.729,124.907z"/>
			<g>
				<line fill="none" x1="153.979" y1="140.004" x2="158.436" y2="128.306"/>
				<g>
					<polyline fill="none" stroke="#333333" stroke-width="0.9957" stroke-linecap="round" stroke-miterlimit="10" points="
						154.156,139.539 154.386,138.936 157.502,130.756 157.701,130.232 					"/>
					
						<line fill="none" stroke="#333333" stroke-width="0.9957" stroke-linecap="round" stroke-miterlimit="10" x1="158.258" y1="128.771" x2="158.233" y2="128.836"/>
				</g>
			</g>
		</g>
		<g>
			
				<path fill="#A1C453" stroke="#333333" stroke-width="1.4936" stroke-linecap="round" stroke-linejoin="round" stroke-miterlimit="10" d="
				M142.185,134.69c0.825,2.229-0.009,3.814,4.479,6c4.489,2.185,3.979-1.884,6.932-0.445c-2.953-1.438,0.443-3.719-3.879-5.822
				C145.393,132.317,144.497,134.157,142.185,134.69z"/>
			<g>
				<line fill="none" x1="153.596" y1="140.245" x2="144.754" y2="135.94"/>
				<g>
					<polyline fill="none" stroke="#333333" stroke-width="0.9957" stroke-linecap="round" stroke-miterlimit="10" points="
						153.148,140.027 152.568,139.745 147.111,137.088 146.607,136.843 					"/>
					
						<line fill="none" stroke="#333333" stroke-width="0.9957" stroke-linecap="round" stroke-miterlimit="10" x1="145.201" y1="136.158" x2="145.265" y2="136.189"/>
				</g>
			</g>
		</g>
		<g>
			<g>
				<path fill="#EF4529" d="M158.359,174.474c-2.739,2.164-8.258,1.506-8.881-1.042c-2.619-1.289-1.697-6.715,1.043-8.88
					c2.738-2.164,6.508-2.961,8.392,1.697C162.834,169.005,161.098,172.31,158.359,174.474z"/>
				<g>
					<path fill="none" stroke="#333333" stroke-width="1.4936" stroke-linecap="round" stroke-miterlimit="10" d="M157.737,174.887
						c-0.285,0.149-0.568,0.302-0.877,0.404c-1.437,0.537-3.03,0.61-4.524,0.288c-0.743-0.17-1.482-0.45-2.07-0.949
						c-0.279-0.259-0.544-0.551-0.678-0.912l-0.103-0.269c-0.063-0.066-0.156-0.107-0.232-0.163
						c-0.171-0.091-0.313-0.219-0.44-0.363c-0.533-0.558-0.775-1.33-0.852-2.086c-0.074-0.763,0.006-1.535,0.178-2.28
						c0.373-1.476,1.098-2.914,2.276-3.908c1.18-0.954,2.598-1.73,4.143-1.809c0.765-0.035,1.541,0.154,2.192,0.562
						c0.661,0.397,1.165,1.007,1.561,1.657c0.212,0.32,0.364,0.673,0.524,1.021c0.049,0.199,0.243,0.282,0.385,0.408
						c0.146,0.122,0.311,0.226,0.444,0.362c0.571,0.508,1.052,1.135,1.318,1.853c0.271,0.718,0.273,1.522,0.051,2.254
						c-0.037,0.184-0.136,0.37-0.194,0.527c-0.035,0.085-0.066,0.172-0.114,0.251c-0.091,0.161-0.171,0.327-0.271,0.482"/>
					
						<line fill="none" stroke="#333333" stroke-width="1.4936" stroke-linecap="round" stroke-miterlimit="10" x1="158.929" y1="173.99" x2="159.005" y2="173.918"/>
				</g>
			</g>
			
				<ellipse transform="matrix(0.9984 -0.0558 0.0558 0.9984 -8.9858 8.8526)" opacity="0.5" fill="#FFFFFF" enable-background="new    " cx="153.907" cy="165.21" rx="1.447" ry="1.19"/>
		</g>
		<g>
			<g>
				<path fill="#EF4529" d="M148.854,147.165c-3.412,0.742-8.08-2.271-7.521-4.834c-1.788-2.308,1.422-6.779,4.834-7.521
					c3.41-0.742,7.146,0.197,6.794,5.21C155.273,144.217,152.265,146.423,148.854,147.165z"/>
				<g>
					<path fill="none" stroke="#333333" stroke-width="1.4936" stroke-linecap="round" stroke-miterlimit="10" d="M148.113,147.263
						c-0.321,0.009-0.645,0.022-0.966-0.021c-1.525-0.148-2.991-0.781-4.191-1.728c-0.594-0.479-1.135-1.056-1.443-1.762
						c-0.137-0.354-0.246-0.733-0.208-1.117l0.026-0.286c-0.027-0.087-0.095-0.165-0.139-0.248c-0.113-0.157-0.185-0.334-0.236-0.52
						c-0.233-0.735-0.113-1.536,0.15-2.248c0.269-0.718,0.68-1.377,1.16-1.971c0.982-1.162,2.267-2.138,3.761-2.513
						c1.479-0.34,3.095-0.415,4.517,0.193c0.702,0.305,1.316,0.815,1.723,1.467c0.42,0.647,0.605,1.416,0.675,2.174
						c0.052,0.382,0.033,0.765,0.023,1.148c-0.044,0.2,0.093,0.36,0.166,0.535c0.079,0.175,0.18,0.34,0.24,0.521
						c0.291,0.707,0.446,1.48,0.373,2.243c-0.071,0.764-0.424,1.488-0.944,2.047c-0.114,0.149-0.284,0.274-0.405,0.39
						c-0.068,0.061-0.136,0.125-0.214,0.175c-0.152,0.104-0.297,0.219-0.455,0.314"/>
					
						<line fill="none" stroke="#333333" stroke-width="1.4936" stroke-linecap="round" stroke-miterlimit="10" x1="149.577" y1="146.98" x2="149.678" y2="146.949"/>
				</g>
			</g>
			
				<ellipse transform="matrix(0.9216 0.3881 -0.3881 0.9216 64.7987 -47.0609)" opacity="0.5" fill="#FFFFFF" enable-background="new    " cx="148.904" cy="136.885" rx="1.447" ry="1.19"/>
		</g>
		<path fill="#CC924C" stroke="#333333" stroke-width="2.6551" stroke-linecap="round" stroke-miterlimit="10" d="M105.236,176.92
			l71.019-41.259c0.896-0.527,2.051-0.229,2.578,0.667l0,0c0.527,0.896,0.229,2.05-0.666,2.579l-70.515,42.116"/>
		<g>
			
				<path fill="#A1C453" stroke="#333333" stroke-width="0.9957" stroke-linecap="round" stroke-linejoin="round" stroke-miterlimit="10" d="
				M179.699,137.505c0,0,1.771-2.338,1.997-2.89c0.185-0.442-2.787,0.558-3.788,1.11L179.699,137.505z"/>
			
				<path fill="#A1C453" stroke="#333333" stroke-width="0.9957" stroke-linecap="round" stroke-linejoin="round" stroke-miterlimit="10" d="
				M178.729,135.39l-1.362,4.299c0,0,4.161-1.677,4.911-3.398C182.277,136.29,180.123,135.983,178.729,135.39z"/>
			
				<path fill="#A1C453" stroke="#333333" stroke-width="0.9957" stroke-linecap="round" stroke-linejoin="round" stroke-miterlimit="10" d="
				M173.821,137.603c0,0,3.286-4.499,6.581-4.496l-1.51,4.047L173.821,137.603z"/>
		</g>
	</g>
</g>
</svg>
