<?xml version="1.0" encoding="utf-8"?>
<!-- Generator: Adobe Illustrator 16.0.0, SVG Export Plug-In . SVG Version: 6.00 Build 0)  -->
<!DOCTYPE svg PUBLIC "-//W3C//DTD SVG 1.1//EN" "http://www.w3.org/Graphics/SVG/1.1/DTD/svg11.dtd">
<svg version="1.1" id="Calque_1" xmlns="http://www.w3.org/2000/svg" xmlns:xlink="http://www.w3.org/1999/xlink" x="0px" y="0px"
	 width="320px" height="410px" viewBox="0 0 320 410" enable-background="new 0 0 320 410" xml:space="preserve">
<g id="calque01">
	<g>
		<path fill="#CC924C" stroke="#333333" stroke-width="2.4893" stroke-linecap="round" stroke-miterlimit="10" d="M97.872,174.223
			l0.497-8.809c0-1.039,0.844-1.883,1.884-1.883l0,0c1.039,0,1.882,0.844,1.882,1.883l0.499,8.809"/>
		<g>
			
				<path fill="#A1C453" stroke="#333333" stroke-width="0.9957" stroke-linecap="round" stroke-linejoin="round" stroke-miterlimit="10" d="
				M101.705,163.381c0,0-1.113-2.711-1.476-3.188c-0.287-0.383-0.934,2.688-0.967,3.83L101.705,163.381z"/>
			
				<path fill="#A1C453" stroke="#333333" stroke-width="0.9957" stroke-linecap="round" stroke-linejoin="round" stroke-miterlimit="10" d="
				M99.391,163.146l3.012,3.355c0,0,0.668-4.438-0.433-5.957C101.97,160.545,100.611,162.244,99.391,163.146z"/>
			
				<path fill="#A1C453" stroke="#333333" stroke-width="0.9957" stroke-linecap="round" stroke-linejoin="round" stroke-miterlimit="10" d="
				M98.807,168.496c0,0-2.208-5.115-0.533-7.951l2.722,3.355L98.807,168.496z"/>
		</g>
	</g>
</g>
<g id="calque02">
	<g>
		<g>
			
				<path fill="#A1C453" stroke="#333333" stroke-width="0.9957" stroke-linecap="round" stroke-linejoin="round" stroke-miterlimit="10" d="
				M93.14,151.355c1.229-0.051,1.819-0.766,3.759,0.941c1.938,1.705-0.104,2.273,1.172,3.396c-1.275-1.123-1.687,0.953-3.554-0.689
				C92.648,153.361,93.348,152.566,93.14,151.355z"/>
			<g>
				<line fill="none" x1="98.07" y1="155.693" x2="94.249" y2="152.332"/>
				<g>
					<polyline fill="none" stroke="#333333" stroke-width="0.9957" stroke-linecap="round" stroke-miterlimit="10" points="
						97.696,155.364 97.212,154.938 96.218,154.063 95.797,153.693 					"/>
					
						<line fill="none" stroke="#333333" stroke-width="0.9957" stroke-linecap="round" stroke-miterlimit="10" x1="94.623" y1="152.661" x2="94.676" y2="152.707"/>
				</g>
			</g>
		</g>
		<path fill="#CC924C" stroke="#333333" stroke-width="2.4893" stroke-linecap="round" stroke-miterlimit="10" d="M102.634,174.223
			l-0.499-27.383c0-1.039-0.843-1.883-1.883-1.883l0,0c-1.039,0-1.883,0.844-1.883,1.883l-0.497,27.383"/>
		<g>
			
				<path fill="#A1C453" stroke="#333333" stroke-width="0.9957" stroke-linecap="round" stroke-linejoin="round" stroke-miterlimit="10" d="
				M98.799,144.807c0,0,1.114-2.711,1.477-3.188c0.287-0.383,0.935,2.686,0.966,3.83L98.799,144.807z"/>
			
				<path fill="#A1C453" stroke="#333333" stroke-width="0.9957" stroke-linecap="round" stroke-linejoin="round" stroke-miterlimit="10" d="
				M101.114,144.572l-3.013,3.355c0,0-0.667-4.438,0.436-5.957C98.536,141.971,99.894,143.67,101.114,144.572z"/>
			
				<path fill="#A1C453" stroke="#333333" stroke-width="0.9957" stroke-linecap="round" stroke-linejoin="round" stroke-miterlimit="10" d="
				M101.697,149.922c0,0,2.211-5.115,0.534-7.951l-2.721,3.354L101.697,149.922z"/>
		</g>
	</g>
</g>
<g id="calque03">
	<g>
		<g>
			
				<path fill="#A1C453" stroke="#333333" stroke-width="1.4936" stroke-linecap="round" stroke-linejoin="round" stroke-miterlimit="10" d="
				M87.621,144.785c2.678-0.111,3.965-1.67,8.193,2.049s-0.228,4.957,2.555,7.404c-2.781-2.447-3.676,2.08-7.747-1.502
				C86.55,149.156,88.074,147.422,87.621,144.785z"/>
			<g>
				<line fill="none" x1="98.369" y1="154.238" x2="90.039" y2="146.912"/>
				<g>
					<polyline fill="none" stroke="#333333" stroke-width="0.9957" stroke-linecap="round" stroke-miterlimit="10" points="
						97.995,153.909 97.511,153.483 92.008,148.644 91.587,148.273 					"/>
					
						<line fill="none" stroke="#333333" stroke-width="0.9957" stroke-linecap="round" stroke-miterlimit="10" x1="90.413" y1="147.241" x2="90.466" y2="147.287"/>
				</g>
			</g>
		</g>
		<g>
			
				<path fill="#A1C453" stroke="#333333" stroke-width="0.9957" stroke-linecap="round" stroke-linejoin="round" stroke-miterlimit="10" d="
				M106.46,138.352c0.123,1.201,0.857,1.738-0.698,3.738c-1.559,2-2.234,0.031-3.26,1.348c1.024-1.316-1.034-1.596,0.466-3.521
				C104.468,137.988,105.287,138.627,106.46,138.352z"/>
			<g>
				<line fill="none" x1="102.502" y1="143.438" x2="105.254" y2="139.953"/>
				<g>
					<polyline fill="none" stroke="#333333" stroke-width="0.9957" stroke-linecap="round" stroke-miterlimit="10" points="
						102.811,143.047 103.21,142.541 103.629,142.011 103.977,141.571 					"/>
					
						<line fill="none" stroke="#333333" stroke-width="0.9957" stroke-linecap="round" stroke-miterlimit="10" x1="104.945" y1="140.344" x2="104.902" y2="140.398"/>
				</g>
			</g>
		</g>
		<path fill="#CC924C" stroke="#333333" stroke-width="2.4893" stroke-linecap="round" stroke-miterlimit="10" d="M102.634,174.223
			l-0.499-35.939c0-1.039-0.843-1.883-1.883-1.883l0,0c-1.039,0-1.883,0.844-1.883,1.883l-0.497,35.939"/>
		<g>
			
				<path fill="#A1C453" stroke="#333333" stroke-width="0.9957" stroke-linecap="round" stroke-linejoin="round" stroke-miterlimit="10" d="
				M98.799,136.25c0,0,1.114-2.711,1.477-3.188c0.287-0.383,0.935,2.686,0.966,3.83L98.799,136.25z"/>
			
				<path fill="#A1C453" stroke="#333333" stroke-width="0.9957" stroke-linecap="round" stroke-linejoin="round" stroke-miterlimit="10" d="
				M101.114,136.016l-3.013,3.355c0,0-0.668-4.438,0.436-5.957C98.536,133.414,99.895,135.113,101.114,136.016z"/>
			
				<path fill="#A1C453" stroke="#333333" stroke-width="0.9957" stroke-linecap="round" stroke-linejoin="round" stroke-miterlimit="10" d="
				M101.697,141.365c0,0,2.209-5.115,0.534-7.951l-2.721,3.354L101.697,141.365z"/>
		</g>
	</g>
</g>
<g id="calque04">
	<g>
		
			<polygon fill="#CC924C" stroke="#333333" stroke-width="0.9957" stroke-linecap="round" stroke-linejoin="round" stroke-miterlimit="10" points="
			106.151,137.932 102.135,145.65 102.135,142.842 		"/>
		<g>
			
				<path fill="#A1C453" stroke="#333333" stroke-width="1.4936" stroke-linecap="round" stroke-linejoin="round" stroke-miterlimit="10" d="
				M87.62,144.785c2.679-0.111,3.967-1.67,8.194,2.049c4.229,3.719-0.228,4.957,2.555,7.404c-2.781-2.447-3.677,2.08-7.747-1.502
				C86.55,149.156,88.074,147.422,87.62,144.785z"/>
			<g>
				<line fill="none" x1="98.369" y1="154.238" x2="89.923" y2="146.795"/>
				<g>
					<polyline fill="none" stroke="#333333" stroke-width="0.9957" stroke-linecap="round" stroke-miterlimit="10" points="
						97.996,153.909 97.512,153.482 91.89,148.528 91.47,148.158 					"/>
					
						<line fill="none" stroke="#333333" stroke-width="0.9957" stroke-linecap="round" stroke-miterlimit="10" x1="90.296" y1="147.124" x2="90.349" y2="147.17"/>
				</g>
			</g>
		</g>
		<g>
			
				<path fill="#A1C453" stroke="#333333" stroke-width="1.4936" stroke-linecap="round" stroke-linejoin="round" stroke-miterlimit="10" d="
				M114.945,126.635c0.271,2.666,1.904,3.859-1.555,8.303s-4.963,0.07-7.239,2.994c2.276-2.924-2.297-3.545,1.034-7.824
				C110.517,125.827,112.339,127.245,114.945,126.635z"/>
			<g>
				<line fill="none" x1="106.035" y1="137.814" x2="112.848" y2="129.061"/>
				<g>
					<polyline fill="none" stroke="#333333" stroke-width="0.9957" stroke-linecap="round" stroke-miterlimit="10" points="
						106.341,137.422 106.737,136.912 111.237,131.13 111.582,130.688 					"/>
					
						<line fill="none" stroke="#333333" stroke-width="0.9957" stroke-linecap="round" stroke-miterlimit="10" x1="112.542" y1="129.453" x2="112.499" y2="129.509"/>
				</g>
			</g>
		</g>
		<g>
			
				<path fill="#A1C453" stroke="#333333" stroke-width="0.9957" stroke-linecap="round" stroke-linejoin="round" stroke-miterlimit="10" d="
				M90.639,131.652c1.541-0.289,2.156-1.299,4.914,0.5c2.76,1.799,0.284,2.891,2.102,4.072c-1.816-1.182-1.954,1.514-4.61-0.219
				C90.385,134.273,91.121,133.141,90.639,131.652z"/>
			<g>
				<line fill="none" x1="97.654" y1="136.225" x2="92.217" y2="132.682"/>
				<g>
					<polyline fill="none" stroke="#333333" stroke-width="0.9957" stroke-linecap="round" stroke-miterlimit="10" points="
						97.237,135.953 96.696,135.601 94.414,134.113 93.944,133.807 					"/>
					
						<line fill="none" stroke="#333333" stroke-width="0.9957" stroke-linecap="round" stroke-miterlimit="10" x1="92.634" y1="132.953" x2="92.692" y2="132.991"/>
				</g>
			</g>
		</g>
		<path fill="#CC924C" stroke="#333333" stroke-width="2.6551" stroke-linecap="round" stroke-miterlimit="10" d="M102.634,174.223
			l-0.499-43.871c0-1.04-0.843-1.883-1.883-1.883l0,0c-1.039,0-1.883,0.843-1.883,1.883l-0.497,43.871"/>
		<g>
			
				<path fill="#A1C453" stroke="#333333" stroke-width="0.9957" stroke-linecap="round" stroke-linejoin="round" stroke-miterlimit="10" d="
				M98.799,128.318c0,0,1.114-2.711,1.477-3.188c0.287-0.383,0.935,2.686,0.966,3.83L98.799,128.318z"/>
			
				<path fill="#A1C453" stroke="#333333" stroke-width="0.9957" stroke-linecap="round" stroke-linejoin="round" stroke-miterlimit="10" d="
				M101.114,128.082l-3.013,3.357c0,0-0.667-4.438,0.435-5.959C98.535,125.48,99.894,127.182,101.114,128.082z"/>
			
				<path fill="#A1C453" stroke="#333333" stroke-width="0.9957" stroke-linecap="round" stroke-linejoin="round" stroke-miterlimit="10" d="
				M101.697,133.434c0,0,2.209-5.115,0.534-7.953l-2.721,3.355L101.697,133.434z"/>
		</g>
	</g>
</g>
<g id="calque05">
	<g>
		
			<polygon fill="#CC924C" stroke="#333333" stroke-width="0.9957" stroke-linecap="round" stroke-linejoin="round" stroke-miterlimit="10" points="
			106.151,137.932 102.135,145.65 102.135,142.842 		"/>
		
			<polygon fill="#CC924C" stroke="#333333" stroke-width="0.9957" stroke-linecap="round" stroke-linejoin="round" stroke-miterlimit="10" points="
			88.214,128.127 98.369,140.002 98.369,137.193 		"/>
		<g>
			
				<path fill="#A1C453" stroke="#333333" stroke-width="1.4936" stroke-linecap="round" stroke-linejoin="round" stroke-miterlimit="10" d="
				M87.62,144.785c2.679-0.111,3.966-1.67,8.193,2.049c4.229,3.719-0.227,4.957,2.556,7.404c-2.781-2.447-3.677,2.08-7.747-1.502
				C86.55,149.156,88.074,147.422,87.62,144.785z"/>
			<g>
				<line fill="none" x1="98.369" y1="154.238" x2="89.923" y2="146.795"/>
				<g>
					<polyline fill="none" stroke="#333333" stroke-width="0.9957" stroke-linecap="round" stroke-miterlimit="10" points="
						97.996,153.909 97.512,153.482 91.89,148.528 91.47,148.158 					"/>
					
						<line fill="none" stroke="#333333" stroke-width="0.9957" stroke-linecap="round" stroke-miterlimit="10" x1="90.296" y1="147.124" x2="90.349" y2="147.17"/>
				</g>
			</g>
		</g>
		<g>
			
				<path fill="#A1C453" stroke="#333333" stroke-width="1.4936" stroke-linecap="round" stroke-linejoin="round" stroke-miterlimit="10" d="
				M114.945,126.635c0.271,2.666,1.904,3.859-1.555,8.303s-4.965,0.07-7.239,2.994c2.274-2.924-2.297-3.545,1.034-7.824
				C110.517,125.827,112.339,127.245,114.945,126.635z"/>
			<g>
				<line fill="none" x1="106.035" y1="137.814" x2="112.848" y2="129.061"/>
				<g>
					<polyline fill="none" stroke="#333333" stroke-width="0.9957" stroke-linecap="round" stroke-miterlimit="10" points="
						106.341,137.422 106.737,136.912 111.237,131.13 111.582,130.688 					"/>
					
						<line fill="none" stroke="#333333" stroke-width="0.9957" stroke-linecap="round" stroke-miterlimit="10" x1="112.542" y1="129.453" x2="112.499" y2="129.509"/>
				</g>
			</g>
		</g>
		<g>
			
				<path fill="#A1C453" stroke="#333333" stroke-width="0.9957" stroke-linecap="round" stroke-linejoin="round" stroke-miterlimit="10" d="
				M86.828,120.119c1.216,0.83,2.294,0.568,2.933,3.594c0.638,3.025-1.729,2.106-1.311,4.098c-0.42-1.991-2.301-0.294-2.915-3.207
				C84.922,121.689,86.162,121.428,86.828,120.119z"/>
			<g>
				<line fill="none" x1="88.45" y1="127.811" x2="87.193" y2="121.85"/>
				<g>
					<polyline fill="none" stroke="#333333" stroke-width="0.9957" stroke-linecap="round" stroke-miterlimit="10" points="
						88.348,127.323 88.215,126.692 87.734,124.415 87.619,123.867 					"/>
					
						<line fill="none" stroke="#333333" stroke-width="0.9957" stroke-linecap="round" stroke-miterlimit="10" x1="87.296" y1="122.337" x2="87.311" y2="122.405"/>
				</g>
			</g>
		</g>
		<g>
			
				<path fill="#A1C453" stroke="#333333" stroke-width="1.4936" stroke-linecap="round" stroke-linejoin="round" stroke-miterlimit="10" d="
				M74.828,119.713c2.973-0.559,4.158-2.507,9.481,0.963c5.322,3.47,0.547,5.576,4.051,7.858c-3.504-2.282-3.77,2.917-8.895-0.425
				C74.338,124.768,75.761,122.586,74.828,119.713z"/>
			<g>
				<line fill="none" x1="88.361" y1="128.534" x2="77.873" y2="121.699"/>
				<g>
					<polyline fill="none" stroke="#333333" stroke-width="0.9957" stroke-linecap="round" stroke-miterlimit="10" points="
						87.944,128.263 87.403,127.91 80.069,123.131 79.601,122.824 					"/>
					
						<line fill="none" stroke="#333333" stroke-width="0.9957" stroke-linecap="round" stroke-miterlimit="10" x1="78.29" y1="121.971" x2="78.349" y2="122.01"/>
				</g>
			</g>
		</g>
		<g>
			
				<path fill="#A1C453" stroke="#333333" stroke-width="0.9957" stroke-linecap="round" stroke-linejoin="round" stroke-miterlimit="10" d="
				M107.096,107.814c0.123,1.388,0.963,2.018-0.865,4.303c-1.827,2.285-2.58,0.003-3.78,1.507c1.2-1.504-1.171-1.857,0.591-4.058
				C104.801,107.365,105.736,108.113,107.096,107.814z"/>
			<g>
				<line fill="none" x1="102.449" y1="113.624" x2="106.051" y2="109.122"/>
				<g>
					<polyline fill="none" stroke="#333333" stroke-width="0.9957" stroke-linecap="round" stroke-miterlimit="10" points="
						102.76,113.235 103.163,112.731 104.413,111.17 104.763,110.731 					"/>
					
						<line fill="none" stroke="#333333" stroke-width="0.9957" stroke-linecap="round" stroke-miterlimit="10" x1="105.74" y1="109.511" x2="105.696" y2="109.565"/>
				</g>
			</g>
		</g>
		<path fill="#CC924C" stroke="#333333" stroke-width="2.6551" stroke-linecap="round" stroke-miterlimit="10" d="M102.634,174.223
			l-0.499-63.814c0-1.039-0.843-1.883-1.883-1.883l0,0c-1.039,0-1.883,0.844-1.883,1.883l-0.497,63.814"/>
		<g>
			
				<path fill="#A1C453" stroke="#333333" stroke-width="0.9957" stroke-linecap="round" stroke-linejoin="round" stroke-miterlimit="10" d="
				M98.799,108.375c0,0,1.114-2.712,1.477-3.188c0.287-0.383,0.935,2.686,0.966,3.83L98.799,108.375z"/>
			
				<path fill="#A1C453" stroke="#333333" stroke-width="0.9957" stroke-linecap="round" stroke-linejoin="round" stroke-miterlimit="10" d="
				M101.114,108.139l-3.013,3.357c0,0-0.668-4.438,0.435-5.959C98.535,105.537,99.894,107.238,101.114,108.139z"/>
			
				<path fill="#A1C453" stroke="#333333" stroke-width="0.9957" stroke-linecap="round" stroke-linejoin="round" stroke-miterlimit="10" d="
				M101.697,113.49c0,0,2.209-5.115,0.534-7.953l-2.721,3.355L101.697,113.49z"/>
		</g>
		<g>
			
				<path fill="#FFFFFF" stroke="#333333" stroke-width="0.9957" stroke-linecap="round" stroke-linejoin="round" stroke-miterlimit="10" d="
				M107.129,137.865c-0.387,0.223-0.396,1.109-0.326,1.773c0.12,1.199,1.311,2.627,2.523,1.926c1.219-0.703,0.584-2.453-0.39-3.158
				C108.396,138.016,107.517,137.641,107.129,137.865z"/>
			
				<path fill="#FFFFFF" stroke="#333333" stroke-width="0.9957" stroke-linecap="round" stroke-linejoin="round" stroke-miterlimit="10" d="
				M107.031,137.799c0-0.445-0.766-0.896-1.375-1.17c-1.097-0.496-2.929-0.18-2.929,1.223c0,1.408,1.832,1.732,2.929,1.242
				C106.266,138.82,107.031,138.246,107.031,137.799z"/>
			
				<path fill="#FFFFFF" stroke="#333333" stroke-width="0.9957" stroke-linecap="round" stroke-linejoin="round" stroke-miterlimit="10" d="
				M107.13,137.748c0.386,0.223,1.159-0.215,1.7-0.605c0.979-0.703,1.619-2.447,0.405-3.148c-1.221-0.703-2.416,0.721-2.541,1.916
				C106.628,136.574,106.742,137.523,107.13,137.748z"/>
			
				<path fill="#FFFFFF" stroke="#333333" stroke-width="0.9957" stroke-linecap="round" stroke-linejoin="round" stroke-miterlimit="10" d="
				M107.25,137.834c0,0.445,0.766,0.896,1.375,1.17c1.097,0.494,2.93,0.178,2.93-1.223c0-1.408-1.833-1.73-2.93-1.242
				C108.016,136.813,107.25,137.385,107.25,137.834z"/>
			
				<path fill="#FFFFFF" stroke="#333333" stroke-width="0.9957" stroke-linecap="round" stroke-linejoin="round" stroke-miterlimit="10" d="
				M107.146,137.883c-0.387-0.223-1.16,0.213-1.701,0.604c-0.978,0.703-1.618,2.449-0.405,3.148
				c1.221,0.705,2.416-0.721,2.541-1.916C107.647,139.055,107.534,138.105,107.146,137.883z"/>
			
				<path fill="#FFFFFF" stroke="#333333" stroke-width="0.9957" stroke-linecap="round" stroke-linejoin="round" stroke-miterlimit="10" d="
				M107.168,137.758c0.386-0.221,0.394-1.109,0.326-1.773c-0.121-1.199-1.312-2.627-2.524-1.926
				c-1.219,0.703-0.583,2.453,0.39,3.156C105.9,137.607,106.779,137.982,107.168,137.758z"/>
			
				<circle fill="#F9D53E" stroke="#333333" stroke-width="0.9957" stroke-linecap="round" stroke-linejoin="round" stroke-miterlimit="10" cx="107.251" cy="137.834" r="0.927"/>
		</g>
	</g>
</g>
<g id="calque06">
	<g>
		
			<polygon fill="#CC924C" stroke="#333333" stroke-width="0.9957" stroke-linecap="round" stroke-linejoin="round" stroke-miterlimit="10" points="
			106.151,137.932 102.135,145.65 102.135,142.842 		"/>
		
			<polygon fill="#CC924C" stroke="#333333" stroke-width="0.9957" stroke-linecap="round" stroke-linejoin="round" stroke-miterlimit="10" points="
			106.712,110.719 102.135,116.277 102.135,113.467 		"/>
		
			<polygon fill="#CC924C" stroke="#333333" stroke-width="0.9957" stroke-linecap="round" stroke-linejoin="round" stroke-miterlimit="10" points="
			88.214,128.127 98.369,140.002 98.369,137.193 		"/>
		<g>
			
				<path fill="#A1C453" stroke="#333333" stroke-width="1.4936" stroke-linecap="round" stroke-linejoin="round" stroke-miterlimit="10" d="
				M87.62,144.785c2.679-0.111,3.967-1.67,8.194,2.049c4.229,3.719-0.228,4.957,2.555,7.404c-2.781-2.447-3.677,2.08-7.747-1.502
				C86.55,149.156,88.074,147.422,87.62,144.785z"/>
			<g>
				<line fill="none" x1="98.369" y1="154.238" x2="89.923" y2="146.795"/>
				<g>
					<polyline fill="none" stroke="#333333" stroke-width="0.9957" stroke-linecap="round" stroke-miterlimit="10" points="
						97.996,153.909 97.512,153.482 91.89,148.528 91.47,148.158 					"/>
					
						<line fill="none" stroke="#333333" stroke-width="0.9957" stroke-linecap="round" stroke-miterlimit="10" x1="90.296" y1="147.124" x2="90.349" y2="147.17"/>
				</g>
			</g>
		</g>
		<g>
			
				<path fill="#A1C453" stroke="#333333" stroke-width="1.4936" stroke-linecap="round" stroke-linejoin="round" stroke-miterlimit="10" d="
				M114.945,126.635c0.271,2.666,1.904,3.859-1.555,8.303s-4.963,0.07-7.239,2.994c2.276-2.924-2.296-3.545,1.034-7.824
				C110.517,125.827,112.339,127.245,114.945,126.635z"/>
			<g>
				<line fill="none" x1="106.035" y1="137.814" x2="112.85" y2="129.061"/>
				<g>
					<polyline fill="none" stroke="#333333" stroke-width="0.9957" stroke-linecap="round" stroke-miterlimit="10" points="
						106.341,137.422 106.737,136.912 111.239,131.13 111.583,130.688 					"/>
					
						<line fill="none" stroke="#333333" stroke-width="0.9957" stroke-linecap="round" stroke-miterlimit="10" x1="112.544" y1="129.453" x2="112.501" y2="129.509"/>
				</g>
			</g>
		</g>
		<g>
			
				<path fill="#A1C453" stroke="#333333" stroke-width="1.4936" stroke-linecap="round" stroke-linejoin="round" stroke-miterlimit="10" d="
				M85.092,112.289c2.497,1.707,4.714,1.169,6.025,7.387c1.311,6.218-3.557,4.33-2.693,8.421c-0.862-4.091-4.729-0.603-5.989-6.591
				C81.172,115.518,83.721,114.98,85.092,112.289z"/>
			<g>
				<line fill="none" x1="88.424" y1="128.097" x2="85.842" y2="115.847"/>
				<g>
					<polyline fill="none" stroke="#333333" stroke-width="0.9957" stroke-linecap="round" stroke-miterlimit="10" points="
						88.321,127.609 88.188,126.979 86.383,118.412 86.267,117.864 					"/>
					
						<line fill="none" stroke="#333333" stroke-width="0.9957" stroke-linecap="round" stroke-miterlimit="10" x1="85.944" y1="116.334" x2="85.959" y2="116.402"/>
				</g>
			</g>
		</g>
		<g>
			
				<path fill="#A1C453" stroke="#333333" stroke-width="1.4936" stroke-linecap="round" stroke-linejoin="round" stroke-miterlimit="10" d="
				M74.828,119.713c2.973-0.559,4.158-2.507,9.482,0.963c5.323,3.47,0.546,5.576,4.05,7.858c-3.504-2.282-3.77,2.917-8.895-0.425
				C74.338,124.768,75.761,122.586,74.828,119.713z"/>
			<g>
				<line fill="none" x1="88.361" y1="128.534" x2="77.875" y2="121.699"/>
				<g>
					<polyline fill="none" stroke="#333333" stroke-width="0.9957" stroke-linecap="round" stroke-miterlimit="10" points="
						87.944,128.263 87.404,127.91 80.071,123.131 79.602,122.825 					"/>
					
						<line fill="none" stroke="#333333" stroke-width="0.9957" stroke-linecap="round" stroke-miterlimit="10" x1="78.292" y1="121.971" x2="78.351" y2="122.01"/>
				</g>
			</g>
		</g>
		<g>
			
				<path fill="#A1C453" stroke="#333333" stroke-width="0.9957" stroke-linecap="round" stroke-linejoin="round" stroke-miterlimit="10" d="
				M94.006,101.486c1.205,0.177,1.912-0.41,3.484,1.606c1.571,2.016-0.521,2.192,0.514,3.52c-1.035-1.327-1.815,0.617-3.329-1.324
				C93.16,103.346,93.986,102.701,94.006,101.486z"/>
			<g>
				<line fill="none" x1="98.004" y1="106.612" x2="94.906" y2="102.641"/>
				<g>
					<polyline fill="none" stroke="#333333" stroke-width="0.9957" stroke-linecap="round" stroke-miterlimit="10" points="
						97.697,106.22 97.301,105.711 96.519,104.708 96.174,104.266 					"/>
					
						<line fill="none" stroke="#333333" stroke-width="0.9957" stroke-linecap="round" stroke-miterlimit="10" x1="95.213" y1="103.033" x2="95.256" y2="103.088"/>
				</g>
			</g>
		</g>
		<g>
			
				<path fill="#A1C453" stroke="#333333" stroke-width="0.9957" stroke-linecap="round" stroke-linejoin="round" stroke-miterlimit="10" d="
				M112.779,103.641c0.148,1.668,1.156,2.426-1.038,5.171c-2.195,2.746-3.101,0.003-4.545,1.81c1.444-1.807-1.403-2.232,0.71-4.875
				C110.021,103.102,111.146,104.002,112.779,103.641z"/>
			<g>
				<line fill="none" x1="107.196" y1="110.621" x2="111.522" y2="105.213"/>
				<g>
					<polyline fill="none" stroke="#333333" stroke-width="0.9957" stroke-linecap="round" stroke-miterlimit="10" points="
						107.507,110.232 107.91,109.729 109.885,107.261 110.234,106.822 					"/>
					
						<line fill="none" stroke="#333333" stroke-width="0.9957" stroke-linecap="round" stroke-miterlimit="10" x1="111.212" y1="105.602" x2="111.168" y2="105.656"/>
				</g>
			</g>
		</g>
		<g>
			
				<path fill="#A1C453" stroke="#333333" stroke-width="1.4936" stroke-linecap="round" stroke-linejoin="round" stroke-miterlimit="10" d="
				M117.278,118.185c-2.339,0.419-3.282,1.942-7.443-0.814c-4.16-2.759-0.396-4.384-3.135-6.198c2.737,1.814,2.979-2.27,6.985,0.387
				C117.694,114.216,116.563,115.922,117.278,118.185z"/>
			<g>
				<line fill="none" x1="106.583" y1="111.055" x2="114.781" y2="116.489"/>
				<g>
					<polyline fill="none" stroke="#333333" stroke-width="0.9957" stroke-linecap="round" stroke-miterlimit="10" points="
						106.998,111.33 107.535,111.687 112.596,115.041 113.063,115.351 					"/>
					
						<line fill="none" stroke="#333333" stroke-width="0.9957" stroke-linecap="round" stroke-miterlimit="10" x1="114.366" y1="116.214" x2="114.308" y2="116.176"/>
				</g>
			</g>
		</g>
		<path fill="#CC924C" stroke="#333333" stroke-width="2.6551" stroke-linecap="round" stroke-miterlimit="10" d="M102.634,174.223
			l-0.499-72.656c0-1.039-0.843-1.882-1.883-1.882l0,0c-1.039,0-1.883,0.843-1.883,1.882l-0.497,72.656"/>
		<g>
			<g>
				<path fill="#D3F46C" d="M111.107,141.719c-0.674,2.229-3.942,3.969-5.254,2.813c-1.924,0.293-3.486-3.027-2.813-5.256
					s2.434-4.1,5.237-2.268C111.475,137.021,111.783,139.49,111.107,141.719z"/>
				<g>
					<path fill="none" stroke="#333333" stroke-width="0.9957" stroke-linecap="round" stroke-miterlimit="10" d="M110.925,142.182
						c-0.1,0.19-0.196,0.383-0.326,0.556c-0.581,0.841-1.426,1.489-2.366,1.882c-0.471,0.189-0.981,0.317-1.494,0.268
						c-0.251-0.034-0.508-0.094-0.718-0.241l-0.158-0.108c-0.061-0.01-0.127,0.002-0.188,0.001c-0.129,0.016-0.255-0.002-0.38-0.031
						c-1.025-0.242-1.655-1.217-2.031-2.134c-0.358-0.949-0.509-2.013-0.242-3.006c0.282-0.971,0.763-1.936,1.578-2.566
						c0.813-0.656,1.987-0.667,2.898-0.215c0.237,0.095,0.456,0.229,0.676,0.359c0.222,0.129,0.502,0.05,0.748,0.105
						c0.506,0.06,1.007,0.221,1.428,0.511s0.729,0.729,0.885,1.215c0.051,0.115,0.066,0.255,0.096,0.362
						c0.013,0.061,0.027,0.12,0.031,0.182c0.013,0.122,0.031,0.244,0.036,0.367"/>
					
						<line fill="none" stroke="#333333" stroke-width="0.9957" stroke-linecap="round" stroke-miterlimit="10" x1="111.235" y1="141.237" x2="111.249" y2="141.169"/>
				</g>
			</g>
			
				<ellipse transform="matrix(0.7876 -0.6162 0.6162 0.7876 -62.9134 94.1666)" opacity="0.5" fill="#FFFFFF" enable-background="new    " cx="105.141" cy="138.345" rx="0.964" ry="0.793"/>
		</g>
		<g>
			
				<path fill="#A1C453" stroke="#333333" stroke-width="0.9957" stroke-linecap="round" stroke-linejoin="round" stroke-miterlimit="10" d="
				M98.799,99.533c0,0,1.114-2.711,1.477-3.188c0.287-0.383,0.935,2.688,0.966,3.83L98.799,99.533z"/>
			
				<path fill="#A1C453" stroke="#333333" stroke-width="0.9957" stroke-linecap="round" stroke-linejoin="round" stroke-miterlimit="10" d="
				M101.115,99.298l-3.015,3.356c0,0-0.667-4.437,0.435-5.957C98.535,96.697,99.894,98.397,101.115,99.298z"/>
			
				<path fill="#A1C453" stroke="#333333" stroke-width="0.9957" stroke-linecap="round" stroke-linejoin="round" stroke-miterlimit="10" d="
				M101.697,104.649c0,0,2.209-5.116,0.534-7.952l-2.721,3.354L101.697,104.649z"/>
		</g>
		<g>
			
				<path fill="#FFFFFF" stroke="#333333" stroke-width="0.9957" stroke-linecap="round" stroke-linejoin="round" stroke-miterlimit="10" d="
				M95.918,107.163c-0.385,0.223-0.394,1.11-0.326,1.775c0.121,1.197,1.311,2.626,2.525,1.925c1.219-0.703,0.583-2.452-0.391-3.158
				C97.187,107.314,96.307,106.938,95.918,107.163z"/>
			
				<path fill="#FFFFFF" stroke="#333333" stroke-width="0.9957" stroke-linecap="round" stroke-linejoin="round" stroke-miterlimit="10" d="
				M95.82,107.098c0-0.445-0.764-0.896-1.373-1.17c-1.098-0.496-2.93-0.179-2.93,1.223c0,1.408,1.832,1.73,2.929,1.241
				C95.057,108.118,95.82,107.546,95.82,107.098z"/>
			
				<path fill="#FFFFFF" stroke="#333333" stroke-width="0.9957" stroke-linecap="round" stroke-linejoin="round" stroke-miterlimit="10" d="
				M95.92,107.047c0.386,0.223,1.158-0.215,1.701-0.605c0.977-0.703,1.619-2.447,0.403-3.148c-1.219-0.703-2.414,0.722-2.539,1.916
				C95.418,105.873,95.531,106.822,95.92,107.047z"/>
			
				<path fill="#FFFFFF" stroke="#333333" stroke-width="0.9957" stroke-linecap="round" stroke-linejoin="round" stroke-miterlimit="10" d="
				M96.041,107.133c0,0.446,0.766,0.896,1.374,1.17c1.099,0.495,2.93,0.179,2.93-1.223c0-1.408-1.831-1.732-2.93-1.242
				C96.807,106.111,96.041,106.684,96.041,107.133z"/>
			
				<path fill="#FFFFFF" stroke="#333333" stroke-width="0.9957" stroke-linecap="round" stroke-linejoin="round" stroke-miterlimit="10" d="
				M95.936,107.181c-0.386-0.223-1.158,0.215-1.699,0.605c-0.978,0.702-1.618,2.448-0.405,3.148c1.219,0.704,2.414-0.721,2.54-1.916
				C96.438,108.354,96.325,107.405,95.936,107.181z"/>
			
				<path fill="#FFFFFF" stroke="#333333" stroke-width="0.9957" stroke-linecap="round" stroke-linejoin="round" stroke-miterlimit="10" d="
				M95.957,107.058c0.387-0.223,0.395-1.11,0.326-1.775c-0.119-1.197-1.311-2.626-2.522-1.925c-1.22,0.703-0.585,2.452,0.388,3.157
				C94.691,106.906,95.569,107.282,95.957,107.058z"/>
			
				<circle fill="#F9D53E" stroke="#333333" stroke-width="0.9957" stroke-linecap="round" stroke-linejoin="round" stroke-miterlimit="10" cx="96.041" cy="107.133" r="0.926"/>
		</g>
	</g>
</g>
<g id="calque07">
	<g>
		
			<polygon fill="#CC924C" stroke="#333333" stroke-width="0.9957" stroke-linecap="round" stroke-linejoin="round" stroke-miterlimit="10" points="
			106.151,137.932 102.135,145.65 102.135,142.842 		"/>
		
			<polygon fill="#CC924C" stroke="#333333" stroke-width="0.9957" stroke-linecap="round" stroke-linejoin="round" stroke-miterlimit="10" points="
			106.712,110.719 102.135,116.277 102.135,113.467 		"/>
		
			<polygon fill="#CC924C" stroke="#333333" stroke-width="0.9957" stroke-linecap="round" stroke-linejoin="round" stroke-miterlimit="10" points="
			88.214,128.127 98.369,140.002 98.369,137.193 		"/>
		
			<polygon fill="#CC924C" stroke="#333333" stroke-width="0.9957" stroke-linecap="round" stroke-linejoin="round" stroke-miterlimit="10" points="
			93.493,101.938 98.369,108.223 98.369,106.408 		"/>
		<g>
			
				<path fill="#A1C453" stroke="#333333" stroke-width="1.4936" stroke-linecap="round" stroke-linejoin="round" stroke-miterlimit="10" d="
				M87.62,144.785c2.679-0.111,3.966-1.67,8.193,2.049c4.229,3.719-0.227,4.957,2.556,7.404c-2.781-2.447-3.677,2.08-7.747-1.502
				C86.55,149.156,88.074,147.422,87.62,144.785z"/>
			<g>
				<line fill="none" x1="98.369" y1="154.238" x2="89.923" y2="146.795"/>
				<g>
					<polyline fill="none" stroke="#333333" stroke-width="0.9957" stroke-linecap="round" stroke-miterlimit="10" points="
						97.996,153.909 97.512,153.482 91.89,148.528 91.47,148.158 					"/>
					
						<line fill="none" stroke="#333333" stroke-width="0.9957" stroke-linecap="round" stroke-miterlimit="10" x1="90.296" y1="147.124" x2="90.349" y2="147.17"/>
				</g>
			</g>
		</g>
		<g>
			
				<path fill="#A1C453" stroke="#333333" stroke-width="1.4936" stroke-linecap="round" stroke-linejoin="round" stroke-miterlimit="10" d="
				M114.945,126.635c0.271,2.666,1.904,3.859-1.555,8.303s-4.965,0.07-7.239,2.994c2.274-2.924-2.297-3.545,1.034-7.824
				C110.517,125.827,112.339,127.245,114.945,126.635z"/>
			<g>
				<line fill="none" x1="106.035" y1="137.814" x2="112.848" y2="129.061"/>
				<g>
					<polyline fill="none" stroke="#333333" stroke-width="0.9957" stroke-linecap="round" stroke-miterlimit="10" points="
						106.341,137.422 106.737,136.912 111.237,131.13 111.582,130.688 					"/>
					
						<line fill="none" stroke="#333333" stroke-width="0.9957" stroke-linecap="round" stroke-miterlimit="10" x1="112.542" y1="129.453" x2="112.499" y2="129.509"/>
				</g>
			</g>
		</g>
		<g>
			
				<path fill="#A1C453" stroke="#333333" stroke-width="1.4936" stroke-linecap="round" stroke-linejoin="round" stroke-miterlimit="10" d="
				M85.092,112.289c2.497,1.707,4.714,1.169,6.025,7.387c1.311,6.218-3.558,4.33-2.693,8.421c-0.863-4.091-4.729-0.603-5.99-6.591
				C81.173,115.518,83.721,114.98,85.092,112.289z"/>
			<g>
				<line fill="none" x1="88.424" y1="128.097" x2="85.842" y2="115.847"/>
				<g>
					<polyline fill="none" stroke="#333333" stroke-width="0.9957" stroke-linecap="round" stroke-miterlimit="10" points="
						88.321,127.609 88.188,126.979 86.383,118.412 86.267,117.864 					"/>
					
						<line fill="none" stroke="#333333" stroke-width="0.9957" stroke-linecap="round" stroke-miterlimit="10" x1="85.944" y1="116.334" x2="85.959" y2="116.402"/>
				</g>
			</g>
		</g>
		<g>
			
				<path fill="#A1C453" stroke="#333333" stroke-width="1.4936" stroke-linecap="round" stroke-linejoin="round" stroke-miterlimit="10" d="
				M74.828,119.713c2.973-0.559,4.158-2.507,9.481,0.963c5.322,3.47,0.547,5.576,4.051,7.858c-3.504-2.282-3.77,2.917-8.895-0.425
				C74.338,124.768,75.761,122.586,74.828,119.713z"/>
			<g>
				<line fill="none" x1="88.361" y1="128.534" x2="77.873" y2="121.699"/>
				<g>
					<polyline fill="none" stroke="#333333" stroke-width="0.9957" stroke-linecap="round" stroke-miterlimit="10" points="
						87.944,128.263 87.403,127.91 80.069,123.131 79.601,122.824 					"/>
					
						<line fill="none" stroke="#333333" stroke-width="0.9957" stroke-linecap="round" stroke-miterlimit="10" x1="78.29" y1="121.971" x2="78.349" y2="122.01"/>
				</g>
			</g>
		</g>
		<g>
			
				<path fill="#A1C453" stroke="#333333" stroke-width="0.9957" stroke-linecap="round" stroke-linejoin="round" stroke-miterlimit="10" d="
				M89.43,97.366c1.322,0.193,2.098-0.45,3.823,1.763c1.725,2.213-0.571,2.407,0.563,3.863c-1.135-1.456-1.991,0.678-3.653-1.453
				C88.501,99.407,89.408,98.7,89.43,97.366z"/>
			<g>
				<line fill="none" x1="93.816" y1="102.992" x2="90.418" y2="98.633"/>
				<g>
					<polyline fill="none" stroke="#333333" stroke-width="0.9957" stroke-linecap="round" stroke-miterlimit="10" points="
						93.511,102.6 93.113,102.091 92.03,100.701 91.686,100.259 					"/>
					
						<line fill="none" stroke="#333333" stroke-width="0.9957" stroke-linecap="round" stroke-miterlimit="10" x1="90.724" y1="99.025" x2="90.768" y2="99.081"/>
				</g>
			</g>
		</g>
		<g>
			
				<path fill="#A1C453" stroke="#333333" stroke-width="1.4936" stroke-linecap="round" stroke-linejoin="round" stroke-miterlimit="10" d="
				M81.31,100.984c1.923-1.434,2.091-3.236,7.093-2.617c5.002,0.619,2.332,3.783,5.625,4.189c-3.293-0.406-1.672,3.392-6.487,2.796
				C82.721,104.756,82.975,102.705,81.31,100.984z"/>
			<g>
				<line fill="none" x1="94.027" y1="102.557" x2="84.172" y2="101.338"/>
				<g>
					<polyline fill="none" stroke="#333333" stroke-width="0.9957" stroke-linecap="round" stroke-miterlimit="10" points="
						93.533,102.495 92.893,102.416 86.774,101.66 86.218,101.591 					"/>
					
						<line fill="none" stroke="#333333" stroke-width="0.9957" stroke-linecap="round" stroke-miterlimit="10" x1="84.666" y1="101.399" x2="84.735" y2="101.407"/>
				</g>
			</g>
		</g>
		<g>
			
				<path fill="#A1C453" stroke="#333333" stroke-width="0.9957" stroke-linecap="round" stroke-linejoin="round" stroke-miterlimit="10" d="
				M116.108,110.01c-1.106,1.323-0.925,2.611-4.523,3.012c-3.603,0.4-2.263-2.256-4.633-1.992c2.37-0.264,0.604-2.65,4.071-3.037
				C114.492,107.607,114.656,109.083,116.108,110.01z"/>
			<g>
				<line fill="none" x1="106.885" y1="110.963" x2="113.981" y2="110.173"/>
				<g>
					<polyline fill="none" stroke="#333333" stroke-width="0.9957" stroke-linecap="round" stroke-miterlimit="10" points="
						107.38,110.908 108.021,110.836 111.376,110.463 111.933,110.401 					"/>
					
						<line fill="none" stroke="#333333" stroke-width="0.9957" stroke-linecap="round" stroke-miterlimit="10" x1="113.486" y1="110.228" x2="113.417" y2="110.235"/>
				</g>
			</g>
		</g>
		<g>
			
				<path fill="#A1C453" stroke="#333333" stroke-width="1.4936" stroke-linecap="round" stroke-linejoin="round" stroke-miterlimit="10" d="
				M116.802,98.102c0.268,3.014,2.093,4.384-1.876,9.346c-3.969,4.963-5.603,0.006-8.214,3.271c2.611-3.266-2.538-4.033,1.284-8.813
				C111.818,97.126,113.853,98.754,116.802,98.102z"/>
			<g>
				<line fill="none" x1="106.712" y1="110.719" x2="114.53" y2="100.941"/>
				<g>
					<polyline fill="none" stroke="#333333" stroke-width="0.9957" stroke-linecap="round" stroke-miterlimit="10" points="
						107.022,110.33 107.426,109.826 112.893,102.989 113.243,102.552 					"/>
					
						<line fill="none" stroke="#333333" stroke-width="0.9957" stroke-linecap="round" stroke-miterlimit="10" x1="114.22" y1="101.33" x2="114.176" y2="101.385"/>
				</g>
			</g>
		</g>
		<g>
			
				<path fill="#A1C453" stroke="#333333" stroke-width="1.4936" stroke-linecap="round" stroke-linejoin="round" stroke-miterlimit="10" d="
				M117.278,118.185c-2.341,0.419-3.283,1.942-7.443-0.814c-4.162-2.759-0.396-4.384-3.135-6.198
				c2.737,1.814,2.979-2.27,6.985,0.387C117.694,114.216,116.563,115.922,117.278,118.185z"/>
			<g>
				<line fill="none" x1="106.583" y1="111.055" x2="114.779" y2="116.489"/>
				<g>
					<polyline fill="none" stroke="#333333" stroke-width="0.9957" stroke-linecap="round" stroke-miterlimit="10" points="
						106.998,111.33 107.535,111.687 112.594,115.04 113.062,115.35 					"/>
					
						<line fill="none" stroke="#333333" stroke-width="0.9957" stroke-linecap="round" stroke-miterlimit="10" x1="114.364" y1="116.214" x2="114.306" y2="116.176"/>
				</g>
			</g>
		</g>
		<path fill="#CC924C" stroke="#333333" stroke-width="2.6551" stroke-linecap="round" stroke-miterlimit="10" d="M102.634,174.223
			l-0.499-82.133c0-1.039-0.843-1.883-1.883-1.883l0,0c-1.039,0-1.883,0.844-1.883,1.883l-0.497,82.133"/>
		<g>
			<g>
				<path fill="#D3F46C" d="M98.087,105.869c0.267,2.178-1.887,4.924-3.458,4.427c-1.547,0.984-4.158-1.281-4.426-3.458
					c-0.268-2.177,0.535-4.459,3.649-3.949C96.612,101.684,97.819,103.693,98.087,105.869z"/>
				<g>
					<path fill="none" stroke="#333333" stroke-width="0.9957" stroke-linecap="round" stroke-miterlimit="10" d="M98.104,106.366
						c-0.009,0.215-0.032,0.429-0.079,0.64c-0.196,0.933-0.673,1.802-1.337,2.484c-0.334,0.336-0.725,0.635-1.181,0.78
						c-0.229,0.064-0.47,0.107-0.704,0.058l-0.176-0.031l-0.16,0.078c-0.104,0.062-0.22,0.092-0.337,0.115
						c-0.966,0.176-1.87-0.414-2.541-1.052c-0.663-0.674-1.204-1.518-1.36-2.464c-0.135-0.934-0.102-1.937,0.335-2.794
						c0.219-0.424,0.555-0.79,0.976-1.018c0.42-0.231,0.898-0.323,1.374-0.34c0.972,0.249,1.821-0.44,2.802-0.27
						c0.475,0.06,0.92,0.288,1.256,0.626c0.077,0.086,0.175,0.173,0.232,0.262l0.108,0.148c0.075,0.098,0.127,0.21,0.192,0.314"/>
					
						<line fill="none" stroke="#333333" stroke-width="0.9957" stroke-linecap="round" stroke-miterlimit="10" x1="98.008" y1="105.378" x2="97.993" y2="105.31"/>
				</g>
			</g>
			
				<ellipse transform="matrix(0.4711 -0.8821 0.8821 0.4711 -44.3535 136.5134)" opacity="0.5" fill="#FFFFFF" enable-background="new    " cx="91.662" cy="105.243" rx="0.909" ry="0.748"/>
		</g>
		<g>
			<g>
				<path fill="#D3F46C" d="M112.299,143.654c-1.012,3.342-5.916,5.953-7.883,4.219c-2.888,0.438-5.23-4.541-4.217-7.883
					c1.01-3.342,3.648-6.148,7.854-3.4C112.848,136.609,113.313,140.313,112.299,143.654z"/>
				<g>
					<path fill="none" stroke="#333333" stroke-width="1.4936" stroke-linecap="round" stroke-miterlimit="10" d="M112.024,144.349
						c-0.148,0.286-0.295,0.574-0.488,0.833c-0.872,1.262-2.14,2.233-3.55,2.822c-0.707,0.285-1.475,0.477-2.24,0.403
						c-0.377-0.053-0.763-0.142-1.077-0.362l-0.237-0.162c-0.09-0.018-0.188,0.002-0.284,0c-0.191,0.023-0.382-0.001-0.568-0.046
						c-0.757-0.154-1.397-0.649-1.892-1.227c-0.497-0.583-0.872-1.263-1.157-1.973c-0.536-1.424-0.763-3.02-0.362-4.508
						c0.424-1.457,1.143-2.905,2.366-3.852c0.607-0.465,1.354-0.753,2.12-0.79c0.771-0.052,1.531,0.161,2.228,0.469
						c0.356,0.142,0.685,0.344,1.015,0.539c0.153,0.136,0.36,0.093,0.548,0.114c0.191,0.017,0.386,0.009,0.573,0.044
						c0.759,0.089,1.511,0.33,2.142,0.766c0.633,0.435,1.095,1.094,1.328,1.821c0.074,0.172,0.102,0.381,0.143,0.544
						c0.021,0.09,0.044,0.18,0.049,0.271c0.018,0.184,0.047,0.366,0.054,0.551"/>
					
						<line fill="none" stroke="#333333" stroke-width="1.4936" stroke-linecap="round" stroke-miterlimit="10" x1="112.49" y1="142.933" x2="112.512" y2="142.83"/>
				</g>
			</g>
			
				<ellipse transform="matrix(0.7878 -0.6159 0.6159 0.7878 -63.437 93.0679)" opacity="0.5" fill="#FFFFFF" enable-background="new    " cx="103.352" cy="138.601" rx="1.446" ry="1.19"/>
		</g>
		<g>
			
				<path fill="#A1C453" stroke="#333333" stroke-width="0.9957" stroke-linecap="round" stroke-linejoin="round" stroke-miterlimit="10" d="
				M98.799,90.057c0,0,1.114-2.711,1.477-3.188c0.287-0.383,0.935,2.687,0.966,3.83L98.799,90.057z"/>
			
				<path fill="#A1C453" stroke="#333333" stroke-width="0.9957" stroke-linecap="round" stroke-linejoin="round" stroke-miterlimit="10" d="
				M101.114,89.82l-3.013,3.357c0,0-0.668-4.438,0.435-5.958C98.535,87.22,99.894,88.92,101.114,89.82z"/>
			
				<path fill="#A1C453" stroke="#333333" stroke-width="0.9957" stroke-linecap="round" stroke-linejoin="round" stroke-miterlimit="10" d="
				M101.697,95.172c0,0,2.209-5.115,0.534-7.952l-2.721,3.354L101.697,95.172z"/>
		</g>
	</g>
</g>
<g id="calque08">
	<g>
		
			<polygon fill="#CC924C" stroke="#333333" stroke-width="0.9957" stroke-linecap="round" stroke-linejoin="round" stroke-miterlimit="10" points="
			106.151,137.932 102.135,145.65 102.135,142.842 		"/>
		
			<polygon fill="#CC924C" stroke="#333333" stroke-width="0.9957" stroke-linecap="round" stroke-linejoin="round" stroke-miterlimit="10" points="
			106.712,110.719 102.135,116.277 102.135,113.467 		"/>
		
			<polygon fill="#CC924C" stroke="#333333" stroke-width="0.9957" stroke-linecap="round" stroke-linejoin="round" stroke-miterlimit="10" points="
			88.214,128.127 98.369,140.002 98.369,137.193 		"/>
		
			<polygon fill="#CC924C" stroke="#333333" stroke-width="0.9957" stroke-linecap="round" stroke-linejoin="round" stroke-miterlimit="10" points="
			93.493,101.938 98.369,108.223 98.369,106.408 		"/>
		<g>
			
				<path fill="#A1C453" stroke="#333333" stroke-width="1.4936" stroke-linecap="round" stroke-linejoin="round" stroke-miterlimit="10" d="
				M87.62,144.785c2.679-0.111,3.967-1.67,8.194,2.049c4.229,3.719-0.228,4.957,2.555,7.404c-2.781-2.447-3.677,2.08-7.747-1.502
				C86.55,149.156,88.074,147.422,87.62,144.785z"/>
			<g>
				<line fill="none" x1="98.369" y1="154.238" x2="89.923" y2="146.795"/>
				<g>
					<polyline fill="none" stroke="#333333" stroke-width="0.9957" stroke-linecap="round" stroke-miterlimit="10" points="
						97.996,153.909 97.512,153.482 91.89,148.528 91.47,148.158 					"/>
					
						<line fill="none" stroke="#333333" stroke-width="0.9957" stroke-linecap="round" stroke-miterlimit="10" x1="90.296" y1="147.124" x2="90.349" y2="147.17"/>
				</g>
			</g>
		</g>
		<g>
			
				<path fill="#A1C453" stroke="#333333" stroke-width="1.4936" stroke-linecap="round" stroke-linejoin="round" stroke-miterlimit="10" d="
				M114.945,126.635c0.271,2.666,1.904,3.859-1.555,8.303s-4.963,0.07-7.239,2.994c2.276-2.924-2.296-3.545,1.034-7.824
				C110.517,125.827,112.339,127.245,114.945,126.635z"/>
			<g>
				<line fill="none" x1="106.035" y1="137.814" x2="112.848" y2="129.061"/>
				<g>
					<polyline fill="none" stroke="#333333" stroke-width="0.9957" stroke-linecap="round" stroke-miterlimit="10" points="
						106.341,137.422 106.737,136.912 111.237,131.13 111.582,130.688 					"/>
					
						<line fill="none" stroke="#333333" stroke-width="0.9957" stroke-linecap="round" stroke-miterlimit="10" x1="112.542" y1="129.453" x2="112.499" y2="129.509"/>
				</g>
			</g>
		</g>
		<g>
			
				<path fill="#A1C453" stroke="#333333" stroke-width="1.4936" stroke-linecap="round" stroke-linejoin="round" stroke-miterlimit="10" d="
				M85.092,112.289c2.497,1.707,4.714,1.169,6.025,7.387c1.311,6.218-3.557,4.33-2.693,8.421c-0.862-4.091-4.729-0.603-5.989-6.591
				C81.172,115.518,83.721,114.98,85.092,112.289z"/>
			<g>
				<line fill="none" x1="88.424" y1="128.097" x2="85.842" y2="115.847"/>
				<g>
					<polyline fill="none" stroke="#333333" stroke-width="0.9957" stroke-linecap="round" stroke-miterlimit="10" points="
						88.321,127.609 88.188,126.979 86.383,118.412 86.267,117.864 					"/>
					
						<line fill="none" stroke="#333333" stroke-width="0.9957" stroke-linecap="round" stroke-miterlimit="10" x1="85.944" y1="116.334" x2="85.959" y2="116.402"/>
				</g>
			</g>
		</g>
		<g>
			
				<path fill="#A1C453" stroke="#333333" stroke-width="1.4936" stroke-linecap="round" stroke-linejoin="round" stroke-miterlimit="10" d="
				M74.828,119.713c2.973-0.559,4.158-2.507,9.482,0.963c5.323,3.47,0.546,5.576,4.05,7.858c-3.504-2.282-3.77,2.917-8.895-0.425
				C74.338,124.768,75.761,122.586,74.828,119.713z"/>
			<g>
				<line fill="none" x1="88.361" y1="128.534" x2="77.875" y2="121.699"/>
				<g>
					<polyline fill="none" stroke="#333333" stroke-width="0.9957" stroke-linecap="round" stroke-miterlimit="10" points="
						87.944,128.263 87.404,127.91 80.071,123.131 79.602,122.825 					"/>
					
						<line fill="none" stroke="#333333" stroke-width="0.9957" stroke-linecap="round" stroke-miterlimit="10" x1="78.292" y1="121.971" x2="78.351" y2="122.01"/>
				</g>
			</g>
		</g>
		<g>
			
				<path fill="#A1C453" stroke="#333333" stroke-width="1.4936" stroke-linecap="round" stroke-linejoin="round" stroke-miterlimit="10" d="
				M86.039,92.117c2.373,0.349,3.767-0.808,6.865,3.167c3.1,3.975-1.025,4.323,1.016,6.939c-2.041-2.616-3.58,1.218-6.565-2.61
				C84.369,95.784,85.998,94.514,86.039,92.117z"/>
			<g>
				<line fill="none" x1="93.92" y1="102.224" x2="87.813" y2="94.393"/>
				<g>
					<polyline fill="none" stroke="#333333" stroke-width="0.9957" stroke-linecap="round" stroke-miterlimit="10" points="
						93.613,101.831 93.217,101.322 89.425,96.46 89.08,96.019 					"/>
					
						<line fill="none" stroke="#333333" stroke-width="0.9957" stroke-linecap="round" stroke-miterlimit="10" x1="88.119" y1="94.785" x2="88.162" y2="94.841"/>
				</g>
			</g>
		</g>
		<g>
			
				<path fill="#A1C453" stroke="#333333" stroke-width="1.4936" stroke-linecap="round" stroke-linejoin="round" stroke-miterlimit="10" d="
				M81.31,100.984c1.923-1.434,2.091-3.236,7.093-2.617c5.002,0.619,2.332,3.783,5.625,4.189c-3.293-0.406-1.672,3.392-6.487,2.796
				C82.721,104.756,82.975,102.705,81.31,100.984z"/>
			<g>
				<line fill="none" x1="94.027" y1="102.557" x2="84.172" y2="101.338"/>
				<g>
					<polyline fill="none" stroke="#333333" stroke-width="0.9957" stroke-linecap="round" stroke-miterlimit="10" points="
						93.533,102.495 92.893,102.416 86.774,101.66 86.218,101.591 					"/>
					
						<line fill="none" stroke="#333333" stroke-width="0.9957" stroke-linecap="round" stroke-miterlimit="10" x1="84.666" y1="101.399" x2="84.735" y2="101.407"/>
				</g>
			</g>
		</g>
		<g>
			
				<path fill="#A1C453" stroke="#333333" stroke-width="1.4936" stroke-linecap="round" stroke-linejoin="round" stroke-miterlimit="10" d="
				M123.197,109.037c-1.94,2.319-1.619,4.578-7.934,5.281c-6.316,0.703-3.967-3.957-8.123-3.494c4.156-0.463,1.06-4.647,7.141-5.324
				C120.363,104.822,120.651,107.412,123.197,109.037z"/>
			<g>
				<line fill="none" x1="107.025" y1="110.707" x2="119.467" y2="109.322"/>
				<g>
					<polyline fill="none" stroke="#333333" stroke-width="0.9957" stroke-linecap="round" stroke-miterlimit="10" points="
						107.521,110.652 108.161,110.581 116.861,109.612 117.418,109.551 					"/>
					
						<line fill="none" stroke="#333333" stroke-width="0.9957" stroke-linecap="round" stroke-miterlimit="10" x1="118.972" y1="109.377" x2="118.902" y2="109.385"/>
				</g>
			</g>
		</g>
		<g>
			
				<path fill="#A1C453" stroke="#333333" stroke-width="1.4936" stroke-linecap="round" stroke-linejoin="round" stroke-miterlimit="10" d="
				M116.802,98.102c0.268,3.014,2.093,4.384-1.876,9.346c-3.969,4.963-5.603,0.006-8.214,3.271c2.611-3.266-2.538-4.033,1.284-8.813
				C111.818,97.126,113.853,98.754,116.802,98.102z"/>
			<g>
				<line fill="none" x1="106.712" y1="110.719" x2="114.53" y2="100.941"/>
				<g>
					<polyline fill="none" stroke="#333333" stroke-width="0.9957" stroke-linecap="round" stroke-miterlimit="10" points="
						107.022,110.33 107.426,109.826 112.893,102.989 113.243,102.552 					"/>
					
						<line fill="none" stroke="#333333" stroke-width="0.9957" stroke-linecap="round" stroke-miterlimit="10" x1="114.22" y1="101.33" x2="114.176" y2="101.385"/>
				</g>
			</g>
		</g>
		<g>
			
				<path fill="#A1C453" stroke="#333333" stroke-width="1.4936" stroke-linecap="round" stroke-linejoin="round" stroke-miterlimit="10" d="
				M117.278,118.185c-2.339,0.419-3.283,1.942-7.443-0.814c-4.162-2.759-0.396-4.384-3.135-6.198
				c2.737,1.814,2.979-2.27,6.985,0.387C117.694,114.216,116.563,115.922,117.278,118.185z"/>
			<g>
				<line fill="none" x1="106.583" y1="111.055" x2="114.781" y2="116.489"/>
				<g>
					<polyline fill="none" stroke="#333333" stroke-width="0.9957" stroke-linecap="round" stroke-miterlimit="10" points="
						106.998,111.33 107.535,111.687 112.596,115.041 113.063,115.351 					"/>
					
						<line fill="none" stroke="#333333" stroke-width="0.9957" stroke-linecap="round" stroke-miterlimit="10" x1="114.366" y1="116.214" x2="114.308" y2="116.176"/>
				</g>
			</g>
		</g>
		<path fill="#CC924C" stroke="#333333" stroke-width="2.6551" stroke-linecap="round" stroke-miterlimit="10" d="M102.634,174.223
			l-0.499-82.133c0-1.039-0.843-1.883-1.883-1.883l0,0c-1.039,0-1.883,0.844-1.883,1.883l-0.497,82.133"/>
		<g>
			<g>
				<path fill="#D3F46C" d="M100.271,107.99c0.425,3.467-3.004,7.837-5.506,7.045c-2.463,1.568-6.619-2.038-7.045-5.504
					c-0.424-3.466,0.854-7.1,5.813-6.287C97.924,101.325,99.846,104.525,100.271,107.99z"/>
				<g>
					<path fill="none" stroke="#333333" stroke-width="1.4936" stroke-linecap="round" stroke-miterlimit="10" d="M100.301,108.736
						c-0.021,0.321-0.037,0.644-0.11,0.959c-0.288,1.507-1.053,2.908-2.104,4.017c-0.531,0.547-1.155,1.032-1.887,1.274
						c-0.366,0.104-0.755,0.179-1.133,0.105l-0.281-0.054c-0.091,0.02-0.175,0.078-0.261,0.115c-0.167,0.099-0.351,0.153-0.54,0.188
						c-0.754,0.166-1.54-0.027-2.225-0.356c-0.69-0.332-1.309-0.802-1.856-1.336c-1.065-1.085-1.919-2.453-2.155-3.977
						c-0.201-1.504-0.128-3.118,0.607-4.479c0.368-0.672,0.934-1.237,1.619-1.581c0.685-0.358,1.466-0.472,2.229-0.472
						c0.384-0.016,0.764,0.037,1.145,0.082c0.195,0.063,0.368-0.061,0.549-0.116c0.182-0.063,0.354-0.147,0.541-0.191
						c0.73-0.226,1.517-0.309,2.27-0.165c0.754,0.142,1.441,0.558,1.951,1.129c0.138,0.128,0.245,0.309,0.35,0.439
						c0.055,0.075,0.112,0.147,0.155,0.229c0.09,0.161,0.189,0.315,0.271,0.481"/>
					
						<line fill="none" stroke="#333333" stroke-width="1.4936" stroke-linecap="round" stroke-miterlimit="10" x1="100.154" y1="107.253" x2="100.133" y2="107.15"/>
				</g>
			</g>
			
				<ellipse transform="matrix(0.4717 -0.8817 0.8817 0.4717 -46.7752 135.9138)" opacity="0.5" fill="#FFFFFF" enable-background="new    " cx="90.042" cy="106.994" rx="1.447" ry="1.189"/>
		</g>
		<g>
			<g>
				<path fill="#EF4529" d="M112.3,143.654c-1.013,3.342-5.917,5.953-7.884,4.219c-2.888,0.438-5.23-4.541-4.217-7.883
					c1.01-3.342,3.648-6.148,7.854-3.4C112.848,136.609,113.313,140.313,112.3,143.654z"/>
				<g>
					<path fill="none" stroke="#333333" stroke-width="1.4936" stroke-linecap="round" stroke-miterlimit="10" d="M112.025,144.349
						c-0.148,0.285-0.295,0.573-0.488,0.833c-0.872,1.262-2.14,2.232-3.551,2.822c-0.706,0.285-1.474,0.477-2.24,0.403
						c-0.377-0.053-0.762-0.142-1.077-0.361l-0.237-0.163c-0.089-0.018-0.188,0.002-0.284,0c-0.191,0.023-0.381-0.001-0.568-0.046
						c-0.757-0.154-1.397-0.648-1.891-1.226c-0.497-0.584-0.873-1.263-1.158-1.974c-0.535-1.424-0.763-3.019-0.362-4.508
						c0.423-1.457,1.143-2.904,2.366-3.851c0.607-0.466,1.354-0.754,2.119-0.791c0.771-0.052,1.532,0.161,2.229,0.469
						c0.356,0.142,0.684,0.344,1.014,0.539c0.154,0.136,0.361,0.093,0.549,0.114c0.19,0.017,0.385,0.009,0.572,0.044
						c0.76,0.089,1.512,0.33,2.143,0.766c0.633,0.435,1.095,1.093,1.328,1.821c0.074,0.172,0.102,0.381,0.144,0.544
						c0.02,0.09,0.043,0.179,0.049,0.271c0.017,0.184,0.046,0.366,0.054,0.551"/>
					
						<line fill="none" stroke="#333333" stroke-width="1.4936" stroke-linecap="round" stroke-miterlimit="10" x1="112.491" y1="142.933" x2="112.513" y2="142.83"/>
				</g>
			</g>
			
				<ellipse transform="matrix(0.7878 -0.6159 0.6159 0.7878 -63.437 93.0679)" opacity="0.5" fill="#FFFFFF" enable-background="new    " cx="103.352" cy="138.601" rx="1.446" ry="1.19"/>
		</g>
		<g>
			
				<path fill="#A1C453" stroke="#333333" stroke-width="0.9957" stroke-linecap="round" stroke-linejoin="round" stroke-miterlimit="10" d="
				M98.799,90.057c0,0,1.114-2.711,1.477-3.188c0.287-0.383,0.935,2.687,0.966,3.83L98.799,90.057z"/>
			
				<path fill="#A1C453" stroke="#333333" stroke-width="0.9957" stroke-linecap="round" stroke-linejoin="round" stroke-miterlimit="10" d="
				M101.114,89.82l-3.013,3.357c0,0-0.667-4.438,0.435-5.958C98.535,87.22,99.894,88.92,101.114,89.82z"/>
			
				<path fill="#A1C453" stroke="#333333" stroke-width="0.9957" stroke-linecap="round" stroke-linejoin="round" stroke-miterlimit="10" d="
				M101.697,95.172c0,0,2.209-5.115,0.534-7.952l-2.721,3.354L101.697,95.172z"/>
		</g>
	</g>
</g>
<g id="calque09">
	<g>
		
			<polygon fill="#CC924C" stroke="#333333" stroke-width="0.9957" stroke-linecap="round" stroke-linejoin="round" stroke-miterlimit="10" points="
			106.154,137.932 102.138,145.652 102.138,142.842 		"/>
		
			<polygon fill="#CC924C" stroke="#333333" stroke-width="0.9957" stroke-linecap="round" stroke-linejoin="round" stroke-miterlimit="10" points="
			106.714,110.72 102.138,116.277 102.138,113.467 		"/>
		
			<polygon fill="#CC924C" stroke="#333333" stroke-width="0.9957" stroke-linecap="round" stroke-linejoin="round" stroke-miterlimit="10" points="
			88.217,128.127 98.371,140.002 98.371,137.193 		"/>
		
			<polygon fill="#CC924C" stroke="#333333" stroke-width="0.9957" stroke-linecap="round" stroke-linejoin="round" stroke-miterlimit="10" points="
			93.496,101.938 98.371,108.223 98.371,106.408 		"/>
		<g>
			
				<path fill="#A1C453" stroke="#333333" stroke-width="1.4936" stroke-linecap="round" stroke-linejoin="round" stroke-miterlimit="10" d="
				M87.623,144.785c2.678-0.111,3.965-1.67,8.192,2.049c4.229,3.719-0.227,4.959,2.556,7.404c-2.781-2.445-3.677,2.08-7.748-1.502
				C86.552,149.156,88.076,147.422,87.623,144.785z"/>
			<g>
				<line fill="none" x1="98.371" y1="154.238" x2="89.925" y2="146.795"/>
				<g>
					<polyline fill="none" stroke="#333333" stroke-width="0.9957" stroke-linecap="round" stroke-miterlimit="10" points="
						97.998,153.909 97.514,153.482 91.892,148.528 91.472,148.158 					"/>
					
						<line fill="none" stroke="#333333" stroke-width="0.9957" stroke-linecap="round" stroke-miterlimit="10" x1="90.298" y1="147.124" x2="90.351" y2="147.17"/>
				</g>
			</g>
		</g>
		<g>
			
				<path fill="#A1C453" stroke="#333333" stroke-width="1.4936" stroke-linecap="round" stroke-linejoin="round" stroke-miterlimit="10" d="
				M114.947,126.635c0.271,2.666,1.904,3.859-1.554,8.303c-3.46,4.443-4.965,0.07-7.239,2.994c2.274-2.924-2.298-3.545,1.034-7.824
				C110.519,125.828,112.342,127.246,114.947,126.635z"/>
			<g>
				<line fill="none" x1="106.037" y1="137.814" x2="112.85" y2="129.061"/>
				<g>
					<polyline fill="none" stroke="#333333" stroke-width="0.9957" stroke-linecap="round" stroke-miterlimit="10" points="
						106.343,137.422 106.739,136.912 111.239,131.13 111.584,130.688 					"/>
					
						<line fill="none" stroke="#333333" stroke-width="0.9957" stroke-linecap="round" stroke-miterlimit="10" x1="112.544" y1="129.453" x2="112.501" y2="129.509"/>
				</g>
			</g>
		</g>
		<g>
			
				<path fill="#A1C453" stroke="#333333" stroke-width="1.4936" stroke-linecap="round" stroke-linejoin="round" stroke-miterlimit="10" d="
				M85.095,112.289c2.497,1.707,4.713,1.17,6.023,7.387c1.311,6.218-3.555,4.33-2.692,8.421c-0.861-4.091-4.728-0.603-5.99-6.59
				C81.174,115.518,83.723,114.98,85.095,112.289z"/>
			<g>
				<line fill="none" x1="88.426" y1="128.097" x2="85.844" y2="115.847"/>
				<g>
					<polyline fill="none" stroke="#333333" stroke-width="0.9957" stroke-linecap="round" stroke-miterlimit="10" points="
						88.323,127.609 88.19,126.979 86.385,118.412 86.269,117.864 					"/>
					
						<line fill="none" stroke="#333333" stroke-width="0.9957" stroke-linecap="round" stroke-miterlimit="10" x1="85.946" y1="116.334" x2="85.961" y2="116.402"/>
				</g>
			</g>
		</g>
		<g>
			
				<path fill="#A1C453" stroke="#333333" stroke-width="1.4936" stroke-linecap="round" stroke-linejoin="round" stroke-miterlimit="10" d="
				M74.83,119.713c2.973-0.559,4.158-2.506,9.482,0.963c5.322,3.471,0.547,5.576,4.051,7.858c-3.504-2.282-3.771,2.917-8.896-0.425
				C74.341,124.768,75.764,122.586,74.83,119.713z"/>
			<g>
				<line fill="none" x1="88.364" y1="128.534" x2="77.875" y2="121.699"/>
				<g>
					<polyline fill="none" stroke="#333333" stroke-width="0.9957" stroke-linecap="round" stroke-miterlimit="10" points="
						87.947,128.263 87.406,127.91 80.071,123.131 79.603,122.824 					"/>
					
						<line fill="none" stroke="#333333" stroke-width="0.9957" stroke-linecap="round" stroke-miterlimit="10" x1="78.292" y1="121.971" x2="78.351" y2="122.009"/>
				</g>
			</g>
		</g>
		<g>
			
				<path fill="#A1C453" stroke="#333333" stroke-width="1.4936" stroke-linecap="round" stroke-linejoin="round" stroke-miterlimit="10" d="
				M86.041,92.118c2.373,0.348,3.767-0.809,6.866,3.167c3.099,3.975-1.026,4.323,1.015,6.939c-2.041-2.616-3.58,1.217-6.564-2.611
				C84.371,95.785,86,94.514,86.041,92.118z"/>
			<g>
				<line fill="none" x1="93.922" y1="102.225" x2="87.814" y2="94.393"/>
				<g>
					<polyline fill="none" stroke="#333333" stroke-width="0.9957" stroke-linecap="round" stroke-miterlimit="10" points="
						93.615,101.832 93.219,101.323 89.427,96.46 89.082,96.019 					"/>
					
						<line fill="none" stroke="#333333" stroke-width="0.9957" stroke-linecap="round" stroke-miterlimit="10" x1="88.121" y1="94.785" x2="88.164" y2="94.841"/>
				</g>
			</g>
		</g>
		<g>
			
				<path fill="#A1C453" stroke="#333333" stroke-width="1.4936" stroke-linecap="round" stroke-linejoin="round" stroke-miterlimit="10" d="
				M81.312,100.984c1.924-1.434,2.091-3.236,7.093-2.617c5.004,0.619,2.332,3.783,5.625,4.189c-3.293-0.406-1.671,3.393-6.486,2.797
				C82.723,104.757,82.977,102.705,81.312,100.984z"/>
			<g>
				<line fill="none" x1="94.029" y1="102.557" x2="84.175" y2="101.338"/>
				<g>
					<polyline fill="none" stroke="#333333" stroke-width="0.9957" stroke-linecap="round" stroke-miterlimit="10" points="
						93.535,102.495 92.895,102.416 86.777,101.66 86.221,101.591 					"/>
					
						<line fill="none" stroke="#333333" stroke-width="0.9957" stroke-linecap="round" stroke-miterlimit="10" x1="84.669" y1="101.399" x2="84.738" y2="101.407"/>
				</g>
			</g>
		</g>
		<g>
			
				<path fill="#A1C453" stroke="#333333" stroke-width="1.4936" stroke-linecap="round" stroke-linejoin="round" stroke-miterlimit="10" d="
				M123.199,109.037c-1.941,2.32-1.619,4.578-7.935,5.281s-3.966-3.957-8.122-3.494c4.156-0.463,1.059-4.647,7.14-5.324
				C120.365,104.822,120.654,107.412,123.199,109.037z"/>
			<g>
				<line fill="none" x1="107.027" y1="110.707" x2="119.47" y2="109.322"/>
				<g>
					<polyline fill="none" stroke="#333333" stroke-width="0.9957" stroke-linecap="round" stroke-miterlimit="10" points="
						107.522,110.652 108.163,110.581 116.864,109.612 117.421,109.551 					"/>
					
						<line fill="none" stroke="#333333" stroke-width="0.9957" stroke-linecap="round" stroke-miterlimit="10" x1="118.975" y1="109.377" x2="118.905" y2="109.385"/>
				</g>
			</g>
		</g>
		<g>
			
				<path fill="#A1C453" stroke="#333333" stroke-width="1.4936" stroke-linecap="round" stroke-linejoin="round" stroke-miterlimit="10" d="
				M116.805,98.104c0.268,3.012,2.092,4.383-1.877,9.345c-3.969,4.962-5.602,0.005-8.214,3.271c2.612-3.267-2.538-4.034,1.284-8.813
				C111.82,97.128,113.855,98.754,116.805,98.104z"/>
			<g>
				<line fill="none" x1="106.714" y1="110.72" x2="114.533" y2="100.942"/>
				<g>
					<polyline fill="none" stroke="#333333" stroke-width="0.9957" stroke-linecap="round" stroke-miterlimit="10" points="
						107.024,110.331 107.428,109.827 112.896,102.99 113.246,102.553 					"/>
					
						<line fill="none" stroke="#333333" stroke-width="0.9957" stroke-linecap="round" stroke-miterlimit="10" x1="114.223" y1="101.331" x2="114.179" y2="101.386"/>
				</g>
			</g>
		</g>
		<g>
			
				<path fill="#A1C453" stroke="#333333" stroke-width="1.4936" stroke-linecap="round" stroke-linejoin="round" stroke-miterlimit="10" d="
				M117.281,118.185c-2.34,0.421-3.282,1.944-7.444-0.814c-4.16-2.759-0.396-4.384-3.135-6.198c2.738,1.814,2.979-2.27,6.985,0.388
				C117.695,114.216,116.565,115.922,117.281,118.185z"/>
			<g>
				<line fill="none" x1="106.586" y1="111.056" x2="114.783" y2="116.489"/>
				<g>
					<polyline fill="none" stroke="#333333" stroke-width="0.9957" stroke-linecap="round" stroke-miterlimit="10" points="
						107.001,111.331 107.539,111.688 112.598,115.041 113.065,115.351 					"/>
					
						<line fill="none" stroke="#333333" stroke-width="0.9957" stroke-linecap="round" stroke-miterlimit="10" x1="114.368" y1="116.214" x2="114.31" y2="116.176"/>
				</g>
			</g>
		</g>
		<path fill="#CC924C" stroke="#333333" stroke-width="2.6551" stroke-linecap="round" stroke-miterlimit="10" d="M102.636,174.223
			l-0.498-82.132c0-1.04-0.843-1.883-1.884-1.883l0,0c-1.039,0-1.883,0.843-1.883,1.883l-0.496,82.132"/>
		<g>
			<g>
				<path fill="#EF4529" d="M100.272,107.99c0.427,3.467-3.005,7.837-5.505,7.046c-2.462,1.567-6.619-2.039-7.045-5.505
					c-0.424-3.465,0.854-7.099,5.813-6.287C97.926,101.325,99.848,104.525,100.272,107.99z"/>
				<g>
					<path fill="none" stroke="#333333" stroke-width="1.4936" stroke-linecap="round" stroke-miterlimit="10" d="M100.302,108.736
						c-0.021,0.321-0.037,0.644-0.11,0.959c-0.287,1.507-1.053,2.907-2.104,4.017c-0.531,0.546-1.156,1.032-1.887,1.275
						c-0.366,0.104-0.755,0.178-1.133,0.104l-0.281-0.053c-0.091,0.02-0.175,0.078-0.261,0.115c-0.167,0.099-0.351,0.152-0.54,0.188
						c-0.754,0.165-1.54-0.028-2.225-0.356c-0.69-0.333-1.309-0.803-1.856-1.337c-1.065-1.085-1.919-2.452-2.155-3.976
						c-0.201-1.504-0.127-3.118,0.607-4.479c0.368-0.672,0.935-1.237,1.62-1.581c0.684-0.358,1.465-0.473,2.228-0.473
						c0.384-0.015,0.764,0.037,1.145,0.082c0.195,0.063,0.368-0.06,0.549-0.115c0.182-0.063,0.354-0.148,0.541-0.192
						c0.73-0.226,1.517-0.309,2.27-0.165c0.754,0.142,1.441,0.558,1.951,1.129c0.137,0.127,0.245,0.308,0.35,0.439
						c0.055,0.074,0.112,0.146,0.154,0.229c0.09,0.16,0.19,0.315,0.271,0.481"/>
					
						<line fill="none" stroke="#333333" stroke-width="1.4936" stroke-linecap="round" stroke-miterlimit="10" x1="100.155" y1="107.253" x2="100.134" y2="107.15"/>
				</g>
			</g>
			
				<ellipse transform="matrix(0.4718 -0.8817 0.8817 0.4718 -46.7724 135.9022)" opacity="0.5" fill="#FFFFFF" enable-background="new    " cx="90.044" cy="106.99" rx="1.447" ry="1.19"/>
		</g>
		<g>
			<g>
				<path fill="#EF4529" d="M112.301,143.654c-1.012,3.342-5.916,5.953-7.883,4.219c-2.886,0.439-5.229-4.541-4.218-7.883
					c1.011-3.342,3.65-6.148,7.855-3.4C112.85,136.609,113.314,140.313,112.301,143.654z"/>
				<g>
					<path fill="none" stroke="#333333" stroke-width="1.4936" stroke-linecap="round" stroke-miterlimit="10" d="M112.026,144.349
						c-0.148,0.286-0.295,0.574-0.488,0.833c-0.872,1.262-2.14,2.233-3.55,2.822c-0.707,0.285-1.475,0.477-2.24,0.403
						c-0.377-0.053-0.763-0.142-1.077-0.362l-0.237-0.162c-0.09-0.018-0.189,0.002-0.284,0.001
						c-0.191,0.022-0.382-0.002-0.568-0.047c-0.758-0.153-1.397-0.648-1.892-1.226c-0.496-0.584-0.872-1.264-1.155-1.974
						c-0.537-1.424-0.765-3.02-0.364-4.508c0.423-1.457,1.144-2.904,2.366-3.851c0.607-0.466,1.354-0.754,2.119-0.791
						c0.771-0.052,1.532,0.161,2.229,0.469c0.357,0.142,0.685,0.344,1.014,0.539c0.154,0.136,0.361,0.093,0.549,0.114
						c0.19,0.017,0.385,0.009,0.573,0.044c0.759,0.089,1.511,0.33,2.142,0.766c0.633,0.435,1.095,1.094,1.328,1.821
						c0.074,0.172,0.102,0.381,0.143,0.544c0.021,0.09,0.044,0.18,0.049,0.271c0.019,0.184,0.047,0.366,0.054,0.551"/>
					
						<line fill="none" stroke="#333333" stroke-width="1.4936" stroke-linecap="round" stroke-miterlimit="10" x1="112.492" y1="142.933" x2="112.514" y2="142.83"/>
				</g>
			</g>
			
				<ellipse transform="matrix(0.788 -0.6157 0.6157 0.788 -63.4211 93.0184)" opacity="0.5" fill="#FFFFFF" enable-background="new    " cx="103.35" cy="138.595" rx="1.447" ry="1.19"/>
		</g>
		<g>
			
				<path fill="#A1C453" stroke="#333333" stroke-width="0.9957" stroke-linecap="round" stroke-linejoin="round" stroke-miterlimit="10" d="
				M98.801,90.058c0,0,1.114-2.712,1.477-3.188c0.287-0.384,0.933,2.686,0.966,3.829L98.801,90.058z"/>
			
				<path fill="#A1C453" stroke="#333333" stroke-width="0.9957" stroke-linecap="round" stroke-linejoin="round" stroke-miterlimit="10" d="
				M101.117,89.821l-3.015,3.356c0,0-0.668-4.438,0.436-5.957C98.538,87.221,99.896,88.92,101.117,89.821z"/>
			
				<path fill="#A1C453" stroke="#333333" stroke-width="0.9957" stroke-linecap="round" stroke-linejoin="round" stroke-miterlimit="10" d="
				M101.699,95.172c0,0,2.209-5.114,0.534-7.951l-2.721,3.354L101.699,95.172z"/>
		</g>
	</g>
</g>
</svg>
