<?xml version="1.0" encoding="utf-8"?>
<!-- Generator: Adobe Illustrator 16.0.0, SVG Export Plug-In . SVG Version: 6.00 Build 0)  -->
<!DOCTYPE svg PUBLIC "-//W3C//DTD SVG 1.1//EN" "http://www.w3.org/Graphics/SVG/1.1/DTD/svg11.dtd">
<svg version="1.1" id="Calque_1" xmlns="http://www.w3.org/2000/svg" xmlns:xlink="http://www.w3.org/1999/xlink" x="0px" y="0px"
	 width="400px" height="400px" viewBox="0 0 400 400" enable-background="new 0 0 400 400" xml:space="preserve">
<g id="calque00">
	<g>
		<path fill="#CC924C" stroke="#333333" stroke-width="2.6539" stroke-linecap="round" stroke-miterlimit="10" d="M296.306,207.219
			l-1.714-9.251c-0.263-1.075,0.396-2.161,1.471-2.426l0,0c1.078-0.264,2.166,0.397,2.428,1.474l2.748,8.998"/>
		<g>
			
				<path fill="#A1C453" stroke="#333333" stroke-width="1.0616" stroke-linecap="round" stroke-linejoin="round" stroke-miterlimit="10" d="
				M297.53,195.019c0,0-1.838-2.526-2.335-2.929c-0.396-0.321-0.284,3.021-0.03,4.213L297.53,195.019z"/>
			
				<path fill="#A1C453" stroke="#333333" stroke-width="1.0616" stroke-linecap="round" stroke-linejoin="round" stroke-miterlimit="10" d="
				M295.073,195.362l3.972,2.711c0,0-0.433-4.763-1.955-6.059C297.089,192.015,296.109,194.119,295.073,195.362z"/>
			
				<path fill="#A1C453" stroke="#333333" stroke-width="1.0616" stroke-linecap="round" stroke-linejoin="round" stroke-miterlimit="10" d="
				M295.824,201.053c0,0-3.583-4.74-2.564-8.103l3.664,2.785L295.824,201.053z"/>
		</g>
	</g>
</g>
<g id="calque01">
	<g>
		<g>
			
				<path fill="#A1C453" stroke="#333333" stroke-width="1.0616" stroke-linecap="round" stroke-linejoin="round" stroke-miterlimit="10" d="
				M299.862,179.151c-1.285,0.256-2.076-0.333-3.651,1.923c-1.581,2.258,0.683,2.331-0.356,3.816
				c1.039-1.485,1.989,0.56,3.508-1.614C300.878,181.104,299.953,180.458,299.862,179.151z"/>
			<g>
				<line fill="none" x1="295.854" y1="184.891" x2="298.961" y2="180.442"/>
				<g>
					<polyline fill="none" stroke="#333333" stroke-width="1.0616" stroke-linecap="round" stroke-miterlimit="10" points="
						296.157,184.455 296.552,183.892 297.36,182.734 297.701,182.244 					"/>
					
						<line fill="none" stroke="#333333" stroke-width="1.0616" stroke-linecap="round" stroke-miterlimit="10" x1="298.656" y1="180.878" x2="298.614" y2="180.938"/>
				</g>
			</g>
		</g>
		<path fill="#CC924C" stroke="#333333" stroke-width="2.6539" stroke-linecap="round" stroke-miterlimit="10" d="M296.306,207.219
			l-6.418-28.486c-0.262-1.075,0.396-2.162,1.473-2.426l0,0c1.076-0.263,2.165,0.397,2.429,1.473l7.449,28.234"/>
		<g>
			
				<path fill="#A1C453" stroke="#333333" stroke-width="1.0616" stroke-linecap="round" stroke-linejoin="round" stroke-miterlimit="10" d="
				M292.828,175.784c0,0-1.844-2.528-2.336-2.93c-0.395-0.323-0.287,3.019-0.029,4.212L292.828,175.784z"/>
			
				<path fill="#A1C453" stroke="#333333" stroke-width="1.0616" stroke-linecap="round" stroke-linejoin="round" stroke-miterlimit="10" d="
				M290.368,176.126l3.973,2.712c0,0-0.434-4.764-1.958-6.062C292.383,172.776,291.406,174.885,290.368,176.126z"/>
			
				<path fill="#A1C453" stroke="#333333" stroke-width="1.0616" stroke-linecap="round" stroke-linejoin="round" stroke-miterlimit="10" d="
				M291.122,181.814c0,0-3.585-4.738-2.566-8.102l3.664,2.785L291.122,181.814z"/>
		</g>
	</g>
</g>
<g id="calque02">
	<g>
		<g>
			
				<path fill="#A1C453" stroke="#333333" stroke-width="1.5923" stroke-linecap="round" stroke-linejoin="round" stroke-miterlimit="10" d="
				M308.372,177.202c-2.85-0.231-4.157-1.942-8.814,1.844c-4.656,3.789,0.04,5.293-3.024,7.786c3.064-2.493,3.829,2.366,8.313-1.282
				C309.332,181.903,307.78,179.994,308.372,177.202z"/>
			<g>
				<line fill="none" x1="296.532" y1="186.832" x2="305.709" y2="179.369"/>
				<g>
					<polyline fill="none" stroke="#333333" stroke-width="1.0616" stroke-linecap="round" stroke-miterlimit="10" points="
						296.944,186.497 297.478,186.063 303.539,181.133 304.004,180.756 					"/>
					
						<line fill="none" stroke="#333333" stroke-width="1.0616" stroke-linecap="round" stroke-miterlimit="10" x1="305.297" y1="179.704" x2="305.239" y2="179.751"/>
				</g>
			</g>
		</g>
		<g>
			
				<path fill="#A1C453" stroke="#333333" stroke-width="1.0616" stroke-linecap="round" stroke-linejoin="round" stroke-miterlimit="10" d="
				M284.293,177.781c0.273,1.258-0.296,2.047,1.945,3.557c2.241,1.512,2.275-0.709,3.753,0.285c-1.478-0.994,0.519-1.96-1.641-3.415
				C286.194,176.752,285.571,177.671,284.293,177.781z"/>
			<g>
				<line fill="none" x1="289.991" y1="181.623" x2="286.048" y2="179.006"/>
				<g>
					<polyline fill="none" stroke="#333333" stroke-width="1.0616" stroke-linecap="round" stroke-miterlimit="10" points="
						289.549,181.33 288.976,180.949 288.377,180.552 287.879,180.221 					"/>
					
						<line fill="none" stroke="#333333" stroke-width="1.0616" stroke-linecap="round" stroke-miterlimit="10" x1="286.49" y1="179.299" x2="286.553" y2="179.341"/>
				</g>
			</g>
		</g>
		<path fill="#CC924C" stroke="#333333" stroke-width="2.6539" stroke-linecap="round" stroke-miterlimit="10" d="M296.306,207.219
			l-8.584-37.347c-0.264-1.077,0.396-2.164,1.474-2.428l0,0c1.076-0.264,2.162,0.396,2.426,1.475l9.617,37.095"/>
		<g>
			
				<path fill="#A1C453" stroke="#333333" stroke-width="1.0616" stroke-linecap="round" stroke-linejoin="round" stroke-miterlimit="10" d="
				M290.661,166.922c0,0-1.841-2.528-2.336-2.928c-0.396-0.324-0.286,3.017-0.03,4.209L290.661,166.922z"/>
			
				<path fill="#A1C453" stroke="#333333" stroke-width="1.0616" stroke-linecap="round" stroke-linejoin="round" stroke-miterlimit="10" d="
				M288.203,167.264l3.971,2.714c0,0-0.431-4.766-1.957-6.063C290.217,163.915,289.238,166.021,288.203,167.264z"/>
			
				<path fill="#A1C453" stroke="#333333" stroke-width="1.0616" stroke-linecap="round" stroke-linejoin="round" stroke-miterlimit="10" d="
				M288.955,172.954c0,0-3.585-4.74-2.567-8.102l3.667,2.787L288.955,172.954z"/>
		</g>
	</g>
</g>
<g id="calque03">
	<g>
		
			<polygon fill="#CC924C" stroke="#333333" stroke-width="1.0616" stroke-linecap="round" stroke-linejoin="round" stroke-miterlimit="10" points="
			284.332,179.709 290.785,184.209 290.325,182.33 		"/>
		<g>
			
				<path fill="#A1C453" stroke="#333333" stroke-width="1.5923" stroke-linecap="round" stroke-linejoin="round" stroke-miterlimit="10" d="
				M308.216,177.498c-2.847-0.274-4.125-2.009-8.844,1.703c-4.717,3.712-0.048,5.291-3.149,7.735
				c3.103-2.444,3.789,2.429,8.335-1.148C309.102,182.212,307.576,180.28,308.216,177.498z"/>
			<g>
				<line fill="none" x1="296.223" y1="186.937" x2="305.516" y2="179.623"/>
				<g>
					<polyline fill="none" stroke="#333333" stroke-width="1.0616" stroke-linecap="round" stroke-miterlimit="10" points="
						296.64,186.608 297.18,186.183 303.319,181.352 303.788,180.982 					"/>
					
						<line fill="none" stroke="#333333" stroke-width="1.0616" stroke-linecap="round" stroke-miterlimit="10" x1="305.099" y1="179.951" x2="305.039" y2="179.997"/>
				</g>
			</g>
		</g>
		<g>
			
				<path fill="#A1C453" stroke="#333333" stroke-width="1.0616" stroke-linecap="round" stroke-linejoin="round" stroke-miterlimit="10" d="
				M298.802,155.692c-2.027,0.109-3.112-0.972-6.032,2.141c-2.921,3.112,0.531,3.725-1.389,5.773
				c1.92-2.049,2.926,1.303,5.736-1.694C299.929,158.912,298.652,157.714,298.802,155.692z"/>
			<g>
				<line fill="none" x1="291.381" y1="163.606" x2="297.135" y2="157.474"/>
				<g>
					<polyline fill="none" stroke="#333333" stroke-width="1.0616" stroke-linecap="round" stroke-miterlimit="10" points="
						291.744,163.22 292.215,162.718 295.223,159.512 295.631,159.076 					"/>
					
						<line fill="none" stroke="#333333" stroke-width="1.0616" stroke-linecap="round" stroke-miterlimit="10" x1="296.771" y1="157.86" x2="296.721" y2="157.915"/>
				</g>
			</g>
		</g>
		<g>
			
				<path fill="#A1C453" stroke="#333333" stroke-width="1.5923" stroke-linecap="round" stroke-linejoin="round" stroke-miterlimit="10" d="
				M274.127,171.426c2.545-0.241,3.694-1.792,7.913,1.542c4.214,3.33,0.032,4.738,2.807,6.929c-2.772-2.19-3.398,2.166-7.459-1.042
				C273.325,175.646,274.69,173.917,274.127,171.426z"/>
			<g>
				<line fill="none" x1="284.847" y1="179.896" x2="276.539" y2="173.333"/>
				<g>
					<polyline fill="none" stroke="#333333" stroke-width="1.0616" stroke-linecap="round" stroke-miterlimit="10" points="
						284.43,179.567 283.891,179.141 278.732,175.066 278.264,174.695 					"/>
					
						<line fill="none" stroke="#333333" stroke-width="1.0616" stroke-linecap="round" stroke-miterlimit="10" x1="276.955" y1="173.662" x2="277.014" y2="173.708"/>
				</g>
			</g>
		</g>
		<g>
			
				<path fill="#A1C453" stroke="#333333" stroke-width="1.0616" stroke-linecap="round" stroke-linejoin="round" stroke-miterlimit="10" d="
				M276.521,181.014c0.959-1.161,0.794-2.288,3.938-2.656c3.147-0.366,1.991,1.962,4.061,1.721
				c-2.068,0.241-0.514,2.318-3.544,2.672C277.948,183.105,277.796,181.817,276.521,181.014z"/>
			<g>
				<line fill="none" x1="284.52" y1="180.078" x2="278.322" y2="180.805"/>
				<g>
					<polyline fill="none" stroke="#333333" stroke-width="1.0616" stroke-linecap="round" stroke-miterlimit="10" points="
						283.992,180.14 283.31,180.22 281.099,180.479 280.505,180.549 					"/>
					
						<line fill="none" stroke="#333333" stroke-width="1.0616" stroke-linecap="round" stroke-miterlimit="10" x1="278.85" y1="180.743" x2="278.924" y2="180.734"/>
				</g>
			</g>
		</g>
		<path fill="#CC924C" stroke="#333333" stroke-width="2.8307" stroke-linecap="round" stroke-miterlimit="10" d="M296.306,207.219
			l-10.828-46.522c-0.265-1.078,0.396-2.164,1.476-2.426l0,0c1.074-0.264,2.16,0.396,2.426,1.473l11.859,46.27"/>
		<g>
			
				<path fill="#A1C453" stroke="#333333" stroke-width="1.0616" stroke-linecap="round" stroke-linejoin="round" stroke-miterlimit="10" d="
				M288.418,157.745c0,0-1.841-2.526-2.337-2.927c-0.396-0.324-0.285,3.018-0.029,4.211L288.418,157.745z"/>
			
				<path fill="#A1C453" stroke="#333333" stroke-width="1.0616" stroke-linecap="round" stroke-linejoin="round" stroke-miterlimit="10" d="
				M285.961,158.088l3.969,2.714c0,0-0.431-4.765-1.957-6.063C287.973,154.74,286.995,156.848,285.961,158.088z"/>
			
				<path fill="#A1C453" stroke="#333333" stroke-width="1.0616" stroke-linecap="round" stroke-linejoin="round" stroke-miterlimit="10" d="
				M286.71,163.776c0,0-3.582-4.739-2.565-8.099l3.665,2.784L286.71,163.776z"/>
		</g>
	</g>
</g>
<g id="calque04">
	<g>
		
			<polygon fill="#CC924C" stroke="#333333" stroke-width="1.0616" stroke-linecap="round" stroke-linejoin="round" stroke-miterlimit="10" points="
			301.851,148.656 291.098,166.779 290.386,163.868 		"/>
		
			<polygon fill="#CC924C" stroke="#333333" stroke-width="1.0616" stroke-linecap="round" stroke-linejoin="round" stroke-miterlimit="10" points="
			284.332,179.709 290.785,184.209 290.325,182.33 		"/>
		<g>
			
				<path fill="#A1C453" stroke="#333333" stroke-width="1.5923" stroke-linecap="round" stroke-linejoin="round" stroke-miterlimit="10" d="
				M308.216,177.498c-2.847-0.274-4.125-2.009-8.844,1.703c-4.717,3.712-0.048,5.291-3.149,7.735
				c3.103-2.444,3.789,2.429,8.335-1.148C309.102,182.212,307.576,180.28,308.216,177.498z"/>
			<g>
				<line fill="none" x1="296.223" y1="186.937" x2="305.516" y2="179.623"/>
				<g>
					<polyline fill="none" stroke="#333333" stroke-width="1.0616" stroke-linecap="round" stroke-miterlimit="10" points="
						296.64,186.608 297.18,186.183 303.319,181.352 303.788,180.982 					"/>
					
						<line fill="none" stroke="#333333" stroke-width="1.0616" stroke-linecap="round" stroke-miterlimit="10" x1="305.099" y1="179.951" x2="305.039" y2="179.997"/>
				</g>
			</g>
		</g>
		<g>
			
				<path fill="#A1C453" stroke="#333333" stroke-width="1.0616" stroke-linecap="round" stroke-linejoin="round" stroke-miterlimit="10" d="
				M300.621,139.656c-1.172,1.308-2.501,1.313-2.382,5.003c0.118,3.692,2.606,1.955,2.686,4.384
				c-0.078-2.429,2.588-0.994,2.472-4.549C303.281,140.937,301.77,140.987,300.621,139.656z"/>
			<g>
				<line fill="none" x1="300.925" y1="149.043" x2="300.693" y2="141.769"/>
				<g>
					<polyline fill="none" stroke="#333333" stroke-width="1.0616" stroke-linecap="round" stroke-miterlimit="10" points="
						300.907,148.513 300.886,147.825 300.781,144.563 300.764,143.965 					"/>
					
						<line fill="none" stroke="#333333" stroke-width="1.0616" stroke-linecap="round" stroke-miterlimit="10" x1="300.71" y1="142.299" x2="300.713" y2="142.374"/>
				</g>
			</g>
		</g>
		<g>
			
				<path fill="#A1C453" stroke="#333333" stroke-width="1.5923" stroke-linecap="round" stroke-linejoin="round" stroke-miterlimit="10" d="
				M313.582,136.551c-3.22,0.175-4.941-1.543-9.574,3.4c-4.636,4.941,0.843,5.912-2.205,9.164c3.048-3.252,4.64,2.066,9.102-2.692
				C315.37,141.661,313.344,139.763,313.582,136.551z"/>
			<g>
				<line fill="none" x1="301.803" y1="149.115" x2="310.932" y2="139.379"/>
				<g>
					<polyline fill="none" stroke="#333333" stroke-width="1.0616" stroke-linecap="round" stroke-miterlimit="10" points="
						302.165,148.729 302.637,148.227 309.02,141.418 309.429,140.982 					"/>
					
						<line fill="none" stroke="#333333" stroke-width="1.0616" stroke-linecap="round" stroke-miterlimit="10" x1="310.568" y1="139.766" x2="310.518" y2="139.82"/>
				</g>
			</g>
		</g>
		<g>
			
				<path fill="#A1C453" stroke="#333333" stroke-width="1.5923" stroke-linecap="round" stroke-linejoin="round" stroke-miterlimit="10" d="
				M274.127,171.426c2.545-0.241,3.694-1.792,7.913,1.542c4.214,3.33,0.032,4.738,2.807,6.929c-2.772-2.19-3.398,2.166-7.459-1.042
				C273.325,175.646,274.69,173.917,274.127,171.426z"/>
			<g>
				<line fill="none" x1="284.847" y1="179.896" x2="276.539" y2="173.333"/>
				<g>
					<polyline fill="none" stroke="#333333" stroke-width="1.0616" stroke-linecap="round" stroke-miterlimit="10" points="
						284.43,179.567 283.891,179.141 278.732,175.066 278.264,174.695 					"/>
					
						<line fill="none" stroke="#333333" stroke-width="1.0616" stroke-linecap="round" stroke-miterlimit="10" x1="276.955" y1="173.662" x2="277.014" y2="173.708"/>
				</g>
			</g>
		</g>
		<g>
			
				<path fill="#A1C453" stroke="#333333" stroke-width="1.5923" stroke-linecap="round" stroke-linejoin="round" stroke-miterlimit="10" d="
				M271.472,181.806c1.632-1.972,1.348-3.881,6.688-4.506c5.337-0.627,3.372,3.325,6.884,2.914
				c-3.511,0.411-0.872,3.935-6.011,4.539C273.89,185.354,273.634,183.166,271.472,181.806z"/>
			<g>
				<line fill="none" x1="285.042" y1="180.214" x2="274.529" y2="181.448"/>
				<g>
					<polyline fill="none" stroke="#333333" stroke-width="1.0616" stroke-linecap="round" stroke-miterlimit="10" points="
						284.515,180.275 283.832,180.355 277.306,181.122 276.712,181.191 					"/>
					
						<line fill="none" stroke="#333333" stroke-width="1.0616" stroke-linecap="round" stroke-miterlimit="10" x1="275.057" y1="181.387" x2="275.131" y2="181.378"/>
				</g>
			</g>
		</g>
		<g>
			
				<path fill="#A1C453" stroke="#333333" stroke-width="1.0616" stroke-linecap="round" stroke-linejoin="round" stroke-miterlimit="10" d="
				M274.408,143.375c0.245,1.618-0.536,2.574,2.188,4.673c2.725,2.102,2.945-0.717,4.739,0.663c-1.794-1.38,0.816-2.445-1.808-4.468
				C276.902,142.22,276.044,143.338,274.408,143.375z"/>
			<g>
				<line fill="none" x1="281.337" y1="148.711" x2="275.966" y2="144.574"/>
				<g>
					<polyline fill="none" stroke="#333333" stroke-width="1.0616" stroke-linecap="round" stroke-miterlimit="10" points="
						280.916,148.387 280.371,147.968 278.181,146.28 277.707,145.915 					"/>
					
						<line fill="none" stroke="#333333" stroke-width="1.0616" stroke-linecap="round" stroke-miterlimit="10" x1="276.387" y1="144.898" x2="276.445" y2="144.943"/>
				</g>
			</g>
		</g>
		<path fill="#CC924C" stroke="#333333" stroke-width="2.8307" stroke-linecap="round" stroke-miterlimit="10" d="M296.306,207.219
			l-14.911-63.229c-0.265-1.077,0.396-2.163,1.473-2.427l0,0c1.075-0.265,2.161,0.396,2.426,1.473l15.945,62.978"/>
		<g>
			
				<path fill="#A1C453" stroke="#333333" stroke-width="1.0616" stroke-linecap="round" stroke-linejoin="round" stroke-miterlimit="10" d="
				M284.332,141.04c0,0-1.838-2.527-2.336-2.928c-0.395-0.324-0.285,3.019-0.029,4.211L284.332,141.04z"/>
			
				<path fill="#A1C453" stroke="#333333" stroke-width="1.0616" stroke-linecap="round" stroke-linejoin="round" stroke-miterlimit="10" d="
				M281.875,141.383l3.97,2.713c0,0-0.431-4.765-1.957-6.062C283.888,138.034,282.91,140.141,281.875,141.383z"/>
			
				<path fill="#A1C453" stroke="#333333" stroke-width="1.0616" stroke-linecap="round" stroke-linejoin="round" stroke-miterlimit="10" d="
				M282.625,147.071c0,0-3.582-4.738-2.565-8.102l3.666,2.786L282.625,147.071z"/>
		</g>
		<g>
			
				<path fill="#FFFFFF" stroke="#333333" stroke-width="1.0616" stroke-linecap="round" stroke-linejoin="round" stroke-miterlimit="10" d="
				M302.656,149.762c0.457,0.132,0.69,1.051,0.788,1.755c0.181,1.271-0.692,3.05-2.126,2.635c-1.439-0.421-1.225-2.393-0.396-3.369
				C301.387,150.239,302.198,149.626,302.656,149.762z"/>
			
				<path fill="#FFFFFF" stroke="#333333" stroke-width="1.0616" stroke-linecap="round" stroke-linejoin="round" stroke-miterlimit="10" d="
				M302.741,149.668c-0.111-0.46,0.568-1.121,1.126-1.561c1.011-0.79,2.99-0.926,3.348,0.525c0.354,1.458-1.462,2.259-2.723,2.027
				C303.794,150.534,302.856,150.135,302.741,149.668z"/>
			
				<path fill="#FFFFFF" stroke="#333333" stroke-width="1.0616" stroke-linecap="round" stroke-linejoin="round" stroke-miterlimit="10" d="
				M302.629,149.641c-0.346,0.329-1.256,0.072-1.915-0.195c-1.191-0.481-2.296-2.124-1.219-3.159
				c1.084-1.038,2.687,0.138,3.117,1.341C302.853,148.3,302.976,149.311,302.629,149.641z"/>
			
				<path fill="#FFFFFF" stroke="#333333" stroke-width="1.0616" stroke-linecap="round" stroke-linejoin="round" stroke-miterlimit="10" d="
				M302.525,149.761c0.113,0.463-0.565,1.123-1.128,1.561c-1.011,0.79-2.99,0.927-3.345-0.525c-0.354-1.458,1.46-2.258,2.721-2.028
				C301.475,148.899,302.412,149.297,302.525,149.761z"/>
			
				<path fill="#FFFFFF" stroke="#333333" stroke-width="1.0616" stroke-linecap="round" stroke-linejoin="round" stroke-miterlimit="10" d="
				M302.646,149.783c0.342-0.329,1.253-0.07,1.913,0.196c1.188,0.48,2.297,2.127,1.216,3.158c-1.083,1.038-2.683-0.134-3.114-1.34
				C302.421,151.126,302.299,150.114,302.646,149.783z"/>
			
				<path fill="#FFFFFF" stroke="#333333" stroke-width="1.0616" stroke-linecap="round" stroke-linejoin="round" stroke-miterlimit="10" d="
				M302.59,149.663c-0.454-0.135-0.688-1.052-0.786-1.757c-0.179-1.271,0.691-3.05,2.127-2.633c1.439,0.421,1.224,2.391,0.394,3.368
				C303.865,149.185,303.05,149.797,302.59,149.663z"/>
			
				<path fill="#F9D53E" stroke="#333333" stroke-width="1.0616" stroke-linecap="round" stroke-linejoin="round" stroke-miterlimit="10" d="
				M303.483,149.525c-0.129-0.529-0.662-0.852-1.193-0.723c-0.528,0.128-0.854,0.663-0.725,1.194
				c0.131,0.527,0.666,0.854,1.193,0.723C303.289,150.593,303.614,150.057,303.483,149.525z"/>
		</g>
	</g>
</g>
<g id="calque05">
	<g>
		
			<polygon fill="#CC924C" stroke="#333333" stroke-width="0.8493" stroke-linecap="round" stroke-linejoin="round" stroke-miterlimit="10" points="
			273.604,146.109 283.067,150.852 282.356,147.94 		"/>
		
			<polygon fill="#CC924C" stroke="#333333" stroke-width="1.0616" stroke-linecap="round" stroke-linejoin="round" stroke-miterlimit="10" points="
			301.847,148.655 291.094,166.78 290.382,163.868 		"/>
		
			<polygon fill="#CC924C" stroke="#333333" stroke-width="1.0616" stroke-linecap="round" stroke-linejoin="round" stroke-miterlimit="10" points="
			284.33,179.708 290.781,184.208 290.323,182.331 		"/>
		<g>
			
				<path fill="#A1C453" stroke="#333333" stroke-width="1.5923" stroke-linecap="round" stroke-linejoin="round" stroke-miterlimit="10" d="
				M308.212,177.5c-2.848-0.275-4.125-2.009-8.842,1.703c-4.719,3.711-0.05,5.29-3.154,7.733c3.104-2.443,3.794,2.429,8.34-1.146
				C309.097,182.214,307.574,180.28,308.212,177.5z"/>
			<g>
				<line fill="none" x1="296.216" y1="186.937" x2="305.514" y2="179.623"/>
				<g>
					<polyline fill="none" stroke="#333333" stroke-width="1.0616" stroke-linecap="round" stroke-miterlimit="10" points="
						296.633,186.608 297.174,186.184 303.316,181.352 303.785,180.981 					"/>
					
						<line fill="none" stroke="#333333" stroke-width="1.0616" stroke-linecap="round" stroke-miterlimit="10" x1="305.097" y1="179.951" x2="305.037" y2="179.997"/>
				</g>
			</g>
		</g>
		<g>
			
				<path fill="#A1C453" stroke="#333333" stroke-width="1.5923" stroke-linecap="round" stroke-linejoin="round" stroke-miterlimit="10" d="
				M301.07,131.464c-2.151,2.4-4.586,2.402-4.368,9.175c0.218,6.772,4.778,3.582,4.92,8.039c-0.142-4.457,4.745-1.821,4.535-8.343
				C305.946,133.814,303.171,133.902,301.07,131.464z"/>
			<g>
				<line fill="none" x1="301.621" y1="148.678" x2="301.194" y2="135.338"/>
				<g>
					<polyline fill="none" stroke="#333333" stroke-width="1.0616" stroke-linecap="round" stroke-miterlimit="10" points="
						301.605,148.147 301.582,147.46 301.283,138.132 301.265,137.534 					"/>
					
						<line fill="none" stroke="#333333" stroke-width="1.0616" stroke-linecap="round" stroke-miterlimit="10" x1="301.211" y1="135.868" x2="301.214" y2="135.943"/>
				</g>
			</g>
		</g>
		<g>
			
				<path fill="#A1C453" stroke="#333333" stroke-width="1.5923" stroke-linecap="round" stroke-linejoin="round" stroke-miterlimit="10" d="
				M313.579,136.553c-3.219,0.174-4.942-1.544-9.575,3.397c-4.637,4.942,0.843,5.913-2.207,9.165
				c3.05-3.252,4.644,2.065,9.104-2.691C315.366,141.662,313.341,139.763,313.579,136.553z"/>
			<g>
				<line fill="none" x1="301.797" y1="149.115" x2="310.93" y2="139.379"/>
				<g>
					<polyline fill="none" stroke="#333333" stroke-width="1.0616" stroke-linecap="round" stroke-miterlimit="10" points="
						302.159,148.729 302.631,148.227 309.018,141.418 309.426,140.981 					"/>
					
						<line fill="none" stroke="#333333" stroke-width="1.0616" stroke-linecap="round" stroke-miterlimit="10" x1="310.566" y1="139.766" x2="310.516" y2="139.82"/>
				</g>
			</g>
		</g>
		<g>
			
				<path fill="#A1C453" stroke="#333333" stroke-width="1.5923" stroke-linecap="round" stroke-linejoin="round" stroke-miterlimit="10" d="
				M274.123,171.427c2.546-0.242,3.695-1.79,7.912,1.54c4.217,3.332,0.035,4.738,2.808,6.93c-2.771-2.191-3.398,2.168-7.459-1.042
				C273.323,175.646,274.688,173.918,274.123,171.427z"/>
			<g>
				<line fill="none" x1="284.843" y1="179.896" x2="276.535" y2="173.334"/>
				<g>
					<polyline fill="none" stroke="#333333" stroke-width="1.0616" stroke-linecap="round" stroke-miterlimit="10" points="
						284.426,179.567 283.887,179.141 278.729,175.066 278.26,174.696 					"/>
					
						<line fill="none" stroke="#333333" stroke-width="1.0616" stroke-linecap="round" stroke-miterlimit="10" x1="276.951" y1="173.663" x2="277.01" y2="173.709"/>
				</g>
			</g>
		</g>
		<g>
			
				<path fill="#A1C453" stroke="#333333" stroke-width="1.5923" stroke-linecap="round" stroke-linejoin="round" stroke-miterlimit="10" d="
				M271.47,181.805c1.63-1.971,1.348-3.878,6.685-4.504c5.338-0.625,3.373,3.327,6.887,2.914c-3.514,0.413-0.872,3.935-6.015,4.538
				C273.886,185.355,273.629,183.167,271.47,181.805z"/>
			<g>
				<line fill="none" x1="285.04" y1="180.215" x2="274.523" y2="181.448"/>
				<g>
					<polyline fill="none" stroke="#333333" stroke-width="1.0616" stroke-linecap="round" stroke-miterlimit="10" points="
						284.513,180.276 283.83,180.356 277.3,181.123 276.706,181.192 					"/>
					
						<line fill="none" stroke="#333333" stroke-width="1.0616" stroke-linecap="round" stroke-miterlimit="10" x1="275.051" y1="181.387" x2="275.125" y2="181.378"/>
				</g>
			</g>
		</g>
		<g>
			
				<path fill="#A1C453" stroke="#333333" stroke-width="1.5923" stroke-linecap="round" stroke-linejoin="round" stroke-miterlimit="10" d="
				M259.959,135.596c0.489,3.189-1.057,5.069,4.311,9.204c5.366,4.133,5.807-1.411,9.335,1.31c-3.528-2.721,1.607-4.823-3.559-8.804
				C264.873,133.325,263.18,135.525,259.959,135.596z"/>
			<g>
				<line fill="none" x1="273.604" y1="146.109" x2="263.032" y2="137.964"/>
				<g>
					<polyline fill="none" stroke="#333333" stroke-width="1.0616" stroke-linecap="round" stroke-miterlimit="10" points="
						273.184,145.785 272.64,145.365 265.246,139.67 264.773,139.305 					"/>
					
						<line fill="none" stroke="#333333" stroke-width="1.0616" stroke-linecap="round" stroke-miterlimit="10" x1="263.453" y1="138.288" x2="263.512" y2="138.333"/>
				</g>
			</g>
		</g>
		<g>
			
				<path fill="#A1C453" stroke="#333333" stroke-width="1.0616" stroke-linecap="round" stroke-linejoin="round" stroke-miterlimit="10" d="
				M267.694,153.228c1.712-0.105,2.634,0.8,5.073-1.843c2.444-2.646-0.471-3.14,1.135-4.88c-1.604,1.74-2.475-1.077-4.826,1.468
				C266.723,150.521,267.81,151.522,267.694,153.228z"/>
			<g>
				<line fill="none" x1="273.902" y1="146.505" x2="269.09" y2="151.716"/>
				<g>
					<polyline fill="none" stroke="#333333" stroke-width="1.0616" stroke-linecap="round" stroke-miterlimit="10" points="
						273.542,146.895 273.076,147.4 270.986,149.662 270.581,150.102 					"/>
					
						<line fill="none" stroke="#333333" stroke-width="1.0616" stroke-linecap="round" stroke-miterlimit="10" x1="269.45" y1="151.326" x2="269.501" y2="151.271"/>
				</g>
			</g>
		</g>
		<g>
			<g>
				<path fill="#D3F46C" d="M307.951,150.704c1.01,2.554-0.736,6.557-2.797,6.448c-1.564,1.679-5.44-0.244-6.445-2.797
					c-1.012-2.553-0.757-5.569,3.179-5.932C304.847,146.095,306.944,148.151,307.951,150.704z"/>
				<g>
					<path fill="none" stroke="#333333" stroke-width="1.0616" stroke-linecap="round" stroke-miterlimit="10" d="M308.111,151.21
						c0.034,0.227,0.104,0.448,0.107,0.679c0.116,1.222-0.194,2.46-0.763,3.538c-0.294,0.534-0.679,1.032-1.183,1.382
						c-0.26,0.16-0.542,0.296-0.848,0.325c-0.354-0.081-0.486,0.318-0.79,0.397c-0.548,0.283-1.195,0.292-1.789,0.174
						c-0.602-0.12-1.171-0.361-1.699-0.668c-1.046-0.623-1.955-1.533-2.432-2.666c-0.439-1.128-0.69-2.4-0.341-3.586
						c0.333-1.212,1.487-2.001,2.679-2.228c0.291-0.088,0.617-0.063,0.893-0.176c0.251-0.176,0.492-0.365,0.769-0.5
						c0.532-0.293,1.135-0.495,1.75-0.47c0.613,0.02,1.202,0.273,1.681,0.652c0.115,0.093,0.249,0.196,0.337,0.295l0.138,0.14
						c0.098,0.09,0.171,0.199,0.257,0.298"/>
					
						<line fill="none" stroke="#333333" stroke-width="1.0616" stroke-linecap="round" stroke-miterlimit="10" x1="307.741" y1="150.217" x2="307.709" y2="150.149"/>
				</g>
			</g>
			<path opacity="0.5" fill="#FFFFFF" enable-background="new    " d="M300.88,152.184c-0.147,0.608-0.674,1.006-1.173,0.884
				c-0.505-0.12-0.793-0.713-0.646-1.325c0.146-0.609,0.673-1.007,1.176-0.885C300.739,150.977,301.027,151.571,300.88,152.184z"/>
		</g>
		<path fill="#CC924C" stroke="#333333" stroke-width="2.8307" stroke-linecap="round" stroke-miterlimit="10" d="M296.302,207.219
			l-16.95-71.564c-0.265-1.078,0.396-2.164,1.476-2.428l0,0c1.073-0.264,2.159,0.397,2.424,1.474l17.983,71.313"/>
		<g>
			
				<path fill="#A1C453" stroke="#333333" stroke-width="1.0616" stroke-linecap="round" stroke-linejoin="round" stroke-miterlimit="10" d="
				M282.292,132.704c0,0-1.84-2.526-2.337-2.929c-0.395-0.322-0.285,3.019-0.031,4.211L282.292,132.704z"/>
			
				<path fill="#A1C453" stroke="#333333" stroke-width="1.0616" stroke-linecap="round" stroke-linejoin="round" stroke-miterlimit="10" d="
				M279.834,133.045l3.968,2.713c0,0-0.43-4.764-1.956-6.059C281.846,129.699,280.868,131.803,279.834,133.045z"/>
			
				<path fill="#A1C453" stroke="#333333" stroke-width="1.0616" stroke-linecap="round" stroke-linejoin="round" stroke-miterlimit="10" d="
				M280.584,138.737c0,0-3.583-4.74-2.566-8.104l3.666,2.787L280.584,138.737z"/>
		</g>
		<g>
			
				<path fill="#FFFFFF" stroke="#333333" stroke-width="1.0616" stroke-linecap="round" stroke-linejoin="round" stroke-miterlimit="10" d="
				M273.656,147.794c0.456,0.133,0.689,1.051,0.786,1.755c0.181,1.27-0.689,3.052-2.125,2.633c-1.439-0.42-1.227-2.392-0.396-3.368
				C272.383,148.271,273.196,147.658,273.656,147.794z"/>
			
				<path fill="#FFFFFF" stroke="#333333" stroke-width="1.0616" stroke-linecap="round" stroke-linejoin="round" stroke-miterlimit="10" d="
				M273.739,147.699c-0.109-0.461,0.565-1.12,1.128-1.559c1.013-0.79,2.989-0.926,3.344,0.522c0.356,1.461-1.459,2.261-2.719,2.03
				C274.791,148.564,273.854,148.166,273.739,147.699z"/>
			
				<path fill="#FFFFFF" stroke="#333333" stroke-width="1.0616" stroke-linecap="round" stroke-linejoin="round" stroke-miterlimit="10" d="
				M273.625,147.671c-0.341,0.331-1.253,0.074-1.912-0.194c-1.19-0.479-2.298-2.124-1.22-3.156c1.085-1.038,2.685,0.134,3.114,1.338
				C273.848,146.331,273.971,147.342,273.625,147.671z"/>
			
				<path fill="#FFFFFF" stroke="#333333" stroke-width="1.0616" stroke-linecap="round" stroke-linejoin="round" stroke-miterlimit="10" d="
				M273.523,147.793c0.112,0.462-0.565,1.122-1.127,1.561c-1.011,0.79-2.99,0.926-3.345-0.524c-0.356-1.459,1.458-2.258,2.72-2.028
				C272.472,146.929,273.408,147.328,273.523,147.793z"/>
			
				<path fill="#FFFFFF" stroke="#333333" stroke-width="1.0616" stroke-linecap="round" stroke-linejoin="round" stroke-miterlimit="10" d="
				M273.644,147.814c0.344-0.326,1.252-0.069,1.914,0.198c1.188,0.479,2.298,2.124,1.218,3.157c-1.085,1.038-2.684-0.135-3.117-1.34
				C273.421,149.157,273.297,148.146,273.644,147.814z"/>
			
				<path fill="#FFFFFF" stroke="#333333" stroke-width="1.0616" stroke-linecap="round" stroke-linejoin="round" stroke-miterlimit="10" d="
				M273.588,147.694c-0.455-0.133-0.688-1.052-0.785-1.757c-0.179-1.271,0.691-3.051,2.124-2.631
				c1.443,0.418,1.227,2.391,0.396,3.367C274.862,147.216,274.05,147.828,273.588,147.694z"/>
			
				<circle fill="#F9D53E" stroke="#333333" stroke-width="1.0616" stroke-linecap="round" stroke-linejoin="round" stroke-miterlimit="10" cx="273.523" cy="147.793" r="0.988"/>
		</g>
	</g>
</g>
<g id="calque06">
	<g>
		
			<polygon fill="#CC924C" stroke="#333333" stroke-width="0.8493" stroke-linecap="round" stroke-linejoin="round" stroke-miterlimit="10" points="
			273.606,146.107 283.07,150.851 282.358,147.938 		"/>
		
			<polygon fill="#CC924C" stroke="#333333" stroke-width="1.0616" stroke-linecap="round" stroke-linejoin="round" stroke-miterlimit="10" points="
			301.851,148.656 291.098,166.779 290.386,163.868 		"/>
		
			<polygon fill="#CC924C" stroke="#333333" stroke-width="1.0616" stroke-linecap="round" stroke-linejoin="round" stroke-miterlimit="10" points="
			284.332,179.709 290.785,184.209 290.325,182.33 		"/>
		<g>
			
				<path fill="#A1C453" stroke="#333333" stroke-width="1.5923" stroke-linecap="round" stroke-linejoin="round" stroke-miterlimit="10" d="
				M308.216,177.498c-2.847-0.274-4.125-2.009-8.844,1.703c-4.717,3.712-0.048,5.291-3.149,7.735
				c3.103-2.444,3.789,2.429,8.335-1.148C309.1,182.214,307.576,180.28,308.216,177.498z"/>
			<g>
				<line fill="none" x1="296.223" y1="186.937" x2="305.516" y2="179.623"/>
				<g>
					<polyline fill="none" stroke="#333333" stroke-width="1.0616" stroke-linecap="round" stroke-miterlimit="10" points="
						296.64,186.608 297.18,186.183 303.319,181.352 303.788,180.982 					"/>
					
						<line fill="none" stroke="#333333" stroke-width="1.0616" stroke-linecap="round" stroke-miterlimit="10" x1="305.099" y1="179.951" x2="305.039" y2="179.997"/>
				</g>
			</g>
		</g>
		<g>
			
				<path fill="#A1C453" stroke="#333333" stroke-width="1.0616" stroke-linecap="round" stroke-linejoin="round" stroke-miterlimit="10" d="
				M287.919,127.082c0.574,1.62,1.771,2.116,0.295,5.409c-1.478,3.297-3.082,0.802-4.055,2.972c0.973-2.17-1.973-1.859-0.548-5.034
				C285.035,127.253,286.388,127.859,287.919,127.082z"/>
			<g>
				<line fill="none" x1="284.159" y1="135.463" x2="287.072" y2="128.967"/>
				<g>
					<polyline fill="none" stroke="#333333" stroke-width="1.0616" stroke-linecap="round" stroke-miterlimit="10" points="
						284.376,134.979 284.658,134.352 285.929,131.518 286.173,130.973 					"/>
					
						<line fill="none" stroke="#333333" stroke-width="1.0616" stroke-linecap="round" stroke-miterlimit="10" x1="286.855" y1="129.451" x2="286.824" y2="129.52"/>
				</g>
			</g>
		</g>
		<g>
			
				<path fill="#A1C453" stroke="#333333" stroke-width="1.5923" stroke-linecap="round" stroke-linejoin="round" stroke-miterlimit="10" d="
				M301.073,131.461c-2.152,2.401-4.588,2.405-4.37,9.177c0.219,6.772,4.779,3.583,4.923,8.04c-0.144-4.457,4.742-1.821,4.534-8.343
				C305.95,133.813,303.173,133.9,301.073,131.461z"/>
			<g>
				<line fill="none" x1="301.626" y1="148.678" x2="301.197" y2="135.337"/>
				<g>
					<polyline fill="none" stroke="#333333" stroke-width="1.0616" stroke-linecap="round" stroke-miterlimit="10" points="
						301.609,148.147 301.587,147.46 301.286,138.131 301.268,137.533 					"/>
					
						<line fill="none" stroke="#333333" stroke-width="1.0616" stroke-linecap="round" stroke-miterlimit="10" x1="301.215" y1="135.867" x2="301.217" y2="135.942"/>
				</g>
			</g>
		</g>
		<g>
			
				<path fill="#A1C453" stroke="#333333" stroke-width="1.5923" stroke-linecap="round" stroke-linejoin="round" stroke-miterlimit="10" d="
				M313.582,136.551c-3.22,0.175-4.941-1.543-9.574,3.4c-4.636,4.941,0.843,5.912-2.207,9.163c3.05-3.251,4.642,2.067,9.104-2.691
				C315.37,141.661,313.344,139.763,313.582,136.551z"/>
			<g>
				<line fill="none" x1="301.801" y1="149.114" x2="310.932" y2="139.379"/>
				<g>
					<polyline fill="none" stroke="#333333" stroke-width="1.0616" stroke-linecap="round" stroke-miterlimit="10" points="
						302.163,148.727 302.635,148.226 309.02,141.418 309.428,140.982 					"/>
					
						<line fill="none" stroke="#333333" stroke-width="1.0616" stroke-linecap="round" stroke-miterlimit="10" x1="310.568" y1="139.766" x2="310.518" y2="139.82"/>
				</g>
			</g>
		</g>
		<g>
			
				<path fill="#A1C453" stroke="#333333" stroke-width="1.5923" stroke-linecap="round" stroke-linejoin="round" stroke-miterlimit="10" d="
				M274.127,171.426c2.545-0.241,3.694-1.792,7.913,1.542c4.214,3.33,0.032,4.738,2.807,6.929c-2.772-2.19-3.398,2.166-7.459-1.042
				C273.325,175.646,274.69,173.917,274.127,171.426z"/>
			<g>
				<line fill="none" x1="284.847" y1="179.896" x2="276.539" y2="173.333"/>
				<g>
					<polyline fill="none" stroke="#333333" stroke-width="1.0616" stroke-linecap="round" stroke-miterlimit="10" points="
						284.43,179.567 283.891,179.141 278.732,175.066 278.264,174.695 					"/>
					
						<line fill="none" stroke="#333333" stroke-width="1.0616" stroke-linecap="round" stroke-miterlimit="10" x1="276.955" y1="173.662" x2="277.014" y2="173.708"/>
				</g>
			</g>
		</g>
		<g>
			
				<path fill="#A1C453" stroke="#333333" stroke-width="1.5923" stroke-linecap="round" stroke-linejoin="round" stroke-miterlimit="10" d="
				M271.472,181.806c1.633-1.973,1.348-3.881,6.688-4.506c5.337-0.627,3.372,3.325,6.884,2.914
				c-3.511,0.411-0.872,3.935-6.011,4.539C273.89,185.354,273.634,183.166,271.472,181.806z"/>
			<g>
				<line fill="none" x1="285.042" y1="180.214" x2="274.529" y2="181.448"/>
				<g>
					<polyline fill="none" stroke="#333333" stroke-width="1.0616" stroke-linecap="round" stroke-miterlimit="10" points="
						284.515,180.275 283.832,180.355 277.306,181.122 276.712,181.191 					"/>
					
						<line fill="none" stroke="#333333" stroke-width="1.0616" stroke-linecap="round" stroke-miterlimit="10" x1="275.057" y1="181.387" x2="275.131" y2="181.378"/>
				</g>
			</g>
		</g>
		<g>
			
				<path fill="#A1C453" stroke="#333333" stroke-width="1.0616" stroke-linecap="round" stroke-linejoin="round" stroke-miterlimit="10" d="
				M263.674,147.574c1.41,1.038,1.541,2.355,5.195,1.882c3.651-0.475,1.687-2.775,4.089-3.087c-2.402,0.312-1.234-2.473-4.749-2.012
				C264.688,144.813,264.883,146.311,263.674,147.574z"/>
			<g>
				<line fill="none" x1="272.958" y1="146.369" x2="265.763" y2="147.303"/>
				<g>
					<polyline fill="none" stroke="#333333" stroke-width="1.0616" stroke-linecap="round" stroke-miterlimit="10" points="
						272.432,146.438 271.75,146.525 268.535,146.943 267.942,147.02 					"/>
					
						<line fill="none" stroke="#333333" stroke-width="1.0616" stroke-linecap="round" stroke-miterlimit="10" x1="266.289" y1="147.234" x2="266.363" y2="147.225"/>
				</g>
			</g>
		</g>
		<g>
			
				<path fill="#A1C453" stroke="#333333" stroke-width="1.5923" stroke-linecap="round" stroke-linejoin="round" stroke-miterlimit="10" d="
				M259.963,135.597c0.487,3.188-1.056,5.068,4.313,9.203c5.366,4.134,5.803-1.413,9.331,1.308c-3.528-2.721,1.609-4.82-3.559-8.802
				C264.878,133.324,263.183,135.522,259.963,135.597z"/>
			<g>
				<line fill="none" x1="273.606" y1="146.107" x2="263.034" y2="137.961"/>
				<g>
					<polyline fill="none" stroke="#333333" stroke-width="1.0616" stroke-linecap="round" stroke-miterlimit="10" points="
						273.186,145.783 272.642,145.363 265.248,139.667 264.775,139.303 					"/>
					
						<line fill="none" stroke="#333333" stroke-width="1.0616" stroke-linecap="round" stroke-miterlimit="10" x1="263.455" y1="138.285" x2="263.514" y2="138.33"/>
				</g>
			</g>
		</g>
		<g>
			
				<path fill="#A1C453" stroke="#333333" stroke-width="1.5923" stroke-linecap="round" stroke-linejoin="round" stroke-miterlimit="10" d="
				M264.557,156.513c2.528-0.155,3.893,1.183,7.504-2.727c3.609-3.91-0.703-4.641,1.675-7.213c-2.378,2.572-3.659-1.597-7.136,2.17
				C263.121,152.509,264.724,153.988,264.557,156.513z"/>
			<g>
				<line fill="none" x1="273.735" y1="146.573" x2="266.62" y2="154.276"/>
				<g>
					<polyline fill="none" stroke="#333333" stroke-width="1.0616" stroke-linecap="round" stroke-miterlimit="10" points="
						273.375,146.963 272.908,147.469 268.517,152.223 268.111,152.662 					"/>
					
						<line fill="none" stroke="#333333" stroke-width="1.0616" stroke-linecap="round" stroke-miterlimit="10" x1="266.98" y1="153.887" x2="267.031" y2="153.832"/>
				</g>
			</g>
		</g>
		<g>
			<g>
				<path fill="#D3F46C" d="M310.142,152.234c1.367,3.463-1.001,8.893-3.793,8.747c-2.124,2.275-7.378-0.332-8.745-3.796
					c-1.366-3.461-1.022-7.555,4.313-8.044C305.937,145.985,308.776,148.773,310.142,152.234z"/>
				<g>
					<path fill="none" stroke="#333333" stroke-width="1.5923" stroke-linecap="round" stroke-miterlimit="10" d="M310.371,152.996
						c0.064,0.338,0.135,0.675,0.144,1.02c0.105,1.633-0.309,3.283-1.097,4.709c-0.4,0.706-0.915,1.375-1.604,1.822
						c-0.35,0.206-0.729,0.386-1.14,0.412l-0.307,0.021c-0.087,0.043-0.157,0.126-0.236,0.188c-0.146,0.146-0.32,0.251-0.508,0.338
						c-0.733,0.372-1.598,0.383-2.392,0.227c-0.802-0.158-1.564-0.477-2.272-0.882c-1.393-0.834-2.639-2.017-3.29-3.526
						c-0.611-1.497-0.968-3.184-0.573-4.784c0.2-0.792,0.632-1.526,1.248-2.065c0.608-0.553,1.386-0.88,2.172-1.084
						c0.393-0.118,0.799-0.165,1.203-0.221c0.219,0.012,0.363-0.16,0.535-0.267c0.17-0.113,0.325-0.247,0.508-0.343
						c0.692-0.429,1.48-0.725,2.296-0.778c0.815-0.056,1.639,0.188,2.315,0.642c0.178,0.095,0.338,0.252,0.479,0.36
						c0.076,0.063,0.154,0.121,0.221,0.194c0.137,0.143,0.281,0.275,0.409,0.425"/>
					
						<line fill="none" stroke="#333333" stroke-width="1.5923" stroke-linecap="round" stroke-miterlimit="10" x1="309.823" y1="151.505" x2="309.773" y2="151.404"/>
				</g>
			</g>
			<path opacity="0.5" fill="#FFFFFF" enable-background="new    " d="M300.552,154.238c-0.198,0.828-0.911,1.367-1.591,1.204
				c-0.683-0.166-1.075-0.972-0.875-1.799c0.197-0.827,0.909-1.366,1.592-1.202C300.359,152.607,300.751,153.41,300.552,154.238z"/>
		</g>
		<path fill="#CC924C" stroke="#333333" stroke-width="2.8307" stroke-linecap="round" stroke-miterlimit="10" d="M296.306,207.219
			l-18.731-78.853c-0.266-1.079,0.394-2.165,1.473-2.428l0,0c1.076-0.263,2.163,0.396,2.428,1.473l19.765,78.603"/>
		<g>
			
				<path fill="#A1C453" stroke="#333333" stroke-width="1.0616" stroke-linecap="round" stroke-linejoin="round" stroke-miterlimit="10" d="
				M280.514,125.414c0,0-1.839-2.527-2.337-2.929c-0.396-0.321-0.288,3.021-0.031,4.213L280.514,125.414z"/>
			
				<path fill="#A1C453" stroke="#333333" stroke-width="1.0616" stroke-linecap="round" stroke-linejoin="round" stroke-miterlimit="10" d="
				M278.055,125.757l3.969,2.712c0,0-0.432-4.764-1.956-6.059C280.067,122.41,279.088,124.514,278.055,125.757z"/>
			
				<path fill="#A1C453" stroke="#333333" stroke-width="1.0616" stroke-linecap="round" stroke-linejoin="round" stroke-miterlimit="10" d="
				M278.806,131.445c0,0-3.583-4.737-2.567-8.101l3.666,2.786L278.806,131.445z"/>
		</g>
		<g>
			<g>
				<path fill="#D3F46C" d="M278.254,149.951c1.008,2.553-0.737,6.558-2.797,6.447c-1.563,1.681-5.438-0.243-6.448-2.797
					c-1.008-2.554-0.752-5.568,3.181-5.931C275.153,145.344,277.246,147.398,278.254,149.951z"/>
				<g>
					<path fill="none" stroke="#333333" stroke-width="1.0616" stroke-linecap="round" stroke-miterlimit="10" d="M278.413,150.457
						c0.033,0.227,0.103,0.449,0.105,0.679c0.116,1.222-0.193,2.46-0.761,3.538c-0.294,0.534-0.679,1.032-1.184,1.382
						c-0.26,0.159-0.541,0.296-0.849,0.324c-0.352-0.081-0.484,0.319-0.789,0.397c-0.547,0.284-1.193,0.293-1.789,0.175
						c-0.6-0.12-1.171-0.362-1.697-0.669c-1.047-0.623-1.955-1.532-2.435-2.664c-0.438-1.128-0.688-2.4-0.339-3.586
						c0.333-1.212,1.487-2.002,2.678-2.229c0.291-0.088,0.616-0.063,0.894-0.176c0.251-0.175,0.492-0.364,0.769-0.499
						c0.532-0.292,1.134-0.495,1.749-0.47c0.614,0.019,1.204,0.272,1.683,0.65c0.113,0.094,0.247,0.196,0.336,0.296l0.139,0.14
						c0.097,0.09,0.17,0.199,0.256,0.298"/>
					
						<line fill="none" stroke="#333333" stroke-width="1.0616" stroke-linecap="round" stroke-miterlimit="10" x1="278.045" y1="149.464" x2="278.011" y2="149.396"/>
				</g>
			</g>
			<path opacity="0.5" fill="#FFFFFF" enable-background="new    " d="M271.183,151.429c-0.146,0.611-0.671,1.008-1.172,0.887
				c-0.502-0.122-0.792-0.714-0.646-1.323c0.146-0.613,0.672-1.009,1.174-0.888C271.041,150.225,271.33,150.819,271.183,151.429z"/>
		</g>
	</g>
</g>
<g id="calque07">
	<g>
		
			<polygon fill="#CC924C" stroke="#333333" stroke-width="1.0616" stroke-linecap="round" stroke-linejoin="round" stroke-miterlimit="10" points="
			288.55,128.512 283.685,137.104 282.973,134.193 		"/>
		
			<polygon fill="#CC924C" stroke="#333333" stroke-width="0.8493" stroke-linecap="round" stroke-linejoin="round" stroke-miterlimit="10" points="
			273.604,146.109 283.067,150.852 282.356,147.94 		"/>
		
			<polygon fill="#CC924C" stroke="#333333" stroke-width="1.0616" stroke-linecap="round" stroke-linejoin="round" stroke-miterlimit="10" points="
			301.847,148.655 291.094,166.78 290.382,163.868 		"/>
		
			<polygon fill="#CC924C" stroke="#333333" stroke-width="1.0616" stroke-linecap="round" stroke-linejoin="round" stroke-miterlimit="10" points="
			284.33,179.709 290.781,184.208 290.323,182.331 		"/>
		<g>
			
				<path fill="#A1C453" stroke="#333333" stroke-width="1.5923" stroke-linecap="round" stroke-linejoin="round" stroke-miterlimit="10" d="
				M308.212,177.5c-2.848-0.275-4.125-2.009-8.842,1.703c-4.719,3.711-0.05,5.29-3.154,7.733c3.104-2.443,3.794,2.429,8.34-1.146
				C309.097,182.214,307.574,180.28,308.212,177.5z"/>
			<g>
				<line fill="none" x1="296.216" y1="186.937" x2="305.513" y2="179.625"/>
				<g>
					<polyline fill="none" stroke="#333333" stroke-width="1.0616" stroke-linecap="round" stroke-miterlimit="10" points="
						296.633,186.608 297.174,186.184 303.315,181.354 303.784,180.983 					"/>
					
						<line fill="none" stroke="#333333" stroke-width="1.0616" stroke-linecap="round" stroke-miterlimit="10" x1="305.096" y1="179.953" x2="305.036" y2="179.999"/>
				</g>
			</g>
		</g>
		<g>
			
				<path fill="#A1C453" stroke="#333333" stroke-width="1.5923" stroke-linecap="round" stroke-linejoin="round" stroke-miterlimit="10" d="
				M294.796,114.588c0.956,2.691,2.948,3.515,0.493,8.991c-2.459,5.477-5.124,1.328-6.739,4.933
				c1.615-3.604-3.278-3.089-0.908-8.362C290.007,114.872,292.251,115.88,294.796,114.588z"/>
			<g>
				<line fill="none" x1="288.55" y1="128.512" x2="293.391" y2="117.723"/>
				<g>
					<polyline fill="none" stroke="#333333" stroke-width="1.0616" stroke-linecap="round" stroke-miterlimit="10" points="
						288.768,128.027 289.049,127.4 292.246,120.273 292.491,119.728 					"/>
					
						<line fill="none" stroke="#333333" stroke-width="1.0616" stroke-linecap="round" stroke-miterlimit="10" x1="293.174" y1="118.207" x2="293.143" y2="118.275"/>
				</g>
			</g>
		</g>
		<g>
			
				<path fill="#A1C453" stroke="#333333" stroke-width="1.5923" stroke-linecap="round" stroke-linejoin="round" stroke-miterlimit="10" d="
				M301.07,131.464c-2.151,2.4-4.586,2.402-4.368,9.175c0.218,6.772,4.778,3.582,4.92,8.039c-0.142-4.457,4.745-1.821,4.535-8.343
				C305.946,133.814,303.169,133.902,301.07,131.464z"/>
			<g>
				<line fill="none" x1="301.621" y1="148.678" x2="301.194" y2="135.338"/>
				<g>
					<polyline fill="none" stroke="#333333" stroke-width="1.0616" stroke-linecap="round" stroke-miterlimit="10" points="
						301.605,148.147 301.582,147.46 301.283,138.132 301.265,137.534 					"/>
					
						<line fill="none" stroke="#333333" stroke-width="1.0616" stroke-linecap="round" stroke-miterlimit="10" x1="301.211" y1="135.868" x2="301.214" y2="135.943"/>
				</g>
			</g>
		</g>
		<g>
			
				<path fill="#A1C453" stroke="#333333" stroke-width="1.5923" stroke-linecap="round" stroke-linejoin="round" stroke-miterlimit="10" d="
				M313.577,136.553c-3.217,0.174-4.94-1.544-9.573,3.397c-4.637,4.942,0.843,5.913-2.207,9.165c3.05-3.252,4.644,2.066,9.104-2.691
				C315.366,141.662,313.341,139.763,313.577,136.553z"/>
			<g>
				<line fill="none" x1="301.797" y1="149.115" x2="310.93" y2="139.379"/>
				<g>
					<polyline fill="none" stroke="#333333" stroke-width="1.0616" stroke-linecap="round" stroke-miterlimit="10" points="
						302.159,148.729 302.631,148.227 309.018,141.418 309.426,140.981 					"/>
					
						<line fill="none" stroke="#333333" stroke-width="1.0616" stroke-linecap="round" stroke-miterlimit="10" x1="310.566" y1="139.766" x2="310.516" y2="139.82"/>
				</g>
			</g>
		</g>
		<g>
			
				<path fill="#A1C453" stroke="#333333" stroke-width="1.5923" stroke-linecap="round" stroke-linejoin="round" stroke-miterlimit="10" d="
				M274.123,171.427c2.546-0.242,3.695-1.79,7.912,1.54c4.217,3.332,0.035,4.738,2.808,6.93c-2.771-2.191-3.398,2.168-7.459-1.042
				C273.321,175.646,274.688,173.918,274.123,171.427z"/>
			<g>
				<line fill="none" x1="284.843" y1="179.896" x2="276.535" y2="173.334"/>
				<g>
					<polyline fill="none" stroke="#333333" stroke-width="1.0616" stroke-linecap="round" stroke-miterlimit="10" points="
						284.426,179.567 283.887,179.141 278.729,175.066 278.26,174.696 					"/>
					
						<line fill="none" stroke="#333333" stroke-width="1.0616" stroke-linecap="round" stroke-miterlimit="10" x1="276.951" y1="173.663" x2="277.01" y2="173.709"/>
				</g>
			</g>
		</g>
		<g>
			
				<path fill="#A1C453" stroke="#333333" stroke-width="1.5923" stroke-linecap="round" stroke-linejoin="round" stroke-miterlimit="10" d="
				M271.47,181.805c1.63-1.971,1.348-3.878,6.685-4.504c5.338-0.625,3.373,3.327,6.887,2.914c-3.514,0.413-0.872,3.935-6.015,4.538
				C273.886,185.355,273.629,183.167,271.47,181.805z"/>
			<g>
				<line fill="none" x1="285.04" y1="180.215" x2="274.523" y2="181.448"/>
				<g>
					<polyline fill="none" stroke="#333333" stroke-width="1.0616" stroke-linecap="round" stroke-miterlimit="10" points="
						284.513,180.276 283.83,180.356 277.3,181.123 276.706,181.192 					"/>
					
						<line fill="none" stroke="#333333" stroke-width="1.0616" stroke-linecap="round" stroke-miterlimit="10" x1="275.051" y1="181.387" x2="275.125" y2="181.378"/>
				</g>
			</g>
		</g>
		<g>
			
				<path fill="#A1C453" stroke="#333333" stroke-width="1.5923" stroke-linecap="round" stroke-linejoin="round" stroke-miterlimit="10" d="
				M256.106,148.538c2.6,1.913,2.839,4.335,9.555,3.463c6.72-0.873,3.106-5.104,7.524-5.676c-4.418,0.572-2.271-4.545-8.74-3.706
				C257.975,143.459,258.331,146.212,256.106,148.538z"/>
			<g>
				<line fill="none" x1="273.186" y1="146.325" x2="259.951" y2="148.042"/>
				<g>
					<polyline fill="none" stroke="#333333" stroke-width="1.0616" stroke-linecap="round" stroke-miterlimit="10" points="
						272.659,146.394 271.978,146.482 262.724,147.683 262.131,147.76 					"/>
					
						<line fill="none" stroke="#333333" stroke-width="1.0616" stroke-linecap="round" stroke-miterlimit="10" x1="260.478" y1="147.974" x2="260.552" y2="147.964"/>
				</g>
			</g>
		</g>
		<g>
			
				<path fill="#A1C453" stroke="#333333" stroke-width="1.5923" stroke-linecap="round" stroke-linejoin="round" stroke-miterlimit="10" d="
				M259.959,135.596c0.489,3.189-1.057,5.069,4.311,9.204c5.366,4.133,5.807-1.411,9.335,1.31c-3.528-2.721,1.607-4.823-3.559-8.804
				C264.873,133.325,263.18,135.525,259.959,135.596z"/>
			<g>
				<line fill="none" x1="273.604" y1="146.109" x2="263.032" y2="137.964"/>
				<g>
					<polyline fill="none" stroke="#333333" stroke-width="1.0616" stroke-linecap="round" stroke-miterlimit="10" points="
						273.184,145.785 272.64,145.365 265.246,139.67 264.773,139.305 					"/>
					
						<line fill="none" stroke="#333333" stroke-width="1.0616" stroke-linecap="round" stroke-miterlimit="10" x1="263.453" y1="138.288" x2="263.512" y2="138.333"/>
				</g>
			</g>
		</g>
		<g>
			
				<path fill="#A1C453" stroke="#333333" stroke-width="1.5923" stroke-linecap="round" stroke-linejoin="round" stroke-miterlimit="10" d="
				M264.555,156.515c2.528-0.156,3.892,1.182,7.502-2.728c3.609-3.912-0.699-4.641,1.676-7.212
				c-2.375,2.571-3.658-1.598-7.137,2.168C263.119,152.511,264.722,153.991,264.555,156.515z"/>
			<g>
				<line fill="none" x1="273.732" y1="146.575" x2="266.618" y2="154.278"/>
				<g>
					<polyline fill="none" stroke="#333333" stroke-width="1.0616" stroke-linecap="round" stroke-miterlimit="10" points="
						273.372,146.965 272.905,147.471 268.515,152.225 268.109,152.664 					"/>
					
						<line fill="none" stroke="#333333" stroke-width="1.0616" stroke-linecap="round" stroke-miterlimit="10" x1="266.979" y1="153.889" x2="267.029" y2="153.834"/>
				</g>
			</g>
		</g>
		<g>
			<g>
				<path fill="#EF4529" d="M310.139,152.235c1.366,3.462-1.002,8.893-3.794,8.746c-2.122,2.275-7.378-0.331-8.744-3.795
					c-1.366-3.46-1.021-7.555,4.313-8.043C305.935,145.987,308.771,148.773,310.139,152.235z"/>
				<g>
					<path fill="none" stroke="#333333" stroke-width="1.5923" stroke-linecap="round" stroke-miterlimit="10" d="M310.368,152.997
						c0.064,0.338,0.134,0.675,0.144,1.02c0.105,1.632-0.31,3.282-1.099,4.709c-0.399,0.706-0.915,1.375-1.604,1.821
						c-0.35,0.206-0.729,0.386-1.14,0.412l-0.307,0.021c-0.087,0.043-0.157,0.126-0.236,0.188c-0.146,0.146-0.32,0.251-0.508,0.338
						c-0.732,0.372-1.597,0.383-2.392,0.228c-0.802-0.159-1.564-0.478-2.273-0.882c-1.392-0.834-2.638-2.017-3.289-3.526
						c-0.61-1.497-0.968-3.184-0.571-4.784c0.199-0.791,0.631-1.526,1.247-2.065c0.607-0.553,1.386-0.88,2.172-1.083
						c0.392-0.118,0.799-0.166,1.203-0.222c0.219,0.013,0.362-0.16,0.535-0.267c0.17-0.112,0.325-0.247,0.507-0.342
						c0.693-0.429,1.48-0.725,2.297-0.778c0.815-0.057,1.638,0.188,2.315,0.642c0.177,0.094,0.337,0.251,0.479,0.359
						c0.076,0.063,0.155,0.121,0.221,0.195c0.137,0.142,0.281,0.274,0.41,0.424"/>
					
						<line fill="none" stroke="#333333" stroke-width="1.5923" stroke-linecap="round" stroke-miterlimit="10" x1="309.82" y1="151.506" x2="309.771" y2="151.405"/>
				</g>
			</g>
			
				<ellipse transform="matrix(0.2345 -0.9721 0.9721 0.2345 79.5 408.8284)" opacity="0.5" fill="#FFFFFF" enable-background="new    " cx="299.334" cy="153.936" rx="1.543" ry="1.269"/>
		</g>
		<g>
			<g>
				<path fill="#D3F46C" d="M279.337,153.543c-0.29,3.712-4.802,7.55-7.246,6.19c-2.906,1.116-6.482-3.536-6.191-7.247
					c0.291-3.71,2.399-7.235,7.409-5.331C278.304,146.084,279.631,149.831,279.337,153.543z"/>
				<g>
					<path fill="none" stroke="#333333" stroke-width="1.5923" stroke-linecap="round" stroke-miterlimit="10" d="M279.21,154.328
						c-0.091,0.332-0.176,0.666-0.319,0.979c-0.62,1.514-1.717,2.814-3.052,3.749c-0.671,0.458-1.427,0.833-2.242,0.931
						c-0.404,0.031-0.825,0.025-1.204-0.132l-0.284-0.115c-0.098,0.002-0.196,0.045-0.296,0.065
						c-0.194,0.067-0.396,0.085-0.604,0.082c-0.822,0.012-1.604-0.356-2.248-0.846c-0.651-0.494-1.197-1.116-1.655-1.791
						c-0.884-1.359-1.484-2.97-1.408-4.611c0.108-1.614,0.528-3.285,1.586-4.55c0.527-0.623,1.238-1.094,2.028-1.307
						c0.789-0.229,1.631-0.182,2.427-0.02c0.404,0.065,0.79,0.201,1.18,0.329c0.189,0.106,0.396,0.018,0.597-0.004
						c0.202-0.026,0.402-0.078,0.605-0.085c0.813-0.08,1.649-0.002,2.405,0.308c0.758,0.308,1.389,0.889,1.799,1.593
						c0.117,0.162,0.192,0.374,0.272,0.534c0.041,0.089,0.086,0.177,0.113,0.271c0.06,0.188,0.132,0.371,0.182,0.562"/>
					
						<line fill="none" stroke="#333333" stroke-width="1.5923" stroke-linecap="round" stroke-miterlimit="10" x1="279.372" y1="152.748" x2="279.371" y2="152.636"/>
				</g>
			</g>
			<path opacity="0.5" fill="#FFFFFF" enable-background="new    " d="M269.843,151.135c-0.544,0.657-1.42,0.827-1.958,0.38
				c-0.542-0.447-0.54-1.343,0.002-1.999c0.542-0.656,1.42-0.827,1.961-0.38C270.385,149.582,270.383,150.478,269.843,151.135z"/>
		</g>
		<path fill="#CC924C" stroke="#333333" stroke-width="2.8307" stroke-linecap="round" stroke-miterlimit="10" d="M296.302,207.219
			l-20.281-85.184c-0.263-1.078,0.396-2.165,1.475-2.429l0,0c1.076-0.262,2.161,0.396,2.425,1.475l21.314,84.933"/>
		<g>
			
				<path fill="#A1C453" stroke="#333333" stroke-width="1.0616" stroke-linecap="round" stroke-linejoin="round" stroke-miterlimit="10" d="
				M278.96,119.084c0,0-1.84-2.528-2.334-2.929c-0.396-0.321-0.287,3.02-0.032,4.211L278.96,119.084z"/>
			
				<path fill="#A1C453" stroke="#333333" stroke-width="1.0616" stroke-linecap="round" stroke-linejoin="round" stroke-miterlimit="10" d="
				M276.503,119.425l3.969,2.715c0,0-0.433-4.766-1.957-6.062C278.515,116.078,277.54,118.183,276.503,119.425z"/>
			
				<path fill="#A1C453" stroke="#333333" stroke-width="1.0616" stroke-linecap="round" stroke-linejoin="round" stroke-miterlimit="10" d="
				M277.253,125.113c0,0-3.582-4.736-2.563-8.099l3.665,2.786L277.253,125.113z"/>
		</g>
	</g>
</g>
<g id="calque08">
	<g>
		
			<polygon fill="#CC924C" stroke="#333333" stroke-width="1.0616" stroke-linecap="round" stroke-linejoin="round" stroke-miterlimit="10" points="
			288.55,128.512 283.685,137.104 282.973,134.193 		"/>
		
			<polygon fill="#CC924C" stroke="#333333" stroke-width="0.8493" stroke-linecap="round" stroke-linejoin="round" stroke-miterlimit="10" points="
			273.604,146.109 283.067,150.852 282.356,147.94 		"/>
		
			<polygon fill="#CC924C" stroke="#333333" stroke-width="1.0616" stroke-linecap="round" stroke-linejoin="round" stroke-miterlimit="10" points="
			301.847,148.655 291.094,166.78 290.382,163.868 		"/>
		
			<polygon fill="#CC924C" stroke="#333333" stroke-width="1.0616" stroke-linecap="round" stroke-linejoin="round" stroke-miterlimit="10" points="
			284.33,179.709 290.781,184.208 290.323,182.331 		"/>
		<g>
			
				<path fill="#A1C453" stroke="#333333" stroke-width="1.5923" stroke-linecap="round" stroke-linejoin="round" stroke-miterlimit="10" d="
				M308.212,177.5c-2.845-0.276-4.125-2.009-8.842,1.703c-4.719,3.711-0.05,5.29-3.154,7.733c3.104-2.443,3.794,2.429,8.338-1.146
				C309.097,182.214,307.574,180.28,308.212,177.5z"/>
			<g>
				<line fill="none" x1="296.216" y1="186.937" x2="305.513" y2="179.625"/>
				<g>
					<polyline fill="none" stroke="#333333" stroke-width="1.0616" stroke-linecap="round" stroke-miterlimit="10" points="
						296.633,186.608 297.174,186.184 303.315,181.354 303.784,180.983 					"/>
					
						<line fill="none" stroke="#333333" stroke-width="1.0616" stroke-linecap="round" stroke-miterlimit="10" x1="305.096" y1="179.953" x2="305.036" y2="179.999"/>
				</g>
			</g>
		</g>
		<g>
			
				<path fill="#A1C453" stroke="#333333" stroke-width="1.5923" stroke-linecap="round" stroke-linejoin="round" stroke-miterlimit="10" d="
				M294.796,114.588c0.956,2.691,2.947,3.515,0.493,8.991c-2.459,5.479-5.124,1.328-6.739,4.933
				c1.615-3.604-3.278-3.089-0.908-8.362C290.007,114.872,292.251,115.88,294.796,114.588z"/>
			<g>
				<line fill="none" x1="288.55" y1="128.512" x2="293.391" y2="117.723"/>
				<g>
					<polyline fill="none" stroke="#333333" stroke-width="1.0616" stroke-linecap="round" stroke-miterlimit="10" points="
						288.768,128.027 289.049,127.4 292.246,120.273 292.491,119.728 					"/>
					
						<line fill="none" stroke="#333333" stroke-width="1.0616" stroke-linecap="round" stroke-miterlimit="10" x1="293.174" y1="118.207" x2="293.143" y2="118.275"/>
				</g>
			</g>
		</g>
		<g>
			
				<path fill="#A1C453" stroke="#333333" stroke-width="1.5923" stroke-linecap="round" stroke-linejoin="round" stroke-miterlimit="10" d="
				M301.07,131.464c-2.151,2.4-4.586,2.402-4.368,9.175c0.218,6.772,4.778,3.582,4.92,8.039c-0.142-4.457,4.743-1.821,4.535-8.343
				C305.946,133.814,303.169,133.902,301.07,131.464z"/>
			<g>
				<line fill="none" x1="301.621" y1="148.678" x2="301.194" y2="135.338"/>
				<g>
					<polyline fill="none" stroke="#333333" stroke-width="1.0616" stroke-linecap="round" stroke-miterlimit="10" points="
						301.605,148.147 301.582,147.46 301.283,138.132 301.265,137.534 					"/>
					
						<line fill="none" stroke="#333333" stroke-width="1.0616" stroke-linecap="round" stroke-miterlimit="10" x1="301.211" y1="135.868" x2="301.214" y2="135.943"/>
				</g>
			</g>
		</g>
		<g>
			
				<path fill="#A1C453" stroke="#333333" stroke-width="1.5923" stroke-linecap="round" stroke-linejoin="round" stroke-miterlimit="10" d="
				M313.577,136.553c-3.219,0.174-4.94-1.544-9.573,3.397c-4.637,4.942,0.843,5.913-2.207,9.165c3.05-3.252,4.644,2.066,9.104-2.691
				C315.366,141.662,313.341,139.763,313.577,136.553z"/>
			<g>
				<line fill="none" x1="301.797" y1="149.115" x2="310.93" y2="139.379"/>
				<g>
					<polyline fill="none" stroke="#333333" stroke-width="1.0616" stroke-linecap="round" stroke-miterlimit="10" points="
						302.159,148.729 302.631,148.227 309.018,141.418 309.426,140.981 					"/>
					
						<line fill="none" stroke="#333333" stroke-width="1.0616" stroke-linecap="round" stroke-miterlimit="10" x1="310.566" y1="139.766" x2="310.516" y2="139.82"/>
				</g>
			</g>
		</g>
		<g>
			
				<path fill="#A1C453" stroke="#333333" stroke-width="1.5923" stroke-linecap="round" stroke-linejoin="round" stroke-miterlimit="10" d="
				M274.123,171.427c2.544-0.241,3.695-1.79,7.912,1.54c4.217,3.332,0.035,4.738,2.808,6.93c-2.771-2.191-3.398,2.168-7.459-1.042
				C273.321,175.646,274.688,173.918,274.123,171.427z"/>
			<g>
				<line fill="none" x1="284.843" y1="179.896" x2="276.535" y2="173.334"/>
				<g>
					<polyline fill="none" stroke="#333333" stroke-width="1.0616" stroke-linecap="round" stroke-miterlimit="10" points="
						284.426,179.567 283.887,179.141 278.729,175.066 278.26,174.696 					"/>
					
						<line fill="none" stroke="#333333" stroke-width="1.0616" stroke-linecap="round" stroke-miterlimit="10" x1="276.951" y1="173.663" x2="277.01" y2="173.709"/>
				</g>
			</g>
		</g>
		<g>
			
				<path fill="#A1C453" stroke="#333333" stroke-width="1.5923" stroke-linecap="round" stroke-linejoin="round" stroke-miterlimit="10" d="
				M271.47,181.805c1.63-1.971,1.348-3.878,6.685-4.504c5.338-0.625,3.373,3.327,6.887,2.914c-3.514,0.413-0.872,3.935-6.015,4.538
				C273.886,185.355,273.629,183.167,271.47,181.805z"/>
			<g>
				<line fill="none" x1="285.04" y1="180.215" x2="274.523" y2="181.448"/>
				<g>
					<polyline fill="none" stroke="#333333" stroke-width="1.0616" stroke-linecap="round" stroke-miterlimit="10" points="
						284.513,180.276 283.83,180.356 277.3,181.123 276.706,181.192 					"/>
					
						<line fill="none" stroke="#333333" stroke-width="1.0616" stroke-linecap="round" stroke-miterlimit="10" x1="275.051" y1="181.387" x2="275.125" y2="181.378"/>
				</g>
			</g>
		</g>
		<g>
			
				<path fill="#A1C453" stroke="#333333" stroke-width="1.5923" stroke-linecap="round" stroke-linejoin="round" stroke-miterlimit="10" d="
				M256.106,148.538c2.6,1.913,2.839,4.335,9.555,3.463c6.72-0.873,3.106-5.104,7.524-5.676c-4.418,0.572-2.271-4.545-8.74-3.706
				C257.975,143.459,258.331,146.212,256.106,148.538z"/>
			<g>
				<line fill="none" x1="273.186" y1="146.325" x2="259.951" y2="148.042"/>
				<g>
					<polyline fill="none" stroke="#333333" stroke-width="1.0616" stroke-linecap="round" stroke-miterlimit="10" points="
						272.659,146.394 271.978,146.482 262.724,147.683 262.131,147.76 					"/>
					
						<line fill="none" stroke="#333333" stroke-width="1.0616" stroke-linecap="round" stroke-miterlimit="10" x1="260.478" y1="147.974" x2="260.552" y2="147.964"/>
				</g>
			</g>
		</g>
		<g>
			
				<path fill="#A1C453" stroke="#333333" stroke-width="1.5923" stroke-linecap="round" stroke-linejoin="round" stroke-miterlimit="10" d="
				M259.959,135.596c0.489,3.189-1.057,5.069,4.311,9.204c5.366,4.133,5.807-1.411,9.335,1.31c-3.528-2.721,1.607-4.823-3.559-8.804
				C264.873,133.325,263.18,135.525,259.959,135.596z"/>
			<g>
				<line fill="none" x1="273.604" y1="146.109" x2="263.032" y2="137.964"/>
				<g>
					<polyline fill="none" stroke="#333333" stroke-width="1.0616" stroke-linecap="round" stroke-miterlimit="10" points="
						273.184,145.785 272.64,145.365 265.246,139.67 264.773,139.305 					"/>
					
						<line fill="none" stroke="#333333" stroke-width="1.0616" stroke-linecap="round" stroke-miterlimit="10" x1="263.453" y1="138.288" x2="263.512" y2="138.333"/>
				</g>
			</g>
		</g>
		<g>
			
				<path fill="#A1C453" stroke="#333333" stroke-width="1.5923" stroke-linecap="round" stroke-linejoin="round" stroke-miterlimit="10" d="
				M264.555,156.515c2.528-0.156,3.89,1.18,7.502-2.728c3.609-3.912-0.699-4.641,1.676-7.212c-2.375,2.571-3.658-1.598-7.137,2.168
				C263.119,152.511,264.722,153.991,264.555,156.515z"/>
			<g>
				<line fill="none" x1="273.732" y1="146.575" x2="266.618" y2="154.278"/>
				<g>
					<polyline fill="none" stroke="#333333" stroke-width="1.0616" stroke-linecap="round" stroke-miterlimit="10" points="
						273.372,146.965 272.905,147.471 268.515,152.225 268.109,152.664 					"/>
					
						<line fill="none" stroke="#333333" stroke-width="1.0616" stroke-linecap="round" stroke-miterlimit="10" x1="266.979" y1="153.889" x2="267.029" y2="153.834"/>
				</g>
			</g>
		</g>
		<g>
			<g>
				<path fill="#EF4529" d="M310.139,152.235c1.366,3.462-1.002,8.893-3.794,8.746c-2.122,2.275-7.378-0.332-8.744-3.795
					c-1.366-3.46-1.021-7.555,4.313-8.043C305.935,145.987,308.771,148.773,310.139,152.235z"/>
				<g>
					<path fill="none" stroke="#333333" stroke-width="1.5923" stroke-linecap="round" stroke-miterlimit="10" d="M310.368,152.997
						c0.064,0.338,0.134,0.675,0.144,1.02c0.105,1.632-0.31,3.282-1.099,4.709c-0.399,0.706-0.915,1.375-1.604,1.821
						c-0.35,0.206-0.729,0.386-1.14,0.412l-0.307,0.021c-0.087,0.043-0.157,0.126-0.236,0.188c-0.146,0.146-0.32,0.251-0.508,0.338
						c-0.732,0.372-1.597,0.383-2.392,0.227c-0.802-0.158-1.564-0.477-2.273-0.882c-1.391-0.834-2.638-2.017-3.289-3.525
						c-0.61-1.497-0.968-3.184-0.571-4.784c0.199-0.792,0.631-1.526,1.247-2.065c0.608-0.553,1.386-0.88,2.172-1.083
						c0.393-0.118,0.799-0.166,1.203-0.222c0.219,0.013,0.362-0.16,0.535-0.267c0.17-0.112,0.325-0.247,0.508-0.342
						c0.692-0.429,1.479-0.725,2.296-0.778c0.815-0.057,1.638,0.188,2.315,0.642c0.177,0.094,0.337,0.251,0.479,0.359
						c0.076,0.063,0.155,0.121,0.221,0.195c0.137,0.142,0.281,0.274,0.41,0.424"/>
					
						<line fill="none" stroke="#333333" stroke-width="1.5923" stroke-linecap="round" stroke-miterlimit="10" x1="309.82" y1="151.506" x2="309.771" y2="151.405"/>
				</g>
			</g>
			
				<ellipse transform="matrix(0.2345 -0.9721 0.9721 0.2345 79.5 408.8284)" opacity="0.5" fill="#FFFFFF" enable-background="new    " cx="299.334" cy="153.936" rx="1.543" ry="1.269"/>
		</g>
		<g>
			<g>
				<path fill="#EF4529" d="M279.337,153.543c-0.29,3.712-4.802,7.55-7.244,6.191c-2.908,1.115-6.484-3.537-6.193-7.248
					c0.291-3.71,2.399-7.235,7.409-5.331C278.304,146.084,279.631,149.831,279.337,153.543z"/>
				<g>
					<path fill="none" stroke="#333333" stroke-width="1.5923" stroke-linecap="round" stroke-miterlimit="10" d="M279.21,154.328
						c-0.091,0.332-0.176,0.666-0.319,0.979c-0.62,1.514-1.717,2.814-3.052,3.749c-0.671,0.458-1.427,0.833-2.242,0.931
						c-0.404,0.032-0.825,0.026-1.204-0.131l-0.284-0.115c-0.097,0.004-0.196,0.045-0.296,0.065
						c-0.194,0.068-0.396,0.085-0.604,0.081c-0.822,0.013-1.604-0.356-2.248-0.846c-0.65-0.494-1.196-1.116-1.655-1.79
						c-0.884-1.36-1.484-2.97-1.408-4.612c0.108-1.613,0.527-3.285,1.586-4.55c0.527-0.623,1.237-1.094,2.028-1.307
						c0.789-0.229,1.631-0.182,2.426-0.02c0.405,0.065,0.791,0.201,1.181,0.329c0.189,0.106,0.396,0.018,0.597-0.004
						c0.202-0.026,0.402-0.078,0.605-0.085c0.813-0.08,1.649-0.002,2.405,0.308c0.758,0.308,1.389,0.889,1.799,1.593
						c0.117,0.162,0.192,0.374,0.272,0.534c0.041,0.089,0.086,0.177,0.113,0.271c0.06,0.188,0.132,0.371,0.182,0.562"/>
					
						<line fill="none" stroke="#333333" stroke-width="1.5923" stroke-linecap="round" stroke-miterlimit="10" x1="279.372" y1="152.748" x2="279.371" y2="152.636"/>
				</g>
			</g>
			<path opacity="0.5" fill="#FFFFFF" enable-background="new    " d="M269.843,151.135c-0.544,0.657-1.42,0.827-1.958,0.38
				c-0.542-0.447-0.54-1.343,0.002-1.999c0.542-0.656,1.42-0.827,1.961-0.38C270.385,149.582,270.383,150.478,269.843,151.135z"/>
		</g>
		<path fill="#CC924C" stroke="#333333" stroke-width="2.8307" stroke-linecap="round" stroke-miterlimit="10" d="M296.302,207.219
			l-20.281-85.184c-0.263-1.078,0.396-2.165,1.475-2.429l0,0c1.075-0.261,2.161,0.396,2.425,1.475l21.314,84.933"/>
		<g>
			
				<path fill="#A1C453" stroke="#333333" stroke-width="1.0616" stroke-linecap="round" stroke-linejoin="round" stroke-miterlimit="10" d="
				M278.96,119.084c0,0-1.84-2.528-2.334-2.929c-0.396-0.321-0.287,3.02-0.032,4.211L278.96,119.084z"/>
			
				<path fill="#A1C453" stroke="#333333" stroke-width="1.0616" stroke-linecap="round" stroke-linejoin="round" stroke-miterlimit="10" d="
				M276.503,119.425l3.969,2.715c0,0-0.433-4.766-1.957-6.062C278.515,116.078,277.54,118.183,276.503,119.425z"/>
			
				<path fill="#A1C453" stroke="#333333" stroke-width="1.0616" stroke-linecap="round" stroke-linejoin="round" stroke-miterlimit="10" d="
				M277.253,125.113c0,0-3.582-4.736-2.565-8.099l3.667,2.786L277.253,125.113z"/>
		</g>
	</g>
</g>
</svg>
