<?xml version="1.0" encoding="utf-8"?>
<!-- Generator: Adobe Illustrator 16.0.0, SVG Export Plug-In . SVG Version: 6.00 Build 0)  -->
<!DOCTYPE svg PUBLIC "-//W3C//DTD SVG 1.1//EN" "http://www.w3.org/Graphics/SVG/1.1/DTD/svg11.dtd">
<svg version="1.1" id="Calque_1" xmlns="http://www.w3.org/2000/svg" xmlns:xlink="http://www.w3.org/1999/xlink" x="0px" y="0px"
	 width="320px" height="410px" viewBox="0 0 320 410" enable-background="new 0 0 320 410" xml:space="preserve">
<g id="calque01">
	<g>
		<path fill="#CC924C" stroke="#333333" stroke-width="2.4893" stroke-linecap="round" stroke-miterlimit="10" d="M217.049,182.381
			l-7.906-3.914c-0.955-0.407-1.4-1.512-0.992-2.47l0,0c0.408-0.956,1.515-1.401,2.472-0.993l8.297,2.996"/>
		<g>
			
				<path fill="#A1C453" stroke="#333333" stroke-width="0.9957" stroke-linecap="round" stroke-linejoin="round" stroke-miterlimit="10" d="
				M208.581,174.602c0,0-2.932-0.039-3.513,0.107c-0.464,0.114,2.105,1.913,3.146,2.39L208.581,174.602z"/>
			
				<path fill="#A1C453" stroke="#333333" stroke-width="0.9957" stroke-linecap="round" stroke-linejoin="round" stroke-miterlimit="10" d="
				M207.457,176.641l4.27-1.457c0,0-3.819-2.353-5.649-1.938C206.076,173.246,207.106,175.164,207.457,176.641z"/>
			
				<path fill="#A1C453" stroke="#333333" stroke-width="0.9957" stroke-linecap="round" stroke-linejoin="round" stroke-miterlimit="10" d="
				M212.149,179.275c0,0-5.57,0.025-7.523-2.627l4.152-1.188L212.149,179.275z"/>
		</g>
	</g>
</g>
<g id="calque02">
	<g>
		<g>
			
				<path fill="#A1C453" stroke="#333333" stroke-width="0.9957" stroke-linecap="round" stroke-linejoin="round" stroke-miterlimit="10" d="
				M194.16,177.766c0.434-1.15,0.009-1.974,2.338-3.089c2.33-1.116,2.052,0.987,3.584,0.255c-1.532,0.732,0.217,1.924-2.027,2.998
				C195.813,179.004,195.354,178.049,194.16,177.766z"/>
			<g>
				<line fill="none" x1="200.082" y1="174.932" x2="195.492" y2="177.128"/>
				<g>
					<polyline fill="none" stroke="#333333" stroke-width="0.9957" stroke-linecap="round" stroke-miterlimit="10" points="
						199.633,175.146 199.051,175.425 197.857,175.996 197.352,176.238 					"/>
					
						<line fill="none" stroke="#333333" stroke-width="0.9957" stroke-linecap="round" stroke-miterlimit="10" x1="195.941" y1="176.913" x2="196.005" y2="176.883"/>
				</g>
			</g>
		</g>
		<path fill="#CC924C" stroke="#333333" stroke-width="2.4893" stroke-linecap="round" stroke-miterlimit="10" d="M218.918,178
			l-25.384-10.28c-0.956-0.407-2.063,0.036-2.472,0.993l0,0c-0.408,0.957,0.037,2.063,0.993,2.471l24.992,11.197"/>
		<g>
			
				<path fill="#A1C453" stroke="#333333" stroke-width="0.9957" stroke-linecap="round" stroke-linejoin="round" stroke-miterlimit="10" d="
				M190.355,169.99c0,0-2.057-2.088-2.353-2.607c-0.241-0.414,2.836,0.195,3.9,0.613L190.355,169.99z"/>
			
				<path fill="#A1C453" stroke="#333333" stroke-width="0.9957" stroke-linecap="round" stroke-linejoin="round" stroke-miterlimit="10" d="
				M191.047,167.768l1.906,4.088c0,0-4.346-1.127-5.313-2.734C187.641,169.121,189.738,168.538,191.047,167.768z"/>
			
				<path fill="#A1C453" stroke="#333333" stroke-width="0.9957" stroke-linecap="round" stroke-linejoin="round" stroke-miterlimit="10" d="
				M196.197,169.33c0,0-3.839-4.038-7.104-3.611l2.02,3.82L196.197,169.33z"/>
		</g>
	</g>
</g>
<g id="calque03">
	<g>
		<g>
			
				<path fill="#A1C453" stroke="#333333" stroke-width="1.4936" stroke-linecap="round" stroke-linejoin="round" stroke-miterlimit="10" d="
				M189.574,184.648c0.159-2.674-1.259-4.113,2.87-7.943c4.13-3.828,4.91,0.73,7.627-1.789c-2.717,2.52,1.697,3.867-2.28,7.555
				C193.816,186.158,192.244,184.467,189.574,184.648z"/>
			<g>
				<line fill="none" x1="200.072" y1="174.916" x2="191.938" y2="182.459"/>
				<g>
					<polyline fill="none" stroke="#333333" stroke-width="0.9957" stroke-linecap="round" stroke-miterlimit="10" points="
						199.707,175.255 199.234,175.693 193.86,180.676 193.449,181.058 					"/>
					
						<line fill="none" stroke="#333333" stroke-width="0.9957" stroke-linecap="round" stroke-miterlimit="10" x1="192.303" y1="182.12" x2="192.354" y2="182.073"/>
				</g>
			</g>
		</g>
		<g>
			
				<path fill="#A1C453" stroke="#333333" stroke-width="0.9957" stroke-linecap="round" stroke-linejoin="round" stroke-miterlimit="10" d="
				M195.034,162.422c1.062,0.575,1.919,0.27,2.694,2.682c0.776,2.415-1.23,1.865-0.722,3.455c-0.51-1.59-1.9-0.044-2.648-2.369
				S194.602,163.546,195.034,162.422z"/>
			<g>
				<line fill="none" x1="197.008" y1="168.559" x2="195.678" y2="164.322"/>
				<g>
					<polyline fill="none" stroke="#333333" stroke-width="0.9957" stroke-linecap="round" stroke-miterlimit="10" points="
						196.858,168.084 196.665,167.468 196.463,166.824 196.295,166.289 					"/>
					
						<line fill="none" stroke="#333333" stroke-width="0.9957" stroke-linecap="round" stroke-miterlimit="10" x1="195.827" y1="164.797" x2="195.848" y2="164.864"/>
				</g>
			</g>
		</g>
		<path fill="#CC924C" stroke="#333333" stroke-width="2.4893" stroke-linecap="round" stroke-miterlimit="10" d="M218.918,178
			l-33.254-13.637c-0.957-0.408-2.063,0.036-2.474,0.993l0,0c-0.407,0.958,0.037,2.063,0.994,2.472l32.863,14.553"/>
		<g>
			
				<path fill="#A1C453" stroke="#333333" stroke-width="0.9957" stroke-linecap="round" stroke-linejoin="round" stroke-miterlimit="10" d="
				M182.484,166.635c0,0-2.058-2.088-2.354-2.607c-0.24-0.415,2.837,0.194,3.899,0.615L182.484,166.635z"/>
			
				<path fill="#A1C453" stroke="#333333" stroke-width="0.9957" stroke-linecap="round" stroke-linejoin="round" stroke-miterlimit="10" d="
				M183.176,164.412l1.906,4.087c0,0-4.345-1.126-5.312-2.735C179.771,165.764,181.868,165.182,183.176,164.412z"/>
			
				<path fill="#A1C453" stroke="#333333" stroke-width="0.9957" stroke-linecap="round" stroke-linejoin="round" stroke-miterlimit="10" d="
				M188.326,165.975c0,0-3.841-4.038-7.105-3.611l2.021,3.818L188.326,165.975z"/>
		</g>
	</g>
</g>
<g id="calque04">
	<g>
		
			<polygon fill="#CC924C" stroke="#333333" stroke-width="0.9957" stroke-linecap="round" stroke-linejoin="round" stroke-miterlimit="10" points="
			195.283,162.727 198.465,169.385 196.796,168.675 		"/>
		<g>
			
				<path fill="#A1C453" stroke="#333333" stroke-width="1.4936" stroke-linecap="round" stroke-linejoin="round" stroke-miterlimit="10" d="
				M189.598,184.493c0.178-2.673-1.229-4.123,2.923-7.925c4.155-3.801,4.905,0.764,7.641-1.738c-2.734,2.502,1.671,3.88-2.332,7.541
				C193.827,186.031,192.269,184.328,189.598,184.493z"/>
			<g>
				<line fill="none" x1="200.16" y1="174.83" x2="191.975" y2="182.32"/>
				<g>
					<polyline fill="none" stroke="#333333" stroke-width="0.9957" stroke-linecap="round" stroke-miterlimit="10" points="
						199.793,175.166 199.317,175.602 193.909,180.551 193.495,180.929 					"/>
					
						<line fill="none" stroke="#333333" stroke-width="0.9957" stroke-linecap="round" stroke-miterlimit="10" x1="192.342" y1="181.984" x2="192.394" y2="181.938"/>
				</g>
			</g>
		</g>
		<g>
			
				<path fill="#A1C453" stroke="#333333" stroke-width="0.9957" stroke-linecap="round" stroke-linejoin="round" stroke-miterlimit="10" d="
				M175.906,174.613c0.41-1.859-0.426-3.03,2.9-5.256c3.328-2.229,3.367,1.061,5.557-0.408c-2.188,1.469,0.759,2.907-2.443,5.051
				C178.715,176.146,177.801,174.783,175.906,174.613z"/>
			<g>
				<line fill="none" x1="184.363" y1="168.949" x2="177.809" y2="173.34"/>
				<g>
					<polyline fill="none" stroke="#333333" stroke-width="0.9957" stroke-linecap="round" stroke-miterlimit="10" points="
						183.949,169.227 183.414,169.585 179.987,171.881 179.521,172.192 					"/>
					
						<line fill="none" stroke="#333333" stroke-width="0.9957" stroke-linecap="round" stroke-miterlimit="10" x1="178.223" y1="173.063" x2="178.28" y2="173.023"/>
				</g>
			</g>
		</g>
		<g>
			
				<path fill="#A1C453" stroke="#333333" stroke-width="1.4936" stroke-linecap="round" stroke-linejoin="round" stroke-miterlimit="10" d="
				M189.174,152.018c-0.611,2.322-2.222,3.148,0.219,7.559c2.441,4.41,4.381,0.752,5.986,3.654
				c-1.605-2.902,2.522-2.814,0.173-7.063S191.393,152.922,189.174,152.018z"/>
			<g>
				<line fill="none" x1="195.379" y1="163.23" x2="190.57" y2="154.543"/>
				<g>
					<polyline fill="none" stroke="#333333" stroke-width="0.9957" stroke-linecap="round" stroke-miterlimit="10" points="
						195.138,162.795 194.825,162.23 191.84,156.837 191.568,156.347 					"/>
					
						<line fill="none" stroke="#333333" stroke-width="0.9957" stroke-linecap="round" stroke-miterlimit="10" x1="190.812" y1="154.979" x2="190.846" y2="155.04"/>
				</g>
			</g>
		</g>
		<g>
			
				<path fill="#A1C453" stroke="#333333" stroke-width="0.9957" stroke-linecap="round" stroke-linejoin="round" stroke-miterlimit="10" d="
				M197.683,155.695c-1.222,0.713-2.237,0.388-3.058,3.242c-0.82,2.855,1.51,2.141,0.971,4.018c0.539-1.877,2.225-0.122,3.016-2.871
				C199.402,157.334,198.23,156.996,197.683,155.695z"/>
			<g>
				<line fill="none" x1="195.596" y1="162.955" x2="197.213" y2="157.332"/>
				<g>
					<polyline fill="none" stroke="#333333" stroke-width="0.9957" stroke-linecap="round" stroke-miterlimit="10" points="
						195.733,162.477 195.912,161.856 196.488,159.852 196.644,159.313 					"/>
					
						<line fill="none" stroke="#333333" stroke-width="0.9957" stroke-linecap="round" stroke-miterlimit="10" x1="197.075" y1="157.811" x2="197.056" y2="157.878"/>
				</g>
			</g>
		</g>
		<path fill="#CC924C" stroke="#333333" stroke-width="2.6551" stroke-linecap="round" stroke-miterlimit="10" d="M218.918,178
			l-41.405-17.113c-0.956-0.406-2.062,0.038-2.471,0.996l0,0c-0.408,0.956,0.037,2.062,0.993,2.469l41.014,18.029"/>
		<g>
			
				<path fill="#A1C453" stroke="#333333" stroke-width="0.9957" stroke-linecap="round" stroke-linejoin="round" stroke-miterlimit="10" d="
				M174.334,163.159c0,0-2.058-2.089-2.354-2.606c-0.24-0.415,2.837,0.193,3.902,0.612L174.334,163.159z"/>
			
				<path fill="#A1C453" stroke="#333333" stroke-width="0.9957" stroke-linecap="round" stroke-linejoin="round" stroke-miterlimit="10" d="
				M175.025,160.937l1.906,4.087c0,0-4.344-1.126-5.311-2.735C171.621,162.288,173.717,161.707,175.025,160.937z"/>
			
				<path fill="#A1C453" stroke="#333333" stroke-width="0.9957" stroke-linecap="round" stroke-linejoin="round" stroke-miterlimit="10" d="
				M180.176,162.499c0,0-3.838-4.04-7.104-3.61l2.019,3.817L180.176,162.499z"/>
		</g>
	</g>
</g>
<g id="calque05">
	<g>
		
			<polygon fill="#CC924C" stroke="#333333" stroke-width="0.9957" stroke-linecap="round" stroke-linejoin="round" stroke-miterlimit="10" points="
			168.928,176.361 187.342,169.174 184.758,168.071 		"/>
		
			<polygon fill="#CC924C" stroke="#333333" stroke-width="0.9957" stroke-linecap="round" stroke-linejoin="round" stroke-miterlimit="10" points="
			195.283,162.727 198.465,169.385 196.796,168.675 		"/>
		<g>
			
				<path fill="#A1C453" stroke="#333333" stroke-width="1.4936" stroke-linecap="round" stroke-linejoin="round" stroke-miterlimit="10" d="
				M189.598,184.493c0.178-2.673-1.229-4.123,2.922-7.925c4.156-3.8,4.906,0.764,7.642-1.738c-2.734,2.502,1.67,3.881-2.332,7.541
				C193.827,186.031,192.269,184.328,189.598,184.493z"/>
			<g>
				<line fill="none" x1="200.16" y1="174.83" x2="191.975" y2="182.32"/>
				<g>
					<polyline fill="none" stroke="#333333" stroke-width="0.9957" stroke-linecap="round" stroke-miterlimit="10" points="
						199.793,175.166 199.317,175.602 193.909,180.551 193.495,180.929 					"/>
					
						<line fill="none" stroke="#333333" stroke-width="0.9957" stroke-linecap="round" stroke-miterlimit="10" x1="192.342" y1="181.984" x2="192.394" y2="181.938"/>
				</g>
			</g>
		</g>
		<g>
			
				<path fill="#A1C453" stroke="#333333" stroke-width="0.9957" stroke-linecap="round" stroke-linejoin="round" stroke-miterlimit="10" d="
				M160.787,173.854c1.391-0.887,1.594-2.113,4.992-1.441c3.399,0.671,1.411,2.709,3.649,3.151
				c-2.238-0.442-1.313,2.243-4.588,1.596C161.568,176.51,161.844,175.117,160.787,173.854z"/>
			<g>
				<line fill="none" x1="169.43" y1="175.563" x2="162.732" y2="174.238"/>
				<g>
					<polyline fill="none" stroke="#333333" stroke-width="0.9957" stroke-linecap="round" stroke-miterlimit="10" points="
						168.941,175.467 168.309,175.342 165.305,174.747 164.755,174.639 					"/>
					
						<line fill="none" stroke="#333333" stroke-width="0.9957" stroke-linecap="round" stroke-miterlimit="10" x1="163.221" y1="174.335" x2="163.289" y2="174.349"/>
				</g>
			</g>
		</g>
		<g>
			
				<path fill="#A1C453" stroke="#333333" stroke-width="1.4936" stroke-linecap="round" stroke-linejoin="round" stroke-miterlimit="10" d="
				M155.938,185.375c0.652-2.953-0.675-4.809,4.606-8.346c5.276-3.535,5.342,1.684,8.814-0.644
				c-3.474,2.327,1.206,4.611-3.879,8.017C160.396,187.809,158.946,185.643,155.938,185.375z"/>
			<g>
				<line fill="none" x1="169.36" y1="176.386" x2="158.959" y2="183.352"/>
				<g>
					<polyline fill="none" stroke="#333333" stroke-width="0.9957" stroke-linecap="round" stroke-miterlimit="10" points="
						168.946,176.663 168.411,177.021 161.138,181.893 160.672,182.204 					"/>
					
						<line fill="none" stroke="#333333" stroke-width="0.9957" stroke-linecap="round" stroke-miterlimit="10" x1="159.373" y1="183.074" x2="159.431" y2="183.035"/>
				</g>
			</g>
		</g>
		<g>
			
				<path fill="#A1C453" stroke="#333333" stroke-width="1.4936" stroke-linecap="round" stroke-linejoin="round" stroke-miterlimit="10" d="
				M189.174,152.018c-0.611,2.32-2.222,3.148,0.219,7.559c2.441,4.41,4.381,0.752,5.986,3.654c-1.605-2.902,2.522-2.815,0.173-7.063
				C193.201,151.92,191.393,152.922,189.174,152.018z"/>
			<g>
				<line fill="none" x1="195.379" y1="163.23" x2="190.57" y2="154.541"/>
				<g>
					<polyline fill="none" stroke="#333333" stroke-width="0.9957" stroke-linecap="round" stroke-miterlimit="10" points="
						195.138,162.795 194.825,162.23 191.84,156.835 191.568,156.345 					"/>
					
						<line fill="none" stroke="#333333" stroke-width="0.9957" stroke-linecap="round" stroke-miterlimit="10" x1="190.812" y1="154.977" x2="190.846" y2="155.038"/>
				</g>
			</g>
		</g>
		<g>
			
				<path fill="#A1C453" stroke="#333333" stroke-width="1.4936" stroke-linecap="round" stroke-linejoin="round" stroke-miterlimit="10" d="
				M199.182,151.145c-2.071,1.208-3.793,0.654-5.187,5.5c-1.394,4.844,2.563,3.629,1.647,6.816c0.916-3.188,3.775-0.207,5.116-4.871
				C202.101,153.925,200.114,153.353,199.182,151.145z"/>
			<g>
				<line fill="none" x1="195.644" y1="163.461" x2="198.388" y2="153.916"/>
				<g>
					<polyline fill="none" stroke="#333333" stroke-width="0.9957" stroke-linecap="round" stroke-miterlimit="10" points="
						195.781,162.982 195.959,162.362 197.663,156.436 197.818,155.897 					"/>
					
						<line fill="none" stroke="#333333" stroke-width="0.9957" stroke-linecap="round" stroke-miterlimit="10" x1="198.25" y1="154.395" x2="198.23" y2="154.462"/>
				</g>
			</g>
		</g>
		<g>
			
				<path fill="#A1C453" stroke="#333333" stroke-width="0.9957" stroke-linecap="round" stroke-linejoin="round" stroke-miterlimit="10" d="
				M161.331,147.219c1.461,0.477,2.465-0.104,3.993,2.738c1.524,2.844-1.113,2.619-0.109,4.49c-1.004-1.871-2.391,0.381-3.861-2.356
				C159.883,149.353,161.049,148.727,161.331,147.219z"/>
			<g>
				<line fill="none" x1="165.215" y1="154.447" x2="162.205" y2="148.847"/>
				<g>
					<polyline fill="none" stroke="#333333" stroke-width="0.9957" stroke-linecap="round" stroke-miterlimit="10" points="
						164.979,154.009 164.674,153.44 163.446,151.156 163.181,150.662 					"/>
					
						<line fill="none" stroke="#333333" stroke-width="0.9957" stroke-linecap="round" stroke-miterlimit="10" x1="162.44" y1="149.285" x2="162.474" y2="149.347"/>
				</g>
			</g>
		</g>
		<path fill="#CC924C" stroke="#333333" stroke-width="2.6551" stroke-linecap="round" stroke-miterlimit="10" d="M218.918,178
			l-56.243-23.439c-0.956-0.408-2.063,0.038-2.472,0.994l0,0c-0.407,0.957,0.037,2.063,0.993,2.471l55.853,24.355"/>
		<g>
			
				<path fill="#A1C453" stroke="#333333" stroke-width="0.9957" stroke-linecap="round" stroke-linejoin="round" stroke-miterlimit="10" d="
				M159.496,156.832c0,0-2.06-2.088-2.354-2.607c-0.24-0.414,2.836,0.195,3.9,0.613L159.496,156.832z"/>
			
				<path fill="#A1C453" stroke="#333333" stroke-width="0.9957" stroke-linecap="round" stroke-linejoin="round" stroke-miterlimit="10" d="
				M160.187,154.61l1.906,4.087c0,0-4.344-1.125-5.311-2.736C156.782,155.961,158.879,155.38,160.187,154.61z"/>
			
				<path fill="#A1C453" stroke="#333333" stroke-width="0.9957" stroke-linecap="round" stroke-linejoin="round" stroke-miterlimit="10" d="
				M165.338,156.172c0,0-3.839-4.038-7.105-3.609l2.019,3.818L165.338,156.172z"/>
		</g>
		<g>
			
				<path fill="#FFFFFF" stroke="#333333" stroke-width="0.9957" stroke-linecap="round" stroke-linejoin="round" stroke-miterlimit="10" d="
				M169.828,177.278c0.055,0.442,0.868,0.798,1.506,0.997c1.147,0.357,2.93-0.176,2.762-1.566c-0.17-1.399-2.027-1.5-3.059-0.882
				C170.466,176.172,169.775,176.833,169.828,177.278z"/>
			
				<path fill="#FFFFFF" stroke="#333333" stroke-width="0.9957" stroke-linecap="round" stroke-linejoin="round" stroke-miterlimit="10" d="
				M169.73,177.344c-0.41-0.177-1.124,0.35-1.615,0.803c-0.886,0.816-1.313,2.625-0.023,3.176c1.295,0.552,2.313-1.007,2.292-2.209
				C170.371,178.445,170.143,177.518,169.73,177.344z"/>
			
				<path fill="#FFFFFF" stroke="#333333" stroke-width="0.9957" stroke-linecap="round" stroke-linejoin="round" stroke-miterlimit="10" d="
				M169.723,177.23c0.356-0.268,0.258-1.149,0.11-1.801c-0.265-1.174-1.617-2.449-2.737-1.607c-1.126,0.845-0.283,2.504,0.766,3.087
				C168.446,177.232,169.364,177.501,169.723,177.23z"/>
			
				<path fill="#FFFFFF" stroke="#333333" stroke-width="0.9957" stroke-linecap="round" stroke-linejoin="round" stroke-miterlimit="10" d="
				M169.85,177.154c0.41,0.174,1.125-0.354,1.615-0.807c0.885-0.813,1.313-2.623,0.022-3.174c-1.294-0.552-2.313,1.008-2.291,2.207
				C169.211,176.049,169.436,176.979,169.85,177.154z"/>
			
				<path fill="#FFFFFF" stroke="#333333" stroke-width="0.9957" stroke-linecap="round" stroke-linejoin="round" stroke-miterlimit="10" d="
				M169.852,177.27c-0.354,0.266-0.256,1.149-0.108,1.801c0.263,1.175,1.615,2.449,2.735,1.609c1.127-0.848,0.285-2.506-0.766-3.088
				C171.129,177.269,170.211,177,169.852,177.27z"/>
			
				<path fill="#FFFFFF" stroke="#333333" stroke-width="0.9957" stroke-linecap="round" stroke-linejoin="round" stroke-miterlimit="10" d="
				M169.748,177.201c-0.056-0.442-0.867-0.798-1.506-0.997c-1.148-0.358-2.931,0.176-2.763,1.567c0.17,1.396,2.027,1.498,3.06,0.879
				C169.111,178.307,169.801,177.646,169.748,177.201z"/>
			
				<circle fill="#F9D53E" stroke="#333333" stroke-width="0.9957" stroke-linecap="round" stroke-linejoin="round" stroke-miterlimit="10" cx="169.85" cy="177.154" r="0.926"/>
		</g>
	</g>
</g>
<g id="calque06">
	<g>
		
			<polygon fill="#CC924C" stroke="#333333" stroke-width="0.7966" stroke-linecap="round" stroke-linejoin="round" stroke-miterlimit="10" points="
			163.981,146.896 168.078,156.865 165.493,155.764 		"/>
		
			<polygon fill="#CC924C" stroke="#333333" stroke-width="0.9957" stroke-linecap="round" stroke-linejoin="round" stroke-miterlimit="10" points="
			168.928,176.361 187.342,169.174 184.758,168.071 		"/>
		
			<polygon fill="#CC924C" stroke="#333333" stroke-width="0.9957" stroke-linecap="round" stroke-linejoin="round" stroke-miterlimit="10" points="
			195.283,162.727 198.465,169.385 196.796,168.675 		"/>
		<g>
			
				<path fill="#A1C453" stroke="#333333" stroke-width="1.4936" stroke-linecap="round" stroke-linejoin="round" stroke-miterlimit="10" d="
				M189.598,184.493c0.178-2.673-1.229-4.123,2.922-7.925c4.156-3.8,4.906,0.764,7.642-1.736c-2.734,2.5,1.67,3.879-2.332,7.54
				C193.827,186.031,192.269,184.328,189.598,184.493z"/>
			<g>
				<line fill="none" x1="200.16" y1="174.832" x2="191.975" y2="182.32"/>
				<g>
					<polyline fill="none" stroke="#333333" stroke-width="0.9957" stroke-linecap="round" stroke-miterlimit="10" points="
						199.793,175.168 199.316,175.604 193.909,180.551 193.496,180.929 					"/>
					
						<line fill="none" stroke="#333333" stroke-width="0.9957" stroke-linecap="round" stroke-miterlimit="10" x1="192.342" y1="181.984" x2="192.394" y2="181.938"/>
				</g>
			</g>
		</g>
		<g>
			
				<path fill="#A1C453" stroke="#333333" stroke-width="1.4936" stroke-linecap="round" stroke-linejoin="round" stroke-miterlimit="10" d="
				M153.135,173.021c2.551-1.627,2.925-3.877,9.158-2.645c6.232,1.233,2.588,4.969,6.688,5.779
				c-4.102-0.811-2.409,4.113-8.411,2.926C154.567,177.895,155.072,175.34,153.135,173.021z"/>
			<g>
				<line fill="none" x1="168.982" y1="176.156" x2="156.701" y2="173.729"/>
				<g>
					<polyline fill="none" stroke="#333333" stroke-width="0.9957" stroke-linecap="round" stroke-miterlimit="10" points="
						168.494,176.06 167.861,175.935 159.273,174.237 158.724,174.128 					"/>
					
						<line fill="none" stroke="#333333" stroke-width="0.9957" stroke-linecap="round" stroke-miterlimit="10" x1="157.189" y1="173.825" x2="157.258" y2="173.839"/>
				</g>
			</g>
		</g>
		<g>
			
				<path fill="#A1C453" stroke="#333333" stroke-width="1.4936" stroke-linecap="round" stroke-linejoin="round" stroke-miterlimit="10" d="
				M155.938,185.375c0.651-2.953-0.675-4.809,4.604-8.346c5.278-3.535,5.344,1.684,8.816-0.644
				c-3.474,2.327,1.206,4.611-3.879,8.017C160.396,187.809,158.946,185.643,155.938,185.375z"/>
			<g>
				<line fill="none" x1="169.36" y1="176.386" x2="158.959" y2="183.352"/>
				<g>
					<polyline fill="none" stroke="#333333" stroke-width="0.9957" stroke-linecap="round" stroke-miterlimit="10" points="
						168.946,176.663 168.411,177.021 161.138,181.893 160.672,182.204 					"/>
					
						<line fill="none" stroke="#333333" stroke-width="0.9957" stroke-linecap="round" stroke-miterlimit="10" x1="159.373" y1="183.074" x2="159.431" y2="183.035"/>
				</g>
			</g>
		</g>
		<g>
			
				<path fill="#A1C453" stroke="#333333" stroke-width="1.4936" stroke-linecap="round" stroke-linejoin="round" stroke-miterlimit="10" d="
				M189.174,152.018c-0.611,2.322-2.222,3.148,0.219,7.559c2.44,4.411,4.381,0.752,5.986,3.654
				c-1.605-2.902,2.522-2.814,0.173-7.063S191.393,152.922,189.174,152.018z"/>
			<g>
				<line fill="none" x1="195.379" y1="163.23" x2="190.57" y2="154.543"/>
				<g>
					<polyline fill="none" stroke="#333333" stroke-width="0.9957" stroke-linecap="round" stroke-miterlimit="10" points="
						195.138,162.795 194.825,162.23 191.84,156.837 191.568,156.347 					"/>
					
						<line fill="none" stroke="#333333" stroke-width="0.9957" stroke-linecap="round" stroke-miterlimit="10" x1="190.812" y1="154.979" x2="190.846" y2="155.04"/>
				</g>
			</g>
		</g>
		<g>
			
				<path fill="#A1C453" stroke="#333333" stroke-width="1.4936" stroke-linecap="round" stroke-linejoin="round" stroke-miterlimit="10" d="
				M199.182,151.145c-2.071,1.208-3.795,0.656-5.187,5.5c-1.394,4.844,2.563,3.629,1.647,6.816c0.916-3.188,3.775-0.207,5.116-4.871
				C202.101,153.925,200.114,153.353,199.182,151.145z"/>
			<g>
				<line fill="none" x1="195.644" y1="163.461" x2="198.387" y2="153.917"/>
				<g>
					<polyline fill="none" stroke="#333333" stroke-width="0.9957" stroke-linecap="round" stroke-miterlimit="10" points="
						195.781,162.982 195.959,162.362 197.662,156.437 197.817,155.898 					"/>
					
						<line fill="none" stroke="#333333" stroke-width="0.9957" stroke-linecap="round" stroke-miterlimit="10" x1="198.249" y1="154.396" x2="198.229" y2="154.463"/>
				</g>
			</g>
		</g>
		<g>
			
				<path fill="#A1C453" stroke="#333333" stroke-width="1.4936" stroke-linecap="round" stroke-linejoin="round" stroke-miterlimit="10" d="
				M156.333,132.666c2.876,0.937,4.853-0.205,7.859,5.391c3.011,5.598-2.19,5.156-0.212,8.84c-1.979-3.684-4.706,0.752-7.603-4.637
				C153.482,136.867,155.775,135.635,156.333,132.666z"/>
			<g>
				<line fill="none" x1="163.981" y1="146.896" x2="158.056" y2="135.868"/>
				<g>
					<polyline fill="none" stroke="#333333" stroke-width="0.9957" stroke-linecap="round" stroke-miterlimit="10" points="
						163.746,146.458 163.44,145.89 159.297,138.178 159.031,137.684 					"/>
					
						<line fill="none" stroke="#333333" stroke-width="0.9957" stroke-linecap="round" stroke-miterlimit="10" x1="158.291" y1="136.307" x2="158.324" y2="136.368"/>
				</g>
			</g>
		</g>
		<g>
			
				<path fill="#A1C453" stroke="#333333" stroke-width="0.9957" stroke-linecap="round" stroke-linejoin="round" stroke-miterlimit="10" d="
				M171.473,142.51c-0.357,1.568,0.338,2.559-2.479,4.416c-2.82,1.855-2.832-0.916-4.688,0.307c1.855-1.223-0.621-2.456,2.094-4.244
				C169.115,141.199,169.875,142.355,171.473,142.51z"/>
			<g>
				<line fill="none" x1="164.305" y1="147.232" x2="169.859" y2="143.574"/>
				<g>
					<polyline fill="none" stroke="#333333" stroke-width="0.9957" stroke-linecap="round" stroke-miterlimit="10" points="
						164.721,146.959 165.259,146.604 167.67,145.017 168.138,144.708 					"/>
					
						<line fill="none" stroke="#333333" stroke-width="0.9957" stroke-linecap="round" stroke-miterlimit="10" x1="169.443" y1="143.848" x2="169.385" y2="143.887"/>
				</g>
			</g>
		</g>
		<g>
			<g>
				<path fill="#D3F46C" d="M173.531,173.793c2.483,0.679,4.508,4.243,3.269,5.729c0.383,2.117-3.242,3.945-5.726,3.266
					c-2.483-0.678-4.604-2.565-2.665-5.723C168.327,173.532,171.048,173.115,173.531,173.793z"/>
				<g>
					<path fill="none" stroke="#333333" stroke-width="0.9957" stroke-linecap="round" stroke-miterlimit="10" d="M174.001,173.958
						c0.188,0.103,0.394,0.175,0.568,0.302c0.982,0.6,1.736,1.53,2.229,2.562c0.235,0.521,0.393,1.09,0.372,1.666
						c-0.025,0.284-0.082,0.572-0.232,0.819c-0.258,0.219-0.035,0.543-0.146,0.816c-0.23,1.161-1.313,1.897-2.332,2.34
						c-1.057,0.435-2.25,0.606-3.369,0.328c-1.094-0.306-2.189-0.833-2.883-1.763c-0.724-0.932-0.667-2.242-0.168-3.263
						c0.098-0.269,0.3-0.498,0.37-0.77c0.01-0.287,0.003-0.574,0.057-0.857c0.081-0.564,0.268-1.13,0.633-1.577
						c0.359-0.45,0.881-0.751,1.435-0.896c0.135-0.034,0.286-0.076,0.41-0.086l0.184-0.025c0.121-0.022,0.245-0.017,0.368-0.024"/>
					
						<line fill="none" stroke="#333333" stroke-width="0.9957" stroke-linecap="round" stroke-miterlimit="10" x1="173.047" y1="173.676" x2="172.979" y2="173.664"/>
				</g>
			</g>
			
				<ellipse transform="matrix(-0.6369 -0.7709 0.7709 -0.6369 139.1089 426.4798)" opacity="0.5" fill="#FFFFFF" enable-background="new    " cx="169.979" cy="180.483" rx="1.068" ry="0.878"/>
		</g>
		<path fill="#CC924C" stroke="#333333" stroke-width="2.6551" stroke-linecap="round" stroke-miterlimit="10" d="M218.918,178
			l-63.648-26.598c-0.957-0.407-2.063,0.039-2.472,0.996l0,0c-0.407,0.956,0.037,2.062,0.995,2.469l63.256,27.514"/>
		<g>
			
				<path fill="#A1C453" stroke="#333333" stroke-width="0.9957" stroke-linecap="round" stroke-linejoin="round" stroke-miterlimit="10" d="
				M152.09,153.675c0,0-2.058-2.089-2.354-2.608c-0.239-0.413,2.838,0.195,3.899,0.615L152.09,153.675z"/>
			
				<path fill="#A1C453" stroke="#333333" stroke-width="0.9957" stroke-linecap="round" stroke-linejoin="round" stroke-miterlimit="10" d="
				M152.781,151.452l1.906,4.087c0,0-4.344-1.125-5.311-2.734C149.377,152.805,151.474,152.223,152.781,151.452z"/>
			
				<path fill="#A1C453" stroke="#333333" stroke-width="0.9957" stroke-linecap="round" stroke-linejoin="round" stroke-miterlimit="10" d="
				M157.932,153.015c0,0-3.838-4.038-7.104-3.61l2.02,3.818L157.932,153.015z"/>
		</g>
		<g>
			
				<path fill="#FFFFFF" stroke="#333333" stroke-width="0.9957" stroke-linecap="round" stroke-linejoin="round" stroke-miterlimit="10" d="
				M165.535,147.199c0.053,0.443,0.865,0.799,1.504,0.997c1.147,0.359,2.93-0.177,2.762-1.566c-0.171-1.397-2.027-1.5-3.059-0.882
				C166.17,146.094,165.48,146.754,165.535,147.199z"/>
			
				<path fill="#FFFFFF" stroke="#333333" stroke-width="0.9957" stroke-linecap="round" stroke-linejoin="round" stroke-miterlimit="10" d="
				M165.436,147.264c-0.41-0.175-1.125,0.352-1.615,0.805c-0.887,0.816-1.313,2.625-0.023,3.176
				c1.295,0.551,2.312-1.008,2.291-2.208C166.074,148.369,165.848,147.439,165.436,147.264z"/>
			
				<path fill="#FFFFFF" stroke="#333333" stroke-width="0.9957" stroke-linecap="round" stroke-linejoin="round" stroke-miterlimit="10" d="
				M165.428,147.152c0.356-0.266,0.257-1.149,0.109-1.801c-0.265-1.174-1.617-2.449-2.737-1.609
				c-1.124,0.848-0.284,2.507,0.769,3.088C164.15,147.154,165.068,147.424,165.428,147.152z"/>
			
				<path fill="#FFFFFF" stroke="#333333" stroke-width="0.9957" stroke-linecap="round" stroke-linejoin="round" stroke-miterlimit="10" d="
				M165.555,147.075c0.41,0.175,1.124-0.351,1.615-0.805c0.886-0.815,1.313-2.624,0.022-3.175c-1.295-0.552-2.313,1.006-2.291,2.207
				C164.914,145.973,165.141,146.899,165.555,147.075z"/>
			
				<path fill="#FFFFFF" stroke="#333333" stroke-width="0.9957" stroke-linecap="round" stroke-linejoin="round" stroke-miterlimit="10" d="
				M165.557,147.191c-0.354,0.268-0.258,1.15-0.11,1.801c0.264,1.175,1.616,2.449,2.737,1.608c1.126-0.847,0.284-2.505-0.766-3.088
				C166.832,147.189,165.916,146.92,165.557,147.191z"/>
			
				<path fill="#FFFFFF" stroke="#333333" stroke-width="0.9957" stroke-linecap="round" stroke-linejoin="round" stroke-miterlimit="10" d="
				M165.452,147.122c-0.055-0.44-0.868-0.798-1.506-0.997c-1.149-0.357-2.93,0.178-2.761,1.566c0.169,1.4,2.026,1.5,3.058,0.881
				C164.816,148.229,165.506,147.567,165.452,147.122z"/>
			
				<circle fill="#F9D53E" stroke="#333333" stroke-width="0.9957" stroke-linecap="round" stroke-linejoin="round" stroke-miterlimit="10" cx="165.555" cy="147.075" r="0.927"/>
		</g>
	</g>
</g>
<g id="calque07">
	<g>
		
			<polygon fill="#CC924C" stroke="#333333" stroke-width="0.7966" stroke-linecap="round" stroke-linejoin="round" stroke-miterlimit="10" points="
			163.982,146.895 168.078,156.865 165.493,155.764 		"/>
		
			<polygon fill="#CC924C" stroke="#333333" stroke-width="0.9957" stroke-linecap="round" stroke-linejoin="round" stroke-miterlimit="10" points="
			168.928,176.361 187.342,169.174 184.758,168.071 		"/>
		
			<polygon fill="#CC924C" stroke="#333333" stroke-width="0.9957" stroke-linecap="round" stroke-linejoin="round" stroke-miterlimit="10" points="
			195.283,162.727 198.465,169.385 196.796,168.675 		"/>
		<g>
			
				<path fill="#A1C453" stroke="#333333" stroke-width="1.4936" stroke-linecap="round" stroke-linejoin="round" stroke-miterlimit="10" d="
				M189.598,184.493c0.178-2.673-1.229-4.123,2.922-7.925c4.156-3.8,4.906,0.764,7.642-1.736c-2.734,2.5,1.67,3.879-2.332,7.54
				C193.827,186.031,192.269,184.328,189.598,184.493z"/>
			<g>
				<line fill="none" x1="200.16" y1="174.832" x2="191.975" y2="182.32"/>
				<g>
					<polyline fill="none" stroke="#333333" stroke-width="0.9957" stroke-linecap="round" stroke-miterlimit="10" points="
						199.793,175.168 199.316,175.604 193.909,180.551 193.496,180.929 					"/>
					
						<line fill="none" stroke="#333333" stroke-width="0.9957" stroke-linecap="round" stroke-miterlimit="10" x1="192.342" y1="181.984" x2="192.394" y2="181.938"/>
				</g>
			</g>
		</g>
		<g>
			
				<path fill="#A1C453" stroke="#333333" stroke-width="0.9957" stroke-linecap="round" stroke-linejoin="round" stroke-miterlimit="10" d="
				M146.031,158.023c1.412,0.78,1.688,1.965,4.962,1.098c3.276-0.865,1.211-2.729,3.366-3.299c-2.155,0.57-1.42-2.109-4.573-1.275
				C146.628,155.382,146.984,156.725,146.031,158.023z"/>
			<g>
				<line fill="none" x1="154.359" y1="155.822" x2="147.906" y2="157.527"/>
				<g>
					<polyline fill="none" stroke="#333333" stroke-width="0.9957" stroke-linecap="round" stroke-miterlimit="10" points="
						153.878,155.949 153.254,156.114 150.441,156.857 149.899,157.001 					"/>
					
						<line fill="none" stroke="#333333" stroke-width="0.9957" stroke-linecap="round" stroke-miterlimit="10" x1="148.388" y1="157.4" x2="148.455" y2="157.383"/>
				</g>
			</g>
		</g>
		<g>
			
				<path fill="#A1C453" stroke="#333333" stroke-width="1.4936" stroke-linecap="round" stroke-linejoin="round" stroke-miterlimit="10" d="
				M153.135,173.021c2.551-1.627,2.925-3.877,9.158-2.645c6.232,1.233,2.588,4.969,6.688,5.779
				c-4.102-0.811-2.409,4.113-8.411,2.926C154.567,177.895,155.072,175.338,153.135,173.021z"/>
			<g>
				<line fill="none" x1="168.982" y1="176.156" x2="156.701" y2="173.729"/>
				<g>
					<polyline fill="none" stroke="#333333" stroke-width="0.9957" stroke-linecap="round" stroke-miterlimit="10" points="
						168.494,176.06 167.861,175.935 159.273,174.237 158.724,174.128 					"/>
					
						<line fill="none" stroke="#333333" stroke-width="0.9957" stroke-linecap="round" stroke-miterlimit="10" x1="157.189" y1="173.825" x2="157.258" y2="173.839"/>
				</g>
			</g>
		</g>
		<g>
			
				<path fill="#A1C453" stroke="#333333" stroke-width="1.4936" stroke-linecap="round" stroke-linejoin="round" stroke-miterlimit="10" d="
				M155.938,185.375c0.651-2.953-0.675-4.809,4.604-8.346c5.278-3.535,5.344,1.684,8.816-0.644
				c-3.474,2.327,1.206,4.611-3.879,8.017C160.396,187.809,158.946,185.643,155.938,185.375z"/>
			<g>
				<line fill="none" x1="169.36" y1="176.386" x2="158.959" y2="183.352"/>
				<g>
					<polyline fill="none" stroke="#333333" stroke-width="0.9957" stroke-linecap="round" stroke-miterlimit="10" points="
						168.946,176.663 168.411,177.021 161.138,181.893 160.672,182.204 					"/>
					
						<line fill="none" stroke="#333333" stroke-width="0.9957" stroke-linecap="round" stroke-miterlimit="10" x1="159.373" y1="183.074" x2="159.431" y2="183.035"/>
				</g>
			</g>
		</g>
		<g>
			
				<path fill="#A1C453" stroke="#333333" stroke-width="1.4936" stroke-linecap="round" stroke-linejoin="round" stroke-miterlimit="10" d="
				M189.174,152.018c-0.611,2.322-2.222,3.148,0.219,7.559c2.44,4.411,4.381,0.752,5.986,3.654
				c-1.605-2.902,2.522-2.814,0.173-7.063S191.393,152.922,189.174,152.018z"/>
			<g>
				<line fill="none" x1="195.379" y1="163.23" x2="190.57" y2="154.543"/>
				<g>
					<polyline fill="none" stroke="#333333" stroke-width="0.9957" stroke-linecap="round" stroke-miterlimit="10" points="
						195.138,162.795 194.825,162.23 191.84,156.837 191.568,156.347 					"/>
					
						<line fill="none" stroke="#333333" stroke-width="0.9957" stroke-linecap="round" stroke-miterlimit="10" x1="190.812" y1="154.979" x2="190.846" y2="155.04"/>
				</g>
			</g>
		</g>
		<g>
			
				<path fill="#A1C453" stroke="#333333" stroke-width="1.4936" stroke-linecap="round" stroke-linejoin="round" stroke-miterlimit="10" d="
				M199.182,151.145c-2.071,1.208-3.795,0.656-5.187,5.5c-1.394,4.844,2.563,3.629,1.647,6.816c0.916-3.188,3.775-0.207,5.116-4.871
				C202.101,153.925,200.114,153.353,199.182,151.145z"/>
			<g>
				<line fill="none" x1="195.644" y1="163.461" x2="198.387" y2="153.917"/>
				<g>
					<polyline fill="none" stroke="#333333" stroke-width="0.9957" stroke-linecap="round" stroke-miterlimit="10" points="
						195.781,162.982 195.959,162.362 197.662,156.437 197.817,155.898 					"/>
					
						<line fill="none" stroke="#333333" stroke-width="0.9957" stroke-linecap="round" stroke-miterlimit="10" x1="198.249" y1="154.396" x2="198.229" y2="154.463"/>
				</g>
			</g>
		</g>
		<g>
			
				<path fill="#A1C453" stroke="#333333" stroke-width="0.9957" stroke-linecap="round" stroke-linejoin="round" stroke-miterlimit="10" d="
				M166.854,137.926c0.746,1.465,1.945,1.785,0.95,5.092c-0.996,3.311-2.825,1.141-3.479,3.318c0.653-2.178-2.101-1.52-1.144-4.705
				C164.143,138.442,165.498,138.85,166.854,137.926z"/>
			<g>
				<line fill="none" x1="164.324" y1="146.336" x2="166.285" y2="139.816"/>
				<g>
					<polyline fill="none" stroke="#333333" stroke-width="0.9957" stroke-linecap="round" stroke-miterlimit="10" points="
						164.468,145.859 164.653,145.241 165.53,142.327 165.691,141.791 					"/>
					
						<line fill="none" stroke="#333333" stroke-width="0.9957" stroke-linecap="round" stroke-miterlimit="10" x1="166.142" y1="140.293" x2="166.121" y2="140.36"/>
				</g>
			</g>
		</g>
		<g>
			
				<path fill="#A1C453" stroke="#333333" stroke-width="1.4936" stroke-linecap="round" stroke-linejoin="round" stroke-miterlimit="10" d="
				M156.333,132.666c2.876,0.937,4.853-0.205,7.859,5.391c3.011,5.598-2.19,5.156-0.211,8.838c-1.979-3.682-4.707,0.754-7.604-4.635
				C153.482,136.867,155.775,135.635,156.333,132.666z"/>
			<g>
				<line fill="none" x1="163.982" y1="146.895" x2="158.056" y2="135.868"/>
				<g>
					<polyline fill="none" stroke="#333333" stroke-width="0.9957" stroke-linecap="round" stroke-miterlimit="10" points="
						163.747,146.456 163.441,145.888 159.297,138.178 159.031,137.684 					"/>
					
						<line fill="none" stroke="#333333" stroke-width="0.9957" stroke-linecap="round" stroke-miterlimit="10" x1="158.291" y1="136.307" x2="158.324" y2="136.368"/>
				</g>
			</g>
		</g>
		<g>
			
				<path fill="#A1C453" stroke="#333333" stroke-width="1.4936" stroke-linecap="round" stroke-linejoin="round" stroke-miterlimit="10" d="
				M174.992,140.105c-0.53,2.314,0.5,3.781-3.668,6.526c-4.171,2.747-4.188-1.354-6.933,0.453c2.744-1.808-0.918-3.63,3.099-6.274
				C171.506,138.165,172.631,139.875,174.992,140.105z"/>
			<g>
				<line fill="none" x1="164.393" y1="147.085" x2="172.607" y2="141.676"/>
				<g>
					<polyline fill="none" stroke="#333333" stroke-width="0.9957" stroke-linecap="round" stroke-miterlimit="10" points="
						164.809,146.812 165.348,146.456 170.418,143.117 170.886,142.81 					"/>
					
						<line fill="none" stroke="#333333" stroke-width="0.9957" stroke-linecap="round" stroke-miterlimit="10" x1="172.191" y1="141.949" x2="172.133" y2="141.988"/>
				</g>
			</g>
		</g>
		<g>
			<g>
				<path fill="#D3F46C" d="M175.909,173.012c3.369,0.924,6.113,5.754,4.435,7.768c0.517,2.873-4.397,5.353-7.766,4.432
					c-3.369-0.922-6.247-3.482-3.615-7.763C168.854,172.656,172.542,172.093,175.909,173.012z"/>
				<g>
					<path fill="none" stroke="#333333" stroke-width="1.4936" stroke-linecap="round" stroke-miterlimit="10" d="M176.61,173.268
						c0.29,0.142,0.582,0.279,0.847,0.466c1.285,0.838,2.292,2.077,2.92,3.472c0.305,0.698,0.518,1.46,0.465,2.229
						c-0.041,0.378-0.12,0.765-0.331,1.087l-0.155,0.241c-0.018,0.09,0.006,0.189,0.007,0.284c0.027,0.191,0.01,0.382-0.03,0.57
						c-0.134,0.76-0.609,1.415-1.173,1.924c-0.57,0.513-1.238,0.907-1.94,1.211c-1.409,0.576-2.998,0.847-4.497,0.488
						c-1.469-0.384-2.935-1.064-3.915-2.261c-0.481-0.595-0.791-1.332-0.85-2.098c-0.073-0.769,0.118-1.536,0.406-2.24
						c0.132-0.361,0.324-0.693,0.511-1.028c0.132-0.157,0.085-0.363,0.102-0.552c0.011-0.19-0.002-0.384,0.027-0.573
						c0.068-0.762,0.289-1.52,0.707-2.162c0.417-0.644,1.063-1.124,1.784-1.378c0.17-0.079,0.379-0.111,0.54-0.157
						c0.089-0.022,0.178-0.048,0.271-0.057c0.183-0.022,0.364-0.057,0.549-0.068"/>
					
						<line fill="none" stroke="#333333" stroke-width="1.4936" stroke-linecap="round" stroke-miterlimit="10" x1="175.183" y1="172.841" x2="175.079" y2="172.822"/>
				</g>
			</g>
			
				<ellipse transform="matrix(-0.6371 -0.7708 0.7708 -0.6371 139.7483 429.986)" opacity="0.5" fill="#FFFFFF" enable-background="new    " cx="171.093" cy="182.096" rx="1.447" ry="1.19"/>
		</g>
		<path fill="#CC924C" stroke="#333333" stroke-width="2.6551" stroke-linecap="round" stroke-miterlimit="10" d="M218.918,178
			l-70.122-29.357c-0.958-0.407-2.063,0.038-2.472,0.994l0,0c-0.408,0.957,0.036,2.063,0.993,2.471l69.73,30.273"/>
		<g>
			
				<path fill="#A1C453" stroke="#333333" stroke-width="0.9957" stroke-linecap="round" stroke-linejoin="round" stroke-miterlimit="10" d="
				M145.615,150.915c0,0-2.058-2.089-2.353-2.608c-0.24-0.414,2.836,0.195,3.9,0.613L145.615,150.915z"/>
			
				<path fill="#A1C453" stroke="#333333" stroke-width="0.9957" stroke-linecap="round" stroke-linejoin="round" stroke-miterlimit="10" d="
				M146.307,148.692l1.907,4.087c0,0-4.344-1.126-5.313-2.735C142.902,150.044,145,149.461,146.307,148.692z"/>
			
				<path fill="#A1C453" stroke="#333333" stroke-width="0.9957" stroke-linecap="round" stroke-linejoin="round" stroke-miterlimit="10" d="
				M151.459,150.254c0,0-3.84-4.037-7.105-3.609l2.02,3.818L151.459,150.254z"/>
		</g>
		<g>
			<g>
				<path fill="#D3F46C" d="M171.541,144.456c2.155,1.407,2.989,5.419,1.356,6.452c-0.285,2.135-4.293,2.764-6.45,1.359
					c-2.156-1.406-3.599-3.854-0.784-6.264C166.668,142.615,169.383,143.051,171.541,144.456z"/>
				<g>
					<path fill="none" stroke="#333333" stroke-width="0.9957" stroke-linecap="round" stroke-miterlimit="10" d="M171.938,144.757
						c0.148,0.155,0.321,0.288,0.449,0.462c0.751,0.871,1.187,1.988,1.336,3.12c0.065,0.568,0.041,1.158-0.155,1.7
						c-0.111,0.263-0.253,0.52-0.472,0.708c-0.313,0.129-0.198,0.508-0.389,0.733c-0.575,1.035-1.83,1.404-2.938,1.513
						c-1.139,0.091-2.327-0.111-3.308-0.718c-0.947-0.625-1.829-1.463-2.204-2.561c-0.403-1.107,0.052-2.338,0.839-3.157
						c0.176-0.225,0.438-0.382,0.588-0.618c0.099-0.271,0.181-0.547,0.317-0.8c0.249-0.513,0.6-0.993,1.084-1.308
						c0.479-0.319,1.067-0.445,1.64-0.415c0.14,0.009,0.296,0.016,0.417,0.044l0.183,0.031c0.121,0.016,0.237,0.06,0.356,0.089"/>
					
						<line fill="none" stroke="#333333" stroke-width="0.9957" stroke-linecap="round" stroke-miterlimit="10" x1="171.116" y1="144.197" x2="171.055" y2="144.164"/>
				</g>
			</g>
			
				<ellipse transform="matrix(-0.372 -0.9282 0.9282 -0.372 88.9215 359.6436)" opacity="0.5" fill="#FFFFFF" enable-background="new    " cx="166.117" cy="149.742" rx="1.067" ry="0.877"/>
		</g>
	</g>
</g>
<g id="calque08">
	<g>
		
			<polygon fill="#CC924C" stroke="#333333" stroke-width="0.9957" stroke-linecap="round" stroke-linejoin="round" stroke-miterlimit="10" points="
			147.258,158.828 155.949,155.634 153.365,154.531 		"/>
		
			<polygon fill="#CC924C" stroke="#333333" stroke-width="0.7966" stroke-linecap="round" stroke-linejoin="round" stroke-miterlimit="10" points="
			163.981,146.896 168.078,156.865 165.493,155.764 		"/>
		
			<polygon fill="#CC924C" stroke="#333333" stroke-width="0.9957" stroke-linecap="round" stroke-linejoin="round" stroke-miterlimit="10" points="
			168.928,176.361 187.342,169.174 184.758,168.071 		"/>
		
			<polygon fill="#CC924C" stroke="#333333" stroke-width="0.9957" stroke-linecap="round" stroke-linejoin="round" stroke-miterlimit="10" points="
			195.283,162.727 198.465,169.385 196.796,168.675 		"/>
		<g>
			
				<path fill="#A1C453" stroke="#333333" stroke-width="1.4936" stroke-linecap="round" stroke-linejoin="round" stroke-miterlimit="10" d="
				M189.598,184.493c0.178-2.673-1.229-4.123,2.922-7.925c4.156-3.8,4.906,0.764,7.642-1.736c-2.734,2.5,1.67,3.879-2.332,7.54
				C193.827,186.031,192.269,184.328,189.598,184.493z"/>
			<g>
				<line fill="none" x1="200.16" y1="174.832" x2="191.975" y2="182.32"/>
				<g>
					<polyline fill="none" stroke="#333333" stroke-width="0.9957" stroke-linecap="round" stroke-miterlimit="10" points="
						199.793,175.168 199.316,175.604 193.909,180.551 193.496,180.929 					"/>
					
						<line fill="none" stroke="#333333" stroke-width="0.9957" stroke-linecap="round" stroke-miterlimit="10" x1="192.342" y1="181.984" x2="192.394" y2="181.938"/>
				</g>
			</g>
		</g>
		<g>
			
				<path fill="#A1C453" stroke="#333333" stroke-width="1.4936" stroke-linecap="round" stroke-linejoin="round" stroke-miterlimit="10" d="
				M133.418,162.486c2.346,1.297,2.803,3.266,8.246,1.828c5.442-1.439,2.012-4.54,5.594-5.486c-3.582,0.946-2.359-3.503-7.604-2.115
				C134.412,158.097,135.002,160.328,133.418,162.486z"/>
			<g>
				<line fill="none" x1="147.258" y1="158.828" x2="136.533" y2="161.664"/>
				<g>
					<polyline fill="none" stroke="#333333" stroke-width="0.9957" stroke-linecap="round" stroke-miterlimit="10" points="
						146.776,158.955 146.153,159.12 139.068,160.994 138.526,161.137 					"/>
					
						<line fill="none" stroke="#333333" stroke-width="0.9957" stroke-linecap="round" stroke-miterlimit="10" x1="137.015" y1="161.537" x2="137.082" y2="161.519"/>
				</g>
			</g>
		</g>
		<g>
			
				<path fill="#A1C453" stroke="#333333" stroke-width="1.4936" stroke-linecap="round" stroke-linejoin="round" stroke-miterlimit="10" d="
				M153.135,173.021c2.551-1.627,2.925-3.877,9.158-2.645c6.232,1.233,2.588,4.969,6.688,5.779
				c-4.102-0.811-2.409,4.113-8.411,2.926C154.567,177.895,155.072,175.34,153.135,173.021z"/>
			<g>
				<line fill="none" x1="168.982" y1="176.156" x2="156.701" y2="173.729"/>
				<g>
					<polyline fill="none" stroke="#333333" stroke-width="0.9957" stroke-linecap="round" stroke-miterlimit="10" points="
						168.494,176.06 167.861,175.935 159.273,174.237 158.724,174.128 					"/>
					
						<line fill="none" stroke="#333333" stroke-width="0.9957" stroke-linecap="round" stroke-miterlimit="10" x1="157.189" y1="173.825" x2="157.258" y2="173.839"/>
				</g>
			</g>
		</g>
		<g>
			
				<path fill="#A1C453" stroke="#333333" stroke-width="1.4936" stroke-linecap="round" stroke-linejoin="round" stroke-miterlimit="10" d="
				M155.938,185.375c0.652-2.953-0.675-4.809,4.606-8.346c5.276-3.535,5.342,1.684,8.814-0.644
				c-3.474,2.327,1.206,4.611-3.879,8.017C160.396,187.809,158.946,185.643,155.938,185.375z"/>
			<g>
				<line fill="none" x1="169.36" y1="176.386" x2="158.959" y2="183.352"/>
				<g>
					<polyline fill="none" stroke="#333333" stroke-width="0.9957" stroke-linecap="round" stroke-miterlimit="10" points="
						168.946,176.663 168.411,177.021 161.138,181.893 160.672,182.204 					"/>
					
						<line fill="none" stroke="#333333" stroke-width="0.9957" stroke-linecap="round" stroke-miterlimit="10" x1="159.373" y1="183.074" x2="159.431" y2="183.035"/>
				</g>
			</g>
		</g>
		<g>
			
				<path fill="#A1C453" stroke="#333333" stroke-width="1.4936" stroke-linecap="round" stroke-linejoin="round" stroke-miterlimit="10" d="
				M189.174,152.018c-0.611,2.322-2.222,3.148,0.219,7.559c2.441,4.41,4.381,0.752,5.986,3.654
				c-1.605-2.902,2.522-2.814,0.173-7.063C193.201,151.922,191.393,152.922,189.174,152.018z"/>
			<g>
				<line fill="none" x1="195.379" y1="163.23" x2="190.57" y2="154.541"/>
				<g>
					<polyline fill="none" stroke="#333333" stroke-width="0.9957" stroke-linecap="round" stroke-miterlimit="10" points="
						195.138,162.795 194.825,162.23 191.84,156.835 191.568,156.345 					"/>
					
						<line fill="none" stroke="#333333" stroke-width="0.9957" stroke-linecap="round" stroke-miterlimit="10" x1="190.812" y1="154.977" x2="190.846" y2="155.038"/>
				</g>
			</g>
		</g>
		<g>
			
				<path fill="#A1C453" stroke="#333333" stroke-width="1.4936" stroke-linecap="round" stroke-linejoin="round" stroke-miterlimit="10" d="
				M199.182,151.145c-2.071,1.208-3.793,0.654-5.187,5.5c-1.394,4.844,2.563,3.629,1.647,6.816c0.916-3.188,3.775-0.207,5.116-4.871
				C202.101,153.925,200.114,153.353,199.182,151.145z"/>
			<g>
				<line fill="none" x1="195.644" y1="163.461" x2="198.387" y2="153.917"/>
				<g>
					<polyline fill="none" stroke="#333333" stroke-width="0.9957" stroke-linecap="round" stroke-miterlimit="10" points="
						195.781,162.982 195.959,162.362 197.662,156.437 197.817,155.898 					"/>
					
						<line fill="none" stroke="#333333" stroke-width="0.9957" stroke-linecap="round" stroke-miterlimit="10" x1="198.249" y1="154.396" x2="198.229" y2="154.463"/>
				</g>
			</g>
		</g>
		<g>
			
				<path fill="#A1C453" stroke="#333333" stroke-width="1.4936" stroke-linecap="round" stroke-linejoin="round" stroke-miterlimit="10" d="
				M168.9,131.071c1.373,2.695,3.576,3.287,1.746,9.371c-1.832,6.086-5.194,2.095-6.399,6.101c1.205-4.006-3.859-2.797-2.099-8.655
				C163.912,132.025,166.406,132.775,168.9,131.071z"/>
			<g>
				<line fill="none" x1="164.246" y1="146.543" x2="167.854" y2="134.553"/>
				<g>
					<polyline fill="none" stroke="#333333" stroke-width="0.9957" stroke-linecap="round" stroke-miterlimit="10" points="
						164.39,146.066 164.575,145.448 167.098,137.063 167.26,136.526 					"/>
					
						<line fill="none" stroke="#333333" stroke-width="0.9957" stroke-linecap="round" stroke-miterlimit="10" x1="167.71" y1="135.029" x2="167.689" y2="135.097"/>
				</g>
			</g>
		</g>
		<g>
			
				<path fill="#A1C453" stroke="#333333" stroke-width="1.4936" stroke-linecap="round" stroke-linejoin="round" stroke-miterlimit="10" d="
				M156.334,132.664c2.875,0.938,4.852-0.203,7.858,5.393c3.011,5.598-2.19,5.156-0.212,8.84c-1.979-3.684-4.706,0.752-7.603-4.638
				C153.482,136.867,155.775,135.634,156.334,132.664z"/>
			<g>
				<line fill="none" x1="163.981" y1="146.896" x2="158.056" y2="135.868"/>
				<g>
					<polyline fill="none" stroke="#333333" stroke-width="0.9957" stroke-linecap="round" stroke-miterlimit="10" points="
						163.746,146.458 163.44,145.89 159.297,138.178 159.031,137.684 					"/>
					
						<line fill="none" stroke="#333333" stroke-width="0.9957" stroke-linecap="round" stroke-miterlimit="10" x1="158.291" y1="136.307" x2="158.324" y2="136.368"/>
				</g>
			</g>
		</g>
		<g>
			
				<path fill="#A1C453" stroke="#333333" stroke-width="1.4936" stroke-linecap="round" stroke-linejoin="round" stroke-miterlimit="10" d="
				M174.992,140.105c-0.53,2.314,0.5,3.781-3.668,6.526c-4.169,2.745-4.188-1.354-6.933,0.453c2.744-1.808-0.918-3.63,3.099-6.274
				C171.506,138.165,172.631,139.875,174.992,140.105z"/>
			<g>
				<line fill="none" x1="164.393" y1="147.085" x2="172.607" y2="141.676"/>
				<g>
					<polyline fill="none" stroke="#333333" stroke-width="0.9957" stroke-linecap="round" stroke-miterlimit="10" points="
						164.809,146.812 165.348,146.456 170.418,143.117 170.886,142.81 					"/>
					
						<line fill="none" stroke="#333333" stroke-width="0.9957" stroke-linecap="round" stroke-miterlimit="10" x1="172.191" y1="141.949" x2="172.133" y2="141.988"/>
				</g>
			</g>
		</g>
		<g>
			<g>
				<path fill="#EF4529" d="M175.909,173.012c3.369,0.924,6.113,5.754,4.435,7.768c0.517,2.873-4.397,5.353-7.766,4.432
					c-3.369-0.922-6.247-3.482-3.615-7.764C168.854,172.656,172.542,172.093,175.909,173.012z"/>
				<g>
					<path fill="none" stroke="#333333" stroke-width="1.4936" stroke-linecap="round" stroke-miterlimit="10" d="M176.61,173.268
						c0.29,0.142,0.582,0.279,0.847,0.466c1.285,0.838,2.292,2.077,2.92,3.472c0.305,0.698,0.518,1.46,0.465,2.229
						c-0.041,0.378-0.12,0.765-0.331,1.087l-0.155,0.241c-0.018,0.09,0.006,0.189,0.007,0.284c0.027,0.191,0.01,0.382-0.03,0.57
						c-0.134,0.761-0.609,1.415-1.173,1.924c-0.57,0.513-1.238,0.907-1.94,1.211c-1.409,0.576-2.998,0.847-4.497,0.488
						c-1.469-0.384-2.935-1.064-3.915-2.261c-0.481-0.595-0.791-1.332-0.85-2.098c-0.073-0.769,0.118-1.536,0.405-2.24
						c0.133-0.361,0.324-0.693,0.512-1.028c0.131-0.157,0.085-0.363,0.102-0.552c0.011-0.19-0.002-0.384,0.027-0.573
						c0.068-0.762,0.289-1.52,0.707-2.162c0.417-0.645,1.063-1.124,1.784-1.378c0.17-0.079,0.379-0.111,0.54-0.157
						c0.089-0.022,0.178-0.049,0.271-0.057c0.183-0.022,0.364-0.057,0.549-0.068"/>
					
						<line fill="none" stroke="#333333" stroke-width="1.4936" stroke-linecap="round" stroke-miterlimit="10" x1="175.183" y1="172.841" x2="175.079" y2="172.822"/>
				</g>
			</g>
			
				<ellipse transform="matrix(-0.6375 -0.7705 0.7705 -0.6375 139.8895 430.0215)" opacity="0.5" fill="#FFFFFF" enable-background="new    " cx="171.115" cy="182.099" rx="1.446" ry="1.19"/>
		</g>
		<g>
			<g>
				<path fill="#D3F46C" d="M173.991,144.484c2.621,2.307,2.968,7.852,0.572,8.922c-0.797,2.811-6.299,2.879-8.923,0.574
					c-2.622-2.307-4.083-5.871,0.162-8.561C167.807,141.066,171.369,142.179,173.991,144.484z"/>
				<g>
					<path fill="none" stroke="#333333" stroke-width="1.4936" stroke-linecap="round" stroke-miterlimit="10" d="M174.509,145.021
						c0.198,0.255,0.4,0.507,0.556,0.791c0.787,1.316,1.146,2.871,1.1,4.399c-0.033,0.761-0.178,1.539-0.563,2.207
						c-0.204,0.321-0.444,0.634-0.775,0.83l-0.246,0.148c-0.054,0.074-0.077,0.173-0.117,0.259c-0.06,0.185-0.159,0.347-0.278,0.499
						c-0.453,0.625-1.169,1.003-1.897,1.213c-0.737,0.211-1.512,0.271-2.275,0.235c-1.519-0.101-3.063-0.556-4.255-1.535
						c-1.15-0.989-2.169-2.244-2.523-3.75c-0.172-0.746-0.125-1.544,0.159-2.258c0.271-0.722,0.78-1.327,1.351-1.833
						c0.275-0.267,0.596-0.479,0.909-0.699c0.188-0.084,0.235-0.289,0.332-0.451c0.095-0.167,0.167-0.347,0.277-0.503
						c0.396-0.655,0.926-1.239,1.583-1.633c0.658-0.396,1.449-0.543,2.209-0.454c0.188,0.004,0.389,0.066,0.554,0.096
						c0.09,0.02,0.182,0.035,0.269,0.068c0.174,0.06,0.353,0.109,0.522,0.179"/>
					
						<line fill="none" stroke="#333333" stroke-width="1.4936" stroke-linecap="round" stroke-miterlimit="10" x1="173.413" y1="144.012" x2="173.329" y2="143.949"/>
				</g>
			</g>
			
				<ellipse transform="matrix(-0.2347 -0.9721 0.9721 -0.2347 58.2241 346.9114)" opacity="0.5" fill="#FFFFFF" enable-background="new    " cx="165.677" cy="150.535" rx="1.446" ry="1.192"/>
		</g>
		<path fill="#CC924C" stroke="#333333" stroke-width="2.6551" stroke-linecap="round" stroke-miterlimit="10" d="M218.918,178
			l-75.747-31.755c-0.956-0.409-2.063,0.037-2.471,0.995l0,0c-0.407,0.955,0.037,2.061,0.992,2.469l75.355,32.672"/>
		<g>
			
				<path fill="#A1C453" stroke="#333333" stroke-width="0.9957" stroke-linecap="round" stroke-linejoin="round" stroke-miterlimit="10" d="
				M139.992,148.517c0,0-2.06-2.087-2.354-2.606c-0.239-0.415,2.836,0.193,3.9,0.612L139.992,148.517z"/>
			
				<path fill="#A1C453" stroke="#333333" stroke-width="0.9957" stroke-linecap="round" stroke-linejoin="round" stroke-miterlimit="10" d="
				M140.683,146.295l1.907,4.086c0,0-4.344-1.125-5.312-2.736C137.279,147.645,139.377,147.063,140.683,146.295z"/>
			
				<path fill="#A1C453" stroke="#333333" stroke-width="0.9957" stroke-linecap="round" stroke-linejoin="round" stroke-miterlimit="10" d="
				M145.834,147.855c0,0-3.838-4.037-7.105-3.609l2.02,3.818L145.834,147.855z"/>
		</g>
	</g>
</g>
<g id="calque09">
	<g>
		
			<polygon fill="#CC924C" stroke="#333333" stroke-width="0.9957" stroke-linecap="round" stroke-linejoin="round" stroke-miterlimit="10" points="
			147.257,158.832 155.948,155.637 153.363,154.535 		"/>
		
			<polygon fill="#CC924C" stroke="#333333" stroke-width="0.7966" stroke-linecap="round" stroke-linejoin="round" stroke-miterlimit="10" points="
			163.981,146.898 168.076,156.868 165.492,155.766 		"/>
		
			<polygon fill="#CC924C" stroke="#333333" stroke-width="0.9957" stroke-linecap="round" stroke-linejoin="round" stroke-miterlimit="10" points="
			168.928,176.364 187.341,169.176 184.757,168.074 		"/>
		
			<polygon fill="#CC924C" stroke="#333333" stroke-width="0.9957" stroke-linecap="round" stroke-linejoin="round" stroke-miterlimit="10" points="
			195.281,162.729 198.463,169.387 196.796,168.676 		"/>
		<g>
			
				<path fill="#A1C453" stroke="#333333" stroke-width="1.4936" stroke-linecap="round" stroke-linejoin="round" stroke-miterlimit="10" d="
				M189.596,184.496c0.18-2.674-1.229-4.123,2.926-7.925c4.152-3.8,4.903,0.763,7.638-1.737c-2.733,2.5,1.671,3.88-2.331,7.54
				C193.826,186.035,192.268,184.33,189.596,184.496z"/>
			<g>
				<line fill="none" x1="200.158" y1="174.834" x2="191.975" y2="182.321"/>
				<g>
					<polyline fill="none" stroke="#333333" stroke-width="0.9957" stroke-linecap="round" stroke-miterlimit="10" points="
						199.791,175.17 199.314,175.605 193.909,180.552 193.495,180.93 					"/>
					
						<line fill="none" stroke="#333333" stroke-width="0.9957" stroke-linecap="round" stroke-miterlimit="10" x1="192.342" y1="181.985" x2="192.394" y2="181.938"/>
				</g>
			</g>
		</g>
		<g>
			
				<path fill="#A1C453" stroke="#333333" stroke-width="1.4936" stroke-linecap="round" stroke-linejoin="round" stroke-miterlimit="10" d="
				M133.416,162.49c2.346,1.296,2.803,3.265,8.248,1.825c5.442-1.438,2.01-4.538,5.593-5.483c-3.583,0.945-2.36-3.503-7.604-2.117
				C134.41,158.1,135,160.332,133.416,162.49z"/>
			<g>
				<line fill="none" x1="147.257" y1="158.832" x2="136.531" y2="161.666"/>
				<g>
					<polyline fill="none" stroke="#333333" stroke-width="0.9957" stroke-linecap="round" stroke-miterlimit="10" points="
						146.775,158.959 146.151,159.124 139.066,160.996 138.524,161.14 					"/>
					
						<line fill="none" stroke="#333333" stroke-width="0.9957" stroke-linecap="round" stroke-miterlimit="10" x1="137.013" y1="161.539" x2="137.08" y2="161.521"/>
				</g>
			</g>
		</g>
		<g>
			
				<path fill="#A1C453" stroke="#333333" stroke-width="1.4936" stroke-linecap="round" stroke-linejoin="round" stroke-miterlimit="10" d="
				M153.134,173.023c2.55-1.625,2.925-3.877,9.157-2.645c6.233,1.232,2.589,4.969,6.69,5.781c-4.103-0.813-2.41,4.113-8.412,2.924
				C154.566,177.896,155.07,175.342,153.134,173.023z"/>
			<g>
				<line fill="none" x1="168.982" y1="176.16" x2="156.701" y2="173.73"/>
				<g>
					<polyline fill="none" stroke="#333333" stroke-width="0.9957" stroke-linecap="round" stroke-miterlimit="10" points="
						168.494,176.063 167.861,175.938 159.273,174.239 158.724,174.131 					"/>
					
						<line fill="none" stroke="#333333" stroke-width="0.9957" stroke-linecap="round" stroke-miterlimit="10" x1="157.189" y1="173.827" x2="157.258" y2="173.841"/>
				</g>
			</g>
		</g>
		<g>
			
				<path fill="#A1C453" stroke="#333333" stroke-width="1.4936" stroke-linecap="round" stroke-linejoin="round" stroke-miterlimit="10" d="
				M155.938,185.378c0.652-2.954-0.675-4.812,4.604-8.345c5.279-3.535,5.344,1.682,8.816-0.645
				c-3.474,2.326,1.205,4.611-3.879,8.016C160.395,187.811,158.944,185.646,155.938,185.378z"/>
			<g>
				<line fill="none" x1="169.359" y1="176.389" x2="158.957" y2="183.355"/>
				<g>
					<polyline fill="none" stroke="#333333" stroke-width="0.9957" stroke-linecap="round" stroke-miterlimit="10" points="
						168.945,176.666 168.41,177.024 161.136,181.896 160.67,182.208 					"/>
					
						<line fill="none" stroke="#333333" stroke-width="0.9957" stroke-linecap="round" stroke-miterlimit="10" x1="159.371" y1="183.078" x2="159.429" y2="183.039"/>
				</g>
			</g>
		</g>
		<g>
			
				<path fill="#A1C453" stroke="#333333" stroke-width="1.4936" stroke-linecap="round" stroke-linejoin="round" stroke-miterlimit="10" d="
				M189.172,152.021c-0.609,2.32-2.221,3.147,0.22,7.558c2.441,4.411,4.38,0.752,5.985,3.655c-1.605-2.903,2.522-2.815,0.174-7.063
				C193.2,151.923,191.393,152.924,189.172,152.021z"/>
			<g>
				<line fill="none" x1="195.377" y1="163.234" x2="190.569" y2="154.545"/>
				<g>
					<polyline fill="none" stroke="#333333" stroke-width="0.9957" stroke-linecap="round" stroke-miterlimit="10" points="
						195.136,162.799 194.823,162.234 191.839,156.839 191.567,156.349 					"/>
					
						<line fill="none" stroke="#333333" stroke-width="0.9957" stroke-linecap="round" stroke-miterlimit="10" x1="190.811" y1="154.98" x2="190.844" y2="155.042"/>
				</g>
			</g>
		</g>
		<g>
			
				<path fill="#A1C453" stroke="#333333" stroke-width="1.4936" stroke-linecap="round" stroke-linejoin="round" stroke-miterlimit="10" d="
				M199.182,151.147c-2.073,1.21-3.796,0.655-5.188,5.499c-1.394,4.845,2.563,3.63,1.646,6.817c0.917-3.188,3.776-0.206,5.117-4.872
				S200.113,153.355,199.182,151.147z"/>
			<g>
				<line fill="none" x1="195.642" y1="163.464" x2="198.386" y2="153.92"/>
				<g>
					<polyline fill="none" stroke="#333333" stroke-width="0.9957" stroke-linecap="round" stroke-miterlimit="10" points="
						195.779,162.985 195.957,162.365 197.661,156.439 197.816,155.901 					"/>
					
						<line fill="none" stroke="#333333" stroke-width="0.9957" stroke-linecap="round" stroke-miterlimit="10" x1="198.248" y1="154.398" x2="198.229" y2="154.466"/>
				</g>
			</g>
		</g>
		<g>
			
				<path fill="#A1C453" stroke="#333333" stroke-width="1.4936" stroke-linecap="round" stroke-linejoin="round" stroke-miterlimit="10" d="
				M168.898,131.076c1.373,2.693,3.577,3.284,1.747,9.369c-1.831,6.085-5.195,2.095-6.398,6.1c1.203-4.005-3.861-2.796-2.099-8.656
				C163.911,132.027,166.404,132.778,168.898,131.076z"/>
			<g>
				<line fill="none" x1="164.246" y1="146.545" x2="167.852" y2="134.556"/>
				<g>
					<polyline fill="none" stroke="#333333" stroke-width="0.9957" stroke-linecap="round" stroke-miterlimit="10" points="
						164.39,146.068 164.575,145.45 167.097,137.066 167.258,136.529 					"/>
					
						<line fill="none" stroke="#333333" stroke-width="0.9957" stroke-linecap="round" stroke-miterlimit="10" x1="167.708" y1="135.032" x2="167.688" y2="135.1"/>
				</g>
			</g>
		</g>
		<g>
			
				<path fill="#A1C453" stroke="#333333" stroke-width="1.4936" stroke-linecap="round" stroke-linejoin="round" stroke-miterlimit="10" d="
				M156.332,132.668c2.877,0.936,4.854-0.205,7.86,5.393c3.008,5.598-2.192,5.154-0.212,8.838c-1.98-3.684-4.708,0.753-7.604-4.637
				C153.479,136.87,155.775,135.637,156.332,132.668z"/>
			<g>
				<line fill="none" x1="163.981" y1="146.898" x2="158.054" y2="135.871"/>
				<g>
					<polyline fill="none" stroke="#333333" stroke-width="0.9957" stroke-linecap="round" stroke-miterlimit="10" points="
						163.746,146.46 163.44,145.892 159.295,138.181 159.029,137.687 					"/>
					
						<line fill="none" stroke="#333333" stroke-width="0.9957" stroke-linecap="round" stroke-miterlimit="10" x1="158.289" y1="136.31" x2="158.322" y2="136.371"/>
				</g>
			</g>
		</g>
		<g>
			
				<path fill="#A1C453" stroke="#333333" stroke-width="1.4936" stroke-linecap="round" stroke-linejoin="round" stroke-miterlimit="10" d="
				M174.992,140.107c-0.531,2.315,0.5,3.782-3.67,6.527c-4.17,2.746-4.188-1.354-6.931,0.452c2.742-1.807-0.919-3.63,3.096-6.272
				C171.504,138.168,172.629,139.877,174.992,140.107z"/>
			<g>
				<line fill="none" x1="164.393" y1="147.087" x2="172.606" y2="141.678"/>
				<g>
					<polyline fill="none" stroke="#333333" stroke-width="0.9957" stroke-linecap="round" stroke-miterlimit="10" points="
						164.809,146.813 165.347,146.458 170.417,143.12 170.885,142.812 					"/>
					
						<line fill="none" stroke="#333333" stroke-width="0.9957" stroke-linecap="round" stroke-miterlimit="10" x1="172.19" y1="141.951" x2="172.132" y2="141.99"/>
				</g>
			</g>
		</g>
		<g>
			<g>
				<path fill="#EF4529" d="M175.908,173.015c3.369,0.923,6.114,5.755,4.435,7.767c0.517,2.873-4.397,5.354-7.767,4.432
					c-3.368-0.922-6.246-3.48-3.613-7.763C168.852,172.659,172.541,172.095,175.908,173.015z"/>
				<g>
					<path fill="none" stroke="#333333" stroke-width="1.4936" stroke-linecap="round" stroke-miterlimit="10" d="M176.609,173.271
						c0.29,0.142,0.582,0.279,0.847,0.466c1.284,0.838,2.292,2.077,2.92,3.471c0.305,0.698,0.518,1.461,0.466,2.229
						c-0.042,0.379-0.12,0.765-0.332,1.087l-0.155,0.242c-0.018,0.089,0.006,0.189,0.007,0.283c0.027,0.192,0.01,0.382-0.03,0.57
						c-0.134,0.761-0.609,1.415-1.174,1.924c-0.569,0.514-1.237,0.907-1.939,1.211c-1.409,0.576-2.998,0.848-4.497,0.488
						c-1.469-0.384-2.935-1.063-3.915-2.26c-0.482-0.596-0.791-1.333-0.85-2.099c-0.072-0.768,0.119-1.535,0.406-2.239
						c0.133-0.361,0.324-0.693,0.512-1.029c0.131-0.157,0.085-0.362,0.102-0.551c0.01-0.191-0.003-0.385,0.027-0.574
						c0.067-0.762,0.288-1.52,0.706-2.162c0.417-0.644,1.063-1.123,1.784-1.378c0.17-0.079,0.379-0.111,0.539-0.157
						c0.091-0.021,0.179-0.048,0.271-0.057c0.183-0.021,0.364-0.056,0.549-0.068"/>
					
						<line fill="none" stroke="#333333" stroke-width="1.4936" stroke-linecap="round" stroke-miterlimit="10" x1="175.182" y1="172.844" x2="175.078" y2="172.824"/>
				</g>
			</g>
			
				<ellipse transform="matrix(-0.6375 -0.7705 0.7705 -0.6375 139.869 430.0051)" opacity="0.5" fill="#FFFFFF" enable-background="new    " cx="171.095" cy="182.098" rx="1.447" ry="1.19"/>
		</g>
		<g>
			<g>
				<path fill="#EF4529" d="M174.059,144.325c2.623,2.305,2.969,7.851,0.574,8.921c-0.797,2.809-6.301,2.881-8.924,0.574
					c-2.62-2.307-4.082-5.871,0.163-8.561C167.875,140.906,171.438,142.018,174.059,144.325z"/>
				<g>
					<path fill="none" stroke="#333333" stroke-width="1.4936" stroke-linecap="round" stroke-miterlimit="10" d="M174.576,144.862
						c0.198,0.254,0.4,0.506,0.557,0.79c0.787,1.316,1.146,2.872,1.099,4.399c-0.032,0.762-0.177,1.54-0.563,2.207
						c-0.203,0.321-0.444,0.634-0.775,0.83l-0.246,0.148c-0.053,0.075-0.077,0.174-0.117,0.259c-0.06,0.186-0.159,0.347-0.277,0.499
						c-0.454,0.624-1.17,1.003-1.899,1.213c-0.736,0.21-1.511,0.271-2.274,0.236c-1.52-0.101-3.064-0.556-4.254-1.536
						c-1.15-0.989-2.17-2.244-2.523-3.75c-0.171-0.746-0.125-1.544,0.159-2.258c0.271-0.722,0.781-1.327,1.35-1.833
						c0.276-0.267,0.597-0.479,0.91-0.699c0.188-0.084,0.235-0.289,0.332-0.451c0.094-0.167,0.167-0.347,0.277-0.503
						c0.396-0.655,0.926-1.239,1.583-1.633c0.657-0.396,1.447-0.543,2.208-0.454c0.188,0.003,0.39,0.065,0.555,0.096
						c0.09,0.019,0.181,0.035,0.268,0.067c0.175,0.061,0.354,0.109,0.522,0.18"/>
					
						<line fill="none" stroke="#333333" stroke-width="1.4936" stroke-linecap="round" stroke-miterlimit="10" x1="173.481" y1="143.852" x2="173.396" y2="143.789"/>
				</g>
			</g>
			
				<ellipse transform="matrix(-0.2345 -0.9721 0.9721 -0.2345 58.4382 346.7789)" opacity="0.5" fill="#FFFFFF" enable-background="new    " cx="165.755" cy="150.381" rx="1.447" ry="1.19"/>
		</g>
		<path fill="#CC924C" stroke="#333333" stroke-width="2.6551" stroke-linecap="round" stroke-miterlimit="10" d="M218.916,178.004
			l-75.746-31.756c-0.957-0.408-2.063,0.036-2.47,0.994l0,0c-0.408,0.956,0.035,2.062,0.992,2.47l75.355,32.673"/>
		<g>
			
				<path fill="#A1C453" stroke="#333333" stroke-width="0.9957" stroke-linecap="round" stroke-linejoin="round" stroke-miterlimit="10" d="
				M139.991,148.52c0,0-2.059-2.088-2.354-2.606c-0.239-0.417,2.837,0.194,3.901,0.612L139.991,148.52z"/>
			
				<path fill="#A1C453" stroke="#333333" stroke-width="0.9957" stroke-linecap="round" stroke-linejoin="round" stroke-miterlimit="10" d="
				M140.682,146.297l1.906,4.088c0,0-4.344-1.126-5.312-2.735C137.277,147.649,139.375,147.066,140.682,146.297z"/>
			
				<path fill="#A1C453" stroke="#333333" stroke-width="0.9957" stroke-linecap="round" stroke-linejoin="round" stroke-miterlimit="10" d="
				M145.832,147.859c0,0-3.838-4.039-7.104-3.609l2.02,3.816L145.832,147.859z"/>
		</g>
	</g>
</g>
</svg>
