<?xml version="1.0" encoding="utf-8"?>
<!-- Generator: Adobe Illustrator 16.0.0, SVG Export Plug-In . SVG Version: 6.00 Build 0)  -->
<!DOCTYPE svg PUBLIC "-//W3C//DTD SVG 1.1//EN" "http://www.w3.org/Graphics/SVG/1.1/DTD/svg11.dtd">
<svg version="1.1" id="Calque_1" xmlns="http://www.w3.org/2000/svg" xmlns:xlink="http://www.w3.org/1999/xlink" x="0px" y="0px"
	 width="320px" height="410px" viewBox="0 0 320 410" enable-background="new 0 0 320 410" xml:space="preserve">
<g id="calque01">
	<g>
		<path fill="#CC924C" stroke="#333333" stroke-width="2.4893" stroke-linecap="round" stroke-miterlimit="10" d="M88.473,183.148
			l-8.615-1.892c-1.026-0.165-1.725-1.131-1.56-2.158l0,0c0.165-1.026,1.131-1.725,2.158-1.56l8.772,0.908"/>
		<g>
			
				<path fill="#A1C453" stroke="#333333" stroke-width="0.9957" stroke-linecap="round" stroke-linejoin="round" stroke-miterlimit="10" d="
				M78.38,177.64c0,0-2.854,0.669-3.381,0.95c-0.424,0.224,2.503,1.349,3.626,1.563L78.38,177.64z"/>
			
				<path fill="#A1C453" stroke="#333333" stroke-width="0.9957" stroke-linecap="round" stroke-linejoin="round" stroke-miterlimit="10" d="
				M77.778,179.889l3.793-2.441c0,0-4.273-1.364-5.95-0.519C75.62,176.929,77.084,178.54,77.778,179.889z"/>
			
				<path fill="#A1C453" stroke="#333333" stroke-width="0.9957" stroke-linecap="round" stroke-linejoin="round" stroke-miterlimit="10" d="
				M82.969,181.314c0,0-5.4,1.368-7.936-0.737l3.744-2.152L82.969,181.314z"/>
		</g>
	</g>
</g>
<g id="calque02">
	<g>
		<g>
			
				<path fill="#A1C453" stroke="#333333" stroke-width="0.9957" stroke-linecap="round" stroke-linejoin="round" stroke-miterlimit="10" d="
				M65.518,169.837c-0.246,1.206-1.045,1.675,0.33,3.86c1.376,2.186,2.262,0.258,3.167,1.697c-0.905-1.438,1.21-1.513-0.114-3.618
				C67.574,169.671,66.679,170.235,65.518,169.837z"/>
			<g>
				<line fill="none" x1="69.015" y1="175.394" x2="66.305" y2="171.088"/>
				<g>
					<polyline fill="none" stroke="#333333" stroke-width="0.9957" stroke-linecap="round" stroke-miterlimit="10" points="
						68.749,174.973 68.406,174.427 67.701,173.307 67.402,172.833 					"/>
					
						<line fill="none" stroke="#333333" stroke-width="0.9957" stroke-linecap="round" stroke-miterlimit="10" x1="66.57" y1="171.509" x2="66.607" y2="171.568"/>
				</g>
			</g>
		</g>
		<path fill="#CC924C" stroke="#333333" stroke-width="2.4893" stroke-linecap="round" stroke-miterlimit="10" d="M88.473,183.147
			l-26.954-4.843c-1.025-0.165-1.726-1.131-1.56-2.158l0,0c0.165-1.026,1.132-1.725,2.158-1.56l27.111,3.86"/>
		<g>
			
				<path fill="#A1C453" stroke="#333333" stroke-width="0.9957" stroke-linecap="round" stroke-linejoin="round" stroke-miterlimit="10" d="
				M60.042,174.688c0,0-2.854,0.668-3.383,0.949c-0.424,0.224,2.505,1.35,3.628,1.563L60.042,174.688z"/>
			
				<path fill="#A1C453" stroke="#333333" stroke-width="0.9957" stroke-linecap="round" stroke-linejoin="round" stroke-miterlimit="10" d="
				M59.44,176.938l3.792-2.442c0,0-4.273-1.364-5.949-0.519C57.282,173.977,58.746,175.589,59.44,176.938z"/>
			
				<path fill="#A1C453" stroke="#333333" stroke-width="0.9957" stroke-linecap="round" stroke-linejoin="round" stroke-miterlimit="10" d="
				M64.631,178.363c0,0-5.4,1.368-7.938-0.737l3.745-2.152L64.631,178.363z"/>
		</g>
	</g>
</g>
<g id="calque03">
	<g>
		<g>
			
				<path fill="#A1C453" stroke="#333333" stroke-width="1.4936" stroke-linecap="round" stroke-linejoin="round" stroke-miterlimit="10" d="
				M61.795,163.648c-0.535,2.626-2.278,3.649,0.721,8.415c3,4.765,4.934,0.563,6.906,3.699c-1.975-3.136,2.637-3.298-0.252-7.888
				C66.28,163.285,64.326,164.514,61.795,163.648z"/>
			<g>
				<line fill="none" x1="69.422" y1="175.763" x2="63.512" y2="166.375"/>
				<g>
					<polyline fill="none" stroke="#333333" stroke-width="0.9957" stroke-linecap="round" stroke-miterlimit="10" points="
						69.156,175.341 68.813,174.795 64.908,168.593 64.61,168.119 					"/>
					
						<line fill="none" stroke="#333333" stroke-width="0.9957" stroke-linecap="round" stroke-miterlimit="10" x1="63.777" y1="166.796" x2="63.814" y2="166.855"/>
				</g>
			</g>
		</g>
		<g>
			
				<path fill="#A1C453" stroke="#333333" stroke-width="0.9957" stroke-linecap="round" stroke-linejoin="round" stroke-miterlimit="10" d="
				M52.45,181.226c1.166,0.313,1.578,1.124,3.801-0.095c2.224-1.221,0.386-2.201,1.849-3.004c-1.463,0.803-1.41-1.275-3.551-0.1
				C52.408,179.201,52.907,180.112,52.45,181.226z"/>
			<g>
				<line fill="none" x1="58.1" y1="178.126" x2="54.224" y2="180.289"/>
				<g>
					<polyline fill="none" stroke="#333333" stroke-width="0.9957" stroke-linecap="round" stroke-miterlimit="10" points="
						57.665,178.369 57.102,178.683 56.514,179.011 56.023,179.284 					"/>
					
						<line fill="none" stroke="#333333" stroke-width="0.9957" stroke-linecap="round" stroke-miterlimit="10" x1="54.658" y1="180.046" x2="54.72" y2="180.012"/>
				</g>
			</g>
		</g>
		<path fill="#CC924C" stroke="#333333" stroke-width="2.4893" stroke-linecap="round" stroke-miterlimit="10" d="M88.473,183.147
			l-35.401-6.202c-1.027-0.166-1.726-1.131-1.561-2.159l0,0c0.165-1.026,1.131-1.725,2.159-1.559l35.56,5.219"/>
		<g>
			
				<path fill="#A1C453" stroke="#333333" stroke-width="0.9957" stroke-linecap="round" stroke-linejoin="round" stroke-miterlimit="10" d="
				M51.593,173.329c0,0-2.854,0.668-3.38,0.95c-0.425,0.223,2.503,1.349,3.625,1.562L51.593,173.329z"/>
			
				<path fill="#A1C453" stroke="#333333" stroke-width="0.9957" stroke-linecap="round" stroke-linejoin="round" stroke-miterlimit="10" d="
				M50.992,175.577l3.793-2.441c0,0-4.275-1.365-5.951-0.519C48.834,172.618,50.298,174.229,50.992,175.577z"/>
			
				<path fill="#A1C453" stroke="#333333" stroke-width="0.9957" stroke-linecap="round" stroke-linejoin="round" stroke-miterlimit="10" d="
				M56.183,177.003c0,0-5.4,1.368-7.936-0.736l3.744-2.153L56.183,177.003z"/>
		</g>
	</g>
</g>
<g id="calque04">
	<g>
		
			<polygon fill="#CC924C" stroke="#333333" stroke-width="0.9957" stroke-linecap="round" stroke-linejoin="round" stroke-miterlimit="10" points="
			52.085,180.854 60.346,178.115 57.57,177.669 		"/>
		<g>
			
				<path fill="#A1C453" stroke="#333333" stroke-width="1.4936" stroke-linecap="round" stroke-linejoin="round" stroke-miterlimit="10" d="
				M61.795,163.647c-0.535,2.626-2.278,3.65,0.721,8.416c3,4.765,4.934,0.563,6.906,3.699c-1.975-3.136,2.637-3.299-0.252-7.888
				C66.28,163.285,64.326,164.514,61.795,163.647z"/>
			<g>
				<line fill="none" x1="69.422" y1="175.763" x2="63.512" y2="166.375"/>
				<g>
					<polyline fill="none" stroke="#333333" stroke-width="0.9957" stroke-linecap="round" stroke-miterlimit="10" points="
						69.156,175.341 68.813,174.795 64.908,168.593 64.61,168.119 					"/>
					
						<line fill="none" stroke="#333333" stroke-width="0.9957" stroke-linecap="round" stroke-miterlimit="10" x1="63.777" y1="166.796" x2="63.814" y2="166.855"/>
				</g>
			</g>
		</g>
		<g>
			
				<path fill="#A1C453" stroke="#333333" stroke-width="1.4936" stroke-linecap="round" stroke-linejoin="round" stroke-miterlimit="10" d="
				M39.534,187.741c2.589,0.692,3.508,2.493,8.442-0.216c4.938-2.708,0.858-4.889,4.107-6.671c-3.249,1.783-3.135-2.831-7.891-0.222
				C39.441,183.241,40.551,185.265,39.534,187.741z"/>
			<g>
				<line fill="none" x1="52.085" y1="180.854" x2="42.358" y2="186.19"/>
				<g>
					<polyline fill="none" stroke="#333333" stroke-width="0.9957" stroke-linecap="round" stroke-miterlimit="10" points="
						51.648,181.093 51.083,181.404 44.657,184.929 44.166,185.198 					"/>
					
						<line fill="none" stroke="#333333" stroke-width="0.9957" stroke-linecap="round" stroke-miterlimit="10" x1="42.795" y1="185.951" x2="42.856" y2="185.917"/>
				</g>
			</g>
		</g>
		<g>
			
				<path fill="#A1C453" stroke="#333333" stroke-width="0.9957" stroke-linecap="round" stroke-linejoin="round" stroke-miterlimit="10" d="
				M50.725,166.664c-0.404,1.126-1.239,1.467-0.22,3.763c1.021,2.296,2.142,0.564,2.813,2.076c-0.672-1.511,1.376-1.289,0.396-3.5
				C52.729,166.791,51.787,167.208,50.725,166.664z"/>
			<g>
				<line fill="none" x1="53.318" y1="172.502" x2="51.309" y2="167.978"/>
				<g>
					<polyline fill="none" stroke="#333333" stroke-width="0.9957" stroke-linecap="round" stroke-miterlimit="10" points="
						53.116,172.047 52.854,171.458 52.373,170.374 52.146,169.862 					"/>
					
						<line fill="none" stroke="#333333" stroke-width="0.9957" stroke-linecap="round" stroke-miterlimit="10" x1="51.511" y1="168.433" x2="51.539" y2="168.497"/>
				</g>
			</g>
		</g>
		<path fill="#CC924C" stroke="#333333" stroke-width="2.4893" stroke-linecap="round" stroke-miterlimit="10" d="M88.473,183.147
			l-42.043-7.271c-1.025-0.165-1.724-1.131-1.559-2.158l0,0c0.165-1.025,1.131-1.724,2.156-1.559l42.201,6.288"/>
		<g>
			
				<path fill="#A1C453" stroke="#333333" stroke-width="0.9957" stroke-linecap="round" stroke-linejoin="round" stroke-miterlimit="10" d="
				M44.953,172.259c0,0-2.854,0.669-3.382,0.95c-0.425,0.223,2.504,1.349,3.628,1.562L44.953,172.259z"/>
			
				<path fill="#A1C453" stroke="#333333" stroke-width="0.9957" stroke-linecap="round" stroke-linejoin="round" stroke-miterlimit="10" d="
				M44.352,174.508l3.794-2.441c0,0-4.274-1.364-5.952-0.518C42.193,171.549,43.657,173.159,44.352,174.508z"/>
			
				<path fill="#A1C453" stroke="#333333" stroke-width="0.9957" stroke-linecap="round" stroke-linejoin="round" stroke-miterlimit="10" d="
				M49.543,175.934c0,0-5.401,1.368-7.938-0.737l3.744-2.152L49.543,175.934z"/>
		</g>
	</g>
</g>
<g id="calque05">
	<g>
		
			<polygon fill="#CC924C" stroke="#333333" stroke-width="0.9957" stroke-linecap="round" stroke-linejoin="round" stroke-miterlimit="10" points="
			52.085,180.854 60.345,178.116 57.57,177.669 		"/>
		
			<polygon fill="#CC924C" stroke="#333333" stroke-width="0.9957" stroke-linecap="round" stroke-linejoin="round" stroke-miterlimit="10" points="
			45.256,161.587 55.365,173.5 52.592,173.054 		"/>
		<g>
			
				<path fill="#A1C453" stroke="#333333" stroke-width="1.4936" stroke-linecap="round" stroke-linejoin="round" stroke-miterlimit="10" d="
				M61.795,163.648c-0.535,2.625-2.278,3.649,0.721,8.415c3,4.765,4.934,0.563,6.906,3.699c-1.975-3.136,2.637-3.299-0.252-7.888
				C66.28,163.285,64.326,164.515,61.795,163.648z"/>
			<g>
				<line fill="none" x1="69.422" y1="175.763" x2="63.512" y2="166.375"/>
				<g>
					<polyline fill="none" stroke="#333333" stroke-width="0.9957" stroke-linecap="round" stroke-miterlimit="10" points="
						69.156,175.341 68.813,174.795 64.908,168.593 64.61,168.119 					"/>
					
						<line fill="none" stroke="#333333" stroke-width="0.9957" stroke-linecap="round" stroke-miterlimit="10" x1="63.777" y1="166.796" x2="63.814" y2="166.855"/>
				</g>
			</g>
		</g>
		<g>
			
				<path fill="#A1C453" stroke="#333333" stroke-width="1.4936" stroke-linecap="round" stroke-linejoin="round" stroke-miterlimit="10" d="
				M39.534,187.742c2.589,0.692,3.508,2.493,8.442-0.216c4.938-2.708,0.858-4.889,4.107-6.671c-3.249,1.783-3.135-2.831-7.891-0.222
				C39.441,183.241,40.551,185.265,39.534,187.742z"/>
			<g>
				<line fill="none" x1="52.085" y1="180.854" x2="42.358" y2="186.19"/>
				<g>
					<polyline fill="none" stroke="#333333" stroke-width="0.9957" stroke-linecap="round" stroke-miterlimit="10" points="
						51.648,181.093 51.083,181.404 44.657,184.929 44.166,185.199 					"/>
					
						<line fill="none" stroke="#333333" stroke-width="0.9957" stroke-linecap="round" stroke-miterlimit="10" x1="42.795" y1="185.951" x2="42.856" y2="185.917"/>
				</g>
			</g>
		</g>
		<g>
			
				<path fill="#A1C453" stroke="#333333" stroke-width="0.9957" stroke-linecap="round" stroke-linejoin="round" stroke-miterlimit="10" d="
				M39.18,159.433c0.513,1.089,0.162,1.925,2.521,2.833c2.357,0.908,1.924-1.122,3.477-0.524c-1.553-0.598,0.063-1.895-2.21-2.769
				C40.696,158.098,40.323,159.065,39.18,159.433z"/>
			<g>
				<line fill="none" x1="45.177" y1="161.741" x2="40.53" y2="159.953"/>
				<g>
					<polyline fill="none" stroke="#333333" stroke-width="0.9957" stroke-linecap="round" stroke-miterlimit="10" points="
						44.712,161.563 44.11,161.331 42.978,160.895 42.454,160.693 					"/>
					
						<line fill="none" stroke="#333333" stroke-width="0.9957" stroke-linecap="round" stroke-miterlimit="10" x1="40.995" y1="160.132" x2="41.061" y2="160.157"/>
				</g>
			</g>
		</g>
		<g>
			
				<path fill="#A1C453" stroke="#333333" stroke-width="1.4936" stroke-linecap="round" stroke-linejoin="round" stroke-miterlimit="10" d="
				M39.074,147.034c-1.023,2.847-3.136,3.709-0.556,9.516c2.579,5.807,5.418,1.427,7.113,5.248c-1.695-3.821,3.479-3.259,0.995-8.85
				C44.144,147.354,41.763,148.411,39.074,147.034z"/>
			<g>
				<line fill="none" x1="45.633" y1="161.798" x2="40.551" y2="150.356"/>
				<g>
					<polyline fill="none" stroke="#333333" stroke-width="0.9957" stroke-linecap="round" stroke-miterlimit="10" points="
						45.431,161.343 45.169,160.753 41.615,152.752 41.388,152.24 					"/>
					
						<line fill="none" stroke="#333333" stroke-width="0.9957" stroke-linecap="round" stroke-miterlimit="10" x1="40.753" y1="150.812" x2="40.781" y2="150.875"/>
				</g>
			</g>
		</g>
		<path fill="#CC924C" stroke="#333333" stroke-width="2.4893" stroke-linecap="round" stroke-miterlimit="10" d="M88.473,183.148
			l-54.723-9.312c-1.026-0.166-1.726-1.131-1.561-2.158l0,0c0.165-1.026,1.132-1.725,2.158-1.56l54.881,8.329"/>
		<g>
			
				<path fill="#A1C453" stroke="#333333" stroke-width="0.9957" stroke-linecap="round" stroke-linejoin="round" stroke-miterlimit="10" d="
				M32.272,170.219c0,0-2.854,0.668-3.381,0.95c-0.424,0.224,2.503,1.349,3.628,1.562L32.272,170.219z"/>
			
				<path fill="#A1C453" stroke="#333333" stroke-width="0.9957" stroke-linecap="round" stroke-linejoin="round" stroke-miterlimit="10" d="
				M31.672,172.468l3.793-2.442c0,0-4.274-1.364-5.951-0.519C29.514,169.508,30.977,171.12,31.672,172.468z"/>
			
				<path fill="#A1C453" stroke="#333333" stroke-width="0.9957" stroke-linecap="round" stroke-linejoin="round" stroke-miterlimit="10" d="
				M36.862,173.893c0,0-5.4,1.368-7.936-0.737l3.744-2.152L36.862,173.893z"/>
		</g>
		<g>
			
				<path fill="#FFFFFF" stroke="#333333" stroke-width="0.9957" stroke-linecap="round" stroke-linejoin="round" stroke-miterlimit="10" d="
				M51.751,182.692c0.281-0.346,1.159-0.213,1.805-0.041c1.162,0.309,2.384,1.71,1.499,2.798c-0.889,1.092-2.514,0.187-3.057-0.886
				C51.699,183.966,51.466,183.039,51.751,182.692z"/>
			
				<path fill="#FFFFFF" stroke="#333333" stroke-width="0.9957" stroke-linecap="round" stroke-linejoin="round" stroke-miterlimit="10" d="
				M51.701,182.584c-0.439-0.071-0.765-0.898-0.938-1.542c-0.313-1.162,0.29-2.92,1.673-2.698c1.392,0.224,1.42,2.084,0.761,3.089
				C52.831,181.992,52.145,182.656,51.701,182.584z"/>
			
				<path fill="#FFFFFF" stroke="#333333" stroke-width="0.9957" stroke-linecap="round" stroke-linejoin="round" stroke-miterlimit="10" d="
				M51.635,182.674c0.16,0.417-0.396,1.11-0.868,1.583c-0.849,0.853-2.673,1.209-3.172-0.101c-0.501-1.315,1.097-2.27,2.294-2.203
				C50.556,181.992,51.475,182.255,51.635,182.674z"/>
			
				<path fill="#FFFFFF" stroke="#333333" stroke-width="0.9957" stroke-linecap="round" stroke-linejoin="round" stroke-miterlimit="10" d="
				M51.701,182.807c0.44,0.071,0.763,0.898,0.938,1.543c0.313,1.162-0.289,2.92-1.674,2.698c-1.39-0.224-1.418-2.084-0.76-3.09
				C50.572,183.401,51.258,182.736,51.701,182.807z"/>
			
				<path fill="#FFFFFF" stroke="#333333" stroke-width="0.9957" stroke-linecap="round" stroke-linejoin="round" stroke-miterlimit="10" d="
				M51.766,182.711c-0.16-0.416,0.396-1.109,0.867-1.582c0.85-0.854,2.674-1.21,3.174,0.099c0.5,1.316-1.097,2.271-2.296,2.204
				C52.844,183.393,51.926,183.131,51.766,182.711z"/>
			
				<path fill="#FFFFFF" stroke="#333333" stroke-width="0.9957" stroke-linecap="round" stroke-linejoin="round" stroke-miterlimit="10" d="
				M51.641,182.713c-0.281,0.346-1.16,0.212-1.805,0.041c-1.164-0.309-2.384-1.711-1.501-2.798c0.89-1.092,2.516-0.187,3.056,0.886
				C51.691,181.438,51.924,182.365,51.641,182.713z"/>
			
				<circle fill="#F9D53E" stroke="#333333" stroke-width="0.9957" stroke-linecap="round" stroke-linejoin="round" stroke-miterlimit="10" cx="51.702" cy="182.807" r="0.926"/>
		</g>
	</g>
</g>
<g id="calque06">
	<g>
		
			<polygon fill="#CC924C" stroke="#333333" stroke-width="0.9957" stroke-linecap="round" stroke-linejoin="round" stroke-miterlimit="10" points="
			52.085,180.854 60.345,178.116 57.57,177.669 		"/>
		
			<polygon fill="#CC924C" stroke="#333333" stroke-width="0.9957" stroke-linecap="round" stroke-linejoin="round" stroke-miterlimit="10" points="
			45.256,161.586 55.365,173.5 52.592,173.054 		"/>
		<g>
			
				<path fill="#A1C453" stroke="#333333" stroke-width="1.4936" stroke-linecap="round" stroke-linejoin="round" stroke-miterlimit="10" d="
				M61.795,163.647c-0.535,2.626-2.278,3.65,0.721,8.416c3,4.765,4.934,0.563,6.906,3.699c-1.975-3.136,2.637-3.299-0.252-7.888
				C66.28,163.285,64.326,164.515,61.795,163.647z"/>
			<g>
				<line fill="none" x1="69.422" y1="175.763" x2="63.512" y2="166.375"/>
				<g>
					<polyline fill="none" stroke="#333333" stroke-width="0.9957" stroke-linecap="round" stroke-miterlimit="10" points="
						69.156,175.341 68.813,174.795 64.908,168.593 64.61,168.119 					"/>
					
						<line fill="none" stroke="#333333" stroke-width="0.9957" stroke-linecap="round" stroke-miterlimit="10" x1="63.777" y1="166.796" x2="63.814" y2="166.855"/>
				</g>
			</g>
		</g>
		<g>
			
				<path fill="#A1C453" stroke="#333333" stroke-width="1.4936" stroke-linecap="round" stroke-linejoin="round" stroke-miterlimit="10" d="
				M39.534,187.742c2.589,0.692,3.508,2.493,8.442-0.216c4.938-2.708,0.858-4.889,4.107-6.671c-3.249,1.783-3.135-2.831-7.891-0.222
				C39.441,183.241,40.551,185.265,39.534,187.742z"/>
			<g>
				<line fill="none" x1="52.085" y1="180.854" x2="42.358" y2="186.19"/>
				<g>
					<polyline fill="none" stroke="#333333" stroke-width="0.9957" stroke-linecap="round" stroke-miterlimit="10" points="
						51.648,181.093 51.083,181.404 44.657,184.929 44.166,185.199 					"/>
					
						<line fill="none" stroke="#333333" stroke-width="0.9957" stroke-linecap="round" stroke-miterlimit="10" x1="42.795" y1="185.951" x2="42.856" y2="185.917"/>
				</g>
			</g>
		</g>
		<g>
			
				<path fill="#A1C453" stroke="#333333" stroke-width="1.4936" stroke-linecap="round" stroke-linejoin="round" stroke-miterlimit="10" d="
				M30.114,155.988c1.289,2.736,0.405,4.839,6.336,7.122c5.932,2.282,4.841-2.823,8.741-1.32c-3.9-1.503,0.157-4.764-5.555-6.961
				C33.925,152.63,32.989,155.062,30.114,155.988z"/>
			<g>
				<line fill="none" x1="45.191" y1="161.79" x2="33.508" y2="157.293"/>
				<g>
					<polyline fill="none" stroke="#333333" stroke-width="0.9957" stroke-linecap="round" stroke-miterlimit="10" points="
						44.727,161.611 44.125,161.379 35.955,158.235 35.432,158.034 					"/>
					
						<line fill="none" stroke="#333333" stroke-width="0.9957" stroke-linecap="round" stroke-miterlimit="10" x1="33.973" y1="157.472" x2="34.038" y2="157.497"/>
				</g>
			</g>
		</g>
		<g>
			
				<path fill="#A1C453" stroke="#333333" stroke-width="1.4936" stroke-linecap="round" stroke-linejoin="round" stroke-miterlimit="10" d="
				M39.074,147.034c-1.023,2.847-3.136,3.708-0.556,9.516c2.579,5.806,5.418,1.426,7.113,5.248c-1.695-3.822,3.479-3.259,0.995-8.85
				C44.144,147.354,41.763,148.411,39.074,147.034z"/>
			<g>
				<line fill="none" x1="45.633" y1="161.798" x2="40.551" y2="150.356"/>
				<g>
					<polyline fill="none" stroke="#333333" stroke-width="0.9957" stroke-linecap="round" stroke-miterlimit="10" points="
						45.431,161.343 45.169,160.753 41.615,152.752 41.388,152.24 					"/>
					
						<line fill="none" stroke="#333333" stroke-width="0.9957" stroke-linecap="round" stroke-miterlimit="10" x1="40.753" y1="150.812" x2="40.781" y2="150.875"/>
				</g>
			</g>
		</g>
		<g>
			
				<path fill="#A1C453" stroke="#333333" stroke-width="0.9957" stroke-linecap="round" stroke-linejoin="round" stroke-miterlimit="10" d="
				M25.317,176.125c0.857,0.218,1.168,0.809,2.786-0.107s0.261-1.618,1.326-2.22c-1.065,0.602-1.047-0.921-2.604-0.04
				C25.267,174.641,25.642,175.304,25.317,176.125z"/>
			<g>
				<line fill="none" x1="29.43" y1="173.798" x2="26.243" y2="175.603"/>
				<g>
					
						<line fill="none" stroke="#333333" stroke-width="0.9957" stroke-linecap="round" stroke-miterlimit="10" x1="29.324" y1="173.858" x2="26.681" y2="175.354"/>
					
						<line fill="none" stroke="#333333" stroke-width="0.9957" stroke-linecap="round" stroke-miterlimit="10" x1="26.349" y1="175.542" x2="26.363" y2="175.534"/>
				</g>
			</g>
		</g>
		<g>
			<g>
				<path fill="#D3F46C" d="M56.447,181.33c1.534,1.478,1.593,4.867,0.104,5.454c-0.563,1.69-3.918,1.582-5.453,0.104
					c-1.534-1.478-2.327-3.69,0.333-5.212C52.771,179.077,54.914,179.853,56.447,181.33z"/>
				<g>
					<path fill="none" stroke="#333333" stroke-width="0.9957" stroke-linecap="round" stroke-miterlimit="10" d="M56.772,181.707
						c0.13,0.172,0.242,0.355,0.339,0.547c0.411,0.824,0.584,1.765,0.495,2.682c-0.048,0.455-0.162,0.917-0.418,1.302
						c-0.132,0.186-0.289,0.366-0.496,0.469c-0.048,0.029-0.104,0.051-0.146,0.087l-0.073,0.157c-0.039,0.109-0.11,0.2-0.184,0.29
						c-0.619,0.719-1.655,0.829-2.547,0.762c-0.909-0.1-1.827-0.402-2.525-1.012c-0.675-0.614-1.262-1.384-1.467-2.29
						c-0.236-0.915,0.185-1.878,0.89-2.465c0.313-0.338,0.845-0.44,0.997-0.916c0.249-0.385,0.546-0.75,0.934-1.004
						c0.386-0.255,0.855-0.375,1.315-0.338l0.335,0.046l0.179,0.046c0.121,0.025,0.235,0.072,0.351,0.116"/>
					
						<line fill="none" stroke="#333333" stroke-width="0.9957" stroke-linecap="round" stroke-miterlimit="10" x1="56.075" y1="180.999" x2="56.021" y2="180.955"/>
				</g>
			</g>
			
				<ellipse transform="matrix(-0.1902 -0.9817 0.9817 -0.1902 -120.4596 270.2334)" opacity="0.5" fill="#FFFFFF" enable-background="new    " cx="51.221" cy="184.797" rx="0.883" ry="0.726"/>
		</g>
		<path fill="#CC924C" stroke="#333333" stroke-width="2.4893" stroke-linecap="round" stroke-miterlimit="10" d="M88.473,183.148
			l-64.255-10.846c-1.026-0.166-1.725-1.132-1.56-2.159l0,0c0.165-1.025,1.132-1.724,2.157-1.559l64.413,9.863"/>
		<g>
			
				<path fill="#A1C453" stroke="#333333" stroke-width="0.9957" stroke-linecap="round" stroke-linejoin="round" stroke-miterlimit="10" d="
				M22.741,168.685c0,0-2.854,0.668-3.383,0.95c-0.425,0.223,2.504,1.349,3.627,1.562L22.741,168.685z"/>
			
				<path fill="#A1C453" stroke="#333333" stroke-width="0.9957" stroke-linecap="round" stroke-linejoin="round" stroke-miterlimit="10" d="
				M22.141,170.933l3.792-2.441c0,0-4.274-1.364-5.951-0.518C19.981,167.974,21.444,169.584,22.141,170.933z"/>
			
				<path fill="#A1C453" stroke="#333333" stroke-width="0.9957" stroke-linecap="round" stroke-linejoin="round" stroke-miterlimit="10" d="
				M27.33,172.359c0,0-5.4,1.368-7.938-0.737l3.744-2.152L27.33,172.359z"/>
		</g>
		<g>
			
				<path fill="#FFFFFF" stroke="#333333" stroke-width="0.9957" stroke-linecap="round" stroke-linejoin="round" stroke-miterlimit="10" d="
				M45.869,160.684c0.281-0.345,1.159-0.212,1.805-0.04c1.163,0.309,2.385,1.711,1.499,2.798c-0.888,1.092-2.514,0.187-3.055-0.885
				C45.818,161.959,45.586,161.032,45.869,160.684z"/>
			
				<path fill="#FFFFFF" stroke="#333333" stroke-width="0.9957" stroke-linecap="round" stroke-linejoin="round" stroke-miterlimit="10" d="
				M45.819,160.577c-0.438-0.07-0.763-0.897-0.936-1.542c-0.314-1.162,0.288-2.92,1.672-2.698c1.39,0.224,1.419,2.084,0.761,3.089
				C46.95,159.984,46.264,160.649,45.819,160.577z"/>
			
				<path fill="#FFFFFF" stroke="#333333" stroke-width="0.9957" stroke-linecap="round" stroke-linejoin="round" stroke-miterlimit="10" d="
				M45.755,160.667c0.159,0.417-0.396,1.11-0.868,1.583c-0.849,0.853-2.674,1.209-3.174-0.1c-0.5-1.316,1.097-2.27,2.295-2.204
				C44.676,159.985,45.595,160.248,45.755,160.667z"/>
			
				<path fill="#FFFFFF" stroke="#333333" stroke-width="0.9957" stroke-linecap="round" stroke-linejoin="round" stroke-miterlimit="10" d="
				M45.82,160.801c0.44,0.07,0.765,0.897,0.938,1.542c0.313,1.162-0.29,2.921-1.674,2.698c-1.391-0.224-1.419-2.085-0.762-3.09
				C44.691,161.393,45.377,160.729,45.82,160.801z"/>
			
				<path fill="#FFFFFF" stroke="#333333" stroke-width="0.9957" stroke-linecap="round" stroke-linejoin="round" stroke-miterlimit="10" d="
				M45.885,160.704c-0.159-0.416,0.395-1.11,0.866-1.583c0.85-0.853,2.675-1.209,3.173,0.1c0.502,1.316-1.096,2.27-2.295,2.204
				C46.963,161.386,46.043,161.124,45.885,160.704z"/>
			
				<path fill="#FFFFFF" stroke="#333333" stroke-width="0.9957" stroke-linecap="round" stroke-linejoin="round" stroke-miterlimit="10" d="
				M45.759,160.706c-0.28,0.346-1.159,0.213-1.804,0.04c-1.163-0.308-2.386-1.71-1.5-2.797c0.889-1.092,2.514-0.187,3.056,0.885
				C45.81,159.431,46.042,160.358,45.759,160.706z"/>
			
				<circle fill="#F9D53E" stroke="#333333" stroke-width="0.9957" stroke-linecap="round" stroke-linejoin="round" stroke-miterlimit="10" cx="45.82" cy="160.8" r="0.926"/>
		</g>
	</g>
</g>
<g id="calque07">
	<g>
		
			<polygon fill="#CC924C" stroke="#333333" stroke-width="0.9957" stroke-linecap="round" stroke-linejoin="round" stroke-miterlimit="10" points="
			52.085,180.854 60.345,178.116 57.57,177.669 		"/>
		
			<polygon fill="#CC924C" stroke="#333333" stroke-width="0.9957" stroke-linecap="round" stroke-linejoin="round" stroke-miterlimit="10" points="
			25.129,177.084 31.344,173.448 28.569,173.002 		"/>
		
			<polygon fill="#CC924C" stroke="#333333" stroke-width="0.9957" stroke-linecap="round" stroke-linejoin="round" stroke-miterlimit="10" points="
			45.256,161.586 55.365,173.5 52.592,173.054 		"/>
		<g>
			
				<path fill="#A1C453" stroke="#333333" stroke-width="1.4936" stroke-linecap="round" stroke-linejoin="round" stroke-miterlimit="10" d="
				M61.795,163.647c-0.535,2.626-2.278,3.65,0.721,8.416c3,4.765,4.934,0.564,6.906,3.7c-1.975-3.136,2.637-3.299-0.252-7.888
				C66.28,163.285,64.326,164.514,61.795,163.647z"/>
			<g>
				<line fill="none" x1="69.422" y1="175.763" x2="63.512" y2="166.375"/>
				<g>
					<polyline fill="none" stroke="#333333" stroke-width="0.9957" stroke-linecap="round" stroke-miterlimit="10" points="
						69.156,175.341 68.813,174.795 64.908,168.593 64.61,168.119 					"/>
					
						<line fill="none" stroke="#333333" stroke-width="0.9957" stroke-linecap="round" stroke-miterlimit="10" x1="63.777" y1="166.796" x2="63.814" y2="166.855"/>
				</g>
			</g>
		</g>
		<g>
			
				<path fill="#A1C453" stroke="#333333" stroke-width="1.4936" stroke-linecap="round" stroke-linejoin="round" stroke-miterlimit="10" d="
				M39.534,187.741c2.589,0.692,3.508,2.493,8.442-0.216c4.938-2.708,0.858-4.89,4.107-6.671c-3.249,1.782-3.135-2.831-7.891-0.222
				C39.441,183.241,40.551,185.265,39.534,187.741z"/>
			<g>
				<line fill="none" x1="52.085" y1="180.854" x2="42.358" y2="186.19"/>
				<g>
					<polyline fill="none" stroke="#333333" stroke-width="0.9957" stroke-linecap="round" stroke-miterlimit="10" points="
						51.648,181.093 51.083,181.404 44.657,184.929 44.166,185.199 					"/>
					
						<line fill="none" stroke="#333333" stroke-width="0.9957" stroke-linecap="round" stroke-miterlimit="10" x1="42.795" y1="185.951" x2="42.856" y2="185.917"/>
				</g>
			</g>
		</g>
		<g>
			
				<path fill="#A1C453" stroke="#333333" stroke-width="1.4936" stroke-linecap="round" stroke-linejoin="round" stroke-miterlimit="10" d="
				M30.114,155.988c1.289,2.736,0.405,4.839,6.336,7.122c5.932,2.282,4.841-2.823,8.741-1.32c-3.9-1.503,0.157-4.764-5.555-6.961
				C33.925,152.63,32.989,155.062,30.114,155.988z"/>
			<g>
				<line fill="none" x1="45.191" y1="161.79" x2="33.508" y2="157.293"/>
				<g>
					<polyline fill="none" stroke="#333333" stroke-width="0.9957" stroke-linecap="round" stroke-miterlimit="10" points="
						44.727,161.611 44.125,161.379 35.955,158.235 35.432,158.034 					"/>
					
						<line fill="none" stroke="#333333" stroke-width="0.9957" stroke-linecap="round" stroke-miterlimit="10" x1="33.973" y1="157.472" x2="34.038" y2="157.497"/>
				</g>
			</g>
		</g>
		<g>
			
				<path fill="#A1C453" stroke="#333333" stroke-width="1.4936" stroke-linecap="round" stroke-linejoin="round" stroke-miterlimit="10" d="
				M39.074,147.034c-1.023,2.846-3.136,3.708-0.556,9.516c2.579,5.806,5.418,1.426,7.113,5.248c-1.695-3.822,3.479-3.259,0.995-8.85
				C44.144,147.354,41.763,148.411,39.074,147.034z"/>
			<g>
				<line fill="none" x1="45.633" y1="161.798" x2="40.551" y2="150.356"/>
				<g>
					<polyline fill="none" stroke="#333333" stroke-width="0.9957" stroke-linecap="round" stroke-miterlimit="10" points="
						45.431,161.343 45.169,160.753 41.615,152.752 41.388,152.24 					"/>
					
						<line fill="none" stroke="#333333" stroke-width="0.9957" stroke-linecap="round" stroke-miterlimit="10" x1="40.753" y1="150.812" x2="40.781" y2="150.875"/>
				</g>
			</g>
		</g>
		<g>
			
				<path fill="#A1C453" stroke="#333333" stroke-width="0.9957" stroke-linecap="round" stroke-linejoin="round" stroke-miterlimit="10" d="
				M18.965,163.734c-0.014,0.991-0.576,1.484,0.842,3.01c1.418,1.526,1.832-0.134,2.765,0.87c-0.933-1.004,0.732-1.38-0.635-2.851
				C20.571,163.294,19.945,163.876,18.965,163.734z"/>
			<g>
				<line fill="none" x1="22.571" y1="167.614" x2="19.777" y2="164.607"/>
				<g>
					<polyline fill="none" stroke="#333333" stroke-width="0.9957" stroke-linecap="round" stroke-miterlimit="10" points="
						22.232,167.25 21.793,166.777 21.563,166.528 21.181,166.118 					"/>
					
						<line fill="none" stroke="#333333" stroke-width="0.9957" stroke-linecap="round" stroke-miterlimit="10" x1="20.116" y1="164.972" x2="20.164" y2="165.023"/>
				</g>
			</g>
		</g>
		<g>
			
				<path fill="#A1C453" stroke="#333333" stroke-width="0.9957" stroke-linecap="round" stroke-linejoin="round" stroke-miterlimit="10" d="
				M27.647,181.873c0.14-0.981,0.759-1.4-0.457-3.091c-1.216-1.691-1.835-0.096-2.636-1.21c0.801,1.114-0.898,1.277,0.273,2.907
				C25.999,182.108,26.692,181.61,27.647,181.873z"/>
			<g>
				<line fill="none" x1="24.555" y1="177.571" x2="26.951" y2="180.905"/>
				<g>
					<polyline fill="none" stroke="#333333" stroke-width="0.9957" stroke-linecap="round" stroke-miterlimit="10" points="
						24.846,177.976 25.222,178.5 25.421,178.776 25.748,179.231 					"/>
					
						<line fill="none" stroke="#333333" stroke-width="0.9957" stroke-linecap="round" stroke-miterlimit="10" x1="26.66" y1="180.501" x2="26.62" y2="180.444"/>
				</g>
			</g>
		</g>
		<g>
			
				<path fill="#A1C453" stroke="#333333" stroke-width="1.4936" stroke-linecap="round" stroke-linejoin="round" stroke-miterlimit="10" d="
				M11.069,185.041c2.934,0.743,3.995,2.762,9.525-0.368c5.529-3.129,0.895-5.529,4.534-7.589c-3.641,2.06-3.58-3.147-8.905-0.134
				C10.897,179.965,12.181,182.232,11.069,185.041z"/>
			<g>
				<line fill="none" x1="25.129" y1="177.084" x2="14.233" y2="183.25"/>
				<g>
					<polyline fill="none" stroke="#333333" stroke-width="0.9957" stroke-linecap="round" stroke-miterlimit="10" points="
						24.695,177.329 24.134,177.647 16.516,181.958 16.027,182.235 					"/>
					
						<line fill="none" stroke="#333333" stroke-width="0.9957" stroke-linecap="round" stroke-miterlimit="10" x1="14.667" y1="183.005" x2="14.728" y2="182.97"/>
				</g>
			</g>
		</g>
		<g>
			<g>
				<path fill="#D3F46C" d="M59.983,181.725c2.518,2.422,2.61,7.978,0.171,8.939c-0.924,2.769-6.424,2.591-8.939,0.169
					c-2.515-2.422-3.813-6.048,0.548-8.544C53.961,178.032,57.47,179.304,59.983,181.725z"/>
				<g>
					<path fill="none" stroke="#333333" stroke-width="1.4936" stroke-linecap="round" stroke-miterlimit="10" d="M60.477,182.285
						c0.188,0.263,0.377,0.524,0.521,0.814c0.727,1.351,1.017,2.92,0.898,4.444c-0.066,0.759-0.246,1.53-0.661,2.18
						c-0.218,0.312-0.472,0.613-0.812,0.795l-0.253,0.137c-0.058,0.071-0.085,0.169-0.129,0.253
						c-0.067,0.182-0.175,0.339-0.301,0.486c-0.48,0.603-1.214,0.949-1.951,1.125c-0.746,0.177-1.521,0.203-2.284,0.133
						c-1.512-0.169-3.036-0.693-4.181-1.726c-1.104-1.04-2.065-2.34-2.353-3.859c-0.139-0.753-0.057-1.548,0.26-2.249
						c0.305-0.709,0.84-1.291,1.432-1.771c0.288-0.254,0.615-0.453,0.939-0.658c0.19-0.075,0.248-0.278,0.354-0.436
						c0.101-0.163,0.183-0.338,0.3-0.49c0.425-0.636,0.98-1.196,1.655-1.559c0.675-0.366,1.472-0.477,2.227-0.354
						c0.188,0.012,0.386,0.083,0.549,0.121c0.09,0.023,0.181,0.043,0.266,0.08c0.171,0.068,0.348,0.125,0.515,0.203"/>
					
						<line fill="none" stroke="#333333" stroke-width="1.4936" stroke-linecap="round" stroke-miterlimit="10" x1="59.428" y1="181.227" x2="59.346" y2="181.16"/>
				</g>
			</g>
			
				<ellipse transform="matrix(-0.1898 -0.9818 0.9818 -0.1898 -122.827 273.4336)" opacity="0.5" fill="#FFFFFF" enable-background="new    " cx="51.407" cy="187.396" rx="1.446" ry="1.19"/>
		</g>
		<path fill="#CC924C" stroke="#333333" stroke-width="2.4893" stroke-linecap="round" stroke-miterlimit="10" d="M88.473,183.147
			l-70.956-11.925c-1.025-0.165-1.725-1.131-1.56-2.158l0,0c0.165-1.026,1.132-1.725,2.158-1.56l71.113,10.942"/>
		<g>
			
				<path fill="#A1C453" stroke="#333333" stroke-width="0.9957" stroke-linecap="round" stroke-linejoin="round" stroke-miterlimit="10" d="
				M16.039,167.606c0,0-2.854,0.668-3.382,0.949c-0.425,0.224,2.504,1.349,3.628,1.563L16.039,167.606z"/>
			
				<path fill="#A1C453" stroke="#333333" stroke-width="0.9957" stroke-linecap="round" stroke-linejoin="round" stroke-miterlimit="10" d="
				M15.438,169.854l3.793-2.441c0,0-4.274-1.364-5.951-0.518C13.28,166.896,14.743,168.506,15.438,169.854z"/>
			
				<path fill="#A1C453" stroke="#333333" stroke-width="0.9957" stroke-linecap="round" stroke-linejoin="round" stroke-miterlimit="10" d="
				M20.629,171.28c0,0-5.401,1.368-7.937-0.736l3.744-2.153L20.629,171.28z"/>
		</g>
		<g>
			<g>
				<path fill="#D3F46C" d="M47.676,157.782c2.126-0.126,4.657,2.13,4.08,3.623c0.859,1.558-1.495,3.952-3.621,4.079
					c-2.127,0.127-4.291-0.79-3.606-3.778C43.526,158.957,45.549,157.909,47.676,157.782z"/>
				<g>
					<path fill="none" stroke="#333333" stroke-width="0.9957" stroke-linecap="round" stroke-miterlimit="10" d="M48.173,157.798
						c0.215,0.021,0.425,0.063,0.633,0.122c0.884,0.256,1.693,0.767,2.307,1.454c0.304,0.343,0.564,0.74,0.676,1.189
						c0.047,0.223,0.072,0.46,0.009,0.683c-0.012,0.056-0.034,0.112-0.036,0.167l0.065,0.16c0.054,0.104,0.071,0.217,0.089,0.332
						c0.106,0.943-0.515,1.779-1.168,2.389c-0.689,0.601-1.534,1.071-2.456,1.171c-0.908,0.08-1.873-0.01-2.679-0.474
						c-0.832-0.447-1.255-1.409-1.208-2.326c-0.035-0.459,0.248-0.919,0.003-1.354c-0.115-0.444-0.183-0.909-0.106-1.367
						c0.074-0.456,0.306-0.883,0.645-1.196l0.262-0.216l0.154-0.1c0.102-0.072,0.213-0.124,0.322-0.179"/>
					
						<line fill="none" stroke="#333333" stroke-width="0.9957" stroke-linecap="round" stroke-miterlimit="10" x1="47.181" y1="157.832" x2="47.111" y2="157.842"/>
				</g>
			</g>
			
				<ellipse transform="matrix(-0.8506 -0.5258 0.5258 -0.8506 0.1657 328.0022)" opacity="0.5" fill="#FFFFFF" enable-background="new    " cx="46.676" cy="163.978" rx="0.882" ry="0.726"/>
		</g>
	</g>
</g>
<g id="calque08">
	<g>
		
			<polygon fill="#CC924C" stroke="#333333" stroke-width="0.9957" stroke-linecap="round" stroke-linejoin="round" stroke-miterlimit="10" points="
			52.085,180.854 60.345,178.116 57.57,177.669 		"/>
		
			<polygon fill="#CC924C" stroke="#333333" stroke-width="0.9957" stroke-linecap="round" stroke-linejoin="round" stroke-miterlimit="10" points="
			25.129,177.084 31.344,173.448 28.569,173.002 		"/>
		
			<polygon fill="#CC924C" stroke="#333333" stroke-width="0.9957" stroke-linecap="round" stroke-linejoin="round" stroke-miterlimit="10" points="
			45.256,161.586 55.365,173.5 52.592,173.054 		"/>
		
			<polygon fill="#CC924C" stroke="#333333" stroke-width="0.9957" stroke-linecap="round" stroke-linejoin="round" stroke-miterlimit="10" points="
			18.561,162.638 23.989,168.451 22.199,168.162 		"/>
		<g>
			
				<path fill="#A1C453" stroke="#333333" stroke-width="1.4936" stroke-linecap="round" stroke-linejoin="round" stroke-miterlimit="10" d="
				M61.795,163.647c-0.535,2.626-2.278,3.65,0.721,8.416c3,4.765,4.934,0.564,6.906,3.7c-1.975-3.136,2.637-3.299-0.252-7.888
				C66.28,163.285,64.326,164.514,61.795,163.647z"/>
			<g>
				<line fill="none" x1="69.422" y1="175.763" x2="63.512" y2="166.375"/>
				<g>
					<polyline fill="none" stroke="#333333" stroke-width="0.9957" stroke-linecap="round" stroke-miterlimit="10" points="
						69.156,175.341 68.813,174.795 64.908,168.593 64.61,168.119 					"/>
					
						<line fill="none" stroke="#333333" stroke-width="0.9957" stroke-linecap="round" stroke-miterlimit="10" x1="63.777" y1="166.796" x2="63.814" y2="166.855"/>
				</g>
			</g>
		</g>
		<g>
			
				<path fill="#A1C453" stroke="#333333" stroke-width="1.4936" stroke-linecap="round" stroke-linejoin="round" stroke-miterlimit="10" d="
				M39.534,187.741c2.589,0.692,3.508,2.493,8.442-0.216c4.938-2.708,0.858-4.89,4.107-6.671c-3.249,1.782-3.135-2.831-7.891-0.222
				C39.441,183.241,40.551,185.265,39.534,187.741z"/>
			<g>
				<line fill="none" x1="52.085" y1="180.854" x2="42.358" y2="186.19"/>
				<g>
					<polyline fill="none" stroke="#333333" stroke-width="0.9957" stroke-linecap="round" stroke-miterlimit="10" points="
						51.648,181.093 51.083,181.404 44.657,184.929 44.166,185.199 					"/>
					
						<line fill="none" stroke="#333333" stroke-width="0.9957" stroke-linecap="round" stroke-miterlimit="10" x1="42.795" y1="185.951" x2="42.856" y2="185.917"/>
				</g>
			</g>
		</g>
		<g>
			
				<path fill="#A1C453" stroke="#333333" stroke-width="1.4936" stroke-linecap="round" stroke-linejoin="round" stroke-miterlimit="10" d="
				M30.114,155.988c1.289,2.736,0.405,4.839,6.336,7.122c5.932,2.282,4.841-2.823,8.741-1.32c-3.9-1.503,0.157-4.764-5.555-6.961
				C33.925,152.63,32.989,155.062,30.114,155.988z"/>
			<g>
				<line fill="none" x1="45.191" y1="161.79" x2="33.508" y2="157.293"/>
				<g>
					<polyline fill="none" stroke="#333333" stroke-width="0.9957" stroke-linecap="round" stroke-miterlimit="10" points="
						44.727,161.611 44.125,161.379 35.955,158.235 35.432,158.034 					"/>
					
						<line fill="none" stroke="#333333" stroke-width="0.9957" stroke-linecap="round" stroke-miterlimit="10" x1="33.973" y1="157.472" x2="34.038" y2="157.497"/>
				</g>
			</g>
		</g>
		<g>
			
				<path fill="#A1C453" stroke="#333333" stroke-width="1.4936" stroke-linecap="round" stroke-linejoin="round" stroke-miterlimit="10" d="
				M39.074,147.034c-1.023,2.846-3.136,3.708-0.556,9.516c2.579,5.806,5.418,1.426,7.113,5.248c-1.695-3.822,3.479-3.259,0.995-8.85
				C44.144,147.354,41.763,148.411,39.074,147.034z"/>
			<g>
				<line fill="none" x1="45.633" y1="161.798" x2="40.551" y2="150.356"/>
				<g>
					<polyline fill="none" stroke="#333333" stroke-width="0.9957" stroke-linecap="round" stroke-miterlimit="10" points="
						45.431,161.343 45.169,160.753 41.615,152.752 41.388,152.24 					"/>
					
						<line fill="none" stroke="#333333" stroke-width="0.9957" stroke-linecap="round" stroke-miterlimit="10" x1="40.753" y1="150.812" x2="40.781" y2="150.875"/>
				</g>
			</g>
		</g>
		<g>
			
				<path fill="#A1C453" stroke="#333333" stroke-width="1.4936" stroke-linecap="round" stroke-linejoin="round" stroke-miterlimit="10" d="
				M10.445,153.976c-0.032,2.399-1.396,3.591,2.035,7.282c3.433,3.691,4.433-0.325,6.689,2.104c-2.258-2.43,1.771-3.341-1.534-6.896
				C14.331,152.91,12.817,154.317,10.445,153.976z"/>
			<g>
				<line fill="none" x1="19.17" y1="163.362" x2="12.409" y2="156.088"/>
				<g>
					<polyline fill="none" stroke="#333333" stroke-width="0.9957" stroke-linecap="round" stroke-miterlimit="10" points="
						18.831,162.998 18.392,162.525 14.194,158.009 13.813,157.598 					"/>
					
						<line fill="none" stroke="#333333" stroke-width="0.9957" stroke-linecap="round" stroke-miterlimit="10" x1="12.748" y1="156.453" x2="12.796" y2="156.504"/>
				</g>
			</g>
		</g>
		<g>
			
				<path fill="#A1C453" stroke="#333333" stroke-width="0.7966" stroke-linecap="round" stroke-linejoin="round" stroke-miterlimit="10" d="
				M19.182,156.838c-0.792,0.77-1.624,0.715-1.709,3.032c-0.084,2.319,1.549,1.337,1.494,2.863c0.055-1.526,1.663-0.511,1.744-2.744
				C20.793,157.755,19.842,157.721,19.182,156.838z"/>
			<g>
				<line fill="none" x1="18.967" y1="162.733" x2="19.133" y2="158.165"/>
				<g>
					<polyline fill="none" stroke="#333333" stroke-width="0.9957" stroke-linecap="round" stroke-miterlimit="10" points="
						18.984,162.236 19.008,161.591 19.037,160.785 19.058,160.225 					"/>
					
						<line fill="none" stroke="#333333" stroke-width="0.9957" stroke-linecap="round" stroke-miterlimit="10" x1="19.115" y1="158.663" x2="19.112" y2="158.732"/>
				</g>
			</g>
		</g>
		<g>
			
				<path fill="#A1C453" stroke="#333333" stroke-width="0.9957" stroke-linecap="round" stroke-linejoin="round" stroke-miterlimit="10" d="
				M23.461,183.719c1.051-0.625,1.931-0.352,2.616-2.827c0.687-2.475-1.323-1.835-0.873-3.464c-0.45,1.628-1.921,0.123-2.582,2.506
				C21.961,182.317,22.976,182.598,23.461,183.719z"/>
			<g>
				<line fill="none" x1="25.204" y1="177.428" x2="23.854" y2="182.304"/>
				<g>
					<polyline fill="none" stroke="#333333" stroke-width="0.7966" stroke-linecap="round" stroke-miterlimit="10" points="
						25.098,177.812 24.96,178.309 24.413,180.282 24.294,180.714 					"/>
					
						<line fill="none" stroke="#333333" stroke-width="0.7966" stroke-linecap="round" stroke-miterlimit="10" x1="23.96" y1="181.92" x2="23.975" y2="181.866"/>
				</g>
			</g>
		</g>
		<g>
			
				<path fill="#A1C453" stroke="#333333" stroke-width="1.4936" stroke-linecap="round" stroke-linejoin="round" stroke-miterlimit="10" d="
				M11.069,185.041c2.934,0.742,3.995,2.762,9.525-0.368c5.529-3.129,0.895-5.529,4.534-7.589c-3.641,2.06-3.58-3.147-8.905-0.134
				C10.897,179.965,12.181,182.232,11.069,185.041z"/>
			<g>
				<line fill="none" x1="25.129" y1="177.084" x2="14.233" y2="183.25"/>
				<g>
					<polyline fill="none" stroke="#333333" stroke-width="0.9957" stroke-linecap="round" stroke-miterlimit="10" points="
						24.695,177.329 24.134,177.647 16.516,181.958 16.027,182.235 					"/>
					
						<line fill="none" stroke="#333333" stroke-width="0.9957" stroke-linecap="round" stroke-miterlimit="10" x1="14.667" y1="183.005" x2="14.728" y2="182.97"/>
				</g>
			</g>
		</g>
		<g>
			
				<path fill="#A1C453" stroke="#333333" stroke-width="1.4936" stroke-linecap="round" stroke-linejoin="round" stroke-miterlimit="10" d="
				M30.82,188.703c0.787-2.243,2.441-2.934,0.38-7.479c-2.063-4.547-4.266-1.088-5.62-4.081c1.354,2.993-2.716,2.581-0.729,6.959
				C26.837,188.481,28.7,187.637,30.82,188.703z"/>
			<g>
				<line fill="none" x1="25.579" y1="177.143" x2="29.64" y2="186.1"/>
				<g>
					<polyline fill="none" stroke="#333333" stroke-width="0.9957" stroke-linecap="round" stroke-miterlimit="10" points="
						25.785,177.597 26.051,178.184 28.557,183.712 28.788,184.223 					"/>
					
						<line fill="none" stroke="#333333" stroke-width="0.9957" stroke-linecap="round" stroke-miterlimit="10" x1="29.434" y1="185.646" x2="29.405" y2="185.583"/>
				</g>
			</g>
		</g>
		<g>
			<g>
				<path fill="#EF4529" d="M59.983,181.725c2.518,2.422,2.61,7.978,0.171,8.939c-0.924,2.769-6.424,2.591-8.939,0.169
					c-2.515-2.422-3.813-6.048,0.548-8.544C53.961,178.032,57.47,179.304,59.983,181.725z"/>
				<g>
					<path fill="none" stroke="#333333" stroke-width="1.4936" stroke-linecap="round" stroke-miterlimit="10" d="M60.477,182.285
						c0.188,0.263,0.377,0.524,0.521,0.814c0.727,1.351,1.017,2.92,0.898,4.444c-0.066,0.759-0.246,1.53-0.66,2.18
						c-0.219,0.312-0.473,0.613-0.813,0.795l-0.253,0.137c-0.058,0.071-0.085,0.169-0.129,0.253
						c-0.067,0.182-0.175,0.339-0.301,0.486c-0.48,0.603-1.214,0.949-1.951,1.125c-0.746,0.177-1.521,0.203-2.284,0.133
						c-1.512-0.169-3.036-0.693-4.181-1.726c-1.104-1.04-2.065-2.34-2.353-3.859c-0.139-0.753-0.057-1.548,0.26-2.249
						c0.305-0.708,0.84-1.291,1.432-1.771c0.288-0.254,0.615-0.453,0.939-0.658c0.19-0.075,0.248-0.278,0.354-0.436
						c0.101-0.163,0.183-0.338,0.3-0.49c0.425-0.636,0.98-1.196,1.655-1.559c0.675-0.366,1.472-0.477,2.227-0.354
						c0.188,0.012,0.386,0.083,0.549,0.121c0.09,0.023,0.181,0.043,0.266,0.08c0.171,0.068,0.348,0.125,0.515,0.203"/>
					
						<line fill="none" stroke="#333333" stroke-width="1.4936" stroke-linecap="round" stroke-miterlimit="10" x1="59.428" y1="181.227" x2="59.346" y2="181.16"/>
				</g>
			</g>
			
				<ellipse transform="matrix(-0.1898 -0.9818 0.9818 -0.1898 -122.827 273.4336)" opacity="0.5" fill="#FFFFFF" enable-background="new    " cx="51.407" cy="187.396" rx="1.446" ry="1.19"/>
		</g>
		<g>
			<g>
				<path fill="#D3F46C" d="M50.054,154.579c3.473-0.351,7.771,3.171,6.926,5.654c1.516,2.496-2.181,6.575-5.653,6.926
					c-3.475,0.351-7.079-1.004-6.161-5.945C43.34,156.782,46.58,154.93,50.054,154.579z"/>
				<g>
					<path fill="none" stroke="#333333" stroke-width="1.4936" stroke-linecap="round" stroke-miterlimit="10" d="M50.8,154.565
						c0.321,0.028,0.644,0.052,0.957,0.131c1.5,0.32,2.884,1.116,3.97,2.191c0.535,0.542,1.008,1.177,1.234,1.914
						c0.097,0.368,0.162,0.757,0.081,1.134l-0.06,0.281c0.02,0.089,0.074,0.175,0.109,0.262c0.095,0.169,0.146,0.353,0.176,0.543
						c0.148,0.757-0.062,1.539-0.405,2.216c-0.348,0.683-0.829,1.291-1.376,1.827c-1.106,1.043-2.492,1.867-4.021,2.07
						c-1.508,0.169-3.121,0.061-4.465-0.704c-0.664-0.383-1.217-0.96-1.546-1.653c-0.345-0.691-0.44-1.476-0.425-2.236
						c-0.007-0.385,0.055-0.764,0.106-1.143c0.066-0.194-0.053-0.369-0.104-0.551c-0.06-0.182-0.141-0.358-0.181-0.545
						c-0.21-0.735-0.275-1.522-0.116-2.271c0.158-0.751,0.59-1.43,1.172-1.927c0.13-0.135,0.313-0.24,0.445-0.34
						c0.076-0.053,0.149-0.109,0.232-0.15c0.163-0.086,0.319-0.184,0.486-0.261"/>
					
						<line fill="none" stroke="#333333" stroke-width="1.4936" stroke-linecap="round" stroke-miterlimit="10" x1="49.314" y1="154.68" x2="49.211" y2="154.699"/>
				</g>
			</g>
			
				<ellipse transform="matrix(-0.8715 -0.4904 0.4904 -0.8715 10.5671 332.3257)" opacity="0.5" fill="#FFFFFF" enable-background="new    " cx="48.826" cy="164.778" rx="1.447" ry="1.19"/>
		</g>
		<path fill="#CC924C" stroke="#333333" stroke-width="2.4893" stroke-linecap="round" stroke-miterlimit="10" d="M88.473,183.148
			L7.464,169.605c-1.026-0.165-1.726-1.131-1.561-2.159l0,0c0.165-1.025,1.133-1.724,2.158-1.559l81.167,12.56"/>
		<g>
			
				<path fill="#A1C453" stroke="#333333" stroke-width="0.9957" stroke-linecap="round" stroke-linejoin="round" stroke-miterlimit="10" d="
				M5.987,165.988c0,0-2.854,0.668-3.382,0.95c-0.424,0.223,2.504,1.349,3.628,1.563L5.987,165.988z"/>
			
				<path fill="#A1C453" stroke="#333333" stroke-width="0.9957" stroke-linecap="round" stroke-linejoin="round" stroke-miterlimit="10" d="
				M5.386,168.236l3.793-2.441c0,0-4.275-1.364-5.951-0.518C3.228,165.277,4.69,166.888,5.386,168.236z"/>
			
				<path fill="#A1C453" stroke="#333333" stroke-width="0.9957" stroke-linecap="round" stroke-linejoin="round" stroke-miterlimit="10" d="
				M10.577,169.663c0,0-5.401,1.368-7.938-0.737l3.744-2.152L10.577,169.663z"/>
		</g>
	</g>
</g>
<g id="calque09">
	<g>
		
			<polygon fill="#CC924C" stroke="#333333" stroke-width="0.9957" stroke-linecap="round" stroke-linejoin="round" stroke-miterlimit="10" points="
			52.085,180.854 60.345,178.116 57.57,177.669 		"/>
		
			<polygon fill="#CC924C" stroke="#333333" stroke-width="0.9957" stroke-linecap="round" stroke-linejoin="round" stroke-miterlimit="10" points="
			25.129,177.084 31.344,173.448 28.569,173.002 		"/>
		
			<polygon fill="#CC924C" stroke="#333333" stroke-width="0.9957" stroke-linecap="round" stroke-linejoin="round" stroke-miterlimit="10" points="
			45.256,161.586 55.365,173.5 52.592,173.054 		"/>
		
			<polygon fill="#CC924C" stroke="#333333" stroke-width="0.9957" stroke-linecap="round" stroke-linejoin="round" stroke-miterlimit="10" points="
			18.561,162.638 23.989,168.451 22.199,168.162 		"/>
		<g>
			
				<path fill="#A1C453" stroke="#333333" stroke-width="1.4936" stroke-linecap="round" stroke-linejoin="round" stroke-miterlimit="10" d="
				M61.795,163.647c-0.535,2.626-2.278,3.65,0.721,8.416c3,4.765,4.934,0.564,6.906,3.7c-1.975-3.136,2.637-3.299-0.252-7.888
				C66.28,163.285,64.326,164.515,61.795,163.647z"/>
			<g>
				<line fill="none" x1="69.422" y1="175.763" x2="63.512" y2="166.375"/>
				<g>
					<polyline fill="none" stroke="#333333" stroke-width="0.9957" stroke-linecap="round" stroke-miterlimit="10" points="
						69.156,175.341 68.813,174.795 64.908,168.593 64.61,168.119 					"/>
					
						<line fill="none" stroke="#333333" stroke-width="0.9957" stroke-linecap="round" stroke-miterlimit="10" x1="63.777" y1="166.796" x2="63.814" y2="166.855"/>
				</g>
			</g>
		</g>
		<g>
			
				<path fill="#A1C453" stroke="#333333" stroke-width="1.4936" stroke-linecap="round" stroke-linejoin="round" stroke-miterlimit="10" d="
				M39.534,187.742c2.589,0.692,3.508,2.493,8.442-0.216c4.938-2.708,0.858-4.889,4.107-6.671c-3.249,1.783-3.135-2.831-7.891-0.222
				C39.441,183.241,40.551,185.265,39.534,187.742z"/>
			<g>
				<line fill="none" x1="52.085" y1="180.854" x2="42.358" y2="186.19"/>
				<g>
					<polyline fill="none" stroke="#333333" stroke-width="0.9957" stroke-linecap="round" stroke-miterlimit="10" points="
						51.648,181.093 51.083,181.404 44.657,184.929 44.166,185.199 					"/>
					
						<line fill="none" stroke="#333333" stroke-width="0.9957" stroke-linecap="round" stroke-miterlimit="10" x1="42.795" y1="185.951" x2="42.856" y2="185.917"/>
				</g>
			</g>
		</g>
		<g>
			
				<path fill="#A1C453" stroke="#333333" stroke-width="1.4936" stroke-linecap="round" stroke-linejoin="round" stroke-miterlimit="10" d="
				M30.114,155.988c1.289,2.736,0.405,4.839,6.336,7.122c5.932,2.282,4.841-2.823,8.741-1.32c-3.9-1.503,0.157-4.764-5.555-6.961
				C33.925,152.63,32.989,155.062,30.114,155.988z"/>
			<g>
				<line fill="none" x1="45.191" y1="161.79" x2="33.508" y2="157.293"/>
				<g>
					<polyline fill="none" stroke="#333333" stroke-width="0.9957" stroke-linecap="round" stroke-miterlimit="10" points="
						44.727,161.611 44.125,161.379 35.955,158.235 35.432,158.034 					"/>
					
						<line fill="none" stroke="#333333" stroke-width="0.9957" stroke-linecap="round" stroke-miterlimit="10" x1="33.973" y1="157.472" x2="34.038" y2="157.497"/>
				</g>
			</g>
		</g>
		<g>
			
				<path fill="#A1C453" stroke="#333333" stroke-width="1.4936" stroke-linecap="round" stroke-linejoin="round" stroke-miterlimit="10" d="
				M39.074,147.034c-1.023,2.847-3.136,3.708-0.556,9.516c2.579,5.806,5.418,1.426,7.113,5.248c-1.695-3.822,3.479-3.259,0.995-8.85
				C44.144,147.354,41.763,148.411,39.074,147.034z"/>
			<g>
				<line fill="none" x1="45.633" y1="161.798" x2="40.551" y2="150.356"/>
				<g>
					<polyline fill="none" stroke="#333333" stroke-width="0.9957" stroke-linecap="round" stroke-miterlimit="10" points="
						45.431,161.343 45.169,160.753 41.615,152.752 41.388,152.24 					"/>
					
						<line fill="none" stroke="#333333" stroke-width="0.9957" stroke-linecap="round" stroke-miterlimit="10" x1="40.753" y1="150.812" x2="40.781" y2="150.875"/>
				</g>
			</g>
		</g>
		<g>
			
				<path fill="#A1C453" stroke="#333333" stroke-width="1.4936" stroke-linecap="round" stroke-linejoin="round" stroke-miterlimit="10" d="
				M10.432,153.857c-0.033,2.398-1.396,3.59,2.035,7.281c3.432,3.692,4.433-0.326,6.688,2.104c-2.257-2.43,1.771-3.34-1.533-6.896
				C14.317,152.791,12.803,154.198,10.432,153.857z"/>
			<g>
				<line fill="none" x1="19.156" y1="163.243" x2="12.396" y2="155.97"/>
				<g>
					<polyline fill="none" stroke="#333333" stroke-width="0.9957" stroke-linecap="round" stroke-miterlimit="10" points="
						18.817,162.878 18.378,162.406 14.181,157.89 13.799,157.479 					"/>
					
						<line fill="none" stroke="#333333" stroke-width="0.9957" stroke-linecap="round" stroke-miterlimit="10" x1="12.734" y1="156.334" x2="12.782" y2="156.386"/>
				</g>
			</g>
		</g>
		<g>
			
				<path fill="#A1C453" stroke="#333333" stroke-width="1.4936" stroke-linecap="round" stroke-linejoin="round" stroke-miterlimit="10" d="
				M19.67,150.118c-1.72,1.672-3.525,1.551-3.709,6.587c-0.186,5.037,3.363,2.904,3.242,6.219c0.121-3.314,3.612-1.11,3.791-5.961
				C23.171,152.111,21.105,152.035,19.67,150.118z"/>
			<g>
				<line fill="none" x1="19.203" y1="162.924" x2="19.565" y2="153"/>
				<g>
					<polyline fill="none" stroke="#333333" stroke-width="0.9957" stroke-linecap="round" stroke-miterlimit="10" points="
						19.222,162.426 19.245,161.782 19.47,155.62 19.49,155.06 					"/>
					
						<line fill="none" stroke="#333333" stroke-width="0.9957" stroke-linecap="round" stroke-miterlimit="10" x1="19.547" y1="153.498" x2="19.545" y2="153.567"/>
				</g>
			</g>
		</g>
		<g>
			
				<path fill="#A1C453" stroke="#333333" stroke-width="1.4936" stroke-linecap="round" stroke-linejoin="round" stroke-miterlimit="10" d="
				M20.849,193.092c2.599-1.548,4.777-0.872,6.477-6.995c1.696-6.124-3.277-4.543-2.16-8.573c-1.117,4.03-4.757,0.305-6.393,6.203
				C17.138,189.626,19.648,190.321,20.849,193.092z"/>
			<g>
				<line fill="none" x1="25.164" y1="177.524" x2="21.819" y2="189.589"/>
				<g>
					<polyline fill="none" stroke="#333333" stroke-width="0.9957" stroke-linecap="round" stroke-miterlimit="10" points="
						25.031,178.004 24.858,178.626 22.52,187.062 22.37,187.603 					"/>
					
						<line fill="none" stroke="#333333" stroke-width="0.9957" stroke-linecap="round" stroke-miterlimit="10" x1="21.952" y1="189.109" x2="21.971" y2="189.042"/>
				</g>
			</g>
		</g>
		<g>
			
				<path fill="#A1C453" stroke="#333333" stroke-width="1.4936" stroke-linecap="round" stroke-linejoin="round" stroke-miterlimit="10" d="
				M11.069,185.041c2.934,0.743,3.995,2.762,9.525-0.368c5.529-3.13,0.895-5.53,4.534-7.589c-3.641,2.06-3.58-3.147-8.905-0.134
				C10.897,179.965,12.181,182.232,11.069,185.041z"/>
			<g>
				<line fill="none" x1="25.129" y1="177.084" x2="14.233" y2="183.25"/>
				<g>
					<polyline fill="none" stroke="#333333" stroke-width="0.9957" stroke-linecap="round" stroke-miterlimit="10" points="
						24.695,177.329 24.134,177.647 16.516,181.958 16.027,182.235 					"/>
					
						<line fill="none" stroke="#333333" stroke-width="0.9957" stroke-linecap="round" stroke-miterlimit="10" x1="14.667" y1="183.005" x2="14.728" y2="182.97"/>
				</g>
			</g>
		</g>
		<g>
			
				<path fill="#A1C453" stroke="#333333" stroke-width="1.4936" stroke-linecap="round" stroke-linejoin="round" stroke-miterlimit="10" d="
				M30.82,188.703c0.787-2.243,2.441-2.934,0.38-7.479c-2.063-4.547-4.266-1.088-5.62-4.081c1.354,2.993-2.716,2.581-0.729,6.959
				C26.837,188.481,28.7,187.637,30.82,188.703z"/>
			<g>
				<line fill="none" x1="25.579" y1="177.143" x2="29.64" y2="186.1"/>
				<g>
					<polyline fill="none" stroke="#333333" stroke-width="0.9957" stroke-linecap="round" stroke-miterlimit="10" points="
						25.785,177.597 26.051,178.184 28.557,183.712 28.788,184.223 					"/>
					
						<line fill="none" stroke="#333333" stroke-width="0.9957" stroke-linecap="round" stroke-miterlimit="10" x1="29.434" y1="185.646" x2="29.405" y2="185.583"/>
				</g>
			</g>
		</g>
		<g>
			<g>
				<path fill="#EF4529" d="M59.983,181.725c2.518,2.422,2.61,7.978,0.171,8.939c-0.924,2.769-6.424,2.591-8.939,0.169
					c-2.515-2.422-3.813-6.048,0.548-8.544C53.961,178.032,57.47,179.304,59.983,181.725z"/>
				<g>
					<path fill="none" stroke="#333333" stroke-width="1.4936" stroke-linecap="round" stroke-miterlimit="10" d="M60.477,182.285
						c0.188,0.263,0.377,0.524,0.521,0.814c0.727,1.351,1.017,2.92,0.898,4.444c-0.066,0.759-0.246,1.53-0.66,2.18
						c-0.219,0.312-0.473,0.613-0.813,0.795l-0.253,0.137c-0.058,0.071-0.085,0.169-0.129,0.253
						c-0.067,0.182-0.175,0.339-0.301,0.486c-0.48,0.603-1.214,0.949-1.951,1.125c-0.746,0.177-1.521,0.203-2.284,0.133
						c-1.512-0.169-3.036-0.693-4.181-1.726c-1.104-1.04-2.065-2.34-2.353-3.859c-0.139-0.753-0.057-1.548,0.26-2.249
						c0.305-0.708,0.84-1.291,1.432-1.771c0.288-0.254,0.615-0.453,0.939-0.658c0.19-0.075,0.248-0.278,0.354-0.436
						c0.101-0.163,0.183-0.338,0.3-0.49c0.425-0.636,0.98-1.196,1.655-1.559c0.675-0.366,1.472-0.477,2.227-0.354
						c0.188,0.012,0.386,0.083,0.549,0.121c0.09,0.023,0.181,0.043,0.266,0.08c0.171,0.068,0.348,0.125,0.515,0.203"/>
					
						<line fill="none" stroke="#333333" stroke-width="1.4936" stroke-linecap="round" stroke-miterlimit="10" x1="59.428" y1="181.227" x2="59.346" y2="181.16"/>
				</g>
			</g>
			
				<ellipse transform="matrix(-0.1898 -0.9818 0.9818 -0.1898 -122.827 273.4336)" opacity="0.5" fill="#FFFFFF" enable-background="new    " cx="51.407" cy="187.396" rx="1.446" ry="1.19"/>
		</g>
		<g>
			<g>
				<path fill="#EF4529" d="M50.054,154.579c3.473-0.351,7.771,3.171,6.926,5.654c1.516,2.496-2.181,6.575-5.653,6.926
					c-3.475,0.351-7.079-1.004-6.161-5.945C43.34,156.782,46.58,154.93,50.054,154.579z"/>
				<g>
					<path fill="none" stroke="#333333" stroke-width="1.4936" stroke-linecap="round" stroke-miterlimit="10" d="M50.8,154.565
						c0.321,0.028,0.644,0.052,0.957,0.131c1.5,0.32,2.884,1.116,3.97,2.191c0.535,0.542,1.008,1.177,1.234,1.914
						c0.097,0.368,0.162,0.757,0.081,1.134l-0.06,0.281c0.02,0.089,0.074,0.175,0.109,0.262c0.095,0.169,0.146,0.353,0.176,0.543
						c0.148,0.757-0.062,1.539-0.405,2.216c-0.348,0.683-0.829,1.291-1.376,1.827c-1.106,1.043-2.492,1.867-4.021,2.07
						c-1.508,0.169-3.121,0.061-4.465-0.704c-0.664-0.383-1.217-0.96-1.546-1.653c-0.345-0.691-0.44-1.476-0.425-2.236
						c-0.007-0.385,0.055-0.764,0.106-1.143c0.066-0.194-0.053-0.369-0.104-0.551c-0.06-0.182-0.141-0.358-0.181-0.545
						c-0.21-0.735-0.275-1.522-0.116-2.271c0.158-0.751,0.59-1.43,1.172-1.927c0.13-0.135,0.313-0.24,0.445-0.34
						c0.076-0.053,0.149-0.109,0.232-0.15c0.163-0.086,0.319-0.184,0.486-0.261"/>
					
						<line fill="none" stroke="#333333" stroke-width="1.4936" stroke-linecap="round" stroke-miterlimit="10" x1="49.314" y1="154.68" x2="49.211" y2="154.699"/>
				</g>
			</g>
			
				<ellipse transform="matrix(-0.8715 -0.4904 0.4904 -0.8715 10.5859 332.3301)" opacity="0.5" fill="#FFFFFF" enable-background="new    " cx="48.835" cy="164.778" rx="1.447" ry="1.19"/>
		</g>
		<path fill="#CC924C" stroke="#333333" stroke-width="2.4893" stroke-linecap="round" stroke-miterlimit="10" d="M88.473,183.148
			L7.464,169.605c-1.026-0.165-1.726-1.131-1.561-2.159l0,0c0.165-1.025,1.133-1.724,2.158-1.559l81.167,12.56"/>
		<g>
			
				<path fill="#A1C453" stroke="#333333" stroke-width="0.9957" stroke-linecap="round" stroke-linejoin="round" stroke-miterlimit="10" d="
				M5.987,165.988c0,0-2.854,0.668-3.382,0.95c-0.424,0.223,2.504,1.349,3.628,1.563L5.987,165.988z"/>
			
				<path fill="#A1C453" stroke="#333333" stroke-width="0.9957" stroke-linecap="round" stroke-linejoin="round" stroke-miterlimit="10" d="
				M5.386,168.237l3.793-2.442c0,0-4.275-1.364-5.951-0.518C3.228,165.277,4.69,166.888,5.386,168.237z"/>
			
				<path fill="#A1C453" stroke="#333333" stroke-width="0.9957" stroke-linecap="round" stroke-linejoin="round" stroke-miterlimit="10" d="
				M10.577,169.663c0,0-5.401,1.368-7.938-0.737l3.744-2.152L10.577,169.663z"/>
		</g>
	</g>
</g>
</svg>
