<?xml version="1.0" encoding="utf-8"?>
<!-- Generator: Adobe Illustrator 16.0.0, SVG Export Plug-In . SVG Version: 6.00 Build 0)  -->
<!DOCTYPE svg PUBLIC "-//W3C//DTD SVG 1.1//EN" "http://www.w3.org/Graphics/SVG/1.1/DTD/svg11.dtd">
<svg version="1.1" id="Calque_1" xmlns="http://www.w3.org/2000/svg" xmlns:xlink="http://www.w3.org/1999/xlink" x="0px" y="0px"
	 width="340px" height="410px" viewBox="0 0 340 410" enable-background="new 0 0 340 410" xml:space="preserve">
<g id="calque00">
	<g>
		<path fill="#CC924C" stroke="#333333" stroke-width="2.4893" stroke-linecap="round" stroke-miterlimit="10" d="M96.871,174.223
			l0.497-8.809c0-1.039,0.844-1.883,1.884-1.883l0,0c1.039,0,1.882,0.844,1.882,1.883l0.499,8.809"/>
		<g>
			
				<path fill="#A1C453" stroke="#333333" stroke-width="0.9957" stroke-linecap="round" stroke-linejoin="round" stroke-miterlimit="10" d="
				M100.704,163.381c0,0-1.113-2.711-1.476-3.188c-0.287-0.383-0.934,2.688-0.967,3.83L100.704,163.381z"/>
			
				<path fill="#A1C453" stroke="#333333" stroke-width="0.9957" stroke-linecap="round" stroke-linejoin="round" stroke-miterlimit="10" d="
				M98.39,163.146l3.012,3.355c0,0,0.668-4.438-0.433-5.957C100.969,160.545,99.61,162.244,98.39,163.146z"/>
			
				<path fill="#A1C453" stroke="#333333" stroke-width="0.9957" stroke-linecap="round" stroke-linejoin="round" stroke-miterlimit="10" d="
				M97.806,168.496c0,0-2.208-5.115-0.533-7.951l2.722,3.355L97.806,168.496z"/>
		</g>
	</g>
</g>
<g id="calque01">
	<g>
		<g>
			
				<path fill="#A1C453" stroke="#333333" stroke-width="0.9957" stroke-linecap="round" stroke-linejoin="round" stroke-miterlimit="10" d="
				M92.139,151.355c1.229-0.051,1.819-0.766,3.759,0.941c1.938,1.705-0.104,2.273,1.172,3.396c-1.275-1.123-1.687,0.953-3.554-0.689
				C91.647,153.361,92.347,152.566,92.139,151.355z"/>
			<g>
				<line fill="none" x1="97.069" y1="155.693" x2="93.248" y2="152.332"/>
				<g>
					<polyline fill="none" stroke="#333333" stroke-width="0.9957" stroke-linecap="round" stroke-miterlimit="10" points="
						96.695,155.364 96.211,154.938 95.217,154.063 94.796,153.693 					"/>
					
						<line fill="none" stroke="#333333" stroke-width="0.9957" stroke-linecap="round" stroke-miterlimit="10" x1="93.622" y1="152.661" x2="93.675" y2="152.707"/>
				</g>
			</g>
		</g>
		<path fill="#CC924C" stroke="#333333" stroke-width="2.4893" stroke-linecap="round" stroke-miterlimit="10" d="M101.633,174.223
			l-0.499-27.383c0-1.039-0.843-1.883-1.883-1.883l0,0c-1.039,0-1.883,0.844-1.883,1.883l-0.497,27.383"/>
		<g>
			
				<path fill="#A1C453" stroke="#333333" stroke-width="0.9957" stroke-linecap="round" stroke-linejoin="round" stroke-miterlimit="10" d="
				M97.798,144.807c0,0,1.114-2.711,1.477-3.188c0.287-0.383,0.935,2.686,0.965,3.83L97.798,144.807z"/>
			
				<path fill="#A1C453" stroke="#333333" stroke-width="0.9957" stroke-linecap="round" stroke-linejoin="round" stroke-miterlimit="10" d="
				M100.113,144.572l-3.013,3.355c0,0-0.667-4.438,0.436-5.957C97.535,141.971,98.893,143.67,100.113,144.572z"/>
			
				<path fill="#A1C453" stroke="#333333" stroke-width="0.9957" stroke-linecap="round" stroke-linejoin="round" stroke-miterlimit="10" d="
				M100.696,149.922c0,0,2.21-5.115,0.534-7.951l-2.721,3.354L100.696,149.922z"/>
		</g>
	</g>
</g>
<g id="calque02">
	<g>
		<g>
			
				<path fill="#A1C453" stroke="#333333" stroke-width="1.4936" stroke-linecap="round" stroke-linejoin="round" stroke-miterlimit="10" d="
				M86.62,144.785c2.678-0.111,3.965-1.67,8.193,2.049s-0.228,4.957,2.555,7.404c-2.781-2.447-3.676,2.08-7.747-1.502
				C85.549,149.156,87.073,147.422,86.62,144.785z"/>
			<g>
				<line fill="none" x1="97.368" y1="154.238" x2="89.038" y2="146.912"/>
				<g>
					<polyline fill="none" stroke="#333333" stroke-width="0.9957" stroke-linecap="round" stroke-miterlimit="10" points="
						96.994,153.909 96.51,153.483 91.007,148.644 90.586,148.273 					"/>
					
						<line fill="none" stroke="#333333" stroke-width="0.9957" stroke-linecap="round" stroke-miterlimit="10" x1="89.412" y1="147.241" x2="89.465" y2="147.287"/>
				</g>
			</g>
		</g>
		<g>
			
				<path fill="#A1C453" stroke="#333333" stroke-width="0.9957" stroke-linecap="round" stroke-linejoin="round" stroke-miterlimit="10" d="
				M105.459,138.352c0.123,1.201,0.857,1.738-0.698,3.738c-1.559,2-2.234,0.031-3.26,1.348c1.024-1.316-1.034-1.596,0.466-3.521
				C103.467,137.988,104.286,138.627,105.459,138.352z"/>
			<g>
				<line fill="none" x1="101.501" y1="143.438" x2="104.253" y2="139.953"/>
				<g>
					<polyline fill="none" stroke="#333333" stroke-width="0.9957" stroke-linecap="round" stroke-miterlimit="10" points="
						101.81,143.047 102.209,142.541 102.628,142.011 102.976,141.571 					"/>
					
						<line fill="none" stroke="#333333" stroke-width="0.9957" stroke-linecap="round" stroke-miterlimit="10" x1="103.944" y1="140.344" x2="103.901" y2="140.398"/>
				</g>
			</g>
		</g>
		<path fill="#CC924C" stroke="#333333" stroke-width="2.4893" stroke-linecap="round" stroke-miterlimit="10" d="M101.633,174.223
			l-0.499-35.939c0-1.039-0.843-1.883-1.883-1.883l0,0c-1.039,0-1.883,0.844-1.883,1.883l-0.497,35.939"/>
		<g>
			
				<path fill="#A1C453" stroke="#333333" stroke-width="0.9957" stroke-linecap="round" stroke-linejoin="round" stroke-miterlimit="10" d="
				M97.798,136.25c0,0,1.114-2.711,1.477-3.188c0.287-0.383,0.935,2.686,0.965,3.83L97.798,136.25z"/>
			
				<path fill="#A1C453" stroke="#333333" stroke-width="0.9957" stroke-linecap="round" stroke-linejoin="round" stroke-miterlimit="10" d="
				M100.113,136.016l-3.013,3.355c0,0-0.668-4.438,0.436-5.957C97.535,133.414,98.894,135.113,100.113,136.016z"/>
			
				<path fill="#A1C453" stroke="#333333" stroke-width="0.9957" stroke-linecap="round" stroke-linejoin="round" stroke-miterlimit="10" d="
				M100.696,141.365c0,0,2.209-5.115,0.534-7.951l-2.721,3.354L100.696,141.365z"/>
		</g>
	</g>
</g>
<g id="calque03">
	<g>
		
			<polygon fill="#CC924C" stroke="#333333" stroke-width="0.9957" stroke-linecap="round" stroke-linejoin="round" stroke-miterlimit="10" points="
			105.15,137.932 101.134,145.65 101.134,142.842 		"/>
		<g>
			
				<path fill="#A1C453" stroke="#333333" stroke-width="1.4936" stroke-linecap="round" stroke-linejoin="round" stroke-miterlimit="10" d="
				M86.619,144.785c2.679-0.111,3.967-1.67,8.194,2.049c4.229,3.719-0.228,4.957,2.555,7.404c-2.781-2.447-3.677,2.08-7.747-1.502
				C85.549,149.156,87.073,147.422,86.619,144.785z"/>
			<g>
				<line fill="none" x1="97.368" y1="154.238" x2="88.922" y2="146.795"/>
				<g>
					<polyline fill="none" stroke="#333333" stroke-width="0.9957" stroke-linecap="round" stroke-miterlimit="10" points="
						96.995,153.909 96.511,153.482 90.889,148.528 90.469,148.158 					"/>
					
						<line fill="none" stroke="#333333" stroke-width="0.9957" stroke-linecap="round" stroke-miterlimit="10" x1="89.295" y1="147.124" x2="89.348" y2="147.17"/>
				</g>
			</g>
		</g>
		<g>
			
				<path fill="#A1C453" stroke="#333333" stroke-width="1.4936" stroke-linecap="round" stroke-linejoin="round" stroke-miterlimit="10" d="
				M113.944,126.635c0.271,2.666,1.904,3.859-1.555,8.303s-4.963,0.07-7.239,2.994c2.276-2.924-2.297-3.545,1.034-7.824
				C109.516,125.827,111.338,127.245,113.944,126.635z"/>
			<g>
				<line fill="none" x1="105.034" y1="137.814" x2="111.847" y2="129.061"/>
				<g>
					<polyline fill="none" stroke="#333333" stroke-width="0.9957" stroke-linecap="round" stroke-miterlimit="10" points="
						105.34,137.422 105.736,136.912 110.236,131.13 110.581,130.688 					"/>
					
						<line fill="none" stroke="#333333" stroke-width="0.9957" stroke-linecap="round" stroke-miterlimit="10" x1="111.541" y1="129.453" x2="111.498" y2="129.509"/>
				</g>
			</g>
		</g>
		<g>
			
				<path fill="#A1C453" stroke="#333333" stroke-width="0.9957" stroke-linecap="round" stroke-linejoin="round" stroke-miterlimit="10" d="
				M89.638,131.652c1.541-0.289,2.156-1.299,4.914,0.5c2.76,1.799,0.284,2.891,2.102,4.072c-1.816-1.182-1.954,1.514-4.61-0.219
				C89.384,134.273,90.12,133.141,89.638,131.652z"/>
			<g>
				<line fill="none" x1="96.653" y1="136.225" x2="91.216" y2="132.682"/>
				<g>
					<polyline fill="none" stroke="#333333" stroke-width="0.9957" stroke-linecap="round" stroke-miterlimit="10" points="
						96.236,135.953 95.695,135.601 93.413,134.113 92.943,133.807 					"/>
					
						<line fill="none" stroke="#333333" stroke-width="0.9957" stroke-linecap="round" stroke-miterlimit="10" x1="91.633" y1="132.953" x2="91.691" y2="132.991"/>
				</g>
			</g>
		</g>
		<path fill="#CC924C" stroke="#333333" stroke-width="2.6551" stroke-linecap="round" stroke-miterlimit="10" d="M101.633,174.223
			l-0.499-43.871c0-1.04-0.843-1.883-1.883-1.883l0,0c-1.039,0-1.883,0.843-1.883,1.883l-0.497,43.871"/>
		<g>
			
				<path fill="#A1C453" stroke="#333333" stroke-width="0.9957" stroke-linecap="round" stroke-linejoin="round" stroke-miterlimit="10" d="
				M97.798,128.318c0,0,1.114-2.711,1.477-3.188c0.287-0.383,0.935,2.686,0.965,3.83L97.798,128.318z"/>
			
				<path fill="#A1C453" stroke="#333333" stroke-width="0.9957" stroke-linecap="round" stroke-linejoin="round" stroke-miterlimit="10" d="
				M100.113,128.082l-3.013,3.357c0,0-0.667-4.438,0.435-5.959C97.534,125.48,98.893,127.182,100.113,128.082z"/>
			
				<path fill="#A1C453" stroke="#333333" stroke-width="0.9957" stroke-linecap="round" stroke-linejoin="round" stroke-miterlimit="10" d="
				M100.696,133.434c0,0,2.209-5.115,0.534-7.953l-2.721,3.355L100.696,133.434z"/>
		</g>
	</g>
</g>
<g id="calque04">
	<g>
		
			<polygon fill="#CC924C" stroke="#333333" stroke-width="0.9957" stroke-linecap="round" stroke-linejoin="round" stroke-miterlimit="10" points="
			105.15,137.932 101.134,145.65 101.134,142.842 		"/>
		
			<polygon fill="#CC924C" stroke="#333333" stroke-width="0.9957" stroke-linecap="round" stroke-linejoin="round" stroke-miterlimit="10" points="
			87.213,128.127 97.368,140.002 97.368,137.193 		"/>
		<g>
			
				<path fill="#A1C453" stroke="#333333" stroke-width="1.4936" stroke-linecap="round" stroke-linejoin="round" stroke-miterlimit="10" d="
				M86.619,144.785c2.679-0.111,3.966-1.67,8.193,2.049c4.229,3.719-0.227,4.957,2.556,7.404c-2.781-2.447-3.677,2.08-7.747-1.502
				C85.549,149.156,87.073,147.422,86.619,144.785z"/>
			<g>
				<line fill="none" x1="97.368" y1="154.238" x2="88.922" y2="146.795"/>
				<g>
					<polyline fill="none" stroke="#333333" stroke-width="0.9957" stroke-linecap="round" stroke-miterlimit="10" points="
						96.995,153.909 96.511,153.482 90.889,148.528 90.469,148.158 					"/>
					
						<line fill="none" stroke="#333333" stroke-width="0.9957" stroke-linecap="round" stroke-miterlimit="10" x1="89.295" y1="147.124" x2="89.348" y2="147.17"/>
				</g>
			</g>
		</g>
		<g>
			
				<path fill="#A1C453" stroke="#333333" stroke-width="1.4936" stroke-linecap="round" stroke-linejoin="round" stroke-miterlimit="10" d="
				M113.944,126.635c0.271,2.666,1.904,3.859-1.555,8.303s-4.965,0.07-7.239,2.994c2.274-2.924-2.297-3.545,1.034-7.824
				C109.516,125.827,111.338,127.245,113.944,126.635z"/>
			<g>
				<line fill="none" x1="105.034" y1="137.814" x2="111.847" y2="129.061"/>
				<g>
					<polyline fill="none" stroke="#333333" stroke-width="0.9957" stroke-linecap="round" stroke-miterlimit="10" points="
						105.34,137.422 105.736,136.912 110.236,131.13 110.581,130.688 					"/>
					
						<line fill="none" stroke="#333333" stroke-width="0.9957" stroke-linecap="round" stroke-miterlimit="10" x1="111.541" y1="129.453" x2="111.498" y2="129.509"/>
				</g>
			</g>
		</g>
		<g>
			
				<path fill="#A1C453" stroke="#333333" stroke-width="0.9957" stroke-linecap="round" stroke-linejoin="round" stroke-miterlimit="10" d="
				M85.827,120.119c1.216,0.83,2.294,0.568,2.933,3.594c0.638,3.025-1.729,2.106-1.311,4.098c-0.42-1.991-2.301-0.294-2.915-3.207
				C83.921,121.689,85.161,121.428,85.827,120.119z"/>
			<g>
				<line fill="none" x1="87.449" y1="127.811" x2="86.192" y2="121.85"/>
				<g>
					<polyline fill="none" stroke="#333333" stroke-width="0.9957" stroke-linecap="round" stroke-miterlimit="10" points="
						87.347,127.323 87.214,126.692 86.733,124.415 86.618,123.867 					"/>
					
						<line fill="none" stroke="#333333" stroke-width="0.9957" stroke-linecap="round" stroke-miterlimit="10" x1="86.295" y1="122.337" x2="86.31" y2="122.405"/>
				</g>
			</g>
		</g>
		<g>
			
				<path fill="#A1C453" stroke="#333333" stroke-width="1.4936" stroke-linecap="round" stroke-linejoin="round" stroke-miterlimit="10" d="
				M73.827,119.713c2.973-0.559,4.158-2.507,9.481,0.963c5.322,3.47,0.547,5.576,4.051,7.858c-3.504-2.282-3.77,2.917-8.895-0.425
				C73.337,124.768,74.76,122.586,73.827,119.713z"/>
			<g>
				<line fill="none" x1="87.36" y1="128.534" x2="76.872" y2="121.699"/>
				<g>
					<polyline fill="none" stroke="#333333" stroke-width="0.9957" stroke-linecap="round" stroke-miterlimit="10" points="
						86.943,128.263 86.402,127.91 79.068,123.131 78.6,122.824 					"/>
					
						<line fill="none" stroke="#333333" stroke-width="0.9957" stroke-linecap="round" stroke-miterlimit="10" x1="77.289" y1="121.971" x2="77.348" y2="122.01"/>
				</g>
			</g>
		</g>
		<g>
			
				<path fill="#A1C453" stroke="#333333" stroke-width="0.9957" stroke-linecap="round" stroke-linejoin="round" stroke-miterlimit="10" d="
				M106.095,107.814c0.123,1.388,0.963,2.018-0.865,4.303c-1.827,2.285-2.58,0.003-3.78,1.507c1.2-1.504-1.171-1.857,0.591-4.058
				C103.8,107.365,104.735,108.113,106.095,107.814z"/>
			<g>
				<line fill="none" x1="101.448" y1="113.624" x2="105.05" y2="109.122"/>
				<g>
					<polyline fill="none" stroke="#333333" stroke-width="0.9957" stroke-linecap="round" stroke-miterlimit="10" points="
						101.759,113.235 102.162,112.731 103.412,111.17 103.762,110.731 					"/>
					
						<line fill="none" stroke="#333333" stroke-width="0.9957" stroke-linecap="round" stroke-miterlimit="10" x1="104.739" y1="109.511" x2="104.695" y2="109.565"/>
				</g>
			</g>
		</g>
		<path fill="#CC924C" stroke="#333333" stroke-width="2.6551" stroke-linecap="round" stroke-miterlimit="10" d="M101.633,174.223
			l-0.499-63.814c0-1.039-0.843-1.883-1.883-1.883l0,0c-1.039,0-1.883,0.844-1.883,1.883l-0.497,63.814"/>
		<g>
			
				<path fill="#A1C453" stroke="#333333" stroke-width="0.9957" stroke-linecap="round" stroke-linejoin="round" stroke-miterlimit="10" d="
				M97.798,108.375c0,0,1.114-2.712,1.477-3.188c0.287-0.383,0.935,2.686,0.965,3.83L97.798,108.375z"/>
			
				<path fill="#A1C453" stroke="#333333" stroke-width="0.9957" stroke-linecap="round" stroke-linejoin="round" stroke-miterlimit="10" d="
				M100.113,108.139l-3.013,3.357c0,0-0.668-4.438,0.435-5.959C97.534,105.537,98.893,107.238,100.113,108.139z"/>
			
				<path fill="#A1C453" stroke="#333333" stroke-width="0.9957" stroke-linecap="round" stroke-linejoin="round" stroke-miterlimit="10" d="
				M100.696,113.49c0,0,2.209-5.115,0.534-7.953l-2.721,3.355L100.696,113.49z"/>
		</g>
		<g>
			
				<path fill="#FFFFFF" stroke="#333333" stroke-width="0.9957" stroke-linecap="round" stroke-linejoin="round" stroke-miterlimit="10" d="
				M106.128,137.865c-0.387,0.223-0.396,1.109-0.326,1.773c0.12,1.199,1.311,2.627,2.523,1.926c1.219-0.703,0.584-2.453-0.39-3.158
				C107.395,138.016,106.516,137.641,106.128,137.865z"/>
			
				<path fill="#FFFFFF" stroke="#333333" stroke-width="0.9957" stroke-linecap="round" stroke-linejoin="round" stroke-miterlimit="10" d="
				M106.03,137.799c0-0.445-0.766-0.896-1.375-1.17c-1.097-0.496-2.929-0.18-2.929,1.223c0,1.408,1.832,1.732,2.929,1.242
				C105.265,138.82,106.03,138.246,106.03,137.799z"/>
			
				<path fill="#FFFFFF" stroke="#333333" stroke-width="0.9957" stroke-linecap="round" stroke-linejoin="round" stroke-miterlimit="10" d="
				M106.129,137.748c0.386,0.223,1.159-0.215,1.7-0.605c0.979-0.703,1.618-2.447,0.405-3.148c-1.221-0.703-2.416,0.721-2.541,1.916
				C105.627,136.574,105.741,137.523,106.129,137.748z"/>
			
				<path fill="#FFFFFF" stroke="#333333" stroke-width="0.9957" stroke-linecap="round" stroke-linejoin="round" stroke-miterlimit="10" d="
				M106.249,137.834c0,0.445,0.766,0.896,1.375,1.17c1.097,0.494,2.93,0.178,2.93-1.223c0-1.408-1.833-1.73-2.93-1.242
				C107.015,136.813,106.249,137.385,106.249,137.834z"/>
			
				<path fill="#FFFFFF" stroke="#333333" stroke-width="0.9957" stroke-linecap="round" stroke-linejoin="round" stroke-miterlimit="10" d="
				M106.146,137.883c-0.387-0.223-1.16,0.213-1.701,0.604c-0.978,0.703-1.618,2.449-0.405,3.148
				c1.221,0.705,2.416-0.721,2.541-1.916C106.646,139.055,106.533,138.105,106.146,137.883z"/>
			
				<path fill="#FFFFFF" stroke="#333333" stroke-width="0.9957" stroke-linecap="round" stroke-linejoin="round" stroke-miterlimit="10" d="
				M106.167,137.758c0.386-0.221,0.394-1.109,0.326-1.773c-0.121-1.199-1.312-2.627-2.524-1.926
				c-1.219,0.703-0.583,2.453,0.39,3.156C104.899,137.607,105.778,137.982,106.167,137.758z"/>
			
				<circle fill="#F9D53E" stroke="#333333" stroke-width="0.9957" stroke-linecap="round" stroke-linejoin="round" stroke-miterlimit="10" cx="106.25" cy="137.834" r="0.927"/>
		</g>
	</g>
</g>
<g id="calque05">
	<g>
		
			<polygon fill="#CC924C" stroke="#333333" stroke-width="0.9957" stroke-linecap="round" stroke-linejoin="round" stroke-miterlimit="10" points="
			105.15,137.932 101.134,145.65 101.134,142.842 		"/>
		
			<polygon fill="#CC924C" stroke="#333333" stroke-width="0.9957" stroke-linecap="round" stroke-linejoin="round" stroke-miterlimit="10" points="
			105.711,110.719 101.134,116.277 101.134,113.467 		"/>
		
			<polygon fill="#CC924C" stroke="#333333" stroke-width="0.9957" stroke-linecap="round" stroke-linejoin="round" stroke-miterlimit="10" points="
			87.213,128.127 97.368,140.002 97.368,137.193 		"/>
		<g>
			
				<path fill="#A1C453" stroke="#333333" stroke-width="1.4936" stroke-linecap="round" stroke-linejoin="round" stroke-miterlimit="10" d="
				M86.619,144.785c2.679-0.111,3.967-1.67,8.194,2.049c4.229,3.719-0.228,4.957,2.555,7.404c-2.781-2.447-3.677,2.08-7.747-1.502
				C85.549,149.156,87.073,147.422,86.619,144.785z"/>
			<g>
				<line fill="none" x1="97.368" y1="154.238" x2="88.922" y2="146.795"/>
				<g>
					<polyline fill="none" stroke="#333333" stroke-width="0.9957" stroke-linecap="round" stroke-miterlimit="10" points="
						96.995,153.909 96.511,153.482 90.889,148.528 90.469,148.158 					"/>
					
						<line fill="none" stroke="#333333" stroke-width="0.9957" stroke-linecap="round" stroke-miterlimit="10" x1="89.295" y1="147.124" x2="89.348" y2="147.17"/>
				</g>
			</g>
		</g>
		<g>
			
				<path fill="#A1C453" stroke="#333333" stroke-width="1.4936" stroke-linecap="round" stroke-linejoin="round" stroke-miterlimit="10" d="
				M113.944,126.635c0.271,2.666,1.904,3.859-1.555,8.303s-4.963,0.07-7.239,2.994c2.276-2.924-2.296-3.545,1.034-7.824
				C109.516,125.827,111.338,127.245,113.944,126.635z"/>
			<g>
				<line fill="none" x1="105.034" y1="137.814" x2="111.849" y2="129.061"/>
				<g>
					<polyline fill="none" stroke="#333333" stroke-width="0.9957" stroke-linecap="round" stroke-miterlimit="10" points="
						105.34,137.422 105.736,136.912 110.238,131.13 110.582,130.688 					"/>
					
						<line fill="none" stroke="#333333" stroke-width="0.9957" stroke-linecap="round" stroke-miterlimit="10" x1="111.543" y1="129.453" x2="111.5" y2="129.509"/>
				</g>
			</g>
		</g>
		<g>
			
				<path fill="#A1C453" stroke="#333333" stroke-width="1.4936" stroke-linecap="round" stroke-linejoin="round" stroke-miterlimit="10" d="
				M84.091,112.289c2.497,1.707,4.714,1.169,6.025,7.387c1.311,6.218-3.557,4.33-2.693,8.421c-0.862-4.091-4.729-0.603-5.989-6.591
				C80.171,115.518,82.72,114.98,84.091,112.289z"/>
			<g>
				<line fill="none" x1="87.423" y1="128.097" x2="84.841" y2="115.847"/>
				<g>
					<polyline fill="none" stroke="#333333" stroke-width="0.9957" stroke-linecap="round" stroke-miterlimit="10" points="
						87.32,127.609 87.188,126.979 85.382,118.412 85.266,117.864 					"/>
					
						<line fill="none" stroke="#333333" stroke-width="0.9957" stroke-linecap="round" stroke-miterlimit="10" x1="84.943" y1="116.334" x2="84.958" y2="116.402"/>
				</g>
			</g>
		</g>
		<g>
			
				<path fill="#A1C453" stroke="#333333" stroke-width="1.4936" stroke-linecap="round" stroke-linejoin="round" stroke-miterlimit="10" d="
				M73.827,119.713c2.973-0.559,4.158-2.507,9.482,0.963c5.323,3.47,0.546,5.576,4.05,7.858c-3.504-2.282-3.77,2.917-8.895-0.425
				C73.337,124.768,74.76,122.586,73.827,119.713z"/>
			<g>
				<line fill="none" x1="87.36" y1="128.534" x2="76.874" y2="121.699"/>
				<g>
					<polyline fill="none" stroke="#333333" stroke-width="0.9957" stroke-linecap="round" stroke-miterlimit="10" points="
						86.943,128.263 86.403,127.91 79.07,123.131 78.601,122.825 					"/>
					
						<line fill="none" stroke="#333333" stroke-width="0.9957" stroke-linecap="round" stroke-miterlimit="10" x1="77.291" y1="121.971" x2="77.35" y2="122.01"/>
				</g>
			</g>
		</g>
		<g>
			
				<path fill="#A1C453" stroke="#333333" stroke-width="0.9957" stroke-linecap="round" stroke-linejoin="round" stroke-miterlimit="10" d="
				M93.005,101.486c1.205,0.177,1.912-0.41,3.483,1.606c1.572,2.016-0.521,2.192,0.515,3.52c-1.035-1.327-1.815,0.617-3.329-1.324
				C92.159,103.346,92.985,102.701,93.005,101.486z"/>
			<g>
				<line fill="none" x1="97.003" y1="106.612" x2="93.905" y2="102.641"/>
				<g>
					<polyline fill="none" stroke="#333333" stroke-width="0.9957" stroke-linecap="round" stroke-miterlimit="10" points="
						96.696,106.22 96.3,105.711 95.518,104.708 95.173,104.266 					"/>
					
						<line fill="none" stroke="#333333" stroke-width="0.9957" stroke-linecap="round" stroke-miterlimit="10" x1="94.212" y1="103.033" x2="94.255" y2="103.088"/>
				</g>
			</g>
		</g>
		<g>
			
				<path fill="#A1C453" stroke="#333333" stroke-width="0.9957" stroke-linecap="round" stroke-linejoin="round" stroke-miterlimit="10" d="
				M111.778,103.641c0.148,1.668,1.156,2.426-1.039,5.171c-2.194,2.746-3.1,0.003-4.544,1.81c1.444-1.807-1.403-2.232,0.71-4.875
				C109.021,103.102,110.146,104.002,111.778,103.641z"/>
			<g>
				<line fill="none" x1="106.195" y1="110.621" x2="110.521" y2="105.213"/>
				<g>
					<polyline fill="none" stroke="#333333" stroke-width="0.9957" stroke-linecap="round" stroke-miterlimit="10" points="
						106.506,110.232 106.909,109.729 108.884,107.261 109.233,106.822 					"/>
					
						<line fill="none" stroke="#333333" stroke-width="0.9957" stroke-linecap="round" stroke-miterlimit="10" x1="110.211" y1="105.602" x2="110.167" y2="105.656"/>
				</g>
			</g>
		</g>
		<g>
			
				<path fill="#A1C453" stroke="#333333" stroke-width="1.4936" stroke-linecap="round" stroke-linejoin="round" stroke-miterlimit="10" d="
				M116.277,118.185c-2.339,0.419-3.282,1.942-7.443-0.814c-4.16-2.759-0.396-4.384-3.136-6.198c2.738,1.814,2.979-2.27,6.986,0.387
				C116.693,114.216,115.562,115.922,116.277,118.185z"/>
			<g>
				<line fill="none" x1="105.582" y1="111.055" x2="113.78" y2="116.489"/>
				<g>
					<polyline fill="none" stroke="#333333" stroke-width="0.9957" stroke-linecap="round" stroke-miterlimit="10" points="
						105.997,111.33 106.534,111.687 111.595,115.041 112.063,115.351 					"/>
					
						<line fill="none" stroke="#333333" stroke-width="0.9957" stroke-linecap="round" stroke-miterlimit="10" x1="113.365" y1="116.214" x2="113.307" y2="116.176"/>
				</g>
			</g>
		</g>
		<path fill="#CC924C" stroke="#333333" stroke-width="2.6551" stroke-linecap="round" stroke-miterlimit="10" d="M101.633,174.223
			l-0.499-72.656c0-1.039-0.843-1.882-1.883-1.882l0,0c-1.039,0-1.883,0.843-1.883,1.882l-0.497,72.656"/>
		<g>
			<g>
				<path fill="#D3F46C" d="M110.106,141.719c-0.674,2.229-3.942,3.969-5.254,2.813c-1.924,0.293-3.486-3.027-2.813-5.256
					s2.434-4.1,5.237-2.268C110.474,137.021,110.782,139.49,110.106,141.719z"/>
				<g>
					<path fill="none" stroke="#333333" stroke-width="0.9957" stroke-linecap="round" stroke-miterlimit="10" d="M109.924,142.182
						c-0.1,0.19-0.196,0.383-0.326,0.556c-0.581,0.841-1.426,1.489-2.366,1.882c-0.471,0.189-0.981,0.317-1.494,0.268
						c-0.251-0.034-0.508-0.094-0.718-0.241l-0.158-0.108c-0.061-0.01-0.127,0.002-0.188,0.001c-0.129,0.016-0.255-0.002-0.38-0.031
						c-1.025-0.242-1.655-1.217-2.031-2.134c-0.358-0.949-0.509-2.013-0.242-3.006c0.282-0.971,0.763-1.936,1.578-2.566
						c0.813-0.656,1.987-0.667,2.898-0.215c0.237,0.095,0.456,0.229,0.676,0.359c0.222,0.129,0.502,0.05,0.748,0.105
						c0.506,0.06,1.007,0.221,1.428,0.511s0.729,0.729,0.885,1.215c0.051,0.115,0.066,0.255,0.096,0.362
						c0.013,0.061,0.027,0.12,0.031,0.182c0.013,0.122,0.031,0.244,0.036,0.367"/>
					
						<line fill="none" stroke="#333333" stroke-width="0.9957" stroke-linecap="round" stroke-miterlimit="10" x1="110.234" y1="141.237" x2="110.248" y2="141.169"/>
				</g>
			</g>
			
				<ellipse transform="matrix(0.7877 -0.616 0.616 0.7877 -63.1169 93.5164)" opacity="0.5" fill="#FFFFFF" enable-background="new    " cx="104.14" cy="138.345" rx="0.964" ry="0.793"/>
		</g>
		<g>
			
				<path fill="#A1C453" stroke="#333333" stroke-width="0.9957" stroke-linecap="round" stroke-linejoin="round" stroke-miterlimit="10" d="
				M97.798,99.533c0,0,1.114-2.711,1.477-3.188c0.287-0.383,0.935,2.688,0.965,3.83L97.798,99.533z"/>
			
				<path fill="#A1C453" stroke="#333333" stroke-width="0.9957" stroke-linecap="round" stroke-linejoin="round" stroke-miterlimit="10" d="
				M100.114,99.298l-3.014,3.356c0,0-0.667-4.437,0.435-5.957C97.534,96.697,98.893,98.397,100.114,99.298z"/>
			
				<path fill="#A1C453" stroke="#333333" stroke-width="0.9957" stroke-linecap="round" stroke-linejoin="round" stroke-miterlimit="10" d="
				M100.696,104.649c0,0,2.209-5.116,0.534-7.952l-2.721,3.354L100.696,104.649z"/>
		</g>
		<g>
			
				<path fill="#FFFFFF" stroke="#333333" stroke-width="0.9957" stroke-linecap="round" stroke-linejoin="round" stroke-miterlimit="10" d="
				M94.917,107.163c-0.385,0.223-0.394,1.11-0.326,1.775c0.121,1.197,1.311,2.626,2.525,1.925c1.219-0.703,0.583-2.452-0.391-3.158
				C96.186,107.314,95.306,106.938,94.917,107.163z"/>
			
				<path fill="#FFFFFF" stroke="#333333" stroke-width="0.9957" stroke-linecap="round" stroke-linejoin="round" stroke-miterlimit="10" d="
				M94.819,107.098c0-0.445-0.764-0.896-1.373-1.17c-1.098-0.496-2.93-0.179-2.93,1.223c0,1.408,1.832,1.73,2.929,1.241
				C94.056,108.118,94.819,107.546,94.819,107.098z"/>
			
				<path fill="#FFFFFF" stroke="#333333" stroke-width="0.9957" stroke-linecap="round" stroke-linejoin="round" stroke-miterlimit="10" d="
				M94.919,107.047c0.386,0.223,1.158-0.215,1.701-0.605c0.977-0.703,1.618-2.447,0.403-3.148c-1.219-0.703-2.414,0.722-2.539,1.916
				C94.417,105.873,94.53,106.822,94.919,107.047z"/>
			
				<path fill="#FFFFFF" stroke="#333333" stroke-width="0.9957" stroke-linecap="round" stroke-linejoin="round" stroke-miterlimit="10" d="
				M95.04,107.133c0,0.446,0.766,0.896,1.374,1.17c1.099,0.495,2.93,0.179,2.93-1.223c0-1.408-1.831-1.732-2.93-1.242
				C95.806,106.111,95.04,106.684,95.04,107.133z"/>
			
				<path fill="#FFFFFF" stroke="#333333" stroke-width="0.9957" stroke-linecap="round" stroke-linejoin="round" stroke-miterlimit="10" d="
				M94.935,107.181c-0.386-0.223-1.158,0.215-1.699,0.605c-0.978,0.702-1.618,2.448-0.405,3.148c1.219,0.704,2.414-0.721,2.54-1.916
				C95.437,108.354,95.324,107.405,94.935,107.181z"/>
			
				<path fill="#FFFFFF" stroke="#333333" stroke-width="0.9957" stroke-linecap="round" stroke-linejoin="round" stroke-miterlimit="10" d="
				M94.956,107.058c0.387-0.223,0.395-1.11,0.326-1.775c-0.119-1.197-1.311-2.626-2.522-1.925c-1.22,0.703-0.585,2.452,0.388,3.157
				C93.69,106.906,94.568,107.282,94.956,107.058z"/>
			
				<circle fill="#F9D53E" stroke="#333333" stroke-width="0.9957" stroke-linecap="round" stroke-linejoin="round" stroke-miterlimit="10" cx="95.04" cy="107.133" r="0.926"/>
		</g>
	</g>
</g>
<g id="calque06">
	<g>
		
			<polygon fill="#CC924C" stroke="#333333" stroke-width="0.9957" stroke-linecap="round" stroke-linejoin="round" stroke-miterlimit="10" points="
			105.15,137.932 101.134,145.65 101.134,142.842 		"/>
		
			<polygon fill="#CC924C" stroke="#333333" stroke-width="0.9957" stroke-linecap="round" stroke-linejoin="round" stroke-miterlimit="10" points="
			105.711,110.719 101.134,116.277 101.134,113.467 		"/>
		
			<polygon fill="#CC924C" stroke="#333333" stroke-width="0.9957" stroke-linecap="round" stroke-linejoin="round" stroke-miterlimit="10" points="
			87.213,128.127 97.368,140.002 97.368,137.193 		"/>
		
			<polygon fill="#CC924C" stroke="#333333" stroke-width="0.9957" stroke-linecap="round" stroke-linejoin="round" stroke-miterlimit="10" points="
			92.492,101.938 97.368,108.223 97.368,106.408 		"/>
		<g>
			
				<path fill="#A1C453" stroke="#333333" stroke-width="1.4936" stroke-linecap="round" stroke-linejoin="round" stroke-miterlimit="10" d="
				M86.619,144.785c2.679-0.111,3.966-1.67,8.193,2.049c4.229,3.719-0.227,4.957,2.556,7.404c-2.781-2.447-3.677,2.08-7.747-1.502
				C85.549,149.156,87.073,147.422,86.619,144.785z"/>
			<g>
				<line fill="none" x1="97.368" y1="154.238" x2="88.922" y2="146.795"/>
				<g>
					<polyline fill="none" stroke="#333333" stroke-width="0.9957" stroke-linecap="round" stroke-miterlimit="10" points="
						96.995,153.909 96.511,153.482 90.889,148.528 90.469,148.158 					"/>
					
						<line fill="none" stroke="#333333" stroke-width="0.9957" stroke-linecap="round" stroke-miterlimit="10" x1="89.295" y1="147.124" x2="89.348" y2="147.17"/>
				</g>
			</g>
		</g>
		<g>
			
				<path fill="#A1C453" stroke="#333333" stroke-width="1.4936" stroke-linecap="round" stroke-linejoin="round" stroke-miterlimit="10" d="
				M113.944,126.635c0.271,2.666,1.904,3.859-1.555,8.303s-4.965,0.07-7.239,2.994c2.274-2.924-2.297-3.545,1.034-7.824
				C109.516,125.827,111.338,127.245,113.944,126.635z"/>
			<g>
				<line fill="none" x1="105.034" y1="137.814" x2="111.847" y2="129.061"/>
				<g>
					<polyline fill="none" stroke="#333333" stroke-width="0.9957" stroke-linecap="round" stroke-miterlimit="10" points="
						105.34,137.422 105.736,136.912 110.236,131.13 110.581,130.688 					"/>
					
						<line fill="none" stroke="#333333" stroke-width="0.9957" stroke-linecap="round" stroke-miterlimit="10" x1="111.541" y1="129.453" x2="111.498" y2="129.509"/>
				</g>
			</g>
		</g>
		<g>
			
				<path fill="#A1C453" stroke="#333333" stroke-width="1.4936" stroke-linecap="round" stroke-linejoin="round" stroke-miterlimit="10" d="
				M84.091,112.289c2.497,1.707,4.714,1.169,6.025,7.387c1.311,6.218-3.558,4.33-2.693,8.421c-0.863-4.091-4.729-0.603-5.99-6.591
				C80.172,115.518,82.72,114.98,84.091,112.289z"/>
			<g>
				<line fill="none" x1="87.423" y1="128.097" x2="84.841" y2="115.847"/>
				<g>
					<polyline fill="none" stroke="#333333" stroke-width="0.9957" stroke-linecap="round" stroke-miterlimit="10" points="
						87.32,127.609 87.188,126.979 85.382,118.412 85.266,117.864 					"/>
					
						<line fill="none" stroke="#333333" stroke-width="0.9957" stroke-linecap="round" stroke-miterlimit="10" x1="84.943" y1="116.334" x2="84.958" y2="116.402"/>
				</g>
			</g>
		</g>
		<g>
			
				<path fill="#A1C453" stroke="#333333" stroke-width="1.4936" stroke-linecap="round" stroke-linejoin="round" stroke-miterlimit="10" d="
				M73.827,119.713c2.973-0.559,4.158-2.507,9.481,0.963c5.322,3.47,0.547,5.576,4.051,7.858c-3.504-2.282-3.77,2.917-8.895-0.425
				C73.337,124.768,74.76,122.586,73.827,119.713z"/>
			<g>
				<line fill="none" x1="87.36" y1="128.534" x2="76.872" y2="121.699"/>
				<g>
					<polyline fill="none" stroke="#333333" stroke-width="0.9957" stroke-linecap="round" stroke-miterlimit="10" points="
						86.943,128.263 86.402,127.91 79.068,123.131 78.6,122.824 					"/>
					
						<line fill="none" stroke="#333333" stroke-width="0.9957" stroke-linecap="round" stroke-miterlimit="10" x1="77.289" y1="121.971" x2="77.348" y2="122.01"/>
				</g>
			</g>
		</g>
		<g>
			
				<path fill="#A1C453" stroke="#333333" stroke-width="0.9957" stroke-linecap="round" stroke-linejoin="round" stroke-miterlimit="10" d="
				M88.429,97.366c1.322,0.193,2.098-0.45,3.823,1.763c1.725,2.213-0.571,2.407,0.563,3.863c-1.135-1.456-1.991,0.678-3.653-1.453
				C87.5,99.407,88.407,98.7,88.429,97.366z"/>
			<g>
				<line fill="none" x1="92.815" y1="102.992" x2="89.417" y2="98.633"/>
				<g>
					<polyline fill="none" stroke="#333333" stroke-width="0.9957" stroke-linecap="round" stroke-miterlimit="10" points="
						92.51,102.6 92.112,102.091 91.029,100.701 90.685,100.259 					"/>
					
						<line fill="none" stroke="#333333" stroke-width="0.9957" stroke-linecap="round" stroke-miterlimit="10" x1="89.723" y1="99.025" x2="89.767" y2="99.081"/>
				</g>
			</g>
		</g>
		<g>
			
				<path fill="#A1C453" stroke="#333333" stroke-width="1.4936" stroke-linecap="round" stroke-linejoin="round" stroke-miterlimit="10" d="
				M80.309,100.984c1.923-1.434,2.091-3.236,7.093-2.617c5.002,0.619,2.332,3.783,5.625,4.189c-3.293-0.406-1.672,3.392-6.487,2.796
				C81.72,104.756,81.974,102.705,80.309,100.984z"/>
			<g>
				<line fill="none" x1="93.026" y1="102.557" x2="83.171" y2="101.338"/>
				<g>
					<polyline fill="none" stroke="#333333" stroke-width="0.9957" stroke-linecap="round" stroke-miterlimit="10" points="
						92.532,102.495 91.892,102.416 85.773,101.66 85.217,101.591 					"/>
					
						<line fill="none" stroke="#333333" stroke-width="0.9957" stroke-linecap="round" stroke-miterlimit="10" x1="83.665" y1="101.399" x2="83.734" y2="101.407"/>
				</g>
			</g>
		</g>
		<g>
			
				<path fill="#A1C453" stroke="#333333" stroke-width="0.9957" stroke-linecap="round" stroke-linejoin="round" stroke-miterlimit="10" d="
				M115.107,110.01c-1.106,1.323-0.925,2.611-4.523,3.012c-3.603,0.4-2.263-2.256-4.633-1.992c2.37-0.264,0.604-2.65,4.071-3.037
				C113.491,107.607,113.655,109.083,115.107,110.01z"/>
			<g>
				<line fill="none" x1="105.884" y1="110.963" x2="112.98" y2="110.173"/>
				<g>
					<polyline fill="none" stroke="#333333" stroke-width="0.9957" stroke-linecap="round" stroke-miterlimit="10" points="
						106.379,110.908 107.02,110.836 110.375,110.463 110.932,110.401 					"/>
					
						<line fill="none" stroke="#333333" stroke-width="0.9957" stroke-linecap="round" stroke-miterlimit="10" x1="112.485" y1="110.228" x2="112.416" y2="110.235"/>
				</g>
			</g>
		</g>
		<g>
			
				<path fill="#A1C453" stroke="#333333" stroke-width="1.4936" stroke-linecap="round" stroke-linejoin="round" stroke-miterlimit="10" d="
				M115.801,98.102c0.268,3.014,2.093,4.384-1.876,9.346c-3.969,4.963-5.604,0.006-8.214,3.271c2.61-3.266-2.538-4.033,1.284-8.813
				C110.817,97.126,112.852,98.754,115.801,98.102z"/>
			<g>
				<line fill="none" x1="105.711" y1="110.719" x2="113.529" y2="100.941"/>
				<g>
					<polyline fill="none" stroke="#333333" stroke-width="0.9957" stroke-linecap="round" stroke-miterlimit="10" points="
						106.021,110.33 106.425,109.826 111.892,102.989 112.242,102.552 					"/>
					
						<line fill="none" stroke="#333333" stroke-width="0.9957" stroke-linecap="round" stroke-miterlimit="10" x1="113.219" y1="101.33" x2="113.175" y2="101.385"/>
				</g>
			</g>
		</g>
		<g>
			
				<path fill="#A1C453" stroke="#333333" stroke-width="1.4936" stroke-linecap="round" stroke-linejoin="round" stroke-miterlimit="10" d="
				M116.277,118.185c-2.341,0.419-3.283,1.942-7.443-0.814c-4.162-2.759-0.396-4.384-3.136-6.198
				c2.738,1.814,2.979-2.27,6.986,0.387C116.693,114.216,115.562,115.922,116.277,118.185z"/>
			<g>
				<line fill="none" x1="105.582" y1="111.055" x2="113.778" y2="116.489"/>
				<g>
					<polyline fill="none" stroke="#333333" stroke-width="0.9957" stroke-linecap="round" stroke-miterlimit="10" points="
						105.997,111.33 106.534,111.687 111.593,115.04 112.061,115.35 					"/>
					
						<line fill="none" stroke="#333333" stroke-width="0.9957" stroke-linecap="round" stroke-miterlimit="10" x1="113.363" y1="116.214" x2="113.305" y2="116.176"/>
				</g>
			</g>
		</g>
		<path fill="#CC924C" stroke="#333333" stroke-width="2.6551" stroke-linecap="round" stroke-miterlimit="10" d="M101.633,174.223
			l-0.499-82.133c0-1.039-0.843-1.883-1.883-1.883l0,0c-1.039,0-1.883,0.844-1.883,1.883l-0.497,82.133"/>
		<g>
			<g>
				<path fill="#D3F46C" d="M97.086,105.869c0.267,2.178-1.887,4.924-3.458,4.427c-1.547,0.984-4.158-1.281-4.426-3.458
					c-0.268-2.177,0.535-4.459,3.649-3.949C95.611,101.684,96.818,103.693,97.086,105.869z"/>
				<g>
					<path fill="none" stroke="#333333" stroke-width="0.9957" stroke-linecap="round" stroke-miterlimit="10" d="M97.103,106.366
						c-0.009,0.215-0.032,0.429-0.079,0.64c-0.196,0.933-0.673,1.802-1.337,2.484c-0.334,0.336-0.725,0.635-1.181,0.78
						c-0.229,0.064-0.47,0.107-0.704,0.058l-0.176-0.031l-0.16,0.078c-0.104,0.062-0.22,0.092-0.337,0.115
						c-0.966,0.176-1.87-0.414-2.541-1.052c-0.663-0.674-1.204-1.518-1.36-2.464c-0.135-0.934-0.102-1.937,0.335-2.794
						c0.218-0.424,0.555-0.79,0.976-1.018c0.42-0.231,0.898-0.323,1.374-0.34c0.972,0.249,1.821-0.44,2.802-0.27
						c0.475,0.06,0.92,0.288,1.256,0.626c0.077,0.086,0.175,0.173,0.232,0.262l0.108,0.148c0.075,0.098,0.127,0.21,0.192,0.314"/>
					
						<line fill="none" stroke="#333333" stroke-width="0.9957" stroke-linecap="round" stroke-miterlimit="10" x1="97.007" y1="105.378" x2="96.992" y2="105.31"/>
				</g>
			</g>
			
				<ellipse transform="matrix(0.4711 -0.8821 0.8821 0.4711 -44.8829 135.6305)" opacity="0.5" fill="#FFFFFF" enable-background="new    " cx="90.661" cy="105.243" rx="0.909" ry="0.748"/>
		</g>
		<g>
			<g>
				<path fill="#D3F46C" d="M111.298,143.654c-1.012,3.342-5.916,5.953-7.883,4.219c-2.888,0.438-5.23-4.541-4.218-7.883
					c1.011-3.342,3.649-6.148,7.855-3.4C111.847,136.609,112.312,140.313,111.298,143.654z"/>
				<g>
					<path fill="none" stroke="#333333" stroke-width="1.4936" stroke-linecap="round" stroke-miterlimit="10" d="M111.023,144.349
						c-0.148,0.286-0.295,0.574-0.488,0.833c-0.872,1.262-2.14,2.233-3.55,2.822c-0.707,0.285-1.475,0.477-2.24,0.403
						c-0.377-0.053-0.763-0.142-1.077-0.362l-0.237-0.162c-0.09-0.018-0.188,0.002-0.284,0c-0.191,0.023-0.382-0.001-0.568-0.046
						c-0.757-0.154-1.397-0.649-1.892-1.227c-0.497-0.583-0.872-1.263-1.157-1.973c-0.536-1.424-0.763-3.02-0.362-4.508
						c0.424-1.457,1.143-2.905,2.366-3.852c0.607-0.465,1.354-0.753,2.12-0.79c0.771-0.052,1.531,0.161,2.228,0.469
						c0.356,0.142,0.685,0.344,1.015,0.539c0.153,0.136,0.36,0.093,0.548,0.114c0.191,0.017,0.386,0.009,0.573,0.044
						c0.759,0.089,1.511,0.33,2.142,0.766c0.633,0.435,1.095,1.094,1.328,1.821c0.074,0.172,0.102,0.381,0.143,0.544
						c0.021,0.09,0.044,0.18,0.049,0.271c0.018,0.184,0.047,0.366,0.054,0.551"/>
					
						<line fill="none" stroke="#333333" stroke-width="1.4936" stroke-linecap="round" stroke-miterlimit="10" x1="111.489" y1="142.933" x2="111.511" y2="142.83"/>
				</g>
			</g>
			
				<ellipse transform="matrix(0.7878 -0.6159 0.6159 0.7878 -63.6494 92.4514)" opacity="0.5" fill="#FFFFFF" enable-background="new    " cx="102.351" cy="138.601" rx="1.446" ry="1.19"/>
		</g>
		<g>
			
				<path fill="#A1C453" stroke="#333333" stroke-width="0.9957" stroke-linecap="round" stroke-linejoin="round" stroke-miterlimit="10" d="
				M97.798,90.057c0,0,1.114-2.711,1.477-3.188c0.287-0.383,0.935,2.687,0.965,3.83L97.798,90.057z"/>
			
				<path fill="#A1C453" stroke="#333333" stroke-width="0.9957" stroke-linecap="round" stroke-linejoin="round" stroke-miterlimit="10" d="
				M100.113,89.82L97.1,93.177c0,0-0.668-4.438,0.435-5.958C97.534,87.22,98.893,88.92,100.113,89.82z"/>
			
				<path fill="#A1C453" stroke="#333333" stroke-width="0.9957" stroke-linecap="round" stroke-linejoin="round" stroke-miterlimit="10" d="
				M100.696,95.172c0,0,2.209-5.115,0.534-7.952l-2.721,3.354L100.696,95.172z"/>
		</g>
	</g>
</g>
<g id="calque07">
	<g>
		
			<polygon fill="#CC924C" stroke="#333333" stroke-width="0.9957" stroke-linecap="round" stroke-linejoin="round" stroke-miterlimit="10" points="
			105.15,137.932 101.134,145.65 101.134,142.842 		"/>
		
			<polygon fill="#CC924C" stroke="#333333" stroke-width="0.9957" stroke-linecap="round" stroke-linejoin="round" stroke-miterlimit="10" points="
			105.711,110.719 101.134,116.277 101.134,113.467 		"/>
		
			<polygon fill="#CC924C" stroke="#333333" stroke-width="0.9957" stroke-linecap="round" stroke-linejoin="round" stroke-miterlimit="10" points="
			87.213,128.127 97.368,140.002 97.368,137.193 		"/>
		
			<polygon fill="#CC924C" stroke="#333333" stroke-width="0.9957" stroke-linecap="round" stroke-linejoin="round" stroke-miterlimit="10" points="
			92.492,101.938 97.368,108.223 97.368,106.408 		"/>
		<g>
			
				<path fill="#A1C453" stroke="#333333" stroke-width="1.4936" stroke-linecap="round" stroke-linejoin="round" stroke-miterlimit="10" d="
				M86.619,144.785c2.679-0.111,3.967-1.67,8.194,2.049c4.229,3.719-0.228,4.957,2.555,7.404c-2.781-2.447-3.677,2.08-7.747-1.502
				C85.549,149.156,87.073,147.422,86.619,144.785z"/>
			<g>
				<line fill="none" x1="97.368" y1="154.238" x2="88.922" y2="146.795"/>
				<g>
					<polyline fill="none" stroke="#333333" stroke-width="0.9957" stroke-linecap="round" stroke-miterlimit="10" points="
						96.995,153.909 96.511,153.482 90.889,148.528 90.469,148.158 					"/>
					
						<line fill="none" stroke="#333333" stroke-width="0.9957" stroke-linecap="round" stroke-miterlimit="10" x1="89.295" y1="147.124" x2="89.348" y2="147.17"/>
				</g>
			</g>
		</g>
		<g>
			
				<path fill="#A1C453" stroke="#333333" stroke-width="1.4936" stroke-linecap="round" stroke-linejoin="round" stroke-miterlimit="10" d="
				M113.944,126.635c0.271,2.666,1.904,3.859-1.555,8.303s-4.963,0.07-7.239,2.994c2.276-2.924-2.296-3.545,1.034-7.824
				C109.516,125.827,111.338,127.245,113.944,126.635z"/>
			<g>
				<line fill="none" x1="105.034" y1="137.814" x2="111.847" y2="129.061"/>
				<g>
					<polyline fill="none" stroke="#333333" stroke-width="0.9957" stroke-linecap="round" stroke-miterlimit="10" points="
						105.34,137.422 105.736,136.912 110.236,131.13 110.581,130.688 					"/>
					
						<line fill="none" stroke="#333333" stroke-width="0.9957" stroke-linecap="round" stroke-miterlimit="10" x1="111.541" y1="129.453" x2="111.498" y2="129.509"/>
				</g>
			</g>
		</g>
		<g>
			
				<path fill="#A1C453" stroke="#333333" stroke-width="1.4936" stroke-linecap="round" stroke-linejoin="round" stroke-miterlimit="10" d="
				M84.091,112.289c2.497,1.707,4.714,1.169,6.025,7.387c1.311,6.218-3.557,4.33-2.693,8.421c-0.862-4.091-4.729-0.603-5.989-6.591
				C80.171,115.518,82.72,114.98,84.091,112.289z"/>
			<g>
				<line fill="none" x1="87.423" y1="128.097" x2="84.841" y2="115.847"/>
				<g>
					<polyline fill="none" stroke="#333333" stroke-width="0.9957" stroke-linecap="round" stroke-miterlimit="10" points="
						87.32,127.609 87.188,126.979 85.382,118.412 85.266,117.864 					"/>
					
						<line fill="none" stroke="#333333" stroke-width="0.9957" stroke-linecap="round" stroke-miterlimit="10" x1="84.943" y1="116.334" x2="84.958" y2="116.402"/>
				</g>
			</g>
		</g>
		<g>
			
				<path fill="#A1C453" stroke="#333333" stroke-width="1.4936" stroke-linecap="round" stroke-linejoin="round" stroke-miterlimit="10" d="
				M73.827,119.713c2.973-0.559,4.158-2.507,9.482,0.963c5.323,3.47,0.546,5.576,4.05,7.858c-3.504-2.282-3.77,2.917-8.895-0.425
				C73.337,124.768,74.76,122.586,73.827,119.713z"/>
			<g>
				<line fill="none" x1="87.36" y1="128.534" x2="76.874" y2="121.699"/>
				<g>
					<polyline fill="none" stroke="#333333" stroke-width="0.9957" stroke-linecap="round" stroke-miterlimit="10" points="
						86.943,128.263 86.403,127.91 79.07,123.131 78.601,122.825 					"/>
					
						<line fill="none" stroke="#333333" stroke-width="0.9957" stroke-linecap="round" stroke-miterlimit="10" x1="77.291" y1="121.971" x2="77.35" y2="122.01"/>
				</g>
			</g>
		</g>
		<g>
			
				<path fill="#A1C453" stroke="#333333" stroke-width="1.4936" stroke-linecap="round" stroke-linejoin="round" stroke-miterlimit="10" d="
				M85.038,92.117c2.373,0.349,3.767-0.808,6.865,3.167c3.1,3.975-1.025,4.323,1.016,6.939c-2.041-2.616-3.58,1.218-6.565-2.61
				C83.368,95.784,84.997,94.514,85.038,92.117z"/>
			<g>
				<line fill="none" x1="92.919" y1="102.224" x2="86.812" y2="94.393"/>
				<g>
					<polyline fill="none" stroke="#333333" stroke-width="0.9957" stroke-linecap="round" stroke-miterlimit="10" points="
						92.612,101.831 92.216,101.322 88.424,96.46 88.079,96.019 					"/>
					
						<line fill="none" stroke="#333333" stroke-width="0.9957" stroke-linecap="round" stroke-miterlimit="10" x1="87.118" y1="94.785" x2="87.161" y2="94.841"/>
				</g>
			</g>
		</g>
		<g>
			
				<path fill="#A1C453" stroke="#333333" stroke-width="1.4936" stroke-linecap="round" stroke-linejoin="round" stroke-miterlimit="10" d="
				M80.309,100.984c1.923-1.434,2.091-3.236,7.093-2.617c5.002,0.619,2.332,3.783,5.625,4.189c-3.293-0.406-1.672,3.392-6.487,2.796
				C81.72,104.756,81.974,102.705,80.309,100.984z"/>
			<g>
				<line fill="none" x1="93.026" y1="102.557" x2="83.171" y2="101.338"/>
				<g>
					<polyline fill="none" stroke="#333333" stroke-width="0.9957" stroke-linecap="round" stroke-miterlimit="10" points="
						92.532,102.495 91.892,102.416 85.773,101.66 85.217,101.591 					"/>
					
						<line fill="none" stroke="#333333" stroke-width="0.9957" stroke-linecap="round" stroke-miterlimit="10" x1="83.665" y1="101.399" x2="83.734" y2="101.407"/>
				</g>
			</g>
		</g>
		<g>
			
				<path fill="#A1C453" stroke="#333333" stroke-width="1.4936" stroke-linecap="round" stroke-linejoin="round" stroke-miterlimit="10" d="
				M122.196,109.037c-1.94,2.319-1.619,4.578-7.934,5.281c-6.316,0.703-3.967-3.957-8.123-3.494
				c4.156-0.463,1.059-4.647,7.141-5.324C119.362,104.822,119.65,107.412,122.196,109.037z"/>
			<g>
				<line fill="none" x1="106.024" y1="110.707" x2="118.466" y2="109.322"/>
				<g>
					<polyline fill="none" stroke="#333333" stroke-width="0.9957" stroke-linecap="round" stroke-miterlimit="10" points="
						106.52,110.652 107.16,110.581 115.86,109.612 116.417,109.551 					"/>
					
						<line fill="none" stroke="#333333" stroke-width="0.9957" stroke-linecap="round" stroke-miterlimit="10" x1="117.971" y1="109.377" x2="117.901" y2="109.385"/>
				</g>
			</g>
		</g>
		<g>
			
				<path fill="#A1C453" stroke="#333333" stroke-width="1.4936" stroke-linecap="round" stroke-linejoin="round" stroke-miterlimit="10" d="
				M115.801,98.102c0.268,3.014,2.093,4.384-1.876,9.346c-3.969,4.963-5.604,0.006-8.214,3.271c2.61-3.266-2.538-4.033,1.284-8.813
				C110.817,97.126,112.852,98.754,115.801,98.102z"/>
			<g>
				<line fill="none" x1="105.711" y1="110.719" x2="113.529" y2="100.941"/>
				<g>
					<polyline fill="none" stroke="#333333" stroke-width="0.9957" stroke-linecap="round" stroke-miterlimit="10" points="
						106.021,110.33 106.425,109.826 111.892,102.989 112.242,102.552 					"/>
					
						<line fill="none" stroke="#333333" stroke-width="0.9957" stroke-linecap="round" stroke-miterlimit="10" x1="113.219" y1="101.33" x2="113.175" y2="101.385"/>
				</g>
			</g>
		</g>
		<g>
			
				<path fill="#A1C453" stroke="#333333" stroke-width="1.4936" stroke-linecap="round" stroke-linejoin="round" stroke-miterlimit="10" d="
				M116.277,118.185c-2.339,0.419-3.283,1.942-7.443-0.814c-4.162-2.759-0.396-4.384-3.136-6.198
				c2.738,1.814,2.979-2.27,6.986,0.387C116.693,114.216,115.562,115.922,116.277,118.185z"/>
			<g>
				<line fill="none" x1="105.582" y1="111.055" x2="113.78" y2="116.489"/>
				<g>
					<polyline fill="none" stroke="#333333" stroke-width="0.9957" stroke-linecap="round" stroke-miterlimit="10" points="
						105.997,111.33 106.534,111.687 111.595,115.041 112.063,115.351 					"/>
					
						<line fill="none" stroke="#333333" stroke-width="0.9957" stroke-linecap="round" stroke-miterlimit="10" x1="113.365" y1="116.214" x2="113.307" y2="116.176"/>
				</g>
			</g>
		</g>
		<path fill="#CC924C" stroke="#333333" stroke-width="2.6551" stroke-linecap="round" stroke-miterlimit="10" d="M101.633,174.223
			l-0.499-82.133c0-1.039-0.843-1.883-1.883-1.883l0,0c-1.039,0-1.883,0.844-1.883,1.883l-0.497,82.133"/>
		<g>
			<g>
				<path fill="#D3F46C" d="M99.271,107.99c0.425,3.467-3.004,7.837-5.506,7.045c-2.463,1.568-6.619-2.038-7.045-5.504
					c-0.424-3.466,0.854-7.1,5.813-6.287C96.923,101.325,98.845,104.525,99.271,107.99z"/>
				<g>
					<path fill="none" stroke="#333333" stroke-width="1.4936" stroke-linecap="round" stroke-miterlimit="10" d="M99.3,108.736
						c-0.021,0.321-0.037,0.644-0.11,0.959c-0.288,1.507-1.053,2.908-2.104,4.017c-0.531,0.547-1.155,1.032-1.888,1.274
						c-0.365,0.104-0.754,0.179-1.132,0.105l-0.281-0.054c-0.091,0.02-0.175,0.078-0.261,0.115c-0.167,0.099-0.351,0.153-0.54,0.188
						c-0.754,0.166-1.54-0.027-2.225-0.356c-0.69-0.332-1.309-0.802-1.856-1.336c-1.065-1.085-1.919-2.453-2.155-3.977
						c-0.201-1.504-0.128-3.118,0.607-4.479c0.368-0.672,0.934-1.237,1.619-1.581c0.685-0.358,1.466-0.472,2.229-0.472
						c0.384-0.016,0.764,0.037,1.145,0.082c0.195,0.063,0.368-0.061,0.549-0.116c0.182-0.063,0.354-0.147,0.541-0.191
						c0.73-0.226,1.517-0.309,2.27-0.165c0.754,0.142,1.441,0.558,1.951,1.129c0.138,0.128,0.245,0.309,0.35,0.439
						c0.055,0.075,0.112,0.147,0.155,0.229c0.09,0.161,0.189,0.315,0.271,0.481"/>
					
						<line fill="none" stroke="#333333" stroke-width="1.4936" stroke-linecap="round" stroke-miterlimit="10" x1="99.153" y1="107.253" x2="99.132" y2="107.15"/>
				</g>
			</g>
			
				<ellipse transform="matrix(0.4717 -0.8817 0.8817 0.4717 -47.304 135.0312)" opacity="0.5" fill="#FFFFFF" enable-background="new    " cx="89.041" cy="106.994" rx="1.447" ry="1.189"/>
		</g>
		<g>
			<g>
				<path fill="#EF4529" d="M111.299,143.654c-1.013,3.342-5.917,5.953-7.884,4.219c-2.888,0.438-5.23-4.541-4.218-7.883
					c1.011-3.342,3.649-6.148,7.855-3.4C111.847,136.609,112.312,140.313,111.299,143.654z"/>
				<g>
					<path fill="none" stroke="#333333" stroke-width="1.4936" stroke-linecap="round" stroke-miterlimit="10" d="M111.024,144.349
						c-0.148,0.285-0.295,0.573-0.488,0.833c-0.872,1.262-2.14,2.232-3.551,2.822c-0.706,0.285-1.474,0.477-2.24,0.403
						c-0.377-0.053-0.762-0.142-1.077-0.361l-0.237-0.163c-0.089-0.018-0.188,0.002-0.284,0c-0.191,0.023-0.381-0.001-0.568-0.046
						c-0.757-0.154-1.397-0.648-1.891-1.226c-0.497-0.584-0.873-1.263-1.158-1.974c-0.535-1.424-0.763-3.019-0.362-4.508
						c0.423-1.457,1.143-2.904,2.366-3.851c0.607-0.466,1.354-0.754,2.119-0.791c0.771-0.052,1.532,0.161,2.229,0.469
						c0.356,0.142,0.684,0.344,1.014,0.539c0.154,0.136,0.361,0.093,0.549,0.114c0.19,0.017,0.385,0.009,0.572,0.044
						c0.76,0.089,1.512,0.33,2.143,0.766c0.633,0.435,1.095,1.093,1.328,1.821c0.074,0.172,0.102,0.381,0.144,0.544
						c0.02,0.09,0.043,0.179,0.049,0.271c0.017,0.184,0.046,0.366,0.054,0.551"/>
					
						<line fill="none" stroke="#333333" stroke-width="1.4936" stroke-linecap="round" stroke-miterlimit="10" x1="111.49" y1="142.933" x2="111.512" y2="142.83"/>
				</g>
			</g>
			
				<ellipse transform="matrix(0.7878 -0.6159 0.6159 0.7878 -63.6494 92.4514)" opacity="0.5" fill="#FFFFFF" enable-background="new    " cx="102.351" cy="138.601" rx="1.446" ry="1.19"/>
		</g>
		<g>
			
				<path fill="#A1C453" stroke="#333333" stroke-width="0.9957" stroke-linecap="round" stroke-linejoin="round" stroke-miterlimit="10" d="
				M97.798,90.057c0,0,1.114-2.711,1.477-3.188c0.287-0.383,0.935,2.687,0.965,3.83L97.798,90.057z"/>
			
				<path fill="#A1C453" stroke="#333333" stroke-width="0.9957" stroke-linecap="round" stroke-linejoin="round" stroke-miterlimit="10" d="
				M100.113,89.82L97.1,93.177c0,0-0.667-4.438,0.435-5.958C97.534,87.22,98.893,88.92,100.113,89.82z"/>
			
				<path fill="#A1C453" stroke="#333333" stroke-width="0.9957" stroke-linecap="round" stroke-linejoin="round" stroke-miterlimit="10" d="
				M100.696,95.172c0,0,2.209-5.115,0.534-7.952l-2.721,3.354L100.696,95.172z"/>
		</g>
	</g>
</g>
<g id="calque08">
	<g>
		
			<polygon fill="#CC924C" stroke="#333333" stroke-width="0.9957" stroke-linecap="round" stroke-linejoin="round" stroke-miterlimit="10" points="
			105.153,137.932 101.137,145.652 101.137,142.842 		"/>
		
			<polygon fill="#CC924C" stroke="#333333" stroke-width="0.9957" stroke-linecap="round" stroke-linejoin="round" stroke-miterlimit="10" points="
			105.713,110.72 101.137,116.277 101.137,113.467 		"/>
		
			<polygon fill="#CC924C" stroke="#333333" stroke-width="0.9957" stroke-linecap="round" stroke-linejoin="round" stroke-miterlimit="10" points="
			87.216,128.127 97.37,140.002 97.37,137.193 		"/>
		
			<polygon fill="#CC924C" stroke="#333333" stroke-width="0.9957" stroke-linecap="round" stroke-linejoin="round" stroke-miterlimit="10" points="
			92.495,101.938 97.37,108.223 97.37,106.408 		"/>
		<g>
			
				<path fill="#A1C453" stroke="#333333" stroke-width="1.4936" stroke-linecap="round" stroke-linejoin="round" stroke-miterlimit="10" d="
				M86.622,144.785c2.678-0.111,3.965-1.67,8.192,2.049c4.229,3.719-0.227,4.959,2.556,7.404c-2.781-2.445-3.677,2.08-7.748-1.502
				C85.551,149.156,87.075,147.422,86.622,144.785z"/>
			<g>
				<line fill="none" x1="97.37" y1="154.238" x2="88.924" y2="146.795"/>
				<g>
					<polyline fill="none" stroke="#333333" stroke-width="0.9957" stroke-linecap="round" stroke-miterlimit="10" points="
						96.997,153.909 96.513,153.482 90.891,148.528 90.471,148.158 					"/>
					
						<line fill="none" stroke="#333333" stroke-width="0.9957" stroke-linecap="round" stroke-miterlimit="10" x1="89.297" y1="147.124" x2="89.35" y2="147.17"/>
				</g>
			</g>
		</g>
		<g>
			
				<path fill="#A1C453" stroke="#333333" stroke-width="1.4936" stroke-linecap="round" stroke-linejoin="round" stroke-miterlimit="10" d="
				M113.946,126.635c0.271,2.666,1.904,3.859-1.554,8.303c-3.46,4.443-4.965,0.07-7.239,2.994c2.274-2.924-2.298-3.545,1.034-7.824
				C109.518,125.828,111.341,127.246,113.946,126.635z"/>
			<g>
				<line fill="none" x1="105.036" y1="137.814" x2="111.849" y2="129.061"/>
				<g>
					<polyline fill="none" stroke="#333333" stroke-width="0.9957" stroke-linecap="round" stroke-miterlimit="10" points="
						105.342,137.422 105.738,136.912 110.238,131.13 110.583,130.688 					"/>
					
						<line fill="none" stroke="#333333" stroke-width="0.9957" stroke-linecap="round" stroke-miterlimit="10" x1="111.543" y1="129.453" x2="111.5" y2="129.509"/>
				</g>
			</g>
		</g>
		<g>
			
				<path fill="#A1C453" stroke="#333333" stroke-width="1.4936" stroke-linecap="round" stroke-linejoin="round" stroke-miterlimit="10" d="
				M84.094,112.289c2.497,1.707,4.713,1.17,6.023,7.387c1.311,6.218-3.555,4.33-2.692,8.421c-0.861-4.091-4.729-0.603-5.99-6.59
				C80.173,115.518,82.722,114.98,84.094,112.289z"/>
			<g>
				<line fill="none" x1="87.425" y1="128.097" x2="84.843" y2="115.847"/>
				<g>
					<polyline fill="none" stroke="#333333" stroke-width="0.9957" stroke-linecap="round" stroke-miterlimit="10" points="
						87.322,127.609 87.189,126.979 85.384,118.412 85.268,117.864 					"/>
					
						<line fill="none" stroke="#333333" stroke-width="0.9957" stroke-linecap="round" stroke-miterlimit="10" x1="84.945" y1="116.334" x2="84.96" y2="116.402"/>
				</g>
			</g>
		</g>
		<g>
			
				<path fill="#A1C453" stroke="#333333" stroke-width="1.4936" stroke-linecap="round" stroke-linejoin="round" stroke-miterlimit="10" d="
				M73.829,119.713c2.973-0.559,4.158-2.506,9.482,0.963c5.322,3.471,0.547,5.576,4.051,7.858c-3.504-2.282-3.771,2.917-8.896-0.425
				C73.34,124.768,74.763,122.586,73.829,119.713z"/>
			<g>
				<line fill="none" x1="87.363" y1="128.534" x2="76.874" y2="121.699"/>
				<g>
					<polyline fill="none" stroke="#333333" stroke-width="0.9957" stroke-linecap="round" stroke-miterlimit="10" points="
						86.946,128.263 86.405,127.91 79.07,123.131 78.602,122.824 					"/>
					
						<line fill="none" stroke="#333333" stroke-width="0.9957" stroke-linecap="round" stroke-miterlimit="10" x1="77.291" y1="121.971" x2="77.35" y2="122.009"/>
				</g>
			</g>
		</g>
		<g>
			
				<path fill="#A1C453" stroke="#333333" stroke-width="1.4936" stroke-linecap="round" stroke-linejoin="round" stroke-miterlimit="10" d="
				M85.04,92.118c2.373,0.348,3.767-0.809,6.865,3.167c3.1,3.975-1.025,4.323,1.016,6.939c-2.041-2.616-3.58,1.217-6.564-2.611
				C83.37,95.785,84.999,94.514,85.04,92.118z"/>
			<g>
				<line fill="none" x1="92.921" y1="102.225" x2="86.813" y2="94.393"/>
				<g>
					<polyline fill="none" stroke="#333333" stroke-width="0.9957" stroke-linecap="round" stroke-miterlimit="10" points="
						92.614,101.832 92.218,101.323 88.426,96.46 88.081,96.019 					"/>
					
						<line fill="none" stroke="#333333" stroke-width="0.9957" stroke-linecap="round" stroke-miterlimit="10" x1="87.12" y1="94.785" x2="87.163" y2="94.841"/>
				</g>
			</g>
		</g>
		<g>
			
				<path fill="#A1C453" stroke="#333333" stroke-width="1.4936" stroke-linecap="round" stroke-linejoin="round" stroke-miterlimit="10" d="
				M80.311,100.984c1.924-1.434,2.091-3.236,7.093-2.617c5.004,0.619,2.332,3.783,5.625,4.189c-3.293-0.406-1.671,3.393-6.486,2.797
				C81.722,104.757,81.976,102.705,80.311,100.984z"/>
			<g>
				<line fill="none" x1="93.028" y1="102.557" x2="83.174" y2="101.338"/>
				<g>
					<polyline fill="none" stroke="#333333" stroke-width="0.9957" stroke-linecap="round" stroke-miterlimit="10" points="
						92.534,102.495 91.894,102.416 85.776,101.66 85.22,101.591 					"/>
					
						<line fill="none" stroke="#333333" stroke-width="0.9957" stroke-linecap="round" stroke-miterlimit="10" x1="83.668" y1="101.399" x2="83.737" y2="101.407"/>
				</g>
			</g>
		</g>
		<g>
			
				<path fill="#A1C453" stroke="#333333" stroke-width="1.4936" stroke-linecap="round" stroke-linejoin="round" stroke-miterlimit="10" d="
				M122.198,109.037c-1.94,2.32-1.618,4.578-7.934,5.281c-6.316,0.703-3.966-3.957-8.122-3.494c4.156-0.463,1.059-4.647,7.139-5.324
				C119.364,104.822,119.653,107.412,122.198,109.037z"/>
			<g>
				<line fill="none" x1="106.026" y1="110.707" x2="118.469" y2="109.322"/>
				<g>
					<polyline fill="none" stroke="#333333" stroke-width="0.9957" stroke-linecap="round" stroke-miterlimit="10" points="
						106.521,110.652 107.162,110.581 115.863,109.612 116.42,109.551 					"/>
					
						<line fill="none" stroke="#333333" stroke-width="0.9957" stroke-linecap="round" stroke-miterlimit="10" x1="117.974" y1="109.377" x2="117.904" y2="109.385"/>
				</g>
			</g>
		</g>
		<g>
			
				<path fill="#A1C453" stroke="#333333" stroke-width="1.4936" stroke-linecap="round" stroke-linejoin="round" stroke-miterlimit="10" d="
				M115.804,98.104c0.268,3.012,2.092,4.383-1.877,9.345c-3.969,4.962-5.602,0.005-8.214,3.271c2.612-3.267-2.538-4.034,1.284-8.813
				C110.819,97.128,112.854,98.754,115.804,98.104z"/>
			<g>
				<line fill="none" x1="105.713" y1="110.72" x2="113.532" y2="100.942"/>
				<g>
					<polyline fill="none" stroke="#333333" stroke-width="0.9957" stroke-linecap="round" stroke-miterlimit="10" points="
						106.023,110.331 106.427,109.827 111.895,102.99 112.245,102.553 					"/>
					
						<line fill="none" stroke="#333333" stroke-width="0.9957" stroke-linecap="round" stroke-miterlimit="10" x1="113.222" y1="101.331" x2="113.178" y2="101.386"/>
				</g>
			</g>
		</g>
		<g>
			
				<path fill="#A1C453" stroke="#333333" stroke-width="1.4936" stroke-linecap="round" stroke-linejoin="round" stroke-miterlimit="10" d="
				M116.28,118.185c-2.34,0.421-3.282,1.944-7.444-0.814c-4.16-2.759-0.396-4.384-3.135-6.198c2.738,1.814,2.979-2.27,6.985,0.388
				C116.694,114.216,115.564,115.922,116.28,118.185z"/>
			<g>
				<line fill="none" x1="105.585" y1="111.056" x2="113.782" y2="116.489"/>
				<g>
					<polyline fill="none" stroke="#333333" stroke-width="0.9957" stroke-linecap="round" stroke-miterlimit="10" points="
						106,111.331 106.538,111.688 111.597,115.041 112.064,115.351 					"/>
					
						<line fill="none" stroke="#333333" stroke-width="0.9957" stroke-linecap="round" stroke-miterlimit="10" x1="113.367" y1="116.214" x2="113.309" y2="116.176"/>
				</g>
			</g>
		</g>
		<path fill="#CC924C" stroke="#333333" stroke-width="2.6551" stroke-linecap="round" stroke-miterlimit="10" d="M101.635,174.223
			l-0.498-82.132c0-1.04-0.843-1.883-1.884-1.883l0,0c-1.039,0-1.883,0.843-1.883,1.883l-0.496,82.132"/>
		<g>
			<g>
				<path fill="#EF4529" d="M99.271,107.99c0.426,3.467-3.005,7.837-5.505,7.046c-2.462,1.567-6.619-2.039-7.045-5.505
					c-0.424-3.465,0.854-7.099,5.813-6.287C96.925,101.325,98.847,104.525,99.271,107.99z"/>
				<g>
					<path fill="none" stroke="#333333" stroke-width="1.4936" stroke-linecap="round" stroke-miterlimit="10" d="M99.301,108.736
						c-0.021,0.321-0.037,0.644-0.11,0.959c-0.287,1.507-1.053,2.907-2.104,4.017c-0.531,0.546-1.156,1.032-1.887,1.275
						c-0.366,0.104-0.755,0.178-1.133,0.104l-0.281-0.053c-0.091,0.02-0.175,0.078-0.261,0.115c-0.167,0.099-0.351,0.152-0.54,0.188
						c-0.754,0.165-1.54-0.028-2.225-0.356c-0.69-0.333-1.309-0.803-1.856-1.337c-1.065-1.085-1.919-2.452-2.155-3.976
						c-0.201-1.504-0.127-3.118,0.607-4.479c0.368-0.672,0.935-1.237,1.62-1.581c0.684-0.358,1.465-0.473,2.228-0.473
						c0.384-0.015,0.764,0.037,1.145,0.082c0.195,0.063,0.368-0.06,0.549-0.115c0.182-0.063,0.354-0.148,0.541-0.192
						c0.73-0.226,1.517-0.309,2.27-0.165c0.754,0.142,1.441,0.558,1.951,1.129c0.137,0.127,0.245,0.308,0.35,0.439
						c0.055,0.074,0.112,0.146,0.154,0.229c0.09,0.16,0.19,0.315,0.271,0.481"/>
					
						<line fill="none" stroke="#333333" stroke-width="1.4936" stroke-linecap="round" stroke-miterlimit="10" x1="99.154" y1="107.253" x2="99.133" y2="107.15"/>
				</g>
			</g>
			
				<ellipse transform="matrix(0.4718 -0.8817 0.8817 0.4718 -47.3011 135.0196)" opacity="0.5" fill="#FFFFFF" enable-background="new    " cx="89.043" cy="106.99" rx="1.447" ry="1.19"/>
		</g>
		<g>
			<g>
				<path fill="#EF4529" d="M111.3,143.654c-1.012,3.342-5.916,5.953-7.883,4.219c-2.887,0.439-5.229-4.541-4.218-7.883
					c1.011-3.342,3.65-6.148,7.855-3.4C111.849,136.609,112.313,140.313,111.3,143.654z"/>
				<g>
					<path fill="none" stroke="#333333" stroke-width="1.4936" stroke-linecap="round" stroke-miterlimit="10" d="M111.025,144.349
						c-0.148,0.286-0.295,0.574-0.488,0.833c-0.872,1.262-2.14,2.233-3.55,2.822c-0.707,0.285-1.475,0.477-2.24,0.403
						c-0.377-0.053-0.763-0.142-1.077-0.362l-0.237-0.162c-0.09-0.018-0.189,0.002-0.284,0.001
						c-0.191,0.022-0.382-0.002-0.568-0.047c-0.758-0.153-1.397-0.648-1.892-1.226c-0.496-0.584-0.872-1.264-1.155-1.974
						c-0.537-1.424-0.765-3.02-0.364-4.508c0.423-1.457,1.144-2.904,2.366-3.851c0.607-0.466,1.354-0.754,2.119-0.791
						c0.771-0.052,1.532,0.161,2.229,0.469c0.356,0.142,0.685,0.344,1.014,0.539c0.154,0.136,0.361,0.093,0.549,0.114
						c0.19,0.017,0.385,0.009,0.573,0.044c0.759,0.089,1.511,0.33,2.142,0.766c0.633,0.435,1.095,1.094,1.328,1.821
						c0.074,0.172,0.102,0.381,0.143,0.544c0.021,0.09,0.044,0.18,0.049,0.271c0.018,0.184,0.047,0.366,0.054,0.551"/>
					
						<line fill="none" stroke="#333333" stroke-width="1.4936" stroke-linecap="round" stroke-miterlimit="10" x1="111.491" y1="142.933" x2="111.513" y2="142.83"/>
				</g>
			</g>
			
				<ellipse transform="matrix(0.788 -0.6157 0.6157 0.788 -63.6334 92.4021)" opacity="0.5" fill="#FFFFFF" enable-background="new    " cx="102.349" cy="138.595" rx="1.447" ry="1.19"/>
		</g>
		<g>
			
				<path fill="#A1C453" stroke="#333333" stroke-width="0.9957" stroke-linecap="round" stroke-linejoin="round" stroke-miterlimit="10" d="
				M97.8,90.058c0,0,1.114-2.712,1.477-3.188c0.287-0.384,0.933,2.686,0.966,3.829L97.8,90.058z"/>
			
				<path fill="#A1C453" stroke="#333333" stroke-width="0.9957" stroke-linecap="round" stroke-linejoin="round" stroke-miterlimit="10" d="
				M100.116,89.821l-3.015,3.356c0,0-0.668-4.438,0.436-5.957C97.537,87.221,98.895,88.92,100.116,89.821z"/>
			
				<path fill="#A1C453" stroke="#333333" stroke-width="0.9957" stroke-linecap="round" stroke-linejoin="round" stroke-miterlimit="10" d="
				M100.698,95.172c0,0,2.21-5.114,0.535-7.951l-2.721,3.354L100.698,95.172z"/>
		</g>
	</g>
</g>
</svg>
