<?xml version="1.0" encoding="utf-8"?>
<!-- Generator: Adobe Illustrator 16.0.0, SVG Export Plug-In . SVG Version: 6.00 Build 0)  -->
<!DOCTYPE svg PUBLIC "-//W3C//DTD SVG 1.1//EN" "http://www.w3.org/Graphics/SVG/1.1/DTD/svg11.dtd">
<svg version="1.1" id="Calque_1" xmlns="http://www.w3.org/2000/svg" xmlns:xlink="http://www.w3.org/1999/xlink" x="0px" y="0px"
	 width="400px" height="400px" viewBox="0 0 400 400" enable-background="new 0 0 400 400" xml:space="preserve">
<g id="calque00">
	<g>
		<path fill="#CC924C" stroke="#333333" stroke-width="2.6539" stroke-linecap="round" stroke-miterlimit="10" d="M310.025,207.434
			l8.939-2.926c1.03-0.404,2.195,0.105,2.601,1.139l0,0c0.403,1.031-0.105,2.197-1.138,2.602l-8.554,3.915"/>
		<g>
			
				<path fill="#A1C453" stroke="#333333" stroke-width="1.0616" stroke-linecap="round" stroke-linejoin="round" stroke-miterlimit="10" d="
				M322.278,207.031c0,0,2.261-2.16,2.592-2.704c0.27-0.433-3.029,0.116-4.178,0.528L322.278,207.031z"/>
			
				<path fill="#A1C453" stroke="#333333" stroke-width="1.0616" stroke-linecap="round" stroke-linejoin="round" stroke-miterlimit="10" d="
				M321.613,204.641l-2.161,4.295c0,0,4.663-1.062,5.746-2.744C325.198,206.189,322.981,205.502,321.613,204.641z"/>
			
				<path fill="#A1C453" stroke="#333333" stroke-width="1.0616" stroke-linecap="round" stroke-linejoin="round" stroke-miterlimit="10" d="
				M316.073,206.139c0,0,4.221-4.18,7.688-3.617l-2.273,4.004L316.073,206.139z"/>
		</g>
	</g>
</g>
<g id="calque01">
	<g>
		<g>
			
				<path fill="#A1C453" stroke="#333333" stroke-width="1.0616" stroke-linecap="round" stroke-linejoin="round" stroke-miterlimit="10" d="
				M338.316,207.234c-0.426-1.24,0.053-2.104-2.393-3.365c-2.447-1.264-2.219,0.986-3.828,0.156c1.609,0.83-0.292,2.043,2.063,3.26
				C336.517,208.501,337.034,207.498,338.316,207.234z"/>
			<g>
				<line fill="none" x1="332.096" y1="204.025" x2="336.916" y2="206.514"/>
				<g>
					<polyline fill="none" stroke="#333333" stroke-width="1.0616" stroke-linecap="round" stroke-miterlimit="10" points="
						332.567,204.27 333.179,204.584 334.433,205.23 334.964,205.505 					"/>
					
						<line fill="none" stroke="#333333" stroke-width="1.0616" stroke-linecap="round" stroke-miterlimit="10" x1="336.445" y1="206.27" x2="336.379" y2="206.234"/>
				</g>
			</g>
		</g>
		<path fill="#CC924C" stroke="#333333" stroke-width="2.6539" stroke-linecap="round" stroke-miterlimit="10" d="M310.026,207.438
			l27.38-10.145c1.032-0.404,2.197,0.105,2.602,1.139l0,0c0.403,1.032-0.105,2.196-1.139,2.6l-26.993,11.131"/>
		<g>
			
				<path fill="#A1C453" stroke="#333333" stroke-width="1.0616" stroke-linecap="round" stroke-linejoin="round" stroke-miterlimit="10" d="
				M340.721,199.815c0,0,2.259-2.158,2.591-2.704c0.269-0.433-3.029,0.117-4.178,0.529L340.721,199.815z"/>
			
				<path fill="#A1C453" stroke="#333333" stroke-width="1.0616" stroke-linecap="round" stroke-linejoin="round" stroke-miterlimit="10" d="
				M340.055,197.426l-2.162,4.295c0,0,4.664-1.063,5.747-2.745C343.64,198.976,341.424,198.287,340.055,197.426z"/>
			
				<path fill="#A1C453" stroke="#333333" stroke-width="1.0616" stroke-linecap="round" stroke-linejoin="round" stroke-miterlimit="10" d="
				M334.516,198.924c0,0,4.221-4.18,7.688-3.619l-2.273,4.005L334.516,198.924z"/>
		</g>
	</g>
</g>
<g id="calque02">
	<g>
		<g>
			
				<path fill="#A1C453" stroke="#333333" stroke-width="1.5923" stroke-linecap="round" stroke-linejoin="round" stroke-miterlimit="10" d="
				M345.085,210.904c-0.93-2.701,0.117-4.584-5.217-7.34c-5.335-2.752-4.836,2.152-8.347,0.34c3.511,1.814-0.637,4.457,4.5,7.111
				C341.161,213.668,342.289,211.479,345.085,210.904z"/>
			<g>
				<line fill="none" x1="331.522" y1="203.904" x2="342.031" y2="209.331"/>
				<g>
					<polyline fill="none" stroke="#333333" stroke-width="1.0616" stroke-linecap="round" stroke-miterlimit="10" points="
						331.993,204.148 332.605,204.464 339.549,208.049 340.078,208.322 					"/>
					
						<line fill="none" stroke="#333333" stroke-width="1.0616" stroke-linecap="round" stroke-miterlimit="10" x1="341.561" y1="209.088" x2="341.493" y2="209.055"/>
				</g>
			</g>
		</g>
		<g>
			
				<path fill="#A1C453" stroke="#333333" stroke-width="1.0616" stroke-linecap="round" stroke-linejoin="round" stroke-miterlimit="10" d="
				M344.154,189.701c-1.24,0.344-2.059-0.176-3.439,2.146c-1.38,2.324,0.837,2.23-0.071,3.759c0.908-1.528,1.985,0.408,3.313-1.831
				C345.288,191.539,344.336,190.971,344.154,189.701z"/>
			<g>
				<line fill="none" x1="340.643" y1="195.606" x2="343.031" y2="191.521"/>
				<g>
					<polyline fill="none" stroke="#333333" stroke-width="1.0616" stroke-linecap="round" stroke-miterlimit="10" points="
						340.909,195.148 341.258,194.555 341.619,193.935 341.922,193.419 					"/>
					
						<line fill="none" stroke="#333333" stroke-width="1.0616" stroke-linecap="round" stroke-miterlimit="10" x1="342.764" y1="191.979" x2="342.726" y2="192.044"/>
				</g>
			</g>
		</g>
		<path fill="#CC924C" stroke="#333333" stroke-width="2.6539" stroke-linecap="round" stroke-miterlimit="10" d="M310.026,207.438
			l35.875-13.467c1.032-0.404,2.196,0.104,2.602,1.139l0,0c0.403,1.03-0.105,2.194-1.139,2.601l-35.488,14.453"/>
		<g>
			
				<path fill="#A1C453" stroke="#333333" stroke-width="1.0616" stroke-linecap="round" stroke-linejoin="round" stroke-miterlimit="10" d="
				M349.216,196.491c0,0,2.26-2.158,2.592-2.702c0.269-0.435-3.03,0.116-4.176,0.528L349.216,196.491z"/>
			
				<path fill="#A1C453" stroke="#333333" stroke-width="1.0616" stroke-linecap="round" stroke-linejoin="round" stroke-miterlimit="10" d="
				M348.551,194.101l-2.162,4.296c0,0,4.664-1.063,5.746-2.744C352.135,195.652,349.919,194.963,348.551,194.101z"/>
			
				<path fill="#A1C453" stroke="#333333" stroke-width="1.0616" stroke-linecap="round" stroke-linejoin="round" stroke-miterlimit="10" d="
				M343.011,195.602c0,0,4.222-4.18,7.688-3.621l-2.271,4.005L343.011,195.602z"/>
		</g>
	</g>
</g>
<g id="calque03">
	<g>
		
			<polygon fill="#CC924C" stroke="#333333" stroke-width="1.0616" stroke-linecap="round" stroke-linejoin="round" stroke-miterlimit="10" points="
			344.69,189.845 338.587,196.832 341.377,195.74 		"/>
		<g>
			
				<path fill="#A1C453" stroke="#333333" stroke-width="1.5923" stroke-linecap="round" stroke-linejoin="round" stroke-miterlimit="10" d="
				M345.085,210.904c-0.93-2.701,0.117-4.584-5.217-7.34c-5.335-2.752-4.836,2.152-8.347,0.34c3.511,1.814-0.637,4.461,4.5,7.111
				C341.161,213.668,342.289,211.479,345.085,210.904z"/>
			<g>
				<line fill="none" x1="331.522" y1="203.904" x2="342.031" y2="209.331"/>
				<g>
					<polyline fill="none" stroke="#333333" stroke-width="1.0616" stroke-linecap="round" stroke-miterlimit="10" points="
						331.993,204.148 332.605,204.464 339.549,208.049 340.078,208.322 					"/>
					
						<line fill="none" stroke="#333333" stroke-width="1.0616" stroke-linecap="round" stroke-miterlimit="10" x1="341.561" y1="209.088" x2="341.493" y2="209.055"/>
				</g>
			</g>
		</g>
		<g>
			
				<path fill="#A1C453" stroke="#333333" stroke-width="1.5923" stroke-linecap="round" stroke-linejoin="round" stroke-miterlimit="10" d="
				M352.49,176.727c-2.753,0.766-4.57-0.393-7.64,4.768c-3.069,5.161,1.858,4.955-0.161,8.351c2.02-3.396,4.412,0.903,7.367-4.065
				C355.012,180.809,352.897,179.55,352.49,176.727z"/>
			<g>
				<line fill="none" x1="344.69" y1="189.845" x2="350.736" y2="179.68"/>
				<g>
					<polyline fill="none" stroke="#333333" stroke-width="1.0616" stroke-linecap="round" stroke-miterlimit="10" points="
						344.962,189.389 345.313,188.798 349.308,182.082 349.613,181.568 					"/>
					
						<line fill="none" stroke="#333333" stroke-width="1.0616" stroke-linecap="round" stroke-miterlimit="10" x1="350.465" y1="180.136" x2="350.427" y2="180.2"/>
				</g>
			</g>
		</g>
		<g>
			
				<path fill="#A1C453" stroke="#333333" stroke-width="1.0616" stroke-linecap="round" stroke-linejoin="round" stroke-miterlimit="10" d="
				M353.619,202.145c-0.236-1.254,0.347-2.02-1.835-3.576c-2.18-1.558-2.271,0.641-3.706-0.385c1.435,1.025-0.566,1.93,1.532,3.427
				C351.711,203.113,352.35,202.219,353.619,202.145z"/>
			<g>
				<line fill="none" x1="348.078" y1="198.184" x2="352.372" y2="201.252"/>
				<g>
					<polyline fill="none" stroke="#333333" stroke-width="1.0616" stroke-linecap="round" stroke-miterlimit="10" points="
						348.511,198.492 349.07,198.893 350.099,199.627 350.585,199.975 					"/>
					
						<line fill="none" stroke="#333333" stroke-width="1.0616" stroke-linecap="round" stroke-miterlimit="10" x1="351.941" y1="200.943" x2="351.881" y2="200.9"/>
				</g>
			</g>
		</g>
		<path fill="#CC924C" stroke="#333333" stroke-width="2.6539" stroke-linecap="round" stroke-miterlimit="10" d="M310.026,207.438
			l42.554-16.08c1.031-0.404,2.195,0.105,2.601,1.138l0,0c0.404,1.032-0.106,2.196-1.138,2.601l-42.167,17.066"/>
		<g>
			
				<path fill="#A1C453" stroke="#333333" stroke-width="1.0616" stroke-linecap="round" stroke-linejoin="round" stroke-miterlimit="10" d="
				M355.894,193.88c0,0,2.26-2.159,2.591-2.704c0.271-0.434-3.028,0.116-4.177,0.529L355.894,193.88z"/>
			
				<path fill="#A1C453" stroke="#333333" stroke-width="1.0616" stroke-linecap="round" stroke-linejoin="round" stroke-miterlimit="10" d="
				M355.229,191.488l-2.162,4.296c0,0,4.664-1.062,5.747-2.745C358.813,193.039,356.597,192.351,355.229,191.488z"/>
			
				<path fill="#A1C453" stroke="#333333" stroke-width="1.0616" stroke-linecap="round" stroke-linejoin="round" stroke-miterlimit="10" d="
				M349.688,192.988c0,0,4.221-4.179,7.689-3.619l-2.274,4.004L349.688,192.988z"/>
		</g>
	</g>
</g>
<g id="calque04">
	<g>
		
			<polygon fill="#CC924C" stroke="#333333" stroke-width="1.0616" stroke-linecap="round" stroke-linejoin="round" stroke-miterlimit="10" points="
			344.69,189.845 338.587,196.832 341.376,195.74 		"/>
		
			<polygon fill="#CC924C" stroke="#333333" stroke-width="1.0616" stroke-linecap="round" stroke-linejoin="round" stroke-miterlimit="10" points="
			361.394,203.846 345.657,198.376 348.447,197.283 		"/>
		<g>
			
				<path fill="#A1C453" stroke="#333333" stroke-width="1.5923" stroke-linecap="round" stroke-linejoin="round" stroke-miterlimit="10" d="
				M345.085,210.904c-0.93-2.701,0.117-4.584-5.217-7.34c-5.335-2.752-4.836,2.152-8.347,0.34c3.511,1.814-0.637,4.461,4.5,7.111
				C341.161,213.668,342.289,211.479,345.085,210.904z"/>
			<g>
				<line fill="none" x1="331.522" y1="203.904" x2="342.031" y2="209.331"/>
				<g>
					<polyline fill="none" stroke="#333333" stroke-width="1.0616" stroke-linecap="round" stroke-miterlimit="10" points="
						331.993,204.148 332.605,204.464 339.549,208.049 340.078,208.322 					"/>
					
						<line fill="none" stroke="#333333" stroke-width="1.0616" stroke-linecap="round" stroke-miterlimit="10" x1="341.561" y1="209.088" x2="341.493" y2="209.055"/>
				</g>
			</g>
		</g>
		<g>
			
				<path fill="#A1C453" stroke="#333333" stroke-width="1.5923" stroke-linecap="round" stroke-linejoin="round" stroke-miterlimit="10" d="
				M352.49,176.727c-2.753,0.766-4.57-0.393-7.64,4.768c-3.069,5.161,1.858,4.955-0.161,8.351c2.02-3.396,4.412,0.903,7.367-4.065
				C355.012,180.809,352.897,179.55,352.49,176.727z"/>
			<g>
				<line fill="none" x1="344.69" y1="189.845" x2="350.736" y2="179.679"/>
				<g>
					<polyline fill="none" stroke="#333333" stroke-width="1.0616" stroke-linecap="round" stroke-miterlimit="10" points="
						344.962,189.389 345.313,188.797 349.308,182.081 349.613,181.567 					"/>
					
						<line fill="none" stroke="#333333" stroke-width="1.0616" stroke-linecap="round" stroke-miterlimit="10" x1="350.465" y1="180.135" x2="350.427" y2="180.199"/>
				</g>
			</g>
		</g>
		<g>
			
				<path fill="#A1C453" stroke="#333333" stroke-width="1.0616" stroke-linecap="round" stroke-linejoin="round" stroke-miterlimit="10" d="
				M368.139,202.535c-1.061-0.723-1.189-1.68-3.848-1.236c-2.658,0.441-1.16,2.071-2.909,2.363c1.749-0.292,0.968,1.775,3.526,1.348
				C367.47,204.583,367.287,203.494,368.139,202.535z"/>
			<g>
				<line fill="none" x1="361.382" y1="203.662" x2="366.617" y2="202.789"/>
				<g>
					<polyline fill="none" stroke="#333333" stroke-width="1.0616" stroke-linecap="round" stroke-miterlimit="10" points="
						361.905,203.575 362.584,203.462 363.861,203.249 364.449,203.15 					"/>
					
						<line fill="none" stroke="#333333" stroke-width="1.0616" stroke-linecap="round" stroke-miterlimit="10" x1="366.095" y1="202.876" x2="366.021" y2="202.889"/>
				</g>
			</g>
		</g>
		<g>
			
				<path fill="#A1C453" stroke="#333333" stroke-width="1.5923" stroke-linecap="round" stroke-linejoin="round" stroke-miterlimit="10" d="
				M374.947,213.869c-0.601-3.17,0.872-5.104-4.641-9.043c-5.513-3.938-5.748,1.623-9.376-0.971
				c3.628,2.594-1.432,4.879,3.878,8.668C370.117,216.316,371.733,214.059,374.947,213.869z"/>
			<g>
				<line fill="none" x1="360.931" y1="203.855" x2="371.791" y2="211.613"/>
				<g>
					<polyline fill="none" stroke="#333333" stroke-width="1.0616" stroke-linecap="round" stroke-miterlimit="10" points="
						361.362,204.165 361.922,204.564 369.518,209.988 370.004,210.337 					"/>
					
						<line fill="none" stroke="#333333" stroke-width="1.0616" stroke-linecap="round" stroke-miterlimit="10" x1="371.36" y1="211.307" x2="371.299" y2="211.264"/>
				</g>
			</g>
		</g>
		<path fill="#CC924C" stroke="#333333" stroke-width="2.6539" stroke-linecap="round" stroke-miterlimit="10" d="M310.025,207.434
			l55.306-21.064c1.03-0.403,2.195,0.104,2.601,1.138l0,0c0.404,1.033-0.106,2.197-1.137,2.6l-54.919,22.057"/>
		<g>
			
				<path fill="#A1C453" stroke="#333333" stroke-width="1.0616" stroke-linecap="round" stroke-linejoin="round" stroke-miterlimit="10" d="
				M368.645,188.89c0,0,2.261-2.158,2.592-2.702c0.27-0.435-3.027,0.115-4.177,0.529L368.645,188.89z"/>
			
				<path fill="#A1C453" stroke="#333333" stroke-width="1.0616" stroke-linecap="round" stroke-linejoin="round" stroke-miterlimit="10" d="
				M367.979,186.5l-2.161,4.294c0,0,4.664-1.061,5.746-2.744C371.564,188.05,369.348,187.361,367.979,186.5z"/>
			
				<path fill="#A1C453" stroke="#333333" stroke-width="1.0616" stroke-linecap="round" stroke-linejoin="round" stroke-miterlimit="10" d="
				M362.44,188c0,0,4.221-4.18,7.688-3.621l-2.274,4.006L362.44,188z"/>
		</g>
		<g>
			
				<path fill="#FFFFFF" stroke="#333333" stroke-width="1.0616" stroke-linecap="round" stroke-linejoin="round" stroke-miterlimit="10" d="
				M344.003,187.976c-0.07,0.471-0.949,0.823-1.637,1.015c-1.233,0.346-3.114-0.28-2.893-1.759c0.227-1.483,2.21-1.53,3.288-0.839
				C343.36,186.778,344.076,187.503,344.003,187.976z"/>
			
				<path fill="#FFFFFF" stroke="#333333" stroke-width="1.0616" stroke-linecap="round" stroke-linejoin="round" stroke-miterlimit="10" d="
				M344.106,188.047c0.443-0.174,1.188,0.413,1.696,0.91c0.918,0.898,1.313,2.841-0.076,3.385c-1.397,0.547-2.432-1.146-2.371-2.426
				C343.39,189.204,343.659,188.221,344.106,188.047z"/>
			
				<path fill="#FFFFFF" stroke="#333333" stroke-width="1.0616" stroke-linecap="round" stroke-linejoin="round" stroke-miterlimit="10" d="
				M344.117,187.932c-0.371-0.299-0.236-1.235-0.059-1.925c0.317-1.243,1.801-2.56,2.968-1.624c1.173,0.936,0.222,2.677-0.916,3.266
				C345.479,187.973,344.492,188.23,344.117,187.932z"/>
			
				<path fill="#FFFFFF" stroke="#333333" stroke-width="1.0616" stroke-linecap="round" stroke-linejoin="round" stroke-miterlimit="10" d="
				M343.985,187.845c-0.44,0.173-1.187-0.413-1.695-0.911c-0.916-0.897-1.313-2.838,0.077-3.383c1.397-0.547,2.432,1.146,2.37,2.425
				C344.702,186.688,344.432,187.67,343.985,187.845z"/>
			
				<path fill="#FFFFFF" stroke="#333333" stroke-width="1.0616" stroke-linecap="round" stroke-linejoin="round" stroke-miterlimit="10" d="
				M343.98,187.967c0.37,0.295,0.236,1.234,0.058,1.922c-0.316,1.244-1.8,2.559-2.968,1.628c-1.173-0.938-0.222-2.68,0.916-3.267
				C342.618,187.924,343.606,187.668,343.98,187.967z"/>
			
				<path fill="#FFFFFF" stroke="#333333" stroke-width="1.0616" stroke-linecap="round" stroke-linejoin="round" stroke-miterlimit="10" d="
				M344.094,187.897c0.069-0.47,0.949-0.822,1.636-1.015c1.235-0.345,3.115,0.281,2.892,1.76c-0.226,1.482-2.208,1.531-3.284,0.84
				C344.735,189.096,344.021,188.37,344.094,187.897z"/>
			
				<circle fill="#F9D53E" stroke="#333333" stroke-width="1.0616" stroke-linecap="round" stroke-linejoin="round" stroke-miterlimit="10" cx="343.986" cy="187.845" r="0.987"/>
		</g>
	</g>
</g>
<g id="calque05">
	<g>
		
			<polygon fill="#CC924C" stroke="#333333" stroke-width="1.0616" stroke-linecap="round" stroke-linejoin="round" stroke-miterlimit="10" points="
			344.69,189.845 338.587,196.832 341.376,195.74 		"/>
		
			<polygon fill="#CC924C" stroke="#333333" stroke-width="1.0616" stroke-linecap="round" stroke-linejoin="round" stroke-miterlimit="10" points="
			361.394,203.848 345.657,198.376 348.447,197.283 		"/>
		<g>
			
				<path fill="#A1C453" stroke="#333333" stroke-width="1.5923" stroke-linecap="round" stroke-linejoin="round" stroke-miterlimit="10" d="
				M345.085,210.904c-0.93-2.701,0.117-4.584-5.217-7.34c-5.335-2.752-4.836,2.152-8.347,0.34c3.511,1.814-0.637,4.461,4.5,7.111
				C341.161,213.668,342.289,211.479,345.085,210.904z"/>
			<g>
				<line fill="none" x1="331.522" y1="203.904" x2="342.031" y2="209.331"/>
				<g>
					<polyline fill="none" stroke="#333333" stroke-width="1.0616" stroke-linecap="round" stroke-miterlimit="10" points="
						331.993,204.148 332.605,204.464 339.549,208.049 340.078,208.322 					"/>
					
						<line fill="none" stroke="#333333" stroke-width="1.0616" stroke-linecap="round" stroke-miterlimit="10" x1="341.561" y1="209.088" x2="341.493" y2="209.055"/>
				</g>
			</g>
		</g>
		<g>
			
				<path fill="#A1C453" stroke="#333333" stroke-width="1.5923" stroke-linecap="round" stroke-linejoin="round" stroke-miterlimit="10" d="
				M352.49,176.727c-2.753,0.766-4.57-0.393-7.64,4.768c-3.069,5.161,1.858,4.955-0.161,8.351c2.02-3.396,4.412,0.903,7.367-4.065
				C355.012,180.809,352.897,179.55,352.49,176.727z"/>
			<g>
				<line fill="none" x1="344.69" y1="189.845" x2="350.736" y2="179.679"/>
				<g>
					<polyline fill="none" stroke="#333333" stroke-width="1.0616" stroke-linecap="round" stroke-miterlimit="10" points="
						344.962,189.389 345.313,188.797 349.308,182.081 349.613,181.567 					"/>
					
						<line fill="none" stroke="#333333" stroke-width="1.0616" stroke-linecap="round" stroke-miterlimit="10" x1="350.465" y1="180.135" x2="350.427" y2="180.199"/>
				</g>
			</g>
		</g>
		<g>
			
				<path fill="#A1C453" stroke="#333333" stroke-width="1.5923" stroke-linecap="round" stroke-linejoin="round" stroke-miterlimit="10" d="
				M378.329,200.793c-2.666-1.815-2.99-4.226-9.674-3.113c-6.683,1.115-2.918,5.212-7.313,5.945
				c4.396-0.732,2.434,4.461,8.869,3.387C376.648,205.939,376.191,203.2,378.329,200.793z"/>
			<g>
				<line fill="none" x1="361.342" y1="203.625" x2="374.508" y2="201.432"/>
				<g>
					<polyline fill="none" stroke="#333333" stroke-width="1.0616" stroke-linecap="round" stroke-miterlimit="10" points="
						361.865,203.538 362.544,203.425 371.75,201.891 372.34,201.793 					"/>
					
						<line fill="none" stroke="#333333" stroke-width="1.0616" stroke-linecap="round" stroke-miterlimit="10" x1="373.984" y1="201.52" x2="373.909" y2="201.531"/>
				</g>
			</g>
		</g>
		<g>
			
				<path fill="#A1C453" stroke="#333333" stroke-width="1.5923" stroke-linecap="round" stroke-linejoin="round" stroke-miterlimit="10" d="
				M374.947,213.869c-0.601-3.17,0.872-5.104-4.641-9.043c-5.512-3.936-5.748,1.623-9.376-0.971
				c3.628,2.594-1.432,4.879,3.878,8.668C370.117,216.316,371.733,214.059,374.947,213.869z"/>
			<g>
				<line fill="none" x1="360.931" y1="203.855" x2="371.791" y2="211.613"/>
				<g>
					<polyline fill="none" stroke="#333333" stroke-width="1.0616" stroke-linecap="round" stroke-miterlimit="10" points="
						361.362,204.165 361.922,204.564 369.518,209.988 370.004,210.337 					"/>
					
						<line fill="none" stroke="#333333" stroke-width="1.0616" stroke-linecap="round" stroke-miterlimit="10" x1="371.36" y1="211.307" x2="371.299" y2="211.264"/>
				</g>
			</g>
		</g>
		<g>
			
				<path fill="#A1C453" stroke="#333333" stroke-width="1.0616" stroke-linecap="round" stroke-linejoin="round" stroke-miterlimit="10" d="
				M371.837,179.699c-0.905,0.266-1.512-0.109-2.501,1.607c-0.991,1.717,0.636,1.628-0.019,2.758
				c0.653-1.13,1.461,0.277,2.414-1.375C372.687,181.035,371.984,180.631,371.837,179.699z"/>
			<g>
				<line fill="none" x1="369.318" y1="184.064" x2="371.27" y2="180.683"/>
				<g>
					
						<line fill="none" stroke="#333333" stroke-width="1.0616" stroke-linecap="round" stroke-miterlimit="10" x1="369.383" y1="183.952" x2="371.002" y2="181.147"/>
					
						<line fill="none" stroke="#333333" stroke-width="1.0616" stroke-linecap="round" stroke-miterlimit="10" x1="371.204" y1="180.795" x2="371.195" y2="180.811"/>
				</g>
			</g>
		</g>
		<g>
			<g>
				<path fill="#D3F46C" d="M340.426,191.769c-2.208-0.526-4.098-3.607-3.047-4.954c-0.397-1.855,2.744-3.572,4.953-3.046
					c2.21,0.526,4.136,2.13,2.517,4.968C345.022,191.85,342.635,192.295,340.426,191.769z"/>
				<g>
					<path fill="none" stroke="#333333" stroke-width="1.0616" stroke-linecap="round" stroke-miterlimit="10" d="M339.924,191.599
						c-0.213-0.087-0.415-0.194-0.608-0.319c-0.823-0.533-1.492-1.305-1.905-2.195c-0.203-0.443-0.349-0.929-0.321-1.422
						c0.021-0.242,0.066-0.492,0.202-0.699c0.027-0.053,0.068-0.104,0.088-0.159l-0.02-0.183c-0.021-0.123-0.006-0.244,0.012-0.366
						c0.182-0.995,1.073-1.656,1.931-2.077c0.889-0.4,1.896-0.62,2.866-0.438c0.951,0.198,1.908,0.588,2.588,1.31
						c0.334,0.358,0.574,0.81,0.652,1.295c0.083,0.486,0.01,0.984-0.137,1.451c-0.104,0.479-0.537,0.861-0.42,1.381
						c-0.02,0.488-0.096,0.983-0.313,1.427c-0.217,0.443-0.584,0.807-1.025,1.021l-0.333,0.141l-0.189,0.054
						c-0.125,0.042-0.255,0.061-0.384,0.082"/>
					
						<line fill="none" stroke="#333333" stroke-width="1.0616" stroke-linecap="round" stroke-miterlimit="10" x1="340.946" y1="191.871" x2="341.021" y2="191.882"/>
				</g>
			</g>
			
				<ellipse transform="matrix(0.6617 0.7498 -0.7498 0.6617 255.4371 -194.5858)" opacity="0.5" fill="#FFFFFF" enable-background="new    " cx="343.344" cy="185.763" rx="0.942" ry="0.774"/>
		</g>
		<path fill="#CC924C" stroke="#333333" stroke-width="2.6539" stroke-linecap="round" stroke-miterlimit="10" d="M310.025,207.434
			l64.891-24.814c1.032-0.404,2.197,0.104,2.603,1.138l0,0c0.404,1.031-0.106,2.195-1.139,2.6l-64.505,25.807"/>
		<g>
			
				<path fill="#A1C453" stroke="#333333" stroke-width="1.0616" stroke-linecap="round" stroke-linejoin="round" stroke-miterlimit="10" d="
				M378.23,185.14c0,0,2.26-2.158,2.592-2.702c0.271-0.436-3.027,0.115-4.176,0.528L378.23,185.14z"/>
			
				<path fill="#A1C453" stroke="#333333" stroke-width="1.0616" stroke-linecap="round" stroke-linejoin="round" stroke-miterlimit="10" d="
				M377.565,182.749l-2.161,4.297c0,0,4.664-1.063,5.746-2.747C381.15,184.299,378.935,183.611,377.565,182.749z"/>
			
				<path fill="#A1C453" stroke="#333333" stroke-width="1.0616" stroke-linecap="round" stroke-linejoin="round" stroke-miterlimit="10" d="
				M372.025,184.25c0,0,4.222-4.18,7.689-3.621l-2.274,4.005L372.025,184.25z"/>
		</g>
		<g>
			
				<path fill="#FFFFFF" stroke="#333333" stroke-width="1.0616" stroke-linecap="round" stroke-linejoin="round" stroke-miterlimit="10" d="
				M361.317,205.008c-0.072,0.469-0.95,0.821-1.636,1.014c-1.235,0.348-3.116-0.28-2.893-1.76c0.227-1.482,2.209-1.531,3.285-0.84
				C360.675,203.809,361.39,204.535,361.317,205.008z"/>
			
				<path fill="#FFFFFF" stroke="#333333" stroke-width="1.0616" stroke-linecap="round" stroke-linejoin="round" stroke-miterlimit="10" d="
				M361.421,205.078c0.441-0.174,1.187,0.412,1.693,0.91c0.919,0.898,1.316,2.84-0.075,3.385c-1.396,0.546-2.431-1.146-2.37-2.428
				C360.702,206.234,360.975,205.252,361.421,205.078z"/>
			
				<path fill="#FFFFFF" stroke="#333333" stroke-width="1.0616" stroke-linecap="round" stroke-linejoin="round" stroke-miterlimit="10" d="
				M361.432,204.962c-0.371-0.298-0.237-1.235-0.061-1.925c0.319-1.242,1.803-2.559,2.971-1.625
				c1.173,0.938,0.222,2.678-0.916,3.266C362.793,205.004,361.806,205.26,361.432,204.962z"/>
			
				<path fill="#FFFFFF" stroke="#333333" stroke-width="1.0616" stroke-linecap="round" stroke-linejoin="round" stroke-miterlimit="10" d="
				M361.3,204.875c-0.443,0.172-1.188-0.412-1.696-0.912c-0.917-0.896-1.314-2.838,0.077-3.383c1.396-0.547,2.431,1.146,2.371,2.427
				C362.016,203.719,361.744,204.699,361.3,204.875z"/>
			
				<path fill="#FFFFFF" stroke="#333333" stroke-width="1.0616" stroke-linecap="round" stroke-linejoin="round" stroke-miterlimit="10" d="
				M361.291,204.998c0.372,0.295,0.239,1.232,0.062,1.922c-0.318,1.244-1.801,2.559-2.968,1.627c-1.173-0.938-0.224-2.68,0.915-3.27
				C359.934,204.955,360.92,204.697,361.291,204.998z"/>
			
				<path fill="#FFFFFF" stroke="#333333" stroke-width="1.0616" stroke-linecap="round" stroke-linejoin="round" stroke-miterlimit="10" d="
				M361.406,204.928c0.07-0.47,0.949-0.822,1.637-1.014c1.234-0.346,3.114,0.281,2.891,1.758c-0.225,1.484-2.208,1.532-3.285,0.842
				C362.051,206.126,361.335,205.4,361.406,204.928z"/>
			
				<circle fill="#F9D53E" stroke="#333333" stroke-width="1.0616" stroke-linecap="round" stroke-linejoin="round" stroke-miterlimit="10" cx="361.3" cy="204.875" r="0.986"/>
		</g>
	</g>
</g>
<g id="calque06">
	<g>
		
			<polygon fill="#CC924C" stroke="#333333" stroke-width="1.0616" stroke-linecap="round" stroke-linejoin="round" stroke-miterlimit="10" points="
			344.69,189.845 338.587,196.832 341.376,195.74 		"/>
		
			<polygon fill="#CC924C" stroke="#333333" stroke-width="1.0616" stroke-linecap="round" stroke-linejoin="round" stroke-miterlimit="10" points="
			371.49,178.718 367.751,185.422 370.539,184.33 		"/>
		
			<polygon fill="#CC924C" stroke="#333333" stroke-width="1.0616" stroke-linecap="round" stroke-linejoin="round" stroke-miterlimit="10" points="
			361.394,203.848 345.657,198.376 348.447,197.283 		"/>
		<g>
			
				<path fill="#A1C453" stroke="#333333" stroke-width="1.5923" stroke-linecap="round" stroke-linejoin="round" stroke-miterlimit="10" d="
				M345.085,210.904c-0.93-2.701,0.117-4.584-5.217-7.338c-5.335-2.754-4.836,2.15-8.347,0.338c3.511,1.814-0.637,4.461,4.5,7.111
				C341.161,213.668,342.289,211.479,345.085,210.904z"/>
			<g>
				<line fill="none" x1="331.522" y1="203.904" x2="342.031" y2="209.331"/>
				<g>
					<polyline fill="none" stroke="#333333" stroke-width="1.0616" stroke-linecap="round" stroke-miterlimit="10" points="
						331.993,204.148 332.605,204.464 339.549,208.049 340.078,208.322 					"/>
					
						<line fill="none" stroke="#333333" stroke-width="1.0616" stroke-linecap="round" stroke-miterlimit="10" x1="341.561" y1="209.088" x2="341.493" y2="209.055"/>
				</g>
			</g>
		</g>
		<g>
			
				<path fill="#A1C453" stroke="#333333" stroke-width="1.5923" stroke-linecap="round" stroke-linejoin="round" stroke-miterlimit="10" d="
				M352.49,176.727c-2.753,0.766-4.57-0.393-7.64,4.768c-3.069,5.161,1.858,4.955-0.161,8.351c2.02-3.396,4.412,0.903,7.367-4.065
				C355.012,180.809,352.897,179.55,352.49,176.727z"/>
			<g>
				<line fill="none" x1="344.69" y1="189.845" x2="350.736" y2="179.679"/>
				<g>
					<polyline fill="none" stroke="#333333" stroke-width="1.0616" stroke-linecap="round" stroke-miterlimit="10" points="
						344.962,189.389 345.313,188.797 349.308,182.081 349.613,181.567 					"/>
					
						<line fill="none" stroke="#333333" stroke-width="1.0616" stroke-linecap="round" stroke-miterlimit="10" x1="350.465" y1="180.135" x2="350.427" y2="180.199"/>
				</g>
			</g>
		</g>
		<g>
			
				<path fill="#A1C453" stroke="#333333" stroke-width="1.5923" stroke-linecap="round" stroke-linejoin="round" stroke-miterlimit="10" d="
				M378.329,200.793c-2.666-1.815-2.99-4.226-9.674-3.113c-6.683,1.115-2.918,5.212-7.313,5.945
				c4.396-0.732,2.434,4.461,8.869,3.387C376.648,205.939,376.191,203.2,378.329,200.793z"/>
			<g>
				<line fill="none" x1="361.342" y1="203.625" x2="374.508" y2="201.432"/>
				<g>
					<polyline fill="none" stroke="#333333" stroke-width="1.0616" stroke-linecap="round" stroke-miterlimit="10" points="
						361.865,203.538 362.544,203.425 371.75,201.891 372.34,201.793 					"/>
					
						<line fill="none" stroke="#333333" stroke-width="1.0616" stroke-linecap="round" stroke-miterlimit="10" x1="373.984" y1="201.52" x2="373.909" y2="201.531"/>
				</g>
			</g>
		</g>
		<g>
			
				<path fill="#A1C453" stroke="#333333" stroke-width="1.5923" stroke-linecap="round" stroke-linejoin="round" stroke-miterlimit="10" d="
				M374.947,213.869c-0.6-3.169,0.872-5.104-4.641-9.043c-5.512-3.936-5.748,1.623-9.376-0.971c3.628,2.594-1.432,4.879,3.878,8.668
				C370.117,216.316,371.733,214.059,374.947,213.869z"/>
			<g>
				<line fill="none" x1="360.931" y1="203.855" x2="371.791" y2="211.613"/>
				<g>
					<polyline fill="none" stroke="#333333" stroke-width="1.0616" stroke-linecap="round" stroke-miterlimit="10" points="
						361.362,204.165 361.922,204.564 369.518,209.988 370.004,210.337 					"/>
					
						<line fill="none" stroke="#333333" stroke-width="1.0616" stroke-linecap="round" stroke-miterlimit="10" x1="371.36" y1="211.307" x2="371.299" y2="211.264"/>
				</g>
			</g>
		</g>
		<g>
			
				<path fill="#A1C453" stroke="#333333" stroke-width="1.0616" stroke-linecap="round" stroke-linejoin="round" stroke-miterlimit="10" d="
				M384.379,187.644c-0.523-0.919-0.274-1.677-2.402-2.31c-2.129-0.634-1.61,1.114-3.011,0.697c1.399,0.417,0.075,1.664,2.126,2.274
				C383.141,188.917,383.401,188.043,384.379,187.644z"/>
			<g>
				<line fill="none" x1="378.966" y1="186.031" x2="383.158" y2="187.28"/>
				<g>
					<polyline fill="none" stroke="#333333" stroke-width="1.0616" stroke-linecap="round" stroke-miterlimit="10" points="
						379.475,186.183 380.134,186.379 380.48,186.482 381.053,186.652 					"/>
					
						<line fill="none" stroke="#333333" stroke-width="1.0616" stroke-linecap="round" stroke-miterlimit="10" x1="382.65" y1="187.129" x2="382.578" y2="187.107"/>
				</g>
			</g>
		</g>
		<g>
			
				<path fill="#A1C453" stroke="#333333" stroke-width="1.0616" stroke-linecap="round" stroke-linejoin="round" stroke-miterlimit="10" d="
				M366.586,175.682c0.403,0.979,0.062,1.697,2.094,2.594c2.032,0.896,1.735-0.906,3.074-0.316c-1.339-0.59,0.135-1.66-1.824-2.523
				C367.972,174.574,367.604,175.406,366.586,175.682z"/>
			<g>
				<line fill="none" x1="371.754" y1="177.959" x2="367.747" y2="176.195"/>
				<g>
					<polyline fill="none" stroke="#333333" stroke-width="1.0616" stroke-linecap="round" stroke-miterlimit="10" points="
						371.268,177.745 370.639,177.468 370.307,177.321 369.76,177.081 					"/>
					
						<line fill="none" stroke="#333333" stroke-width="1.0616" stroke-linecap="round" stroke-miterlimit="10" x1="368.234" y1="176.409" x2="368.302" y2="176.439"/>
				</g>
			</g>
		</g>
		<g>
			
				<path fill="#A1C453" stroke="#333333" stroke-width="1.5923" stroke-linecap="round" stroke-linejoin="round" stroke-miterlimit="10" d="
				M380.098,163.799c-3.096,0.905-5.164-0.375-8.549,5.494c-3.387,5.867,2.17,5.563-0.06,9.425c2.229-3.861,4.992,0.954,8.252-4.698
				C383.004,168.369,380.598,166.98,380.098,163.799z"/>
			<g>
				<line fill="none" x1="371.49" y1="178.718" x2="378.16" y2="167.156"/>
				<g>
					<polyline fill="none" stroke="#333333" stroke-width="1.0616" stroke-linecap="round" stroke-miterlimit="10" points="
						371.756,178.258 372.1,177.662 376.764,169.577 377.063,169.06 					"/>
					
						<line fill="none" stroke="#333333" stroke-width="1.0616" stroke-linecap="round" stroke-miterlimit="10" x1="377.896" y1="167.616" x2="377.858" y2="167.681"/>
				</g>
			</g>
		</g>
		<g>
			<g>
				<path fill="#D3F46C" d="M336.964,193.322c-3.622-0.864-6.717-5.916-4.994-8.119c-0.651-3.045,4.496-5.857,8.12-4.996
					c3.617,0.863,6.774,3.492,4.12,8.146C344.494,193.454,340.584,194.184,336.964,193.322z"/>
				<g>
					<path fill="none" stroke="#333333" stroke-width="1.5923" stroke-linecap="round" stroke-miterlimit="10" d="M336.207,193.074
						c-0.313-0.141-0.63-0.277-0.918-0.467c-1.397-0.848-2.514-2.133-3.23-3.597c-0.349-0.733-0.604-1.538-0.572-2.359
						c0.031-0.404,0.103-0.819,0.315-1.169l0.158-0.263c0.014-0.097-0.015-0.202-0.02-0.303c-0.036-0.203-0.021-0.406,0.013-0.608
						c0.115-0.815,0.602-1.529,1.185-2.091c0.589-0.566,1.287-1.01,2.024-1.358c1.48-0.663,3.163-1.008,4.774-0.679
						c1.577,0.357,3.163,1.031,4.249,2.272c0.534,0.617,0.889,1.393,0.978,2.206c0.104,0.815-0.071,1.641-0.354,2.4
						c-0.128,0.39-0.321,0.75-0.508,1.114c-0.136,0.172-0.078,0.39-0.088,0.591c-0.006,0.204,0.016,0.409-0.011,0.612
						c-0.047,0.813-0.255,1.629-0.678,2.328c-0.422,0.701-1.094,1.234-1.854,1.53c-0.179,0.09-0.398,0.132-0.569,0.187
						c-0.095,0.026-0.188,0.058-0.286,0.069c-0.193,0.03-0.387,0.073-0.582,0.093"/>
					
						<line fill="none" stroke="#333333" stroke-width="1.5923" stroke-linecap="round" stroke-miterlimit="10" x1="337.743" y1="193.479" x2="337.855" y2="193.495"/>
				</g>
			</g>
			<path opacity="0.5" fill="#FFFFFF" enable-background="new    " d="M340.814,184.313c-0.563-0.637-0.598-1.529-0.072-1.993
				c0.526-0.464,1.408-0.323,1.974,0.313c0.565,0.637,0.599,1.53,0.073,1.994C342.264,185.091,341.379,184.949,340.814,184.313z"/>
		</g>
		<path fill="#CC924C" stroke="#333333" stroke-width="2.6539" stroke-linecap="round" stroke-miterlimit="10" d="M310.026,207.438
			l71.629-27.457c1.032-0.404,2.196,0.106,2.602,1.139l0,0c0.403,1.032-0.105,2.196-1.139,2.601l-71.242,28.442"/>
		<g>
			
				<path fill="#A1C453" stroke="#333333" stroke-width="1.0616" stroke-linecap="round" stroke-linejoin="round" stroke-miterlimit="10" d="
				M384.971,182.502c0,0,2.26-2.156,2.591-2.702c0.269-0.433-3.029,0.116-4.177,0.53L384.971,182.502z"/>
			
				<path fill="#A1C453" stroke="#333333" stroke-width="1.0616" stroke-linecap="round" stroke-linejoin="round" stroke-miterlimit="10" d="
				M384.305,180.113l-2.161,4.295c0,0,4.664-1.063,5.745-2.745C387.889,181.663,385.673,180.975,384.305,180.113z"/>
			
				<path fill="#A1C453" stroke="#333333" stroke-width="1.0616" stroke-linecap="round" stroke-linejoin="round" stroke-miterlimit="10" d="
				M378.766,181.612c0,0,4.221-4.179,7.688-3.619l-2.272,4.005L378.766,181.612z"/>
		</g>
		<g>
			<g>
				<path fill="#D3F46C" d="M361.229,208.65c-1.884,1.268-5.431,0.565-5.708-1.119c-1.634-0.967-0.766-4.438,1.118-5.705
					c1.886-1.27,4.369-1.598,5.356,1.518C364.404,205.326,363.113,207.383,361.229,208.65z"/>
				<g>
					<path fill="none" stroke="#333333" stroke-width="1.0616" stroke-linecap="round" stroke-miterlimit="10" d="M360.764,208.904
						c-0.209,0.098-0.425,0.173-0.647,0.23c-0.95,0.243-1.971,0.213-2.904-0.087c-0.466-0.151-0.921-0.374-1.265-0.728
						c-0.165-0.18-0.315-0.383-0.378-0.623c-0.02-0.057-0.028-0.12-0.057-0.172l-0.147-0.111c-0.104-0.066-0.184-0.16-0.261-0.257
						c-0.61-0.808-0.491-1.911-0.221-2.826c0.31-0.925,0.83-1.813,1.622-2.403c0.791-0.566,1.727-1.006,2.717-1.017
						c0.49-0.003,0.984,0.126,1.396,0.397c0.413,0.27,0.729,0.662,0.974,1.086c0.281,0.401,0.27,0.979,0.73,1.244
						c0.347,0.346,0.659,0.736,0.837,1.197c0.18,0.459,0.198,0.977,0.057,1.447l-0.123,0.339l-0.088,0.176
						c-0.056,0.12-0.128,0.229-0.2,0.339"/>
					
						<line fill="none" stroke="#333333" stroke-width="1.0616" stroke-linecap="round" stroke-miterlimit="10" x1="361.656" y1="208.337" x2="361.715" y2="208.29"/>
				</g>
			</g>
			
				<ellipse transform="matrix(0.9998 0.0218 -0.0218 0.9998 4.4965 -7.7705)" opacity="0.5" fill="#FFFFFF" enable-background="new    " cx="358.807" cy="202.442" rx="0.941" ry="0.775"/>
		</g>
	</g>
</g>
<g id="calque07">
	<g>
		
			<polygon fill="#CC924C" stroke="#333333" stroke-width="1.0616" stroke-linecap="round" stroke-linejoin="round" stroke-miterlimit="10" points="
			344.69,189.845 338.587,196.832 341.376,195.74 		"/>
		
			<polygon fill="#CC924C" stroke="#333333" stroke-width="1.0616" stroke-linecap="round" stroke-linejoin="round" stroke-miterlimit="10" points="
			371.49,178.718 367.751,185.422 370.539,184.33 		"/>
		
			<polygon fill="#CC924C" stroke="#333333" stroke-width="1.0616" stroke-linecap="round" stroke-linejoin="round" stroke-miterlimit="10" points="
			361.394,203.848 345.657,198.376 348.447,197.283 		"/>
		
			<polygon fill="#CC924C" stroke="#333333" stroke-width="1.0616" stroke-linecap="round" stroke-linejoin="round" stroke-miterlimit="10" points="
			385.344,188.431 377.211,186.031 379.012,185.326 		"/>
		<g>
			
				<path fill="#A1C453" stroke="#333333" stroke-width="1.5923" stroke-linecap="round" stroke-linejoin="round" stroke-miterlimit="10" d="
				M345.085,210.904c-0.93-2.701,0.117-4.584-5.217-7.338c-5.335-2.754-4.836,2.15-8.347,0.338c3.511,1.814-0.637,4.461,4.5,7.111
				C341.161,213.668,342.289,211.479,345.085,210.904z"/>
			<g>
				<line fill="none" x1="331.522" y1="203.904" x2="342.031" y2="209.331"/>
				<g>
					<polyline fill="none" stroke="#333333" stroke-width="1.0616" stroke-linecap="round" stroke-miterlimit="10" points="
						331.993,204.148 332.605,204.464 339.549,208.049 340.078,208.322 					"/>
					
						<line fill="none" stroke="#333333" stroke-width="1.0616" stroke-linecap="round" stroke-miterlimit="10" x1="341.561" y1="209.088" x2="341.493" y2="209.055"/>
				</g>
			</g>
		</g>
		<g>
			
				<path fill="#A1C453" stroke="#333333" stroke-width="1.5923" stroke-linecap="round" stroke-linejoin="round" stroke-miterlimit="10" d="
				M352.49,176.727c-2.753,0.766-4.57-0.393-7.64,4.768c-3.069,5.161,1.858,4.955-0.161,8.351c2.02-3.396,4.412,0.903,7.367-4.065
				C355.012,180.809,352.897,179.55,352.49,176.727z"/>
			<g>
				<line fill="none" x1="344.69" y1="189.845" x2="350.736" y2="179.679"/>
				<g>
					<polyline fill="none" stroke="#333333" stroke-width="1.0616" stroke-linecap="round" stroke-miterlimit="10" points="
						344.962,189.389 345.313,188.797 349.308,182.081 349.613,181.567 					"/>
					
						<line fill="none" stroke="#333333" stroke-width="1.0616" stroke-linecap="round" stroke-miterlimit="10" x1="350.465" y1="180.135" x2="350.427" y2="180.199"/>
				</g>
			</g>
		</g>
		<g>
			
				<path fill="#A1C453" stroke="#333333" stroke-width="1.5923" stroke-linecap="round" stroke-linejoin="round" stroke-miterlimit="10" d="
				M378.329,200.793c-2.666-1.815-2.99-4.226-9.674-3.113c-6.683,1.115-2.918,5.212-7.313,5.945
				c4.396-0.732,2.434,4.461,8.869,3.387C376.648,205.939,376.191,203.2,378.329,200.793z"/>
			<g>
				<line fill="none" x1="361.342" y1="203.625" x2="374.508" y2="201.432"/>
				<g>
					<polyline fill="none" stroke="#333333" stroke-width="1.0616" stroke-linecap="round" stroke-miterlimit="10" points="
						361.865,203.538 362.544,203.425 371.75,201.891 372.34,201.793 					"/>
					
						<line fill="none" stroke="#333333" stroke-width="1.0616" stroke-linecap="round" stroke-miterlimit="10" x1="373.984" y1="201.52" x2="373.909" y2="201.531"/>
				</g>
			</g>
		</g>
		<g>
			
				<path fill="#A1C453" stroke="#333333" stroke-width="1.5923" stroke-linecap="round" stroke-linejoin="round" stroke-miterlimit="10" d="
				M374.947,213.869c-0.6-3.169,0.872-5.104-4.641-9.043c-5.512-3.936-5.748,1.623-9.376-0.971c3.628,2.594-1.432,4.879,3.878,8.668
				C370.117,216.316,371.733,214.059,374.947,213.869z"/>
			<g>
				<line fill="none" x1="360.931" y1="203.855" x2="371.791" y2="211.613"/>
				<g>
					<polyline fill="none" stroke="#333333" stroke-width="1.0616" stroke-linecap="round" stroke-miterlimit="10" points="
						361.362,204.165 361.922,204.564 369.518,209.988 370.004,210.337 					"/>
					
						<line fill="none" stroke="#333333" stroke-width="1.0616" stroke-linecap="round" stroke-miterlimit="10" x1="371.36" y1="211.307" x2="371.299" y2="211.264"/>
				</g>
			</g>
		</g>
		<g>
			
				<path fill="#A1C453" stroke="#333333" stroke-width="1.5923" stroke-linecap="round" stroke-linejoin="round" stroke-miterlimit="10" d="
				M397.485,191.996c-1.268-2.223-0.659-4.055-5.811-5.588c-5.15-1.533-3.896,2.697-7.283,1.689
				c3.389,1.008,0.182,4.025,5.142,5.504C394.492,195.076,395.121,192.966,397.485,191.996z"/>
			<g>
				<line fill="none" x1="384.392" y1="188.098" x2="394.538" y2="191.117"/>
				<g>
					<polyline fill="none" stroke="#333333" stroke-width="1.0616" stroke-linecap="round" stroke-miterlimit="10" points="
						384.9,188.249 385.56,188.445 391.859,190.32 392.433,190.49 					"/>
					
						<line fill="none" stroke="#333333" stroke-width="1.0616" stroke-linecap="round" stroke-miterlimit="10" x1="394.03" y1="190.966" x2="393.959" y2="190.944"/>
				</g>
			</g>
		</g>
		<g>
			
				<path fill="#A1C453" stroke="#333333" stroke-width="0.8493" stroke-linecap="round" stroke-linejoin="round" stroke-miterlimit="10" d="
				M387.911,194.095c0.313-1.136,1.105-1.534-0.07-3.71c-1.179-2.176-2.147-0.389-2.922-1.82c0.773,1.432-1.251,1.369-0.116,3.465
				C385.936,194.125,386.826,193.642,387.911,194.095z"/>
			<g>
				<line fill="none" x1="384.919" y1="188.564" x2="387.239" y2="192.851"/>
				<g>
					<polyline fill="none" stroke="#333333" stroke-width="1.0616" stroke-linecap="round" stroke-miterlimit="10" points="
						385.172,189.031 385.498,189.636 385.907,190.393 386.193,190.918 					"/>
					
						<line fill="none" stroke="#333333" stroke-width="1.0616" stroke-linecap="round" stroke-miterlimit="10" x1="386.986" y1="192.384" x2="386.95" y2="192.318"/>
				</g>
			</g>
		</g>
		<g>
			
				<path fill="#A1C453" stroke="#333333" stroke-width="1.0616" stroke-linecap="round" stroke-linejoin="round" stroke-miterlimit="10" d="
				M369.432,171.721c-0.626,1.143-1.583,1.367-0.873,4.014c0.709,2.643,2.21,0.969,2.677,2.709c-0.467-1.74,1.698-1.152,1.016-3.699
				C371.568,172.196,370.483,172.486,369.432,171.721z"/>
			<g>
				<line fill="none" x1="371.235" y1="178.443" x2="369.837" y2="173.234"/>
				<g>
					<polyline fill="none" stroke="#333333" stroke-width="0.8493" stroke-linecap="round" stroke-miterlimit="10" points="
						371.125,178.033 370.982,177.502 370.416,175.395 370.293,174.933 					"/>
					
						<line fill="none" stroke="#333333" stroke-width="0.8493" stroke-linecap="round" stroke-miterlimit="10" x1="369.947" y1="173.645" x2="369.963" y2="173.702"/>
				</g>
			</g>
		</g>
		<g>
			
				<path fill="#A1C453" stroke="#333333" stroke-width="1.5923" stroke-linecap="round" stroke-linejoin="round" stroke-miterlimit="10" d="
				M380.098,163.799c-3.096,0.905-5.164-0.375-8.549,5.494c-3.387,5.867,2.17,5.563-0.06,9.425c2.229-3.861,4.992,0.954,8.252-4.698
				C383.004,168.369,380.598,166.98,380.098,163.799z"/>
			<g>
				<line fill="none" x1="371.49" y1="178.718" x2="378.16" y2="167.156"/>
				<g>
					<polyline fill="none" stroke="#333333" stroke-width="1.0616" stroke-linecap="round" stroke-miterlimit="10" points="
						371.756,178.258 372.1,177.662 376.764,169.577 377.063,169.06 					"/>
					
						<line fill="none" stroke="#333333" stroke-width="1.0616" stroke-linecap="round" stroke-miterlimit="10" x1="377.896" y1="167.616" x2="377.858" y2="167.681"/>
				</g>
			</g>
		</g>
		<g>
			
				<path fill="#A1C453" stroke="#333333" stroke-width="1.5923" stroke-linecap="round" stroke-linejoin="round" stroke-miterlimit="10" d="
				M359.975,171.127c0.491,2.486-0.654,4.016,3.7,7.074c4.354,3.061,4.505-1.31,7.371,0.706c-2.866-2.016,1.097-3.841-3.099-6.786
				C363.753,169.175,362.498,170.958,359.975,171.127z"/>
			<g>
				<line fill="none" x1="371.046" y1="178.907" x2="362.468" y2="172.878"/>
				<g>
					<polyline fill="none" stroke="#333333" stroke-width="1.0616" stroke-linecap="round" stroke-miterlimit="10" points="
						370.611,178.602 370.049,178.207 364.755,174.485 364.266,174.142 					"/>
					
						<line fill="none" stroke="#333333" stroke-width="1.0616" stroke-linecap="round" stroke-miterlimit="10" x1="362.902" y1="173.184" x2="362.963" y2="173.227"/>
				</g>
			</g>
		</g>
		<g>
			<g>
				<path fill="#EF4529" d="M336.964,193.322c-3.622-0.864-6.717-5.916-4.994-8.119c-0.651-3.045,4.496-5.857,8.12-4.996
					c3.617,0.863,6.774,3.492,4.12,8.146C344.494,193.454,340.584,194.184,336.964,193.322z"/>
				<g>
					<path fill="none" stroke="#333333" stroke-width="1.5923" stroke-linecap="round" stroke-miterlimit="10" d="M336.207,193.074
						c-0.313-0.141-0.63-0.277-0.918-0.467c-1.397-0.848-2.514-2.133-3.23-3.597c-0.349-0.733-0.604-1.538-0.572-2.359
						c0.031-0.404,0.103-0.819,0.315-1.169l0.158-0.263c0.014-0.097-0.015-0.202-0.02-0.303c-0.036-0.203-0.021-0.406,0.013-0.608
						c0.115-0.815,0.602-1.529,1.185-2.091c0.589-0.566,1.287-1.01,2.024-1.358c1.48-0.663,3.163-1.008,4.774-0.679
						c1.577,0.357,3.163,1.031,4.249,2.272c0.534,0.617,0.889,1.393,0.978,2.206c0.104,0.815-0.071,1.641-0.354,2.4
						c-0.128,0.39-0.321,0.75-0.508,1.114c-0.136,0.172-0.078,0.39-0.088,0.591c-0.006,0.204,0.016,0.409-0.011,0.612
						c-0.047,0.813-0.255,1.629-0.678,2.328c-0.422,0.701-1.094,1.234-1.854,1.53c-0.179,0.09-0.398,0.132-0.569,0.187
						c-0.095,0.026-0.188,0.058-0.286,0.069c-0.193,0.03-0.387,0.073-0.582,0.093"/>
					
						<line fill="none" stroke="#333333" stroke-width="1.5923" stroke-linecap="round" stroke-miterlimit="10" x1="337.743" y1="193.479" x2="337.855" y2="193.495"/>
				</g>
			</g>
			<path opacity="0.5" fill="#FFFFFF" enable-background="new    " d="M340.814,184.313c-0.563-0.637-0.598-1.529-0.072-1.993
				c0.526-0.464,1.408-0.325,1.974,0.313c0.565,0.637,0.599,1.53,0.073,1.994C342.264,185.091,341.379,184.949,340.814,184.313z"/>
		</g>
		<g>
			<g>
				<path fill="#D3F46C" d="M360.779,212.88c-3.001,2.203-8.854,1.294-9.423-1.442c-2.741-1.474-1.556-7.221,1.446-9.424
					c3-2.201,7.046-2.91,8.876,2.125C365.753,207.223,363.779,210.678,360.779,212.88z"/>
				<g>
					<path fill="none" stroke="#333333" stroke-width="1.5923" stroke-linecap="round" stroke-miterlimit="10" d="M360.102,213.296
						c-0.312,0.147-0.619,0.302-0.95,0.397c-1.552,0.52-3.253,0.537-4.833,0.139c-0.785-0.209-1.563-0.536-2.17-1.09
						c-0.288-0.285-0.559-0.607-0.688-0.997l-0.1-0.29c-0.063-0.073-0.162-0.121-0.242-0.182c-0.179-0.104-0.323-0.246-0.456-0.404
						c-0.546-0.615-0.775-1.447-0.826-2.256c-0.052-0.814,0.063-1.635,0.273-2.422c0.453-1.56,1.279-3.064,2.573-4.08
						c1.293-0.971,2.833-1.744,4.48-1.771c0.816-0.009,1.638,0.222,2.314,0.681c0.688,0.449,1.204,1.117,1.601,1.824
						c0.216,0.35,0.363,0.73,0.521,1.108c0.044,0.214,0.248,0.312,0.394,0.448c0.152,0.137,0.322,0.254,0.461,0.404
						c0.592,0.563,1.077,1.248,1.336,2.022c0.263,0.774,0.233,1.632-0.031,2.403c-0.047,0.193-0.157,0.39-0.228,0.555
						c-0.04,0.089-0.077,0.182-0.132,0.263c-0.103,0.169-0.194,0.343-0.306,0.505"/>
					
						<line fill="none" stroke="#333333" stroke-width="1.5923" stroke-linecap="round" stroke-miterlimit="10" x1="361.404" y1="212.387" x2="361.488" y2="212.313"/>
				</g>
			</g>
			
				<ellipse transform="matrix(0.9998 -0.0203 0.0203 0.9998 -4.0382 7.2648)" opacity="0.5" fill="#FFFFFF" enable-background="new    " cx="356.375" cy="202.85" rx="1.542" ry="1.27"/>
		</g>
		<path fill="#CC924C" stroke="#333333" stroke-width="2.6539" stroke-linecap="round" stroke-miterlimit="10" d="M310.025,207.434
			l81.739-31.407c1.032-0.403,2.197,0.105,2.601,1.138l0,0c0.404,1.032-0.104,2.196-1.138,2.6l-81.354,32.398"/>
		<g>
			
				<path fill="#A1C453" stroke="#333333" stroke-width="1.0616" stroke-linecap="round" stroke-linejoin="round" stroke-miterlimit="10" d="
				M395.078,178.549c0,0,2.26-2.159,2.592-2.703c0.27-0.435-3.028,0.116-4.178,0.528L395.078,178.549z"/>
			
				<path fill="#A1C453" stroke="#333333" stroke-width="1.0616" stroke-linecap="round" stroke-linejoin="round" stroke-miterlimit="10" d="
				M394.413,176.158l-2.161,4.295c0,0,4.664-1.062,5.745-2.745C397.997,177.708,395.781,177.02,394.413,176.158z"/>
			
				<path fill="#A1C453" stroke="#333333" stroke-width="1.0616" stroke-linecap="round" stroke-linejoin="round" stroke-miterlimit="10" d="
				M388.872,177.658c0,0,4.224-4.181,7.689-3.62l-2.274,4.004L388.872,177.658z"/>
		</g>
	</g>
</g>
<g id="calque08">
	<g>
		
			<polygon fill="#CC924C" stroke="#333333" stroke-width="1.0616" stroke-linecap="round" stroke-linejoin="round" stroke-miterlimit="10" points="
			344.69,189.845 338.587,196.832 341.376,195.74 		"/>
		
			<polygon fill="#CC924C" stroke="#333333" stroke-width="1.0616" stroke-linecap="round" stroke-linejoin="round" stroke-miterlimit="10" points="
			371.49,178.718 367.751,185.422 370.539,184.33 		"/>
		
			<polygon fill="#CC924C" stroke="#333333" stroke-width="1.0616" stroke-linecap="round" stroke-linejoin="round" stroke-miterlimit="10" points="
			361.394,203.848 345.657,198.376 348.447,197.283 		"/>
		
			<polygon fill="#CC924C" stroke="#333333" stroke-width="1.0616" stroke-linecap="round" stroke-linejoin="round" stroke-miterlimit="10" points="
			385.344,188.431 377.211,186.031 379.012,185.326 		"/>
		<g>
			
				<path fill="#A1C453" stroke="#333333" stroke-width="1.5923" stroke-linecap="round" stroke-linejoin="round" stroke-miterlimit="10" d="
				M345.085,210.904c-0.93-2.701,0.117-4.584-5.217-7.338c-5.335-2.754-4.836,2.15-8.347,0.338c3.511,1.814-0.637,4.461,4.5,7.111
				C341.161,213.668,342.289,211.479,345.085,210.904z"/>
			<g>
				<line fill="none" x1="331.522" y1="203.904" x2="342.031" y2="209.331"/>
				<g>
					<polyline fill="none" stroke="#333333" stroke-width="1.0616" stroke-linecap="round" stroke-miterlimit="10" points="
						331.993,204.148 332.605,204.464 339.549,208.049 340.078,208.322 					"/>
					
						<line fill="none" stroke="#333333" stroke-width="1.0616" stroke-linecap="round" stroke-miterlimit="10" x1="341.561" y1="209.088" x2="341.493" y2="209.055"/>
				</g>
			</g>
		</g>
		<g>
			
				<path fill="#A1C453" stroke="#333333" stroke-width="1.5923" stroke-linecap="round" stroke-linejoin="round" stroke-miterlimit="10" d="
				M352.49,176.727c-2.753,0.766-4.57-0.393-7.64,4.768c-3.069,5.161,1.858,4.955-0.161,8.351c2.02-3.396,4.412,0.903,7.367-4.065
				C355.012,180.809,352.897,179.55,352.49,176.727z"/>
			<g>
				<line fill="none" x1="344.69" y1="189.845" x2="350.736" y2="179.679"/>
				<g>
					<polyline fill="none" stroke="#333333" stroke-width="1.0616" stroke-linecap="round" stroke-miterlimit="10" points="
						344.962,189.389 345.313,188.797 349.308,182.081 349.613,181.567 					"/>
					
						<line fill="none" stroke="#333333" stroke-width="1.0616" stroke-linecap="round" stroke-miterlimit="10" x1="350.465" y1="180.135" x2="350.427" y2="180.199"/>
				</g>
			</g>
		</g>
		<g>
			
				<path fill="#A1C453" stroke="#333333" stroke-width="1.5923" stroke-linecap="round" stroke-linejoin="round" stroke-miterlimit="10" d="
				M378.329,200.793c-2.666-1.815-2.99-4.226-9.674-3.113c-6.683,1.115-2.918,5.212-7.313,5.945
				c4.396-0.732,2.434,4.461,8.869,3.387C376.648,205.939,376.191,203.2,378.329,200.793z"/>
			<g>
				<line fill="none" x1="361.342" y1="203.625" x2="374.508" y2="201.432"/>
				<g>
					<polyline fill="none" stroke="#333333" stroke-width="1.0616" stroke-linecap="round" stroke-miterlimit="10" points="
						361.865,203.538 362.544,203.425 371.75,201.891 372.34,201.793 					"/>
					
						<line fill="none" stroke="#333333" stroke-width="1.0616" stroke-linecap="round" stroke-miterlimit="10" x1="373.984" y1="201.52" x2="373.909" y2="201.531"/>
				</g>
			</g>
		</g>
		<g>
			
				<path fill="#A1C453" stroke="#333333" stroke-width="1.5923" stroke-linecap="round" stroke-linejoin="round" stroke-miterlimit="10" d="
				M374.947,213.869c-0.601-3.17,0.872-5.104-4.641-9.043c-5.512-3.936-5.748,1.623-9.376-0.971
				c3.628,2.594-1.432,4.879,3.878,8.668C370.117,216.316,371.733,214.059,374.947,213.869z"/>
			<g>
				<line fill="none" x1="360.931" y1="203.855" x2="371.791" y2="211.613"/>
				<g>
					<polyline fill="none" stroke="#333333" stroke-width="1.0616" stroke-linecap="round" stroke-miterlimit="10" points="
						361.362,204.165 361.922,204.564 369.518,209.988 370.004,210.337 					"/>
					
						<line fill="none" stroke="#333333" stroke-width="1.0616" stroke-linecap="round" stroke-miterlimit="10" x1="371.36" y1="211.307" x2="371.299" y2="211.264"/>
				</g>
			</g>
		</g>
		<g>
			
				<path fill="#A1C453" stroke="#333333" stroke-width="1.5923" stroke-linecap="round" stroke-linejoin="round" stroke-miterlimit="10" d="
				M397.563,192.097c-1.268-2.221-0.661-4.054-5.811-5.587c-5.15-1.533-3.896,2.699-7.283,1.688c3.389,1.01,0.182,4.024,5.142,5.504
				C394.57,195.18,395.198,193.066,397.563,192.097z"/>
			<g>
				<line fill="none" x1="384.469" y1="188.199" x2="394.614" y2="191.219"/>
				<g>
					<polyline fill="none" stroke="#333333" stroke-width="1.0616" stroke-linecap="round" stroke-miterlimit="10" points="
						384.978,188.351 385.637,188.547 391.936,190.422 392.508,190.592 					"/>
					
						<line fill="none" stroke="#333333" stroke-width="1.0616" stroke-linecap="round" stroke-miterlimit="10" x1="394.105" y1="191.067" x2="394.033" y2="191.046"/>
				</g>
			</g>
		</g>
		<g>
			
				<path fill="#A1C453" stroke="#333333" stroke-width="1.5923" stroke-linecap="round" stroke-linejoin="round" stroke-miterlimit="10" d="
				M391.102,200.531c0.675-2.467,2.398-3.332-0.159-8.058c-2.559-4.728-4.661-0.848-6.344-3.958c1.683,3.11-2.719,2.977-0.256,7.529
				S388.743,199.548,391.102,200.531z"/>
			<g>
				<line fill="none" x1="384.599" y1="188.516" x2="389.637" y2="197.828"/>
				<g>
					<polyline fill="none" stroke="#333333" stroke-width="1.0616" stroke-linecap="round" stroke-miterlimit="10" points="
						384.852,188.982 385.179,189.588 388.307,195.369 388.591,195.896 					"/>
					
						<line fill="none" stroke="#333333" stroke-width="1.0616" stroke-linecap="round" stroke-miterlimit="10" x1="389.384" y1="197.361" x2="389.349" y2="197.296"/>
				</g>
			</g>
		</g>
		<g>
			
				<path fill="#A1C453" stroke="#333333" stroke-width="1.5923" stroke-linecap="round" stroke-linejoin="round" stroke-miterlimit="10" d="
				M366.758,161.697c-1.549,2.828-3.917,3.387-2.162,9.93c1.757,6.543,5.471,2.398,6.624,6.705
				c-1.153-4.307,4.204-2.855,2.514-9.156C372.041,162.873,369.36,163.594,366.758,161.697z"/>
			<g>
				<line fill="none" x1="371.22" y1="178.332" x2="367.763" y2="165.441"/>
				<g>
					<polyline fill="none" stroke="#333333" stroke-width="1.0616" stroke-linecap="round" stroke-miterlimit="10" points="
						371.081,177.819 370.904,177.155 368.486,168.142 368.331,167.564 					"/>
					
						<line fill="none" stroke="#333333" stroke-width="1.0616" stroke-linecap="round" stroke-miterlimit="10" x1="367.9" y1="165.954" x2="367.92" y2="166.026"/>
				</g>
			</g>
		</g>
		<g>
			
				<path fill="#A1C453" stroke="#333333" stroke-width="1.5923" stroke-linecap="round" stroke-linejoin="round" stroke-miterlimit="10" d="
				M380.098,163.799c-3.096,0.905-5.164-0.375-8.549,5.494c-3.387,5.867,2.17,5.563-0.06,9.425c2.229-3.861,4.992,0.954,8.252-4.698
				C383.004,168.369,380.598,166.98,380.098,163.799z"/>
			<g>
				<line fill="none" x1="371.49" y1="178.718" x2="378.16" y2="167.156"/>
				<g>
					<polyline fill="none" stroke="#333333" stroke-width="1.0616" stroke-linecap="round" stroke-miterlimit="10" points="
						371.756,178.258 372.1,177.662 376.764,169.577 377.063,169.06 					"/>
					
						<line fill="none" stroke="#333333" stroke-width="1.0616" stroke-linecap="round" stroke-miterlimit="10" x1="377.896" y1="167.616" x2="377.858" y2="167.681"/>
				</g>
			</g>
		</g>
		<g>
			
				<path fill="#A1C453" stroke="#333333" stroke-width="1.5923" stroke-linecap="round" stroke-linejoin="round" stroke-miterlimit="10" d="
				M359.975,171.127c0.491,2.486-0.654,4.016,3.7,7.074c4.354,3.061,4.505-1.31,7.371,0.706c-2.866-2.016,1.097-3.841-3.099-6.786
				C363.753,169.174,362.498,170.958,359.975,171.127z"/>
			<g>
				<line fill="none" x1="371.046" y1="178.907" x2="362.468" y2="172.878"/>
				<g>
					<polyline fill="none" stroke="#333333" stroke-width="1.0616" stroke-linecap="round" stroke-miterlimit="10" points="
						370.611,178.602 370.049,178.207 364.755,174.485 364.266,174.142 					"/>
					
						<line fill="none" stroke="#333333" stroke-width="1.0616" stroke-linecap="round" stroke-miterlimit="10" x1="362.902" y1="173.184" x2="362.963" y2="173.227"/>
				</g>
			</g>
		</g>
		<g>
			<g>
				<path fill="#EF4529" d="M336.964,193.322c-3.622-0.864-6.717-5.916-4.994-8.119c-0.651-3.045,4.496-5.857,8.12-4.996
					c3.617,0.863,6.774,3.492,4.12,8.146C344.494,193.454,340.584,194.184,336.964,193.322z"/>
				<g>
					<path fill="none" stroke="#333333" stroke-width="1.5923" stroke-linecap="round" stroke-miterlimit="10" d="M336.207,193.074
						c-0.313-0.141-0.63-0.277-0.918-0.467c-1.397-0.848-2.514-2.133-3.23-3.597c-0.349-0.733-0.604-1.538-0.572-2.359
						c0.031-0.404,0.103-0.819,0.315-1.169l0.158-0.263c0.014-0.097-0.015-0.202-0.02-0.303c-0.036-0.203-0.021-0.406,0.013-0.608
						c0.115-0.815,0.602-1.529,1.185-2.091c0.589-0.566,1.287-1.01,2.024-1.358c1.48-0.663,3.163-1.008,4.774-0.679
						c1.577,0.357,3.163,1.031,4.249,2.272c0.534,0.617,0.889,1.393,0.978,2.206c0.104,0.815-0.071,1.641-0.354,2.4
						c-0.128,0.39-0.321,0.75-0.508,1.114c-0.136,0.172-0.078,0.39-0.088,0.591c-0.006,0.204,0.016,0.409-0.011,0.612
						c-0.047,0.813-0.255,1.629-0.678,2.328c-0.422,0.701-1.094,1.234-1.854,1.53c-0.179,0.09-0.398,0.132-0.569,0.187
						c-0.095,0.026-0.188,0.058-0.286,0.069c-0.193,0.03-0.387,0.073-0.582,0.093"/>
					
						<line fill="none" stroke="#333333" stroke-width="1.5923" stroke-linecap="round" stroke-miterlimit="10" x1="337.743" y1="193.479" x2="337.855" y2="193.495"/>
				</g>
			</g>
			<path opacity="0.5" fill="#FFFFFF" enable-background="new    " d="M340.814,184.313c-0.563-0.637-0.598-1.529-0.072-1.993
				c0.524-0.464,1.408-0.325,1.974,0.313c0.565,0.637,0.599,1.53,0.073,1.994C342.264,185.091,341.379,184.949,340.814,184.313z"/>
		</g>
		<g>
			<g>
				<path fill="#EF4529" d="M360.779,212.88c-3.001,2.203-8.854,1.294-9.423-1.442c-2.741-1.474-1.556-7.221,1.446-9.424
					c3-2.201,7.046-2.91,8.876,2.125C365.753,207.223,363.779,210.678,360.779,212.88z"/>
				<g>
					<path fill="none" stroke="#333333" stroke-width="1.5923" stroke-linecap="round" stroke-miterlimit="10" d="M360.102,213.296
						c-0.312,0.147-0.619,0.302-0.95,0.397c-1.552,0.52-3.253,0.537-4.833,0.139c-0.785-0.209-1.563-0.536-2.17-1.09
						c-0.288-0.285-0.559-0.607-0.688-0.997l-0.1-0.29c-0.063-0.073-0.162-0.121-0.242-0.182c-0.179-0.104-0.323-0.246-0.456-0.404
						c-0.546-0.615-0.775-1.447-0.826-2.256c-0.052-0.814,0.063-1.635,0.273-2.422c0.453-1.56,1.279-3.064,2.573-4.08
						c1.293-0.971,2.833-1.744,4.48-1.771c0.816-0.009,1.638,0.222,2.314,0.681c0.688,0.449,1.204,1.117,1.601,1.824
						c0.216,0.35,0.363,0.73,0.521,1.108c0.044,0.214,0.248,0.312,0.394,0.448c0.152,0.137,0.322,0.254,0.461,0.404
						c0.592,0.563,1.077,1.248,1.336,2.022c0.263,0.774,0.233,1.632-0.031,2.403c-0.047,0.193-0.157,0.39-0.228,0.555
						c-0.04,0.089-0.077,0.182-0.132,0.263c-0.103,0.169-0.194,0.343-0.306,0.505"/>
					
						<line fill="none" stroke="#333333" stroke-width="1.5923" stroke-linecap="round" stroke-miterlimit="10" x1="361.404" y1="212.387" x2="361.488" y2="212.313"/>
				</g>
			</g>
			
				<ellipse transform="matrix(0.9998 -0.0203 0.0203 0.9998 -4.0382 7.2648)" opacity="0.5" fill="#FFFFFF" enable-background="new    " cx="356.375" cy="202.85" rx="1.542" ry="1.27"/>
		</g>
		<path fill="#CC924C" stroke="#333333" stroke-width="2.6539" stroke-linecap="round" stroke-miterlimit="10" d="M310.025,207.434
			l81.739-31.407c1.032-0.403,2.197,0.105,2.601,1.138l0,0c0.404,1.032-0.104,2.196-1.138,2.6l-81.354,32.398"/>
		<g>
			
				<path fill="#A1C453" stroke="#333333" stroke-width="1.0616" stroke-linecap="round" stroke-linejoin="round" stroke-miterlimit="10" d="
				M395.078,178.549c0,0,2.26-2.159,2.592-2.703c0.27-0.435-3.028,0.116-4.178,0.528L395.078,178.549z"/>
			
				<path fill="#A1C453" stroke="#333333" stroke-width="1.0616" stroke-linecap="round" stroke-linejoin="round" stroke-miterlimit="10" d="
				M394.413,176.158l-2.161,4.295c0,0,4.664-1.062,5.745-2.745C397.997,177.708,395.781,177.02,394.413,176.158z"/>
			
				<path fill="#A1C453" stroke="#333333" stroke-width="1.0616" stroke-linecap="round" stroke-linejoin="round" stroke-miterlimit="10" d="
				M388.872,177.658c0,0,4.224-4.181,7.689-3.62l-2.274,4.004L388.872,177.658z"/>
		</g>
	</g>
</g>
</svg>
