<?xml version="1.0" encoding="utf-8"?>
<!-- Generator: Adobe Illustrator 16.0.0, SVG Export Plug-In . SVG Version: 6.00 Build 0)  -->
<!DOCTYPE svg PUBLIC "-//W3C//DTD SVG 1.1//EN" "http://www.w3.org/Graphics/SVG/1.1/DTD/svg11.dtd">
<svg version="1.1" id="Calque_1" xmlns="http://www.w3.org/2000/svg" xmlns:xlink="http://www.w3.org/1999/xlink" x="0px" y="0px"
	 width="400px" height="400px" viewBox="0 0 400 400" enable-background="new 0 0 400 400" xml:space="preserve">
<g id="calque00">
	<g>
		<path fill="#CC924C" stroke="#333333" stroke-width="2.6539" stroke-linecap="round" stroke-miterlimit="10" d="M291.35,214.085
			l-8.429-4.173c-1.02-0.436-1.494-1.612-1.06-2.633l0,0c0.437-1.021,1.614-1.494,2.636-1.061l8.846,3.194"/>
		<g>
			
				<path fill="#A1C453" stroke="#333333" stroke-width="1.0616" stroke-linecap="round" stroke-linejoin="round" stroke-miterlimit="10" d="
				M282.322,205.791c0,0-3.125-0.042-3.743,0.113c-0.495,0.123,2.243,2.041,3.354,2.549L282.322,205.791z"/>
			
				<path fill="#A1C453" stroke="#333333" stroke-width="1.0616" stroke-linecap="round" stroke-linejoin="round" stroke-miterlimit="10" d="
				M281.124,207.965l4.552-1.554c0,0-4.073-2.509-6.024-2.065C279.651,204.346,280.75,206.391,281.124,207.965z"/>
			
				<path fill="#A1C453" stroke="#333333" stroke-width="1.0616" stroke-linecap="round" stroke-linejoin="round" stroke-miterlimit="10" d="
				M286.126,210.773c0,0-5.939,0.026-8.021-2.801l4.429-1.267L286.126,210.773z"/>
		</g>
	</g>
</g>
<g id="calque01">
	<g>
		<g>
			
				<path fill="#A1C453" stroke="#333333" stroke-width="1.0616" stroke-linecap="round" stroke-linejoin="round" stroke-miterlimit="10" d="
				M266.947,209.164c0.463-1.227,0.011-2.104,2.492-3.293c2.484-1.189,2.188,1.053,3.821,0.271c-1.634,0.78,0.231,2.051-2.161,3.195
				C268.709,210.484,268.22,209.466,266.947,209.164z"/>
			<g>
				<line fill="none" x1="273.261" y1="206.143" x2="268.367" y2="208.484"/>
				<g>
					<polyline fill="none" stroke="#333333" stroke-width="1.0616" stroke-linecap="round" stroke-miterlimit="10" points="
						272.782,206.372 272.162,206.669 270.889,207.277 270.35,207.535 					"/>
					
						<line fill="none" stroke="#333333" stroke-width="1.0616" stroke-linecap="round" stroke-miterlimit="10" x1="268.846" y1="208.255" x2="268.913" y2="208.223"/>
				</g>
			</g>
		</g>
		<path fill="#CC924C" stroke="#333333" stroke-width="2.6539" stroke-linecap="round" stroke-miterlimit="10" d="M293.343,209.414
			l-27.063-10.96c-1.02-0.435-2.198,0.038-2.635,1.059l0,0c-0.435,1.021,0.04,2.199,1.061,2.635l26.645,11.938"/>
		<g>
			
				<path fill="#A1C453" stroke="#333333" stroke-width="1.0616" stroke-linecap="round" stroke-linejoin="round" stroke-miterlimit="10" d="
				M262.891,200.875c0,0-2.191-2.227-2.508-2.78c-0.257-0.441,3.022,0.208,4.159,0.654L262.891,200.875z"/>
			
				<path fill="#A1C453" stroke="#333333" stroke-width="1.0616" stroke-linecap="round" stroke-linejoin="round" stroke-miterlimit="10" d="
				M263.628,198.505l2.032,4.358c0,0-4.633-1.201-5.664-2.916C259.996,199.948,262.233,199.326,263.628,198.505z"/>
			
				<path fill="#A1C453" stroke="#333333" stroke-width="1.0616" stroke-linecap="round" stroke-linejoin="round" stroke-miterlimit="10" d="
				M269.119,200.171c0,0-4.094-4.305-7.575-3.851l2.152,4.073L269.119,200.171z"/>
		</g>
	</g>
</g>
<g id="calque02">
	<g>
		<g>
			
				<path fill="#A1C453" stroke="#333333" stroke-width="1.5923" stroke-linecap="round" stroke-linejoin="round" stroke-miterlimit="10" d="
				M262.058,216.503c0.171-2.851-1.341-4.386,3.063-8.47c4.4-4.081,5.233,0.779,8.131-1.907c-2.896,2.687,1.81,4.123-2.433,8.056
				C266.581,218.111,264.904,216.311,262.058,216.503z"/>
			<g>
				<line fill="none" x1="273.25" y1="206.126" x2="264.577" y2="214.169"/>
				<g>
					<polyline fill="none" stroke="#333333" stroke-width="1.0616" stroke-linecap="round" stroke-miterlimit="10" points="
						272.861,206.486 272.356,206.955 266.627,212.27 266.188,212.675 					"/>
					
						<line fill="none" stroke="#333333" stroke-width="1.0616" stroke-linecap="round" stroke-miterlimit="10" x1="264.967" y1="213.809" x2="265.021" y2="213.758"/>
				</g>
			</g>
		</g>
		<g>
			
				<path fill="#A1C453" stroke="#333333" stroke-width="1.0616" stroke-linecap="round" stroke-linejoin="round" stroke-miterlimit="10" d="
				M267.879,192.806c1.132,0.613,2.046,0.287,2.874,2.859c0.827,2.574-1.313,1.988-0.771,3.684
				c-0.544-1.695-2.025-0.047-2.823-2.526C266.362,194.345,267.418,194.004,267.879,192.806z"/>
			<g>
				<line fill="none" x1="269.983" y1="199.349" x2="268.565" y2="194.832"/>
				<g>
					<polyline fill="none" stroke="#333333" stroke-width="1.0616" stroke-linecap="round" stroke-miterlimit="10" points="
						269.824,198.842 269.618,198.186 269.402,197.499 269.224,196.929 					"/>
					
						<line fill="none" stroke="#333333" stroke-width="1.0616" stroke-linecap="round" stroke-miterlimit="10" x1="268.725" y1="195.339" x2="268.747" y2="195.41"/>
				</g>
			</g>
		</g>
		<path fill="#CC924C" stroke="#333333" stroke-width="2.6539" stroke-linecap="round" stroke-miterlimit="10" d="M293.343,209.414
			l-35.453-14.538c-1.021-0.436-2.199,0.038-2.637,1.059l0,0c-0.436,1.021,0.04,2.2,1.061,2.635l35.036,15.516"/>
		<g>
			
				<path fill="#A1C453" stroke="#333333" stroke-width="1.0616" stroke-linecap="round" stroke-linejoin="round" stroke-miterlimit="10" d="
				M254.499,197.298c0,0-2.193-2.227-2.51-2.78c-0.256-0.442,3.024,0.207,4.158,0.656L254.499,197.298z"/>
			
				<path fill="#A1C453" stroke="#333333" stroke-width="1.0616" stroke-linecap="round" stroke-linejoin="round" stroke-miterlimit="10" d="
				M255.236,194.928l2.032,4.357c0,0-4.631-1.2-5.661-2.916C251.607,196.369,253.843,195.748,255.236,194.928z"/>
			
				<path fill="#A1C453" stroke="#333333" stroke-width="1.0616" stroke-linecap="round" stroke-linejoin="round" stroke-miterlimit="10" d="
				M260.728,196.594c0,0-4.094-4.306-7.575-3.851l2.152,4.071L260.728,196.594z"/>
		</g>
	</g>
</g>
<g id="calque03">
	<g>
		
			<polygon fill="#CC924C" stroke="#333333" stroke-width="1.0616" stroke-linecap="round" stroke-linejoin="round" stroke-miterlimit="10" points="
			268.145,193.131 271.537,200.229 269.757,199.473 		"/>
		<g>
			
				<path fill="#A1C453" stroke="#333333" stroke-width="1.5923" stroke-linecap="round" stroke-linejoin="round" stroke-miterlimit="10" d="
				M262.083,216.337c0.188-2.851-1.313-4.396,3.116-8.448c4.43-4.053,5.229,0.813,8.145-1.854c-2.915,2.667,1.782,4.136-2.486,8.04
				C266.592,217.979,264.931,216.161,262.083,216.337z"/>
			<g>
				<line fill="none" x1="273.344" y1="206.035" x2="264.617" y2="214.021"/>
				<g>
					<polyline fill="none" stroke="#333333" stroke-width="1.0616" stroke-linecap="round" stroke-miterlimit="10" points="
						272.952,206.395 272.445,206.857 266.68,212.134 266.238,212.537 					"/>
					
						<line fill="none" stroke="#333333" stroke-width="1.0616" stroke-linecap="round" stroke-miterlimit="10" x1="265.009" y1="213.662" x2="265.063" y2="213.611"/>
				</g>
			</g>
		</g>
		<g>
			
				<path fill="#A1C453" stroke="#333333" stroke-width="1.0616" stroke-linecap="round" stroke-linejoin="round" stroke-miterlimit="10" d="
				M247.486,205.805c0.438-1.982-0.453-3.23,3.093-5.604c3.549-2.376,3.59,1.131,5.925-0.436c-2.335,1.566,0.808,3.099-2.606,5.384
				C250.48,207.438,249.506,205.984,247.486,205.805z"/>
			<g>
				<line fill="none" x1="256.503" y1="199.765" x2="249.515" y2="204.445"/>
				<g>
					<polyline fill="none" stroke="#333333" stroke-width="1.0616" stroke-linecap="round" stroke-miterlimit="10" points="
						256.062,200.061 255.49,200.443 251.837,202.891 251.341,203.223 					"/>
					
						<line fill="none" stroke="#333333" stroke-width="1.0616" stroke-linecap="round" stroke-miterlimit="10" x1="249.956" y1="204.15" x2="250.018" y2="204.109"/>
				</g>
			</g>
		</g>
		<g>
			
				<path fill="#A1C453" stroke="#333333" stroke-width="1.5923" stroke-linecap="round" stroke-linejoin="round" stroke-miterlimit="10" d="
				M261.631,181.714c-0.651,2.476-2.368,3.356,0.232,8.058c2.604,4.702,4.672,0.802,6.384,3.896
				c-1.712-3.095,2.688-3.001,0.184-7.529C265.925,181.609,263.997,182.678,261.631,181.714z"/>
			<g>
				<line fill="none" x1="268.247" y1="193.668" x2="263.12" y2="184.406"/>
				<g>
					<polyline fill="none" stroke="#333333" stroke-width="1.0616" stroke-linecap="round" stroke-miterlimit="10" points="
						267.99,193.203 267.657,192.602 264.474,186.852 264.185,186.329 					"/>
					
						<line fill="none" stroke="#333333" stroke-width="1.0616" stroke-linecap="round" stroke-miterlimit="10" x1="263.377" y1="184.871" x2="263.413" y2="184.936"/>
				</g>
			</g>
		</g>
		<g>
			
				<path fill="#A1C453" stroke="#333333" stroke-width="1.0616" stroke-linecap="round" stroke-linejoin="round" stroke-miterlimit="10" d="
				M270.703,185.635c-1.304,0.76-2.387,0.413-3.262,3.456c-0.874,3.045,1.61,2.282,1.035,4.283c0.575-2.001,2.372-0.13,3.215-3.061
				C272.536,187.382,271.287,187.021,270.703,185.635z"/>
			<g>
				<line fill="none" x1="268.478" y1="193.374" x2="270.202" y2="187.379"/>
				<g>
					<polyline fill="none" stroke="#333333" stroke-width="1.0616" stroke-linecap="round" stroke-miterlimit="10" points="
						268.624,192.864 268.814,192.203 269.43,190.065 269.595,189.491 					"/>
					
						<line fill="none" stroke="#333333" stroke-width="1.0616" stroke-linecap="round" stroke-miterlimit="10" x1="270.056" y1="187.889" x2="270.035" y2="187.961"/>
				</g>
			</g>
		</g>
		<path fill="#CC924C" stroke="#333333" stroke-width="2.8307" stroke-linecap="round" stroke-miterlimit="10" d="M293.343,209.414
			l-44.144-18.245c-1.021-0.433-2.198,0.041-2.636,1.063l0,0c-0.435,1.019,0.04,2.197,1.061,2.632l43.726,19.222"/>
		<g>
			
				<path fill="#A1C453" stroke="#333333" stroke-width="1.0616" stroke-linecap="round" stroke-linejoin="round" stroke-miterlimit="10" d="
				M245.81,193.592c0,0-2.191-2.227-2.509-2.778c-0.256-0.442,3.024,0.206,4.16,0.652L245.81,193.592z"/>
			
				<path fill="#A1C453" stroke="#333333" stroke-width="1.0616" stroke-linecap="round" stroke-linejoin="round" stroke-miterlimit="10" d="
				M246.547,191.223l2.032,4.356c0,0-4.632-1.2-5.661-2.916C242.918,192.663,245.152,192.044,246.547,191.223z"/>
			
				<path fill="#A1C453" stroke="#333333" stroke-width="1.0616" stroke-linecap="round" stroke-linejoin="round" stroke-miterlimit="10" d="
				M252.038,192.888c0,0-4.093-4.307-7.574-3.849l2.149,4.069L252.038,192.888z"/>
		</g>
	</g>
</g>
<g id="calque04">
	<g>
		
			<polygon fill="#CC924C" stroke="#333333" stroke-width="1.0616" stroke-linecap="round" stroke-linejoin="round" stroke-miterlimit="10" points="
			240.046,207.667 259.678,200.004 256.923,198.829 		"/>
		
			<polygon fill="#CC924C" stroke="#333333" stroke-width="1.0616" stroke-linecap="round" stroke-linejoin="round" stroke-miterlimit="10" points="
			268.145,193.131 271.537,200.229 269.757,199.473 		"/>
		<g>
			
				<path fill="#A1C453" stroke="#333333" stroke-width="1.5923" stroke-linecap="round" stroke-linejoin="round" stroke-miterlimit="10" d="
				M262.083,216.337c0.188-2.851-1.313-4.396,3.114-8.448c4.432-4.052,5.23,0.813,8.146-1.854c-2.915,2.667,1.78,4.137-2.486,8.04
				C266.592,217.979,264.931,216.161,262.083,216.337z"/>
			<g>
				<line fill="none" x1="273.344" y1="206.035" x2="264.617" y2="214.021"/>
				<g>
					<polyline fill="none" stroke="#333333" stroke-width="1.0616" stroke-linecap="round" stroke-miterlimit="10" points="
						272.952,206.395 272.445,206.857 266.68,212.134 266.238,212.537 					"/>
					
						<line fill="none" stroke="#333333" stroke-width="1.0616" stroke-linecap="round" stroke-miterlimit="10" x1="265.009" y1="213.662" x2="265.063" y2="213.611"/>
				</g>
			</g>
		</g>
		<g>
			
				<path fill="#A1C453" stroke="#333333" stroke-width="1.0616" stroke-linecap="round" stroke-linejoin="round" stroke-miterlimit="10" d="
				M231.367,204.993c1.481-0.945,1.698-2.253,5.322-1.536c3.624,0.715,1.505,2.889,3.892,3.359
				c-2.387-0.473-1.401,2.392-4.893,1.701C232.2,207.825,232.493,206.341,231.367,204.993z"/>
			<g>
				<line fill="none" x1="240.581" y1="206.816" x2="233.441" y2="205.402"/>
				<g>
					<polyline fill="none" stroke="#333333" stroke-width="1.0616" stroke-linecap="round" stroke-miterlimit="10" points="
						240.061,206.713 239.386,206.58 236.184,205.945 235.598,205.83 					"/>
					
						<line fill="none" stroke="#333333" stroke-width="1.0616" stroke-linecap="round" stroke-miterlimit="10" x1="233.962" y1="205.506" x2="234.035" y2="205.521"/>
				</g>
			</g>
		</g>
		<g>
			
				<path fill="#A1C453" stroke="#333333" stroke-width="1.5923" stroke-linecap="round" stroke-linejoin="round" stroke-miterlimit="10" d="
				M226.198,217.277c0.695-3.148-0.72-5.127,4.91-8.898c5.627-3.77,5.695,1.795,9.398-0.686c-3.703,2.479,1.286,4.916-4.135,8.547
				C230.949,219.872,229.404,217.563,226.198,217.277z"/>
			<g>
				<line fill="none" x1="240.507" y1="207.693" x2="229.418" y2="215.12"/>
				<g>
					<polyline fill="none" stroke="#333333" stroke-width="1.0616" stroke-linecap="round" stroke-miterlimit="10" points="
						240.065,207.988 239.494,208.371 231.74,213.564 231.244,213.896 					"/>
					
						<line fill="none" stroke="#333333" stroke-width="1.0616" stroke-linecap="round" stroke-miterlimit="10" x1="229.859" y1="214.824" x2="229.921" y2="214.783"/>
				</g>
			</g>
		</g>
		<g>
			
				<path fill="#A1C453" stroke="#333333" stroke-width="1.5923" stroke-linecap="round" stroke-linejoin="round" stroke-miterlimit="10" d="
				M261.631,181.714c-0.651,2.474-2.368,3.356,0.232,8.058c2.604,4.702,4.672,0.802,6.384,3.896
				c-1.712-3.095,2.688-3.002,0.184-7.529C265.925,181.609,263.997,182.678,261.631,181.714z"/>
			<g>
				<line fill="none" x1="268.247" y1="193.668" x2="263.12" y2="184.403"/>
				<g>
					<polyline fill="none" stroke="#333333" stroke-width="1.0616" stroke-linecap="round" stroke-miterlimit="10" points="
						267.99,193.203 267.657,192.602 264.474,186.85 264.185,186.326 					"/>
					
						<line fill="none" stroke="#333333" stroke-width="1.0616" stroke-linecap="round" stroke-miterlimit="10" x1="263.377" y1="184.867" x2="263.413" y2="184.933"/>
				</g>
			</g>
		</g>
		<g>
			
				<path fill="#A1C453" stroke="#333333" stroke-width="1.5923" stroke-linecap="round" stroke-linejoin="round" stroke-miterlimit="10" d="
				M272.301,180.782c-2.208,1.288-4.044,0.698-5.529,5.864c-1.483,5.164,2.733,3.869,1.757,7.268
				c0.978-3.398,4.025-0.221,5.455-5.193C275.413,183.747,273.295,183.137,272.301,180.782z"/>
			<g>
				<line fill="none" x1="268.528" y1="193.914" x2="271.454" y2="183.737"/>
				<g>
					<polyline fill="none" stroke="#333333" stroke-width="1.0616" stroke-linecap="round" stroke-miterlimit="10" points="
						268.675,193.404 268.865,192.743 270.682,186.424 270.847,185.85 					"/>
					
						<line fill="none" stroke="#333333" stroke-width="1.0616" stroke-linecap="round" stroke-miterlimit="10" x1="271.308" y1="184.247" x2="271.287" y2="184.319"/>
				</g>
			</g>
		</g>
		<g>
			
				<path fill="#A1C453" stroke="#333333" stroke-width="1.0616" stroke-linecap="round" stroke-linejoin="round" stroke-miterlimit="10" d="
				M231.947,176.598c1.559,0.508,2.629-0.111,4.258,2.919c1.626,3.032-1.188,2.792-0.116,4.787c-1.07-1.995-2.549,0.406-4.117-2.512
				C230.403,178.872,231.646,178.205,231.947,176.598z"/>
			<g>
				<line fill="none" x1="236.088" y1="184.304" x2="232.879" y2="178.333"/>
				<g>
					<polyline fill="none" stroke="#333333" stroke-width="1.0616" stroke-linecap="round" stroke-miterlimit="10" points="
						235.837,183.836 235.511,183.23 234.202,180.795 233.919,180.269 					"/>
					
						<line fill="none" stroke="#333333" stroke-width="1.0616" stroke-linecap="round" stroke-miterlimit="10" x1="233.13" y1="178.801" x2="233.166" y2="178.866"/>
				</g>
			</g>
		</g>
		<path fill="#CC924C" stroke="#333333" stroke-width="2.8307" stroke-linecap="round" stroke-miterlimit="10" d="M293.343,209.414
			l-59.963-24.989c-1.021-0.436-2.2,0.04-2.636,1.06l0,0c-0.435,1.021,0.04,2.199,1.061,2.634l59.545,25.967"/>
		<g>
			
				<path fill="#A1C453" stroke="#333333" stroke-width="1.0616" stroke-linecap="round" stroke-linejoin="round" stroke-miterlimit="10" d="
				M229.99,186.847c0,0-2.194-2.227-2.51-2.78c-0.256-0.441,3.023,0.208,4.158,0.654L229.99,186.847z"/>
			
				<path fill="#A1C453" stroke="#333333" stroke-width="1.0616" stroke-linecap="round" stroke-linejoin="round" stroke-miterlimit="10" d="
				M230.727,184.478l2.032,4.357c0,0-4.631-1.199-5.661-2.917C227.098,185.918,229.333,185.298,230.727,184.478z"/>
			
				<path fill="#A1C453" stroke="#333333" stroke-width="1.0616" stroke-linecap="round" stroke-linejoin="round" stroke-miterlimit="10" d="
				M236.219,186.143c0,0-4.093-4.306-7.575-3.849l2.15,4.071L236.219,186.143z"/>
		</g>
		<g>
			
				<path fill="#FFFFFF" stroke="#333333" stroke-width="1.0616" stroke-linecap="round" stroke-linejoin="round" stroke-miterlimit="10" d="
				M241.006,208.645c0.059,0.473,0.927,0.852,1.604,1.063c1.226,0.381,3.124-0.188,2.944-1.67c-0.181-1.492-2.161-1.601-3.261-0.94
				C241.686,207.465,240.95,208.17,241.006,208.645z"/>
			
				<path fill="#FFFFFF" stroke="#333333" stroke-width="1.0616" stroke-linecap="round" stroke-linejoin="round" stroke-miterlimit="10" d="
				M240.902,208.715c-0.438-0.188-1.198,0.372-1.723,0.855c-0.944,0.869-1.4,2.799-0.026,3.387c1.382,0.588,2.468-1.074,2.444-2.355
				C241.585,209.889,241.341,208.9,240.902,208.715z"/>
			
				<path fill="#FFFFFF" stroke="#333333" stroke-width="1.0616" stroke-linecap="round" stroke-linejoin="round" stroke-miterlimit="10" d="
				M240.894,208.594c0.38-0.285,0.275-1.226,0.117-1.92c-0.28-1.251-1.724-2.611-2.918-1.714c-1.2,0.899-0.302,2.67,0.816,3.291
				C239.533,208.596,240.512,208.882,240.894,208.594z"/>
			
				<path fill="#FFFFFF" stroke="#333333" stroke-width="1.0616" stroke-linecap="round" stroke-linejoin="round" stroke-miterlimit="10" d="
				M241.029,208.514c0.438,0.186,1.199-0.377,1.723-0.861c0.942-0.866,1.398-2.795,0.024-3.383c-1.38-0.588-2.466,1.074-2.442,2.354
				C240.348,207.334,240.588,208.325,241.029,208.514z"/>
			
				<path fill="#FFFFFF" stroke="#333333" stroke-width="1.0616" stroke-linecap="round" stroke-linejoin="round" stroke-miterlimit="10" d="
				M241.031,208.637c-0.379,0.282-0.272,1.225-0.116,1.92c0.279,1.252,1.724,2.61,2.918,1.715c1.201-0.903,0.304-2.672-0.816-3.291
				C242.393,208.635,241.414,208.348,241.031,208.637z"/>
			
				<path fill="#FFFFFF" stroke="#333333" stroke-width="1.0616" stroke-linecap="round" stroke-linejoin="round" stroke-miterlimit="10" d="
				M240.921,208.563c-0.06-0.472-0.925-0.851-1.605-1.063c-1.225-0.383-3.124,0.188-2.943,1.671
				c0.181,1.488,2.161,1.597,3.261,0.937C240.242,209.741,240.977,209.037,240.921,208.563z"/>
			
				<circle fill="#F9D53E" stroke="#333333" stroke-width="1.0616" stroke-linecap="round" stroke-linejoin="round" stroke-miterlimit="10" cx="241.029" cy="208.513" r="0.987"/>
		</g>
	</g>
</g>
<g id="calque05">
	<g>
		
			<polygon fill="#CC924C" stroke="#333333" stroke-width="0.8493" stroke-linecap="round" stroke-linejoin="round" stroke-miterlimit="10" points="
			234.772,176.254 239.141,186.882 236.385,185.707 		"/>
		
			<polygon fill="#CC924C" stroke="#333333" stroke-width="1.0616" stroke-linecap="round" stroke-linejoin="round" stroke-miterlimit="10" points="
			240.046,207.667 259.678,200.004 256.923,198.829 		"/>
		
			<polygon fill="#CC924C" stroke="#333333" stroke-width="1.0616" stroke-linecap="round" stroke-linejoin="round" stroke-miterlimit="10" points="
			268.145,193.131 271.537,200.229 269.757,199.473 		"/>
		<g>
			
				<path fill="#A1C453" stroke="#333333" stroke-width="1.5923" stroke-linecap="round" stroke-linejoin="round" stroke-miterlimit="10" d="
				M262.083,216.337c0.188-2.851-1.313-4.396,3.114-8.448c4.432-4.052,5.23,0.813,8.146-1.852c-2.915,2.665,1.78,4.135-2.486,8.039
				C266.592,217.979,264.931,216.161,262.083,216.337z"/>
			<g>
				<line fill="none" x1="273.344" y1="206.037" x2="264.617" y2="214.021"/>
				<g>
					<polyline fill="none" stroke="#333333" stroke-width="1.0616" stroke-linecap="round" stroke-miterlimit="10" points="
						272.952,206.396 272.444,206.859 266.68,212.134 266.238,212.537 					"/>
					
						<line fill="none" stroke="#333333" stroke-width="1.0616" stroke-linecap="round" stroke-miterlimit="10" x1="265.009" y1="213.662" x2="265.063" y2="213.611"/>
				</g>
			</g>
		</g>
		<g>
			
				<path fill="#A1C453" stroke="#333333" stroke-width="1.5923" stroke-linecap="round" stroke-linejoin="round" stroke-miterlimit="10" d="
				M223.209,204.105c2.719-1.733,3.118-4.133,9.764-2.818c6.646,1.314,2.759,5.297,7.132,6.16c-4.373-0.863-2.567,4.387-8.968,3.119
				C224.736,209.303,225.274,206.578,223.209,204.105z"/>
			<g>
				<line fill="none" x1="240.104" y1="207.447" x2="227.011" y2="204.859"/>
				<g>
					<polyline fill="none" stroke="#333333" stroke-width="1.0616" stroke-linecap="round" stroke-miterlimit="10" points="
						239.584,207.346 238.909,207.212 229.753,205.402 229.167,205.286 					"/>
					
						<line fill="none" stroke="#333333" stroke-width="1.0616" stroke-linecap="round" stroke-miterlimit="10" x1="227.531" y1="204.963" x2="227.604" y2="204.979"/>
				</g>
			</g>
		</g>
		<g>
			
				<path fill="#A1C453" stroke="#333333" stroke-width="1.5923" stroke-linecap="round" stroke-linejoin="round" stroke-miterlimit="10" d="
				M226.198,217.277c0.694-3.148-0.72-5.127,4.908-8.898c5.629-3.77,5.697,1.795,9.4-0.686c-3.703,2.479,1.286,4.916-4.135,8.547
				C230.949,219.872,229.404,217.563,226.198,217.277z"/>
			<g>
				<line fill="none" x1="240.507" y1="207.693" x2="229.418" y2="215.12"/>
				<g>
					<polyline fill="none" stroke="#333333" stroke-width="1.0616" stroke-linecap="round" stroke-miterlimit="10" points="
						240.065,207.988 239.494,208.371 231.74,213.564 231.244,213.896 					"/>
					
						<line fill="none" stroke="#333333" stroke-width="1.0616" stroke-linecap="round" stroke-miterlimit="10" x1="229.859" y1="214.824" x2="229.921" y2="214.783"/>
				</g>
			</g>
		</g>
		<g>
			
				<path fill="#A1C453" stroke="#333333" stroke-width="1.5923" stroke-linecap="round" stroke-linejoin="round" stroke-miterlimit="10" d="
				M261.631,181.714c-0.651,2.476-2.368,3.356,0.232,8.058c2.603,4.703,4.672,0.802,6.384,3.896
				c-1.712-3.095,2.688-3.001,0.184-7.529C265.925,181.609,263.997,182.678,261.631,181.714z"/>
			<g>
				<line fill="none" x1="268.247" y1="193.668" x2="263.12" y2="184.406"/>
				<g>
					<polyline fill="none" stroke="#333333" stroke-width="1.0616" stroke-linecap="round" stroke-miterlimit="10" points="
						267.99,193.203 267.657,192.602 264.474,186.852 264.185,186.329 					"/>
					
						<line fill="none" stroke="#333333" stroke-width="1.0616" stroke-linecap="round" stroke-miterlimit="10" x1="263.377" y1="184.871" x2="263.413" y2="184.936"/>
				</g>
			</g>
		</g>
		<g>
			
				<path fill="#A1C453" stroke="#333333" stroke-width="1.5923" stroke-linecap="round" stroke-linejoin="round" stroke-miterlimit="10" d="
				M272.301,180.782c-2.208,1.288-4.046,0.7-5.529,5.864s2.733,3.869,1.757,7.268c0.978-3.398,4.025-0.221,5.455-5.193
				C275.413,183.747,273.295,183.137,272.301,180.782z"/>
			<g>
				<line fill="none" x1="268.528" y1="193.914" x2="271.453" y2="183.738"/>
				<g>
					<polyline fill="none" stroke="#333333" stroke-width="1.0616" stroke-linecap="round" stroke-miterlimit="10" points="
						268.675,193.404 268.865,192.743 270.681,186.425 270.846,185.851 					"/>
					
						<line fill="none" stroke="#333333" stroke-width="1.0616" stroke-linecap="round" stroke-miterlimit="10" x1="271.307" y1="184.248" x2="271.286" y2="184.32"/>
				</g>
			</g>
		</g>
		<g>
			
				<path fill="#A1C453" stroke="#333333" stroke-width="1.5923" stroke-linecap="round" stroke-linejoin="round" stroke-miterlimit="10" d="
				M226.618,161.082c3.065,0.998,5.174-0.219,8.381,5.747c3.208,5.968-2.337,5.497-0.228,9.425
				c-2.109-3.928-5.018,0.802-8.104-4.943C223.579,165.562,226.023,164.247,226.618,161.082z"/>
			<g>
				<line fill="none" x1="234.772" y1="176.254" x2="228.455" y2="164.496"/>
				<g>
					<polyline fill="none" stroke="#333333" stroke-width="1.0616" stroke-linecap="round" stroke-miterlimit="10" points="
						234.521,175.786 234.195,175.181 229.778,166.959 229.495,166.432 					"/>
					
						<line fill="none" stroke="#333333" stroke-width="1.0616" stroke-linecap="round" stroke-miterlimit="10" x1="228.706" y1="164.964" x2="228.741" y2="165.029"/>
				</g>
			</g>
		</g>
		<g>
			
				<path fill="#A1C453" stroke="#333333" stroke-width="1.0616" stroke-linecap="round" stroke-linejoin="round" stroke-miterlimit="10" d="
				M242.76,171.577c-0.383,1.672,0.359,2.728-2.646,4.708c-3.007,1.978-3.02-0.977-4.997,0.327c1.979-1.304-0.662-2.619,2.231-4.525
				C240.246,170.18,241.056,171.412,242.76,171.577z"/>
			<g>
				<line fill="none" x1="235.117" y1="176.612" x2="241.039" y2="172.712"/>
				<g>
					<polyline fill="none" stroke="#333333" stroke-width="1.0616" stroke-linecap="round" stroke-miterlimit="10" points="
						235.561,176.32 236.135,175.942 238.705,174.25 239.203,173.921 					"/>
					
						<line fill="none" stroke="#333333" stroke-width="1.0616" stroke-linecap="round" stroke-miterlimit="10" x1="240.596" y1="173.004" x2="240.533" y2="173.045"/>
				</g>
			</g>
		</g>
		<g>
			<g>
				<path fill="#D3F46C" d="M244.954,204.93c2.646,0.723,4.805,4.523,3.482,6.106c0.408,2.258-3.456,4.207-6.104,3.481
					c-2.647-0.723-4.908-2.734-2.841-6.102C239.406,204.65,242.307,204.206,244.954,204.93z"/>
				<g>
					<path fill="none" stroke="#333333" stroke-width="1.0616" stroke-linecap="round" stroke-miterlimit="10" d="M245.455,205.104
						c0.2,0.109,0.42,0.188,0.605,0.321c1.047,0.642,1.853,1.632,2.375,2.731c0.251,0.556,0.419,1.162,0.396,1.775
						c-0.027,0.305-0.087,0.61-0.247,0.873c-0.275,0.233-0.038,0.58-0.155,0.871c-0.101,0.607-0.48,1.133-0.933,1.536
						c-0.456,0.408-0.992,0.72-1.555,0.959c-1.126,0.463-2.398,0.646-3.592,0.351c-1.166-0.326-2.335-0.889-3.073-1.879
						c-0.771-0.994-0.712-2.392-0.18-3.479c0.104-0.285,0.319-0.531,0.396-0.82c0.011-0.305,0.004-0.612,0.061-0.913
						c0.086-0.603,0.285-1.205,0.674-1.683c0.384-0.479,0.94-0.8,1.529-0.955c0.144-0.036,0.307-0.081,0.438-0.093l0.194-0.026
						c0.13-0.024,0.262-0.019,0.394-0.026"/>
					
						<line fill="none" stroke="#333333" stroke-width="1.0616" stroke-linecap="round" stroke-miterlimit="10" x1="244.438" y1="204.805" x2="244.364" y2="204.791"/>
				</g>
			</g>
			
				<ellipse transform="matrix(-0.6368 -0.771 0.771 -0.6368 231.2595 533.0982)" opacity="0.5" fill="#FFFFFF" enable-background="new    " cx="241.189" cy="212.081" rx="1.139" ry="0.936"/>
		</g>
		<path fill="#CC924C" stroke="#333333" stroke-width="2.8307" stroke-linecap="round" stroke-miterlimit="10" d="M293.343,209.414
			l-67.858-28.356c-1.021-0.435-2.197,0.042-2.635,1.062l0,0c-0.435,1.02,0.039,2.198,1.062,2.633l67.438,29.333"/>
		<g>
			
				<path fill="#A1C453" stroke="#333333" stroke-width="1.0616" stroke-linecap="round" stroke-linejoin="round" stroke-miterlimit="10" d="
				M222.095,183.48c0,0-2.193-2.228-2.508-2.781c-0.257-0.44,3.023,0.208,4.157,0.656L222.095,183.48z"/>
			
				<path fill="#A1C453" stroke="#333333" stroke-width="1.0616" stroke-linecap="round" stroke-linejoin="round" stroke-miterlimit="10" d="
				M222.832,181.11l2.031,4.357c0,0-4.631-1.199-5.661-2.915C219.202,182.553,221.438,181.932,222.832,181.11z"/>
			
				<path fill="#A1C453" stroke="#333333" stroke-width="1.0616" stroke-linecap="round" stroke-linejoin="round" stroke-miterlimit="10" d="
				M228.323,182.776c0,0-4.092-4.305-7.575-3.849l2.152,4.07L228.323,182.776z"/>
		</g>
		<g>
			
				<path fill="#FFFFFF" stroke="#333333" stroke-width="1.0616" stroke-linecap="round" stroke-linejoin="round" stroke-miterlimit="10" d="
				M236.429,176.576c0.057,0.473,0.924,0.852,1.604,1.063c1.225,0.383,3.124-0.188,2.943-1.67c-0.182-1.49-2.161-1.6-3.261-0.94
				C237.105,175.397,236.371,176.102,236.429,176.576z"/>
			
				<path fill="#FFFFFF" stroke="#333333" stroke-width="1.0616" stroke-linecap="round" stroke-linejoin="round" stroke-miterlimit="10" d="
				M236.323,176.646c-0.438-0.187-1.198,0.374-1.723,0.857c-0.945,0.87-1.398,2.799-0.024,3.386c1.38,0.588,2.464-1.074,2.441-2.354
				C237.004,177.824,236.763,176.833,236.323,176.646z"/>
			
				<path fill="#FFFFFF" stroke="#333333" stroke-width="1.0616" stroke-linecap="round" stroke-linejoin="round" stroke-miterlimit="10" d="
				M236.314,176.526c0.38-0.283,0.274-1.226,0.117-1.92c-0.281-1.251-1.725-2.611-2.919-1.716c-1.198,0.904-0.303,2.673,0.819,3.292
				C234.953,176.528,235.932,176.815,236.314,176.526z"/>
			
				<path fill="#FFFFFF" stroke="#333333" stroke-width="1.0616" stroke-linecap="round" stroke-linejoin="round" stroke-miterlimit="10" d="
				M236.45,176.444c0.438,0.187,1.197-0.374,1.722-0.858c0.944-0.869,1.398-2.797,0.024-3.385c-1.381-0.588-2.466,1.072-2.441,2.354
				C235.767,175.269,236.009,176.257,236.45,176.444z"/>
			
				<path fill="#FFFFFF" stroke="#333333" stroke-width="1.0616" stroke-linecap="round" stroke-linejoin="round" stroke-miterlimit="10" d="
				M236.452,176.568c-0.38,0.285-0.275,1.227-0.118,1.92c0.279,1.252,1.724,2.611,2.919,1.715c1.2-0.903,0.303-2.671-0.816-3.292
				C237.812,176.566,236.835,176.278,236.452,176.568z"/>
			
				<path fill="#FFFFFF" stroke="#333333" stroke-width="1.0616" stroke-linecap="round" stroke-linejoin="round" stroke-miterlimit="10" d="
				M236.341,176.494c-0.058-0.47-0.926-0.851-1.604-1.063c-1.227-0.382-3.124,0.189-2.942,1.67c0.18,1.492,2.16,1.599,3.259,0.938
				C235.663,177.674,236.397,176.969,236.341,176.494z"/>
			
				<circle fill="#F9D53E" stroke="#333333" stroke-width="1.0616" stroke-linecap="round" stroke-linejoin="round" stroke-miterlimit="10" cx="236.45" cy="176.444" r="0.988"/>
		</g>
	</g>
</g>
<g id="calque06">
	<g>
		
			<polygon fill="#CC924C" stroke="#333333" stroke-width="0.8493" stroke-linecap="round" stroke-linejoin="round" stroke-miterlimit="10" points="
			234.773,176.252 239.141,186.882 236.385,185.707 		"/>
		
			<polygon fill="#CC924C" stroke="#333333" stroke-width="1.0616" stroke-linecap="round" stroke-linejoin="round" stroke-miterlimit="10" points="
			240.046,207.667 259.678,200.004 256.923,198.829 		"/>
		
			<polygon fill="#CC924C" stroke="#333333" stroke-width="1.0616" stroke-linecap="round" stroke-linejoin="round" stroke-miterlimit="10" points="
			268.145,193.131 271.537,200.229 269.757,199.473 		"/>
		<g>
			
				<path fill="#A1C453" stroke="#333333" stroke-width="1.5923" stroke-linecap="round" stroke-linejoin="round" stroke-miterlimit="10" d="
				M262.083,216.337c0.188-2.851-1.313-4.396,3.114-8.448c4.432-4.052,5.23,0.813,8.146-1.852c-2.915,2.665,1.78,4.135-2.486,8.039
				C266.592,217.979,264.931,216.161,262.083,216.337z"/>
			<g>
				<line fill="none" x1="273.344" y1="206.037" x2="264.617" y2="214.021"/>
				<g>
					<polyline fill="none" stroke="#333333" stroke-width="1.0616" stroke-linecap="round" stroke-miterlimit="10" points="
						272.952,206.396 272.444,206.859 266.68,212.134 266.238,212.537 					"/>
					
						<line fill="none" stroke="#333333" stroke-width="1.0616" stroke-linecap="round" stroke-miterlimit="10" x1="265.009" y1="213.662" x2="265.063" y2="213.611"/>
				</g>
			</g>
		</g>
		<g>
			
				<path fill="#A1C453" stroke="#333333" stroke-width="1.0616" stroke-linecap="round" stroke-linejoin="round" stroke-miterlimit="10" d="
				M215.636,188.116c1.505,0.832,1.798,2.095,5.289,1.171c3.494-0.923,1.291-2.909,3.59-3.518c-2.299,0.608-1.515-2.249-4.877-1.359
				C216.271,185.3,216.651,186.731,215.636,188.116z"/>
			<g>
				<line fill="none" x1="224.515" y1="185.77" x2="217.635" y2="187.588"/>
				<g>
					<polyline fill="none" stroke="#333333" stroke-width="1.0616" stroke-linecap="round" stroke-miterlimit="10" points="
						224.002,185.905 223.337,186.081 220.337,186.874 219.76,187.026 					"/>
					
						<line fill="none" stroke="#333333" stroke-width="1.0616" stroke-linecap="round" stroke-miterlimit="10" x1="218.148" y1="187.452" x2="218.22" y2="187.434"/>
				</g>
			</g>
		</g>
		<g>
			
				<path fill="#A1C453" stroke="#333333" stroke-width="1.5923" stroke-linecap="round" stroke-linejoin="round" stroke-miterlimit="10" d="
				M223.209,204.105c2.719-1.733,3.118-4.133,9.764-2.818c6.646,1.314,2.759,5.297,7.132,6.16c-4.373-0.863-2.567,4.387-8.968,3.119
				C224.736,209.303,225.274,206.576,223.209,204.105z"/>
			<g>
				<line fill="none" x1="240.104" y1="207.447" x2="227.011" y2="204.859"/>
				<g>
					<polyline fill="none" stroke="#333333" stroke-width="1.0616" stroke-linecap="round" stroke-miterlimit="10" points="
						239.584,207.346 238.909,207.212 229.753,205.402 229.167,205.286 					"/>
					
						<line fill="none" stroke="#333333" stroke-width="1.0616" stroke-linecap="round" stroke-miterlimit="10" x1="227.531" y1="204.963" x2="227.604" y2="204.979"/>
				</g>
			</g>
		</g>
		<g>
			
				<path fill="#A1C453" stroke="#333333" stroke-width="1.5923" stroke-linecap="round" stroke-linejoin="round" stroke-miterlimit="10" d="
				M226.198,217.277c0.694-3.148-0.72-5.127,4.908-8.898c5.629-3.77,5.697,1.795,9.4-0.686c-3.703,2.479,1.286,4.916-4.135,8.547
				C230.949,219.872,229.404,217.563,226.198,217.277z"/>
			<g>
				<line fill="none" x1="240.507" y1="207.693" x2="229.418" y2="215.12"/>
				<g>
					<polyline fill="none" stroke="#333333" stroke-width="1.0616" stroke-linecap="round" stroke-miterlimit="10" points="
						240.065,207.988 239.494,208.371 231.74,213.564 231.244,213.896 					"/>
					
						<line fill="none" stroke="#333333" stroke-width="1.0616" stroke-linecap="round" stroke-miterlimit="10" x1="229.859" y1="214.824" x2="229.921" y2="214.783"/>
				</g>
			</g>
		</g>
		<g>
			
				<path fill="#A1C453" stroke="#333333" stroke-width="1.5923" stroke-linecap="round" stroke-linejoin="round" stroke-miterlimit="10" d="
				M261.631,181.714c-0.651,2.476-2.368,3.356,0.232,8.058c2.603,4.703,4.672,0.802,6.384,3.896
				c-1.712-3.095,2.688-3.001,0.184-7.529C265.925,181.609,263.997,182.678,261.631,181.714z"/>
			<g>
				<line fill="none" x1="268.247" y1="193.668" x2="263.12" y2="184.406"/>
				<g>
					<polyline fill="none" stroke="#333333" stroke-width="1.0616" stroke-linecap="round" stroke-miterlimit="10" points="
						267.99,193.203 267.657,192.602 264.474,186.852 264.185,186.329 					"/>
					
						<line fill="none" stroke="#333333" stroke-width="1.0616" stroke-linecap="round" stroke-miterlimit="10" x1="263.377" y1="184.871" x2="263.413" y2="184.936"/>
				</g>
			</g>
		</g>
		<g>
			
				<path fill="#A1C453" stroke="#333333" stroke-width="1.5923" stroke-linecap="round" stroke-linejoin="round" stroke-miterlimit="10" d="
				M272.301,180.782c-2.208,1.288-4.046,0.7-5.529,5.864s2.733,3.869,1.757,7.268c0.978-3.398,4.025-0.221,5.455-5.193
				C275.413,183.747,273.295,183.137,272.301,180.782z"/>
			<g>
				<line fill="none" x1="268.528" y1="193.914" x2="271.453" y2="183.738"/>
				<g>
					<polyline fill="none" stroke="#333333" stroke-width="1.0616" stroke-linecap="round" stroke-miterlimit="10" points="
						268.675,193.404 268.865,192.743 270.681,186.425 270.846,185.851 					"/>
					
						<line fill="none" stroke="#333333" stroke-width="1.0616" stroke-linecap="round" stroke-miterlimit="10" x1="271.307" y1="184.248" x2="271.286" y2="184.32"/>
				</g>
			</g>
		</g>
		<g>
			
				<path fill="#A1C453" stroke="#333333" stroke-width="1.0616" stroke-linecap="round" stroke-linejoin="round" stroke-miterlimit="10" d="
				M237.835,166.689c0.795,1.562,2.073,1.903,1.013,5.429c-1.062,3.529-3.012,1.216-3.71,3.538c0.698-2.322-2.238-1.62-1.218-5.017
				C234.944,167.24,236.39,167.675,237.835,166.689z"/>
			<g>
				<line fill="none" x1="235.138" y1="175.656" x2="237.229" y2="168.705"/>
				<g>
					<polyline fill="none" stroke="#333333" stroke-width="1.0616" stroke-linecap="round" stroke-miterlimit="10" points="
						235.291,175.148 235.488,174.489 236.424,171.382 236.596,170.81 					"/>
					
						<line fill="none" stroke="#333333" stroke-width="1.0616" stroke-linecap="round" stroke-miterlimit="10" x1="237.075" y1="169.213" x2="237.054" y2="169.285"/>
				</g>
			</g>
		</g>
		<g>
			
				<path fill="#A1C453" stroke="#333333" stroke-width="1.5923" stroke-linecap="round" stroke-linejoin="round" stroke-miterlimit="10" d="
				M226.618,161.082c3.065,0.998,5.174-0.219,8.381,5.747c3.208,5.968-2.337,5.497-0.227,9.423c-2.11-3.926-5.019,0.804-8.105-4.941
				C223.579,165.562,226.023,164.247,226.618,161.082z"/>
			<g>
				<line fill="none" x1="234.773" y1="176.252" x2="228.455" y2="164.496"/>
				<g>
					<polyline fill="none" stroke="#333333" stroke-width="1.0616" stroke-linecap="round" stroke-miterlimit="10" points="
						234.522,175.784 234.196,175.179 229.778,166.958 229.495,166.432 					"/>
					
						<line fill="none" stroke="#333333" stroke-width="1.0616" stroke-linecap="round" stroke-miterlimit="10" x1="228.706" y1="164.964" x2="228.742" y2="165.029"/>
				</g>
			</g>
		</g>
		<g>
			
				<path fill="#A1C453" stroke="#333333" stroke-width="1.5923" stroke-linecap="round" stroke-linejoin="round" stroke-miterlimit="10" d="
				M246.512,169.014c-0.565,2.468,0.533,4.031-3.911,6.958c-4.445,2.929-4.464-1.444-7.39,0.483c2.926-1.928-0.979-3.87,3.303-6.689
				C242.795,166.944,243.994,168.768,246.512,169.014z"/>
			<g>
				<line fill="none" x1="235.211" y1="176.455" x2="243.969" y2="170.688"/>
				<g>
					<polyline fill="none" stroke="#333333" stroke-width="1.0616" stroke-linecap="round" stroke-miterlimit="10" points="
						235.654,176.163 236.229,175.785 241.634,172.225 242.133,171.896 					"/>
					
						<line fill="none" stroke="#333333" stroke-width="1.0616" stroke-linecap="round" stroke-miterlimit="10" x1="243.525" y1="170.979" x2="243.463" y2="171.021"/>
				</g>
			</g>
		</g>
		<g>
			<g>
				<path fill="#D3F46C" d="M247.489,204.096c3.594,0.985,6.52,6.135,4.729,8.282c0.551,3.063-4.688,5.706-8.279,4.726
					c-3.592-0.982-6.66-3.713-3.854-8.276C239.967,203.717,243.899,203.116,247.489,204.096z"/>
				<g>
					<path fill="none" stroke="#333333" stroke-width="1.5924" stroke-linecap="round" stroke-miterlimit="10" d="M248.236,204.368
						c0.311,0.151,0.621,0.298,0.902,0.497c1.37,0.894,2.442,2.215,3.112,3.701c0.325,0.744,0.552,1.557,0.496,2.377
						c-0.044,0.402-0.128,0.814-0.354,1.158l-0.166,0.258c-0.02,0.096,0.006,0.203,0.007,0.303c0.029,0.205,0.011,0.406-0.031,0.607
						c-0.143,0.812-0.65,1.51-1.252,2.053c-0.607,0.547-1.319,0.967-2.068,1.291c-1.502,0.613-3.196,0.902-4.795,0.521
						c-1.565-0.409-3.128-1.135-4.174-2.409c-0.515-0.636-0.844-1.422-0.905-2.238c-0.077-0.817,0.127-1.637,0.435-2.387
						c0.142-0.387,0.347-0.74,0.544-1.098c0.141-0.168,0.092-0.387,0.107-0.588c0.012-0.203-0.002-0.409,0.03-0.611
						c0.072-0.813,0.308-1.619,0.753-2.305c0.443-0.688,1.134-1.199,1.901-1.471c0.183-0.084,0.403-0.118,0.575-0.168
						c0.097-0.022,0.19-0.051,0.288-0.061c0.195-0.023,0.391-0.061,0.585-0.072"/>
					
						<line fill="none" stroke="#333333" stroke-width="1.5924" stroke-linecap="round" stroke-miterlimit="10" x1="246.715" y1="203.913" x2="246.604" y2="203.895"/>
				</g>
			</g>
			
				<ellipse transform="matrix(-0.6369 -0.7709 0.7709 -0.6369 231.9144 536.7843)" opacity="0.5" fill="#FFFFFF" enable-background="new    " cx="242.356" cy="213.782" rx="1.542" ry="1.268"/>
		</g>
		<path fill="#CC924C" stroke="#333333" stroke-width="2.8307" stroke-linecap="round" stroke-miterlimit="10" d="M293.343,209.414
			l-74.76-31.299c-1.021-0.435-2.2,0.041-2.637,1.06l0,0c-0.435,1.021,0.04,2.2,1.062,2.635l74.342,32.275"/>
		<g>
			
				<path fill="#A1C453" stroke="#333333" stroke-width="1.0616" stroke-linecap="round" stroke-linejoin="round" stroke-miterlimit="10" d="
				M215.191,180.538c0,0-2.191-2.228-2.507-2.781c-0.256-0.441,3.023,0.208,4.158,0.654L215.191,180.538z"/>
			
				<path fill="#A1C453" stroke="#333333" stroke-width="1.0616" stroke-linecap="round" stroke-linejoin="round" stroke-miterlimit="10" d="
				M215.929,178.168l2.033,4.357c0,0-4.631-1.2-5.662-2.916C212.3,179.609,214.536,178.987,215.929,178.168z"/>
			
				<path fill="#A1C453" stroke="#333333" stroke-width="1.0616" stroke-linecap="round" stroke-linejoin="round" stroke-miterlimit="10" d="
				M221.422,179.833c0,0-4.094-4.304-7.575-3.848l2.152,4.07L221.422,179.833z"/>
		</g>
		<g>
			<g>
				<path fill="#D3F46C" d="M242.832,173.651c2.299,1.501,3.188,5.777,1.446,6.879c-0.304,2.276-4.576,2.947-6.877,1.45
					c-2.3-1.5-3.836-4.108-0.837-6.679C237.637,171.689,240.531,172.153,242.832,173.651z"/>
				<g>
					<path fill="none" stroke="#333333" stroke-width="1.0616" stroke-linecap="round" stroke-miterlimit="10" d="M243.255,173.973
						c0.158,0.165,0.343,0.307,0.479,0.492c0.802,0.929,1.264,2.119,1.425,3.326c0.068,0.605,0.044,1.234-0.165,1.813
						c-0.12,0.279-0.271,0.555-0.505,0.755c-0.334,0.138-0.211,0.542-0.413,0.781c-0.281,0.548-0.806,0.931-1.357,1.178
						c-0.56,0.249-1.165,0.382-1.772,0.437c-1.214,0.097-2.48-0.118-3.526-0.765c-1.01-0.667-1.95-1.561-2.351-2.729
						c-0.43-1.182,0.056-2.494,0.896-3.367c0.187-0.24,0.467-0.407,0.627-0.66c0.104-0.287,0.19-0.582,0.338-0.852
						c0.266-0.546,0.639-1.059,1.155-1.395c0.512-0.34,1.14-0.475,1.748-0.442c0.146,0.01,0.314,0.017,0.444,0.046l0.193,0.034
						c0.131,0.017,0.254,0.063,0.382,0.095"/>
					
						<line fill="none" stroke="#333333" stroke-width="1.0616" stroke-linecap="round" stroke-miterlimit="10" x1="242.379" y1="173.375" x2="242.313" y2="173.34"/>
				</g>
			</g>
			
				<ellipse transform="matrix(-0.3716 -0.9284 0.9284 -0.3716 158.7021 465.976)" opacity="0.5" fill="#FFFFFF" enable-background="new    " cx="237.051" cy="179.279" rx="1.138" ry="0.935"/>
		</g>
	</g>
</g>
<g id="calque07">
	<g>
		
			<polygon fill="#CC924C" stroke="#333333" stroke-width="1.0616" stroke-linecap="round" stroke-linejoin="round" stroke-miterlimit="10" points="
			216.943,188.975 226.209,185.568 223.454,184.394 		"/>
		
			<polygon fill="#CC924C" stroke="#333333" stroke-width="0.8493" stroke-linecap="round" stroke-linejoin="round" stroke-miterlimit="10" points="
			234.772,176.254 239.141,186.882 236.385,185.707 		"/>
		
			<polygon fill="#CC924C" stroke="#333333" stroke-width="1.0616" stroke-linecap="round" stroke-linejoin="round" stroke-miterlimit="10" points="
			240.046,207.667 259.678,200.004 256.923,198.829 		"/>
		
			<polygon fill="#CC924C" stroke="#333333" stroke-width="1.0616" stroke-linecap="round" stroke-linejoin="round" stroke-miterlimit="10" points="
			268.145,193.131 271.537,200.229 269.757,199.473 		"/>
		<g>
			
				<path fill="#A1C453" stroke="#333333" stroke-width="1.5923" stroke-linecap="round" stroke-linejoin="round" stroke-miterlimit="10" d="
				M262.083,216.337c0.188-2.851-1.313-4.396,3.114-8.448c4.432-4.052,5.23,0.813,8.146-1.852c-2.915,2.665,1.78,4.135-2.486,8.039
				C266.592,217.979,264.931,216.161,262.083,216.337z"/>
			<g>
				<line fill="none" x1="273.344" y1="206.037" x2="264.617" y2="214.021"/>
				<g>
					<polyline fill="none" stroke="#333333" stroke-width="1.0616" stroke-linecap="round" stroke-miterlimit="10" points="
						272.952,206.396 272.444,206.859 266.68,212.134 266.238,212.537 					"/>
					
						<line fill="none" stroke="#333333" stroke-width="1.0616" stroke-linecap="round" stroke-miterlimit="10" x1="265.009" y1="213.662" x2="265.063" y2="213.611"/>
				</g>
			</g>
		</g>
		<g>
			
				<path fill="#A1C453" stroke="#333333" stroke-width="1.5923" stroke-linecap="round" stroke-linejoin="round" stroke-miterlimit="10" d="
				M202.188,192.875c2.501,1.382,2.988,3.481,8.792,1.948c5.804-1.534,2.146-4.84,5.964-5.849c-3.818,1.009-2.516-3.734-8.104-2.255
				C203.248,188.194,203.877,190.573,202.188,192.875z"/>
			<g>
				<line fill="none" x1="216.943" y1="188.975" x2="205.509" y2="191.998"/>
				<g>
					<polyline fill="none" stroke="#333333" stroke-width="1.0616" stroke-linecap="round" stroke-miterlimit="10" points="
						216.431,189.11 215.766,189.286 208.211,191.283 207.634,191.437 					"/>
					
						<line fill="none" stroke="#333333" stroke-width="1.0616" stroke-linecap="round" stroke-miterlimit="10" x1="206.021" y1="191.862" x2="206.094" y2="191.844"/>
				</g>
			</g>
		</g>
		<g>
			
				<path fill="#A1C453" stroke="#333333" stroke-width="1.5923" stroke-linecap="round" stroke-linejoin="round" stroke-miterlimit="10" d="
				M223.209,204.105c2.719-1.733,3.118-4.133,9.764-2.818c6.646,1.314,2.759,5.297,7.132,6.16c-4.373-0.863-2.567,4.387-8.968,3.119
				C224.736,209.303,225.274,206.578,223.209,204.105z"/>
			<g>
				<line fill="none" x1="240.104" y1="207.447" x2="227.011" y2="204.859"/>
				<g>
					<polyline fill="none" stroke="#333333" stroke-width="1.0616" stroke-linecap="round" stroke-miterlimit="10" points="
						239.584,207.346 238.909,207.212 229.753,205.402 229.167,205.286 					"/>
					
						<line fill="none" stroke="#333333" stroke-width="1.0616" stroke-linecap="round" stroke-miterlimit="10" x1="227.531" y1="204.963" x2="227.604" y2="204.979"/>
				</g>
			</g>
		</g>
		<g>
			
				<path fill="#A1C453" stroke="#333333" stroke-width="1.5923" stroke-linecap="round" stroke-linejoin="round" stroke-miterlimit="10" d="
				M226.198,217.277c0.695-3.148-0.72-5.127,4.91-8.898c5.627-3.77,5.695,1.795,9.398-0.686c-3.703,2.479,1.286,4.916-4.135,8.547
				C230.949,219.872,229.404,217.563,226.198,217.277z"/>
			<g>
				<line fill="none" x1="240.507" y1="207.693" x2="229.418" y2="215.12"/>
				<g>
					<polyline fill="none" stroke="#333333" stroke-width="1.0616" stroke-linecap="round" stroke-miterlimit="10" points="
						240.065,207.988 239.494,208.371 231.74,213.564 231.244,213.896 					"/>
					
						<line fill="none" stroke="#333333" stroke-width="1.0616" stroke-linecap="round" stroke-miterlimit="10" x1="229.859" y1="214.824" x2="229.921" y2="214.783"/>
				</g>
			</g>
		</g>
		<g>
			
				<path fill="#A1C453" stroke="#333333" stroke-width="1.5923" stroke-linecap="round" stroke-linejoin="round" stroke-miterlimit="10" d="
				M261.631,181.714c-0.651,2.476-2.368,3.356,0.232,8.058c2.604,4.702,4.672,0.802,6.384,3.896
				c-1.712-3.095,2.688-3.001,0.184-7.529C265.925,181.611,263.997,182.678,261.631,181.714z"/>
			<g>
				<line fill="none" x1="268.247" y1="193.668" x2="263.12" y2="184.403"/>
				<g>
					<polyline fill="none" stroke="#333333" stroke-width="1.0616" stroke-linecap="round" stroke-miterlimit="10" points="
						267.99,193.203 267.657,192.602 264.474,186.85 264.185,186.326 					"/>
					
						<line fill="none" stroke="#333333" stroke-width="1.0616" stroke-linecap="round" stroke-miterlimit="10" x1="263.377" y1="184.867" x2="263.413" y2="184.933"/>
				</g>
			</g>
		</g>
		<g>
			
				<path fill="#A1C453" stroke="#333333" stroke-width="1.5923" stroke-linecap="round" stroke-linejoin="round" stroke-miterlimit="10" d="
				M272.301,180.782c-2.208,1.288-4.044,0.698-5.529,5.864c-1.483,5.164,2.733,3.869,1.757,7.268
				c0.978-3.398,4.025-0.221,5.455-5.193C275.413,183.747,273.295,183.137,272.301,180.782z"/>
			<g>
				<line fill="none" x1="268.528" y1="193.914" x2="271.453" y2="183.738"/>
				<g>
					<polyline fill="none" stroke="#333333" stroke-width="1.0616" stroke-linecap="round" stroke-miterlimit="10" points="
						268.675,193.404 268.865,192.743 270.681,186.425 270.846,185.851 					"/>
					
						<line fill="none" stroke="#333333" stroke-width="1.0616" stroke-linecap="round" stroke-miterlimit="10" x1="271.307" y1="184.248" x2="271.286" y2="184.32"/>
				</g>
			</g>
		</g>
		<g>
			
				<path fill="#A1C453" stroke="#333333" stroke-width="1.5923" stroke-linecap="round" stroke-linejoin="round" stroke-miterlimit="10" d="
				M240.017,159.382c1.464,2.874,3.813,3.505,1.862,9.991c-1.953,6.488-5.539,2.233-6.824,6.504
				c1.285-4.271-4.114-2.982-2.236-9.228C234.699,160.399,237.357,161.198,240.017,159.382z"/>
			<g>
				<line fill="none" x1="235.055" y1="175.877" x2="238.9" y2="163.094"/>
				<g>
					<polyline fill="none" stroke="#333333" stroke-width="1.0616" stroke-linecap="round" stroke-miterlimit="10" points="
						235.208,175.369 235.405,174.71 238.095,165.771 238.268,165.198 					"/>
					
						<line fill="none" stroke="#333333" stroke-width="1.0616" stroke-linecap="round" stroke-miterlimit="10" x1="238.747" y1="163.602" x2="238.726" y2="163.674"/>
				</g>
			</g>
		</g>
		<g>
			
				<path fill="#A1C453" stroke="#333333" stroke-width="1.5923" stroke-linecap="round" stroke-linejoin="round" stroke-miterlimit="10" d="
				M226.619,161.08c3.064,1,5.173-0.217,8.38,5.749c3.208,5.968-2.337,5.497-0.228,9.425c-2.109-3.928-5.018,0.802-8.104-4.944
				C223.579,165.562,226.023,164.246,226.619,161.08z"/>
			<g>
				<line fill="none" x1="234.772" y1="176.254" x2="228.455" y2="164.496"/>
				<g>
					<polyline fill="none" stroke="#333333" stroke-width="1.0616" stroke-linecap="round" stroke-miterlimit="10" points="
						234.521,175.786 234.195,175.181 229.778,166.959 229.495,166.432 					"/>
					
						<line fill="none" stroke="#333333" stroke-width="1.0616" stroke-linecap="round" stroke-miterlimit="10" x1="228.706" y1="164.964" x2="228.741" y2="165.029"/>
				</g>
			</g>
		</g>
		<g>
			
				<path fill="#A1C453" stroke="#333333" stroke-width="1.5923" stroke-linecap="round" stroke-linejoin="round" stroke-miterlimit="10" d="
				M246.512,169.014c-0.565,2.468,0.533,4.031-3.911,6.958c-4.442,2.927-4.464-1.444-7.39,0.483c2.926-1.928-0.979-3.87,3.303-6.689
				C242.795,166.944,243.994,168.768,246.512,169.014z"/>
			<g>
				<line fill="none" x1="235.211" y1="176.455" x2="243.969" y2="170.688"/>
				<g>
					<polyline fill="none" stroke="#333333" stroke-width="1.0616" stroke-linecap="round" stroke-miterlimit="10" points="
						235.654,176.163 236.229,175.785 241.634,172.225 242.133,171.896 					"/>
					
						<line fill="none" stroke="#333333" stroke-width="1.0616" stroke-linecap="round" stroke-miterlimit="10" x1="243.525" y1="170.979" x2="243.463" y2="171.021"/>
				</g>
			</g>
		</g>
		<g>
			<g>
				<path fill="#EF4529" d="M247.489,204.096c3.594,0.985,6.52,6.135,4.729,8.282c0.551,3.063-4.688,5.706-8.279,4.726
					c-3.592-0.982-6.66-3.713-3.854-8.277C239.967,203.717,243.899,203.116,247.489,204.096z"/>
				<g>
					<path fill="none" stroke="#333333" stroke-width="1.5924" stroke-linecap="round" stroke-miterlimit="10" d="M248.236,204.368
						c0.311,0.151,0.621,0.298,0.902,0.497c1.37,0.894,2.442,2.215,3.112,3.701c0.325,0.744,0.552,1.557,0.496,2.377
						c-0.044,0.402-0.128,0.814-0.354,1.158l-0.166,0.258c-0.02,0.096,0.006,0.203,0.007,0.304c0.029,0.204,0.011,0.405-0.031,0.606
						c-0.143,0.812-0.65,1.51-1.252,2.053c-0.607,0.547-1.32,0.967-2.068,1.291c-1.502,0.613-3.196,0.902-4.795,0.521
						c-1.565-0.409-3.129-1.135-4.174-2.409c-0.515-0.636-0.844-1.422-0.905-2.238c-0.077-0.817,0.127-1.637,0.435-2.387
						c0.141-0.387,0.347-0.74,0.544-1.098c0.141-0.168,0.092-0.387,0.107-0.588c0.012-0.204-0.002-0.409,0.03-0.611
						c0.072-0.813,0.307-1.621,0.753-2.306c0.443-0.687,1.134-1.198,1.901-1.47c0.183-0.084,0.403-0.118,0.575-0.168
						c0.097-0.022,0.19-0.051,0.288-0.061c0.195-0.023,0.391-0.061,0.585-0.072"/>
					
						<line fill="none" stroke="#333333" stroke-width="1.5924" stroke-linecap="round" stroke-miterlimit="10" x1="246.715" y1="203.913" x2="246.604" y2="203.895"/>
				</g>
			</g>
			
				<ellipse transform="matrix(-0.6374 -0.7705 0.7705 -0.6374 232.1619 536.7992)" opacity="0.5" fill="#FFFFFF" enable-background="new    " cx="242.377" cy="213.777" rx="1.541" ry="1.268"/>
		</g>
		<g>
			<g>
				<path fill="#D3F46C" d="M245.444,173.682c2.797,2.46,3.164,8.371,0.611,9.513c-0.85,2.996-6.716,3.069-9.513,0.612
					c-2.796-2.46-4.354-6.26,0.173-9.127C238.851,170.038,242.649,171.224,245.444,173.682z"/>
				<g>
					<path fill="none" stroke="#333333" stroke-width="1.5924" stroke-linecap="round" stroke-miterlimit="10" d="M245.996,174.255
						c0.212,0.271,0.427,0.54,0.593,0.842c0.839,1.404,1.223,3.063,1.171,4.691c-0.035,0.812-0.188,1.642-0.599,2.353
						c-0.219,0.343-0.475,0.677-0.827,0.886l-0.263,0.158c-0.057,0.079-0.082,0.185-0.126,0.276
						c-0.063,0.196-0.17,0.369-0.296,0.531c-0.482,0.666-1.247,1.07-2.023,1.294c-0.786,0.225-1.61,0.289-2.426,0.251
						c-1.619-0.107-3.269-0.592-4.536-1.637c-1.228-1.055-2.313-2.393-2.691-3.998c-0.183-0.796-0.134-1.646,0.17-2.407
						c0.29-0.77,0.832-1.415,1.438-1.954c0.296-0.284,0.636-0.512,0.971-0.746c0.199-0.089,0.251-0.308,0.354-0.48
						c0.1-0.178,0.178-0.369,0.295-0.537c0.422-0.697,0.986-1.32,1.688-1.74c0.701-0.422,1.544-0.578,2.354-0.484
						c0.198,0.004,0.414,0.07,0.59,0.102c0.097,0.021,0.192,0.038,0.286,0.073c0.186,0.063,0.376,0.116,0.558,0.19"/>
					
						<line fill="none" stroke="#333333" stroke-width="1.5924" stroke-linecap="round" stroke-miterlimit="10" x1="244.828" y1="173.178" x2="244.738" y2="173.111"/>
				</g>
			</g>
			<path opacity="0.5" fill="#FFFFFF" enable-background="new    " d="M237.824,179.838c0.198,0.828-0.189,1.632-0.87,1.797
				c-0.682,0.164-1.396-0.373-1.601-1.2c-0.198-0.828,0.191-1.633,0.872-1.797C236.908,178.474,237.622,179.012,237.824,179.838z"/>
		</g>
		<path fill="#CC924C" stroke="#333333" stroke-width="2.8307" stroke-linecap="round" stroke-miterlimit="10" d="M293.343,209.414
			l-80.757-33.854c-1.021-0.437-2.198,0.039-2.634,1.061l0,0c-0.436,1.019,0.04,2.197,1.059,2.632l80.339,34.833"/>
		<g>
			
				<path fill="#A1C453" stroke="#333333" stroke-width="1.0616" stroke-linecap="round" stroke-linejoin="round" stroke-miterlimit="10" d="
				M209.197,177.98c0,0-2.194-2.225-2.51-2.778c-0.255-0.442,3.023,0.206,4.158,0.652L209.197,177.98z"/>
			
				<path fill="#A1C453" stroke="#333333" stroke-width="1.0616" stroke-linecap="round" stroke-linejoin="round" stroke-miterlimit="10" d="
				M209.933,175.612l2.034,4.356c0,0-4.632-1.199-5.662-2.918C206.305,177.051,208.541,176.432,209.933,175.612z"/>
			
				<path fill="#A1C453" stroke="#333333" stroke-width="1.0616" stroke-linecap="round" stroke-linejoin="round" stroke-miterlimit="10" d="
				M215.425,177.276c0,0-4.092-4.305-7.575-3.849l2.152,4.071L215.425,177.276z"/>
		</g>
	</g>
</g>
<g id="calque08">
	<g>
		
			<polygon fill="#CC924C" stroke="#333333" stroke-width="1.0616" stroke-linecap="round" stroke-linejoin="round" stroke-miterlimit="10" points="
			216.942,188.979 226.208,185.572 223.452,184.397 		"/>
		
			<polygon fill="#CC924C" stroke="#333333" stroke-width="0.8493" stroke-linecap="round" stroke-linejoin="round" stroke-miterlimit="10" points="
			234.772,176.256 239.139,186.885 236.384,185.709 		"/>
		
			<polygon fill="#CC924C" stroke="#333333" stroke-width="1.0616" stroke-linecap="round" stroke-linejoin="round" stroke-miterlimit="10" points="
			240.046,207.67 259.677,200.007 256.922,198.832 		"/>
		
			<polygon fill="#CC924C" stroke="#333333" stroke-width="1.0616" stroke-linecap="round" stroke-linejoin="round" stroke-miterlimit="10" points="
			268.143,193.134 271.534,200.231 269.757,199.474 		"/>
		<g>
			
				<path fill="#A1C453" stroke="#333333" stroke-width="1.5923" stroke-linecap="round" stroke-linejoin="round" stroke-miterlimit="10" d="
				M262.081,216.341c0.19-2.851-1.312-4.396,3.119-8.45c4.427-4.051,5.228,0.813,8.142-1.852c-2.914,2.665,1.781,4.137-2.485,8.039
				C266.591,217.98,264.93,216.163,262.081,216.341z"/>
			<g>
				<line fill="none" x1="273.342" y1="206.039" x2="264.617" y2="214.021"/>
				<g>
					<polyline fill="none" stroke="#333333" stroke-width="1.0616" stroke-linecap="round" stroke-miterlimit="10" points="
						272.95,206.396 272.442,206.861 266.68,212.135 266.238,212.538 					"/>
					
						<line fill="none" stroke="#333333" stroke-width="1.0616" stroke-linecap="round" stroke-miterlimit="10" x1="265.009" y1="213.663" x2="265.063" y2="213.613"/>
				</g>
			</g>
		</g>
		<g>
			
				<path fill="#A1C453" stroke="#333333" stroke-width="1.5923" stroke-linecap="round" stroke-linejoin="round" stroke-miterlimit="10" d="
				M202.186,192.879c2.501,1.382,2.988,3.48,8.794,1.945c5.804-1.533,2.144-4.838,5.963-5.846c-3.819,1.008-2.517-3.734-8.104-2.257
				C203.246,188.197,203.875,190.578,202.186,192.879z"/>
			<g>
				<line fill="none" x1="216.942" y1="188.979" x2="205.507" y2="192"/>
				<g>
					<polyline fill="none" stroke="#333333" stroke-width="1.0616" stroke-linecap="round" stroke-miterlimit="10" points="
						216.43,189.114 215.765,189.29 208.209,191.286 207.632,191.438 					"/>
					
						<line fill="none" stroke="#333333" stroke-width="1.0616" stroke-linecap="round" stroke-miterlimit="10" x1="206.02" y1="191.864" x2="206.092" y2="191.846"/>
				</g>
			</g>
		</g>
		<g>
			
				<path fill="#A1C453" stroke="#333333" stroke-width="1.5923" stroke-linecap="round" stroke-linejoin="round" stroke-miterlimit="10" d="
				M223.208,204.107c2.718-1.731,3.118-4.132,9.763-2.818c6.646,1.314,2.76,5.298,7.134,6.164c-4.374-0.866-2.568,4.385-8.969,3.117
				C224.735,209.305,225.272,206.58,223.208,204.107z"/>
			<g>
				<line fill="none" x1="240.104" y1="207.453" x2="227.011" y2="204.861"/>
				<g>
					<polyline fill="none" stroke="#333333" stroke-width="1.0616" stroke-linecap="round" stroke-miterlimit="10" points="
						239.584,207.35 238.909,207.217 229.753,205.404 229.167,205.289 					"/>
					
						<line fill="none" stroke="#333333" stroke-width="1.0616" stroke-linecap="round" stroke-miterlimit="10" x1="227.531" y1="204.965" x2="227.604" y2="204.979"/>
				</g>
			</g>
		</g>
		<g>
			
				<path fill="#A1C453" stroke="#333333" stroke-width="1.5923" stroke-linecap="round" stroke-linejoin="round" stroke-miterlimit="10" d="
				M226.196,217.279c0.696-3.148-0.719-5.129,4.909-8.896c5.63-3.771,5.697,1.794,9.4-0.688c-3.703,2.48,1.285,4.918-4.135,8.547
				C230.948,219.874,229.402,217.566,226.196,217.279z"/>
			<g>
				<line fill="none" x1="240.506" y1="207.695" x2="229.416" y2="215.124"/>
				<g>
					<polyline fill="none" stroke="#333333" stroke-width="1.0616" stroke-linecap="round" stroke-miterlimit="10" points="
						240.064,207.992 239.493,208.374 231.738,213.568 231.242,213.9 					"/>
					
						<line fill="none" stroke="#333333" stroke-width="1.0616" stroke-linecap="round" stroke-miterlimit="10" x1="229.857" y1="214.828" x2="229.919" y2="214.787"/>
				</g>
			</g>
		</g>
		<g>
			
				<path fill="#A1C453" stroke="#333333" stroke-width="1.5923" stroke-linecap="round" stroke-linejoin="round" stroke-miterlimit="10" d="
				M261.629,181.718c-0.649,2.474-2.367,3.354,0.233,8.058c2.603,4.701,4.671,0.802,6.382,3.896
				c-1.711-3.095,2.689-3.001,0.186-7.53C265.924,181.612,263.997,182.68,261.629,181.718z"/>
			<g>
				<line fill="none" x1="268.244" y1="193.672" x2="263.119" y2="184.408"/>
				<g>
					<polyline fill="none" stroke="#333333" stroke-width="1.0616" stroke-linecap="round" stroke-miterlimit="10" points="
						267.987,193.207 267.654,192.605 264.473,186.854 264.183,186.331 					"/>
					
						<line fill="none" stroke="#333333" stroke-width="1.0616" stroke-linecap="round" stroke-miterlimit="10" x1="263.376" y1="184.873" x2="263.412" y2="184.938"/>
				</g>
			</g>
		</g>
		<g>
			
				<path fill="#A1C453" stroke="#333333" stroke-width="1.5923" stroke-linecap="round" stroke-linejoin="round" stroke-miterlimit="10" d="
				M272.301,180.786c-2.21,1.29-4.047,0.698-5.53,5.862c-1.484,5.165,2.733,3.87,1.756,7.269c0.979-3.398,4.026-0.22,5.456-5.194
				C275.413,183.749,273.294,183.14,272.301,180.786z"/>
			<g>
				<line fill="none" x1="268.526" y1="193.917" x2="271.452" y2="183.741"/>
				<g>
					<polyline fill="none" stroke="#333333" stroke-width="1.0616" stroke-linecap="round" stroke-miterlimit="10" points="
						268.673,193.407 268.863,192.746 270.68,186.428 270.845,185.854 					"/>
					
						<line fill="none" stroke="#333333" stroke-width="1.0616" stroke-linecap="round" stroke-miterlimit="10" x1="271.306" y1="184.251" x2="271.285" y2="184.323"/>
				</g>
			</g>
		</g>
		<g>
			
				<path fill="#A1C453" stroke="#333333" stroke-width="1.5923" stroke-linecap="round" stroke-linejoin="round" stroke-miterlimit="10" d="
				M240.015,159.387c1.464,2.872,3.813,3.502,1.863,9.989c-1.952,6.487-5.54,2.233-6.823,6.503c1.283-4.27-4.116-2.98-2.236-9.229
				C234.697,160.401,237.355,161.202,240.015,159.387z"/>
			<g>
				<line fill="none" x1="235.055" y1="175.879" x2="238.898" y2="163.097"/>
				<g>
					<polyline fill="none" stroke="#333333" stroke-width="1.0616" stroke-linecap="round" stroke-miterlimit="10" points="
						235.207,175.371 235.405,174.712 238.094,165.773 238.266,165.201 					"/>
					
						<line fill="none" stroke="#333333" stroke-width="1.0616" stroke-linecap="round" stroke-miterlimit="10" x1="238.746" y1="163.605" x2="238.725" y2="163.677"/>
				</g>
			</g>
		</g>
		<g>
			
				<path fill="#A1C453" stroke="#333333" stroke-width="1.5923" stroke-linecap="round" stroke-linejoin="round" stroke-miterlimit="10" d="
				M226.617,161.084c3.066,0.998,5.175-0.219,8.382,5.749c3.205,5.968-2.339,5.495-0.228,9.423c-2.111-3.928-5.02,0.803-8.106-4.943
				C223.576,165.564,226.023,164.249,226.617,161.084z"/>
			<g>
				<line fill="none" x1="234.772" y1="176.256" x2="228.453" y2="164.499"/>
				<g>
					<polyline fill="none" stroke="#333333" stroke-width="1.0616" stroke-linecap="round" stroke-miterlimit="10" points="
						234.521,175.788 234.195,175.183 229.776,166.961 229.494,166.435 					"/>
					
						<line fill="none" stroke="#333333" stroke-width="1.0616" stroke-linecap="round" stroke-miterlimit="10" x1="228.704" y1="164.967" x2="228.74" y2="165.032"/>
				</g>
			</g>
		</g>
		<g>
			
				<path fill="#A1C453" stroke="#333333" stroke-width="1.5923" stroke-linecap="round" stroke-linejoin="round" stroke-miterlimit="10" d="
				M246.512,169.016c-0.566,2.469,0.533,4.032-3.912,6.959c-4.445,2.928-4.465-1.444-7.389,0.482
				c2.924-1.927-0.979-3.87,3.301-6.688C242.793,166.948,243.992,168.77,246.512,169.016z"/>
			<g>
				<line fill="none" x1="235.211" y1="176.457" x2="243.968" y2="170.689"/>
				<g>
					<polyline fill="none" stroke="#333333" stroke-width="1.0616" stroke-linecap="round" stroke-miterlimit="10" points="
						235.654,176.165 236.229,175.787 241.633,172.227 242.133,171.898 					"/>
					
						<line fill="none" stroke="#333333" stroke-width="1.0616" stroke-linecap="round" stroke-miterlimit="10" x1="243.524" y1="170.981" x2="243.462" y2="171.022"/>
				</g>
			</g>
		</g>
		<g>
			<g>
				<path fill="#EF4529" d="M247.488,204.1c3.594,0.983,6.521,6.135,4.729,8.28c0.551,3.063-4.688,5.708-8.28,4.726
					c-3.591-0.982-6.659-3.711-3.852-8.276C239.965,203.721,243.898,203.118,247.488,204.1z"/>
				<g>
					<path fill="none" stroke="#333333" stroke-width="1.5924" stroke-linecap="round" stroke-miterlimit="10" d="M248.235,204.372
						c0.311,0.151,0.621,0.298,0.902,0.497c1.37,0.893,2.443,2.214,3.112,3.699c0.325,0.746,0.553,1.559,0.497,2.377
						c-0.045,0.404-0.129,0.816-0.354,1.16l-0.167,0.258c-0.018,0.096,0.007,0.201,0.008,0.303c0.029,0.204,0.011,0.406-0.032,0.607
						c-0.143,0.811-0.649,1.508-1.252,2.051c-0.606,0.547-1.318,0.968-2.067,1.291c-1.502,0.615-3.196,0.902-4.795,0.521
						c-1.565-0.41-3.129-1.135-4.174-2.41c-0.515-0.635-0.844-1.422-0.905-2.236c-0.077-0.819,0.127-1.639,0.436-2.389
						c0.141-0.386,0.347-0.74,0.544-1.097c0.141-0.168,0.092-0.387,0.107-0.588c0.012-0.204-0.002-0.41,0.03-0.612
						c0.071-0.812,0.307-1.619,0.752-2.305c0.443-0.688,1.134-1.198,1.901-1.471c0.183-0.084,0.403-0.117,0.575-0.166
						c0.096-0.023,0.19-0.053,0.289-0.062c0.194-0.022,0.389-0.062,0.585-0.073"/>
					
						<line fill="none" stroke="#333333" stroke-width="1.5924" stroke-linecap="round" stroke-miterlimit="10" x1="246.714" y1="203.917" x2="246.604" y2="203.896"/>
				</g>
			</g>
			
				<ellipse transform="matrix(-0.6374 -0.7705 0.7705 -0.6374 232.1184 536.8285)" opacity="0.5" fill="#FFFFFF" enable-background="new    " cx="242.375" cy="213.797" rx="1.544" ry="1.269"/>
		</g>
		<g>
			<g>
				<path fill="#EF4529" d="M245.517,173.513c2.796,2.457,3.165,8.369,0.612,9.511c-0.851,2.994-6.718,3.071-9.516,0.612
					c-2.793-2.46-4.352-6.26,0.175-9.127C238.924,169.867,242.723,171.052,245.517,173.513z"/>
				<g>
					<path fill="none" stroke="#333333" stroke-width="1.5924" stroke-linecap="round" stroke-miterlimit="10" d="M246.069,174.085
						c0.211,0.271,0.428,0.54,0.594,0.843c0.839,1.404,1.223,3.062,1.171,4.69c-0.035,0.812-0.188,1.642-0.601,2.353
						c-0.217,0.343-0.474,0.677-0.827,0.886l-0.263,0.158c-0.055,0.08-0.082,0.185-0.124,0.276
						c-0.063,0.197-0.171,0.369-0.297,0.531c-0.484,0.666-1.247,1.069-2.025,1.293c-0.785,0.225-1.609,0.289-2.426,0.251
						c-1.619-0.107-3.268-0.591-4.536-1.637c-1.226-1.056-2.312-2.394-2.688-3.999c-0.184-0.795-0.133-1.646,0.17-2.406
						c0.29-0.77,0.832-1.415,1.438-1.955c0.297-0.284,0.637-0.512,0.972-0.745c0.199-0.089,0.25-0.309,0.354-0.481
						c0.101-0.178,0.179-0.369,0.295-0.536c0.422-0.698,0.987-1.321,1.688-1.74c0.701-0.422,1.545-0.579,2.354-0.484
						c0.2,0.004,0.414,0.07,0.592,0.103c0.096,0.021,0.191,0.037,0.284,0.072c0.187,0.064,0.376,0.116,0.559,0.191"/>
					
						<line fill="none" stroke="#333333" stroke-width="1.5924" stroke-linecap="round" stroke-miterlimit="10" x1="244.901" y1="173.008" x2="244.811" y2="172.941"/>
				</g>
			</g>
			
				<ellipse transform="matrix(-0.2345 -0.9721 0.9721 -0.2345 117.2205 452.2421)" opacity="0.5" fill="#FFFFFF" enable-background="new    " cx="236.674" cy="179.967" rx="1.543" ry="1.269"/>
		</g>
		<path fill="#CC924C" stroke="#333333" stroke-width="2.8307" stroke-linecap="round" stroke-miterlimit="10" d="M293.341,209.418
			l-80.756-33.855c-1.021-0.436-2.198,0.038-2.633,1.06l0,0c-0.437,1.02,0.038,2.198,1.059,2.633l80.339,34.835"/>
		<g>
			
				<path fill="#A1C453" stroke="#333333" stroke-width="1.0616" stroke-linecap="round" stroke-linejoin="round" stroke-miterlimit="10" d="
				M209.196,177.984c0,0-2.193-2.227-2.51-2.779c-0.255-0.444,3.024,0.207,4.159,0.653L209.196,177.984z"/>
			
				<path fill="#A1C453" stroke="#333333" stroke-width="1.0616" stroke-linecap="round" stroke-linejoin="round" stroke-miterlimit="10" d="
				M209.932,175.614l2.032,4.358c0,0-4.631-1.2-5.661-2.916C206.303,177.057,208.539,176.435,209.932,175.614z"/>
			
				<path fill="#A1C453" stroke="#333333" stroke-width="1.0616" stroke-linecap="round" stroke-linejoin="round" stroke-miterlimit="10" d="
				M215.423,177.28c0,0-4.092-4.307-7.574-3.848l2.152,4.068L215.423,177.28z"/>
		</g>
	</g>
</g>
</svg>
