<?xml version="1.0" encoding="utf-8"?>
<!-- Generator: Adobe Illustrator 16.0.0, SVG Export Plug-In . SVG Version: 6.00 Build 0)  -->
<!DOCTYPE svg PUBLIC "-//W3C//DTD SVG 1.1//EN" "http://www.w3.org/Graphics/SVG/1.1/DTD/svg11.dtd">
<svg version="1.1" xmlns="http://www.w3.org/2000/svg" xmlns:xlink="http://www.w3.org/1999/xlink" x="0px" y="0px" width="230px"
	 height="380px" viewBox="0 0 230 380" enable-background="new 0 0 230 380" xml:space="preserve">
<g id="calque00">
	<g>
		<path fill="#CC924C" stroke="#333333" stroke-width="9.9702" stroke-linecap="round" stroke-miterlimit="10" d="M110.422,364.999
			l1.995-35.277c0-4.163,3.377-7.54,7.542-7.54l0,0c4.163,0,7.54,3.377,7.54,7.54l1.995,35.277"/>
		<g>
			
				<path fill="#A1C453" stroke="#333333" stroke-width="3.9881" stroke-linecap="round" stroke-linejoin="round" stroke-miterlimit="10" d="
				M125.779,321.578c0,0-4.461-10.859-5.909-12.767c-1.153-1.534-3.74,10.759-3.869,15.339L125.779,321.578z"/>
			
				<path fill="#A1C453" stroke="#333333" stroke-width="3.9881" stroke-linecap="round" stroke-linejoin="round" stroke-miterlimit="10" d="
				M116.505,320.634l12.067,13.444c0,0,2.672-17.773-1.737-23.862C126.835,310.216,121.395,317.025,116.505,320.634z"/>
			
				<path fill="#A1C453" stroke="#333333" stroke-width="3.9881" stroke-linecap="round" stroke-linejoin="round" stroke-miterlimit="10" d="
				M114.168,342.065c0,0-8.846-20.487-2.137-31.85l10.895,13.437L114.168,342.065z"/>
		</g>
	</g>
</g>
<g id="calque01">
	<g>
		<g>
			
				<path fill="#A1C453" stroke="#333333" stroke-width="3.9881" stroke-linecap="round" stroke-linejoin="round" stroke-miterlimit="10" d="
				M91.47,273.415c4.921-0.206,7.287-3.068,15.054,3.763s-0.418,9.109,4.693,13.605c-5.111-4.496-6.753,3.82-14.232-2.759
				C89.503,281.445,92.303,278.26,91.47,273.415z"/>
			<g>
				<line fill="#A1C453" x1="111.217" y1="290.783" x2="95.913" y2="277.324"/>
				<g>
					<polyline fill="none" stroke="#333333" stroke-width="3.9881" stroke-linecap="round" stroke-miterlimit="10" points="
						109.72,289.467 107.779,287.76 103.799,284.26 102.113,282.776 					"/>
					
						<line fill="none" stroke="#333333" stroke-width="3.9881" stroke-linecap="round" stroke-miterlimit="10" x1="97.41" y1="278.641" x2="97.621" y2="278.826"/>
				</g>
			</g>
		</g>
		<path fill="#CC924C" stroke="#333333" stroke-width="9.9702" stroke-linecap="round" stroke-miterlimit="10" d="M129.493,364.999
			l-1.994-109.672c0-4.164-3.377-7.541-7.542-7.541l0,0c-4.164,0-7.54,3.377-7.54,7.541l-1.995,109.672"/>
		<g>
			
				<path fill="#A1C453" stroke="#333333" stroke-width="3.9881" stroke-linecap="round" stroke-linejoin="round" stroke-miterlimit="10" d="
				M114.136,247.184c0,0,4.462-10.861,5.909-12.767c1.154-1.534,3.741,10.758,3.87,15.339L114.136,247.184z"/>
			
				<path fill="#A1C453" stroke="#333333" stroke-width="3.9881" stroke-linecap="round" stroke-linejoin="round" stroke-miterlimit="10" d="
				M123.411,246.238l-12.067,13.444c0,0-2.673-17.772,1.737-23.862C113.081,235.82,118.521,242.631,123.411,246.238z"/>
			
				<path fill="#A1C453" stroke="#333333" stroke-width="3.9881" stroke-linecap="round" stroke-linejoin="round" stroke-miterlimit="10" d="
				M125.748,267.671c0,0,8.846-20.487,2.136-31.851l-10.894,13.437L125.748,267.671z"/>
		</g>
	</g>
</g>
<g id="calque02">
	<g>
		<g>
			
				<path fill="#A1C453" stroke="#333333" stroke-width="5.9821" stroke-linecap="round" stroke-linejoin="round" stroke-miterlimit="10" d="
				M69.365,247.092c10.726-0.447,15.882-6.688,32.819,8.205c16.934,14.895-0.911,19.861,10.231,29.662
				c-11.143-9.801-14.722,8.331-31.032-6.014S71.181,257.656,69.365,247.092z"/>
			<g>
				<line fill="#A1C453" x1="112.416" y1="284.959" x2="79.051" y2="255.615"/>
				<g>
					<polyline fill="none" stroke="#333333" stroke-width="3.9881" stroke-linecap="round" stroke-miterlimit="10" points="
						110.919,283.643 108.979,281.936 86.937,262.551 85.251,261.068 					"/>
					
						<line fill="none" stroke="#333333" stroke-width="3.9881" stroke-linecap="round" stroke-miterlimit="10" x1="80.548" y1="256.932" x2="80.759" y2="257.117"/>
				</g>
			</g>
		</g>
		<g>
			
				<path fill="#A1C453" stroke="#333333" stroke-width="3.9881" stroke-linecap="round" stroke-linejoin="round" stroke-miterlimit="10" d="
				M144.823,221.327c0.49,4.81,3.435,6.959-2.801,14.971c-6.238,8.014-8.949,0.127-13.055,5.4c4.105-5.273-4.144-6.392,1.865-14.107
				C136.839,219.873,140.126,222.429,144.823,221.327z"/>
			<g>
				<line fill="#A1C453" x1="128.968" y1="241.698" x2="139.985" y2="227.742"/>
				<g>
					<polyline fill="none" stroke="#333333" stroke-width="3.9881" stroke-linecap="round" stroke-miterlimit="10" points="
						130.203,240.133 131.805,238.105 133.479,235.984 134.869,234.223 					"/>
					
						<line fill="none" stroke="#333333" stroke-width="3.9881" stroke-linecap="round" stroke-miterlimit="10" x1="138.75" y1="229.308" x2="138.576" y2="229.527"/>
				</g>
			</g>
		</g>
		<path fill="#CC924C" stroke="#333333" stroke-width="9.9702" stroke-linecap="round" stroke-miterlimit="10" d="M129.493,364.999
			L127.5,221.056c0-4.164-3.377-7.541-7.544-7.541l0,0c-4.164,0-7.54,3.377-7.54,7.541l-1.994,143.943"/>
		<g>
			
				<path fill="#A1C453" stroke="#333333" stroke-width="3.9881" stroke-linecap="round" stroke-linejoin="round" stroke-miterlimit="10" d="
				M114.138,212.912c0,0,4.459-10.861,5.908-12.767c1.152-1.534,3.738,10.758,3.867,15.339L114.138,212.912z"/>
			
				<path fill="#A1C453" stroke="#333333" stroke-width="3.9881" stroke-linecap="round" stroke-linejoin="round" stroke-miterlimit="10" d="
				M123.411,211.967l-12.066,13.444c0,0-2.676-17.772,1.737-23.862C113.082,201.549,118.522,208.359,123.411,211.967z"/>
			
				<path fill="#A1C453" stroke="#333333" stroke-width="3.9881" stroke-linecap="round" stroke-linejoin="round" stroke-miterlimit="10" d="
				M125.747,233.399c0,0,8.845-20.487,2.139-31.851l-10.897,13.437L125.747,233.399z"/>
		</g>
	</g>
</g>
<g id="calque03">
	<g>
		
			<polygon fill="#CC924C" stroke="#333333" stroke-width="3.9881" stroke-linecap="round" stroke-linejoin="round" stroke-miterlimit="10" points="
			143.585,219.645 127.498,250.563 127.498,239.309 		"/>
		<g>
			
				<path fill="#A1C453" stroke="#333333" stroke-width="5.9821" stroke-linecap="round" stroke-linejoin="round" stroke-miterlimit="10" d="
				M69.363,247.092c10.726-0.447,15.885-6.688,32.82,8.205c16.934,14.895-0.91,19.861,10.232,29.662
				c-11.143-9.801-14.724,8.331-31.032-6.014C65.073,264.601,71.181,257.656,69.363,247.092z"/>
			<g>
				<line fill="#A1C453" x1="112.416" y1="284.959" x2="78.584" y2="255.148"/>
				<g>
					<polyline fill="none" stroke="#333333" stroke-width="3.9881" stroke-linecap="round" stroke-miterlimit="10" points="
						110.92,283.641 108.981,281.933 86.463,262.091 84.778,260.606 					"/>
					
						<line fill="none" stroke="#333333" stroke-width="3.9881" stroke-linecap="round" stroke-miterlimit="10" x1="80.08" y1="256.467" x2="80.29" y2="256.652"/>
				</g>
			</g>
		</g>
		<g>
			
				<path fill="#A1C453" stroke="#333333" stroke-width="5.9821" stroke-linecap="round" stroke-linejoin="round" stroke-miterlimit="10" d="
				M178.804,174.399c1.089,10.679,7.628,15.456-6.224,33.252c-13.854,17.796-19.882,0.281-28.995,11.993
				c9.113-11.712-9.199-14.197,4.142-31.336C161.067,171.166,168.366,176.845,178.804,174.399z"/>
			<g>
				<line fill="#A1C453" x1="143.117" y1="219.178" x2="170.407" y2="184.113"/>
				<g>
					<polyline fill="none" stroke="#333333" stroke-width="3.9881" stroke-linecap="round" stroke-miterlimit="10" points="
						144.342,217.604 145.929,215.565 163.957,192.4 165.336,190.629 					"/>
					
						<line fill="none" stroke="#333333" stroke-width="3.9881" stroke-linecap="round" stroke-miterlimit="10" x1="169.183" y1="185.687" x2="169.011" y2="185.908"/>
				</g>
			</g>
		</g>
		<g>
			
				<path fill="#A1C453" stroke="#333333" stroke-width="3.9881" stroke-linecap="round" stroke-linejoin="round" stroke-miterlimit="10" d="
				M81.45,194.498c6.173-1.159,8.637-5.205,19.688,1.999c11.051,7.203,1.137,11.575,8.412,16.314
				c-7.275-4.739-7.828,6.058-18.47-0.88C80.434,204.991,83.388,200.46,81.45,194.498z"/>
			<g>
				<line fill="#A1C453" x1="109.55" y1="212.812" x2="87.775" y2="198.62"/>
				<g>
					<polyline fill="none" stroke="#333333" stroke-width="3.9881" stroke-linecap="round" stroke-miterlimit="10" points="
						107.879,211.723 105.715,210.313 96.573,204.354 94.692,203.128 					"/>
					
						<line fill="none" stroke="#333333" stroke-width="3.9881" stroke-linecap="round" stroke-miterlimit="10" x1="89.446" y1="199.709" x2="89.681" y2="199.862"/>
				</g>
			</g>
		</g>
		<path fill="#CC924C" stroke="#333333" stroke-width="10.6342" stroke-linecap="round" stroke-miterlimit="10" d="M129.494,364.999
			l-1.996-175.712c0-4.165-3.377-7.54-7.542-7.54l0,0c-4.163,0-7.54,3.375-7.54,7.54l-1.994,175.712"/>
		<g>
			
				<path fill="#A1C453" stroke="#333333" stroke-width="3.9881" stroke-linecap="round" stroke-linejoin="round" stroke-miterlimit="10" d="
				M114.136,181.143c0,0,4.461-10.861,5.91-12.766c1.152-1.535,3.738,10.758,3.867,15.339L114.136,181.143z"/>
			
				<path fill="#A1C453" stroke="#333333" stroke-width="3.9881" stroke-linecap="round" stroke-linejoin="round" stroke-miterlimit="10" d="
				M123.411,180.197l-12.067,13.444c0,0-2.674-17.772,1.736-23.862C113.08,169.779,118.521,176.59,123.411,180.197z"/>
			
				<path fill="#A1C453" stroke="#333333" stroke-width="3.9881" stroke-linecap="round" stroke-linejoin="round" stroke-miterlimit="10" d="
				M125.747,201.631c0,0,8.845-20.488,2.137-31.852l-10.896,13.437L125.747,201.631z"/>
		</g>
	</g>
</g>
<g id="calque04">
	<g>
		
			<polygon fill="#CC924C" stroke="#333333" stroke-width="3.9881" stroke-linecap="round" stroke-linejoin="round" stroke-miterlimit="10" points="
			143.584,219.645 127.498,250.563 127.498,239.309 		"/>
		
			<polygon fill="#CC924C" stroke="#333333" stroke-width="3.9881" stroke-linecap="round" stroke-linejoin="round" stroke-miterlimit="10" points="
			71.738,180.378 112.416,227.939 112.416,216.686 		"/>
		<g>
			
				<path fill="#A1C453" stroke="#333333" stroke-width="5.9821" stroke-linecap="round" stroke-linejoin="round" stroke-miterlimit="10" d="
				M69.363,247.092c10.726-0.447,15.884-6.688,32.819,8.205c16.934,14.895-0.909,19.861,10.233,29.662
				c-11.143-9.801-14.724,8.331-31.032-6.014C65.073,264.601,71.18,257.656,69.363,247.092z"/>
			<g>
				<line fill="#A1C453" x1="112.416" y1="284.959" x2="78.583" y2="255.148"/>
				<g>
					<polyline fill="none" stroke="#333333" stroke-width="3.9881" stroke-linecap="round" stroke-miterlimit="10" points="
						110.92,283.641 108.981,281.933 86.462,262.091 84.778,260.606 					"/>
					
						<line fill="none" stroke="#333333" stroke-width="3.9881" stroke-linecap="round" stroke-miterlimit="10" x1="80.079" y1="256.467" x2="80.29" y2="256.652"/>
				</g>
			</g>
		</g>
		<g>
			
				<path fill="#A1C453" stroke="#333333" stroke-width="5.9821" stroke-linecap="round" stroke-linejoin="round" stroke-miterlimit="10" d="
				M178.803,174.399c1.089,10.679,7.628,15.456-6.224,33.252c-13.853,17.796-19.882,0.281-28.995,11.993
				c9.113-11.712-9.199-14.197,4.143-31.336C161.067,171.166,168.365,176.845,178.803,174.399z"/>
			<g>
				<line fill="#A1C453" x1="143.117" y1="219.178" x2="170.406" y2="184.113"/>
				<g>
					<polyline fill="none" stroke="#333333" stroke-width="3.9881" stroke-linecap="round" stroke-miterlimit="10" points="
						144.342,217.604 145.929,215.565 163.956,192.4 165.335,190.629 					"/>
					
						<line fill="none" stroke="#333333" stroke-width="3.9881" stroke-linecap="round" stroke-miterlimit="10" x1="169.182" y1="185.687" x2="169.01" y2="185.908"/>
				</g>
			</g>
		</g>
		<g>
			
				<path fill="#A1C453" stroke="#333333" stroke-width="3.9881" stroke-linecap="round" stroke-linejoin="round" stroke-miterlimit="10" d="
				M66.194,148.3c4.866,3.328,9.186,2.278,11.74,14.396c2.556,12.117-6.928,8.438-5.246,16.412
				c-1.682-7.973-9.214-1.174-11.674-12.843C58.556,154.592,63.521,153.544,66.194,148.3z"/>
			<g>
				<line fill="#A1C453" x1="72.688" y1="179.107" x2="67.655" y2="155.234"/>
				<g>
					<polyline fill="none" stroke="#333333" stroke-width="3.9881" stroke-linecap="round" stroke-miterlimit="10" points="
						72.277,177.156 71.744,174.628 69.821,165.51 69.358,163.313 					"/>
					
						<line fill="none" stroke="#333333" stroke-width="3.9881" stroke-linecap="round" stroke-miterlimit="10" x1="68.066" y1="157.186" x2="68.124" y2="157.46"/>
				</g>
			</g>
		</g>
		<g>
			
				<path fill="#A1C453" stroke="#333333" stroke-width="5.9821" stroke-linecap="round" stroke-linejoin="round" stroke-miterlimit="10" d="
				M18.126,146.674c11.907-2.233,16.661-10.038,37.981,3.858c21.319,13.898,2.193,22.332,16.226,31.475
				c-14.032-9.143-15.1,11.685-35.63-1.699C16.165,166.921,21.862,158.18,18.126,146.674z"/>
			<g>
				<line fill="#A1C453" x1="72.333" y1="182.007" x2="30.325" y2="154.628"/>
				<g>
					<polyline fill="none" stroke="#333333" stroke-width="3.9881" stroke-linecap="round" stroke-miterlimit="10" points="
						70.662,180.918 68.498,179.507 39.123,160.362 37.242,159.137 					"/>
					
						<line fill="none" stroke="#333333" stroke-width="3.9881" stroke-linecap="round" stroke-miterlimit="10" x1="31.996" y1="155.717" x2="32.23" y2="155.87"/>
				</g>
			</g>
		</g>
		<g>
			
				<path fill="#A1C453" stroke="#333333" stroke-width="3.9881" stroke-linecap="round" stroke-linejoin="round" stroke-miterlimit="10" d="
				M147.364,99.02c0.494,5.557,3.859,8.084-3.461,17.236c-7.319,9.152-10.332,0.01-15.147,6.034
				c4.815-6.024-4.684-7.44,2.365-16.255C138.173,97.219,141.925,100.22,147.364,99.02z"/>
			<g>
				<line fill="#A1C453" x1="128.756" y1="122.29" x2="143.177" y2="104.257"/>
				<g>
					<polyline fill="none" stroke="#333333" stroke-width="3.9881" stroke-linecap="round" stroke-miterlimit="10" points="
						130.001,120.732 131.615,118.714 136.618,112.458 138.021,110.705 					"/>
					
						<line fill="none" stroke="#333333" stroke-width="3.9881" stroke-linecap="round" stroke-miterlimit="10" x1="141.932" y1="105.814" x2="141.756" y2="106.033"/>
				</g>
			</g>
		</g>
		<path fill="#CC924C" stroke="#333333" stroke-width="10.6342" stroke-linecap="round" stroke-miterlimit="10" d="M129.493,364.999
			l-1.995-255.592c0-4.164-3.377-7.541-7.542-7.541l0,0c-4.164,0-7.54,3.377-7.54,7.541l-1.994,255.592"/>
		<g>
			
				<path fill="#A1C453" stroke="#333333" stroke-width="3.9881" stroke-linecap="round" stroke-linejoin="round" stroke-miterlimit="10" d="
				M114.135,101.264c0,0,4.462-10.861,5.91-12.767c1.153-1.533,3.739,10.758,3.868,15.339L114.135,101.264z"/>
			
				<path fill="#A1C453" stroke="#333333" stroke-width="3.9881" stroke-linecap="round" stroke-linejoin="round" stroke-miterlimit="10" d="
				M123.41,100.318l-12.067,13.444c0,0-2.674-17.772,1.737-23.862C113.08,89.9,118.521,96.711,123.41,100.318z"/>
			
				<path fill="#A1C453" stroke="#333333" stroke-width="3.9881" stroke-linecap="round" stroke-linejoin="round" stroke-miterlimit="10" d="
				M125.747,121.751c0,0,8.845-20.487,2.136-31.851l-10.895,13.437L125.747,121.751z"/>
		</g>
		<g>
			
				<path fill="#FFFFFF" stroke="#333333" stroke-width="3.9881" stroke-linecap="round" stroke-linejoin="round" stroke-miterlimit="10" d="
				M147.498,219.375c-1.546,0.893-1.577,4.449-1.307,7.109c0.481,4.797,5.248,10.518,10.108,7.712
				c4.884-2.819,2.337-9.822-1.558-12.647C152.573,219.983,149.054,218.476,147.498,219.375z"/>
			
				<path fill="#FFFFFF" stroke="#333333" stroke-width="3.9881" stroke-linecap="round" stroke-linejoin="round" stroke-miterlimit="10" d="
				M147.106,219.111c0.002-1.785-3.063-3.59-5.503-4.687c-4.395-1.981-11.732-0.714-11.732,4.898c0,5.64,7.338,6.936,11.73,4.974
				C144.044,223.203,147.108,220.908,147.106,219.111z"/>
			
				<path fill="#FFFFFF" stroke="#333333" stroke-width="3.9881" stroke-linecap="round" stroke-linejoin="round" stroke-miterlimit="10" d="
				M147.502,218.909c1.547,0.894,4.643-0.858,6.812-2.424c3.914-2.814,6.485-9.804,1.624-12.609
				c-4.884-2.82-9.674,2.888-10.172,7.672C145.492,214.21,145.946,218.012,147.502,218.909z"/>
			
				<path fill="#FFFFFF" stroke="#333333" stroke-width="3.9881" stroke-linecap="round" stroke-linejoin="round" stroke-miterlimit="10" d="
				M147.987,219.256c0,1.785,3.064,3.59,5.505,4.686c4.395,1.98,11.732,0.714,11.732-4.899c0-5.638-7.338-6.935-11.732-4.974
				C151.052,215.165,147.987,217.457,147.987,219.256z"/>
			
				<path fill="#FFFFFF" stroke="#333333" stroke-width="3.9881" stroke-linecap="round" stroke-linejoin="round" stroke-miterlimit="10" d="
				M147.566,219.446c-1.544-0.893-4.641,0.858-6.81,2.423c-3.914,2.815-6.484,9.805-1.624,12.61
				c4.884,2.819,9.674-2.887,10.173-7.673C149.578,224.145,149.124,220.344,147.566,219.446z"/>
			
				<path fill="#FFFFFF" stroke="#333333" stroke-width="3.9881" stroke-linecap="round" stroke-linejoin="round" stroke-miterlimit="10" d="
				M147.654,218.953c1.546-0.892,1.577-4.448,1.307-7.11c-0.481-4.797-5.248-10.517-10.108-7.711
				c-4.884,2.819-2.337,9.822,1.558,12.646C142.579,218.345,146.099,219.853,147.654,218.953z"/>
			
				<circle fill="#F9D53E" stroke="#333333" stroke-width="3.9881" stroke-linecap="round" stroke-linejoin="round" stroke-miterlimit="10" cx="147.987" cy="219.256" r="3.709"/>
		</g>
	</g>
</g>
<g id="calque05">
	<g>
		
			<polygon fill="#CC924C" stroke="#333333" stroke-width="3.9881" stroke-linecap="round" stroke-linejoin="round" stroke-miterlimit="10" points="
			143.586,219.645 127.498,250.563 127.498,239.309 		"/>
		
			<polygon fill="#CC924C" stroke="#333333" stroke-width="3.9881" stroke-linecap="round" stroke-linejoin="round" stroke-miterlimit="10" points="
			145.83,110.654 127.498,132.914 127.498,121.661 		"/>
		
			<polygon fill="#CC924C" stroke="#333333" stroke-width="3.9881" stroke-linecap="round" stroke-linejoin="round" stroke-miterlimit="10" points="
			71.74,180.378 112.416,227.939 112.416,216.686 		"/>
		<g>
			
				<path fill="#A1C453" stroke="#333333" stroke-width="5.9821" stroke-linecap="round" stroke-linejoin="round" stroke-miterlimit="10" d="
				M69.363,247.092c10.727-0.447,15.885-6.688,32.82,8.205c16.934,14.895-0.908,19.861,10.232,29.662
				c-11.141-9.801-14.723,8.331-31.031-6.014C65.074,264.601,71.182,257.656,69.363,247.092z"/>
			<g>
				<line fill="#A1C453" x1="112.416" y1="284.959" x2="78.584" y2="255.148"/>
				<g>
					<polyline fill="none" stroke="#333333" stroke-width="3.9881" stroke-linecap="round" stroke-miterlimit="10" points="
						110.92,283.641 108.981,281.933 86.463,262.091 84.779,260.606 					"/>
					
						<line fill="none" stroke="#333333" stroke-width="3.9881" stroke-linecap="round" stroke-miterlimit="10" x1="80.08" y1="256.467" x2="80.29" y2="256.652"/>
				</g>
			</g>
		</g>
		<g>
			
				<path fill="#A1C453" stroke="#333333" stroke-width="5.9821" stroke-linecap="round" stroke-linejoin="round" stroke-miterlimit="10" d="
				M178.805,174.399c1.088,10.679,7.627,15.456-6.225,33.252c-13.854,17.796-19.881,0.281-28.994,11.993
				c9.113-11.712-9.199-14.197,4.141-31.336C161.068,171.166,168.367,176.845,178.805,174.399z"/>
			<g>
				<line fill="#A1C453" x1="143.117" y1="219.178" x2="170.408" y2="184.113"/>
				<g>
					<polyline fill="none" stroke="#333333" stroke-width="3.9881" stroke-linecap="round" stroke-miterlimit="10" points="
						144.342,217.604 145.929,215.565 163.958,192.4 165.337,190.629 					"/>
					
						<line fill="none" stroke="#333333" stroke-width="3.9881" stroke-linecap="round" stroke-miterlimit="10" x1="169.184" y1="185.687" x2="169.012" y2="185.908"/>
				</g>
			</g>
		</g>
		<g>
			
				<path fill="#A1C453" stroke="#333333" stroke-width="5.9821" stroke-linecap="round" stroke-linejoin="round" stroke-miterlimit="10" d="
				M59.238,116.941c10,6.84,18.879,4.684,24.129,29.585c5.248,24.903-14.24,17.342-10.785,33.729
				c-3.455-16.387-18.938-2.413-23.99-26.396C43.535,129.872,53.744,127.72,59.238,116.941z"/>
			<g>
				<line fill="#A1C453" x1="72.582" y1="180.255" x2="62.238" y2="131.191"/>
				<g>
					<polyline fill="none" stroke="#333333" stroke-width="3.9881" stroke-linecap="round" stroke-miterlimit="10" points="
						72.171,178.304 71.638,175.775 64.404,141.467 63.941,139.271 					"/>
					
						<line fill="none" stroke="#333333" stroke-width="3.9881" stroke-linecap="round" stroke-miterlimit="10" x1="62.649" y1="133.143" x2="62.707" y2="133.417"/>
				</g>
			</g>
		</g>
		<g>
			
				<path fill="#A1C453" stroke="#333333" stroke-width="5.9821" stroke-linecap="round" stroke-linejoin="round" stroke-miterlimit="10" d="
				M18.127,146.674c11.908-2.233,16.66-10.038,37.982,3.858c21.318,13.898,2.191,22.332,16.225,31.475
				c-14.033-9.143-15.1,11.685-35.631-1.699C16.166,166.921,21.863,158.18,18.127,146.674z"/>
			<g>
				<line fill="#A1C453" x1="72.334" y1="182.007" x2="30.326" y2="154.628"/>
				<g>
					<polyline fill="none" stroke="#333333" stroke-width="3.9881" stroke-linecap="round" stroke-miterlimit="10" points="
						70.663,180.918 68.499,179.507 39.124,160.362 37.243,159.137 					"/>
					
						<line fill="none" stroke="#333333" stroke-width="3.9881" stroke-linecap="round" stroke-miterlimit="10" x1="31.997" y1="155.717" x2="32.231" y2="155.87"/>
				</g>
			</g>
		</g>
		<g>
			
				<path fill="#A1C453" stroke="#333333" stroke-width="3.9881" stroke-linecap="round" stroke-linejoin="round" stroke-miterlimit="10" d="
				M94.943,73.676c4.824,0.706,7.652-1.643,13.949,6.432c6.295,8.074-2.084,8.784,2.061,14.097
				c-4.145-5.313-7.271,2.473-13.336-5.304C91.553,81.124,94.863,78.543,94.943,73.676z"/>
			<g>
				<line fill="#A1C453" x1="110.953" y1="94.205" x2="98.549" y2="78.297"/>
				<g>
					<polyline fill="none" stroke="#333333" stroke-width="3.9881" stroke-linecap="round" stroke-miterlimit="10" points="
						109.727,92.633 108.139,90.595 105.007,86.579 103.626,84.809 					"/>
					
						<line fill="none" stroke="#333333" stroke-width="3.9881" stroke-linecap="round" stroke-miterlimit="10" x1="99.775" y1="79.87" x2="99.947" y2="80.091"/>
				</g>
			</g>
		</g>
		<g>
			
				<path fill="#A1C453" stroke="#333333" stroke-width="3.9881" stroke-linecap="round" stroke-linejoin="round" stroke-miterlimit="10" d="
				M170.129,82.305c0.592,6.678,4.635,9.713-4.16,20.709c-8.793,10.997-12.414,0.013-18.199,7.25
				c5.785-7.237-5.627-8.94,2.844-19.528C159.084,80.142,163.592,83.748,170.129,82.305z"/>
			<g>
				<line fill="#A1C453" x1="147.77" y1="110.263" x2="165.096" y2="88.598"/>
				<g>
					<polyline fill="none" stroke="#333333" stroke-width="3.9881" stroke-linecap="round" stroke-miterlimit="10" points="
						149.015,108.706 150.629,106.688 158.537,96.799 159.939,95.046 					"/>
					
						<line fill="none" stroke="#333333" stroke-width="3.9881" stroke-linecap="round" stroke-miterlimit="10" x1="163.851" y1="90.155" x2="163.675" y2="90.374"/>
				</g>
			</g>
		</g>
		<g>
			
				<path fill="#A1C453" stroke="#333333" stroke-width="5.9821" stroke-linecap="round" stroke-linejoin="round" stroke-miterlimit="10" d="
				M188.15,140.554c-9.369,1.682-13.15,7.784-29.814-3.262c-16.666-11.048-1.586-17.557-12.557-24.824
				c10.971,7.267,11.932-9.089,27.98,1.551C189.814,124.659,185.285,131.492,188.15,140.554z"/>
			<g>
				<line fill="#A1C453" x1="145.313" y1="112" x2="178.146" y2="133.764"/>
				<g>
					<polyline fill="none" stroke="#333333" stroke-width="3.9881" stroke-linecap="round" stroke-miterlimit="10" points="
						146.975,113.102 149.128,114.529 169.394,127.962 171.265,129.203 					"/>
					
						<line fill="none" stroke="#333333" stroke-width="3.9881" stroke-linecap="round" stroke-miterlimit="10" x1="176.484" y1="132.663" x2="176.251" y2="132.507"/>
				</g>
			</g>
		</g>
		<path fill="#CC924C" stroke="#333333" stroke-width="10.6342" stroke-linecap="round" stroke-miterlimit="10" d="M129.494,364.999
			l-1.996-291c0-4.165-3.375-7.54-7.541-7.54l0,0c-4.164,0-7.541,3.375-7.541,7.54l-1.994,291"/>
		<g>
			<g>
				<path fill="#D3F46C" d="M163.438,234.813c-2.701,8.923-15.799,15.895-21.047,11.263c-7.709,1.171-13.967-12.127-11.264-21.05
					c2.701-8.923,9.746-16.417,20.979-9.079C164.902,216.002,166.141,225.89,163.438,234.813z"/>
				<g>
					<path fill="none" stroke="#333333" stroke-width="3.9881" stroke-linecap="round" stroke-miterlimit="10" d="M162.712,236.669
						c-0.358,0.784-0.816,1.517-1.294,2.232c-2.359,3.344-5.708,5.98-9.492,7.532c-1.891,0.757-3.938,1.263-5.987,1.074
						c-1.017-0.099-2.024-0.395-2.89-0.945c-0.226-0.124-0.41-0.305-0.617-0.455c-0.233-0.049-0.504,0.028-0.754,0.036
						c-0.512,0.007-1.024-0.027-1.525-0.132c-2.023-0.424-3.733-1.746-5.055-3.286c-1.338-1.554-2.334-3.376-3.086-5.275
						c-1.458-3.8-2.038-8.063-0.987-12.042c0.571-1.964,1.344-3.875,2.37-5.646c1.026-1.764,2.321-3.4,3.956-4.64
						c1.624-1.244,3.614-2.017,5.663-2.116c2.056-0.139,4.09,0.429,5.949,1.25c0.955,0.378,1.827,0.916,2.709,1.438
						c0.41,0.362,0.962,0.253,1.465,0.31c0.509,0.043,1.025,0.022,1.528,0.116c2.029,0.239,4.037,0.881,5.721,2.045
						c1.688,1.16,2.922,2.92,3.547,4.865c0.199,0.46,0.27,1.019,0.38,1.452c0.054,0.24,0.115,0.479,0.131,0.726
						c0.046,0.49,0.125,0.978,0.144,1.47"/>
					
						<line fill="none" stroke="#333333" stroke-width="3.9881" stroke-linecap="round" stroke-miterlimit="10" x1="163.948" y1="232.887" x2="164.006" y2="232.612"/>
				</g>
			</g>
			<path opacity="0.5" fill="#FFFFFF" d="M141.496,223.828c-1.68,1.316-3.914,1.265-4.996-0.117
				c-1.082-1.384-0.598-3.572,1.082-4.889c1.68-1.317,3.916-1.264,4.996,0.119C143.66,220.323,143.174,222.512,141.496,223.828z"/>
		</g>
		<g>
			
				<path fill="#A1C453" stroke="#333333" stroke-width="3.9881" stroke-linecap="round" stroke-linejoin="round" stroke-miterlimit="10" d="
				M114.137,65.855c0,0,4.461-10.861,5.91-12.767c1.152-1.535,3.738,10.758,3.867,15.339L114.137,65.855z"/>
			
				<path fill="#A1C453" stroke="#333333" stroke-width="3.9881" stroke-linecap="round" stroke-linejoin="round" stroke-miterlimit="10" d="
				M123.412,64.91l-12.068,13.444c0,0-2.674-17.771,1.736-23.862C113.08,54.491,118.521,61.302,123.412,64.91z"/>
			
				<path fill="#A1C453" stroke="#333333" stroke-width="3.9881" stroke-linecap="round" stroke-linejoin="round" stroke-miterlimit="10" d="
				M125.748,86.343c0,0,8.844-20.488,2.137-31.852l-10.896,13.437L125.748,86.343z"/>
		</g>
		<g>
			
				<path fill="#FFFFFF" stroke="#333333" stroke-width="3.9881" stroke-linecap="round" stroke-linejoin="round" stroke-miterlimit="10" d="
				M102.6,96.411c-1.545,0.892-1.576,4.448-1.307,7.109c0.482,4.796,5.248,10.518,10.109,7.711
				c4.885-2.819,2.336-9.822-1.559-12.648C107.676,97.02,104.156,95.512,102.6,96.411z"/>
			
				<path fill="#FFFFFF" stroke="#333333" stroke-width="3.9881" stroke-linecap="round" stroke-linejoin="round" stroke-miterlimit="10" d="
				M102.209,96.147c0.002-1.785-3.063-3.59-5.502-4.687c-4.396-1.982-11.734-0.714-11.734,4.898c0,5.64,7.338,6.936,11.732,4.974
				C99.146,100.238,102.211,97.944,102.209,96.147z"/>
			
				<path fill="#FFFFFF" stroke="#333333" stroke-width="3.9881" stroke-linecap="round" stroke-linejoin="round" stroke-miterlimit="10" d="
				M102.604,95.944c1.547,0.894,4.643-0.857,6.813-2.423c3.914-2.815,6.484-9.804,1.625-12.61c-4.885-2.82-9.676,2.888-10.174,7.672
				C100.596,91.246,101.049,95.047,102.604,95.944z"/>
			
				<path fill="#FFFFFF" stroke="#333333" stroke-width="3.9881" stroke-linecap="round" stroke-linejoin="round" stroke-miterlimit="10" d="
				M103.09,96.291c0,1.786,3.064,3.59,5.504,4.687c4.396,1.98,11.732,0.714,11.732-4.899c0-5.638-7.336-6.936-11.732-4.974
				C106.154,92.201,103.09,94.493,103.09,96.291z"/>
			
				<path fill="#FFFFFF" stroke="#333333" stroke-width="3.9881" stroke-linecap="round" stroke-linejoin="round" stroke-miterlimit="10" d="
				M102.668,96.482c-1.543-0.893-4.641,0.858-6.809,2.423c-3.914,2.815-6.484,9.804-1.625,12.61
				c4.885,2.819,9.674-2.887,10.174-7.673C104.68,101.181,104.227,97.38,102.668,96.482z"/>
			
				<path fill="#FFFFFF" stroke="#333333" stroke-width="3.9881" stroke-linecap="round" stroke-linejoin="round" stroke-miterlimit="10" d="
				M102.756,95.988c1.547-0.891,1.578-4.447,1.307-7.109c-0.48-4.797-5.248-10.518-10.107-7.711
				c-4.885,2.82-2.338,9.822,1.557,12.646C97.682,95.381,101.201,96.888,102.756,95.988z"/>
			
				<circle fill="#F9D53E" stroke="#333333" stroke-width="3.9881" stroke-linecap="round" stroke-linejoin="round" stroke-miterlimit="10" cx="103.089" cy="96.291" r="3.71"/>
		</g>
	</g>
</g>
<g id="calque06">
	<g>
		
			<polygon fill="#CC924C" stroke="#333333" stroke-width="3.9881" stroke-linecap="round" stroke-linejoin="round" stroke-miterlimit="10" points="
			143.584,219.645 127.498,250.563 127.498,239.309 		"/>
		
			<polygon fill="#CC924C" stroke="#333333" stroke-width="3.9881" stroke-linecap="round" stroke-linejoin="round" stroke-miterlimit="10" points="
			145.829,110.654 127.498,132.914 127.498,121.661 		"/>
		
			<polygon fill="#CC924C" stroke="#333333" stroke-width="3.9881" stroke-linecap="round" stroke-linejoin="round" stroke-miterlimit="10" points="
			71.738,180.378 112.416,227.939 112.416,216.686 		"/>
		
			<polygon fill="#CC924C" stroke="#333333" stroke-width="3.9881" stroke-linecap="round" stroke-linejoin="round" stroke-miterlimit="10" points="
			92.885,75.483 112.416,100.653 112.416,93.39 		"/>
		<g>
			
				<path fill="#A1C453" stroke="#333333" stroke-width="5.9821" stroke-linecap="round" stroke-linejoin="round" stroke-miterlimit="10" d="
				M69.363,247.092c10.726-0.447,15.884-6.688,32.819,8.205c16.934,14.895-0.909,19.861,10.233,29.662
				c-11.143-9.801-14.724,8.331-31.032-6.014C65.073,264.601,71.18,257.656,69.363,247.092z"/>
			<g>
				<line fill="#A1C453" x1="112.416" y1="284.959" x2="78.583" y2="255.148"/>
				<g>
					<polyline fill="none" stroke="#333333" stroke-width="3.9881" stroke-linecap="round" stroke-miterlimit="10" points="
						110.92,283.641 108.981,281.933 86.462,262.091 84.778,260.606 					"/>
					
						<line fill="none" stroke="#333333" stroke-width="3.9881" stroke-linecap="round" stroke-miterlimit="10" x1="80.079" y1="256.467" x2="80.289" y2="256.652"/>
				</g>
			</g>
		</g>
		<g>
			
				<path fill="#A1C453" stroke="#333333" stroke-width="5.9821" stroke-linecap="round" stroke-linejoin="round" stroke-miterlimit="10" d="
				M178.803,174.399c1.089,10.679,7.628,15.456-6.224,33.252c-13.853,17.796-19.882,0.281-28.995,11.993
				c9.113-11.712-9.199-14.197,4.143-31.336C161.067,171.166,168.365,176.845,178.803,174.399z"/>
			<g>
				<line fill="#A1C453" x1="143.117" y1="219.178" x2="170.406" y2="184.113"/>
				<g>
					<polyline fill="none" stroke="#333333" stroke-width="3.9881" stroke-linecap="round" stroke-miterlimit="10" points="
						144.342,217.604 145.929,215.565 163.956,192.4 165.335,190.629 					"/>
					
						<line fill="none" stroke="#333333" stroke-width="3.9881" stroke-linecap="round" stroke-miterlimit="10" x1="169.182" y1="185.687" x2="169.01" y2="185.908"/>
				</g>
			</g>
		</g>
		<g>
			
				<path fill="#A1C453" stroke="#333333" stroke-width="5.9821" stroke-linecap="round" stroke-linejoin="round" stroke-miterlimit="10" d="
				M59.237,116.941c9.999,6.84,18.879,4.684,24.129,29.585c5.248,24.903-14.241,17.342-10.784,33.729
				c-3.457-16.387-18.938-2.413-23.991-26.396C43.534,129.872,53.744,127.72,59.237,116.941z"/>
			<g>
				<line fill="#A1C453" x1="72.582" y1="180.255" x2="62.237" y2="131.191"/>
				<g>
					<polyline fill="none" stroke="#333333" stroke-width="3.9881" stroke-linecap="round" stroke-miterlimit="10" points="
						72.171,178.304 71.638,175.776 64.404,141.467 63.94,139.271 					"/>
					
						<line fill="none" stroke="#333333" stroke-width="3.9881" stroke-linecap="round" stroke-miterlimit="10" x1="62.648" y1="133.143" x2="62.707" y2="133.417"/>
				</g>
			</g>
		</g>
		<g>
			
				<path fill="#A1C453" stroke="#333333" stroke-width="5.9821" stroke-linecap="round" stroke-linejoin="round" stroke-miterlimit="10" d="
				M18.126,146.674c11.907-2.233,16.661-10.038,37.981,3.858c21.319,13.898,2.193,22.332,16.226,31.475
				c-14.032-9.143-15.1,11.685-35.63-1.699C16.165,166.921,21.862,158.18,18.126,146.674z"/>
			<g>
				<line fill="#A1C453" x1="72.333" y1="182.007" x2="30.325" y2="154.628"/>
				<g>
					<polyline fill="none" stroke="#333333" stroke-width="3.9881" stroke-linecap="round" stroke-miterlimit="10" points="
						70.662,180.918 68.498,179.507 39.123,160.362 37.242,159.137 					"/>
					
						<line fill="none" stroke="#333333" stroke-width="3.9881" stroke-linecap="round" stroke-miterlimit="10" x1="31.996" y1="155.717" x2="32.23" y2="155.87"/>
				</g>
			</g>
		</g>
		<g>
			
				<path fill="#A1C453" stroke="#333333" stroke-width="3.9881" stroke-linecap="round" stroke-linejoin="round" stroke-miterlimit="10" d="
				M76.61,57.172c5.293,0.775,8.401-1.803,15.313,7.06c6.91,8.863-2.288,9.642,2.261,15.475c-4.549-5.833-7.98,2.714-14.639-5.822
				C72.89,65.348,76.523,62.514,76.61,57.172z"/>
			<g>
				<line fill="#A1C453" x1="94.184" y1="79.707" x2="80.567" y2="62.244"/>
				<g>
					<polyline fill="none" stroke="#333333" stroke-width="3.9881" stroke-linecap="round" stroke-miterlimit="10" points="
						92.957,78.134 91.369,76.097 87.024,70.525 85.645,68.755 					"/>
					
						<line fill="none" stroke="#333333" stroke-width="3.9881" stroke-linecap="round" stroke-miterlimit="10" x1="81.793" y1="63.816" x2="81.966" y2="64.037"/>
				</g>
			</g>
		</g>
		<g>
			
				<path fill="#A1C453" stroke="#333333" stroke-width="5.9821" stroke-linecap="round" stroke-linejoin="round" stroke-miterlimit="10" d="
				M44.085,71.66c7.707-5.74,8.377-12.957,28.411-10.479c20.036,2.479,9.341,15.152,22.526,16.78
				c-13.186-1.628-6.69,13.585-25.984,11.198C49.74,86.772,50.757,78.557,44.085,71.66z"/>
			<g>
				<line fill="#A1C453" x1="95.022" y1="77.961" x2="55.551" y2="73.08"/>
				<g>
					<polyline fill="none" stroke="#333333" stroke-width="3.9881" stroke-linecap="round" stroke-miterlimit="10" points="
						93.044,77.717 90.479,77.399 65.973,74.369 63.745,74.093 					"/>
					
						<line fill="none" stroke="#333333" stroke-width="3.9881" stroke-linecap="round" stroke-miterlimit="10" x1="57.529" y1="73.324" x2="57.808" y2="73.359"/>
				</g>
			</g>
		</g>
		<g>
			
				<path fill="#A1C453" stroke="#333333" stroke-width="3.9881" stroke-linecap="round" stroke-linejoin="round" stroke-miterlimit="10" d="
				M183.465,107.814c-4.436,5.298-3.702,10.458-18.125,12.063c-14.426,1.604-9.058-9.039-18.551-7.982
				c9.493-1.057,2.417-10.616,16.308-12.161C176.992,98.188,177.65,104.102,183.465,107.814z"/>
			<g>
				<line fill="#A1C453" x1="146.524" y1="111.629" x2="174.943" y2="108.466"/>
				<g>
					<polyline fill="none" stroke="#333333" stroke-width="3.9881" stroke-linecap="round" stroke-miterlimit="10" points="
						148.506,111.408 151.074,111.123 164.506,109.627 166.737,109.379 					"/>
					
						<line fill="none" stroke="#333333" stroke-width="3.9881" stroke-linecap="round" stroke-miterlimit="10" x1="172.962" y1="108.687" x2="172.683" y2="108.717"/>
				</g>
			</g>
		</g>
		<g>
			
				<path fill="#A1C453" stroke="#333333" stroke-width="5.9821" stroke-linecap="round" stroke-linejoin="round" stroke-miterlimit="10" d="
				M186.242,60.121c1.07,12.067,8.379,17.555-7.517,37.43c-15.895,19.876-22.438,0.021-32.896,13.103
				c10.459-13.082-10.168-16.158,5.14-35.297C166.28,56.211,174.43,62.729,186.242,60.121z"/>
			<g>
				<line fill="#A1C453" x1="145.829" y1="110.654" x2="177.146" y2="71.494"/>
				<g>
					<polyline fill="none" stroke="#333333" stroke-width="3.9881" stroke-linecap="round" stroke-miterlimit="10" points="
						147.074,109.097 148.688,107.079 170.587,79.696 171.989,77.942 					"/>
					
						<line fill="none" stroke="#333333" stroke-width="3.9881" stroke-linecap="round" stroke-miterlimit="10" x1="175.9" y1="73.051" x2="175.725" y2="73.271"/>
				</g>
			</g>
		</g>
		<g>
			
				<path fill="#A1C453" stroke="#333333" stroke-width="5.9821" stroke-linecap="round" stroke-linejoin="round" stroke-miterlimit="10" d="
				M188.15,140.554c-9.371,1.682-13.152,7.784-29.815-3.262c-16.667-11.048-1.587-17.557-12.556-24.824
				c10.969,7.267,11.931-9.089,27.98,1.551C189.813,124.659,185.284,131.492,188.15,140.554z"/>
			<g>
				<line fill="#A1C453" x1="145.312" y1="112" x2="178.145" y2="133.764"/>
				<g>
					<polyline fill="none" stroke="#333333" stroke-width="3.9881" stroke-linecap="round" stroke-miterlimit="10" points="
						146.974,113.102 149.127,114.529 169.392,127.962 171.263,129.202 					"/>
					
						<line fill="none" stroke="#333333" stroke-width="3.9881" stroke-linecap="round" stroke-miterlimit="10" x1="176.482" y1="132.663" x2="176.249" y2="132.507"/>
				</g>
			</g>
		</g>
		<path fill="#CC924C" stroke="#333333" stroke-width="10.6342" stroke-linecap="round" stroke-miterlimit="10" d="M129.493,364.999
			l-1.995-328.958c0-4.165-3.377-7.541-7.542-7.541l0,0c-4.164,0-7.54,3.376-7.54,7.541l-1.994,328.958"/>
		<g>
			<g>
				<path fill="#D3F46C" d="M111.284,91.231c1.069,8.72-7.56,19.717-13.849,17.726c-6.196,3.943-16.657-5.13-17.727-13.85
					c-1.069-8.718,2.146-17.861,14.62-15.817C105.38,74.463,110.214,82.512,111.284,91.231z"/>
				<g>
					<path fill="none" stroke="#333333" stroke-width="3.9881" stroke-linecap="round" stroke-miterlimit="10" d="M111.36,93.222
						c-0.022,0.861-0.141,1.718-0.314,2.561c-0.798,3.734-2.698,7.223-5.361,9.956c-1.34,1.346-2.908,2.535-4.734,3.126
						c-0.907,0.29-1.881,0.406-2.825,0.253c-0.235-0.033-0.465-0.115-0.696-0.157c-0.209,0.115-0.414,0.238-0.627,0.346
						c-0.435,0.197-0.886,0.358-1.354,0.454c-1.887,0.392-3.843-0.091-5.554-0.903c-1.729-0.818-3.267-1.995-4.633-3.324
						c-2.687-2.685-4.806-6.085-5.465-9.867c-0.27-1.889-0.349-3.81-0.169-5.711c0.182-1.896,0.634-3.791,1.521-5.488
						c0.873-1.696,2.22-3.167,3.903-4.08c1.681-0.928,3.605-1.293,5.504-1.36l1.433,0.007c0.476,0.03,0.949,0.102,1.424,0.15
						c0.974,0.31,1.832-0.307,2.732-0.583c1.817-0.561,3.737-0.909,5.639-0.654c1.898,0.237,3.685,1.156,5.029,2.51
						c0.312,0.345,0.702,0.691,0.931,1.049l0.438,0.595c0.304,0.389,0.51,0.842,0.77,1.26"/>
					
						<line fill="none" stroke="#333333" stroke-width="3.9881" stroke-linecap="round" stroke-miterlimit="10" x1="110.966" y1="89.264" x2="110.908" y2="88.989"/>
				</g>
			</g>
			<path opacity="0.5" fill="#FFFFFF" d="M88.189,90.123c-0.946,1.776-2.892,2.581-4.351,1.803c-1.456-0.78-1.873-2.851-0.929-4.624
				c0.944-1.774,2.892-2.581,4.349-1.802C88.719,86.279,89.132,88.351,88.189,90.123z"/>
		</g>
		<g>
			<g>
				<path fill="#D3F46C" d="M168.208,242.567c-4.053,13.385-23.697,23.843-31.573,16.896c-11.56,1.756-20.947-18.19-16.894-31.574
					c4.051-13.384,14.619-24.625,31.467-13.619C170.404,214.352,172.262,229.184,168.208,242.567z"/>
				<g>
					<path fill="none" stroke="#333333" stroke-width="5.9821" stroke-linecap="round" stroke-miterlimit="10" d="M167.119,245.35
						c-0.537,1.177-1.225,2.276-1.94,3.35c-1.757,2.52-3.91,4.757-6.323,6.654c-2.409,1.902-5.07,3.497-7.919,4.646
						c-2.837,1.135-5.91,1.894-8.983,1.608c-1.525-0.147-3.038-0.592-4.336-1.419c-0.336-0.187-0.615-0.457-0.926-0.683
						c-0.353-0.065-0.756,0.044-1.132,0.058c-0.383-0.011-0.768-0.005-1.15-0.031c-0.379-0.059-0.765-0.08-1.139-0.169
						c-3.034-0.638-5.598-2.624-7.58-4.936c-2.005-2.333-3.499-5.066-4.626-7.917c-1.122-2.859-1.846-5.874-2.144-8.931
						c-0.278-3.052-0.146-6.172,0.672-9.138c0.833-2.953,1.997-5.823,3.544-8.478c1.546-2.645,3.494-5.098,5.948-6.954
						c2.438-1.865,5.426-3.026,8.5-3.167c3.081-0.178,6.133,0.634,8.938,1.854c1.392,0.645,2.764,1.344,4.053,2.18
						c0.601,0.577,1.44,0.361,2.191,0.437c0.766,0.054,1.533,0.093,2.294,0.202c3.036,0.377,6.066,1.285,8.597,3.047
						c2.54,1.747,4.38,4.402,5.313,7.323c0.12,0.365,0.238,0.73,0.323,1.105c0.094,0.35,0.199,0.79,0.245,1.075
						c0.069,0.363,0.146,0.725,0.187,1.092c0.11,0.73,0.172,1.468,0.211,2.205"/>
					
						<line fill="none" stroke="#333333" stroke-width="5.9821" stroke-linecap="round" stroke-miterlimit="10" x1="168.979" y1="239.678" x2="169.072" y2="239.268"/>
				</g>
			</g>
			<path opacity="0.5" fill="#FFFFFF" d="M135.295,226.092c-2.519,1.975-5.871,1.896-7.493-0.177
				c-1.622-2.075-0.895-5.358,1.624-7.332c2.518-1.977,5.873-1.896,7.493,0.177C138.539,220.834,137.813,224.116,135.295,226.092z"
				/>
		</g>
		<g>
			
				<path fill="#A1C453" stroke="#333333" stroke-width="3.9881" stroke-linecap="round" stroke-linejoin="round" stroke-miterlimit="10" d="
				M114.135,27.897c0,0,4.462-10.861,5.91-12.767c1.153-1.535,3.739,10.758,3.868,15.339L114.135,27.897z"/>
			
				<path fill="#A1C453" stroke="#333333" stroke-width="3.9881" stroke-linecap="round" stroke-linejoin="round" stroke-miterlimit="10" d="
				M123.41,26.952l-12.067,13.444c0,0-2.674-17.772,1.737-23.862C113.08,16.534,118.521,23.345,123.41,26.952z"/>
			
				<path fill="#A1C453" stroke="#333333" stroke-width="3.9881" stroke-linecap="round" stroke-linejoin="round" stroke-miterlimit="10" d="
				M125.747,48.385c0,0,8.845-20.487,2.136-31.851L116.988,29.97L125.747,48.385z"/>
		</g>
	</g>
</g>
<g id="calque07">
	<g>
		
			<polygon fill="#CC924C" stroke="#333333" stroke-width="3.9881" stroke-linecap="round" stroke-linejoin="round" stroke-miterlimit="10" points="
			143.586,219.645 127.498,250.563 127.498,239.309 		"/>
		
			<polygon fill="#CC924C" stroke="#333333" stroke-width="3.9881" stroke-linecap="round" stroke-linejoin="round" stroke-miterlimit="10" points="
			145.83,110.654 127.498,132.914 127.498,121.661 		"/>
		
			<polygon fill="#CC924C" stroke="#333333" stroke-width="3.9881" stroke-linecap="round" stroke-linejoin="round" stroke-miterlimit="10" points="
			71.74,180.378 112.416,227.939 112.416,216.686 		"/>
		
			<polygon fill="#CC924C" stroke="#333333" stroke-width="3.9881" stroke-linecap="round" stroke-linejoin="round" stroke-miterlimit="10" points="
			92.885,75.483 112.416,100.653 112.416,93.39 		"/>
		<g>
			
				<path fill="#A1C453" stroke="#333333" stroke-width="5.9821" stroke-linecap="round" stroke-linejoin="round" stroke-miterlimit="10" d="
				M69.363,247.092c10.727-0.447,15.885-6.688,32.82,8.205c16.934,14.895-0.91,19.861,10.232,29.662
				c-11.143-9.801-14.723,8.331-31.031-6.014C65.074,264.601,71.18,257.656,69.363,247.092z"/>
			<g>
				<line fill="#A1C453" x1="112.416" y1="284.959" x2="78.584" y2="255.148"/>
				<g>
					<polyline fill="none" stroke="#333333" stroke-width="3.9881" stroke-linecap="round" stroke-miterlimit="10" points="
						110.92,283.641 108.981,281.933 86.463,262.091 84.779,260.606 					"/>
					
						<line fill="none" stroke="#333333" stroke-width="3.9881" stroke-linecap="round" stroke-miterlimit="10" x1="80.08" y1="256.467" x2="80.29" y2="256.652"/>
				</g>
			</g>
		</g>
		<g>
			
				<path fill="#A1C453" stroke="#333333" stroke-width="5.9821" stroke-linecap="round" stroke-linejoin="round" stroke-miterlimit="10" d="
				M178.805,174.399c1.088,10.679,7.627,15.456-6.225,33.252c-13.854,17.796-19.881,0.281-28.994,11.993
				c9.113-11.712-9.199-14.197,4.141-31.336C161.068,171.166,168.367,176.845,178.805,174.399z"/>
			<g>
				<line fill="#A1C453" x1="143.117" y1="219.178" x2="170.406" y2="184.113"/>
				<g>
					<polyline fill="none" stroke="#333333" stroke-width="3.9881" stroke-linecap="round" stroke-miterlimit="10" points="
						144.342,217.604 145.929,215.565 163.956,192.4 165.335,190.629 					"/>
					
						<line fill="none" stroke="#333333" stroke-width="3.9881" stroke-linecap="round" stroke-miterlimit="10" x1="169.182" y1="185.687" x2="169.01" y2="185.908"/>
				</g>
			</g>
		</g>
		<g>
			
				<path fill="#A1C453" stroke="#333333" stroke-width="5.9821" stroke-linecap="round" stroke-linejoin="round" stroke-miterlimit="10" d="
				M59.238,116.941c9.998,6.84,18.879,4.684,24.129,29.585c5.248,24.903-14.24,17.342-10.785,33.729
				c-3.455-16.387-18.938-2.413-23.99-26.396C43.535,129.872,53.744,127.72,59.238,116.941z"/>
			<g>
				<line fill="#A1C453" x1="72.582" y1="180.255" x2="62.238" y2="131.191"/>
				<g>
					<polyline fill="none" stroke="#333333" stroke-width="3.9881" stroke-linecap="round" stroke-miterlimit="10" points="
						72.171,178.304 71.638,175.775 64.404,141.467 63.941,139.271 					"/>
					
						<line fill="none" stroke="#333333" stroke-width="3.9881" stroke-linecap="round" stroke-miterlimit="10" x1="62.649" y1="133.143" x2="62.707" y2="133.417"/>
				</g>
			</g>
		</g>
		<g>
			
				<path fill="#A1C453" stroke="#333333" stroke-width="5.9821" stroke-linecap="round" stroke-linejoin="round" stroke-miterlimit="10" d="
				M18.127,146.674c11.906-2.233,16.66-10.038,37.982,3.858c21.318,13.898,2.191,22.332,16.225,31.475
				c-14.033-9.143-15.1,11.685-35.631-1.699C16.166,166.921,21.863,158.18,18.127,146.674z"/>
			<g>
				<line fill="#A1C453" x1="72.334" y1="182.007" x2="30.326" y2="154.628"/>
				<g>
					<polyline fill="none" stroke="#333333" stroke-width="3.9881" stroke-linecap="round" stroke-miterlimit="10" points="
						70.663,180.918 68.499,179.507 39.124,160.362 37.243,159.137 					"/>
					
						<line fill="none" stroke="#333333" stroke-width="3.9881" stroke-linecap="round" stroke-miterlimit="10" x1="31.997" y1="155.717" x2="32.231" y2="155.87"/>
				</g>
			</g>
		</g>
		<g>
			
				<path fill="#A1C453" stroke="#333333" stroke-width="5.9821" stroke-linecap="round" stroke-linejoin="round" stroke-miterlimit="10" d="
				M63.029,36.152c9.506,1.393,15.088-3.237,27.5,12.681c12.412,15.92-4.109,17.319,4.063,27.794
				C86.42,66.152,80.256,81.501,68.299,66.17C56.342,50.836,62.869,45.746,63.029,36.152z"/>
			<g>
				<line fill="#A1C453" x1="94.592" y1="76.627" x2="70.133" y2="45.262"/>
				<g>
					<polyline fill="none" stroke="#333333" stroke-width="3.9881" stroke-linecap="round" stroke-miterlimit="10" points="
						93.365,75.055 91.776,73.018 76.591,53.543 75.21,51.773 					"/>
					
						<line fill="none" stroke="#333333" stroke-width="3.9881" stroke-linecap="round" stroke-miterlimit="10" x1="71.359" y1="46.834" x2="71.531" y2="47.056"/>
				</g>
			</g>
		</g>
		<g>
			
				<path fill="#A1C453" stroke="#333333" stroke-width="5.9821" stroke-linecap="round" stroke-linejoin="round" stroke-miterlimit="10" d="
				M44.086,71.66c7.707-5.74,8.377-12.957,28.41-10.479c20.037,2.479,9.342,15.152,22.527,16.78
				c-13.186-1.628-6.691,13.585-25.984,11.198C49.74,86.772,50.758,78.557,44.086,71.66z"/>
			<g>
				<line fill="#A1C453" x1="95.023" y1="77.961" x2="55.551" y2="73.08"/>
				<g>
					<polyline fill="none" stroke="#333333" stroke-width="3.9881" stroke-linecap="round" stroke-miterlimit="10" points="
						93.045,77.717 90.48,77.399 65.973,74.369 63.745,74.093 					"/>
					
						<line fill="none" stroke="#333333" stroke-width="3.9881" stroke-linecap="round" stroke-miterlimit="10" x1="57.529" y1="73.324" x2="57.808" y2="73.359"/>
				</g>
			</g>
		</g>
		<g>
			
				<path fill="#A1C453" stroke="#333333" stroke-width="5.9821" stroke-linecap="round" stroke-linejoin="round" stroke-miterlimit="10" d="
				M211.857,103.917c-7.775,9.29-6.488,18.338-31.779,21.152c-25.297,2.814-15.883-15.852-32.529-13.996
				c16.646-1.855,4.236-18.616,28.596-21.326C200.508,87.037,201.662,97.406,211.857,103.917z"/>
			<g>
				<line fill="#A1C453" x1="147.082" y1="110.606" x2="196.918" y2="105.058"/>
				<g>
					<polyline fill="none" stroke="#333333" stroke-width="3.9881" stroke-linecap="round" stroke-miterlimit="10" points="
						149.063,110.385 151.632,110.1 186.48,106.22 188.712,105.972 					"/>
					
						<line fill="none" stroke="#333333" stroke-width="3.9881" stroke-linecap="round" stroke-miterlimit="10" x1="194.937" y1="105.279" x2="194.657" y2="105.31"/>
				</g>
			</g>
		</g>
		<g>
			
				<path fill="#A1C453" stroke="#333333" stroke-width="5.9821" stroke-linecap="round" stroke-linejoin="round" stroke-miterlimit="10" d="
				M186.242,60.121c1.072,12.067,8.379,17.555-7.516,37.43c-15.895,19.876-22.438,0.021-32.896,13.103
				c10.459-13.082-10.168-16.158,5.139-35.297C166.281,56.211,174.43,62.729,186.242,60.121z"/>
			<g>
				<line fill="#A1C453" x1="145.83" y1="110.654" x2="177.146" y2="71.494"/>
				<g>
					<polyline fill="none" stroke="#333333" stroke-width="3.9881" stroke-linecap="round" stroke-miterlimit="10" points="
						147.075,109.097 148.689,107.079 170.588,79.696 171.99,77.942 					"/>
					
						<line fill="none" stroke="#333333" stroke-width="3.9881" stroke-linecap="round" stroke-miterlimit="10" x1="175.901" y1="73.051" x2="175.726" y2="73.271"/>
				</g>
			</g>
		</g>
		<g>
			
				<path fill="#A1C453" stroke="#333333" stroke-width="5.9821" stroke-linecap="round" stroke-linejoin="round" stroke-miterlimit="10" d="
				M188.15,140.554c-9.369,1.682-13.152,7.784-29.814-3.262c-16.668-11.048-1.588-17.557-12.557-24.824
				c10.969,7.267,11.932-9.089,27.98,1.551C189.814,124.659,185.285,131.492,188.15,140.554z"/>
			<g>
				<line fill="#A1C453" x1="145.313" y1="112" x2="178.146" y2="133.764"/>
				<g>
					<polyline fill="none" stroke="#333333" stroke-width="3.9881" stroke-linecap="round" stroke-miterlimit="10" points="
						146.975,113.102 149.128,114.529 169.394,127.962 171.265,129.203 					"/>
					
						<line fill="none" stroke="#333333" stroke-width="3.9881" stroke-linecap="round" stroke-miterlimit="10" x1="176.484" y1="132.663" x2="176.251" y2="132.507"/>
				</g>
			</g>
		</g>
		<path fill="#CC924C" stroke="#333333" stroke-width="10.6342" stroke-linecap="round" stroke-miterlimit="10" d="M129.494,364.999
			l-1.996-328.958c0-4.165-3.377-7.541-7.541-7.541l0,0c-4.164,0-7.541,3.376-7.541,7.541l-1.994,328.958"/>
		<g>
			<g>
				<path fill="#D3F46C" d="M120.031,99.724c1.703,13.882-12.033,31.389-22.049,28.219c-9.861,6.279-26.514-8.166-28.217-22.047
					c-1.703-13.88,3.414-28.434,23.275-25.18C110.633,73.03,118.326,85.844,120.031,99.724z"/>
				<g>
					<path fill="none" stroke="#333333" stroke-width="5.9821" stroke-linecap="round" stroke-miterlimit="10" d="M120.16,102.709
						c-0.016,1.293-0.2,2.577-0.421,3.848c-0.588,3.015-1.653,5.931-3.094,8.642c-1.434,2.714-3.222,5.249-5.363,7.452
						c-2.136,2.185-4.64,4.122-7.566,5.104c-1.455,0.481-3.018,0.687-4.539,0.456c-0.383-0.035-0.748-0.17-1.123-0.25
						c-0.349,0.08-0.674,0.345-1.012,0.509c-0.354,0.145-0.704,0.306-1.064,0.437c-0.371,0.1-0.732,0.236-1.109,0.306
						c-3.034,0.644-6.182-0.135-8.93-1.448c-2.776-1.323-5.249-3.218-7.433-5.37c-2.183-2.161-4.063-4.626-5.571-7.301
						c-1.489-2.679-2.63-5.586-3.08-8.629c-0.432-3.038-0.527-6.134-0.186-9.187c0.345-3.044,1.135-6.075,2.629-8.766
						c1.475-2.691,3.738-4.962,6.493-6.333c2.746-1.409,5.866-1.9,8.925-1.919c1.534,0.027,3.071,0.112,4.589,0.355
						c0.782,0.285,1.463-0.251,2.181-0.487c0.721-0.26,1.44-0.535,2.179-0.742c2.93-0.883,6.068-1.278,9.096-0.689
						c3.029,0.57,5.786,2.255,7.821,4.549c0.257,0.285,0.513,0.571,0.742,0.879c0.228,0.283,0.502,0.643,0.659,0.885
						c0.21,0.304,0.426,0.604,0.612,0.923c0.396,0.624,0.75,1.273,1.084,1.931"/>
					
						<line fill="none" stroke="#333333" stroke-width="5.9821" stroke-linecap="round" stroke-miterlimit="10" x1="119.568" y1="96.769" x2="119.487" y2="96.356"/>
				</g>
			</g>
			<path opacity="0.5" fill="#FFFFFF" d="M83.268,97.961c-1.508,2.826-4.605,4.109-6.926,2.868
				c-2.322-1.241-2.984-4.537-1.479-7.361c1.5-2.824,4.602-4.108,6.922-2.866C84.109,91.842,84.768,95.139,83.268,97.961z"/>
		</g>
		<g>
			<g>
				<path fill="#EF4529" d="M168.209,242.567c-4.053,13.385-23.697,23.843-31.574,16.896c-11.559,1.756-20.947-18.19-16.893-31.574
					c4.051-13.384,14.619-24.625,31.467-13.619C170.404,214.352,172.264,229.184,168.209,242.567z"/>
				<g>
					<path fill="none" stroke="#333333" stroke-width="5.9821" stroke-linecap="round" stroke-miterlimit="10" d="M167.12,245.35
						c-0.537,1.177-1.225,2.276-1.94,3.35c-1.757,2.52-3.91,4.757-6.324,6.654c-2.408,1.902-5.069,3.497-7.919,4.646
						c-2.836,1.135-5.909,1.894-8.983,1.608c-1.524-0.147-3.037-0.592-4.335-1.418c-0.337-0.187-0.615-0.458-0.926-0.683
						c-0.353-0.067-0.756,0.044-1.132,0.057c-0.383-0.011-0.769-0.005-1.15-0.031c-0.379-0.059-0.765-0.08-1.139-0.169
						c-3.034-0.638-5.599-2.623-7.58-4.936c-2.005-2.333-3.5-5.066-4.627-7.917c-1.122-2.858-1.845-5.874-2.143-8.93
						c-0.278-3.053-0.146-6.173,0.672-9.139c0.833-2.953,1.996-5.823,3.544-8.477c1.546-2.646,3.494-5.098,5.948-6.955
						c2.438-1.865,5.426-3.026,8.5-3.167c3.081-0.178,6.133,0.634,8.938,1.854c1.392,0.645,2.764,1.344,4.053,2.18
						c0.601,0.577,1.44,0.361,2.191,0.437c0.765,0.054,1.533,0.093,2.294,0.202c3.035,0.377,6.066,1.285,8.597,3.047
						c2.54,1.747,4.38,4.402,5.313,7.323c0.12,0.365,0.238,0.73,0.323,1.105c0.094,0.351,0.199,0.79,0.246,1.075
						c0.069,0.363,0.145,0.725,0.187,1.092c0.109,0.73,0.171,1.468,0.211,2.205"/>
					
						<line fill="none" stroke="#333333" stroke-width="5.9821" stroke-linecap="round" stroke-miterlimit="10" x1="168.98" y1="239.678" x2="169.073" y2="239.268"/>
				</g>
			</g>
			<path opacity="0.5" fill="#FFFFFF" d="M135.295,226.092c-2.518,1.975-5.871,1.896-7.492-0.177
				c-1.623-2.075-0.895-5.358,1.623-7.332c2.518-1.977,5.873-1.896,7.494,0.177C138.539,220.834,137.813,224.116,135.295,226.092z"
				/>
		</g>
		<g>
			
				<path fill="#A1C453" stroke="#333333" stroke-width="3.9881" stroke-linecap="round" stroke-linejoin="round" stroke-miterlimit="10" d="
				M114.137,27.897c0,0,4.461-10.861,5.91-12.767c1.152-1.535,3.738,10.758,3.867,15.339L114.137,27.897z"/>
			
				<path fill="#A1C453" stroke="#333333" stroke-width="3.9881" stroke-linecap="round" stroke-linejoin="round" stroke-miterlimit="10" d="
				M123.41,26.952l-12.066,13.444c0,0-2.674-17.772,1.736-23.862C113.08,16.534,118.521,23.345,123.41,26.952z"/>
			
				<path fill="#A1C453" stroke="#333333" stroke-width="3.9881" stroke-linecap="round" stroke-linejoin="round" stroke-miterlimit="10" d="
				M125.748,48.385c0,0,8.844-20.487,2.137-31.851L116.988,29.97L125.748,48.385z"/>
		</g>
	</g>
</g>
<g id="calque08">
	<g>
		
			<polygon fill="#CC924C" stroke="#333333" stroke-width="3.9881" stroke-linecap="round" stroke-linejoin="round" stroke-miterlimit="10" points="
			143.594,219.646 127.508,250.563 127.508,239.31 		"/>
		
			<polygon fill="#CC924C" stroke="#333333" stroke-width="3.9881" stroke-linecap="round" stroke-linejoin="round" stroke-miterlimit="10" points="
			145.838,110.655 127.508,132.915 127.508,121.662 		"/>
		
			<polygon fill="#CC924C" stroke="#333333" stroke-width="3.9881" stroke-linecap="round" stroke-linejoin="round" stroke-miterlimit="10" points="
			71.748,180.379 112.426,227.94 112.426,216.687 		"/>
		
			<polygon fill="#CC924C" stroke="#333333" stroke-width="3.9881" stroke-linecap="round" stroke-linejoin="round" stroke-miterlimit="10" points="
			92.895,75.484 112.426,100.654 112.426,93.391 		"/>
		<g>
			
				<path fill="#A1C453" stroke="#333333" stroke-width="5.9821" stroke-linecap="round" stroke-linejoin="round" stroke-miterlimit="10" d="
				M69.373,247.093c10.725-0.447,15.883-6.689,32.818,8.205c16.934,14.894-0.908,19.861,10.234,29.662
				c-11.143-9.801-14.725,8.33-31.033-6.014C65.082,264.601,71.189,257.657,69.373,247.093z"/>
			<g>
				<line fill="#A1C453" x1="112.426" y1="284.96" x2="78.592" y2="255.148"/>
				<g>
					<polyline fill="none" stroke="#333333" stroke-width="3.9881" stroke-linecap="round" stroke-miterlimit="10" points="
						110.93,283.642 108.991,281.934 86.471,262.091 84.787,260.606 					"/>
					
						<line fill="none" stroke="#333333" stroke-width="3.9881" stroke-linecap="round" stroke-miterlimit="10" x1="80.088" y1="256.467" x2="80.299" y2="256.652"/>
				</g>
			</g>
		</g>
		<g>
			
				<path fill="#A1C453" stroke="#333333" stroke-width="5.9821" stroke-linecap="round" stroke-linejoin="round" stroke-miterlimit="10" d="
				M178.813,174.4c1.088,10.679,7.627,15.457-6.225,33.251c-13.852,17.797-19.881,0.281-28.994,11.994
				c9.113-11.713-9.199-14.197,4.143-31.336C161.076,171.167,168.375,176.846,178.813,174.4z"/>
			<g>
				<line fill="#A1C453" x1="143.127" y1="219.179" x2="170.416" y2="184.115"/>
				<g>
					<polyline fill="none" stroke="#333333" stroke-width="3.9881" stroke-linecap="round" stroke-miterlimit="10" points="
						144.352,217.605 145.938,215.566 163.966,192.402 165.345,190.63 					"/>
					
						<line fill="none" stroke="#333333" stroke-width="3.9881" stroke-linecap="round" stroke-miterlimit="10" x1="169.191" y1="185.688" x2="169.02" y2="185.91"/>
				</g>
			</g>
		</g>
		<g>
			
				<path fill="#A1C453" stroke="#333333" stroke-width="5.9821" stroke-linecap="round" stroke-linejoin="round" stroke-miterlimit="10" d="
				M59.246,116.942c10,6.84,18.879,4.684,24.129,29.585c5.248,24.903-14.24,17.342-10.783,33.729
				c-3.457-16.387-18.938-2.413-23.992-26.396C43.543,129.873,53.752,127.721,59.246,116.942z"/>
			<g>
				<line fill="#A1C453" x1="72.592" y1="180.256" x2="62.246" y2="131.192"/>
				<g>
					<polyline fill="none" stroke="#333333" stroke-width="3.9881" stroke-linecap="round" stroke-miterlimit="10" points="
						72.181,178.305 71.647,175.777 64.413,141.468 63.949,139.271 					"/>
					
						<line fill="none" stroke="#333333" stroke-width="3.9881" stroke-linecap="round" stroke-miterlimit="10" x1="62.657" y1="133.144" x2="62.716" y2="133.418"/>
				</g>
			</g>
		</g>
		<g>
			
				<path fill="#A1C453" stroke="#333333" stroke-width="5.9821" stroke-linecap="round" stroke-linejoin="round" stroke-miterlimit="10" d="
				M18.135,146.675c11.908-2.233,16.662-10.038,37.982,3.858c21.318,13.898,2.191,22.332,16.225,31.475
				c-14.033-9.143-15.1,11.685-35.629-1.699C16.174,166.922,21.871,158.181,18.135,146.675z"/>
			<g>
				<line fill="#A1C453" x1="72.342" y1="182.008" x2="30.334" y2="154.629"/>
				<g>
					<polyline fill="none" stroke="#333333" stroke-width="3.9881" stroke-linecap="round" stroke-miterlimit="10" points="
						70.671,180.919 68.507,179.508 39.132,160.363 37.251,159.138 					"/>
					
						<line fill="none" stroke="#333333" stroke-width="3.9881" stroke-linecap="round" stroke-miterlimit="10" x1="32.005" y1="155.718" x2="32.239" y2="155.871"/>
				</g>
			</g>
		</g>
		<g>
			
				<path fill="#A1C453" stroke="#333333" stroke-width="5.9821" stroke-linecap="round" stroke-linejoin="round" stroke-miterlimit="10" d="
				M63.037,36.153c9.508,1.393,15.088-3.237,27.5,12.681c12.412,15.92-4.109,17.319,4.063,27.794
				c-8.172-10.476-14.336,4.874-26.293-10.457C56.35,50.837,62.877,45.747,63.037,36.153z"/>
			<g>
				<line fill="#A1C453" x1="94.6" y1="76.628" x2="70.141" y2="45.263"/>
				<g>
					<polyline fill="none" stroke="#333333" stroke-width="3.9881" stroke-linecap="round" stroke-miterlimit="10" points="
						93.373,75.056 91.784,73.019 76.599,53.544 75.218,51.774 					"/>
					
						<line fill="none" stroke="#333333" stroke-width="3.9881" stroke-linecap="round" stroke-miterlimit="10" x1="71.367" y1="46.835" x2="71.539" y2="47.057"/>
				</g>
			</g>
		</g>
		<g>
			
				<path fill="#A1C453" stroke="#333333" stroke-width="5.9821" stroke-linecap="round" stroke-linejoin="round" stroke-miterlimit="10" d="
				M44.094,71.661c7.707-5.74,8.377-12.957,28.412-10.479c20.035,2.479,9.34,15.152,22.525,16.78
				C81.846,76.334,88.34,91.548,69.047,89.16C49.75,86.773,50.766,78.558,44.094,71.661z"/>
			<g>
				<line fill="#A1C453" x1="95.031" y1="77.962" x2="55.561" y2="73.081"/>
				<g>
					<polyline fill="none" stroke="#333333" stroke-width="3.9881" stroke-linecap="round" stroke-miterlimit="10" points="
						93.053,77.718 90.488,77.4 65.982,74.37 63.755,74.094 					"/>
					
						<line fill="none" stroke="#333333" stroke-width="3.9881" stroke-linecap="round" stroke-miterlimit="10" x1="57.539" y1="73.325" x2="57.817" y2="73.36"/>
				</g>
			</g>
		</g>
		<g>
			
				<path fill="#A1C453" stroke="#333333" stroke-width="5.9821" stroke-linecap="round" stroke-linejoin="round" stroke-miterlimit="10" d="
				M211.865,103.918c-7.775,9.29-6.488,18.338-31.779,21.152c-25.295,2.814-15.883-15.852-32.527-13.996
				c16.645-1.855,4.234-18.616,28.594-21.326C200.518,87.038,201.67,97.407,211.865,103.918z"/>
			<g>
				<line fill="#A1C453" x1="147.092" y1="110.607" x2="196.926" y2="105.059"/>
				<g>
					<polyline fill="none" stroke="#333333" stroke-width="3.9881" stroke-linecap="round" stroke-miterlimit="10" points="
						149.073,110.386 151.642,110.101 186.488,106.221 188.72,105.973 					"/>
					
						<line fill="none" stroke="#333333" stroke-width="3.9881" stroke-linecap="round" stroke-miterlimit="10" x1="194.944" y1="105.28" x2="194.665" y2="105.311"/>
				</g>
			</g>
		</g>
		<g>
			
				<path fill="#A1C453" stroke="#333333" stroke-width="5.9821" stroke-linecap="round" stroke-linejoin="round" stroke-miterlimit="10" d="
				M186.252,60.122c1.07,12.067,8.379,17.555-7.518,37.43c-15.895,19.876-22.438,0.021-32.896,13.103
				c10.459-13.082-10.168-16.158,5.141-35.297C166.289,56.212,174.439,62.729,186.252,60.122z"/>
			<g>
				<line fill="#A1C453" x1="145.838" y1="110.655" x2="177.154" y2="71.495"/>
				<g>
					<polyline fill="none" stroke="#333333" stroke-width="3.9881" stroke-linecap="round" stroke-miterlimit="10" points="
						147.083,109.098 148.697,107.08 170.596,79.697 171.998,77.943 					"/>
					
						<line fill="none" stroke="#333333" stroke-width="3.9881" stroke-linecap="round" stroke-miterlimit="10" x1="175.909" y1="73.052" x2="175.733" y2="73.271"/>
				</g>
			</g>
		</g>
		<g>
			
				<path fill="#A1C453" stroke="#333333" stroke-width="5.9821" stroke-linecap="round" stroke-linejoin="round" stroke-miterlimit="10" d="
				M188.16,140.555c-9.371,1.682-13.152,7.784-29.816-3.262c-16.666-11.048-1.586-17.557-12.557-24.824
				c10.971,7.267,11.932-9.089,27.982,1.551C189.822,124.66,185.293,131.493,188.16,140.555z"/>
			<g>
				<line fill="#A1C453" x1="145.32" y1="112.001" x2="178.154" y2="133.765"/>
				<g>
					<polyline fill="none" stroke="#333333" stroke-width="3.9881" stroke-linecap="round" stroke-miterlimit="10" points="
						146.982,113.103 149.136,114.53 169.401,127.963 171.272,129.204 					"/>
					
						<line fill="none" stroke="#333333" stroke-width="3.9881" stroke-linecap="round" stroke-miterlimit="10" x1="176.492" y1="132.664" x2="176.259" y2="132.508"/>
				</g>
			</g>
		</g>
		<path fill="#CC924C" stroke="#333333" stroke-width="10.6342" stroke-linecap="round" stroke-miterlimit="10" d="M129.502,364.999
			l-1.994-328.957c0-4.165-3.377-7.541-7.543-7.541l0,0c-4.164,0-7.539,3.376-7.539,7.541l-1.994,328.957"/>
		<g>
			<g>
				<path fill="#EF4529" d="M120.039,99.725c1.703,13.882-12.033,31.389-22.047,28.219c-9.861,6.279-26.516-8.166-28.219-22.047
					c-1.701-13.88,3.416-28.434,23.275-25.18C110.641,73.031,118.336,85.845,120.039,99.725z"/>
				<g>
					<path fill="none" stroke="#333333" stroke-width="5.9821" stroke-linecap="round" stroke-miterlimit="10" d="M120.168,102.71
						c-0.016,1.293-0.2,2.577-0.421,3.848c-0.588,3.015-1.653,5.931-3.093,8.642c-1.435,2.714-3.223,5.249-5.364,7.452
						c-2.135,2.185-4.64,4.122-7.565,5.104c-1.455,0.481-3.019,0.686-4.539,0.455c-0.384-0.035-0.748-0.17-1.123-0.25
						c-0.349,0.082-0.674,0.346-1.012,0.51c-0.355,0.145-0.705,0.307-1.065,0.437c-0.37,0.1-0.731,0.236-1.109,0.306
						c-3.033,0.643-6.182-0.136-8.929-1.449c-2.777-1.323-5.25-3.219-7.434-5.371c-2.182-2.161-4.063-4.626-5.571-7.3
						c-1.489-2.679-2.63-5.585-3.08-8.629c-0.432-3.039-0.526-6.134-0.185-9.187c0.345-3.044,1.135-6.075,2.629-8.767
						c1.475-2.691,3.738-4.962,6.493-6.333c2.746-1.41,5.866-1.901,8.925-1.92c1.533,0.027,3.071,0.112,4.588,0.355
						c0.783,0.285,1.463-0.252,2.181-0.487c0.722-0.26,1.44-0.535,2.18-0.743c2.93-0.883,6.068-1.277,9.095-0.689
						c3.03,0.57,5.787,2.255,7.822,4.549c0.257,0.285,0.513,0.572,0.742,0.88c0.228,0.283,0.502,0.643,0.659,0.885
						c0.21,0.304,0.426,0.604,0.612,0.923c0.396,0.624,0.75,1.272,1.084,1.931"/>
					
						<line fill="none" stroke="#333333" stroke-width="5.9821" stroke-linecap="round" stroke-miterlimit="10" x1="119.576" y1="96.77" x2="119.495" y2="96.357"/>
				</g>
			</g>
			<path opacity="0.5" fill="#FFFFFF" d="M83.275,97.962c-1.506,2.826-4.605,4.109-6.926,2.868
				c-2.322-1.241-2.984-4.537-1.479-7.361c1.502-2.824,4.602-4.108,6.924-2.866C84.117,91.843,84.775,95.14,83.275,97.962z"/>
		</g>
		<g>
			<g>
				<path fill="#EF4529" d="M168.217,242.567c-4.053,13.385-23.697,23.844-31.572,16.896c-11.561,1.756-20.947-18.191-16.895-31.574
					c4.051-13.385,14.619-24.626,31.467-13.619C170.414,214.353,172.271,229.185,168.217,242.567z"/>
				<g>
					<path fill="none" stroke="#333333" stroke-width="5.9821" stroke-linecap="round" stroke-miterlimit="10" d="M167.128,245.35
						c-0.537,1.177-1.225,2.276-1.94,3.35c-1.757,2.52-3.91,4.757-6.323,6.654c-2.409,1.902-5.069,3.498-7.919,4.646
						c-2.836,1.136-5.91,1.895-8.983,1.609c-1.525-0.147-3.038-0.593-4.335-1.419c-0.337-0.187-0.615-0.458-0.926-0.683
						c-0.353-0.065-0.757,0.044-1.132,0.058c-0.384-0.011-0.769-0.005-1.151-0.031c-0.379-0.059-0.765-0.08-1.138-0.169
						c-3.034-0.639-5.599-2.624-7.581-4.936c-2.004-2.333-3.499-5.066-4.626-7.918c-1.122-2.858-1.845-5.874-2.143-8.93
						c-0.279-3.053-0.147-6.172,0.671-9.138c0.833-2.953,1.997-5.823,3.544-8.478c1.546-2.646,3.494-5.098,5.948-6.955
						c2.438-1.865,5.426-3.026,8.5-3.166c3.081-0.179,6.133,0.633,8.938,1.853c1.392,0.646,2.764,1.345,4.053,2.181
						c0.601,0.577,1.439,0.361,2.191,0.437c0.765,0.054,1.533,0.093,2.293,0.202c3.036,0.377,6.066,1.285,8.598,3.047
						c2.54,1.746,4.38,4.402,5.314,7.322c0.12,0.365,0.238,0.73,0.323,1.105c0.094,0.351,0.199,0.79,0.245,1.076
						c0.069,0.362,0.146,0.724,0.187,1.091c0.11,0.73,0.172,1.468,0.211,2.205"/>
					
						<line fill="none" stroke="#333333" stroke-width="5.9821" stroke-linecap="round" stroke-miterlimit="10" x1="168.988" y1="239.678" x2="169.081" y2="239.268"/>
				</g>
			</g>
			<path opacity="0.5" fill="#FFFFFF" d="M135.305,226.093c-2.52,1.974-5.871,1.895-7.494-0.178
				c-1.621-2.074-0.895-5.357,1.625-7.332c2.518-1.977,5.873-1.896,7.492,0.178C138.549,220.835,137.822,224.116,135.305,226.093z"
				/>
		</g>
		<g>
			
				<path fill="#A1C453" stroke="#333333" stroke-width="3.9881" stroke-linecap="round" stroke-linejoin="round" stroke-miterlimit="10" d="
				M114.145,27.898c0,0,4.461-10.861,5.91-12.767c1.152-1.535,3.738,10.758,3.867,15.339L114.145,27.898z"/>
			
				<path fill="#A1C453" stroke="#333333" stroke-width="3.9881" stroke-linecap="round" stroke-linejoin="round" stroke-miterlimit="10" d="
				M123.42,26.953l-12.068,13.444c0,0-2.674-17.772,1.738-23.862C113.09,16.535,118.529,23.346,123.42,26.953z"/>
			
				<path fill="#A1C453" stroke="#333333" stroke-width="3.9881" stroke-linecap="round" stroke-linejoin="round" stroke-miterlimit="10" d="
				M125.756,48.386c0,0,8.846-20.487,2.137-31.851l-10.895,13.437L125.756,48.386z"/>
		</g>
	</g>
</g>
</svg>
