<?xml version="1.0" encoding="utf-8"?>
<!-- Generator: Adobe Illustrator 16.0.0, SVG Export Plug-In . SVG Version: 6.00 Build 0)  -->
<!DOCTYPE svg PUBLIC "-//W3C//DTD SVG 1.1//EN" "http://www.w3.org/Graphics/SVG/1.1/DTD/svg11.dtd">
<svg version="1.1" id="Calque_1" xmlns="http://www.w3.org/2000/svg" xmlns:xlink="http://www.w3.org/1999/xlink" x="0px" y="0px"
	 width="320px" height="410px" viewBox="0 0 320 410" enable-background="new 0 0 320 410" xml:space="preserve">
<g id="calque01">
	<g>
		<path fill="#CC924C" stroke="#333333" stroke-width="2.4893" stroke-linecap="round" stroke-miterlimit="10" d="M216.494,178.965
			l-4.404-7.646c-0.568-0.869-0.326-2.035,0.547-2.605l0,0c0.869-0.568,2.037-0.324,2.604,0.546l5.237,7.1"/>
		<g>
			
				<path fill="#A1C453" stroke="#333333" stroke-width="0.9957" stroke-linecap="round" stroke-linejoin="round" stroke-miterlimit="10" d="
				M213.771,167.793c0,0-2.417-1.66-2.979-1.86c-0.452-0.162,0.687,2.76,1.286,3.734L213.771,167.793z"/>
			
				<path fill="#A1C453" stroke="#333333" stroke-width="0.9957" stroke-linecap="round" stroke-linejoin="round" stroke-miterlimit="10" d="
				M211.704,168.862l4.356,1.161c0,0-1.87-4.079-3.623-4.748C212.438,165.275,212.232,167.441,211.704,168.862z"/>
			
				<path fill="#A1C453" stroke="#333333" stroke-width="0.9957" stroke-linecap="round" stroke-linejoin="round" stroke-miterlimit="10" d="
				M214.144,173.661c0,0-4.647-3.073-4.799-6.363l4.112,1.318L214.144,173.661z"/>
		</g>
	</g>
</g>
<g id="calque02">
	<g>
		<g>
			
				<path fill="#A1C453" stroke="#333333" stroke-width="0.9957" stroke-linecap="round" stroke-linejoin="round" stroke-miterlimit="10" d="
				M200.021,162.417c1-0.717,1.104-1.64,3.66-1.271c2.555,0.367,1.155,1.961,2.838,2.202c-1.683-0.241-0.889,1.721-3.349,1.368
				C200.707,164.362,200.854,163.315,200.021,162.417z"/>
			<g>
				<line fill="none" x1="206.519" y1="163.348" x2="201.482" y2="162.626"/>
				<g>
					<polyline fill="none" stroke="#333333" stroke-width="0.9957" stroke-linecap="round" stroke-miterlimit="10" points="
						206.025,163.277 205.387,163.186 204.078,162.998 203.523,162.918 					"/>
					
						<line fill="none" stroke="#333333" stroke-width="0.9957" stroke-linecap="round" stroke-miterlimit="10" x1="201.976" y1="162.696" x2="202.045" y2="162.707"/>
				</g>
			</g>
		</g>
		<path fill="#CC924C" stroke="#333333" stroke-width="2.4893" stroke-linecap="round" stroke-miterlimit="10" d="M220.479,176.359
			l-15.4-22.646c-0.569-0.87-1.736-1.114-2.606-0.545l0,0c-0.871,0.57-1.115,1.734-0.545,2.606l14.567,23.19"/>
		<g>
			
				<path fill="#A1C453" stroke="#333333" stroke-width="0.9957" stroke-linecap="round" stroke-linejoin="round" stroke-miterlimit="10" d="
				M201.173,153.838c0,0-0.552-2.88-0.509-3.476c0.03-0.479,2.251,1.736,2.902,2.676L201.173,153.838z"/>
			
				<path fill="#A1C453" stroke="#333333" stroke-width="0.9957" stroke-linecap="round" stroke-linejoin="round" stroke-miterlimit="10" d="
				M202.981,152.374l-0.683,4.457c0,0-2.988-3.349-2.898-5.225C199.4,151.606,201.467,152.286,202.981,152.374z"/>
			
				<path fill="#A1C453" stroke="#333333" stroke-width="0.9957" stroke-linecap="round" stroke-linejoin="round" stroke-miterlimit="10" d="
				M206.398,156.532c0,0-0.951-5.49-3.904-6.948l-0.441,4.298L206.398,156.532z"/>
		</g>
	</g>
</g>
<g id="calque03">
	<g>
		<g>
			
				<path fill="#A1C453" stroke="#333333" stroke-width="1.4936" stroke-linecap="round" stroke-linejoin="round" stroke-miterlimit="10" d="
				M191.806,159.936c2.178-1.558,2.402-3.567,7.979-2.77c5.572,0.8,2.521,4.274,6.189,4.801c-3.668-0.526-1.938,3.752-7.307,2.982
				C193.299,164.181,193.626,161.896,191.806,159.936z"/>
			<g>
				<line fill="none" x1="205.975" y1="161.967" x2="194.992" y2="160.395"/>
				<g>
					<polyline fill="none" stroke="#333333" stroke-width="0.9957" stroke-linecap="round" stroke-miterlimit="10" points="
						205.481,161.896 204.843,161.805 197.588,160.766 197.033,160.687 					"/>
					
						<line fill="none" stroke="#333333" stroke-width="0.9957" stroke-linecap="round" stroke-miterlimit="10" x1="195.485" y1="160.465" x2="195.555" y2="160.475"/>
				</g>
			</g>
		</g>
		<g>
			
				<path fill="#A1C453" stroke="#333333" stroke-width="0.9957" stroke-linecap="round" stroke-linejoin="round" stroke-miterlimit="10" d="
				M204.053,144.242c0.76,0.938,1.669,0.984,1.461,3.51c-0.209,2.528-1.854,1.25-1.992,2.914c0.139-1.664-1.737-0.771-1.536-3.204
				C202.185,145.027,203.223,145.113,204.053,144.242z"/>
			<g>
				<line fill="none" x1="203.521" y1="150.666" x2="203.917" y2="146.243"/>
				<g>
					<polyline fill="none" stroke="#333333" stroke-width="0.9957" stroke-linecap="round" stroke-miterlimit="10" points="
						203.565,150.17 203.623,149.527 203.684,148.854 203.733,148.297 					"/>
					
						<line fill="none" stroke="#333333" stroke-width="0.9957" stroke-linecap="round" stroke-miterlimit="10" x1="203.873" y1="146.739" x2="203.866" y2="146.809"/>
				</g>
			</g>
		</g>
		<path fill="#CC924C" stroke="#333333" stroke-width="2.4893" stroke-linecap="round" stroke-miterlimit="10" d="M220.479,176.359
			l-20.084-29.808c-0.568-0.871-1.734-1.114-2.604-0.545l0,0c-0.872,0.569-1.115,1.735-0.546,2.604l19.25,30.354"/>
		<g>
			
				<path fill="#A1C453" stroke="#333333" stroke-width="0.9957" stroke-linecap="round" stroke-linejoin="round" stroke-miterlimit="10" d="
				M196.49,146.676c0,0-0.552-2.88-0.511-3.476c0.031-0.478,2.25,1.737,2.905,2.677L196.49,146.676z"/>
			
				<path fill="#A1C453" stroke="#333333" stroke-width="0.9957" stroke-linecap="round" stroke-linejoin="round" stroke-miterlimit="10" d="
				M198.298,145.212l-0.685,4.458c0,0-2.986-3.349-2.896-5.225C194.718,144.445,196.786,145.124,198.298,145.212z"/>
			
				<path fill="#A1C453" stroke="#333333" stroke-width="0.9957" stroke-linecap="round" stroke-linejoin="round" stroke-miterlimit="10" d="
				M201.715,149.37c0,0-0.95-5.489-3.904-6.946l-0.44,4.296L201.715,149.37z"/>
		</g>
	</g>
</g>
<g id="calque04">
	<g>
		
			<polygon fill="#CC924C" stroke="#333333" stroke-width="0.9957" stroke-linecap="round" stroke-linejoin="round" stroke-miterlimit="10" points="
			203.563,144.059 204.427,152.718 202.891,150.366 		"/>
		<g>
			
				<path fill="#A1C453" stroke="#333333" stroke-width="1.4936" stroke-linecap="round" stroke-linejoin="round" stroke-miterlimit="10" d="
				M191.803,159.936c2.181-1.558,2.407-3.568,7.981-2.77c5.572,0.8,2.521,4.274,6.189,4.801c-3.668-0.526-1.938,3.752-7.307,2.982
				C193.299,164.181,193.626,161.896,191.803,159.936z"/>
			<g>
				<line fill="none" x1="205.975" y1="161.967" x2="194.833" y2="160.359"/>
				<g>
					<polyline fill="none" stroke="#333333" stroke-width="0.9957" stroke-linecap="round" stroke-miterlimit="10" points="
						205.481,161.896 204.844,161.804 197.428,160.733 196.873,160.653 					"/>
					
						<line fill="none" stroke="#333333" stroke-width="0.9957" stroke-linecap="round" stroke-miterlimit="10" x1="195.326" y1="160.431" x2="195.396" y2="160.44"/>
				</g>
			</g>
		</g>
		<g>
			
				<path fill="#A1C453" stroke="#333333" stroke-width="1.4936" stroke-linecap="round" stroke-linejoin="round" stroke-miterlimit="10" d="
				M204.742,129.793c1.687,2.081,3.704,2.187,3.242,7.798c-0.463,5.612-4.115,2.776-4.422,6.468c0.307-3.691-3.86-1.71-3.415-7.114
				C200.594,131.539,202.895,131.729,204.742,129.793z"/>
			<g>
				<line fill="none" x1="203.403" y1="144.024" x2="204.313" y2="132.969"/>
				<g>
					<polyline fill="none" stroke="#333333" stroke-width="0.9957" stroke-linecap="round" stroke-miterlimit="10" points="
						203.444,143.528 203.497,142.886 204.098,135.582 204.144,135.023 					"/>
					
						<line fill="none" stroke="#333333" stroke-width="0.9957" stroke-linecap="round" stroke-miterlimit="10" x1="204.271" y1="133.465" x2="204.266" y2="133.535"/>
				</g>
			</g>
		</g>
		<g>
			
				<path fill="#A1C453" stroke="#333333" stroke-width="0.9957" stroke-linecap="round" stroke-linejoin="round" stroke-miterlimit="10" d="
				M187.144,147.294c1.132-1.086,1.095-2.268,4.387-2.272c3.296-0.005,1.82,2.264,3.987,2.261c-2.167,0.003-0.809,2.334-3.979,2.339
				C188.364,149.626,188.363,148.274,187.144,147.294z"/>
			<g>
				<line fill="none" x1="195.518" y1="147.282" x2="189.029" y2="147.289"/>
				<g>
					<polyline fill="none" stroke="#333333" stroke-width="0.9957" stroke-linecap="round" stroke-miterlimit="10" points="
						195.02,147.283 194.375,147.283 191.651,147.286 191.091,147.287 					"/>
					
						<line fill="none" stroke="#333333" stroke-width="0.9957" stroke-linecap="round" stroke-miterlimit="10" x1="189.527" y1="147.289" x2="189.598" y2="147.288"/>
				</g>
			</g>
		</g>
		<path fill="#CC924C" stroke="#333333" stroke-width="2.6551" stroke-linecap="round" stroke-miterlimit="10" d="M220.479,176.359
			l-24.424-36.446c-0.57-0.871-1.736-1.114-2.608-0.545l0,0c-0.868,0.569-1.111,1.735-0.543,2.605l23.591,36.991"/>
		<g>
			
				<path fill="#A1C453" stroke="#333333" stroke-width="0.9957" stroke-linecap="round" stroke-linejoin="round" stroke-miterlimit="10" d="
				M192.149,140.038c0,0-0.553-2.88-0.509-3.477c0.03-0.479,2.25,1.737,2.904,2.677L192.149,140.038z"/>
			
				<path fill="#A1C453" stroke="#333333" stroke-width="0.9957" stroke-linecap="round" stroke-linejoin="round" stroke-miterlimit="10" d="
				M193.958,138.572l-0.685,4.458c0,0-2.986-3.349-2.897-5.223C190.376,137.808,192.443,138.485,193.958,138.572z"/>
			
				<path fill="#A1C453" stroke="#333333" stroke-width="0.9957" stroke-linecap="round" stroke-linejoin="round" stroke-miterlimit="10" d="
				M197.375,142.731c0,0-0.951-5.489-3.906-6.948l-0.441,4.297L197.375,142.731z"/>
		</g>
	</g>
</g>
<g id="calque05">
	<g>
		
			<polygon fill="#CC924C" stroke="#333333" stroke-width="0.9957" stroke-linecap="round" stroke-linejoin="round" stroke-miterlimit="10" points="
			203.563,144.059 204.427,152.718 202.891,150.366 		"/>
		
			<polygon fill="#CC924C" stroke="#333333" stroke-width="0.9957" stroke-linecap="round" stroke-linejoin="round" stroke-miterlimit="10" points="
			183.186,145.67 198.185,150.051 196.646,147.698 		"/>
		<g>
			
				<path fill="#A1C453" stroke="#333333" stroke-width="1.4936" stroke-linecap="round" stroke-linejoin="round" stroke-miterlimit="10" d="
				M191.803,159.936c2.181-1.558,2.405-3.567,7.98-2.769c5.573,0.799,2.522,4.273,6.19,4.8c-3.668-0.526-1.938,3.752-7.307,2.982
				C193.299,164.181,193.626,161.896,191.803,159.936z"/>
			<g>
				<line fill="none" x1="205.975" y1="161.967" x2="194.833" y2="160.359"/>
				<g>
					<polyline fill="none" stroke="#333333" stroke-width="0.9957" stroke-linecap="round" stroke-miterlimit="10" points="
						205.481,161.896 204.844,161.804 197.428,160.733 196.873,160.653 					"/>
					
						<line fill="none" stroke="#333333" stroke-width="0.9957" stroke-linecap="round" stroke-miterlimit="10" x1="195.326" y1="160.431" x2="195.396" y2="160.44"/>
				</g>
			</g>
		</g>
		<g>
			
				<path fill="#A1C453" stroke="#333333" stroke-width="1.4936" stroke-linecap="round" stroke-linejoin="round" stroke-miterlimit="10" d="
				M204.742,129.793c1.687,2.081,3.704,2.187,3.242,7.798c-0.463,5.612-4.115,2.776-4.422,6.468c0.307-3.691-3.86-1.71-3.415-7.114
				C200.594,131.539,202.895,131.729,204.742,129.793z"/>
			<g>
				<line fill="none" x1="203.403" y1="144.024" x2="204.313" y2="132.969"/>
				<g>
					<polyline fill="none" stroke="#333333" stroke-width="0.9957" stroke-linecap="round" stroke-miterlimit="10" points="
						203.444,143.528 203.497,142.886 204.098,135.582 204.144,135.023 					"/>
					
						<line fill="none" stroke="#333333" stroke-width="0.9957" stroke-linecap="round" stroke-miterlimit="10" x1="204.271" y1="133.465" x2="204.266" y2="133.535"/>
				</g>
			</g>
		</g>
		<g>
			
				<path fill="#A1C453" stroke="#333333" stroke-width="0.9957" stroke-linecap="round" stroke-linejoin="round" stroke-miterlimit="10" d="
				M177.644,139.724c1.473,0.03,2.23-0.777,4.421,1.404c2.189,2.184-0.295,2.709,1.146,4.146c-1.439-1.438-2.086,1.014-4.192-1.089
				C176.908,142.082,177.801,141.185,177.644,139.724z"/>
			<g>
				<line fill="none" x1="183.209" y1="145.274" x2="178.896" y2="140.974"/>
				<g>
					<polyline fill="none" stroke="#333333" stroke-width="0.9957" stroke-linecap="round" stroke-miterlimit="10" points="
						182.856,144.923 182.399,144.467 180.753,142.825 180.356,142.43 					"/>
					
						<line fill="none" stroke="#333333" stroke-width="0.9957" stroke-linecap="round" stroke-miterlimit="10" x1="179.249" y1="141.325" x2="179.299" y2="141.375"/>
				</g>
			</g>
		</g>
		<g>
			
				<path fill="#A1C453" stroke="#333333" stroke-width="1.4936" stroke-linecap="round" stroke-linejoin="round" stroke-miterlimit="10" d="
				M167.376,145.952c2.184-2.094,2.109-4.375,8.464-4.383c6.354-0.011,3.51,4.366,7.692,4.358c-4.184,0.008-1.561,4.506-7.679,4.515
				C169.732,150.45,169.73,147.846,167.376,145.952z"/>
			<g>
				<line fill="none" x1="183.532" y1="145.928" x2="171.013" y2="145.948"/>
				<g>
					<polyline fill="none" stroke="#333333" stroke-width="0.9957" stroke-linecap="round" stroke-miterlimit="10" points="
						183.034,145.929 182.39,145.93 173.635,145.944 173.074,145.945 					"/>
					
						<line fill="none" stroke="#333333" stroke-width="0.9957" stroke-linecap="round" stroke-miterlimit="10" x1="171.511" y1="145.947" x2="171.58" y2="145.947"/>
				</g>
			</g>
		</g>
		<g>
			
				<path fill="#A1C453" stroke="#333333" stroke-width="0.9957" stroke-linecap="round" stroke-linejoin="round" stroke-miterlimit="10" d="
				M187.873,118.335c0.862,1.096,1.91,1.162,1.63,4.075c-0.277,2.913-2.156,1.413-2.34,3.331c0.184-1.918-1.993-0.916-1.726-3.721
				C185.706,119.216,186.901,119.329,187.873,118.335z"/>
			<g>
				<line fill="none" x1="187.163" y1="125.741" x2="187.714" y2="120.002"/>
				<g>
					<polyline fill="none" stroke="#333333" stroke-width="0.9957" stroke-linecap="round" stroke-miterlimit="10" points="
						187.211,125.246 187.272,124.604 187.463,122.612 187.517,122.054 					"/>
					
						<line fill="none" stroke="#333333" stroke-width="0.9957" stroke-linecap="round" stroke-miterlimit="10" x1="187.666" y1="120.498" x2="187.659" y2="120.567"/>
				</g>
			</g>
		</g>
		<path fill="#CC924C" stroke="#333333" stroke-width="2.6551" stroke-linecap="round" stroke-miterlimit="10" d="M220.479,176.359
			l-35.337-53.14c-0.57-0.869-1.738-1.113-2.607-0.545l0,0c-0.871,0.569-1.113,1.736-0.546,2.605l34.506,53.685"/>
		<g>
			
				<path fill="#A1C453" stroke="#333333" stroke-width="0.9957" stroke-linecap="round" stroke-linejoin="round" stroke-miterlimit="10" d="
				M181.235,123.345c0,0-0.551-2.879-0.51-3.477c0.031-0.477,2.253,1.738,2.906,2.678L181.235,123.345z"/>
			
				<path fill="#A1C453" stroke="#333333" stroke-width="0.9957" stroke-linecap="round" stroke-linejoin="round" stroke-miterlimit="10" d="
				M183.044,121.88l-0.685,4.457c0,0-2.986-3.348-2.898-5.222C179.461,121.115,181.53,121.794,183.044,121.88z"/>
			
				<path fill="#A1C453" stroke="#333333" stroke-width="0.9957" stroke-linecap="round" stroke-linejoin="round" stroke-miterlimit="10" d="
				M186.461,126.039c0,0-0.951-5.489-3.906-6.948l-0.438,4.298L186.461,126.039z"/>
		</g>
		<g>
			
				<path fill="#FFFFFF" stroke="#333333" stroke-width="0.9957" stroke-linecap="round" stroke-linejoin="round" stroke-miterlimit="10" d="
				M204.344,143.469c-0.199,0.396,0.279,1.144,0.698,1.663c0.757,0.938,2.535,1.481,3.166,0.231
				c0.638-1.257-0.854-2.373-2.053-2.432C205.488,142.902,204.546,143.068,204.344,143.469z"/>
			
				<path fill="#FFFFFF" stroke="#333333" stroke-width="0.9957" stroke-linecap="round" stroke-linejoin="round" stroke-miterlimit="10" d="
				M204.228,143.468c-0.245-0.374-1.132-0.334-1.792-0.229c-1.188,0.188-2.548,1.454-1.781,2.628
				c0.771,1.178,2.482,0.446,3.132-0.563C204.146,144.74,204.473,143.843,204.228,143.468z"/>
			
				<path fill="#FFFFFF" stroke="#333333" stroke-width="0.9957" stroke-linecap="round" stroke-linejoin="round" stroke-miterlimit="10" d="
				M204.282,143.37c0.445-0.024,0.853-0.813,1.093-1.437c0.433-1.124,0.016-2.936-1.385-2.857c-1.404,0.077-1.627,1.925-1.078,2.993
				C203.221,142.663,203.834,143.395,204.282,143.37z"/>
			
				<path fill="#FFFFFF" stroke="#333333" stroke-width="0.9957" stroke-linecap="round" stroke-linejoin="round" stroke-miterlimit="10" d="
				M204.432,143.377c0.243,0.372,1.131,0.331,1.789,0.227c1.188-0.187,2.551-1.454,1.783-2.627
				c-0.771-1.178-2.482-0.445-3.133,0.563C204.514,142.103,204.185,143.001,204.432,143.377z"/>
			
				<path fill="#FFFFFF" stroke="#333333" stroke-width="0.9957" stroke-linecap="round" stroke-linejoin="round" stroke-miterlimit="10" d="
				M204.368,143.474c-0.444,0.025-0.853,0.813-1.092,1.438c-0.436,1.122-0.016,2.934,1.386,2.856
				c1.403-0.077,1.625-1.925,1.075-2.993C205.431,144.181,204.816,143.448,204.368,143.474z"/>
			
				<path fill="#FFFFFF" stroke="#333333" stroke-width="0.9957" stroke-linecap="round" stroke-linejoin="round" stroke-miterlimit="10" d="
				M204.319,143.358c0.202-0.397-0.276-1.145-0.698-1.664c-0.757-0.936-2.532-1.48-3.165-0.229
				c-0.636,1.256,0.854,2.372,2.053,2.429C203.177,143.925,204.118,143.759,204.319,143.358z"/>
			
				<circle fill="#F9D53E" stroke="#333333" stroke-width="0.9957" stroke-linecap="round" stroke-linejoin="round" stroke-miterlimit="10" cx="204.432" cy="143.376" r="0.926"/>
		</g>
	</g>
</g>
<g id="calque06">
	<g>
		
			<polygon fill="#CC924C" stroke="#333333" stroke-width="0.9957" stroke-linecap="round" stroke-linejoin="round" stroke-miterlimit="10" points="
			203.563,144.059 204.427,152.718 202.891,150.366 		"/>
		
			<polygon fill="#CC924C" stroke="#333333" stroke-width="0.9957" stroke-linecap="round" stroke-linejoin="round" stroke-miterlimit="10" points="
			189.143,120.976 188.354,128.132 186.815,125.78 		"/>
		
			<polygon fill="#CC924C" stroke="#333333" stroke-width="0.9957" stroke-linecap="round" stroke-linejoin="round" stroke-miterlimit="10" points="
			183.186,145.67 198.185,150.051 196.646,147.698 		"/>
		<g>
			
				<path fill="#A1C453" stroke="#333333" stroke-width="1.4936" stroke-linecap="round" stroke-linejoin="round" stroke-miterlimit="10" d="
				M191.803,159.936c2.181-1.558,2.407-3.568,7.981-2.77c5.572,0.8,2.521,4.274,6.189,4.801c-3.668-0.526-1.938,3.752-7.307,2.982
				C193.299,164.181,193.628,161.895,191.803,159.936z"/>
			<g>
				<line fill="none" x1="205.975" y1="161.967" x2="194.833" y2="160.359"/>
				<g>
					<polyline fill="none" stroke="#333333" stroke-width="0.9957" stroke-linecap="round" stroke-miterlimit="10" points="
						205.481,161.896 204.844,161.804 197.428,160.733 196.873,160.653 					"/>
					
						<line fill="none" stroke="#333333" stroke-width="0.9957" stroke-linecap="round" stroke-miterlimit="10" x1="195.326" y1="160.431" x2="195.396" y2="160.44"/>
				</g>
			</g>
		</g>
		<g>
			
				<path fill="#A1C453" stroke="#333333" stroke-width="1.4936" stroke-linecap="round" stroke-linejoin="round" stroke-miterlimit="10" d="
				M204.742,129.793c1.687,2.081,3.704,2.187,3.242,7.798c-0.463,5.612-4.115,2.776-4.422,6.468c0.307-3.691-3.859-1.71-3.415-7.114
				C200.594,131.539,202.895,131.729,204.742,129.793z"/>
			<g>
				<line fill="none" x1="203.403" y1="144.024" x2="204.315" y2="132.97"/>
				<g>
					<polyline fill="none" stroke="#333333" stroke-width="0.9957" stroke-linecap="round" stroke-miterlimit="10" points="
						203.444,143.528 203.497,142.886 204.1,135.583 204.146,135.024 					"/>
					
						<line fill="none" stroke="#333333" stroke-width="0.9957" stroke-linecap="round" stroke-miterlimit="10" x1="204.274" y1="133.466" x2="204.269" y2="133.535"/>
				</g>
			</g>
		</g>
		<g>
			
				<path fill="#A1C453" stroke="#333333" stroke-width="1.4936" stroke-linecap="round" stroke-linejoin="round" stroke-miterlimit="10" d="
				M171.906,134.12c3.023,0.064,4.585-1.6,9.085,2.887c4.497,4.488-0.607,5.57,2.354,8.522c-2.961-2.952-4.287,2.082-8.619-2.239
				C170.391,138.97,172.23,137.123,171.906,134.12z"/>
			<g>
				<line fill="none" x1="183.344" y1="145.529" x2="174.479" y2="136.69"/>
				<g>
					<polyline fill="none" stroke="#333333" stroke-width="0.9957" stroke-linecap="round" stroke-miterlimit="10" points="
						182.991,145.178 182.534,144.723 176.336,138.542 175.939,138.146 					"/>
					
						<line fill="none" stroke="#333333" stroke-width="0.9957" stroke-linecap="round" stroke-miterlimit="10" x1="174.832" y1="137.042" x2="174.882" y2="137.092"/>
				</g>
			</g>
		</g>
		<g>
			
				<path fill="#A1C453" stroke="#333333" stroke-width="1.4936" stroke-linecap="round" stroke-linejoin="round" stroke-miterlimit="10" d="
				M167.377,145.951c2.183-2.093,2.108-4.374,8.464-4.384c6.354-0.009,3.509,4.368,7.691,4.36c-4.184,0.008-1.561,4.506-7.679,4.515
				C169.732,150.45,169.73,147.846,167.377,145.951z"/>
			<g>
				<line fill="none" x1="183.532" y1="145.928" x2="171.013" y2="145.948"/>
				<g>
					<polyline fill="none" stroke="#333333" stroke-width="0.9957" stroke-linecap="round" stroke-miterlimit="10" points="
						183.034,145.929 182.39,145.93 173.635,145.944 173.074,145.945 					"/>
					
						<line fill="none" stroke="#333333" stroke-width="0.9957" stroke-linecap="round" stroke-miterlimit="10" x1="171.511" y1="145.947" x2="171.58" y2="145.947"/>
				</g>
			</g>
		</g>
		<g>
			
				<path fill="#A1C453" stroke="#333333" stroke-width="0.9957" stroke-linecap="round" stroke-linejoin="round" stroke-miterlimit="10" d="
				M173.455,120.201c1.105-0.511,1.374-1.388,3.793-0.562c2.42,0.828,0.767,2.121,2.358,2.664c-1.593-0.543-1.185,1.51-3.513,0.714
				C173.764,122.222,174.104,121.229,173.455,120.201z"/>
			<g>
				<line fill="none" x1="179.607" y1="122.304" x2="174.84" y2="120.674"/>
				<g>
					<polyline fill="none" stroke="#333333" stroke-width="0.9957" stroke-linecap="round" stroke-miterlimit="10" points="
						179.137,122.143 178.526,121.934 177.321,121.521 176.79,121.341 					"/>
					
						<line fill="none" stroke="#333333" stroke-width="0.9957" stroke-linecap="round" stroke-miterlimit="10" x1="175.311" y1="120.835" x2="175.377" y2="120.857"/>
				</g>
			</g>
		</g>
		<g>
			
				<path fill="#A1C453" stroke="#333333" stroke-width="0.9957" stroke-linecap="round" stroke-linejoin="round" stroke-miterlimit="10" d="
				M190.346,111.732c1.036,1.314,2.296,1.396,1.961,4.896s-2.592,1.699-2.813,4.002c0.222-2.303-2.397-1.101-2.074-4.47
				C187.743,112.789,189.178,112.927,190.346,111.732z"/>
			<g>
				<line fill="none" x1="189.493" y1="120.63" x2="190.154" y2="113.735"/>
				<g>
					<polyline fill="none" stroke="#333333" stroke-width="0.9957" stroke-linecap="round" stroke-miterlimit="10" points="
						189.541,120.135 189.603,119.492 189.904,116.346 189.957,115.787 					"/>
					
						<line fill="none" stroke="#333333" stroke-width="0.9957" stroke-linecap="round" stroke-miterlimit="10" x1="190.106" y1="114.23" x2="190.1" y2="114.301"/>
				</g>
			</g>
		</g>
		<g>
			
				<path fill="#A1C453" stroke="#333333" stroke-width="1.4936" stroke-linecap="round" stroke-linejoin="round" stroke-miterlimit="10" d="
				M202.072,121.442c-1.729,1.632-1.687,3.424-6.677,3.393c-4.994-0.032-2.729-3.453-6.017-3.473
				c3.287,0.02,1.252-3.529,6.059-3.498C200.248,117.894,200.234,119.939,202.072,121.442z"/>
			<g>
				<line fill="none" x1="189.218" y1="121.329" x2="199.052" y2="121.391"/>
				<g>
					<polyline fill="none" stroke="#333333" stroke-width="0.9957" stroke-linecap="round" stroke-miterlimit="10" points="
						189.716,121.332 190.36,121.336 196.43,121.374 196.99,121.378 					"/>
					
						<line fill="none" stroke="#333333" stroke-width="0.9957" stroke-linecap="round" stroke-miterlimit="10" x1="198.554" y1="121.388" x2="198.484" y2="121.387"/>
				</g>
			</g>
		</g>
		<path fill="#CC924C" stroke="#333333" stroke-width="2.6551" stroke-linecap="round" stroke-miterlimit="10" d="M220.479,176.359
			l-40.177-60.539c-0.568-0.869-1.736-1.113-2.607-0.545l0,0c-0.869,0.569-1.112,1.735-0.545,2.606l39.345,61.083"/>
		<g>
			<g>
				<path fill="#D3F46C" d="M209.784,144.517c0.655,2.233-1.13,5.48-2.858,5.229c-1.452,1.299-4.576-0.625-5.229-2.859
					c-0.655-2.234-0.207-4.763,3.144-4.765C207.521,140.386,209.131,142.282,209.784,144.517z"/>
				<g>
					<path fill="none" stroke="#333333" stroke-width="0.9957" stroke-linecap="round" stroke-miterlimit="10" d="M209.885,145.004
						c0.021,0.214,0.045,0.428,0.031,0.644c-0.026,1.022-0.378,2.026-0.951,2.869c-0.29,0.417-0.648,0.804-1.104,1.042
						c-0.229,0.108-0.477,0.199-0.732,0.191l-0.191-0.005c-0.056,0.024-0.104,0.07-0.158,0.104
						c-0.099,0.083-0.214,0.139-0.334,0.182c-0.99,0.359-2.052-0.111-2.867-0.673c-0.818-0.599-1.527-1.406-1.848-2.383
						c-0.295-0.968-0.422-2.038-0.085-3.012c0.32-0.995,1.298-1.646,2.309-1.767c0.252-0.052,0.507-0.059,0.763-0.07
						s0.447-0.231,0.684-0.319c0.456-0.228,0.964-0.367,1.476-0.354c0.511,0.012,1.009,0.211,1.404,0.532
						c0.104,0.068,0.195,0.176,0.277,0.251c0.044,0.043,0.09,0.085,0.127,0.134c0.076,0.097,0.159,0.188,0.23,0.288"/>
					
						<line fill="none" stroke="#333333" stroke-width="0.9957" stroke-linecap="round" stroke-miterlimit="10" x1="209.628" y1="144.044" x2="209.603" y2="143.979"/>
				</g>
			</g>
			
				<ellipse transform="matrix(0.3218 -0.9468 0.9468 0.3218 0.3948 290.4702)" opacity="0.5" fill="#FFFFFF" enable-background="new    " cx="202.963" cy="144.959" rx="0.965" ry="0.793"/>
		</g>
		<g>
			
				<path fill="#A1C453" stroke="#333333" stroke-width="0.9957" stroke-linecap="round" stroke-linejoin="round" stroke-miterlimit="10" d="
				M176.397,115.945c0,0-0.552-2.88-0.51-3.476c0.033-0.479,2.251,1.737,2.906,2.677L176.397,115.945z"/>
			
				<path fill="#A1C453" stroke="#333333" stroke-width="0.9957" stroke-linecap="round" stroke-linejoin="round" stroke-miterlimit="10" d="
				M178.207,114.479l-0.686,4.459c0,0-2.985-3.349-2.897-5.223C174.624,113.716,176.691,114.394,178.207,114.479z"/>
			
				<path fill="#A1C453" stroke="#333333" stroke-width="0.9957" stroke-linecap="round" stroke-linejoin="round" stroke-miterlimit="10" d="
				M181.623,118.64c0,0-0.949-5.49-3.904-6.948l-0.441,4.298L181.623,118.64z"/>
		</g>
		<g>
			
				<path fill="#FFFFFF" stroke="#333333" stroke-width="0.9957" stroke-linecap="round" stroke-linejoin="round" stroke-miterlimit="10" d="
				M178.162,123.907c-0.202,0.397,0.277,1.146,0.698,1.664c0.755,0.936,2.533,1.48,3.165,0.229c0.637-1.257-0.854-2.371-2.054-2.43
				C179.307,123.34,178.364,123.506,178.162,123.907z"/>
			
				<path fill="#FFFFFF" stroke="#333333" stroke-width="0.9957" stroke-linecap="round" stroke-linejoin="round" stroke-miterlimit="10" d="
				M178.045,123.905c-0.244-0.374-1.131-0.331-1.791-0.228c-1.188,0.186-2.549,1.452-1.782,2.626
				c0.771,1.178,2.479,0.447,3.13-0.563C177.963,125.179,178.29,124.28,178.045,123.905z"/>
			
				<path fill="#FFFFFF" stroke="#333333" stroke-width="0.9957" stroke-linecap="round" stroke-linejoin="round" stroke-miterlimit="10" d="
				M178.1,123.808c0.443-0.023,0.854-0.813,1.091-1.436c0.436-1.125,0.018-2.936-1.383-2.857c-1.405,0.078-1.627,1.925-1.077,2.993
				C177.037,123.102,177.652,123.833,178.1,123.808z"/>
			
				<path fill="#FFFFFF" stroke="#333333" stroke-width="0.9957" stroke-linecap="round" stroke-linejoin="round" stroke-miterlimit="10" d="
				M178.248,123.813c0.244,0.375,1.131,0.332,1.791,0.229c1.188-0.188,2.549-1.454,1.78-2.627c-0.77-1.178-2.479-0.447-3.131,0.564
				C178.33,122.541,178.003,123.438,178.248,123.813z"/>
			
				<path fill="#FFFFFF" stroke="#333333" stroke-width="0.9957" stroke-linecap="round" stroke-linejoin="round" stroke-miterlimit="10" d="
				M178.188,123.911c-0.446,0.026-0.854,0.814-1.093,1.438c-0.433,1.123-0.017,2.935,1.382,2.857
				c1.407-0.08,1.628-1.926,1.078-2.995C179.249,124.619,178.635,123.887,178.188,123.911z"/>
			
				<path fill="#FFFFFF" stroke="#333333" stroke-width="0.9957" stroke-linecap="round" stroke-linejoin="round" stroke-miterlimit="10" d="
				M178.138,123.797c0.201-0.397-0.278-1.145-0.699-1.664c-0.755-0.938-2.534-1.481-3.165-0.231
				c-0.637,1.258,0.854,2.373,2.055,2.431C176.993,124.363,177.935,124.198,178.138,123.797z"/>
			
				<circle fill="#F9D53E" stroke="#333333" stroke-width="0.9957" stroke-linecap="round" stroke-linejoin="round" stroke-miterlimit="10" cx="178.248" cy="123.814" r="0.927"/>
		</g>
	</g>
</g>
<g id="calque07">
	<g>
		
			<polygon fill="#CC924C" stroke="#333333" stroke-width="0.9957" stroke-linecap="round" stroke-linejoin="round" stroke-miterlimit="10" points="
			203.563,144.059 204.427,152.718 202.891,150.366 		"/>
		
			<polygon fill="#CC924C" stroke="#333333" stroke-width="0.9957" stroke-linecap="round" stroke-linejoin="round" stroke-miterlimit="10" points="
			189.143,120.976 188.354,128.132 186.815,125.78 		"/>
		
			<polygon fill="#CC924C" stroke="#333333" stroke-width="0.9957" stroke-linecap="round" stroke-linejoin="round" stroke-miterlimit="10" points="
			183.186,145.67 198.185,150.051 196.646,147.698 		"/>
		
			<polygon fill="#CC924C" stroke="#333333" stroke-width="0.9957" stroke-linecap="round" stroke-linejoin="round" stroke-miterlimit="10" points="
			173.272,120.86 180.793,123.451 179.801,121.934 		"/>
		<g>
			
				<path fill="#A1C453" stroke="#333333" stroke-width="1.4936" stroke-linecap="round" stroke-linejoin="round" stroke-miterlimit="10" d="
				M191.803,159.936c2.181-1.558,2.405-3.567,7.98-2.769c5.573,0.799,2.522,4.273,6.19,4.8c-3.668-0.526-1.938,3.752-7.307,2.982
				C193.299,164.181,193.626,161.896,191.803,159.936z"/>
			<g>
				<line fill="none" x1="205.975" y1="161.967" x2="194.833" y2="160.359"/>
				<g>
					<polyline fill="none" stroke="#333333" stroke-width="0.9957" stroke-linecap="round" stroke-miterlimit="10" points="
						205.481,161.896 204.844,161.804 197.428,160.733 196.873,160.653 					"/>
					
						<line fill="none" stroke="#333333" stroke-width="0.9957" stroke-linecap="round" stroke-miterlimit="10" x1="195.326" y1="160.431" x2="195.396" y2="160.44"/>
				</g>
			</g>
		</g>
		<g>
			
				<path fill="#A1C453" stroke="#333333" stroke-width="1.4936" stroke-linecap="round" stroke-linejoin="round" stroke-miterlimit="10" d="
				M204.742,129.793c1.687,2.081,3.704,2.187,3.242,7.798c-0.463,5.612-4.115,2.776-4.422,6.468c0.307-3.691-3.86-1.71-3.415-7.114
				C200.594,131.539,202.895,131.729,204.742,129.793z"/>
			<g>
				<line fill="none" x1="203.403" y1="144.024" x2="204.313" y2="132.969"/>
				<g>
					<polyline fill="none" stroke="#333333" stroke-width="0.9957" stroke-linecap="round" stroke-miterlimit="10" points="
						203.444,143.528 203.497,142.886 204.098,135.582 204.144,135.023 					"/>
					
						<line fill="none" stroke="#333333" stroke-width="0.9957" stroke-linecap="round" stroke-miterlimit="10" x1="204.271" y1="133.465" x2="204.266" y2="133.535"/>
				</g>
			</g>
		</g>
		<g>
			
				<path fill="#A1C453" stroke="#333333" stroke-width="1.4936" stroke-linecap="round" stroke-linejoin="round" stroke-miterlimit="10" d="
				M171.906,134.12c3.023,0.064,4.585-1.6,9.085,2.887c4.497,4.488-0.608,5.57,2.354,8.522c-2.962-2.952-4.287,2.082-8.62-2.238
				C170.391,138.97,172.23,137.123,171.906,134.12z"/>
			<g>
				<line fill="none" x1="183.344" y1="145.529" x2="174.479" y2="136.69"/>
				<g>
					<polyline fill="none" stroke="#333333" stroke-width="0.9957" stroke-linecap="round" stroke-miterlimit="10" points="
						182.991,145.178 182.534,144.723 176.336,138.542 175.939,138.146 					"/>
					
						<line fill="none" stroke="#333333" stroke-width="0.9957" stroke-linecap="round" stroke-miterlimit="10" x1="174.832" y1="137.042" x2="174.882" y2="137.092"/>
				</g>
			</g>
		</g>
		<g>
			
				<path fill="#A1C453" stroke="#333333" stroke-width="1.4936" stroke-linecap="round" stroke-linejoin="round" stroke-miterlimit="10" d="
				M167.376,145.952c2.184-2.094,2.109-4.375,8.464-4.383c6.354-0.011,3.51,4.366,7.692,4.358c-4.184,0.008-1.561,4.506-7.679,4.515
				C169.732,150.45,169.73,147.846,167.376,145.952z"/>
			<g>
				<line fill="none" x1="183.532" y1="145.928" x2="171.013" y2="145.948"/>
				<g>
					<polyline fill="none" stroke="#333333" stroke-width="0.9957" stroke-linecap="round" stroke-miterlimit="10" points="
						183.034,145.929 182.39,145.93 173.635,145.944 173.074,145.945 					"/>
					
						<line fill="none" stroke="#333333" stroke-width="0.9957" stroke-linecap="round" stroke-miterlimit="10" x1="171.511" y1="145.947" x2="171.58" y2="145.947"/>
				</g>
			</g>
		</g>
		<g>
			
				<path fill="#A1C453" stroke="#333333" stroke-width="0.9957" stroke-linecap="round" stroke-linejoin="round" stroke-miterlimit="10" d="
				M167.37,119.257c1.213-0.561,1.507-1.523,4.165-0.616c2.652,0.908,0.838,2.328,2.586,2.925c-1.748-0.597-1.297,1.658-3.854,0.784
				C167.709,121.474,168.082,120.386,167.37,119.257z"/>
			<g>
				<line fill="none" x1="174.121" y1="121.565" x2="168.889" y2="119.776"/>
				<g>
					<polyline fill="none" stroke="#333333" stroke-width="0.9957" stroke-linecap="round" stroke-miterlimit="10" points="
						173.65,121.404 173.04,121.195 171.369,120.625 170.839,120.443 					"/>
					
						<line fill="none" stroke="#333333" stroke-width="0.9957" stroke-linecap="round" stroke-miterlimit="10" x1="169.359" y1="119.938" x2="169.426" y2="119.96"/>
				</g>
			</g>
		</g>
		<g>
			
				<path fill="#A1C453" stroke="#333333" stroke-width="1.4936" stroke-linecap="round" stroke-linejoin="round" stroke-miterlimit="10" d="
				M162.553,126.729c0.825-2.252-0.021-3.853,4.504-6.071c4.527-2.219,4.022,1.89,7.002,0.429c-2.979,1.461,0.457,3.754-3.899,5.891
				C165.798,129.114,164.889,127.259,162.553,126.729z"/>
			<g>
				<line fill="none" x1="174.059" y1="121.086" x2="165.142" y2="125.46"/>
				<g>
					<polyline fill="none" stroke="#333333" stroke-width="0.9957" stroke-linecap="round" stroke-miterlimit="10" points="
						173.611,121.305 173.032,121.589 167.496,124.306 166.992,124.552 					"/>
					
						<line fill="none" stroke="#333333" stroke-width="0.9957" stroke-linecap="round" stroke-miterlimit="10" x1="165.589" y1="125.24" x2="165.651" y2="125.21"/>
				</g>
			</g>
		</g>
		<g>
			
				<path fill="#A1C453" stroke="#333333" stroke-width="0.9957" stroke-linecap="round" stroke-linejoin="round" stroke-miterlimit="10" d="
				M196.619,115.241c-0.203,1.713,0.654,2.691-2.141,4.996c-2.796,2.307-3.128-0.65-4.968,0.867c1.84-1.518-0.946-2.548,1.745-4.77
				C193.951,114.114,194.896,115.26,196.619,115.241z"/>
			<g>
				<line fill="none" x1="189.42" y1="121.085" x2="194.928" y2="116.541"/>
				<g>
					<polyline fill="none" stroke="#333333" stroke-width="0.9957" stroke-linecap="round" stroke-miterlimit="10" points="
						189.804,120.769 190.302,120.357 192.905,118.21 193.338,117.853 					"/>
					
						<line fill="none" stroke="#333333" stroke-width="0.9957" stroke-linecap="round" stroke-miterlimit="10" x1="194.544" y1="116.857" x2="194.489" y2="116.902"/>
				</g>
			</g>
		</g>
		<g>
			
				<path fill="#A1C453" stroke="#333333" stroke-width="1.4936" stroke-linecap="round" stroke-linejoin="round" stroke-miterlimit="10" d="
				M190.682,104.896c1.874,2.375,4.151,2.522,3.544,8.849c-0.606,6.325-4.687,3.069-5.083,7.231c0.396-4.162-4.332-1.986-3.75-8.077
				C185.976,106.806,188.57,107.054,190.682,104.896z"/>
			<g>
				<line fill="none" x1="189.143" y1="120.976" x2="190.336" y2="108.515"/>
				<g>
					<polyline fill="none" stroke="#333333" stroke-width="0.9957" stroke-linecap="round" stroke-miterlimit="10" points="
						189.19,120.48 189.252,119.838 190.086,111.125 190.14,110.566 					"/>
					
						<line fill="none" stroke="#333333" stroke-width="0.9957" stroke-linecap="round" stroke-miterlimit="10" x1="190.288" y1="109.01" x2="190.282" y2="109.08"/>
				</g>
			</g>
		</g>
		<g>
			
				<path fill="#A1C453" stroke="#333333" stroke-width="1.4936" stroke-linecap="round" stroke-linejoin="round" stroke-miterlimit="10" d="
				M202.072,121.442c-1.729,1.632-1.688,3.424-6.677,3.393c-4.994-0.032-2.729-3.453-6.017-3.473
				c3.287,0.02,1.252-3.529,6.059-3.498C200.248,117.894,200.234,119.939,202.072,121.442z"/>
			<g>
				<line fill="none" x1="189.218" y1="121.329" x2="199.052" y2="121.391"/>
				<g>
					<polyline fill="none" stroke="#333333" stroke-width="0.9957" stroke-linecap="round" stroke-miterlimit="10" points="
						189.716,121.332 190.36,121.336 196.43,121.374 196.99,121.378 					"/>
					
						<line fill="none" stroke="#333333" stroke-width="0.9957" stroke-linecap="round" stroke-miterlimit="10" x1="198.554" y1="121.388" x2="198.484" y2="121.387"/>
				</g>
			</g>
		</g>
		<path fill="#CC924C" stroke="#333333" stroke-width="2.6551" stroke-linecap="round" stroke-miterlimit="10" d="M220.479,176.359
			l-45.361-68.471c-0.57-0.871-1.736-1.114-2.605-0.546l0,0c-0.872,0.57-1.115,1.736-0.546,2.606l44.528,69.016"/>
		<g>
			<g>
				<path fill="#D3F46C" d="M179.269,121.637c1.414,1.677,1.116,5.153-0.471,5.598c-0.757,1.671-4.185,1.204-5.599-0.472
					c-1.414-1.677-1.991-4.026,0.896-5.305C175.743,118.939,177.854,119.962,179.269,121.637z"/>
				<g>
					<path fill="none" stroke="#333333" stroke-width="0.9957" stroke-linecap="round" stroke-miterlimit="10" d="M179.555,122.044
						c0.109,0.185,0.207,0.376,0.283,0.578c0.346,0.889,0.424,1.877,0.24,2.812c-0.095,0.464-0.259,0.928-0.562,1.3
						c-0.155,0.179-0.335,0.347-0.558,0.434l-0.164,0.07l-0.091,0.153c-0.055,0.108-0.136,0.196-0.221,0.28
						c-0.713,0.675-1.792,0.677-2.703,0.511c-0.924-0.201-1.838-0.611-2.485-1.318c-0.624-0.708-1.146-1.566-1.249-2.522
						c-0.049-0.474,0.032-0.965,0.26-1.386c0.224-0.423,0.576-0.762,0.964-1.036c0.95-0.323,1.284-1.366,2.198-1.76
						c0.429-0.21,0.928-0.262,1.394-0.163c0.111,0.03,0.241,0.049,0.338,0.093l0.173,0.064c0.116,0.04,0.222,0.106,0.333,0.158"/>
					
						<line fill="none" stroke="#333333" stroke-width="0.9957" stroke-linecap="round" stroke-miterlimit="10" x1="178.934" y1="121.269" x2="178.884" y2="121.22"/>
				</g>
			</g>
			
				<ellipse transform="matrix(-0.0877 -0.9961 0.9961 -0.0877 64.6333 308.436)" opacity="0.5" fill="#FFFFFF" enable-background="new    " cx="173.548" cy="124.623" rx="0.907" ry="0.748"/>
		</g>
		<g>
			<g>
				<path fill="#D3F46C" d="M211.841,145.485c0.983,3.351-1.692,8.22-4.288,7.844c-2.178,1.947-6.863-0.938-7.845-4.289
					c-0.981-3.352-0.311-7.145,4.716-7.146C208.445,139.288,210.86,142.134,211.841,145.485z"/>
				<g>
					<path fill="none" stroke="#333333" stroke-width="1.4936" stroke-linecap="round" stroke-miterlimit="10" d="M211.991,146.216
						c0.03,0.321,0.066,0.643,0.047,0.966c-0.039,1.533-0.567,3.039-1.427,4.304c-0.436,0.626-0.974,1.206-1.654,1.563
						c-0.346,0.163-0.715,0.299-1.102,0.287l-0.287-0.007c-0.084,0.036-0.157,0.105-0.236,0.156
						c-0.148,0.125-0.32,0.208-0.502,0.272c-0.718,0.285-1.524,0.223-2.253,0.009c-0.735-0.217-1.423-0.579-2.05-1.019
						c-1.229-0.897-2.291-2.108-2.771-3.574c-0.442-1.451-0.632-3.056-0.126-4.518c0.254-0.723,0.72-1.372,1.342-1.822
						c0.616-0.465,1.37-0.704,2.121-0.827c0.376-0.077,0.76-0.087,1.143-0.104c0.203,0.03,0.354-0.118,0.522-0.203
						c0.169-0.091,0.326-0.203,0.503-0.276c0.685-0.341,1.445-0.551,2.212-0.531c0.768,0.018,1.514,0.316,2.108,0.798
						c0.155,0.104,0.293,0.264,0.416,0.377c0.065,0.065,0.135,0.127,0.189,0.201c0.114,0.145,0.239,0.281,0.347,0.432"/>
					
						<line fill="none" stroke="#333333" stroke-width="1.4936" stroke-linecap="round" stroke-miterlimit="10" x1="211.606" y1="144.776" x2="211.568" y2="144.679"/>
				</g>
			</g>
			
				<ellipse transform="matrix(0.3218 -0.9468 0.9468 0.3218 -1.683 289.9692)" opacity="0.5" fill="#FFFFFF" enable-background="new    " cx="201.576" cy="146.159" rx="1.446" ry="1.19"/>
		</g>
		<g>
			
				<path fill="#A1C453" stroke="#333333" stroke-width="0.9957" stroke-linecap="round" stroke-linejoin="round" stroke-miterlimit="10" d="
				M171.211,108.013c0,0-0.552-2.879-0.508-3.475c0.028-0.479,2.25,1.736,2.903,2.676L171.211,108.013z"/>
			
				<path fill="#A1C453" stroke="#333333" stroke-width="0.9957" stroke-linecap="round" stroke-linejoin="round" stroke-miterlimit="10" d="
				M173.02,106.548l-0.684,4.459c0,0-2.988-3.349-2.898-5.224C169.438,105.783,171.505,106.462,173.02,106.548z"/>
			
				<path fill="#A1C453" stroke="#333333" stroke-width="0.9957" stroke-linecap="round" stroke-linejoin="round" stroke-miterlimit="10" d="
				M176.437,110.708c0,0-0.95-5.491-3.903-6.947l-0.441,4.296L176.437,110.708z"/>
		</g>
	</g>
</g>
<g id="calque08">
	<g>
		
			<polygon fill="#CC924C" stroke="#333333" stroke-width="0.9957" stroke-linecap="round" stroke-linejoin="round" stroke-miterlimit="10" points="
			203.563,144.059 204.427,152.718 202.891,150.366 		"/>
		
			<polygon fill="#CC924C" stroke="#333333" stroke-width="0.9957" stroke-linecap="round" stroke-linejoin="round" stroke-miterlimit="10" points="
			189.143,120.976 188.354,128.132 186.815,125.78 		"/>
		
			<polygon fill="#CC924C" stroke="#333333" stroke-width="0.9957" stroke-linecap="round" stroke-linejoin="round" stroke-miterlimit="10" points="
			183.186,145.67 198.185,150.051 196.646,147.698 		"/>
		
			<polygon fill="#CC924C" stroke="#333333" stroke-width="0.9957" stroke-linecap="round" stroke-linejoin="round" stroke-miterlimit="10" points="
			173.272,120.86 180.793,123.451 179.801,121.934 		"/>
		<g>
			
				<path fill="#A1C453" stroke="#333333" stroke-width="1.4936" stroke-linecap="round" stroke-linejoin="round" stroke-miterlimit="10" d="
				M191.803,159.936c2.181-1.558,2.407-3.568,7.981-2.77c5.572,0.8,2.521,4.274,6.189,4.801c-3.668-0.526-1.938,3.752-7.307,2.982
				C193.299,164.181,193.626,161.896,191.803,159.936z"/>
			<g>
				<line fill="none" x1="205.975" y1="161.967" x2="194.833" y2="160.359"/>
				<g>
					<polyline fill="none" stroke="#333333" stroke-width="0.9957" stroke-linecap="round" stroke-miterlimit="10" points="
						205.481,161.896 204.844,161.804 197.428,160.733 196.873,160.653 					"/>
					
						<line fill="none" stroke="#333333" stroke-width="0.9957" stroke-linecap="round" stroke-miterlimit="10" x1="195.326" y1="160.431" x2="195.396" y2="160.44"/>
				</g>
			</g>
		</g>
		<g>
			
				<path fill="#A1C453" stroke="#333333" stroke-width="1.4936" stroke-linecap="round" stroke-linejoin="round" stroke-miterlimit="10" d="
				M204.742,129.793c1.687,2.081,3.704,2.187,3.242,7.798c-0.463,5.612-4.115,2.776-4.422,6.468c0.307-3.691-3.859-1.71-3.415-7.114
				C200.594,131.539,202.895,131.729,204.742,129.793z"/>
			<g>
				<line fill="none" x1="203.403" y1="144.024" x2="204.313" y2="132.969"/>
				<g>
					<polyline fill="none" stroke="#333333" stroke-width="0.9957" stroke-linecap="round" stroke-miterlimit="10" points="
						203.444,143.528 203.497,142.886 204.098,135.582 204.144,135.023 					"/>
					
						<line fill="none" stroke="#333333" stroke-width="0.9957" stroke-linecap="round" stroke-miterlimit="10" x1="204.271" y1="133.465" x2="204.266" y2="133.535"/>
				</g>
			</g>
		</g>
		<g>
			
				<path fill="#A1C453" stroke="#333333" stroke-width="1.4936" stroke-linecap="round" stroke-linejoin="round" stroke-miterlimit="10" d="
				M171.906,134.12c3.023,0.064,4.585-1.6,9.085,2.887c4.497,4.488-0.607,5.57,2.354,8.522c-2.961-2.952-4.287,2.082-8.619-2.239
				C170.391,138.97,172.23,137.123,171.906,134.12z"/>
			<g>
				<line fill="none" x1="183.344" y1="145.529" x2="174.479" y2="136.69"/>
				<g>
					<polyline fill="none" stroke="#333333" stroke-width="0.9957" stroke-linecap="round" stroke-miterlimit="10" points="
						182.991,145.178 182.534,144.723 176.336,138.542 175.939,138.146 					"/>
					
						<line fill="none" stroke="#333333" stroke-width="0.9957" stroke-linecap="round" stroke-miterlimit="10" x1="174.832" y1="137.042" x2="174.882" y2="137.092"/>
				</g>
			</g>
		</g>
		<g>
			
				<path fill="#A1C453" stroke="#333333" stroke-width="1.4936" stroke-linecap="round" stroke-linejoin="round" stroke-miterlimit="10" d="
				M167.377,145.951c2.183-2.093,2.108-4.374,8.464-4.384c6.354-0.009,3.509,4.368,7.691,4.36c-4.184,0.008-1.561,4.506-7.679,4.515
				C169.732,150.45,169.73,147.846,167.377,145.951z"/>
			<g>
				<line fill="none" x1="183.532" y1="145.928" x2="171.013" y2="145.948"/>
				<g>
					<polyline fill="none" stroke="#333333" stroke-width="0.9957" stroke-linecap="round" stroke-miterlimit="10" points="
						183.034,145.929 182.39,145.93 173.635,145.944 173.074,145.945 					"/>
					
						<line fill="none" stroke="#333333" stroke-width="0.9957" stroke-linecap="round" stroke-miterlimit="10" x1="171.511" y1="145.947" x2="171.58" y2="145.947"/>
				</g>
			</g>
		</g>
		<g>
			
				<path fill="#A1C453" stroke="#333333" stroke-width="1.4936" stroke-linecap="round" stroke-linejoin="round" stroke-miterlimit="10" d="
				M161.658,116.721c2.179-1.009,2.711-2.738,7.48-1.107c4.767,1.632,1.506,4.181,4.646,5.254c-3.141-1.073-2.33,2.978-6.925,1.406
				C162.268,120.704,162.937,118.747,161.658,116.721z"/>
			<g>
				<line fill="none" x1="173.785" y1="120.867" x2="164.391" y2="117.653"/>
				<g>
					<polyline fill="none" stroke="#333333" stroke-width="0.9957" stroke-linecap="round" stroke-miterlimit="10" points="
						173.314,120.706 172.704,120.497 166.871,118.502 166.341,118.32 					"/>
					
						<line fill="none" stroke="#333333" stroke-width="0.9957" stroke-linecap="round" stroke-miterlimit="10" x1="164.861" y1="117.814" x2="164.928" y2="117.837"/>
				</g>
			</g>
		</g>
		<g>
			
				<path fill="#A1C453" stroke="#333333" stroke-width="1.4936" stroke-linecap="round" stroke-linejoin="round" stroke-miterlimit="10" d="
				M162.553,126.729c0.825-2.252-0.021-3.853,4.504-6.071c4.527-2.219,4.022,1.89,7.002,0.429c-2.979,1.461,0.457,3.754-3.899,5.891
				C165.798,129.114,164.889,127.259,162.553,126.729z"/>
			<g>
				<line fill="none" x1="174.059" y1="121.086" x2="165.142" y2="125.46"/>
				<g>
					<polyline fill="none" stroke="#333333" stroke-width="0.9957" stroke-linecap="round" stroke-miterlimit="10" points="
						173.611,121.305 173.032,121.589 167.496,124.306 166.992,124.552 					"/>
					
						<line fill="none" stroke="#333333" stroke-width="0.9957" stroke-linecap="round" stroke-miterlimit="10" x1="165.589" y1="125.24" x2="165.651" y2="125.21"/>
				</g>
			</g>
		</g>
		<g>
			
				<path fill="#A1C453" stroke="#333333" stroke-width="1.4936" stroke-linecap="round" stroke-linejoin="round" stroke-miterlimit="10" d="
				M202.02,110.548c-0.356,3.004,1.149,4.718-3.751,8.762c-4.901,4.045-5.482-1.143-8.71,1.52c3.228-2.662-1.66-4.469,3.063-8.364
				C197.341,108.569,199,110.58,202.02,110.548z"/>
			<g>
				<line fill="none" x1="189.397" y1="120.796" x2="199.054" y2="112.827"/>
				<g>
					<polyline fill="none" stroke="#333333" stroke-width="0.9957" stroke-linecap="round" stroke-miterlimit="10" points="
						189.781,120.479 190.279,120.068 197.031,114.496 197.464,114.14 					"/>
					
						<line fill="none" stroke="#333333" stroke-width="0.9957" stroke-linecap="round" stroke-miterlimit="10" x1="198.67" y1="113.145" x2="198.615" y2="113.188"/>
				</g>
			</g>
		</g>
		<g>
			
				<path fill="#A1C453" stroke="#333333" stroke-width="1.4936" stroke-linecap="round" stroke-linejoin="round" stroke-miterlimit="10" d="
				M190.682,104.896c1.874,2.375,4.151,2.522,3.544,8.849c-0.604,6.323-4.687,3.069-5.083,7.231c0.396-4.162-4.332-1.986-3.75-8.077
				C185.976,106.806,188.57,107.054,190.682,104.896z"/>
			<g>
				<line fill="none" x1="189.143" y1="120.976" x2="190.336" y2="108.515"/>
				<g>
					<polyline fill="none" stroke="#333333" stroke-width="0.9957" stroke-linecap="round" stroke-miterlimit="10" points="
						189.19,120.48 189.252,119.838 190.086,111.125 190.14,110.566 					"/>
					
						<line fill="none" stroke="#333333" stroke-width="0.9957" stroke-linecap="round" stroke-miterlimit="10" x1="190.288" y1="109.01" x2="190.282" y2="109.08"/>
				</g>
			</g>
		</g>
		<g>
			
				<path fill="#A1C453" stroke="#333333" stroke-width="1.4936" stroke-linecap="round" stroke-linejoin="round" stroke-miterlimit="10" d="
				M202.072,121.442c-1.729,1.632-1.688,3.424-6.677,3.393c-4.994-0.032-2.729-3.453-6.017-3.473
				c3.287,0.02,1.252-3.529,6.059-3.498C200.248,117.894,200.234,119.939,202.072,121.442z"/>
			<g>
				<line fill="none" x1="189.218" y1="121.329" x2="199.052" y2="121.391"/>
				<g>
					<polyline fill="none" stroke="#333333" stroke-width="0.9957" stroke-linecap="round" stroke-miterlimit="10" points="
						189.716,121.332 190.36,121.336 196.43,121.374 196.99,121.378 					"/>
					
						<line fill="none" stroke="#333333" stroke-width="0.9957" stroke-linecap="round" stroke-miterlimit="10" x1="198.554" y1="121.388" x2="198.484" y2="121.387"/>
				</g>
			</g>
		</g>
		<path fill="#CC924C" stroke="#333333" stroke-width="2.6551" stroke-linecap="round" stroke-miterlimit="10" d="M220.479,176.359
			l-45.361-68.471c-0.57-0.871-1.736-1.114-2.605-0.546l0,0c-0.872,0.57-1.115,1.736-0.546,2.606l44.528,69.016"/>
		<g>
			<g>
				<path fill="#D3F46C" d="M182.257,122.216c2.253,2.669,1.773,8.205-0.752,8.911c-1.203,2.659-6.655,1.917-8.908-0.753
					c-2.253-2.668-3.171-6.408,1.424-8.441C176.646,117.923,180.004,119.55,182.257,122.216z"/>
				<g>
					<path fill="none" stroke="#333333" stroke-width="1.4936" stroke-linecap="round" stroke-miterlimit="10" d="M182.689,122.824
						c0.159,0.28,0.321,0.56,0.434,0.863c0.584,1.419,0.71,3.01,0.437,4.514c-0.146,0.748-0.4,1.496-0.881,2.1
						c-0.249,0.288-0.533,0.563-0.89,0.708l-0.266,0.11c-0.064,0.063-0.103,0.16-0.154,0.237c-0.086,0.174-0.209,0.32-0.35,0.453
						c-0.541,0.551-1.305,0.819-2.057,0.919c-0.761,0.1-1.534,0.046-2.285-0.102c-1.487-0.324-2.949-1.002-3.98-2.148
						c-0.991-1.147-1.813-2.539-1.942-4.08c-0.061-0.764,0.104-1.546,0.489-2.21c0.376-0.674,0.969-1.197,1.604-1.613
						c0.313-0.224,0.66-0.388,1.004-0.558c0.197-0.056,0.275-0.251,0.396-0.397c0.116-0.151,0.216-0.317,0.349-0.456
						c0.488-0.589,1.099-1.089,1.807-1.381c0.709-0.294,1.514-0.323,2.251-0.124c0.187,0.031,0.375,0.123,0.534,0.177
						c0.086,0.032,0.174,0.062,0.255,0.106c0.163,0.086,0.332,0.16,0.49,0.255"/>
					
						<line fill="none" stroke="#333333" stroke-width="1.4936" stroke-linecap="round" stroke-miterlimit="10" x1="181.755" y1="121.663" x2="181.681" y2="121.589"/>
				</g>
			</g>
			
				<ellipse transform="matrix(-0.0885 -0.9961 0.9961 -0.0885 61.9851 310.6907)" opacity="0.5" fill="#FFFFFF" enable-background="new    " cx="173.153" cy="126.983" rx="1.446" ry="1.19"/>
		</g>
		<g>
			<g>
				<path fill="#EF4529" d="M211.842,145.485c0.982,3.351-1.693,8.22-4.289,7.844c-2.178,1.947-6.863-0.938-7.845-4.289
					c-0.981-3.352-0.311-7.145,4.716-7.146C208.445,139.288,210.86,142.134,211.842,145.485z"/>
				<g>
					<path fill="none" stroke="#333333" stroke-width="1.4936" stroke-linecap="round" stroke-miterlimit="10" d="M211.992,146.217
						c0.03,0.32,0.066,0.642,0.047,0.965c-0.04,1.533-0.568,3.039-1.428,4.304c-0.436,0.626-0.974,1.206-1.654,1.563
						c-0.346,0.163-0.715,0.299-1.102,0.287l-0.287-0.007c-0.084,0.036-0.157,0.105-0.236,0.156
						c-0.148,0.125-0.32,0.208-0.502,0.272c-0.719,0.285-1.524,0.223-2.253,0.009c-0.735-0.217-1.423-0.579-2.05-1.019
						c-1.229-0.897-2.291-2.109-2.771-3.574c-0.442-1.451-0.632-3.057-0.126-4.518c0.254-0.723,0.721-1.372,1.342-1.822
						c0.616-0.465,1.37-0.704,2.121-0.827c0.377-0.077,0.761-0.087,1.144-0.104c0.202,0.03,0.354-0.119,0.522-0.203
						c0.168-0.091,0.325-0.203,0.503-0.276c0.685-0.342,1.445-0.551,2.211-0.531c0.769,0.018,1.515,0.317,2.108,0.798
						c0.155,0.104,0.293,0.265,0.417,0.378c0.064,0.064,0.134,0.126,0.188,0.2c0.115,0.145,0.239,0.281,0.348,0.432"/>
					
						<line fill="none" stroke="#333333" stroke-width="1.4936" stroke-linecap="round" stroke-miterlimit="10" x1="211.606" y1="144.776" x2="211.568" y2="144.679"/>
				</g>
			</g>
			
				<ellipse transform="matrix(0.3218 -0.9468 0.9468 0.3218 -1.683 289.9692)" opacity="0.5" fill="#FFFFFF" enable-background="new    " cx="201.576" cy="146.159" rx="1.446" ry="1.19"/>
		</g>
		<g>
			
				<path fill="#A1C453" stroke="#333333" stroke-width="0.9957" stroke-linecap="round" stroke-linejoin="round" stroke-miterlimit="10" d="
				M171.211,108.013c0,0-0.552-2.879-0.508-3.475c0.03-0.479,2.25,1.736,2.903,2.676L171.211,108.013z"/>
			
				<path fill="#A1C453" stroke="#333333" stroke-width="0.9957" stroke-linecap="round" stroke-linejoin="round" stroke-miterlimit="10" d="
				M173.02,106.548l-0.684,4.459c0,0-2.986-3.35-2.898-5.224C169.438,105.783,171.505,106.462,173.02,106.548z"/>
			
				<path fill="#A1C453" stroke="#333333" stroke-width="0.9957" stroke-linecap="round" stroke-linejoin="round" stroke-miterlimit="10" d="
				M176.437,110.708c0,0-0.95-5.491-3.903-6.947l-0.441,4.296L176.437,110.708z"/>
		</g>
	</g>
</g>
<g id="calque09">
	<g>
		
			<polygon fill="#CC924C" stroke="#333333" stroke-width="0.9957" stroke-linecap="round" stroke-linejoin="round" stroke-miterlimit="10" points="
			203.565,144.058 204.43,152.718 202.891,150.364 		"/>
		
			<polygon fill="#CC924C" stroke="#333333" stroke-width="0.9957" stroke-linecap="round" stroke-linejoin="round" stroke-miterlimit="10" points="
			189.144,120.976 188.355,128.131 186.817,125.78 		"/>
		
			<polygon fill="#CC924C" stroke="#333333" stroke-width="0.9957" stroke-linecap="round" stroke-linejoin="round" stroke-miterlimit="10" points="
			183.188,145.668 198.187,150.05 196.648,147.698 		"/>
		
			<polygon fill="#CC924C" stroke="#333333" stroke-width="0.9957" stroke-linecap="round" stroke-linejoin="round" stroke-miterlimit="10" points="
			173.275,120.859 180.795,123.45 179.802,121.932 		"/>
		<g>
			
				<path fill="#A1C453" stroke="#333333" stroke-width="1.4936" stroke-linecap="round" stroke-linejoin="round" stroke-miterlimit="10" d="
				M191.806,159.935c2.18-1.558,2.405-3.567,7.979-2.77c5.573,0.8,2.523,4.275,6.19,4.801c-3.667-0.525-1.938,3.752-7.307,2.982
				C193.301,164.18,193.629,161.894,191.806,159.935z"/>
			<g>
				<line fill="none" x1="205.977" y1="161.966" x2="194.834" y2="160.357"/>
				<g>
					<polyline fill="none" stroke="#333333" stroke-width="0.9957" stroke-linecap="round" stroke-miterlimit="10" points="
						205.483,161.895 204.846,161.803 197.429,160.732 196.874,160.652 					"/>
					
						<line fill="none" stroke="#333333" stroke-width="0.9957" stroke-linecap="round" stroke-miterlimit="10" x1="195.327" y1="160.429" x2="195.396" y2="160.438"/>
				</g>
			</g>
		</g>
		<g>
			
				<path fill="#A1C453" stroke="#333333" stroke-width="1.4936" stroke-linecap="round" stroke-linejoin="round" stroke-miterlimit="10" d="
				M204.744,129.791c1.687,2.083,3.705,2.188,3.241,7.798c-0.464,5.613-4.116,2.776-4.421,6.469
				c0.305-3.692-3.861-1.709-3.414-7.114C200.596,131.539,202.896,131.729,204.744,129.791z"/>
			<g>
				<line fill="none" x1="203.406" y1="144.023" x2="204.316" y2="132.969"/>
				<g>
					<polyline fill="none" stroke="#333333" stroke-width="0.9957" stroke-linecap="round" stroke-miterlimit="10" points="
						203.447,143.527 203.5,142.885 204.102,135.582 204.147,135.023 					"/>
					
						<line fill="none" stroke="#333333" stroke-width="0.9957" stroke-linecap="round" stroke-miterlimit="10" x1="204.275" y1="133.465" x2="204.27" y2="133.535"/>
				</g>
			</g>
		</g>
		<g>
			
				<path fill="#A1C453" stroke="#333333" stroke-width="1.4936" stroke-linecap="round" stroke-linejoin="round" stroke-miterlimit="10" d="
				M171.908,134.119c3.021,0.064,4.584-1.6,9.083,2.888c4.5,4.486-0.606,5.569,2.354,8.521c-2.962-2.952-4.287,2.082-8.62-2.238
				C170.392,138.968,172.231,137.124,171.908,134.119z"/>
			<g>
				<line fill="none" x1="183.347" y1="145.528" x2="174.48" y2="136.688"/>
				<g>
					<polyline fill="none" stroke="#333333" stroke-width="0.9957" stroke-linecap="round" stroke-miterlimit="10" points="
						182.994,145.177 182.537,144.722 176.337,138.54 175.94,138.144 					"/>
					
						<line fill="none" stroke="#333333" stroke-width="0.9957" stroke-linecap="round" stroke-miterlimit="10" x1="174.833" y1="137.04" x2="174.883" y2="137.09"/>
				</g>
			</g>
		</g>
		<g>
			
				<path fill="#A1C453" stroke="#333333" stroke-width="1.4936" stroke-linecap="round" stroke-linejoin="round" stroke-miterlimit="10" d="
				M167.377,145.95c2.186-2.094,2.11-4.373,8.467-4.383c6.353-0.009,3.509,4.366,7.689,4.36c-4.182,0.006-1.56,4.505-7.679,4.513
				C169.735,150.449,169.732,147.845,167.377,145.95z"/>
			<g>
				<line fill="none" x1="183.533" y1="145.928" x2="171.015" y2="145.946"/>
				<g>
					<polyline fill="none" stroke="#333333" stroke-width="0.9957" stroke-linecap="round" stroke-miterlimit="10" points="
						183.035,145.929 182.391,145.93 173.637,145.942 173.076,145.943 					"/>
					
						<line fill="none" stroke="#333333" stroke-width="0.9957" stroke-linecap="round" stroke-miterlimit="10" x1="171.513" y1="145.945" x2="171.582" y2="145.945"/>
				</g>
			</g>
		</g>
		<g>
			
				<path fill="#A1C453" stroke="#333333" stroke-width="1.4936" stroke-linecap="round" stroke-linejoin="round" stroke-miterlimit="10" d="
				M161.66,116.72c2.18-1.008,2.712-2.738,7.48-1.107c4.77,1.632,1.507,4.182,4.646,5.254c-3.14-1.072-2.328,2.978-6.925,1.406
				C162.271,120.702,162.938,118.747,161.66,116.72z"/>
			<g>
				<line fill="none" x1="173.787" y1="120.866" x2="164.391" y2="117.653"/>
				<g>
					<polyline fill="none" stroke="#333333" stroke-width="0.9957" stroke-linecap="round" stroke-miterlimit="10" points="
						173.316,120.705 172.706,120.496 166.871,118.502 166.341,118.32 					"/>
					
						<line fill="none" stroke="#333333" stroke-width="0.9957" stroke-linecap="round" stroke-miterlimit="10" x1="164.861" y1="117.814" x2="164.928" y2="117.837"/>
				</g>
			</g>
		</g>
		<g>
			
				<path fill="#A1C453" stroke="#333333" stroke-width="1.4936" stroke-linecap="round" stroke-linejoin="round" stroke-miterlimit="10" d="
				M162.555,126.728c0.826-2.253-0.021-3.852,4.506-6.07c4.524-2.221,4.021,1.889,7,0.428c-2.979,1.461,0.457,3.754-3.9,5.891
				C165.801,129.113,164.891,127.258,162.555,126.728z"/>
			<g>
				<line fill="none" x1="174.061" y1="121.085" x2="165.145" y2="125.458"/>
				<g>
					<polyline fill="none" stroke="#333333" stroke-width="0.9957" stroke-linecap="round" stroke-miterlimit="10" points="
						173.613,121.305 173.034,121.588 167.499,124.304 166.995,124.551 					"/>
					
						<line fill="none" stroke="#333333" stroke-width="0.9957" stroke-linecap="round" stroke-miterlimit="10" x1="165.592" y1="125.238" x2="165.654" y2="125.208"/>
				</g>
			</g>
		</g>
		<g>
			
				<path fill="#A1C453" stroke="#333333" stroke-width="1.4936" stroke-linecap="round" stroke-linejoin="round" stroke-miterlimit="10" d="
				M202.02,110.548c-0.354,3.002,1.151,4.717-3.75,8.762c-4.9,4.045-5.483-1.144-8.709,1.519c3.226-2.662-1.658-4.47,3.062-8.363
				C197.344,108.569,199,110.578,202.02,110.548z"/>
			<g>
				<line fill="none" x1="189.398" y1="120.794" x2="199.057" y2="112.826"/>
				<g>
					<polyline fill="none" stroke="#333333" stroke-width="0.9957" stroke-linecap="round" stroke-miterlimit="10" points="
						189.782,120.478 190.28,120.066 197.034,114.495 197.467,114.138 					"/>
					
						<line fill="none" stroke="#333333" stroke-width="0.9957" stroke-linecap="round" stroke-miterlimit="10" x1="198.673" y1="113.143" x2="198.618" y2="113.188"/>
				</g>
			</g>
		</g>
		<g>
			
				<path fill="#A1C453" stroke="#333333" stroke-width="1.4936" stroke-linecap="round" stroke-linejoin="round" stroke-miterlimit="10" d="
				M190.685,104.896c1.873,2.375,4.149,2.521,3.544,8.848c-0.607,6.325-4.687,3.07-5.085,7.232c0.398-4.162-4.332-1.988-3.747-8.079
				C185.978,106.805,188.572,107.053,190.685,104.896z"/>
			<g>
				<line fill="none" x1="189.144" y1="120.976" x2="190.337" y2="108.515"/>
				<g>
					<polyline fill="none" stroke="#333333" stroke-width="0.9957" stroke-linecap="round" stroke-miterlimit="10" points="
						189.191,120.48 189.253,119.838 190.087,111.125 190.141,110.566 					"/>
					
						<line fill="none" stroke="#333333" stroke-width="0.9957" stroke-linecap="round" stroke-miterlimit="10" x1="190.289" y1="109.01" x2="190.283" y2="109.08"/>
				</g>
			</g>
		</g>
		<g>
			
				<path fill="#A1C453" stroke="#333333" stroke-width="1.4936" stroke-linecap="round" stroke-linejoin="round" stroke-miterlimit="10" d="
				M202.072,121.44c-1.728,1.633-1.684,3.424-6.676,3.393s-2.729-3.451-6.016-3.472c3.285,0.021,1.252-3.53,6.06-3.499
				C200.248,117.893,200.236,119.938,202.072,121.44z"/>
			<g>
				<line fill="none" x1="189.221" y1="121.328" x2="199.054" y2="121.39"/>
				<g>
					<polyline fill="none" stroke="#333333" stroke-width="0.9957" stroke-linecap="round" stroke-miterlimit="10" points="
						189.719,121.331 190.363,121.335 196.432,121.373 196.992,121.377 					"/>
					
						<line fill="none" stroke="#333333" stroke-width="0.9957" stroke-linecap="round" stroke-miterlimit="10" x1="198.556" y1="121.387" x2="198.486" y2="121.386"/>
				</g>
			</g>
		</g>
		<path fill="#CC924C" stroke="#333333" stroke-width="2.6551" stroke-linecap="round" stroke-miterlimit="10" d="M220.48,176.358
			l-45.36-68.47c-0.568-0.872-1.736-1.114-2.607-0.546l0,0c-0.869,0.568-1.113,1.735-0.544,2.605l44.528,69.016"/>
		<g>
			<g>
				<path fill="#EF4529" d="M182.26,122.216c2.252,2.669,1.772,8.203-0.752,8.909c-1.203,2.66-6.657,1.917-8.91-0.751
					c-2.252-2.669-3.171-6.408,1.424-8.442C176.646,117.921,180.007,119.548,182.26,122.216z"/>
				<g>
					<path fill="none" stroke="#333333" stroke-width="1.4936" stroke-linecap="round" stroke-miterlimit="10" d="M182.692,122.824
						c0.158,0.28,0.321,0.56,0.434,0.863c0.583,1.419,0.709,3.01,0.436,4.514c-0.146,0.748-0.402,1.497-0.883,2.1
						c-0.249,0.288-0.533,0.563-0.89,0.707l-0.267,0.111c-0.062,0.066-0.102,0.16-0.152,0.238c-0.086,0.175-0.21,0.319-0.351,0.453
						c-0.541,0.55-1.305,0.818-2.058,0.918c-0.76,0.099-1.534,0.044-2.285-0.104c-1.486-0.324-2.948-1.002-3.98-2.148
						c-0.99-1.148-1.813-2.54-1.94-4.082c-0.061-0.763,0.104-1.545,0.491-2.209c0.376-0.674,0.969-1.197,1.605-1.613
						c0.313-0.223,0.66-0.387,1.003-0.558c0.198-0.055,0.274-0.253,0.396-0.397c0.117-0.151,0.216-0.318,0.348-0.457
						c0.488-0.589,1.101-1.088,1.81-1.38c0.709-0.293,1.513-0.321,2.251-0.122c0.185,0.031,0.375,0.123,0.532,0.177
						c0.087,0.032,0.176,0.062,0.256,0.106c0.162,0.086,0.332,0.16,0.49,0.255"/>
					
						<line fill="none" stroke="#333333" stroke-width="1.4936" stroke-linecap="round" stroke-miterlimit="10" x1="181.758" y1="121.663" x2="181.684" y2="121.589"/>
				</g>
			</g>
			
				<ellipse transform="matrix(-0.0888 -0.9961 0.9961 -0.0888 62.0314 310.7278)" opacity="0.5" fill="#FFFFFF" enable-background="new    " cx="173.151" cy="126.989" rx="1.447" ry="1.19"/>
		</g>
		<g>
			<g>
				<path fill="#EF4529" d="M211.844,145.483c0.981,3.352-1.695,8.222-4.291,7.846c-2.175,1.945-6.861-0.939-7.844-4.29
					c-0.983-3.351-0.31-7.144,4.715-7.146C208.447,139.288,210.861,142.134,211.844,145.483z"/>
				<g>
					<path fill="none" stroke="#333333" stroke-width="1.4936" stroke-linecap="round" stroke-miterlimit="10" d="M211.994,146.215
						c0.03,0.32,0.065,0.642,0.046,0.965c-0.04,1.533-0.568,3.039-1.427,4.305c-0.436,0.625-0.974,1.206-1.654,1.564
						c-0.346,0.162-0.715,0.298-1.101,0.287l-0.287-0.007c-0.086,0.033-0.157,0.104-0.237,0.155
						c-0.148,0.124-0.32,0.208-0.502,0.272c-0.717,0.285-1.524,0.222-2.253,0.009c-0.735-0.217-1.421-0.579-2.049-1.018
						c-1.229-0.898-2.292-2.109-2.772-3.574c-0.443-1.451-0.632-3.057-0.127-4.518c0.255-0.723,0.721-1.372,1.343-1.822
						c0.615-0.465,1.369-0.704,2.12-0.828c0.377-0.077,0.761-0.086,1.144-0.104c0.202,0.03,0.354-0.118,0.522-0.203
						c0.168-0.091,0.326-0.203,0.503-0.276c0.685-0.341,1.445-0.551,2.212-0.531c0.768,0.019,1.514,0.317,2.108,0.798
						c0.155,0.104,0.293,0.265,0.417,0.378c0.064,0.064,0.134,0.126,0.188,0.2c0.115,0.144,0.239,0.281,0.347,0.431"/>
					
						<line fill="none" stroke="#333333" stroke-width="1.4936" stroke-linecap="round" stroke-miterlimit="10" x1="211.608" y1="144.774" x2="211.57" y2="144.677"/>
				</g>
			</g>
			
				<ellipse transform="matrix(0.3225 -0.9466 0.9466 0.3225 -1.7701 289.8443)" opacity="0.5" fill="#FFFFFF" enable-background="new    " cx="201.594" cy="146.159" rx="1.446" ry="1.19"/>
		</g>
		<g>
			
				<path fill="#A1C453" stroke="#333333" stroke-width="0.9957" stroke-linecap="round" stroke-linejoin="round" stroke-miterlimit="10" d="
				M171.214,108.012c0,0-0.553-2.879-0.509-3.474c0.028-0.479,2.25,1.736,2.901,2.676L171.214,108.012z"/>
			
				<path fill="#A1C453" stroke="#333333" stroke-width="0.9957" stroke-linecap="round" stroke-linejoin="round" stroke-miterlimit="10" d="
				M173.021,106.548l-0.683,4.457c0,0-2.989-3.348-2.898-5.224C169.44,105.781,171.508,106.461,173.021,106.548z"/>
			
				<path fill="#A1C453" stroke="#333333" stroke-width="0.9957" stroke-linecap="round" stroke-linejoin="round" stroke-miterlimit="10" d="
				M176.439,110.707c0,0-0.951-5.49-3.905-6.948l-0.44,4.297L176.439,110.707z"/>
		</g>
	</g>
</g>
</svg>
