<?xml version="1.0" encoding="utf-8"?>
<!-- Generator: Adobe Illustrator 16.0.0, SVG Export Plug-In . SVG Version: 6.00 Build 0)  -->
<!DOCTYPE svg PUBLIC "-//W3C//DTD SVG 1.1//EN" "http://www.w3.org/Graphics/SVG/1.1/DTD/svg11.dtd">
<svg version="1.1" id="Calque_1" xmlns="http://www.w3.org/2000/svg" xmlns:xlink="http://www.w3.org/1999/xlink" x="0px" y="0px"
	 width="320px" height="410px" viewBox="0 0 320 410" enable-background="new 0 0 320 410" xml:space="preserve">
<g id="calque01">
	<g>
		<path fill="#CC924C" stroke="#333333" stroke-width="2.4893" stroke-linecap="round" stroke-miterlimit="10" d="M86.621,179.335
			l-5.641-6.784c-0.708-0.76-0.665-1.952,0.097-2.661l0,0c0.761-0.708,1.951-0.666,2.658,0.094l6.369,6.105"/>
		<g>
			
				<path fill="#A1C453" stroke="#333333" stroke-width="0.9957" stroke-linecap="round" stroke-linejoin="round" stroke-miterlimit="10" d="
				M82.038,168.791c0,0-2.664-1.226-3.253-1.328c-0.473-0.084,1.147,2.602,1.902,3.461L82.038,168.791z"/>
			
				<path fill="#A1C453" stroke="#333333" stroke-width="0.9957" stroke-linecap="round" stroke-linejoin="round" stroke-miterlimit="10" d="
				M80.183,170.195l4.492,0.402c0,0-2.536-3.701-4.379-4.063C80.296,166.534,80.462,168.705,80.183,170.195z"/>
			
				<path fill="#A1C453" stroke="#333333" stroke-width="0.9957" stroke-linecap="round" stroke-linejoin="round" stroke-miterlimit="10" d="
				M83.402,174.508c0,0-5.102-2.237-5.811-5.455l4.277,0.601L83.402,174.508z"/>
		</g>
	</g>
</g>
<g id="calque02">
	<g>
		<g>
			
				<path fill="#A1C453" stroke="#333333" stroke-width="0.9957" stroke-linecap="round" stroke-linejoin="round" stroke-miterlimit="10" d="
				M76.678,154.733c-0.934,0.8-1.853,0.68-2.109,3.25c-0.258,2.569,1.626,1.593,1.457,3.284c0.169-1.691,1.886-0.451,2.132-2.926
				C78.404,155.865,77.351,155.76,76.678,154.733z"/>
			<g>
				<line fill="none" x1="76.025" y1="161.266" x2="76.531" y2="156.204"/>
				<g>
					<polyline fill="none" stroke="#333333" stroke-width="0.9957" stroke-linecap="round" stroke-miterlimit="10" points="
						76.075,160.771 76.139,160.129 76.271,158.813 76.326,158.255 					"/>
					
						<line fill="none" stroke="#333333" stroke-width="0.9957" stroke-linecap="round" stroke-miterlimit="10" x1="76.481" y1="156.7" x2="76.475" y2="156.769"/>
				</g>
			</g>
		</g>
		<path fill="#CC924C" stroke="#333333" stroke-width="2.4893" stroke-linecap="round" stroke-miterlimit="10" d="M86.621,179.335
			l-18.3-20.375c-0.708-0.76-0.666-1.951,0.096-2.661l0,0c0.761-0.708,1.952-0.666,2.66,0.094l19.026,19.696"/>
		<g>
			
				<path fill="#A1C453" stroke="#333333" stroke-width="0.9957" stroke-linecap="round" stroke-linejoin="round" stroke-miterlimit="10" d="
				M69.378,155.199c0,0-2.665-1.226-3.253-1.328c-0.472-0.083,1.146,2.602,1.902,3.461L69.378,155.199z"/>
			
				<path fill="#A1C453" stroke="#333333" stroke-width="0.9957" stroke-linecap="round" stroke-linejoin="round" stroke-miterlimit="10" d="
				M67.521,156.604l4.492,0.402c0,0-2.535-3.702-4.378-4.063C67.636,152.943,67.802,155.113,67.521,156.604z"/>
			
				<path fill="#A1C453" stroke="#333333" stroke-width="0.9957" stroke-linecap="round" stroke-linejoin="round" stroke-miterlimit="10" d="
				M70.742,160.917c0,0-5.103-2.237-5.812-5.456l4.276,0.6L70.742,160.917z"/>
		</g>
	</g>
</g>
<g id="calque03">
	<g>
		<g>
			
				<path fill="#A1C453" stroke="#333333" stroke-width="1.4936" stroke-linecap="round" stroke-linejoin="round" stroke-miterlimit="10" d="
				M82.752,149.241c-2.438,1.116-4.293,0.313-6.371,5.546c-2.077,5.233,2.455,4.314,1.088,7.758
				c1.367-3.444,4.219,0.183,6.221-4.857C85.69,152.647,83.545,151.796,82.752,149.241z"/>
			<g>
				<line fill="none" x1="77.469" y1="162.545" x2="81.563" y2="152.234"/>
				<g>
					<polyline fill="none" stroke="#333333" stroke-width="0.9957" stroke-linecap="round" stroke-miterlimit="10" points="
						77.652,162.083 77.891,161.483 80.595,154.671 80.802,154.15 					"/>
					
						<line fill="none" stroke="#333333" stroke-width="0.9957" stroke-linecap="round" stroke-miterlimit="10" x1="81.379" y1="152.697" x2="81.353" y2="152.762"/>
				</g>
			</g>
		</g>
		<g>
			
				<path fill="#A1C453" stroke="#333333" stroke-width="0.9957" stroke-linecap="round" stroke-linejoin="round" stroke-miterlimit="10" d="
				M63.306,160.743c0.8,0.903,0.696,1.809,3.224,2.018c2.526,0.211,1.537-1.622,3.199-1.483c-1.662-0.139-0.473-1.842-2.904-2.044
				C64.39,159.031,64.303,160.067,63.306,160.743z"/>
			<g>
				<line fill="none" x1="69.729" y1="161.278" x2="65.303" y2="160.94"/>
				<g>
					<polyline fill="none" stroke="#333333" stroke-width="0.9957" stroke-linecap="round" stroke-miterlimit="10" points="
						69.232,161.24 68.589,161.191 67.917,161.14 67.358,161.097 					"/>
					
						<line fill="none" stroke="#333333" stroke-width="0.9957" stroke-linecap="round" stroke-miterlimit="10" x1="65.799" y1="160.979" x2="65.869" y2="160.984"/>
				</g>
			</g>
		</g>
		<path fill="#CC924C" stroke="#333333" stroke-width="2.4893" stroke-linecap="round" stroke-miterlimit="10" d="M86.621,179.335
			l-24.133-26.637c-0.709-0.761-0.667-1.952,0.096-2.661l0,0c0.761-0.708,1.951-0.666,2.66,0.095l24.859,25.958"/>
		<g>
			
				<path fill="#A1C453" stroke="#333333" stroke-width="0.9957" stroke-linecap="round" stroke-linejoin="round" stroke-miterlimit="10" d="
				M63.545,148.937c0,0-2.663-1.225-3.252-1.326c-0.474-0.085,1.146,2.601,1.903,3.459L63.545,148.937z"/>
			
				<path fill="#A1C453" stroke="#333333" stroke-width="0.9957" stroke-linecap="round" stroke-linejoin="round" stroke-miterlimit="10" d="
				M61.69,150.343l4.491,0.402c0,0-2.535-3.702-4.378-4.063C61.804,146.682,61.969,148.852,61.69,150.343z"/>
			
				<path fill="#A1C453" stroke="#333333" stroke-width="0.9957" stroke-linecap="round" stroke-linejoin="round" stroke-miterlimit="10" d="
				M64.91,154.656c0,0-5.104-2.238-5.812-5.455l4.277,0.6L64.91,154.656z"/>
		</g>
	</g>
</g>
<g id="calque04">
	<g>
		
			<polygon fill="#CC924C" stroke="#333333" stroke-width="0.9957" stroke-linecap="round" stroke-linejoin="round" stroke-miterlimit="10" points="
			64.222,162.303 71.564,163.03 70.327,161.703 		"/>
		<g>
			
				<path fill="#A1C453" stroke="#333333" stroke-width="1.4936" stroke-linecap="round" stroke-linejoin="round" stroke-miterlimit="10" d="
				M82.758,149.555c-2.454,1.077-4.297,0.244-6.458,5.443c-2.161,5.199,2.385,4.354,0.964,7.775
				c1.421-3.421,4.215,0.251,6.297-4.756S83.512,152.123,82.758,149.555z"/>
			<g>
				<line fill="none" x1="77.264" y1="162.773" x2="81.521" y2="152.53"/>
				<g>
					<polyline fill="none" stroke="#333333" stroke-width="0.9957" stroke-linecap="round" stroke-miterlimit="10" points="
						77.455,162.313 77.702,161.718 80.516,154.951 80.73,154.433 					"/>
					
						<line fill="none" stroke="#333333" stroke-width="0.9957" stroke-linecap="round" stroke-miterlimit="10" x1="81.33" y1="152.99" x2="81.304" y2="153.054"/>
				</g>
			</g>
		</g>
		<g>
			
				<path fill="#A1C453" stroke="#333333" stroke-width="0.9957" stroke-linecap="round" stroke-linejoin="round" stroke-miterlimit="10" d="
				M65.065,136.016c-1.608,1.019-2.993,0.631-3.957,4.516c-0.965,3.885,2.143,2.806,1.508,5.362
				c0.635-2.556,2.989-0.274,3.918-4.015C67.463,138.136,65.869,137.741,65.065,136.016z"/>
			<g>
				<line fill="none" x1="62.615" y1="145.895" x2="64.515" y2="138.24"/>
				<g>
					<polyline fill="none" stroke="#333333" stroke-width="0.9957" stroke-linecap="round" stroke-miterlimit="10" points="
						62.735,145.411 62.891,144.785 63.883,140.785 64.019,140.241 					"/>
					
						<line fill="none" stroke="#333333" stroke-width="0.9957" stroke-linecap="round" stroke-miterlimit="10" x1="64.395" y1="138.723" x2="64.378" y2="138.791"/>
				</g>
			</g>
		</g>
		<g>
			
				<path fill="#A1C453" stroke="#333333" stroke-width="1.4936" stroke-linecap="round" stroke-linejoin="round" stroke-miterlimit="10" d="
				M52.074,160.197c1.973-1.363,2.204-3.159,7.182-2.363c4.977,0.796,2.196,3.864,5.473,4.387c-3.275-0.522-1.79,3.33-6.584,2.564
				C53.352,164.018,53.676,161.977,52.074,160.197z"/>
			<g>
				<line fill="none" x1="64.729" y1="162.221" x2="54.922" y2="160.652"/>
				<g>
					<polyline fill="none" stroke="#333333" stroke-width="0.9957" stroke-linecap="round" stroke-miterlimit="10" points="
						64.237,162.142 63.6,162.04 57.511,161.066 56.957,160.978 					"/>
					
						<line fill="none" stroke="#333333" stroke-width="0.9957" stroke-linecap="round" stroke-miterlimit="10" x1="55.413" y1="160.731" x2="55.482" y2="160.742"/>
				</g>
			</g>
		</g>
		<g>
			
				<path fill="#A1C453" stroke="#333333" stroke-width="0.9957" stroke-linecap="round" stroke-linejoin="round" stroke-miterlimit="10" d="
				M58.425,166.949c0.255-1.391-0.396-2.236,2.009-3.979c2.406-1.742,2.525,0.694,4.109-0.452c-1.584,1.146,0.641,2.134-1.676,3.812
				C60.551,168.009,59.836,167.023,58.425,166.949z"/>
			<g>
				<line fill="none" x1="64.543" y1="162.519" x2="59.803" y2="165.952"/>
				<g>
					<polyline fill="none" stroke="#333333" stroke-width="0.9957" stroke-linecap="round" stroke-miterlimit="10" points="
						64.14,162.811 63.617,163.189 61.926,164.414 61.473,164.743 					"/>
					
						<line fill="none" stroke="#333333" stroke-width="0.9957" stroke-linecap="round" stroke-miterlimit="10" x1="60.206" y1="165.66" x2="60.263" y2="165.619"/>
				</g>
			</g>
		</g>
		<path fill="#CC924C" stroke="#333333" stroke-width="2.6551" stroke-linecap="round" stroke-miterlimit="10" d="M86.621,179.335
			l-30.17-33.12c-0.709-0.761-0.668-1.952,0.094-2.662l0,0c0.761-0.708,1.952-0.666,2.661,0.095l30.897,32.44"/>
		<g>
			
				<path fill="#A1C453" stroke="#333333" stroke-width="0.9957" stroke-linecap="round" stroke-linejoin="round" stroke-miterlimit="10" d="
				M57.506,142.454c0,0-2.663-1.225-3.252-1.326c-0.472-0.084,1.147,2.602,1.903,3.46L57.506,142.454z"/>
			
				<path fill="#A1C453" stroke="#333333" stroke-width="0.9957" stroke-linecap="round" stroke-linejoin="round" stroke-miterlimit="10" d="
				M55.65,143.859l4.492,0.403c0,0-2.535-3.702-4.378-4.064C55.765,140.198,55.93,142.369,55.65,143.859z"/>
			
				<path fill="#A1C453" stroke="#333333" stroke-width="0.9957" stroke-linecap="round" stroke-linejoin="round" stroke-miterlimit="10" d="
				M58.871,148.172c0,0-5.104-2.237-5.812-5.455l4.276,0.6L58.871,148.172z"/>
		</g>
	</g>
</g>
<g id="calque05">
	<g>
		
			<polygon fill="#CC924C" stroke="#333333" stroke-width="0.9957" stroke-linecap="round" stroke-linejoin="round" stroke-miterlimit="10" points="
			64.339,128.861 63.836,148.621 61.922,146.564 		"/>
		
			<polygon fill="#CC924C" stroke="#333333" stroke-width="0.9957" stroke-linecap="round" stroke-linejoin="round" stroke-miterlimit="10" points="
			64.222,162.303 71.564,163.03 70.328,161.702 		"/>
		<g>
			
				<path fill="#A1C453" stroke="#333333" stroke-width="1.4936" stroke-linecap="round" stroke-linejoin="round" stroke-miterlimit="10" d="
				M82.758,149.555c-2.454,1.077-4.297,0.244-6.458,5.443c-2.161,5.199,2.385,4.354,0.964,7.775
				c1.421-3.421,4.215,0.251,6.297-4.756S83.512,152.123,82.758,149.555z"/>
			<g>
				<line fill="none" x1="77.264" y1="162.773" x2="81.521" y2="152.53"/>
				<g>
					<polyline fill="none" stroke="#333333" stroke-width="0.9957" stroke-linecap="round" stroke-miterlimit="10" points="
						77.455,162.313 77.702,161.718 80.516,154.951 80.73,154.433 					"/>
					
						<line fill="none" stroke="#333333" stroke-width="0.9957" stroke-linecap="round" stroke-miterlimit="10" x1="81.33" y1="152.99" x2="81.304" y2="153.054"/>
				</g>
			</g>
		</g>
		<g>
			
				<path fill="#A1C453" stroke="#333333" stroke-width="0.9957" stroke-linecap="round" stroke-linejoin="round" stroke-miterlimit="10" d="
				M59.211,122.057c-0.361,1.609-1.445,2.218,0.343,5.186c1.788,2.969,3.027,0.406,4.204,2.359
				c-1.177-1.953,1.662-1.998-0.062-4.855C61.975,121.888,60.76,122.62,59.211,122.057z"/>
			<g>
				<line fill="none" x1="63.758" y1="129.603" x2="60.234" y2="123.755"/>
				<g>
					<polyline fill="none" stroke="#333333" stroke-width="0.9957" stroke-linecap="round" stroke-miterlimit="10" points="
						63.501,129.176 63.168,128.624 61.588,126.001 61.299,125.521 					"/>
					
						<line fill="none" stroke="#333333" stroke-width="0.9957" stroke-linecap="round" stroke-miterlimit="10" x1="60.491" y1="124.182" x2="60.527" y2="124.242"/>
				</g>
			</g>
		</g>
		<g>
			
				<path fill="#A1C453" stroke="#333333" stroke-width="1.4936" stroke-linecap="round" stroke-linejoin="round" stroke-miterlimit="10" d="
				M68.397,113.58c-2.556,1.618-4.751,1.001-6.281,7.168c-1.529,6.167,3.399,4.453,2.393,8.511c1.008-4.058,4.746-0.435,6.22-6.373
				C72.201,116.944,69.674,116.317,68.397,113.58z"/>
			<g>
				<line fill="none" x1="64.508" y1="129.259" x2="67.522" y2="117.109"/>
				<g>
					<polyline fill="none" stroke="#333333" stroke-width="0.9957" stroke-linecap="round" stroke-miterlimit="10" points="
						64.628,128.775 64.783,128.149 66.891,119.654 67.026,119.11 					"/>
					
						<line fill="none" stroke="#333333" stroke-width="0.9957" stroke-linecap="round" stroke-miterlimit="10" x1="67.402" y1="117.592" x2="67.386" y2="117.66"/>
				</g>
			</g>
		</g>
		<g>
			
				<path fill="#A1C453" stroke="#333333" stroke-width="1.4936" stroke-linecap="round" stroke-linejoin="round" stroke-miterlimit="10" d="
				M52.074,160.197c1.973-1.363,2.204-3.159,7.182-2.363c4.977,0.796,2.196,3.864,5.473,4.387c-3.275-0.522-1.79,3.33-6.584,2.564
				C53.352,164.018,53.676,161.977,52.074,160.197z"/>
			<g>
				<line fill="none" x1="64.729" y1="162.221" x2="54.922" y2="160.652"/>
				<g>
					<polyline fill="none" stroke="#333333" stroke-width="0.9957" stroke-linecap="round" stroke-miterlimit="10" points="
						64.237,162.142 63.6,162.04 57.511,161.066 56.957,160.978 					"/>
					
						<line fill="none" stroke="#333333" stroke-width="0.9957" stroke-linecap="round" stroke-miterlimit="10" x1="55.413" y1="160.731" x2="55.482" y2="160.742"/>
				</g>
			</g>
		</g>
		<g>
			
				<path fill="#A1C453" stroke="#333333" stroke-width="1.4936" stroke-linecap="round" stroke-linejoin="round" stroke-miterlimit="10" d="
				M54.656,169.908c0.432-2.36-0.674-3.792,3.406-6.749c4.082-2.958,4.286,1.178,6.973-0.768c-2.687,1.946,1.089,3.62-2.843,6.468
				C58.261,171.707,57.049,170.033,54.656,169.908z"/>
			<g>
				<line fill="none" x1="65.034" y1="162.391" x2="56.992" y2="168.217"/>
				<g>
					<polyline fill="none" stroke="#333333" stroke-width="0.9957" stroke-linecap="round" stroke-miterlimit="10" points="
						64.631,162.683 64.108,163.062 59.115,166.679 58.662,167.007 					"/>
					
						<line fill="none" stroke="#333333" stroke-width="0.9957" stroke-linecap="round" stroke-miterlimit="10" x1="57.396" y1="167.925" x2="57.452" y2="167.884"/>
				</g>
			</g>
		</g>
		<g>
			
				<path fill="#A1C453" stroke="#333333" stroke-width="0.9957" stroke-linecap="round" stroke-linejoin="round" stroke-miterlimit="10" d="
				M39.457,137.108c0.942,1.211,0.739,2.352,3.932,2.822c3.193,0.471,2.084-1.937,4.187-1.627c-2.103-0.31-0.453-2.377-3.527-2.831
				C40.971,135.02,40.778,136.329,39.457,137.108z"/>
			<g>
				<line fill="none" x1="47.574" y1="138.303" x2="41.283" y2="137.376"/>
				<g>
					<polyline fill="none" stroke="#333333" stroke-width="0.9957" stroke-linecap="round" stroke-miterlimit="10" points="
						47.082,138.23 46.443,138.136 43.877,137.758 43.322,137.677 					"/>
					
						<line fill="none" stroke="#333333" stroke-width="0.9957" stroke-linecap="round" stroke-miterlimit="10" x1="41.775" y1="137.449" x2="41.845" y2="137.459"/>
				</g>
			</g>
		</g>
		<path fill="#CC924C" stroke="#333333" stroke-width="2.6551" stroke-linecap="round" stroke-miterlimit="10" d="M86.621,179.335
			l-41.166-44.923c-0.708-0.761-0.666-1.952,0.096-2.662l0,0c0.76-0.708,1.951-0.666,2.66,0.095l41.894,44.244"/>
		<g>
			
				<path fill="#A1C453" stroke="#333333" stroke-width="0.9957" stroke-linecap="round" stroke-linejoin="round" stroke-miterlimit="10" d="
				M46.512,130.65c0,0-2.664-1.225-3.253-1.327c-0.472-0.084,1.146,2.602,1.903,3.46L46.512,130.65z"/>
			
				<path fill="#A1C453" stroke="#333333" stroke-width="0.9957" stroke-linecap="round" stroke-linejoin="round" stroke-miterlimit="10" d="
				M44.656,132.056l4.492,0.402c0,0-2.536-3.702-4.379-4.063C44.77,128.395,44.936,130.565,44.656,132.056z"/>
			
				<path fill="#A1C453" stroke="#333333" stroke-width="0.9957" stroke-linecap="round" stroke-linejoin="round" stroke-miterlimit="10" d="
				M47.877,136.369c0,0-5.104-2.237-5.813-5.455l4.276,0.6L47.877,136.369z"/>
		</g>
		<g>
			
				<path fill="#FFFFFF" stroke="#333333" stroke-width="0.9957" stroke-linecap="round" stroke-linejoin="round" stroke-miterlimit="10" d="
				M65.506,129.396c0.435-0.1,1.045,0.545,1.449,1.077c0.728,0.958,0.83,2.814-0.535,3.129c-1.371,0.315-2.099-1.397-1.867-2.577
				C64.683,130.371,65.068,129.496,65.506,129.396z"/>
			
				<path fill="#FFFFFF" stroke="#333333" stroke-width="0.9957" stroke-linecap="round" stroke-linejoin="round" stroke-miterlimit="10" d="
				M65.533,129.281c-0.306-0.326-0.053-1.177,0.207-1.793c0.465-1.109,2.022-2.126,2.978-1.102c0.96,1.03-0.161,2.517-1.298,2.905
				C66.789,129.507,65.838,129.609,65.533,129.281z"/>
			
				<path fill="#FFFFFF" stroke="#333333" stroke-width="0.9957" stroke-linecap="round" stroke-linejoin="round" stroke-miterlimit="10" d="
				M65.426,129.312c-0.131,0.426-0.994,0.633-1.656,0.716c-1.193,0.152-2.854-0.688-2.442-2.027c0.411-1.346,2.26-1.118,3.164-0.33
				C64.994,128.111,65.558,128.882,65.426,129.312z"/>
			
				<path fill="#FFFFFF" stroke="#333333" stroke-width="0.9957" stroke-linecap="round" stroke-linejoin="round" stroke-miterlimit="10" d="
				M65.396,129.457c0.306,0.327,0.051,1.178-0.209,1.794c-0.465,1.109-2.021,2.127-2.977,1.102c-0.959-1.03,0.16-2.516,1.297-2.905
				C64.141,129.231,65.091,129.129,65.396,129.457z"/>
			
				<path fill="#FFFFFF" stroke="#333333" stroke-width="0.9957" stroke-linecap="round" stroke-linejoin="round" stroke-miterlimit="10" d="
				M65.506,129.42c0.13-0.426,0.994-0.633,1.656-0.716c1.192-0.152,2.853,0.688,2.441,2.027c-0.413,1.346-2.259,1.119-3.163,0.329
				C65.938,130.621,65.373,129.85,65.506,129.42z"/>
			
				<path fill="#FFFFFF" stroke="#333333" stroke-width="0.9957" stroke-linecap="round" stroke-linejoin="round" stroke-miterlimit="10" d="
				M65.406,129.346c-0.435,0.1-1.046-0.544-1.448-1.077c-0.729-0.958-0.831-2.814,0.535-3.129c1.37-0.316,2.098,1.396,1.866,2.575
				C66.229,128.371,65.844,129.245,65.406,129.346z"/>
			
				<circle fill="#F9D53E" stroke="#333333" stroke-width="0.9957" stroke-linecap="round" stroke-linejoin="round" stroke-miterlimit="10" cx="65.396" cy="129.457" r="0.926"/>
		</g>
	</g>
</g>
<g id="calque06">
	<g>
		
			<polygon fill="#CC924C" stroke="#333333" stroke-width="0.7966" stroke-linecap="round" stroke-linejoin="round" stroke-miterlimit="10" points="
			40.051,139.712 49.969,139.261 48.053,137.205 		"/>
		
			<polygon fill="#CC924C" stroke="#333333" stroke-width="0.9957" stroke-linecap="round" stroke-linejoin="round" stroke-miterlimit="10" points="
			64.336,128.863 63.834,148.623 61.92,146.566 		"/>
		
			<polygon fill="#CC924C" stroke="#333333" stroke-width="0.9957" stroke-linecap="round" stroke-linejoin="round" stroke-miterlimit="10" points="
			64.22,162.305 71.562,163.032 70.324,161.705 		"/>
		<g>
			
				<path fill="#A1C453" stroke="#333333" stroke-width="1.4936" stroke-linecap="round" stroke-linejoin="round" stroke-miterlimit="10" d="
				M82.756,149.558c-2.455,1.077-4.297,0.244-6.459,5.443c-2.161,5.199,2.385,4.354,0.964,7.775
				c1.421-3.421,4.216,0.251,6.298-4.757C85.641,153.012,83.509,152.125,82.756,149.558z"/>
			<g>
				<line fill="none" x1="77.261" y1="162.776" x2="81.52" y2="152.532"/>
				<g>
					<polyline fill="none" stroke="#333333" stroke-width="0.9957" stroke-linecap="round" stroke-miterlimit="10" points="
						77.452,162.316 77.699,161.721 80.513,154.953 80.729,154.435 					"/>
					
						<line fill="none" stroke="#333333" stroke-width="0.9957" stroke-linecap="round" stroke-miterlimit="10" x1="81.328" y1="152.991" x2="81.302" y2="153.056"/>
				</g>
			</g>
		</g>
		<g>
			
				<path fill="#A1C453" stroke="#333333" stroke-width="1.4936" stroke-linecap="round" stroke-linejoin="round" stroke-miterlimit="10" d="
				M55.824,115.146c-0.662,2.951-2.65,4.068,0.627,9.511c3.278,5.443,5.553,0.745,7.71,4.327c-2.157-3.582,3.05-3.664-0.108-8.905
				C60.894,114.836,58.664,116.18,55.824,115.146z"/>
			<g>
				<line fill="none" x1="64.161" y1="128.984" x2="57.701" y2="118.26"/>
				<g>
					<polyline fill="none" stroke="#333333" stroke-width="0.9957" stroke-linecap="round" stroke-miterlimit="10" points="
						63.904,128.558 63.571,128.005 59.054,120.506 58.765,120.026 					"/>
					
						<line fill="none" stroke="#333333" stroke-width="0.9957" stroke-linecap="round" stroke-miterlimit="10" x1="57.958" y1="118.687" x2="57.994" y2="118.747"/>
				</g>
			</g>
		</g>
		<g>
			
				<path fill="#A1C453" stroke="#333333" stroke-width="1.4936" stroke-linecap="round" stroke-linejoin="round" stroke-miterlimit="10" d="
				M68.396,113.582c-2.556,1.618-4.753,1.002-6.282,7.168c-1.528,6.167,3.399,4.453,2.394,8.511
				c1.007-4.058,4.746-0.435,6.219-6.373C72.199,116.946,69.672,116.319,68.396,113.582z"/>
			<g>
				<line fill="none" x1="64.506" y1="129.261" x2="67.52" y2="117.111"/>
				<g>
					<polyline fill="none" stroke="#333333" stroke-width="0.9957" stroke-linecap="round" stroke-miterlimit="10" points="
						64.626,128.778 64.781,128.152 66.889,119.656 67.023,119.112 					"/>
					
						<line fill="none" stroke="#333333" stroke-width="0.9957" stroke-linecap="round" stroke-miterlimit="10" x1="67.399" y1="117.594" x2="67.383" y2="117.662"/>
				</g>
			</g>
		</g>
		<g>
			
				<path fill="#A1C453" stroke="#333333" stroke-width="1.4936" stroke-linecap="round" stroke-linejoin="round" stroke-miterlimit="10" d="
				M52.071,160.2c1.975-1.364,2.206-3.159,7.184-2.363c4.977,0.796,2.196,3.863,5.472,4.386c-3.274-0.523-1.79,3.33-6.583,2.564
				C53.349,164.02,53.674,161.979,52.071,160.2z"/>
			<g>
				<line fill="none" x1="64.726" y1="162.223" x2="54.92" y2="160.655"/>
				<g>
					<polyline fill="none" stroke="#333333" stroke-width="0.9957" stroke-linecap="round" stroke-miterlimit="10" points="
						64.234,162.144 63.597,162.042 57.509,161.069 56.955,160.98 					"/>
					
						<line fill="none" stroke="#333333" stroke-width="0.9957" stroke-linecap="round" stroke-miterlimit="10" x1="55.411" y1="160.733" x2="55.48" y2="160.745"/>
				</g>
			</g>
		</g>
		<g>
			
				<path fill="#A1C453" stroke="#333333" stroke-width="1.4936" stroke-linecap="round" stroke-linejoin="round" stroke-miterlimit="10" d="
				M54.654,169.91c0.431-2.36-0.675-3.792,3.406-6.749c4.082-2.958,4.286,1.178,6.971-0.768c-2.685,1.946,1.091,3.621-2.842,6.468
				C58.258,171.709,57.046,170.036,54.654,169.91z"/>
			<g>
				<line fill="none" x1="65.031" y1="162.393" x2="56.99" y2="168.219"/>
				<g>
					<polyline fill="none" stroke="#333333" stroke-width="0.9957" stroke-linecap="round" stroke-miterlimit="10" points="
						64.628,162.685 64.105,163.063 59.113,166.681 58.659,167.009 					"/>
					
						<line fill="none" stroke="#333333" stroke-width="0.9957" stroke-linecap="round" stroke-miterlimit="10" x1="57.394" y1="167.927" x2="57.45" y2="167.886"/>
				</g>
			</g>
		</g>
		<g>
			
				<path fill="#A1C453" stroke="#333333" stroke-width="1.4936" stroke-linecap="round" stroke-linejoin="round" stroke-miterlimit="10" d="
				M24.068,137.358c1.857,2.386,1.457,4.633,7.743,5.559c6.286,0.926,4.104-3.814,8.239-3.204c-4.137-0.61-0.892-4.683-6.945-5.574
				C27.051,133.246,26.671,135.824,24.068,137.358z"/>
			<g>
				<line fill="none" x1="40.051" y1="139.712" x2="27.665" y2="137.888"/>
				<g>
					<polyline fill="none" stroke="#333333" stroke-width="0.9957" stroke-linecap="round" stroke-miterlimit="10" points="
						39.559,139.64 38.92,139.546 30.259,138.27 29.704,138.188 					"/>
					
						<line fill="none" stroke="#333333" stroke-width="0.9957" stroke-linecap="round" stroke-miterlimit="10" x1="28.157" y1="137.96" x2="28.227" y2="137.971"/>
				</g>
			</g>
		</g>
		<g>
			
				<path fill="#A1C453" stroke="#333333" stroke-width="0.9957" stroke-linecap="round" stroke-linejoin="round" stroke-miterlimit="10" d="
				M38.475,148.248c1.353-0.871,2.521-0.552,3.31-3.835c0.786-3.282-1.824-2.352-1.308-4.511c-0.518,2.16-2.52,0.25-3.276,3.411
				C36.44,146.476,37.785,146.798,38.475,148.248z"/>
			<g>
				<line fill="none" x1="40.477" y1="139.902" x2="38.925" y2="146.369"/>
				<g>
					<polyline fill="none" stroke="#333333" stroke-width="0.9957" stroke-linecap="round" stroke-miterlimit="10" points="
						40.36,140.386 40.21,141.013 39.536,143.819 39.406,144.365 					"/>
					
						<line fill="none" stroke="#333333" stroke-width="0.9957" stroke-linecap="round" stroke-miterlimit="10" x1="39.041" y1="145.885" x2="39.058" y2="145.817"/>
				</g>
			</g>
		</g>
		<g>
			<g>
				<path fill="#D3F46C" d="M70.271,127.743c1.995,1.629,2.398,5.706,0.663,6.56c-0.511,2.09-4.563,2.291-6.559,0.663
					c-1.994-1.627-3.168-4.213-0.113-6.311C65.621,125.393,68.275,126.116,70.271,127.743z"/>
				<g>
					<path fill="none" stroke="#333333" stroke-width="0.9957" stroke-linecap="round" stroke-miterlimit="10" d="M70.633,128.084
						c0.131,0.17,0.289,0.32,0.397,0.507c0.654,0.946,0.968,2.103,0.997,3.245c0.005,0.572-0.083,1.155-0.336,1.673
						c-0.14,0.249-0.308,0.49-0.545,0.654c-0.325,0.095-0.252,0.483-0.465,0.687c-0.682,0.968-1.97,1.202-3.081,1.193
						c-1.142-0.031-2.303-0.359-3.212-1.067c-0.876-0.723-1.663-1.649-1.92-2.78c-0.282-1.145,0.301-2.32,1.171-3.05
						c0.198-0.205,0.478-0.333,0.65-0.553c0.125-0.258,0.235-0.523,0.399-0.76c0.303-0.483,0.702-0.924,1.218-1.186
						c0.512-0.266,1.109-0.329,1.674-0.237c0.138,0.023,0.294,0.047,0.411,0.088l0.177,0.051c0.12,0.028,0.23,0.084,0.347,0.126"/>
					
						<line fill="none" stroke="#333333" stroke-width="0.9957" stroke-linecap="round" stroke-miterlimit="10" x1="69.876" y1="127.44" x2="69.817" y2="127.401"/>
				</g>
			</g>
			
				<ellipse transform="matrix(-0.2694 -0.963 0.963 -0.2694 -45.8976 230.035)" opacity="0.5" fill="#FFFFFF" enable-background="new    " cx="64.31" cy="132.428" rx="1.066" ry="0.877"/>
		</g>
		<path fill="#CC924C" stroke="#333333" stroke-width="2.6551" stroke-linecap="round" stroke-miterlimit="10" d="M86.617,179.338
			l-46.65-50.814c-0.709-0.761-0.667-1.953,0.094-2.662l0,0c0.762-0.708,1.953-0.666,2.661,0.095l47.381,50.135"/>
		<g>
			
				<path fill="#A1C453" stroke="#333333" stroke-width="0.9957" stroke-linecap="round" stroke-linejoin="round" stroke-miterlimit="10" d="
				M41.021,124.762c0,0-2.664-1.226-3.252-1.328c-0.472-0.084,1.146,2.603,1.902,3.461L41.021,124.762z"/>
			
				<path fill="#A1C453" stroke="#333333" stroke-width="0.9957" stroke-linecap="round" stroke-linejoin="round" stroke-miterlimit="10" d="
				M39.166,126.167l4.492,0.403c0,0-2.535-3.703-4.379-4.064C39.28,122.506,39.445,124.676,39.166,126.167z"/>
			
				<path fill="#A1C453" stroke="#333333" stroke-width="0.9957" stroke-linecap="round" stroke-linejoin="round" stroke-miterlimit="10" d="
				M42.387,130.48c0,0-5.103-2.237-5.811-5.455l4.275,0.601L42.387,130.48z"/>
		</g>
		<g>
			
				<path fill="#FFFFFF" stroke="#333333" stroke-width="0.9957" stroke-linecap="round" stroke-linejoin="round" stroke-miterlimit="10" d="
				M40.865,141.068c0.435-0.1,1.045,0.544,1.447,1.077c0.729,0.958,0.831,2.814-0.534,3.129c-1.371,0.316-2.1-1.396-1.866-2.576
				C40.042,142.043,40.428,141.168,40.865,141.068z"/>
			
				<path fill="#FFFFFF" stroke="#333333" stroke-width="0.9957" stroke-linecap="round" stroke-linejoin="round" stroke-miterlimit="10" d="
				M40.892,140.953c-0.304-0.326-0.052-1.176,0.208-1.792c0.467-1.11,2.021-2.127,2.978-1.103c0.96,1.03-0.16,2.517-1.298,2.906
				C42.146,141.18,41.197,141.282,40.892,140.953z"/>
			
				<path fill="#FFFFFF" stroke="#333333" stroke-width="0.9957" stroke-linecap="round" stroke-linejoin="round" stroke-miterlimit="10" d="
				M40.785,140.983c-0.132,0.427-0.994,0.634-1.657,0.717c-1.194,0.151-2.854-0.688-2.442-2.027c0.412-1.346,2.258-1.119,3.164-0.33
				C40.353,139.783,40.916,140.555,40.785,140.983z"/>
			
				<path fill="#FFFFFF" stroke="#333333" stroke-width="0.9957" stroke-linecap="round" stroke-linejoin="round" stroke-miterlimit="10" d="
				M40.756,141.13c0.303,0.326,0.051,1.178-0.209,1.793c-0.467,1.109-2.021,2.127-2.978,1.102c-0.96-1.03,0.16-2.516,1.298-2.905
				C39.5,140.904,40.449,140.801,40.756,141.13z"/>
			
				<path fill="#FFFFFF" stroke="#333333" stroke-width="0.9957" stroke-linecap="round" stroke-linejoin="round" stroke-miterlimit="10" d="
				M40.865,141.093c0.129-0.426,0.992-0.632,1.654-0.716c1.194-0.152,2.854,0.688,2.443,2.027c-0.413,1.347-2.259,1.119-3.164,0.33
				C41.297,142.294,40.732,141.522,40.865,141.093z"/>
			
				<path fill="#FFFFFF" stroke="#333333" stroke-width="0.9957" stroke-linecap="round" stroke-linejoin="round" stroke-miterlimit="10" d="
				M40.765,141.018c-0.434,0.101-1.046-0.544-1.448-1.077c-0.729-0.958-0.832-2.814,0.533-3.128
				c1.373-0.317,2.101,1.396,1.867,2.574C41.588,140.043,41.201,140.917,40.765,141.018z"/>
			
				<circle fill="#F9D53E" stroke="#333333" stroke-width="0.9957" stroke-linecap="round" stroke-linejoin="round" stroke-miterlimit="10" cx="40.756" cy="141.13" r="0.926"/>
		</g>
	</g>
</g>
<g id="calque07">
	<g>
		
			<polygon fill="#CC924C" stroke="#333333" stroke-width="0.7966" stroke-linecap="round" stroke-linejoin="round" stroke-miterlimit="10" points="
			40.054,139.71 49.971,139.259 48.055,137.203 		"/>
		
			<polygon fill="#CC924C" stroke="#333333" stroke-width="0.9957" stroke-linecap="round" stroke-linejoin="round" stroke-miterlimit="10" points="
			64.339,128.861 63.836,148.621 61.922,146.564 		"/>
		
			<polygon fill="#CC924C" stroke="#333333" stroke-width="0.9957" stroke-linecap="round" stroke-linejoin="round" stroke-miterlimit="10" points="
			64.222,162.303 71.564,163.03 70.328,161.702 		"/>
		<g>
			
				<path fill="#A1C453" stroke="#333333" stroke-width="1.4936" stroke-linecap="round" stroke-linejoin="round" stroke-miterlimit="10" d="
				M82.758,149.555c-2.454,1.078-4.297,0.244-6.458,5.443c-2.161,5.199,2.385,4.354,0.963,7.775
				c1.422-3.422,4.216,0.251,6.298-4.757C85.643,153.01,83.512,152.123,82.758,149.555z"/>
			<g>
				<line fill="none" x1="77.263" y1="162.774" x2="81.521" y2="152.53"/>
				<g>
					<polyline fill="none" stroke="#333333" stroke-width="0.9957" stroke-linecap="round" stroke-miterlimit="10" points="
						77.454,162.314 77.701,161.719 80.515,154.951 80.73,154.433 					"/>
					
						<line fill="none" stroke="#333333" stroke-width="0.9957" stroke-linecap="round" stroke-miterlimit="10" x1="81.33" y1="152.989" x2="81.304" y2="153.054"/>
				</g>
			</g>
		</g>
		<g>
			
				<path fill="#A1C453" stroke="#333333" stroke-width="0.9957" stroke-linecap="round" stroke-linejoin="round" stroke-miterlimit="10" d="
				M43.054,117.583c1.212,1.063,2.421,0.918,2.72,4.293s-2.155,2.067-1.959,4.288c-0.196-2.221-2.465-0.619-2.754-3.869
				C40.771,119.044,42.156,118.921,43.054,117.583z"/>
			<g>
				<line fill="none" x1="43.814" y1="126.164" x2="43.225" y2="119.515"/>
				<g>
					<polyline fill="none" stroke="#333333" stroke-width="0.9957" stroke-linecap="round" stroke-miterlimit="10" points="
						43.771,125.668 43.714,125.025 43.456,122.126 43.406,121.568 					"/>
					
						<line fill="none" stroke="#333333" stroke-width="0.9957" stroke-linecap="round" stroke-miterlimit="10" x1="43.269" y1="120.011" x2="43.274" y2="120.08"/>
				</g>
			</g>
		</g>
		<g>
			
				<path fill="#A1C453" stroke="#333333" stroke-width="1.4936" stroke-linecap="round" stroke-linejoin="round" stroke-miterlimit="10" d="
				M55.828,115.144c-0.664,2.951-2.652,4.069,0.625,9.512c3.278,5.443,5.553,0.745,7.711,4.326
				c-2.158-3.582,3.049-3.663-0.109-8.905C60.897,114.835,58.666,116.178,55.828,115.144z"/>
			<g>
				<line fill="none" x1="64.164" y1="128.981" x2="57.704" y2="118.258"/>
				<g>
					<polyline fill="none" stroke="#333333" stroke-width="0.9957" stroke-linecap="round" stroke-miterlimit="10" points="
						63.907,128.555 63.574,128.002 59.057,120.504 58.768,120.023 					"/>
					
						<line fill="none" stroke="#333333" stroke-width="0.9957" stroke-linecap="round" stroke-miterlimit="10" x1="57.961" y1="118.684" x2="57.997" y2="118.744"/>
				</g>
			</g>
		</g>
		<g>
			
				<path fill="#A1C453" stroke="#333333" stroke-width="1.4936" stroke-linecap="round" stroke-linejoin="round" stroke-miterlimit="10" d="
				M68.397,113.58c-2.556,1.618-4.751,1.001-6.281,7.168c-1.529,6.167,3.399,4.453,2.393,8.512c1.008-4.059,4.746-0.437,6.219-6.374
				C72.201,116.944,69.674,116.317,68.397,113.58z"/>
			<g>
				<line fill="none" x1="64.508" y1="129.26" x2="67.522" y2="117.109"/>
				<g>
					<polyline fill="none" stroke="#333333" stroke-width="0.9957" stroke-linecap="round" stroke-miterlimit="10" points="
						64.628,128.776 64.783,128.15 66.891,119.654 67.026,119.11 					"/>
					
						<line fill="none" stroke="#333333" stroke-width="0.9957" stroke-linecap="round" stroke-miterlimit="10" x1="67.402" y1="117.592" x2="67.386" y2="117.66"/>
				</g>
			</g>
		</g>
		<g>
			
				<path fill="#A1C453" stroke="#333333" stroke-width="1.4936" stroke-linecap="round" stroke-linejoin="round" stroke-miterlimit="10" d="
				M52.074,160.197c1.973-1.363,2.204-3.159,7.182-2.363c4.977,0.796,2.196,3.864,5.473,4.387c-3.275-0.522-1.791,3.33-6.584,2.564
				C53.352,164.018,53.676,161.977,52.074,160.197z"/>
			<g>
				<line fill="none" x1="64.729" y1="162.221" x2="54.922" y2="160.653"/>
				<g>
					<polyline fill="none" stroke="#333333" stroke-width="0.9957" stroke-linecap="round" stroke-miterlimit="10" points="
						64.237,162.142 63.6,162.04 57.511,161.067 56.957,160.979 					"/>
					
						<line fill="none" stroke="#333333" stroke-width="0.9957" stroke-linecap="round" stroke-miterlimit="10" x1="55.413" y1="160.731" x2="55.482" y2="160.743"/>
				</g>
			</g>
		</g>
		<g>
			
				<path fill="#A1C453" stroke="#333333" stroke-width="1.4936" stroke-linecap="round" stroke-linejoin="round" stroke-miterlimit="10" d="
				M54.656,169.908c0.432-2.36-0.674-3.792,3.406-6.749c4.082-2.958,4.286,1.178,6.973-0.768c-2.687,1.946,1.089,3.62-2.843,6.468
				C58.261,171.707,57.049,170.033,54.656,169.908z"/>
			<g>
				<line fill="none" x1="65.034" y1="162.391" x2="56.992" y2="168.217"/>
				<g>
					<polyline fill="none" stroke="#333333" stroke-width="0.9957" stroke-linecap="round" stroke-miterlimit="10" points="
						64.631,162.683 64.108,163.062 59.115,166.679 58.662,167.007 					"/>
					
						<line fill="none" stroke="#333333" stroke-width="0.9957" stroke-linecap="round" stroke-miterlimit="10" x1="57.396" y1="167.925" x2="57.452" y2="167.884"/>
				</g>
			</g>
		</g>
		<g>
			
				<path fill="#A1C453" stroke="#333333" stroke-width="0.9957" stroke-linecap="round" stroke-linejoin="round" stroke-miterlimit="10" d="
				M32.594,145.461c1.631,0.204,2.34,1.221,5.113-0.839c2.772-2.061,0.109-3.044,1.936-4.399c-1.825,1.355-2.143-1.457-4.813,0.527
				C32.158,142.734,33.003,143.871,32.594,145.461z"/>
			<g>
				<line fill="none" x1="39.643" y1="140.223" x2="34.179" y2="144.282"/>
				<g>
					<polyline fill="none" stroke="#333333" stroke-width="0.9957" stroke-linecap="round" stroke-miterlimit="10" points="
						39.243,140.52 38.725,140.904 36.283,142.719 35.833,143.053 					"/>
					
						<line fill="none" stroke="#333333" stroke-width="0.9957" stroke-linecap="round" stroke-miterlimit="10" x1="34.578" y1="143.985" x2="34.635" y2="143.943"/>
				</g>
			</g>
		</g>
		<g>
			
				<path fill="#A1C453" stroke="#333333" stroke-width="1.4936" stroke-linecap="round" stroke-linejoin="round" stroke-miterlimit="10" d="
				M24.07,137.355c1.858,2.386,1.457,4.633,7.743,5.559c6.287,0.926,4.104-3.814,8.24-3.204c-4.138-0.61-0.893-4.683-6.945-5.574
				C27.053,133.245,26.673,135.822,24.07,137.355z"/>
			<g>
				<line fill="none" x1="40.054" y1="139.71" x2="27.668" y2="137.885"/>
				<g>
					<polyline fill="none" stroke="#333333" stroke-width="0.9957" stroke-linecap="round" stroke-miterlimit="10" points="
						39.562,139.638 38.923,139.544 30.262,138.268 29.707,138.186 					"/>
					
						<line fill="none" stroke="#333333" stroke-width="0.9957" stroke-linecap="round" stroke-miterlimit="10" x1="28.16" y1="137.958" x2="28.229" y2="137.968"/>
				</g>
			</g>
		</g>
		<g>
			
				<path fill="#A1C453" stroke="#333333" stroke-width="1.4936" stroke-linecap="round" stroke-linejoin="round" stroke-miterlimit="10" d="
				M37.41,152.374c1.998-1.286,3.727-0.815,4.893-5.669c1.164-4.855-2.699-3.478-1.932-6.672c-0.769,3.194-3.728,0.37-4.849,5.045
				C34.401,149.754,36.392,150.231,37.41,152.374z"/>
			<g>
				<line fill="none" x1="40.371" y1="140.033" x2="38.076" y2="149.596"/>
				<g>
					<polyline fill="none" stroke="#333333" stroke-width="0.9957" stroke-linecap="round" stroke-miterlimit="10" points="
						40.255,140.517 40.104,141.145 38.688,147.046 38.558,147.592 					"/>
					
						<line fill="none" stroke="#333333" stroke-width="0.9957" stroke-linecap="round" stroke-miterlimit="10" x1="38.192" y1="149.112" x2="38.209" y2="149.044"/>
				</g>
			</g>
		</g>
		<g>
			<g>
				<path fill="#D3F46C" d="M72.764,127.993c2.706,2.208,3.253,7.737,0.9,8.896c-0.693,2.836-6.19,3.107-8.896,0.899
					c-2.705-2.207-4.297-5.715-0.153-8.559C66.459,124.805,70.061,125.786,72.764,127.993z"/>
				<g>
					<path fill="none" stroke="#333333" stroke-width="1.4936" stroke-linecap="round" stroke-miterlimit="10" d="M73.301,128.511
						c0.208,0.247,0.419,0.492,0.585,0.77c0.835,1.287,1.251,2.828,1.259,4.356c-0.006,0.762-0.12,1.544-0.479,2.226
						c-0.191,0.329-0.421,0.65-0.744,0.859l-0.24,0.158c-0.052,0.075-0.071,0.176-0.108,0.262c-0.053,0.187-0.146,0.353-0.26,0.509
						c-0.43,0.641-1.132,1.045-1.853,1.282c-0.729,0.237-1.5,0.326-2.267,0.319c-1.521-0.045-3.082-0.443-4.307-1.379
						c-1.187-0.946-2.251-2.162-2.661-3.653c-0.198-0.74-0.182-1.539,0.076-2.262c0.245-0.731,0.731-1.355,1.281-1.881
						c0.267-0.276,0.577-0.501,0.884-0.732c0.184-0.09,0.224-0.298,0.315-0.463c0.087-0.17,0.152-0.352,0.258-0.513
						c0.372-0.668,0.881-1.271,1.522-1.689c0.644-0.419,1.429-0.595,2.189-0.535c0.188-0.003,0.392,0.052,0.558,0.075
						c0.091,0.016,0.183,0.028,0.271,0.058c0.177,0.054,0.355,0.097,0.528,0.16"/>
					
						<line fill="none" stroke="#333333" stroke-width="1.4936" stroke-linecap="round" stroke-miterlimit="10" x1="72.169" y1="127.542" x2="72.082" y2="127.482"/>
				</g>
			</g>
			
				<ellipse transform="matrix(-0.2696 -0.963 0.963 -0.2696 -47.2437 232.8702)" opacity="0.5" fill="#FFFFFF" enable-background="new    " cx="64.693" cy="134.352" rx="1.447" ry="1.19"/>
		</g>
		<path fill="#CC924C" stroke="#333333" stroke-width="2.6551" stroke-linecap="round" stroke-miterlimit="10" d="M86.621,179.335
			l-51.449-55.964c-0.709-0.761-0.667-1.952,0.094-2.661l0,0c0.762-0.708,1.953-0.666,2.662,0.095l52.177,55.285"/>
		<g>
			
				<path fill="#A1C453" stroke="#333333" stroke-width="0.9957" stroke-linecap="round" stroke-linejoin="round" stroke-miterlimit="10" d="
				M36.227,119.61c0,0-2.662-1.225-3.252-1.327c-0.471-0.085,1.147,2.602,1.904,3.46L36.227,119.61z"/>
			
				<path fill="#A1C453" stroke="#333333" stroke-width="0.9957" stroke-linecap="round" stroke-linejoin="round" stroke-miterlimit="10" d="
				M34.371,121.015l4.491,0.403c0,0-2.534-3.702-4.377-4.064C34.486,117.354,34.651,119.525,34.371,121.015z"/>
			
				<path fill="#A1C453" stroke="#333333" stroke-width="0.9957" stroke-linecap="round" stroke-linejoin="round" stroke-miterlimit="10" d="
				M37.592,125.328c0,0-5.104-2.236-5.812-5.455l4.277,0.601L37.592,125.328z"/>
		</g>
		<g>
			<g>
				<path fill="#D3F46C" d="M45.617,140.729c1.994,1.628,2.397,5.706,0.663,6.559c-0.512,2.092-4.563,2.292-6.559,0.664
					c-1.996-1.627-3.168-4.214-0.113-6.311C40.967,138.377,43.623,139.101,45.617,140.729z"/>
				<g>
					<path fill="none" stroke="#333333" stroke-width="0.9957" stroke-linecap="round" stroke-miterlimit="10" d="M45.979,141.07
						c0.131,0.17,0.289,0.32,0.398,0.506c0.653,0.947,0.967,2.103,0.997,3.245c0.004,0.572-0.083,1.156-0.336,1.673
						c-0.141,0.25-0.309,0.49-0.545,0.654c-0.325,0.095-0.251,0.484-0.465,0.688c-0.683,0.968-1.97,1.202-3.081,1.192
						c-1.142-0.031-2.303-0.359-3.213-1.067c-0.875-0.723-1.663-1.649-1.919-2.78c-0.282-1.145,0.301-2.32,1.171-3.05
						c0.198-0.205,0.478-0.333,0.65-0.552c0.125-0.258,0.236-0.524,0.399-0.761c0.303-0.483,0.701-0.924,1.217-1.186
						c0.512-0.266,1.109-0.329,1.675-0.237c0.137,0.023,0.293,0.047,0.41,0.087l0.178,0.051c0.119,0.029,0.23,0.084,0.346,0.126"/>
					
						<line fill="none" stroke="#333333" stroke-width="0.9957" stroke-linecap="round" stroke-miterlimit="10" x1="45.223" y1="140.425" x2="45.164" y2="140.386"/>
				</g>
			</g>
			
				<ellipse transform="matrix(-0.2695 -0.963 0.963 -0.2695 -89.6737 222.7899)" opacity="0.5" fill="#FFFFFF" enable-background="new    " cx="39.662" cy="145.406" rx="1.067" ry="0.877"/>
		</g>
	</g>
</g>
<g id="calque08">
	<g>
		
			<polygon fill="#CC924C" stroke="#333333" stroke-width="0.9957" stroke-linecap="round" stroke-linejoin="round" stroke-miterlimit="10" points="
			44.226,118.465 44.176,127.725 42.26,125.669 		"/>
		
			<polygon fill="#CC924C" stroke="#333333" stroke-width="0.7966" stroke-linecap="round" stroke-linejoin="round" stroke-miterlimit="10" points="
			40.051,139.713 49.969,139.261 48.053,137.205 		"/>
		
			<polygon fill="#CC924C" stroke="#333333" stroke-width="0.9957" stroke-linecap="round" stroke-linejoin="round" stroke-miterlimit="10" points="
			64.336,128.863 63.834,148.623 61.92,146.566 		"/>
		
			<polygon fill="#CC924C" stroke="#333333" stroke-width="0.9957" stroke-linecap="round" stroke-linejoin="round" stroke-miterlimit="10" points="
			64.219,162.305 71.562,163.032 70.324,161.705 		"/>
		<g>
			
				<path fill="#A1C453" stroke="#333333" stroke-width="1.4936" stroke-linecap="round" stroke-linejoin="round" stroke-miterlimit="10" d="
				M82.756,149.558c-2.455,1.077-4.297,0.244-6.459,5.443c-2.161,5.199,2.385,4.354,0.964,7.775
				c1.421-3.421,4.216,0.251,6.298-4.757C85.641,153.012,83.509,152.125,82.756,149.558z"/>
			<g>
				<line fill="none" x1="77.261" y1="162.776" x2="81.52" y2="152.532"/>
				<g>
					<polyline fill="none" stroke="#333333" stroke-width="0.9957" stroke-linecap="round" stroke-miterlimit="10" points="
						77.452,162.316 77.699,161.721 80.513,154.953 80.729,154.436 					"/>
					
						<line fill="none" stroke="#333333" stroke-width="0.9957" stroke-linecap="round" stroke-miterlimit="10" x1="81.328" y1="152.992" x2="81.302" y2="153.057"/>
				</g>
			</g>
		</g>
		<g>
			
				<path fill="#A1C453" stroke="#333333" stroke-width="1.4936" stroke-linecap="round" stroke-linejoin="round" stroke-miterlimit="10" d="
				M42.96,104.206c2.017,1.766,4.023,1.525,4.521,7.134c0.498,5.608-3.585,3.434-3.256,7.125c-0.329-3.691-4.097-1.028-4.576-6.43
				C39.17,106.634,41.469,106.429,42.96,104.206z"/>
			<g>
				<line fill="none" x1="44.226" y1="118.465" x2="43.244" y2="107.416"/>
				<g>
					<polyline fill="none" stroke="#333333" stroke-width="0.9957" stroke-linecap="round" stroke-miterlimit="10" points="
						44.182,117.969 44.125,117.327 43.477,110.027 43.427,109.469 					"/>
					
						<line fill="none" stroke="#333333" stroke-width="0.9957" stroke-linecap="round" stroke-miterlimit="10" x1="43.288" y1="107.912" x2="43.295" y2="107.981"/>
				</g>
			</g>
		</g>
		<g>
			
				<path fill="#A1C453" stroke="#333333" stroke-width="1.4936" stroke-linecap="round" stroke-linejoin="round" stroke-miterlimit="10" d="
				M55.824,115.146c-0.662,2.951-2.651,4.068,0.627,9.511c3.278,5.443,5.553,0.745,7.71,4.327c-2.157-3.582,3.05-3.664-0.108-8.905
				C60.894,114.836,58.663,116.18,55.824,115.146z"/>
			<g>
				<line fill="none" x1="64.161" y1="128.984" x2="57.701" y2="118.26"/>
				<g>
					<polyline fill="none" stroke="#333333" stroke-width="0.9957" stroke-linecap="round" stroke-miterlimit="10" points="
						63.904,128.558 63.571,128.005 59.054,120.506 58.765,120.026 					"/>
					
						<line fill="none" stroke="#333333" stroke-width="0.9957" stroke-linecap="round" stroke-miterlimit="10" x1="57.958" y1="118.687" x2="57.994" y2="118.747"/>
				</g>
			</g>
		</g>
		<g>
			
				<path fill="#A1C453" stroke="#333333" stroke-width="1.4936" stroke-linecap="round" stroke-linejoin="round" stroke-miterlimit="10" d="
				M68.395,113.582c-2.555,1.618-4.752,1.001-6.281,7.168c-1.528,6.167,3.399,4.453,2.394,8.511
				c1.007-4.058,4.746-0.435,6.219-6.373C72.199,116.946,69.671,116.32,68.395,113.582z"/>
			<g>
				<line fill="none" x1="64.506" y1="129.261" x2="67.52" y2="117.111"/>
				<g>
					<polyline fill="none" stroke="#333333" stroke-width="0.9957" stroke-linecap="round" stroke-miterlimit="10" points="
						64.626,128.778 64.781,128.152 66.889,119.656 67.023,119.112 					"/>
					
						<line fill="none" stroke="#333333" stroke-width="0.9957" stroke-linecap="round" stroke-miterlimit="10" x1="67.399" y1="117.594" x2="67.383" y2="117.662"/>
				</g>
			</g>
		</g>
		<g>
			
				<path fill="#A1C453" stroke="#333333" stroke-width="1.4936" stroke-linecap="round" stroke-linejoin="round" stroke-miterlimit="10" d="
				M52.071,160.2c1.975-1.364,2.206-3.159,7.184-2.363c4.977,0.796,2.196,3.863,5.472,4.387c-3.274-0.523-1.79,3.33-6.583,2.563
				C53.349,164.021,53.674,161.979,52.071,160.2z"/>
			<g>
				<line fill="none" x1="64.726" y1="162.223" x2="54.92" y2="160.655"/>
				<g>
					<polyline fill="none" stroke="#333333" stroke-width="0.9957" stroke-linecap="round" stroke-miterlimit="10" points="
						64.234,162.145 63.597,162.042 57.509,161.069 56.955,160.98 					"/>
					
						<line fill="none" stroke="#333333" stroke-width="0.9957" stroke-linecap="round" stroke-miterlimit="10" x1="55.411" y1="160.733" x2="55.48" y2="160.745"/>
				</g>
			</g>
		</g>
		<g>
			
				<path fill="#A1C453" stroke="#333333" stroke-width="1.4936" stroke-linecap="round" stroke-linejoin="round" stroke-miterlimit="10" d="
				M54.654,169.91c0.431-2.36-0.675-3.792,3.406-6.749c4.082-2.958,4.285,1.178,6.971-0.768c-2.686,1.946,1.091,3.621-2.842,6.468
				C58.258,171.709,57.046,170.036,54.654,169.91z"/>
			<g>
				<line fill="none" x1="65.031" y1="162.393" x2="56.99" y2="168.219"/>
				<g>
					<polyline fill="none" stroke="#333333" stroke-width="0.9957" stroke-linecap="round" stroke-miterlimit="10" points="
						64.628,162.685 64.105,163.063 59.113,166.681 58.659,167.009 					"/>
					
						<line fill="none" stroke="#333333" stroke-width="0.9957" stroke-linecap="round" stroke-miterlimit="10" x1="57.394" y1="167.927" x2="57.45" y2="167.886"/>
				</g>
			</g>
		</g>
		<g>
			
				<path fill="#A1C453" stroke="#333333" stroke-width="1.4936" stroke-linecap="round" stroke-linejoin="round" stroke-miterlimit="10" d="
				M26.842,149.717c3.002,0.375,4.307,2.247,9.406-1.543c5.1-3.791,0.203-5.599,3.561-8.093c-3.356,2.494-3.94-2.679-8.853,0.971
				C26.043,144.703,27.597,146.792,26.842,149.717z"/>
			<g>
				<line fill="none" x1="39.809" y1="140.081" x2="29.76" y2="147.549"/>
				<g>
					<polyline fill="none" stroke="#333333" stroke-width="0.9957" stroke-linecap="round" stroke-miterlimit="10" points="
						39.409,140.378 38.892,140.763 31.864,145.985 31.414,146.319 					"/>
					
						<line fill="none" stroke="#333333" stroke-width="0.9957" stroke-linecap="round" stroke-miterlimit="10" x1="30.159" y1="147.252" x2="30.216" y2="147.21"/>
				</g>
			</g>
		</g>
		<g>
			
				<path fill="#A1C453" stroke="#333333" stroke-width="1.4936" stroke-linecap="round" stroke-linejoin="round" stroke-miterlimit="10" d="
				M24.068,137.358c1.857,2.386,1.457,4.633,7.742,5.559c6.287,0.926,4.104-3.815,8.24-3.204c-4.137-0.611-0.892-4.683-6.945-5.574
				C27.05,133.247,26.671,135.824,24.068,137.358z"/>
			<g>
				<line fill="none" x1="40.051" y1="139.713" x2="27.665" y2="137.888"/>
				<g>
					<polyline fill="none" stroke="#333333" stroke-width="0.9957" stroke-linecap="round" stroke-miterlimit="10" points="
						39.559,139.64 38.92,139.546 30.259,138.27 29.704,138.188 					"/>
					
						<line fill="none" stroke="#333333" stroke-width="0.9957" stroke-linecap="round" stroke-miterlimit="10" x1="28.157" y1="137.96" x2="28.227" y2="137.971"/>
				</g>
			</g>
		</g>
		<g>
			
				<path fill="#A1C453" stroke="#333333" stroke-width="1.4936" stroke-linecap="round" stroke-linejoin="round" stroke-miterlimit="10" d="
				M37.408,152.376c1.997-1.286,3.727-0.816,4.892-5.669c1.165-4.855-2.698-3.479-1.931-6.672c-0.769,3.194-3.728,0.37-4.849,5.045
				C34.399,149.756,36.389,150.233,37.408,152.376z"/>
			<g>
				<line fill="none" x1="40.369" y1="140.035" x2="38.074" y2="149.599"/>
				<g>
					<polyline fill="none" stroke="#333333" stroke-width="0.9957" stroke-linecap="round" stroke-miterlimit="10" points="
						40.253,140.519 40.103,141.146 38.686,147.049 38.556,147.594 					"/>
					
						<line fill="none" stroke="#333333" stroke-width="0.9957" stroke-linecap="round" stroke-miterlimit="10" x1="38.19" y1="149.115" x2="38.207" y2="149.046"/>
				</g>
			</g>
		</g>
		<g>
			<g>
				<path fill="#EF4529" d="M72.762,127.995c2.705,2.209,3.252,7.737,0.9,8.896c-0.694,2.836-6.191,3.107-8.896,0.899
					s-4.296-5.716-0.153-8.559C66.457,124.807,70.057,125.788,72.762,127.995z"/>
				<g>
					<path fill="none" stroke="#333333" stroke-width="1.4936" stroke-linecap="round" stroke-miterlimit="10" d="M73.299,128.513
						c0.208,0.247,0.419,0.491,0.584,0.77c0.835,1.287,1.251,2.828,1.259,4.356c-0.005,0.762-0.12,1.545-0.479,2.227
						c-0.192,0.329-0.421,0.65-0.744,0.859l-0.241,0.157c-0.05,0.076-0.071,0.176-0.107,0.263c-0.053,0.187-0.146,0.353-0.26,0.509
						c-0.431,0.641-1.132,1.045-1.854,1.281c-0.729,0.237-1.5,0.326-2.266,0.319c-1.521-0.045-3.083-0.443-4.308-1.379
						c-1.188-0.946-2.251-2.162-2.66-3.653c-0.199-0.74-0.183-1.539,0.075-2.262c0.246-0.731,0.731-1.355,1.281-1.881
						c0.268-0.277,0.578-0.502,0.884-0.733c0.185-0.09,0.225-0.298,0.315-0.463c0.088-0.17,0.153-0.352,0.259-0.513
						c0.372-0.668,0.881-1.271,1.522-1.689c0.643-0.419,1.427-0.595,2.189-0.535c0.188-0.003,0.391,0.052,0.557,0.075
						c0.091,0.016,0.184,0.028,0.271,0.058c0.176,0.054,0.355,0.096,0.528,0.16"/>
					
						<line fill="none" stroke="#333333" stroke-width="1.4936" stroke-linecap="round" stroke-miterlimit="10" x1="72.167" y1="127.544" x2="72.08" y2="127.485"/>
				</g>
			</g>
			
				<ellipse transform="matrix(-0.2699 -0.9629 0.9629 -0.2699 -47.2049 232.8943)" opacity="0.5" fill="#FFFFFF" enable-background="new    " cx="64.688" cy="134.343" rx="1.447" ry="1.19"/>
		</g>
		<g>
			<g>
				<path fill="#D3F46C" d="M48.149,143.173c1.46,3.171-0.474,8.379-3.097,8.387c-1.867,2.243-6.926,0.074-8.388-3.097
					c-1.46-3.171-1.352-7.021,3.621-7.758C43.885,137.54,46.689,140.001,48.149,143.173z"/>
				<g>
					<path fill="none" stroke="#333333" stroke-width="1.4936" stroke-linecap="round" stroke-miterlimit="10" d="M48.404,143.874
						c0.078,0.313,0.16,0.625,0.188,0.948c0.185,1.523-0.117,3.09-0.782,4.467c-0.339,0.682-0.786,1.335-1.408,1.789
						c-0.316,0.211-0.664,0.399-1.046,0.444l-0.285,0.036c-0.078,0.046-0.142,0.127-0.213,0.189
						c-0.129,0.145-0.286,0.252-0.457,0.343c-0.667,0.387-1.476,0.442-2.228,0.337c-0.759-0.106-1.49-0.365-2.175-0.708
						c-1.348-0.708-2.575-1.751-3.266-3.13c-0.649-1.371-1.071-2.931-0.785-4.451c0.146-0.752,0.514-1.462,1.063-1.999
						c0.541-0.549,1.252-0.896,1.978-1.127c0.361-0.131,0.739-0.197,1.115-0.271c0.205,0,0.332-0.169,0.487-0.277
						c0.153-0.115,0.293-0.249,0.457-0.347c0.627-0.438,1.35-0.756,2.11-0.849c0.761-0.095,1.544,0.091,2.201,0.48
						c0.17,0.08,0.328,0.218,0.468,0.313c0.074,0.054,0.151,0.105,0.218,0.17c0.135,0.126,0.276,0.243,0.405,0.376"/>
					
						<line fill="none" stroke="#333333" stroke-width="1.4936" stroke-linecap="round" stroke-miterlimit="10" x1="47.813" y1="142.506" x2="47.762" y2="142.415"/>
				</g>
			</g>
			
				<ellipse transform="matrix(0.1803 -0.9836 0.9836 0.1803 -111.7138 156.6071)" opacity="0.5" fill="#FFFFFF" enable-background="new    " cx="38.109" cy="145.333" rx="1.446" ry="1.19"/>
		</g>
		<path fill="#CC924C" stroke="#333333" stroke-width="2.6551" stroke-linecap="round" stroke-miterlimit="10" d="M86.617,179.338
			L31.002,118.9c-0.709-0.761-0.666-1.952,0.095-2.661l0,0c0.761-0.709,1.952-0.667,2.661,0.094l56.345,59.759"/>
		<g>
			
				<path fill="#A1C453" stroke="#333333" stroke-width="0.9957" stroke-linecap="round" stroke-linejoin="round" stroke-miterlimit="10" d="
				M32.058,115.139c0,0-2.663-1.226-3.251-1.328c-0.473-0.084,1.146,2.602,1.902,3.461L32.058,115.139z"/>
			
				<path fill="#A1C453" stroke="#333333" stroke-width="0.9957" stroke-linecap="round" stroke-linejoin="round" stroke-miterlimit="10" d="
				M30.201,116.544l4.491,0.403c0,0-2.534-3.702-4.377-4.064C30.316,112.883,30.481,115.053,30.201,116.544z"/>
			
				<path fill="#A1C453" stroke="#333333" stroke-width="0.9957" stroke-linecap="round" stroke-linejoin="round" stroke-miterlimit="10" d="
				M33.422,120.857c0,0-5.103-2.237-5.812-5.455l4.277,0.601L33.422,120.857z"/>
		</g>
	</g>
</g>
<g id="calque09">
	<g>
		
			<polygon fill="#CC924C" stroke="#333333" stroke-width="0.9957" stroke-linecap="round" stroke-linejoin="round" stroke-miterlimit="10" points="
			44.226,118.465 44.176,127.725 42.26,125.669 		"/>
		
			<polygon fill="#CC924C" stroke="#333333" stroke-width="0.7966" stroke-linecap="round" stroke-linejoin="round" stroke-miterlimit="10" points="
			40.051,139.713 49.968,139.261 48.053,137.205 		"/>
		
			<polygon fill="#CC924C" stroke="#333333" stroke-width="0.9957" stroke-linecap="round" stroke-linejoin="round" stroke-miterlimit="10" points="
			64.336,128.863 63.834,148.623 61.92,146.566 		"/>
		
			<polygon fill="#CC924C" stroke="#333333" stroke-width="0.9957" stroke-linecap="round" stroke-linejoin="round" stroke-miterlimit="10" points="
			64.219,162.305 71.562,163.032 70.324,161.705 		"/>
		<g>
			
				<path fill="#A1C453" stroke="#333333" stroke-width="1.4936" stroke-linecap="round" stroke-linejoin="round" stroke-miterlimit="10" d="
				M82.756,149.558c-2.455,1.077-4.297,0.244-6.459,5.443c-2.161,5.199,2.385,4.354,0.964,7.775
				c1.421-3.421,4.216,0.251,6.297-4.757C85.641,153.011,83.509,152.125,82.756,149.558z"/>
			<g>
				<line fill="none" x1="77.261" y1="162.776" x2="81.52" y2="152.532"/>
				<g>
					<polyline fill="none" stroke="#333333" stroke-width="0.9957" stroke-linecap="round" stroke-miterlimit="10" points="
						77.452,162.316 77.699,161.721 80.513,154.953 80.729,154.436 					"/>
					
						<line fill="none" stroke="#333333" stroke-width="0.9957" stroke-linecap="round" stroke-miterlimit="10" x1="81.328" y1="152.992" x2="81.302" y2="153.057"/>
				</g>
			</g>
		</g>
		<g>
			
				<path fill="#A1C453" stroke="#333333" stroke-width="1.4936" stroke-linecap="round" stroke-linejoin="round" stroke-miterlimit="10" d="
				M42.96,104.206c2.017,1.766,4.023,1.525,4.521,7.134c0.497,5.609-3.585,3.434-3.256,7.125c-0.329-3.691-4.097-1.028-4.576-6.43
				C39.17,106.634,41.469,106.429,42.96,104.206z"/>
			<g>
				<line fill="none" x1="44.226" y1="118.465" x2="43.244" y2="107.416"/>
				<g>
					<polyline fill="none" stroke="#333333" stroke-width="0.9957" stroke-linecap="round" stroke-miterlimit="10" points="
						44.182,117.969 44.125,117.327 43.477,110.027 43.427,109.469 					"/>
					
						<line fill="none" stroke="#333333" stroke-width="0.9957" stroke-linecap="round" stroke-miterlimit="10" x1="43.288" y1="107.912" x2="43.295" y2="107.981"/>
				</g>
			</g>
		</g>
		<g>
			
				<path fill="#A1C453" stroke="#333333" stroke-width="1.4936" stroke-linecap="round" stroke-linejoin="round" stroke-miterlimit="10" d="
				M55.824,115.146c-0.662,2.951-2.651,4.068,0.627,9.511c3.278,5.443,5.553,0.745,7.71,4.327c-2.157-3.582,3.049-3.663-0.108-8.905
				C60.894,114.836,58.663,116.18,55.824,115.146z"/>
			<g>
				<line fill="none" x1="64.161" y1="128.984" x2="57.701" y2="118.26"/>
				<g>
					<polyline fill="none" stroke="#333333" stroke-width="0.9957" stroke-linecap="round" stroke-miterlimit="10" points="
						63.904,128.558 63.571,128.005 59.054,120.506 58.765,120.026 					"/>
					
						<line fill="none" stroke="#333333" stroke-width="0.9957" stroke-linecap="round" stroke-miterlimit="10" x1="57.958" y1="118.687" x2="57.994" y2="118.747"/>
				</g>
			</g>
		</g>
		<g>
			
				<path fill="#A1C453" stroke="#333333" stroke-width="1.4936" stroke-linecap="round" stroke-linejoin="round" stroke-miterlimit="10" d="
				M68.395,113.582c-2.555,1.618-4.752,1.001-6.281,7.168c-1.528,6.167,3.399,4.453,2.394,8.511
				c1.007-4.058,4.746-0.435,6.219-6.373C72.199,116.946,69.671,116.32,68.395,113.582z"/>
			<g>
				<line fill="none" x1="64.506" y1="129.261" x2="67.52" y2="117.111"/>
				<g>
					<polyline fill="none" stroke="#333333" stroke-width="0.9957" stroke-linecap="round" stroke-miterlimit="10" points="
						64.626,128.778 64.781,128.152 66.889,119.656 67.023,119.112 					"/>
					
						<line fill="none" stroke="#333333" stroke-width="0.9957" stroke-linecap="round" stroke-miterlimit="10" x1="67.399" y1="117.594" x2="67.383" y2="117.662"/>
				</g>
			</g>
		</g>
		<g>
			
				<path fill="#A1C453" stroke="#333333" stroke-width="1.4936" stroke-linecap="round" stroke-linejoin="round" stroke-miterlimit="10" d="
				M52.071,160.2c1.975-1.363,2.206-3.159,7.184-2.363c4.977,0.796,2.196,3.863,5.472,4.387c-3.274-0.523-1.79,3.33-6.583,2.563
				C53.349,164.021,53.674,161.979,52.071,160.2z"/>
			<g>
				<line fill="none" x1="64.726" y1="162.223" x2="54.92" y2="160.655"/>
				<g>
					<polyline fill="none" stroke="#333333" stroke-width="0.9957" stroke-linecap="round" stroke-miterlimit="10" points="
						64.234,162.145 63.597,162.042 57.509,161.069 56.955,160.98 					"/>
					
						<line fill="none" stroke="#333333" stroke-width="0.9957" stroke-linecap="round" stroke-miterlimit="10" x1="55.411" y1="160.733" x2="55.48" y2="160.745"/>
				</g>
			</g>
		</g>
		<g>
			
				<path fill="#A1C453" stroke="#333333" stroke-width="1.4936" stroke-linecap="round" stroke-linejoin="round" stroke-miterlimit="10" d="
				M54.654,169.91c0.431-2.36-0.675-3.792,3.406-6.749c4.082-2.958,4.285,1.178,6.971-0.768c-2.686,1.946,1.091,3.621-2.842,6.468
				C58.258,171.709,57.045,170.035,54.654,169.91z"/>
			<g>
				<line fill="none" x1="65.031" y1="162.393" x2="56.99" y2="168.219"/>
				<g>
					<polyline fill="none" stroke="#333333" stroke-width="0.9957" stroke-linecap="round" stroke-miterlimit="10" points="
						64.628,162.685 64.105,163.063 59.113,166.681 58.659,167.009 					"/>
					
						<line fill="none" stroke="#333333" stroke-width="0.9957" stroke-linecap="round" stroke-miterlimit="10" x1="57.394" y1="167.927" x2="57.45" y2="167.886"/>
				</g>
			</g>
		</g>
		<g>
			
				<path fill="#A1C453" stroke="#333333" stroke-width="1.4936" stroke-linecap="round" stroke-linejoin="round" stroke-miterlimit="10" d="
				M26.842,149.717c3.002,0.375,4.307,2.247,9.406-1.543c5.1-3.791,0.203-5.599,3.561-8.092c-3.356,2.494-3.94-2.68-8.853,0.97
				C26.043,144.703,27.597,146.792,26.842,149.717z"/>
			<g>
				<line fill="none" x1="39.809" y1="140.082" x2="29.76" y2="147.549"/>
				<g>
					<polyline fill="none" stroke="#333333" stroke-width="0.9957" stroke-linecap="round" stroke-miterlimit="10" points="
						39.409,140.378 38.892,140.763 31.864,145.985 31.414,146.319 					"/>
					
						<line fill="none" stroke="#333333" stroke-width="0.9957" stroke-linecap="round" stroke-miterlimit="10" x1="30.159" y1="147.252" x2="30.216" y2="147.21"/>
				</g>
			</g>
		</g>
		<g>
			
				<path fill="#A1C453" stroke="#333333" stroke-width="1.4936" stroke-linecap="round" stroke-linejoin="round" stroke-miterlimit="10" d="
				M24.068,137.358c1.857,2.386,1.457,4.633,7.742,5.559c6.287,0.926,4.104-3.815,8.24-3.204c-4.137-0.611-0.892-4.683-6.945-5.574
				C27.05,133.247,26.671,135.824,24.068,137.358z"/>
			<g>
				<line fill="none" x1="40.051" y1="139.713" x2="27.665" y2="137.888"/>
				<g>
					<polyline fill="none" stroke="#333333" stroke-width="0.9957" stroke-linecap="round" stroke-miterlimit="10" points="
						39.559,139.64 38.92,139.546 30.259,138.27 29.704,138.188 					"/>
					
						<line fill="none" stroke="#333333" stroke-width="0.9957" stroke-linecap="round" stroke-miterlimit="10" x1="28.157" y1="137.96" x2="28.227" y2="137.971"/>
				</g>
			</g>
		</g>
		<g>
			
				<path fill="#A1C453" stroke="#333333" stroke-width="1.4936" stroke-linecap="round" stroke-linejoin="round" stroke-miterlimit="10" d="
				M37.408,152.376c1.997-1.286,3.727-0.815,4.892-5.669c1.165-4.855-2.698-3.479-1.931-6.672c-0.769,3.194-3.728,0.37-4.849,5.045
				C34.399,149.756,36.389,150.233,37.408,152.376z"/>
			<g>
				<line fill="none" x1="40.369" y1="140.035" x2="38.074" y2="149.599"/>
				<g>
					<polyline fill="none" stroke="#333333" stroke-width="0.9957" stroke-linecap="round" stroke-miterlimit="10" points="
						40.253,140.519 40.103,141.146 38.686,147.049 38.556,147.594 					"/>
					
						<line fill="none" stroke="#333333" stroke-width="0.9957" stroke-linecap="round" stroke-miterlimit="10" x1="38.19" y1="149.115" x2="38.207" y2="149.046"/>
				</g>
			</g>
		</g>
		<g>
			<g>
				<path fill="#EF4529" d="M72.762,127.995c2.705,2.208,3.252,7.737,0.9,8.896c-0.694,2.836-6.191,3.107-8.896,0.899
					s-4.296-5.716-0.153-8.559C66.457,124.807,70.057,125.788,72.762,127.995z"/>
				<g>
					<path fill="none" stroke="#333333" stroke-width="1.4936" stroke-linecap="round" stroke-miterlimit="10" d="M73.299,128.513
						c0.208,0.247,0.419,0.491,0.584,0.769c0.835,1.287,1.251,2.828,1.259,4.356c-0.005,0.762-0.12,1.545-0.479,2.226
						c-0.192,0.329-0.421,0.65-0.744,0.859l-0.241,0.157c-0.05,0.076-0.07,0.176-0.107,0.263c-0.053,0.187-0.146,0.353-0.26,0.509
						c-0.431,0.641-1.132,1.045-1.854,1.281c-0.729,0.237-1.5,0.326-2.266,0.319c-1.521-0.045-3.083-0.443-4.308-1.379
						c-1.188-0.946-2.251-2.162-2.66-3.653c-0.199-0.74-0.183-1.539,0.075-2.262c0.246-0.731,0.731-1.355,1.281-1.881
						c0.268-0.277,0.578-0.502,0.884-0.733c0.185-0.09,0.225-0.298,0.315-0.463c0.088-0.17,0.153-0.352,0.259-0.513
						c0.372-0.668,0.881-1.271,1.522-1.689c0.643-0.419,1.427-0.595,2.189-0.535c0.188-0.003,0.391,0.052,0.557,0.075
						c0.091,0.016,0.184,0.028,0.271,0.058c0.176,0.054,0.355,0.096,0.528,0.16"/>
					
						<line fill="none" stroke="#333333" stroke-width="1.4936" stroke-linecap="round" stroke-miterlimit="10" x1="72.167" y1="127.544" x2="72.08" y2="127.485"/>
				</g>
			</g>
			
				<ellipse transform="matrix(-0.2699 -0.9629 0.9629 -0.2699 -47.2049 232.8943)" opacity="0.5" fill="#FFFFFF" enable-background="new    " cx="64.688" cy="134.343" rx="1.447" ry="1.19"/>
		</g>
		<g>
			<g>
				<path fill="#EF4529" d="M48.149,143.173c1.46,3.171-0.474,8.379-3.097,8.387c-1.867,2.243-6.926,0.074-8.388-3.097
					c-1.46-3.171-1.352-7.021,3.62-7.758C43.885,137.54,46.689,140.001,48.149,143.173z"/>
				<g>
					<path fill="none" stroke="#333333" stroke-width="1.4936" stroke-linecap="round" stroke-miterlimit="10" d="M48.404,143.874
						c0.078,0.313,0.16,0.625,0.188,0.948c0.185,1.523-0.117,3.09-0.782,4.467c-0.339,0.682-0.786,1.335-1.409,1.789
						c-0.315,0.211-0.663,0.399-1.045,0.444l-0.285,0.036c-0.078,0.046-0.142,0.127-0.213,0.189
						c-0.129,0.145-0.286,0.252-0.457,0.343c-0.667,0.387-1.476,0.442-2.228,0.337c-0.759-0.106-1.49-0.365-2.175-0.708
						c-1.348-0.708-2.575-1.751-3.267-3.13c-0.648-1.371-1.07-2.931-0.784-4.451c0.146-0.752,0.514-1.462,1.063-1.999
						c0.541-0.549,1.252-0.896,1.978-1.127c0.36-0.132,0.739-0.197,1.115-0.271c0.205,0,0.332-0.17,0.487-0.278
						c0.152-0.115,0.292-0.249,0.457-0.347c0.627-0.438,1.35-0.756,2.108-0.849c0.763-0.094,1.546,0.092,2.203,0.481
						c0.17,0.08,0.328,0.218,0.468,0.313c0.074,0.054,0.151,0.105,0.218,0.17c0.135,0.126,0.276,0.243,0.405,0.376"/>
					
						<line fill="none" stroke="#333333" stroke-width="1.4936" stroke-linecap="round" stroke-miterlimit="10" x1="47.813" y1="142.506" x2="47.762" y2="142.415"/>
				</g>
			</g>
			
				<ellipse transform="matrix(0.1803 -0.9836 0.9836 0.1803 -111.7138 156.6071)" opacity="0.5" fill="#FFFFFF" enable-background="new    " cx="38.109" cy="145.333" rx="1.446" ry="1.19"/>
		</g>
		<path fill="#CC924C" stroke="#333333" stroke-width="2.6551" stroke-linecap="round" stroke-miterlimit="10" d="M86.617,179.338
			L31.002,118.9c-0.709-0.761-0.666-1.952,0.095-2.661l0,0c0.761-0.708,1.952-0.667,2.661,0.094l56.345,59.759"/>
		<g>
			
				<path fill="#A1C453" stroke="#333333" stroke-width="0.9957" stroke-linecap="round" stroke-linejoin="round" stroke-miterlimit="10" d="
				M32.058,115.139c0,0-2.663-1.226-3.253-1.327c-0.471-0.084,1.147,2.602,1.904,3.46L32.058,115.139z"/>
			
				<path fill="#A1C453" stroke="#333333" stroke-width="0.9957" stroke-linecap="round" stroke-linejoin="round" stroke-miterlimit="10" d="
				M30.201,116.544l4.491,0.403c0,0-2.534-3.702-4.377-4.064C30.316,112.883,30.481,115.053,30.201,116.544z"/>
			
				<path fill="#A1C453" stroke="#333333" stroke-width="0.9957" stroke-linecap="round" stroke-linejoin="round" stroke-miterlimit="10" d="
				M33.422,120.857c0,0-5.103-2.237-5.812-5.455l4.277,0.6L33.422,120.857z"/>
		</g>
	</g>
</g>
</svg>
