<?xml version="1.0" encoding="utf-8"?>
<!-- Generator: Adobe Illustrator 16.0.0, SVG Export Plug-In . SVG Version: 6.00 Build 0)  -->
<!DOCTYPE svg PUBLIC "-//W3C//DTD SVG 1.1//EN" "http://www.w3.org/Graphics/SVG/1.1/DTD/svg11.dtd">
<svg version="1.1" id="Calque_1" xmlns="http://www.w3.org/2000/svg" xmlns:xlink="http://www.w3.org/1999/xlink" x="0px" y="0px"
	 width="320px" height="410px" viewBox="0 0 320 410" enable-background="new 0 0 320 410" xml:space="preserve">
<g id="calque01">
	<g>
		<path fill="#CC924C" stroke="#333333" stroke-width="2.4893" stroke-linecap="round" stroke-miterlimit="10" d="M232.799,173.979
			l4.77-7.421c0.513-0.905,1.66-1.226,2.566-0.712l0,0c0.902,0.511,1.223,1.66,0.712,2.566l-3.903,7.909"/>
		<g>
			
				<path fill="#A1C453" stroke="#333333" stroke-width="0.9957" stroke-linecap="round" stroke-linejoin="round" stroke-miterlimit="10" d="
				M241.473,166.43c0,0,0.366-2.908,0.287-3.5c-0.064-0.477-2.137,1.877-2.727,2.856L241.473,166.43z"/>
			
				<path fill="#A1C453" stroke="#333333" stroke-width="0.9957" stroke-linecap="round" stroke-linejoin="round" stroke-miterlimit="10" d="
				M239.574,165.085l0.969,4.404c0,0,2.766-3.534,2.557-5.399C243.1,164.09,241.081,164.9,239.574,165.085z"/>
			
				<path fill="#A1C453" stroke="#333333" stroke-width="0.9957" stroke-linecap="round" stroke-linejoin="round" stroke-miterlimit="10" d="
				M236.432,169.455c0,0,0.596-5.541,3.45-7.184l0.716,4.258L236.432,169.455z"/>
		</g>
	</g>
</g>
<g id="calque02">
	<g>
		<g>
			
				<path fill="#A1C453" stroke="#333333" stroke-width="0.9957" stroke-linecap="round" stroke-linejoin="round" stroke-miterlimit="10" d="
				M239.938,151.744c1.096,0.563,1.962,0.23,2.81,2.67c0.848,2.439-1.209,1.927-0.652,3.533c-0.557-1.606-1.938,0-2.752-2.349
				C238.523,153.248,239.523,152.9,239.938,151.744z"/>
			<g>
				<line fill="none" x1="242.094" y1="157.947" x2="240.424" y2="153.141"/>
				<g>
					<polyline fill="none" stroke="#333333" stroke-width="0.9957" stroke-linecap="round" stroke-miterlimit="10" points="
						241.931,157.477 241.719,156.867 241.284,155.617 241.101,155.088 					"/>
					
						<line fill="none" stroke="#333333" stroke-width="0.9957" stroke-linecap="round" stroke-miterlimit="10" x1="240.587" y1="153.611" x2="240.61" y2="153.677"/>
				</g>
			</g>
		</g>
		<path fill="#CC924C" stroke="#333333" stroke-width="2.4893" stroke-linecap="round" stroke-miterlimit="10" d="M236.943,176.321
			l13.05-24.078c0.512-0.903,0.191-2.053-0.716-2.565l0,0c-0.901-0.512-2.052-0.192-2.563,0.711l-13.916,23.59"/>
		<g>
			
				<path fill="#A1C453" stroke="#333333" stroke-width="0.9957" stroke-linecap="round" stroke-linejoin="round" stroke-miterlimit="10" d="
				M248.088,148.831c0,0,2.305-1.812,2.854-2.047c0.441-0.191-0.51,2.797-1.045,3.808L248.088,148.831z"/>
			
				<path fill="#A1C453" stroke="#333333" stroke-width="0.9957" stroke-linecap="round" stroke-linejoin="round" stroke-miterlimit="10" d="
				M250.22,149.766l-4.274,1.439c0,0,1.604-4.191,3.312-4.974C249.256,146.231,249.601,148.381,250.22,149.766z"/>
			
				<path fill="#A1C453" stroke="#333333" stroke-width="0.9957" stroke-linecap="round" stroke-linejoin="round" stroke-miterlimit="10" d="
				M248.094,154.711c0,0,4.439-3.365,4.379-6.659l-4.02,1.581L248.094,154.711z"/>
		</g>
	</g>
</g>
<g id="calque03">
	<g>
		<g>
			
				<path fill="#A1C453" stroke="#333333" stroke-width="1.4936" stroke-linecap="round" stroke-linejoin="round" stroke-miterlimit="10" d="
				M238.371,143.309c2.383,1.22,4.271,0.498,6.124,5.817c1.847,5.317-2.643,4.204-1.426,7.704c-1.217-3.5-4.223-0.001-6.004-5.122
				C235.285,146.586,237.465,145.825,238.371,143.309z"/>
			<g>
				<line fill="none" x1="243.07" y1="156.83" x2="239.426" y2="146.351"/>
				<g>
					<polyline fill="none" stroke="#333333" stroke-width="0.9957" stroke-linecap="round" stroke-miterlimit="10" points="
						242.907,156.359 242.695,155.751 240.287,148.827 240.103,148.298 					"/>
					
						<line fill="none" stroke="#333333" stroke-width="0.9957" stroke-linecap="round" stroke-miterlimit="10" x1="239.589" y1="146.82" x2="239.612" y2="146.887"/>
				</g>
			</g>
		</g>
		<g>
			
				<path fill="#A1C453" stroke="#333333" stroke-width="0.9957" stroke-linecap="round" stroke-linejoin="round" stroke-miterlimit="10" d="
				M257.934,146.983c-0.48,1.106-0.106,1.937-2.446,2.911c-2.343,0.974-1.962-1.073-3.503-0.433
				c1.541-0.641-0.112-1.898,2.142-2.835C256.379,145.688,256.779,146.646,257.934,146.983z"/>
			<g>
				<line fill="none" x1="251.984" y1="149.462" x2="256.095" y2="147.785"/>
				<g>
					<polyline fill="none" stroke="#333333" stroke-width="0.9957" stroke-linecap="round" stroke-miterlimit="10" points="
						252.445,149.273 253.043,149.03 253.667,148.775 254.186,148.563 					"/>
					
						<line fill="none" stroke="#333333" stroke-width="0.9957" stroke-linecap="round" stroke-miterlimit="10" x1="255.634" y1="147.973" x2="255.569" y2="148"/>
				</g>
			</g>
		</g>
		<path fill="#CC924C" stroke="#333333" stroke-width="2.4893" stroke-linecap="round" stroke-miterlimit="10" d="M236.943,176.321
			l17.263-31.526c0.512-0.904,0.19-2.053-0.716-2.565l0,0c-0.901-0.512-2.053-0.19-2.563,0.714l-18.128,31.035"/>
		<g>
			
				<path fill="#A1C453" stroke="#333333" stroke-width="0.9957" stroke-linecap="round" stroke-linejoin="round" stroke-miterlimit="10" d="
				M252.303,141.384c0,0,2.303-1.813,2.852-2.049c0.439-0.191-0.511,2.798-1.044,3.811L252.303,141.384z"/>
			
				<path fill="#A1C453" stroke="#333333" stroke-width="0.9957" stroke-linecap="round" stroke-linejoin="round" stroke-miterlimit="10" d="
				M254.434,142.318l-4.275,1.438c0,0,1.604-4.19,3.313-4.972C253.47,138.785,253.815,140.934,254.434,142.318z"/>
			
				<path fill="#A1C453" stroke="#333333" stroke-width="0.9957" stroke-linecap="round" stroke-linejoin="round" stroke-miterlimit="10" d="
				M252.307,147.263c0,0,4.439-3.365,4.379-6.657l-4.02,1.579L252.307,147.263z"/>
		</g>
	</g>
</g>
<g id="calque04">
	<g>
		
			<polygon fill="#CC924C" stroke="#333333" stroke-width="0.9957" stroke-linecap="round" stroke-linejoin="round" stroke-miterlimit="10" points="
			257.874,146.467 250.578,151.208 251.961,148.763 		"/>
		<g>
			
				<path fill="#A1C453" stroke="#333333" stroke-width="1.4936" stroke-linecap="round" stroke-linejoin="round" stroke-miterlimit="10" d="
				M238.369,143.308c2.385,1.221,4.274,0.5,6.126,5.818c1.847,5.317-2.643,4.204-1.426,7.704c-1.217-3.5-4.223,0-6.004-5.122
				C235.285,146.586,237.465,145.825,238.369,143.308z"/>
			<g>
				<line fill="none" x1="243.07" y1="156.83" x2="239.383" y2="146.191"/>
				<g>
					<polyline fill="none" stroke="#333333" stroke-width="0.9957" stroke-linecap="round" stroke-miterlimit="10" points="
						242.907,156.359 242.696,155.75 240.241,148.669 240.058,148.139 					"/>
					
						<line fill="none" stroke="#333333" stroke-width="0.9957" stroke-linecap="round" stroke-miterlimit="10" x1="239.546" y1="146.662" x2="239.568" y2="146.728"/>
				</g>
			</g>
		</g>
		<g>
			
				<path fill="#A1C453" stroke="#333333" stroke-width="1.4936" stroke-linecap="round" stroke-linejoin="round" stroke-miterlimit="10" d="
				M271.088,140.964c-1.073,2.455-0.242,4.296-5.439,6.461c-5.196,2.164-4.354-2.383-7.773-0.958
				c3.419-1.425-0.255-4.216,4.751-6.301C267.631,138.08,268.52,140.212,271.088,140.964z"/>
			<g>
				<line fill="none" x1="257.829" y1="146.308" x2="268.068" y2="142.042"/>
				<g>
					<polyline fill="none" stroke="#333333" stroke-width="0.9957" stroke-linecap="round" stroke-miterlimit="10" points="
						258.289,146.116 258.884,145.868 265.648,143.051 266.165,142.835 					"/>
					
						<line fill="none" stroke="#333333" stroke-width="0.9957" stroke-linecap="round" stroke-miterlimit="10" x1="267.608" y1="142.233" x2="267.544" y2="142.261"/>
				</g>
			</g>
		</g>
		<g>
			
				<path fill="#A1C453" stroke="#333333" stroke-width="0.9957" stroke-linecap="round" stroke-linejoin="round" stroke-miterlimit="10" d="
				M247.463,133.364c1.481,0.507,2.516-0.069,4.031,2.854c1.518,2.924-1.177,2.654-0.18,4.578c-0.997-1.924-2.443,0.355-3.903-2.461
				S247.15,134.896,247.463,133.364z"/>
			<g>
				<line fill="none" x1="251.315" y1="140.797" x2="248.33" y2="135.036"/>
				<g>
					<polyline fill="none" stroke="#333333" stroke-width="0.9957" stroke-linecap="round" stroke-miterlimit="10" points="
						251.086,140.354 250.789,139.782 249.536,137.364 249.278,136.866 					"/>
					
						<line fill="none" stroke="#333333" stroke-width="0.9957" stroke-linecap="round" stroke-miterlimit="10" x1="248.56" y1="135.479" x2="248.592" y2="135.54"/>
				</g>
			</g>
		</g>
		<path fill="#CC924C" stroke="#333333" stroke-width="2.6551" stroke-linecap="round" stroke-miterlimit="10" d="M236.943,176.321
			l21.168-38.43c0.512-0.903,0.19-2.053-0.715-2.565l0,0c-0.906-0.513-2.053-0.192-2.563,0.712l-22.033,37.94"/>
		<g>
			
				<path fill="#A1C453" stroke="#333333" stroke-width="0.9957" stroke-linecap="round" stroke-linejoin="round" stroke-miterlimit="10" d="
				M256.205,134.479c0,0,2.307-1.811,2.854-2.047c0.438-0.192-0.509,2.797-1.044,3.81L256.205,134.479z"/>
			
				<path fill="#A1C453" stroke="#333333" stroke-width="0.9957" stroke-linecap="round" stroke-linejoin="round" stroke-miterlimit="10" d="
				M258.338,135.414l-4.271,1.439c0,0,1.601-4.191,3.308-4.975C257.373,131.879,257.72,134.028,258.338,135.414z"/>
			
				<path fill="#A1C453" stroke="#333333" stroke-width="0.9957" stroke-linecap="round" stroke-linejoin="round" stroke-miterlimit="10" d="
				M256.213,140.36c0,0,4.438-3.366,4.378-6.659l-4.021,1.578L256.213,140.36z"/>
		</g>
	</g>
</g>
<g id="calque05">
	<g>
		
			<polygon fill="#CC924C" stroke="#333333" stroke-width="0.9957" stroke-linecap="round" stroke-linejoin="round" stroke-miterlimit="10" points="
			257.874,146.467 250.578,151.208 251.961,148.763 		"/>
		
			<polygon fill="#CC924C" stroke="#333333" stroke-width="0.9957" stroke-linecap="round" stroke-linejoin="round" stroke-miterlimit="10" points="
			247.087,129.103 250.08,144.438 251.464,141.992 		"/>
		<g>
			
				<path fill="#A1C453" stroke="#333333" stroke-width="1.4936" stroke-linecap="round" stroke-linejoin="round" stroke-miterlimit="10" d="
				M238.369,143.308c2.385,1.221,4.272,0.499,6.124,5.817c1.849,5.318-2.641,4.205-1.424,7.705c-1.217-3.5-4.223,0-6.004-5.122
				C235.285,146.586,237.465,145.825,238.369,143.308z"/>
			<g>
				<line fill="none" x1="243.07" y1="156.83" x2="239.383" y2="146.191"/>
				<g>
					<polyline fill="none" stroke="#333333" stroke-width="0.9957" stroke-linecap="round" stroke-miterlimit="10" points="
						242.907,156.359 242.696,155.75 240.241,148.669 240.058,148.139 					"/>
					
						<line fill="none" stroke="#333333" stroke-width="0.9957" stroke-linecap="round" stroke-miterlimit="10" x1="239.546" y1="146.662" x2="239.568" y2="146.728"/>
				</g>
			</g>
		</g>
		<g>
			
				<path fill="#A1C453" stroke="#333333" stroke-width="1.4936" stroke-linecap="round" stroke-linejoin="round" stroke-miterlimit="10" d="
				M271.088,140.964c-1.073,2.455-0.242,4.296-5.439,6.461c-5.196,2.164-4.354-2.383-7.773-0.958
				c3.419-1.425-0.255-4.216,4.751-6.301C267.631,138.08,268.52,140.212,271.088,140.964z"/>
			<g>
				<line fill="none" x1="257.829" y1="146.308" x2="268.068" y2="142.042"/>
				<g>
					<polyline fill="none" stroke="#333333" stroke-width="0.9957" stroke-linecap="round" stroke-miterlimit="10" points="
						258.289,146.116 258.884,145.868 265.648,143.051 266.165,142.835 					"/>
					
						<line fill="none" stroke="#333333" stroke-width="0.9957" stroke-linecap="round" stroke-miterlimit="10" x1="267.608" y1="142.233" x2="267.544" y2="142.261"/>
				</g>
			</g>
		</g>
		<g>
			
				<path fill="#A1C453" stroke="#333333" stroke-width="0.9957" stroke-linecap="round" stroke-linejoin="round" stroke-miterlimit="10" d="
				M249.824,121.449c0.647,1.321,1.717,1.624,0.782,4.572c-0.935,2.947-2.542,0.981-3.157,2.92c0.615-1.938-1.859-1.388-0.958-4.226
				C247.392,121.877,248.598,122.26,249.824,121.449z"/>
			<g>
				<line fill="none" x1="247.449" y1="128.941" x2="249.289" y2="123.136"/>
				<g>
					<polyline fill="none" stroke="#333333" stroke-width="0.9957" stroke-linecap="round" stroke-miterlimit="10" points="
						247.6,128.467 247.795,127.852 248.497,125.635 248.666,125.101 					"/>
					
						<line fill="none" stroke="#333333" stroke-width="0.9957" stroke-linecap="round" stroke-miterlimit="10" x1="249.139" y1="123.61" x2="249.117" y2="123.677"/>
				</g>
			</g>
		</g>
		<g>
			
				<path fill="#A1C453" stroke="#333333" stroke-width="1.4936" stroke-linecap="round" stroke-linejoin="round" stroke-miterlimit="10" d="
				M239.578,115.187c2.863,0.979,4.854-0.133,7.778,5.507c2.929,5.642-2.268,5.125-0.342,8.835c-1.926-3.71-4.718,0.684-7.535-4.749
				C236.665,119.346,238.977,118.146,239.578,115.187z"/>
			<g>
				<line fill="none" x1="247.016" y1="129.528" x2="241.251" y2="118.415"/>
				<g>
					<polyline fill="none" stroke="#333333" stroke-width="0.9957" stroke-linecap="round" stroke-miterlimit="10" points="
						246.786,129.086 246.489,128.514 242.458,120.742 242.2,120.245 					"/>
					
						<line fill="none" stroke="#333333" stroke-width="0.9957" stroke-linecap="round" stroke-miterlimit="10" x1="241.48" y1="118.857" x2="241.513" y2="118.919"/>
				</g>
			</g>
		</g>
		<g>
			
				<path fill="#A1C453" stroke="#333333" stroke-width="0.9957" stroke-linecap="round" stroke-linejoin="round" stroke-miterlimit="10" d="
				M273.522,120.718c-0.576,1.269-0.154,2.231-2.872,3.319c-2.715,1.09-2.244-1.268-4.032-0.551
				c1.788-0.717-0.104-2.191,2.514-3.241C271.748,119.196,272.193,120.31,273.522,120.718z"/>
			<g>
				<line fill="none" x1="266.617" y1="123.486" x2="271.969" y2="121.341"/>
				<g>
					<polyline fill="none" stroke="#333333" stroke-width="0.9957" stroke-linecap="round" stroke-miterlimit="10" points="
						267.079,123.301 267.678,123.061 269.535,122.316 270.056,122.107 					"/>
					
						<line fill="none" stroke="#333333" stroke-width="0.9957" stroke-linecap="round" stroke-miterlimit="10" x1="271.507" y1="121.526" x2="271.441" y2="121.552"/>
				</g>
			</g>
		</g>
		<path fill="#CC924C" stroke="#333333" stroke-width="2.6551" stroke-linecap="round" stroke-miterlimit="10" d="M236.943,176.321
			l30.986-55.788c0.512-0.904,0.192-2.055-0.715-2.566l0,0c-0.902-0.512-2.051-0.192-2.563,0.712l-31.853,55.3"/>
		<g>
			
				<path fill="#A1C453" stroke="#333333" stroke-width="0.9957" stroke-linecap="round" stroke-linejoin="round" stroke-miterlimit="10" d="
				M266.025,117.121c0,0,2.306-1.813,2.854-2.049c0.438-0.191-0.511,2.798-1.045,3.811L266.025,117.121z"/>
			
				<path fill="#A1C453" stroke="#333333" stroke-width="0.9957" stroke-linecap="round" stroke-linejoin="round" stroke-miterlimit="10" d="
				M268.156,118.055l-4.272,1.439c0,0,1.604-4.193,3.309-4.974C267.191,114.521,267.537,116.672,268.156,118.055z"/>
			
				<path fill="#A1C453" stroke="#333333" stroke-width="0.9957" stroke-linecap="round" stroke-linejoin="round" stroke-miterlimit="10" d="
				M266.031,123.001c0,0,4.439-3.366,4.382-6.66l-4.021,1.582L266.031,123.001z"/>
		</g>
		<g>
			
				<path fill="#FFFFFF" stroke="#333333" stroke-width="0.9957" stroke-linecap="round" stroke-linejoin="round" stroke-miterlimit="10" d="
				M258.756,146.889c-0.443,0.005-0.889,0.772-1.157,1.385c-0.485,1.103-0.153,2.932,1.248,2.919
				c1.409-0.013,1.717-1.848,1.216-2.94C259.785,147.646,259.205,146.885,258.756,146.889z"/>
			
				<path fill="#FFFFFF" stroke="#333333" stroke-width="0.9957" stroke-linecap="round" stroke-linejoin="round" stroke-miterlimit="10" d="
				M258.703,146.784c0.221-0.388-0.224-1.156-0.619-1.695c-0.713-0.971-2.463-1.597-3.15-0.378c-0.695,1.225,0.742,2.41,1.938,2.523
				C257.536,147.297,258.482,147.174,258.703,146.784z"/>
			
				<path fill="#FFFFFF" stroke="#333333" stroke-width="0.9957" stroke-linecap="round" stroke-linejoin="round" stroke-miterlimit="10" d="
				M258.816,146.789c0.226,0.384,1.111,0.384,1.777,0.311c1.197-0.132,2.613-1.334,1.901-2.541
				c-0.715-1.213-2.456-0.563-3.153,0.416C258.957,145.52,258.588,146.402,258.816,146.789z"/>
			
				<path fill="#FFFFFF" stroke="#333333" stroke-width="0.9957" stroke-linecap="round" stroke-linejoin="round" stroke-miterlimit="10" d="
				M258.879,146.924c-0.221,0.388,0.225,1.156,0.619,1.693c0.711,0.972,2.461,1.599,3.151,0.379
				c0.691-1.226-0.741-2.408-1.938-2.523C260.047,146.412,259.1,146.533,258.879,146.924z"/>
			
				<path fill="#FFFFFF" stroke="#333333" stroke-width="0.9957" stroke-linecap="round" stroke-linejoin="round" stroke-miterlimit="10" d="
				M258.764,146.913c-0.227-0.384-1.115-0.384-1.779-0.312c-1.195,0.131-2.61,1.334-1.899,2.543
				c0.713,1.212,2.455,0.561,3.152-0.418C258.623,148.181,258.99,147.299,258.764,146.913z"/>
			
				<path fill="#FFFFFF" stroke="#333333" stroke-width="0.9957" stroke-linecap="round" stroke-linejoin="round" stroke-miterlimit="10" d="
				M258.842,146.817c0.447-0.004,0.893-0.773,1.158-1.386c0.483-1.102,0.151-2.93-1.248-2.918c-1.408,0.013-1.717,1.848-1.217,2.939
				C257.814,146.062,258.395,146.819,258.842,146.817z"/>
			
				<path fill="#F9D53E" stroke="#333333" stroke-width="0.9957" stroke-linecap="round" stroke-linejoin="round" stroke-miterlimit="10" d="
				M258.072,146.468c0.254-0.444,0.816-0.602,1.263-0.351c0.443,0.253,0.602,0.817,0.348,1.262
				c-0.249,0.447-0.813,0.604-1.259,0.351C257.977,147.479,257.82,146.912,258.072,146.468z"/>
		</g>
	</g>
</g>
<g id="calque06">
	<g>
		
			<polygon fill="#CC924C" stroke="#333333" stroke-width="0.9957" stroke-linecap="round" stroke-linejoin="round" stroke-miterlimit="10" points="
			257.874,146.467 250.578,151.208 251.961,148.763 		"/>
		
			<polygon fill="#CC924C" stroke="#333333" stroke-width="0.9957" stroke-linecap="round" stroke-linejoin="round" stroke-miterlimit="10" points="
			271.759,123.057 265.041,125.642 266.423,123.196 		"/>
		
			<polygon fill="#CC924C" stroke="#333333" stroke-width="0.9957" stroke-linecap="round" stroke-linejoin="round" stroke-miterlimit="10" points="
			247.087,129.103 250.08,144.438 251.464,141.992 		"/>
		<g>
			
				<path fill="#A1C453" stroke="#333333" stroke-width="1.4936" stroke-linecap="round" stroke-linejoin="round" stroke-miterlimit="10" d="
				M238.369,143.308c2.385,1.221,4.274,0.5,6.126,5.818c1.847,5.317-2.643,4.204-1.426,7.704c-1.217-3.5-4.223,0-6.004-5.122
				C235.285,146.586,237.467,145.827,238.369,143.308z"/>
			<g>
				<line fill="none" x1="243.07" y1="156.83" x2="239.383" y2="146.191"/>
				<g>
					<polyline fill="none" stroke="#333333" stroke-width="0.9957" stroke-linecap="round" stroke-miterlimit="10" points="
						242.907,156.359 242.696,155.75 240.241,148.669 240.058,148.139 					"/>
					
						<line fill="none" stroke="#333333" stroke-width="0.9957" stroke-linecap="round" stroke-miterlimit="10" x1="239.546" y1="146.662" x2="239.568" y2="146.728"/>
				</g>
			</g>
		</g>
		<g>
			
				<path fill="#A1C453" stroke="#333333" stroke-width="1.4936" stroke-linecap="round" stroke-linejoin="round" stroke-miterlimit="10" d="
				M271.088,140.964c-1.073,2.455-0.242,4.296-5.439,6.461c-5.196,2.164-4.354-2.383-7.773-0.958
				c3.419-1.425-0.255-4.217,4.751-6.301C267.631,138.08,268.52,140.212,271.088,140.964z"/>
			<g>
				<line fill="none" x1="257.829" y1="146.308" x2="268.07" y2="142.042"/>
				<g>
					<polyline fill="none" stroke="#333333" stroke-width="0.9957" stroke-linecap="round" stroke-miterlimit="10" points="
						258.289,146.116 258.884,145.868 265.65,143.05 266.167,142.835 					"/>
					
						<line fill="none" stroke="#333333" stroke-width="0.9957" stroke-linecap="round" stroke-miterlimit="10" x1="267.61" y1="142.233" x2="267.546" y2="142.261"/>
				</g>
			</g>
		</g>
		<g>
			
				<path fill="#A1C453" stroke="#333333" stroke-width="1.4936" stroke-linecap="round" stroke-linejoin="round" stroke-miterlimit="10" d="
				M252.17,113.779c1.33,2.716,3.524,3.338,1.604,9.396c-1.923,6.057-5.227,2.018-6.489,6.004c1.264-3.986-3.818-2.853-1.968-8.685
				C247.166,114.658,249.649,115.447,252.17,113.779z"/>
			<g>
				<line fill="none" x1="247.285" y1="129.179" x2="251.068" y2="117.244"/>
				<g>
					<polyline fill="none" stroke="#333333" stroke-width="0.9957" stroke-linecap="round" stroke-miterlimit="10" points="
						247.436,128.704 247.631,128.089 250.276,119.743 250.445,119.209 					"/>
					
						<line fill="none" stroke="#333333" stroke-width="0.9957" stroke-linecap="round" stroke-miterlimit="10" x1="250.918" y1="117.719" x2="250.896" y2="117.785"/>
				</g>
			</g>
		</g>
		<g>
			
				<path fill="#A1C453" stroke="#333333" stroke-width="1.4936" stroke-linecap="round" stroke-linejoin="round" stroke-miterlimit="10" d="
				M239.58,115.187c2.861,0.979,4.852-0.133,7.778,5.508c2.927,5.641-2.27,5.124-0.344,8.834c-1.926-3.71-4.718,0.684-7.535-4.749
				C236.665,119.346,238.977,118.146,239.58,115.187z"/>
			<g>
				<line fill="none" x1="247.016" y1="129.528" x2="241.253" y2="118.415"/>
				<g>
					<polyline fill="none" stroke="#333333" stroke-width="0.9957" stroke-linecap="round" stroke-miterlimit="10" points="
						246.786,129.086 246.489,128.514 242.46,120.742 242.202,120.245 					"/>
					
						<line fill="none" stroke="#333333" stroke-width="0.9957" stroke-linecap="round" stroke-miterlimit="10" x1="241.482" y1="118.857" x2="241.515" y2="118.919"/>
				</g>
			</g>
		</g>
		<g>
			
				<path fill="#A1C453" stroke="#333333" stroke-width="0.9957" stroke-linecap="round" stroke-linejoin="round" stroke-miterlimit="10" d="
				M265.245,108.766c0.962,0.746,1.865,0.584,2.24,3.113c0.375,2.528-1.53,1.651-1.282,3.316c-0.248-1.665-1.887-0.357-2.247-2.791
				C263.593,109.968,264.631,109.813,265.245,108.766z"/>
			<g>
				<line fill="none" x1="266.203" y1="115.195" x2="265.461" y2="110.213"/>
				<g>
					<polyline fill="none" stroke="#333333" stroke-width="0.9957" stroke-linecap="round" stroke-miterlimit="10" points="
						266.13,114.703 266.035,114.064 265.848,112.807 265.765,112.252 					"/>
					
						<line fill="none" stroke="#333333" stroke-width="0.9957" stroke-linecap="round" stroke-miterlimit="10" x1="265.534" y1="110.705" x2="265.545" y2="110.774"/>
				</g>
			</g>
		</g>
		<g>
			
				<path fill="#A1C453" stroke="#333333" stroke-width="0.9957" stroke-linecap="round" stroke-linejoin="round" stroke-miterlimit="10" d="
				M280.524,119.884c-0.691,1.523-0.188,2.68-3.447,3.989c-3.265,1.31-2.7-1.523-4.847-0.663c2.146-0.86-0.125-2.633,3.019-3.894
				C278.391,118.057,278.927,119.393,280.524,119.884z"/>
			<g>
				<line fill="none" x1="272.23" y1="123.21" x2="278.656" y2="120.633"/>
				<g>
					<polyline fill="none" stroke="#333333" stroke-width="0.9957" stroke-linecap="round" stroke-miterlimit="10" points="
						272.692,123.024 273.291,122.784 276.223,121.608 276.743,121.4 					"/>
					
						<line fill="none" stroke="#333333" stroke-width="0.9957" stroke-linecap="round" stroke-miterlimit="10" x1="278.194" y1="120.818" x2="278.129" y2="120.844"/>
				</g>
			</g>
		</g>
		<g>
			
				<path fill="#A1C453" stroke="#333333" stroke-width="1.4936" stroke-linecap="round" stroke-linejoin="round" stroke-miterlimit="10" d="
				M277.28,134.758c-2.242-0.786-3.813,0.074-6.078-4.374c-2.264-4.45,1.813-4.011,0.323-6.938c1.49,2.928,3.709-0.508,5.89,3.776
				C279.596,131.508,277.771,132.437,277.28,134.758z"/>
			<g>
				<line fill="none" x1="271.48" y1="123.286" x2="275.939" y2="132.053"/>
				<g>
					<polyline fill="none" stroke="#333333" stroke-width="0.9957" stroke-linecap="round" stroke-miterlimit="10" points="
						271.706,123.729 271.999,124.305 274.751,129.716 275.005,130.215 					"/>
					
						<line fill="none" stroke="#333333" stroke-width="0.9957" stroke-linecap="round" stroke-miterlimit="10" x1="275.714" y1="131.609" x2="275.682" y2="131.547"/>
				</g>
			</g>
		</g>
		<path fill="#CC924C" stroke="#333333" stroke-width="2.6551" stroke-linecap="round" stroke-miterlimit="10" d="M236.943,176.321
			l35.338-63.483c0.515-0.904,0.191-2.054-0.713-2.566l0,0c-0.903-0.511-2.053-0.19-2.563,0.714l-36.205,62.993"/>
		<g>
			<g>
				<path fill="#D3F46C" d="M260.324,152.203c-1.685,1.607-5.39,1.514-5.957-0.139c-1.822-0.694-1.548-4.354,0.139-5.96
					c1.684-1.606,4.135-2.369,5.674,0.605C262.953,148.296,262.008,150.598,260.324,152.203z"/>
				<g>
					<path fill="none" stroke="#333333" stroke-width="0.9957" stroke-linecap="round" stroke-miterlimit="10" d="M259.938,152.516
						c-0.181,0.117-0.358,0.236-0.558,0.323c-0.92,0.446-1.975,0.595-2.985,0.474c-0.504-0.066-1.013-0.207-1.433-0.502
						c-0.202-0.154-0.396-0.332-0.506-0.564l-0.084-0.172c-0.047-0.039-0.111-0.062-0.166-0.093
						c-0.119-0.05-0.222-0.126-0.314-0.214c-0.773-0.715-0.844-1.873-0.721-2.855c0.156-1.003,0.548-2.003,1.269-2.736
						c0.725-0.706,1.616-1.31,2.638-1.458c1.03-0.172,2.059,0.397,2.629,1.239c0.161,0.199,0.283,0.424,0.412,0.645
						c0.128,0.223,0.41,0.291,0.598,0.461c0.411,0.302,0.769,0.688,0.991,1.147c0.225,0.46,0.275,0.993,0.174,1.493
						c-0.014,0.124-0.066,0.254-0.096,0.362c-0.02,0.059-0.034,0.118-0.062,0.174c-0.051,0.112-0.094,0.229-0.148,0.337"/>
					
						<line fill="none" stroke="#333333" stroke-width="0.9957" stroke-linecap="round" stroke-miterlimit="10" x1="260.672" y1="151.847" x2="260.719" y2="151.795"/>
				</g>
			</g>
			<path opacity="0.5" fill="#FFFFFF" enable-background="new    " d="M256.904,147.119c-0.526,0.08-1.004-0.207-1.067-0.64
				c-0.068-0.434,0.308-0.85,0.833-0.93c0.526-0.079,1.007,0.208,1.068,0.64C257.807,146.623,257.432,147.039,256.904,147.119z"/>
		</g>
		<g>
			
				<path fill="#A1C453" stroke="#333333" stroke-width="0.9957" stroke-linecap="round" stroke-linejoin="round" stroke-miterlimit="10" d="
				M270.379,109.426c0,0,2.305-1.813,2.854-2.049c0.439-0.19-0.51,2.798-1.045,3.811L270.379,109.426z"/>
			
				<path fill="#A1C453" stroke="#333333" stroke-width="0.9957" stroke-linecap="round" stroke-linejoin="round" stroke-miterlimit="10" d="
				M272.511,110.36l-4.276,1.438c0,0,1.604-4.189,3.312-4.971C271.545,106.827,271.891,108.976,272.511,110.36z"/>
			
				<path fill="#A1C453" stroke="#333333" stroke-width="0.9957" stroke-linecap="round" stroke-linejoin="round" stroke-miterlimit="10" d="
				M270.383,115.306c0,0,4.438-3.367,4.38-6.66l-4.021,1.581L270.383,115.306z"/>
		</g>
		<g>
			
				<path fill="#FFFFFF" stroke="#333333" stroke-width="0.9957" stroke-linecap="round" stroke-linejoin="round" stroke-miterlimit="10" d="
				M264.115,114.648c-0.444,0.003-0.889,0.772-1.155,1.386c-0.486,1.101-0.152,2.93,1.247,2.917c1.41-0.013,1.716-1.848,1.216-2.941
				C265.143,115.404,264.564,114.644,264.115,114.648z"/>
			
				<path fill="#FFFFFF" stroke="#333333" stroke-width="0.9957" stroke-linecap="round" stroke-linejoin="round" stroke-miterlimit="10" d="
				M264.063,114.543c0.221-0.388-0.225-1.158-0.619-1.695c-0.712-0.972-2.463-1.597-3.151-0.377
				c-0.693,1.226,0.742,2.408,1.938,2.522C262.895,115.055,263.842,114.934,264.063,114.543z"/>
			
				<path fill="#FFFFFF" stroke="#333333" stroke-width="0.9957" stroke-linecap="round" stroke-linejoin="round" stroke-miterlimit="10" d="
				M264.174,114.548c0.227,0.384,1.113,0.383,1.777,0.31c1.196-0.129,2.614-1.334,1.903-2.541c-0.717-1.212-2.459-0.56-3.155,0.417
				C264.313,113.279,263.946,114.162,264.174,114.548z"/>
			
				<path fill="#FFFFFF" stroke="#333333" stroke-width="0.9957" stroke-linecap="round" stroke-linejoin="round" stroke-miterlimit="10" d="
				M264.236,114.682c-0.219,0.389,0.226,1.157,0.619,1.696c0.713,0.971,2.463,1.597,3.154,0.377
				c0.691-1.226-0.742-2.409-1.939-2.522C265.404,114.17,264.459,114.291,264.236,114.682z"/>
			
				<path fill="#FFFFFF" stroke="#333333" stroke-width="0.9957" stroke-linecap="round" stroke-linejoin="round" stroke-miterlimit="10" d="
				M264.121,114.672c-0.228-0.383-1.114-0.383-1.777-0.309c-1.197,0.129-2.615,1.332-1.904,2.539
				c0.716,1.213,2.459,0.562,3.156-0.418C263.98,115.94,264.35,115.059,264.121,114.672z"/>
			
				<path fill="#FFFFFF" stroke="#333333" stroke-width="0.9957" stroke-linecap="round" stroke-linejoin="round" stroke-miterlimit="10" d="
				M264.201,114.576c0.444-0.005,0.889-0.773,1.157-1.385c0.486-1.101,0.152-2.931-1.248-2.919
				c-1.409,0.013-1.717,1.848-1.217,2.939C263.172,113.818,263.754,114.58,264.201,114.576z"/>
			
				<circle fill="#F9D53E" stroke="#333333" stroke-width="0.9957" stroke-linecap="round" stroke-linejoin="round" stroke-miterlimit="10" cx="264.236" cy="114.682" r="0.926"/>
		</g>
	</g>
</g>
<g id="calque07">
	<g>
		
			<polygon fill="#CC924C" stroke="#333333" stroke-width="0.9957" stroke-linecap="round" stroke-linejoin="round" stroke-miterlimit="10" points="
			257.874,146.467 250.578,151.208 251.961,148.763 		"/>
		
			<polygon fill="#CC924C" stroke="#333333" stroke-width="0.9957" stroke-linecap="round" stroke-linejoin="round" stroke-miterlimit="10" points="
			271.759,123.057 265.041,125.642 266.423,123.196 		"/>
		
			<polygon fill="#CC924C" stroke="#333333" stroke-width="0.9957" stroke-linecap="round" stroke-linejoin="round" stroke-miterlimit="10" points="
			247.087,129.103 250.08,144.438 251.464,141.992 		"/>
		
			<polygon fill="#CC924C" stroke="#333333" stroke-width="0.9957" stroke-linecap="round" stroke-linejoin="round" stroke-miterlimit="10" points="
			264.576,108.906 265.729,116.776 266.621,115.199 		"/>
		<g>
			
				<path fill="#A1C453" stroke="#333333" stroke-width="1.4936" stroke-linecap="round" stroke-linejoin="round" stroke-miterlimit="10" d="
				M238.369,143.308c2.385,1.221,4.272,0.499,6.124,5.817c1.849,5.318-2.641,4.205-1.424,7.705c-1.217-3.5-4.223,0-6.004-5.122
				C235.285,146.586,237.465,145.825,238.369,143.308z"/>
			<g>
				<line fill="none" x1="243.07" y1="156.83" x2="239.383" y2="146.191"/>
				<g>
					<polyline fill="none" stroke="#333333" stroke-width="0.9957" stroke-linecap="round" stroke-miterlimit="10" points="
						242.907,156.359 242.696,155.75 240.241,148.669 240.058,148.139 					"/>
					
						<line fill="none" stroke="#333333" stroke-width="0.9957" stroke-linecap="round" stroke-miterlimit="10" x1="239.546" y1="146.662" x2="239.568" y2="146.728"/>
				</g>
			</g>
		</g>
		<g>
			
				<path fill="#A1C453" stroke="#333333" stroke-width="1.4936" stroke-linecap="round" stroke-linejoin="round" stroke-miterlimit="10" d="
				M271.088,140.964c-1.073,2.455-0.242,4.296-5.439,6.461c-5.196,2.164-4.354-2.383-7.773-0.958
				c3.419-1.425-0.255-4.216,4.751-6.301C267.631,138.08,268.52,140.212,271.088,140.964z"/>
			<g>
				<line fill="none" x1="257.829" y1="146.308" x2="268.068" y2="142.042"/>
				<g>
					<polyline fill="none" stroke="#333333" stroke-width="0.9957" stroke-linecap="round" stroke-miterlimit="10" points="
						258.289,146.116 258.884,145.868 265.648,143.051 266.165,142.835 					"/>
					
						<line fill="none" stroke="#333333" stroke-width="0.9957" stroke-linecap="round" stroke-miterlimit="10" x1="267.608" y1="142.233" x2="267.544" y2="142.261"/>
				</g>
			</g>
		</g>
		<g>
			
				<path fill="#A1C453" stroke="#333333" stroke-width="1.4936" stroke-linecap="round" stroke-linejoin="round" stroke-miterlimit="10" d="
				M252.17,113.779c1.33,2.716,3.524,3.338,1.604,9.396c-1.923,6.057-5.229,2.017-6.489,6.004c1.262-3.987-3.818-2.853-1.97-8.687
				C247.165,114.658,249.649,115.447,252.17,113.779z"/>
			<g>
				<line fill="none" x1="247.285" y1="129.179" x2="251.068" y2="117.244"/>
				<g>
					<polyline fill="none" stroke="#333333" stroke-width="0.9957" stroke-linecap="round" stroke-miterlimit="10" points="
						247.436,128.704 247.631,128.089 250.276,119.743 250.445,119.209 					"/>
					
						<line fill="none" stroke="#333333" stroke-width="0.9957" stroke-linecap="round" stroke-miterlimit="10" x1="250.918" y1="117.719" x2="250.896" y2="117.785"/>
				</g>
			</g>
		</g>
		<g>
			
				<path fill="#A1C453" stroke="#333333" stroke-width="1.4936" stroke-linecap="round" stroke-linejoin="round" stroke-miterlimit="10" d="
				M239.578,115.187c2.863,0.979,4.854-0.133,7.778,5.507c2.929,5.642-2.268,5.125-0.342,8.835c-1.926-3.71-4.718,0.684-7.535-4.749
				C236.665,119.346,238.977,118.146,239.578,115.187z"/>
			<g>
				<line fill="none" x1="247.016" y1="129.528" x2="241.251" y2="118.415"/>
				<g>
					<polyline fill="none" stroke="#333333" stroke-width="0.9957" stroke-linecap="round" stroke-miterlimit="10" points="
						246.786,129.086 246.489,128.514 242.458,120.742 242.2,120.245 					"/>
					
						<line fill="none" stroke="#333333" stroke-width="0.9957" stroke-linecap="round" stroke-miterlimit="10" x1="241.48" y1="118.857" x2="241.513" y2="118.919"/>
				</g>
			</g>
		</g>
		<g>
			
				<path fill="#A1C453" stroke="#333333" stroke-width="0.9957" stroke-linecap="round" stroke-linejoin="round" stroke-miterlimit="10" d="
				M263.291,102.926c1.055,0.82,2.045,0.641,2.459,3.417c0.412,2.774-1.684,1.813-1.41,3.64c-0.272-1.826-2.067-0.391-2.467-3.063
				C261.478,104.245,262.614,104.076,263.291,102.926z"/>
			<g>
				<line fill="none" x1="264.34" y1="109.982" x2="263.525" y2="104.514"/>
				<g>
					<polyline fill="none" stroke="#333333" stroke-width="0.9957" stroke-linecap="round" stroke-miterlimit="10" points="
						264.267,109.49 264.172,108.852 263.912,107.107 263.829,106.553 					"/>
					
						<line fill="none" stroke="#333333" stroke-width="0.9957" stroke-linecap="round" stroke-miterlimit="10" x1="263.599" y1="105.006" x2="263.609" y2="105.075"/>
				</g>
			</g>
		</g>
		<g>
			
				<path fill="#A1C453" stroke="#333333" stroke-width="1.4936" stroke-linecap="round" stroke-linejoin="round" stroke-miterlimit="10" d="
				M254.441,102.076c2.381-0.301,3.414-1.785,7.461,1.215c4.052,3.002,0.168,4.441,2.835,6.416
				c-2.667-1.975-3.125,2.129-7.021-0.759C253.813,106.056,255.043,104.395,254.441,102.076z"/>
			<g>
				<line fill="none" x1="264.737" y1="109.707" x2="256.758" y2="103.794"/>
				<g>
					<polyline fill="none" stroke="#333333" stroke-width="0.9957" stroke-linecap="round" stroke-miterlimit="10" points="
						264.337,109.41 263.819,109.026 258.864,105.355 258.414,105.021 					"/>
					
						<line fill="none" stroke="#333333" stroke-width="0.9957" stroke-linecap="round" stroke-miterlimit="10" x1="257.158" y1="104.09" x2="257.214" y2="104.132"/>
				</g>
			</g>
		</g>
		<g>
			
				<path fill="#A1C453" stroke="#333333" stroke-width="0.9957" stroke-linecap="round" stroke-linejoin="round" stroke-miterlimit="10" d="
				M280.286,127.066c-1.614,0.606-2.092,1.817-5.421,0.393c-3.332-1.425-0.857-3.076-3.052-4.014
				c2.193,0.938,1.829-2.011,5.037-0.639C280.063,124.179,279.481,125.544,280.286,127.066z"/>
			<g>
				<line fill="none" x1="271.789" y1="123.354" x2="278.354" y2="126.16"/>
				<g>
					<polyline fill="none" stroke="#333333" stroke-width="0.9957" stroke-linecap="round" stroke-miterlimit="10" points="
						272.247,123.55 272.84,123.804 275.943,125.13 276.459,125.35 					"/>
					
						<line fill="none" stroke="#333333" stroke-width="0.9957" stroke-linecap="round" stroke-miterlimit="10" x1="277.896" y1="125.965" x2="277.832" y2="125.938"/>
				</g>
			</g>
		</g>
		<g>
			
				<path fill="#A1C453" stroke="#333333" stroke-width="1.4936" stroke-linecap="round" stroke-linejoin="round" stroke-miterlimit="10" d="
				M286.754,117.043c-1.252,2.754-0.337,4.846-6.236,7.211c-5.896,2.363-4.879-2.755-8.759-1.197c3.88-1.558-0.224-4.76,5.456-7.038
				C282.895,113.738,283.865,116.156,286.754,117.043z"/>
			<g>
				<line fill="none" x1="271.759" y1="123.057" x2="283.377" y2="118.396"/>
				<g>
					<polyline fill="none" stroke="#333333" stroke-width="0.9957" stroke-linecap="round" stroke-miterlimit="10" points="
						272.221,122.871 272.819,122.631 280.943,119.372 281.464,119.163 					"/>
					
						<line fill="none" stroke="#333333" stroke-width="0.9957" stroke-linecap="round" stroke-miterlimit="10" x1="282.915" y1="118.581" x2="282.85" y2="118.607"/>
				</g>
			</g>
		</g>
		<g>
			
				<path fill="#A1C453" stroke="#333333" stroke-width="1.4936" stroke-linecap="round" stroke-linejoin="round" stroke-miterlimit="10" d="
				M277.28,134.758c-2.242-0.786-3.814,0.074-6.078-4.374c-2.264-4.45,1.813-4.011,0.323-6.938c1.49,2.928,3.709-0.508,5.89,3.776
				C279.596,131.508,277.771,132.437,277.28,134.758z"/>
			<g>
				<line fill="none" x1="271.48" y1="123.286" x2="275.939" y2="132.052"/>
				<g>
					<polyline fill="none" stroke="#333333" stroke-width="0.9957" stroke-linecap="round" stroke-miterlimit="10" points="
						271.706,123.729 271.999,124.305 274.751,129.715 275.005,130.215 					"/>
					
						<line fill="none" stroke="#333333" stroke-width="0.9957" stroke-linecap="round" stroke-miterlimit="10" x1="275.714" y1="131.608" x2="275.682" y2="131.546"/>
				</g>
			</g>
		</g>
		<path fill="#CC924C" stroke="#333333" stroke-width="2.6551" stroke-linecap="round" stroke-miterlimit="10" d="M236.943,176.321
			l40.007-71.731c0.512-0.905,0.188-2.056-0.716-2.565l0,0c-0.903-0.513-2.052-0.193-2.563,0.712l-40.871,71.242"/>
		<g>
			<g>
				<path fill="#D3F46C" d="M266.639,114.59c-0.84,2.026-4.063,3.355-5.188,2.15c-1.832,0.095-2.99-3.163-2.151-5.19
					c0.841-2.024,2.661-3.616,5.124-1.639C267.418,110.219,267.479,112.563,266.639,114.59z"/>
				<g>
					<path fill="none" stroke="#333333" stroke-width="0.9957" stroke-linecap="round" stroke-miterlimit="10" d="M266.408,115.03
						c-0.113,0.184-0.239,0.357-0.385,0.518c-0.631,0.715-1.473,1.238-2.387,1.504c-0.456,0.129-0.943,0.195-1.412,0.098
						c-0.229-0.057-0.462-0.139-0.642-0.297c-0.046-0.037-0.09-0.08-0.139-0.112l-0.179-0.011c-0.12,0.002-0.233-0.03-0.349-0.067
						c-0.927-0.323-1.424-1.281-1.693-2.167c-0.246-0.913-0.301-1.914,0.029-2.814c0.343-0.879,0.866-1.735,1.669-2.267
						c0.397-0.261,0.871-0.414,1.35-0.404c0.479,0.005,0.942,0.162,1.363,0.381c0.724,0.695,1.804,0.513,2.572,1.145
						c0.383,0.285,0.658,0.705,0.783,1.164c0.024,0.113,0.066,0.236,0.072,0.342l0.021,0.184c0.019,0.122,0.008,0.245,0.013,0.368"
						/>
					
						<line fill="none" stroke="#333333" stroke-width="0.9957" stroke-linecap="round" stroke-miterlimit="10" x1="266.812" y1="114.123" x2="266.833" y2="114.057"/>
				</g>
			</g>
			
				<ellipse transform="matrix(0.8443 -0.5359 0.5359 0.8443 -18.723 157.3272)" opacity="0.5" fill="#FFFFFF" enable-background="new    " cx="261.366" cy="110.882" rx="0.908" ry="0.747"/>
		</g>
		<g>
			<g>
				<path fill="#D3F46C" d="M260.406,154.476c-2.526,2.411-8.079,2.269-8.938-0.21c-2.73-1.041-2.316-6.528,0.209-8.938
					c2.525-2.411,6.205-3.555,8.513,0.909C264.352,148.613,262.934,152.064,260.406,154.476z"/>
				<g>
					<path fill="none" stroke="#333333" stroke-width="1.4936" stroke-linecap="round" stroke-miterlimit="10" d="M259.826,154.944
						c-0.271,0.176-0.54,0.354-0.837,0.484c-1.381,0.669-2.962,0.892-4.479,0.709c-0.755-0.1-1.518-0.311-2.149-0.753
						c-0.302-0.231-0.593-0.498-0.759-0.846l-0.126-0.258c-0.07-0.06-0.166-0.093-0.248-0.14c-0.179-0.075-0.331-0.189-0.473-0.321
						c-0.583-0.506-0.897-1.252-1.042-1.998c-0.146-0.752-0.138-1.528-0.036-2.287c0.234-1.503,0.822-3.004,1.903-4.104
						c1.086-1.06,2.425-1.965,3.956-2.186c0.758-0.105,1.549,0.01,2.233,0.355c0.695,0.334,1.254,0.895,1.708,1.506
						c0.241,0.299,0.426,0.636,0.617,0.968c0.066,0.193,0.269,0.259,0.421,0.37c0.158,0.107,0.33,0.196,0.478,0.32
						c0.616,0.451,1.152,1.031,1.486,1.721c0.336,0.689,0.414,1.49,0.259,2.239c-0.02,0.187-0.1,0.382-0.144,0.543
						c-0.027,0.089-0.051,0.178-0.091,0.261c-0.076,0.169-0.141,0.342-0.226,0.506"/>
					
						<line fill="none" stroke="#333333" stroke-width="1.4936" stroke-linecap="round" stroke-miterlimit="10" x1="260.928" y1="153.941" x2="260.997" y2="153.862"/>
				</g>
			</g>
			<path opacity="0.5" fill="#FFFFFF" enable-background="new    " d="M255.278,146.849c-0.79,0.12-1.507-0.31-1.604-0.96
				c-0.101-0.649,0.462-1.275,1.253-1.395c0.793-0.119,1.51,0.313,1.606,0.961C256.631,146.106,256.07,146.729,255.278,146.849z"/>
		</g>
		<g>
			
				<path fill="#A1C453" stroke="#333333" stroke-width="0.9957" stroke-linecap="round" stroke-linejoin="round" stroke-miterlimit="10" d="
				M275.045,101.177c0,0,2.304-1.813,2.854-2.047c0.438-0.193-0.512,2.797-1.045,3.809L275.045,101.177z"/>
			
				<path fill="#A1C453" stroke="#333333" stroke-width="0.9957" stroke-linecap="round" stroke-linejoin="round" stroke-miterlimit="10" d="
				M277.177,102.112l-4.276,1.438c0,0,1.604-4.191,3.31-4.974C276.209,98.577,276.557,100.727,277.177,102.112z"/>
			
				<path fill="#A1C453" stroke="#333333" stroke-width="0.9957" stroke-linecap="round" stroke-linejoin="round" stroke-miterlimit="10" d="
				M275.051,107.057c0,0,4.438-3.365,4.378-6.659l-4.019,1.58L275.051,107.057z"/>
		</g>
	</g>
</g>
<g id="calque08">
	<g>
		
			<polygon fill="#CC924C" stroke="#333333" stroke-width="0.9957" stroke-linecap="round" stroke-linejoin="round" stroke-miterlimit="10" points="
			257.874,146.467 250.578,151.208 251.961,148.763 		"/>
		
			<polygon fill="#CC924C" stroke="#333333" stroke-width="0.9957" stroke-linecap="round" stroke-linejoin="round" stroke-miterlimit="10" points="
			271.759,123.057 265.041,125.642 266.423,123.196 		"/>
		
			<polygon fill="#CC924C" stroke="#333333" stroke-width="0.9957" stroke-linecap="round" stroke-linejoin="round" stroke-miterlimit="10" points="
			247.087,129.103 250.08,144.438 251.464,141.992 		"/>
		
			<polygon fill="#CC924C" stroke="#333333" stroke-width="0.9957" stroke-linecap="round" stroke-linejoin="round" stroke-miterlimit="10" points="
			264.576,108.906 265.729,116.776 266.621,115.199 		"/>
		<g>
			
				<path fill="#A1C453" stroke="#333333" stroke-width="1.4936" stroke-linecap="round" stroke-linejoin="round" stroke-miterlimit="10" d="
				M238.369,143.308c2.385,1.221,4.274,0.5,6.126,5.818c1.847,5.317-2.643,4.204-1.426,7.704c-1.217-3.5-4.223,0-6.004-5.122
				C235.285,146.586,237.465,145.825,238.369,143.308z"/>
			<g>
				<line fill="none" x1="243.07" y1="156.83" x2="239.383" y2="146.191"/>
				<g>
					<polyline fill="none" stroke="#333333" stroke-width="0.9957" stroke-linecap="round" stroke-miterlimit="10" points="
						242.907,156.359 242.696,155.75 240.241,148.669 240.058,148.139 					"/>
					
						<line fill="none" stroke="#333333" stroke-width="0.9957" stroke-linecap="round" stroke-miterlimit="10" x1="239.546" y1="146.662" x2="239.568" y2="146.728"/>
				</g>
			</g>
		</g>
		<g>
			
				<path fill="#A1C453" stroke="#333333" stroke-width="1.4936" stroke-linecap="round" stroke-linejoin="round" stroke-miterlimit="10" d="
				M271.088,140.964c-1.073,2.455-0.242,4.296-5.439,6.461c-5.196,2.164-4.354-2.383-7.773-0.958
				c3.419-1.425-0.255-4.217,4.751-6.301C267.631,138.08,268.52,140.212,271.088,140.964z"/>
			<g>
				<line fill="none" x1="257.829" y1="146.308" x2="268.068" y2="142.042"/>
				<g>
					<polyline fill="none" stroke="#333333" stroke-width="0.9957" stroke-linecap="round" stroke-miterlimit="10" points="
						258.289,146.116 258.884,145.868 265.648,143.051 266.165,142.835 					"/>
					
						<line fill="none" stroke="#333333" stroke-width="0.9957" stroke-linecap="round" stroke-miterlimit="10" x1="267.608" y1="142.233" x2="267.544" y2="142.261"/>
				</g>
			</g>
		</g>
		<g>
			
				<path fill="#A1C453" stroke="#333333" stroke-width="1.4936" stroke-linecap="round" stroke-linejoin="round" stroke-miterlimit="10" d="
				M252.17,113.779c1.33,2.716,3.524,3.338,1.604,9.396c-1.923,6.057-5.227,2.018-6.489,6.004c1.264-3.986-3.818-2.853-1.968-8.685
				C247.166,114.658,249.649,115.447,252.17,113.779z"/>
			<g>
				<line fill="none" x1="247.285" y1="129.179" x2="251.068" y2="117.244"/>
				<g>
					<polyline fill="none" stroke="#333333" stroke-width="0.9957" stroke-linecap="round" stroke-miterlimit="10" points="
						247.436,128.704 247.631,128.089 250.276,119.743 250.445,119.209 					"/>
					
						<line fill="none" stroke="#333333" stroke-width="0.9957" stroke-linecap="round" stroke-miterlimit="10" x1="250.918" y1="117.719" x2="250.896" y2="117.785"/>
				</g>
			</g>
		</g>
		<g>
			
				<path fill="#A1C453" stroke="#333333" stroke-width="1.4936" stroke-linecap="round" stroke-linejoin="round" stroke-miterlimit="10" d="
				M239.58,115.187c2.861,0.979,4.852-0.133,7.778,5.508c2.927,5.641-2.27,5.124-0.344,8.834c-1.926-3.71-4.718,0.684-7.535-4.749
				C236.665,119.346,238.977,118.146,239.58,115.187z"/>
			<g>
				<line fill="none" x1="247.016" y1="129.528" x2="241.253" y2="118.415"/>
				<g>
					<polyline fill="none" stroke="#333333" stroke-width="0.9957" stroke-linecap="round" stroke-miterlimit="10" points="
						246.786,129.086 246.489,128.514 242.46,120.742 242.202,120.245 					"/>
					
						<line fill="none" stroke="#333333" stroke-width="0.9957" stroke-linecap="round" stroke-miterlimit="10" x1="241.482" y1="118.857" x2="241.515" y2="118.919"/>
				</g>
			</g>
		</g>
		<g>
			
				<path fill="#A1C453" stroke="#333333" stroke-width="1.4936" stroke-linecap="round" stroke-linejoin="round" stroke-miterlimit="10" d="
				M262.923,96.688c1.895,1.472,3.677,1.151,4.417,6.137c0.74,4.986-3.021,3.258-2.534,6.538c-0.487-3.28-3.714-0.701-4.427-5.503
				C259.664,99.057,261.71,98.754,262.923,96.688z"/>
			<g>
				<line fill="none" x1="264.806" y1="109.363" x2="263.348" y2="99.542"/>
				<g>
					<polyline fill="none" stroke="#333333" stroke-width="0.9957" stroke-linecap="round" stroke-miterlimit="10" points="
						264.732,108.871 264.638,108.232 263.732,102.136 263.65,101.581 					"/>
					
						<line fill="none" stroke="#333333" stroke-width="0.9957" stroke-linecap="round" stroke-miterlimit="10" x1="263.421" y1="100.034" x2="263.431" y2="100.104"/>
				</g>
			</g>
		</g>
		<g>
			
				<path fill="#A1C453" stroke="#333333" stroke-width="1.4936" stroke-linecap="round" stroke-linejoin="round" stroke-miterlimit="10" d="
				M254.441,102.076c2.381-0.301,3.414-1.785,7.461,1.215c4.052,3.002,0.168,4.441,2.835,6.416
				c-2.667-1.975-3.125,2.129-7.021-0.759C253.813,106.056,255.043,104.395,254.441,102.076z"/>
			<g>
				<line fill="none" x1="264.737" y1="109.707" x2="256.758" y2="103.794"/>
				<g>
					<polyline fill="none" stroke="#333333" stroke-width="0.9957" stroke-linecap="round" stroke-miterlimit="10" points="
						264.337,109.41 263.819,109.026 258.864,105.355 258.414,105.021 					"/>
					
						<line fill="none" stroke="#333333" stroke-width="0.9957" stroke-linecap="round" stroke-miterlimit="10" x1="257.158" y1="104.09" x2="257.214" y2="104.132"/>
				</g>
			</g>
		</g>
		<g>
			
				<path fill="#A1C453" stroke="#333333" stroke-width="1.4936" stroke-linecap="round" stroke-linejoin="round" stroke-miterlimit="10" d="
				M286.938,129.71c-2.835,1.063-3.666,3.187-9.508,0.689c-5.844-2.499-1.502-5.396-5.348-7.038c3.846,1.643,3.207-3.526,8.834-1.12
				C286.545,124.646,285.521,127.042,286.938,129.71z"/>
			<g>
				<line fill="none" x1="272.037" y1="123.201" x2="283.55" y2="128.121"/>
				<g>
					<polyline fill="none" stroke="#333333" stroke-width="0.9957" stroke-linecap="round" stroke-miterlimit="10" points="
						272.495,123.396 273.088,123.65 281.139,127.091 281.654,127.311 					"/>
					
						<line fill="none" stroke="#333333" stroke-width="0.9957" stroke-linecap="round" stroke-miterlimit="10" x1="283.092" y1="127.926" x2="283.027" y2="127.898"/>
				</g>
			</g>
		</g>
		<g>
			
				<path fill="#A1C453" stroke="#333333" stroke-width="1.4936" stroke-linecap="round" stroke-linejoin="round" stroke-miterlimit="10" d="
				M286.754,117.043c-1.252,2.754-0.337,4.846-6.236,7.211c-5.896,2.365-4.879-2.755-8.759-1.197c3.88-1.558-0.224-4.76,5.456-7.038
				C282.895,113.738,283.865,116.156,286.754,117.043z"/>
			<g>
				<line fill="none" x1="271.759" y1="123.057" x2="283.377" y2="118.396"/>
				<g>
					<polyline fill="none" stroke="#333333" stroke-width="0.9957" stroke-linecap="round" stroke-miterlimit="10" points="
						272.221,122.871 272.819,122.631 280.943,119.372 281.464,119.163 					"/>
					
						<line fill="none" stroke="#333333" stroke-width="0.9957" stroke-linecap="round" stroke-miterlimit="10" x1="282.915" y1="118.581" x2="282.85" y2="118.607"/>
				</g>
			</g>
		</g>
		<g>
			
				<path fill="#A1C453" stroke="#333333" stroke-width="1.4936" stroke-linecap="round" stroke-linejoin="round" stroke-miterlimit="10" d="
				M277.28,134.758c-2.242-0.786-3.814,0.074-6.078-4.374c-2.264-4.45,1.813-4.011,0.323-6.938c1.49,2.928,3.709-0.508,5.89,3.776
				C279.596,131.508,277.771,132.437,277.28,134.758z"/>
			<g>
				<line fill="none" x1="271.48" y1="123.286" x2="275.939" y2="132.053"/>
				<g>
					<polyline fill="none" stroke="#333333" stroke-width="0.9957" stroke-linecap="round" stroke-miterlimit="10" points="
						271.706,123.729 271.999,124.305 274.751,129.716 275.005,130.215 					"/>
					
						<line fill="none" stroke="#333333" stroke-width="0.9957" stroke-linecap="round" stroke-miterlimit="10" x1="275.714" y1="131.609" x2="275.682" y2="131.547"/>
				</g>
			</g>
		</g>
		<path fill="#CC924C" stroke="#333333" stroke-width="2.6551" stroke-linecap="round" stroke-miterlimit="10" d="M236.943,176.321
			l40.007-71.731c0.512-0.905,0.188-2.056-0.716-2.565l0,0c-0.903-0.513-2.052-0.193-2.563,0.712l-40.871,71.242"/>
		<g>
			<g>
				<path fill="#D3F46C" d="M267.496,117.511c-1.336,3.226-6.474,5.342-8.262,3.422c-2.915,0.152-4.759-5.033-3.421-8.259
					c1.336-3.227,4.236-5.761,8.153-2.612C268.733,110.554,268.83,114.285,267.496,117.511z"/>
				<g>
					<path fill="none" stroke="#333333" stroke-width="1.4936" stroke-linecap="round" stroke-miterlimit="10" d="M267.154,118.174
						c-0.176,0.271-0.35,0.543-0.567,0.781c-0.992,1.17-2.349,2.012-3.811,2.459c-0.73,0.215-1.515,0.33-2.271,0.181
						c-0.37-0.089-0.743-0.216-1.036-0.466l-0.221-0.185c-0.087-0.027-0.188-0.018-0.282-0.028c-0.194,0.004-0.38-0.039-0.563-0.102
						c-0.736-0.228-1.325-0.783-1.761-1.406c-0.437-0.629-0.744-1.342-0.957-2.077c-0.395-1.47-0.464-3.079,0.081-4.521
						c0.565-1.408,1.424-2.777,2.733-3.6c0.65-0.403,1.421-0.618,2.188-0.579c0.771,0.024,1.508,0.311,2.17,0.686
						c0.343,0.176,0.647,0.408,0.956,0.635c0.141,0.15,0.351,0.129,0.535,0.169c0.188,0.035,0.381,0.046,0.565,0.101
						c0.747,0.163,1.471,0.477,2.055,0.973c0.587,0.495,0.98,1.196,1.143,1.943c0.058,0.179,0.063,0.39,0.089,0.555
						c0.011,0.092,0.024,0.184,0.021,0.275c-0.001,0.185,0.011,0.369-0.001,0.554"/>
					
						<line fill="none" stroke="#333333" stroke-width="1.4936" stroke-linecap="round" stroke-miterlimit="10" x1="267.757" y1="116.812" x2="267.789" y2="116.711"/>
				</g>
			</g>
			
				<ellipse transform="matrix(0.8443 -0.5358 0.5358 0.8443 -19.4626 156.1896)" opacity="0.5" fill="#FFFFFF" enable-background="new    " cx="259.085" cy="111.592" rx="1.448" ry="1.19"/>
		</g>
		<g>
			<g>
				<path fill="#EF4529" d="M260.406,154.476c-2.526,2.411-8.079,2.269-8.938-0.21c-2.73-1.041-2.316-6.528,0.209-8.938
					c2.525-2.411,6.205-3.555,8.513,0.909C264.352,148.613,262.934,152.064,260.406,154.476z"/>
				<g>
					<path fill="none" stroke="#333333" stroke-width="1.4936" stroke-linecap="round" stroke-miterlimit="10" d="M259.826,154.944
						c-0.271,0.176-0.54,0.354-0.837,0.484c-1.381,0.669-2.962,0.892-4.479,0.709c-0.755-0.1-1.518-0.311-2.149-0.753
						c-0.302-0.231-0.593-0.498-0.759-0.846l-0.126-0.258c-0.07-0.06-0.166-0.093-0.248-0.14c-0.179-0.075-0.331-0.189-0.473-0.321
						c-0.583-0.506-0.897-1.252-1.042-1.998c-0.146-0.752-0.138-1.528-0.036-2.287c0.234-1.503,0.822-3.004,1.903-4.104
						c1.086-1.06,2.425-1.965,3.956-2.186c0.758-0.105,1.549,0.01,2.233,0.355c0.695,0.334,1.254,0.895,1.708,1.506
						c0.241,0.299,0.426,0.636,0.617,0.968c0.066,0.193,0.269,0.259,0.421,0.37c0.158,0.107,0.33,0.196,0.478,0.32
						c0.616,0.451,1.152,1.031,1.486,1.721c0.336,0.689,0.414,1.49,0.259,2.239c-0.02,0.187-0.1,0.382-0.144,0.543
						c-0.027,0.089-0.051,0.178-0.091,0.261c-0.076,0.169-0.141,0.342-0.226,0.506"/>
					
						<line fill="none" stroke="#333333" stroke-width="1.4936" stroke-linecap="round" stroke-miterlimit="10" x1="260.928" y1="153.941" x2="260.997" y2="153.862"/>
				</g>
			</g>
			<path opacity="0.5" fill="#FFFFFF" enable-background="new    " d="M255.278,146.849c-0.787,0.121-1.507-0.31-1.604-0.96
				c-0.101-0.649,0.464-1.274,1.253-1.395c0.793-0.119,1.51,0.313,1.606,0.961C256.631,146.106,256.07,146.729,255.278,146.849z"/>
		</g>
		<g>
			
				<path fill="#A1C453" stroke="#333333" stroke-width="0.9957" stroke-linecap="round" stroke-linejoin="round" stroke-miterlimit="10" d="
				M275.045,101.177c0,0,2.304-1.813,2.854-2.047c0.439-0.192-0.512,2.797-1.045,3.809L275.045,101.177z"/>
			
				<path fill="#A1C453" stroke="#333333" stroke-width="0.9957" stroke-linecap="round" stroke-linejoin="round" stroke-miterlimit="10" d="
				M277.177,102.112l-4.276,1.438c0,0,1.604-4.191,3.31-4.974C276.209,98.577,276.557,100.727,277.177,102.112z"/>
			
				<path fill="#A1C453" stroke="#333333" stroke-width="0.9957" stroke-linecap="round" stroke-linejoin="round" stroke-miterlimit="10" d="
				M275.051,107.057c0,0,4.438-3.365,4.378-6.659l-4.019,1.58L275.051,107.057z"/>
		</g>
	</g>
</g>
<g id="calque09">
	<g>
		
			<polygon fill="#CC924C" stroke="#333333" stroke-width="0.9957" stroke-linecap="round" stroke-linejoin="round" stroke-miterlimit="10" points="
			257.876,146.468 250.578,151.21 251.961,148.764 		"/>
		
			<polygon fill="#CC924C" stroke="#333333" stroke-width="0.9957" stroke-linecap="round" stroke-linejoin="round" stroke-miterlimit="10" points="
			271.76,123.059 265.041,125.643 266.424,123.197 		"/>
		
			<polygon fill="#CC924C" stroke="#333333" stroke-width="0.9957" stroke-linecap="round" stroke-linejoin="round" stroke-miterlimit="10" points="
			247.089,129.104 250.081,144.439 251.465,141.994 		"/>
		
			<polygon fill="#CC924C" stroke="#333333" stroke-width="0.9957" stroke-linecap="round" stroke-linejoin="round" stroke-miterlimit="10" points="
			264.578,108.906 265.73,116.777 266.623,115.199 		"/>
		<g>
			
				<path fill="#A1C453" stroke="#333333" stroke-width="1.4936" stroke-linecap="round" stroke-linejoin="round" stroke-miterlimit="10" d="
				M238.371,143.309c2.385,1.222,4.272,0.499,6.124,5.817c1.85,5.319-2.639,4.205-1.424,7.704c-1.215-3.499-4.224,0-6.006-5.122
				C235.287,146.586,237.469,145.828,238.371,143.309z"/>
			<g>
				<line fill="none" x1="243.072" y1="156.83" x2="239.385" y2="146.193"/>
				<g>
					<polyline fill="none" stroke="#333333" stroke-width="0.9957" stroke-linecap="round" stroke-miterlimit="10" points="
						242.909,156.359 242.698,155.75 240.243,148.671 240.06,148.141 					"/>
					
						<line fill="none" stroke="#333333" stroke-width="0.9957" stroke-linecap="round" stroke-miterlimit="10" x1="239.548" y1="146.664" x2="239.57" y2="146.729"/>
				</g>
			</g>
		</g>
		<g>
			
				<path fill="#A1C453" stroke="#333333" stroke-width="1.4936" stroke-linecap="round" stroke-linejoin="round" stroke-miterlimit="10" d="
				M271.09,140.964c-1.076,2.456-0.243,4.298-5.439,6.462c-5.196,2.164-4.354-2.383-7.773-0.958c3.419-1.425-0.255-4.217,4.751-6.3
				C267.633,138.083,268.521,140.213,271.09,140.964z"/>
			<g>
				<line fill="none" x1="257.831" y1="146.31" x2="268.072" y2="142.043"/>
				<g>
					<polyline fill="none" stroke="#333333" stroke-width="0.9957" stroke-linecap="round" stroke-miterlimit="10" points="
						258.291,146.118 258.886,145.87 265.652,143.051 266.169,142.836 					"/>
					
						<line fill="none" stroke="#333333" stroke-width="0.9957" stroke-linecap="round" stroke-miterlimit="10" x1="267.612" y1="142.234" x2="267.548" y2="142.262"/>
				</g>
			</g>
		</g>
		<g>
			
				<path fill="#A1C453" stroke="#333333" stroke-width="1.4936" stroke-linecap="round" stroke-linejoin="round" stroke-miterlimit="10" d="
				M252.17,113.78c1.332,2.716,3.526,3.339,1.605,9.395c-1.921,6.058-5.226,2.02-6.488,6.005c1.264-3.985-3.818-2.852-1.968-8.685
				C247.168,114.66,249.649,115.447,252.17,113.78z"/>
			<g>
				<line fill="none" x1="247.287" y1="129.18" x2="251.07" y2="117.247"/>
				<g>
					<polyline fill="none" stroke="#333333" stroke-width="0.9957" stroke-linecap="round" stroke-miterlimit="10" points="
						247.438,128.705 247.633,128.09 250.278,119.746 250.447,119.212 					"/>
					
						<line fill="none" stroke="#333333" stroke-width="0.9957" stroke-linecap="round" stroke-miterlimit="10" x1="250.92" y1="117.722" x2="250.898" y2="117.788"/>
				</g>
			</g>
		</g>
		<g>
			
				<path fill="#A1C453" stroke="#333333" stroke-width="1.4936" stroke-linecap="round" stroke-linejoin="round" stroke-miterlimit="10" d="
				M239.58,115.188c2.862,0.98,4.854-0.134,7.78,5.508c2.925,5.642-2.27,5.123-0.342,8.834c-1.928-3.711-4.721,0.685-7.537-4.748
				C236.664,119.347,238.979,118.149,239.58,115.188z"/>
			<g>
				<line fill="none" x1="247.02" y1="129.529" x2="241.254" y2="118.418"/>
				<g>
					<polyline fill="none" stroke="#333333" stroke-width="0.9957" stroke-linecap="round" stroke-miterlimit="10" points="
						246.79,129.088 246.493,128.515 242.462,120.745 242.203,120.248 					"/>
					
						<line fill="none" stroke="#333333" stroke-width="0.9957" stroke-linecap="round" stroke-miterlimit="10" x1="241.483" y1="118.859" x2="241.516" y2="118.922"/>
				</g>
			</g>
		</g>
		<g>
			
				<path fill="#A1C453" stroke="#333333" stroke-width="1.4936" stroke-linecap="round" stroke-linejoin="round" stroke-miterlimit="10" d="
				M262.926,96.689c1.894,1.471,3.676,1.15,4.416,6.137c0.74,4.985-3.021,3.258-2.534,6.539c-0.487-3.281-3.714-0.702-4.429-5.504
				C259.666,99.059,261.711,98.756,262.926,96.689z"/>
			<g>
				<line fill="none" x1="264.808" y1="109.365" x2="263.348" y2="99.542"/>
				<g>
					<polyline fill="none" stroke="#333333" stroke-width="0.9957" stroke-linecap="round" stroke-miterlimit="10" points="
						264.734,108.873 264.64,108.234 263.733,102.136 263.65,101.581 					"/>
					
						<line fill="none" stroke="#333333" stroke-width="0.9957" stroke-linecap="round" stroke-miterlimit="10" x1="263.421" y1="100.034" x2="263.432" y2="100.104"/>
				</g>
			</g>
		</g>
		<g>
			
				<path fill="#A1C453" stroke="#333333" stroke-width="1.4936" stroke-linecap="round" stroke-linejoin="round" stroke-miterlimit="10" d="
				M254.443,102.078c2.382-0.302,3.414-1.786,7.461,1.214c4.052,3.003,0.168,4.44,2.834,6.417c-2.666-1.977-3.125,2.128-7.022-0.76
				C253.816,106.058,255.046,104.397,254.443,102.078z"/>
			<g>
				<line fill="none" x1="264.738" y1="109.709" x2="256.762" y2="103.796"/>
				<g>
					<polyline fill="none" stroke="#333333" stroke-width="0.9957" stroke-linecap="round" stroke-miterlimit="10" points="
						264.338,109.412 263.82,109.028 258.868,105.357 258.418,105.023 					"/>
					
						<line fill="none" stroke="#333333" stroke-width="0.9957" stroke-linecap="round" stroke-miterlimit="10" x1="257.162" y1="104.093" x2="257.218" y2="104.134"/>
				</g>
			</g>
		</g>
		<g>
			
				<path fill="#A1C453" stroke="#333333" stroke-width="1.4936" stroke-linecap="round" stroke-linejoin="round" stroke-miterlimit="10" d="
				M286.938,129.71c-2.832,1.064-3.664,3.188-9.506,0.69c-5.844-2.497-1.504-5.396-5.35-7.039c3.846,1.643,3.209-3.524,8.835-1.12
				C286.547,124.647,285.522,127.042,286.938,129.71z"/>
			<g>
				<line fill="none" x1="272.039" y1="123.201" x2="283.551" y2="128.123"/>
				<g>
					<polyline fill="none" stroke="#333333" stroke-width="0.9957" stroke-linecap="round" stroke-miterlimit="10" points="
						272.497,123.396 273.09,123.65 281.14,127.092 281.655,127.313 					"/>
					
						<line fill="none" stroke="#333333" stroke-width="0.9957" stroke-linecap="round" stroke-miterlimit="10" x1="283.093" y1="127.928" x2="283.028" y2="127.899"/>
				</g>
			</g>
		</g>
		<g>
			
				<path fill="#A1C453" stroke="#333333" stroke-width="1.4936" stroke-linecap="round" stroke-linejoin="round" stroke-miterlimit="10" d="
				M286.754,117.045c-1.25,2.754-0.335,4.845-6.234,7.211c-5.897,2.364-4.879-2.755-8.76-1.197c3.881-1.558-0.223-4.762,5.457-7.039
				C282.896,113.74,283.866,116.158,286.754,117.045z"/>
			<g>
				<line fill="none" x1="271.76" y1="123.059" x2="283.379" y2="118.398"/>
				<g>
					<polyline fill="none" stroke="#333333" stroke-width="0.9957" stroke-linecap="round" stroke-miterlimit="10" points="
						272.222,122.873 272.82,122.633 280.945,119.375 281.466,119.166 					"/>
					
						<line fill="none" stroke="#333333" stroke-width="0.9957" stroke-linecap="round" stroke-miterlimit="10" x1="282.917" y1="118.584" x2="282.852" y2="118.609"/>
				</g>
			</g>
		</g>
		<g>
			
				<path fill="#A1C453" stroke="#333333" stroke-width="1.4936" stroke-linecap="round" stroke-linejoin="round" stroke-miterlimit="10" d="
				M277.281,134.758c-2.243-0.785-3.813,0.075-6.075-4.373c-2.265-4.449,1.811-4.012,0.321-6.938
				c1.488,2.927,3.709-0.508,5.891,3.776C279.598,131.508,277.773,132.437,277.281,134.758z"/>
			<g>
				<line fill="none" x1="271.482" y1="123.286" x2="275.941" y2="132.053"/>
				<g>
					<polyline fill="none" stroke="#333333" stroke-width="0.9957" stroke-linecap="round" stroke-miterlimit="10" points="
						271.708,123.729 272.001,124.305 274.753,129.716 275.007,130.215 					"/>
					
						<line fill="none" stroke="#333333" stroke-width="0.9957" stroke-linecap="round" stroke-miterlimit="10" x1="275.716" y1="131.609" x2="275.684" y2="131.547"/>
				</g>
			</g>
		</g>
		<path fill="#CC924C" stroke="#333333" stroke-width="2.6551" stroke-linecap="round" stroke-miterlimit="10" d="M236.945,176.323
			l40.005-71.731c0.512-0.907,0.19-2.055-0.714-2.567l0,0c-0.901-0.511-2.053-0.192-2.563,0.713l-40.871,71.242"/>
		<g>
			<g>
				<path fill="#EF4529" d="M267.496,117.511c-1.336,3.227-6.474,5.342-8.259,3.423c-2.916,0.151-4.76-5.034-3.424-8.26
					c1.337-3.225,4.238-5.759,8.156-2.609C268.736,110.557,268.832,114.286,267.496,117.511z"/>
				<g>
					<path fill="none" stroke="#333333" stroke-width="1.4936" stroke-linecap="round" stroke-miterlimit="10" d="M267.155,118.174
						c-0.177,0.271-0.351,0.543-0.568,0.781c-0.992,1.17-2.349,2.013-3.81,2.46c-0.73,0.214-1.515,0.329-2.271,0.181
						c-0.37-0.09-0.743-0.216-1.036-0.467l-0.22-0.185c-0.088-0.025-0.189-0.017-0.283-0.027c-0.193,0.004-0.38-0.04-0.563-0.103
						c-0.736-0.228-1.325-0.783-1.761-1.406c-0.437-0.629-0.744-1.342-0.958-2.076c-0.395-1.47-0.464-3.08,0.08-4.522
						c0.565-1.407,1.425-2.776,2.735-3.598c0.649-0.403,1.421-0.617,2.188-0.579c0.771,0.024,1.508,0.311,2.171,0.685
						c0.343,0.177,0.646,0.409,0.956,0.636c0.141,0.149,0.35,0.131,0.533,0.17c0.188,0.034,0.382,0.046,0.565,0.1
						c0.747,0.164,1.472,0.477,2.057,0.972c0.586,0.494,0.98,1.195,1.143,1.943c0.058,0.179,0.063,0.389,0.089,0.555
						c0.011,0.092,0.024,0.183,0.021,0.275c-0.001,0.185,0.01,0.369-0.001,0.553"/>
					
						<line fill="none" stroke="#333333" stroke-width="1.4936" stroke-linecap="round" stroke-miterlimit="10" x1="267.758" y1="116.812" x2="267.789" y2="116.711"/>
				</g>
			</g>
			<path opacity="0.5" fill="#FFFFFF" enable-background="new    " d="M259.725,112.609c-0.674,0.429-1.506,0.326-1.856-0.228
				c-0.354-0.557-0.093-1.354,0.582-1.784c0.676-0.428,1.508-0.325,1.857,0.23C260.66,111.385,260.398,112.182,259.725,112.609z"/>
		</g>
		<g>
			<g>
				<path fill="#EF4529" d="M260.408,154.477c-2.525,2.41-8.082,2.268-8.938-0.209c-2.73-1.041-2.316-6.529,0.209-8.938
					c2.525-2.412,6.203-3.556,8.512,0.907C264.354,148.616,262.935,152.064,260.408,154.477z"/>
				<g>
					<path fill="none" stroke="#333333" stroke-width="1.4936" stroke-linecap="round" stroke-miterlimit="10" d="M259.828,154.945
						c-0.271,0.176-0.54,0.354-0.836,0.484c-1.382,0.669-2.963,0.891-4.479,0.709c-0.755-0.1-1.518-0.311-2.149-0.753
						c-0.303-0.231-0.593-0.498-0.76-0.846l-0.126-0.258c-0.069-0.059-0.166-0.092-0.248-0.139c-0.179-0.075-0.331-0.19-0.473-0.321
						c-0.582-0.507-0.896-1.253-1.041-1.998c-0.146-0.753-0.138-1.529-0.036-2.287c0.234-1.504,0.822-3.004,1.903-4.104
						c1.086-1.06,2.425-1.966,3.955-2.187c0.759-0.106,1.55,0.01,2.234,0.355c0.695,0.335,1.254,0.895,1.707,1.506
						c0.242,0.299,0.427,0.636,0.618,0.968c0.066,0.193,0.27,0.258,0.421,0.37c0.158,0.107,0.33,0.196,0.478,0.32
						c0.616,0.451,1.151,1.031,1.486,1.721c0.336,0.689,0.413,1.49,0.26,2.239c-0.021,0.187-0.101,0.382-0.145,0.543
						c-0.027,0.088-0.051,0.178-0.092,0.261c-0.075,0.168-0.141,0.342-0.225,0.506"/>
					
						<line fill="none" stroke="#333333" stroke-width="1.4936" stroke-linecap="round" stroke-miterlimit="10" x1="260.93" y1="153.942" x2="260.999" y2="153.863"/>
				</g>
			</g>
			<path opacity="0.5" fill="#FFFFFF" enable-background="new    " d="M255.281,146.85c-0.79,0.12-1.51-0.311-1.605-0.959
				c-0.1-0.651,0.464-1.275,1.253-1.396c0.793-0.118,1.512,0.312,1.605,0.961C256.633,146.106,256.072,146.73,255.281,146.85z"/>
		</g>
		<g>
			
				<path fill="#A1C453" stroke="#333333" stroke-width="0.9957" stroke-linecap="round" stroke-linejoin="round" stroke-miterlimit="10" d="
				M275.047,101.179c0,0,2.303-1.813,2.854-2.048c0.439-0.192-0.512,2.796-1.047,3.808L275.047,101.179z"/>
			
				<path fill="#A1C453" stroke="#333333" stroke-width="0.9957" stroke-linecap="round" stroke-linejoin="round" stroke-miterlimit="10" d="
				M277.177,102.113l-4.274,1.438c0,0,1.604-4.191,3.312-4.972C276.213,98.579,276.559,100.728,277.177,102.113z"/>
			
				<path fill="#A1C453" stroke="#333333" stroke-width="0.9957" stroke-linecap="round" stroke-linejoin="round" stroke-miterlimit="10" d="
				M275.053,107.058c0,0,4.438-3.364,4.377-6.659l-4.018,1.58L275.053,107.058z"/>
		</g>
	</g>
</g>
</svg>
