<?xml version="1.0" encoding="utf-8"?>
<!-- Generator: Adobe Illustrator 16.0.0, SVG Export Plug-In . SVG Version: 6.00 Build 0)  -->
<!DOCTYPE svg PUBLIC "-//W3C//DTD SVG 1.1//EN" "http://www.w3.org/Graphics/SVG/1.1/DTD/svg11.dtd">
<svg version="1.1" id="Calque_1" xmlns="http://www.w3.org/2000/svg" xmlns:xlink="http://www.w3.org/1999/xlink" x="0px" y="0px"
	 width="320px" height="410px" viewBox="0 0 320 410" enable-background="new 0 0 320 410" xml:space="preserve">
<g id="calque01">
	<g>
		<path fill="#CC924C" stroke="#333333" stroke-width="2.4893" stroke-linecap="round" stroke-miterlimit="10" d="M233.627,176.143
			l8.385-2.744c0.968-0.379,2.061,0.099,2.439,1.067l0,0c0.379,0.968-0.101,2.061-1.067,2.439l-8.021,3.672"/>
		<g>
			
				<path fill="#A1C453" stroke="#333333" stroke-width="0.9957" stroke-linecap="round" stroke-linejoin="round" stroke-miterlimit="10" d="
				M245.12,175.765c0,0,2.119-2.026,2.431-2.536c0.252-0.406-2.842,0.109-3.918,0.496L245.12,175.765z"/>
			
				<path fill="#A1C453" stroke="#333333" stroke-width="0.9957" stroke-linecap="round" stroke-linejoin="round" stroke-miterlimit="10" d="
				M244.496,173.522l-2.027,4.028c0,0,4.374-0.995,5.39-2.574C247.858,174.977,245.779,174.331,244.496,173.522z"/>
			
				<path fill="#A1C453" stroke="#333333" stroke-width="0.9957" stroke-linecap="round" stroke-linejoin="round" stroke-miterlimit="10" d="
				M239.301,174.928c0,0,3.958-3.92,7.211-3.394l-2.133,3.756L239.301,174.928z"/>
		</g>
	</g>
</g>
<g id="calque02">
	<g>
		<g>
			
				<path fill="#A1C453" stroke="#333333" stroke-width="0.9957" stroke-linecap="round" stroke-linejoin="round" stroke-miterlimit="10" d="
				M260.163,175.956c-0.399-1.163,0.05-1.974-2.244-3.157c-2.295-1.185-2.08,0.925-3.591,0.146c1.511,0.778-0.273,1.917,1.936,3.058
				C258.475,177.144,258.961,176.203,260.163,175.956z"/>
			<g>
				<line fill="none" x1="254.328" y1="172.945" x2="258.851" y2="175.278"/>
				<g>
					<polyline fill="none" stroke="#333333" stroke-width="0.9957" stroke-linecap="round" stroke-miterlimit="10" points="
						254.771,173.174 255.344,173.47 256.521,174.076 257.019,174.333 					"/>
					
						<line fill="none" stroke="#333333" stroke-width="0.9957" stroke-linecap="round" stroke-miterlimit="10" x1="258.408" y1="175.05" x2="258.346" y2="175.018"/>
				</g>
			</g>
		</g>
		<path fill="#CC924C" stroke="#333333" stroke-width="2.4893" stroke-linecap="round" stroke-miterlimit="10" d="M233.628,176.145
			l25.682-9.514c0.968-0.379,2.062,0.099,2.439,1.067l0,0c0.379,0.969-0.101,2.062-1.067,2.439l-25.319,10.439"/>
		<g>
			
				<path fill="#A1C453" stroke="#333333" stroke-width="0.9957" stroke-linecap="round" stroke-linejoin="round" stroke-miterlimit="10" d="
				M262.418,168.997c0,0,2.119-2.024,2.431-2.536c0.252-0.406-2.842,0.109-3.919,0.496L262.418,168.997z"/>
			
				<path fill="#A1C453" stroke="#333333" stroke-width="0.9957" stroke-linecap="round" stroke-linejoin="round" stroke-miterlimit="10" d="
				M261.794,166.755l-2.028,4.028c0,0,4.375-0.996,5.391-2.574C265.156,168.209,263.078,167.563,261.794,166.755z"/>
			
				<path fill="#A1C453" stroke="#333333" stroke-width="0.9957" stroke-linecap="round" stroke-linejoin="round" stroke-miterlimit="10" d="
				M256.599,168.16c0,0,3.958-3.92,7.211-3.394l-2.133,3.756L256.599,168.16z"/>
		</g>
	</g>
</g>
<g id="calque03">
	<g>
		<g>
			
				<path fill="#A1C453" stroke="#333333" stroke-width="1.4936" stroke-linecap="round" stroke-linejoin="round" stroke-miterlimit="10" d="
				M266.512,179.398c-0.871-2.534,0.111-4.301-4.893-6.885c-5.005-2.582-4.535,2.02-7.828,0.319c3.293,1.7-0.599,4.181,4.221,6.669
				C262.832,181.989,263.891,179.938,266.512,179.398z"/>
			<g>
				<line fill="none" x1="253.791" y1="172.833" x2="263.648" y2="177.922"/>
				<g>
					<polyline fill="none" stroke="#333333" stroke-width="0.9957" stroke-linecap="round" stroke-miterlimit="10" points="
						254.233,173.062 254.807,173.357 261.318,176.719 261.816,176.977 					"/>
					
						<line fill="none" stroke="#333333" stroke-width="0.9957" stroke-linecap="round" stroke-miterlimit="10" x1="263.206" y1="177.693" x2="263.144" y2="177.661"/>
				</g>
			</g>
		</g>
		<g>
			
				<path fill="#A1C453" stroke="#333333" stroke-width="0.9957" stroke-linecap="round" stroke-linejoin="round" stroke-miterlimit="10" d="
				M265.639,159.51c-1.163,0.323-1.931-0.165-3.227,2.014c-1.295,2.18,0.784,2.092-0.067,3.525c0.854-1.434,1.862,0.383,3.109-1.717
				C266.703,161.234,265.81,160.701,265.639,159.51z"/>
			<g>
				<line fill="none" x1="262.345" y1="165.049" x2="264.586" y2="161.218"/>
				<g>
					<polyline fill="none" stroke="#333333" stroke-width="0.9957" stroke-linecap="round" stroke-miterlimit="10" points="
						262.596,164.619 262.922,164.063 263.262,163.48 263.545,162.997 					"/>
					
						<line fill="none" stroke="#333333" stroke-width="0.9957" stroke-linecap="round" stroke-miterlimit="10" x1="264.335" y1="161.647" x2="264.299" y2="161.708"/>
				</g>
			</g>
		</g>
		<path fill="#CC924C" stroke="#333333" stroke-width="2.4893" stroke-linecap="round" stroke-miterlimit="10" d="M233.628,176.145
			l33.648-12.631c0.97-0.379,2.062,0.099,2.439,1.068l0,0c0.379,0.967-0.099,2.059-1.067,2.438l-33.287,13.557"/>
		<g>
			
				<path fill="#A1C453" stroke="#333333" stroke-width="0.9957" stroke-linecap="round" stroke-linejoin="round" stroke-miterlimit="10" d="
				M270.387,165.879c0,0,2.119-2.024,2.431-2.535c0.252-0.407-2.842,0.109-3.917,0.496L270.387,165.879z"/>
			
				<path fill="#A1C453" stroke="#333333" stroke-width="0.9957" stroke-linecap="round" stroke-linejoin="round" stroke-miterlimit="10" d="
				M269.763,163.637l-2.028,4.029c0,0,4.375-0.996,5.391-2.574C273.124,165.092,271.046,164.445,269.763,163.637z"/>
			
				<path fill="#A1C453" stroke="#333333" stroke-width="0.9957" stroke-linecap="round" stroke-linejoin="round" stroke-miterlimit="10" d="
				M264.566,165.044c0,0,3.96-3.92,7.211-3.396l-2.132,3.756L264.566,165.044z"/>
		</g>
	</g>
</g>
<g id="calque04">
	<g>
		
			<polygon fill="#CC924C" stroke="#333333" stroke-width="0.9957" stroke-linecap="round" stroke-linejoin="round" stroke-miterlimit="10" points="
			266.142,159.645 260.417,166.198 263.034,165.175 		"/>
		<g>
			
				<path fill="#A1C453" stroke="#333333" stroke-width="1.4936" stroke-linecap="round" stroke-linejoin="round" stroke-miterlimit="10" d="
				M266.512,179.398c-0.871-2.534,0.111-4.301-4.893-6.885c-5.005-2.582-4.535,2.02-7.828,0.319c3.293,1.7-0.599,4.183,4.221,6.669
				C262.832,181.989,263.891,179.938,266.512,179.398z"/>
			<g>
				<line fill="none" x1="253.791" y1="172.833" x2="263.648" y2="177.922"/>
				<g>
					<polyline fill="none" stroke="#333333" stroke-width="0.9957" stroke-linecap="round" stroke-miterlimit="10" points="
						254.233,173.062 254.807,173.357 261.318,176.719 261.816,176.977 					"/>
					
						<line fill="none" stroke="#333333" stroke-width="0.9957" stroke-linecap="round" stroke-miterlimit="10" x1="263.206" y1="177.693" x2="263.144" y2="177.661"/>
				</g>
			</g>
		</g>
		<g>
			
				<path fill="#A1C453" stroke="#333333" stroke-width="1.4936" stroke-linecap="round" stroke-linejoin="round" stroke-miterlimit="10" d="
				M273.459,147.34c-2.582,0.719-4.288-0.367-7.166,4.473s1.743,4.647-0.151,7.832c1.896-3.185,4.14,0.848,6.91-3.813
				C275.823,151.169,273.84,149.988,273.459,147.34z"/>
			<g>
				<line fill="none" x1="266.142" y1="159.645" x2="271.813" y2="150.11"/>
				<g>
					<polyline fill="none" stroke="#333333" stroke-width="0.9957" stroke-linecap="round" stroke-miterlimit="10" points="
						266.396,159.217 266.726,158.662 270.473,152.363 270.759,151.882 					"/>
					
						<line fill="none" stroke="#333333" stroke-width="0.9957" stroke-linecap="round" stroke-miterlimit="10" x1="271.558" y1="150.538" x2="271.522" y2="150.599"/>
				</g>
			</g>
		</g>
		<g>
			
				<path fill="#A1C453" stroke="#333333" stroke-width="0.9957" stroke-linecap="round" stroke-linejoin="round" stroke-miterlimit="10" d="
				M274.518,171.181c-0.223-1.175,0.324-1.894-1.721-3.354c-2.045-1.461-2.132,0.601-3.478-0.36c1.346,0.961-0.531,1.81,1.438,3.215
				C272.727,172.09,273.326,171.251,274.518,171.181z"/>
			<g>
				<line fill="none" x1="269.32" y1="167.467" x2="273.348" y2="170.345"/>
				<g>
					<polyline fill="none" stroke="#333333" stroke-width="0.9957" stroke-linecap="round" stroke-miterlimit="10" points="
						269.726,167.756 270.25,168.131 271.215,168.82 271.671,169.146 					"/>
					
						<line fill="none" stroke="#333333" stroke-width="0.9957" stroke-linecap="round" stroke-miterlimit="10" x1="272.942" y1="170.056" x2="272.886" y2="170.015"/>
				</g>
			</g>
		</g>
		<path fill="#CC924C" stroke="#333333" stroke-width="2.4893" stroke-linecap="round" stroke-miterlimit="10" d="M233.628,176.145
			l39.914-15.081c0.968-0.379,2.06,0.099,2.438,1.067l0,0c0.379,0.968-0.1,2.06-1.066,2.438l-39.552,16.008"/>
		<g>
			
				<path fill="#A1C453" stroke="#333333" stroke-width="0.9957" stroke-linecap="round" stroke-linejoin="round" stroke-miterlimit="10" d="
				M276.65,163.43c0,0,2.119-2.025,2.431-2.536c0.253-0.407-2.842,0.108-3.918,0.496L276.65,163.43z"/>
			
				<path fill="#A1C453" stroke="#333333" stroke-width="0.9957" stroke-linecap="round" stroke-linejoin="round" stroke-miterlimit="10" d="
				M276.026,161.187l-2.027,4.029c0,0,4.375-0.996,5.391-2.575C279.389,162.641,277.31,161.995,276.026,161.187z"/>
			
				<path fill="#A1C453" stroke="#333333" stroke-width="0.9957" stroke-linecap="round" stroke-linejoin="round" stroke-miterlimit="10" d="
				M270.83,162.594c0,0,3.959-3.92,7.212-3.396l-2.133,3.756L270.83,162.594z"/>
		</g>
	</g>
</g>
<g id="calque05">
	<g>
		
			<polygon fill="#CC924C" stroke="#333333" stroke-width="0.9957" stroke-linecap="round" stroke-linejoin="round" stroke-miterlimit="10" points="
			266.142,159.645 260.417,166.198 263.033,165.174 		"/>
		
			<polygon fill="#CC924C" stroke="#333333" stroke-width="0.9957" stroke-linecap="round" stroke-linejoin="round" stroke-miterlimit="10" points="
			281.809,172.777 267.05,167.646 269.666,166.622 		"/>
		<g>
			
				<path fill="#A1C453" stroke="#333333" stroke-width="1.4936" stroke-linecap="round" stroke-linejoin="round" stroke-miterlimit="10" d="
				M266.512,179.398c-0.871-2.534,0.111-4.301-4.893-6.885c-5.005-2.582-4.535,2.02-7.828,0.319c3.293,1.7-0.599,4.183,4.221,6.669
				C262.832,181.989,263.891,179.937,266.512,179.398z"/>
			<g>
				<line fill="none" x1="253.791" y1="172.833" x2="263.648" y2="177.922"/>
				<g>
					<polyline fill="none" stroke="#333333" stroke-width="0.9957" stroke-linecap="round" stroke-miterlimit="10" points="
						254.233,173.062 254.807,173.357 261.318,176.719 261.816,176.977 					"/>
					
						<line fill="none" stroke="#333333" stroke-width="0.9957" stroke-linecap="round" stroke-miterlimit="10" x1="263.206" y1="177.693" x2="263.144" y2="177.661"/>
				</g>
			</g>
		</g>
		<g>
			
				<path fill="#A1C453" stroke="#333333" stroke-width="1.4936" stroke-linecap="round" stroke-linejoin="round" stroke-miterlimit="10" d="
				M273.459,147.34c-2.582,0.719-4.288-0.367-7.166,4.473s1.743,4.647-0.151,7.832c1.896-3.185,4.14,0.848,6.91-3.813
				C275.823,151.169,273.84,149.988,273.459,147.34z"/>
			<g>
				<line fill="none" x1="266.142" y1="159.645" x2="271.813" y2="150.109"/>
				<g>
					<polyline fill="none" stroke="#333333" stroke-width="0.9957" stroke-linecap="round" stroke-miterlimit="10" points="
						266.396,159.217 266.726,158.662 270.473,152.363 270.759,151.881 					"/>
					
						<line fill="none" stroke="#333333" stroke-width="0.9957" stroke-linecap="round" stroke-miterlimit="10" x1="271.558" y1="150.537" x2="271.522" y2="150.598"/>
				</g>
			</g>
		</g>
		<g>
			
				<path fill="#A1C453" stroke="#333333" stroke-width="0.9957" stroke-linecap="round" stroke-linejoin="round" stroke-miterlimit="10" d="
				M288.136,171.548c-0.994-0.677-1.116-1.575-3.609-1.159c-2.492,0.414-1.088,1.942-2.729,2.216
				c1.641-0.273,0.907,1.665,3.309,1.264C287.508,173.469,287.338,172.447,288.136,171.548z"/>
			<g>
				<line fill="none" x1="281.798" y1="172.604" x2="286.709" y2="171.786"/>
				<g>
					<polyline fill="none" stroke="#333333" stroke-width="0.9957" stroke-linecap="round" stroke-miterlimit="10" points="
						282.289,172.522 282.925,172.417 284.123,172.217 284.676,172.125 					"/>
					
						<line fill="none" stroke="#333333" stroke-width="0.9957" stroke-linecap="round" stroke-miterlimit="10" x1="286.218" y1="171.868" x2="286.148" y2="171.88"/>
				</g>
			</g>
		</g>
		<g>
			
				<path fill="#A1C453" stroke="#333333" stroke-width="1.4936" stroke-linecap="round" stroke-linejoin="round" stroke-miterlimit="10" d="
				M294.521,182.178c-0.563-2.973,0.818-4.787-4.353-8.48c-5.171-3.693-5.393,1.521-8.794-0.91c3.401,2.432-1.344,4.575,3.637,8.13
				C289.992,184.475,291.507,182.355,294.521,182.178z"/>
			<g>
				<line fill="none" x1="281.375" y1="172.787" x2="291.563" y2="180.063"/>
				<g>
					<polyline fill="none" stroke="#333333" stroke-width="0.9957" stroke-linecap="round" stroke-miterlimit="10" points="
						281.78,173.076 282.305,173.451 289.429,178.539 289.885,178.865 					"/>
					
						<line fill="none" stroke="#333333" stroke-width="0.9957" stroke-linecap="round" stroke-miterlimit="10" x1="291.157" y1="179.774" x2="291.101" y2="179.733"/>
				</g>
			</g>
		</g>
		<path fill="#CC924C" stroke="#333333" stroke-width="2.4893" stroke-linecap="round" stroke-miterlimit="10" d="M233.627,176.143
			l51.875-19.759c0.967-0.379,2.06,0.099,2.438,1.067l0,0c0.379,0.969-0.1,2.061-1.065,2.438l-51.513,20.688"/>
		<g>
			
				<path fill="#A1C453" stroke="#333333" stroke-width="0.9957" stroke-linecap="round" stroke-linejoin="round" stroke-miterlimit="10" d="
				M288.61,158.749c0,0,2.12-2.024,2.432-2.535c0.252-0.407-2.841,0.108-3.918,0.497L288.61,158.749z"/>
			
				<path fill="#A1C453" stroke="#333333" stroke-width="0.9957" stroke-linecap="round" stroke-linejoin="round" stroke-miterlimit="10" d="
				M287.986,156.507l-2.026,4.028c0,0,4.375-0.995,5.39-2.574C291.349,157.961,289.27,157.315,287.986,156.507z"/>
			
				<path fill="#A1C453" stroke="#333333" stroke-width="0.9957" stroke-linecap="round" stroke-linejoin="round" stroke-miterlimit="10" d="
				M282.791,157.914c0,0,3.959-3.92,7.211-3.396l-2.133,3.757L282.791,157.914z"/>
		</g>
		<g>
			
				<path fill="#FFFFFF" stroke="#333333" stroke-width="0.9957" stroke-linecap="round" stroke-linejoin="round" stroke-miterlimit="10" d="
				M265.497,157.892c-0.066,0.441-0.892,0.772-1.534,0.951c-1.158,0.325-2.922-0.263-2.713-1.649
				c0.212-1.391,2.071-1.436,3.084-0.787C264.895,156.769,265.566,157.448,265.497,157.892z"/>
			
				<path fill="#FFFFFF" stroke="#333333" stroke-width="0.9957" stroke-linecap="round" stroke-linejoin="round" stroke-miterlimit="10" d="
				M265.594,157.959c0.416-0.163,1.114,0.387,1.592,0.854c0.86,0.842,1.232,2.664-0.072,3.174c-1.311,0.514-2.279-1.074-2.224-2.275
				C264.922,159.044,265.176,158.122,265.594,157.959z"/>
			
				<path fill="#FFFFFF" stroke="#333333" stroke-width="0.9957" stroke-linecap="round" stroke-linejoin="round" stroke-miterlimit="10" d="
				M265.605,157.85c-0.349-0.279-0.223-1.158-0.056-1.805c0.298-1.166,1.688-2.4,2.784-1.523c1.1,0.878,0.208,2.511-0.859,3.063
				C266.882,157.889,265.957,158.13,265.605,157.85z"/>
			
				<path fill="#FFFFFF" stroke="#333333" stroke-width="0.9957" stroke-linecap="round" stroke-linejoin="round" stroke-miterlimit="10" d="
				M265.48,157.769c-0.414,0.162-1.112-0.387-1.59-0.854c-0.859-0.842-1.232-2.662,0.072-3.173c1.311-0.513,2.279,1.074,2.223,2.274
				C266.153,156.684,265.899,157.604,265.48,157.769z"/>
			
				<path fill="#FFFFFF" stroke="#333333" stroke-width="0.9957" stroke-linecap="round" stroke-linejoin="round" stroke-miterlimit="10" d="
				M265.476,157.884c0.349,0.276,0.222,1.157,0.055,1.803c-0.298,1.167-1.688,2.399-2.783,1.526
				c-1.101-0.881-0.208-2.514,0.858-3.064C264.199,157.843,265.125,157.603,265.476,157.884z"/>
			
				<path fill="#FFFFFF" stroke="#333333" stroke-width="0.9957" stroke-linecap="round" stroke-linejoin="round" stroke-miterlimit="10" d="
				M265.582,157.818c0.065-0.441,0.891-0.771,1.534-0.952c1.158-0.323,2.922,0.265,2.713,1.65c-0.212,1.392-2.071,1.437-3.082,0.788
				C266.184,158.942,265.514,158.262,265.582,157.818z"/>
			
				<circle fill="#F9D53E" stroke="#333333" stroke-width="0.9957" stroke-linecap="round" stroke-linejoin="round" stroke-miterlimit="10" cx="265.481" cy="157.769" r="0.926"/>
		</g>
	</g>
</g>
<g id="calque06">
	<g>
		
			<polygon fill="#CC924C" stroke="#333333" stroke-width="0.9957" stroke-linecap="round" stroke-linejoin="round" stroke-miterlimit="10" points="
			266.142,159.645 260.417,166.198 263.033,165.174 		"/>
		
			<polygon fill="#CC924C" stroke="#333333" stroke-width="0.9957" stroke-linecap="round" stroke-linejoin="round" stroke-miterlimit="10" points="
			281.809,172.778 267.05,167.646 269.666,166.622 		"/>
		<g>
			
				<path fill="#A1C453" stroke="#333333" stroke-width="1.4936" stroke-linecap="round" stroke-linejoin="round" stroke-miterlimit="10" d="
				M266.512,179.398c-0.871-2.534,0.111-4.301-4.893-6.885c-5.005-2.582-4.535,2.02-7.828,0.319c3.293,1.7-0.599,4.183,4.221,6.669
				C262.832,181.989,263.891,179.937,266.512,179.398z"/>
			<g>
				<line fill="none" x1="253.791" y1="172.833" x2="263.648" y2="177.922"/>
				<g>
					<polyline fill="none" stroke="#333333" stroke-width="0.9957" stroke-linecap="round" stroke-miterlimit="10" points="
						254.233,173.062 254.807,173.357 261.318,176.719 261.816,176.977 					"/>
					
						<line fill="none" stroke="#333333" stroke-width="0.9957" stroke-linecap="round" stroke-miterlimit="10" x1="263.206" y1="177.693" x2="263.144" y2="177.661"/>
				</g>
			</g>
		</g>
		<g>
			
				<path fill="#A1C453" stroke="#333333" stroke-width="1.4936" stroke-linecap="round" stroke-linejoin="round" stroke-miterlimit="10" d="
				M273.459,147.34c-2.582,0.719-4.288-0.367-7.166,4.473s1.743,4.647-0.151,7.832c1.896-3.185,4.14,0.848,6.91-3.813
				C275.823,151.169,273.84,149.988,273.459,147.34z"/>
			<g>
				<line fill="none" x1="266.142" y1="159.645" x2="271.813" y2="150.109"/>
				<g>
					<polyline fill="none" stroke="#333333" stroke-width="0.9957" stroke-linecap="round" stroke-miterlimit="10" points="
						266.396,159.217 266.726,158.662 270.473,152.363 270.759,151.881 					"/>
					
						<line fill="none" stroke="#333333" stroke-width="0.9957" stroke-linecap="round" stroke-miterlimit="10" x1="271.558" y1="150.537" x2="271.522" y2="150.598"/>
				</g>
			</g>
		</g>
		<g>
			
				<path fill="#A1C453" stroke="#333333" stroke-width="1.4936" stroke-linecap="round" stroke-linejoin="round" stroke-miterlimit="10" d="
				M297.694,169.913c-2.5-1.702-2.806-3.963-9.072-2.919c-6.27,1.046-2.737,4.89-6.861,5.576c4.124-0.687,2.283,4.184,8.319,3.176
				C296.117,174.741,295.688,172.172,297.694,169.913z"/>
			<g>
				<line fill="none" x1="281.76" y1="172.57" x2="294.109" y2="170.513"/>
				<g>
					<polyline fill="none" stroke="#333333" stroke-width="0.9957" stroke-linecap="round" stroke-miterlimit="10" points="
						282.251,172.488 282.887,172.383 291.523,170.943 292.076,170.852 					"/>
					
						<line fill="none" stroke="#333333" stroke-width="0.9957" stroke-linecap="round" stroke-miterlimit="10" x1="293.618" y1="170.595" x2="293.549" y2="170.606"/>
				</g>
			</g>
		</g>
		<g>
			
				<path fill="#A1C453" stroke="#333333" stroke-width="1.4936" stroke-linecap="round" stroke-linejoin="round" stroke-miterlimit="10" d="
				M294.521,182.178c-0.563-2.973,0.818-4.787-4.353-8.48c-5.17-3.692-5.393,1.521-8.794-0.91c3.401,2.432-1.344,4.575,3.637,8.13
				C289.992,184.475,291.507,182.355,294.521,182.178z"/>
			<g>
				<line fill="none" x1="281.375" y1="172.787" x2="291.563" y2="180.063"/>
				<g>
					<polyline fill="none" stroke="#333333" stroke-width="0.9957" stroke-linecap="round" stroke-miterlimit="10" points="
						281.78,173.076 282.305,173.451 289.429,178.539 289.885,178.865 					"/>
					
						<line fill="none" stroke="#333333" stroke-width="0.9957" stroke-linecap="round" stroke-miterlimit="10" x1="291.157" y1="179.774" x2="291.101" y2="179.733"/>
				</g>
			</g>
		</g>
		<g>
			
				<path fill="#A1C453" stroke="#333333" stroke-width="0.9957" stroke-linecap="round" stroke-linejoin="round" stroke-miterlimit="10" d="
				M291.604,150.129c-0.85,0.249-1.417-0.103-2.346,1.508c-0.93,1.609,0.596,1.526-0.017,2.586c0.611-1.06,1.369,0.261,2.264-1.289
				C292.401,151.382,291.742,151.002,291.604,150.129z"/>
			<g>
				<line fill="none" x1="289.242" y1="154.223" x2="291.072" y2="151.051"/>
				<g>
					
						<line fill="none" stroke="#333333" stroke-width="0.9957" stroke-linecap="round" stroke-miterlimit="10" x1="289.303" y1="154.117" x2="290.821" y2="151.486"/>
					
						<line fill="none" stroke="#333333" stroke-width="0.9957" stroke-linecap="round" stroke-miterlimit="10" x1="291.012" y1="151.156" x2="291.003" y2="151.171"/>
				</g>
			</g>
		</g>
		<g>
			<g>
				<path fill="#D3F46C" d="M262.142,161.449c-2.071-0.494-3.843-3.384-2.856-4.646c-0.373-1.74,2.573-3.351,4.646-2.857
					c2.072,0.494,3.878,1.998,2.359,4.66C266.453,161.525,264.214,161.943,262.142,161.449z"/>
				<g>
					<path fill="none" stroke="#333333" stroke-width="0.9957" stroke-linecap="round" stroke-miterlimit="10" d="M261.671,161.29
						c-0.2-0.082-0.391-0.183-0.57-0.3c-0.771-0.501-1.399-1.224-1.788-2.059c-0.189-0.416-0.326-0.872-0.302-1.334
						c0.02-0.228,0.063-0.462,0.189-0.655c0.026-0.05,0.064-0.098,0.083-0.149l-0.018-0.172c-0.021-0.115-0.007-0.229,0.011-0.344
						c0.169-0.934,1.008-1.554,1.81-1.948c0.834-0.375,1.778-0.581,2.688-0.41c0.894,0.186,1.791,0.552,2.428,1.229
						c0.667,0.668,0.794,1.712,0.483,2.575c-0.099,0.451-0.504,0.809-0.394,1.296c-0.02,0.458-0.09,0.923-0.295,1.339
						c-0.202,0.415-0.548,0.756-0.962,0.958l-0.313,0.131l-0.178,0.051c-0.117,0.039-0.238,0.058-0.359,0.077"/>
					
						<line fill="none" stroke="#333333" stroke-width="0.9957" stroke-linecap="round" stroke-miterlimit="10" x1="262.63" y1="161.545" x2="262.699" y2="161.556"/>
				</g>
			</g>
			
				<ellipse transform="matrix(0.6615 0.75 -0.75 0.6615 206.5244 -145.9068)" opacity="0.5" fill="#FFFFFF" enable-background="new    " cx="264.883" cy="155.813" rx="0.883" ry="0.726"/>
		</g>
		<path fill="#CC924C" stroke="#333333" stroke-width="2.4893" stroke-linecap="round" stroke-miterlimit="10" d="M233.627,176.143
			l60.865-23.276c0.969-0.379,2.062,0.099,2.439,1.067l0,0c0.379,0.968-0.1,2.06-1.068,2.438l-60.502,24.205"/>
		<g>
			
				<path fill="#A1C453" stroke="#333333" stroke-width="0.9957" stroke-linecap="round" stroke-linejoin="round" stroke-miterlimit="10" d="
				M297.602,155.231c0,0,2.119-2.024,2.431-2.535c0.253-0.407-2.841,0.108-3.916,0.496L297.602,155.231z"/>
			
				<path fill="#A1C453" stroke="#333333" stroke-width="0.9957" stroke-linecap="round" stroke-linejoin="round" stroke-miterlimit="10" d="
				M296.978,152.989l-2.026,4.03c0,0,4.374-0.997,5.39-2.576C300.34,154.443,298.262,153.798,296.978,152.989z"/>
			
				<path fill="#A1C453" stroke="#333333" stroke-width="0.9957" stroke-linecap="round" stroke-linejoin="round" stroke-miterlimit="10" d="
				M291.781,154.396c0,0,3.961-3.92,7.212-3.396l-2.133,3.756L291.781,154.396z"/>
		</g>
		<g>
			
				<path fill="#FFFFFF" stroke="#333333" stroke-width="0.9957" stroke-linecap="round" stroke-linejoin="round" stroke-miterlimit="10" d="
				M281.737,173.867c-0.066,0.439-0.892,0.771-1.533,0.95c-1.159,0.325-2.924-0.264-2.712-1.649c0.211-1.392,2.07-1.437,3.08-0.789
				C281.135,172.742,281.805,173.424,281.737,173.867z"/>
			
				<path fill="#FFFFFF" stroke="#333333" stroke-width="0.9957" stroke-linecap="round" stroke-linejoin="round" stroke-miterlimit="10" d="
				M281.834,173.934c0.415-0.163,1.112,0.386,1.59,0.854c0.861,0.842,1.234,2.663-0.07,3.174c-1.312,0.513-2.279-1.075-2.225-2.276
				C281.161,175.018,281.416,174.097,281.834,173.934z"/>
			
				<path fill="#FFFFFF" stroke="#333333" stroke-width="0.9957" stroke-linecap="round" stroke-linejoin="round" stroke-miterlimit="10" d="
				M281.845,173.824c-0.349-0.279-0.223-1.158-0.056-1.806c0.299-1.165,1.688-2.399,2.785-1.524c1.1,0.88,0.208,2.512-0.859,3.063
				C283.121,173.863,282.195,174.104,281.845,173.824z"/>
			
				<path fill="#FFFFFF" stroke="#333333" stroke-width="0.9957" stroke-linecap="round" stroke-linejoin="round" stroke-miterlimit="10" d="
				M281.721,173.742c-0.416,0.162-1.113-0.386-1.591-0.854c-0.86-0.841-1.233-2.663,0.072-3.174
				c1.311-0.513,2.279,1.076,2.224,2.276C282.393,172.657,282.139,173.578,281.721,173.742z"/>
			
				<path fill="#FFFFFF" stroke="#333333" stroke-width="0.9957" stroke-linecap="round" stroke-linejoin="round" stroke-miterlimit="10" d="
				M281.714,173.857c0.349,0.277,0.224,1.157,0.057,1.803c-0.299,1.167-1.688,2.4-2.784,1.526c-1.1-0.88-0.209-2.513,0.858-3.065
				C280.439,173.818,281.364,173.576,281.714,173.857z"/>
			
				<path fill="#FFFFFF" stroke="#333333" stroke-width="0.9957" stroke-linecap="round" stroke-linejoin="round" stroke-miterlimit="10" d="
				M281.821,173.792c0.066-0.44,0.892-0.771,1.534-0.95c1.159-0.324,2.923,0.263,2.712,1.648c-0.211,1.393-2.07,1.438-3.082,0.788
				C282.425,174.916,281.754,174.235,281.821,173.792z"/>
			
				<circle fill="#F9D53E" stroke="#333333" stroke-width="0.9957" stroke-linecap="round" stroke-linejoin="round" stroke-miterlimit="10" cx="281.721" cy="173.742" r="0.926"/>
		</g>
	</g>
</g>
<g id="calque07">
	<g>
		
			<polygon fill="#CC924C" stroke="#333333" stroke-width="0.9957" stroke-linecap="round" stroke-linejoin="round" stroke-miterlimit="10" points="
			266.142,159.645 260.417,166.198 263.033,165.174 		"/>
		
			<polygon fill="#CC924C" stroke="#333333" stroke-width="0.9957" stroke-linecap="round" stroke-linejoin="round" stroke-miterlimit="10" points="
			291.279,149.208 287.771,155.496 290.388,154.472 		"/>
		
			<polygon fill="#CC924C" stroke="#333333" stroke-width="0.9957" stroke-linecap="round" stroke-linejoin="round" stroke-miterlimit="10" points="
			281.809,172.778 267.05,167.646 269.666,166.622 		"/>
		<g>
			
				<path fill="#A1C453" stroke="#333333" stroke-width="1.4936" stroke-linecap="round" stroke-linejoin="round" stroke-miterlimit="10" d="
				M266.512,179.398c-0.871-2.534,0.111-4.301-4.893-6.883c-5.005-2.584-4.535,2.018-7.828,0.317c3.293,1.7-0.599,4.183,4.221,6.669
				C262.832,181.989,263.891,179.938,266.512,179.398z"/>
			<g>
				<line fill="none" x1="253.791" y1="172.833" x2="263.648" y2="177.922"/>
				<g>
					<polyline fill="none" stroke="#333333" stroke-width="0.9957" stroke-linecap="round" stroke-miterlimit="10" points="
						254.233,173.062 254.807,173.357 261.318,176.719 261.816,176.977 					"/>
					
						<line fill="none" stroke="#333333" stroke-width="0.9957" stroke-linecap="round" stroke-miterlimit="10" x1="263.206" y1="177.693" x2="263.144" y2="177.661"/>
				</g>
			</g>
		</g>
		<g>
			
				<path fill="#A1C453" stroke="#333333" stroke-width="1.4936" stroke-linecap="round" stroke-linejoin="round" stroke-miterlimit="10" d="
				M273.459,147.34c-2.582,0.719-4.288-0.367-7.166,4.473s1.743,4.647-0.151,7.832c1.896-3.185,4.14,0.848,6.91-3.813
				C275.823,151.169,273.84,149.988,273.459,147.34z"/>
			<g>
				<line fill="none" x1="266.142" y1="159.645" x2="271.813" y2="150.109"/>
				<g>
					<polyline fill="none" stroke="#333333" stroke-width="0.9957" stroke-linecap="round" stroke-miterlimit="10" points="
						266.396,159.217 266.726,158.662 270.473,152.363 270.759,151.881 					"/>
					
						<line fill="none" stroke="#333333" stroke-width="0.9957" stroke-linecap="round" stroke-miterlimit="10" x1="271.558" y1="150.537" x2="271.522" y2="150.598"/>
				</g>
			</g>
		</g>
		<g>
			
				<path fill="#A1C453" stroke="#333333" stroke-width="1.4936" stroke-linecap="round" stroke-linejoin="round" stroke-miterlimit="10" d="
				M297.694,169.913c-2.5-1.702-2.806-3.963-9.072-2.919c-6.27,1.046-2.737,4.89-6.861,5.576c4.124-0.687,2.283,4.184,8.319,3.176
				C296.117,174.741,295.688,172.172,297.694,169.913z"/>
			<g>
				<line fill="none" x1="281.76" y1="172.57" x2="294.109" y2="170.513"/>
				<g>
					<polyline fill="none" stroke="#333333" stroke-width="0.9957" stroke-linecap="round" stroke-miterlimit="10" points="
						282.251,172.488 282.887,172.383 291.523,170.943 292.076,170.852 					"/>
					
						<line fill="none" stroke="#333333" stroke-width="0.9957" stroke-linecap="round" stroke-miterlimit="10" x1="293.618" y1="170.595" x2="293.549" y2="170.606"/>
				</g>
			</g>
		</g>
		<g>
			
				<path fill="#A1C453" stroke="#333333" stroke-width="1.4936" stroke-linecap="round" stroke-linejoin="round" stroke-miterlimit="10" d="
				M294.521,182.178c-0.563-2.972,0.818-4.787-4.353-8.48c-5.17-3.692-5.393,1.521-8.794-0.91c3.401,2.432-1.344,4.575,3.637,8.13
				C289.992,184.475,291.507,182.355,294.521,182.178z"/>
			<g>
				<line fill="none" x1="281.375" y1="172.787" x2="291.563" y2="180.063"/>
				<g>
					<polyline fill="none" stroke="#333333" stroke-width="0.9957" stroke-linecap="round" stroke-miterlimit="10" points="
						281.78,173.076 282.305,173.451 289.429,178.539 289.885,178.865 					"/>
					
						<line fill="none" stroke="#333333" stroke-width="0.9957" stroke-linecap="round" stroke-miterlimit="10" x1="291.157" y1="179.774" x2="291.101" y2="179.733"/>
				</g>
			</g>
		</g>
		<g>
			
				<path fill="#A1C453" stroke="#333333" stroke-width="0.9957" stroke-linecap="round" stroke-linejoin="round" stroke-miterlimit="10" d="
				M303.367,157.58c-0.49-0.861-0.257-1.572-2.253-2.167c-1.997-0.594-1.511,1.046-2.823,0.655c1.313,0.391,0.069,1.561,1.993,2.133
				C302.206,158.774,302.45,157.955,303.367,157.58z"/>
			<g>
				<line fill="none" x1="298.29" y1="156.068" x2="302.225" y2="157.239"/>
				<g>
					<polyline fill="none" stroke="#333333" stroke-width="0.9957" stroke-linecap="round" stroke-miterlimit="10" points="
						298.769,156.211 299.387,156.395 299.712,156.491 300.248,156.651 					"/>
					
						<line fill="none" stroke="#333333" stroke-width="0.9957" stroke-linecap="round" stroke-miterlimit="10" x1="301.746" y1="157.098" x2="301.681" y2="157.077"/>
				</g>
			</g>
		</g>
		<g>
			
				<path fill="#A1C453" stroke="#333333" stroke-width="0.9957" stroke-linecap="round" stroke-linejoin="round" stroke-miterlimit="10" d="
				M286.679,146.36c0.38,0.917,0.058,1.592,1.964,2.433c1.906,0.84,1.629-0.85,2.884-0.297c-1.255-0.553,0.127-1.557-1.711-2.366
				C287.979,145.321,287.635,146.102,286.679,146.36z"/>
			<g>
				<line fill="none" x1="291.526" y1="148.496" x2="287.77" y2="146.842"/>
				<g>
					<polyline fill="none" stroke="#333333" stroke-width="0.9957" stroke-linecap="round" stroke-miterlimit="10" points="
						291.07,148.295 290.48,148.035 290.169,147.898 289.656,147.673 					"/>
					
						<line fill="none" stroke="#333333" stroke-width="0.9957" stroke-linecap="round" stroke-miterlimit="10" x1="288.226" y1="147.043" x2="288.289" y2="147.07"/>
				</g>
			</g>
		</g>
		<g>
			
				<path fill="#A1C453" stroke="#333333" stroke-width="1.4936" stroke-linecap="round" stroke-linejoin="round" stroke-miterlimit="10" d="
				M299.353,135.215c-2.902,0.849-4.844-0.352-8.019,5.152c-3.176,5.504,2.035,5.219-0.056,8.841
				c2.091-3.622,4.684,0.895,7.74-4.406C302.077,139.501,299.821,138.198,299.353,135.215z"/>
			<g>
				<line fill="none" x1="291.279" y1="149.208" x2="297.536" y2="138.364"/>
				<g>
					<polyline fill="none" stroke="#333333" stroke-width="0.9957" stroke-linecap="round" stroke-miterlimit="10" points="
						291.528,148.776 291.851,148.218 296.226,140.635 296.506,140.149 					"/>
					
						<line fill="none" stroke="#333333" stroke-width="0.9957" stroke-linecap="round" stroke-miterlimit="10" x1="297.287" y1="138.796" x2="297.252" y2="138.856"/>
				</g>
			</g>
		</g>
		<g>
			<g>
				<path fill="#D3F46C" d="M258.895,162.906c-3.396-0.811-6.299-5.549-4.685-7.615c-0.61-2.855,4.218-5.494,7.616-4.686
					c3.395,0.81,6.354,3.275,3.864,7.64C265.959,163.03,262.29,163.715,258.895,162.906z"/>
				<g>
					<path fill="none" stroke="#333333" stroke-width="1.4936" stroke-linecap="round" stroke-miterlimit="10" d="M258.186,162.674
						c-0.295-0.132-0.591-0.26-0.86-0.438c-1.313-0.796-2.357-2.001-3.03-3.374c-0.327-0.688-0.565-1.442-0.538-2.213
						c0.03-0.379,0.096-0.769,0.297-1.097l0.148-0.246c0.012-0.091-0.014-0.189-0.019-0.284c-0.034-0.19-0.021-0.381,0.013-0.571
						c0.107-0.764,0.563-1.434,1.109-1.961c0.553-0.531,1.208-0.946,1.899-1.273c1.39-0.622,2.968-0.944,4.479-0.636
						c1.479,0.335,2.968,0.968,3.985,2.132c0.501,0.578,0.834,1.306,0.917,2.068c0.099,0.766-0.068,1.539-0.333,2.252
						c-0.12,0.365-0.302,0.703-0.478,1.045c-0.126,0.161-0.071,0.365-0.083,0.554c-0.004,0.191,0.017,0.384-0.009,0.574
						c-0.044,0.764-0.238,1.528-0.636,2.184c-0.396,0.657-1.025,1.158-1.738,1.436c-0.167,0.085-0.374,0.124-0.534,0.175
						c-0.088,0.025-0.176,0.054-0.268,0.065c-0.184,0.028-0.363,0.068-0.547,0.087"/>
					
						<line fill="none" stroke="#333333" stroke-width="1.4936" stroke-linecap="round" stroke-miterlimit="10" x1="259.627" y1="163.054" x2="259.73" y2="163.069"/>
				</g>
			</g>
			<path opacity="0.5" fill="#FFFFFF" enable-background="new    " d="M262.506,154.455c-0.529-0.597-0.562-1.434-0.067-1.869
				s1.321-0.303,1.852,0.294c0.53,0.598,0.562,1.436,0.068,1.87C263.865,155.186,263.036,155.053,262.506,154.455z"/>
		</g>
		<path fill="#CC924C" stroke="#333333" stroke-width="2.4893" stroke-linecap="round" stroke-miterlimit="10" d="M233.628,176.145
			l67.186-25.752c0.969-0.379,2.062,0.1,2.439,1.068l0,0c0.379,0.968-0.1,2.06-1.067,2.438l-66.823,26.678"/>
		<g>
			
				<path fill="#A1C453" stroke="#333333" stroke-width="0.9957" stroke-linecap="round" stroke-linejoin="round" stroke-miterlimit="10" d="
				M303.924,152.758c0,0,2.119-2.023,2.43-2.535c0.252-0.406-2.842,0.109-3.918,0.497L303.924,152.758z"/>
			
				<path fill="#A1C453" stroke="#333333" stroke-width="0.9957" stroke-linecap="round" stroke-linejoin="round" stroke-miterlimit="10" d="
				M303.299,150.517l-2.027,4.029c0,0,4.375-0.997,5.389-2.575C306.659,151.971,304.581,151.325,303.299,150.517z"/>
			
				<path fill="#A1C453" stroke="#333333" stroke-width="0.9957" stroke-linecap="round" stroke-linejoin="round" stroke-miterlimit="10" d="
				M298.104,151.923c0,0,3.959-3.92,7.21-3.395l-2.132,3.756L298.104,151.923z"/>
		</g>
		<g>
			<g>
				<path fill="#D3F46C" d="M281.654,177.283c-1.768,1.189-5.094,0.531-5.354-1.049c-1.532-0.906-0.718-4.163,1.049-5.352
					c1.77-1.19,4.099-1.499,5.025,1.424C284.633,174.166,283.422,176.095,281.654,177.283z"/>
				<g>
					<path fill="none" stroke="#333333" stroke-width="0.9957" stroke-linecap="round" stroke-miterlimit="10" d="M281.218,177.521
						c-0.195,0.092-0.397,0.162-0.606,0.217c-0.892,0.229-1.849,0.199-2.726-0.081c-0.436-0.143-0.862-0.351-1.186-0.683
						c-0.154-0.168-0.298-0.359-0.354-0.583c-0.018-0.054-0.027-0.113-0.053-0.162l-0.139-0.104c-0.099-0.063-0.173-0.15-0.244-0.24
						c-0.572-0.758-0.462-1.793-0.207-2.651c0.289-0.867,0.777-1.701,1.521-2.255c0.742-0.53,1.619-0.943,2.548-0.952
						c0.943-0.038,1.797,0.576,2.223,1.39c0.265,0.378,0.252,0.919,0.685,1.168c0.324,0.324,0.619,0.691,0.786,1.123
						c0.168,0.431,0.186,0.916,0.053,1.357l-0.115,0.318l-0.083,0.165c-0.051,0.112-0.119,0.214-0.188,0.317"/>
					
						<line fill="none" stroke="#333333" stroke-width="0.9957" stroke-linecap="round" stroke-miterlimit="10" x1="282.056" y1="176.989" x2="282.11" y2="176.945"/>
				</g>
			</g>
			
				<ellipse transform="matrix(0.9998 0.0216 -0.0216 0.9998 3.7667 -5.9916)" opacity="0.5" fill="#FFFFFF" enable-background="new    " cx="279.371" cy="171.453" rx="0.882" ry="0.726"/>
		</g>
	</g>
</g>
<g id="calque08">
	<g>
		
			<polygon fill="#CC924C" stroke="#333333" stroke-width="0.9957" stroke-linecap="round" stroke-linejoin="round" stroke-miterlimit="10" points="
			266.142,159.645 260.417,166.198 263.033,165.174 		"/>
		
			<polygon fill="#CC924C" stroke="#333333" stroke-width="0.9957" stroke-linecap="round" stroke-linejoin="round" stroke-miterlimit="10" points="
			291.279,149.208 287.771,155.496 290.388,154.472 		"/>
		
			<polygon fill="#CC924C" stroke="#333333" stroke-width="0.9957" stroke-linecap="round" stroke-linejoin="round" stroke-miterlimit="10" points="
			281.809,172.778 267.05,167.646 269.666,166.622 		"/>
		
			<polygon fill="#CC924C" stroke="#333333" stroke-width="0.9957" stroke-linecap="round" stroke-linejoin="round" stroke-miterlimit="10" points="
			304.273,158.318 296.645,156.067 298.334,155.406 		"/>
		<g>
			
				<path fill="#A1C453" stroke="#333333" stroke-width="1.4936" stroke-linecap="round" stroke-linejoin="round" stroke-miterlimit="10" d="
				M266.512,179.398c-0.871-2.534,0.111-4.301-4.893-6.883c-5.005-2.584-4.535,2.018-7.828,0.317c3.293,1.7-0.599,4.183,4.221,6.669
				C262.832,181.989,263.891,179.938,266.512,179.398z"/>
			<g>
				<line fill="none" x1="253.791" y1="172.833" x2="263.648" y2="177.922"/>
				<g>
					<polyline fill="none" stroke="#333333" stroke-width="0.9957" stroke-linecap="round" stroke-miterlimit="10" points="
						254.233,173.062 254.807,173.357 261.318,176.719 261.816,176.977 					"/>
					
						<line fill="none" stroke="#333333" stroke-width="0.9957" stroke-linecap="round" stroke-miterlimit="10" x1="263.206" y1="177.693" x2="263.144" y2="177.661"/>
				</g>
			</g>
		</g>
		<g>
			
				<path fill="#A1C453" stroke="#333333" stroke-width="1.4936" stroke-linecap="round" stroke-linejoin="round" stroke-miterlimit="10" d="
				M273.459,147.34c-2.582,0.719-4.288-0.367-7.166,4.473s1.743,4.647-0.151,7.832c1.896-3.185,4.14,0.848,6.91-3.813
				C275.823,151.169,273.84,149.988,273.459,147.34z"/>
			<g>
				<line fill="none" x1="266.142" y1="159.645" x2="271.813" y2="150.109"/>
				<g>
					<polyline fill="none" stroke="#333333" stroke-width="0.9957" stroke-linecap="round" stroke-miterlimit="10" points="
						266.396,159.217 266.726,158.662 270.473,152.363 270.759,151.881 					"/>
					
						<line fill="none" stroke="#333333" stroke-width="0.9957" stroke-linecap="round" stroke-miterlimit="10" x1="271.558" y1="150.537" x2="271.522" y2="150.598"/>
				</g>
			</g>
		</g>
		<g>
			
				<path fill="#A1C453" stroke="#333333" stroke-width="1.4936" stroke-linecap="round" stroke-linejoin="round" stroke-miterlimit="10" d="
				M297.694,169.913c-2.5-1.702-2.806-3.963-9.072-2.919c-6.27,1.046-2.737,4.89-6.861,5.576c4.124-0.687,2.283,4.184,8.319,3.176
				C296.117,174.741,295.688,172.172,297.694,169.913z"/>
			<g>
				<line fill="none" x1="281.76" y1="172.57" x2="294.109" y2="170.513"/>
				<g>
					<polyline fill="none" stroke="#333333" stroke-width="0.9957" stroke-linecap="round" stroke-miterlimit="10" points="
						282.251,172.488 282.887,172.383 291.523,170.943 292.076,170.852 					"/>
					
						<line fill="none" stroke="#333333" stroke-width="0.9957" stroke-linecap="round" stroke-miterlimit="10" x1="293.618" y1="170.595" x2="293.549" y2="170.606"/>
				</g>
			</g>
		</g>
		<g>
			
				<path fill="#A1C453" stroke="#333333" stroke-width="1.4936" stroke-linecap="round" stroke-linejoin="round" stroke-miterlimit="10" d="
				M294.521,182.178c-0.563-2.972,0.818-4.787-4.353-8.48c-5.17-3.692-5.393,1.521-8.794-0.91c3.401,2.432-1.344,4.575,3.637,8.13
				C289.992,184.475,291.507,182.355,294.521,182.178z"/>
			<g>
				<line fill="none" x1="281.375" y1="172.787" x2="291.563" y2="180.063"/>
				<g>
					<polyline fill="none" stroke="#333333" stroke-width="0.9957" stroke-linecap="round" stroke-miterlimit="10" points="
						281.78,173.076 282.305,173.451 289.429,178.539 289.885,178.865 					"/>
					
						<line fill="none" stroke="#333333" stroke-width="0.9957" stroke-linecap="round" stroke-miterlimit="10" x1="291.157" y1="179.774" x2="291.101" y2="179.733"/>
				</g>
			</g>
		</g>
		<g>
			
				<path fill="#A1C453" stroke="#333333" stroke-width="1.4936" stroke-linecap="round" stroke-linejoin="round" stroke-miterlimit="10" d="
				M315.661,161.662c-1.188-2.084-0.618-3.803-5.449-5.241s-3.653,2.53-6.832,1.585c3.179,0.945,0.171,3.775,4.822,5.162
				C312.855,164.552,313.445,162.572,315.661,161.662z"/>
			<g>
				<line fill="none" x1="303.38" y1="158.006" x2="312.898" y2="160.839"/>
				<g>
					<polyline fill="none" stroke="#333333" stroke-width="0.9957" stroke-linecap="round" stroke-miterlimit="10" points="
						303.857,158.147 304.476,158.332 310.386,160.091 310.923,160.251 					"/>
					
						<line fill="none" stroke="#333333" stroke-width="0.9957" stroke-linecap="round" stroke-miterlimit="10" x1="312.421" y1="160.697" x2="312.354" y2="160.677"/>
				</g>
			</g>
		</g>
		<g>
			
				<path fill="#A1C453" stroke="#333333" stroke-width="0.7966" stroke-linecap="round" stroke-linejoin="round" stroke-miterlimit="10" d="
				M306.683,163.631c0.292-1.064,1.036-1.439-0.067-3.479c-1.104-2.041-2.014-0.365-2.739-1.708c0.727,1.343-1.175,1.284-0.109,3.25
				C304.827,163.659,305.664,163.206,306.683,163.631z"/>
			<g>
				<line fill="none" x1="303.875" y1="158.443" x2="306.051" y2="162.464"/>
				<g>
					<polyline fill="none" stroke="#333333" stroke-width="0.9957" stroke-linecap="round" stroke-miterlimit="10" points="
						304.112,158.881 304.419,159.448 304.803,160.158 305.069,160.65 					"/>
					
						<line fill="none" stroke="#333333" stroke-width="0.9957" stroke-linecap="round" stroke-miterlimit="10" x1="305.813" y1="162.026" x2="305.78" y2="161.965"/>
				</g>
			</g>
		</g>
		<g>
			
				<path fill="#A1C453" stroke="#333333" stroke-width="0.9957" stroke-linecap="round" stroke-linejoin="round" stroke-miterlimit="10" d="
				M289.349,142.646c-0.588,1.071-1.485,1.282-0.819,3.764c0.665,2.479,2.073,0.909,2.512,2.541
				c-0.438-1.632,1.593-1.081,0.952-3.47C291.353,143.091,290.335,143.363,289.349,142.646z"/>
			<g>
				<line fill="none" x1="291.04" y1="148.95" x2="289.729" y2="144.064"/>
				<g>
					<polyline fill="none" stroke="#333333" stroke-width="0.7966" stroke-linecap="round" stroke-miterlimit="10" points="
						290.937,148.565 290.803,148.067 290.272,146.09 290.156,145.657 					"/>
					
						<line fill="none" stroke="#333333" stroke-width="0.7966" stroke-linecap="round" stroke-miterlimit="10" x1="289.832" y1="144.449" x2="289.847" y2="144.503"/>
				</g>
			</g>
		</g>
		<g>
			
				<path fill="#A1C453" stroke="#333333" stroke-width="1.4936" stroke-linecap="round" stroke-linejoin="round" stroke-miterlimit="10" d="
				M299.353,135.215c-2.902,0.849-4.844-0.352-8.019,5.152c-3.176,5.504,2.035,5.219-0.056,8.841
				c2.091-3.622,4.684,0.895,7.74-4.406C302.077,139.501,299.821,138.198,299.353,135.215z"/>
			<g>
				<line fill="none" x1="291.279" y1="149.208" x2="297.536" y2="138.364"/>
				<g>
					<polyline fill="none" stroke="#333333" stroke-width="0.9957" stroke-linecap="round" stroke-miterlimit="10" points="
						291.528,148.776 291.851,148.218 296.226,140.635 296.506,140.149 					"/>
					
						<line fill="none" stroke="#333333" stroke-width="0.9957" stroke-linecap="round" stroke-miterlimit="10" x1="297.287" y1="138.796" x2="297.252" y2="138.856"/>
				</g>
			</g>
		</g>
		<g>
			
				<path fill="#A1C453" stroke="#333333" stroke-width="1.4936" stroke-linecap="round" stroke-linejoin="round" stroke-miterlimit="10" d="
				M280.478,142.088c0.461,2.332-0.613,3.767,3.472,6.636c4.085,2.87,4.226-1.229,6.913,0.662c-2.688-1.891,1.028-3.603-2.904-6.365
				C284.021,140.257,282.846,141.93,280.478,142.088z"/>
			<g>
				<line fill="none" x1="290.862" y1="149.386" x2="282.816" y2="143.73"/>
				<g>
					<polyline fill="none" stroke="#333333" stroke-width="0.9957" stroke-linecap="round" stroke-miterlimit="10" points="
						290.455,149.1 289.928,148.729 284.962,145.238 284.503,144.916 					"/>
					
						<line fill="none" stroke="#333333" stroke-width="0.9957" stroke-linecap="round" stroke-miterlimit="10" x1="283.224" y1="144.017" x2="283.281" y2="144.057"/>
				</g>
			</g>
		</g>
		<g>
			<g>
				<path fill="#EF4529" d="M258.895,162.906c-3.396-0.811-6.299-5.549-4.685-7.615c-0.61-2.855,4.218-5.494,7.616-4.686
					c3.395,0.81,6.354,3.275,3.864,7.64C265.959,163.03,262.29,163.715,258.895,162.906z"/>
				<g>
					<path fill="none" stroke="#333333" stroke-width="1.4936" stroke-linecap="round" stroke-miterlimit="10" d="M258.186,162.674
						c-0.295-0.132-0.591-0.26-0.86-0.438c-1.313-0.796-2.357-2.001-3.03-3.374c-0.327-0.688-0.565-1.442-0.538-2.213
						c0.03-0.379,0.096-0.769,0.297-1.097l0.148-0.246c0.012-0.091-0.014-0.189-0.019-0.284c-0.034-0.19-0.021-0.381,0.013-0.571
						c0.107-0.764,0.563-1.434,1.109-1.961c0.553-0.531,1.208-0.946,1.899-1.273c1.39-0.622,2.968-0.944,4.479-0.636
						c1.479,0.335,2.968,0.968,3.985,2.132c0.501,0.578,0.834,1.306,0.917,2.068c0.099,0.766-0.068,1.539-0.333,2.252
						c-0.12,0.365-0.302,0.703-0.478,1.045c-0.126,0.161-0.071,0.365-0.083,0.554c-0.004,0.191,0.017,0.384-0.009,0.574
						c-0.044,0.764-0.238,1.528-0.636,2.184c-0.396,0.657-1.025,1.158-1.738,1.436c-0.167,0.085-0.374,0.124-0.534,0.175
						c-0.088,0.025-0.176,0.054-0.268,0.065c-0.184,0.028-0.363,0.068-0.547,0.087"/>
					
						<line fill="none" stroke="#333333" stroke-width="1.4936" stroke-linecap="round" stroke-miterlimit="10" x1="259.627" y1="163.054" x2="259.73" y2="163.069"/>
				</g>
			</g>
			<path opacity="0.5" fill="#FFFFFF" enable-background="new    " d="M262.506,154.455c-0.529-0.597-0.562-1.434-0.067-1.869
				s1.321-0.305,1.852,0.294c0.53,0.598,0.562,1.436,0.068,1.87C263.865,155.186,263.036,155.053,262.506,154.455z"/>
		</g>
		<g>
			<g>
				<path fill="#D3F46C" d="M281.232,181.25c-2.813,2.066-8.306,1.214-8.838-1.354c-2.571-1.381-1.459-6.771,1.356-8.838
					c2.813-2.064,6.607-2.729,8.325,1.993C285.897,175.944,284.047,179.186,281.232,181.25z"/>
				<g>
					<path fill="none" stroke="#333333" stroke-width="1.4936" stroke-linecap="round" stroke-miterlimit="10" d="M280.597,181.641
						c-0.291,0.139-0.581,0.282-0.892,0.373c-1.454,0.486-3.052,0.504-4.532,0.129c-0.736-0.195-1.466-0.502-2.035-1.021
						c-0.271-0.268-0.524-0.57-0.646-0.936l-0.093-0.272c-0.061-0.067-0.151-0.112-0.228-0.17c-0.167-0.098-0.304-0.23-0.428-0.379
						c-0.514-0.577-0.729-1.357-0.776-2.115c-0.047-0.765,0.06-1.533,0.259-2.272c0.424-1.461,1.199-2.874,2.413-3.825
						c1.213-0.911,2.656-1.637,4.203-1.661c0.766-0.008,1.535,0.209,2.171,0.639c0.646,0.421,1.129,1.048,1.501,1.711
						c0.201,0.328,0.341,0.686,0.488,1.039c0.041,0.201,0.231,0.292,0.369,0.422c0.143,0.127,0.303,0.237,0.432,0.379
						c0.555,0.527,1.011,1.17,1.254,1.897c0.245,0.727,0.219,1.53-0.03,2.254c-0.044,0.182-0.146,0.365-0.212,0.521
						c-0.038,0.084-0.072,0.169-0.124,0.246c-0.097,0.157-0.183,0.321-0.287,0.473"/>
					
						<line fill="none" stroke="#333333" stroke-width="1.4936" stroke-linecap="round" stroke-miterlimit="10" x1="281.818" y1="180.787" x2="281.897" y2="180.718"/>
				</g>
			</g>
			
				<ellipse transform="matrix(0.9998 -0.0203 0.0203 0.9998 -3.4245 5.6491)" opacity="0.5" fill="#FFFFFF" enable-background="new    " cx="277.101" cy="171.84" rx="1.446" ry="1.19"/>
		</g>
		<path fill="#CC924C" stroke="#333333" stroke-width="2.4893" stroke-linecap="round" stroke-miterlimit="10" d="M233.627,176.143
			l76.669-29.459c0.968-0.379,2.061,0.099,2.438,1.067l0,0c0.379,0.968-0.1,2.06-1.066,2.438l-76.307,30.388"/>
		<g>
			
				<path fill="#A1C453" stroke="#333333" stroke-width="0.9957" stroke-linecap="round" stroke-linejoin="round" stroke-miterlimit="10" d="
				M313.404,149.049c0,0,2.119-2.024,2.432-2.535c0.253-0.407-2.842,0.109-3.919,0.496L313.404,149.049z"/>
			
				<path fill="#A1C453" stroke="#333333" stroke-width="0.9957" stroke-linecap="round" stroke-linejoin="round" stroke-miterlimit="10" d="
				M312.781,146.807l-2.027,4.029c0,0,4.375-0.996,5.39-2.575C316.143,148.261,314.064,147.615,312.781,146.807z"/>
			
				<path fill="#A1C453" stroke="#333333" stroke-width="0.9957" stroke-linecap="round" stroke-linejoin="round" stroke-miterlimit="10" d="
				M307.584,148.214c0,0,3.96-3.921,7.212-3.396l-2.134,3.756L307.584,148.214z"/>
		</g>
	</g>
</g>
<g id="calque09">
	<g>
		
			<polygon fill="#CC924C" stroke="#333333" stroke-width="0.9957" stroke-linecap="round" stroke-linejoin="round" stroke-miterlimit="10" points="
			266.142,159.645 260.417,166.198 263.033,165.174 		"/>
		
			<polygon fill="#CC924C" stroke="#333333" stroke-width="0.9957" stroke-linecap="round" stroke-linejoin="round" stroke-miterlimit="10" points="
			291.279,149.208 287.771,155.496 290.388,154.472 		"/>
		
			<polygon fill="#CC924C" stroke="#333333" stroke-width="0.9957" stroke-linecap="round" stroke-linejoin="round" stroke-miterlimit="10" points="
			281.809,172.778 267.05,167.646 269.666,166.622 		"/>
		
			<polygon fill="#CC924C" stroke="#333333" stroke-width="0.9957" stroke-linecap="round" stroke-linejoin="round" stroke-miterlimit="10" points="
			304.273,158.318 296.645,156.067 298.334,155.406 		"/>
		<g>
			
				<path fill="#A1C453" stroke="#333333" stroke-width="1.4936" stroke-linecap="round" stroke-linejoin="round" stroke-miterlimit="10" d="
				M266.512,179.398c-0.871-2.534,0.111-4.301-4.893-6.883c-5.005-2.584-4.535,2.018-7.828,0.317c3.293,1.7-0.599,4.183,4.221,6.669
				C262.832,181.989,263.891,179.937,266.512,179.398z"/>
			<g>
				<line fill="none" x1="253.791" y1="172.833" x2="263.648" y2="177.922"/>
				<g>
					<polyline fill="none" stroke="#333333" stroke-width="0.9957" stroke-linecap="round" stroke-miterlimit="10" points="
						254.233,173.062 254.807,173.357 261.318,176.719 261.816,176.977 					"/>
					
						<line fill="none" stroke="#333333" stroke-width="0.9957" stroke-linecap="round" stroke-miterlimit="10" x1="263.206" y1="177.693" x2="263.144" y2="177.661"/>
				</g>
			</g>
		</g>
		<g>
			
				<path fill="#A1C453" stroke="#333333" stroke-width="1.4936" stroke-linecap="round" stroke-linejoin="round" stroke-miterlimit="10" d="
				M273.459,147.34c-2.582,0.719-4.288-0.367-7.166,4.473s1.743,4.647-0.151,7.832c1.896-3.185,4.14,0.848,6.91-3.813
				C275.823,151.169,273.84,149.988,273.459,147.34z"/>
			<g>
				<line fill="none" x1="266.142" y1="159.645" x2="271.813" y2="150.109"/>
				<g>
					<polyline fill="none" stroke="#333333" stroke-width="0.9957" stroke-linecap="round" stroke-miterlimit="10" points="
						266.396,159.217 266.726,158.662 270.473,152.363 270.759,151.881 					"/>
					
						<line fill="none" stroke="#333333" stroke-width="0.9957" stroke-linecap="round" stroke-miterlimit="10" x1="271.558" y1="150.537" x2="271.522" y2="150.598"/>
				</g>
			</g>
		</g>
		<g>
			
				<path fill="#A1C453" stroke="#333333" stroke-width="1.4936" stroke-linecap="round" stroke-linejoin="round" stroke-miterlimit="10" d="
				M297.694,169.913c-2.5-1.702-2.806-3.963-9.072-2.919c-6.27,1.046-2.737,4.89-6.861,5.576c4.124-0.687,2.283,4.184,8.319,3.176
				C296.117,174.741,295.688,172.172,297.694,169.913z"/>
			<g>
				<line fill="none" x1="281.76" y1="172.57" x2="294.109" y2="170.513"/>
				<g>
					<polyline fill="none" stroke="#333333" stroke-width="0.9957" stroke-linecap="round" stroke-miterlimit="10" points="
						282.251,172.488 282.887,172.383 291.523,170.943 292.076,170.852 					"/>
					
						<line fill="none" stroke="#333333" stroke-width="0.9957" stroke-linecap="round" stroke-miterlimit="10" x1="293.618" y1="170.595" x2="293.549" y2="170.606"/>
				</g>
			</g>
		</g>
		<g>
			
				<path fill="#A1C453" stroke="#333333" stroke-width="1.4936" stroke-linecap="round" stroke-linejoin="round" stroke-miterlimit="10" d="
				M294.521,182.178c-0.563-2.973,0.818-4.787-4.353-8.48c-5.17-3.692-5.393,1.521-8.794-0.91c3.401,2.432-1.344,4.575,3.637,8.13
				C289.992,184.475,291.507,182.355,294.521,182.178z"/>
			<g>
				<line fill="none" x1="281.375" y1="172.787" x2="291.563" y2="180.063"/>
				<g>
					<polyline fill="none" stroke="#333333" stroke-width="0.9957" stroke-linecap="round" stroke-miterlimit="10" points="
						281.78,173.076 282.305,173.451 289.429,178.539 289.885,178.865 					"/>
					
						<line fill="none" stroke="#333333" stroke-width="0.9957" stroke-linecap="round" stroke-miterlimit="10" x1="291.157" y1="179.774" x2="291.101" y2="179.733"/>
				</g>
			</g>
		</g>
		<g>
			
				<path fill="#A1C453" stroke="#333333" stroke-width="1.4936" stroke-linecap="round" stroke-linejoin="round" stroke-miterlimit="10" d="
				M315.734,161.757c-1.188-2.083-0.62-3.802-5.45-5.24c-4.831-1.438-3.652,2.531-6.832,1.584c3.18,0.947,0.171,3.775,4.823,5.163
				C312.928,164.648,313.518,162.667,315.734,161.757z"/>
			<g>
				<line fill="none" x1="303.451" y1="158.101" x2="312.969" y2="160.934"/>
				<g>
					<polyline fill="none" stroke="#333333" stroke-width="0.9957" stroke-linecap="round" stroke-miterlimit="10" points="
						303.93,158.242 304.548,158.427 310.455,160.186 310.992,160.346 					"/>
					
						<line fill="none" stroke="#333333" stroke-width="0.9957" stroke-linecap="round" stroke-miterlimit="10" x1="312.49" y1="160.791" x2="312.425" y2="160.771"/>
				</g>
			</g>
		</g>
		<g>
			
				<path fill="#A1C453" stroke="#333333" stroke-width="1.4936" stroke-linecap="round" stroke-linejoin="round" stroke-miterlimit="10" d="
				M309.674,169.668c0.633-2.313,2.25-3.125-0.149-7.558c-2.398-4.434-4.372-0.795-5.95-3.712c1.578,2.917-2.55,2.791-0.239,7.062
				C305.645,169.729,307.463,168.746,309.674,169.668z"/>
			<g>
				<line fill="none" x1="303.573" y1="158.398" x2="308.3" y2="167.133"/>
				<g>
					<polyline fill="none" stroke="#333333" stroke-width="0.9957" stroke-linecap="round" stroke-miterlimit="10" points="
						303.812,158.836 304.117,159.403 307.052,164.827 307.318,165.319 					"/>
					
						<line fill="none" stroke="#333333" stroke-width="0.9957" stroke-linecap="round" stroke-miterlimit="10" x1="308.063" y1="166.695" x2="308.029" y2="166.633"/>
				</g>
			</g>
		</g>
		<g>
			
				<path fill="#A1C453" stroke="#333333" stroke-width="1.4936" stroke-linecap="round" stroke-linejoin="round" stroke-miterlimit="10" d="
				M286.84,133.243c-1.452,2.653-3.674,3.177-2.027,9.313c1.647,6.138,5.131,2.25,6.213,6.289c-1.082-4.039,3.943-2.678,2.357-8.588
				C291.797,134.346,289.281,135.021,286.84,133.243z"/>
			<g>
				<line fill="none" x1="291.025" y1="148.846" x2="287.783" y2="136.755"/>
				<g>
					<polyline fill="none" stroke="#333333" stroke-width="0.9957" stroke-linecap="round" stroke-miterlimit="10" points="
						290.896,148.365 290.729,147.742 288.462,139.287 288.317,138.746 					"/>
					
						<line fill="none" stroke="#333333" stroke-width="0.9957" stroke-linecap="round" stroke-miterlimit="10" x1="287.912" y1="137.235" x2="287.931" y2="137.304"/>
				</g>
			</g>
		</g>
		<g>
			
				<path fill="#A1C453" stroke="#333333" stroke-width="1.4936" stroke-linecap="round" stroke-linejoin="round" stroke-miterlimit="10" d="
				M299.353,135.215c-2.902,0.849-4.844-0.352-8.019,5.152c-3.176,5.504,2.035,5.219-0.056,8.841
				c2.091-3.622,4.684,0.895,7.74-4.406C302.077,139.501,299.821,138.198,299.353,135.215z"/>
			<g>
				<line fill="none" x1="291.279" y1="149.208" x2="297.536" y2="138.364"/>
				<g>
					<polyline fill="none" stroke="#333333" stroke-width="0.9957" stroke-linecap="round" stroke-miterlimit="10" points="
						291.528,148.776 291.851,148.218 296.226,140.635 296.506,140.149 					"/>
					
						<line fill="none" stroke="#333333" stroke-width="0.9957" stroke-linecap="round" stroke-miterlimit="10" x1="297.287" y1="138.796" x2="297.252" y2="138.856"/>
				</g>
			</g>
		</g>
		<g>
			
				<path fill="#A1C453" stroke="#333333" stroke-width="1.4936" stroke-linecap="round" stroke-linejoin="round" stroke-miterlimit="10" d="
				M280.478,142.088c0.461,2.332-0.613,3.767,3.472,6.636c4.085,2.87,4.226-1.229,6.913,0.662c-2.688-1.891,1.028-3.603-2.904-6.365
				C284.021,140.256,282.846,141.93,280.478,142.088z"/>
			<g>
				<line fill="none" x1="290.862" y1="149.386" x2="282.816" y2="143.73"/>
				<g>
					<polyline fill="none" stroke="#333333" stroke-width="0.9957" stroke-linecap="round" stroke-miterlimit="10" points="
						290.455,149.1 289.928,148.729 284.962,145.238 284.503,144.916 					"/>
					
						<line fill="none" stroke="#333333" stroke-width="0.9957" stroke-linecap="round" stroke-miterlimit="10" x1="283.224" y1="144.017" x2="283.281" y2="144.057"/>
				</g>
			</g>
		</g>
		<g>
			<g>
				<path fill="#EF4529" d="M258.895,162.906c-3.396-0.811-6.299-5.549-4.685-7.615c-0.61-2.855,4.218-5.494,7.616-4.686
					c3.395,0.81,6.354,3.275,3.864,7.64C265.959,163.03,262.29,163.715,258.895,162.906z"/>
				<g>
					<path fill="none" stroke="#333333" stroke-width="1.4936" stroke-linecap="round" stroke-miterlimit="10" d="M258.186,162.674
						c-0.295-0.132-0.591-0.26-0.86-0.438c-1.313-0.796-2.357-2.001-3.03-3.374c-0.327-0.688-0.565-1.442-0.538-2.213
						c0.03-0.379,0.096-0.769,0.297-1.097l0.148-0.246c0.012-0.091-0.014-0.189-0.019-0.284c-0.034-0.19-0.021-0.381,0.013-0.571
						c0.107-0.764,0.563-1.434,1.109-1.961c0.553-0.531,1.208-0.946,1.899-1.273c1.39-0.622,2.968-0.944,4.479-0.636
						c1.479,0.335,2.968,0.968,3.985,2.132c0.501,0.578,0.834,1.306,0.917,2.068c0.099,0.766-0.068,1.539-0.333,2.252
						c-0.12,0.365-0.302,0.703-0.478,1.045c-0.126,0.161-0.071,0.365-0.083,0.554c-0.004,0.191,0.017,0.384-0.009,0.574
						c-0.044,0.764-0.238,1.528-0.636,2.184c-0.396,0.657-1.025,1.158-1.738,1.436c-0.167,0.085-0.374,0.124-0.534,0.175
						c-0.088,0.025-0.176,0.054-0.268,0.065c-0.184,0.028-0.363,0.068-0.547,0.087"/>
					
						<line fill="none" stroke="#333333" stroke-width="1.4936" stroke-linecap="round" stroke-miterlimit="10" x1="259.627" y1="163.054" x2="259.73" y2="163.069"/>
				</g>
			</g>
			<path opacity="0.5" fill="#FFFFFF" enable-background="new    " d="M262.506,154.455c-0.529-0.597-0.562-1.434-0.067-1.869
				c0.492-0.436,1.321-0.305,1.852,0.294c0.53,0.598,0.562,1.436,0.068,1.87C263.865,155.186,263.036,155.053,262.506,154.455z"/>
		</g>
		<g>
			<g>
				<path fill="#EF4529" d="M281.232,181.25c-2.813,2.066-8.306,1.214-8.838-1.354c-2.571-1.381-1.459-6.771,1.356-8.838
					c2.813-2.064,6.607-2.729,8.325,1.993C285.897,175.944,284.047,179.186,281.232,181.25z"/>
				<g>
					<path fill="none" stroke="#333333" stroke-width="1.4936" stroke-linecap="round" stroke-miterlimit="10" d="M280.597,181.641
						c-0.291,0.139-0.581,0.282-0.892,0.373c-1.454,0.486-3.052,0.504-4.532,0.129c-0.736-0.195-1.466-0.502-2.035-1.021
						c-0.271-0.268-0.524-0.57-0.646-0.936l-0.093-0.272c-0.061-0.067-0.151-0.112-0.228-0.17c-0.167-0.098-0.304-0.23-0.428-0.379
						c-0.514-0.577-0.729-1.357-0.776-2.115c-0.047-0.765,0.06-1.533,0.259-2.272c0.424-1.461,1.199-2.874,2.413-3.825
						c1.213-0.911,2.656-1.637,4.203-1.661c0.766-0.008,1.535,0.209,2.171,0.639c0.646,0.421,1.129,1.048,1.501,1.711
						c0.201,0.328,0.341,0.686,0.488,1.039c0.041,0.201,0.231,0.292,0.369,0.422c0.143,0.127,0.303,0.237,0.432,0.379
						c0.555,0.527,1.011,1.17,1.254,1.897c0.245,0.727,0.219,1.53-0.03,2.254c-0.044,0.182-0.146,0.365-0.212,0.521
						c-0.038,0.084-0.072,0.169-0.124,0.246c-0.097,0.157-0.183,0.321-0.287,0.473"/>
					
						<line fill="none" stroke="#333333" stroke-width="1.4936" stroke-linecap="round" stroke-miterlimit="10" x1="281.818" y1="180.787" x2="281.897" y2="180.718"/>
				</g>
			</g>
			
				<ellipse transform="matrix(0.9998 -0.0201 0.0201 0.9998 -3.3964 5.6017)" opacity="0.5" fill="#FFFFFF" enable-background="new    " cx="277.098" cy="171.839" rx="1.446" ry="1.19"/>
		</g>
		<path fill="#CC924C" stroke="#333333" stroke-width="2.4893" stroke-linecap="round" stroke-miterlimit="10" d="M233.627,176.143
			l76.669-29.459c0.968-0.379,2.061,0.099,2.438,1.067l0,0c0.379,0.968-0.1,2.06-1.066,2.438l-76.307,30.388"/>
		<g>
			
				<path fill="#A1C453" stroke="#333333" stroke-width="0.9957" stroke-linecap="round" stroke-linejoin="round" stroke-miterlimit="10" d="
				M313.404,149.049c0,0,2.119-2.024,2.432-2.535c0.253-0.407-2.842,0.109-3.919,0.496L313.404,149.049z"/>
			
				<path fill="#A1C453" stroke="#333333" stroke-width="0.9957" stroke-linecap="round" stroke-linejoin="round" stroke-miterlimit="10" d="
				M312.781,146.807l-2.027,4.029c0,0,4.375-0.996,5.39-2.575C316.143,148.261,314.064,147.615,312.781,146.807z"/>
			
				<path fill="#A1C453" stroke="#333333" stroke-width="0.9957" stroke-linecap="round" stroke-linejoin="round" stroke-miterlimit="10" d="
				M307.584,148.214c0,0,3.96-3.921,7.212-3.396l-2.134,3.756L307.584,148.214z"/>
		</g>
	</g>
</g>
</svg>
