<?xml version="1.0" encoding="utf-8"?>
<!-- Generator: Adobe Illustrator 16.0.0, SVG Export Plug-In . SVG Version: 6.00 Build 0)  -->
<!DOCTYPE svg PUBLIC "-//W3C//DTD SVG 1.1//EN" "http://www.w3.org/Graphics/SVG/1.1/DTD/svg11.dtd">
<svg version="1.1" id="Calque_1" xmlns="http://www.w3.org/2000/svg" xmlns:xlink="http://www.w3.org/1999/xlink" x="0px" y="0px"
	 width="400px" height="400px" viewBox="0 0 400 400" enable-background="new 0 0 400 400" xml:space="preserve">
<g id="calque00">
	<g>
		<path fill="#CC924C" stroke="#333333" stroke-width="2.6539" stroke-linecap="round" stroke-miterlimit="10" d="M290.759,210.443
			l-4.696-8.151c-0.604-0.927-0.348-2.17,0.583-2.778l0,0c0.927-0.605,2.172-0.346,2.777,0.582l5.584,7.569"/>
		<g>
			
				<path fill="#A1C453" stroke="#333333" stroke-width="1.0616" stroke-linecap="round" stroke-linejoin="round" stroke-miterlimit="10" d="
				M287.854,198.532c0,0-2.577-1.77-3.176-1.983c-0.481-0.173,0.732,2.942,1.371,3.98L287.854,198.532z"/>
			
				<path fill="#A1C453" stroke="#333333" stroke-width="1.0616" stroke-linecap="round" stroke-linejoin="round" stroke-miterlimit="10" d="
				M285.651,199.672l4.646,1.238c0,0-1.993-4.349-3.862-5.063C286.435,195.848,286.215,198.157,285.651,199.672z"/>
			
				<path fill="#A1C453" stroke="#333333" stroke-width="1.0616" stroke-linecap="round" stroke-linejoin="round" stroke-miterlimit="10" d="
				M288.252,204.788c0,0-4.955-3.276-5.116-6.784l4.385,1.406L288.252,204.788z"/>
		</g>
	</g>
</g>
<g id="calque01">
	<g>
		<g>
			
				<path fill="#A1C453" stroke="#333333" stroke-width="1.0616" stroke-linecap="round" stroke-linejoin="round" stroke-miterlimit="10" d="
				M273.195,192.801c1.066-0.765,1.178-1.748,3.902-1.355c2.724,0.392,1.231,2.091,3.025,2.348c-1.794-0.257-0.947,1.834-3.57,1.459
				C273.927,194.875,274.084,193.759,273.195,192.801z"/>
			<g>
				<line fill="none" x1="280.123" y1="193.793" x2="274.754" y2="193.023"/>
				<g>
					<polyline fill="none" stroke="#333333" stroke-width="1.0616" stroke-linecap="round" stroke-miterlimit="10" points="
						279.598,193.718 278.917,193.62 277.521,193.42 276.93,193.335 					"/>
					
						<line fill="none" stroke="#333333" stroke-width="1.0616" stroke-linecap="round" stroke-miterlimit="10" x1="275.279" y1="193.099" x2="275.354" y2="193.109"/>
				</g>
			</g>
		</g>
		<path fill="#CC924C" stroke="#333333" stroke-width="2.6539" stroke-linecap="round" stroke-miterlimit="10" d="M295.007,207.665
			l-16.42-24.145c-0.606-0.928-1.852-1.188-2.778-0.581l0,0c-0.929,0.608-1.188,1.85-0.581,2.779l15.531,24.725"/>
		<g>
			
				<path fill="#A1C453" stroke="#333333" stroke-width="1.0616" stroke-linecap="round" stroke-linejoin="round" stroke-miterlimit="10" d="
				M274.424,183.654c0,0-0.588-3.07-0.543-3.706c0.034-0.511,2.399,1.852,3.096,2.854L274.424,183.654z"/>
			
				<path fill="#A1C453" stroke="#333333" stroke-width="1.0616" stroke-linecap="round" stroke-linejoin="round" stroke-miterlimit="10" d="
				M276.352,182.094l-0.728,4.752c0,0-3.187-3.57-3.09-5.57C272.534,181.275,274.737,182,276.352,182.094z"/>
			
				<path fill="#A1C453" stroke="#333333" stroke-width="1.0616" stroke-linecap="round" stroke-linejoin="round" stroke-miterlimit="10" d="
				M279.995,186.526c0,0-1.016-5.853-4.164-7.407l-0.472,4.582L279.995,186.526z"/>
		</g>
	</g>
</g>
<g id="calque02">
	<g>
		<g>
			
				<path fill="#A1C453" stroke="#333333" stroke-width="1.5923" stroke-linecap="round" stroke-linejoin="round" stroke-miterlimit="10" d="
				M264.438,190.155c2.321-1.661,2.562-3.804,8.506-2.953c5.941,0.853,2.689,4.558,6.601,5.118c-3.91-0.561-2.066,4-7.79,3.18
				C266.029,194.681,266.378,192.245,264.438,190.155z"/>
			<g>
				<line fill="none" x1="279.543" y1="192.32" x2="267.834" y2="190.645"/>
				<g>
					<polyline fill="none" stroke="#333333" stroke-width="1.0616" stroke-linecap="round" stroke-miterlimit="10" points="
						279.018,192.245 278.337,192.147 270.602,191.041 270.01,190.956 					"/>
					
						<line fill="none" stroke="#333333" stroke-width="1.0616" stroke-linecap="round" stroke-miterlimit="10" x1="268.359" y1="190.72" x2="268.434" y2="190.73"/>
				</g>
			</g>
		</g>
		<g>
			
				<path fill="#A1C453" stroke="#333333" stroke-width="1.0616" stroke-linecap="round" stroke-linejoin="round" stroke-miterlimit="10" d="
				M277.494,173.424c0.81,1,1.778,1.05,1.558,3.742c-0.223,2.695-1.978,1.332-2.124,3.106c0.146-1.774-1.854-0.821-1.638-3.416
				C275.502,174.261,276.609,174.353,277.494,173.424z"/>
			<g>
				<line fill="none" x1="276.928" y1="180.272" x2="277.35" y2="175.558"/>
				<g>
					<polyline fill="none" stroke="#333333" stroke-width="1.0616" stroke-linecap="round" stroke-miterlimit="10" points="
						276.975,179.744 277.036,179.059 277.101,178.342 277.153,177.747 					"/>
					
						<line fill="none" stroke="#333333" stroke-width="1.0616" stroke-linecap="round" stroke-miterlimit="10" x1="277.303" y1="176.086" x2="277.296" y2="176.16"/>
				</g>
			</g>
		</g>
		<path fill="#CC924C" stroke="#333333" stroke-width="2.6539" stroke-linecap="round" stroke-miterlimit="10" d="M295.007,207.665
			l-21.412-31.779c-0.606-0.929-1.85-1.188-2.777-0.58l0,0c-0.93,0.606-1.188,1.85-0.582,2.776l20.523,32.361"/>
		<g>
			
				<path fill="#A1C453" stroke="#333333" stroke-width="1.0616" stroke-linecap="round" stroke-linejoin="round" stroke-miterlimit="10" d="
				M269.432,176.019c0,0-0.587-3.07-0.544-3.706c0.033-0.509,2.399,1.853,3.098,2.854L269.432,176.019z"/>
			
				<path fill="#A1C453" stroke="#333333" stroke-width="1.0616" stroke-linecap="round" stroke-linejoin="round" stroke-miterlimit="10" d="
				M271.358,174.458l-0.729,4.753c0,0-3.186-3.57-3.088-5.57C267.542,173.641,269.747,174.364,271.358,174.458z"/>
			
				<path fill="#A1C453" stroke="#333333" stroke-width="1.0616" stroke-linecap="round" stroke-linejoin="round" stroke-miterlimit="10" d="
				M275.002,178.891c0,0-1.015-5.852-4.163-7.405l-0.471,4.58L275.002,178.891z"/>
		</g>
	</g>
</g>
<g id="calque03">
	<g>
		
			<polygon fill="#CC924C" stroke="#333333" stroke-width="1.0616" stroke-linecap="round" stroke-linejoin="round" stroke-miterlimit="10" points="
			276.973,173.229 277.893,182.46 276.255,179.953 		"/>
		<g>
			
				<path fill="#A1C453" stroke="#333333" stroke-width="1.5923" stroke-linecap="round" stroke-linejoin="round" stroke-miterlimit="10" d="
				M264.434,190.155c2.325-1.661,2.566-3.805,8.51-2.953c5.941,0.853,2.689,4.558,6.601,5.118c-3.91-0.561-2.067,4-7.79,3.18
				C266.029,194.681,266.378,192.245,264.434,190.155z"/>
			<g>
				<line fill="none" x1="279.543" y1="192.32" x2="267.665" y2="190.607"/>
				<g>
					<polyline fill="none" stroke="#333333" stroke-width="1.0616" stroke-linecap="round" stroke-miterlimit="10" points="
						279.018,192.244 278.337,192.146 270.432,191.007 269.84,190.921 					"/>
					
						<line fill="none" stroke="#333333" stroke-width="1.0616" stroke-linecap="round" stroke-miterlimit="10" x1="268.19" y1="190.684" x2="268.265" y2="190.693"/>
				</g>
			</g>
		</g>
		<g>
			
				<path fill="#A1C453" stroke="#333333" stroke-width="1.5923" stroke-linecap="round" stroke-linejoin="round" stroke-miterlimit="10" d="
				M278.229,158.019c1.798,2.219,3.95,2.332,3.457,8.314c-0.493,5.983-4.388,2.96-4.714,6.896c0.326-3.936-4.117-1.823-3.641-7.585
				C273.807,159.881,276.26,160.084,278.229,158.019z"/>
			<g>
				<line fill="none" x1="276.802" y1="173.191" x2="277.771" y2="161.405"/>
				<g>
					<polyline fill="none" stroke="#333333" stroke-width="1.0616" stroke-linecap="round" stroke-miterlimit="10" points="
						276.846,172.662 276.901,171.977 277.542,164.191 277.592,163.596 					"/>
					
						<line fill="none" stroke="#333333" stroke-width="1.0616" stroke-linecap="round" stroke-miterlimit="10" x1="277.728" y1="161.935" x2="277.722" y2="162.009"/>
				</g>
			</g>
		</g>
		<g>
			
				<path fill="#A1C453" stroke="#333333" stroke-width="1.0616" stroke-linecap="round" stroke-linejoin="round" stroke-miterlimit="10" d="
				M259.467,176.678c1.206-1.158,1.167-2.418,4.677-2.423c3.514-0.006,1.94,2.413,4.251,2.41c-2.311,0.003-0.861,2.488-4.244,2.493
				C260.769,179.164,260.767,177.723,259.467,176.678z"/>
			<g>
				<line fill="none" x1="268.395" y1="176.665" x2="261.478" y2="176.672"/>
				<g>
					<polyline fill="none" stroke="#333333" stroke-width="1.0616" stroke-linecap="round" stroke-miterlimit="10" points="
						267.863,176.666 267.176,176.666 264.273,176.669 263.676,176.67 					"/>
					
						<line fill="none" stroke="#333333" stroke-width="1.0616" stroke-linecap="round" stroke-miterlimit="10" x1="262.008" y1="176.672" x2="262.083" y2="176.671"/>
				</g>
			</g>
		</g>
		<path fill="#CC924C" stroke="#333333" stroke-width="2.8307" stroke-linecap="round" stroke-miterlimit="10" d="M295.007,207.665
			l-26.039-38.856c-0.607-0.929-1.851-1.188-2.78-0.581l0,0c-0.927,0.606-1.187,1.85-0.579,2.777l25.15,39.438"/>
		<g>
			
				<path fill="#A1C453" stroke="#333333" stroke-width="1.0616" stroke-linecap="round" stroke-linejoin="round" stroke-miterlimit="10" d="
				M264.804,168.941c0,0-0.59-3.07-0.543-3.706c0.032-0.511,2.399,1.853,3.097,2.854L264.804,168.941z"/>
			
				<path fill="#A1C453" stroke="#333333" stroke-width="1.0616" stroke-linecap="round" stroke-linejoin="round" stroke-miterlimit="10" d="
				M266.731,167.379l-0.729,4.753c0,0-3.186-3.57-3.09-5.568C262.913,166.563,265.117,167.286,266.731,167.379z"/>
			
				<path fill="#A1C453" stroke="#333333" stroke-width="1.0616" stroke-linecap="round" stroke-linejoin="round" stroke-miterlimit="10" d="
				M270.375,171.813c0,0-1.016-5.853-4.165-7.408l-0.472,4.581L270.375,171.813z"/>
		</g>
	</g>
</g>
<g id="calque04">
	<g>
		
			<polygon fill="#CC924C" stroke="#333333" stroke-width="1.0616" stroke-linecap="round" stroke-linejoin="round" stroke-miterlimit="10" points="
			276.973,173.229 277.893,182.46 276.255,179.953 		"/>
		
			<polygon fill="#CC924C" stroke="#333333" stroke-width="1.0616" stroke-linecap="round" stroke-linejoin="round" stroke-miterlimit="10" points="
			255.247,174.946 271.238,179.616 269.598,177.108 		"/>
		<g>
			
				<path fill="#A1C453" stroke="#333333" stroke-width="1.5923" stroke-linecap="round" stroke-linejoin="round" stroke-miterlimit="10" d="
				M264.434,190.155c2.325-1.661,2.564-3.804,8.509-2.952c5.942,0.852,2.69,4.557,6.602,5.117c-3.91-0.561-2.067,4-7.79,3.18
				C266.029,194.681,266.378,192.245,264.434,190.155z"/>
			<g>
				<line fill="none" x1="279.543" y1="192.32" x2="267.665" y2="190.607"/>
				<g>
					<polyline fill="none" stroke="#333333" stroke-width="1.0616" stroke-linecap="round" stroke-miterlimit="10" points="
						279.018,192.244 278.337,192.146 270.432,191.007 269.84,190.921 					"/>
					
						<line fill="none" stroke="#333333" stroke-width="1.0616" stroke-linecap="round" stroke-miterlimit="10" x1="268.19" y1="190.684" x2="268.265" y2="190.693"/>
				</g>
			</g>
		</g>
		<g>
			
				<path fill="#A1C453" stroke="#333333" stroke-width="1.5923" stroke-linecap="round" stroke-linejoin="round" stroke-miterlimit="10" d="
				M278.229,158.019c1.798,2.219,3.95,2.332,3.457,8.314c-0.493,5.983-4.388,2.96-4.714,6.896c0.326-3.936-4.117-1.823-3.641-7.585
				C273.807,159.881,276.26,160.084,278.229,158.019z"/>
			<g>
				<line fill="none" x1="276.802" y1="173.191" x2="277.771" y2="161.405"/>
				<g>
					<polyline fill="none" stroke="#333333" stroke-width="1.0616" stroke-linecap="round" stroke-miterlimit="10" points="
						276.846,172.662 276.901,171.977 277.542,164.191 277.592,163.596 					"/>
					
						<line fill="none" stroke="#333333" stroke-width="1.0616" stroke-linecap="round" stroke-miterlimit="10" x1="277.728" y1="161.935" x2="277.722" y2="162.009"/>
				</g>
			</g>
		</g>
		<g>
			
				<path fill="#A1C453" stroke="#333333" stroke-width="1.0616" stroke-linecap="round" stroke-linejoin="round" stroke-miterlimit="10" d="
				M249.338,168.606c1.569,0.032,2.378-0.829,4.714,1.497c2.334,2.328-0.314,2.889,1.22,4.421c-1.534-1.532-2.224,1.081-4.47-1.161
				C248.555,171.121,249.506,170.164,249.338,168.606z"/>
			<g>
				<line fill="none" x1="255.271" y1="174.524" x2="250.674" y2="169.939"/>
				<g>
					<polyline fill="none" stroke="#333333" stroke-width="1.0616" stroke-linecap="round" stroke-miterlimit="10" points="
						254.896,174.149 254.408,173.664 252.653,171.913 252.23,171.491 					"/>
					
						<line fill="none" stroke="#333333" stroke-width="1.0616" stroke-linecap="round" stroke-miterlimit="10" x1="251.05" y1="170.314" x2="251.103" y2="170.367"/>
				</g>
			</g>
		</g>
		<g>
			
				<path fill="#A1C453" stroke="#333333" stroke-width="1.5923" stroke-linecap="round" stroke-linejoin="round" stroke-miterlimit="10" d="
				M238.392,175.247c2.328-2.232,2.25-4.664,9.023-4.673c6.775-0.012,3.742,4.655,8.201,4.646c-4.459,0.009-1.662,4.804-8.187,4.813
				C240.904,180.042,240.902,177.266,238.392,175.247z"/>
			<g>
				<line fill="none" x1="255.616" y1="175.221" x2="242.269" y2="175.243"/>
				<g>
					<polyline fill="none" stroke="#333333" stroke-width="1.0616" stroke-linecap="round" stroke-miterlimit="10" points="
						255.086,175.222 254.397,175.223 245.064,175.238 244.467,175.239 					"/>
					
						<line fill="none" stroke="#333333" stroke-width="1.0616" stroke-linecap="round" stroke-miterlimit="10" x1="242.799" y1="175.242" x2="242.874" y2="175.242"/>
				</g>
			</g>
		</g>
		<g>
			
				<path fill="#A1C453" stroke="#333333" stroke-width="1.0616" stroke-linecap="round" stroke-linejoin="round" stroke-miterlimit="10" d="
				M260.244,145.804c0.921,1.168,2.036,1.238,1.737,4.344c-0.296,3.106-2.299,1.507-2.495,3.552
				c0.196-2.045-2.125-0.977-1.839-3.967C257.934,146.742,259.208,146.863,260.244,145.804z"/>
			<g>
				<line fill="none" x1="259.487" y1="153.699" x2="260.074" y2="147.58"/>
				<g>
					<polyline fill="none" stroke="#333333" stroke-width="1.0616" stroke-linecap="round" stroke-miterlimit="10" points="
						259.538,153.171 259.604,152.486 259.808,150.362 259.864,149.768 					"/>
					
						<line fill="none" stroke="#333333" stroke-width="1.0616" stroke-linecap="round" stroke-miterlimit="10" x1="260.023" y1="148.108" x2="260.017" y2="148.183"/>
				</g>
			</g>
		</g>
		<path fill="#CC924C" stroke="#333333" stroke-width="2.8307" stroke-linecap="round" stroke-miterlimit="10" d="M295.007,207.665
			l-37.674-56.654c-0.607-0.927-1.854-1.188-2.78-0.581l0,0c-0.929,0.607-1.188,1.852-0.581,2.778l36.787,57.235"/>
		<g>
			
				<path fill="#A1C453" stroke="#333333" stroke-width="1.0616" stroke-linecap="round" stroke-linejoin="round" stroke-miterlimit="10" d="
				M253.168,151.145c0,0-0.588-3.069-0.544-3.707c0.033-0.508,2.401,1.854,3.099,2.855L253.168,151.145z"/>
			
				<path fill="#A1C453" stroke="#333333" stroke-width="1.0616" stroke-linecap="round" stroke-linejoin="round" stroke-miterlimit="10" d="
				M255.096,149.583l-0.729,4.751c0,0-3.186-3.568-3.092-5.566C251.276,148.768,253.482,149.491,255.096,149.583z"/>
			
				<path fill="#A1C453" stroke="#333333" stroke-width="1.0616" stroke-linecap="round" stroke-linejoin="round" stroke-miterlimit="10" d="
				M258.739,154.017c0,0-1.015-5.853-4.164-7.407l-0.47,4.582L258.739,154.017z"/>
		</g>
		<g>
			
				<path fill="#FFFFFF" stroke="#333333" stroke-width="1.0616" stroke-linecap="round" stroke-linejoin="round" stroke-miterlimit="10" d="
				M277.805,172.6c-0.213,0.422,0.298,1.219,0.744,1.772c0.807,1,2.703,1.58,3.375,0.247c0.681-1.34-0.908-2.53-2.188-2.593
				C279.024,171.995,278.02,172.173,277.805,172.6z"/>
			
				<path fill="#FFFFFF" stroke="#333333" stroke-width="1.0616" stroke-linecap="round" stroke-linejoin="round" stroke-miterlimit="10" d="
				M277.681,172.599c-0.262-0.399-1.207-0.356-1.911-0.245c-1.267,0.2-2.716,1.551-1.897,2.802c0.819,1.256,2.646,0.476,3.338-0.601
				C277.594,173.955,277.941,172.998,277.681,172.599z"/>
			
				<path fill="#FFFFFF" stroke="#333333" stroke-width="1.0616" stroke-linecap="round" stroke-linejoin="round" stroke-miterlimit="10" d="
				M277.739,172.494c0.477-0.026,0.908-0.867,1.164-1.531c0.463-1.198,0.019-3.13-1.476-3.047c-1.497,0.082-1.733,2.053-1.149,3.191
				C276.607,171.74,277.261,172.521,277.739,172.494z"/>
			
				<path fill="#FFFFFF" stroke="#333333" stroke-width="1.0616" stroke-linecap="round" stroke-linejoin="round" stroke-miterlimit="10" d="
				M277.898,172.501c0.26,0.397,1.205,0.354,1.907,0.242c1.267-0.199,2.72-1.551,1.901-2.801c-0.821-1.256-2.647-0.475-3.341,0.601
				C277.985,171.143,277.635,172.101,277.898,172.501z"/>
			
				<path fill="#FFFFFF" stroke="#333333" stroke-width="1.0616" stroke-linecap="round" stroke-linejoin="round" stroke-miterlimit="10" d="
				M277.83,172.604c-0.475,0.027-0.907,0.866-1.163,1.532c-0.464,1.196-0.018,3.128,1.477,3.046
				c1.497-0.082,1.732-2.053,1.147-3.191C278.963,173.358,278.309,172.577,277.83,172.604z"/>
			
				<path fill="#FFFFFF" stroke="#333333" stroke-width="1.0616" stroke-linecap="round" stroke-linejoin="round" stroke-miterlimit="10" d="
				M277.778,172.481c0.217-0.424-0.296-1.22-0.744-1.774c-0.808-0.997-2.7-1.578-3.375-0.244c-0.678,1.339,0.909,2.529,2.188,2.589
				C276.561,173.086,277.563,172.908,277.778,172.481z"/>
			
				<circle fill="#F9D53E" stroke="#333333" stroke-width="1.0616" stroke-linecap="round" stroke-linejoin="round" stroke-miterlimit="10" cx="277.898" cy="172.5" r="0.988"/>
		</g>
	</g>
</g>
<g id="calque05">
	<g>
		
			<polygon fill="#CC924C" stroke="#333333" stroke-width="1.0616" stroke-linecap="round" stroke-linejoin="round" stroke-miterlimit="10" points="
			276.973,173.229 277.893,182.46 276.255,179.953 		"/>
		
			<polygon fill="#CC924C" stroke="#333333" stroke-width="1.0616" stroke-linecap="round" stroke-linejoin="round" stroke-miterlimit="10" points="
			261.598,148.618 260.757,156.248 259.117,153.741 		"/>
		
			<polygon fill="#CC924C" stroke="#333333" stroke-width="1.0616" stroke-linecap="round" stroke-linejoin="round" stroke-miterlimit="10" points="
			255.247,174.946 271.238,179.616 269.598,177.108 		"/>
		<g>
			
				<path fill="#A1C453" stroke="#333333" stroke-width="1.5923" stroke-linecap="round" stroke-linejoin="round" stroke-miterlimit="10" d="
				M264.434,190.155c2.325-1.661,2.566-3.805,8.51-2.953c5.941,0.853,2.689,4.558,6.601,5.118c-3.91-0.561-2.067,4-7.79,3.18
				C266.029,194.681,266.38,192.243,264.434,190.155z"/>
			<g>
				<line fill="none" x1="279.543" y1="192.32" x2="267.665" y2="190.607"/>
				<g>
					<polyline fill="none" stroke="#333333" stroke-width="1.0616" stroke-linecap="round" stroke-miterlimit="10" points="
						279.018,192.244 278.337,192.146 270.432,191.007 269.84,190.921 					"/>
					
						<line fill="none" stroke="#333333" stroke-width="1.0616" stroke-linecap="round" stroke-miterlimit="10" x1="268.19" y1="190.684" x2="268.265" y2="190.693"/>
				</g>
			</g>
		</g>
		<g>
			
				<path fill="#A1C453" stroke="#333333" stroke-width="1.5923" stroke-linecap="round" stroke-linejoin="round" stroke-miterlimit="10" d="
				M278.229,158.019c1.798,2.219,3.95,2.332,3.457,8.314c-0.493,5.983-4.388,2.96-4.714,6.896c0.326-3.936-4.116-1.823-3.641-7.585
				C273.807,159.881,276.26,160.084,278.229,158.019z"/>
			<g>
				<line fill="none" x1="276.802" y1="173.191" x2="277.774" y2="161.406"/>
				<g>
					<polyline fill="none" stroke="#333333" stroke-width="1.0616" stroke-linecap="round" stroke-miterlimit="10" points="
						276.846,172.662 276.902,171.977 277.545,164.192 277.594,163.597 					"/>
					
						<line fill="none" stroke="#333333" stroke-width="1.0616" stroke-linecap="round" stroke-miterlimit="10" x1="277.73" y1="161.936" x2="277.725" y2="162.01"/>
				</g>
			</g>
		</g>
		<g>
			
				<path fill="#A1C453" stroke="#333333" stroke-width="1.5923" stroke-linecap="round" stroke-linejoin="round" stroke-miterlimit="10" d="
				M243.222,162.633c3.224,0.068,4.887-1.706,9.686,3.077c4.796,4.785-0.647,5.938,2.509,9.086c-3.156-3.147-4.57,2.22-9.188-2.387
				C241.605,167.803,243.567,165.834,243.222,162.633z"/>
			<g>
				<line fill="none" x1="255.415" y1="174.796" x2="245.965" y2="165.373"/>
				<g>
					<polyline fill="none" stroke="#333333" stroke-width="1.0616" stroke-linecap="round" stroke-miterlimit="10" points="
						255.039,174.421 254.552,173.936 247.944,167.347 247.521,166.925 					"/>
					
						<line fill="none" stroke="#333333" stroke-width="1.0616" stroke-linecap="round" stroke-miterlimit="10" x1="246.341" y1="165.748" x2="246.394" y2="165.801"/>
				</g>
			</g>
		</g>
		<g>
			
				<path fill="#A1C453" stroke="#333333" stroke-width="1.5923" stroke-linecap="round" stroke-linejoin="round" stroke-miterlimit="10" d="
				M238.393,175.246c2.327-2.231,2.249-4.663,9.023-4.674c6.774-0.01,3.741,4.657,8.2,4.648c-4.459,0.009-1.662,4.804-8.187,4.813
				C240.904,180.042,240.902,177.266,238.393,175.246z"/>
			<g>
				<line fill="none" x1="255.616" y1="175.221" x2="242.269" y2="175.243"/>
				<g>
					<polyline fill="none" stroke="#333333" stroke-width="1.0616" stroke-linecap="round" stroke-miterlimit="10" points="
						255.086,175.222 254.397,175.223 245.064,175.238 244.467,175.239 					"/>
					
						<line fill="none" stroke="#333333" stroke-width="1.0616" stroke-linecap="round" stroke-miterlimit="10" x1="242.799" y1="175.242" x2="242.874" y2="175.242"/>
				</g>
			</g>
		</g>
		<g>
			
				<path fill="#A1C453" stroke="#333333" stroke-width="1.0616" stroke-linecap="round" stroke-linejoin="round" stroke-miterlimit="10" d="
				M244.873,147.793c1.18-0.545,1.465-1.479,4.044-0.599c2.58,0.883,0.816,2.262,2.515,2.84c-1.697-0.578-1.263,1.61-3.744,0.762
				C245.202,149.947,245.564,148.89,244.873,147.793z"/>
			<g>
				<line fill="none" x1="251.432" y1="150.034" x2="246.35" y2="148.297"/>
				<g>
					<polyline fill="none" stroke="#333333" stroke-width="1.0616" stroke-linecap="round" stroke-miterlimit="10" points="
						250.93,149.862 250.278,149.64 248.995,149.201 248.43,149.008 					"/>
					
						<line fill="none" stroke="#333333" stroke-width="1.0616" stroke-linecap="round" stroke-miterlimit="10" x1="246.852" y1="148.469" x2="246.923" y2="148.492"/>
				</g>
			</g>
		</g>
		<g>
			
				<path fill="#A1C453" stroke="#333333" stroke-width="1.0616" stroke-linecap="round" stroke-linejoin="round" stroke-miterlimit="10" d="
				M262.881,138.764c1.104,1.401,2.447,1.489,2.09,5.22c-0.355,3.731-2.763,1.812-2.999,4.267c0.236-2.455-2.556-1.174-2.212-4.766
				C260.105,139.891,261.636,140.037,262.881,138.764z"/>
			<g>
				<line fill="none" x1="261.972" y1="148.25" x2="262.677" y2="140.899"/>
				<g>
					<polyline fill="none" stroke="#333333" stroke-width="1.0616" stroke-linecap="round" stroke-miterlimit="10" points="
						262.022,147.722 262.088,147.037 262.41,143.682 262.467,143.087 					"/>
					
						<line fill="none" stroke="#333333" stroke-width="1.0616" stroke-linecap="round" stroke-miterlimit="10" x1="262.626" y1="141.428" x2="262.619" y2="141.502"/>
				</g>
			</g>
		</g>
		<g>
			
				<path fill="#A1C453" stroke="#333333" stroke-width="1.5923" stroke-linecap="round" stroke-linejoin="round" stroke-miterlimit="10" d="
				M275.383,149.116c-1.844,1.739-1.798,3.65-7.118,3.617c-5.325-0.034-2.91-3.682-6.415-3.702c3.505,0.021,1.335-3.763,6.46-3.729
				C273.438,145.333,273.423,147.514,275.383,149.116z"/>
			<g>
				<line fill="none" x1="261.678" y1="148.995" x2="272.162" y2="149.061"/>
				<g>
					<polyline fill="none" stroke="#333333" stroke-width="1.0616" stroke-linecap="round" stroke-miterlimit="10" points="
						262.209,148.998 262.896,149.003 269.367,149.043 269.965,149.047 					"/>
					
						<line fill="none" stroke="#333333" stroke-width="1.0616" stroke-linecap="round" stroke-miterlimit="10" x1="271.631" y1="149.058" x2="271.557" y2="149.057"/>
				</g>
			</g>
		</g>
		<path fill="#CC924C" stroke="#333333" stroke-width="2.8307" stroke-linecap="round" stroke-miterlimit="10" d="M295.007,207.665
			l-42.833-64.543c-0.606-0.927-1.853-1.187-2.78-0.581l0,0c-0.928,0.607-1.187,1.851-0.581,2.779l41.946,65.124"/>
		<g>
			<g>
				<path fill="#D3F46C" d="M283.604,173.717c0.7,2.381-1.203,5.843-3.047,5.574c-1.549,1.385-4.879-0.667-5.575-3.049
					c-0.698-2.382-0.221-5.077,3.352-5.08C281.191,169.313,282.908,171.334,283.604,173.717z"/>
				<g>
					<path fill="none" stroke="#333333" stroke-width="1.0616" stroke-linecap="round" stroke-miterlimit="10" d="M283.712,174.236
						c0.021,0.229,0.048,0.456,0.033,0.686c-0.027,1.09-0.403,2.161-1.015,3.06c-0.31,0.444-0.69,0.857-1.177,1.111
						c-0.244,0.115-0.508,0.212-0.781,0.203l-0.204-0.005c-0.06,0.026-0.111,0.075-0.169,0.111
						c-0.104,0.089-0.229,0.147-0.356,0.194c-1.057,0.382-2.188-0.119-3.058-0.718c-0.873-0.639-1.629-1.5-1.969-2.541
						c-0.314-1.031-0.45-2.173-0.091-3.211c0.342-1.061,1.384-1.756,2.461-1.884c0.268-0.055,0.54-0.062,0.813-0.074
						c0.273-0.012,0.479-0.248,0.729-0.341c0.487-0.242,1.028-0.392,1.572-0.377c0.545,0.013,1.076,0.226,1.498,0.567
						c0.11,0.073,0.208,0.188,0.296,0.269c0.047,0.046,0.096,0.09,0.136,0.143c0.081,0.103,0.17,0.199,0.245,0.307"/>
					
						<line fill="none" stroke="#333333" stroke-width="1.0616" stroke-linecap="round" stroke-miterlimit="10" x1="283.438" y1="173.213" x2="283.41" y2="173.144"/>
				</g>
			</g>
			
				<ellipse transform="matrix(0.3217 -0.9468 0.9468 0.3217 22.4888 379.7902)" opacity="0.5" fill="#FFFFFF" enable-background="new    " cx="276.321" cy="174.199" rx="1.029" ry="0.846"/>
		</g>
		<g>
			
				<path fill="#A1C453" stroke="#333333" stroke-width="1.0616" stroke-linecap="round" stroke-linejoin="round" stroke-miterlimit="10" d="
				M248.01,143.256c0,0-0.588-3.07-0.543-3.706c0.035-0.51,2.399,1.853,3.098,2.854L248.01,143.256z"/>
			
				<path fill="#A1C453" stroke="#333333" stroke-width="1.0616" stroke-linecap="round" stroke-linejoin="round" stroke-miterlimit="10" d="
				M249.939,141.692l-0.729,4.754c0,0-3.185-3.569-3.09-5.567C246.119,140.879,248.323,141.602,249.939,141.692z"/>
			
				<path fill="#A1C453" stroke="#333333" stroke-width="1.0616" stroke-linecap="round" stroke-linejoin="round" stroke-miterlimit="10" d="
				M253.581,146.128c0,0-1.013-5.854-4.162-7.407l-0.472,4.582L253.581,146.128z"/>
		</g>
		<g>
			
				<path fill="#FFFFFF" stroke="#333333" stroke-width="1.0616" stroke-linecap="round" stroke-linejoin="round" stroke-miterlimit="10" d="
				M249.892,151.744c-0.216,0.424,0.296,1.22,0.745,1.774c0.804,0.997,2.7,1.578,3.374,0.244c0.678-1.34-0.91-2.527-2.189-2.59
				C251.111,151.139,250.106,151.316,249.892,151.744z"/>
			
				<path fill="#FFFFFF" stroke="#333333" stroke-width="1.0616" stroke-linecap="round" stroke-linejoin="round" stroke-miterlimit="10" d="
				M249.767,151.742c-0.261-0.399-1.206-0.354-1.91-0.243c-1.267,0.198-2.717,1.549-1.898,2.8c0.821,1.256,2.644,0.477,3.337-0.601
				C249.679,153.1,250.027,152.142,249.767,151.742z"/>
			
				<path fill="#FFFFFF" stroke="#333333" stroke-width="1.0616" stroke-linecap="round" stroke-linejoin="round" stroke-miterlimit="10" d="
				M249.824,151.638c0.473-0.024,0.908-0.866,1.162-1.53c0.465-1.199,0.019-3.13-1.474-3.047c-1.499,0.084-1.735,2.053-1.147,3.191
				C248.691,150.885,249.348,151.665,249.824,151.638z"/>
			
				<path fill="#FFFFFF" stroke="#333333" stroke-width="1.0616" stroke-linecap="round" stroke-linejoin="round" stroke-miterlimit="10" d="
				M249.982,151.645c0.262,0.399,1.206,0.354,1.91,0.243c1.268-0.2,2.717-1.55,1.898-2.801c-0.82-1.256-2.646-0.477-3.338,0.602
				C250.07,150.287,249.722,151.244,249.982,151.645z"/>
			
				<path fill="#FFFFFF" stroke="#333333" stroke-width="1.0616" stroke-linecap="round" stroke-linejoin="round" stroke-miterlimit="10" d="
				M249.918,151.748c-0.478,0.028-0.909,0.868-1.165,1.534c-0.461,1.197-0.019,3.128,1.474,3.046c1.5-0.085,1.735-2.053,1.149-3.193
				C251.05,152.503,250.396,151.722,249.918,151.748z"/>
			
				<path fill="#FFFFFF" stroke="#333333" stroke-width="1.0616" stroke-linecap="round" stroke-linejoin="round" stroke-miterlimit="10" d="
				M249.865,151.626c0.215-0.424-0.298-1.22-0.745-1.773c-0.807-1-2.702-1.58-3.375-0.247c-0.68,1.341,0.909,2.53,2.188,2.592
				C248.645,152.23,249.648,152.055,249.865,151.626z"/>
			
				<circle fill="#F9D53E" stroke="#333333" stroke-width="1.0616" stroke-linecap="round" stroke-linejoin="round" stroke-miterlimit="10" cx="249.982" cy="151.645" r="0.988"/>
		</g>
	</g>
</g>
<g id="calque06">
	<g>
		
			<polygon fill="#CC924C" stroke="#333333" stroke-width="1.0616" stroke-linecap="round" stroke-linejoin="round" stroke-miterlimit="10" points="
			276.973,173.229 277.893,182.46 276.255,179.953 		"/>
		
			<polygon fill="#CC924C" stroke="#333333" stroke-width="1.0616" stroke-linecap="round" stroke-linejoin="round" stroke-miterlimit="10" points="
			261.598,148.618 260.757,156.248 259.117,153.741 		"/>
		
			<polygon fill="#CC924C" stroke="#333333" stroke-width="1.0616" stroke-linecap="round" stroke-linejoin="round" stroke-miterlimit="10" points="
			255.247,174.946 271.238,179.616 269.598,177.108 		"/>
		
			<polygon fill="#CC924C" stroke="#333333" stroke-width="1.0616" stroke-linecap="round" stroke-linejoin="round" stroke-miterlimit="10" points="
			244.678,148.496 252.696,151.258 251.639,149.64 		"/>
		<g>
			
				<path fill="#A1C453" stroke="#333333" stroke-width="1.5923" stroke-linecap="round" stroke-linejoin="round" stroke-miterlimit="10" d="
				M264.434,190.155c2.325-1.661,2.564-3.804,8.509-2.952c5.942,0.852,2.69,4.557,6.602,5.117c-3.91-0.561-2.067,4-7.79,3.18
				C266.029,194.681,266.378,192.245,264.434,190.155z"/>
			<g>
				<line fill="none" x1="279.543" y1="192.32" x2="267.665" y2="190.607"/>
				<g>
					<polyline fill="none" stroke="#333333" stroke-width="1.0616" stroke-linecap="round" stroke-miterlimit="10" points="
						279.018,192.244 278.337,192.146 270.432,191.007 269.84,190.921 					"/>
					
						<line fill="none" stroke="#333333" stroke-width="1.0616" stroke-linecap="round" stroke-miterlimit="10" x1="268.19" y1="190.684" x2="268.265" y2="190.693"/>
				</g>
			</g>
		</g>
		<g>
			
				<path fill="#A1C453" stroke="#333333" stroke-width="1.5923" stroke-linecap="round" stroke-linejoin="round" stroke-miterlimit="10" d="
				M278.229,158.019c1.798,2.219,3.95,2.332,3.457,8.314c-0.493,5.983-4.388,2.96-4.714,6.896c0.326-3.936-4.117-1.823-3.641-7.585
				C273.807,159.881,276.26,160.084,278.229,158.019z"/>
			<g>
				<line fill="none" x1="276.802" y1="173.191" x2="277.771" y2="161.405"/>
				<g>
					<polyline fill="none" stroke="#333333" stroke-width="1.0616" stroke-linecap="round" stroke-miterlimit="10" points="
						276.846,172.662 276.901,171.977 277.542,164.191 277.592,163.596 					"/>
					
						<line fill="none" stroke="#333333" stroke-width="1.0616" stroke-linecap="round" stroke-miterlimit="10" x1="277.728" y1="161.935" x2="277.722" y2="162.009"/>
				</g>
			</g>
		</g>
		<g>
			
				<path fill="#A1C453" stroke="#333333" stroke-width="1.5923" stroke-linecap="round" stroke-linejoin="round" stroke-miterlimit="10" d="
				M243.222,162.633c3.224,0.068,4.887-1.706,9.686,3.077c4.796,4.785-0.648,5.938,2.509,9.086c-3.157-3.147-4.57,2.22-9.189-2.386
				C241.605,167.803,243.567,165.834,243.222,162.633z"/>
			<g>
				<line fill="none" x1="255.415" y1="174.796" x2="245.965" y2="165.373"/>
				<g>
					<polyline fill="none" stroke="#333333" stroke-width="1.0616" stroke-linecap="round" stroke-miterlimit="10" points="
						255.039,174.421 254.552,173.936 247.944,167.347 247.521,166.925 					"/>
					
						<line fill="none" stroke="#333333" stroke-width="1.0616" stroke-linecap="round" stroke-miterlimit="10" x1="246.341" y1="165.748" x2="246.394" y2="165.801"/>
				</g>
			</g>
		</g>
		<g>
			
				<path fill="#A1C453" stroke="#333333" stroke-width="1.5923" stroke-linecap="round" stroke-linejoin="round" stroke-miterlimit="10" d="
				M238.392,175.247c2.328-2.232,2.25-4.664,9.023-4.673c6.775-0.012,3.742,4.655,8.201,4.646c-4.459,0.009-1.662,4.804-8.187,4.813
				C240.904,180.042,240.902,177.266,238.392,175.247z"/>
			<g>
				<line fill="none" x1="255.616" y1="175.221" x2="242.269" y2="175.243"/>
				<g>
					<polyline fill="none" stroke="#333333" stroke-width="1.0616" stroke-linecap="round" stroke-miterlimit="10" points="
						255.086,175.222 254.397,175.223 245.064,175.238 244.467,175.239 					"/>
					
						<line fill="none" stroke="#333333" stroke-width="1.0616" stroke-linecap="round" stroke-miterlimit="10" x1="242.799" y1="175.242" x2="242.874" y2="175.242"/>
				</g>
			</g>
		</g>
		<g>
			
				<path fill="#A1C453" stroke="#333333" stroke-width="1.0616" stroke-linecap="round" stroke-linejoin="round" stroke-miterlimit="10" d="
				M238.386,146.786c1.293-0.598,1.606-1.624,4.44-0.657c2.827,0.969,0.894,2.482,2.757,3.118c-1.863-0.636-1.383,1.769-4.108,0.836
				C238.747,149.149,239.145,147.989,238.386,146.786z"/>
			<g>
				<line fill="none" x1="245.583" y1="149.247" x2="240.005" y2="147.34"/>
				<g>
					<polyline fill="none" stroke="#333333" stroke-width="1.0616" stroke-linecap="round" stroke-miterlimit="10" points="
						245.081,149.075 244.43,148.853 242.65,148.244 242.084,148.051 					"/>
					
						<line fill="none" stroke="#333333" stroke-width="1.0616" stroke-linecap="round" stroke-miterlimit="10" x1="240.507" y1="147.512" x2="240.578" y2="147.536"/>
				</g>
			</g>
		</g>
		<g>
			
				<path fill="#A1C453" stroke="#333333" stroke-width="1.5923" stroke-linecap="round" stroke-linejoin="round" stroke-miterlimit="10" d="
				M233.249,154.752c0.88-2.401-0.021-4.107,4.802-6.473c4.827-2.365,4.289,2.015,7.466,0.457c-3.177,1.558,0.487,4.002-4.158,6.28
				C236.709,157.296,235.74,155.317,233.249,154.752z"/>
			<g>
				<line fill="none" x1="245.517" y1="148.736" x2="236.01" y2="153.399"/>
				<g>
					<polyline fill="none" stroke="#333333" stroke-width="1.0616" stroke-linecap="round" stroke-miterlimit="10" points="
						245.04,148.97 244.423,149.273 238.52,152.168 237.982,152.432 					"/>
					
						<line fill="none" stroke="#333333" stroke-width="1.0616" stroke-linecap="round" stroke-miterlimit="10" x1="236.486" y1="153.166" x2="236.554" y2="153.133"/>
				</g>
			</g>
		</g>
		<g>
			
				<path fill="#A1C453" stroke="#333333" stroke-width="1.0616" stroke-linecap="round" stroke-linejoin="round" stroke-miterlimit="10" d="
				M269.569,142.505c-0.217,1.826,0.698,2.869-2.28,5.326c-2.981,2.46-3.335-0.693-5.297,0.925c1.962-1.618-1.01-2.716,1.859-5.085
				C266.725,141.304,267.732,142.524,269.569,142.505z"/>
			<g>
				<line fill="none" x1="261.894" y1="148.735" x2="267.766" y2="143.891"/>
				<g>
					<polyline fill="none" stroke="#333333" stroke-width="1.0616" stroke-linecap="round" stroke-miterlimit="10" points="
						262.303,148.397 262.834,147.96 265.609,145.67 266.07,145.289 					"/>
					
						<line fill="none" stroke="#333333" stroke-width="1.0616" stroke-linecap="round" stroke-miterlimit="10" x1="267.356" y1="144.229" x2="267.299" y2="144.275"/>
				</g>
			</g>
		</g>
		<g>
			
				<path fill="#A1C453" stroke="#333333" stroke-width="1.5923" stroke-linecap="round" stroke-linejoin="round" stroke-miterlimit="10" d="
				M263.238,131.475c1.998,2.532,4.428,2.689,3.778,9.435c-0.646,6.743-4.996,3.271-5.419,7.709
				c0.423-4.438-4.618-2.117-3.998-8.611C258.222,133.512,260.987,133.776,263.238,131.475z"/>
			<g>
				<line fill="none" x1="261.598" y1="148.618" x2="262.87" y2="135.333"/>
				<g>
					<polyline fill="none" stroke="#333333" stroke-width="1.0616" stroke-linecap="round" stroke-miterlimit="10" points="
						261.648,148.09 261.714,147.405 262.604,138.115 262.66,137.521 					"/>
					
						<line fill="none" stroke="#333333" stroke-width="1.0616" stroke-linecap="round" stroke-miterlimit="10" x1="262.819" y1="135.861" x2="262.813" y2="135.936"/>
				</g>
			</g>
		</g>
		<g>
			
				<path fill="#A1C453" stroke="#333333" stroke-width="1.5923" stroke-linecap="round" stroke-linejoin="round" stroke-miterlimit="10" d="
				M275.383,149.116c-1.844,1.739-1.799,3.65-7.118,3.617c-5.325-0.034-2.91-3.682-6.415-3.702c3.505,0.021,1.335-3.763,6.46-3.729
				C273.438,145.333,273.423,147.514,275.383,149.116z"/>
			<g>
				<line fill="none" x1="261.678" y1="148.995" x2="272.162" y2="149.061"/>
				<g>
					<polyline fill="none" stroke="#333333" stroke-width="1.0616" stroke-linecap="round" stroke-miterlimit="10" points="
						262.209,148.998 262.896,149.003 269.367,149.043 269.965,149.047 					"/>
					
						<line fill="none" stroke="#333333" stroke-width="1.0616" stroke-linecap="round" stroke-miterlimit="10" x1="271.631" y1="149.058" x2="271.557" y2="149.057"/>
				</g>
			</g>
		</g>
		<path fill="#CC924C" stroke="#333333" stroke-width="2.8307" stroke-linecap="round" stroke-miterlimit="10" d="M295.007,207.665
			l-48.362-72.999c-0.606-0.929-1.851-1.188-2.776-0.582l0,0c-0.931,0.608-1.189,1.852-0.582,2.779l47.474,73.581"/>
		<g>
			<g>
				<path fill="#D3F46C" d="M251.071,149.323c1.508,1.788,1.189,5.494-0.502,5.968c-0.808,1.781-4.461,1.284-5.97-0.503
					c-1.507-1.787-2.122-4.292,0.956-5.655C247.313,146.447,249.563,147.538,251.071,149.323z"/>
				<g>
					<path fill="none" stroke="#333333" stroke-width="1.0616" stroke-linecap="round" stroke-miterlimit="10" d="M251.376,149.758
						c0.117,0.197,0.221,0.4,0.302,0.616c0.368,0.947,0.452,2.001,0.257,2.997c-0.101,0.495-0.275,0.99-0.599,1.386
						c-0.165,0.19-0.356,0.37-0.595,0.462l-0.175,0.076l-0.098,0.163c-0.057,0.116-0.144,0.209-0.233,0.298
						c-0.761,0.721-1.911,0.723-2.883,0.545c-0.984-0.215-1.96-0.651-2.65-1.405c-0.665-0.755-1.221-1.67-1.331-2.689
						c-0.053-0.505,0.033-1.028,0.276-1.478c0.239-0.451,0.615-0.813,1.028-1.104c1.013-0.345,1.369-1.456,2.343-1.876
						c0.457-0.224,0.989-0.279,1.486-0.173c0.119,0.031,0.257,0.052,0.358,0.098l0.186,0.069c0.124,0.042,0.236,0.113,0.354,0.168"
						/>
					
						<line fill="none" stroke="#333333" stroke-width="1.0616" stroke-linecap="round" stroke-miterlimit="10" x1="250.714" y1="148.932" x2="250.66" y2="148.879"/>
				</g>
			</g>
			
				<ellipse transform="matrix(-0.0883 -0.9961 0.9961 -0.0883 114.6931 409.9877)" opacity="0.5" fill="#FFFFFF" enable-background="new    " cx="244.975" cy="152.505" rx="0.968" ry="0.798"/>
		</g>
		<g>
			<g>
				<path fill="#D3F46C" d="M285.797,174.749c1.049,3.572-1.804,8.764-4.571,8.362c-2.322,2.076-7.316-1-8.363-4.572
					c-1.047-3.573-0.329-7.617,5.027-7.619C282.177,168.143,284.752,171.176,285.797,174.749z"/>
				<g>
					<path fill="none" stroke="#333333" stroke-width="1.5924" stroke-linecap="round" stroke-miterlimit="10" d="M285.957,175.528
						c0.034,0.342,0.071,0.685,0.051,1.028c-0.042,1.635-0.605,3.241-1.521,4.59c-0.464,0.666-1.036,1.285-1.765,1.667
						c-0.367,0.173-0.762,0.317-1.173,0.305l-0.306-0.007c-0.092,0.038-0.17,0.112-0.255,0.167c-0.157,0.132-0.342,0.221-0.534,0.29
						c-0.766,0.305-1.625,0.237-2.402,0.01c-0.783-0.23-1.515-0.617-2.184-1.085c-1.311-0.957-2.443-2.249-2.955-3.811
						c-0.473-1.548-0.675-3.259-0.136-4.817c0.271-0.77,0.769-1.462,1.432-1.942c0.655-0.495,1.46-0.751,2.261-0.882
						c0.402-0.082,0.811-0.093,1.219-0.111c0.217,0.031,0.377-0.126,0.559-0.217c0.179-0.097,0.347-0.217,0.536-0.295
						c0.729-0.363,1.54-0.587,2.356-0.566c0.817,0.02,1.614,0.338,2.248,0.851c0.166,0.11,0.313,0.281,0.444,0.402
						c0.068,0.069,0.143,0.135,0.202,0.214c0.121,0.154,0.255,0.3,0.368,0.46"/>
					
						<line fill="none" stroke="#333333" stroke-width="1.5924" stroke-linecap="round" stroke-miterlimit="10" x1="285.547" y1="173.993" x2="285.506" y2="173.889"/>
				</g>
			</g>
			
				<ellipse transform="matrix(0.3219 -0.9468 0.9468 0.3219 20.2486 379.2175)" opacity="0.5" fill="#FFFFFF" enable-background="new    " cx="274.866" cy="175.473" rx="1.541" ry="1.268"/>
		</g>
		<g>
			
				<path fill="#A1C453" stroke="#333333" stroke-width="1.0616" stroke-linecap="round" stroke-linejoin="round" stroke-miterlimit="10" d="
				M242.48,134.798c0,0-0.589-3.069-0.542-3.704c0.031-0.51,2.399,1.852,3.098,2.853L242.48,134.798z"/>
			
				<path fill="#A1C453" stroke="#333333" stroke-width="1.0616" stroke-linecap="round" stroke-linejoin="round" stroke-miterlimit="10" d="
				M244.408,133.236l-0.729,4.754c0,0-3.186-3.57-3.09-5.569C240.59,132.421,242.794,133.145,244.408,133.236z"/>
			
				<path fill="#A1C453" stroke="#333333" stroke-width="1.0616" stroke-linecap="round" stroke-linejoin="round" stroke-miterlimit="10" d="
				M248.052,137.672c0,0-1.014-5.854-4.163-7.407l-0.471,4.58L248.052,137.672z"/>
		</g>
	</g>
</g>
<g id="calque07">
	<g>
		
			<polygon fill="#CC924C" stroke="#333333" stroke-width="1.0616" stroke-linecap="round" stroke-linejoin="round" stroke-miterlimit="10" points="
			276.973,173.229 277.893,182.46 276.255,179.953 		"/>
		
			<polygon fill="#CC924C" stroke="#333333" stroke-width="1.0616" stroke-linecap="round" stroke-linejoin="round" stroke-miterlimit="10" points="
			261.598,148.618 260.757,156.248 259.117,153.741 		"/>
		
			<polygon fill="#CC924C" stroke="#333333" stroke-width="1.0616" stroke-linecap="round" stroke-linejoin="round" stroke-miterlimit="10" points="
			255.247,174.946 271.238,179.616 269.598,177.108 		"/>
		
			<polygon fill="#CC924C" stroke="#333333" stroke-width="1.0616" stroke-linecap="round" stroke-linejoin="round" stroke-miterlimit="10" points="
			244.678,148.496 252.696,151.258 251.639,149.64 		"/>
		<g>
			
				<path fill="#A1C453" stroke="#333333" stroke-width="1.5923" stroke-linecap="round" stroke-linejoin="round" stroke-miterlimit="10" d="
				M264.434,190.155c2.325-1.661,2.566-3.805,8.51-2.953c5.941,0.853,2.689,4.558,6.601,5.118c-3.91-0.561-2.067,4-7.79,3.18
				C266.029,194.681,266.378,192.245,264.434,190.155z"/>
			<g>
				<line fill="none" x1="279.543" y1="192.32" x2="267.665" y2="190.607"/>
				<g>
					<polyline fill="none" stroke="#333333" stroke-width="1.0616" stroke-linecap="round" stroke-miterlimit="10" points="
						279.018,192.244 278.337,192.146 270.432,191.007 269.84,190.921 					"/>
					
						<line fill="none" stroke="#333333" stroke-width="1.0616" stroke-linecap="round" stroke-miterlimit="10" x1="268.19" y1="190.684" x2="268.265" y2="190.693"/>
				</g>
			</g>
		</g>
		<g>
			
				<path fill="#A1C453" stroke="#333333" stroke-width="1.5923" stroke-linecap="round" stroke-linejoin="round" stroke-miterlimit="10" d="
				M278.229,158.019c1.798,2.219,3.95,2.332,3.457,8.314c-0.493,5.983-4.388,2.96-4.714,6.896c0.326-3.936-4.116-1.823-3.641-7.585
				C273.807,159.881,276.26,160.084,278.229,158.019z"/>
			<g>
				<line fill="none" x1="276.802" y1="173.191" x2="277.771" y2="161.405"/>
				<g>
					<polyline fill="none" stroke="#333333" stroke-width="1.0616" stroke-linecap="round" stroke-miterlimit="10" points="
						276.846,172.662 276.901,171.977 277.542,164.191 277.592,163.596 					"/>
					
						<line fill="none" stroke="#333333" stroke-width="1.0616" stroke-linecap="round" stroke-miterlimit="10" x1="277.728" y1="161.935" x2="277.722" y2="162.009"/>
				</g>
			</g>
		</g>
		<g>
			
				<path fill="#A1C453" stroke="#333333" stroke-width="1.5923" stroke-linecap="round" stroke-linejoin="round" stroke-miterlimit="10" d="
				M243.222,162.633c3.224,0.068,4.887-1.706,9.686,3.077c4.796,4.785-0.647,5.938,2.509,9.086c-3.156-3.147-4.57,2.22-9.188-2.387
				C241.605,167.803,243.567,165.834,243.222,162.633z"/>
			<g>
				<line fill="none" x1="255.415" y1="174.796" x2="245.965" y2="165.373"/>
				<g>
					<polyline fill="none" stroke="#333333" stroke-width="1.0616" stroke-linecap="round" stroke-miterlimit="10" points="
						255.039,174.421 254.552,173.936 247.944,167.347 247.521,166.925 					"/>
					
						<line fill="none" stroke="#333333" stroke-width="1.0616" stroke-linecap="round" stroke-miterlimit="10" x1="246.341" y1="165.748" x2="246.394" y2="165.801"/>
				</g>
			</g>
		</g>
		<g>
			
				<path fill="#A1C453" stroke="#333333" stroke-width="1.5923" stroke-linecap="round" stroke-linejoin="round" stroke-miterlimit="10" d="
				M238.393,175.246c2.327-2.231,2.249-4.663,9.023-4.674c6.774-0.01,3.741,4.657,8.2,4.648c-4.459,0.009-1.662,4.804-8.187,4.813
				C240.904,180.042,240.902,177.266,238.393,175.246z"/>
			<g>
				<line fill="none" x1="255.616" y1="175.221" x2="242.269" y2="175.243"/>
				<g>
					<polyline fill="none" stroke="#333333" stroke-width="1.0616" stroke-linecap="round" stroke-miterlimit="10" points="
						255.086,175.222 254.397,175.223 245.064,175.238 244.467,175.239 					"/>
					
						<line fill="none" stroke="#333333" stroke-width="1.0616" stroke-linecap="round" stroke-miterlimit="10" x1="242.799" y1="175.242" x2="242.874" y2="175.242"/>
				</g>
			</g>
		</g>
		<g>
			
				<path fill="#A1C453" stroke="#333333" stroke-width="1.5923" stroke-linecap="round" stroke-linejoin="round" stroke-miterlimit="10" d="
				M232.296,144.082c2.322-1.075,2.89-2.919,7.977-1.181c5.081,1.74,1.605,4.457,4.952,5.602c-3.347-1.145-2.483,3.175-7.382,1.499
				C232.945,148.329,233.658,146.242,232.296,144.082z"/>
			<g>
				<line fill="none" x1="245.225" y1="148.503" x2="235.209" y2="145.076"/>
				<g>
					<polyline fill="none" stroke="#333333" stroke-width="1.0616" stroke-linecap="round" stroke-miterlimit="10" points="
						244.723,148.331 244.071,148.108 237.854,145.981 237.288,145.787 					"/>
					
						<line fill="none" stroke="#333333" stroke-width="1.0616" stroke-linecap="round" stroke-miterlimit="10" x1="235.711" y1="145.248" x2="235.782" y2="145.272"/>
				</g>
			</g>
		</g>
		<g>
			
				<path fill="#A1C453" stroke="#333333" stroke-width="1.5923" stroke-linecap="round" stroke-linejoin="round" stroke-miterlimit="10" d="
				M233.249,154.752c0.88-2.401-0.021-4.107,4.802-6.473c4.827-2.365,4.289,2.015,7.466,0.457c-3.177,1.558,0.487,4.002-4.158,6.28
				C236.709,157.296,235.74,155.317,233.249,154.752z"/>
			<g>
				<line fill="none" x1="245.517" y1="148.736" x2="236.01" y2="153.399"/>
				<g>
					<polyline fill="none" stroke="#333333" stroke-width="1.0616" stroke-linecap="round" stroke-miterlimit="10" points="
						245.04,148.97 244.423,149.273 238.52,152.168 237.982,152.432 					"/>
					
						<line fill="none" stroke="#333333" stroke-width="1.0616" stroke-linecap="round" stroke-miterlimit="10" x1="236.486" y1="153.166" x2="236.554" y2="153.133"/>
				</g>
			</g>
		</g>
		<g>
			
				<path fill="#A1C453" stroke="#333333" stroke-width="1.5923" stroke-linecap="round" stroke-linejoin="round" stroke-miterlimit="10" d="
				M275.326,137.501c-0.382,3.203,1.226,5.03-3.999,9.342c-5.228,4.312-5.847-1.219-9.286,1.619
				c3.439-2.838-1.771-4.764,3.266-8.917C270.338,135.392,272.107,137.535,275.326,137.501z"/>
			<g>
				<line fill="none" x1="261.869" y1="148.427" x2="272.164" y2="139.931"/>
				<g>
					<polyline fill="none" stroke="#333333" stroke-width="1.0616" stroke-linecap="round" stroke-miterlimit="10" points="
						262.278,148.089 262.809,147.651 270.008,141.71 270.469,141.33 					"/>
					
						<line fill="none" stroke="#333333" stroke-width="1.0616" stroke-linecap="round" stroke-miterlimit="10" x1="271.755" y1="140.269" x2="271.697" y2="140.316"/>
				</g>
			</g>
		</g>
		<g>
			
				<path fill="#A1C453" stroke="#333333" stroke-width="1.5923" stroke-linecap="round" stroke-linejoin="round" stroke-miterlimit="10" d="
				M263.238,131.475c1.998,2.532,4.428,2.689,3.778,9.435c-0.646,6.741-4.996,3.271-5.419,7.709
				c0.423-4.438-4.618-2.117-3.998-8.611C258.222,133.512,260.987,133.776,263.238,131.475z"/>
			<g>
				<line fill="none" x1="261.598" y1="148.618" x2="262.87" y2="135.333"/>
				<g>
					<polyline fill="none" stroke="#333333" stroke-width="1.0616" stroke-linecap="round" stroke-miterlimit="10" points="
						261.648,148.09 261.714,147.405 262.604,138.115 262.66,137.521 					"/>
					
						<line fill="none" stroke="#333333" stroke-width="1.0616" stroke-linecap="round" stroke-miterlimit="10" x1="262.819" y1="135.861" x2="262.813" y2="135.936"/>
				</g>
			</g>
		</g>
		<g>
			
				<path fill="#A1C453" stroke="#333333" stroke-width="1.5923" stroke-linecap="round" stroke-linejoin="round" stroke-miterlimit="10" d="
				M275.383,149.116c-1.844,1.739-1.799,3.65-7.118,3.617c-5.325-0.034-2.91-3.682-6.415-3.702c3.505,0.021,1.335-3.763,6.46-3.729
				C273.438,145.333,273.423,147.514,275.383,149.116z"/>
			<g>
				<line fill="none" x1="261.678" y1="148.995" x2="272.162" y2="149.061"/>
				<g>
					<polyline fill="none" stroke="#333333" stroke-width="1.0616" stroke-linecap="round" stroke-miterlimit="10" points="
						262.209,148.998 262.896,149.003 269.367,149.043 269.965,149.047 					"/>
					
						<line fill="none" stroke="#333333" stroke-width="1.0616" stroke-linecap="round" stroke-miterlimit="10" x1="271.631" y1="149.058" x2="271.557" y2="149.057"/>
				</g>
			</g>
		</g>
		<path fill="#CC924C" stroke="#333333" stroke-width="2.8307" stroke-linecap="round" stroke-miterlimit="10" d="M295.007,207.665
			l-48.362-72.999c-0.606-0.929-1.851-1.188-2.776-0.582l0,0c-0.931,0.608-1.189,1.852-0.582,2.779l47.474,73.581"/>
		<g>
			<g>
				<path fill="#D3F46C" d="M254.257,149.94c2.401,2.846,1.892,8.748-0.802,9.501c-1.283,2.835-7.097,2.044-9.497-0.803
					c-2.402-2.845-3.381-6.832,1.518-9C248.275,145.364,251.854,147.099,254.257,149.94z"/>
				<g>
					<path fill="none" stroke="#333333" stroke-width="1.5924" stroke-linecap="round" stroke-miterlimit="10" d="M254.718,150.589
						c0.169,0.3,0.343,0.597,0.462,0.921c0.622,1.512,0.756,3.209,0.465,4.812c-0.153,0.798-0.429,1.596-0.938,2.239
						c-0.266,0.308-0.567,0.6-0.947,0.755l-0.283,0.118c-0.068,0.067-0.108,0.17-0.166,0.253c-0.091,0.185-0.222,0.341-0.371,0.482
						c-0.576,0.587-1.391,0.874-2.192,0.98c-0.811,0.106-1.636,0.048-2.437-0.109c-1.585-0.345-3.144-1.067-4.243-2.29
						c-1.058-1.224-1.935-2.707-2.071-4.35c-0.064-0.814,0.109-1.648,0.521-2.356c0.4-0.718,1.032-1.276,1.712-1.721
						c0.334-0.237,0.703-0.412,1.069-0.595c0.21-0.059,0.294-0.267,0.422-0.423c0.125-0.161,0.23-0.338,0.371-0.486
						c0.521-0.628,1.172-1.161,1.928-1.472c0.755-0.313,1.612-0.345,2.399-0.132c0.196,0.033,0.398,0.13,0.568,0.188
						c0.093,0.035,0.187,0.065,0.271,0.114c0.174,0.091,0.354,0.171,0.522,0.271"/>
					
						<line fill="none" stroke="#333333" stroke-width="1.5924" stroke-linecap="round" stroke-miterlimit="10" x1="253.722" y1="149.351" x2="253.643" y2="149.272"/>
				</g>
			</g>
			
				<ellipse transform="matrix(-0.0884 -0.9961 0.9961 -0.0884 111.7488 412.3231)" opacity="0.5" fill="#FFFFFF" enable-background="new    " cx="244.549" cy="155.027" rx="1.541" ry="1.269"/>
		</g>
		<g>
			<g>
				<path fill="#EF4529" d="M285.798,174.749c1.048,3.572-1.805,8.764-4.572,8.362c-2.322,2.076-7.316-1-8.363-4.572
					c-1.047-3.573-0.329-7.617,5.027-7.619C282.177,168.143,284.752,171.176,285.798,174.749z"/>
				<g>
					<path fill="none" stroke="#333333" stroke-width="1.5924" stroke-linecap="round" stroke-miterlimit="10" d="M285.958,175.528
						c0.034,0.343,0.071,0.685,0.05,1.028c-0.042,1.636-0.604,3.241-1.521,4.59c-0.464,0.666-1.036,1.285-1.765,1.667
						c-0.367,0.173-0.762,0.317-1.173,0.305l-0.306-0.007c-0.092,0.038-0.17,0.112-0.255,0.167c-0.157,0.132-0.342,0.221-0.534,0.29
						c-0.766,0.305-1.625,0.237-2.402,0.01c-0.784-0.23-1.516-0.617-2.184-1.085c-1.311-0.957-2.443-2.249-2.955-3.812
						c-0.473-1.547-0.675-3.258-0.136-4.816c0.271-0.771,0.769-1.463,1.432-1.943c0.657-0.494,1.461-0.75,2.262-0.881
						c0.401-0.082,0.811-0.093,1.219-0.111c0.216,0.031,0.376-0.127,0.558-0.217c0.18-0.097,0.348-0.217,0.536-0.295
						c0.729-0.363,1.54-0.588,2.356-0.566c0.818,0.02,1.614,0.338,2.248,0.852c0.167,0.109,0.313,0.281,0.444,0.401
						c0.069,0.069,0.144,0.136,0.202,0.214c0.122,0.154,0.256,0.3,0.368,0.46"/>
					
						<line fill="none" stroke="#333333" stroke-width="1.5924" stroke-linecap="round" stroke-miterlimit="10" x1="285.548" y1="173.993" x2="285.507" y2="173.889"/>
				</g>
			</g>
			
				<ellipse transform="matrix(0.3219 -0.9468 0.9468 0.3219 20.2486 379.2175)" opacity="0.5" fill="#FFFFFF" enable-background="new    " cx="274.866" cy="175.473" rx="1.541" ry="1.268"/>
		</g>
		<g>
			
				<path fill="#A1C453" stroke="#333333" stroke-width="1.0616" stroke-linecap="round" stroke-linejoin="round" stroke-miterlimit="10" d="
				M242.48,134.798c0,0-0.589-3.069-0.542-3.704c0.034-0.51,2.399,1.852,3.098,2.853L242.48,134.798z"/>
			
				<path fill="#A1C453" stroke="#333333" stroke-width="1.0616" stroke-linecap="round" stroke-linejoin="round" stroke-miterlimit="10" d="
				M244.408,133.236l-0.729,4.754c0,0-3.184-3.571-3.09-5.569C240.59,132.421,242.794,133.145,244.408,133.236z"/>
			
				<path fill="#A1C453" stroke="#333333" stroke-width="1.0616" stroke-linecap="round" stroke-linejoin="round" stroke-miterlimit="10" d="
				M248.052,137.672c0,0-1.014-5.854-4.163-7.407l-0.471,4.58L248.052,137.672z"/>
		</g>
	</g>
</g>
<g id="calque08">
	<g>
		
			<polygon fill="#CC924C" stroke="#333333" stroke-width="1.0616" stroke-linecap="round" stroke-linejoin="round" stroke-miterlimit="10" points="
			276.975,173.228 277.896,182.46 276.255,179.951 		"/>
		
			<polygon fill="#CC924C" stroke="#333333" stroke-width="1.0616" stroke-linecap="round" stroke-linejoin="round" stroke-miterlimit="10" points="
			261.599,148.618 260.759,156.247 259.119,153.741 		"/>
		
			<polygon fill="#CC924C" stroke="#333333" stroke-width="1.0616" stroke-linecap="round" stroke-linejoin="round" stroke-miterlimit="10" points="
			255.249,174.944 271.24,179.615 269.601,177.108 		"/>
		
			<polygon fill="#CC924C" stroke="#333333" stroke-width="1.0616" stroke-linecap="round" stroke-linejoin="round" stroke-miterlimit="10" points="
			244.682,148.494 252.698,151.257 251.64,149.638 		"/>
		<g>
			
				<path fill="#A1C453" stroke="#333333" stroke-width="1.5923" stroke-linecap="round" stroke-linejoin="round" stroke-miterlimit="10" d="
				M264.438,190.154c2.323-1.661,2.563-3.804,8.507-2.953c5.942,0.853,2.691,4.559,6.602,5.118c-3.909-0.56-2.067,4-7.79,3.18
				C266.031,194.68,266.381,192.242,264.438,190.154z"/>
			<g>
				<line fill="none" x1="279.545" y1="192.319" x2="267.666" y2="190.604"/>
				<g>
					<polyline fill="none" stroke="#333333" stroke-width="1.0616" stroke-linecap="round" stroke-miterlimit="10" points="
						279.02,192.243 278.339,192.146 270.433,191.004 269.841,190.918 					"/>
					
						<line fill="none" stroke="#333333" stroke-width="1.0616" stroke-linecap="round" stroke-miterlimit="10" x1="268.191" y1="190.681" x2="268.266" y2="190.691"/>
				</g>
			</g>
		</g>
		<g>
			
				<path fill="#A1C453" stroke="#333333" stroke-width="1.5923" stroke-linecap="round" stroke-linejoin="round" stroke-miterlimit="10" d="
				M278.231,158.017c1.798,2.221,3.95,2.334,3.456,8.313c-0.494,5.985-4.389,2.96-4.713,6.897c0.324-3.938-4.118-1.822-3.64-7.585
				C273.809,159.881,276.262,160.084,278.231,158.017z"/>
			<g>
				<line fill="none" x1="276.805" y1="173.19" x2="277.775" y2="161.405"/>
				<g>
					<polyline fill="none" stroke="#333333" stroke-width="1.0616" stroke-linecap="round" stroke-miterlimit="10" points="
						276.849,172.661 276.904,171.977 277.546,164.191 277.595,163.596 					"/>
					
						<line fill="none" stroke="#333333" stroke-width="1.0616" stroke-linecap="round" stroke-miterlimit="10" x1="277.731" y1="161.935" x2="277.726" y2="162.009"/>
				</g>
			</g>
		</g>
		<g>
			
				<path fill="#A1C453" stroke="#333333" stroke-width="1.5923" stroke-linecap="round" stroke-linejoin="round" stroke-miterlimit="10" d="
				M243.224,162.631c3.222,0.069,4.887-1.705,9.685,3.079c4.798,4.783-0.646,5.938,2.512,9.085c-3.158-3.147-4.571,2.22-9.19-2.386
				C241.606,167.801,243.568,165.835,243.224,162.631z"/>
			<g>
				<line fill="none" x1="255.419" y1="174.795" x2="245.966" y2="165.37"/>
				<g>
					<polyline fill="none" stroke="#333333" stroke-width="1.0616" stroke-linecap="round" stroke-miterlimit="10" points="
						255.043,174.42 254.556,173.935 247.945,167.344 247.522,166.922 					"/>
					
						<line fill="none" stroke="#333333" stroke-width="1.0616" stroke-linecap="round" stroke-miterlimit="10" x1="246.342" y1="165.745" x2="246.395" y2="165.798"/>
				</g>
			</g>
		</g>
		<g>
			
				<path fill="#A1C453" stroke="#333333" stroke-width="1.5923" stroke-linecap="round" stroke-linejoin="round" stroke-miterlimit="10" d="
				M238.393,175.245c2.33-2.232,2.251-4.662,9.027-4.673c6.771-0.01,3.74,4.655,8.197,4.648c-4.457,0.007-1.661,4.803-8.187,4.812
				C240.906,180.041,240.904,177.265,238.393,175.245z"/>
			<g>
				<line fill="none" x1="255.617" y1="175.221" x2="242.271" y2="175.24"/>
				<g>
					<polyline fill="none" stroke="#333333" stroke-width="1.0616" stroke-linecap="round" stroke-miterlimit="10" points="
						255.086,175.222 254.398,175.223 245.066,175.236 244.469,175.237 					"/>
					
						<line fill="none" stroke="#333333" stroke-width="1.0616" stroke-linecap="round" stroke-miterlimit="10" x1="242.803" y1="175.239" x2="242.877" y2="175.239"/>
				</g>
			</g>
		</g>
		<g>
			
				<path fill="#A1C453" stroke="#333333" stroke-width="1.5923" stroke-linecap="round" stroke-linejoin="round" stroke-miterlimit="10" d="
				M232.298,144.081c2.324-1.074,2.892-2.919,7.977-1.181c5.084,1.74,1.606,4.458,4.952,5.602c-3.346-1.144-2.48,3.175-7.382,1.499
				C232.948,148.327,233.66,146.242,232.298,144.081z"/>
			<g>
				<line fill="none" x1="245.227" y1="148.502" x2="235.209" y2="145.076"/>
				<g>
					<polyline fill="none" stroke="#333333" stroke-width="1.0616" stroke-linecap="round" stroke-miterlimit="10" points="
						244.725,148.33 244.073,148.107 237.854,145.98 237.289,145.787 					"/>
					
						<line fill="none" stroke="#333333" stroke-width="1.0616" stroke-linecap="round" stroke-miterlimit="10" x1="235.711" y1="145.248" x2="235.782" y2="145.272"/>
				</g>
			</g>
		</g>
		<g>
			
				<path fill="#A1C453" stroke="#333333" stroke-width="1.5923" stroke-linecap="round" stroke-linejoin="round" stroke-miterlimit="10" d="
				M233.252,154.751c0.881-2.402-0.022-4.106,4.804-6.472c4.823-2.368,4.287,2.014,7.463,0.456c-3.176,1.558,0.487,4.002-4.159,6.28
				C236.712,157.294,235.742,155.316,233.252,154.751z"/>
			<g>
				<line fill="none" x1="245.519" y1="148.735" x2="236.013" y2="153.397"/>
				<g>
					<polyline fill="none" stroke="#333333" stroke-width="1.0616" stroke-linecap="round" stroke-miterlimit="10" points="
						245.042,148.969 244.425,149.271 238.522,152.166 237.986,152.43 					"/>
					
						<line fill="none" stroke="#333333" stroke-width="1.0616" stroke-linecap="round" stroke-miterlimit="10" x1="236.489" y1="153.164" x2="236.557" y2="153.131"/>
				</g>
			</g>
		</g>
		<g>
			
				<path fill="#A1C453" stroke="#333333" stroke-width="1.5923" stroke-linecap="round" stroke-linejoin="round" stroke-miterlimit="10" d="
				M275.326,137.501c-0.379,3.2,1.228,5.029-3.998,9.342c-5.227,4.312-5.848-1.22-9.284,1.618c3.438-2.838-1.77-4.765,3.263-8.916
				C270.342,135.392,272.107,137.533,275.326,137.501z"/>
			<g>
				<line fill="none" x1="261.871" y1="148.425" x2="272.168" y2="139.93"/>
				<g>
					<polyline fill="none" stroke="#333333" stroke-width="1.0616" stroke-linecap="round" stroke-miterlimit="10" points="
						262.28,148.087 262.811,147.649 270.012,141.709 270.473,141.328 					"/>
					
						<line fill="none" stroke="#333333" stroke-width="1.0616" stroke-linecap="round" stroke-miterlimit="10" x1="271.759" y1="140.268" x2="271.701" y2="140.314"/>
				</g>
			</g>
		</g>
		<g>
			
				<path fill="#A1C453" stroke="#333333" stroke-width="1.5923" stroke-linecap="round" stroke-linejoin="round" stroke-miterlimit="10" d="
				M263.242,131.475c1.995,2.532,4.424,2.688,3.777,9.434c-0.648,6.743-4.997,3.272-5.422,7.71c0.425-4.438-4.618-2.119-3.994-8.613
				C258.224,133.511,260.99,133.774,263.242,131.475z"/>
			<g>
				<line fill="none" x1="261.599" y1="148.618" x2="262.871" y2="135.333"/>
				<g>
					<polyline fill="none" stroke="#333333" stroke-width="1.0616" stroke-linecap="round" stroke-miterlimit="10" points="
						261.649,148.09 261.715,147.405 262.604,138.115 262.661,137.521 					"/>
					
						<line fill="none" stroke="#333333" stroke-width="1.0616" stroke-linecap="round" stroke-miterlimit="10" x1="262.82" y1="135.861" x2="262.813" y2="135.936"/>
				</g>
			</g>
		</g>
		<g>
			
				<path fill="#A1C453" stroke="#333333" stroke-width="1.5923" stroke-linecap="round" stroke-linejoin="round" stroke-miterlimit="10" d="
				M275.383,149.114c-1.842,1.74-1.795,3.65-7.117,3.617c-5.322-0.034-2.911-3.68-6.414-3.702c3.503,0.022,1.335-3.764,6.461-3.73
				C273.438,145.332,273.425,147.513,275.383,149.114z"/>
			<g>
				<line fill="none" x1="261.681" y1="148.994" x2="272.164" y2="149.06"/>
				<g>
					<polyline fill="none" stroke="#333333" stroke-width="1.0616" stroke-linecap="round" stroke-miterlimit="10" points="
						262.211,148.997 262.899,149.002 269.369,149.042 269.967,149.046 					"/>
					
						<line fill="none" stroke="#333333" stroke-width="1.0616" stroke-linecap="round" stroke-miterlimit="10" x1="271.633" y1="149.057" x2="271.559" y2="149.056"/>
				</g>
			</g>
		</g>
		<path fill="#CC924C" stroke="#333333" stroke-width="2.8307" stroke-linecap="round" stroke-miterlimit="10" d="M295.009,207.664
			l-48.361-72.998c-0.605-0.93-1.852-1.188-2.779-0.582l0,0c-0.928,0.606-1.188,1.851-0.58,2.778l47.474,73.58"/>
		<g>
			<g>
				<path fill="#EF4529" d="M254.26,149.94c2.401,2.846,1.89,8.746-0.802,9.499c-1.282,2.836-7.099,2.044-9.499-0.801
					c-2.401-2.846-3.381-6.832,1.518-9.001C248.275,145.361,251.858,147.097,254.26,149.94z"/>
				<g>
					<path fill="none" stroke="#333333" stroke-width="1.5924" stroke-linecap="round" stroke-miterlimit="10" d="M254.721,150.589
						c0.17,0.3,0.343,0.597,0.462,0.921c0.622,1.513,0.756,3.209,0.464,4.813c-0.154,0.797-0.43,1.596-0.939,2.238
						c-0.267,0.307-0.568,0.6-0.948,0.754l-0.283,0.118c-0.066,0.07-0.107,0.171-0.164,0.255c-0.092,0.186-0.224,0.34-0.372,0.482
						c-0.577,0.586-1.392,0.873-2.193,0.979c-0.812,0.105-1.637,0.048-2.437-0.109c-1.586-0.346-3.145-1.069-4.244-2.291
						c-1.057-1.225-1.934-2.708-2.069-4.352c-0.063-0.813,0.11-1.648,0.522-2.355c0.401-0.718,1.033-1.276,1.713-1.72
						c0.334-0.238,0.703-0.412,1.069-0.595c0.211-0.059,0.292-0.27,0.421-0.424c0.125-0.162,0.23-0.34,0.371-0.487
						c0.521-0.628,1.173-1.16,1.928-1.471c0.756-0.313,1.613-0.344,2.4-0.131c0.197,0.033,0.398,0.132,0.568,0.188
						c0.093,0.034,0.187,0.065,0.271,0.114c0.174,0.091,0.354,0.171,0.523,0.271"/>
					
						<line fill="none" stroke="#333333" stroke-width="1.5924" stroke-linecap="round" stroke-miterlimit="10" x1="253.725" y1="149.351" x2="253.646" y2="149.271"/>
				</g>
			</g>
			
				<ellipse transform="matrix(-0.0887 -0.9961 0.9961 -0.0887 111.8465 412.3526)" opacity="0.5" fill="#FFFFFF" enable-background="new    " cx="244.562" cy="155.01" rx="1.542" ry="1.268"/>
		</g>
		<g>
			<g>
				<path fill="#EF4529" d="M285.801,174.747c1.046,3.573-1.808,8.766-4.575,8.364c-2.317,2.074-7.314-1.001-8.362-4.573
					c-1.048-3.572-0.328-7.616,5.026-7.619C282.18,168.143,284.753,171.176,285.801,174.747z"/>
				<g>
					<path fill="none" stroke="#333333" stroke-width="1.5924" stroke-linecap="round" stroke-miterlimit="10" d="M285.961,175.526
						c0.033,0.343,0.071,0.685,0.049,1.029c-0.042,1.635-0.605,3.24-1.521,4.589c-0.464,0.667-1.036,1.286-1.765,1.668
						c-0.367,0.173-0.762,0.317-1.172,0.306l-0.307-0.007c-0.092,0.035-0.169,0.111-0.254,0.166
						c-0.158,0.132-0.342,0.221-0.535,0.29c-0.765,0.305-1.625,0.237-2.401,0.01c-0.784-0.231-1.516-0.618-2.185-1.085
						c-1.311-0.957-2.443-2.248-2.955-3.811c-0.474-1.547-0.675-3.258-0.137-4.816c0.271-0.771,0.77-1.463,1.432-1.943
						c0.656-0.495,1.46-0.75,2.261-0.882c0.401-0.082,0.812-0.093,1.219-0.111c0.218,0.031,0.377-0.127,0.559-0.217
						c0.18-0.097,0.348-0.217,0.536-0.295c0.729-0.363,1.541-0.587,2.356-0.565c0.818,0.019,1.614,0.337,2.249,0.85
						c0.166,0.11,0.313,0.281,0.443,0.402c0.069,0.069,0.144,0.135,0.203,0.214c0.122,0.153,0.255,0.3,0.368,0.46"/>
					
						<line fill="none" stroke="#333333" stroke-width="1.5924" stroke-linecap="round" stroke-miterlimit="10" x1="285.55" y1="173.991" x2="285.51" y2="173.888"/>
				</g>
			</g>
			
				<ellipse transform="matrix(0.3226 -0.9465 0.9465 0.3226 20.1036 379.0164)" opacity="0.5" fill="#FFFFFF" enable-background="new    " cx="274.85" cy="175.463" rx="1.541" ry="1.268"/>
		</g>
		<g>
			
				<path fill="#A1C453" stroke="#333333" stroke-width="1.0616" stroke-linecap="round" stroke-linejoin="round" stroke-miterlimit="10" d="
				M242.483,134.797c0,0-0.589-3.069-0.542-3.703c0.031-0.51,2.398,1.852,3.095,2.853L242.483,134.797z"/>
			
				<path fill="#A1C453" stroke="#333333" stroke-width="1.0616" stroke-linecap="round" stroke-linejoin="round" stroke-miterlimit="10" d="
				M244.41,133.236l-0.729,4.752c0,0-3.187-3.569-3.09-5.569C240.593,132.419,242.797,133.144,244.41,133.236z"/>
			
				<path fill="#A1C453" stroke="#333333" stroke-width="1.0616" stroke-linecap="round" stroke-linejoin="round" stroke-miterlimit="10" d="
				M248.055,137.671c0,0-1.015-5.854-4.165-7.408l-0.469,4.581L248.055,137.671z"/>
		</g>
	</g>
</g>
</svg>
