<?xml version="1.0" encoding="utf-8"?>
<!-- Generator: Adobe Illustrator 16.0.0, SVG Export Plug-In . SVG Version: 6.00 Build 0)  -->
<!DOCTYPE svg PUBLIC "-//W3C//DTD SVG 1.1//EN" "http://www.w3.org/Graphics/SVG/1.1/DTD/svg11.dtd">
<svg version="1.1" id="Calque_1" xmlns="http://www.w3.org/2000/svg" xmlns:xlink="http://www.w3.org/1999/xlink" x="0px" y="0px"
	 width="340px" height="410px" viewBox="0 0 340 410" enable-background="new 0 0 340 410" xml:space="preserve">
<g id="calque00">
	<g>
		<path fill="#CC924C" stroke="#333333" stroke-width="2.4893" stroke-linecap="round" stroke-miterlimit="10" d="M85.62,179.335
			l-5.641-6.784c-0.708-0.76-0.665-1.952,0.097-2.661l0,0c0.761-0.708,1.951-0.666,2.658,0.094l6.369,6.105"/>
		<g>
			
				<path fill="#A1C453" stroke="#333333" stroke-width="0.9957" stroke-linecap="round" stroke-linejoin="round" stroke-miterlimit="10" d="
				M81.037,168.791c0,0-2.664-1.226-3.253-1.328c-0.473-0.084,1.147,2.602,1.902,3.461L81.037,168.791z"/>
			
				<path fill="#A1C453" stroke="#333333" stroke-width="0.9957" stroke-linecap="round" stroke-linejoin="round" stroke-miterlimit="10" d="
				M79.182,170.195l4.492,0.402c0,0-2.536-3.701-4.379-4.063C79.295,166.534,79.461,168.705,79.182,170.195z"/>
			
				<path fill="#A1C453" stroke="#333333" stroke-width="0.9957" stroke-linecap="round" stroke-linejoin="round" stroke-miterlimit="10" d="
				M82.401,174.508c0,0-5.102-2.237-5.811-5.455l4.277,0.601L82.401,174.508z"/>
		</g>
	</g>
</g>
<g id="calque01">
	<g>
		<g>
			
				<path fill="#A1C453" stroke="#333333" stroke-width="0.9957" stroke-linecap="round" stroke-linejoin="round" stroke-miterlimit="10" d="
				M75.677,154.733c-0.934,0.8-1.853,0.68-2.109,3.25c-0.258,2.569,1.626,1.593,1.457,3.284c0.169-1.691,1.886-0.451,2.131-2.926
				C77.403,155.865,76.35,155.76,75.677,154.733z"/>
			<g>
				<line fill="none" x1="75.024" y1="161.266" x2="75.53" y2="156.204"/>
				<g>
					<polyline fill="none" stroke="#333333" stroke-width="0.9957" stroke-linecap="round" stroke-miterlimit="10" points="
						75.074,160.771 75.138,160.129 75.27,158.813 75.325,158.255 					"/>
					
						<line fill="none" stroke="#333333" stroke-width="0.9957" stroke-linecap="round" stroke-miterlimit="10" x1="75.48" y1="156.7" x2="75.474" y2="156.769"/>
				</g>
			</g>
		</g>
		<path fill="#CC924C" stroke="#333333" stroke-width="2.4893" stroke-linecap="round" stroke-miterlimit="10" d="M85.62,179.335
			l-18.3-20.375c-0.708-0.76-0.666-1.951,0.096-2.661l0,0c0.761-0.708,1.952-0.666,2.66,0.094l19.026,19.696"/>
		<g>
			
				<path fill="#A1C453" stroke="#333333" stroke-width="0.9957" stroke-linecap="round" stroke-linejoin="round" stroke-miterlimit="10" d="
				M68.377,155.199c0,0-2.665-1.226-3.253-1.328c-0.472-0.083,1.146,2.602,1.902,3.461L68.377,155.199z"/>
			
				<path fill="#A1C453" stroke="#333333" stroke-width="0.9957" stroke-linecap="round" stroke-linejoin="round" stroke-miterlimit="10" d="
				M66.521,156.604l4.492,0.402c0,0-2.535-3.702-4.378-4.063C66.635,152.943,66.801,155.113,66.521,156.604z"/>
			
				<path fill="#A1C453" stroke="#333333" stroke-width="0.9957" stroke-linecap="round" stroke-linejoin="round" stroke-miterlimit="10" d="
				M69.741,160.917c0,0-5.103-2.237-5.812-5.456l4.276,0.6L69.741,160.917z"/>
		</g>
	</g>
</g>
<g id="calque02">
	<g>
		<g>
			
				<path fill="#A1C453" stroke="#333333" stroke-width="1.4936" stroke-linecap="round" stroke-linejoin="round" stroke-miterlimit="10" d="
				M81.751,149.241c-2.438,1.116-4.293,0.313-6.371,5.546c-2.077,5.233,2.455,4.314,1.088,7.758
				c1.367-3.444,4.219,0.183,6.221-4.857C84.689,152.647,82.544,151.796,81.751,149.241z"/>
			<g>
				<line fill="none" x1="76.468" y1="162.545" x2="80.562" y2="152.234"/>
				<g>
					<polyline fill="none" stroke="#333333" stroke-width="0.9957" stroke-linecap="round" stroke-miterlimit="10" points="
						76.651,162.083 76.89,161.483 79.594,154.671 79.801,154.15 					"/>
					
						<line fill="none" stroke="#333333" stroke-width="0.9957" stroke-linecap="round" stroke-miterlimit="10" x1="80.378" y1="152.697" x2="80.352" y2="152.762"/>
				</g>
			</g>
		</g>
		<g>
			
				<path fill="#A1C453" stroke="#333333" stroke-width="0.9957" stroke-linecap="round" stroke-linejoin="round" stroke-miterlimit="10" d="
				M62.305,160.743c0.8,0.903,0.696,1.809,3.224,2.018c2.526,0.211,1.537-1.622,3.199-1.483c-1.662-0.139-0.473-1.842-2.905-2.044
				C63.389,159.031,63.302,160.067,62.305,160.743z"/>
			<g>
				<line fill="none" x1="68.728" y1="161.278" x2="64.302" y2="160.94"/>
				<g>
					<polyline fill="none" stroke="#333333" stroke-width="0.9957" stroke-linecap="round" stroke-miterlimit="10" points="
						68.231,161.24 67.588,161.191 66.916,161.14 66.357,161.097 					"/>
					
						<line fill="none" stroke="#333333" stroke-width="0.9957" stroke-linecap="round" stroke-miterlimit="10" x1="64.798" y1="160.979" x2="64.868" y2="160.984"/>
				</g>
			</g>
		</g>
		<path fill="#CC924C" stroke="#333333" stroke-width="2.4893" stroke-linecap="round" stroke-miterlimit="10" d="M85.62,179.335
			l-24.133-26.637c-0.709-0.761-0.667-1.952,0.096-2.661l0,0c0.761-0.708,1.951-0.666,2.66,0.095l24.859,25.958"/>
		<g>
			
				<path fill="#A1C453" stroke="#333333" stroke-width="0.9957" stroke-linecap="round" stroke-linejoin="round" stroke-miterlimit="10" d="
				M62.544,148.937c0,0-2.663-1.225-3.252-1.326c-0.474-0.085,1.146,2.601,1.903,3.459L62.544,148.937z"/>
			
				<path fill="#A1C453" stroke="#333333" stroke-width="0.9957" stroke-linecap="round" stroke-linejoin="round" stroke-miterlimit="10" d="
				M60.689,150.343l4.491,0.402c0,0-2.535-3.702-4.378-4.063C60.803,146.682,60.968,148.852,60.689,150.343z"/>
			
				<path fill="#A1C453" stroke="#333333" stroke-width="0.9957" stroke-linecap="round" stroke-linejoin="round" stroke-miterlimit="10" d="
				M63.909,154.656c0,0-5.104-2.238-5.812-5.455l4.277,0.6L63.909,154.656z"/>
		</g>
	</g>
</g>
<g id="calque03">
	<g>
		
			<polygon fill="#CC924C" stroke="#333333" stroke-width="0.9957" stroke-linecap="round" stroke-linejoin="round" stroke-miterlimit="10" points="
			63.221,162.303 70.563,163.03 69.326,161.703 		"/>
		<g>
			
				<path fill="#A1C453" stroke="#333333" stroke-width="1.4936" stroke-linecap="round" stroke-linejoin="round" stroke-miterlimit="10" d="
				M81.757,149.555c-2.454,1.077-4.297,0.244-6.458,5.443c-2.161,5.199,2.385,4.354,0.964,7.775
				c1.421-3.421,4.215,0.251,6.297-4.756S82.511,152.123,81.757,149.555z"/>
			<g>
				<line fill="none" x1="76.263" y1="162.773" x2="80.521" y2="152.53"/>
				<g>
					<polyline fill="none" stroke="#333333" stroke-width="0.9957" stroke-linecap="round" stroke-miterlimit="10" points="
						76.454,162.313 76.701,161.718 79.515,154.951 79.729,154.433 					"/>
					
						<line fill="none" stroke="#333333" stroke-width="0.9957" stroke-linecap="round" stroke-miterlimit="10" x1="80.329" y1="152.99" x2="80.303" y2="153.054"/>
				</g>
			</g>
		</g>
		<g>
			
				<path fill="#A1C453" stroke="#333333" stroke-width="0.9957" stroke-linecap="round" stroke-linejoin="round" stroke-miterlimit="10" d="
				M64.064,136.016c-1.608,1.019-2.993,0.631-3.957,4.516c-0.965,3.885,2.143,2.806,1.507,5.362c0.636-2.556,2.99-0.274,3.919-4.015
				C66.462,138.136,64.868,137.741,64.064,136.016z"/>
			<g>
				<line fill="none" x1="61.614" y1="145.895" x2="63.514" y2="138.24"/>
				<g>
					<polyline fill="none" stroke="#333333" stroke-width="0.9957" stroke-linecap="round" stroke-miterlimit="10" points="
						61.734,145.411 61.89,144.785 62.882,140.785 63.018,140.241 					"/>
					
						<line fill="none" stroke="#333333" stroke-width="0.9957" stroke-linecap="round" stroke-miterlimit="10" x1="63.394" y1="138.723" x2="63.377" y2="138.791"/>
				</g>
			</g>
		</g>
		<g>
			
				<path fill="#A1C453" stroke="#333333" stroke-width="1.4936" stroke-linecap="round" stroke-linejoin="round" stroke-miterlimit="10" d="
				M51.073,160.197c1.974-1.363,2.205-3.159,7.183-2.363c4.977,0.796,2.196,3.864,5.473,4.387c-3.275-0.522-1.79,3.33-6.584,2.564
				C52.351,164.018,52.675,161.977,51.073,160.197z"/>
			<g>
				<line fill="none" x1="63.728" y1="162.221" x2="53.921" y2="160.652"/>
				<g>
					<polyline fill="none" stroke="#333333" stroke-width="0.9957" stroke-linecap="round" stroke-miterlimit="10" points="
						63.236,162.142 62.599,162.04 56.51,161.066 55.956,160.978 					"/>
					
						<line fill="none" stroke="#333333" stroke-width="0.9957" stroke-linecap="round" stroke-miterlimit="10" x1="54.412" y1="160.731" x2="54.481" y2="160.742"/>
				</g>
			</g>
		</g>
		<g>
			
				<path fill="#A1C453" stroke="#333333" stroke-width="0.9957" stroke-linecap="round" stroke-linejoin="round" stroke-miterlimit="10" d="
				M57.424,166.949c0.255-1.391-0.396-2.236,2.009-3.979c2.406-1.742,2.525,0.694,4.109-0.452c-1.584,1.146,0.641,2.134-1.676,3.812
				C59.55,168.009,58.835,167.023,57.424,166.949z"/>
			<g>
				<line fill="none" x1="63.542" y1="162.519" x2="58.802" y2="165.952"/>
				<g>
					<polyline fill="none" stroke="#333333" stroke-width="0.9957" stroke-linecap="round" stroke-miterlimit="10" points="
						63.139,162.811 62.616,163.189 60.925,164.414 60.472,164.743 					"/>
					
						<line fill="none" stroke="#333333" stroke-width="0.9957" stroke-linecap="round" stroke-miterlimit="10" x1="59.205" y1="165.66" x2="59.262" y2="165.619"/>
				</g>
			</g>
		</g>
		<path fill="#CC924C" stroke="#333333" stroke-width="2.6551" stroke-linecap="round" stroke-miterlimit="10" d="M85.62,179.335
			l-30.17-33.12c-0.709-0.761-0.668-1.952,0.094-2.662l0,0c0.761-0.708,1.952-0.666,2.661,0.095l30.897,32.44"/>
		<g>
			
				<path fill="#A1C453" stroke="#333333" stroke-width="0.9957" stroke-linecap="round" stroke-linejoin="round" stroke-miterlimit="10" d="
				M56.505,142.454c0,0-2.663-1.225-3.252-1.326c-0.473-0.084,1.147,2.602,1.902,3.46L56.505,142.454z"/>
			
				<path fill="#A1C453" stroke="#333333" stroke-width="0.9957" stroke-linecap="round" stroke-linejoin="round" stroke-miterlimit="10" d="
				M54.649,143.859l4.492,0.403c0,0-2.535-3.702-4.378-4.064C54.764,140.198,54.929,142.369,54.649,143.859z"/>
			
				<path fill="#A1C453" stroke="#333333" stroke-width="0.9957" stroke-linecap="round" stroke-linejoin="round" stroke-miterlimit="10" d="
				M57.87,148.172c0,0-5.104-2.237-5.812-5.455l4.276,0.6L57.87,148.172z"/>
		</g>
	</g>
</g>
<g id="calque04">
	<g>
		
			<polygon fill="#CC924C" stroke="#333333" stroke-width="0.9957" stroke-linecap="round" stroke-linejoin="round" stroke-miterlimit="10" points="
			63.338,128.861 62.835,148.621 60.921,146.564 		"/>
		
			<polygon fill="#CC924C" stroke="#333333" stroke-width="0.9957" stroke-linecap="round" stroke-linejoin="round" stroke-miterlimit="10" points="
			63.221,162.303 70.563,163.03 69.327,161.702 		"/>
		<g>
			
				<path fill="#A1C453" stroke="#333333" stroke-width="1.4936" stroke-linecap="round" stroke-linejoin="round" stroke-miterlimit="10" d="
				M81.757,149.555c-2.454,1.077-4.297,0.244-6.458,5.443c-2.161,5.199,2.385,4.354,0.964,7.775
				c1.421-3.421,4.215,0.251,6.297-4.756S82.511,152.123,81.757,149.555z"/>
			<g>
				<line fill="none" x1="76.263" y1="162.773" x2="80.521" y2="152.53"/>
				<g>
					<polyline fill="none" stroke="#333333" stroke-width="0.9957" stroke-linecap="round" stroke-miterlimit="10" points="
						76.454,162.313 76.701,161.718 79.515,154.951 79.729,154.433 					"/>
					
						<line fill="none" stroke="#333333" stroke-width="0.9957" stroke-linecap="round" stroke-miterlimit="10" x1="80.329" y1="152.99" x2="80.303" y2="153.054"/>
				</g>
			</g>
		</g>
		<g>
			
				<path fill="#A1C453" stroke="#333333" stroke-width="0.9957" stroke-linecap="round" stroke-linejoin="round" stroke-miterlimit="10" d="
				M58.21,122.057c-0.361,1.609-1.445,2.218,0.343,5.186c1.788,2.969,3.027,0.406,4.204,2.359c-1.177-1.953,1.662-1.998-0.062-4.855
				C60.974,121.888,59.759,122.62,58.21,122.057z"/>
			<g>
				<line fill="none" x1="62.757" y1="129.603" x2="59.233" y2="123.755"/>
				<g>
					<polyline fill="none" stroke="#333333" stroke-width="0.9957" stroke-linecap="round" stroke-miterlimit="10" points="
						62.5,129.176 62.167,128.624 60.587,126.001 60.298,125.521 					"/>
					
						<line fill="none" stroke="#333333" stroke-width="0.9957" stroke-linecap="round" stroke-miterlimit="10" x1="59.49" y1="124.182" x2="59.526" y2="124.242"/>
				</g>
			</g>
		</g>
		<g>
			
				<path fill="#A1C453" stroke="#333333" stroke-width="1.4936" stroke-linecap="round" stroke-linejoin="round" stroke-miterlimit="10" d="
				M67.396,113.58c-2.556,1.618-4.751,1.001-6.282,7.168c-1.528,6.167,3.4,4.453,2.394,8.511c1.008-4.058,4.746-0.435,6.22-6.373
				C71.2,116.944,68.673,116.317,67.396,113.58z"/>
			<g>
				<line fill="none" x1="63.507" y1="129.259" x2="66.521" y2="117.109"/>
				<g>
					<polyline fill="none" stroke="#333333" stroke-width="0.9957" stroke-linecap="round" stroke-miterlimit="10" points="
						63.627,128.775 63.782,128.149 65.89,119.654 66.025,119.11 					"/>
					
						<line fill="none" stroke="#333333" stroke-width="0.9957" stroke-linecap="round" stroke-miterlimit="10" x1="66.401" y1="117.592" x2="66.385" y2="117.66"/>
				</g>
			</g>
		</g>
		<g>
			
				<path fill="#A1C453" stroke="#333333" stroke-width="1.4936" stroke-linecap="round" stroke-linejoin="round" stroke-miterlimit="10" d="
				M51.073,160.197c1.974-1.363,2.205-3.159,7.183-2.363c4.977,0.796,2.196,3.864,5.473,4.387c-3.275-0.522-1.79,3.33-6.584,2.564
				C52.351,164.018,52.675,161.977,51.073,160.197z"/>
			<g>
				<line fill="none" x1="63.728" y1="162.221" x2="53.921" y2="160.652"/>
				<g>
					<polyline fill="none" stroke="#333333" stroke-width="0.9957" stroke-linecap="round" stroke-miterlimit="10" points="
						63.236,162.142 62.599,162.04 56.51,161.066 55.956,160.978 					"/>
					
						<line fill="none" stroke="#333333" stroke-width="0.9957" stroke-linecap="round" stroke-miterlimit="10" x1="54.412" y1="160.731" x2="54.481" y2="160.742"/>
				</g>
			</g>
		</g>
		<g>
			
				<path fill="#A1C453" stroke="#333333" stroke-width="1.4936" stroke-linecap="round" stroke-linejoin="round" stroke-miterlimit="10" d="
				M53.655,169.908c0.432-2.36-0.674-3.792,3.406-6.749c4.082-2.958,4.286,1.178,6.973-0.768c-2.687,1.946,1.089,3.62-2.843,6.468
				C57.26,171.707,56.048,170.033,53.655,169.908z"/>
			<g>
				<line fill="none" x1="64.033" y1="162.391" x2="55.991" y2="168.217"/>
				<g>
					<polyline fill="none" stroke="#333333" stroke-width="0.9957" stroke-linecap="round" stroke-miterlimit="10" points="
						63.63,162.683 63.107,163.062 58.114,166.679 57.661,167.007 					"/>
					
						<line fill="none" stroke="#333333" stroke-width="0.9957" stroke-linecap="round" stroke-miterlimit="10" x1="56.395" y1="167.925" x2="56.451" y2="167.884"/>
				</g>
			</g>
		</g>
		<g>
			
				<path fill="#A1C453" stroke="#333333" stroke-width="0.9957" stroke-linecap="round" stroke-linejoin="round" stroke-miterlimit="10" d="
				M38.456,137.108c0.942,1.211,0.739,2.352,3.932,2.822c3.193,0.471,2.084-1.937,4.187-1.627c-2.103-0.31-0.453-2.377-3.527-2.831
				C39.97,135.02,39.777,136.329,38.456,137.108z"/>
			<g>
				<line fill="none" x1="46.573" y1="138.303" x2="40.282" y2="137.376"/>
				<g>
					<polyline fill="none" stroke="#333333" stroke-width="0.9957" stroke-linecap="round" stroke-miterlimit="10" points="
						46.081,138.23 45.442,138.136 42.876,137.758 42.321,137.677 					"/>
					
						<line fill="none" stroke="#333333" stroke-width="0.9957" stroke-linecap="round" stroke-miterlimit="10" x1="40.774" y1="137.449" x2="40.844" y2="137.459"/>
				</g>
			</g>
		</g>
		<path fill="#CC924C" stroke="#333333" stroke-width="2.6551" stroke-linecap="round" stroke-miterlimit="10" d="M85.62,179.335
			l-41.166-44.923c-0.708-0.761-0.666-1.952,0.096-2.662l0,0c0.76-0.708,1.951-0.666,2.66,0.095l41.894,44.244"/>
		<g>
			
				<path fill="#A1C453" stroke="#333333" stroke-width="0.9957" stroke-linecap="round" stroke-linejoin="round" stroke-miterlimit="10" d="
				M45.511,130.65c0,0-2.664-1.225-3.253-1.327c-0.472-0.084,1.146,2.602,1.903,3.46L45.511,130.65z"/>
			
				<path fill="#A1C453" stroke="#333333" stroke-width="0.9957" stroke-linecap="round" stroke-linejoin="round" stroke-miterlimit="10" d="
				M43.655,132.056l4.492,0.402c0,0-2.536-3.702-4.379-4.063C43.769,128.395,43.935,130.565,43.655,132.056z"/>
			
				<path fill="#A1C453" stroke="#333333" stroke-width="0.9957" stroke-linecap="round" stroke-linejoin="round" stroke-miterlimit="10" d="
				M46.876,136.369c0,0-5.104-2.237-5.813-5.455l4.276,0.6L46.876,136.369z"/>
		</g>
		<g>
			
				<path fill="#FFFFFF" stroke="#333333" stroke-width="0.9957" stroke-linecap="round" stroke-linejoin="round" stroke-miterlimit="10" d="
				M64.505,129.396c0.435-0.1,1.045,0.545,1.449,1.077c0.728,0.958,0.83,2.814-0.535,3.129c-1.371,0.315-2.099-1.397-1.867-2.577
				C63.682,130.371,64.067,129.496,64.505,129.396z"/>
			
				<path fill="#FFFFFF" stroke="#333333" stroke-width="0.9957" stroke-linecap="round" stroke-linejoin="round" stroke-miterlimit="10" d="
				M64.532,129.281c-0.306-0.326-0.053-1.177,0.206-1.793c0.466-1.109,2.023-2.126,2.979-1.102c0.96,1.03-0.161,2.517-1.298,2.905
				C65.788,129.507,64.837,129.609,64.532,129.281z"/>
			
				<path fill="#FFFFFF" stroke="#333333" stroke-width="0.9957" stroke-linecap="round" stroke-linejoin="round" stroke-miterlimit="10" d="
				M64.425,129.312c-0.131,0.426-0.994,0.633-1.656,0.716c-1.193,0.152-2.854-0.688-2.442-2.027c0.411-1.346,2.26-1.118,3.164-0.33
				C63.993,128.111,64.557,128.882,64.425,129.312z"/>
			
				<path fill="#FFFFFF" stroke="#333333" stroke-width="0.9957" stroke-linecap="round" stroke-linejoin="round" stroke-miterlimit="10" d="
				M64.396,129.457c0.306,0.327,0.051,1.178-0.209,1.794c-0.465,1.109-2.021,2.127-2.977,1.102c-0.959-1.03,0.16-2.516,1.297-2.905
				C63.14,129.231,64.09,129.129,64.396,129.457z"/>
			
				<path fill="#FFFFFF" stroke="#333333" stroke-width="0.9957" stroke-linecap="round" stroke-linejoin="round" stroke-miterlimit="10" d="
				M64.505,129.42c0.13-0.426,0.994-0.633,1.656-0.716c1.192-0.152,2.853,0.688,2.441,2.027c-0.413,1.346-2.259,1.119-3.163,0.329
				C64.937,130.621,64.372,129.85,64.505,129.42z"/>
			
				<path fill="#FFFFFF" stroke="#333333" stroke-width="0.9957" stroke-linecap="round" stroke-linejoin="round" stroke-miterlimit="10" d="
				M64.405,129.346c-0.435,0.1-1.046-0.544-1.448-1.077c-0.729-0.958-0.831-2.814,0.535-3.129c1.37-0.316,2.098,1.396,1.866,2.575
				C65.228,128.371,64.843,129.245,64.405,129.346z"/>
			
				<circle fill="#F9D53E" stroke="#333333" stroke-width="0.9957" stroke-linecap="round" stroke-linejoin="round" stroke-miterlimit="10" cx="64.396" cy="129.457" r="0.926"/>
		</g>
	</g>
</g>
<g id="calque05">
	<g>
		
			<polygon fill="#CC924C" stroke="#333333" stroke-width="0.7966" stroke-linecap="round" stroke-linejoin="round" stroke-miterlimit="10" points="
			39.05,139.712 48.968,139.261 47.052,137.205 		"/>
		
			<polygon fill="#CC924C" stroke="#333333" stroke-width="0.9957" stroke-linecap="round" stroke-linejoin="round" stroke-miterlimit="10" points="
			63.335,128.863 62.833,148.623 60.919,146.566 		"/>
		
			<polygon fill="#CC924C" stroke="#333333" stroke-width="0.9957" stroke-linecap="round" stroke-linejoin="round" stroke-miterlimit="10" points="
			63.219,162.305 70.561,163.032 69.323,161.705 		"/>
		<g>
			
				<path fill="#A1C453" stroke="#333333" stroke-width="1.4936" stroke-linecap="round" stroke-linejoin="round" stroke-miterlimit="10" d="
				M81.755,149.558c-2.455,1.077-4.297,0.244-6.459,5.443c-2.161,5.199,2.385,4.354,0.964,7.775
				c1.421-3.421,4.216,0.251,6.298-4.757C84.64,153.012,82.508,152.125,81.755,149.558z"/>
			<g>
				<line fill="none" x1="76.26" y1="162.776" x2="80.519" y2="152.532"/>
				<g>
					<polyline fill="none" stroke="#333333" stroke-width="0.9957" stroke-linecap="round" stroke-miterlimit="10" points="
						76.451,162.316 76.698,161.721 79.512,154.953 79.728,154.435 					"/>
					
						<line fill="none" stroke="#333333" stroke-width="0.9957" stroke-linecap="round" stroke-miterlimit="10" x1="80.327" y1="152.991" x2="80.301" y2="153.056"/>
				</g>
			</g>
		</g>
		<g>
			
				<path fill="#A1C453" stroke="#333333" stroke-width="1.4936" stroke-linecap="round" stroke-linejoin="round" stroke-miterlimit="10" d="
				M54.823,115.146c-0.661,2.951-2.649,4.068,0.628,9.511c3.278,5.443,5.553,0.745,7.71,4.327c-2.157-3.582,3.05-3.664-0.108-8.905
				C59.893,114.836,57.663,116.18,54.823,115.146z"/>
			<g>
				<line fill="none" x1="63.16" y1="128.984" x2="56.7" y2="118.26"/>
				<g>
					<polyline fill="none" stroke="#333333" stroke-width="0.9957" stroke-linecap="round" stroke-miterlimit="10" points="
						62.903,128.558 62.57,128.005 58.053,120.506 57.764,120.026 					"/>
					
						<line fill="none" stroke="#333333" stroke-width="0.9957" stroke-linecap="round" stroke-miterlimit="10" x1="56.957" y1="118.687" x2="56.993" y2="118.747"/>
				</g>
			</g>
		</g>
		<g>
			
				<path fill="#A1C453" stroke="#333333" stroke-width="1.4936" stroke-linecap="round" stroke-linejoin="round" stroke-miterlimit="10" d="
				M67.395,113.582c-2.556,1.618-4.753,1.002-6.282,7.168c-1.528,6.167,3.399,4.453,2.394,8.511
				c1.007-4.058,4.746-0.435,6.219-6.373C71.198,116.946,68.671,116.319,67.395,113.582z"/>
			<g>
				<line fill="none" x1="63.505" y1="129.261" x2="66.519" y2="117.111"/>
				<g>
					<polyline fill="none" stroke="#333333" stroke-width="0.9957" stroke-linecap="round" stroke-miterlimit="10" points="
						63.625,128.778 63.78,128.152 65.888,119.656 66.022,119.112 					"/>
					
						<line fill="none" stroke="#333333" stroke-width="0.9957" stroke-linecap="round" stroke-miterlimit="10" x1="66.398" y1="117.594" x2="66.382" y2="117.662"/>
				</g>
			</g>
		</g>
		<g>
			
				<path fill="#A1C453" stroke="#333333" stroke-width="1.4936" stroke-linecap="round" stroke-linejoin="round" stroke-miterlimit="10" d="
				M51.07,160.2c1.975-1.364,2.206-3.159,7.184-2.363c4.977,0.796,2.196,3.863,5.472,4.386c-3.274-0.523-1.79,3.33-6.583,2.564
				C52.348,164.02,52.673,161.979,51.07,160.2z"/>
			<g>
				<line fill="none" x1="63.725" y1="162.223" x2="53.919" y2="160.655"/>
				<g>
					<polyline fill="none" stroke="#333333" stroke-width="0.9957" stroke-linecap="round" stroke-miterlimit="10" points="
						63.233,162.144 62.596,162.042 56.508,161.069 55.954,160.98 					"/>
					
						<line fill="none" stroke="#333333" stroke-width="0.9957" stroke-linecap="round" stroke-miterlimit="10" x1="54.41" y1="160.733" x2="54.479" y2="160.745"/>
				</g>
			</g>
		</g>
		<g>
			
				<path fill="#A1C453" stroke="#333333" stroke-width="1.4936" stroke-linecap="round" stroke-linejoin="round" stroke-miterlimit="10" d="
				M53.653,169.91c0.431-2.36-0.675-3.792,3.406-6.749c4.082-2.958,4.286,1.178,6.971-0.768c-2.685,1.946,1.091,3.621-2.842,6.468
				C57.257,171.709,56.045,170.036,53.653,169.91z"/>
			<g>
				<line fill="none" x1="64.03" y1="162.393" x2="55.989" y2="168.219"/>
				<g>
					<polyline fill="none" stroke="#333333" stroke-width="0.9957" stroke-linecap="round" stroke-miterlimit="10" points="
						63.627,162.685 63.104,163.063 58.112,166.681 57.658,167.009 					"/>
					
						<line fill="none" stroke="#333333" stroke-width="0.9957" stroke-linecap="round" stroke-miterlimit="10" x1="56.393" y1="167.927" x2="56.449" y2="167.886"/>
				</g>
			</g>
		</g>
		<g>
			
				<path fill="#A1C453" stroke="#333333" stroke-width="1.4936" stroke-linecap="round" stroke-linejoin="round" stroke-miterlimit="10" d="
				M23.067,137.358c1.857,2.386,1.457,4.633,7.743,5.559c6.286,0.926,4.104-3.814,8.239-3.204c-4.137-0.61-0.892-4.683-6.945-5.574
				C26.05,133.246,25.67,135.824,23.067,137.358z"/>
			<g>
				<line fill="none" x1="39.05" y1="139.712" x2="26.664" y2="137.888"/>
				<g>
					<polyline fill="none" stroke="#333333" stroke-width="0.9957" stroke-linecap="round" stroke-miterlimit="10" points="
						38.558,139.64 37.919,139.546 29.258,138.27 28.703,138.188 					"/>
					
						<line fill="none" stroke="#333333" stroke-width="0.9957" stroke-linecap="round" stroke-miterlimit="10" x1="27.156" y1="137.96" x2="27.226" y2="137.971"/>
				</g>
			</g>
		</g>
		<g>
			
				<path fill="#A1C453" stroke="#333333" stroke-width="0.9957" stroke-linecap="round" stroke-linejoin="round" stroke-miterlimit="10" d="
				M37.474,148.248c1.353-0.871,2.521-0.552,3.31-3.835c0.786-3.282-1.824-2.352-1.308-4.511c-0.518,2.16-2.52,0.25-3.276,3.411
				C35.439,146.476,36.784,146.798,37.474,148.248z"/>
			<g>
				<line fill="none" x1="39.476" y1="139.902" x2="37.924" y2="146.369"/>
				<g>
					<polyline fill="none" stroke="#333333" stroke-width="0.9957" stroke-linecap="round" stroke-miterlimit="10" points="
						39.359,140.386 39.209,141.013 38.535,143.819 38.405,144.365 					"/>
					
						<line fill="none" stroke="#333333" stroke-width="0.9957" stroke-linecap="round" stroke-miterlimit="10" x1="38.04" y1="145.885" x2="38.057" y2="145.817"/>
				</g>
			</g>
		</g>
		<g>
			<g>
				<path fill="#D3F46C" d="M69.27,127.743c1.995,1.629,2.398,5.706,0.663,6.56c-0.511,2.09-4.563,2.291-6.559,0.663
					c-1.994-1.627-3.168-4.213-0.113-6.311C64.62,125.393,67.274,126.116,69.27,127.743z"/>
				<g>
					<path fill="none" stroke="#333333" stroke-width="0.9957" stroke-linecap="round" stroke-miterlimit="10" d="M69.632,128.084
						c0.131,0.17,0.289,0.32,0.397,0.507c0.654,0.946,0.968,2.103,0.997,3.245c0.004,0.572-0.083,1.155-0.336,1.673
						c-0.14,0.249-0.308,0.49-0.545,0.654c-0.325,0.095-0.252,0.483-0.465,0.687c-0.682,0.968-1.97,1.202-3.081,1.193
						c-1.142-0.031-2.303-0.359-3.212-1.067c-0.876-0.723-1.663-1.649-1.92-2.78c-0.282-1.145,0.301-2.32,1.171-3.05
						c0.198-0.205,0.478-0.333,0.65-0.553c0.125-0.258,0.235-0.523,0.399-0.76c0.303-0.483,0.702-0.924,1.218-1.186
						c0.512-0.266,1.109-0.329,1.674-0.237c0.138,0.023,0.294,0.047,0.411,0.088l0.177,0.051c0.12,0.028,0.23,0.084,0.347,0.126"/>
					
						<line fill="none" stroke="#333333" stroke-width="0.9957" stroke-linecap="round" stroke-miterlimit="10" x1="68.875" y1="127.44" x2="68.816" y2="127.401"/>
				</g>
			</g>
			
				<ellipse transform="matrix(-0.2693 -0.963 0.963 -0.2693 -47.174 229.0639)" opacity="0.5" fill="#FFFFFF" enable-background="new    " cx="63.309" cy="132.427" rx="1.066" ry="0.877"/>
		</g>
		<path fill="#CC924C" stroke="#333333" stroke-width="2.6551" stroke-linecap="round" stroke-miterlimit="10" d="M85.616,179.338
			l-46.65-50.814c-0.709-0.761-0.667-1.953,0.094-2.662l0,0c0.762-0.708,1.953-0.666,2.661,0.095l47.381,50.135"/>
		<g>
			
				<path fill="#A1C453" stroke="#333333" stroke-width="0.9957" stroke-linecap="round" stroke-linejoin="round" stroke-miterlimit="10" d="
				M40.021,124.762c0,0-2.664-1.226-3.252-1.328c-0.472-0.084,1.146,2.603,1.902,3.461L40.021,124.762z"/>
			
				<path fill="#A1C453" stroke="#333333" stroke-width="0.9957" stroke-linecap="round" stroke-linejoin="round" stroke-miterlimit="10" d="
				M38.165,126.167l4.492,0.403c0,0-2.535-3.703-4.379-4.064C38.279,122.506,38.444,124.676,38.165,126.167z"/>
			
				<path fill="#A1C453" stroke="#333333" stroke-width="0.9957" stroke-linecap="round" stroke-linejoin="round" stroke-miterlimit="10" d="
				M41.386,130.48c0,0-5.103-2.237-5.811-5.455l4.275,0.601L41.386,130.48z"/>
		</g>
		<g>
			
				<path fill="#FFFFFF" stroke="#333333" stroke-width="0.9957" stroke-linecap="round" stroke-linejoin="round" stroke-miterlimit="10" d="
				M39.864,141.068c0.436-0.1,1.046,0.544,1.448,1.077c0.729,0.958,0.831,2.814-0.534,3.129c-1.372,0.316-2.1-1.396-1.866-2.576
				C39.041,142.043,39.427,141.168,39.864,141.068z"/>
			
				<path fill="#FFFFFF" stroke="#333333" stroke-width="0.9957" stroke-linecap="round" stroke-linejoin="round" stroke-miterlimit="10" d="
				M39.891,140.953c-0.304-0.326-0.052-1.176,0.208-1.792c0.467-1.11,2.021-2.127,2.978-1.103c0.96,1.03-0.16,2.517-1.298,2.906
				C41.146,141.18,40.196,141.282,39.891,140.953z"/>
			
				<path fill="#FFFFFF" stroke="#333333" stroke-width="0.9957" stroke-linecap="round" stroke-linejoin="round" stroke-miterlimit="10" d="
				M39.784,140.983c-0.132,0.427-0.994,0.634-1.657,0.717c-1.194,0.151-2.854-0.688-2.442-2.027c0.412-1.346,2.258-1.119,3.164-0.33
				C39.352,139.783,39.915,140.555,39.784,140.983z"/>
			
				<path fill="#FFFFFF" stroke="#333333" stroke-width="0.9957" stroke-linecap="round" stroke-linejoin="round" stroke-miterlimit="10" d="
				M39.755,141.13c0.303,0.326,0.051,1.178-0.209,1.793c-0.467,1.109-2.021,2.127-2.978,1.102c-0.96-1.03,0.16-2.516,1.298-2.905
				C38.499,140.904,39.448,140.801,39.755,141.13z"/>
			
				<path fill="#FFFFFF" stroke="#333333" stroke-width="0.9957" stroke-linecap="round" stroke-linejoin="round" stroke-miterlimit="10" d="
				M39.864,141.093c0.13-0.426,0.993-0.632,1.655-0.716c1.194-0.152,2.854,0.688,2.443,2.027c-0.413,1.347-2.259,1.119-3.164,0.33
				C40.296,142.294,39.731,141.522,39.864,141.093z"/>
			
				<path fill="#FFFFFF" stroke="#333333" stroke-width="0.9957" stroke-linecap="round" stroke-linejoin="round" stroke-miterlimit="10" d="
				M39.764,141.018c-0.434,0.101-1.046-0.544-1.448-1.077c-0.729-0.958-0.832-2.814,0.533-3.128
				c1.373-0.317,2.101,1.396,1.867,2.574C40.587,140.043,40.2,140.917,39.764,141.018z"/>
			
				<circle fill="#F9D53E" stroke="#333333" stroke-width="0.9957" stroke-linecap="round" stroke-linejoin="round" stroke-miterlimit="10" cx="39.755" cy="141.13" r="0.926"/>
		</g>
	</g>
</g>
<g id="calque06">
	<g>
		
			<polygon fill="#CC924C" stroke="#333333" stroke-width="0.7966" stroke-linecap="round" stroke-linejoin="round" stroke-miterlimit="10" points="
			39.053,139.71 48.97,139.259 47.054,137.203 		"/>
		
			<polygon fill="#CC924C" stroke="#333333" stroke-width="0.9957" stroke-linecap="round" stroke-linejoin="round" stroke-miterlimit="10" points="
			63.338,128.861 62.835,148.621 60.921,146.564 		"/>
		
			<polygon fill="#CC924C" stroke="#333333" stroke-width="0.9957" stroke-linecap="round" stroke-linejoin="round" stroke-miterlimit="10" points="
			63.221,162.303 70.563,163.03 69.327,161.702 		"/>
		<g>
			
				<path fill="#A1C453" stroke="#333333" stroke-width="1.4936" stroke-linecap="round" stroke-linejoin="round" stroke-miterlimit="10" d="
				M81.757,149.555c-2.454,1.078-4.297,0.244-6.458,5.443c-2.161,5.199,2.385,4.354,0.963,7.775
				c1.422-3.422,4.216,0.251,6.298-4.757C84.642,153.01,82.511,152.123,81.757,149.555z"/>
			<g>
				<line fill="none" x1="76.262" y1="162.774" x2="80.521" y2="152.53"/>
				<g>
					<polyline fill="none" stroke="#333333" stroke-width="0.9957" stroke-linecap="round" stroke-miterlimit="10" points="
						76.453,162.314 76.7,161.719 79.514,154.951 79.729,154.433 					"/>
					
						<line fill="none" stroke="#333333" stroke-width="0.9957" stroke-linecap="round" stroke-miterlimit="10" x1="80.329" y1="152.989" x2="80.303" y2="153.054"/>
				</g>
			</g>
		</g>
		<g>
			
				<path fill="#A1C453" stroke="#333333" stroke-width="0.9957" stroke-linecap="round" stroke-linejoin="round" stroke-miterlimit="10" d="
				M42.053,117.583c1.212,1.063,2.421,0.918,2.72,4.293s-2.155,2.067-1.959,4.288c-0.196-2.221-2.465-0.619-2.754-3.869
				C39.771,119.044,41.155,118.921,42.053,117.583z"/>
			<g>
				<line fill="none" x1="42.813" y1="126.164" x2="42.224" y2="119.515"/>
				<g>
					<polyline fill="none" stroke="#333333" stroke-width="0.9957" stroke-linecap="round" stroke-miterlimit="10" points="
						42.77,125.668 42.713,125.025 42.455,122.126 42.405,121.568 					"/>
					
						<line fill="none" stroke="#333333" stroke-width="0.9957" stroke-linecap="round" stroke-miterlimit="10" x1="42.268" y1="120.011" x2="42.273" y2="120.08"/>
				</g>
			</g>
		</g>
		<g>
			
				<path fill="#A1C453" stroke="#333333" stroke-width="1.4936" stroke-linecap="round" stroke-linejoin="round" stroke-miterlimit="10" d="
				M54.827,115.144c-0.664,2.951-2.652,4.069,0.625,9.512c3.278,5.443,5.553,0.745,7.711,4.326
				c-2.158-3.582,3.049-3.663-0.109-8.905C59.896,114.835,57.665,116.178,54.827,115.144z"/>
			<g>
				<line fill="none" x1="63.163" y1="128.981" x2="56.703" y2="118.258"/>
				<g>
					<polyline fill="none" stroke="#333333" stroke-width="0.9957" stroke-linecap="round" stroke-miterlimit="10" points="
						62.906,128.555 62.573,128.002 58.056,120.504 57.767,120.023 					"/>
					
						<line fill="none" stroke="#333333" stroke-width="0.9957" stroke-linecap="round" stroke-miterlimit="10" x1="56.96" y1="118.684" x2="56.996" y2="118.744"/>
				</g>
			</g>
		</g>
		<g>
			
				<path fill="#A1C453" stroke="#333333" stroke-width="1.4936" stroke-linecap="round" stroke-linejoin="round" stroke-miterlimit="10" d="
				M67.396,113.58c-2.556,1.618-4.751,1.001-6.282,7.168c-1.528,6.167,3.4,4.453,2.394,8.512c1.008-4.059,4.746-0.437,6.219-6.374
				C71.2,116.944,68.673,116.317,67.396,113.58z"/>
			<g>
				<line fill="none" x1="63.507" y1="129.26" x2="66.521" y2="117.109"/>
				<g>
					<polyline fill="none" stroke="#333333" stroke-width="0.9957" stroke-linecap="round" stroke-miterlimit="10" points="
						63.627,128.776 63.782,128.15 65.89,119.654 66.025,119.11 					"/>
					
						<line fill="none" stroke="#333333" stroke-width="0.9957" stroke-linecap="round" stroke-miterlimit="10" x1="66.401" y1="117.592" x2="66.385" y2="117.66"/>
				</g>
			</g>
		</g>
		<g>
			
				<path fill="#A1C453" stroke="#333333" stroke-width="1.4936" stroke-linecap="round" stroke-linejoin="round" stroke-miterlimit="10" d="
				M51.073,160.197c1.974-1.363,2.205-3.159,7.183-2.363c4.977,0.796,2.196,3.864,5.473,4.387c-3.275-0.522-1.791,3.33-6.584,2.564
				C52.351,164.018,52.675,161.977,51.073,160.197z"/>
			<g>
				<line fill="none" x1="63.728" y1="162.221" x2="53.921" y2="160.653"/>
				<g>
					<polyline fill="none" stroke="#333333" stroke-width="0.9957" stroke-linecap="round" stroke-miterlimit="10" points="
						63.236,162.142 62.599,162.04 56.51,161.067 55.956,160.979 					"/>
					
						<line fill="none" stroke="#333333" stroke-width="0.9957" stroke-linecap="round" stroke-miterlimit="10" x1="54.412" y1="160.731" x2="54.481" y2="160.743"/>
				</g>
			</g>
		</g>
		<g>
			
				<path fill="#A1C453" stroke="#333333" stroke-width="1.4936" stroke-linecap="round" stroke-linejoin="round" stroke-miterlimit="10" d="
				M53.655,169.908c0.432-2.36-0.674-3.792,3.406-6.749c4.082-2.958,4.286,1.178,6.973-0.768c-2.687,1.946,1.089,3.62-2.843,6.468
				C57.26,171.707,56.048,170.033,53.655,169.908z"/>
			<g>
				<line fill="none" x1="64.033" y1="162.391" x2="55.991" y2="168.217"/>
				<g>
					<polyline fill="none" stroke="#333333" stroke-width="0.9957" stroke-linecap="round" stroke-miterlimit="10" points="
						63.63,162.683 63.107,163.062 58.114,166.679 57.661,167.007 					"/>
					
						<line fill="none" stroke="#333333" stroke-width="0.9957" stroke-linecap="round" stroke-miterlimit="10" x1="56.395" y1="167.925" x2="56.451" y2="167.884"/>
				</g>
			</g>
		</g>
		<g>
			
				<path fill="#A1C453" stroke="#333333" stroke-width="0.9957" stroke-linecap="round" stroke-linejoin="round" stroke-miterlimit="10" d="
				M31.593,145.461c1.631,0.204,2.34,1.221,5.113-0.839c2.772-2.061,0.109-3.044,1.936-4.399c-1.825,1.355-2.143-1.457-4.813,0.527
				C31.157,142.734,32.002,143.871,31.593,145.461z"/>
			<g>
				<line fill="none" x1="38.642" y1="140.223" x2="33.178" y2="144.282"/>
				<g>
					<polyline fill="none" stroke="#333333" stroke-width="0.9957" stroke-linecap="round" stroke-miterlimit="10" points="
						38.242,140.52 37.724,140.904 35.282,142.719 34.832,143.053 					"/>
					
						<line fill="none" stroke="#333333" stroke-width="0.9957" stroke-linecap="round" stroke-miterlimit="10" x1="33.577" y1="143.985" x2="33.634" y2="143.943"/>
				</g>
			</g>
		</g>
		<g>
			
				<path fill="#A1C453" stroke="#333333" stroke-width="1.4936" stroke-linecap="round" stroke-linejoin="round" stroke-miterlimit="10" d="
				M23.069,137.355c1.858,2.386,1.457,4.633,7.743,5.559c6.287,0.926,4.104-3.814,8.24-3.204c-4.138-0.61-0.893-4.683-6.945-5.574
				C26.052,133.245,25.672,135.822,23.069,137.355z"/>
			<g>
				<line fill="none" x1="39.053" y1="139.71" x2="26.667" y2="137.885"/>
				<g>
					<polyline fill="none" stroke="#333333" stroke-width="0.9957" stroke-linecap="round" stroke-miterlimit="10" points="
						38.561,139.638 37.922,139.544 29.261,138.268 28.706,138.186 					"/>
					
						<line fill="none" stroke="#333333" stroke-width="0.9957" stroke-linecap="round" stroke-miterlimit="10" x1="27.159" y1="137.958" x2="27.229" y2="137.968"/>
				</g>
			</g>
		</g>
		<g>
			
				<path fill="#A1C453" stroke="#333333" stroke-width="1.4936" stroke-linecap="round" stroke-linejoin="round" stroke-miterlimit="10" d="
				M36.409,152.374c1.998-1.286,3.727-0.815,4.893-5.669c1.164-4.855-2.699-3.478-1.932-6.672c-0.769,3.194-3.728,0.37-4.849,5.045
				C33.4,149.754,35.391,150.231,36.409,152.374z"/>
			<g>
				<line fill="none" x1="39.37" y1="140.033" x2="37.075" y2="149.596"/>
				<g>
					<polyline fill="none" stroke="#333333" stroke-width="0.9957" stroke-linecap="round" stroke-miterlimit="10" points="
						39.254,140.517 39.104,141.145 37.687,147.046 37.557,147.592 					"/>
					
						<line fill="none" stroke="#333333" stroke-width="0.9957" stroke-linecap="round" stroke-miterlimit="10" x1="37.191" y1="149.112" x2="37.208" y2="149.044"/>
				</g>
			</g>
		</g>
		<g>
			<g>
				<path fill="#D3F46C" d="M71.763,127.993c2.706,2.208,3.253,7.737,0.9,8.896c-0.693,2.836-6.19,3.107-8.896,0.899
					c-2.705-2.207-4.297-5.715-0.154-8.559C65.458,124.805,69.06,125.786,71.763,127.993z"/>
				<g>
					<path fill="none" stroke="#333333" stroke-width="1.4936" stroke-linecap="round" stroke-miterlimit="10" d="M72.3,128.511
						c0.208,0.247,0.419,0.492,0.585,0.77c0.835,1.287,1.251,2.828,1.259,4.356c-0.006,0.762-0.12,1.544-0.479,2.226
						c-0.191,0.329-0.421,0.65-0.744,0.859l-0.24,0.158c-0.052,0.075-0.071,0.176-0.108,0.262c-0.053,0.187-0.146,0.353-0.26,0.509
						c-0.43,0.641-1.132,1.045-1.853,1.282c-0.729,0.237-1.5,0.326-2.267,0.319c-1.521-0.045-3.082-0.443-4.307-1.379
						c-1.187-0.946-2.251-2.162-2.661-3.653c-0.198-0.74-0.182-1.539,0.076-2.262c0.245-0.731,0.731-1.355,1.281-1.881
						c0.267-0.276,0.577-0.501,0.884-0.732c0.184-0.09,0.224-0.298,0.314-0.463c0.088-0.17,0.153-0.352,0.259-0.513
						c0.372-0.668,0.881-1.271,1.522-1.689c0.644-0.419,1.429-0.595,2.189-0.535c0.188-0.003,0.392,0.052,0.558,0.075
						c0.091,0.016,0.183,0.028,0.271,0.058c0.177,0.054,0.355,0.097,0.528,0.16"/>
					
						<line fill="none" stroke="#333333" stroke-width="1.4936" stroke-linecap="round" stroke-miterlimit="10" x1="71.168" y1="127.542" x2="71.081" y2="127.482"/>
				</g>
			</g>
			
				<ellipse transform="matrix(-0.2696 -0.963 0.963 -0.2696 -48.5099 231.911)" opacity="0.5" fill="#FFFFFF" enable-background="new    " cx="63.692" cy="134.352" rx="1.447" ry="1.19"/>
		</g>
		<path fill="#CC924C" stroke="#333333" stroke-width="2.6551" stroke-linecap="round" stroke-miterlimit="10" d="M85.62,179.335
			l-51.449-55.964c-0.709-0.761-0.667-1.952,0.094-2.661l0,0c0.762-0.708,1.953-0.666,2.662,0.095l52.177,55.285"/>
		<g>
			
				<path fill="#A1C453" stroke="#333333" stroke-width="0.9957" stroke-linecap="round" stroke-linejoin="round" stroke-miterlimit="10" d="
				M35.226,119.61c0,0-2.662-1.225-3.252-1.327c-0.471-0.085,1.147,2.602,1.904,3.46L35.226,119.61z"/>
			
				<path fill="#A1C453" stroke="#333333" stroke-width="0.9957" stroke-linecap="round" stroke-linejoin="round" stroke-miterlimit="10" d="
				M33.37,121.015l4.491,0.403c0,0-2.534-3.702-4.377-4.064C33.485,117.354,33.65,119.525,33.37,121.015z"/>
			
				<path fill="#A1C453" stroke="#333333" stroke-width="0.9957" stroke-linecap="round" stroke-linejoin="round" stroke-miterlimit="10" d="
				M36.591,125.328c0,0-5.104-2.236-5.812-5.455l4.277,0.601L36.591,125.328z"/>
		</g>
		<g>
			<g>
				<path fill="#D3F46C" d="M44.616,140.729c1.994,1.628,2.397,5.706,0.663,6.559c-0.512,2.092-4.563,2.292-6.559,0.664
					c-1.996-1.627-3.168-4.214-0.113-6.311C39.966,138.377,42.622,139.101,44.616,140.729z"/>
				<g>
					<path fill="none" stroke="#333333" stroke-width="0.9957" stroke-linecap="round" stroke-miterlimit="10" d="M44.979,141.07
						c0.131,0.17,0.289,0.32,0.398,0.506c0.653,0.947,0.967,2.103,0.997,3.245c0.004,0.572-0.083,1.156-0.336,1.673
						c-0.141,0.25-0.309,0.49-0.545,0.654c-0.325,0.095-0.251,0.484-0.465,0.688c-0.683,0.968-1.97,1.202-3.081,1.192
						c-1.142-0.031-2.303-0.359-3.213-1.067c-0.875-0.723-1.663-1.649-1.919-2.78c-0.282-1.145,0.301-2.32,1.171-3.05
						c0.198-0.205,0.478-0.333,0.65-0.552c0.125-0.258,0.236-0.524,0.399-0.761c0.303-0.483,0.701-0.924,1.217-1.186
						c0.512-0.266,1.109-0.329,1.675-0.237c0.137,0.023,0.293,0.047,0.41,0.087l0.178,0.051c0.119,0.029,0.23,0.084,0.346,0.126"/>
					
						<line fill="none" stroke="#333333" stroke-width="0.9957" stroke-linecap="round" stroke-miterlimit="10" x1="44.222" y1="140.425" x2="44.163" y2="140.386"/>
				</g>
			</g>
			
				<ellipse transform="matrix(-0.2696 -0.963 0.963 -0.2696 -90.94 221.8343)" opacity="0.5" fill="#FFFFFF" enable-background="new    " cx="38.661" cy="145.406" rx="1.067" ry="0.877"/>
		</g>
	</g>
</g>
<g id="calque07">
	<g>
		
			<polygon fill="#CC924C" stroke="#333333" stroke-width="0.9957" stroke-linecap="round" stroke-linejoin="round" stroke-miterlimit="10" points="
			43.225,118.465 43.175,127.725 41.259,125.669 		"/>
		
			<polygon fill="#CC924C" stroke="#333333" stroke-width="0.7966" stroke-linecap="round" stroke-linejoin="round" stroke-miterlimit="10" points="
			39.05,139.713 48.968,139.261 47.052,137.205 		"/>
		
			<polygon fill="#CC924C" stroke="#333333" stroke-width="0.9957" stroke-linecap="round" stroke-linejoin="round" stroke-miterlimit="10" points="
			63.335,128.863 62.833,148.623 60.919,146.566 		"/>
		
			<polygon fill="#CC924C" stroke="#333333" stroke-width="0.9957" stroke-linecap="round" stroke-linejoin="round" stroke-miterlimit="10" points="
			63.218,162.305 70.561,163.032 69.323,161.705 		"/>
		<g>
			
				<path fill="#A1C453" stroke="#333333" stroke-width="1.4936" stroke-linecap="round" stroke-linejoin="round" stroke-miterlimit="10" d="
				M81.755,149.558c-2.455,1.077-4.297,0.244-6.459,5.443c-2.161,5.199,2.385,4.354,0.964,7.775
				c1.421-3.421,4.216,0.251,6.298-4.757C84.64,153.012,82.508,152.125,81.755,149.558z"/>
			<g>
				<line fill="none" x1="76.26" y1="162.776" x2="80.519" y2="152.532"/>
				<g>
					<polyline fill="none" stroke="#333333" stroke-width="0.9957" stroke-linecap="round" stroke-miterlimit="10" points="
						76.451,162.316 76.698,161.721 79.512,154.953 79.728,154.436 					"/>
					
						<line fill="none" stroke="#333333" stroke-width="0.9957" stroke-linecap="round" stroke-miterlimit="10" x1="80.327" y1="152.992" x2="80.301" y2="153.057"/>
				</g>
			</g>
		</g>
		<g>
			
				<path fill="#A1C453" stroke="#333333" stroke-width="1.4936" stroke-linecap="round" stroke-linejoin="round" stroke-miterlimit="10" d="
				M41.959,104.206c2.017,1.766,4.023,1.525,4.521,7.134c0.498,5.608-3.585,3.434-3.256,7.125c-0.329-3.691-4.097-1.028-4.576-6.43
				C38.169,106.634,40.468,106.429,41.959,104.206z"/>
			<g>
				<line fill="none" x1="43.225" y1="118.465" x2="42.243" y2="107.416"/>
				<g>
					<polyline fill="none" stroke="#333333" stroke-width="0.9957" stroke-linecap="round" stroke-miterlimit="10" points="
						43.181,117.969 43.124,117.327 42.476,110.027 42.426,109.469 					"/>
					
						<line fill="none" stroke="#333333" stroke-width="0.9957" stroke-linecap="round" stroke-miterlimit="10" x1="42.287" y1="107.912" x2="42.294" y2="107.981"/>
				</g>
			</g>
		</g>
		<g>
			
				<path fill="#A1C453" stroke="#333333" stroke-width="1.4936" stroke-linecap="round" stroke-linejoin="round" stroke-miterlimit="10" d="
				M54.823,115.146c-0.661,2.951-2.65,4.068,0.628,9.511c3.278,5.443,5.553,0.745,7.71,4.327c-2.157-3.582,3.05-3.664-0.108-8.905
				C59.893,114.836,57.662,116.18,54.823,115.146z"/>
			<g>
				<line fill="none" x1="63.16" y1="128.984" x2="56.7" y2="118.26"/>
				<g>
					<polyline fill="none" stroke="#333333" stroke-width="0.9957" stroke-linecap="round" stroke-miterlimit="10" points="
						62.903,128.558 62.57,128.005 58.053,120.506 57.764,120.026 					"/>
					
						<line fill="none" stroke="#333333" stroke-width="0.9957" stroke-linecap="round" stroke-miterlimit="10" x1="56.957" y1="118.687" x2="56.993" y2="118.747"/>
				</g>
			</g>
		</g>
		<g>
			
				<path fill="#A1C453" stroke="#333333" stroke-width="1.4936" stroke-linecap="round" stroke-linejoin="round" stroke-miterlimit="10" d="
				M67.394,113.582c-2.555,1.618-4.752,1.001-6.281,7.168c-1.528,6.167,3.399,4.453,2.394,8.511
				c1.007-4.058,4.746-0.435,6.219-6.373C71.198,116.946,68.67,116.32,67.394,113.582z"/>
			<g>
				<line fill="none" x1="63.505" y1="129.261" x2="66.519" y2="117.111"/>
				<g>
					<polyline fill="none" stroke="#333333" stroke-width="0.9957" stroke-linecap="round" stroke-miterlimit="10" points="
						63.625,128.778 63.78,128.152 65.888,119.656 66.022,119.112 					"/>
					
						<line fill="none" stroke="#333333" stroke-width="0.9957" stroke-linecap="round" stroke-miterlimit="10" x1="66.398" y1="117.594" x2="66.382" y2="117.662"/>
				</g>
			</g>
		</g>
		<g>
			
				<path fill="#A1C453" stroke="#333333" stroke-width="1.4936" stroke-linecap="round" stroke-linejoin="round" stroke-miterlimit="10" d="
				M51.07,160.2c1.975-1.364,2.206-3.159,7.184-2.363c4.977,0.796,2.196,3.863,5.472,4.387c-3.274-0.523-1.79,3.33-6.583,2.563
				C52.348,164.021,52.673,161.979,51.07,160.2z"/>
			<g>
				<line fill="none" x1="63.725" y1="162.223" x2="53.919" y2="160.655"/>
				<g>
					<polyline fill="none" stroke="#333333" stroke-width="0.9957" stroke-linecap="round" stroke-miterlimit="10" points="
						63.233,162.145 62.596,162.042 56.508,161.069 55.954,160.98 					"/>
					
						<line fill="none" stroke="#333333" stroke-width="0.9957" stroke-linecap="round" stroke-miterlimit="10" x1="54.41" y1="160.733" x2="54.479" y2="160.745"/>
				</g>
			</g>
		</g>
		<g>
			
				<path fill="#A1C453" stroke="#333333" stroke-width="1.4936" stroke-linecap="round" stroke-linejoin="round" stroke-miterlimit="10" d="
				M53.653,169.91c0.431-2.36-0.675-3.792,3.406-6.749c4.082-2.958,4.285,1.178,6.971-0.768c-2.686,1.946,1.091,3.621-2.842,6.468
				C57.257,171.709,56.045,170.036,53.653,169.91z"/>
			<g>
				<line fill="none" x1="64.03" y1="162.393" x2="55.989" y2="168.219"/>
				<g>
					<polyline fill="none" stroke="#333333" stroke-width="0.9957" stroke-linecap="round" stroke-miterlimit="10" points="
						63.627,162.685 63.104,163.063 58.112,166.681 57.658,167.009 					"/>
					
						<line fill="none" stroke="#333333" stroke-width="0.9957" stroke-linecap="round" stroke-miterlimit="10" x1="56.393" y1="167.927" x2="56.449" y2="167.886"/>
				</g>
			</g>
		</g>
		<g>
			
				<path fill="#A1C453" stroke="#333333" stroke-width="1.4936" stroke-linecap="round" stroke-linejoin="round" stroke-miterlimit="10" d="
				M25.841,149.717c3.002,0.375,4.307,2.247,9.406-1.543c5.1-3.791,0.203-5.599,3.561-8.093c-3.356,2.494-3.94-2.679-8.853,0.971
				C25.042,144.703,26.596,146.792,25.841,149.717z"/>
			<g>
				<line fill="none" x1="38.808" y1="140.081" x2="28.759" y2="147.549"/>
				<g>
					<polyline fill="none" stroke="#333333" stroke-width="0.9957" stroke-linecap="round" stroke-miterlimit="10" points="
						38.408,140.378 37.891,140.763 30.863,145.985 30.413,146.319 					"/>
					
						<line fill="none" stroke="#333333" stroke-width="0.9957" stroke-linecap="round" stroke-miterlimit="10" x1="29.158" y1="147.252" x2="29.215" y2="147.21"/>
				</g>
			</g>
		</g>
		<g>
			
				<path fill="#A1C453" stroke="#333333" stroke-width="1.4936" stroke-linecap="round" stroke-linejoin="round" stroke-miterlimit="10" d="
				M23.067,137.358c1.857,2.386,1.457,4.633,7.742,5.559c6.287,0.926,4.104-3.815,8.24-3.204c-4.137-0.611-0.892-4.683-6.945-5.574
				C26.049,133.247,25.67,135.824,23.067,137.358z"/>
			<g>
				<line fill="none" x1="39.05" y1="139.713" x2="26.664" y2="137.888"/>
				<g>
					<polyline fill="none" stroke="#333333" stroke-width="0.9957" stroke-linecap="round" stroke-miterlimit="10" points="
						38.558,139.64 37.919,139.546 29.258,138.27 28.703,138.188 					"/>
					
						<line fill="none" stroke="#333333" stroke-width="0.9957" stroke-linecap="round" stroke-miterlimit="10" x1="27.156" y1="137.96" x2="27.226" y2="137.971"/>
				</g>
			</g>
		</g>
		<g>
			
				<path fill="#A1C453" stroke="#333333" stroke-width="1.4936" stroke-linecap="round" stroke-linejoin="round" stroke-miterlimit="10" d="
				M36.407,152.376c1.997-1.286,3.727-0.816,4.892-5.669c1.165-4.855-2.698-3.479-1.931-6.672c-0.769,3.194-3.728,0.37-4.849,5.045
				C33.398,149.756,35.388,150.233,36.407,152.376z"/>
			<g>
				<line fill="none" x1="39.368" y1="140.035" x2="37.073" y2="149.599"/>
				<g>
					<polyline fill="none" stroke="#333333" stroke-width="0.9957" stroke-linecap="round" stroke-miterlimit="10" points="
						39.252,140.519 39.102,141.146 37.685,147.049 37.555,147.594 					"/>
					
						<line fill="none" stroke="#333333" stroke-width="0.9957" stroke-linecap="round" stroke-miterlimit="10" x1="37.189" y1="149.115" x2="37.206" y2="149.046"/>
				</g>
			</g>
		</g>
		<g>
			<g>
				<path fill="#EF4529" d="M71.761,127.995c2.705,2.209,3.252,7.737,0.9,8.896c-0.694,2.836-6.191,3.107-8.896,0.899
					s-4.296-5.716-0.153-8.559C65.456,124.807,69.056,125.788,71.761,127.995z"/>
				<g>
					<path fill="none" stroke="#333333" stroke-width="1.4936" stroke-linecap="round" stroke-miterlimit="10" d="M72.298,128.513
						c0.208,0.247,0.419,0.491,0.584,0.77c0.835,1.287,1.251,2.828,1.259,4.356c-0.005,0.762-0.12,1.545-0.479,2.227
						c-0.192,0.329-0.421,0.65-0.744,0.859l-0.241,0.157c-0.05,0.076-0.071,0.176-0.107,0.263c-0.053,0.187-0.146,0.353-0.26,0.509
						c-0.431,0.641-1.132,1.045-1.854,1.281c-0.729,0.237-1.5,0.326-2.266,0.319c-1.521-0.045-3.083-0.443-4.308-1.379
						c-1.188-0.946-2.251-2.162-2.66-3.653c-0.199-0.74-0.183-1.539,0.075-2.262c0.246-0.731,0.731-1.355,1.281-1.881
						c0.268-0.277,0.578-0.502,0.884-0.733c0.185-0.09,0.225-0.298,0.315-0.463c0.088-0.17,0.153-0.352,0.259-0.513
						c0.372-0.668,0.881-1.271,1.522-1.689c0.643-0.419,1.427-0.595,2.189-0.535c0.188-0.003,0.391,0.052,0.557,0.075
						c0.091,0.016,0.183,0.028,0.271,0.058c0.176,0.054,0.355,0.096,0.528,0.16"/>
					
						<line fill="none" stroke="#333333" stroke-width="1.4936" stroke-linecap="round" stroke-miterlimit="10" x1="71.166" y1="127.544" x2="71.079" y2="127.485"/>
				</g>
			</g>
			
				<ellipse transform="matrix(-0.2699 -0.9629 0.9629 -0.2699 -48.4761 231.9305)" opacity="0.5" fill="#FFFFFF" enable-background="new    " cx="63.687" cy="134.343" rx="1.447" ry="1.19"/>
		</g>
		<g>
			<g>
				<path fill="#D3F46C" d="M47.148,143.173c1.46,3.171-0.474,8.379-3.097,8.387c-1.867,2.243-6.926,0.074-8.388-3.097
					c-1.46-3.171-1.352-7.021,3.621-7.758C42.884,137.54,45.688,140.001,47.148,143.173z"/>
				<g>
					<path fill="none" stroke="#333333" stroke-width="1.4936" stroke-linecap="round" stroke-miterlimit="10" d="M47.403,143.874
						c0.078,0.313,0.16,0.625,0.188,0.948c0.185,1.523-0.117,3.09-0.782,4.467c-0.339,0.682-0.786,1.335-1.408,1.789
						c-0.316,0.211-0.664,0.399-1.046,0.444l-0.285,0.036c-0.078,0.046-0.142,0.127-0.213,0.189
						c-0.129,0.145-0.286,0.252-0.457,0.343c-0.667,0.387-1.476,0.442-2.228,0.337c-0.759-0.106-1.49-0.365-2.175-0.708
						c-1.348-0.708-2.575-1.751-3.266-3.13c-0.649-1.371-1.071-2.931-0.785-4.451c0.146-0.752,0.514-1.462,1.063-1.999
						c0.541-0.549,1.252-0.896,1.978-1.127c0.361-0.131,0.739-0.197,1.115-0.271c0.205,0,0.332-0.169,0.487-0.277
						c0.153-0.115,0.293-0.249,0.457-0.347c0.627-0.438,1.35-0.756,2.109-0.849c0.762-0.095,1.545,0.091,2.202,0.48
						c0.17,0.08,0.328,0.218,0.468,0.313c0.074,0.054,0.151,0.105,0.218,0.17c0.135,0.126,0.276,0.243,0.404,0.376"/>
					
						<line fill="none" stroke="#333333" stroke-width="1.4936" stroke-linecap="round" stroke-miterlimit="10" x1="46.813" y1="142.506" x2="46.761" y2="142.415"/>
				</g>
			</g>
			
				<ellipse transform="matrix(0.1803 -0.9836 0.9836 0.1803 -112.5342 155.6272)" opacity="0.5" fill="#FFFFFF" enable-background="new    " cx="37.108" cy="145.333" rx="1.446" ry="1.19"/>
		</g>
		<path fill="#CC924C" stroke="#333333" stroke-width="2.6551" stroke-linecap="round" stroke-miterlimit="10" d="M85.616,179.338
			L30.001,118.9c-0.709-0.761-0.666-1.952,0.095-2.661l0,0c0.761-0.709,1.952-0.667,2.661,0.094l56.345,59.759"/>
		<g>
			
				<path fill="#A1C453" stroke="#333333" stroke-width="0.9957" stroke-linecap="round" stroke-linejoin="round" stroke-miterlimit="10" d="
				M31.057,115.139c0,0-2.663-1.226-3.251-1.328c-0.473-0.084,1.146,2.602,1.902,3.461L31.057,115.139z"/>
			
				<path fill="#A1C453" stroke="#333333" stroke-width="0.9957" stroke-linecap="round" stroke-linejoin="round" stroke-miterlimit="10" d="
				M29.2,116.544l4.491,0.403c0,0-2.534-3.702-4.377-4.064C29.315,112.883,29.48,115.053,29.2,116.544z"/>
			
				<path fill="#A1C453" stroke="#333333" stroke-width="0.9957" stroke-linecap="round" stroke-linejoin="round" stroke-miterlimit="10" d="
				M32.421,120.857c0,0-5.103-2.237-5.812-5.455l4.277,0.601L32.421,120.857z"/>
		</g>
	</g>
</g>
<g id="calque08">
	<g>
		
			<polygon fill="#CC924C" stroke="#333333" stroke-width="0.9957" stroke-linecap="round" stroke-linejoin="round" stroke-miterlimit="10" points="
			43.225,118.465 43.175,127.725 41.259,125.669 		"/>
		
			<polygon fill="#CC924C" stroke="#333333" stroke-width="0.7966" stroke-linecap="round" stroke-linejoin="round" stroke-miterlimit="10" points="
			39.05,139.713 48.967,139.261 47.052,137.205 		"/>
		
			<polygon fill="#CC924C" stroke="#333333" stroke-width="0.9957" stroke-linecap="round" stroke-linejoin="round" stroke-miterlimit="10" points="
			63.335,128.863 62.833,148.623 60.919,146.566 		"/>
		
			<polygon fill="#CC924C" stroke="#333333" stroke-width="0.9957" stroke-linecap="round" stroke-linejoin="round" stroke-miterlimit="10" points="
			63.218,162.305 70.561,163.032 69.323,161.705 		"/>
		<g>
			
				<path fill="#A1C453" stroke="#333333" stroke-width="1.4936" stroke-linecap="round" stroke-linejoin="round" stroke-miterlimit="10" d="
				M81.755,149.558c-2.455,1.077-4.297,0.244-6.459,5.443c-2.161,5.199,2.385,4.354,0.964,7.775
				c1.421-3.421,4.216,0.251,6.297-4.757C84.64,153.011,82.508,152.125,81.755,149.558z"/>
			<g>
				<line fill="none" x1="76.26" y1="162.776" x2="80.519" y2="152.532"/>
				<g>
					<polyline fill="none" stroke="#333333" stroke-width="0.9957" stroke-linecap="round" stroke-miterlimit="10" points="
						76.451,162.316 76.698,161.721 79.512,154.953 79.728,154.436 					"/>
					
						<line fill="none" stroke="#333333" stroke-width="0.9957" stroke-linecap="round" stroke-miterlimit="10" x1="80.327" y1="152.992" x2="80.301" y2="153.057"/>
				</g>
			</g>
		</g>
		<g>
			
				<path fill="#A1C453" stroke="#333333" stroke-width="1.4936" stroke-linecap="round" stroke-linejoin="round" stroke-miterlimit="10" d="
				M41.959,104.206c2.017,1.766,4.023,1.525,4.521,7.134c0.497,5.609-3.585,3.434-3.256,7.125c-0.329-3.691-4.097-1.028-4.576-6.43
				C38.169,106.634,40.468,106.429,41.959,104.206z"/>
			<g>
				<line fill="none" x1="43.225" y1="118.465" x2="42.243" y2="107.416"/>
				<g>
					<polyline fill="none" stroke="#333333" stroke-width="0.9957" stroke-linecap="round" stroke-miterlimit="10" points="
						43.181,117.969 43.124,117.327 42.476,110.027 42.426,109.469 					"/>
					
						<line fill="none" stroke="#333333" stroke-width="0.9957" stroke-linecap="round" stroke-miterlimit="10" x1="42.287" y1="107.912" x2="42.294" y2="107.981"/>
				</g>
			</g>
		</g>
		<g>
			
				<path fill="#A1C453" stroke="#333333" stroke-width="1.4936" stroke-linecap="round" stroke-linejoin="round" stroke-miterlimit="10" d="
				M54.823,115.146c-0.661,2.951-2.65,4.068,0.628,9.511c3.278,5.443,5.553,0.745,7.71,4.327c-2.157-3.582,3.049-3.663-0.108-8.905
				C59.893,114.836,57.662,116.18,54.823,115.146z"/>
			<g>
				<line fill="none" x1="63.16" y1="128.984" x2="56.7" y2="118.26"/>
				<g>
					<polyline fill="none" stroke="#333333" stroke-width="0.9957" stroke-linecap="round" stroke-miterlimit="10" points="
						62.903,128.558 62.57,128.005 58.053,120.506 57.764,120.026 					"/>
					
						<line fill="none" stroke="#333333" stroke-width="0.9957" stroke-linecap="round" stroke-miterlimit="10" x1="56.957" y1="118.687" x2="56.993" y2="118.747"/>
				</g>
			</g>
		</g>
		<g>
			
				<path fill="#A1C453" stroke="#333333" stroke-width="1.4936" stroke-linecap="round" stroke-linejoin="round" stroke-miterlimit="10" d="
				M67.394,113.582c-2.555,1.618-4.752,1.001-6.281,7.168c-1.528,6.167,3.399,4.453,2.394,8.511
				c1.007-4.058,4.746-0.435,6.219-6.373C71.198,116.946,68.67,116.32,67.394,113.582z"/>
			<g>
				<line fill="none" x1="63.505" y1="129.261" x2="66.519" y2="117.111"/>
				<g>
					<polyline fill="none" stroke="#333333" stroke-width="0.9957" stroke-linecap="round" stroke-miterlimit="10" points="
						63.625,128.778 63.78,128.152 65.888,119.656 66.022,119.112 					"/>
					
						<line fill="none" stroke="#333333" stroke-width="0.9957" stroke-linecap="round" stroke-miterlimit="10" x1="66.398" y1="117.594" x2="66.382" y2="117.662"/>
				</g>
			</g>
		</g>
		<g>
			
				<path fill="#A1C453" stroke="#333333" stroke-width="1.4936" stroke-linecap="round" stroke-linejoin="round" stroke-miterlimit="10" d="
				M51.07,160.2c1.975-1.363,2.206-3.159,7.184-2.363c4.977,0.796,2.196,3.863,5.472,4.387c-3.274-0.523-1.79,3.33-6.583,2.563
				C52.348,164.021,52.673,161.979,51.07,160.2z"/>
			<g>
				<line fill="none" x1="63.725" y1="162.223" x2="53.919" y2="160.655"/>
				<g>
					<polyline fill="none" stroke="#333333" stroke-width="0.9957" stroke-linecap="round" stroke-miterlimit="10" points="
						63.233,162.145 62.596,162.042 56.508,161.069 55.954,160.98 					"/>
					
						<line fill="none" stroke="#333333" stroke-width="0.9957" stroke-linecap="round" stroke-miterlimit="10" x1="54.41" y1="160.733" x2="54.479" y2="160.745"/>
				</g>
			</g>
		</g>
		<g>
			
				<path fill="#A1C453" stroke="#333333" stroke-width="1.4936" stroke-linecap="round" stroke-linejoin="round" stroke-miterlimit="10" d="
				M53.653,169.91c0.431-2.36-0.675-3.792,3.406-6.749c4.082-2.958,4.285,1.178,6.971-0.768c-2.686,1.946,1.091,3.621-2.842,6.468
				C57.257,171.709,56.044,170.035,53.653,169.91z"/>
			<g>
				<line fill="none" x1="64.03" y1="162.393" x2="55.989" y2="168.219"/>
				<g>
					<polyline fill="none" stroke="#333333" stroke-width="0.9957" stroke-linecap="round" stroke-miterlimit="10" points="
						63.627,162.685 63.104,163.063 58.112,166.681 57.658,167.009 					"/>
					
						<line fill="none" stroke="#333333" stroke-width="0.9957" stroke-linecap="round" stroke-miterlimit="10" x1="56.393" y1="167.927" x2="56.449" y2="167.886"/>
				</g>
			</g>
		</g>
		<g>
			
				<path fill="#A1C453" stroke="#333333" stroke-width="1.4936" stroke-linecap="round" stroke-linejoin="round" stroke-miterlimit="10" d="
				M25.841,149.717c3.002,0.375,4.307,2.247,9.406-1.543c5.1-3.791,0.203-5.599,3.561-8.092c-3.356,2.494-3.94-2.68-8.853,0.97
				C25.042,144.703,26.596,146.792,25.841,149.717z"/>
			<g>
				<line fill="none" x1="38.808" y1="140.082" x2="28.759" y2="147.549"/>
				<g>
					<polyline fill="none" stroke="#333333" stroke-width="0.9957" stroke-linecap="round" stroke-miterlimit="10" points="
						38.408,140.378 37.891,140.763 30.863,145.985 30.413,146.319 					"/>
					
						<line fill="none" stroke="#333333" stroke-width="0.9957" stroke-linecap="round" stroke-miterlimit="10" x1="29.158" y1="147.252" x2="29.215" y2="147.21"/>
				</g>
			</g>
		</g>
		<g>
			
				<path fill="#A1C453" stroke="#333333" stroke-width="1.4936" stroke-linecap="round" stroke-linejoin="round" stroke-miterlimit="10" d="
				M23.067,137.358c1.857,2.386,1.457,4.633,7.742,5.559c6.287,0.926,4.104-3.815,8.24-3.204c-4.137-0.611-0.892-4.683-6.945-5.574
				C26.049,133.247,25.67,135.824,23.067,137.358z"/>
			<g>
				<line fill="none" x1="39.05" y1="139.713" x2="26.664" y2="137.888"/>
				<g>
					<polyline fill="none" stroke="#333333" stroke-width="0.9957" stroke-linecap="round" stroke-miterlimit="10" points="
						38.558,139.64 37.919,139.546 29.258,138.27 28.703,138.188 					"/>
					
						<line fill="none" stroke="#333333" stroke-width="0.9957" stroke-linecap="round" stroke-miterlimit="10" x1="27.156" y1="137.96" x2="27.226" y2="137.971"/>
				</g>
			</g>
		</g>
		<g>
			
				<path fill="#A1C453" stroke="#333333" stroke-width="1.4936" stroke-linecap="round" stroke-linejoin="round" stroke-miterlimit="10" d="
				M36.407,152.376c1.997-1.286,3.727-0.815,4.892-5.669c1.165-4.855-2.698-3.479-1.931-6.672c-0.769,3.194-3.728,0.37-4.849,5.045
				C33.398,149.756,35.388,150.233,36.407,152.376z"/>
			<g>
				<line fill="none" x1="39.368" y1="140.035" x2="37.073" y2="149.599"/>
				<g>
					<polyline fill="none" stroke="#333333" stroke-width="0.9957" stroke-linecap="round" stroke-miterlimit="10" points="
						39.252,140.519 39.102,141.146 37.685,147.049 37.555,147.594 					"/>
					
						<line fill="none" stroke="#333333" stroke-width="0.9957" stroke-linecap="round" stroke-miterlimit="10" x1="37.189" y1="149.115" x2="37.206" y2="149.046"/>
				</g>
			</g>
		</g>
		<g>
			<g>
				<path fill="#EF4529" d="M71.761,127.995c2.705,2.208,3.252,7.737,0.9,8.896c-0.694,2.836-6.191,3.107-8.896,0.899
					s-4.296-5.716-0.153-8.559C65.456,124.807,69.056,125.788,71.761,127.995z"/>
				<g>
					<path fill="none" stroke="#333333" stroke-width="1.4936" stroke-linecap="round" stroke-miterlimit="10" d="M72.298,128.513
						c0.208,0.247,0.419,0.491,0.584,0.769c0.835,1.287,1.251,2.828,1.259,4.356c-0.005,0.762-0.12,1.545-0.479,2.226
						c-0.192,0.329-0.421,0.65-0.744,0.859l-0.241,0.157c-0.05,0.076-0.07,0.176-0.107,0.263c-0.053,0.187-0.146,0.353-0.26,0.509
						c-0.431,0.641-1.132,1.045-1.854,1.281c-0.729,0.237-1.5,0.326-2.266,0.319c-1.521-0.045-3.083-0.443-4.308-1.379
						c-1.188-0.946-2.251-2.162-2.66-3.653c-0.199-0.74-0.183-1.539,0.075-2.262c0.246-0.731,0.731-1.355,1.281-1.881
						c0.268-0.277,0.578-0.502,0.884-0.733c0.185-0.09,0.225-0.298,0.315-0.463c0.088-0.17,0.153-0.352,0.259-0.513
						c0.372-0.668,0.881-1.271,1.522-1.689c0.643-0.419,1.427-0.595,2.189-0.535c0.188-0.003,0.391,0.052,0.557,0.075
						c0.091,0.016,0.183,0.028,0.271,0.058c0.176,0.054,0.355,0.096,0.528,0.16"/>
					
						<line fill="none" stroke="#333333" stroke-width="1.4936" stroke-linecap="round" stroke-miterlimit="10" x1="71.166" y1="127.544" x2="71.079" y2="127.485"/>
				</g>
			</g>
			
				<ellipse transform="matrix(-0.2699 -0.9629 0.9629 -0.2699 -48.4761 231.9305)" opacity="0.5" fill="#FFFFFF" enable-background="new    " cx="63.687" cy="134.343" rx="1.447" ry="1.19"/>
		</g>
		<g>
			<g>
				<path fill="#EF4529" d="M47.148,143.173c1.46,3.171-0.474,8.379-3.097,8.387c-1.867,2.243-6.926,0.074-8.388-3.097
					c-1.46-3.171-1.352-7.021,3.62-7.758C42.884,137.54,45.688,140.001,47.148,143.173z"/>
				<g>
					<path fill="none" stroke="#333333" stroke-width="1.4936" stroke-linecap="round" stroke-miterlimit="10" d="M47.403,143.874
						c0.078,0.313,0.16,0.625,0.188,0.948c0.185,1.523-0.117,3.09-0.782,4.467c-0.339,0.682-0.786,1.335-1.409,1.789
						c-0.315,0.211-0.663,0.399-1.045,0.444l-0.285,0.036c-0.078,0.046-0.142,0.127-0.213,0.189
						c-0.129,0.145-0.286,0.252-0.457,0.343c-0.667,0.387-1.476,0.442-2.228,0.337c-0.759-0.106-1.49-0.365-2.175-0.708
						c-1.348-0.708-2.575-1.751-3.267-3.13c-0.648-1.371-1.07-2.931-0.784-4.451c0.146-0.752,0.514-1.462,1.063-1.999
						c0.541-0.549,1.252-0.896,1.978-1.127c0.36-0.132,0.739-0.197,1.115-0.271c0.205,0,0.332-0.17,0.487-0.278
						c0.152-0.115,0.292-0.249,0.457-0.347c0.627-0.438,1.35-0.756,2.108-0.849c0.763-0.094,1.546,0.092,2.203,0.481
						c0.17,0.08,0.328,0.218,0.468,0.313c0.074,0.054,0.151,0.105,0.218,0.17c0.135,0.126,0.276,0.243,0.404,0.376"/>
					
						<line fill="none" stroke="#333333" stroke-width="1.4936" stroke-linecap="round" stroke-miterlimit="10" x1="46.813" y1="142.506" x2="46.761" y2="142.415"/>
				</g>
			</g>
			
				<ellipse transform="matrix(0.1803 -0.9836 0.9836 0.1803 -112.5342 155.6272)" opacity="0.5" fill="#FFFFFF" enable-background="new    " cx="37.108" cy="145.333" rx="1.446" ry="1.19"/>
		</g>
		<path fill="#CC924C" stroke="#333333" stroke-width="2.6551" stroke-linecap="round" stroke-miterlimit="10" d="M85.616,179.338
			L30.001,118.9c-0.709-0.761-0.666-1.952,0.095-2.661l0,0c0.761-0.708,1.952-0.667,2.661,0.094l56.345,59.759"/>
		<g>
			
				<path fill="#A1C453" stroke="#333333" stroke-width="0.9957" stroke-linecap="round" stroke-linejoin="round" stroke-miterlimit="10" d="
				M31.057,115.139c0,0-2.663-1.226-3.253-1.327c-0.471-0.084,1.147,2.602,1.904,3.46L31.057,115.139z"/>
			
				<path fill="#A1C453" stroke="#333333" stroke-width="0.9957" stroke-linecap="round" stroke-linejoin="round" stroke-miterlimit="10" d="
				M29.2,116.544l4.491,0.403c0,0-2.534-3.702-4.377-4.064C29.315,112.883,29.48,115.053,29.2,116.544z"/>
			
				<path fill="#A1C453" stroke="#333333" stroke-width="0.9957" stroke-linecap="round" stroke-linejoin="round" stroke-miterlimit="10" d="
				M32.421,120.857c0,0-5.103-2.237-5.812-5.455l4.277,0.6L32.421,120.857z"/>
		</g>
	</g>
</g>
</svg>
