<?xml version="1.0" encoding="utf-8"?>
<!-- Generator: Adobe Illustrator 16.0.0, SVG Export Plug-In . SVG Version: 6.00 Build 0)  -->
<!DOCTYPE svg PUBLIC "-//W3C//DTD SVG 1.1//EN" "http://www.w3.org/Graphics/SVG/1.1/DTD/svg11.dtd">
<svg version="1.1" id="Calque_1" xmlns="http://www.w3.org/2000/svg" xmlns:xlink="http://www.w3.org/1999/xlink" x="0px" y="0px"
	 width="400px" height="400px" viewBox="0 0 400 400" enable-background="new 0 0 400 400" xml:space="preserve">
<g id="calque00">
	<g>
		<path fill="#CC924C" stroke="#333333" stroke-width="2.6539" stroke-linecap="round" stroke-miterlimit="10" d="M92.617,160.809
			l-6.014-7.233c-0.755-0.811-0.709-2.082,0.104-2.837l0,0c0.811-0.755,2.081-0.71,2.835,0.101l6.79,6.509"/>
		<g>
			
				<path fill="#A1C453" stroke="#333333" stroke-width="1.0616" stroke-linecap="round" stroke-linejoin="round" stroke-miterlimit="10" d="
				M87.731,149.566c0,0-2.84-1.307-3.468-1.415c-0.503-0.09,1.224,2.774,2.029,3.689L87.731,149.566z"/>
			
				<path fill="#A1C453" stroke="#333333" stroke-width="1.0616" stroke-linecap="round" stroke-linejoin="round" stroke-miterlimit="10" d="
				M85.753,151.064l4.79,0.429c0,0-2.704-3.945-4.669-4.332C85.874,147.161,86.051,149.475,85.753,151.064z"/>
			
				<path fill="#A1C453" stroke="#333333" stroke-width="1.0616" stroke-linecap="round" stroke-linejoin="round" stroke-miterlimit="10" d="
				M89.186,155.662c0,0-5.438-2.385-6.193-5.816l4.561,0.641L89.186,155.662z"/>
		</g>
	</g>
</g>
<g id="calque01">
	<g>
		<g>
			
				<path fill="#A1C453" stroke="#333333" stroke-width="1.0616" stroke-linecap="round" stroke-linejoin="round" stroke-miterlimit="10" d="
				M82.017,134.579c-0.995,0.853-1.976,0.725-2.249,3.465c-0.273,2.739,1.733,1.698,1.554,3.5c0.181-1.803,2.01-0.48,2.271-3.119
				C83.857,135.786,82.734,135.674,82.017,134.579z"/>
			<g>
				<line fill="none" x1="81.321" y1="141.544" x2="81.86" y2="136.147"/>
				<g>
					<polyline fill="none" stroke="#333333" stroke-width="1.0616" stroke-linecap="round" stroke-miterlimit="10" points="
						81.374,141.016 81.442,140.332 81.582,138.929 81.642,138.334 					"/>
					
						<line fill="none" stroke="#333333" stroke-width="1.0616" stroke-linecap="round" stroke-miterlimit="10" x1="81.808" y1="136.676" x2="81.8" y2="136.75"/>
				</g>
			</g>
		</g>
		<path fill="#CC924C" stroke="#333333" stroke-width="2.6539" stroke-linecap="round" stroke-miterlimit="10" d="M92.617,160.809
			l-19.51-21.723c-0.755-0.81-0.71-2.08,0.103-2.836l0,0c0.811-0.755,2.081-0.71,2.836,0.1l20.285,20.999"/>
		<g>
			
				<path fill="#A1C453" stroke="#333333" stroke-width="1.0616" stroke-linecap="round" stroke-linejoin="round" stroke-miterlimit="10" d="
				M74.234,135.076c0,0-2.842-1.307-3.469-1.416c-0.502-0.088,1.224,2.774,2.029,3.69L74.234,135.076z"/>
			
				<path fill="#A1C453" stroke="#333333" stroke-width="1.0616" stroke-linecap="round" stroke-linejoin="round" stroke-miterlimit="10" d="
				M72.255,136.574l4.789,0.428c0,0-2.703-3.946-4.667-4.332C72.377,132.67,72.554,134.984,72.255,136.574z"/>
			
				<path fill="#A1C453" stroke="#333333" stroke-width="1.0616" stroke-linecap="round" stroke-linejoin="round" stroke-miterlimit="10" d="
				M75.688,141.172c0,0-5.438-2.385-6.194-5.816l4.56,0.64L75.688,141.172z"/>
		</g>
	</g>
</g>
<g id="calque02">
	<g>
		<g>
			
				<path fill="#A1C453" stroke="#333333" stroke-width="1.5923" stroke-linecap="round" stroke-linejoin="round" stroke-miterlimit="10" d="
				M88.492,128.724c-2.6,1.189-4.576,0.333-6.792,5.913c-2.216,5.579,2.616,4.599,1.159,8.271c1.457-3.672,4.497,0.194,6.633-5.179
				C91.625,132.355,89.338,131.448,88.492,128.724z"/>
			<g>
				<line fill="none" x1="82.86" y1="142.908" x2="87.225" y2="131.915"/>
				<g>
					<polyline fill="none" stroke="#333333" stroke-width="1.0616" stroke-linecap="round" stroke-miterlimit="10" points="
						83.057,142.415 83.31,141.776 86.193,134.513 86.414,133.957 					"/>
					
						<line fill="none" stroke="#333333" stroke-width="1.0616" stroke-linecap="round" stroke-miterlimit="10" x1="87.029" y1="132.408" x2="87.001" y2="132.477"/>
				</g>
			</g>
		</g>
		<g>
			
				<path fill="#A1C453" stroke="#333333" stroke-width="1.0616" stroke-linecap="round" stroke-linejoin="round" stroke-miterlimit="10" d="
				M67.76,140.987c0.854,0.963,0.743,1.928,3.438,2.151c2.692,0.225,1.639-1.729,3.409-1.581c-1.771-0.148-0.504-1.964-3.097-2.179
				C68.916,139.162,68.823,140.266,67.76,140.987z"/>
			<g>
				<line fill="none" x1="74.607" y1="141.557" x2="69.89" y2="141.197"/>
				<g>
					<polyline fill="none" stroke="#333333" stroke-width="1.0616" stroke-linecap="round" stroke-miterlimit="10" points="
						74.078,141.517 73.393,141.464 72.677,141.41 72.081,141.364 					"/>
					
						<line fill="none" stroke="#333333" stroke-width="1.0616" stroke-linecap="round" stroke-miterlimit="10" x1="70.419" y1="141.237" x2="70.493" y2="141.243"/>
				</g>
			</g>
		</g>
		<path fill="#CC924C" stroke="#333333" stroke-width="2.6539" stroke-linecap="round" stroke-miterlimit="10" d="M92.617,160.809
			L66.89,132.41c-0.756-0.811-0.711-2.081,0.102-2.837l0,0c0.812-0.755,2.08-0.71,2.837,0.101l26.504,27.674"/>
		<g>
			
				<path fill="#A1C453" stroke="#333333" stroke-width="1.0616" stroke-linecap="round" stroke-linejoin="round" stroke-miterlimit="10" d="
				M68.016,128.399c0,0-2.84-1.306-3.468-1.414c-0.504-0.091,1.223,2.773,2.03,3.688L68.016,128.399z"/>
			
				<path fill="#A1C453" stroke="#333333" stroke-width="1.0616" stroke-linecap="round" stroke-linejoin="round" stroke-miterlimit="10" d="
				M66.038,129.899l4.788,0.428c0,0-2.703-3.946-4.667-4.332C66.159,125.995,66.335,128.309,66.038,129.899z"/>
			
				<path fill="#A1C453" stroke="#333333" stroke-width="1.0616" stroke-linecap="round" stroke-linejoin="round" stroke-miterlimit="10" d="
				M69.471,134.497c0,0-5.44-2.386-6.194-5.815l4.561,0.64L69.471,134.497z"/>
		</g>
	</g>
</g>
<g id="calque03">
	<g>
		
			<polygon fill="#CC924C" stroke="#333333" stroke-width="1.0616" stroke-linecap="round" stroke-linejoin="round" stroke-miterlimit="10" points="
			68.736,142.649 76.565,143.425 75.246,142.009 		"/>
		<g>
			
				<path fill="#A1C453" stroke="#333333" stroke-width="1.5923" stroke-linecap="round" stroke-linejoin="round" stroke-miterlimit="10" d="
				M88.499,129.059c-2.616,1.148-4.581,0.26-6.887,5.803c-2.304,5.543,2.543,4.642,1.028,8.289c1.515-3.647,4.493,0.269,6.713-5.071
				C91.574,132.742,89.303,131.796,88.499,129.059z"/>
			<g>
				<line fill="none" x1="82.642" y1="143.151" x2="87.181" y2="132.23"/>
				<g>
					<polyline fill="none" stroke="#333333" stroke-width="1.0616" stroke-linecap="round" stroke-miterlimit="10" points="
						82.846,142.661 83.109,142.026 86.107,134.811 86.337,134.259 					"/>
					
						<line fill="none" stroke="#333333" stroke-width="1.0616" stroke-linecap="round" stroke-miterlimit="10" x1="86.977" y1="132.72" x2="86.948" y2="132.789"/>
				</g>
			</g>
		</g>
		<g>
			
				<path fill="#A1C453" stroke="#333333" stroke-width="1.0616" stroke-linecap="round" stroke-linejoin="round" stroke-miterlimit="10" d="
				M69.637,114.624c-1.716,1.086-3.191,0.673-4.219,4.815c-1.029,4.142,2.283,2.992,1.605,5.717c0.678-2.725,3.188-0.292,4.178-4.28
				C72.192,116.884,70.493,116.463,69.637,114.624z"/>
			<g>
				<line fill="none" x1="67.024" y1="125.156" x2="69.049" y2="116.995"/>
				<g>
					<polyline fill="none" stroke="#333333" stroke-width="1.0616" stroke-linecap="round" stroke-miterlimit="10" points="
						67.152,124.641 67.317,123.973 68.376,119.708 68.52,119.128 					"/>
					
						<line fill="none" stroke="#333333" stroke-width="1.0616" stroke-linecap="round" stroke-miterlimit="10" x1="68.921" y1="117.51" x2="68.903" y2="117.582"/>
				</g>
			</g>
		</g>
		<g>
			
				<path fill="#A1C453" stroke="#333333" stroke-width="1.5923" stroke-linecap="round" stroke-linejoin="round" stroke-miterlimit="10" d="
				M55.786,140.405c2.103-1.454,2.351-3.368,7.655-2.52c5.307,0.849,2.343,4.12,5.835,4.677c-3.492-0.557-1.908,3.55-7.02,2.733
				C57.147,144.478,57.493,142.302,55.786,140.405z"/>
			<g>
				<line fill="none" x1="69.277" y1="142.562" x2="58.822" y2="140.89"/>
				<g>
					<polyline fill="none" stroke="#333333" stroke-width="1.0616" stroke-linecap="round" stroke-miterlimit="10" points="
						68.753,142.478 68.074,142.37 61.582,141.331 60.992,141.237 					"/>
					
						<line fill="none" stroke="#333333" stroke-width="1.0616" stroke-linecap="round" stroke-miterlimit="10" x1="59.347" y1="140.974" x2="59.42" y2="140.985"/>
				</g>
			</g>
		</g>
		<g>
			
				<path fill="#A1C453" stroke="#333333" stroke-width="1.0616" stroke-linecap="round" stroke-linejoin="round" stroke-miterlimit="10" d="
				M62.557,147.603c0.271-1.482-0.423-2.384,2.143-4.242c2.564-1.857,2.691,0.74,4.381-0.482c-1.688,1.222,0.684,2.275-1.786,4.064
				C64.823,148.733,64.061,147.682,62.557,147.603z"/>
			<g>
				<line fill="none" x1="69.079" y1="142.879" x2="64.025" y2="146.54"/>
				<g>
					<polyline fill="none" stroke="#333333" stroke-width="1.0616" stroke-linecap="round" stroke-miterlimit="10" points="
						68.649,143.191 68.092,143.594 66.289,144.9 65.806,145.251 					"/>
					
						<line fill="none" stroke="#333333" stroke-width="1.0616" stroke-linecap="round" stroke-miterlimit="10" x1="64.455" y1="146.229" x2="64.516" y2="146.185"/>
				</g>
			</g>
		</g>
		<path fill="#CC924C" stroke="#333333" stroke-width="2.8307" stroke-linecap="round" stroke-miterlimit="10" d="M92.617,160.809
			l-32.165-35.31c-0.757-0.812-0.713-2.082,0.1-2.838l0,0c0.812-0.755,2.082-0.71,2.838,0.102l32.941,34.586"/>
		<g>
			
				<path fill="#A1C453" stroke="#333333" stroke-width="1.0616" stroke-linecap="round" stroke-linejoin="round" stroke-miterlimit="10" d="
				M61.577,121.487c0,0-2.841-1.306-3.469-1.414c-0.503-0.09,1.226,2.774,2.029,3.689L61.577,121.487z"/>
			
				<path fill="#A1C453" stroke="#333333" stroke-width="1.0616" stroke-linecap="round" stroke-linejoin="round" stroke-miterlimit="10" d="
				M59.599,122.986l4.789,0.43c0,0-2.703-3.947-4.667-4.333C59.721,119.083,59.896,121.397,59.599,122.986z"/>
			
				<path fill="#A1C453" stroke="#333333" stroke-width="1.0616" stroke-linecap="round" stroke-linejoin="round" stroke-miterlimit="10" d="
				M63.032,127.584c0,0-5.441-2.385-6.194-5.815l4.559,0.64L63.032,127.584z"/>
		</g>
	</g>
</g>
<g id="calque04">
	<g>
		
			<polygon fill="#CC924C" stroke="#333333" stroke-width="1.0616" stroke-linecap="round" stroke-linejoin="round" stroke-miterlimit="10" points="
			68.861,106.996 68.325,128.063 66.285,125.87 		"/>
		
			<polygon fill="#CC924C" stroke="#333333" stroke-width="1.0616" stroke-linecap="round" stroke-linejoin="round" stroke-miterlimit="10" points="
			68.736,142.649 76.565,143.424 75.247,142.009 		"/>
		<g>
			
				<path fill="#A1C453" stroke="#333333" stroke-width="1.5923" stroke-linecap="round" stroke-linejoin="round" stroke-miterlimit="10" d="
				M88.499,129.059c-2.616,1.148-4.581,0.26-6.887,5.803c-2.304,5.543,2.543,4.642,1.028,8.289c1.515-3.647,4.493,0.269,6.713-5.071
				C91.574,132.742,89.303,131.796,88.499,129.059z"/>
			<g>
				<line fill="none" x1="82.642" y1="143.151" x2="87.181" y2="132.23"/>
				<g>
					<polyline fill="none" stroke="#333333" stroke-width="1.0616" stroke-linecap="round" stroke-miterlimit="10" points="
						82.846,142.661 83.109,142.026 86.107,134.811 86.337,134.259 					"/>
					
						<line fill="none" stroke="#333333" stroke-width="1.0616" stroke-linecap="round" stroke-miterlimit="10" x1="86.977" y1="132.72" x2="86.948" y2="132.789"/>
				</g>
			</g>
		</g>
		<g>
			
				<path fill="#A1C453" stroke="#333333" stroke-width="1.0616" stroke-linecap="round" stroke-linejoin="round" stroke-miterlimit="10" d="
				M63.395,99.742c-0.385,1.716-1.541,2.364,0.365,5.529s3.228,0.433,4.482,2.516c-1.256-2.083,1.771-2.13-0.064-5.177
				C66.341,99.562,65.046,100.342,63.395,99.742z"/>
			<g>
				<line fill="none" x1="68.242" y1="107.787" x2="64.485" y2="101.553"/>
				<g>
					<polyline fill="none" stroke="#333333" stroke-width="1.0616" stroke-linecap="round" stroke-miterlimit="10" points="
						67.969,107.332 67.613,106.743 65.928,103.947 65.62,103.435 					"/>
					
						<line fill="none" stroke="#333333" stroke-width="1.0616" stroke-linecap="round" stroke-miterlimit="10" x1="64.76" y1="102.007" x2="64.798" y2="102.071"/>
				</g>
			</g>
		</g>
		<g>
			
				<path fill="#A1C453" stroke="#333333" stroke-width="1.5923" stroke-linecap="round" stroke-linejoin="round" stroke-miterlimit="10" d="
				M73.188,90.704c-2.725,1.726-5.064,1.068-6.696,7.643c-1.632,6.575,3.625,4.748,2.551,9.074c1.074-4.326,5.06-0.463,6.631-6.794
				C77.244,94.291,74.55,93.623,73.188,90.704z"/>
			<g>
				<line fill="none" x1="69.042" y1="107.42" x2="72.256" y2="94.466"/>
				<g>
					<polyline fill="none" stroke="#333333" stroke-width="1.0616" stroke-linecap="round" stroke-miterlimit="10" points="
						69.17,106.905 69.336,106.237 71.583,97.179 71.727,96.6 					"/>
					
						<line fill="none" stroke="#333333" stroke-width="1.0616" stroke-linecap="round" stroke-miterlimit="10" x1="72.128" y1="94.981" x2="72.11" y2="95.054"/>
				</g>
			</g>
		</g>
		<g>
			
				<path fill="#A1C453" stroke="#333333" stroke-width="1.5923" stroke-linecap="round" stroke-linejoin="round" stroke-miterlimit="10" d="
				M55.786,140.405c2.103-1.454,2.351-3.368,7.655-2.52c5.307,0.849,2.343,4.12,5.835,4.677c-3.492-0.557-1.908,3.55-7.02,2.733
				C57.147,144.478,57.493,142.302,55.786,140.405z"/>
			<g>
				<line fill="none" x1="69.277" y1="142.562" x2="58.822" y2="140.89"/>
				<g>
					<polyline fill="none" stroke="#333333" stroke-width="1.0616" stroke-linecap="round" stroke-miterlimit="10" points="
						68.753,142.478 68.074,142.37 61.582,141.331 60.992,141.237 					"/>
					
						<line fill="none" stroke="#333333" stroke-width="1.0616" stroke-linecap="round" stroke-miterlimit="10" x1="59.347" y1="140.974" x2="59.42" y2="140.985"/>
				</g>
			</g>
		</g>
		<g>
			
				<path fill="#A1C453" stroke="#333333" stroke-width="1.5923" stroke-linecap="round" stroke-linejoin="round" stroke-miterlimit="10" d="
				M58.539,150.757c0.459-2.517-0.72-4.043,3.631-7.195c4.353-3.153,4.57,1.256,7.433-0.818c-2.861,2.074,1.161,3.859-3.028,6.896
				C62.382,152.675,61.09,150.891,58.539,150.757z"/>
			<g>
				<line fill="none" x1="69.603" y1="142.744" x2="61.029" y2="148.955"/>
				<g>
					<polyline fill="none" stroke="#333333" stroke-width="1.0616" stroke-linecap="round" stroke-miterlimit="10" points="
						69.173,143.055 68.615,143.458 63.293,147.314 62.809,147.665 					"/>
					
						<line fill="none" stroke="#333333" stroke-width="1.0616" stroke-linecap="round" stroke-miterlimit="10" x1="61.459" y1="148.643" x2="61.52" y2="148.6"/>
				</g>
			</g>
		</g>
		<g>
			
				<path fill="#A1C453" stroke="#333333" stroke-width="1.0616" stroke-linecap="round" stroke-linejoin="round" stroke-miterlimit="10" d="
				M42.334,115.789c1.006,1.291,0.789,2.508,4.191,3.008c3.404,0.502,2.223-2.065,4.462-1.735c-2.239-0.33-0.482-2.535-3.761-3.018
				C43.948,113.562,43.743,114.958,42.334,115.789z"/>
			<g>
				<line fill="none" x1="50.988" y1="117.062" x2="44.281" y2="116.075"/>
				<g>
					<polyline fill="none" stroke="#333333" stroke-width="1.0616" stroke-linecap="round" stroke-miterlimit="10" points="
						50.463,116.985 49.783,116.885 47.047,116.482 46.455,116.395 					"/>
					
						<line fill="none" stroke="#333333" stroke-width="1.0616" stroke-linecap="round" stroke-miterlimit="10" x1="44.807" y1="116.152" x2="44.88" y2="116.163"/>
				</g>
			</g>
		</g>
		<path fill="#CC924C" stroke="#333333" stroke-width="2.8307" stroke-linecap="round" stroke-miterlimit="10" d="M92.617,160.809
			l-43.89-47.895c-0.754-0.811-0.71-2.081,0.104-2.837l0,0c0.81-0.755,2.08-0.71,2.836,0.101l44.664,47.17"/>
		<g>
			
				<path fill="#A1C453" stroke="#333333" stroke-width="1.0616" stroke-linecap="round" stroke-linejoin="round" stroke-miterlimit="10" d="
				M49.855,108.904c0,0-2.84-1.306-3.468-1.415c-0.503-0.089,1.223,2.773,2.029,3.689L49.855,108.904z"/>
			
				<path fill="#A1C453" stroke="#333333" stroke-width="1.0616" stroke-linecap="round" stroke-linejoin="round" stroke-miterlimit="10" d="
				M47.877,110.402l4.79,0.429c0,0-2.704-3.946-4.669-4.332C47.998,106.499,48.175,108.813,47.877,110.402z"/>
			
				<path fill="#A1C453" stroke="#333333" stroke-width="1.0616" stroke-linecap="round" stroke-linejoin="round" stroke-miterlimit="10" d="
				M51.311,115c0,0-5.439-2.385-6.194-5.815l4.56,0.64L51.311,115z"/>
		</g>
		<g>
			
				<path fill="#FFFFFF" stroke="#333333" stroke-width="1.0616" stroke-linecap="round" stroke-linejoin="round" stroke-miterlimit="10" d="
				M70.105,107.566c0.464-0.106,1.114,0.581,1.546,1.148c0.775,1.021,0.886,3-0.57,3.336c-1.462,0.336-2.236-1.49-1.99-2.747
				C69.229,108.605,69.64,107.673,70.105,107.566z"/>
			
				<path fill="#FFFFFF" stroke="#333333" stroke-width="1.0616" stroke-linecap="round" stroke-linejoin="round" stroke-miterlimit="10" d="
				M70.135,107.444c-0.324-0.348-0.055-1.255,0.221-1.912c0.496-1.183,2.157-2.267,3.175-1.174c1.023,1.099-0.172,2.683-1.384,3.098
				C71.474,107.685,70.46,107.794,70.135,107.444z"/>
			
				<path fill="#FFFFFF" stroke="#333333" stroke-width="1.0616" stroke-linecap="round" stroke-linejoin="round" stroke-miterlimit="10" d="
				M70.021,107.476c-0.14,0.455-1.06,0.675-1.766,0.764c-1.273,0.162-3.042-0.733-2.605-2.161c0.439-1.436,2.409-1.192,3.374-0.352
				C69.561,106.196,70.161,107.019,70.021,107.476z"/>
			
				<path fill="#FFFFFF" stroke="#333333" stroke-width="1.0616" stroke-linecap="round" stroke-linejoin="round" stroke-miterlimit="10" d="
				M69.989,107.631c0.325,0.348,0.055,1.256-0.223,1.913c-0.496,1.183-2.155,2.268-3.174,1.174
				c-1.022-1.098,0.171-2.683,1.383-3.097C68.65,107.391,69.663,107.282,69.989,107.631z"/>
			
				<path fill="#FFFFFF" stroke="#333333" stroke-width="1.0616" stroke-linecap="round" stroke-linejoin="round" stroke-miterlimit="10" d="
				M70.105,107.592c0.14-0.454,1.062-0.675,1.768-0.763c1.271-0.162,3.041,0.733,2.604,2.162c-0.439,1.435-2.408,1.192-3.372,0.351
				C70.566,108.873,69.964,108.05,70.105,107.592z"/>
			
				<path fill="#FFFFFF" stroke="#333333" stroke-width="1.0616" stroke-linecap="round" stroke-linejoin="round" stroke-miterlimit="10" d="
				M70,107.513c-0.464,0.106-1.115-0.58-1.546-1.148c-0.776-1.021-0.887-3,0.57-3.336c1.462-0.337,2.236,1.489,1.99,2.745
				C70.876,106.473,70.466,107.405,70,107.513z"/>
			
				<circle fill="#F9D53E" stroke="#333333" stroke-width="1.0616" stroke-linecap="round" stroke-linejoin="round" stroke-miterlimit="10" cx="69.989" cy="107.631" r="0.987"/>
		</g>
	</g>
</g>
<g id="calque05">
	<g>
		
			<polygon fill="#CC924C" stroke="#333333" stroke-width="0.8493" stroke-linecap="round" stroke-linejoin="round" stroke-miterlimit="10" points="
			42.967,118.565 53.541,118.083 51.498,115.891 		"/>
		
			<polygon fill="#CC924C" stroke="#333333" stroke-width="1.0616" stroke-linecap="round" stroke-linejoin="round" stroke-miterlimit="10" points="
			68.858,106.998 68.323,128.064 66.283,125.872 		"/>
		
			<polygon fill="#CC924C" stroke="#333333" stroke-width="1.0616" stroke-linecap="round" stroke-linejoin="round" stroke-miterlimit="10" points="
			68.734,142.651 76.562,143.427 75.243,142.012 		"/>
		<g>
			
				<path fill="#A1C453" stroke="#333333" stroke-width="1.5923" stroke-linecap="round" stroke-linejoin="round" stroke-miterlimit="10" d="
				M88.497,129.061c-2.618,1.148-4.581,0.26-6.888,5.804c-2.304,5.542,2.543,4.641,1.027,8.289c1.516-3.648,4.495,0.268,6.715-5.071
				S89.3,131.799,88.497,129.061z"/>
			<g>
				<line fill="none" x1="82.638" y1="143.154" x2="87.179" y2="132.232"/>
				<g>
					<polyline fill="none" stroke="#333333" stroke-width="1.0616" stroke-linecap="round" stroke-miterlimit="10" points="
						82.842,142.664 83.105,142.029 86.105,134.813 86.335,134.261 					"/>
					
						<line fill="none" stroke="#333333" stroke-width="1.0616" stroke-linecap="round" stroke-miterlimit="10" x1="86.975" y1="132.722" x2="86.946" y2="132.791"/>
				</g>
			</g>
		</g>
		<g>
			
				<path fill="#A1C453" stroke="#333333" stroke-width="1.5923" stroke-linecap="round" stroke-linejoin="round" stroke-miterlimit="10" d="
				M59.784,92.374c-0.706,3.146-2.826,4.337,0.668,10.14c3.495,5.803,5.92,0.794,8.22,4.613c-2.3-3.819,3.252-3.906-0.115-9.494
				C65.188,92.043,62.812,93.477,59.784,92.374z"/>
			<g>
				<line fill="none" x1="68.672" y1="107.127" x2="61.785" y2="95.694"/>
				<g>
					<polyline fill="none" stroke="#333333" stroke-width="1.0616" stroke-linecap="round" stroke-miterlimit="10" points="
						68.398,106.672 68.043,106.083 63.228,98.088 62.919,97.577 					"/>
					
						<line fill="none" stroke="#333333" stroke-width="1.0616" stroke-linecap="round" stroke-miterlimit="10" x1="62.059" y1="96.148" x2="62.098" y2="96.212"/>
				</g>
			</g>
		</g>
		<g>
			
				<path fill="#A1C453" stroke="#333333" stroke-width="1.5923" stroke-linecap="round" stroke-linejoin="round" stroke-miterlimit="10" d="
				M73.187,90.706c-2.725,1.725-5.066,1.068-6.696,7.643c-1.632,6.575,3.623,4.748,2.551,9.074c1.072-4.326,5.06-0.464,6.63-6.794
				C77.242,94.293,74.547,93.625,73.187,90.706z"/>
			<g>
				<line fill="none" x1="69.04" y1="107.422" x2="72.253" y2="94.469"/>
				<g>
					<polyline fill="none" stroke="#333333" stroke-width="1.0616" stroke-linecap="round" stroke-miterlimit="10" points="
						69.168,106.907 69.333,106.24 71.58,97.182 71.724,96.602 					"/>
					
						<line fill="none" stroke="#333333" stroke-width="1.0616" stroke-linecap="round" stroke-miterlimit="10" x1="72.125" y1="94.984" x2="72.107" y2="95.056"/>
				</g>
			</g>
		</g>
		<g>
			
				<path fill="#A1C453" stroke="#333333" stroke-width="1.5923" stroke-linecap="round" stroke-linejoin="round" stroke-miterlimit="10" d="
				M55.783,140.407c2.104-1.454,2.352-3.368,7.656-2.52c5.306,0.848,2.343,4.119,5.834,4.676c-3.491-0.558-1.908,3.55-7.019,2.733
				C57.145,144.48,57.491,142.304,55.783,140.407z"/>
			<g>
				<line fill="none" x1="69.274" y1="142.564" x2="58.819" y2="140.893"/>
				<g>
					<polyline fill="none" stroke="#333333" stroke-width="1.0616" stroke-linecap="round" stroke-miterlimit="10" points="
						68.75,142.48 68.071,142.372 61.58,141.334 60.989,141.24 					"/>
					
						<line fill="none" stroke="#333333" stroke-width="1.0616" stroke-linecap="round" stroke-miterlimit="10" x1="59.344" y1="140.977" x2="59.417" y2="140.988"/>
				</g>
			</g>
		</g>
		<g>
			
				<path fill="#A1C453" stroke="#333333" stroke-width="1.5923" stroke-linecap="round" stroke-linejoin="round" stroke-miterlimit="10" d="
				M58.536,150.759c0.459-2.517-0.72-4.043,3.632-7.195c4.353-3.153,4.568,1.256,7.432-0.819c-2.862,2.075,1.162,3.86-3.029,6.896
				C62.379,152.678,61.086,150.894,58.536,150.759z"/>
			<g>
				<line fill="none" x1="69.6" y1="142.746" x2="61.027" y2="148.957"/>
				<g>
					<polyline fill="none" stroke="#333333" stroke-width="1.0616" stroke-linecap="round" stroke-miterlimit="10" points="
						69.17,143.057 68.613,143.46 63.291,147.316 62.807,147.667 					"/>
					
						<line fill="none" stroke="#333333" stroke-width="1.0616" stroke-linecap="round" stroke-miterlimit="10" x1="61.457" y1="148.645" x2="61.518" y2="148.602"/>
				</g>
			</g>
		</g>
		<g>
			
				<path fill="#A1C453" stroke="#333333" stroke-width="1.5923" stroke-linecap="round" stroke-linejoin="round" stroke-miterlimit="10" d="
				M25.928,116.055c1.98,2.544,1.554,4.939,8.255,5.926c6.702,0.987,4.374-4.067,8.784-3.416c-4.41-0.651-0.95-4.992-7.404-5.942
				C29.107,111.671,28.702,114.419,25.928,116.055z"/>
			<g>
				<line fill="none" x1="42.967" y1="118.565" x2="29.763" y2="116.62"/>
				<g>
					<polyline fill="none" stroke="#333333" stroke-width="1.0616" stroke-linecap="round" stroke-miterlimit="10" points="
						42.441,118.488 41.762,118.387 32.528,117.027 31.938,116.94 					"/>
					
						<line fill="none" stroke="#333333" stroke-width="1.0616" stroke-linecap="round" stroke-miterlimit="10" x1="30.288" y1="116.697" x2="30.361" y2="116.708"/>
				</g>
			</g>
		</g>
		<g>
			
				<path fill="#A1C453" stroke="#333333" stroke-width="1.0616" stroke-linecap="round" stroke-linejoin="round" stroke-miterlimit="10" d="
				M41.287,127.665c1.439-0.928,2.688-0.589,3.526-4.088s-1.944-2.507-1.394-4.81c-0.552,2.302-2.687,0.266-3.494,3.636
				C39.118,125.776,40.552,126.12,41.287,127.665z"/>
			<g>
				<line fill="none" x1="43.421" y1="118.767" x2="41.767" y2="125.662"/>
				<g>
					<polyline fill="none" stroke="#333333" stroke-width="1.0616" stroke-linecap="round" stroke-miterlimit="10" points="
						43.297,119.283 43.137,119.952 42.419,122.944 42.279,123.525 					"/>
					
						<line fill="none" stroke="#333333" stroke-width="1.0616" stroke-linecap="round" stroke-miterlimit="10" x1="41.891" y1="125.146" x2="41.908" y2="125.073"/>
				</g>
			</g>
		</g>
		<g>
			<g>
				<path fill="#D3F46C" d="M75.186,105.804c2.127,1.736,2.558,6.083,0.707,6.994c-0.545,2.229-4.866,2.443-6.992,0.707
					c-2.126-1.735-3.378-4.492-0.121-6.729C70.229,103.298,73.059,104.069,75.186,105.804z"/>
				<g>
					<path fill="none" stroke="#333333" stroke-width="1.0616" stroke-linecap="round" stroke-miterlimit="10" d="M75.572,106.168
						c0.141,0.181,0.309,0.341,0.425,0.54c0.696,1.009,1.03,2.242,1.063,3.459c0.005,0.61-0.088,1.232-0.356,1.784
						c-0.148,0.266-0.328,0.522-0.581,0.697c-0.348,0.102-0.27,0.515-0.495,0.732c-0.339,0.515-0.899,0.838-1.478,1.025
						c-0.582,0.188-1.197,0.256-1.809,0.246c-1.217-0.033-2.455-0.382-3.424-1.137c-0.935-0.771-1.773-1.759-2.047-2.964
						c-0.302-1.22,0.319-2.473,1.248-3.252c0.212-0.218,0.508-0.355,0.692-0.589c0.134-0.275,0.252-0.559,0.427-0.811
						c0.322-0.515,0.749-0.985,1.299-1.264c0.545-0.283,1.184-0.35,1.784-0.253c0.146,0.025,0.313,0.05,0.438,0.094l0.188,0.054
						c0.129,0.031,0.246,0.09,0.369,0.135"/>
					
						<line fill="none" stroke="#333333" stroke-width="1.0616" stroke-linecap="round" stroke-miterlimit="10" x1="74.765" y1="105.481" x2="74.703" y2="105.439"/>
				</g>
			</g>
			
				<ellipse transform="matrix(-0.2693 -0.9631 0.9631 -0.2693 -19.3435 206.9173)" opacity="0.5" fill="#FFFFFF" enable-background="new    " cx="68.828" cy="110.797" rx="1.137" ry="0.935"/>
		</g>
		<path fill="#CC924C" stroke="#333333" stroke-width="2.8307" stroke-linecap="round" stroke-miterlimit="10" d="M92.613,160.811
			l-49.734-54.175c-0.756-0.813-0.711-2.082,0.1-2.837l0,0c0.813-0.755,2.082-0.71,2.837,0.102l50.516,53.451"/>
		<g>
			
				<path fill="#A1C453" stroke="#333333" stroke-width="1.0616" stroke-linecap="round" stroke-linejoin="round" stroke-miterlimit="10" d="
				M44.002,102.626c0,0-2.84-1.307-3.467-1.416c-0.503-0.089,1.223,2.775,2.027,3.69L44.002,102.626z"/>
			
				<path fill="#A1C453" stroke="#333333" stroke-width="1.0616" stroke-linecap="round" stroke-linejoin="round" stroke-miterlimit="10" d="
				M42.024,104.124l4.789,0.43c0,0-2.703-3.948-4.668-4.333C42.146,100.22,42.321,102.534,42.024,104.124z"/>
			
				<path fill="#A1C453" stroke="#333333" stroke-width="1.0616" stroke-linecap="round" stroke-linejoin="round" stroke-miterlimit="10" d="
				M45.458,108.723c0,0-5.44-2.385-6.195-5.816l4.56,0.64L45.458,108.723z"/>
		</g>
		<g>
			
				<path fill="#FFFFFF" stroke="#333333" stroke-width="1.0616" stroke-linecap="round" stroke-linejoin="round" stroke-miterlimit="10" d="
				M43.836,120.011c0.463-0.107,1.113,0.58,1.544,1.147c0.774,1.021,0.886,3.001-0.569,3.336c-1.463,0.337-2.239-1.489-1.991-2.746
				C42.958,121.05,43.369,120.117,43.836,120.011z"/>
			
				<path fill="#FFFFFF" stroke="#333333" stroke-width="1.0616" stroke-linecap="round" stroke-linejoin="round" stroke-miterlimit="10" d="
				M43.863,119.888c-0.322-0.347-0.055-1.254,0.223-1.911c0.498-1.183,2.155-2.268,3.174-1.175c1.023,1.099-0.171,2.683-1.383,3.098
				C45.201,120.13,44.189,120.239,43.863,119.888z"/>
			
				<path fill="#FFFFFF" stroke="#333333" stroke-width="1.0616" stroke-linecap="round" stroke-linejoin="round" stroke-miterlimit="10" d="
				M43.75,119.92c-0.141,0.456-1.061,0.676-1.768,0.764c-1.272,0.162-3.041-0.733-2.604-2.161c0.438-1.436,2.406-1.193,3.373-0.352
				C43.289,118.641,43.89,119.463,43.75,119.92z"/>
			
				<path fill="#FFFFFF" stroke="#333333" stroke-width="1.0616" stroke-linecap="round" stroke-linejoin="round" stroke-miterlimit="10" d="
				M43.719,120.076c0.323,0.348,0.055,1.255-0.223,1.912c-0.498,1.183-2.155,2.268-3.175,1.174
				c-1.022-1.099,0.172-2.682,1.384-3.097C42.38,119.835,43.392,119.726,43.719,120.076z"/>
			
				<path fill="#FFFFFF" stroke="#333333" stroke-width="1.0616" stroke-linecap="round" stroke-linejoin="round" stroke-miterlimit="10" d="
				M43.836,120.037c0.137-0.454,1.059-0.674,1.765-0.763c1.273-0.162,3.042,0.733,2.604,2.161c-0.44,1.436-2.408,1.193-3.373,0.351
				C44.296,121.317,43.694,120.494,43.836,120.037z"/>
			
				<path fill="#FFFFFF" stroke="#333333" stroke-width="1.0616" stroke-linecap="round" stroke-linejoin="round" stroke-miterlimit="10" d="
				M43.729,119.957c-0.463,0.107-1.115-0.581-1.544-1.148c-0.776-1.021-0.888-3,0.568-3.335c1.464-0.338,2.238,1.488,1.99,2.745
				C44.606,118.917,44.193,119.849,43.729,119.957z"/>
			
				<circle fill="#F9D53E" stroke="#333333" stroke-width="1.0616" stroke-linecap="round" stroke-linejoin="round" stroke-miterlimit="10" cx="43.719" cy="120.076" r="0.987"/>
		</g>
	</g>
</g>
<g id="calque06">
	<g>
		
			<polygon fill="#CC924C" stroke="#333333" stroke-width="0.8493" stroke-linecap="round" stroke-linejoin="round" stroke-miterlimit="10" points="
			42.971,118.563 53.543,118.082 51.501,115.889 		"/>
		
			<polygon fill="#CC924C" stroke="#333333" stroke-width="1.0616" stroke-linecap="round" stroke-linejoin="round" stroke-miterlimit="10" points="
			68.861,106.996 68.325,128.063 66.285,125.87 		"/>
		
			<polygon fill="#CC924C" stroke="#333333" stroke-width="1.0616" stroke-linecap="round" stroke-linejoin="round" stroke-miterlimit="10" points="
			68.736,142.649 76.565,143.424 75.247,142.009 		"/>
		<g>
			
				<path fill="#A1C453" stroke="#333333" stroke-width="1.5923" stroke-linecap="round" stroke-linejoin="round" stroke-miterlimit="10" d="
				M88.499,129.059c-2.616,1.149-4.581,0.26-6.887,5.803c-2.304,5.543,2.543,4.642,1.027,8.29c1.516-3.648,4.494,0.268,6.714-5.072
				C91.574,132.742,89.303,131.796,88.499,129.059z"/>
			<g>
				<line fill="none" x1="82.641" y1="143.152" x2="87.181" y2="132.23"/>
				<g>
					<polyline fill="none" stroke="#333333" stroke-width="1.0616" stroke-linecap="round" stroke-miterlimit="10" points="
						82.845,142.662 83.108,142.027 86.107,134.811 86.337,134.259 					"/>
					
						<line fill="none" stroke="#333333" stroke-width="1.0616" stroke-linecap="round" stroke-miterlimit="10" x1="86.977" y1="132.72" x2="86.948" y2="132.789"/>
				</g>
			</g>
		</g>
		<g>
			
				<path fill="#A1C453" stroke="#333333" stroke-width="1.0616" stroke-linecap="round" stroke-linejoin="round" stroke-miterlimit="10" d="
				M46.169,94.972c1.292,1.133,2.581,0.979,2.898,4.577c0.318,3.598-2.299,2.204-2.089,4.571c-0.21-2.368-2.628-0.66-2.936-4.125
				C43.735,96.53,45.212,96.399,46.169,94.972z"/>
			<g>
				<line fill="none" x1="46.979" y1="104.121" x2="46.351" y2="97.031"/>
				<g>
					<polyline fill="none" stroke="#333333" stroke-width="1.0616" stroke-linecap="round" stroke-miterlimit="10" points="
						46.933,103.592 46.872,102.907 46.598,99.816 46.545,99.22 					"/>
					
						<line fill="none" stroke="#333333" stroke-width="1.0616" stroke-linecap="round" stroke-miterlimit="10" x1="46.397" y1="97.56" x2="46.404" y2="97.634"/>
				</g>
			</g>
		</g>
		<g>
			
				<path fill="#A1C453" stroke="#333333" stroke-width="1.5923" stroke-linecap="round" stroke-linejoin="round" stroke-miterlimit="10" d="
				M59.788,92.371c-0.708,3.146-2.828,4.338,0.666,10.141c3.496,5.803,5.92,0.793,8.221,4.612c-2.301-3.819,3.251-3.906-0.116-9.495
				C65.192,92.04,62.813,93.474,59.788,92.371z"/>
			<g>
				<line fill="none" x1="68.675" y1="107.125" x2="61.788" y2="95.691"/>
				<g>
					<polyline fill="none" stroke="#333333" stroke-width="1.0616" stroke-linecap="round" stroke-miterlimit="10" points="
						68.4,106.67 68.046,106.081 63.23,98.086 62.922,97.574 					"/>
					
						<line fill="none" stroke="#333333" stroke-width="1.0616" stroke-linecap="round" stroke-miterlimit="10" x1="62.063" y1="96.146" x2="62.101" y2="96.21"/>
				</g>
			</g>
		</g>
		<g>
			
				<path fill="#A1C453" stroke="#333333" stroke-width="1.5923" stroke-linecap="round" stroke-linejoin="round" stroke-miterlimit="10" d="
				M73.188,90.704c-2.725,1.726-5.064,1.068-6.696,7.643c-1.632,6.575,3.625,4.748,2.551,9.075c1.074-4.327,5.06-0.464,6.63-6.795
				C77.244,94.291,74.55,93.623,73.188,90.704z"/>
			<g>
				<line fill="none" x1="69.042" y1="107.421" x2="72.256" y2="94.466"/>
				<g>
					<polyline fill="none" stroke="#333333" stroke-width="1.0616" stroke-linecap="round" stroke-miterlimit="10" points="
						69.17,106.906 69.336,106.238 71.583,97.179 71.727,96.6 					"/>
					
						<line fill="none" stroke="#333333" stroke-width="1.0616" stroke-linecap="round" stroke-miterlimit="10" x1="72.128" y1="94.981" x2="72.11" y2="95.054"/>
				</g>
			</g>
		</g>
		<g>
			
				<path fill="#A1C453" stroke="#333333" stroke-width="1.5923" stroke-linecap="round" stroke-linejoin="round" stroke-miterlimit="10" d="
				M55.786,140.405c2.103-1.454,2.351-3.368,7.655-2.52c5.307,0.849,2.343,4.12,5.835,4.677c-3.492-0.557-1.909,3.55-7.02,2.733
				S57.493,142.302,55.786,140.405z"/>
			<g>
				<line fill="none" x1="69.277" y1="142.562" x2="58.822" y2="140.89"/>
				<g>
					<polyline fill="none" stroke="#333333" stroke-width="1.0616" stroke-linecap="round" stroke-miterlimit="10" points="
						68.753,142.478 68.074,142.37 61.582,141.332 60.992,141.237 					"/>
					
						<line fill="none" stroke="#333333" stroke-width="1.0616" stroke-linecap="round" stroke-miterlimit="10" x1="59.347" y1="140.974" x2="59.42" y2="140.986"/>
				</g>
			</g>
		</g>
		<g>
			
				<path fill="#A1C453" stroke="#333333" stroke-width="1.5923" stroke-linecap="round" stroke-linejoin="round" stroke-miterlimit="10" d="
				M58.539,150.757c0.459-2.517-0.72-4.043,3.631-7.195c4.353-3.154,4.57,1.255,7.433-0.819c-2.861,2.074,1.161,3.859-3.028,6.896
				C62.382,152.675,61.09,150.891,58.539,150.757z"/>
			<g>
				<line fill="none" x1="69.603" y1="142.744" x2="61.029" y2="148.955"/>
				<g>
					<polyline fill="none" stroke="#333333" stroke-width="1.0616" stroke-linecap="round" stroke-miterlimit="10" points="
						69.173,143.055 68.615,143.458 63.293,147.314 62.809,147.665 					"/>
					
						<line fill="none" stroke="#333333" stroke-width="1.0616" stroke-linecap="round" stroke-miterlimit="10" x1="61.459" y1="148.643" x2="61.52" y2="148.6"/>
				</g>
			</g>
		</g>
		<g>
			
				<path fill="#A1C453" stroke="#333333" stroke-width="1.0616" stroke-linecap="round" stroke-linejoin="round" stroke-miterlimit="10" d="
				M35.017,124.694c1.739,0.217,2.495,1.301,5.452-0.895c2.957-2.197,0.117-3.245,2.063-4.69c-1.946,1.445-2.284-1.553-5.132,0.562
				C34.553,121.787,35.453,122.999,35.017,124.694z"/>
			<g>
				<line fill="none" x1="42.532" y1="119.109" x2="36.707" y2="123.437"/>
				<g>
					<polyline fill="none" stroke="#333333" stroke-width="1.0616" stroke-linecap="round" stroke-miterlimit="10" points="
						42.106,119.425 41.554,119.835 38.951,121.77 38.471,122.126 					"/>
					
						<line fill="none" stroke="#333333" stroke-width="1.0616" stroke-linecap="round" stroke-miterlimit="10" x1="37.133" y1="123.121" x2="37.193" y2="123.076"/>
				</g>
			</g>
		</g>
		<g>
			
				<path fill="#A1C453" stroke="#333333" stroke-width="1.5923" stroke-linecap="round" stroke-linejoin="round" stroke-miterlimit="10" d="
				M25.93,116.052c1.981,2.544,1.554,4.939,8.256,5.927c6.702,0.987,4.373-4.067,8.785-3.416c-4.412-0.651-0.952-4.993-7.405-5.943
				C29.109,111.669,28.704,114.417,25.93,116.052z"/>
			<g>
				<line fill="none" x1="42.971" y1="118.563" x2="29.766" y2="116.617"/>
				<g>
					<polyline fill="none" stroke="#333333" stroke-width="1.0616" stroke-linecap="round" stroke-miterlimit="10" points="
						42.445,118.485 41.766,118.385 32.531,117.024 31.939,116.937 					"/>
					
						<line fill="none" stroke="#333333" stroke-width="1.0616" stroke-linecap="round" stroke-miterlimit="10" x1="30.291" y1="116.694" x2="30.364" y2="116.705"/>
				</g>
			</g>
		</g>
		<g>
			
				<path fill="#A1C453" stroke="#333333" stroke-width="1.5923" stroke-linecap="round" stroke-linejoin="round" stroke-miterlimit="10" d="
				M40.152,132.064c2.131-1.371,3.974-0.869,5.217-6.044c1.24-5.177-2.878-3.708-2.061-7.113c-0.817,3.405-3.973,0.396-5.168,5.379
				C36.944,129.271,39.066,129.779,40.152,132.064z"/>
			<g>
				<line fill="none" x1="43.309" y1="118.907" x2="40.862" y2="129.103"/>
				<g>
					<polyline fill="none" stroke="#333333" stroke-width="1.0616" stroke-linecap="round" stroke-miterlimit="10" points="
						43.185,119.423 43.024,120.092 41.515,126.384 41.375,126.965 					"/>
					
						<line fill="none" stroke="#333333" stroke-width="1.0616" stroke-linecap="round" stroke-miterlimit="10" x1="40.986" y1="128.586" x2="41.004" y2="128.514"/>
				</g>
			</g>
		</g>
		<g>
			<g>
				<path fill="#D3F46C" d="M77.844,106.071c2.885,2.354,3.468,8.249,0.96,9.484c-0.739,3.023-6.6,3.313-9.483,0.958
					c-2.884-2.353-4.58-6.093-0.163-9.125C71.122,102.671,74.962,103.717,77.844,106.071z"/>
				<g>
					<path fill="none" stroke="#333333" stroke-width="1.5923" stroke-linecap="round" stroke-miterlimit="10" d="M78.416,106.623
						c0.222,0.263,0.446,0.524,0.624,0.82c0.89,1.372,1.333,3.015,1.342,4.645c-0.006,0.813-0.128,1.647-0.513,2.374
						c-0.204,0.35-0.448,0.693-0.793,0.916l-0.257,0.167c-0.055,0.081-0.075,0.188-0.114,0.28c-0.058,0.199-0.157,0.375-0.277,0.542
						c-0.459,0.683-1.207,1.114-1.976,1.366c-0.777,0.253-1.6,0.348-2.415,0.34c-1.621-0.048-3.286-0.472-4.593-1.47
						c-1.265-1.009-2.398-2.306-2.837-3.896c-0.212-0.789-0.193-1.641,0.081-2.412c0.263-0.779,0.779-1.444,1.366-2.005
						c0.284-0.295,0.616-0.535,0.941-0.781c0.195-0.096,0.238-0.317,0.337-0.494c0.094-0.182,0.164-0.375,0.274-0.547
						c0.396-0.712,0.938-1.355,1.624-1.8c0.686-0.447,1.521-0.635,2.335-0.571c0.199-0.003,0.417,0.055,0.595,0.081
						c0.097,0.017,0.193,0.03,0.288,0.062c0.188,0.058,0.38,0.103,0.563,0.17"/>
					
						<line fill="none" stroke="#333333" stroke-width="1.5923" stroke-linecap="round" stroke-miterlimit="10" x1="77.21" y1="105.589" x2="77.117" y2="105.526"/>
				</g>
			</g>
			<path opacity="0.5" fill="#FFFFFF" enable-background="new    " d="M70.453,112.503c0.23,0.819-0.128,1.637-0.802,1.827
				c-0.676,0.188-1.409-0.323-1.642-1.143c-0.23-0.82,0.129-1.637,0.802-1.826C69.489,111.171,70.223,111.683,70.453,112.503z"/>
		</g>
		<path fill="#CC924C" stroke="#333333" stroke-width="2.8307" stroke-linecap="round" stroke-miterlimit="10" d="M92.617,160.809
			l-54.853-59.665c-0.756-0.811-0.711-2.081,0.1-2.837l0,0c0.813-0.755,2.083-0.71,2.84,0.101l55.627,58.941"/>
		<g>
			
				<path fill="#A1C453" stroke="#333333" stroke-width="1.0616" stroke-linecap="round" stroke-linejoin="round" stroke-miterlimit="10" d="
				M38.89,97.133c0,0-2.838-1.306-3.467-1.414c-0.502-0.091,1.224,2.773,2.03,3.689L38.89,97.133z"/>
			
				<path fill="#A1C453" stroke="#333333" stroke-width="1.0616" stroke-linecap="round" stroke-linejoin="round" stroke-miterlimit="10" d="
				M36.912,98.631l4.789,0.43c0,0-2.703-3.947-4.666-4.333C37.035,94.728,37.211,97.042,36.912,98.631z"/>
			
				<path fill="#A1C453" stroke="#333333" stroke-width="1.0616" stroke-linecap="round" stroke-linejoin="round" stroke-miterlimit="10" d="
				M40.346,103.229c0,0-5.44-2.384-6.195-5.815l4.562,0.64L40.346,103.229z"/>
		</g>
		<g>
			<g>
				<path fill="#D3F46C" d="M48.901,119.648c2.128,1.735,2.559,6.083,0.708,6.992c-0.545,2.23-4.865,2.444-6.991,0.708
					c-2.129-1.735-3.377-4.493-0.12-6.728C43.944,117.142,46.775,117.913,48.901,119.648z"/>
				<g>
					<path fill="none" stroke="#333333" stroke-width="1.0616" stroke-linecap="round" stroke-miterlimit="10" d="M49.288,120.012
						c0.14,0.181,0.308,0.341,0.425,0.54c0.697,1.009,1.031,2.242,1.063,3.459c0.005,0.609-0.088,1.232-0.356,1.784
						c-0.148,0.266-0.328,0.522-0.581,0.697c-0.347,0.101-0.27,0.516-0.495,0.732c-0.339,0.515-0.899,0.839-1.476,1.026
						c-0.583,0.188-1.198,0.256-1.811,0.246c-1.217-0.033-2.454-0.382-3.424-1.137c-0.934-0.771-1.773-1.758-2.047-2.964
						c-0.301-1.22,0.319-2.474,1.248-3.252c0.212-0.218,0.508-0.355,0.693-0.589c0.134-0.275,0.251-0.559,0.427-0.811
						c0.321-0.515,0.748-0.985,1.297-1.264c0.545-0.284,1.184-0.35,1.785-0.253c0.146,0.025,0.313,0.05,0.438,0.093l0.188,0.055
						c0.129,0.031,0.246,0.09,0.368,0.135"/>
					
						<line fill="none" stroke="#333333" stroke-width="1.0616" stroke-linecap="round" stroke-miterlimit="10" x1="48.48" y1="119.325" x2="48.419" y2="119.283"/>
				</g>
			</g>
			
				<ellipse transform="matrix(-0.2697 -0.9629 0.9629 -0.2697 -65.9948 199.228)" opacity="0.5" fill="#FFFFFF" enable-background="new    " cx="42.548" cy="124.639" rx="1.137" ry="0.935"/>
		</g>
	</g>
</g>
<g id="calque07">
	<g>
		
			<polygon fill="#CC924C" stroke="#333333" stroke-width="1.0616" stroke-linecap="round" stroke-linejoin="round" stroke-miterlimit="10" points="
			47.418,95.913 47.365,105.785 45.322,103.593 		"/>
		
			<polygon fill="#CC924C" stroke="#333333" stroke-width="0.8493" stroke-linecap="round" stroke-linejoin="round" stroke-miterlimit="10" points="
			42.967,118.565 53.541,118.083 51.498,115.891 		"/>
		
			<polygon fill="#CC924C" stroke="#333333" stroke-width="1.0616" stroke-linecap="round" stroke-linejoin="round" stroke-miterlimit="10" points="
			68.858,106.998 68.323,128.064 66.283,125.872 		"/>
		
			<polygon fill="#CC924C" stroke="#333333" stroke-width="1.0616" stroke-linecap="round" stroke-linejoin="round" stroke-miterlimit="10" points="
			68.733,142.652 76.562,143.427 75.243,142.012 		"/>
		<g>
			
				<path fill="#A1C453" stroke="#333333" stroke-width="1.5923" stroke-linecap="round" stroke-linejoin="round" stroke-miterlimit="10" d="
				M88.497,129.061c-2.618,1.148-4.581,0.26-6.888,5.804c-2.304,5.542,2.543,4.641,1.027,8.289c1.516-3.648,4.495,0.268,6.715-5.071
				S89.3,131.799,88.497,129.061z"/>
			<g>
				<line fill="none" x1="82.638" y1="143.154" x2="87.179" y2="132.232"/>
				<g>
					<polyline fill="none" stroke="#333333" stroke-width="1.0616" stroke-linecap="round" stroke-miterlimit="10" points="
						82.842,142.664 83.105,142.029 86.105,134.813 86.335,134.262 					"/>
					
						<line fill="none" stroke="#333333" stroke-width="1.0616" stroke-linecap="round" stroke-miterlimit="10" x1="86.975" y1="132.723" x2="86.946" y2="132.792"/>
				</g>
			</g>
		</g>
		<g>
			
				<path fill="#A1C453" stroke="#333333" stroke-width="1.5923" stroke-linecap="round" stroke-linejoin="round" stroke-miterlimit="10" d="
				M46.068,80.71c2.15,1.882,4.291,1.625,4.821,7.606c0.53,5.979-3.822,3.661-3.472,7.596c-0.352-3.935-4.367-1.096-4.879-6.855
				C42.028,83.299,44.479,83.08,46.068,80.71z"/>
			<g>
				<line fill="none" x1="47.418" y1="95.913" x2="46.372" y2="84.132"/>
				<g>
					<polyline fill="none" stroke="#333333" stroke-width="1.0616" stroke-linecap="round" stroke-miterlimit="10" points="
						47.371,95.384 47.311,94.699 46.619,86.917 46.566,86.321 					"/>
					
						<line fill="none" stroke="#333333" stroke-width="1.0616" stroke-linecap="round" stroke-miterlimit="10" x1="46.419" y1="84.661" x2="46.426" y2="84.735"/>
				</g>
			</g>
		</g>
		<g>
			
				<path fill="#A1C453" stroke="#333333" stroke-width="1.5923" stroke-linecap="round" stroke-linejoin="round" stroke-miterlimit="10" d="
				M59.784,92.374c-0.706,3.146-2.827,4.337,0.668,10.14c3.495,5.803,5.92,0.794,8.22,4.613c-2.3-3.818,3.252-3.906-0.115-9.494
				C65.188,92.043,62.811,93.477,59.784,92.374z"/>
			<g>
				<line fill="none" x1="68.672" y1="107.127" x2="61.785" y2="95.694"/>
				<g>
					<polyline fill="none" stroke="#333333" stroke-width="1.0616" stroke-linecap="round" stroke-miterlimit="10" points="
						68.398,106.672 68.043,106.083 63.228,98.088 62.919,97.577 					"/>
					
						<line fill="none" stroke="#333333" stroke-width="1.0616" stroke-linecap="round" stroke-miterlimit="10" x1="62.059" y1="96.148" x2="62.098" y2="96.212"/>
				</g>
			</g>
		</g>
		<g>
			
				<path fill="#A1C453" stroke="#333333" stroke-width="1.5923" stroke-linecap="round" stroke-linejoin="round" stroke-miterlimit="10" d="
				M73.186,90.707c-2.724,1.725-5.065,1.067-6.695,7.642c-1.632,6.575,3.623,4.748,2.551,9.074c1.072-4.326,5.06-0.464,6.63-6.794
				C77.242,94.293,74.546,93.625,73.186,90.707z"/>
			<g>
				<line fill="none" x1="69.04" y1="107.422" x2="72.253" y2="94.469"/>
				<g>
					<polyline fill="none" stroke="#333333" stroke-width="1.0616" stroke-linecap="round" stroke-miterlimit="10" points="
						69.168,106.907 69.333,106.24 71.58,97.182 71.724,96.602 					"/>
					
						<line fill="none" stroke="#333333" stroke-width="1.0616" stroke-linecap="round" stroke-miterlimit="10" x1="72.125" y1="94.984" x2="72.107" y2="95.056"/>
				</g>
			</g>
		</g>
		<g>
			
				<path fill="#A1C453" stroke="#333333" stroke-width="1.5923" stroke-linecap="round" stroke-linejoin="round" stroke-miterlimit="10" d="
				M55.783,140.407c2.104-1.454,2.352-3.368,7.656-2.52c5.306,0.848,2.343,4.119,5.834,4.677c-3.491-0.558-1.908,3.55-7.019,2.733
				S57.491,142.304,55.783,140.407z"/>
			<g>
				<line fill="none" x1="69.274" y1="142.564" x2="58.819" y2="140.893"/>
				<g>
					<polyline fill="none" stroke="#333333" stroke-width="1.0616" stroke-linecap="round" stroke-miterlimit="10" points="
						68.75,142.48 68.071,142.372 61.58,141.334 60.989,141.24 					"/>
					
						<line fill="none" stroke="#333333" stroke-width="1.0616" stroke-linecap="round" stroke-miterlimit="10" x1="59.344" y1="140.977" x2="59.417" y2="140.988"/>
				</g>
			</g>
		</g>
		<g>
			
				<path fill="#A1C453" stroke="#333333" stroke-width="1.5923" stroke-linecap="round" stroke-linejoin="round" stroke-miterlimit="10" d="
				M58.536,150.759c0.459-2.517-0.72-4.043,3.632-7.195c4.353-3.153,4.567,1.256,7.432-0.819c-2.863,2.075,1.162,3.86-3.029,6.896
				C62.379,152.678,61.086,150.894,58.536,150.759z"/>
			<g>
				<line fill="none" x1="69.6" y1="142.746" x2="61.027" y2="148.957"/>
				<g>
					<polyline fill="none" stroke="#333333" stroke-width="1.0616" stroke-linecap="round" stroke-miterlimit="10" points="
						69.17,143.057 68.613,143.46 63.291,147.316 62.807,147.667 					"/>
					
						<line fill="none" stroke="#333333" stroke-width="1.0616" stroke-linecap="round" stroke-miterlimit="10" x1="61.457" y1="148.645" x2="61.518" y2="148.602"/>
				</g>
			</g>
		</g>
		<g>
			
				<path fill="#A1C453" stroke="#333333" stroke-width="1.5923" stroke-linecap="round" stroke-linejoin="round" stroke-miterlimit="10" d="
				M28.885,129.231c3.2,0.4,4.592,2.395,10.028-1.645c5.437-4.042,0.217-5.969,3.796-8.628c-3.579,2.659-4.202-2.856-9.438,1.035
				C28.033,123.885,29.689,126.113,28.885,129.231z"/>
			<g>
				<line fill="none" x1="42.709" y1="118.958" x2="31.996" y2="126.919"/>
				<g>
					<polyline fill="none" stroke="#333333" stroke-width="1.0616" stroke-linecap="round" stroke-miterlimit="10" points="
						42.283,119.274 41.73,119.685 34.24,125.252 33.76,125.608 					"/>
					
						<line fill="none" stroke="#333333" stroke-width="1.0616" stroke-linecap="round" stroke-miterlimit="10" x1="32.422" y1="126.603" x2="32.482" y2="126.558"/>
				</g>
			</g>
		</g>
		<g>
			
				<path fill="#A1C453" stroke="#333333" stroke-width="1.5923" stroke-linecap="round" stroke-linejoin="round" stroke-miterlimit="10" d="
				M25.928,116.055c1.98,2.544,1.554,4.939,8.254,5.927c6.703,0.987,4.375-4.067,8.785-3.416c-4.41-0.651-0.95-4.993-7.404-5.943
				C29.106,111.672,28.702,114.419,25.928,116.055z"/>
			<g>
				<line fill="none" x1="42.967" y1="118.565" x2="29.763" y2="116.62"/>
				<g>
					<polyline fill="none" stroke="#333333" stroke-width="1.0616" stroke-linecap="round" stroke-miterlimit="10" points="
						42.441,118.488 41.762,118.388 32.528,117.027 31.938,116.94 					"/>
					
						<line fill="none" stroke="#333333" stroke-width="1.0616" stroke-linecap="round" stroke-miterlimit="10" x1="30.288" y1="116.697" x2="30.361" y2="116.708"/>
				</g>
			</g>
		</g>
		<g>
			
				<path fill="#A1C453" stroke="#333333" stroke-width="1.5923" stroke-linecap="round" stroke-linejoin="round" stroke-miterlimit="10" d="
				M40.15,132.066c2.13-1.371,3.974-0.87,5.216-6.044c1.241-5.176-2.878-3.708-2.06-7.113c-0.818,3.405-3.973,0.394-5.168,5.378
				C36.942,129.272,39.063,129.782,40.15,132.066z"/>
			<g>
				<line fill="none" x1="43.307" y1="118.909" x2="40.86" y2="129.105"/>
				<g>
					<polyline fill="none" stroke="#333333" stroke-width="1.0616" stroke-linecap="round" stroke-miterlimit="10" points="
						43.183,119.425 43.022,120.094 41.513,126.387 41.373,126.968 					"/>
					
						<line fill="none" stroke="#333333" stroke-width="1.0616" stroke-linecap="round" stroke-miterlimit="10" x1="40.984" y1="128.589" x2="41.002" y2="128.516"/>
				</g>
			</g>
		</g>
		<g>
			<g>
				<path fill="#EF4529" d="M77.842,106.073c2.884,2.355,3.467,8.249,0.96,9.484c-0.74,3.023-6.602,3.313-9.484,0.959
					c-2.884-2.354-4.58-6.094-0.163-9.125C71.12,102.674,74.958,103.72,77.842,106.073z"/>
				<g>
					<path fill="none" stroke="#333333" stroke-width="1.5923" stroke-linecap="round" stroke-miterlimit="10" d="M78.414,106.625
						c0.222,0.263,0.445,0.524,0.623,0.82c0.89,1.372,1.334,3.015,1.342,4.645c-0.006,0.813-0.128,1.647-0.512,2.374
						c-0.205,0.351-0.448,0.693-0.793,0.916l-0.258,0.168c-0.054,0.081-0.074,0.188-0.114,0.28
						c-0.057,0.199-0.156,0.375-0.276,0.542c-0.459,0.683-1.207,1.114-1.977,1.366c-0.777,0.253-1.6,0.348-2.415,0.34
						c-1.621-0.048-3.286-0.471-4.593-1.47c-1.265-1.009-2.398-2.306-2.837-3.896c-0.212-0.789-0.192-1.641,0.081-2.412
						c0.263-0.78,0.78-1.445,1.366-2.006c0.285-0.295,0.616-0.535,0.942-0.781c0.195-0.097,0.238-0.317,0.337-0.494
						c0.093-0.181,0.164-0.375,0.274-0.546c0.396-0.713,0.938-1.356,1.624-1.801c0.686-0.447,1.521-0.635,2.335-0.571
						c0.199-0.003,0.416,0.055,0.595,0.081c0.097,0.017,0.193,0.03,0.286,0.062c0.188,0.058,0.381,0.103,0.564,0.17"/>
					
						<line fill="none" stroke="#333333" stroke-width="1.5923" stroke-linecap="round" stroke-miterlimit="10" x1="77.208" y1="105.591" x2="77.115" y2="105.528"/>
				</g>
			</g>
			
				<ellipse transform="matrix(-0.27 -0.9629 0.9629 -0.27 -20.7366 209.9655)" opacity="0.5" fill="#FFFFFF" enable-background="new    " cx="69.229" cy="112.844" rx="1.543" ry="1.269"/>
		</g>
		<g>
			<g>
				<path fill="#D3F46C" d="M51.602,122.254c1.558,3.38-0.505,8.934-3.302,8.942c-1.99,2.392-7.384,0.079-8.942-3.302
					c-1.557-3.38-1.438-7.486,3.86-8.271C47.055,116.249,50.045,118.873,51.602,122.254z"/>
				<g>
					<path fill="none" stroke="#333333" stroke-width="1.5923" stroke-linecap="round" stroke-miterlimit="10" d="M51.874,123.002
						c0.083,0.334,0.171,0.667,0.198,1.011c0.196,1.624-0.126,3.294-0.834,4.762c-0.36,0.728-0.838,1.424-1.502,1.908
						c-0.338,0.225-0.707,0.425-1.114,0.474l-0.305,0.038c-0.084,0.05-0.149,0.136-0.227,0.202
						c-0.138,0.154-0.306,0.269-0.486,0.366c-0.713,0.412-1.574,0.471-2.376,0.359c-0.809-0.114-1.589-0.39-2.317-0.755
						c-1.437-0.755-2.746-1.867-3.481-3.337c-0.692-1.462-1.143-3.125-0.836-4.746c0.155-0.801,0.546-1.559,1.131-2.131
						c0.578-0.585,1.336-0.956,2.108-1.202c0.386-0.14,0.788-0.21,1.188-0.289c0.22,0,0.354-0.181,0.521-0.296
						c0.163-0.122,0.312-0.265,0.486-0.37c0.669-0.466,1.438-0.806,2.25-0.905c0.813-0.101,1.646,0.098,2.349,0.513
						c0.181,0.085,0.351,0.233,0.498,0.333c0.08,0.058,0.162,0.113,0.23,0.182c0.145,0.134,0.296,0.259,0.434,0.401"/>
					
						<line fill="none" stroke="#333333" stroke-width="1.5923" stroke-linecap="round" stroke-miterlimit="10" x1="51.243" y1="121.543" x2="51.188" y2="121.446"/>
				</g>
			</g>
			
				<ellipse transform="matrix(0.1805 -0.9836 0.9836 0.1805 -89.0099 142.2959)" opacity="0.5" fill="#FFFFFF" enable-background="new    " cx="40.888" cy="124.563" rx="1.542" ry="1.269"/>
		</g>
		<path fill="#CC924C" stroke="#333333" stroke-width="2.8307" stroke-linecap="round" stroke-miterlimit="10" d="M92.613,160.811
			L33.32,96.376c-0.756-0.811-0.71-2.081,0.102-2.836l0,0c0.812-0.756,2.081-0.711,2.837,0.1l60.071,63.711"/>
		<g>
			
				<path fill="#A1C453" stroke="#333333" stroke-width="1.0616" stroke-linecap="round" stroke-linejoin="round" stroke-miterlimit="10" d="
				M34.445,92.367c0,0-2.839-1.307-3.466-1.416c-0.504-0.09,1.223,2.774,2.028,3.69L34.445,92.367z"/>
			
				<path fill="#A1C453" stroke="#333333" stroke-width="1.0616" stroke-linecap="round" stroke-linejoin="round" stroke-miterlimit="10" d="
				M32.466,93.864l4.79,0.429c0,0-2.703-3.947-4.667-4.333C32.589,89.961,32.765,92.274,32.466,93.864z"/>
			
				<path fill="#A1C453" stroke="#333333" stroke-width="1.0616" stroke-linecap="round" stroke-linejoin="round" stroke-miterlimit="10" d="
				M35.9,98.462c0,0-5.438-2.385-6.194-5.816l4.561,0.641L35.9,98.462z"/>
		</g>
	</g>
</g>
<g id="calque08">
	<g>
		
			<polygon fill="#CC924C" stroke="#333333" stroke-width="1.0616" stroke-linecap="round" stroke-linejoin="round" stroke-miterlimit="10" points="
			47.418,95.913 47.365,105.785 45.322,103.593 		"/>
		
			<polygon fill="#CC924C" stroke="#333333" stroke-width="0.8493" stroke-linecap="round" stroke-linejoin="round" stroke-miterlimit="10" points="
			42.967,118.565 53.54,118.084 51.498,115.892 		"/>
		
			<polygon fill="#CC924C" stroke="#333333" stroke-width="1.0616" stroke-linecap="round" stroke-linejoin="round" stroke-miterlimit="10" points="
			68.858,106.998 68.323,128.064 66.283,125.872 		"/>
		
			<polygon fill="#CC924C" stroke="#333333" stroke-width="1.0616" stroke-linecap="round" stroke-linejoin="round" stroke-miterlimit="10" points="
			68.733,142.652 76.562,143.427 75.243,142.012 		"/>
		<g>
			
				<path fill="#A1C453" stroke="#333333" stroke-width="1.5923" stroke-linecap="round" stroke-linejoin="round" stroke-miterlimit="10" d="
				M88.497,129.061c-2.618,1.148-4.581,0.261-6.888,5.804c-2.304,5.542,2.543,4.641,1.027,8.289
				c1.516-3.648,4.495,0.268,6.714-5.071C91.572,132.743,89.3,131.799,88.497,129.061z"/>
			<g>
				<line fill="none" x1="82.638" y1="143.154" x2="87.179" y2="132.232"/>
				<g>
					<polyline fill="none" stroke="#333333" stroke-width="1.0616" stroke-linecap="round" stroke-miterlimit="10" points="
						82.842,142.664 83.105,142.029 86.105,134.813 86.335,134.262 					"/>
					
						<line fill="none" stroke="#333333" stroke-width="1.0616" stroke-linecap="round" stroke-miterlimit="10" x1="86.975" y1="132.723" x2="86.946" y2="132.792"/>
				</g>
			</g>
		</g>
		<g>
			
				<path fill="#A1C453" stroke="#333333" stroke-width="1.5923" stroke-linecap="round" stroke-linejoin="round" stroke-miterlimit="10" d="
				M46.068,80.71c2.15,1.882,4.291,1.626,4.821,7.606c0.529,5.98-3.822,3.661-3.472,7.596c-0.352-3.935-4.367-1.096-4.879-6.855
				C42.028,83.299,44.479,83.08,46.068,80.71z"/>
			<g>
				<line fill="none" x1="47.418" y1="95.913" x2="46.372" y2="84.132"/>
				<g>
					<polyline fill="none" stroke="#333333" stroke-width="1.0616" stroke-linecap="round" stroke-miterlimit="10" points="
						47.371,95.384 47.311,94.699 46.619,86.917 46.566,86.321 					"/>
					
						<line fill="none" stroke="#333333" stroke-width="1.0616" stroke-linecap="round" stroke-miterlimit="10" x1="46.419" y1="84.661" x2="46.426" y2="84.735"/>
				</g>
			</g>
		</g>
		<g>
			
				<path fill="#A1C453" stroke="#333333" stroke-width="1.5923" stroke-linecap="round" stroke-linejoin="round" stroke-miterlimit="10" d="
				M59.784,92.374c-0.706,3.146-2.827,4.337,0.668,10.14c3.495,5.803,5.92,0.794,8.22,4.613c-2.3-3.818,3.251-3.905-0.115-9.494
				C65.188,92.043,62.811,93.477,59.784,92.374z"/>
			<g>
				<line fill="none" x1="68.672" y1="107.127" x2="61.785" y2="95.694"/>
				<g>
					<polyline fill="none" stroke="#333333" stroke-width="1.0616" stroke-linecap="round" stroke-miterlimit="10" points="
						68.398,106.672 68.043,106.083 63.228,98.088 62.919,97.577 					"/>
					
						<line fill="none" stroke="#333333" stroke-width="1.0616" stroke-linecap="round" stroke-miterlimit="10" x1="62.059" y1="96.148" x2="62.098" y2="96.212"/>
				</g>
			</g>
		</g>
		<g>
			
				<path fill="#A1C453" stroke="#333333" stroke-width="1.5923" stroke-linecap="round" stroke-linejoin="round" stroke-miterlimit="10" d="
				M73.186,90.707c-2.724,1.725-5.065,1.067-6.695,7.642c-1.632,6.575,3.623,4.748,2.551,9.074c1.072-4.326,5.06-0.464,6.63-6.794
				C77.242,94.293,74.546,93.625,73.186,90.707z"/>
			<g>
				<line fill="none" x1="69.04" y1="107.422" x2="72.253" y2="94.469"/>
				<g>
					<polyline fill="none" stroke="#333333" stroke-width="1.0616" stroke-linecap="round" stroke-miterlimit="10" points="
						69.168,106.907 69.333,106.24 71.58,97.182 71.724,96.602 					"/>
					
						<line fill="none" stroke="#333333" stroke-width="1.0616" stroke-linecap="round" stroke-miterlimit="10" x1="72.125" y1="94.984" x2="72.107" y2="95.056"/>
				</g>
			</g>
		</g>
		<g>
			
				<path fill="#A1C453" stroke="#333333" stroke-width="1.5923" stroke-linecap="round" stroke-linejoin="round" stroke-miterlimit="10" d="
				M55.783,140.407c2.104-1.454,2.352-3.368,7.656-2.52c5.306,0.848,2.343,4.119,5.834,4.677c-3.491-0.558-1.908,3.55-7.019,2.733
				S57.491,142.304,55.783,140.407z"/>
			<g>
				<line fill="none" x1="69.274" y1="142.564" x2="58.819" y2="140.893"/>
				<g>
					<polyline fill="none" stroke="#333333" stroke-width="1.0616" stroke-linecap="round" stroke-miterlimit="10" points="
						68.75,142.48 68.071,142.372 61.58,141.334 60.989,141.24 					"/>
					
						<line fill="none" stroke="#333333" stroke-width="1.0616" stroke-linecap="round" stroke-miterlimit="10" x1="59.344" y1="140.977" x2="59.417" y2="140.988"/>
				</g>
			</g>
		</g>
		<g>
			
				<path fill="#A1C453" stroke="#333333" stroke-width="1.5923" stroke-linecap="round" stroke-linejoin="round" stroke-miterlimit="10" d="
				M58.536,150.759c0.459-2.517-0.72-4.043,3.632-7.195c4.353-3.153,4.567,1.256,7.432-0.819c-2.863,2.075,1.162,3.86-3.029,6.896
				C62.379,152.678,61.085,150.893,58.536,150.759z"/>
			<g>
				<line fill="none" x1="69.6" y1="142.746" x2="61.027" y2="148.957"/>
				<g>
					<polyline fill="none" stroke="#333333" stroke-width="1.0616" stroke-linecap="round" stroke-miterlimit="10" points="
						69.17,143.057 68.613,143.46 63.291,147.316 62.807,147.667 					"/>
					
						<line fill="none" stroke="#333333" stroke-width="1.0616" stroke-linecap="round" stroke-miterlimit="10" x1="61.457" y1="148.645" x2="61.518" y2="148.602"/>
				</g>
			</g>
		</g>
		<g>
			
				<path fill="#A1C453" stroke="#333333" stroke-width="1.5923" stroke-linecap="round" stroke-linejoin="round" stroke-miterlimit="10" d="
				M28.885,129.231c3.2,0.4,4.592,2.395,10.028-1.645c5.437-4.042,0.217-5.969,3.796-8.627c-3.579,2.659-4.202-2.857-9.438,1.034
				C28.033,123.885,29.689,126.113,28.885,129.231z"/>
			<g>
				<line fill="none" x1="42.709" y1="118.958" x2="31.996" y2="126.919"/>
				<g>
					<polyline fill="none" stroke="#333333" stroke-width="1.0616" stroke-linecap="round" stroke-miterlimit="10" points="
						42.283,119.275 41.73,119.685 34.24,125.252 33.76,125.608 					"/>
					
						<line fill="none" stroke="#333333" stroke-width="1.0616" stroke-linecap="round" stroke-miterlimit="10" x1="32.422" y1="126.603" x2="32.482" y2="126.558"/>
				</g>
			</g>
		</g>
		<g>
			
				<path fill="#A1C453" stroke="#333333" stroke-width="1.5923" stroke-linecap="round" stroke-linejoin="round" stroke-miterlimit="10" d="
				M25.928,116.055c1.98,2.544,1.554,4.939,8.254,5.927c6.703,0.987,4.375-4.067,8.785-3.416c-4.41-0.651-0.95-4.993-7.404-5.943
				C29.106,111.672,28.702,114.419,25.928,116.055z"/>
			<g>
				<line fill="none" x1="42.967" y1="118.565" x2="29.763" y2="116.62"/>
				<g>
					<polyline fill="none" stroke="#333333" stroke-width="1.0616" stroke-linecap="round" stroke-miterlimit="10" points="
						42.441,118.488 41.762,118.388 32.528,117.027 31.938,116.94 					"/>
					
						<line fill="none" stroke="#333333" stroke-width="1.0616" stroke-linecap="round" stroke-miterlimit="10" x1="30.288" y1="116.697" x2="30.361" y2="116.708"/>
				</g>
			</g>
		</g>
		<g>
			
				<path fill="#A1C453" stroke="#333333" stroke-width="1.5923" stroke-linecap="round" stroke-linejoin="round" stroke-miterlimit="10" d="
				M40.15,132.066c2.13-1.371,3.974-0.869,5.216-6.044c1.241-5.176-2.878-3.708-2.06-7.113c-0.818,3.405-3.973,0.394-5.168,5.378
				C36.942,129.272,39.063,129.782,40.15,132.066z"/>
			<g>
				<line fill="none" x1="43.307" y1="118.909" x2="40.86" y2="129.105"/>
				<g>
					<polyline fill="none" stroke="#333333" stroke-width="1.0616" stroke-linecap="round" stroke-miterlimit="10" points="
						43.183,119.425 43.022,120.094 41.513,126.387 41.373,126.968 					"/>
					
						<line fill="none" stroke="#333333" stroke-width="1.0616" stroke-linecap="round" stroke-miterlimit="10" x1="40.984" y1="128.589" x2="41.002" y2="128.516"/>
				</g>
			</g>
		</g>
		<g>
			<g>
				<path fill="#EF4529" d="M77.842,106.073c2.884,2.354,3.467,8.249,0.96,9.484c-0.74,3.023-6.602,3.313-9.484,0.959
					c-2.884-2.354-4.58-6.094-0.163-9.125C71.12,102.674,74.958,103.72,77.842,106.073z"/>
				<g>
					<path fill="none" stroke="#333333" stroke-width="1.5923" stroke-linecap="round" stroke-miterlimit="10" d="M78.414,106.625
						c0.222,0.263,0.445,0.524,0.623,0.82c0.89,1.372,1.334,3.015,1.342,4.645c-0.006,0.813-0.128,1.647-0.512,2.374
						c-0.205,0.351-0.448,0.693-0.793,0.916l-0.258,0.168c-0.054,0.081-0.074,0.188-0.114,0.28
						c-0.057,0.199-0.156,0.375-0.276,0.542c-0.459,0.683-1.207,1.114-1.977,1.366c-0.777,0.253-1.6,0.348-2.415,0.34
						c-1.621-0.048-3.286-0.471-4.593-1.47c-1.265-1.009-2.398-2.306-2.837-3.896c-0.212-0.789-0.192-1.641,0.081-2.412
						c0.263-0.78,0.78-1.445,1.366-2.006c0.285-0.295,0.616-0.535,0.942-0.781c0.195-0.097,0.238-0.317,0.337-0.494
						c0.093-0.181,0.164-0.375,0.274-0.546c0.396-0.713,0.938-1.356,1.624-1.801c0.686-0.447,1.521-0.635,2.335-0.571
						c0.199-0.003,0.416,0.055,0.595,0.081c0.097,0.017,0.193,0.03,0.286,0.062c0.188,0.058,0.381,0.103,0.564,0.17"/>
					
						<line fill="none" stroke="#333333" stroke-width="1.5923" stroke-linecap="round" stroke-miterlimit="10" x1="77.208" y1="105.591" x2="77.115" y2="105.528"/>
				</g>
			</g>
			
				<ellipse transform="matrix(-0.27 -0.9629 0.9629 -0.27 -20.7366 209.9655)" opacity="0.5" fill="#FFFFFF" enable-background="new    " cx="69.229" cy="112.844" rx="1.543" ry="1.269"/>
		</g>
		<g>
			<g>
				<path fill="#EF4529" d="M51.602,122.254c1.558,3.38-0.505,8.934-3.302,8.942c-1.99,2.392-7.384,0.079-8.942-3.302
					c-1.557-3.38-1.438-7.486,3.859-8.271C47.055,116.249,50.045,118.873,51.602,122.254z"/>
				<g>
					<path fill="none" stroke="#333333" stroke-width="1.5923" stroke-linecap="round" stroke-miterlimit="10" d="M51.874,123.002
						c0.083,0.334,0.171,0.667,0.198,1.011c0.196,1.624-0.126,3.294-0.834,4.762c-0.36,0.728-0.838,1.424-1.502,1.908
						c-0.338,0.225-0.707,0.426-1.114,0.474l-0.305,0.038c-0.084,0.05-0.149,0.136-0.227,0.202
						c-0.138,0.154-0.306,0.269-0.486,0.366c-0.713,0.412-1.574,0.471-2.376,0.359c-0.809-0.114-1.589-0.39-2.317-0.755
						c-1.438-0.755-2.746-1.867-3.481-3.337c-0.692-1.462-1.143-3.125-0.836-4.746c0.155-0.801,0.546-1.559,1.131-2.131
						c0.577-0.586,1.335-0.956,2.108-1.203c0.385-0.14,0.788-0.21,1.188-0.288c0.22,0,0.354-0.181,0.52-0.296
						c0.164-0.122,0.313-0.265,0.487-0.37c0.669-0.466,1.438-0.806,2.249-0.904c0.813-0.101,1.646,0.098,2.35,0.513
						c0.181,0.085,0.351,0.233,0.498,0.333c0.08,0.058,0.162,0.113,0.23,0.182c0.145,0.134,0.296,0.259,0.434,0.401"/>
					
						<line fill="none" stroke="#333333" stroke-width="1.5923" stroke-linecap="round" stroke-miterlimit="10" x1="51.243" y1="121.543" x2="51.188" y2="121.446"/>
				</g>
			</g>
			
				<ellipse transform="matrix(0.1805 -0.9836 0.9836 0.1805 -89.0099 142.2959)" opacity="0.5" fill="#FFFFFF" enable-background="new    " cx="40.888" cy="124.563" rx="1.542" ry="1.269"/>
		</g>
		<path fill="#CC924C" stroke="#333333" stroke-width="2.8307" stroke-linecap="round" stroke-miterlimit="10" d="M92.613,160.811
			L33.32,96.376c-0.756-0.811-0.71-2.081,0.102-2.837l0,0c0.812-0.755,2.081-0.711,2.837,0.1l60.071,63.711"/>
		<g>
			
				<path fill="#A1C453" stroke="#333333" stroke-width="1.0616" stroke-linecap="round" stroke-linejoin="round" stroke-miterlimit="10" d="
				M34.445,92.367c0,0-2.839-1.307-3.468-1.415c-0.502-0.09,1.225,2.773,2.03,3.689L34.445,92.367z"/>
			
				<path fill="#A1C453" stroke="#333333" stroke-width="1.0616" stroke-linecap="round" stroke-linejoin="round" stroke-miterlimit="10" d="
				M32.466,93.864l4.79,0.429c0,0-2.703-3.947-4.667-4.333C32.589,89.961,32.765,92.274,32.466,93.864z"/>
			
				<path fill="#A1C453" stroke="#333333" stroke-width="1.0616" stroke-linecap="round" stroke-linejoin="round" stroke-miterlimit="10" d="
				M35.9,98.462c0,0-5.438-2.385-6.194-5.815l4.561,0.64L35.9,98.462z"/>
		</g>
	</g>
</g>
</svg>
