<?xml version="1.0" encoding="utf-8"?>
<!-- Generator: Adobe Illustrator 16.0.0, SVG Export Plug-In . SVG Version: 6.00 Build 0)  -->
<!DOCTYPE svg PUBLIC "-//W3C//DTD SVG 1.1//EN" "http://www.w3.org/Graphics/SVG/1.1/DTD/svg11.dtd">
<svg version="1.1" id="Calque_1" xmlns="http://www.w3.org/2000/svg" xmlns:xlink="http://www.w3.org/1999/xlink" x="0px" y="0px"
	 width="400px" height="400px" viewBox="0 0 400 400" enable-background="new 0 0 400 400" xml:space="preserve">
<g id="calque00">
	<g>
		<path fill="#CC924C" stroke="#333333" stroke-width="2.6539" stroke-linecap="round" stroke-miterlimit="10" d="M93.591,163.873
			l-9.186-2.017c-1.096-0.176-1.84-1.206-1.662-2.3l0,0c0.176-1.094,1.206-1.839,2.301-1.664l9.354,0.968"/>
		<g>
			
				<path fill="#A1C453" stroke="#333333" stroke-width="1.0616" stroke-linecap="round" stroke-linejoin="round" stroke-miterlimit="10" d="
				M82.83,158c0,0-3.043,0.713-3.604,1.013c-0.452,0.239,2.668,1.438,3.865,1.666L82.83,158z"/>
			
				<path fill="#A1C453" stroke="#333333" stroke-width="1.0616" stroke-linecap="round" stroke-linejoin="round" stroke-miterlimit="10" d="
				M82.189,160.398l4.043-2.603c0,0-4.557-1.454-6.344-0.553C79.889,157.242,81.449,158.96,82.189,160.398z"/>
			
				<path fill="#A1C453" stroke="#333333" stroke-width="1.0616" stroke-linecap="round" stroke-linejoin="round" stroke-miterlimit="10" d="
				M87.723,161.918c0,0-5.758,1.458-8.46-0.786l3.993-2.295L87.723,161.918z"/>
		</g>
	</g>
</g>
<g id="calque01">
	<g>
		<g>
			
				<path fill="#A1C453" stroke="#333333" stroke-width="1.0616" stroke-linecap="round" stroke-linejoin="round" stroke-miterlimit="10" d="
				M69.117,149.681c-0.263,1.286-1.113,1.786,0.353,4.116c1.467,2.331,2.411,0.275,3.376,1.809c-0.965-1.534,1.29-1.613-0.121-3.857
				C71.311,149.504,70.355,150.106,69.117,149.681z"/>
			<g>
				<line fill="none" x1="72.846" y1="155.606" x2="69.957" y2="151.015"/>
				<g>
					<polyline fill="none" stroke="#333333" stroke-width="1.0616" stroke-linecap="round" stroke-miterlimit="10" points="
						72.563,155.157 72.197,154.575 71.445,153.381 71.128,152.875 					"/>
					
						<line fill="none" stroke="#333333" stroke-width="1.0616" stroke-linecap="round" stroke-miterlimit="10" x1="70.239" y1="151.464" x2="70.279" y2="151.527"/>
				</g>
			</g>
		</g>
		<path fill="#CC924C" stroke="#333333" stroke-width="2.6539" stroke-linecap="round" stroke-miterlimit="10" d="M93.591,163.872
			l-28.737-5.163c-1.094-0.176-1.84-1.206-1.662-2.301l0,0c0.177-1.094,1.207-1.839,2.302-1.663l28.904,4.115"/>
		<g>
			
				<path fill="#A1C453" stroke="#333333" stroke-width="1.0616" stroke-linecap="round" stroke-linejoin="round" stroke-miterlimit="10" d="
				M63.279,154.854c0,0-3.043,0.712-3.604,1.012c-0.451,0.239,2.67,1.439,3.867,1.667L63.279,154.854z"/>
			
				<path fill="#A1C453" stroke="#333333" stroke-width="1.0616" stroke-linecap="round" stroke-linejoin="round" stroke-miterlimit="10" d="
				M62.639,157.251l4.043-2.604c0,0-4.558-1.455-6.344-0.553C60.338,154.095,61.898,155.813,62.639,157.251z"/>
			
				<path fill="#A1C453" stroke="#333333" stroke-width="1.0616" stroke-linecap="round" stroke-linejoin="round" stroke-miterlimit="10" d="
				M68.172,158.771c0,0-5.758,1.458-8.461-0.786l3.992-2.294L68.172,158.771z"/>
		</g>
	</g>
</g>
<g id="calque02">
	<g>
		<g>
			
				<path fill="#A1C453" stroke="#333333" stroke-width="1.5923" stroke-linecap="round" stroke-linejoin="round" stroke-miterlimit="10" d="
				M65.148,143.083c-0.569,2.8-2.429,3.891,0.77,8.972c3.198,5.08,5.259,0.601,7.362,3.944c-2.104-3.343,2.813-3.516-0.269-8.41
				C69.931,142.696,67.848,144.006,65.148,143.083z"/>
			<g>
				<line fill="none" x1="73.28" y1="155.999" x2="66.979" y2="145.99"/>
				<g>
					<polyline fill="none" stroke="#333333" stroke-width="1.0616" stroke-linecap="round" stroke-miterlimit="10" points="
						72.997,155.55 72.631,154.968 68.468,148.355 68.149,147.85 					"/>
					
						<line fill="none" stroke="#333333" stroke-width="1.0616" stroke-linecap="round" stroke-miterlimit="10" x1="67.262" y1="146.439" x2="67.301" y2="146.502"/>
				</g>
			</g>
		</g>
		<g>
			
				<path fill="#A1C453" stroke="#333333" stroke-width="1.0616" stroke-linecap="round" stroke-linejoin="round" stroke-miterlimit="10" d="
				M55.186,161.823c1.244,0.333,1.685,1.198,4.053-0.102c2.371-1.301,0.411-2.347,1.972-3.203c-1.561,0.856-1.504-1.359-3.785-0.106
				C55.141,159.664,55.674,160.636,55.186,161.823z"/>
			<g>
				<line fill="none" x1="61.209" y1="158.519" x2="57.076" y2="160.824"/>
				<g>
					<polyline fill="none" stroke="#333333" stroke-width="1.0616" stroke-linecap="round" stroke-miterlimit="10" points="
						60.745,158.778 60.145,159.113 59.518,159.462 58.995,159.753 					"/>
					
						<line fill="none" stroke="#333333" stroke-width="1.0616" stroke-linecap="round" stroke-miterlimit="10" x1="57.54" y1="160.565" x2="57.604" y2="160.529"/>
				</g>
			</g>
		</g>
		<path fill="#CC924C" stroke="#333333" stroke-width="2.6539" stroke-linecap="round" stroke-miterlimit="10" d="M93.591,163.872
			l-37.743-6.612c-1.096-0.176-1.84-1.206-1.663-2.301l0,0c0.176-1.094,1.206-1.839,2.302-1.663l37.911,5.564"/>
		<g>
			
				<path fill="#A1C453" stroke="#333333" stroke-width="1.0616" stroke-linecap="round" stroke-linejoin="round" stroke-miterlimit="10" d="
				M54.271,153.404c0,0-3.043,0.713-3.604,1.013c-0.453,0.238,2.669,1.438,3.865,1.665L54.271,153.404z"/>
			
				<path fill="#A1C453" stroke="#333333" stroke-width="1.0616" stroke-linecap="round" stroke-linejoin="round" stroke-miterlimit="10" d="
				M53.631,155.801l4.045-2.603c0,0-4.559-1.455-6.346-0.553C51.33,152.646,52.891,154.364,53.631,155.801z"/>
			
				<path fill="#A1C453" stroke="#333333" stroke-width="1.0616" stroke-linecap="round" stroke-linejoin="round" stroke-miterlimit="10" d="
				M59.165,157.321c0,0-5.76,1.458-8.46-0.785l3.991-2.296L59.165,157.321z"/>
		</g>
	</g>
</g>
<g id="calque03">
	<g>
		
			<polygon fill="#CC924C" stroke="#333333" stroke-width="1.0616" stroke-linecap="round" stroke-linejoin="round" stroke-miterlimit="10" points="
			54.797,161.427 63.604,158.507 60.645,158.031 		"/>
		<g>
			
				<path fill="#A1C453" stroke="#333333" stroke-width="1.5923" stroke-linecap="round" stroke-linejoin="round" stroke-miterlimit="10" d="
				M65.148,143.083c-0.569,2.8-2.429,3.892,0.77,8.973c3.198,5.08,5.259,0.601,7.362,3.944c-2.104-3.343,2.813-3.517-0.269-8.41
				C69.931,142.696,67.848,144.006,65.148,143.083z"/>
			<g>
				<line fill="none" x1="73.28" y1="155.999" x2="66.979" y2="145.99"/>
				<g>
					<polyline fill="none" stroke="#333333" stroke-width="1.0616" stroke-linecap="round" stroke-miterlimit="10" points="
						72.997,155.55 72.631,154.968 68.468,148.355 68.149,147.85 					"/>
					
						<line fill="none" stroke="#333333" stroke-width="1.0616" stroke-linecap="round" stroke-miterlimit="10" x1="67.262" y1="146.439" x2="67.301" y2="146.502"/>
				</g>
			</g>
		</g>
		<g>
			
				<path fill="#A1C453" stroke="#333333" stroke-width="1.5923" stroke-linecap="round" stroke-linejoin="round" stroke-miterlimit="10" d="
				M41.416,168.77c2.76,0.738,3.739,2.658,9.002-0.23c5.263-2.887,0.914-5.212,4.379-7.113c-3.465,1.901-3.342-3.018-8.412-0.236
				C41.316,163.972,42.5,166.129,41.416,168.77z"/>
			<g>
				<line fill="none" x1="54.797" y1="161.427" x2="44.427" y2="167.116"/>
				<g>
					<polyline fill="none" stroke="#333333" stroke-width="1.0616" stroke-linecap="round" stroke-miterlimit="10" points="
						54.332,161.682 53.729,162.013 46.878,165.771 46.354,166.059 					"/>
					
						<line fill="none" stroke="#333333" stroke-width="1.0616" stroke-linecap="round" stroke-miterlimit="10" x1="44.893" y1="166.86" x2="44.958" y2="166.825"/>
				</g>
			</g>
		</g>
		<g>
			
				<path fill="#A1C453" stroke="#333333" stroke-width="1.0616" stroke-linecap="round" stroke-linejoin="round" stroke-miterlimit="10" d="
				M53.346,146.298c-0.431,1.201-1.32,1.564-0.234,4.012c1.09,2.448,2.283,0.602,3,2.213c-0.717-1.611,1.468-1.374,0.422-3.731
				C55.484,146.434,54.479,146.879,53.346,146.298z"/>
			<g>
				<line fill="none" x1="56.111" y1="152.523" x2="53.969" y2="147.699"/>
				<g>
					<polyline fill="none" stroke="#333333" stroke-width="1.0616" stroke-linecap="round" stroke-miterlimit="10" points="
						55.896,152.038 55.617,151.409 55.104,150.254 54.861,149.708 					"/>
					
						<line fill="none" stroke="#333333" stroke-width="1.0616" stroke-linecap="round" stroke-miterlimit="10" x1="54.185" y1="148.184" x2="54.215" y2="148.252"/>
				</g>
			</g>
		</g>
		<path fill="#CC924C" stroke="#333333" stroke-width="2.6539" stroke-linecap="round" stroke-miterlimit="10" d="M93.591,163.872
			l-44.823-7.752c-1.094-0.176-1.838-1.206-1.662-2.301l0,0c0.177-1.093,1.205-1.838,2.302-1.662l44.99,6.704"/>
		<g>
			
				<path fill="#A1C453" stroke="#333333" stroke-width="1.0616" stroke-linecap="round" stroke-linejoin="round" stroke-miterlimit="10" d="
				M47.193,152.264c0,0-3.043,0.713-3.604,1.013c-0.453,0.238,2.669,1.438,3.866,1.666L47.193,152.264z"/>
			
				<path fill="#A1C453" stroke="#333333" stroke-width="1.0616" stroke-linecap="round" stroke-linejoin="round" stroke-miterlimit="10" d="
				M46.552,154.661l4.045-2.603c0,0-4.558-1.454-6.346-0.552C44.251,151.506,45.812,153.223,46.552,154.661z"/>
			
				<path fill="#A1C453" stroke="#333333" stroke-width="1.0616" stroke-linecap="round" stroke-linejoin="round" stroke-miterlimit="10" d="
				M52.086,156.182c0,0-5.758,1.458-8.461-0.786l3.992-2.294L52.086,156.182z"/>
		</g>
	</g>
</g>
<g id="calque04">
	<g>
		
			<polygon fill="#CC924C" stroke="#333333" stroke-width="1.0616" stroke-linecap="round" stroke-linejoin="round" stroke-miterlimit="10" points="
			54.797,161.427 63.603,158.508 60.645,158.032 		"/>
		
			<polygon fill="#CC924C" stroke="#333333" stroke-width="1.0616" stroke-linecap="round" stroke-linejoin="round" stroke-miterlimit="10" points="
			47.516,140.886 58.294,153.587 55.337,153.111 		"/>
		<g>
			
				<path fill="#A1C453" stroke="#333333" stroke-width="1.5923" stroke-linecap="round" stroke-linejoin="round" stroke-miterlimit="10" d="
				M65.148,143.083c-0.569,2.799-2.429,3.891,0.77,8.972c3.198,5.08,5.259,0.601,7.362,3.944c-2.104-3.343,2.813-3.517-0.269-8.41
				C69.931,142.696,67.848,144.007,65.148,143.083z"/>
			<g>
				<line fill="none" x1="73.28" y1="155.999" x2="66.979" y2="145.99"/>
				<g>
					<polyline fill="none" stroke="#333333" stroke-width="1.0616" stroke-linecap="round" stroke-miterlimit="10" points="
						72.997,155.55 72.631,154.968 68.468,148.355 68.149,147.85 					"/>
					
						<line fill="none" stroke="#333333" stroke-width="1.0616" stroke-linecap="round" stroke-miterlimit="10" x1="67.262" y1="146.439" x2="67.301" y2="146.502"/>
				</g>
			</g>
		</g>
		<g>
			
				<path fill="#A1C453" stroke="#333333" stroke-width="1.5923" stroke-linecap="round" stroke-linejoin="round" stroke-miterlimit="10" d="
				M41.416,168.77c2.76,0.738,3.739,2.658,9.002-0.23c5.263-2.887,0.914-5.212,4.379-7.113c-3.465,1.901-3.342-3.018-8.412-0.236
				C41.316,163.972,42.5,166.129,41.416,168.77z"/>
			<g>
				<line fill="none" x1="54.797" y1="161.427" x2="44.427" y2="167.116"/>
				<g>
					<polyline fill="none" stroke="#333333" stroke-width="1.0616" stroke-linecap="round" stroke-miterlimit="10" points="
						54.332,161.682 53.729,162.013 46.878,165.771 46.354,166.059 					"/>
					
						<line fill="none" stroke="#333333" stroke-width="1.0616" stroke-linecap="round" stroke-miterlimit="10" x1="44.893" y1="166.861" x2="44.957" y2="166.825"/>
				</g>
			</g>
		</g>
		<g>
			
				<path fill="#A1C453" stroke="#333333" stroke-width="1.0616" stroke-linecap="round" stroke-linejoin="round" stroke-miterlimit="10" d="
				M41.037,138.589c0.547,1.161,0.174,2.053,2.688,3.02c2.516,0.968,2.051-1.196,3.707-0.559c-1.656-0.637,0.066-2.021-2.355-2.952
				C42.654,137.166,42.257,138.197,41.037,138.589z"/>
			<g>
				<line fill="none" x1="47.432" y1="141.05" x2="42.478" y2="139.144"/>
				<g>
					<polyline fill="none" stroke="#333333" stroke-width="1.0616" stroke-linecap="round" stroke-miterlimit="10" points="
						46.937,140.86 46.295,140.613 45.086,140.147 44.528,139.933 					"/>
					
						<line fill="none" stroke="#333333" stroke-width="1.0616" stroke-linecap="round" stroke-miterlimit="10" x1="42.973" y1="139.334" x2="43.043" y2="139.361"/>
				</g>
			</g>
		</g>
		<g>
			
				<path fill="#A1C453" stroke="#333333" stroke-width="1.5923" stroke-linecap="round" stroke-linejoin="round" stroke-miterlimit="10" d="
				M40.926,125.37c-1.092,3.035-3.342,3.955-0.592,10.146c2.75,6.19,5.775,1.521,7.584,5.595c-1.809-4.074,3.709-3.475,1.061-9.435
				C46.33,125.711,43.791,126.838,40.926,125.37z"/>
			<g>
				<line fill="none" x1="47.918" y1="141.11" x2="42.5" y2="128.913"/>
				<g>
					<polyline fill="none" stroke="#333333" stroke-width="1.0616" stroke-linecap="round" stroke-miterlimit="10" points="
						47.702,140.625 47.424,139.997 43.635,131.467 43.393,130.921 					"/>
					
						<line fill="none" stroke="#333333" stroke-width="1.0616" stroke-linecap="round" stroke-miterlimit="10" x1="42.716" y1="129.397" x2="42.746" y2="129.466"/>
				</g>
			</g>
		</g>
		<path fill="#CC924C" stroke="#333333" stroke-width="2.6539" stroke-linecap="round" stroke-miterlimit="10" d="M93.591,163.873
			l-58.342-9.928c-1.096-0.177-1.839-1.206-1.663-2.301l0,0c0.176-1.094,1.207-1.839,2.301-1.663l58.511,8.879"/>
		<g>
			
				<path fill="#A1C453" stroke="#333333" stroke-width="1.0616" stroke-linecap="round" stroke-linejoin="round" stroke-miterlimit="10" d="
				M33.674,150.089c0,0-3.043,0.712-3.604,1.013c-0.451,0.238,2.669,1.438,3.868,1.665L33.674,150.089z"/>
			
				<path fill="#A1C453" stroke="#333333" stroke-width="1.0616" stroke-linecap="round" stroke-linejoin="round" stroke-miterlimit="10" d="
				M33.033,152.487l4.044-2.604c0,0-4.559-1.455-6.346-0.553C30.732,149.331,32.292,151.049,33.033,152.487z"/>
			
				<path fill="#A1C453" stroke="#333333" stroke-width="1.0616" stroke-linecap="round" stroke-linejoin="round" stroke-miterlimit="10" d="
				M38.567,154.006c0,0-5.759,1.458-8.46-0.786l3.991-2.295L38.567,154.006z"/>
		</g>
		<g>
			
				<path fill="#FFFFFF" stroke="#333333" stroke-width="1.0616" stroke-linecap="round" stroke-linejoin="round" stroke-miterlimit="10" d="
				M54.44,163.386c0.301-0.369,1.235-0.227,1.926-0.043c1.237,0.329,2.54,1.824,1.598,2.983c-0.947,1.164-2.68,0.199-3.259-0.945
				C54.385,164.745,54.137,163.756,54.44,163.386z"/>
			
				<path fill="#FFFFFF" stroke="#333333" stroke-width="1.0616" stroke-linecap="round" stroke-linejoin="round" stroke-miterlimit="10" d="
				M54.387,163.272c-0.468-0.076-0.813-0.958-0.999-1.645c-0.335-1.239,0.31-3.114,1.784-2.877c1.481,0.239,1.514,2.223,0.811,3.294
				C55.592,162.64,54.859,163.349,54.387,163.272z"/>
			
				<path fill="#FFFFFF" stroke="#333333" stroke-width="1.0616" stroke-linecap="round" stroke-linejoin="round" stroke-miterlimit="10" d="
				M54.316,163.367c0.171,0.444-0.422,1.184-0.926,1.688c-0.904,0.91-2.85,1.289-3.381-0.107c-0.535-1.402,1.169-2.42,2.445-2.349
				C53.166,162.641,54.146,162.92,54.316,163.367z"/>
			
				<path fill="#FFFFFF" stroke="#333333" stroke-width="1.0616" stroke-linecap="round" stroke-linejoin="round" stroke-miterlimit="10" d="
				M54.387,163.509c0.471,0.076,0.814,0.958,1,1.645c0.334,1.238-0.309,3.113-1.784,2.876c-1.48-0.238-1.512-2.222-0.81-3.294
				C53.184,164.142,53.914,163.433,54.387,163.509z"/>
			
				<path fill="#FFFFFF" stroke="#333333" stroke-width="1.0616" stroke-linecap="round" stroke-linejoin="round" stroke-miterlimit="10" d="
				M54.456,163.407c-0.171-0.443,0.422-1.183,0.925-1.687c0.906-0.91,2.851-1.29,3.384,0.105c0.532,1.403-1.169,2.421-2.448,2.35
				C55.605,164.134,54.627,163.854,54.456,163.407z"/>
			
				<path fill="#FFFFFF" stroke="#333333" stroke-width="1.0616" stroke-linecap="round" stroke-linejoin="round" stroke-miterlimit="10" d="
				M54.322,163.409c-0.299,0.369-1.235,0.227-1.924,0.043c-1.239-0.33-2.541-1.825-1.6-2.983c0.948-1.164,2.682-0.199,3.258,0.944
				C54.377,162.05,54.625,163.038,54.322,163.409z"/>
			
				<circle fill="#F9D53E" stroke="#333333" stroke-width="1.0616" stroke-linecap="round" stroke-linejoin="round" stroke-miterlimit="10" cx="54.388" cy="163.509" r="0.988"/>
		</g>
	</g>
</g>
<g id="calque05">
	<g>
		
			<polygon fill="#CC924C" stroke="#333333" stroke-width="1.0616" stroke-linecap="round" stroke-linejoin="round" stroke-miterlimit="10" points="
			54.797,161.427 63.603,158.508 60.645,158.032 		"/>
		
			<polygon fill="#CC924C" stroke="#333333" stroke-width="1.0616" stroke-linecap="round" stroke-linejoin="round" stroke-miterlimit="10" points="
			47.516,140.885 58.294,153.587 55.337,153.111 		"/>
		<g>
			
				<path fill="#A1C453" stroke="#333333" stroke-width="1.5923" stroke-linecap="round" stroke-linejoin="round" stroke-miterlimit="10" d="
				M65.148,143.083c-0.569,2.8-2.429,3.892,0.77,8.973c3.198,5.08,5.259,0.601,7.362,3.944c-2.104-3.343,2.813-3.517-0.269-8.41
				C69.931,142.696,67.848,144.007,65.148,143.083z"/>
			<g>
				<line fill="none" x1="73.28" y1="155.999" x2="66.979" y2="145.99"/>
				<g>
					<polyline fill="none" stroke="#333333" stroke-width="1.0616" stroke-linecap="round" stroke-miterlimit="10" points="
						72.997,155.55 72.631,154.968 68.468,148.355 68.149,147.85 					"/>
					
						<line fill="none" stroke="#333333" stroke-width="1.0616" stroke-linecap="round" stroke-miterlimit="10" x1="67.262" y1="146.439" x2="67.301" y2="146.502"/>
				</g>
			</g>
		</g>
		<g>
			
				<path fill="#A1C453" stroke="#333333" stroke-width="1.5923" stroke-linecap="round" stroke-linejoin="round" stroke-miterlimit="10" d="
				M41.416,168.77c2.76,0.738,3.739,2.658,9.002-0.23c5.263-2.887,0.914-5.212,4.379-7.113c-3.465,1.901-3.342-3.018-8.412-0.236
				C41.316,163.972,42.5,166.129,41.416,168.77z"/>
			<g>
				<line fill="none" x1="54.797" y1="161.427" x2="44.427" y2="167.116"/>
				<g>
					<polyline fill="none" stroke="#333333" stroke-width="1.0616" stroke-linecap="round" stroke-miterlimit="10" points="
						54.332,161.682 53.729,162.013 46.878,165.771 46.354,166.059 					"/>
					
						<line fill="none" stroke="#333333" stroke-width="1.0616" stroke-linecap="round" stroke-miterlimit="10" x1="44.893" y1="166.861" x2="44.957" y2="166.825"/>
				</g>
			</g>
		</g>
		<g>
			
				<path fill="#A1C453" stroke="#333333" stroke-width="1.5923" stroke-linecap="round" stroke-linejoin="round" stroke-miterlimit="10" d="
				M31.373,134.917c1.374,2.917,0.432,5.16,6.754,7.593c6.324,2.433,5.16-3.009,9.319-1.407c-4.159-1.602,0.169-5.079-5.922-7.421
				C35.436,131.337,34.438,133.929,31.373,134.917z"/>
			<g>
				<line fill="none" x1="47.447" y1="141.102" x2="34.99" y2="136.308"/>
				<g>
					<polyline fill="none" stroke="#333333" stroke-width="1.0616" stroke-linecap="round" stroke-miterlimit="10" points="
						46.952,140.912 46.311,140.665 37.599,137.312 37.041,137.097 					"/>
					
						<line fill="none" stroke="#333333" stroke-width="1.0616" stroke-linecap="round" stroke-miterlimit="10" x1="35.485" y1="136.498" x2="35.556" y2="136.525"/>
				</g>
			</g>
		</g>
		<g>
			
				<path fill="#A1C453" stroke="#333333" stroke-width="1.5923" stroke-linecap="round" stroke-linejoin="round" stroke-miterlimit="10" d="
				M40.926,125.37c-1.092,3.035-3.342,3.954-0.592,10.146c2.75,6.189,5.775,1.521,7.584,5.595c-1.809-4.074,3.709-3.475,1.061-9.435
				C46.33,125.711,43.791,126.838,40.926,125.37z"/>
			<g>
				<line fill="none" x1="47.918" y1="141.11" x2="42.5" y2="128.913"/>
				<g>
					<polyline fill="none" stroke="#333333" stroke-width="1.0616" stroke-linecap="round" stroke-miterlimit="10" points="
						47.702,140.625 47.424,139.997 43.635,131.467 43.393,130.921 					"/>
					
						<line fill="none" stroke="#333333" stroke-width="1.0616" stroke-linecap="round" stroke-miterlimit="10" x1="42.716" y1="129.397" x2="42.746" y2="129.466"/>
				</g>
			</g>
		</g>
		<g>
			
				<path fill="#A1C453" stroke="#333333" stroke-width="1.0616" stroke-linecap="round" stroke-linejoin="round" stroke-miterlimit="10" d="
				M26.259,156.385c0.914,0.232,1.245,0.862,2.97-0.114c1.727-0.976,0.279-1.725,1.414-2.366c-1.135,0.642-1.115-0.982-2.775-0.042
				C26.205,154.803,26.604,155.51,26.259,156.385z"/>
			<g>
				<line fill="none" x1="30.643" y1="153.905" x2="27.246" y2="155.828"/>
				<g>
					
						<line fill="none" stroke="#333333" stroke-width="1.0616" stroke-linecap="round" stroke-miterlimit="10" x1="30.53" y1="153.969" x2="27.713" y2="155.564"/>
					
						<line fill="none" stroke="#333333" stroke-width="1.0616" stroke-linecap="round" stroke-miterlimit="10" x1="27.358" y1="155.764" x2="27.375" y2="155.755"/>
				</g>
			</g>
		</g>
		<g>
			<g>
				<path fill="#D3F46C" d="M59.447,161.935c1.637,1.576,1.697,5.189,0.109,5.815c-0.6,1.802-4.178,1.686-5.813,0.11
					c-1.637-1.575-2.481-3.934,0.354-5.557C55.528,159.532,57.813,160.36,59.447,161.935z"/>
				<g>
					<path fill="none" stroke="#333333" stroke-width="1.0616" stroke-linecap="round" stroke-miterlimit="10" d="M59.794,162.336
						c0.139,0.183,0.258,0.378,0.36,0.583c0.438,0.878,0.623,1.882,0.527,2.859c-0.05,0.485-0.172,0.978-0.444,1.388
						c-0.141,0.199-0.309,0.39-0.528,0.5c-0.052,0.031-0.112,0.054-0.156,0.093l-0.078,0.167c-0.042,0.117-0.118,0.213-0.195,0.31
						c-0.659,0.766-1.765,0.884-2.716,0.812c-0.969-0.106-1.947-0.428-2.69-1.079c-0.721-0.654-1.348-1.476-1.564-2.441
						c-0.106-0.479-0.086-0.99,0.094-1.448c0.176-0.461,0.491-0.852,0.854-1.18c0.334-0.36,0.898-0.469,1.063-0.977
						c0.267-0.411,0.582-0.8,0.995-1.071c0.411-0.271,0.912-0.399,1.402-0.36l0.358,0.049l0.188,0.049
						c0.129,0.027,0.251,0.076,0.373,0.124"/>
					
						<line fill="none" stroke="#333333" stroke-width="1.0616" stroke-linecap="round" stroke-miterlimit="10" x1="59.051" y1="161.582" x2="58.993" y2="161.535"/>
				</g>
			</g>
			
				<ellipse transform="matrix(-0.1899 -0.9818 0.9818 -0.1899 -98.5103 249.9708)" opacity="0.5" fill="#FFFFFF" enable-background="new    " cx="53.869" cy="165.625" rx="0.941" ry="0.774"/>
		</g>
		<path fill="#CC924C" stroke="#333333" stroke-width="2.6539" stroke-linecap="round" stroke-miterlimit="10" d="M93.591,163.873
			L25.086,152.31c-1.094-0.176-1.838-1.207-1.662-2.302l0,0c0.176-1.093,1.207-1.838,2.301-1.662l68.673,10.515"/>
		<g>
			
				<path fill="#A1C453" stroke="#333333" stroke-width="1.0616" stroke-linecap="round" stroke-linejoin="round" stroke-miterlimit="10" d="
				M23.512,148.453c0,0-3.043,0.713-3.604,1.013c-0.453,0.238,2.67,1.438,3.866,1.665L23.512,148.453z"/>
			
				<path fill="#A1C453" stroke="#333333" stroke-width="1.0616" stroke-linecap="round" stroke-linejoin="round" stroke-miterlimit="10" d="
				M22.872,150.85l4.042-2.603c0,0-4.559-1.454-6.345-0.552C20.57,147.695,22.129,149.412,22.872,150.85z"/>
			
				<path fill="#A1C453" stroke="#333333" stroke-width="1.0616" stroke-linecap="round" stroke-linejoin="round" stroke-miterlimit="10" d="
				M28.404,152.371c0,0-5.758,1.458-8.461-0.786l3.992-2.295L28.404,152.371z"/>
		</g>
		<g>
			
				<path fill="#FFFFFF" stroke="#333333" stroke-width="1.0616" stroke-linecap="round" stroke-linejoin="round" stroke-miterlimit="10" d="
				M48.17,139.923c0.301-0.368,1.235-0.226,1.924-0.042c1.24,0.33,2.543,1.825,1.598,2.983c-0.944,1.165-2.68,0.199-3.256-0.944
				C48.115,141.282,47.867,140.294,48.17,139.923z"/>
			
				<path fill="#FFFFFF" stroke="#333333" stroke-width="1.0616" stroke-linecap="round" stroke-linejoin="round" stroke-miterlimit="10" d="
				M48.117,139.809c-0.47-0.074-0.814-0.957-0.998-1.645c-0.336-1.238,0.307-3.113,1.781-2.876c1.481,0.238,1.514,2.222,0.813,3.293
				C49.322,139.177,48.59,139.886,48.117,139.809z"/>
			
				<path fill="#FFFFFF" stroke="#333333" stroke-width="1.0616" stroke-linecap="round" stroke-linejoin="round" stroke-miterlimit="10" d="
				M48.048,139.905c0.17,0.444-0.423,1.184-0.926,1.688c-0.904,0.909-2.852,1.289-3.385-0.107c-0.532-1.403,1.171-2.42,2.447-2.349
				C46.897,139.178,47.877,139.458,48.048,139.905z"/>
			
				<path fill="#FFFFFF" stroke="#333333" stroke-width="1.0616" stroke-linecap="round" stroke-linejoin="round" stroke-miterlimit="10" d="
				M48.117,140.047c0.471,0.075,0.813,0.957,1,1.644c0.334,1.238-0.31,3.114-1.785,2.877c-1.48-0.239-1.513-2.223-0.812-3.294
				C46.914,140.679,47.645,139.971,48.117,140.047z"/>
			
				<path fill="#FFFFFF" stroke="#333333" stroke-width="1.0616" stroke-linecap="round" stroke-linejoin="round" stroke-miterlimit="10" d="
				M48.187,139.944c-0.17-0.443,0.421-1.183,0.923-1.687c0.906-0.91,2.853-1.29,3.384,0.106c0.534,1.404-1.168,2.42-2.446,2.35
				C49.336,140.671,48.355,140.392,48.187,139.944z"/>
			
				<path fill="#FFFFFF" stroke="#333333" stroke-width="1.0616" stroke-linecap="round" stroke-linejoin="round" stroke-miterlimit="10" d="
				M48.053,139.946c-0.299,0.369-1.236,0.227-1.924,0.042c-1.24-0.329-2.543-1.824-1.601-2.982c0.947-1.165,2.682-0.199,3.259,0.944
				C48.105,138.587,48.354,139.575,48.053,139.946z"/>
			
				<circle fill="#F9D53E" stroke="#333333" stroke-width="1.0616" stroke-linecap="round" stroke-linejoin="round" stroke-miterlimit="10" cx="48.118" cy="140.047" r="0.988"/>
		</g>
	</g>
</g>
<g id="calque06">
	<g>
		
			<polygon fill="#CC924C" stroke="#333333" stroke-width="1.0616" stroke-linecap="round" stroke-linejoin="round" stroke-miterlimit="10" points="
			54.797,161.427 63.603,158.508 60.645,158.032 		"/>
		
			<polygon fill="#CC924C" stroke="#333333" stroke-width="1.0616" stroke-linecap="round" stroke-linejoin="round" stroke-miterlimit="10" points="
			26.058,157.408 32.684,153.531 29.726,153.056 		"/>
		
			<polygon fill="#CC924C" stroke="#333333" stroke-width="1.0616" stroke-linecap="round" stroke-linejoin="round" stroke-miterlimit="10" points="
			47.516,140.885 58.294,153.587 55.337,153.111 		"/>
		<g>
			
				<path fill="#A1C453" stroke="#333333" stroke-width="1.5923" stroke-linecap="round" stroke-linejoin="round" stroke-miterlimit="10" d="
				M65.148,143.083c-0.569,2.8-2.429,3.892,0.77,8.972s5.259,0.601,7.362,3.944c-2.104-3.343,2.813-3.517-0.269-8.41
				C69.931,142.696,67.848,144.006,65.148,143.083z"/>
			<g>
				<line fill="none" x1="73.28" y1="155.999" x2="66.979" y2="145.99"/>
				<g>
					<polyline fill="none" stroke="#333333" stroke-width="1.0616" stroke-linecap="round" stroke-miterlimit="10" points="
						72.997,155.55 72.631,154.968 68.468,148.355 68.149,147.85 					"/>
					
						<line fill="none" stroke="#333333" stroke-width="1.0616" stroke-linecap="round" stroke-miterlimit="10" x1="67.262" y1="146.439" x2="67.301" y2="146.502"/>
				</g>
			</g>
		</g>
		<g>
			
				<path fill="#A1C453" stroke="#333333" stroke-width="1.5923" stroke-linecap="round" stroke-linejoin="round" stroke-miterlimit="10" d="
				M41.416,168.77c2.76,0.738,3.739,2.658,9.002-0.23c5.263-2.887,0.914-5.213,4.379-7.113c-3.465,1.9-3.342-3.018-8.412-0.236
				C41.316,163.972,42.5,166.129,41.416,168.77z"/>
			<g>
				<line fill="none" x1="54.797" y1="161.427" x2="44.427" y2="167.116"/>
				<g>
					<polyline fill="none" stroke="#333333" stroke-width="1.0616" stroke-linecap="round" stroke-miterlimit="10" points="
						54.332,161.682 53.729,162.013 46.878,165.771 46.354,166.059 					"/>
					
						<line fill="none" stroke="#333333" stroke-width="1.0616" stroke-linecap="round" stroke-miterlimit="10" x1="44.893" y1="166.861" x2="44.957" y2="166.825"/>
				</g>
			</g>
		</g>
		<g>
			
				<path fill="#A1C453" stroke="#333333" stroke-width="1.5923" stroke-linecap="round" stroke-linejoin="round" stroke-miterlimit="10" d="
				M31.373,134.917c1.374,2.917,0.432,5.16,6.754,7.593c6.324,2.433,5.16-3.009,9.319-1.407c-4.159-1.602,0.169-5.079-5.922-7.421
				C35.436,131.337,34.438,133.929,31.373,134.917z"/>
			<g>
				<line fill="none" x1="47.447" y1="141.102" x2="34.99" y2="136.308"/>
				<g>
					<polyline fill="none" stroke="#333333" stroke-width="1.0616" stroke-linecap="round" stroke-miterlimit="10" points="
						46.952,140.912 46.311,140.665 37.599,137.312 37.041,137.097 					"/>
					
						<line fill="none" stroke="#333333" stroke-width="1.0616" stroke-linecap="round" stroke-miterlimit="10" x1="35.485" y1="136.498" x2="35.556" y2="136.525"/>
				</g>
			</g>
		</g>
		<g>
			
				<path fill="#A1C453" stroke="#333333" stroke-width="1.5923" stroke-linecap="round" stroke-linejoin="round" stroke-miterlimit="10" d="
				M40.926,125.37c-1.092,3.034-3.342,3.954-0.592,10.146c2.75,6.189,5.775,1.521,7.584,5.595c-1.809-4.074,3.709-3.475,1.061-9.435
				C46.33,125.711,43.791,126.838,40.926,125.37z"/>
			<g>
				<line fill="none" x1="47.918" y1="141.11" x2="42.5" y2="128.913"/>
				<g>
					<polyline fill="none" stroke="#333333" stroke-width="1.0616" stroke-linecap="round" stroke-miterlimit="10" points="
						47.702,140.625 47.424,139.997 43.635,131.467 43.393,130.921 					"/>
					
						<line fill="none" stroke="#333333" stroke-width="1.0616" stroke-linecap="round" stroke-miterlimit="10" x1="42.716" y1="129.397" x2="42.746" y2="129.466"/>
				</g>
			</g>
		</g>
		<g>
			
				<path fill="#A1C453" stroke="#333333" stroke-width="1.0616" stroke-linecap="round" stroke-linejoin="round" stroke-miterlimit="10" d="
				M19.486,143.175c-0.015,1.057-0.614,1.583,0.896,3.208c1.513,1.627,1.954-0.143,2.948,0.928c-0.994-1.07,0.779-1.472-0.678-3.039
				C21.199,142.706,20.531,143.326,19.486,143.175z"/>
			<g>
				<line fill="none" x1="23.331" y1="147.312" x2="20.352" y2="144.106"/>
				<g>
					<polyline fill="none" stroke="#333333" stroke-width="1.0616" stroke-linecap="round" stroke-miterlimit="10" points="
						22.97,146.923 22.502,146.419 22.255,146.153 21.848,145.716 					"/>
					
						<line fill="none" stroke="#333333" stroke-width="1.0616" stroke-linecap="round" stroke-miterlimit="10" x1="20.713" y1="144.495" x2="20.764" y2="144.549"/>
				</g>
			</g>
		</g>
		<g>
			
				<path fill="#A1C453" stroke="#333333" stroke-width="1.0616" stroke-linecap="round" stroke-linejoin="round" stroke-miterlimit="10" d="
				M28.742,162.513c0.147-1.046,0.81-1.492-0.486-3.295c-1.297-1.803-1.957-0.104-2.812-1.29c0.854,1.188-0.957,1.362,0.292,3.1
				C26.985,162.764,27.725,162.233,28.742,162.513z"/>
			<g>
				<line fill="none" x1="25.445" y1="157.927" x2="28" y2="161.481"/>
				<g>
					<polyline fill="none" stroke="#333333" stroke-width="1.0616" stroke-linecap="round" stroke-miterlimit="10" points="
						25.755,158.358 26.156,158.917 26.368,159.211 26.717,159.697 					"/>
					
						<line fill="none" stroke="#333333" stroke-width="1.0616" stroke-linecap="round" stroke-miterlimit="10" x1="27.69" y1="161.05" x2="27.646" y2="160.99"/>
				</g>
			</g>
		</g>
		<g>
			
				<path fill="#A1C453" stroke="#333333" stroke-width="1.5923" stroke-linecap="round" stroke-linejoin="round" stroke-miterlimit="10" d="
				M11.068,165.89c3.127,0.792,4.261,2.945,10.155-0.392c5.896-3.336,0.954-5.895,4.834-8.091c-3.88,2.196-3.816-3.356-9.494-0.143
				C10.885,160.479,12.254,162.896,11.068,165.89z"/>
			<g>
				<line fill="none" x1="26.058" y1="157.408" x2="14.441" y2="163.981"/>
				<g>
					<polyline fill="none" stroke="#333333" stroke-width="1.0616" stroke-linecap="round" stroke-miterlimit="10" points="
						25.596,157.669 24.997,158.008 16.874,162.604 16.354,162.899 					"/>
					
						<line fill="none" stroke="#333333" stroke-width="1.0616" stroke-linecap="round" stroke-miterlimit="10" x1="14.903" y1="163.72" x2="14.969" y2="163.683"/>
				</g>
			</g>
		</g>
		<g>
			<g>
				<path fill="#D3F46C" d="M63.217,162.355c2.684,2.583,2.783,8.505,0.183,9.531c-0.984,2.952-6.849,2.762-9.531,0.18
					c-2.681-2.582-4.064-6.448,0.585-9.109C56.797,158.418,60.537,159.774,63.217,162.355z"/>
				<g>
					<path fill="none" stroke="#333333" stroke-width="1.5923" stroke-linecap="round" stroke-miterlimit="10" d="M63.742,162.953
						c0.198,0.28,0.401,0.558,0.555,0.868c0.774,1.44,1.083,3.114,0.959,4.738c-0.072,0.809-0.263,1.631-0.704,2.324
						c-0.232,0.333-0.504,0.654-0.866,0.848l-0.269,0.146c-0.063,0.076-0.091,0.181-0.14,0.27c-0.07,0.193-0.187,0.361-0.319,0.518
						c-0.514,0.643-1.293,1.012-2.08,1.2c-0.796,0.189-1.622,0.216-2.436,0.142c-1.611-0.181-3.236-0.738-4.458-1.84
						c-1.178-1.108-2.201-2.494-2.508-4.114c-0.146-0.803-0.06-1.651,0.277-2.397c0.324-0.756,0.896-1.376,1.524-1.888
						c0.309-0.271,0.657-0.483,1.004-0.702c0.202-0.08,0.265-0.296,0.376-0.464c0.106-0.173,0.193-0.36,0.318-0.522
						c0.453-0.678,1.046-1.275,1.766-1.662c0.72-0.39,1.568-0.509,2.374-0.378c0.198,0.013,0.41,0.089,0.585,0.128
						c0.095,0.025,0.19,0.046,0.281,0.085c0.184,0.073,0.37,0.134,0.548,0.216"/>
					
						<line fill="none" stroke="#333333" stroke-width="1.5923" stroke-linecap="round" stroke-miterlimit="10" x1="62.624" y1="161.824" x2="62.537" y2="161.753"/>
				</g>
			</g>
			<path opacity="0.5" fill="#FFFFFF" enable-background="new    " d="M55.328,168.162c0.162,0.835-0.263,1.621-0.95,1.754
				c-0.688,0.133-1.378-0.438-1.541-1.272c-0.165-0.836,0.262-1.622,0.948-1.754C54.474,166.756,55.164,167.326,55.328,168.162z"/>
		</g>
		<path fill="#CC924C" stroke="#333333" stroke-width="2.6539" stroke-linecap="round" stroke-miterlimit="10" d="M93.591,163.872
			l-75.649-12.713c-1.094-0.176-1.838-1.206-1.662-2.301l0,0c0.177-1.094,1.207-1.839,2.302-1.663l75.816,11.666"/>
		<g>
			
				<path fill="#A1C453" stroke="#333333" stroke-width="1.0616" stroke-linecap="round" stroke-linejoin="round" stroke-miterlimit="10" d="
				M16.367,147.303c0,0-3.043,0.712-3.605,1.012c-0.452,0.238,2.669,1.438,3.867,1.666L16.367,147.303z"/>
			
				<path fill="#A1C453" stroke="#333333" stroke-width="1.0616" stroke-linecap="round" stroke-linejoin="round" stroke-miterlimit="10" d="
				M15.727,149.7l4.044-2.603c0,0-4.559-1.454-6.345-0.552C13.426,146.545,14.985,148.262,15.727,149.7z"/>
			
				<path fill="#A1C453" stroke="#333333" stroke-width="1.0616" stroke-linecap="round" stroke-linejoin="round" stroke-miterlimit="10" d="
				M21.26,151.22c0,0-5.758,1.458-8.46-0.785l3.991-2.295L21.26,151.22z"/>
		</g>
		<g>
			<g>
				<path fill="#D3F46C" d="M50.096,136.829c2.267-0.135,4.965,2.271,4.35,3.862c0.916,1.661-1.594,4.213-3.859,4.349
					c-2.269,0.135-4.575-0.842-3.845-4.028C45.672,138.082,47.828,136.965,50.096,136.829z"/>
				<g>
					<path fill="none" stroke="#333333" stroke-width="1.0616" stroke-linecap="round" stroke-miterlimit="10" d="M50.626,136.846
						c0.229,0.022,0.453,0.067,0.674,0.13c0.943,0.273,1.806,0.818,2.459,1.551c0.323,0.366,0.602,0.789,0.72,1.269
						c0.051,0.237,0.078,0.491,0.01,0.728c-0.013,0.059-0.036,0.12-0.038,0.178l0.069,0.17c0.058,0.111,0.077,0.232,0.096,0.354
						c0.113,1.005-0.549,1.896-1.245,2.547c-0.736,0.64-1.637,1.142-2.618,1.248c-0.969,0.085-1.998-0.011-2.855-0.505
						c-0.425-0.246-0.785-0.609-1.001-1.051c-0.219-0.441-0.292-0.939-0.287-1.429c-0.038-0.49,0.267-0.979,0.003-1.443
						c-0.123-0.473-0.193-0.969-0.112-1.457c0.078-0.486,0.325-0.941,0.687-1.275l0.278-0.23l0.165-0.106
						c0.106-0.076,0.227-0.132,0.344-0.19"/>
					
						<line fill="none" stroke="#333333" stroke-width="1.0616" stroke-linecap="round" stroke-miterlimit="10" x1="49.567" y1="136.882" x2="49.494" y2="136.893"/>
				</g>
			</g>
			
				<ellipse transform="matrix(-0.8504 -0.5262 0.5262 -0.8504 15.2483 291.1967)" opacity="0.5" fill="#FFFFFF" enable-background="new    " cx="49.03" cy="143.43" rx="0.94" ry="0.774"/>
		</g>
	</g>
</g>
<g id="calque07">
	<g>
		
			<polygon fill="#CC924C" stroke="#333333" stroke-width="1.0616" stroke-linecap="round" stroke-linejoin="round" stroke-miterlimit="10" points="
			54.797,161.427 63.603,158.508 60.645,158.032 		"/>
		
			<polygon fill="#CC924C" stroke="#333333" stroke-width="1.0616" stroke-linecap="round" stroke-linejoin="round" stroke-miterlimit="10" points="
			26.058,157.408 32.684,153.531 29.726,153.056 		"/>
		
			<polygon fill="#CC924C" stroke="#333333" stroke-width="1.0616" stroke-linecap="round" stroke-linejoin="round" stroke-miterlimit="10" points="
			47.516,140.885 58.294,153.587 55.337,153.111 		"/>
		
			<polygon fill="#CC924C" stroke="#333333" stroke-width="1.0616" stroke-linecap="round" stroke-linejoin="round" stroke-miterlimit="10" points="
			19.055,142.006 24.843,148.203 22.935,147.896 		"/>
		<g>
			
				<path fill="#A1C453" stroke="#333333" stroke-width="1.5923" stroke-linecap="round" stroke-linejoin="round" stroke-miterlimit="10" d="
				M65.148,143.083c-0.569,2.8-2.429,3.892,0.77,8.972s5.259,0.601,7.362,3.944c-2.104-3.343,2.813-3.517-0.269-8.41
				C69.931,142.696,67.848,144.006,65.148,143.083z"/>
			<g>
				<line fill="none" x1="73.28" y1="155.999" x2="66.979" y2="145.99"/>
				<g>
					<polyline fill="none" stroke="#333333" stroke-width="1.0616" stroke-linecap="round" stroke-miterlimit="10" points="
						72.997,155.55 72.631,154.968 68.468,148.355 68.149,147.85 					"/>
					
						<line fill="none" stroke="#333333" stroke-width="1.0616" stroke-linecap="round" stroke-miterlimit="10" x1="67.262" y1="146.439" x2="67.301" y2="146.502"/>
				</g>
			</g>
		</g>
		<g>
			
				<path fill="#A1C453" stroke="#333333" stroke-width="1.5923" stroke-linecap="round" stroke-linejoin="round" stroke-miterlimit="10" d="
				M41.416,168.77c2.76,0.738,3.739,2.658,9.002-0.23c5.263-2.887,0.914-5.213,4.379-7.113c-3.465,1.9-3.342-3.018-8.412-0.236
				C41.316,163.972,42.5,166.129,41.416,168.77z"/>
			<g>
				<line fill="none" x1="54.797" y1="161.427" x2="44.427" y2="167.116"/>
				<g>
					<polyline fill="none" stroke="#333333" stroke-width="1.0616" stroke-linecap="round" stroke-miterlimit="10" points="
						54.332,161.682 53.729,162.013 46.878,165.771 46.354,166.059 					"/>
					
						<line fill="none" stroke="#333333" stroke-width="1.0616" stroke-linecap="round" stroke-miterlimit="10" x1="44.893" y1="166.861" x2="44.957" y2="166.825"/>
				</g>
			</g>
		</g>
		<g>
			
				<path fill="#A1C453" stroke="#333333" stroke-width="1.5923" stroke-linecap="round" stroke-linejoin="round" stroke-miterlimit="10" d="
				M31.373,134.917c1.374,2.917,0.432,5.16,6.754,7.593c6.324,2.433,5.16-3.009,9.319-1.407c-4.159-1.602,0.169-5.079-5.922-7.421
				C35.436,131.337,34.438,133.929,31.373,134.917z"/>
			<g>
				<line fill="none" x1="47.447" y1="141.102" x2="34.99" y2="136.308"/>
				<g>
					<polyline fill="none" stroke="#333333" stroke-width="1.0616" stroke-linecap="round" stroke-miterlimit="10" points="
						46.952,140.912 46.311,140.665 37.599,137.312 37.041,137.097 					"/>
					
						<line fill="none" stroke="#333333" stroke-width="1.0616" stroke-linecap="round" stroke-miterlimit="10" x1="35.485" y1="136.498" x2="35.556" y2="136.525"/>
				</g>
			</g>
		</g>
		<g>
			
				<path fill="#A1C453" stroke="#333333" stroke-width="1.5923" stroke-linecap="round" stroke-linejoin="round" stroke-miterlimit="10" d="
				M40.926,125.37c-1.092,3.034-3.342,3.954-0.592,10.146c2.75,6.189,5.775,1.521,7.584,5.595c-1.809-4.074,3.709-3.475,1.061-9.435
				C46.33,125.711,43.791,126.838,40.926,125.37z"/>
			<g>
				<line fill="none" x1="47.918" y1="141.11" x2="42.5" y2="128.913"/>
				<g>
					<polyline fill="none" stroke="#333333" stroke-width="1.0616" stroke-linecap="round" stroke-miterlimit="10" points="
						47.702,140.625 47.424,139.997 43.635,131.467 43.393,130.921 					"/>
					
						<line fill="none" stroke="#333333" stroke-width="1.0616" stroke-linecap="round" stroke-miterlimit="10" x1="42.716" y1="129.397" x2="42.746" y2="129.466"/>
				</g>
			</g>
		</g>
		<g>
			
				<path fill="#A1C453" stroke="#333333" stroke-width="1.5923" stroke-linecap="round" stroke-linejoin="round" stroke-miterlimit="10" d="
				M10.403,132.771c-0.035,2.558-1.488,3.829,2.169,7.764c3.659,3.936,4.726-0.347,7.134,2.244c-2.408-2.59,1.887-3.562-1.638-7.352
				C14.546,131.635,12.932,133.135,10.403,132.771z"/>
			<g>
				<line fill="none" x1="19.705" y1="142.778" x2="12.497" y2="135.023"/>
				<g>
					<polyline fill="none" stroke="#333333" stroke-width="1.0616" stroke-linecap="round" stroke-miterlimit="10" points="
						19.344,142.39 18.875,141.886 14.4,137.071 13.993,136.633 					"/>
					
						<line fill="none" stroke="#333333" stroke-width="1.0616" stroke-linecap="round" stroke-miterlimit="10" x1="12.858" y1="135.412" x2="12.909" y2="135.467"/>
				</g>
			</g>
		</g>
		<g>
			
				<path fill="#A1C453" stroke="#333333" stroke-width="0.8493" stroke-linecap="round" stroke-linejoin="round" stroke-miterlimit="10" d="
				M19.717,135.823c-0.844,0.821-1.73,0.762-1.822,3.232c-0.089,2.473,1.652,1.425,1.594,3.053c0.06-1.627,1.773-0.545,1.859-2.926
				C21.436,136.801,20.421,136.764,19.717,135.823z"/>
			<g>
				<line fill="none" x1="19.488" y1="142.108" x2="19.665" y2="137.237"/>
				<g>
					<polyline fill="none" stroke="#333333" stroke-width="1.0616" stroke-linecap="round" stroke-miterlimit="10" points="
						19.508,141.578 19.532,140.89 19.563,140.031 19.585,139.434 					"/>
					
						<line fill="none" stroke="#333333" stroke-width="1.0616" stroke-linecap="round" stroke-miterlimit="10" x1="19.646" y1="137.768" x2="19.643" y2="137.842"/>
				</g>
			</g>
		</g>
		<g>
			
				<path fill="#A1C453" stroke="#333333" stroke-width="1.0616" stroke-linecap="round" stroke-linejoin="round" stroke-miterlimit="10" d="
				M24.279,164.481c1.121-0.667,2.06-0.375,2.789-3.014c0.732-2.639-1.409-1.957-0.93-3.693c-0.479,1.736-2.049,0.131-2.754,2.672
				C22.68,162.987,23.762,163.287,24.279,164.481z"/>
			<g>
				<line fill="none" x1="26.139" y1="157.774" x2="24.698" y2="162.973"/>
				<g>
					<polyline fill="none" stroke="#333333" stroke-width="0.8493" stroke-linecap="round" stroke-miterlimit="10" points="
						26.025,158.183 25.878,158.713 25.295,160.817 25.168,161.278 					"/>
					
						<line fill="none" stroke="#333333" stroke-width="0.8493" stroke-linecap="round" stroke-miterlimit="10" x1="24.812" y1="162.563" x2="24.827" y2="162.506"/>
				</g>
			</g>
		</g>
		<g>
			
				<path fill="#A1C453" stroke="#333333" stroke-width="1.5923" stroke-linecap="round" stroke-linejoin="round" stroke-miterlimit="10" d="
				M11.068,165.891c3.127,0.791,4.261,2.944,10.155-0.393c5.896-3.336,0.954-5.895,4.834-8.091c-3.88,2.196-3.816-3.356-9.494-0.143
				C10.885,160.479,12.254,162.896,11.068,165.891z"/>
			<g>
				<line fill="none" x1="26.058" y1="157.408" x2="14.441" y2="163.981"/>
				<g>
					<polyline fill="none" stroke="#333333" stroke-width="1.0616" stroke-linecap="round" stroke-miterlimit="10" points="
						25.596,157.669 24.997,158.008 16.874,162.604 16.354,162.899 					"/>
					
						<line fill="none" stroke="#333333" stroke-width="1.0616" stroke-linecap="round" stroke-miterlimit="10" x1="14.903" y1="163.72" x2="14.969" y2="163.683"/>
				</g>
			</g>
		</g>
		<g>
			
				<path fill="#A1C453" stroke="#333333" stroke-width="1.5923" stroke-linecap="round" stroke-linejoin="round" stroke-miterlimit="10" d="
				M32.125,169.795c0.84-2.392,2.604-3.128,0.403-7.974c-2.198-4.848-4.547-1.16-5.991-4.351c1.444,3.19-2.895,2.751-0.775,7.419
				C27.879,169.559,29.865,168.658,32.125,169.795z"/>
			<g>
				<line fill="none" x1="26.537" y1="157.471" x2="30.867" y2="167.02"/>
				<g>
					<polyline fill="none" stroke="#333333" stroke-width="1.0616" stroke-linecap="round" stroke-miterlimit="10" points="
						26.756,157.954 27.04,158.581 29.713,164.474 29.96,165.019 					"/>
					
						<line fill="none" stroke="#333333" stroke-width="1.0616" stroke-linecap="round" stroke-miterlimit="10" x1="30.648" y1="166.537" x2="30.617" y2="166.469"/>
				</g>
			</g>
		</g>
		<g>
			<g>
				<path fill="#EF4529" d="M63.217,162.355c2.684,2.583,2.783,8.505,0.183,9.531c-0.984,2.952-6.849,2.762-9.531,0.18
					c-2.681-2.582-4.064-6.448,0.585-9.109C56.797,158.418,60.537,159.774,63.217,162.355z"/>
				<g>
					<path fill="none" stroke="#333333" stroke-width="1.5923" stroke-linecap="round" stroke-miterlimit="10" d="M63.742,162.953
						c0.198,0.28,0.401,0.558,0.555,0.868c0.774,1.44,1.083,3.114,0.959,4.738c-0.072,0.809-0.263,1.631-0.704,2.324
						c-0.232,0.333-0.504,0.654-0.866,0.848l-0.269,0.146c-0.063,0.076-0.091,0.181-0.14,0.269c-0.07,0.194-0.187,0.362-0.319,0.518
						c-0.514,0.643-1.293,1.012-2.08,1.2c-0.796,0.189-1.622,0.216-2.436,0.142c-1.611-0.181-3.236-0.738-4.458-1.84
						c-1.178-1.108-2.201-2.494-2.508-4.114c-0.146-0.803-0.06-1.651,0.277-2.397c0.324-0.756,0.896-1.376,1.524-1.888
						c0.309-0.271,0.657-0.483,1.004-0.702c0.202-0.08,0.265-0.296,0.376-0.464c0.106-0.173,0.193-0.36,0.318-0.522
						c0.453-0.678,1.046-1.275,1.766-1.662c0.72-0.39,1.568-0.509,2.374-0.378c0.198,0.013,0.41,0.089,0.585,0.128
						c0.095,0.025,0.19,0.046,0.281,0.085c0.184,0.073,0.37,0.134,0.548,0.216"/>
					
						<line fill="none" stroke="#333333" stroke-width="1.5923" stroke-linecap="round" stroke-miterlimit="10" x1="62.624" y1="161.824" x2="62.537" y2="161.753"/>
				</g>
			</g>
			<path opacity="0.5" fill="#FFFFFF" enable-background="new    " d="M55.328,168.162c0.162,0.835-0.263,1.621-0.95,1.754
				c-0.688,0.133-1.378-0.437-1.541-1.272c-0.165-0.836,0.262-1.622,0.948-1.754C54.474,166.756,55.164,167.326,55.328,168.162z"/>
		</g>
		<g>
			<g>
				<path fill="#D3F46C" d="M52.631,133.414c3.703-0.375,8.285,3.381,7.384,6.027c1.615,2.661-2.325,7.01-6.028,7.384
					c-3.702,0.374-7.547-1.071-6.567-6.338C45.473,135.763,48.928,133.788,52.631,133.414z"/>
				<g>
					<path fill="none" stroke="#333333" stroke-width="1.5923" stroke-linecap="round" stroke-miterlimit="10" d="M53.426,133.399
						c0.343,0.03,0.687,0.055,1.021,0.14c1.6,0.341,3.074,1.189,4.232,2.335c0.57,0.579,1.074,1.255,1.315,2.041
						c0.104,0.393,0.173,0.807,0.086,1.208l-0.063,0.3c0.021,0.095,0.079,0.186,0.117,0.28c0.101,0.18,0.154,0.376,0.188,0.579
						c0.158,0.808-0.064,1.641-0.432,2.363c-0.371,0.728-0.885,1.376-1.468,1.948c-1.181,1.112-2.657,1.99-4.287,2.208
						c-1.607,0.181-3.326,0.065-4.76-0.75c-0.707-0.407-1.297-1.023-1.647-1.762c-0.366-0.736-0.47-1.573-0.452-2.384
						c-0.008-0.41,0.059-0.814,0.114-1.219c0.07-0.207-0.057-0.393-0.112-0.587c-0.062-0.194-0.148-0.381-0.19-0.582
						c-0.225-0.784-0.295-1.623-0.124-2.421c0.168-0.8,0.628-1.525,1.248-2.054c0.139-0.144,0.334-0.256,0.477-0.363
						c0.08-0.056,0.159-0.116,0.247-0.16c0.174-0.092,0.342-0.196,0.521-0.278"/>
					
						<line fill="none" stroke="#333333" stroke-width="1.5923" stroke-linecap="round" stroke-miterlimit="10" x1="51.842" y1="133.522" x2="51.732" y2="133.543"/>
				</g>
			</g>
			
				<ellipse transform="matrix(-0.8715 -0.4904 0.4904 -0.8715 25.2998 295.2112)" opacity="0.5" fill="#FFFFFF" enable-background="new    " cx="51.323" cy="144.291" rx="1.543" ry="1.269"/>
		</g>
		<path fill="#CC924C" stroke="#333333" stroke-width="2.6539" stroke-linecap="round" stroke-miterlimit="10" d="M93.591,163.873
			L7.225,149.434c-1.094-0.176-1.839-1.206-1.663-2.302l0,0c0.177-1.093,1.207-1.838,2.302-1.662l86.534,13.39"/>
		<g>
			
				<path fill="#A1C453" stroke="#333333" stroke-width="1.0616" stroke-linecap="round" stroke-linejoin="round" stroke-miterlimit="10" d="
				M5.65,145.578c0,0-3.043,0.712-3.604,1.013c-0.452,0.238,2.67,1.438,3.867,1.666L5.65,145.578z"/>
			
				<path fill="#A1C453" stroke="#333333" stroke-width="1.0616" stroke-linecap="round" stroke-linejoin="round" stroke-miterlimit="10" d="
				M5.009,147.975l4.044-2.602c0,0-4.559-1.454-6.345-0.552C2.708,144.82,4.268,146.537,5.009,147.975z"/>
			
				<path fill="#A1C453" stroke="#333333" stroke-width="1.0616" stroke-linecap="round" stroke-linejoin="round" stroke-miterlimit="10" d="
				M10.543,149.496c0,0-5.758,1.458-8.461-0.786l3.992-2.295L10.543,149.496z"/>
		</g>
	</g>
</g>
<g id="calque08">
	<g>
		
			<polygon fill="#CC924C" stroke="#333333" stroke-width="1.0616" stroke-linecap="round" stroke-linejoin="round" stroke-miterlimit="10" points="
			54.797,161.427 63.603,158.508 60.645,158.032 		"/>
		
			<polygon fill="#CC924C" stroke="#333333" stroke-width="1.0616" stroke-linecap="round" stroke-linejoin="round" stroke-miterlimit="10" points="
			26.058,157.408 32.684,153.531 29.726,153.056 		"/>
		
			<polygon fill="#CC924C" stroke="#333333" stroke-width="1.0616" stroke-linecap="round" stroke-linejoin="round" stroke-miterlimit="10" points="
			47.516,140.885 58.294,153.587 55.337,153.111 		"/>
		
			<polygon fill="#CC924C" stroke="#333333" stroke-width="1.0616" stroke-linecap="round" stroke-linejoin="round" stroke-miterlimit="10" points="
			19.055,142.006 24.843,148.203 22.935,147.896 		"/>
		<g>
			
				<path fill="#A1C453" stroke="#333333" stroke-width="1.5923" stroke-linecap="round" stroke-linejoin="round" stroke-miterlimit="10" d="
				M65.148,143.083c-0.569,2.8-2.429,3.892,0.77,8.972s5.259,0.601,7.362,3.944c-2.104-3.343,2.813-3.517-0.269-8.41
				C69.931,142.696,67.848,144.007,65.148,143.083z"/>
			<g>
				<line fill="none" x1="73.28" y1="155.999" x2="66.979" y2="145.99"/>
				<g>
					<polyline fill="none" stroke="#333333" stroke-width="1.0616" stroke-linecap="round" stroke-miterlimit="10" points="
						72.997,155.55 72.631,154.968 68.468,148.355 68.149,147.85 					"/>
					
						<line fill="none" stroke="#333333" stroke-width="1.0616" stroke-linecap="round" stroke-miterlimit="10" x1="67.262" y1="146.439" x2="67.301" y2="146.502"/>
				</g>
			</g>
		</g>
		<g>
			
				<path fill="#A1C453" stroke="#333333" stroke-width="1.5923" stroke-linecap="round" stroke-linejoin="round" stroke-miterlimit="10" d="
				M41.416,168.77c2.76,0.738,3.739,2.658,9.002-0.23c5.263-2.887,0.914-5.212,4.379-7.113c-3.465,1.901-3.342-3.018-8.412-0.236
				C41.316,163.972,42.5,166.129,41.416,168.77z"/>
			<g>
				<line fill="none" x1="54.797" y1="161.427" x2="44.427" y2="167.116"/>
				<g>
					<polyline fill="none" stroke="#333333" stroke-width="1.0616" stroke-linecap="round" stroke-miterlimit="10" points="
						54.332,161.682 53.729,162.013 46.878,165.771 46.354,166.059 					"/>
					
						<line fill="none" stroke="#333333" stroke-width="1.0616" stroke-linecap="round" stroke-miterlimit="10" x1="44.893" y1="166.861" x2="44.957" y2="166.825"/>
				</g>
			</g>
		</g>
		<g>
			
				<path fill="#A1C453" stroke="#333333" stroke-width="1.5923" stroke-linecap="round" stroke-linejoin="round" stroke-miterlimit="10" d="
				M31.373,134.917c1.374,2.917,0.432,5.16,6.754,7.593c6.324,2.433,5.16-3.009,9.319-1.407c-4.159-1.602,0.169-5.079-5.922-7.421
				C35.436,131.337,34.438,133.929,31.373,134.917z"/>
			<g>
				<line fill="none" x1="47.447" y1="141.102" x2="34.99" y2="136.308"/>
				<g>
					<polyline fill="none" stroke="#333333" stroke-width="1.0616" stroke-linecap="round" stroke-miterlimit="10" points="
						46.952,140.912 46.311,140.665 37.599,137.312 37.041,137.097 					"/>
					
						<line fill="none" stroke="#333333" stroke-width="1.0616" stroke-linecap="round" stroke-miterlimit="10" x1="35.485" y1="136.498" x2="35.556" y2="136.525"/>
				</g>
			</g>
		</g>
		<g>
			
				<path fill="#A1C453" stroke="#333333" stroke-width="1.5923" stroke-linecap="round" stroke-linejoin="round" stroke-miterlimit="10" d="
				M40.926,125.37c-1.092,3.035-3.342,3.954-0.592,10.146c2.75,6.189,5.775,1.521,7.584,5.595c-1.809-4.074,3.709-3.475,1.061-9.435
				C46.33,125.711,43.791,126.838,40.926,125.37z"/>
			<g>
				<line fill="none" x1="47.918" y1="141.11" x2="42.5" y2="128.913"/>
				<g>
					<polyline fill="none" stroke="#333333" stroke-width="1.0616" stroke-linecap="round" stroke-miterlimit="10" points="
						47.702,140.625 47.424,139.997 43.635,131.467 43.393,130.921 					"/>
					
						<line fill="none" stroke="#333333" stroke-width="1.0616" stroke-linecap="round" stroke-miterlimit="10" x1="42.716" y1="129.397" x2="42.746" y2="129.466"/>
				</g>
			</g>
		</g>
		<g>
			
				<path fill="#A1C453" stroke="#333333" stroke-width="1.5923" stroke-linecap="round" stroke-linejoin="round" stroke-miterlimit="10" d="
				M10.389,132.645c-0.035,2.557-1.488,3.828,2.17,7.763c3.658,3.936,4.727-0.347,7.131,2.244c-2.404-2.591,1.89-3.561-1.635-7.352
				C14.531,131.508,12.916,133.008,10.389,132.645z"/>
			<g>
				<line fill="none" x1="19.689" y1="142.651" x2="12.482" y2="134.897"/>
				<g>
					<polyline fill="none" stroke="#333333" stroke-width="1.0616" stroke-linecap="round" stroke-miterlimit="10" points="
						19.328,142.263 18.86,141.759 14.386,136.944 13.979,136.507 					"/>
					
						<line fill="none" stroke="#333333" stroke-width="1.0616" stroke-linecap="round" stroke-miterlimit="10" x1="12.844" y1="135.286" x2="12.895" y2="135.34"/>
				</g>
			</g>
		</g>
		<g>
			
				<path fill="#A1C453" stroke="#333333" stroke-width="1.5923" stroke-linecap="round" stroke-linejoin="round" stroke-miterlimit="10" d="
				M20.238,128.658c-1.834,1.783-3.76,1.654-3.954,7.023c-0.196,5.37,3.586,3.096,3.457,6.63c0.129-3.534,3.852-1.184,4.04-6.356
				C23.97,130.783,21.768,130.702,20.238,128.658z"/>
			<g>
				<line fill="none" x1="19.74" y1="142.311" x2="20.127" y2="131.731"/>
				<g>
					<polyline fill="none" stroke="#333333" stroke-width="1.0616" stroke-linecap="round" stroke-miterlimit="10" points="
						19.76,141.781 19.785,141.093 20.024,134.524 20.047,133.927 					"/>
					
						<line fill="none" stroke="#333333" stroke-width="1.0616" stroke-linecap="round" stroke-miterlimit="10" x1="20.107" y1="132.261" x2="20.104" y2="132.336"/>
				</g>
			</g>
		</g>
		<g>
			
				<path fill="#A1C453" stroke="#333333" stroke-width="1.5923" stroke-linecap="round" stroke-linejoin="round" stroke-miterlimit="10" d="
				M21.494,174.475c2.771-1.651,5.094-0.929,6.903-7.457c1.811-6.529-3.494-4.844-2.303-9.141c-1.191,4.296-5.072,0.326-6.814,6.613
				C17.538,170.779,20.215,171.52,21.494,174.475z"/>
			<g>
				<line fill="none" x1="26.096" y1="157.877" x2="22.529" y2="170.74"/>
				<g>
					<polyline fill="none" stroke="#333333" stroke-width="1.0616" stroke-linecap="round" stroke-miterlimit="10" points="
						25.954,158.389 25.771,159.051 23.276,168.046 23.116,168.622 					"/>
					
						<line fill="none" stroke="#333333" stroke-width="1.0616" stroke-linecap="round" stroke-miterlimit="10" x1="22.671" y1="170.228" x2="22.691" y2="170.156"/>
				</g>
			</g>
		</g>
		<g>
			
				<path fill="#A1C453" stroke="#333333" stroke-width="1.5923" stroke-linecap="round" stroke-linejoin="round" stroke-miterlimit="10" d="
				M11.068,165.891c3.127,0.792,4.261,2.944,10.155-0.392c5.896-3.337,0.954-5.896,4.834-8.091c-3.88,2.196-3.816-3.356-9.494-0.143
				C10.885,160.479,12.254,162.896,11.068,165.891z"/>
			<g>
				<line fill="none" x1="26.058" y1="157.408" x2="14.441" y2="163.981"/>
				<g>
					<polyline fill="none" stroke="#333333" stroke-width="1.0616" stroke-linecap="round" stroke-miterlimit="10" points="
						25.596,157.669 24.997,158.008 16.874,162.604 16.354,162.899 					"/>
					
						<line fill="none" stroke="#333333" stroke-width="1.0616" stroke-linecap="round" stroke-miterlimit="10" x1="14.903" y1="163.72" x2="14.969" y2="163.683"/>
				</g>
			</g>
		</g>
		<g>
			
				<path fill="#A1C453" stroke="#333333" stroke-width="1.5923" stroke-linecap="round" stroke-linejoin="round" stroke-miterlimit="10" d="
				M32.125,169.795c0.84-2.392,2.604-3.128,0.403-7.974c-2.198-4.848-4.547-1.16-5.991-4.351c1.444,3.19-2.895,2.751-0.775,7.419
				C27.879,169.559,29.865,168.658,32.125,169.795z"/>
			<g>
				<line fill="none" x1="26.537" y1="157.471" x2="30.867" y2="167.02"/>
				<g>
					<polyline fill="none" stroke="#333333" stroke-width="1.0616" stroke-linecap="round" stroke-miterlimit="10" points="
						26.756,157.954 27.04,158.581 29.713,164.474 29.96,165.019 					"/>
					
						<line fill="none" stroke="#333333" stroke-width="1.0616" stroke-linecap="round" stroke-miterlimit="10" x1="30.648" y1="166.537" x2="30.617" y2="166.469"/>
				</g>
			</g>
		</g>
		<g>
			<g>
				<path fill="#EF4529" d="M63.217,162.355c2.684,2.583,2.783,8.505,0.183,9.531c-0.984,2.952-6.849,2.762-9.531,0.18
					c-2.681-2.582-4.064-6.448,0.585-9.109C56.797,158.418,60.537,159.774,63.217,162.355z"/>
				<g>
					<path fill="none" stroke="#333333" stroke-width="1.5923" stroke-linecap="round" stroke-miterlimit="10" d="M63.742,162.953
						c0.198,0.28,0.401,0.558,0.555,0.868c0.774,1.44,1.083,3.114,0.959,4.738c-0.072,0.809-0.263,1.631-0.704,2.324
						c-0.232,0.333-0.504,0.654-0.866,0.848l-0.269,0.146c-0.063,0.076-0.091,0.181-0.14,0.269c-0.07,0.194-0.187,0.362-0.319,0.518
						c-0.514,0.643-1.293,1.012-2.08,1.2c-0.796,0.189-1.622,0.216-2.436,0.142c-1.611-0.181-3.236-0.738-4.458-1.84
						c-1.178-1.108-2.201-2.494-2.508-4.114c-0.146-0.803-0.06-1.651,0.277-2.397c0.324-0.756,0.896-1.376,1.524-1.888
						c0.309-0.271,0.657-0.483,1.004-0.702c0.202-0.08,0.265-0.296,0.376-0.464c0.106-0.173,0.193-0.36,0.318-0.522
						c0.453-0.678,1.046-1.275,1.766-1.662c0.72-0.39,1.568-0.509,2.374-0.378c0.198,0.013,0.41,0.089,0.585,0.128
						c0.095,0.025,0.19,0.046,0.281,0.085c0.184,0.073,0.37,0.134,0.548,0.216"/>
					
						<line fill="none" stroke="#333333" stroke-width="1.5923" stroke-linecap="round" stroke-miterlimit="10" x1="62.624" y1="161.824" x2="62.537" y2="161.753"/>
				</g>
			</g>
			<path opacity="0.5" fill="#FFFFFF" enable-background="new    " d="M55.328,168.162c0.162,0.835-0.263,1.621-0.95,1.754
				c-0.688,0.133-1.378-0.437-1.541-1.272c-0.165-0.836,0.262-1.622,0.948-1.754C54.474,166.756,55.164,167.326,55.328,168.162z"/>
		</g>
		<g>
			<g>
				<path fill="#EF4529" d="M52.631,133.414c3.703-0.375,8.285,3.381,7.384,6.027c1.615,2.661-2.325,7.01-6.028,7.384
					c-3.702,0.374-7.547-1.071-6.567-6.338C45.473,135.763,48.928,133.788,52.631,133.414z"/>
				<g>
					<path fill="none" stroke="#333333" stroke-width="1.5923" stroke-linecap="round" stroke-miterlimit="10" d="M53.426,133.399
						c0.343,0.03,0.687,0.055,1.021,0.14c1.6,0.341,3.074,1.189,4.232,2.335c0.57,0.579,1.074,1.255,1.315,2.041
						c0.104,0.393,0.173,0.807,0.086,1.208l-0.063,0.3c0.021,0.095,0.079,0.186,0.117,0.28c0.101,0.18,0.154,0.376,0.188,0.579
						c0.158,0.808-0.064,1.641-0.432,2.363c-0.371,0.728-0.885,1.376-1.468,1.948c-1.181,1.112-2.657,1.99-4.287,2.208
						c-1.607,0.181-3.326,0.065-4.76-0.75c-0.707-0.407-1.297-1.023-1.647-1.762c-0.366-0.736-0.47-1.573-0.452-2.384
						c-0.008-0.41,0.059-0.814,0.114-1.219c0.07-0.207-0.057-0.393-0.112-0.587c-0.062-0.194-0.148-0.381-0.19-0.582
						c-0.225-0.784-0.295-1.623-0.124-2.421c0.168-0.8,0.628-1.525,1.248-2.054c0.139-0.144,0.334-0.256,0.477-0.363
						c0.08-0.056,0.159-0.116,0.247-0.16c0.174-0.092,0.342-0.196,0.521-0.278"/>
					
						<line fill="none" stroke="#333333" stroke-width="1.5923" stroke-linecap="round" stroke-miterlimit="10" x1="51.842" y1="133.522" x2="51.732" y2="133.543"/>
				</g>
			</g>
			
				<ellipse transform="matrix(-0.8715 -0.4905 0.4905 -0.8715 25.2916 295.2114)" opacity="0.5" fill="#FFFFFF" enable-background="new    " cx="51.33" cy="144.292" rx="1.543" ry="1.268"/>
		</g>
		<path fill="#CC924C" stroke="#333333" stroke-width="2.6539" stroke-linecap="round" stroke-miterlimit="10" d="M93.591,163.873
			L7.225,149.434c-1.094-0.176-1.839-1.206-1.663-2.302l0,0c0.177-1.093,1.207-1.838,2.302-1.662l86.534,13.39"/>
		<g>
			
				<path fill="#A1C453" stroke="#333333" stroke-width="1.0616" stroke-linecap="round" stroke-linejoin="round" stroke-miterlimit="10" d="
				M5.65,145.578c0,0-3.043,0.712-3.604,1.013c-0.452,0.238,2.67,1.438,3.867,1.666L5.65,145.578z"/>
			
				<path fill="#A1C453" stroke="#333333" stroke-width="1.0616" stroke-linecap="round" stroke-linejoin="round" stroke-miterlimit="10" d="
				M5.009,147.976l4.044-2.604c0,0-4.559-1.454-6.345-0.552C2.708,144.82,4.268,146.537,5.009,147.976z"/>
			
				<path fill="#A1C453" stroke="#333333" stroke-width="1.0616" stroke-linecap="round" stroke-linejoin="round" stroke-miterlimit="10" d="
				M10.543,149.496c0,0-5.758,1.458-8.461-0.786l3.992-2.295L10.543,149.496z"/>
		</g>
	</g>
</g>
</svg>
