<?xml version="1.0" encoding="utf-8"?>
<!-- Generator: Adobe Illustrator 16.0.0, SVG Export Plug-In . SVG Version: 6.00 Build 0)  -->
<!DOCTYPE svg PUBLIC "-//W3C//DTD SVG 1.1//EN" "http://www.w3.org/Graphics/SVG/1.1/DTD/svg11.dtd">
<svg version="1.1" id="Calque_1" xmlns="http://www.w3.org/2000/svg" xmlns:xlink="http://www.w3.org/1999/xlink" x="0px" y="0px"
	 width="400px" height="400px" viewBox="0 0 400 400" enable-background="new 0 0 400 400" xml:space="preserve">
<g id="calque00">
	<g>
		<path fill="#CC924C" stroke="#333333" stroke-width="2.6539" stroke-linecap="round" stroke-miterlimit="10" d="M110.285,197.372
			l9.051-2.56c1.047-0.361,2.189,0.196,2.552,1.243l0,0c0.361,1.048-0.195,2.19-1.243,2.552l-8.705,3.564"/>
		<g>
			
				<path fill="#A1C453" stroke="#333333" stroke-width="1.0616" stroke-linecap="round" stroke-linejoin="round" stroke-miterlimit="10" d="
				M122.545,197.468c0,0,2.346-2.064,2.7-2.594c0.285-0.424-3.032-0.007-4.197,0.356L122.545,197.468z"/>
			
				<path fill="#A1C453" stroke="#333333" stroke-width="1.0616" stroke-linecap="round" stroke-linejoin="round" stroke-miterlimit="10" d="
				M121.977,195.054l-2.335,4.202c0,0,4.704-0.869,5.854-2.508C125.496,196.748,123.31,195.971,121.977,195.054z"/>
			
				<path fill="#A1C453" stroke="#333333" stroke-width="1.0616" stroke-linecap="round" stroke-linejoin="round" stroke-miterlimit="10" d="
				M116.382,196.325c0,0,4.387-4.005,7.829-3.302l-2.437,3.907L116.382,196.325z"/>
		</g>
	</g>
</g>
<g id="calque01">
	<g>
		<g>
			
				<path fill="#A1C453" stroke="#333333" stroke-width="1.0616" stroke-linecap="round" stroke-linejoin="round" stroke-miterlimit="10" d="
				M131.687,184.654c0.479,1.222,1.404,1.568,0.36,4.115c-1.045,2.547-2.329,0.686-3.017,2.362c0.688-1.677-1.547-1.368-0.541-3.821
				C129.495,184.856,130.54,185.285,131.687,184.654z"/>
			<g>
				<line fill="none" x1="129.031" y1="191.132" x2="131.089" y2="186.112"/>
				<g>
					<polyline fill="none" stroke="#333333" stroke-width="1.0616" stroke-linecap="round" stroke-miterlimit="10" points="
						129.232,190.641 129.493,190.004 130.029,188.698 130.255,188.146 					"/>
					
						<line fill="none" stroke="#333333" stroke-width="1.0616" stroke-linecap="round" stroke-miterlimit="10" x1="130.888" y1="186.604" x2="130.86" y2="186.673"/>
				</g>
			</g>
		</g>
		<path fill="#CC924C" stroke="#333333" stroke-width="2.6539" stroke-linecap="round" stroke-miterlimit="10" d="M111.94,202.172
			l27.424-10.021c1.049-0.36,1.605-1.505,1.244-2.552l0,0c-0.36-1.048-1.505-1.604-2.553-1.243l-27.771,9.017"/>
		<g>
			
				<path fill="#A1C453" stroke="#333333" stroke-width="1.0616" stroke-linecap="round" stroke-linejoin="round" stroke-miterlimit="10" d="
				M140.255,188.082c0,0,3.12,0.179,3.726,0.379c0.487,0.157-2.382,1.875-3.524,2.305L140.255,188.082z"/>
			
				<path fill="#A1C453" stroke="#333333" stroke-width="1.0616" stroke-linecap="round" stroke-linejoin="round" stroke-miterlimit="10" d="
				M141.298,190.334l-4.43-1.87c0,0,4.239-2.216,6.155-1.634C143.023,186.83,141.781,188.79,141.298,190.334z"/>
			
				<path fill="#A1C453" stroke="#333333" stroke-width="1.0616" stroke-linecap="round" stroke-linejoin="round" stroke-miterlimit="10" d="
				M136.107,192.781c0,0,5.923,0.449,8.201-2.228l-4.327-1.573L136.107,192.781z"/>
		</g>
	</g>
</g>
<g id="calque02">
	<g>
		<g>
			
				<path fill="#A1C453" stroke="#333333" stroke-width="1.5923" stroke-linecap="round" stroke-linejoin="round" stroke-miterlimit="10" d="
				M130.39,175.933c1.786,2.231,3.938,2.353,3.41,8.334c-0.527,5.979-4.405,2.934-4.751,6.869c0.347-3.936-4.107-1.847-3.6-7.605
				C125.958,177.771,128.409,177.986,130.39,175.933z"/>
			<g>
				<line fill="none" x1="129.049" y1="191.136" x2="130.087" y2="179.354"/>
				<g>
					<polyline fill="none" stroke="#333333" stroke-width="1.0616" stroke-linecap="round" stroke-miterlimit="10" points="
						129.095,190.607 129.156,189.922 129.842,182.138 129.894,181.543 					"/>
					
						<line fill="none" stroke="#333333" stroke-width="1.0616" stroke-linecap="round" stroke-miterlimit="10" x1="130.041" y1="179.882" x2="130.034" y2="179.957"/>
				</g>
			</g>
		</g>
		<g>
			
				<path fill="#A1C453" stroke="#333333" stroke-width="1.0616" stroke-linecap="round" stroke-linejoin="round" stroke-miterlimit="10" d="
				M141.966,197.412c-1.25,0.305-1.709,1.16-4.049-0.193c-2.34-1.354-0.359-2.356-1.898-3.247c1.54,0.891,1.535-1.323,3.788-0.02
				C142.06,195.254,141.506,196.215,141.966,197.412z"/>
			<g>
				<line fill="none" x1="136.019" y1="193.972" x2="140.1" y2="196.371"/>
				<g>
					<polyline fill="none" stroke="#333333" stroke-width="1.0616" stroke-linecap="round" stroke-miterlimit="10" points="
						136.477,194.24 137.069,194.59 137.69,194.954 138.205,195.257 					"/>
					
						<line fill="none" stroke="#333333" stroke-width="1.0616" stroke-linecap="round" stroke-miterlimit="10" x1="139.642" y1="196.102" x2="139.578" y2="196.064"/>
				</g>
			</g>
		</g>
		<path fill="#CC924C" stroke="#333333" stroke-width="2.6539" stroke-linecap="round" stroke-miterlimit="10" d="M111.94,202.172
			l36.049-12.995c1.049-0.362,1.604-1.504,1.243-2.552l0,0c-0.36-1.049-1.505-1.605-2.552-1.243l-36.395,11.99"/>
		<g>
			
				<path fill="#A1C453" stroke="#333333" stroke-width="1.0616" stroke-linecap="round" stroke-linejoin="round" stroke-miterlimit="10" d="
				M148.879,185.107c0,0,3.12,0.18,3.726,0.379c0.487,0.157-2.383,1.873-3.523,2.303L148.879,185.107z"/>
			
				<path fill="#A1C453" stroke="#333333" stroke-width="1.0616" stroke-linecap="round" stroke-linejoin="round" stroke-miterlimit="10" d="
				M149.921,187.359l-4.431-1.87c0,0,4.24-2.216,6.155-1.633C151.647,183.856,150.405,185.816,149.921,187.359z"/>
			
				<path fill="#A1C453" stroke="#333333" stroke-width="1.0616" stroke-linecap="round" stroke-linejoin="round" stroke-miterlimit="10" d="
				M144.731,189.808c0,0,5.923,0.447,8.2-2.228l-4.327-1.577L144.731,189.808z"/>
		</g>
	</g>
</g>
<g id="calque03">
	<g>
		
			<polygon fill="#CC924C" stroke="#333333" stroke-width="1.0616" stroke-linecap="round" stroke-linejoin="round" stroke-miterlimit="10" points="
			141.553,197.351 134.276,194.36 136.103,193.729 		"/>
		<g>
			
				<path fill="#A1C453" stroke="#333333" stroke-width="1.5923" stroke-linecap="round" stroke-linejoin="round" stroke-miterlimit="10" d="
				M130.483,176.071c1.771,2.243,3.921,2.38,3.355,8.357c-0.568,5.976-4.425,2.904-4.799,6.836c0.374-3.932-4.096-1.872-3.548-7.628
				C126.039,177.88,128.49,178.113,130.483,176.071z"/>
			<g>
				<line fill="none" x1="129.04" y1="191.265" x2="130.158" y2="179.492"/>
				<g>
					<polyline fill="none" stroke="#333333" stroke-width="1.0616" stroke-linecap="round" stroke-miterlimit="10" points="
						129.09,190.736 129.155,190.052 129.894,182.275 129.95,181.68 					"/>
					
						<line fill="none" stroke="#333333" stroke-width="1.0616" stroke-linecap="round" stroke-miterlimit="10" x1="130.107" y1="180.021" x2="130.101" y2="180.095"/>
				</g>
			</g>
		</g>
		<g>
			
				<path fill="#A1C453" stroke="#333333" stroke-width="1.0616" stroke-linecap="round" stroke-linejoin="round" stroke-miterlimit="10" d="
				M148.375,174.094c1.005,1.766,2.503,2.094,1.465,6.233c-1.038,4.139-3.421,1.568-4.104,4.292c0.682-2.724-2.679-1.756-1.679-5.74
				C145.058,174.891,146.755,175.315,148.375,174.094z"/>
			<g>
				<line fill="none" x1="145.738" y1="184.619" x2="147.781" y2="176.463"/>
				<g>
					<polyline fill="none" stroke="#333333" stroke-width="1.0616" stroke-linecap="round" stroke-miterlimit="10" points="
						145.867,184.104 146.034,183.438 147.102,179.175 147.247,178.595 					"/>
					
						<line fill="none" stroke="#333333" stroke-width="1.0616" stroke-linecap="round" stroke-miterlimit="10" x1="147.652" y1="176.978" x2="147.634" y2="177.05"/>
				</g>
			</g>
		</g>
		<g>
			
				<path fill="#A1C453" stroke="#333333" stroke-width="1.5923" stroke-linecap="round" stroke-linejoin="round" stroke-miterlimit="10" d="
				M154.041,201.447c-1.178-2.27-0.495-4.076-5.578-5.818c-5.084-1.741-4.002,2.537-7.347,1.391
				c3.345,1.146,0.018,4.031,4.913,5.708C150.926,204.404,151.64,202.322,154.041,201.447z"/>
			<g>
				<line fill="none" x1="141.116" y1="197.02" x2="151.132" y2="200.451"/>
				<g>
					<polyline fill="none" stroke="#333333" stroke-width="1.0616" stroke-linecap="round" stroke-miterlimit="10" points="
						141.618,197.191 142.269,197.414 148.487,199.545 149.053,199.738 					"/>
					
						<line fill="none" stroke="#333333" stroke-width="1.0616" stroke-linecap="round" stroke-miterlimit="10" x1="150.63" y1="200.279" x2="150.559" y2="200.255"/>
				</g>
			</g>
		</g>
		<g>
			
				<path fill="#A1C453" stroke="#333333" stroke-width="1.0616" stroke-linecap="round" stroke-linejoin="round" stroke-miterlimit="10" d="
				M144.683,204.626c0.456-1.438,1.492-1.905,0.102-4.751c-1.395-2.845-2.727-0.611-3.643-2.481c0.916,1.87-1.672,1.686-0.331,4.428
				C142.151,204.561,143.319,203.988,144.683,204.626z"/>
			<g>
				<line fill="none" x1="141.142" y1="197.394" x2="143.884" y2="202.997"/>
				<g>
					<polyline fill="none" stroke="#333333" stroke-width="1.0616" stroke-linecap="round" stroke-miterlimit="10" points="
						141.375,197.87 141.677,198.488 142.655,200.486 142.918,201.023 					"/>
					
						<line fill="none" stroke="#333333" stroke-width="1.0616" stroke-linecap="round" stroke-miterlimit="10" x1="143.651" y1="202.521" x2="143.618" y2="202.453"/>
				</g>
			</g>
		</g>
		<path fill="#CC924C" stroke="#333333" stroke-width="2.8307" stroke-linecap="round" stroke-miterlimit="10" d="M111.94,202.172
			l44.979-16.076c1.049-0.361,1.604-1.503,1.244-2.552l0,0c-0.362-1.048-1.504-1.604-2.554-1.243l-45.323,15.071"/>
		<g>
			
				<path fill="#A1C453" stroke="#333333" stroke-width="1.0616" stroke-linecap="round" stroke-linejoin="round" stroke-miterlimit="10" d="
				M157.809,182.026c0,0,3.12,0.18,3.726,0.38c0.486,0.157-2.383,1.876-3.524,2.305L157.809,182.026z"/>
			
				<path fill="#A1C453" stroke="#333333" stroke-width="1.0616" stroke-linecap="round" stroke-linejoin="round" stroke-miterlimit="10" d="
				M158.852,184.279l-4.431-1.87c0,0,4.24-2.216,6.154-1.635C160.576,180.774,159.335,182.737,158.852,184.279z"/>
			
				<path fill="#A1C453" stroke="#333333" stroke-width="1.0616" stroke-linecap="round" stroke-linejoin="round" stroke-miterlimit="10" d="
				M153.661,186.727c0,0,5.923,0.448,8.198-2.228l-4.325-1.573L153.661,186.727z"/>
		</g>
	</g>
</g>
<g id="calque04">
	<g>
		
			<polygon fill="#CC924C" stroke="#333333" stroke-width="1.0616" stroke-linecap="round" stroke-linejoin="round" stroke-miterlimit="10" points="
			152.642,167.722 143.222,186.573 146.054,185.598 		"/>
		
			<polygon fill="#CC924C" stroke="#333333" stroke-width="1.0616" stroke-linecap="round" stroke-linejoin="round" stroke-miterlimit="10" points="
			141.553,197.351 134.276,194.36 136.103,193.729 		"/>
		<g>
			
				<path fill="#A1C453" stroke="#333333" stroke-width="1.5923" stroke-linecap="round" stroke-linejoin="round" stroke-miterlimit="10" d="
				M130.483,176.071c1.771,2.243,3.921,2.381,3.355,8.357c-0.568,5.976-4.425,2.904-4.799,6.836
				c0.374-3.932-4.096-1.873-3.548-7.628C126.039,177.879,128.49,178.113,130.483,176.071z"/>
			<g>
				<line fill="none" x1="129.04" y1="191.265" x2="130.158" y2="179.492"/>
				<g>
					<polyline fill="none" stroke="#333333" stroke-width="1.0616" stroke-linecap="round" stroke-miterlimit="10" points="
						129.09,190.736 129.155,190.052 129.894,182.275 129.95,181.68 					"/>
					
						<line fill="none" stroke="#333333" stroke-width="1.0616" stroke-linecap="round" stroke-miterlimit="10" x1="130.107" y1="180.021" x2="130.101" y2="180.095"/>
				</g>
			</g>
		</g>
		<g>
			
				<path fill="#A1C453" stroke="#333333" stroke-width="1.0616" stroke-linecap="round" stroke-linejoin="round" stroke-miterlimit="10" d="
				M160.875,163.884c-0.466,1.696,0.25,2.813-2.918,4.712c-3.168,1.898-3.056-1.134-5.14,0.115c2.084-1.249-0.564-2.713,2.486-4.54
				C158.357,162.34,159.136,163.64,160.875,163.884z"/>
			<g>
				<line fill="none" x1="152.817" y1="168.711" x2="159.062" y2="164.969"/>
				<g>
					<polyline fill="none" stroke="#333333" stroke-width="1.0616" stroke-linecap="round" stroke-miterlimit="10" points="
						153.272,168.438 153.863,168.085 156.664,166.406 157.176,166.099 					"/>
					
						<line fill="none" stroke="#333333" stroke-width="1.0616" stroke-linecap="round" stroke-miterlimit="10" x1="158.606" y1="165.241" x2="158.542" y2="165.28"/>
				</g>
			</g>
		</g>
		<g>
			
				<path fill="#A1C453" stroke="#333333" stroke-width="1.5923" stroke-linecap="round" stroke-linejoin="round" stroke-miterlimit="10" d="
				M156.469,151.306c1.596,2.803,3.974,3.321,2.327,9.892c-1.647,6.571-5.43,2.49-6.515,6.815c1.083-4.325-4.25-2.786-2.663-9.113
				C151.205,152.568,153.899,153.244,156.469,151.306z"/>
			<g>
				<line fill="none" x1="152.283" y1="168.013" x2="155.528" y2="155.065"/>
				<g>
					<polyline fill="none" stroke="#333333" stroke-width="1.0616" stroke-linecap="round" stroke-miterlimit="10" points="
						152.412,167.498 152.579,166.831 154.848,157.777 154.994,157.197 					"/>
					
						<line fill="none" stroke="#333333" stroke-width="1.0616" stroke-linecap="round" stroke-miterlimit="10" x1="155.399" y1="155.58" x2="155.381" y2="155.652"/>
				</g>
			</g>
		</g>
		<g>
			
				<path fill="#A1C453" stroke="#333333" stroke-width="1.5923" stroke-linecap="round" stroke-linejoin="round" stroke-miterlimit="10" d="
				M154.041,201.447c-1.178-2.27-0.495-4.076-5.578-5.818c-5.084-1.741-4.002,2.537-7.347,1.391
				c3.345,1.146,0.018,4.031,4.913,5.708C150.926,204.404,151.64,202.322,154.041,201.447z"/>
			<g>
				<line fill="none" x1="141.116" y1="197.02" x2="151.132" y2="200.451"/>
				<g>
					<polyline fill="none" stroke="#333333" stroke-width="1.0616" stroke-linecap="round" stroke-miterlimit="10" points="
						141.618,197.191 142.269,197.414 148.487,199.545 149.053,199.738 					"/>
					
						<line fill="none" stroke="#333333" stroke-width="1.0616" stroke-linecap="round" stroke-miterlimit="10" x1="150.63" y1="200.279" x2="150.559" y2="200.255"/>
				</g>
			</g>
		</g>
		<g>
			
				<path fill="#A1C453" stroke="#333333" stroke-width="1.5923" stroke-linecap="round" stroke-linejoin="round" stroke-miterlimit="10" d="
				M146.751,209.298c0.773-2.437,2.532-3.231,0.169-8.06c-2.363-4.826-4.624-1.036-6.178-4.212c1.554,3.176-2.839,2.862-0.563,7.511
				C142.456,209.188,144.436,208.219,146.751,209.298z"/>
			<g>
				<line fill="none" x1="140.743" y1="197.026" x2="145.397" y2="206.536"/>
				<g>
					<polyline fill="none" stroke="#333333" stroke-width="1.0616" stroke-linecap="round" stroke-miterlimit="10" points="
						140.976,197.503 141.278,198.121 144.168,204.025 144.431,204.563 					"/>
					
						<line fill="none" stroke="#333333" stroke-width="1.0616" stroke-linecap="round" stroke-miterlimit="10" x1="145.164" y1="206.061" x2="145.131" y2="205.992"/>
				</g>
			</g>
		</g>
		<g>
			
				<path fill="#A1C453" stroke="#333333" stroke-width="1.0616" stroke-linecap="round" stroke-linejoin="round" stroke-miterlimit="10" d="
				M179.49,185.335c-1.494,0.668-1.875,1.844-5.115,0.688c-3.239-1.155-0.993-2.867-3.123-3.626c2.13,0.759,1.617-2.012,4.735-0.899
				C179.11,182.61,178.635,183.939,179.49,185.335z"/>
			<g>
				<line fill="none" x1="171.252" y1="182.397" x2="177.637" y2="184.674"/>
				<g>
					<polyline fill="none" stroke="#333333" stroke-width="1.0616" stroke-linecap="round" stroke-miterlimit="10" points="
						171.752,182.576 172.399,182.807 175.004,183.735 175.566,183.936 					"/>
					
						<line fill="none" stroke="#333333" stroke-width="1.0616" stroke-linecap="round" stroke-miterlimit="10" x1="177.137" y1="184.496" x2="177.066" y2="184.471"/>
				</g>
			</g>
		</g>
		<path fill="#CC924C" stroke="#333333" stroke-width="2.8307" stroke-linecap="round" stroke-miterlimit="10" d="M111.94,202.172
			l61.237-21.685c1.048-0.361,1.605-1.502,1.243-2.551l0,0c-0.36-1.048-1.504-1.605-2.552-1.244l-61.584,20.68"/>
		<g>
			
				<path fill="#A1C453" stroke="#333333" stroke-width="1.0616" stroke-linecap="round" stroke-linejoin="round" stroke-miterlimit="10" d="
				M174.067,176.419c0,0,3.119,0.18,3.728,0.38c0.484,0.157-2.382,1.875-3.525,2.304L174.067,176.419z"/>
			
				<path fill="#A1C453" stroke="#333333" stroke-width="1.0616" stroke-linecap="round" stroke-linejoin="round" stroke-miterlimit="10" d="
				M175.11,178.672l-4.43-1.87c0,0,4.238-2.217,6.154-1.635C176.835,175.167,175.593,177.129,175.11,178.672z"/>
			
				<path fill="#A1C453" stroke="#333333" stroke-width="1.0616" stroke-linecap="round" stroke-linejoin="round" stroke-miterlimit="10" d="
				M169.921,181.118c0,0,5.922,0.449,8.201-2.226l-4.328-1.575L169.921,181.118z"/>
		</g>
		<g>
			
				<path fill="#FFFFFF" stroke="#333333" stroke-width="1.0616" stroke-linecap="round" stroke-linejoin="round" stroke-miterlimit="10" d="
				M151.275,167.642c-0.358-0.312-1.256-0.012-1.901,0.288c-1.166,0.538-2.191,2.234-1.063,3.213
				c1.133,0.983,2.675-0.264,3.048-1.489C151.563,168.972,151.637,167.956,151.275,167.642z"/>
			
				<path fill="#FFFFFF" stroke="#333333" stroke-width="1.0616" stroke-linecap="round" stroke-linejoin="round" stroke-miterlimit="10" d="
				M151.307,167.52c0.449-0.154,0.638-1.082,0.702-1.791c0.119-1.276-0.838-3.015-2.251-2.527c-1.419,0.49-1.108,2.449-0.233,3.383
				C150.012,167.105,150.855,167.676,151.307,167.52z"/>
			
				<path fill="#FFFFFF" stroke="#333333" stroke-width="1.0616" stroke-linecap="round" stroke-linejoin="round" stroke-miterlimit="10" d="
				M151.393,167.602c-0.09,0.468,0.618,1.094,1.201,1.504c1.049,0.74,3.03,0.781,3.314-0.686c0.285-1.475-1.567-2.184-2.813-1.894
				C152.401,166.688,151.484,167.132,151.393,167.602z"/>
			
				<path fill="#FFFFFF" stroke="#333333" stroke-width="1.0616" stroke-linecap="round" stroke-linejoin="round" stroke-miterlimit="10" d="
				M151.346,167.753c-0.449,0.155-0.637,1.084-0.7,1.793c-0.117,1.278,0.838,3.014,2.251,2.527c1.419-0.489,1.109-2.448,0.232-3.385
				C152.642,168.17,151.799,167.598,151.346,167.753z"/>
			
				<path fill="#FFFFFF" stroke="#333333" stroke-width="1.0616" stroke-linecap="round" stroke-linejoin="round" stroke-miterlimit="10" d="
				M151.263,167.665c0.09-0.467-0.619-1.094-1.201-1.504c-1.048-0.739-3.029-0.78-3.313,0.687c-0.285,1.474,1.565,2.184,2.813,1.895
				C150.255,168.58,151.171,168.135,151.263,167.665z"/>
			
				<path fill="#FFFFFF" stroke="#333333" stroke-width="1.0616" stroke-linecap="round" stroke-linejoin="round" stroke-miterlimit="10" d="
				M151.395,167.645c0.359,0.311,1.256,0.011,1.903-0.288c1.165-0.539,2.19-2.233,1.063-3.215c-1.133-0.983-2.675,0.266-3.047,1.491
				C151.107,166.314,151.033,167.331,151.395,167.645z"/>
			
				<circle fill="#F9D53E" stroke="#333333" stroke-width="1.0616" stroke-linecap="round" stroke-linejoin="round" stroke-miterlimit="10" cx="151.347" cy="167.754" r="0.987"/>
		</g>
	</g>
</g>
<g id="calque05">
	<g>
		
			<polygon fill="#CC924C" stroke="#333333" stroke-width="0.8493" stroke-linecap="round" stroke-linejoin="round" stroke-miterlimit="10" points="
			177.625,187.485 167.259,182.53 170.09,181.554 		"/>
		
			<polygon fill="#CC924C" stroke="#333333" stroke-width="1.0616" stroke-linecap="round" stroke-linejoin="round" stroke-miterlimit="10" points="
			152.642,167.722 143.222,186.573 146.054,185.598 		"/>
		
			<polygon fill="#CC924C" stroke="#333333" stroke-width="1.0616" stroke-linecap="round" stroke-linejoin="round" stroke-miterlimit="10" points="
			141.553,197.351 134.276,194.36 136.103,193.729 		"/>
		<g>
			
				<path fill="#A1C453" stroke="#333333" stroke-width="1.5923" stroke-linecap="round" stroke-linejoin="round" stroke-miterlimit="10" d="
				M130.483,176.071c1.771,2.243,3.921,2.38,3.355,8.357c-0.568,5.976-4.425,2.904-4.799,6.836c0.374-3.932-4.096-1.873-3.548-7.628
				C126.039,177.879,128.49,178.113,130.483,176.071z"/>
			<g>
				<line fill="none" x1="129.04" y1="191.265" x2="130.158" y2="179.492"/>
				<g>
					<polyline fill="none" stroke="#333333" stroke-width="1.0616" stroke-linecap="round" stroke-miterlimit="10" points="
						129.09,190.736 129.155,190.052 129.894,182.275 129.95,181.68 					"/>
					
						<line fill="none" stroke="#333333" stroke-width="1.0616" stroke-linecap="round" stroke-miterlimit="10" x1="130.107" y1="180.021" x2="130.101" y2="180.095"/>
				</g>
			</g>
		</g>
		<g>
			
				<path fill="#A1C453" stroke="#333333" stroke-width="1.5923" stroke-linecap="round" stroke-linejoin="round" stroke-miterlimit="10" d="
				M167.521,159.069c-0.854,3.109,0.46,5.157-5.351,8.641c-5.813,3.481-5.603-2.079-9.425,0.213c3.822-2.292-1.037-4.975,4.56-8.329
				C162.905,156.241,164.331,158.623,167.521,159.069z"/>
			<g>
				<line fill="none" x1="152.746" y1="167.923" x2="164.195" y2="161.063"/>
				<g>
					<polyline fill="none" stroke="#333333" stroke-width="1.0616" stroke-linecap="round" stroke-miterlimit="10" points="
						153.201,167.65 153.792,167.297 161.798,162.499 162.311,162.192 					"/>
					
						<line fill="none" stroke="#333333" stroke-width="1.0616" stroke-linecap="round" stroke-miterlimit="10" x1="163.74" y1="161.335" x2="163.676" y2="161.374"/>
				</g>
			</g>
		</g>
		<g>
			
				<path fill="#A1C453" stroke="#333333" stroke-width="1.5923" stroke-linecap="round" stroke-linejoin="round" stroke-miterlimit="10" d="
				M156.469,151.306c1.596,2.802,3.974,3.321,2.327,9.892c-1.647,6.57-5.43,2.49-6.515,6.815c1.083-4.325-4.25-2.786-2.663-9.113
				C151.205,152.568,153.898,153.243,156.469,151.306z"/>
			<g>
				<line fill="none" x1="152.283" y1="168.013" x2="155.528" y2="155.065"/>
				<g>
					<polyline fill="none" stroke="#333333" stroke-width="1.0616" stroke-linecap="round" stroke-miterlimit="10" points="
						152.412,167.498 152.579,166.831 154.848,157.777 154.994,157.197 					"/>
					
						<line fill="none" stroke="#333333" stroke-width="1.0616" stroke-linecap="round" stroke-miterlimit="10" x1="155.399" y1="155.58" x2="155.381" y2="155.652"/>
				</g>
			</g>
		</g>
		<g>
			
				<path fill="#A1C453" stroke="#333333" stroke-width="1.5923" stroke-linecap="round" stroke-linejoin="round" stroke-miterlimit="10" d="
				M154.041,201.447c-1.178-2.27-0.495-4.076-5.578-5.818c-5.084-1.741-4.002,2.537-7.347,1.391
				c3.345,1.146,0.018,4.031,4.913,5.708C150.926,204.404,151.64,202.322,154.041,201.447z"/>
			<g>
				<line fill="none" x1="141.116" y1="197.02" x2="151.132" y2="200.451"/>
				<g>
					<polyline fill="none" stroke="#333333" stroke-width="1.0616" stroke-linecap="round" stroke-miterlimit="10" points="
						141.618,197.191 142.269,197.414 148.487,199.545 149.053,199.738 					"/>
					
						<line fill="none" stroke="#333333" stroke-width="1.0616" stroke-linecap="round" stroke-miterlimit="10" x1="150.63" y1="200.279" x2="150.559" y2="200.255"/>
				</g>
			</g>
		</g>
		<g>
			
				<path fill="#A1C453" stroke="#333333" stroke-width="1.5923" stroke-linecap="round" stroke-linejoin="round" stroke-miterlimit="10" d="
				M146.751,209.298c0.773-2.437,2.532-3.231,0.169-8.06c-2.363-4.826-4.624-1.036-6.178-4.212c1.554,3.176-2.839,2.862-0.563,7.511
				C142.456,209.188,144.436,208.219,146.751,209.298z"/>
			<g>
				<line fill="none" x1="140.743" y1="197.026" x2="145.397" y2="206.536"/>
				<g>
					<polyline fill="none" stroke="#333333" stroke-width="1.0616" stroke-linecap="round" stroke-miterlimit="10" points="
						140.976,197.503 141.278,198.121 144.168,204.025 144.431,204.563 					"/>
					
						<line fill="none" stroke="#333333" stroke-width="1.0616" stroke-linecap="round" stroke-miterlimit="10" x1="145.164" y1="206.061" x2="145.131" y2="205.992"/>
				</g>
			</g>
		</g>
		<g>
			
				<path fill="#A1C453" stroke="#333333" stroke-width="1.5923" stroke-linecap="round" stroke-linejoin="round" stroke-miterlimit="10" d="
				M193.848,193.269c-2.942,1.317-3.688,3.631-10.069,1.357c-6.383-2.275-1.952-5.645-6.152-7.141c4.2,1.496,3.184-3.962,9.33-1.771
				C193.101,187.907,192.167,190.522,193.848,193.269z"/>
			<g>
				<line fill="none" x1="177.625" y1="187.485" x2="190.198" y2="191.966"/>
				<g>
					<polyline fill="none" stroke="#333333" stroke-width="1.0616" stroke-linecap="round" stroke-miterlimit="10" points="
						178.125,187.664 178.772,187.895 187.565,191.027 188.128,191.229 					"/>
					
						<line fill="none" stroke="#333333" stroke-width="1.0616" stroke-linecap="round" stroke-miterlimit="10" x1="189.698" y1="191.787" x2="189.628" y2="191.763"/>
				</g>
			</g>
		</g>
		<g>
			
				<path fill="#A1C453" stroke="#333333" stroke-width="1.0616" stroke-linecap="round" stroke-linejoin="round" stroke-miterlimit="10" d="
				M174.837,196.308c-0.836-1.495-2.096-1.779-1.194-5.264s2.895-1.301,3.488-3.592c-0.595,2.291,2.245,1.495,1.378,4.851
				C177.639,195.659,176.212,195.289,174.837,196.308z"/>
			<g>
				<line fill="none" x1="177.131" y1="187.452" x2="175.353" y2="194.315"/>
				<g>
					<polyline fill="none" stroke="#333333" stroke-width="1.0616" stroke-linecap="round" stroke-miterlimit="10" points="
						176.998,187.966 176.825,188.632 176.054,191.609 175.903,192.188 					"/>
					
						<line fill="none" stroke="#333333" stroke-width="1.0616" stroke-linecap="round" stroke-miterlimit="10" x1="175.485" y1="193.802" x2="175.504" y2="193.729"/>
				</g>
			</g>
		</g>
		<g>
			<g>
				<path fill="#D3F46C" d="M150.84,173.044c-2.451,1.238-6.599-0.133-6.681-2.19c-1.817-1.401-0.259-5.439,2.191-6.679
					c2.449-1.238,5.478-1.264,6.199,2.62C155.142,169.53,153.288,171.805,150.84,173.044z"/>
				<g>
					<path fill="none" stroke="#333333" stroke-width="1.0616" stroke-linecap="round" stroke-miterlimit="10" d="M150.351,173.249
						c-0.223,0.054-0.438,0.144-0.666,0.169c-1.206,0.228-2.468,0.032-3.593-0.433c-0.559-0.243-1.091-0.58-1.486-1.05
						c-0.183-0.243-0.345-0.512-0.401-0.813c0.048-0.358-0.363-0.454-0.47-0.75c-0.333-0.519-0.4-1.162-0.338-1.765
						c0.064-0.609,0.252-1.199,0.511-1.754c0.523-1.099,1.345-2.088,2.429-2.669c1.083-0.54,2.327-0.906,3.54-0.667
						c1.237,0.219,2.132,1.295,2.467,2.459c0.114,0.282,0.119,0.608,0.256,0.873c0.197,0.234,0.409,0.457,0.568,0.719
						c0.34,0.504,0.598,1.084,0.629,1.699c0.038,0.613-0.16,1.224-0.493,1.733c-0.083,0.124-0.172,0.266-0.263,0.362l-0.126,0.15
						c-0.08,0.105-0.183,0.188-0.273,0.283"/>
					
						<line fill="none" stroke="#333333" stroke-width="1.0616" stroke-linecap="round" stroke-miterlimit="10" x1="151.307" y1="172.79" x2="151.37" y2="172.751"/>
				</g>
			</g>
			
				<ellipse transform="matrix(0.9895 0.1443 -0.1443 0.9895 25.4038 -19.7551)" opacity="0.5" fill="#FFFFFF" enable-background="new    " cx="148.857" cy="165.209" rx="1.138" ry="0.936"/>
		</g>
		<path fill="#CC924C" stroke="#333333" stroke-width="2.8307" stroke-linecap="round" stroke-miterlimit="10" d="M111.94,202.172
			l69.352-24.481c1.05-0.363,1.605-1.504,1.243-2.553l0,0c-0.361-1.049-1.502-1.605-2.553-1.243l-69.696,23.478"/>
		<g>
			
				<path fill="#A1C453" stroke="#333333" stroke-width="1.0616" stroke-linecap="round" stroke-linejoin="round" stroke-miterlimit="10" d="
				M182.181,173.621c0,0,3.121,0.179,3.728,0.379c0.484,0.157-2.383,1.874-3.523,2.304L182.181,173.621z"/>
			
				<path fill="#A1C453" stroke="#333333" stroke-width="1.0616" stroke-linecap="round" stroke-linejoin="round" stroke-miterlimit="10" d="
				M183.226,175.872l-4.432-1.869c0,0,4.24-2.217,6.156-1.634C184.95,172.369,183.708,174.33,183.226,175.872z"/>
			
				<path fill="#A1C453" stroke="#333333" stroke-width="1.0616" stroke-linecap="round" stroke-linejoin="round" stroke-miterlimit="10" d="
				M178.034,178.32c0,0,5.922,0.448,8.198-2.228l-4.325-1.573L178.034,178.32z"/>
		</g>
		<g>
			
				<path fill="#FFFFFF" stroke="#333333" stroke-width="1.0616" stroke-linecap="round" stroke-linejoin="round" stroke-miterlimit="10" d="
				M176.18,188.354c-0.357-0.311-1.256-0.011-1.901,0.288c-1.165,0.54-2.19,2.234-1.063,3.214c1.132,0.983,2.674-0.265,3.047-1.489
				C176.469,189.684,176.541,188.668,176.18,188.354z"/>
			
				<path fill="#FFFFFF" stroke="#333333" stroke-width="1.0616" stroke-linecap="round" stroke-linejoin="round" stroke-miterlimit="10" d="
				M176.213,188.232c0.449-0.154,0.638-1.081,0.703-1.791c0.117-1.278-0.839-3.015-2.253-2.526
				c-1.419,0.488-1.106,2.447-0.233,3.383C174.917,187.818,175.762,188.389,176.213,188.232z"/>
			
				<path fill="#FFFFFF" stroke="#333333" stroke-width="1.0616" stroke-linecap="round" stroke-linejoin="round" stroke-miterlimit="10" d="
				M176.298,188.315c-0.091,0.466,0.618,1.093,1.203,1.504c1.047,0.74,3.029,0.78,3.312-0.688c0.285-1.472-1.563-2.183-2.813-1.893
				C177.307,187.401,176.39,187.846,176.298,188.315z"/>
			
				<path fill="#FFFFFF" stroke="#333333" stroke-width="1.0616" stroke-linecap="round" stroke-linejoin="round" stroke-miterlimit="10" d="
				M176.252,188.468c-0.447,0.154-0.636,1.081-0.701,1.791c-0.115,1.277,0.839,3.014,2.252,2.526
				c1.419-0.488,1.108-2.448,0.233-3.383C177.55,188.882,176.705,188.311,176.252,188.468z"/>
			
				<path fill="#FFFFFF" stroke="#333333" stroke-width="1.0616" stroke-linecap="round" stroke-linejoin="round" stroke-miterlimit="10" d="
				M176.169,188.377c0.09-0.466-0.619-1.093-1.201-1.503c-1.048-0.741-3.028-0.78-3.313,0.686c-0.285,1.474,1.565,2.184,2.813,1.895
				C175.16,189.291,176.078,188.847,176.169,188.377z"/>
			
				<path fill="#FFFFFF" stroke="#333333" stroke-width="1.0616" stroke-linecap="round" stroke-linejoin="round" stroke-miterlimit="10" d="
				M176.302,188.355c0.357,0.313,1.255,0.014,1.902-0.287c1.164-0.537,2.189-2.234,1.061-3.213
				c-1.132-0.983-2.673,0.265-3.047,1.489C176.013,187.027,175.939,188.043,176.302,188.355z"/>
			
				<circle fill="#F9D53E" stroke="#333333" stroke-width="1.0616" stroke-linecap="round" stroke-linejoin="round" stroke-miterlimit="10" cx="176.253" cy="188.467" r="0.988"/>
		</g>
	</g>
</g>
<g id="calque06">
	<g>
		
			<polygon fill="#CC924C" stroke="#333333" stroke-width="0.8493" stroke-linecap="round" stroke-linejoin="round" stroke-miterlimit="10" points="
			177.625,187.485 167.259,182.53 170.09,181.554 		"/>
		
			<polygon fill="#CC924C" stroke="#333333" stroke-width="1.0616" stroke-linecap="round" stroke-linejoin="round" stroke-miterlimit="10" points="
			152.642,167.722 143.222,186.573 146.054,185.598 		"/>
		
			<polygon fill="#CC924C" stroke="#333333" stroke-width="1.0616" stroke-linecap="round" stroke-linejoin="round" stroke-miterlimit="10" points="
			141.553,197.351 134.276,194.36 136.103,193.729 		"/>
		<g>
			
				<path fill="#A1C453" stroke="#333333" stroke-width="1.5923" stroke-linecap="round" stroke-linejoin="round" stroke-miterlimit="10" d="
				M130.483,176.071c1.771,2.243,3.921,2.38,3.355,8.357c-0.568,5.976-4.425,2.904-4.799,6.836c0.374-3.932-4.096-1.873-3.548-7.628
				C126.039,177.879,128.49,178.113,130.483,176.071z"/>
			<g>
				<line fill="none" x1="129.04" y1="191.265" x2="130.158" y2="179.492"/>
				<g>
					<polyline fill="none" stroke="#333333" stroke-width="1.0616" stroke-linecap="round" stroke-miterlimit="10" points="
						129.09,190.736 129.155,190.052 129.894,182.275 129.95,181.68 					"/>
					
						<line fill="none" stroke="#333333" stroke-width="1.0616" stroke-linecap="round" stroke-miterlimit="10" x1="130.107" y1="180.021" x2="130.101" y2="180.095"/>
				</g>
			</g>
		</g>
		<g>
			
				<path fill="#A1C453" stroke="#333333" stroke-width="1.0616" stroke-linecap="round" stroke-linejoin="round" stroke-miterlimit="10" d="
				M183.863,165.85c-1.674,0.394-2.739-0.347-4.709,2.679c-1.973,3.027,0.995,3.025-0.303,5.018
				c1.298-1.992,2.631,0.651,4.528-2.265C185.279,168.366,184.037,167.559,183.863,165.85z"/>
			<g>
				<line fill="none" x1="178.852" y1="173.546" x2="182.735" y2="167.581"/>
				<g>
					<polyline fill="none" stroke="#333333" stroke-width="1.0616" stroke-linecap="round" stroke-miterlimit="10" points="
						179.142,173.102 179.517,172.524 181.21,169.924 181.536,169.423 					"/>
					
						<line fill="none" stroke="#333333" stroke-width="1.0616" stroke-linecap="round" stroke-miterlimit="10" x1="182.445" y1="168.025" x2="182.405" y2="168.088"/>
				</g>
			</g>
		</g>
		<g>
			
				<path fill="#A1C453" stroke="#333333" stroke-width="1.5923" stroke-linecap="round" stroke-linejoin="round" stroke-miterlimit="10" d="
				M167.521,159.069c-0.854,3.109,0.46,5.157-5.351,8.641c-5.813,3.481-5.603-2.079-9.425,0.213c3.822-2.292-1.037-4.975,4.56-8.329
				C162.905,156.241,164.331,158.623,167.521,159.069z"/>
			<g>
				<line fill="none" x1="152.746" y1="167.923" x2="164.195" y2="161.063"/>
				<g>
					<polyline fill="none" stroke="#333333" stroke-width="1.0616" stroke-linecap="round" stroke-miterlimit="10" points="
						153.201,167.65 153.792,167.297 161.798,162.499 162.311,162.192 					"/>
					
						<line fill="none" stroke="#333333" stroke-width="1.0616" stroke-linecap="round" stroke-miterlimit="10" x1="163.74" y1="161.335" x2="163.676" y2="161.374"/>
				</g>
			</g>
		</g>
		<g>
			
				<path fill="#A1C453" stroke="#333333" stroke-width="1.5923" stroke-linecap="round" stroke-linejoin="round" stroke-miterlimit="10" d="
				M156.469,151.306c1.596,2.802,3.974,3.321,2.327,9.892c-1.647,6.57-5.43,2.49-6.515,6.815c1.083-4.325-4.25-2.786-2.663-9.113
				C151.205,152.568,153.898,153.243,156.469,151.306z"/>
			<g>
				<line fill="none" x1="152.283" y1="168.013" x2="155.528" y2="155.065"/>
				<g>
					<polyline fill="none" stroke="#333333" stroke-width="1.0616" stroke-linecap="round" stroke-miterlimit="10" points="
						152.412,167.498 152.579,166.831 154.848,157.777 154.994,157.197 					"/>
					
						<line fill="none" stroke="#333333" stroke-width="1.0616" stroke-linecap="round" stroke-miterlimit="10" x1="155.399" y1="155.58" x2="155.381" y2="155.652"/>
				</g>
			</g>
		</g>
		<g>
			
				<path fill="#A1C453" stroke="#333333" stroke-width="1.5923" stroke-linecap="round" stroke-linejoin="round" stroke-miterlimit="10" d="
				M154.041,201.447c-1.178-2.27-0.495-4.076-5.578-5.818c-5.084-1.741-4.002,2.537-7.347,1.391
				c3.345,1.146,0.018,4.031,4.913,5.708C150.926,204.404,151.64,202.322,154.041,201.447z"/>
			<g>
				<line fill="none" x1="141.116" y1="197.02" x2="151.132" y2="200.451"/>
				<g>
					<polyline fill="none" stroke="#333333" stroke-width="1.0616" stroke-linecap="round" stroke-miterlimit="10" points="
						141.618,197.191 142.269,197.414 148.487,199.545 149.053,199.738 					"/>
					
						<line fill="none" stroke="#333333" stroke-width="1.0616" stroke-linecap="round" stroke-miterlimit="10" x1="150.63" y1="200.279" x2="150.559" y2="200.255"/>
				</g>
			</g>
		</g>
		<g>
			
				<path fill="#A1C453" stroke="#333333" stroke-width="1.5923" stroke-linecap="round" stroke-linejoin="round" stroke-miterlimit="10" d="
				M146.751,209.298c0.773-2.437,2.532-3.231,0.169-8.06c-2.363-4.826-4.624-1.036-6.178-4.212c1.554,3.176-2.839,2.862-0.563,7.511
				C142.456,209.188,144.436,208.219,146.751,209.298z"/>
			<g>
				<line fill="none" x1="140.743" y1="197.026" x2="145.397" y2="206.536"/>
				<g>
					<polyline fill="none" stroke="#333333" stroke-width="1.0616" stroke-linecap="round" stroke-miterlimit="10" points="
						140.976,197.503 141.278,198.121 144.168,204.025 144.431,204.563 					"/>
					
						<line fill="none" stroke="#333333" stroke-width="1.0616" stroke-linecap="round" stroke-miterlimit="10" x1="145.164" y1="206.061" x2="145.131" y2="205.992"/>
				</g>
			</g>
		</g>
		<g>
			
				<path fill="#A1C453" stroke="#333333" stroke-width="1.0616" stroke-linecap="round" stroke-linejoin="round" stroke-miterlimit="10" d="
				M181.771,196.633c-1.639-0.625-2.813-0.021-4.394-3.35c-1.58-3.328,1.419-2.921,0.379-5.109c1.04,2.188,2.746-0.3,4.266,2.904
				C183.542,194.284,182.179,194.932,181.771,196.633z"/>
			<g>
				<line fill="none" x1="177.756" y1="188.174" x2="180.866" y2="194.729"/>
				<g>
					<polyline fill="none" stroke="#333333" stroke-width="1.0616" stroke-linecap="round" stroke-miterlimit="10" points="
						177.983,188.653 178.278,189.274 179.668,192.203 179.924,192.743 					"/>
					
						<line fill="none" stroke="#333333" stroke-width="1.0616" stroke-linecap="round" stroke-miterlimit="10" x1="180.639" y1="194.249" x2="180.606" y2="194.182"/>
				</g>
			</g>
		</g>
		<g>
			
				<path fill="#A1C453" stroke="#333333" stroke-width="1.5923" stroke-linecap="round" stroke-linejoin="round" stroke-miterlimit="10" d="
				M193.848,193.269c-2.942,1.317-3.688,3.631-10.069,1.357s-1.952-5.645-6.152-7.141c4.2,1.496,3.184-3.962,9.33-1.771
				C193.101,187.907,192.167,190.522,193.848,193.269z"/>
			<g>
				<line fill="none" x1="177.625" y1="187.485" x2="190.198" y2="191.966"/>
				<g>
					<polyline fill="none" stroke="#333333" stroke-width="1.0616" stroke-linecap="round" stroke-miterlimit="10" points="
						178.125,187.664 178.772,187.895 187.565,191.027 188.128,191.229 					"/>
					
						<line fill="none" stroke="#333333" stroke-width="1.0616" stroke-linecap="round" stroke-miterlimit="10" x1="189.698" y1="191.787" x2="189.628" y2="191.763"/>
				</g>
			</g>
		</g>
		<g>
			
				<path fill="#A1C453" stroke="#333333" stroke-width="1.5923" stroke-linecap="round" stroke-linejoin="round" stroke-miterlimit="10" d="
				M173.774,200.729c-1.234-2.211-3.1-2.634-1.766-7.785c1.334-5.153,4.278-1.924,5.156-5.313c-0.878,3.39,3.322,2.213,2.038,7.174
				C177.919,199.768,175.807,199.222,173.774,200.729z"/>
			<g>
				<line fill="none" x1="177.165" y1="187.631" x2="174.538" y2="197.78"/>
				<g>
					<polyline fill="none" stroke="#333333" stroke-width="1.0616" stroke-linecap="round" stroke-miterlimit="10" points="
						177.032,188.145 176.859,188.811 175.238,195.074 175.089,195.652 					"/>
					
						<line fill="none" stroke="#333333" stroke-width="1.0616" stroke-linecap="round" stroke-miterlimit="10" x1="174.671" y1="197.267" x2="174.689" y2="197.194"/>
				</g>
			</g>
		</g>
		<g>
			<g>
				<path fill="#D3F46C" d="M149.517,175.363c-3.323,1.682-8.949-0.178-9.059-2.971c-2.463-1.903-0.352-7.377,2.973-9.058
					c3.321-1.681,7.428-1.715,8.407,3.553C155.352,170.597,152.838,173.682,149.517,175.363z"/>
				<g>
					<path fill="none" stroke="#333333" stroke-width="1.5924" stroke-linecap="round" stroke-miterlimit="10" d="M148.78,175.663
						c-0.33,0.095-0.659,0.195-1.002,0.236c-1.615,0.257-3.297-0.004-4.791-0.657c-0.739-0.335-1.453-0.785-1.962-1.431
						c-0.236-0.329-0.452-0.691-0.515-1.097l-0.049-0.303c-0.052-0.083-0.142-0.146-0.209-0.219
						c-0.159-0.133-0.28-0.296-0.384-0.474c-0.438-0.696-0.529-1.555-0.447-2.36c0.084-0.813,0.331-1.603,0.669-2.346
						c0.702-1.462,1.765-2.813,3.208-3.601c1.435-0.747,3.081-1.258,4.711-1.013c0.807,0.126,1.579,0.488,2.172,1.053
						c0.606,0.555,1.004,1.299,1.279,2.063c0.153,0.38,0.239,0.78,0.332,1.178c0.008,0.219,0.192,0.348,0.314,0.508
						c0.128,0.159,0.276,0.303,0.389,0.474c0.49,0.651,0.857,1.408,0.986,2.215c0.13,0.808-0.038,1.649-0.426,2.366
						c-0.078,0.184-0.22,0.358-0.313,0.51c-0.056,0.082-0.107,0.166-0.175,0.238c-0.128,0.148-0.248,0.306-0.384,0.446"/>
					
						<line fill="none" stroke="#333333" stroke-width="1.5924" stroke-linecap="round" stroke-miterlimit="10" x1="150.214" y1="174.979" x2="150.309" y2="174.92"/>
				</g>
			</g>
			
				<ellipse transform="matrix(0.9896 0.1437 -0.1437 0.9896 25.1949 -19.3866)" opacity="0.5" fill="#FFFFFF" enable-background="new    " cx="146.826" cy="164.75" rx="1.543" ry="1.27"/>
		</g>
		<path fill="#CC924C" stroke="#333333" stroke-width="2.8307" stroke-linecap="round" stroke-miterlimit="10" d="M111.94,202.172
			l76.443-26.929c1.05-0.362,1.604-1.503,1.244-2.553l0,0c-0.36-1.048-1.504-1.604-2.553-1.243l-76.79,25.925"/>
		<g>
			
				<path fill="#A1C453" stroke="#333333" stroke-width="1.0616" stroke-linecap="round" stroke-linejoin="round" stroke-miterlimit="10" d="
				M189.274,171.174c0,0,3.12,0.179,3.727,0.38c0.486,0.156-2.382,1.874-3.525,2.304L189.274,171.174z"/>
			
				<path fill="#A1C453" stroke="#333333" stroke-width="1.0616" stroke-linecap="round" stroke-linejoin="round" stroke-miterlimit="10" d="
				M190.317,173.425l-4.431-1.868c0,0,4.24-2.217,6.155-1.635C192.042,169.922,190.801,171.884,190.317,173.425z"/>
			
				<path fill="#A1C453" stroke="#333333" stroke-width="1.0616" stroke-linecap="round" stroke-linejoin="round" stroke-miterlimit="10" d="
				M185.127,175.873c0,0,5.924,0.449,8.2-2.227L189,172.072L185.127,175.873z"/>
		</g>
		<g>
			<g>
				<path fill="#D3F46C" d="M173.394,194.819c-2.711,0.429-6.241-2.145-5.688-4.131c-1.302-1.891,1.417-5.258,4.129-5.687
					c2.71-0.43,5.599,0.473,5.099,4.392C178.563,192.79,176.104,194.389,173.394,194.819z"/>
				<g>
					<path fill="none" stroke="#333333" stroke-width="1.0616" stroke-linecap="round" stroke-miterlimit="10" d="M172.865,194.865
						c-0.229-0.017-0.461,0.002-0.687-0.044c-1.218-0.152-2.359-0.724-3.288-1.511c-0.458-0.403-0.86-0.887-1.093-1.455
						c-0.101-0.288-0.172-0.593-0.134-0.897c0.154-0.326-0.204-0.544-0.218-0.857c-0.157-0.595-0.025-1.229,0.219-1.784
						c0.247-0.56,0.605-1.064,1.021-1.513c0.835-0.886,1.92-1.577,3.129-1.798c1.196-0.183,2.492-0.151,3.573,0.448
						c1.111,0.588,1.633,1.886,1.596,3.096c0.021,0.304-0.072,0.616-0.021,0.91c0.116,0.282,0.249,0.56,0.32,0.858
						c0.17,0.583,0.236,1.214,0.078,1.809c-0.15,0.596-0.525,1.117-0.999,1.501c-0.115,0.092-0.244,0.2-0.36,0.265l-0.166,0.104
						c-0.108,0.075-0.231,0.124-0.348,0.186"/>
					
						<line fill="none" stroke="#333333" stroke-width="1.0616" stroke-linecap="round" stroke-miterlimit="10" x1="173.915" y1="194.721" x2="173.987" y2="194.702"/>
				</g>
			</g>
			
				<ellipse transform="matrix(0.8982 0.4396 -0.4396 0.8982 99.8136 -57.4302)" opacity="0.5" fill="#FFFFFF" enable-background="new    " cx="173.885" cy="186.758" rx="1.138" ry="0.936"/>
		</g>
	</g>
</g>
<g id="calque07">
	<g>
		
			<polygon fill="#CC924C" stroke="#333333" stroke-width="1.0616" stroke-linecap="round" stroke-linejoin="round" stroke-miterlimit="10" points="
			182.317,166.089 177.729,174.83 180.562,173.854 		"/>
		
			<polygon fill="#CC924C" stroke="#333333" stroke-width="0.8493" stroke-linecap="round" stroke-linejoin="round" stroke-miterlimit="10" points="
			177.625,187.485 167.259,182.53 170.09,181.554 		"/>
		
			<polygon fill="#CC924C" stroke="#333333" stroke-width="1.0616" stroke-linecap="round" stroke-linejoin="round" stroke-miterlimit="10" points="
			152.642,167.722 143.222,186.573 146.054,185.598 		"/>
		
			<polygon fill="#CC924C" stroke="#333333" stroke-width="1.0616" stroke-linecap="round" stroke-linejoin="round" stroke-miterlimit="10" points="
			141.553,197.35 134.276,194.36 136.103,193.729 		"/>
		<g>
			
				<path fill="#A1C453" stroke="#333333" stroke-width="1.5923" stroke-linecap="round" stroke-linejoin="round" stroke-miterlimit="10" d="
				M130.483,176.071c1.771,2.243,3.921,2.381,3.355,8.357c-0.568,5.976-4.425,2.904-4.799,6.836
				c0.374-3.932-4.096-1.873-3.548-7.628C126.039,177.879,128.49,178.113,130.483,176.071z"/>
			<g>
				<line fill="none" x1="129.04" y1="191.265" x2="130.158" y2="179.492"/>
				<g>
					<polyline fill="none" stroke="#333333" stroke-width="1.0616" stroke-linecap="round" stroke-miterlimit="10" points="
						129.09,190.736 129.155,190.052 129.894,182.275 129.95,181.68 					"/>
					
						<line fill="none" stroke="#333333" stroke-width="1.0616" stroke-linecap="round" stroke-miterlimit="10" x1="130.107" y1="180.021" x2="130.101" y2="180.095"/>
				</g>
			</g>
		</g>
		<g>
			
				<path fill="#A1C453" stroke="#333333" stroke-width="1.5923" stroke-linecap="round" stroke-linejoin="round" stroke-miterlimit="10" d="
				M190.645,153.3c-2.781,0.653-4.55-0.578-7.826,4.453c-3.274,5.031,1.655,5.027-0.501,8.336c2.156-3.309,4.371,1.084,7.526-3.762
				C192.999,157.481,190.936,156.139,190.645,153.3z"/>
			<g>
				<line fill="none" x1="182.317" y1="166.089" x2="188.771" y2="156.18"/>
				<g>
					<polyline fill="none" stroke="#333333" stroke-width="1.0616" stroke-linecap="round" stroke-miterlimit="10" points="
						182.607,165.645 182.982,165.068 187.246,158.521 187.572,158.021 					"/>
					
						<line fill="none" stroke="#333333" stroke-width="1.0616" stroke-linecap="round" stroke-miterlimit="10" x1="188.481" y1="156.624" x2="188.441" y2="156.688"/>
				</g>
			</g>
		</g>
		<g>
			
				<path fill="#A1C453" stroke="#333333" stroke-width="1.5923" stroke-linecap="round" stroke-linejoin="round" stroke-miterlimit="10" d="
				M167.521,159.069c-0.854,3.109,0.46,5.157-5.351,8.641c-5.813,3.481-5.603-2.079-9.425,0.213c3.822-2.292-1.036-4.973,4.56-8.329
				C162.905,156.241,164.331,158.623,167.521,159.069z"/>
			<g>
				<line fill="none" x1="152.746" y1="167.923" x2="164.195" y2="161.063"/>
				<g>
					<polyline fill="none" stroke="#333333" stroke-width="1.0616" stroke-linecap="round" stroke-miterlimit="10" points="
						153.201,167.65 153.792,167.297 161.798,162.499 162.311,162.192 					"/>
					
						<line fill="none" stroke="#333333" stroke-width="1.0616" stroke-linecap="round" stroke-miterlimit="10" x1="163.74" y1="161.335" x2="163.676" y2="161.374"/>
				</g>
			</g>
		</g>
		<g>
			
				<path fill="#A1C453" stroke="#333333" stroke-width="1.5923" stroke-linecap="round" stroke-linejoin="round" stroke-miterlimit="10" d="
				M156.469,151.306c1.596,2.803,3.974,3.321,2.327,9.892c-1.647,6.57-5.43,2.49-6.515,6.815c1.083-4.325-4.25-2.786-2.663-9.113
				C151.205,152.568,153.898,153.243,156.469,151.306z"/>
			<g>
				<line fill="none" x1="152.283" y1="168.013" x2="155.528" y2="155.065"/>
				<g>
					<polyline fill="none" stroke="#333333" stroke-width="1.0616" stroke-linecap="round" stroke-miterlimit="10" points="
						152.412,167.498 152.579,166.831 154.848,157.777 154.994,157.197 					"/>
					
						<line fill="none" stroke="#333333" stroke-width="1.0616" stroke-linecap="round" stroke-miterlimit="10" x1="155.399" y1="155.58" x2="155.381" y2="155.652"/>
				</g>
			</g>
		</g>
		<g>
			
				<path fill="#A1C453" stroke="#333333" stroke-width="1.5923" stroke-linecap="round" stroke-linejoin="round" stroke-miterlimit="10" d="
				M154.041,201.447c-1.178-2.27-0.495-4.076-5.578-5.818c-5.084-1.741-4.002,2.537-7.347,1.391
				c3.345,1.146,0.018,4.031,4.913,5.708C150.926,204.404,151.639,202.32,154.041,201.447z"/>
			<g>
				<line fill="none" x1="141.116" y1="197.02" x2="151.132" y2="200.451"/>
				<g>
					<polyline fill="none" stroke="#333333" stroke-width="1.0616" stroke-linecap="round" stroke-miterlimit="10" points="
						141.618,197.191 142.269,197.414 148.487,199.545 149.053,199.738 					"/>
					
						<line fill="none" stroke="#333333" stroke-width="1.0616" stroke-linecap="round" stroke-miterlimit="10" x1="150.63" y1="200.279" x2="150.559" y2="200.255"/>
				</g>
			</g>
		</g>
		<g>
			
				<path fill="#A1C453" stroke="#333333" stroke-width="1.5923" stroke-linecap="round" stroke-linejoin="round" stroke-miterlimit="10" d="
				M146.751,209.298c0.773-2.438,2.532-3.231,0.169-8.06c-2.363-4.826-4.624-1.036-6.178-4.212c1.554,3.176-2.839,2.862-0.563,7.511
				C142.456,209.188,144.436,208.219,146.751,209.298z"/>
			<g>
				<line fill="none" x1="140.743" y1="197.026" x2="145.397" y2="206.536"/>
				<g>
					<polyline fill="none" stroke="#333333" stroke-width="1.0616" stroke-linecap="round" stroke-miterlimit="10" points="
						140.976,197.503 141.278,198.121 144.168,204.025 144.431,204.563 					"/>
					
						<line fill="none" stroke="#333333" stroke-width="1.0616" stroke-linecap="round" stroke-miterlimit="10" x1="145.164" y1="206.061" x2="145.131" y2="205.992"/>
				</g>
			</g>
		</g>
		<g>
			
				<path fill="#A1C453" stroke="#333333" stroke-width="1.5923" stroke-linecap="round" stroke-linejoin="round" stroke-miterlimit="10" d="
				M185.052,203.516c-3.013-1.148-5.179-0.041-8.081-6.161c-2.903-6.121,2.611-5.372,0.698-9.4c1.913,4.028,5.052-0.551,7.848,5.345
				C188.314,199.195,185.804,200.384,185.052,203.516z"/>
			<g>
				<line fill="none" x1="177.669" y1="187.954" x2="183.391" y2="200.013"/>
				<g>
					<polyline fill="none" stroke="#333333" stroke-width="1.0616" stroke-linecap="round" stroke-miterlimit="10" points="
						177.896,188.434 178.191,189.055 182.192,197.487 182.448,198.027 					"/>
					
						<line fill="none" stroke="#333333" stroke-width="1.0616" stroke-linecap="round" stroke-miterlimit="10" x1="183.163" y1="199.533" x2="183.131" y2="199.466"/>
				</g>
			</g>
		</g>
		<g>
			
				<path fill="#A1C453" stroke="#333333" stroke-width="1.5923" stroke-linecap="round" stroke-linejoin="round" stroke-miterlimit="10" d="
				M193.848,193.269c-2.942,1.317-3.688,3.631-10.069,1.357c-6.383-2.275-1.952-5.645-6.152-7.141c4.2,1.496,3.184-3.962,9.33-1.771
				C193.101,187.907,192.167,190.522,193.848,193.269z"/>
			<g>
				<line fill="none" x1="177.625" y1="187.485" x2="190.198" y2="191.966"/>
				<g>
					<polyline fill="none" stroke="#333333" stroke-width="1.0616" stroke-linecap="round" stroke-miterlimit="10" points="
						178.125,187.664 178.772,187.895 187.565,191.027 188.128,191.229 					"/>
					
						<line fill="none" stroke="#333333" stroke-width="1.0616" stroke-linecap="round" stroke-miterlimit="10" x1="189.698" y1="191.787" x2="189.628" y2="191.763"/>
				</g>
			</g>
		</g>
		<g>
			
				<path fill="#A1C453" stroke="#333333" stroke-width="1.5923" stroke-linecap="round" stroke-linejoin="round" stroke-miterlimit="10" d="
				M173.774,200.729c-1.234-2.211-3.099-2.632-1.766-7.785c1.334-5.153,4.279-1.923,5.156-5.315
				c-0.877,3.393,3.322,2.215,2.038,7.176C177.919,199.768,175.807,199.222,173.774,200.729z"/>
			<g>
				<line fill="none" x1="177.165" y1="187.629" x2="174.538" y2="197.78"/>
				<g>
					<polyline fill="none" stroke="#333333" stroke-width="1.0616" stroke-linecap="round" stroke-miterlimit="10" points="
						177.032,188.143 176.859,188.809 175.238,195.074 175.089,195.652 					"/>
					
						<line fill="none" stroke="#333333" stroke-width="1.0616" stroke-linecap="round" stroke-miterlimit="10" x1="174.671" y1="197.267" x2="174.689" y2="197.194"/>
				</g>
			</g>
		</g>
		<g>
			<g>
				<path fill="#EF4529" d="M149.517,175.363c-3.323,1.682-8.949-0.177-9.059-2.971c-2.463-1.903-0.352-7.377,2.973-9.058
					c3.321-1.681,7.428-1.715,8.407,3.553C155.352,170.597,152.838,173.682,149.517,175.363z"/>
				<g>
					<path fill="none" stroke="#333333" stroke-width="1.5924" stroke-linecap="round" stroke-miterlimit="10" d="M148.78,175.663
						c-0.33,0.095-0.659,0.195-1.002,0.236c-1.615,0.257-3.297-0.004-4.791-0.657c-0.739-0.335-1.453-0.785-1.962-1.431
						c-0.236-0.329-0.452-0.691-0.515-1.097l-0.049-0.303c-0.051-0.082-0.142-0.146-0.209-0.219
						c-0.159-0.132-0.28-0.296-0.384-0.474c-0.438-0.696-0.529-1.555-0.447-2.36c0.084-0.813,0.331-1.603,0.668-2.345
						c0.703-1.463,1.765-2.813,3.208-3.602c1.435-0.747,3.081-1.258,4.711-1.013c0.807,0.126,1.579,0.488,2.172,1.053
						c0.606,0.555,1.004,1.299,1.279,2.063c0.153,0.38,0.238,0.78,0.332,1.178c0.008,0.219,0.192,0.348,0.314,0.508
						c0.128,0.159,0.276,0.303,0.389,0.474c0.49,0.651,0.857,1.408,0.986,2.215c0.13,0.808-0.038,1.649-0.426,2.366
						c-0.078,0.184-0.22,0.358-0.313,0.51c-0.056,0.082-0.107,0.166-0.175,0.238c-0.128,0.148-0.248,0.306-0.384,0.446"/>
					
						<line fill="none" stroke="#333333" stroke-width="1.5924" stroke-linecap="round" stroke-miterlimit="10" x1="150.214" y1="174.979" x2="150.309" y2="174.92"/>
				</g>
			</g>
			
				<ellipse transform="matrix(0.9896 0.1438 -0.1438 0.9896 25.2222 -19.4048)" opacity="0.5" fill="#FFFFFF" enable-background="new    " cx="146.819" cy="164.74" rx="1.543" ry="1.27"/>
		</g>
		<g>
			<g>
				<path fill="#D3F46C" d="M171.436,196.551c-3.723,0.05-7.962-4.088-6.833-6.646c-1.379-2.792,2.922-6.783,6.646-6.835
					c3.72-0.052,7.426,1.722,5.992,6.884C178.768,194.83,175.157,196.497,171.436,196.551z"/>
				<g>
					<path fill="none" stroke="#333333" stroke-width="1.5924" stroke-linecap="round" stroke-miterlimit="10" d="M170.642,196.496
						c-0.339-0.06-0.679-0.114-1.004-0.228c-1.563-0.479-2.96-1.452-4.015-2.694c-0.52-0.625-0.962-1.344-1.136-2.146
						c-0.067-0.4-0.102-0.819,0.021-1.211l0.089-0.294c-0.012-0.097-0.063-0.192-0.093-0.288c-0.085-0.188-0.122-0.389-0.137-0.594
						c-0.089-0.818,0.207-1.629,0.634-2.316c0.432-0.694,1-1.295,1.63-1.814c1.271-1.006,2.82-1.752,4.462-1.828
						c1.617-0.041,3.32,0.223,4.677,1.16c0.67,0.467,1.204,1.131,1.489,1.898c0.302,0.765,0.332,1.607,0.244,2.414
						c-0.028,0.409-0.128,0.806-0.22,1.204c-0.089,0.2,0.021,0.396,0.06,0.595c0.045,0.199,0.115,0.393,0.141,0.596
						c0.154,0.801,0.153,1.642-0.085,2.423c-0.236,0.783-0.757,1.465-1.421,1.938c-0.149,0.132-0.354,0.227-0.506,0.321
						c-0.085,0.049-0.169,0.102-0.261,0.138c-0.181,0.076-0.356,0.165-0.541,0.232"/>
					
						<line fill="none" stroke="#333333" stroke-width="1.5924" stroke-linecap="round" stroke-miterlimit="10" x1="172.23" y1="196.512" x2="172.342" y2="196.5"/>
				</g>
			</g>
			
				<ellipse transform="matrix(0.8257 0.5641 -0.5641 0.8257 135.088 -65.5869)" opacity="0.5" fill="#FFFFFF" enable-background="new    " cx="173.681" cy="185.815" rx="1.542" ry="1.269"/>
		</g>
		<path fill="#CC924C" stroke="#333333" stroke-width="2.8307" stroke-linecap="round" stroke-miterlimit="10" d="M111.94,202.172
			l82.606-29.054c1.048-0.362,1.604-1.503,1.242-2.553l0,0c-0.36-1.047-1.503-1.604-2.552-1.243l-82.952,28.05"/>
		<g>
			
				<path fill="#A1C453" stroke="#333333" stroke-width="1.0616" stroke-linecap="round" stroke-linejoin="round" stroke-miterlimit="10" d="
				M195.436,169.049c0,0,3.12,0.179,3.729,0.379c0.484,0.157-2.385,1.875-3.525,2.305L195.436,169.049z"/>
			
				<path fill="#A1C453" stroke="#333333" stroke-width="1.0616" stroke-linecap="round" stroke-linejoin="round" stroke-miterlimit="10" d="
				M196.479,171.3l-4.429-1.869c0,0,4.238-2.216,6.153-1.634C198.203,167.797,196.962,169.758,196.479,171.3z"/>
			
				<path fill="#A1C453" stroke="#333333" stroke-width="1.0616" stroke-linecap="round" stroke-linejoin="round" stroke-miterlimit="10" d="
				M191.29,173.748c0,0,5.922,0.448,8.197-2.227l-4.324-1.574L191.29,173.748z"/>
		</g>
	</g>
</g>
<g id="calque08">
	<g>
		
			<polygon fill="#CC924C" stroke="#333333" stroke-width="1.0616" stroke-linecap="round" stroke-linejoin="round" stroke-miterlimit="10" points="
			182.315,166.087 177.729,174.828 180.56,173.852 		"/>
		
			<polygon fill="#CC924C" stroke="#333333" stroke-width="0.8493" stroke-linecap="round" stroke-linejoin="round" stroke-miterlimit="10" points="
			177.625,187.483 167.257,182.528 170.089,181.553 		"/>
		
			<polygon fill="#CC924C" stroke="#333333" stroke-width="1.0616" stroke-linecap="round" stroke-linejoin="round" stroke-miterlimit="10" points="
			152.641,167.719 143.221,186.57 146.052,185.595 		"/>
		
			<polygon fill="#CC924C" stroke="#333333" stroke-width="1.0616" stroke-linecap="round" stroke-linejoin="round" stroke-miterlimit="10" points="
			141.552,197.347 134.275,194.355 136.101,193.727 		"/>
		<g>
			
				<path fill="#A1C453" stroke="#333333" stroke-width="1.5923" stroke-linecap="round" stroke-linejoin="round" stroke-miterlimit="10" d="
				M130.482,176.068c1.771,2.243,3.921,2.381,3.354,8.357c-0.567,5.976-4.423,2.904-4.798,6.836
				c0.375-3.932-4.096-1.873-3.548-7.629C126.038,177.877,128.488,178.11,130.482,176.068z"/>
			<g>
				<line fill="none" x1="129.039" y1="191.262" x2="130.157" y2="179.488"/>
				<g>
					<polyline fill="none" stroke="#333333" stroke-width="1.0616" stroke-linecap="round" stroke-miterlimit="10" points="
						129.089,190.733 129.154,190.049 129.893,182.271 129.949,181.676 					"/>
					
						<line fill="none" stroke="#333333" stroke-width="1.0616" stroke-linecap="round" stroke-miterlimit="10" x1="130.106" y1="180.017" x2="130.1" y2="180.091"/>
				</g>
			</g>
		</g>
		<g>
			
				<path fill="#A1C453" stroke="#333333" stroke-width="1.5923" stroke-linecap="round" stroke-linejoin="round" stroke-miterlimit="10" d="
				M190.645,153.298c-2.781,0.652-4.552-0.58-7.827,4.452c-3.275,5.03,1.656,5.028-0.502,8.337c2.158-3.309,4.372,1.084,7.526-3.763
				C192.997,157.479,190.936,156.136,190.645,153.298z"/>
			<g>
				<line fill="none" x1="182.315" y1="166.087" x2="188.769" y2="156.177"/>
				<g>
					<polyline fill="none" stroke="#333333" stroke-width="1.0616" stroke-linecap="round" stroke-miterlimit="10" points="
						182.605,165.643 182.98,165.065 187.243,158.52 187.569,158.019 					"/>
					
						<line fill="none" stroke="#333333" stroke-width="1.0616" stroke-linecap="round" stroke-miterlimit="10" x1="188.479" y1="156.621" x2="188.438" y2="156.684"/>
				</g>
			</g>
		</g>
		<g>
			
				<path fill="#A1C453" stroke="#333333" stroke-width="1.5923" stroke-linecap="round" stroke-linejoin="round" stroke-miterlimit="10" d="
				M167.521,159.067c-0.854,3.11,0.46,5.157-5.352,8.639c-5.813,3.483-5.602-2.077-9.423,0.215c3.822-2.292-1.037-4.975,4.56-8.329
				C162.902,156.238,164.331,158.62,167.521,159.067z"/>
			<g>
				<line fill="none" x1="152.746" y1="167.921" x2="164.194" y2="161.059"/>
				<g>
					<polyline fill="none" stroke="#333333" stroke-width="1.0616" stroke-linecap="round" stroke-miterlimit="10" points="
						153.201,167.648 153.791,167.295 161.797,162.496 162.31,162.188 					"/>
					
						<line fill="none" stroke="#333333" stroke-width="1.0616" stroke-linecap="round" stroke-miterlimit="10" x1="163.739" y1="161.331" x2="163.675" y2="161.37"/>
				</g>
			</g>
		</g>
		<g>
			
				<path fill="#A1C453" stroke="#333333" stroke-width="1.5923" stroke-linecap="round" stroke-linejoin="round" stroke-miterlimit="10" d="
				M156.468,151.304c1.596,2.802,3.974,3.319,2.326,9.891c-1.646,6.571-5.429,2.49-6.512,6.816c1.083-4.326-4.25-2.786-2.665-9.114
				C151.204,152.565,153.898,153.24,156.468,151.304z"/>
			<g>
				<line fill="none" x1="152.282" y1="168.011" x2="155.526" y2="155.063"/>
				<g>
					<polyline fill="none" stroke="#333333" stroke-width="1.0616" stroke-linecap="round" stroke-miterlimit="10" points="
						152.411,167.496 152.578,166.829 154.847,157.774 154.992,157.194 					"/>
					
						<line fill="none" stroke="#333333" stroke-width="1.0616" stroke-linecap="round" stroke-miterlimit="10" x1="155.397" y1="155.577" x2="155.379" y2="155.649"/>
				</g>
			</g>
		</g>
		<g>
			
				<path fill="#A1C453" stroke="#333333" stroke-width="1.5923" stroke-linecap="round" stroke-linejoin="round" stroke-miterlimit="10" d="
				M154.04,201.447c-1.177-2.274-0.494-4.078-5.578-5.821c-5.083-1.742-4.001,2.538-7.346,1.391c3.345,1.147,0.018,4.03,4.913,5.709
				C150.925,204.402,151.638,202.318,154.04,201.447z"/>
			<g>
				<line fill="none" x1="141.115" y1="197.017" x2="151.131" y2="200.448"/>
				<g>
					<polyline fill="none" stroke="#333333" stroke-width="1.0616" stroke-linecap="round" stroke-miterlimit="10" points="
						141.617,197.188 142.268,197.412 148.486,199.542 149.052,199.736 					"/>
					
						<line fill="none" stroke="#333333" stroke-width="1.0616" stroke-linecap="round" stroke-miterlimit="10" x1="150.629" y1="200.276" x2="150.558" y2="200.252"/>
				</g>
			</g>
		</g>
		<g>
			
				<path fill="#A1C453" stroke="#333333" stroke-width="1.5923" stroke-linecap="round" stroke-linejoin="round" stroke-miterlimit="10" d="
				M146.75,209.293c0.774-2.436,2.532-3.232,0.169-8.059c-2.362-4.825-4.623-1.034-6.177-4.21c1.554,3.176-2.838,2.862-0.563,7.51
				C142.455,209.184,144.434,208.215,146.75,209.293z"/>
			<g>
				<line fill="none" x1="140.742" y1="197.024" x2="145.396" y2="206.531"/>
				<g>
					<polyline fill="none" stroke="#333333" stroke-width="1.0616" stroke-linecap="round" stroke-miterlimit="10" points="
						140.975,197.501 141.277,198.119 144.167,204.021 144.43,204.559 					"/>
					
						<line fill="none" stroke="#333333" stroke-width="1.0616" stroke-linecap="round" stroke-miterlimit="10" x1="145.163" y1="206.057" x2="145.13" y2="205.988"/>
				</g>
			</g>
		</g>
		<g>
			
				<path fill="#A1C453" stroke="#333333" stroke-width="1.5923" stroke-linecap="round" stroke-linejoin="round" stroke-miterlimit="10" d="
				M185.051,203.512c-3.014-1.148-5.178-0.041-8.083-6.161c-2.903-6.121,2.611-5.372,0.701-9.399c1.91,4.027,5.052-0.55,7.847,5.344
				C188.313,199.191,185.804,200.382,185.051,203.512z"/>
			<g>
				<line fill="none" x1="177.669" y1="187.951" x2="183.389" y2="200.011"/>
				<g>
					<polyline fill="none" stroke="#333333" stroke-width="1.0616" stroke-linecap="round" stroke-miterlimit="10" points="
						177.896,188.431 178.191,189.052 182.19,197.485 182.447,198.025 					"/>
					
						<line fill="none" stroke="#333333" stroke-width="1.0616" stroke-linecap="round" stroke-miterlimit="10" x1="183.161" y1="199.531" x2="183.129" y2="199.464"/>
				</g>
			</g>
		</g>
		<g>
			
				<path fill="#A1C453" stroke="#333333" stroke-width="1.5923" stroke-linecap="round" stroke-linejoin="round" stroke-miterlimit="10" d="
				M193.848,193.266c-2.944,1.316-3.69,3.633-10.069,1.358c-6.383-2.276-1.953-5.646-6.152-7.141
				c4.199,1.495,3.184-3.963,9.327-1.772C193.101,187.903,192.165,190.519,193.848,193.266z"/>
			<g>
				<line fill="none" x1="177.625" y1="187.483" x2="190.198" y2="191.964"/>
				<g>
					<polyline fill="none" stroke="#333333" stroke-width="1.0616" stroke-linecap="round" stroke-miterlimit="10" points="
						178.125,187.662 178.772,187.893 187.565,191.025 188.128,191.227 					"/>
					
						<line fill="none" stroke="#333333" stroke-width="1.0616" stroke-linecap="round" stroke-miterlimit="10" x1="189.698" y1="191.785" x2="189.628" y2="191.761"/>
				</g>
			</g>
		</g>
		<g>
			
				<path fill="#A1C453" stroke="#333333" stroke-width="1.5923" stroke-linecap="round" stroke-linejoin="round" stroke-miterlimit="10" d="
				M173.774,200.727c-1.234-2.21-3.101-2.635-1.768-7.785c1.334-5.152,4.28-1.925,5.158-5.315c-0.878,3.391,3.32,2.214,2.038,7.177
				C177.917,199.766,175.806,199.218,173.774,200.727z"/>
			<g>
				<line fill="none" x1="177.165" y1="187.626" x2="174.537" y2="197.778"/>
				<g>
					<polyline fill="none" stroke="#333333" stroke-width="1.0616" stroke-linecap="round" stroke-miterlimit="10" points="
						177.032,188.14 176.859,188.806 175.237,195.072 175.088,195.65 					"/>
					
						<line fill="none" stroke="#333333" stroke-width="1.0616" stroke-linecap="round" stroke-miterlimit="10" x1="174.67" y1="197.265" x2="174.688" y2="197.192"/>
				</g>
			</g>
		</g>
		<g>
			<g>
				<path fill="#EF4529" d="M149.516,175.361c-3.324,1.68-8.949-0.178-9.059-2.972c-2.464-1.902-0.352-7.378,2.972-9.057
					c3.322-1.681,7.428-1.716,8.408,3.551C155.351,170.595,152.837,173.68,149.516,175.361z"/>
				<g>
					<path fill="none" stroke="#333333" stroke-width="1.5924" stroke-linecap="round" stroke-miterlimit="10" d="M148.778,175.66
						c-0.33,0.096-0.659,0.195-1.002,0.236c-1.614,0.257-3.297-0.004-4.79-0.657c-0.739-0.335-1.453-0.785-1.962-1.431
						c-0.236-0.329-0.452-0.691-0.515-1.098l-0.049-0.302c-0.051-0.083-0.142-0.146-0.209-0.22c-0.159-0.131-0.28-0.295-0.383-0.473
						c-0.438-0.696-0.529-1.555-0.448-2.36c0.084-0.813,0.331-1.603,0.669-2.346c0.702-1.462,1.765-2.813,3.208-3.601
						c1.436-0.746,3.081-1.257,4.712-1.012c0.807,0.126,1.579,0.488,2.172,1.052c0.606,0.556,1.004,1.3,1.279,2.063
						c0.154,0.379,0.239,0.779,0.332,1.178c0.008,0.219,0.193,0.347,0.314,0.508c0.128,0.158,0.277,0.302,0.389,0.474
						c0.49,0.651,0.857,1.408,0.985,2.215c0.13,0.808-0.038,1.649-0.426,2.366c-0.078,0.184-0.22,0.358-0.313,0.51
						c-0.056,0.082-0.107,0.166-0.175,0.238c-0.128,0.148-0.248,0.306-0.384,0.446"/>
					
						<line fill="none" stroke="#333333" stroke-width="1.5924" stroke-linecap="round" stroke-miterlimit="10" x1="150.213" y1="174.977" x2="150.308" y2="174.918"/>
				</g>
			</g>
			
				<ellipse transform="matrix(0.9895 0.1443 -0.1443 0.9895 25.3173 -19.4686)" opacity="0.5" fill="#FFFFFF" enable-background="new    " cx="146.827" cy="164.741" rx="1.543" ry="1.269"/>
		</g>
		<g>
			<g>
				<path fill="#EF4529" d="M171.495,196.725c-3.723,0.052-7.961-4.086-6.833-6.645c-1.379-2.791,2.925-6.781,6.646-6.835
					c3.722-0.053,7.426,1.723,5.994,6.885C178.83,195.007,175.217,196.674,171.495,196.725z"/>
				<g>
					<path fill="none" stroke="#333333" stroke-width="1.5924" stroke-linecap="round" stroke-miterlimit="10" d="M170.701,196.67
						c-0.34-0.059-0.68-0.114-1.005-0.228c-1.563-0.479-2.961-1.451-4.015-2.693c-0.519-0.626-0.962-1.344-1.134-2.147
						c-0.069-0.399-0.104-0.819,0.02-1.211l0.09-0.294c-0.014-0.097-0.063-0.192-0.094-0.288c-0.086-0.188-0.121-0.389-0.137-0.594
						c-0.088-0.818,0.208-1.629,0.636-2.316c0.433-0.693,1.001-1.294,1.631-1.813c1.272-1.006,2.819-1.752,4.463-1.828
						c1.616-0.041,3.319,0.224,4.677,1.161c0.669,0.468,1.203,1.132,1.487,1.899c0.302,0.765,0.331,1.607,0.243,2.414
						c-0.027,0.409-0.128,0.806-0.219,1.204c-0.089,0.2,0.021,0.396,0.06,0.595c0.047,0.199,0.116,0.393,0.142,0.596
						c0.155,0.801,0.153,1.643-0.085,2.424c-0.237,0.782-0.758,1.464-1.422,1.938c-0.151,0.131-0.354,0.226-0.507,0.32
						c-0.086,0.049-0.168,0.102-0.261,0.138c-0.182,0.077-0.356,0.166-0.542,0.232"/>
					
						<line fill="none" stroke="#333333" stroke-width="1.5924" stroke-linecap="round" stroke-miterlimit="10" x1="172.29" y1="196.686" x2="172.401" y2="196.675"/>
				</g>
			</g>
			
				<ellipse transform="matrix(0.826 0.5636 -0.5636 0.826 135.0634 -65.5682)" opacity="0.5" fill="#FFFFFF" enable-background="new    " cx="173.744" cy="186.002" rx="1.54" ry="1.269"/>
		</g>
		<path fill="#CC924C" stroke="#333333" stroke-width="2.8307" stroke-linecap="round" stroke-miterlimit="10" d="M111.94,202.17
			l82.606-29.054c1.048-0.362,1.604-1.505,1.242-2.554l0,0c-0.363-1.048-1.504-1.604-2.552-1.243l-82.953,28.051"/>
		<g>
			
				<path fill="#A1C453" stroke="#333333" stroke-width="1.0616" stroke-linecap="round" stroke-linejoin="round" stroke-miterlimit="10" d="
				M195.436,169.047c0,0,3.12,0.179,3.726,0.378c0.487,0.156-2.383,1.875-3.523,2.305L195.436,169.047z"/>
			
				<path fill="#A1C453" stroke="#333333" stroke-width="1.0616" stroke-linecap="round" stroke-linejoin="round" stroke-miterlimit="10" d="
				M196.479,171.297l-4.429-1.868c0,0,4.238-2.216,6.153-1.634C198.203,167.795,196.962,169.754,196.479,171.297z"/>
			
				<path fill="#A1C453" stroke="#333333" stroke-width="1.0616" stroke-linecap="round" stroke-linejoin="round" stroke-miterlimit="10" d="
				M191.288,173.747c0,0,5.922,0.446,8.199-2.229l-4.326-1.574L191.288,173.747z"/>
		</g>
	</g>
</g>
</svg>
