<?xml version="1.0" encoding="utf-8"?>
<!-- Generator: Adobe Illustrator 16.0.0, SVG Export Plug-In . SVG Version: 6.00 Build 0)  -->
<!DOCTYPE svg PUBLIC "-//W3C//DTD SVG 1.1//EN" "http://www.w3.org/Graphics/SVG/1.1/DTD/svg11.dtd">
<svg version="1.1" xmlns="http://www.w3.org/2000/svg" xmlns:xlink="http://www.w3.org/1999/xlink" x="0px" y="0px" width="230px"
	 height="380px" viewBox="0 0 230 380" enable-background="new 0 0 230 380" xml:space="preserve">
<g id="calque00">
	<g>
		<path fill="#CC924C" stroke="#333333" stroke-width="9.9702" stroke-linecap="round" stroke-miterlimit="10" d="M111.828,365
			l1.995-35.277c0-4.164,3.377-7.54,7.542-7.54l0,0c4.163,0,7.54,3.376,7.54,7.54L130.9,365"/>
		<g>
			
				<path fill="#A1C453" stroke="#333333" stroke-width="3.9881" stroke-linecap="round" stroke-linejoin="round" stroke-miterlimit="10" d="
				M127.186,321.579c0,0-4.461-10.86-5.909-12.767c-1.153-1.535-3.74,10.759-3.869,15.339L127.186,321.579z"/>
			
				<path fill="#A1C453" stroke="#333333" stroke-width="3.9881" stroke-linecap="round" stroke-linejoin="round" stroke-miterlimit="10" d="
				M117.911,320.635l12.067,13.443c0,0,2.673-17.772-1.737-23.861C128.241,310.217,122.801,317.026,117.911,320.635z"/>
			
				<path fill="#A1C453" stroke="#333333" stroke-width="3.9881" stroke-linecap="round" stroke-linejoin="round" stroke-miterlimit="10" d="
				M115.574,342.066c0,0-8.846-20.487-2.137-31.85l10.895,13.436L115.574,342.066z"/>
		</g>
	</g>
</g>
<g id="calque01">
	<g>
		<g>
			
				<path fill="#A1C453" stroke="#333333" stroke-width="3.9881" stroke-linecap="round" stroke-linejoin="round" stroke-miterlimit="10" d="
				M92.876,273.416c4.921-0.206,7.286-3.068,15.054,3.763c7.767,6.831-0.418,9.109,4.693,13.604
				c-5.111-4.495-6.753,3.82-14.232-2.758C90.909,281.446,93.709,278.26,92.876,273.416z"/>
			<g>
				<line fill="#A1C453" x1="112.623" y1="290.783" x2="97.319" y2="277.324"/>
				<g>
					<polyline fill="none" stroke="#333333" stroke-width="3.9881" stroke-linecap="round" stroke-miterlimit="10" points="
						111.126,289.467 109.186,287.76 105.205,284.26 103.52,282.776 					"/>
					
						<line fill="none" stroke="#333333" stroke-width="3.9881" stroke-linecap="round" stroke-miterlimit="10" x1="98.816" y1="278.641" x2="99.027" y2="278.826"/>
				</g>
			</g>
		</g>
		<path fill="#CC924C" stroke="#333333" stroke-width="9.9702" stroke-linecap="round" stroke-miterlimit="10" d="M130.9,365
			l-1.996-109.672c0-4.164-3.377-7.541-7.541-7.541l0,0c-4.164,0-7.541,3.377-7.541,7.541L111.828,365"/>
		<g>
			
				<path fill="#A1C453" stroke="#333333" stroke-width="3.9881" stroke-linecap="round" stroke-linejoin="round" stroke-miterlimit="10" d="
				M115.543,247.185c0,0,4.461-10.861,5.908-12.767c1.154-1.535,3.741,10.758,3.869,15.339L115.543,247.185z"/>
			
				<path fill="#A1C453" stroke="#333333" stroke-width="3.9881" stroke-linecap="round" stroke-linejoin="round" stroke-miterlimit="10" d="
				M124.817,246.238l-12.067,13.445c0,0-2.673-17.772,1.736-23.863C114.486,235.82,119.928,242.632,124.817,246.238z"/>
			
				<path fill="#A1C453" stroke="#333333" stroke-width="3.9881" stroke-linecap="round" stroke-linejoin="round" stroke-miterlimit="10" d="
				M127.154,267.672c0,0,8.846-20.487,2.136-31.852l-10.894,13.438L127.154,267.672z"/>
		</g>
	</g>
</g>
<g id="calque02">
	<g>
		<g>
			
				<path fill="#A1C453" stroke="#333333" stroke-width="5.9821" stroke-linecap="round" stroke-linejoin="round" stroke-miterlimit="10" d="
				M60.311,267.338c10.108-3.611,13.182-11.102,33.775-1.905c20.592,9.197,5.024,19.237,18.574,25.29
				c-13.55-6.053-11.587,12.324-31.418,3.467C61.408,285.331,65.179,276.888,60.311,267.338z"/>
			<g>
				<line fill="#A1C453" x1="112.66" y1="290.723" x2="72.09" y2="272.603"/>
				<g>
					<polyline fill="none" stroke="#333333" stroke-width="3.9881" stroke-linecap="round" stroke-miterlimit="10" points="
						110.84,289.909 108.48,288.855 81.679,276.885 79.629,275.97 					"/>
					
						<line fill="none" stroke="#333333" stroke-width="3.9881" stroke-linecap="round" stroke-miterlimit="10" x1="73.91" y1="273.416" x2="74.167" y2="273.53"/>
				</g>
			</g>
		</g>
		<g>
			
				<path fill="#A1C453" stroke="#333333" stroke-width="3.9881" stroke-linecap="round" stroke-linejoin="round" stroke-miterlimit="10" d="
				M150.778,252.535c-0.452,4.813,2.021,7.492-5.649,14.144c-7.674,6.651-8.806-1.611-13.855,2.767
				c5.05-4.378-2.825-7.074,4.566-13.478C143.227,249.559,145.957,252.704,150.778,252.535z"/>
			<g>
				<line fill="#A1C453" x1="131.273" y1="269.445" x2="144.788" y2="257.891"/>
				<g>
					<polyline fill="none" stroke="#333333" stroke-width="3.9881" stroke-linecap="round" stroke-miterlimit="10" points="
						132.789,268.149 134.753,266.471 136.807,264.715 138.513,263.256 					"/>
					
						<line fill="none" stroke="#333333" stroke-width="3.9881" stroke-linecap="round" stroke-miterlimit="10" x1="143.272" y1="259.187" x2="143.06" y2="259.369"/>
				</g>
			</g>
		</g>
		<path fill="#CC924C" stroke="#333333" stroke-width="9.9702" stroke-linecap="round" stroke-miterlimit="10" d="M130.9,365
			l-1.994-143.943c0-4.164-3.377-7.541-7.544-7.541l0,0c-4.163,0-7.54,3.377-7.54,7.541L111.828,365"/>
		<g>
			
				<path fill="#A1C453" stroke="#333333" stroke-width="3.9881" stroke-linecap="round" stroke-linejoin="round" stroke-miterlimit="10" d="
				M115.544,212.913c0,0,4.459-10.86,5.907-12.767c1.153-1.535,3.739,10.758,3.868,15.339L115.544,212.913z"/>
			
				<path fill="#A1C453" stroke="#333333" stroke-width="3.9881" stroke-linecap="round" stroke-linejoin="round" stroke-miterlimit="10" d="
				M124.816,211.967l-12.064,13.445c0,0-2.676-17.772,1.736-23.863C114.488,201.549,119.93,208.36,124.816,211.967z"/>
			
				<path fill="#A1C453" stroke="#333333" stroke-width="3.9881" stroke-linecap="round" stroke-linejoin="round" stroke-miterlimit="10" d="
				M127.153,233.4c0,0,8.845-20.487,2.138-31.852l-10.896,13.438L127.153,233.4z"/>
		</g>
	</g>
</g>
<g id="calque03">
	<g>
		
			<polygon fill="#CC924C" stroke="#333333" stroke-width="3.9881" stroke-linecap="round" stroke-linejoin="round" stroke-miterlimit="10" points="
			150.046,253.93 130.514,276.108 130.514,268.846 		"/>
		<g>
			
				<path fill="#A1C453" stroke="#333333" stroke-width="5.9821" stroke-linecap="round" stroke-linejoin="round" stroke-miterlimit="10" d="
				M60.922,267.174c10.134-3.541,13.257-11.01,33.789-1.676c20.528,9.337,4.892,19.271,18.402,25.415
				c-13.511-6.144-11.668,12.247-31.441,3.254C61.899,285.174,65.728,276.757,60.922,267.174z"/>
			<g>
				<line fill="#A1C453" x1="113.113" y1="290.913" x2="72.664" y2="272.519"/>
				<g>
					<polyline fill="none" stroke="#333333" stroke-width="3.9881" stroke-linecap="round" stroke-miterlimit="10" points="
						111.298,290.088 108.946,289.019 82.224,276.866 80.18,275.937 					"/>
					
						<line fill="none" stroke="#333333" stroke-width="3.9881" stroke-linecap="round" stroke-miterlimit="10" x1="74.479" y1="273.344" x2="74.734" y2="273.46"/>
				</g>
			</g>
		</g>
		<g>
			
				<path fill="#A1C453" stroke="#333333" stroke-width="3.9881" stroke-linecap="round" stroke-linejoin="round" stroke-miterlimit="10" d="
				M75.814,201.209c7.497-1.407,10.496-6.324,23.925,2.432c13.433,8.76,1.382,14.072,10.223,19.832
				c-8.841-5.76-9.514,7.361-22.444-1.069C74.576,213.97,78.167,208.461,75.814,201.209z"/>
			<g>
				<line fill="#A1C453" x1="109.962" y1="223.473" x2="83.498" y2="206.223"/>
				<g>
					<polyline fill="none" stroke="#333333" stroke-width="3.9881" stroke-linecap="round" stroke-miterlimit="10" points="
						108.291,222.384 106.127,220.974 92.296,211.959 90.415,210.732 					"/>
					
						<line fill="none" stroke="#333333" stroke-width="3.9881" stroke-linecap="round" stroke-miterlimit="10" x1="85.169" y1="207.312" x2="85.403" y2="207.465"/>
				</g>
			</g>
		</g>
		<g>
			
				<path fill="#A1C453" stroke="#333333" stroke-width="5.9821" stroke-linecap="round" stroke-linejoin="round" stroke-miterlimit="10" d="
				M179.901,214.598c-9.507,1.395-15.088-3.236-27.5,12.682c-12.412,15.92,4.109,17.319-4.062,27.793
				c8.171-10.474,14.336,4.875,26.292-10.455C186.589,229.283,180.062,224.193,179.901,214.598z"/>
			<g>
				<line fill="#A1C453" x1="148.34" y1="255.072" x2="172.798" y2="223.709"/>
				<g>
					<polyline fill="none" stroke="#333333" stroke-width="3.9881" stroke-linecap="round" stroke-miterlimit="10" points="
						149.566,253.5 151.155,251.463 166.34,231.99 167.721,230.22 					"/>
					
						<line fill="none" stroke="#333333" stroke-width="3.9881" stroke-linecap="round" stroke-miterlimit="10" x1="171.571" y1="225.281" x2="171.399" y2="225.503"/>
				</g>
			</g>
		</g>
		<g>
			
				<path fill="#A1C453" stroke="#333333" stroke-width="3.9881" stroke-linecap="round" stroke-linejoin="round" stroke-miterlimit="10" d="
				M179.719,251.726c-4.541-3.382-4.938-7.636-16.747-6.176c-11.809,1.462-5.507,8.931-13.276,9.89
				c7.77-0.959,3.945,8.008,15.317,6.602C176.385,260.633,175.789,255.791,179.719,251.726z"/>
			<g>
				<line fill="#A1C453" x1="149.695" y1="255.439" x2="172.961" y2="252.563"/>
				<g>
					<polyline fill="none" stroke="#333333" stroke-width="3.9881" stroke-linecap="round" stroke-miterlimit="10" points="
						151.674,255.194 154.238,254.878 162.539,253.852 164.767,253.576 					"/>
					
						<line fill="none" stroke="#333333" stroke-width="3.9881" stroke-linecap="round" stroke-miterlimit="10" x1="170.982" y1="252.808" x2="170.704" y2="252.842"/>
				</g>
			</g>
		</g>
		<path fill="#CC924C" stroke="#333333" stroke-width="10.6342" stroke-linecap="round" stroke-miterlimit="10" d="M130.899,365
			l-1.994-179.43c0-4.164-3.376-7.541-7.544-7.541l0,0c-4.163,0-7.539,3.377-7.539,7.541L111.828,365"/>
		<g>
			
				<path fill="#A1C453" stroke="#333333" stroke-width="3.9881" stroke-linecap="round" stroke-linejoin="round" stroke-miterlimit="10" d="
				M115.543,177.426c0,0,4.46-10.861,5.908-12.767c1.153-1.534,3.743,10.758,3.871,15.339L115.543,177.426z"/>
			
				<path fill="#A1C453" stroke="#333333" stroke-width="3.9881" stroke-linecap="round" stroke-linejoin="round" stroke-miterlimit="10" d="
				M124.816,176.481l-12.065,13.444c0,0-2.672-17.772,1.737-23.862C114.488,166.063,119.929,172.874,124.816,176.481z"/>
			
				<path fill="#A1C453" stroke="#333333" stroke-width="3.9881" stroke-linecap="round" stroke-linejoin="round" stroke-miterlimit="10" d="
				M127.153,197.914c0,0,8.849-20.488,2.138-31.851l-10.893,13.436L127.153,197.914z"/>
		</g>
	</g>
</g>
<g id="calque04">
	<g>
		
			<polygon fill="#CC924C" stroke="#333333" stroke-width="3.9881" stroke-linecap="round" stroke-linejoin="round" stroke-miterlimit="10" points="
			58.41,178.252 113.822,234.799 113.822,223.545 		"/>
		
			<polygon fill="#CC924C" stroke="#333333" stroke-width="3.9881" stroke-linecap="round" stroke-linejoin="round" stroke-miterlimit="10" points="
			150.046,253.93 130.515,276.108 130.515,268.846 		"/>
		<g>
			
				<path fill="#A1C453" stroke="#333333" stroke-width="5.9821" stroke-linecap="round" stroke-linejoin="round" stroke-miterlimit="10" d="
				M60.922,267.174c10.134-3.541,13.258-11.01,33.788-1.676c20.528,9.337,4.894,19.271,18.402,25.415
				c-13.509-6.144-11.669,12.247-31.441,3.254C61.897,285.174,65.727,276.757,60.922,267.174z"/>
			<g>
				<line fill="#A1C453" x1="113.112" y1="290.913" x2="72.664" y2="272.519"/>
				<g>
					<polyline fill="none" stroke="#333333" stroke-width="3.9881" stroke-linecap="round" stroke-miterlimit="10" points="
						111.297,290.088 108.945,289.018 82.224,276.866 80.18,275.937 					"/>
					
						<line fill="none" stroke="#333333" stroke-width="3.9881" stroke-linecap="round" stroke-miterlimit="10" x1="74.479" y1="273.344" x2="74.734" y2="273.46"/>
				</g>
			</g>
		</g>
		<g>
			
				<path fill="#A1C453" stroke="#333333" stroke-width="3.9881" stroke-linecap="round" stroke-linejoin="round" stroke-miterlimit="10" d="
				M54.862,144.316c5.452,3.729,10.293,2.553,13.156,16.132c2.864,13.58-7.764,9.457-5.881,18.392
				c-1.883-8.935-10.325-1.316-13.082-14.393C46.3,151.366,51.865,150.193,54.862,144.316z"/>
			<g>
				<line fill="#A1C453" x1="62.138" y1="178.84" x2="56.498" y2="152.085"/>
				<g>
					<polyline fill="none" stroke="#333333" stroke-width="3.9881" stroke-linecap="round" stroke-miterlimit="10" points="
						61.727,176.889 61.193,174.361 58.664,162.361 58.201,160.165 					"/>
					
						<line fill="none" stroke="#333333" stroke-width="3.9881" stroke-linecap="round" stroke-miterlimit="10" x1="56.909" y1="154.037" x2="56.967" y2="154.311"/>
				</g>
			</g>
		</g>
		<g>
			
				<path fill="#A1C453" stroke="#333333" stroke-width="5.9821" stroke-linecap="round" stroke-linejoin="round" stroke-miterlimit="10" d="
				M4.797,144.548c11.906-2.233,16.661-10.038,37.98,3.859c21.319,13.898,2.192,22.332,16.225,31.474
				c-14.032-9.143-15.099,11.685-35.628-1.699C2.834,164.795,8.532,156.054,4.797,144.548z"/>
			<g>
				<line fill="#A1C453" x1="59.002" y1="179.881" x2="16.995" y2="152.502"/>
				<g>
					<polyline fill="none" stroke="#333333" stroke-width="3.9881" stroke-linecap="round" stroke-miterlimit="10" points="
						57.331,178.792 55.167,177.382 25.793,158.237 23.912,157.011 					"/>
					
						<line fill="none" stroke="#333333" stroke-width="3.9881" stroke-linecap="round" stroke-miterlimit="10" x1="18.666" y1="153.591" x2="18.9" y2="153.744"/>
				</g>
			</g>
		</g>
		<g>
			
				<path fill="#A1C453" stroke="#333333" stroke-width="5.9821" stroke-linecap="round" stroke-linejoin="round" stroke-miterlimit="10" d="
				M179.902,214.598c-9.507,1.395-15.088-3.236-27.502,12.682c-12.412,15.92,4.111,17.319-4.06,27.793
				c8.171-10.474,14.336,4.875,26.292-10.455C186.589,229.283,180.062,224.193,179.902,214.598z"/>
			<g>
				<line fill="#A1C453" x1="148.341" y1="255.072" x2="172.799" y2="223.709"/>
				<g>
					<polyline fill="none" stroke="#333333" stroke-width="3.9881" stroke-linecap="round" stroke-miterlimit="10" points="
						149.567,253.5 151.156,251.463 166.341,231.99 167.722,230.22 					"/>
					
						<line fill="none" stroke="#333333" stroke-width="3.9881" stroke-linecap="round" stroke-miterlimit="10" x1="171.572" y1="225.281" x2="171.4" y2="225.503"/>
				</g>
			</g>
		</g>
		<g>
			
				<path fill="#A1C453" stroke="#333333" stroke-width="5.9821" stroke-linecap="round" stroke-linejoin="round" stroke-miterlimit="10" d="
				M198.846,250.105c-7.707-5.738-8.377-12.955-28.411-10.478c-20.038,2.479-9.343,15.151-22.526,16.78
				c13.184-1.629,6.69,13.585,25.984,11.197C193.19,265.219,192.174,257.004,198.846,250.105z"/>
			<g>
				<line fill="#A1C453" x1="147.908" y1="256.408" x2="187.38" y2="251.525"/>
				<g>
					<polyline fill="none" stroke="#333333" stroke-width="3.9881" stroke-linecap="round" stroke-miterlimit="10" points="
						149.887,256.163 152.451,255.847 176.958,252.814 179.186,252.539 					"/>
					
						<line fill="none" stroke="#333333" stroke-width="3.9881" stroke-linecap="round" stroke-miterlimit="10" x1="185.401" y1="251.771" x2="185.123" y2="251.805"/>
				</g>
			</g>
		</g>
		<g>
			
				<path fill="#A1C453" stroke="#333333" stroke-width="3.9881" stroke-linecap="round" stroke-linejoin="round" stroke-miterlimit="10" d="
				M153.846,104.48c0.543,6.128,4.255,8.915-3.817,19.009c-8.073,10.094-11.396,0.011-16.707,6.655
				c5.312-6.644-5.165-8.206,2.609-17.927C143.708,102.494,147.846,105.804,153.846,104.48z"/>
			<g>
				<line fill="#A1C453" x1="133.321" y1="130.144" x2="149.227" y2="110.255"/>
				<g>
					<polyline fill="none" stroke="#333333" stroke-width="3.9881" stroke-linecap="round" stroke-miterlimit="10" points="
						134.566,128.586 136.181,126.568 142.668,118.457 144.069,116.704 					"/>
					
						<line fill="none" stroke="#333333" stroke-width="3.9881" stroke-linecap="round" stroke-miterlimit="10" x1="147.981" y1="111.813" x2="147.806" y2="112.032"/>
				</g>
			</g>
		</g>
		<path fill="#CC924C" stroke="#333333" stroke-width="10.6342" stroke-linecap="round" stroke-miterlimit="10" d="M130.9,365
			l-1.994-244.04c0-4.164-3.376-7.541-7.544-7.541l0,0c-4.163,0-7.54,3.377-7.54,7.541L111.828,365"/>
		<g>
			
				<path fill="#A1C453" stroke="#333333" stroke-width="3.9881" stroke-linecap="round" stroke-linejoin="round" stroke-miterlimit="10" d="
				M115.544,112.817c0,0,4.459-10.861,5.908-12.767c1.152-1.534,3.741,10.758,3.869,15.339L115.544,112.817z"/>
			
				<path fill="#A1C453" stroke="#333333" stroke-width="3.9881" stroke-linecap="round" stroke-linejoin="round" stroke-miterlimit="10" d="
				M124.817,111.872l-12.065,13.444c0,0-2.674-17.772,1.736-23.862C114.488,101.454,119.93,108.264,124.817,111.872z"/>
			
				<path fill="#A1C453" stroke="#333333" stroke-width="3.9881" stroke-linecap="round" stroke-linejoin="round" stroke-miterlimit="10" d="
				M127.154,133.304c0,0,8.846-20.487,2.138-31.851l-10.896,13.437L127.154,133.304z"/>
		</g>
		<g>
			
				<path fill="#FFFFFF" stroke="#333333" stroke-width="3.9881" stroke-linecap="round" stroke-linejoin="round" stroke-miterlimit="10" d="
				M56.449,183.009c-1.546,0.893-1.577,4.449-1.307,7.109c0.481,4.797,5.248,10.518,10.108,7.712
				c4.884-2.819,2.337-9.822-1.558-12.648C61.524,183.617,58.005,182.109,56.449,183.009z"/>
			
				<path fill="#FFFFFF" stroke="#333333" stroke-width="3.9881" stroke-linecap="round" stroke-linejoin="round" stroke-miterlimit="10" d="
				M56.058,182.745c0.002-1.785-3.063-3.59-5.503-4.687c-4.395-1.982-11.732-0.714-11.732,4.898c0,5.64,7.338,6.936,11.73,4.974
				C52.995,186.836,56.06,184.542,56.058,182.745z"/>
			
				<path fill="#FFFFFF" stroke="#333333" stroke-width="3.9881" stroke-linecap="round" stroke-linejoin="round" stroke-miterlimit="10" d="
				M56.453,182.543c1.546,0.894,4.643-0.858,6.812-2.424c3.914-2.814,6.484-9.803,1.624-12.609
				c-4.884-2.82-9.674,2.888-10.173,7.672C54.443,177.843,54.897,181.645,56.453,182.543z"/>
			
				<path fill="#FFFFFF" stroke="#333333" stroke-width="3.9881" stroke-linecap="round" stroke-linejoin="round" stroke-miterlimit="10" d="
				M56.938,182.89c0,1.785,3.064,3.59,5.505,4.686c4.395,1.98,11.732,0.714,11.732-4.899c0-5.638-7.338-6.936-11.732-4.973
				C60.003,178.799,56.938,181.091,56.938,182.89z"/>
			
				<path fill="#FFFFFF" stroke="#333333" stroke-width="3.9881" stroke-linecap="round" stroke-linejoin="round" stroke-miterlimit="10" d="
				M56.518,183.08c-1.544-0.893-4.641,0.858-6.81,2.424c-3.914,2.814-6.484,9.803-1.624,12.609
				c4.884,2.819,9.674-2.887,10.173-7.673C58.529,187.779,58.075,183.978,56.518,183.08z"/>
			
				<path fill="#FFFFFF" stroke="#333333" stroke-width="3.9881" stroke-linecap="round" stroke-linejoin="round" stroke-miterlimit="10" d="
				M56.605,182.586c1.546-0.891,1.577-4.447,1.307-7.109c-0.481-4.797-5.248-10.518-10.108-7.711
				c-4.884,2.82-2.337,9.822,1.558,12.647C51.53,181.979,55.049,183.486,56.605,182.586z"/>
			
				<circle fill="#F9D53E" stroke="#333333" stroke-width="3.9881" stroke-linecap="round" stroke-linejoin="round" stroke-miterlimit="10" cx="56.938" cy="182.89" r="3.709"/>
		</g>
	</g>
</g>
<g id="calque05">
	<g>
		
			<polygon fill="#CC924C" stroke="#333333" stroke-width="3.1905" stroke-linecap="round" stroke-linejoin="round" stroke-miterlimit="10" points="
			159.201,113.738 128.905,144.489 128.905,133.236 		"/>
		
			<polygon fill="#CC924C" stroke="#333333" stroke-width="3.9881" stroke-linecap="round" stroke-linejoin="round" stroke-miterlimit="10" points="
			58.409,178.252 113.822,234.799 113.822,223.545 		"/>
		
			<polygon fill="#CC924C" stroke="#333333" stroke-width="3.9881" stroke-linecap="round" stroke-linejoin="round" stroke-miterlimit="10" points="
			150.046,253.93 130.514,276.108 130.514,268.846 		"/>
		<g>
			
				<path fill="#A1C453" stroke="#333333" stroke-width="5.9821" stroke-linecap="round" stroke-linejoin="round" stroke-miterlimit="10" d="
				M60.922,267.174c10.134-3.541,13.257-11.01,33.787-1.676c20.528,9.337,4.894,19.271,18.402,25.415
				c-13.509-6.144-11.668,12.247-31.441,3.254C61.897,285.174,65.726,276.757,60.922,267.174z"/>
			<g>
				<line fill="#A1C453" x1="113.111" y1="290.913" x2="72.664" y2="272.519"/>
				<g>
					<polyline fill="none" stroke="#333333" stroke-width="3.9881" stroke-linecap="round" stroke-miterlimit="10" points="
						111.296,290.088 108.944,289.018 82.224,276.866 80.18,275.937 					"/>
					
						<line fill="none" stroke="#333333" stroke-width="3.9881" stroke-linecap="round" stroke-miterlimit="10" x1="74.479" y1="273.344" x2="74.734" y2="273.46"/>
				</g>
			</g>
		</g>
		<g>
			
				<path fill="#A1C453" stroke="#333333" stroke-width="5.9821" stroke-linecap="round" stroke-linejoin="round" stroke-miterlimit="10" d="
				M45.908,114.816c9.997,6.84,18.877,4.684,24.127,29.586c5.25,24.903-14.239,17.341-10.784,33.728
				c-3.455-16.387-18.936-2.414-23.991-26.396C30.205,127.747,40.412,125.594,45.908,114.816z"/>
			<g>
				<line fill="#A1C453" x1="59.251" y1="178.13" x2="48.906" y2="129.067"/>
				<g>
					<polyline fill="none" stroke="#333333" stroke-width="3.9881" stroke-linecap="round" stroke-miterlimit="10" points="
						58.84,176.179 58.307,173.651 51.073,139.343 50.609,137.146 					"/>
					
						<line fill="none" stroke="#333333" stroke-width="3.9881" stroke-linecap="round" stroke-miterlimit="10" x1="49.317" y1="131.018" x2="49.375" y2="131.292"/>
				</g>
			</g>
		</g>
		<g>
			
				<path fill="#A1C453" stroke="#333333" stroke-width="5.9821" stroke-linecap="round" stroke-linejoin="round" stroke-miterlimit="10" d="
				M4.797,144.548c11.905-2.233,16.66-10.038,37.979,3.859c21.319,13.898,2.192,22.332,16.226,31.474
				c-14.033-9.143-15.1,11.685-35.628-1.699C2.834,164.795,8.531,156.054,4.797,144.548z"/>
			<g>
				<line fill="#A1C453" x1="59.002" y1="179.881" x2="16.994" y2="152.502"/>
				<g>
					<polyline fill="none" stroke="#333333" stroke-width="3.9881" stroke-linecap="round" stroke-miterlimit="10" points="
						57.331,178.792 55.167,177.382 25.792,158.236 23.911,157.011 					"/>
					
						<line fill="none" stroke="#333333" stroke-width="3.9881" stroke-linecap="round" stroke-miterlimit="10" x1="18.665" y1="153.591" x2="18.899" y2="153.744"/>
				</g>
			</g>
		</g>
		<g>
			
				<path fill="#A1C453" stroke="#333333" stroke-width="5.9821" stroke-linecap="round" stroke-linejoin="round" stroke-miterlimit="10" d="
				M179.901,214.598c-9.507,1.395-15.088-3.236-27.502,12.682c-12.412,15.92,4.111,17.319-4.06,27.793
				c8.171-10.474,14.336,4.875,26.292-10.455C186.589,229.283,180.062,224.193,179.901,214.598z"/>
			<g>
				<line fill="#A1C453" x1="148.34" y1="255.072" x2="172.798" y2="223.709"/>
				<g>
					<polyline fill="none" stroke="#333333" stroke-width="3.9881" stroke-linecap="round" stroke-miterlimit="10" points="
						149.566,253.5 151.155,251.463 166.34,231.99 167.721,230.22 					"/>
					
						<line fill="none" stroke="#333333" stroke-width="3.9881" stroke-linecap="round" stroke-miterlimit="10" x1="171.571" y1="225.281" x2="171.399" y2="225.503"/>
				</g>
			</g>
		</g>
		<g>
			
				<path fill="#A1C453" stroke="#333333" stroke-width="5.9821" stroke-linecap="round" stroke-linejoin="round" stroke-miterlimit="10" d="
				M198.845,250.105c-7.707-5.738-8.377-12.955-28.411-10.478c-20.037,2.479-9.343,15.151-22.526,16.78
				c13.184-1.629,6.691,13.585,25.985,11.197C193.189,265.219,192.174,257.004,198.845,250.105z"/>
			<g>
				<line fill="#A1C453" x1="147.907" y1="256.408" x2="187.379" y2="251.525"/>
				<g>
					<polyline fill="none" stroke="#333333" stroke-width="3.9881" stroke-linecap="round" stroke-miterlimit="10" points="
						149.886,256.163 152.45,255.847 176.957,252.814 179.185,252.539 					"/>
					
						<line fill="none" stroke="#333333" stroke-width="3.9881" stroke-linecap="round" stroke-miterlimit="10" x1="185.4" y1="251.771" x2="185.122" y2="251.805"/>
				</g>
			</g>
		</g>
		<g>
			
				<path fill="#A1C453" stroke="#333333" stroke-width="5.9821" stroke-linecap="round" stroke-linejoin="round" stroke-miterlimit="10" d="
				M199.614,63.204c1.069,12.067,8.379,17.555-7.517,37.43c-15.896,19.876-22.439,0.021-32.896,13.104
				c10.457-13.082-10.168-16.159,5.138-35.298C179.652,59.294,187.8,65.812,199.614,63.204z"/>
			<g>
				<line fill="#A1C453" x1="159.201" y1="113.738" x2="190.519" y2="74.578"/>
				<g>
					<polyline fill="none" stroke="#333333" stroke-width="3.9881" stroke-linecap="round" stroke-miterlimit="10" points="
						160.446,112.181 162.061,110.163 183.96,82.779 185.361,81.026 					"/>
					
						<line fill="none" stroke="#333333" stroke-width="3.9881" stroke-linecap="round" stroke-miterlimit="10" x1="189.273" y1="76.135" x2="189.098" y2="76.354"/>
				</g>
			</g>
		</g>
		<g>
			
				<path fill="#A1C453" stroke="#333333" stroke-width="3.9881" stroke-linecap="round" stroke-linejoin="round" stroke-miterlimit="10" d="
				M187.124,134.448c-6.337,1.138-8.896,5.265-20.162-2.205c-11.271-7.472-1.075-11.874-8.49-16.789
				c7.415,4.915,8.067-6.147,18.92,1.048C188.25,123.7,185.185,128.32,187.124,134.448z"/>
			<g>
				<line fill="#A1C453" x1="158.472" y1="115.454" x2="180.675" y2="130.174"/>
				<g>
					<polyline fill="none" stroke="#333333" stroke-width="3.9881" stroke-linecap="round" stroke-miterlimit="10" points="
						160.134,116.556 162.287,117.983 171.922,124.371 173.793,125.612 					"/>
					
						<line fill="none" stroke="#333333" stroke-width="3.9881" stroke-linecap="round" stroke-miterlimit="10" x1="179.013" y1="129.072" x2="178.779" y2="128.917"/>
				</g>
			</g>
		</g>
		<g>
			<g>
				<path fill="#D3F46C" d="M75.102,191.173c1.4,10.218-8.549,23.272-15.962,21.039c-7.207,4.734-19.635-5.747-21.032-15.965
					c-1.402-10.215,2.22-21,16.896-18.808C67.893,171.59,73.699,180.958,75.102,191.173z"/>
				<g>
					<path fill="none" stroke="#333333" stroke-width="3.9881" stroke-linecap="round" stroke-miterlimit="10" d="M75.233,193.161
						c-0.018,0.86-0.059,1.724-0.201,2.573c-0.339,2.275-1.081,4.48-2.095,6.542c-1.007,2.068-2.312,3.99-3.856,5.691
						c-1.553,1.684-3.394,3.17-5.552,3.989c-1.074,0.402-2.241,0.589-3.384,0.454c-0.288-0.018-0.565-0.098-0.846-0.161
						c-0.146-0.076-0.267,0.021-0.391,0.096l-0.373,0.216c-0.253,0.136-0.524,0.235-0.785,0.355
						c-0.273,0.086-0.547,0.178-0.824,0.251c-2.261,0.532-4.63-0.016-6.697-0.975c-2.089-0.967-3.959-2.362-5.604-3.964
						c-3.259-3.209-5.8-7.33-6.505-11.9c-0.309-2.276-0.383-4.593-0.113-6.876c0.271-2.275,0.896-4.539,2.073-6.518
						c1.162-1.98,2.935-3.6,5.035-4.532c2.099-0.923,4.427-1.32,6.722-1.222c0.576-0.034,1.146,0.065,1.718,0.113l0.858,0.085
						c0.282,0.006,0.581,0.127,0.84-0.04c1.072-0.415,2.123-0.892,3.25-1.138c2.205-0.591,4.581-0.792,6.805-0.152
						c2.226,0.617,4.15,2.068,5.557,3.876c0.337,0.443,0.731,0.938,0.964,1.379l0.38,0.633c0.272,0.412,0.445,0.878,0.668,1.316"/>
					
						<line fill="none" stroke="#333333" stroke-width="3.9881" stroke-linecap="round" stroke-miterlimit="10" x1="74.771" y1="189.207" x2="74.71" y2="188.934"/>
				</g>
			</g>
			<path opacity="0.5" fill="#FFFFFF" d="M47.978,190.257c-1.08,2.098-3.351,3.077-5.076,2.187
				c-1.724-0.892-2.247-3.314-1.169-5.412c1.079-2.099,3.354-3.076,5.075-2.186C48.535,185.735,49.057,188.158,47.978,190.257z"/>
		</g>
		<path fill="#CC924C" stroke="#333333" stroke-width="10.6342" stroke-linecap="round" stroke-miterlimit="10" d="M130.899,365
			l-1.994-276.284c0-4.165-3.376-7.541-7.544-7.541l0,0c-4.163,0-7.539,3.376-7.539,7.541L111.828,365"/>
		<g>
			
				<path fill="#A1C453" stroke="#333333" stroke-width="3.9881" stroke-linecap="round" stroke-linejoin="round" stroke-miterlimit="10" d="
				M115.543,80.573c0,0,4.46-10.861,5.908-12.767c1.153-1.535,3.741,10.758,3.869,15.339L115.543,80.573z"/>
			
				<path fill="#A1C453" stroke="#333333" stroke-width="3.9881" stroke-linecap="round" stroke-linejoin="round" stroke-miterlimit="10" d="
				M124.816,79.627l-12.065,13.444c0,0-2.674-17.772,1.737-23.862C114.488,69.209,119.929,76.02,124.816,79.627z"/>
			
				<path fill="#A1C453" stroke="#333333" stroke-width="3.9881" stroke-linecap="round" stroke-linejoin="round" stroke-miterlimit="10" d="
				M127.153,101.06c0,0,8.847-20.487,2.138-31.851l-10.895,13.437L127.153,101.06z"/>
		</g>
		<g>
			
				<path fill="#FFFFFF" stroke="#333333" stroke-width="3.9881" stroke-linecap="round" stroke-linejoin="round" stroke-miterlimit="10" d="
				M160.518,119.933c-1.546,0.892-1.577,4.449-1.307,7.11c0.481,4.796,5.248,10.517,10.109,7.711
				c4.883-2.819,2.336-9.822-1.559-12.648C165.593,120.542,162.074,119.033,160.518,119.933z"/>
			
				<path fill="#FFFFFF" stroke="#333333" stroke-width="3.9881" stroke-linecap="round" stroke-linejoin="round" stroke-miterlimit="10" d="
				M160.127,119.669c0.002-1.785-3.063-3.59-5.504-4.686c-4.395-1.982-11.732-0.714-11.732,4.898c0,5.639,7.338,6.935,11.73,4.973
				C157.063,123.76,160.129,121.466,160.127,119.669z"/>
			
				<path fill="#FFFFFF" stroke="#333333" stroke-width="3.9881" stroke-linecap="round" stroke-linejoin="round" stroke-miterlimit="10" d="
				M160.521,119.466c1.547,0.894,4.643-0.858,6.813-2.423c3.914-2.815,6.484-9.804,1.624-12.61
				c-4.884-2.819-9.675,2.888-10.173,7.673C158.513,114.768,158.966,118.569,160.521,119.466z"/>
			
				<path fill="#FFFFFF" stroke="#333333" stroke-width="3.9881" stroke-linecap="round" stroke-linejoin="round" stroke-miterlimit="10" d="
				M161.007,119.813c0,1.786,3.065,3.59,5.505,4.686c4.396,1.98,11.732,0.714,11.732-4.899c0-5.637-7.337-6.935-11.732-4.973
				C164.072,115.723,161.007,118.015,161.007,119.813z"/>
			
				<path fill="#FFFFFF" stroke="#333333" stroke-width="3.9881" stroke-linecap="round" stroke-linejoin="round" stroke-miterlimit="10" d="
				M160.586,120.004c-1.544-0.893-4.641,0.859-6.81,2.423c-3.914,2.815-6.484,9.804-1.624,12.61
				c4.884,2.82,9.674-2.887,10.173-7.672C162.598,124.703,162.145,120.901,160.586,120.004z"/>
			
				<path fill="#FFFFFF" stroke="#333333" stroke-width="3.9881" stroke-linecap="round" stroke-linejoin="round" stroke-miterlimit="10" d="
				M160.674,119.51c1.546-0.891,1.577-4.448,1.307-7.109c-0.48-4.797-5.248-10.518-10.108-7.711
				c-4.884,2.82-2.337,9.822,1.558,12.646C155.6,118.903,159.118,120.41,160.674,119.51z"/>
			
				<circle fill="#F9D53E" stroke="#333333" stroke-width="3.9881" stroke-linecap="round" stroke-linejoin="round" stroke-miterlimit="10" cx="161.007" cy="119.813" r="3.71"/>
		</g>
	</g>
</g>
<g id="calque06">
	<g>
		
			<polygon fill="#CC924C" stroke="#333333" stroke-width="3.1905" stroke-linecap="round" stroke-linejoin="round" stroke-miterlimit="10" points="
			159.202,113.738 128.905,144.489 128.905,133.236 		"/>
		
			<polygon fill="#CC924C" stroke="#333333" stroke-width="3.9881" stroke-linecap="round" stroke-linejoin="round" stroke-miterlimit="10" points="
			58.409,178.252 113.822,234.799 113.822,223.545 		"/>
		
			<polygon fill="#CC924C" stroke="#333333" stroke-width="3.9881" stroke-linecap="round" stroke-linejoin="round" stroke-miterlimit="10" points="
			150.046,253.93 130.515,276.108 130.515,268.846 		"/>
		<g>
			
				<path fill="#A1C453" stroke="#333333" stroke-width="5.9821" stroke-linecap="round" stroke-linejoin="round" stroke-miterlimit="10" d="
				M60.922,267.174c10.134-3.541,13.257-11.01,33.787-1.676c20.528,9.337,4.894,19.271,18.402,25.415
				c-13.509-6.144-11.669,12.247-31.441,3.254S65.726,276.757,60.922,267.174z"/>
			<g>
				<line fill="#A1C453" x1="113.111" y1="290.913" x2="72.664" y2="272.519"/>
				<g>
					<polyline fill="none" stroke="#333333" stroke-width="3.9881" stroke-linecap="round" stroke-miterlimit="10" points="
						111.296,290.088 108.944,289.018 82.224,276.866 80.18,275.937 					"/>
					
						<line fill="none" stroke="#333333" stroke-width="3.9881" stroke-linecap="round" stroke-miterlimit="10" x1="74.479" y1="273.344" x2="74.734" y2="273.46"/>
				</g>
			</g>
		</g>
		<g>
			
				<path fill="#A1C453" stroke="#333333" stroke-width="3.9881" stroke-linecap="round" stroke-linejoin="round" stroke-miterlimit="10" d="
				M90.005,65.081c-0.654,6.426-4.59,9.301,3.746,20.01s11.964,0.169,17.448,7.218c-5.484-7.048,5.536-8.545-2.493-18.858
				C100.678,63.134,96.286,66.552,90.005,65.081z"/>
			<g>
				<line fill="#A1C453" x1="111.199" y1="92.308" x2="94.775" y2="71.207"/>
				<g>
					<polyline fill="none" stroke="#333333" stroke-width="3.9881" stroke-linecap="round" stroke-miterlimit="10" points="
						109.975,90.734 108.388,88.696 101.226,79.494 99.847,77.723 					"/>
					
						<line fill="none" stroke="#333333" stroke-width="3.9881" stroke-linecap="round" stroke-miterlimit="10" x1="96" y1="72.781" x2="96.173" y2="73.002"/>
				</g>
			</g>
		</g>
		<g>
			
				<path fill="#A1C453" stroke="#333333" stroke-width="5.9821" stroke-linecap="round" stroke-linejoin="round" stroke-miterlimit="10" d="
				M45.908,114.816c9.997,6.84,18.877,4.684,24.127,29.586c5.25,24.903-14.239,17.341-10.784,33.728
				c-3.455-16.387-18.936-2.414-23.991-26.396C30.205,127.747,40.413,125.594,45.908,114.816z"/>
			<g>
				<line fill="#A1C453" x1="59.251" y1="178.13" x2="48.907" y2="129.067"/>
				<g>
					<polyline fill="none" stroke="#333333" stroke-width="3.9881" stroke-linecap="round" stroke-miterlimit="10" points="
						58.84,176.179 58.307,173.65 51.073,139.343 50.61,137.146 					"/>
					
						<line fill="none" stroke="#333333" stroke-width="3.9881" stroke-linecap="round" stroke-miterlimit="10" x1="49.318" y1="131.018" x2="49.376" y2="131.292"/>
				</g>
			</g>
		</g>
		<g>
			
				<path fill="#A1C453" stroke="#333333" stroke-width="5.9821" stroke-linecap="round" stroke-linejoin="round" stroke-miterlimit="10" d="
				M4.797,144.548c11.905-2.233,16.661-10.038,37.979,3.859c21.319,13.898,2.193,22.332,16.225,31.474
				c-14.031-9.143-15.099,11.685-35.627-1.699C2.834,164.795,8.531,156.054,4.797,144.548z"/>
			<g>
				<line fill="#A1C453" x1="59.001" y1="179.881" x2="16.994" y2="152.502"/>
				<g>
					<polyline fill="none" stroke="#333333" stroke-width="3.9881" stroke-linecap="round" stroke-miterlimit="10" points="
						57.33,178.792 55.166,177.382 25.792,158.237 23.911,157.011 					"/>
					
						<line fill="none" stroke="#333333" stroke-width="3.9881" stroke-linecap="round" stroke-miterlimit="10" x1="18.665" y1="153.591" x2="18.899" y2="153.744"/>
				</g>
			</g>
		</g>
		<g>
			
				<path fill="#A1C453" stroke="#333333" stroke-width="5.9821" stroke-linecap="round" stroke-linejoin="round" stroke-miterlimit="10" d="
				M179.901,214.598c-9.507,1.395-15.088-3.236-27.502,12.682c-12.412,15.92,4.111,17.319-4.06,27.793
				c8.171-10.474,14.336,4.875,26.292-10.455C186.589,229.283,180.062,224.193,179.901,214.598z"/>
			<g>
				<line fill="#A1C453" x1="148.34" y1="255.072" x2="172.798" y2="223.709"/>
				<g>
					<polyline fill="none" stroke="#333333" stroke-width="3.9881" stroke-linecap="round" stroke-miterlimit="10" points="
						149.566,253.5 151.155,251.463 166.34,231.99 167.721,230.22 					"/>
					
						<line fill="none" stroke="#333333" stroke-width="3.9881" stroke-linecap="round" stroke-miterlimit="10" x1="171.571" y1="225.281" x2="171.399" y2="225.503"/>
				</g>
			</g>
		</g>
		<g>
			
				<path fill="#A1C453" stroke="#333333" stroke-width="5.9821" stroke-linecap="round" stroke-linejoin="round" stroke-miterlimit="10" d="
				M198.845,250.105c-7.707-5.738-8.377-12.955-28.411-10.478c-20.038,2.479-9.343,15.151-22.526,16.78
				c13.184-1.629,6.691,13.585,25.984,11.197C193.189,265.219,192.173,257.004,198.845,250.105z"/>
			<g>
				<line fill="#A1C453" x1="147.907" y1="256.408" x2="187.379" y2="251.525"/>
				<g>
					<polyline fill="none" stroke="#333333" stroke-width="3.9881" stroke-linecap="round" stroke-miterlimit="10" points="
						149.886,256.163 152.45,255.847 176.957,252.814 179.185,252.539 					"/>
					
						<line fill="none" stroke="#333333" stroke-width="3.9881" stroke-linecap="round" stroke-miterlimit="10" x1="185.4" y1="251.771" x2="185.122" y2="251.805"/>
				</g>
			</g>
		</g>
		<g>
			
				<path fill="#A1C453" stroke="#333333" stroke-width="3.9881" stroke-linecap="round" stroke-linejoin="round" stroke-miterlimit="10" d="
				M196.765,110.226c-4.226,5.051-3.526,9.97-17.278,11.5c-13.751,1.53-8.634-8.619-17.683-7.61
				c9.049-1.009,2.303-10.12,15.545-11.594C190.596,101.049,191.224,106.686,196.765,110.226z"/>
			<g>
				<line fill="#A1C453" x1="161.804" y1="114.116" x2="188.898" y2="111.1"/>
				<g>
					<polyline fill="none" stroke="#333333" stroke-width="3.9881" stroke-linecap="round" stroke-miterlimit="10" points="
						163.785,113.896 166.354,113.61 178.461,112.262 180.692,112.014 					"/>
					
						<line fill="none" stroke="#333333" stroke-width="3.9881" stroke-linecap="round" stroke-miterlimit="10" x1="186.917" y1="111.321" x2="186.638" y2="111.352"/>
				</g>
			</g>
		</g>
		<g>
			
				<path fill="#A1C453" stroke="#333333" stroke-width="5.9821" stroke-linecap="round" stroke-linejoin="round" stroke-miterlimit="10" d="
				M199.614,63.204c1.068,12.067,8.379,17.555-7.517,37.43c-15.896,19.876-22.438,0.021-32.896,13.104
				c10.457-13.082-10.169-16.159,5.137-35.298C179.652,59.294,187.8,65.812,199.614,63.204z"/>
			<g>
				<line fill="#A1C453" x1="159.202" y1="113.738" x2="190.519" y2="74.578"/>
				<g>
					<polyline fill="none" stroke="#333333" stroke-width="3.9881" stroke-linecap="round" stroke-miterlimit="10" points="
						160.447,112.181 162.062,110.163 183.96,82.779 185.362,81.026 					"/>
					
						<line fill="none" stroke="#333333" stroke-width="3.9881" stroke-linecap="round" stroke-miterlimit="10" x1="189.273" y1="76.135" x2="189.098" y2="76.354"/>
				</g>
			</g>
		</g>
		<g>
			
				<path fill="#A1C453" stroke="#333333" stroke-width="5.9821" stroke-linecap="round" stroke-linejoin="round" stroke-miterlimit="10" d="
				M201.521,143.636c-9.368,1.683-13.152,7.784-29.813-3.262c-16.667-11.048-1.589-17.557-12.556-24.824
				c10.967,7.268,11.931-9.089,27.979,1.551C203.184,127.743,198.654,134.575,201.521,143.636z"/>
			<g>
				<line fill="#A1C453" x1="159.151" y1="115.55" x2="191.984" y2="137.314"/>
				<g>
					<polyline fill="none" stroke="#333333" stroke-width="3.9881" stroke-linecap="round" stroke-miterlimit="10" points="
						160.813,116.652 162.967,118.08 183.231,131.512 185.103,132.752 					"/>
					
						<line fill="none" stroke="#333333" stroke-width="3.9881" stroke-linecap="round" stroke-miterlimit="10" x1="190.322" y1="136.213" x2="190.089" y2="136.058"/>
				</g>
			</g>
		</g>
		<g>
			<g>
				<path fill="#D3F46C" d="M81.717,198.712c1.9,13.863-11.591,31.563-21.646,28.534c-9.775,6.418-26.627-7.791-28.527-21.651
					c-1.901-13.855,3.014-28.48,22.919-25.509C71.941,172.153,79.816,184.858,81.717,198.712z"/>
				<g>
					<path fill="none" stroke="#333333" stroke-width="5.9821" stroke-linecap="round" stroke-miterlimit="10" d="M81.888,201.695
						c0.003,1.294-0.163,2.581-0.365,3.855c-0.546,3.024-1.569,5.957-2.972,8.689c-1.396,2.734-3.147,5.294-5.259,7.526
						c-2.104,2.216-4.58,4.188-7.492,5.211c-1.448,0.502-3.008,0.729-4.532,0.52c-0.384-0.029-0.751-0.159-1.126-0.234
						c-0.349,0.086-0.67,0.355-1.005,0.523c-0.354,0.15-0.7,0.316-1.06,0.452c-0.368,0.105-0.729,0.246-1.104,0.321
						c-3.024,0.687-6.183-0.048-8.949-1.322c-2.795-1.283-5.294-3.144-7.508-5.265c-2.212-2.13-4.128-4.568-5.674-7.222
						c-1.526-2.658-2.708-5.55-3.202-8.588c-0.475-3.033-0.614-6.129-0.315-9.186c0.301-3.05,1.049-6.091,2.505-8.803
						c1.437-2.712,3.668-5.015,6.403-6.425c2.727-1.448,5.838-1.984,8.896-2.046c1.534,0.005,3.073,0.068,4.594,0.29
						c0.786,0.273,1.459-0.271,2.173-0.517c0.718-0.271,1.434-0.555,2.169-0.773c2.917-0.924,6.05-1.363,9.085-0.817
						c3.037,0.527,5.817,2.174,7.885,4.439c0.262,0.281,0.521,0.564,0.755,0.869c0.231,0.279,0.511,0.636,0.672,0.876
						c0.214,0.301,0.435,0.598,0.625,0.914c0.404,0.618,0.768,1.262,1.111,1.915"/>
					
						<line fill="none" stroke="#333333" stroke-width="5.9821" stroke-linecap="round" stroke-miterlimit="10" x1="81.212" y1="195.765" x2="81.125" y2="195.353"/>
				</g>
			</g>
			<path opacity="0.5" fill="#FFFFFF" d="M44.933,197.47c-1.465,2.845-4.545,4.173-6.886,2.966c-2.337-1.21-3.046-4.495-1.585-7.341
				c1.464-2.845,4.549-4.172,6.885-2.965C45.688,191.338,46.396,194.624,44.933,197.47z"/>
		</g>
		<path fill="#CC924C" stroke="#333333" stroke-width="10.6342" stroke-linecap="round" stroke-miterlimit="10" d="M130.899,365
			l-1.994-304.47c0-4.164-3.376-7.541-7.543-7.541l0,0c-4.164,0-7.54,3.377-7.54,7.541L111.828,365"/>
		<g>
			
				<path fill="#A1C453" stroke="#333333" stroke-width="3.9881" stroke-linecap="round" stroke-linejoin="round" stroke-miterlimit="10" d="
				M115.543,52.386c0,0,4.46-10.861,5.908-12.767c1.153-1.534,3.741,10.758,3.869,15.339L115.543,52.386z"/>
			
				<path fill="#A1C453" stroke="#333333" stroke-width="3.9881" stroke-linecap="round" stroke-linejoin="round" stroke-miterlimit="10" d="
				M124.816,51.441l-12.065,13.444c0,0-2.674-17.772,1.736-23.862C114.487,41.023,119.929,47.833,124.816,51.441z"/>
			
				<path fill="#A1C453" stroke="#333333" stroke-width="3.9881" stroke-linecap="round" stroke-linejoin="round" stroke-miterlimit="10" d="
				M127.153,72.874c0,0,8.847-20.487,2.138-31.851l-10.895,13.437L127.153,72.874z"/>
		</g>
		<g>
			<g>
				<path fill="#D3F46C" d="M180.062,137.753c-1.796,10.156-15.262,19.535-21.635,15.139c-8.312,2.302-16.934-11.477-15.139-21.63
					c1.792-10.153,8.539-19.312,21.841-12.733C179.19,116.905,181.851,127.6,180.062,137.753z"/>
				<g>
					<path fill="none" stroke="#333333" stroke-width="3.9881" stroke-linecap="round" stroke-miterlimit="10" d="M179.578,139.687
						c-0.28,0.813-0.583,1.623-0.979,2.388c-1.019,2.063-2.4,3.934-3.996,5.586c-1.591,1.659-3.422,3.089-5.413,4.236
						c-1.992,1.126-4.199,1.978-6.504,2.097c-1.146,0.054-2.314-0.125-3.361-0.604c-0.269-0.104-0.509-0.265-0.756-0.412
						c-0.115-0.117-0.26-0.063-0.4-0.029l-0.422,0.091c-0.282,0.052-0.57,0.064-0.855,0.098c-0.287-0.001-0.575,0.002-0.861-0.013
						c-2.315-0.184-4.403-1.431-6.079-2.975c-1.693-1.56-3.046-3.46-4.122-5.487c-2.12-4.05-3.279-8.75-2.552-13.316
						c0.402-2.262,1.041-4.489,1.995-6.581c0.955-2.083,2.243-4.047,3.969-5.571c1.712-1.53,3.896-2.53,6.181-2.773
						c2.28-0.237,4.617,0.098,6.772,0.894c0.559,0.144,1.071,0.413,1.602,0.633l0.79,0.344c0.268,0.092,0.515,0.299,0.813,0.219
						c1.147-0.066,2.294-0.199,3.442-0.088c2.28,0.111,4.604,0.647,6.524,1.937c1.93,1.269,3.319,3.239,4.104,5.391
						c0.185,0.525,0.409,1.117,0.496,1.607l0.167,0.719c0.134,0.476,0.156,0.972,0.234,1.458"/>
					
						<line fill="none" stroke="#333333" stroke-width="3.9881" stroke-linecap="round" stroke-miterlimit="10" x1="180.349" y1="135.78" x2="180.374" y2="135.501"/>
				</g>
			</g>
			<path opacity="0.5" fill="#FFFFFF" d="M154.517,128.581c-1.669,1.665-4.13,1.904-5.501,0.528
				c-1.367-1.375-1.126-3.843,0.543-5.51c1.671-1.668,4.134-1.901,5.501-0.529C156.433,124.447,156.188,126.913,154.517,128.581z"/>
		</g>
	</g>
</g>
<g id="calque07">
	<g>
		
			<polygon fill="#CC924C" stroke="#333333" stroke-width="3.9881" stroke-linecap="round" stroke-linejoin="round" stroke-miterlimit="10" points="
			88.965,70.867 114.387,97.868 114.387,86.615 		"/>
		
			<polygon fill="#CC924C" stroke="#333333" stroke-width="3.1905" stroke-linecap="round" stroke-linejoin="round" stroke-miterlimit="10" points="
			159.201,113.738 128.906,144.489 128.906,133.236 		"/>
		
			<polygon fill="#CC924C" stroke="#333333" stroke-width="3.9881" stroke-linecap="round" stroke-linejoin="round" stroke-miterlimit="10" points="
			58.41,178.252 113.822,234.799 113.822,223.545 		"/>
		
			<polygon fill="#CC924C" stroke="#333333" stroke-width="3.9881" stroke-linecap="round" stroke-linejoin="round" stroke-miterlimit="10" points="
			150.045,253.93 130.514,276.108 130.514,268.846 		"/>
		<g>
			
				<path fill="#A1C453" stroke="#333333" stroke-width="5.9821" stroke-linecap="round" stroke-linejoin="round" stroke-miterlimit="10" d="
				M60.922,267.174c10.133-3.541,13.258-11.01,33.787-1.676c20.529,9.337,4.895,19.271,18.402,25.415
				c-13.508-6.144-11.668,12.247-31.441,3.254S65.727,276.757,60.922,267.174z"/>
			<g>
				<line fill="#A1C453" x1="113.111" y1="290.913" x2="72.664" y2="272.519"/>
				<g>
					<polyline fill="none" stroke="#333333" stroke-width="3.9881" stroke-linecap="round" stroke-miterlimit="10" points="
						111.296,290.088 108.944,289.018 82.224,276.866 80.18,275.937 					"/>
					
						<line fill="none" stroke="#333333" stroke-width="3.9881" stroke-linecap="round" stroke-miterlimit="10" x1="74.479" y1="273.344" x2="74.734" y2="273.46"/>
				</g>
			</g>
		</g>
		<g>
			
				<path fill="#A1C453" stroke="#333333" stroke-width="5.9821" stroke-linecap="round" stroke-linejoin="round" stroke-miterlimit="10" d="
				M53.746,25.622c-1.09,10.679-7.629,15.456,6.223,33.252c13.854,17.797,19.883,0.282,28.996,11.994
				c-9.113-11.712,9.199-14.198-4.145-31.337C71.48,22.388,64.184,28.068,53.746,25.622z"/>
			<g>
				<line fill="#A1C453" x1="88.965" y1="70.867" x2="61.674" y2="35.803"/>
				<g>
					<polyline fill="none" stroke="#333333" stroke-width="3.9881" stroke-linecap="round" stroke-miterlimit="10" points="
						87.74,69.293 86.153,67.255 68.124,44.09 66.745,42.319 					"/>
					
						<line fill="none" stroke="#333333" stroke-width="3.9881" stroke-linecap="round" stroke-miterlimit="10" x1="62.898" y1="37.377" x2="63.07" y2="37.598"/>
				</g>
			</g>
		</g>
		<g>
			
				<path fill="#A1C453" stroke="#333333" stroke-width="5.9821" stroke-linecap="round" stroke-linejoin="round" stroke-miterlimit="10" d="
				M45.908,114.816c9.998,6.84,18.877,4.684,24.127,29.586c5.25,24.903-14.238,17.341-10.783,33.728
				c-3.455-16.387-18.936-2.414-23.992-26.396C30.205,127.747,40.412,125.594,45.908,114.816z"/>
			<g>
				<line fill="#A1C453" x1="59.252" y1="178.13" x2="48.906" y2="129.067"/>
				<g>
					<polyline fill="none" stroke="#333333" stroke-width="3.9881" stroke-linecap="round" stroke-miterlimit="10" points="
						58.841,176.179 58.308,173.651 51.073,139.342 50.609,137.146 					"/>
					
						<line fill="none" stroke="#333333" stroke-width="3.9881" stroke-linecap="round" stroke-miterlimit="10" x1="49.317" y1="131.018" x2="49.376" y2="131.292"/>
				</g>
			</g>
		</g>
		<g>
			
				<path fill="#A1C453" stroke="#333333" stroke-width="5.9821" stroke-linecap="round" stroke-linejoin="round" stroke-miterlimit="10" d="
				M4.797,144.548c11.906-2.233,16.66-10.038,37.98,3.859c21.318,13.898,2.191,22.332,16.225,31.474
				c-14.033-9.143-15.1,11.685-35.629-1.699C2.834,164.795,8.531,156.054,4.797,144.548z"/>
			<g>
				<line fill="#A1C453" x1="59.002" y1="179.881" x2="16.994" y2="152.502"/>
				<g>
					<polyline fill="none" stroke="#333333" stroke-width="3.9881" stroke-linecap="round" stroke-miterlimit="10" points="
						57.331,178.792 55.167,177.382 25.792,158.236 23.911,157.011 					"/>
					
						<line fill="none" stroke="#333333" stroke-width="3.9881" stroke-linecap="round" stroke-miterlimit="10" x1="18.665" y1="153.591" x2="18.899" y2="153.744"/>
				</g>
			</g>
		</g>
		<g>
			
				<path fill="#A1C453" stroke="#333333" stroke-width="5.9821" stroke-linecap="round" stroke-linejoin="round" stroke-miterlimit="10" d="
				M179.902,214.598c-9.508,1.395-15.088-3.236-27.502,12.682c-12.412,15.92,4.111,17.319-4.061,27.793
				c8.172-10.474,14.336,4.875,26.293-10.455C186.588,229.283,180.061,224.193,179.902,214.598z"/>
			<g>
				<line fill="#A1C453" x1="148.34" y1="255.072" x2="172.799" y2="223.709"/>
				<g>
					<polyline fill="none" stroke="#333333" stroke-width="3.9881" stroke-linecap="round" stroke-miterlimit="10" points="
						149.566,253.5 151.155,251.463 166.341,231.99 167.722,230.22 					"/>
					
						<line fill="none" stroke="#333333" stroke-width="3.9881" stroke-linecap="round" stroke-miterlimit="10" x1="171.572" y1="225.281" x2="171.4" y2="225.503"/>
				</g>
			</g>
		</g>
		<g>
			
				<path fill="#A1C453" stroke="#333333" stroke-width="5.9821" stroke-linecap="round" stroke-linejoin="round" stroke-miterlimit="10" d="
				M198.846,250.105c-7.709-5.738-8.377-12.955-28.412-10.478c-20.037,2.479-9.342,15.151-22.525,16.78
				c13.184-1.629,6.689,13.585,25.984,11.197C193.189,265.219,192.174,257.004,198.846,250.105z"/>
			<g>
				<line fill="#A1C453" x1="147.908" y1="256.408" x2="187.379" y2="251.525"/>
				<g>
					<polyline fill="none" stroke="#333333" stroke-width="3.9881" stroke-linecap="round" stroke-miterlimit="10" points="
						149.887,256.163 152.451,255.846 176.957,252.814 179.185,252.539 					"/>
					
						<line fill="none" stroke="#333333" stroke-width="3.9881" stroke-linecap="round" stroke-miterlimit="10" x1="185.4" y1="251.771" x2="185.122" y2="251.805"/>
				</g>
			</g>
		</g>
		<g>
			
				<path fill="#A1C453" stroke="#333333" stroke-width="5.9821" stroke-linecap="round" stroke-linejoin="round" stroke-miterlimit="10" d="
				M225.227,107c-7.773,9.29-6.488,18.339-31.779,21.153c-25.295,2.814-15.883-15.852-32.527-13.996
				c16.645-1.856,4.236-18.616,28.594-21.326C213.879,90.12,215.031,100.489,225.227,107z"/>
			<g>
				<line fill="#A1C453" x1="160.92" y1="114.156" x2="210.754" y2="108.608"/>
				<g>
					<polyline fill="none" stroke="#333333" stroke-width="3.9881" stroke-linecap="round" stroke-miterlimit="10" points="
						162.901,113.936 165.47,113.65 200.316,109.77 202.548,109.521 					"/>
					
						<line fill="none" stroke="#333333" stroke-width="3.9881" stroke-linecap="round" stroke-miterlimit="10" x1="208.772" y1="108.829" x2="208.493" y2="108.859"/>
				</g>
			</g>
		</g>
		<g>
			
				<path fill="#A1C453" stroke="#333333" stroke-width="5.9821" stroke-linecap="round" stroke-linejoin="round" stroke-miterlimit="10" d="
				M199.615,63.204c1.068,12.067,8.379,17.555-7.518,37.43c-15.896,19.876-22.439,0.021-32.896,13.104
				c10.457-13.082-10.168-16.159,5.139-35.298C179.652,59.294,187.801,65.812,199.615,63.204z"/>
			<g>
				<line fill="#A1C453" x1="159.201" y1="113.738" x2="190.518" y2="74.578"/>
				<g>
					<polyline fill="none" stroke="#333333" stroke-width="3.9881" stroke-linecap="round" stroke-miterlimit="10" points="
						160.446,112.181 162.061,110.163 183.959,82.779 185.361,81.026 					"/>
					
						<line fill="none" stroke="#333333" stroke-width="3.9881" stroke-linecap="round" stroke-miterlimit="10" x1="189.272" y1="76.135" x2="189.097" y2="76.354"/>
				</g>
			</g>
		</g>
		<g>
			
				<path fill="#A1C453" stroke="#333333" stroke-width="5.9821" stroke-linecap="round" stroke-linejoin="round" stroke-miterlimit="10" d="
				M201.521,143.636c-9.369,1.683-13.152,7.784-29.814-3.262c-16.666-11.048-1.588-17.557-12.557-24.824
				c10.969,7.268,11.932-9.089,27.98,1.551C203.184,127.743,198.654,134.575,201.521,143.636z"/>
			<g>
				<line fill="#A1C453" x1="159.15" y1="115.55" x2="191.984" y2="137.314"/>
				<g>
					<polyline fill="none" stroke="#333333" stroke-width="3.9881" stroke-linecap="round" stroke-miterlimit="10" points="
						160.813,116.652 162.966,118.08 183.231,131.512 185.103,132.753 					"/>
					
						<line fill="none" stroke="#333333" stroke-width="3.9881" stroke-linecap="round" stroke-miterlimit="10" x1="190.322" y1="136.213" x2="190.089" y2="136.058"/>
				</g>
			</g>
		</g>
		<g>
			<g>
				<path fill="#EF4529" d="M81.717,198.712c1.9,13.863-11.59,31.563-21.646,28.534c-9.775,6.418-26.627-7.791-28.527-21.651
					c-1.9-13.855,3.014-28.48,22.92-25.509C71.941,172.153,79.816,184.858,81.717,198.712z"/>
				<g>
					<path fill="none" stroke="#333333" stroke-width="5.9821" stroke-linecap="round" stroke-miterlimit="10" d="M81.888,201.695
						c0.003,1.294-0.163,2.581-0.365,3.855c-0.546,3.024-1.569,5.957-2.972,8.689c-1.396,2.734-3.147,5.294-5.258,7.527
						c-2.104,2.215-4.581,4.187-7.493,5.21c-1.448,0.502-3.008,0.729-4.532,0.52c-0.384-0.029-0.75-0.159-1.126-0.234
						c-0.349,0.086-0.669,0.355-1.005,0.523c-0.354,0.15-0.7,0.316-1.059,0.452c-0.369,0.104-0.729,0.246-1.105,0.321
						c-3.023,0.687-6.183-0.048-8.949-1.321c-2.795-1.284-5.294-3.145-7.508-5.266c-2.212-2.13-4.128-4.568-5.673-7.222
						c-1.527-2.658-2.709-5.55-3.203-8.588c-0.475-3.033-0.614-6.128-0.315-9.186c0.302-3.049,1.049-6.091,2.505-8.803
						c1.437-2.712,3.668-5.015,6.403-6.425c2.727-1.448,5.839-1.984,8.896-2.046c1.534,0.005,3.073,0.067,4.594,0.29
						c0.786,0.273,1.459-0.27,2.174-0.516c0.718-0.271,1.433-0.555,2.168-0.773c2.917-0.924,6.05-1.363,9.085-0.818
						c3.038,0.527,5.817,2.174,7.885,4.439c0.262,0.281,0.521,0.564,0.755,0.869c0.231,0.279,0.511,0.636,0.672,0.876
						c0.214,0.301,0.435,0.598,0.625,0.914c0.404,0.618,0.768,1.262,1.111,1.915"/>
					
						<line fill="none" stroke="#333333" stroke-width="5.9821" stroke-linecap="round" stroke-miterlimit="10" x1="81.212" y1="195.765" x2="81.125" y2="195.353"/>
				</g>
			</g>
			<path opacity="0.5" fill="#FFFFFF" d="M44.932,197.47c-1.463,2.845-4.545,4.173-6.885,2.966c-2.336-1.21-3.045-4.495-1.586-7.341
				c1.465-2.845,4.549-4.172,6.887-2.965C45.688,191.338,46.396,194.624,44.932,197.47z"/>
		</g>
		<g>
			<g>
				<path fill="#D3F46C" d="M183.809,146.827c-4.379,13.283-24.264,23.266-31.971,16.128c-11.6,1.477-20.506-18.69-16.129-31.973
					c4.375-13.282,15.209-24.266,31.789-12.855C186.686,118.675,188.186,133.546,183.809,146.827z"/>
				<g>
					<path fill="none" stroke="#333333" stroke-width="5.9821" stroke-linecap="round" stroke-miterlimit="10" d="M182.652,149.583
						c-0.566,1.163-1.279,2.246-2.021,3.302c-1.816,2.476-4.023,4.661-6.481,6.499c-2.454,1.844-5.152,3.375-8.028,4.455
						c-2.863,1.067-5.954,1.751-9.021,1.392c-1.521-0.186-3.021-0.667-4.299-1.524c-0.332-0.195-0.604-0.473-0.909-0.705
						c-0.352-0.073-0.757,0.026-1.133,0.031c-0.383-0.021-0.768-0.023-1.149-0.059c-0.378-0.067-0.763-0.099-1.134-0.196
						c-3.019-0.711-5.534-2.758-7.46-5.117c-1.948-2.38-3.377-5.149-4.435-8.026c-1.053-2.885-1.703-5.917-1.927-8.979
						c-0.205-3.058,0.002-6.174,0.892-9.119c0.905-2.932,2.138-5.773,3.748-8.389c1.609-2.607,3.616-5.012,6.115-6.809
						c2.481-1.806,5.497-2.895,8.574-2.961c3.084-0.104,6.115,0.781,8.891,2.068c1.376,0.678,2.73,1.41,3.999,2.277
						c0.587,0.591,1.431,0.397,2.181,0.49c0.764,0.072,1.53,0.13,2.287,0.257c3.026,0.451,6.034,1.432,8.521,3.254
						c2.498,1.807,4.273,4.507,5.137,7.449c0.11,0.368,0.22,0.736,0.296,1.112c0.085,0.353,0.181,0.795,0.22,1.082
						c0.061,0.364,0.128,0.728,0.16,1.096c0.092,0.733,0.136,1.471,0.157,2.209"/>
					
						<line fill="none" stroke="#333333" stroke-width="5.9821" stroke-linecap="round" stroke-miterlimit="10" x1="184.649" y1="143.958" x2="184.752" y2="143.549"/>
				</g>
			</g>
			<path opacity="0.5" fill="#FFFFFF" d="M151.305,129.561c-2.568,1.914-5.916,1.754-7.486-0.358
				c-1.574-2.113-0.768-5.376,1.795-7.291c2.566-1.913,5.92-1.752,7.49,0.359C154.672,124.383,153.867,127.647,151.305,129.561z"/>
		</g>
		<path fill="#CC924C" stroke="#333333" stroke-width="10.6342" stroke-linecap="round" stroke-miterlimit="10" d="M130.9,365
			l-1.994-328.958c0-4.164-3.377-7.541-7.545-7.541l0,0c-4.162,0-7.539,3.376-7.539,7.541L111.828,365"/>
		<g>
			
				<path fill="#A1C453" stroke="#333333" stroke-width="3.9881" stroke-linecap="round" stroke-linejoin="round" stroke-miterlimit="10" d="
				M115.543,27.898c0,0,4.459-10.861,5.908-12.767c1.152-1.534,3.742,10.758,3.869,15.339L115.543,27.898z"/>
			
				<path fill="#A1C453" stroke="#333333" stroke-width="3.9881" stroke-linecap="round" stroke-linejoin="round" stroke-miterlimit="10" d="
				M124.816,26.953l-12.064,13.444c0,0-2.674-17.772,1.736-23.862C114.488,16.535,119.93,23.345,124.816,26.953z"/>
			
				<path fill="#A1C453" stroke="#333333" stroke-width="3.9881" stroke-linecap="round" stroke-linejoin="round" stroke-miterlimit="10" d="
				M127.154,48.386c0,0,8.846-20.488,2.137-31.851l-10.895,13.437L127.154,48.386z"/>
		</g>
	</g>
</g>
<g id="calque08">
	<g>
		
			<polygon fill="#CC924C" stroke="#333333" stroke-width="3.9881" stroke-linecap="round" stroke-linejoin="round" stroke-miterlimit="10" points="
			88.953,70.867 114.375,97.868 114.375,86.615 		"/>
		
			<polygon fill="#CC924C" stroke="#333333" stroke-width="3.1905" stroke-linecap="round" stroke-linejoin="round" stroke-miterlimit="10" points="
			159.19,113.738 128.895,144.489 128.895,133.236 		"/>
		
			<polygon fill="#CC924C" stroke="#333333" stroke-width="3.9881" stroke-linecap="round" stroke-linejoin="round" stroke-miterlimit="10" points="
			58.397,178.252 113.811,234.799 113.811,223.546 		"/>
		
			<polygon fill="#CC924C" stroke="#333333" stroke-width="3.9881" stroke-linecap="round" stroke-linejoin="round" stroke-miterlimit="10" points="
			150.034,253.93 130.502,276.109 130.502,268.846 		"/>
		<g>
			
				<path fill="#A1C453" stroke="#333333" stroke-width="5.9821" stroke-linecap="round" stroke-linejoin="round" stroke-miterlimit="10" d="
				M60.91,267.175c10.134-3.542,13.257-11.011,33.787-1.676c20.528,9.337,4.894,19.271,18.402,25.415
				c-13.509-6.145-11.668,12.246-31.441,3.254C61.886,285.175,65.714,276.758,60.91,267.175z"/>
			<g>
				<line fill="#A1C453" x1="113.1" y1="290.914" x2="72.652" y2="272.52"/>
				<g>
					<polyline fill="none" stroke="#333333" stroke-width="3.9881" stroke-linecap="round" stroke-miterlimit="10" points="
						111.284,290.089 108.933,289.019 82.212,276.867 80.168,275.938 					"/>
					
						<line fill="none" stroke="#333333" stroke-width="3.9881" stroke-linecap="round" stroke-miterlimit="10" x1="74.468" y1="273.345" x2="74.723" y2="273.461"/>
				</g>
			</g>
		</g>
		<g>
			
				<path fill="#A1C453" stroke="#333333" stroke-width="5.9821" stroke-linecap="round" stroke-linejoin="round" stroke-miterlimit="10" d="
				M53.734,25.622c-1.091,10.679-7.63,15.456,6.224,33.252C73.811,76.67,79.84,59.155,88.953,70.867
				c-9.113-11.712,9.199-14.198-4.145-31.337C71.468,22.388,64.172,28.068,53.734,25.622z"/>
			<g>
				<line fill="#A1C453" x1="88.953" y1="70.867" x2="61.662" y2="35.803"/>
				<g>
					<polyline fill="none" stroke="#333333" stroke-width="3.9881" stroke-linecap="round" stroke-miterlimit="10" points="
						87.729,69.293 86.142,67.255 68.112,44.09 66.733,42.319 					"/>
					
						<line fill="none" stroke="#333333" stroke-width="3.9881" stroke-linecap="round" stroke-miterlimit="10" x1="62.887" y1="37.377" x2="63.059" y2="37.598"/>
				</g>
			</g>
		</g>
		<g>
			
				<path fill="#A1C453" stroke="#333333" stroke-width="5.9821" stroke-linecap="round" stroke-linejoin="round" stroke-miterlimit="10" d="
				M45.896,114.816c9.997,6.84,18.877,4.684,24.127,29.586c5.25,24.903-14.238,17.341-10.784,33.728
				c-3.454-16.387-18.936-2.414-23.991-26.396C30.193,127.747,40.401,125.594,45.896,114.816z"/>
			<g>
				<line fill="#A1C453" x1="59.239" y1="178.13" x2="48.895" y2="129.067"/>
				<g>
					<polyline fill="none" stroke="#333333" stroke-width="3.9881" stroke-linecap="round" stroke-miterlimit="10" points="
						58.828,176.179 58.295,173.651 51.062,139.343 50.598,137.146 					"/>
					
						<line fill="none" stroke="#333333" stroke-width="3.9881" stroke-linecap="round" stroke-miterlimit="10" x1="49.306" y1="131.018" x2="49.363" y2="131.292"/>
				</g>
			</g>
		</g>
		<g>
			
				<path fill="#A1C453" stroke="#333333" stroke-width="5.9821" stroke-linecap="round" stroke-linejoin="round" stroke-miterlimit="10" d="
				M4.785,144.548c11.905-2.233,16.661-10.038,37.979,3.859c21.319,13.898,2.193,22.332,16.226,31.474
				c-14.032-9.143-15.1,11.685-35.628-1.699C2.822,164.795,8.52,156.054,4.785,144.548z"/>
			<g>
				<line fill="#A1C453" x1="58.99" y1="179.881" x2="16.982" y2="152.502"/>
				<g>
					<polyline fill="none" stroke="#333333" stroke-width="3.9881" stroke-linecap="round" stroke-miterlimit="10" points="
						57.319,178.792 55.155,177.382 25.78,158.236 23.899,157.011 					"/>
					
						<line fill="none" stroke="#333333" stroke-width="3.9881" stroke-linecap="round" stroke-miterlimit="10" x1="18.653" y1="153.591" x2="18.888" y2="153.744"/>
				</g>
			</g>
		</g>
		<g>
			
				<path fill="#A1C453" stroke="#333333" stroke-width="5.9821" stroke-linecap="round" stroke-linejoin="round" stroke-miterlimit="10" d="
				M179.89,214.599c-9.507,1.394-15.087-3.237-27.501,12.681c-12.412,15.92,4.11,17.32-4.061,27.794
				c8.171-10.474,14.336,4.875,26.292-10.456C186.577,229.283,180.05,224.193,179.89,214.599z"/>
			<g>
				<line fill="#A1C453" x1="148.328" y1="255.073" x2="172.786" y2="223.709"/>
				<g>
					<polyline fill="none" stroke="#333333" stroke-width="3.9881" stroke-linecap="round" stroke-miterlimit="10" points="
						149.555,253.501 151.144,251.463 166.328,231.99 167.709,230.22 					"/>
					
						<line fill="none" stroke="#333333" stroke-width="3.9881" stroke-linecap="round" stroke-miterlimit="10" x1="171.56" y1="225.281" x2="171.388" y2="225.503"/>
				</g>
			</g>
		</g>
		<g>
			
				<path fill="#A1C453" stroke="#333333" stroke-width="5.9821" stroke-linecap="round" stroke-linejoin="round" stroke-miterlimit="10" d="
				M198.833,250.105c-7.707-5.738-8.377-12.955-28.411-10.477c-20.037,2.479-9.343,15.151-22.526,16.779
				c13.184-1.628,6.691,13.586,25.985,11.198C193.178,265.219,192.162,257.004,198.833,250.105z"/>
			<g>
				<line fill="#A1C453" x1="147.896" y1="256.408" x2="187.367" y2="251.526"/>
				<g>
					<polyline fill="none" stroke="#333333" stroke-width="3.9881" stroke-linecap="round" stroke-miterlimit="10" points="
						149.874,256.163 152.438,255.847 176.945,252.815 179.173,252.54 					"/>
					
						<line fill="none" stroke="#333333" stroke-width="3.9881" stroke-linecap="round" stroke-miterlimit="10" x1="185.389" y1="251.771" x2="185.11" y2="251.806"/>
				</g>
			</g>
		</g>
		<g>
			
				<path fill="#A1C453" stroke="#333333" stroke-width="5.9821" stroke-linecap="round" stroke-linejoin="round" stroke-miterlimit="10" d="
				M225.215,107c-7.773,9.29-6.488,18.339-31.779,21.153c-25.296,2.814-15.883-15.852-32.528-13.996
				c16.646-1.856,4.237-18.616,28.595-21.326C213.866,90.12,215.02,100.489,225.215,107z"/>
			<g>
				<line fill="#A1C453" x1="160.907" y1="114.156" x2="210.743" y2="108.608"/>
				<g>
					<polyline fill="none" stroke="#333333" stroke-width="3.9881" stroke-linecap="round" stroke-miterlimit="10" points="
						162.889,113.936 165.457,113.65 200.306,109.77 202.537,109.521 					"/>
					
						<line fill="none" stroke="#333333" stroke-width="3.9881" stroke-linecap="round" stroke-miterlimit="10" x1="208.762" y1="108.829" x2="208.482" y2="108.859"/>
				</g>
			</g>
		</g>
		<g>
			
				<path fill="#A1C453" stroke="#333333" stroke-width="5.9821" stroke-linecap="round" stroke-linejoin="round" stroke-miterlimit="10" d="
				M199.603,63.204c1.069,12.067,8.379,17.555-7.517,37.43c-15.896,19.876-22.438,0.021-32.896,13.104
				c10.457-13.082-10.169-16.159,5.137-35.298C179.641,59.294,187.788,65.812,199.603,63.204z"/>
			<g>
				<line fill="#A1C453" x1="159.19" y1="113.738" x2="190.507" y2="74.578"/>
				<g>
					<polyline fill="none" stroke="#333333" stroke-width="3.9881" stroke-linecap="round" stroke-miterlimit="10" points="
						160.436,112.181 162.05,110.163 183.948,82.779 185.351,81.026 					"/>
					
						<line fill="none" stroke="#333333" stroke-width="3.9881" stroke-linecap="round" stroke-miterlimit="10" x1="189.262" y1="76.135" x2="189.086" y2="76.354"/>
				</g>
			</g>
		</g>
		<g>
			
				<path fill="#A1C453" stroke="#333333" stroke-width="5.9821" stroke-linecap="round" stroke-linejoin="round" stroke-miterlimit="10" d="
				M201.509,143.636c-9.368,1.683-13.152,7.784-29.813-3.262c-16.667-11.048-1.589-17.557-12.556-24.824
				c10.967,7.268,11.931-9.089,27.979,1.551C203.172,127.743,198.643,134.575,201.509,143.636z"/>
			<g>
				<line fill="#A1C453" x1="159.14" y1="115.55" x2="191.973" y2="137.314"/>
				<g>
					<polyline fill="none" stroke="#333333" stroke-width="3.9881" stroke-linecap="round" stroke-miterlimit="10" points="
						160.802,116.652 162.955,118.08 183.22,131.512 185.091,132.752 					"/>
					
						<line fill="none" stroke="#333333" stroke-width="3.9881" stroke-linecap="round" stroke-miterlimit="10" x1="190.311" y1="136.213" x2="190.077" y2="136.058"/>
				</g>
			</g>
		</g>
		<g>
			<g>
				<path fill="#EF4529" d="M81.707,198.712c1.896,13.863-11.594,31.563-21.65,28.534c-9.771,6.419-26.627-7.791-28.523-21.651
					c-1.9-13.855,3.01-28.48,22.916-25.509C71.932,172.153,79.807,184.858,81.707,198.712z"/>
				<g>
					<path fill="none" stroke="#333333" stroke-width="5.9821" stroke-linecap="round" stroke-miterlimit="10" d="M81.877,201.695
						c0.003,1.294-0.163,2.581-0.366,3.855c-0.546,3.024-1.569,5.957-2.972,8.688c-1.396,2.734-3.148,5.295-5.259,7.527
						c-2.104,2.215-4.581,4.188-7.493,5.211c-1.447,0.502-3.008,0.729-4.532,0.52c-0.384-0.028-0.75-0.159-1.126-0.234
						c-0.349,0.084-0.669,0.355-1.005,0.523c-0.353,0.15-0.7,0.316-1.059,0.452c-0.369,0.104-0.729,0.246-1.104,0.321
						c-3.024,0.687-6.184-0.048-8.949-1.321c-2.796-1.284-5.295-3.145-7.508-5.266c-2.213-2.13-4.128-4.568-5.673-7.222
						c-1.527-2.658-2.708-5.551-3.201-8.589c-0.475-3.033-0.614-6.128-0.315-9.186c0.301-3.049,1.048-6.091,2.504-8.803
						c1.437-2.712,3.668-5.015,6.404-6.425c2.726-1.448,5.838-1.983,8.896-2.045c1.534,0.006,3.072,0.068,4.593,0.29
						c0.787,0.274,1.459-0.273,2.174-0.518c0.718-0.27,1.433-0.555,2.169-0.773c2.917-0.924,6.05-1.362,9.085-0.817
						c3.037,0.528,5.817,2.174,7.885,4.439c0.261,0.281,0.521,0.564,0.755,0.869c0.231,0.279,0.511,0.636,0.672,0.876
						c0.214,0.301,0.434,0.598,0.625,0.914c0.404,0.618,0.768,1.262,1.111,1.915"/>
					
						<line fill="none" stroke="#333333" stroke-width="5.9821" stroke-linecap="round" stroke-miterlimit="10" x1="81.202" y1="195.765" x2="81.115" y2="195.353"/>
				</g>
			</g>
			<path opacity="0.5" fill="#FFFFFF" d="M44.919,197.47c-1.465,2.845-4.545,4.173-6.886,2.966c-2.337-1.21-3.046-4.495-1.581-7.341
				c1.464-2.845,4.545-4.172,6.882-2.965C45.674,191.338,46.383,194.624,44.919,197.47z"/>
		</g>
		<g>
			<g>
				<path fill="#EF4529" d="M184.507,146.827c-4.378,13.283-24.266,23.266-31.973,16.128c-11.598,1.477-20.503-18.69-16.128-31.973
					c4.374-13.282,15.211-24.266,31.79-12.855C187.385,118.675,188.883,133.546,184.507,146.827z"/>
				<g>
					<path fill="none" stroke="#333333" stroke-width="5.9821" stroke-linecap="round" stroke-miterlimit="10" d="M183.351,149.583
						c-0.565,1.163-1.279,2.246-2.021,3.302c-1.817,2.476-4.024,4.661-6.482,6.499c-2.454,1.844-5.152,3.375-8.029,4.455
						c-2.862,1.066-5.953,1.751-9.02,1.392c-1.521-0.185-3.022-0.666-4.3-1.523c-0.332-0.195-0.604-0.473-0.909-0.705
						c-0.35-0.075-0.757,0.026-1.132,0.03c-0.384-0.02-0.769-0.023-1.15-0.059c-0.377-0.068-0.763-0.099-1.134-0.196
						c-3.019-0.711-5.533-2.758-7.459-5.117c-1.948-2.381-3.377-5.149-4.435-8.027c-1.053-2.885-1.703-5.917-1.927-8.979
						c-0.205-3.059,0.001-6.174,0.891-9.12c0.905-2.932,2.138-5.773,3.748-8.389c1.61-2.607,3.617-5.012,6.115-6.809
						c2.481-1.805,5.498-2.895,8.574-2.96c3.085-0.104,6.116,0.781,8.892,2.068c1.376,0.678,2.73,1.41,3.999,2.277
						c0.587,0.591,1.431,0.397,2.18,0.49c0.764,0.072,1.531,0.13,2.288,0.257c3.026,0.45,6.034,1.431,8.521,3.254
						c2.498,1.807,4.273,4.507,5.136,7.449c0.111,0.368,0.221,0.735,0.297,1.112c0.085,0.353,0.18,0.795,0.22,1.082
						c0.06,0.364,0.128,0.728,0.16,1.096c0.092,0.733,0.136,1.471,0.157,2.209"/>
					
						<line fill="none" stroke="#333333" stroke-width="5.9821" stroke-linecap="round" stroke-miterlimit="10" x1="185.348" y1="143.958" x2="185.45" y2="143.549"/>
				</g>
			</g>
			<path opacity="0.5" fill="#FFFFFF" d="M152.003,129.561c-2.567,1.914-5.918,1.754-7.487-0.358
				c-1.574-2.113-0.766-5.376,1.797-7.291c2.566-1.913,5.918-1.752,7.487,0.359S154.563,127.647,152.003,129.561z"/>
		</g>
		<path fill="#CC924C" stroke="#333333" stroke-width="10.6342" stroke-linecap="round" stroke-miterlimit="10" d="M130.888,365
			l-1.993-328.958c0-4.164-3.377-7.541-7.544-7.541l0,0c-4.164,0-7.54,3.376-7.54,7.541L111.816,365"/>
		<g>
			
				<path fill="#A1C453" stroke="#333333" stroke-width="3.9881" stroke-linecap="round" stroke-linejoin="round" stroke-miterlimit="10" d="
				M115.531,27.898c0,0,4.46-10.861,5.908-12.767c1.153-1.534,3.741,10.758,3.869,15.339L115.531,27.898z"/>
			
				<path fill="#A1C453" stroke="#333333" stroke-width="3.9881" stroke-linecap="round" stroke-linejoin="round" stroke-miterlimit="10" d="
				M124.805,26.953l-12.065,13.444c0,0-2.674-17.772,1.737-23.862C114.477,16.535,119.917,23.345,124.805,26.953z"/>
			
				<path fill="#A1C453" stroke="#333333" stroke-width="3.9881" stroke-linecap="round" stroke-linejoin="round" stroke-miterlimit="10" d="
				M127.142,48.386c0,0,8.847-20.488,2.138-31.851l-10.895,13.437L127.142,48.386z"/>
		</g>
	</g>
</g>
</svg>
