<?xml version="1.0" encoding="utf-8"?>
<!-- Generator: Adobe Illustrator 16.0.0, SVG Export Plug-In . SVG Version: 6.00 Build 0)  -->
<!DOCTYPE svg PUBLIC "-//W3C//DTD SVG 1.1//EN" "http://www.w3.org/Graphics/SVG/1.1/DTD/svg11.dtd">
<svg version="1.1" xmlns="http://www.w3.org/2000/svg" xmlns:xlink="http://www.w3.org/1999/xlink" x="0px" y="0px" width="230px"
	 height="380px" viewBox="0 0 230 380" enable-background="new 0 0 230 380" xml:space="preserve">
<g id="calque00">
	<g>
		<path fill="#CC924C" stroke="#333333" stroke-width="9.9701" stroke-linecap="round" stroke-miterlimit="10" d="M100.497,365
			l1.995-35.275c0-4.165,3.377-7.541,7.542-7.541l0,0c4.163,0,7.54,3.376,7.54,7.541L119.569,365"/>
		<g>
			
				<path fill="#A1C453" stroke="#333333" stroke-width="3.9881" stroke-linecap="round" stroke-linejoin="round" stroke-miterlimit="10" d="
				M115.854,321.582c0,0-4.461-10.863-5.909-12.768c-1.153-1.534-3.74,10.758-3.869,15.338L115.854,321.582z"/>
			
				<path fill="#A1C453" stroke="#333333" stroke-width="3.9881" stroke-linecap="round" stroke-linejoin="round" stroke-miterlimit="10" d="
				M106.579,320.635l12.067,13.444c0,0,2.673-17.771-1.736-23.862C116.91,310.217,111.469,317.029,106.579,320.635z"/>
			
				<path fill="#A1C453" stroke="#333333" stroke-width="3.9881" stroke-linecap="round" stroke-linejoin="round" stroke-miterlimit="10" d="
				M104.243,342.066c0,0-8.846-20.484-2.137-31.85l10.895,13.437L104.243,342.066z"/>
		</g>
	</g>
</g>
<g id="calque01">
	<g>
		<g>
			
				<path fill="#A1C453" stroke="#333333" stroke-width="3.9881" stroke-linecap="round" stroke-linejoin="round" stroke-miterlimit="10" d="
				M138.521,265.75c-4.921-0.204-7.287-3.066-15.053,3.765c-7.767,6.831,0.417,9.109-4.694,13.604
				c5.112-4.495,6.753,3.82,14.233-2.758C140.488,273.781,137.688,270.596,138.521,265.75z"/>
			<g>
				<line fill="#A1C453" x1="118.774" y1="283.119" x2="134.078" y2="269.658"/>
				<g>
					<polyline fill="none" stroke="#333333" stroke-width="3.9881" stroke-linecap="round" stroke-miterlimit="10" points="
						120.271,281.802 122.211,280.096 126.192,276.594 127.878,275.111 					"/>
					
						<line fill="none" stroke="#333333" stroke-width="3.9881" stroke-linecap="round" stroke-miterlimit="10" x1="132.581" y1="270.976" x2="132.37" y2="271.16"/>
				</g>
			</g>
		</g>
		<path fill="#CC924C" stroke="#333333" stroke-width="9.9701" stroke-linecap="round" stroke-miterlimit="10" d="M100.498,365
			l1.995-109.672c0-4.164,3.376-7.541,7.542-7.541l0,0c4.163,0,7.54,3.377,7.54,7.541L119.569,365"/>
		<g>
			
				<path fill="#A1C453" stroke="#333333" stroke-width="3.9881" stroke-linecap="round" stroke-linejoin="round" stroke-miterlimit="10" d="
				M115.855,247.186c0,0-4.461-10.86-5.909-12.768c-1.153-1.533-3.741,10.76-3.869,15.34L115.855,247.186z"/>
			
				<path fill="#A1C453" stroke="#333333" stroke-width="3.9881" stroke-linecap="round" stroke-linejoin="round" stroke-miterlimit="10" d="
				M106.58,246.24l12.067,13.444c0,0,2.673-17.772-1.737-23.862C116.911,235.822,111.47,242.633,106.58,246.24z"/>
			
				<path fill="#A1C453" stroke="#333333" stroke-width="3.9881" stroke-linecap="round" stroke-linejoin="round" stroke-miterlimit="10" d="
				M104.243,267.672c0,0-8.845-20.486-2.136-31.85l10.895,13.437L104.243,267.672z"/>
		</g>
	</g>
</g>
<g id="calque02">
	<g>
		<g>
			
				<path fill="#A1C453" stroke="#333333" stroke-width="5.9821" stroke-linecap="round" stroke-linejoin="round" stroke-miterlimit="10" d="
				M160.626,247.094c-10.726-0.448-15.882-6.689-32.82,8.205c-16.934,14.894,0.911,19.861-10.231,29.662
				c11.142-9.801,14.721,8.33,31.032-6.014C164.918,264.602,158.812,257.658,160.626,247.094z"/>
			<g>
				<line fill="#A1C453" x1="117.576" y1="284.961" x2="150.94" y2="255.617"/>
				<g>
					<polyline fill="none" stroke="#333333" stroke-width="3.9881" stroke-linecap="round" stroke-miterlimit="10" points="
						119.073,283.645 121.013,281.938 143.055,262.553 144.741,261.07 					"/>
					
						<line fill="none" stroke="#333333" stroke-width="3.9881" stroke-linecap="round" stroke-miterlimit="10" x1="149.443" y1="256.934" x2="149.232" y2="257.119"/>
				</g>
			</g>
		</g>
		<g>
			
				<path fill="#A1C453" stroke="#333333" stroke-width="3.9881" stroke-linecap="round" stroke-linejoin="round" stroke-miterlimit="10" d="
				M85.168,221.329c-0.491,4.808-3.435,6.958,2.8,14.971c6.239,8.013,8.95,0.126,13.055,5.399
				c-4.105-5.273,4.144-6.391-1.865-14.105C93.152,219.874,89.866,222.43,85.168,221.329z"/>
			<g>
				<line fill="#A1C453" x1="101.023" y1="241.699" x2="90.006" y2="227.745"/>
				<g>
					<polyline fill="none" stroke="#333333" stroke-width="3.9881" stroke-linecap="round" stroke-miterlimit="10" points="
						99.788,240.134 98.187,238.106 96.514,235.987 95.122,234.226 					"/>
					
						<line fill="none" stroke="#333333" stroke-width="3.9881" stroke-linecap="round" stroke-miterlimit="10" x1="91.242" y1="229.311" x2="91.416" y2="229.53"/>
				</g>
			</g>
		</g>
		<path fill="#CC924C" stroke="#333333" stroke-width="9.9701" stroke-linecap="round" stroke-miterlimit="10" d="M100.498,365
			l1.994-143.941c0-4.166,3.376-7.543,7.544-7.543l0,0c4.163,0,7.54,3.377,7.54,7.543L119.569,365"/>
		<g>
			
				<path fill="#A1C453" stroke="#333333" stroke-width="3.9881" stroke-linecap="round" stroke-linejoin="round" stroke-miterlimit="10" d="
				M115.854,212.914c0,0-4.459-10.861-5.908-12.766c-1.153-1.535-3.739,10.756-3.867,15.336L115.854,212.914z"/>
			
				<path fill="#A1C453" stroke="#333333" stroke-width="3.9881" stroke-linecap="round" stroke-linejoin="round" stroke-miterlimit="10" d="
				M106.581,211.969l12.065,13.443c0,0,2.676-17.771-1.737-23.861C116.91,201.551,111.469,208.361,106.581,211.969z"/>
			
				<path fill="#A1C453" stroke="#333333" stroke-width="3.9881" stroke-linecap="round" stroke-linejoin="round" stroke-miterlimit="10" d="
				M104.244,233.4c0,0-8.844-20.486-2.138-31.85l10.897,13.436L104.244,233.4z"/>
		</g>
	</g>
</g>
<g id="calque03">
	<g>
		
			<polygon fill="#CC924C" stroke="#333333" stroke-width="3.9881" stroke-linecap="round" stroke-linejoin="round" stroke-miterlimit="10" points="
			86.407,219.646 102.494,250.563 102.494,239.311 		"/>
		<g>
			
				<path fill="#A1C453" stroke="#333333" stroke-width="5.9821" stroke-linecap="round" stroke-linejoin="round" stroke-miterlimit="10" d="
				M160.628,247.094c-10.726-0.448-15.884-6.689-32.82,8.205c-16.934,14.894,0.91,19.861-10.233,29.662
				c11.143-9.801,14.724,8.33,31.032-6.014C164.918,264.602,158.811,257.658,160.628,247.094z"/>
			<g>
				<line fill="#A1C453" x1="117.575" y1="284.961" x2="150.94" y2="255.617"/>
				<g>
					<polyline fill="none" stroke="#333333" stroke-width="3.9881" stroke-linecap="round" stroke-miterlimit="10" points="
						119.073,283.645 121.013,281.938 143.054,262.553 144.74,261.07 					"/>
					
						<line fill="none" stroke="#333333" stroke-width="3.9881" stroke-linecap="round" stroke-miterlimit="10" x1="149.442" y1="256.934" x2="149.232" y2="257.119"/>
				</g>
			</g>
		</g>
		<g>
			
				<path fill="#A1C453" stroke="#333333" stroke-width="5.9821" stroke-linecap="round" stroke-linejoin="round" stroke-miterlimit="10" d="
				M51.188,174.401c-1.088,10.679-7.627,15.456,6.224,33.251c13.853,17.797,19.882,0.281,28.995,11.994
				c-9.113-11.713,9.199-14.197-4.142-31.338C68.924,171.168,61.625,176.847,51.188,174.401z"/>
			<g>
				<line fill="#A1C453" x1="86.407" y1="219.646" x2="59.118" y2="184.582"/>
				<g>
					<polyline fill="none" stroke="#333333" stroke-width="3.9881" stroke-linecap="round" stroke-miterlimit="10" points="
						85.182,218.073 83.595,216.034 65.567,192.869 64.188,191.098 					"/>
					
						<line fill="none" stroke="#333333" stroke-width="3.9881" stroke-linecap="round" stroke-miterlimit="10" x1="60.342" y1="186.155" x2="60.515" y2="186.376"/>
				</g>
			</g>
		</g>
		<g>
			
				<path fill="#A1C453" stroke="#333333" stroke-width="3.9881" stroke-linecap="round" stroke-linejoin="round" stroke-miterlimit="10" d="
				M141.655,205.238c-4.708-0.884-6.587-3.971-15.02,1.525c-8.432,5.496-0.868,8.83-6.416,12.446
				c5.548-3.616,5.97,4.621,14.088-0.671C142.43,213.246,140.177,209.787,141.655,205.238z"/>
			<g>
				<line fill="#A1C453" x1="120.22" y1="219.21" x2="136.832" y2="208.383"/>
				<g>
					<polyline fill="none" stroke="#333333" stroke-width="3.9881" stroke-linecap="round" stroke-miterlimit="10" points="
						121.89,218.121 124.055,216.711 128.034,214.117 129.915,212.891 					"/>
					
						<line fill="none" stroke="#333333" stroke-width="3.9881" stroke-linecap="round" stroke-miterlimit="10" x1="135.162" y1="209.472" x2="134.927" y2="209.625"/>
				</g>
			</g>
		</g>
		<path fill="#CC924C" stroke="#333333" stroke-width="9.9701" stroke-linecap="round" stroke-miterlimit="10" d="M100.498,365
			l1.996-170.881c0-4.163,3.376-7.54,7.542-7.54l0,0c4.164,0,7.54,3.376,7.54,7.54L119.569,365"/>
		<g>
			
				<path fill="#A1C453" stroke="#333333" stroke-width="3.9881" stroke-linecap="round" stroke-linejoin="round" stroke-miterlimit="10" d="
				M115.856,185.976c0,0-4.461-10.862-5.91-12.766c-1.153-1.535-3.739,10.757-3.867,15.339L115.856,185.976z"/>
			
				<path fill="#A1C453" stroke="#333333" stroke-width="3.9881" stroke-linecap="round" stroke-linejoin="round" stroke-miterlimit="10" d="
				M106.581,185.029l12.067,13.444c0,0,2.674-17.771-1.737-23.862C116.911,174.611,111.47,181.423,106.581,185.029z"/>
			
				<path fill="#A1C453" stroke="#333333" stroke-width="3.9881" stroke-linecap="round" stroke-linejoin="round" stroke-miterlimit="10" d="
				M104.244,206.463c0,0-8.845-20.487-2.136-31.852l10.895,13.437L104.244,206.463z"/>
		</g>
	</g>
</g>
<g id="calque04">
	<g>
		
			<polygon fill="#CC924C" stroke="#333333" stroke-width="3.9881" stroke-linecap="round" stroke-linejoin="round" stroke-miterlimit="10" points="
			86.406,219.646 102.493,250.563 102.493,239.311 		"/>
		
			<polygon fill="#CC924C" stroke="#333333" stroke-width="3.9881" stroke-linecap="round" stroke-linejoin="round" stroke-miterlimit="10" points="
			158.251,180.379 117.575,227.939 117.575,216.688 		"/>
		<g>
			
				<path fill="#A1C453" stroke="#333333" stroke-width="5.9821" stroke-linecap="round" stroke-linejoin="round" stroke-miterlimit="10" d="
				M160.627,247.094c-10.726-0.448-15.884-6.689-32.82,8.205c-16.934,14.894,0.91,19.861-10.233,29.662
				c11.143-9.801,14.724,8.33,31.032-6.014C164.917,264.602,158.811,257.658,160.627,247.094z"/>
			<g>
				<line fill="#A1C453" x1="117.575" y1="284.961" x2="150.939" y2="255.617"/>
				<g>
					<polyline fill="none" stroke="#333333" stroke-width="3.9881" stroke-linecap="round" stroke-miterlimit="10" points="
						119.072,283.645 121.012,281.938 143.054,262.553 144.74,261.07 					"/>
					
						<line fill="none" stroke="#333333" stroke-width="3.9881" stroke-linecap="round" stroke-miterlimit="10" x1="149.442" y1="256.934" x2="149.231" y2="257.119"/>
				</g>
			</g>
		</g>
		<g>
			
				<path fill="#A1C453" stroke="#333333" stroke-width="5.9821" stroke-linecap="round" stroke-linejoin="round" stroke-miterlimit="10" d="
				M51.188,174.401c-1.088,10.679-7.627,15.456,6.224,33.251c13.853,17.797,19.882,0.281,28.995,11.994
				c-9.113-11.713,9.199-14.197-4.142-31.338C68.923,171.168,61.625,176.847,51.188,174.401z"/>
			<g>
				<line fill="#A1C453" x1="86.406" y1="219.646" x2="59.117" y2="184.582"/>
				<g>
					<polyline fill="none" stroke="#333333" stroke-width="3.9881" stroke-linecap="round" stroke-miterlimit="10" points="
						85.182,218.073 83.595,216.034 65.566,192.869 64.188,191.098 					"/>
					
						<line fill="none" stroke="#333333" stroke-width="3.9881" stroke-linecap="round" stroke-miterlimit="10" x1="60.341" y1="186.155" x2="60.514" y2="186.376"/>
				</g>
			</g>
		</g>
		<g>
			
				<path fill="#A1C453" stroke="#333333" stroke-width="3.9881" stroke-linecap="round" stroke-linejoin="round" stroke-miterlimit="10" d="
				M162.9,154.984c-3.977,2.721-7.509,1.864-9.596,11.768c-2.087,9.904,5.663,6.896,4.288,13.413
				c1.375-6.518,7.532-0.96,9.542-10.498C169.145,160.127,165.084,159.271,162.9,154.984z"/>
			<g>
				<line fill="#A1C453" x1="157.591" y1="180.165" x2="161.706" y2="160.653"/>
				<g>
					<polyline fill="none" stroke="#333333" stroke-width="3.9881" stroke-linecap="round" stroke-miterlimit="10" points="
						158.003,178.214 158.536,175.686 159.539,170.929 160.002,168.732 					"/>
					
						<line fill="none" stroke="#333333" stroke-width="3.9881" stroke-linecap="round" stroke-miterlimit="10" x1="161.294" y1="162.604" x2="161.237" y2="162.879"/>
				</g>
			</g>
		</g>
		<g>
			
				<path fill="#A1C453" stroke="#333333" stroke-width="5.9821" stroke-linecap="round" stroke-linejoin="round" stroke-miterlimit="10" d="
				M211.865,146.675c-11.908-2.233-16.661-10.038-37.982,3.86c-21.319,13.896-2.193,22.332-16.225,31.472
				c14.032-9.141,15.1,11.686,35.63-1.698C213.826,166.923,208.128,158.18,211.865,146.675z"/>
			<g>
				<line fill="#A1C453" x1="157.658" y1="182.007" x2="199.665" y2="154.628"/>
				<g>
					<polyline fill="none" stroke="#333333" stroke-width="3.9881" stroke-linecap="round" stroke-miterlimit="10" points="
						159.328,180.918 161.493,179.508 190.867,160.363 192.748,159.137 					"/>
					
						<line fill="none" stroke="#333333" stroke-width="3.9881" stroke-linecap="round" stroke-miterlimit="10" x1="197.994" y1="155.717" x2="197.759" y2="155.87"/>
				</g>
			</g>
		</g>
		<path fill="#CC924C" stroke="#333333" stroke-width="9.9701" stroke-linecap="round" stroke-miterlimit="10" d="M100.497,365
			l1.996-222.32c0-4.164,3.377-7.54,7.542-7.54l0,0c4.164,0,7.54,3.376,7.54,7.54L119.569,365"/>
		<g>
			
				<path fill="#A1C453" stroke="#333333" stroke-width="3.9881" stroke-linecap="round" stroke-linejoin="round" stroke-miterlimit="10" d="
				M115.855,134.536c0,0-4.461-10.862-5.91-12.767c-1.153-1.534-3.739,10.757-3.868,15.339L115.855,134.536z"/>
			
				<path fill="#A1C453" stroke="#333333" stroke-width="3.9881" stroke-linecap="round" stroke-linejoin="round" stroke-miterlimit="10" d="
				M106.58,133.59l12.067,13.444c0,0,2.674-17.771-1.737-23.862C116.911,123.172,111.47,129.983,106.58,133.59z"/>
			
				<path fill="#A1C453" stroke="#333333" stroke-width="3.9881" stroke-linecap="round" stroke-linejoin="round" stroke-miterlimit="10" d="
				M104.244,155.023c0,0-8.845-20.487-2.136-31.852l10.895,13.436L104.244,155.023z"/>
		</g>
		<g>
			
				<path fill="#FFFFFF" stroke="#333333" stroke-width="3.9881" stroke-linecap="round" stroke-linejoin="round" stroke-miterlimit="10" d="
				M78.931,219.492c1.546,0.893,1.577,4.45,1.307,7.111c-0.481,4.795-5.248,10.516-10.108,7.712
				c-4.884-2.819-2.337-9.822,1.558-12.649C73.856,220.102,77.375,218.593,78.931,219.492z"/>
			
				<path fill="#FFFFFF" stroke="#333333" stroke-width="3.9881" stroke-linecap="round" stroke-linejoin="round" stroke-miterlimit="10" d="
				M79.322,219.229c-0.002-1.786,3.063-3.589,5.503-4.687c4.395-1.982,11.732-0.713,11.732,4.898c0,5.64-7.337,6.938-11.73,4.975
				C82.385,223.32,79.32,221.027,79.322,219.229z"/>
			
				<path fill="#FFFFFF" stroke="#333333" stroke-width="3.9881" stroke-linecap="round" stroke-linejoin="round" stroke-miterlimit="10" d="
				M78.927,219.027c-1.546,0.894-4.643-0.859-6.812-2.425c-3.914-2.813-6.485-9.802-1.624-12.608
				c4.884-2.82,9.674,2.888,10.172,7.672C80.937,214.328,80.482,218.129,78.927,219.027z"/>
			
				<path fill="#FFFFFF" stroke="#333333" stroke-width="3.9881" stroke-linecap="round" stroke-linejoin="round" stroke-miterlimit="10" d="
				M78.442,219.374c0,1.786-3.065,3.589-5.505,4.687c-4.395,1.979-11.732,0.713-11.732-4.898c0-5.641,7.337-6.938,11.732-4.975
				C75.377,215.283,78.442,217.576,78.442,219.374z"/>
			
				<path fill="#FFFFFF" stroke="#333333" stroke-width="3.9881" stroke-linecap="round" stroke-linejoin="round" stroke-miterlimit="10" d="
				M78.862,219.564c1.544-0.894,4.641,0.859,6.81,2.424c3.914,2.814,6.484,9.803,1.624,12.609c-4.884,2.82-9.674-2.888-10.173-7.672
				C76.851,224.264,77.305,220.463,78.862,219.564z"/>
			
				<path fill="#FFFFFF" stroke="#333333" stroke-width="3.9881" stroke-linecap="round" stroke-linejoin="round" stroke-miterlimit="10" d="
				M78.775,219.072c-1.546-0.893-1.577-4.447-1.307-7.111c0.481-4.797,5.248-10.516,10.108-7.712
				c4.884,2.819,2.337,9.822-1.558,12.646C83.85,218.465,80.331,219.972,78.775,219.072z"/>
			
				<circle fill="#F9D53E" stroke="#333333" stroke-width="3.9881" stroke-linecap="round" stroke-linejoin="round" stroke-miterlimit="10" cx="78.442" cy="219.374" r="3.709"/>
		</g>
	</g>
</g>
<g id="calque05">
	<g>
		
			<polygon fill="#CC924C" stroke="#333333" stroke-width="3.9881" stroke-linecap="round" stroke-linejoin="round" stroke-miterlimit="10" points="
			86.406,219.646 102.493,250.563 102.493,239.311 		"/>
		
			<polygon fill="#CC924C" stroke="#333333" stroke-width="3.9881" stroke-linecap="round" stroke-linejoin="round" stroke-miterlimit="10" points="
			158.252,180.379 117.575,227.939 117.575,216.688 		"/>
		<g>
			
				<path fill="#A1C453" stroke="#333333" stroke-width="5.9821" stroke-linecap="round" stroke-linejoin="round" stroke-miterlimit="10" d="
				M160.628,247.094c-10.726-0.448-15.884-6.689-32.82,8.205c-16.934,14.894,0.91,19.861-10.232,29.662
				c11.143-9.801,14.724,8.33,31.032-6.014C164.918,264.602,158.811,257.658,160.628,247.094z"/>
			<g>
				<line fill="#A1C453" x1="117.575" y1="284.961" x2="150.94" y2="255.617"/>
				<g>
					<polyline fill="none" stroke="#333333" stroke-width="3.9881" stroke-linecap="round" stroke-miterlimit="10" points="
						119.073,283.645 121.013,281.938 143.055,262.553 144.741,261.07 					"/>
					
						<line fill="none" stroke="#333333" stroke-width="3.9881" stroke-linecap="round" stroke-miterlimit="10" x1="149.443" y1="256.934" x2="149.232" y2="257.119"/>
				</g>
			</g>
		</g>
		<g>
			
				<path fill="#A1C453" stroke="#333333" stroke-width="5.9821" stroke-linecap="round" stroke-linejoin="round" stroke-miterlimit="10" d="
				M51.188,174.401c-1.088,10.679-7.627,15.456,6.224,33.251c13.854,17.797,19.882,0.281,28.995,11.994
				c-9.113-11.713,9.199-14.197-4.142-31.338C68.924,171.168,61.625,176.847,51.188,174.401z"/>
			<g>
				<line fill="#A1C453" x1="86.406" y1="219.646" x2="59.117" y2="184.582"/>
				<g>
					<polyline fill="none" stroke="#333333" stroke-width="3.9881" stroke-linecap="round" stroke-miterlimit="10" points="
						85.182,218.073 83.595,216.034 65.567,192.869 64.188,191.098 					"/>
					
						<line fill="none" stroke="#333333" stroke-width="3.9881" stroke-linecap="round" stroke-miterlimit="10" x1="60.342" y1="186.155" x2="60.514" y2="186.376"/>
				</g>
			</g>
		</g>
		<g>
			
				<path fill="#A1C453" stroke="#333333" stroke-width="5.9821" stroke-linecap="round" stroke-linejoin="round" stroke-miterlimit="10" d="
				M170.754,116.944c-10,6.839-18.879,4.681-24.129,29.583c-5.248,24.904,14.24,17.343,10.784,33.729
				c3.456-16.386,18.938-2.413,23.99-26.396C186.457,129.874,176.247,127.721,170.754,116.944z"/>
			<g>
				<line fill="#A1C453" x1="157.409" y1="180.256" x2="167.753" y2="131.194"/>
				<g>
					<polyline fill="none" stroke="#333333" stroke-width="3.9881" stroke-linecap="round" stroke-miterlimit="10" points="
						157.82,178.305 158.354,175.777 165.586,141.47 166.05,139.273 					"/>
					
						<line fill="none" stroke="#333333" stroke-width="3.9881" stroke-linecap="round" stroke-miterlimit="10" x1="167.342" y1="133.146" x2="167.284" y2="133.42"/>
				</g>
			</g>
		</g>
		<g>
			
				<path fill="#A1C453" stroke="#333333" stroke-width="5.9821" stroke-linecap="round" stroke-linejoin="round" stroke-miterlimit="10" d="
				M211.865,146.675c-11.908-2.233-16.661-10.038-37.982,3.86c-21.318,13.896-2.192,22.332-16.225,31.472
				c14.032-9.141,15.1,11.686,35.63-1.698C213.826,166.923,208.128,158.18,211.865,146.675z"/>
			<g>
				<line fill="#A1C453" x1="157.658" y1="182.007" x2="199.665" y2="154.628"/>
				<g>
					<polyline fill="none" stroke="#333333" stroke-width="3.9881" stroke-linecap="round" stroke-miterlimit="10" points="
						159.329,180.918 161.493,179.508 190.867,160.363 192.748,159.137 					"/>
					
						<line fill="none" stroke="#333333" stroke-width="3.9881" stroke-linecap="round" stroke-miterlimit="10" x1="197.995" y1="155.717" x2="197.76" y2="155.87"/>
				</g>
			</g>
		</g>
		<g>
			
				<path fill="#A1C453" stroke="#333333" stroke-width="3.9881" stroke-linecap="round" stroke-linejoin="round" stroke-miterlimit="10" d="
				M88.071,110.789c-0.313,3.531-2.451,5.135,2.199,10.95c4.647,5.815,6.562,0.006,9.621,3.833
				c-3.06-3.827,2.976-4.726-1.503-10.325C93.909,109.646,91.526,111.55,88.071,110.789z"/>
			<g>
				<line fill="#A1C453" x1="99.892" y1="125.571" x2="90.731" y2="114.117"/>
				<g>
					
						<line fill="none" stroke="#333333" stroke-width="3.9881" stroke-linecap="round" stroke-miterlimit="10" x1="99.588" y1="125.191" x2="91.99" y2="115.69"/>
					
						<line fill="none" stroke="#333333" stroke-width="3.9881" stroke-linecap="round" stroke-miterlimit="10" x1="91.035" y1="114.497" x2="91.078" y2="114.55"/>
				</g>
			</g>
		</g>
		<g>
			<g>
				<path fill="#D3F46C" d="M87.301,237.201c-4.866,7.01-18.232,9.395-21.502,3.879c-7.04-1.15-8.746-14.492-3.88-21.502
					c4.867-7.008,13.113-11.551,20.827-1.998C93.875,221.233,92.169,230.195,87.301,237.201z"/>
				<g>
					<path fill="none" stroke="#333333" stroke-width="3.9881" stroke-linecap="round" stroke-miterlimit="10" d="M86.028,238.733
						c-0.595,0.622-1.251,1.187-1.95,1.689c-2.994,2.158-6.615,3.427-10.294,3.671c-1.833,0.098-3.729-0.064-5.42-0.824
						c-0.838-0.381-1.611-0.928-2.189-1.649c-0.147-0.173-0.249-0.4-0.409-0.548c-0.225-0.053-0.453-0.093-0.674-0.156
						c-0.44-0.139-0.869-0.315-1.267-0.549c-1.61-0.936-2.708-2.542-3.42-4.229c-0.722-1.702-1.073-3.54-1.208-5.377
						c-0.217-3.665,0.442-7.476,2.372-10.643c2.029-3.041,4.679-5.871,8.139-7.256c1.711-0.682,3.621-0.908,5.428-0.52
						c1.814,0.375,3.457,1.314,4.891,2.464c0.687,0.617,1.389,1.218,1.974,1.937l0.46,0.517c0.153,0.173,0.291,0.368,0.531,0.414
						l1.292,0.497c1.682,0.736,3.314,1.678,4.568,3.049c1.252,1.362,2.026,3.146,2.173,4.989c0.009,0.449,0.039,0.948,0.032,1.357
						l-0.069,0.735c-0.025,0.493-0.134,0.974-0.236,1.455"/>
					
						<line fill="none" stroke="#333333" stroke-width="3.9881" stroke-linecap="round" stroke-miterlimit="10" x1="88.373" y1="235.521" x2="88.512" y2="235.277"/>
				</g>
			</g>
			<path opacity="0.5" fill="#FFFFFF" d="M71.288,221.455c-1.833,0.674-3.765,0-4.317-1.509c-0.551-1.509,0.487-3.277,2.319-3.951
				s3.766,0.002,4.315,1.511C74.158,219.014,73.12,220.781,71.288,221.455z"/>
		</g>
		<path fill="#CC924C" stroke="#333333" stroke-width="9.9701" stroke-linecap="round" stroke-miterlimit="10" d="M100.497,365
			l1.996-260.992c0-4.165,3.377-7.542,7.542-7.542l0,0c4.163,0,7.54,3.377,7.54,7.542L119.569,365"/>
		<g>
			
				<path fill="#A1C453" stroke="#333333" stroke-width="3.9881" stroke-linecap="round" stroke-linejoin="round" stroke-miterlimit="10" d="
				M115.855,95.865c0,0-4.461-10.86-5.91-12.767c-1.152-1.534-3.738,10.759-3.867,15.339L115.855,95.865z"/>
			
				<path fill="#A1C453" stroke="#333333" stroke-width="3.9881" stroke-linecap="round" stroke-linejoin="round" stroke-miterlimit="10" d="
				M106.581,94.92l12.067,13.444c0,0,2.673-17.773-1.737-23.862C116.911,84.502,111.471,91.312,106.581,94.92z"/>
			
				<path fill="#A1C453" stroke="#333333" stroke-width="3.9881" stroke-linecap="round" stroke-linejoin="round" stroke-miterlimit="10" d="
				M104.244,116.352c0,0-8.845-20.487-2.137-31.85l10.896,13.436L104.244,116.352z"/>
		</g>
		<g>
			
				<path fill="#FFFFFF" stroke="#333333" stroke-width="3.9881" stroke-linecap="round" stroke-linejoin="round" stroke-miterlimit="10" d="
				M162.211,182.233c1.546,0.892,1.577,4.448,1.307,7.108c-0.481,4.798-5.248,10.519-10.108,7.711
				c-4.884-2.817-2.337-9.822,1.558-12.646C157.137,182.841,160.655,181.333,162.211,182.233z"/>
			
				<path fill="#FFFFFF" stroke="#333333" stroke-width="3.9881" stroke-linecap="round" stroke-linejoin="round" stroke-miterlimit="10" d="
				M162.603,181.968c-0.002-1.784,3.063-3.591,5.503-4.685c4.395-1.982,11.732-0.715,11.732,4.897c0,5.639-7.338,6.934-11.73,4.973
				C165.665,186.06,162.601,183.766,162.603,181.968z"/>
			
				<path fill="#FFFFFF" stroke="#333333" stroke-width="3.9881" stroke-linecap="round" stroke-linejoin="round" stroke-miterlimit="10" d="
				M162.207,181.766c-1.546,0.894-4.643-0.857-6.812-2.422c-3.914-2.816-6.484-9.805-1.624-12.611
				c4.884-2.819,9.674,2.888,10.173,7.672C164.217,177.067,163.763,180.868,162.207,181.766z"/>
			
				<path fill="#FFFFFF" stroke="#333333" stroke-width="3.9881" stroke-linecap="round" stroke-linejoin="round" stroke-miterlimit="10" d="
				M161.722,182.112c0,1.786-3.064,3.591-5.505,4.685c-4.395,1.982-11.732,0.715-11.732-4.899c0-5.635,7.338-6.934,11.732-4.973
				C158.657,178.023,161.722,180.313,161.722,182.112z"/>
			
				<path fill="#FFFFFF" stroke="#333333" stroke-width="3.9881" stroke-linecap="round" stroke-linejoin="round" stroke-miterlimit="10" d="
				M162.143,182.303c1.544-0.892,4.641,0.859,6.81,2.422c3.914,2.816,6.484,9.805,1.624,12.61c-4.884,2.82-9.674-2.886-10.172-7.672
				C160.131,187.002,160.585,183.201,162.143,182.303z"/>
			
				<path fill="#FFFFFF" stroke="#333333" stroke-width="3.9881" stroke-linecap="round" stroke-linejoin="round" stroke-miterlimit="10" d="
				M162.055,181.809c-1.546-0.89-1.577-4.448-1.307-7.107c0.481-4.798,5.248-10.52,10.108-7.711
				c4.884,2.82,2.337,9.822-1.558,12.646C167.13,181.201,163.611,182.708,162.055,181.809z"/>
			
				<circle fill="#F9D53E" stroke="#333333" stroke-width="3.9881" stroke-linecap="round" stroke-linejoin="round" stroke-miterlimit="10" cx="161.722" cy="182.112" r="3.709"/>
		</g>
	</g>
</g>
<g id="calque06">
	<g>
		
			<polygon fill="#CC924C" stroke="#333333" stroke-width="3.9881" stroke-linecap="round" stroke-linejoin="round" stroke-miterlimit="10" points="
			86.407,219.646 102.493,250.563 102.493,239.311 		"/>
		
			<polygon fill="#CC924C" stroke="#333333" stroke-width="3.9881" stroke-linecap="round" stroke-linejoin="round" stroke-miterlimit="10" points="
			84.162,110.656 102.493,132.916 102.493,121.663 		"/>
		
			<polygon fill="#CC924C" stroke="#333333" stroke-width="3.9881" stroke-linecap="round" stroke-linejoin="round" stroke-miterlimit="10" points="
			158.252,180.379 117.575,227.939 117.575,216.688 		"/>
		<g>
			
				<path fill="#A1C453" stroke="#333333" stroke-width="5.9821" stroke-linecap="round" stroke-linejoin="round" stroke-miterlimit="10" d="
				M160.628,247.094c-10.726-0.448-15.884-6.689-32.819,8.205c-16.934,14.894,0.909,19.861-10.233,29.662
				c11.143-9.801,14.724,8.33,31.032-6.014C164.918,264.602,158.812,257.658,160.628,247.094z"/>
			<g>
				<line fill="#A1C453" x1="117.575" y1="284.961" x2="150.94" y2="255.617"/>
				<g>
					<polyline fill="none" stroke="#333333" stroke-width="3.9881" stroke-linecap="round" stroke-miterlimit="10" points="
						119.073,283.645 121.013,281.938 143.055,262.553 144.741,261.07 					"/>
					
						<line fill="none" stroke="#333333" stroke-width="3.9881" stroke-linecap="round" stroke-miterlimit="10" x1="149.443" y1="256.934" x2="149.232" y2="257.119"/>
				</g>
			</g>
		</g>
		<g>
			
				<path fill="#A1C453" stroke="#333333" stroke-width="5.9821" stroke-linecap="round" stroke-linejoin="round" stroke-miterlimit="10" d="
				M51.188,174.401c-1.089,10.679-7.628,15.456,6.224,33.251c13.853,17.797,19.882,0.281,28.995,11.994
				c-9.113-11.713,9.199-14.197-4.143-31.338C68.924,171.168,61.626,176.847,51.188,174.401z"/>
			<g>
				<line fill="#A1C453" x1="86.407" y1="219.646" x2="59.117" y2="184.582"/>
				<g>
					<polyline fill="none" stroke="#333333" stroke-width="3.9881" stroke-linecap="round" stroke-miterlimit="10" points="
						85.183,218.073 83.596,216.034 65.567,192.869 64.188,191.098 					"/>
					
						<line fill="none" stroke="#333333" stroke-width="3.9881" stroke-linecap="round" stroke-miterlimit="10" x1="60.342" y1="186.155" x2="60.514" y2="186.376"/>
				</g>
			</g>
		</g>
		<g>
			
				<path fill="#A1C453" stroke="#333333" stroke-width="5.9821" stroke-linecap="round" stroke-linejoin="round" stroke-miterlimit="10" d="
				M170.754,116.944c-9.999,6.839-18.879,4.681-24.129,29.583c-5.248,24.904,14.24,17.343,10.784,33.729
				c3.456-16.386,18.938-2.413,23.99-26.396C186.457,129.874,176.247,127.721,170.754,116.944z"/>
			<g>
				<line fill="#A1C453" x1="157.409" y1="180.256" x2="167.753" y2="131.194"/>
				<g>
					<polyline fill="none" stroke="#333333" stroke-width="3.9881" stroke-linecap="round" stroke-miterlimit="10" points="
						157.82,178.305 158.354,175.777 165.586,141.47 166.05,139.273 					"/>
					
						<line fill="none" stroke="#333333" stroke-width="3.9881" stroke-linecap="round" stroke-miterlimit="10" x1="167.342" y1="133.146" x2="167.284" y2="133.42"/>
				</g>
			</g>
		</g>
		<g>
			
				<path fill="#A1C453" stroke="#333333" stroke-width="5.9821" stroke-linecap="round" stroke-linejoin="round" stroke-miterlimit="10" d="
				M211.865,146.675c-11.907-2.233-16.661-10.038-37.981,3.86c-21.319,13.896-2.193,22.332-16.226,31.472
				c14.032-9.141,15.1,11.686,35.63-1.698C213.826,166.923,208.129,158.18,211.865,146.675z"/>
			<g>
				<line fill="#A1C453" x1="157.658" y1="182.007" x2="199.665" y2="154.628"/>
				<g>
					<polyline fill="none" stroke="#333333" stroke-width="3.9881" stroke-linecap="round" stroke-miterlimit="10" points="
						159.329,180.918 161.493,179.508 190.867,160.363 192.748,159.137 					"/>
					
						<line fill="none" stroke="#333333" stroke-width="3.9881" stroke-linecap="round" stroke-miterlimit="10" x1="197.995" y1="155.717" x2="197.76" y2="155.87"/>
				</g>
			</g>
		</g>
		<g>
			
				<path fill="#A1C453" stroke="#333333" stroke-width="3.9881" stroke-linecap="round" stroke-linejoin="round" stroke-miterlimit="10" d="
				M133.027,77.784c-3.93,0.576-6.237-1.336-11.368,5.242c-5.13,6.582,1.697,7.162-1.679,11.489
				c3.376-4.327,5.924,2.018,10.867-4.323C135.79,83.856,133.092,81.751,133.027,77.784z"/>
			<g>
				<line fill="#A1C453" x1="119.98" y1="94.515" x2="130.091" y2="81.55"/>
				<g>
					<polyline fill="none" stroke="#333333" stroke-width="3.9881" stroke-linecap="round" stroke-miterlimit="10" points="
						121.207,92.943 122.795,90.905 123.633,89.832 125.014,88.061 					"/>
					
						<line fill="none" stroke="#333333" stroke-width="3.9881" stroke-linecap="round" stroke-miterlimit="10" x1="128.865" y1="83.123" x2="128.692" y2="83.344"/>
				</g>
			</g>
		</g>
		<g>
			
				<path fill="#A1C453" stroke="#333333" stroke-width="3.9881" stroke-linecap="round" stroke-linejoin="round" stroke-miterlimit="10" d="
				M66.827,123.662c3.971-0.078,6.021,2.107,11.935-3.777s-0.786-7.316,3.106-11.189c-3.893,3.873-5.624-2.742-11.324,2.929
				C64.847,117.293,67.259,119.717,66.827,123.662z"/>
			<g>
				<line fill="#A1C453" x1="81.868" y1="108.695" x2="70.211" y2="120.293"/>
				<g>
					<polyline fill="none" stroke="#333333" stroke-width="3.9881" stroke-linecap="round" stroke-miterlimit="10" points="
						80.455,110.102 78.623,111.924 77.655,112.887 76.064,114.47 					"/>
					
						<line fill="none" stroke="#333333" stroke-width="3.9881" stroke-linecap="round" stroke-miterlimit="10" x1="71.625" y1="118.887" x2="71.823" y2="118.689"/>
				</g>
			</g>
		</g>
		<g>
			
				<path fill="#A1C453" stroke="#333333" stroke-width="5.9821" stroke-linecap="round" stroke-linejoin="round" stroke-miterlimit="10" d="
				M43.75,60.122c-1.071,12.069-8.38,17.557,7.517,37.431c15.894,19.876,22.437,0.021,32.896,13.103
				c-10.459-13.082,10.168-16.159-5.14-35.298C63.711,56.212,55.562,62.731,43.75,60.122z"/>
			<g>
				<line fill="#A1C453" x1="84.162" y1="110.656" x2="52.846" y2="71.496"/>
				<g>
					<polyline fill="none" stroke="#333333" stroke-width="3.9881" stroke-linecap="round" stroke-miterlimit="10" points="
						82.917,109.099 81.303,107.081 59.404,79.698 58.002,77.944 					"/>
					
						<line fill="none" stroke="#333333" stroke-width="3.9881" stroke-linecap="round" stroke-miterlimit="10" x1="54.091" y1="73.053" x2="54.266" y2="73.272"/>
				</g>
			</g>
		</g>
		<g>
			<g>
				<path fill="#D3F46C" d="M87.992,251.439c-7.977,11.489-29.885,15.396-35.242,6.36c-11.538-1.888-14.332-23.753-6.356-35.242
					c7.975-11.485,21.489-18.93,34.133-3.273C98.765,225.271,95.968,239.955,87.992,251.439z"/>
				<g>
					<path fill="none" stroke="#333333" stroke-width="5.9821" stroke-linecap="round" stroke-miterlimit="10" d="M86.1,253.752
						c-0.873,0.954-1.865,1.789-2.876,2.59c-2.447,1.856-5.184,3.323-8.064,4.386c-2.877,1.069-5.9,1.769-8.964,1.984
						c-3.048,0.208-6.206-0.017-9.043-1.232c-1.405-0.61-2.708-1.499-3.689-2.684c-0.263-0.281-0.444-0.625-0.671-0.935
						c-0.313-0.174-0.732-0.191-1.093-0.295c-0.362-0.128-0.729-0.241-1.085-0.384c-0.343-0.172-0.703-0.312-1.031-0.511
						c-2.691-1.541-4.52-4.219-5.694-7.028c-1.189-2.837-1.771-5.897-1.966-8.957c-0.188-3.065,0.052-6.157,0.709-9.156
						c0.674-2.99,1.759-5.918,3.45-8.488c1.702-2.554,3.692-4.926,5.981-6.975c2.285-2.041,4.893-3.775,7.8-4.787
						c2.893-1.024,6.094-1.211,9.062-0.398c2.987,0.778,5.641,2.489,7.935,4.513c1.126,1.042,2.217,2.129,3.186,3.321
						c0.394,0.733,1.258,0.788,1.95,1.091c0.712,0.286,1.431,0.561,2.12,0.897c2.773,1.293,5.376,3.09,7.243,5.545
						c1.879,2.443,2.813,5.537,2.803,8.604c0.001,0.384,0.001,0.768-0.033,1.15c-0.019,0.362-0.053,0.813-0.098,1.1
						c-0.045,0.366-0.084,0.733-0.158,1.096c-0.12,0.729-0.288,1.449-0.478,2.162"/>
					
						<line fill="none" stroke="#333333" stroke-width="5.9821" stroke-linecap="round" stroke-miterlimit="10" x1="89.615" y1="248.928" x2="89.83" y2="248.566"/>
				</g>
			</g>
			<path opacity="0.5" fill="#FFFFFF" d="M61.746,225.635c-3.002,1.105-6.169-0.002-7.074-2.474
				c-0.905-2.474,0.799-5.372,3.801-6.477c3.003-1.106,6.171,0.004,7.075,2.476C66.451,221.631,64.749,224.53,61.746,225.635z"/>
		</g>
		<path fill="#CC924C" stroke="#333333" stroke-width="9.9701" stroke-linecap="round" stroke-miterlimit="10" d="M100.498,365
			l1.995-288.178c0-4.164,3.377-7.54,7.542-7.54l0,0c4.164,0,7.54,3.376,7.54,7.54L119.569,365"/>
		<g>
			
				<path fill="#A1C453" stroke="#333333" stroke-width="3.9881" stroke-linecap="round" stroke-linejoin="round" stroke-miterlimit="10" d="
				M115.855,68.679c0,0-4.461-10.86-5.909-12.767c-1.153-1.535-3.739,10.759-3.868,15.341L115.855,68.679z"/>
			
				<path fill="#A1C453" stroke="#333333" stroke-width="3.9881" stroke-linecap="round" stroke-linejoin="round" stroke-miterlimit="10" d="
				M106.581,67.734l12.067,13.444c0,0,2.674-17.773-1.737-23.862C116.911,57.316,111.471,64.126,106.581,67.734z"/>
			
				<path fill="#A1C453" stroke="#333333" stroke-width="3.9881" stroke-linecap="round" stroke-linejoin="round" stroke-miterlimit="10" d="
				M104.244,89.168c0,0-8.845-20.489-2.136-31.852l10.895,13.437L104.244,89.168z"/>
		</g>
		<g>
			<g>
				<path fill="#D3F46C" d="M174.836,187.53c1.854,8.327-5.455,19.769-11.725,18.437c-5.618,4.393-16.584-3.396-18.438-11.723
					c-1.855-8.331,0.396-17.471,12.647-16.665C167.551,171.87,172.981,179.199,174.836,187.53z"/>
				<g>
					<path fill="none" stroke="#333333" stroke-width="3.9881" stroke-linecap="round" stroke-miterlimit="10" d="M175.1,189.504
						c0.054,0.859,0.023,1.724-0.081,2.579c-0.443,3.664-1.966,7.186-4.281,10.056c-1.171,1.414-2.575,2.696-4.28,3.426
						c-0.848,0.358-1.774,0.556-2.697,0.492c-0.227-0.009-0.462-0.09-0.679-0.069c-0.191,0.129-0.375,0.27-0.573,0.389
						c-0.4,0.229-0.82,0.424-1.262,0.559c-1.78,0.548-3.705,0.266-5.427-0.354c-1.741-0.623-3.33-1.611-4.771-2.758
						c-2.841-2.325-5.197-5.393-6.215-8.957c-0.86-3.554-1.146-7.421,0.183-10.902c0.659-1.72,1.787-3.277,3.299-4.342
						c1.506-1.079,3.311-1.648,5.128-1.922c0.918-0.087,1.836-0.195,2.761-0.138l0.692,0.012c0.231,0.007,0.467,0.035,0.665-0.111
						l1.241-0.613c1.681-0.738,3.48-1.3,5.338-1.292c1.85,0.002,3.686,0.644,5.14,1.785c0.337,0.297,0.724,0.614,1.02,0.896
						l0.493,0.55c0.346,0.353,0.625,0.759,0.91,1.161"/>
					
						<line fill="none" stroke="#333333" stroke-width="3.9881" stroke-linecap="round" stroke-miterlimit="10" x1="174.326" y1="185.603" x2="174.242" y2="185.335"/>
				</g>
			</g>
			<path opacity="0.5" fill="#FFFFFF" d="M152.402,188.628c-0.745,1.803-2.551,2.765-4.034,2.15
				c-1.484-0.615-2.08-2.578-1.334-4.381c0.746-1.807,2.555-2.769,4.036-2.15C152.553,184.862,153.15,186.825,152.402,188.628z"/>
		</g>
	</g>
</g>
<g id="calque07">
	<g>
		
			<polygon fill="#CC924C" stroke="#333333" stroke-width="3.9881" stroke-linecap="round" stroke-linejoin="round" stroke-miterlimit="10" points="
			86.407,219.646 102.493,250.563 102.493,239.311 		"/>
		
			<polygon fill="#CC924C" stroke="#333333" stroke-width="3.9881" stroke-linecap="round" stroke-linejoin="round" stroke-miterlimit="10" points="
			84.161,110.656 102.493,132.916 102.493,121.663 		"/>
		
			<polygon fill="#CC924C" stroke="#333333" stroke-width="3.9881" stroke-linecap="round" stroke-linejoin="round" stroke-miterlimit="10" points="
			158.252,180.379 117.575,227.939 117.575,216.688 		"/>
		
			<polygon fill="#CC924C" stroke="#333333" stroke-width="3.9881" stroke-linecap="round" stroke-linejoin="round" stroke-miterlimit="10" points="
			137.106,75.486 117.575,100.655 117.575,93.392 		"/>
		<g>
			
				<path fill="#A1C453" stroke="#333333" stroke-width="5.9821" stroke-linecap="round" stroke-linejoin="round" stroke-miterlimit="10" d="
				M160.628,247.094c-10.726-0.448-15.884-6.689-32.819,8.205c-16.934,14.894,0.909,19.861-10.233,29.662
				c11.143-9.801,14.724,8.33,31.032-6.014C164.918,264.602,158.812,257.658,160.628,247.094z"/>
			<g>
				<line fill="#A1C453" x1="117.575" y1="284.961" x2="150.94" y2="255.617"/>
				<g>
					<polyline fill="none" stroke="#333333" stroke-width="3.9881" stroke-linecap="round" stroke-miterlimit="10" points="
						119.073,283.645 121.013,281.938 143.055,262.553 144.741,261.07 					"/>
					
						<line fill="none" stroke="#333333" stroke-width="3.9881" stroke-linecap="round" stroke-miterlimit="10" x1="149.443" y1="256.934" x2="149.232" y2="257.119"/>
				</g>
			</g>
		</g>
		<g>
			
				<path fill="#A1C453" stroke="#333333" stroke-width="5.9821" stroke-linecap="round" stroke-linejoin="round" stroke-miterlimit="10" d="
				M51.188,174.401c-1.089,10.679-7.628,15.456,6.223,33.251c13.854,17.797,19.883,0.281,28.996,11.994
				c-9.113-11.713,9.199-14.197-4.143-31.338C68.924,171.168,61.626,176.847,51.188,174.401z"/>
			<g>
				<line fill="#A1C453" x1="86.407" y1="219.646" x2="59.117" y2="184.582"/>
				<g>
					<polyline fill="none" stroke="#333333" stroke-width="3.9881" stroke-linecap="round" stroke-miterlimit="10" points="
						85.183,218.073 83.596,216.034 65.567,192.869 64.188,191.098 					"/>
					
						<line fill="none" stroke="#333333" stroke-width="3.9881" stroke-linecap="round" stroke-miterlimit="10" x1="60.342" y1="186.155" x2="60.514" y2="186.376"/>
				</g>
			</g>
		</g>
		<g>
			
				<path fill="#A1C453" stroke="#333333" stroke-width="5.9821" stroke-linecap="round" stroke-linejoin="round" stroke-miterlimit="10" d="
				M170.754,116.944c-9.999,6.839-18.879,4.681-24.129,29.583c-5.248,24.904,14.24,17.343,10.784,33.729
				c3.456-16.386,18.938-2.413,23.99-26.396C186.457,129.874,176.247,127.721,170.754,116.944z"/>
			<g>
				<line fill="#A1C453" x1="157.409" y1="180.256" x2="167.753" y2="131.194"/>
				<g>
					<polyline fill="none" stroke="#333333" stroke-width="3.9881" stroke-linecap="round" stroke-miterlimit="10" points="
						157.82,178.305 158.354,175.777 165.586,141.47 166.05,139.273 					"/>
					
						<line fill="none" stroke="#333333" stroke-width="3.9881" stroke-linecap="round" stroke-miterlimit="10" x1="167.342" y1="133.146" x2="167.284" y2="133.42"/>
				</g>
			</g>
		</g>
		<g>
			
				<path fill="#A1C453" stroke="#333333" stroke-width="5.9821" stroke-linecap="round" stroke-linejoin="round" stroke-miterlimit="10" d="
				M211.865,146.675c-11.907-2.233-16.661-10.038-37.981,3.86c-21.319,13.896-2.193,22.332-16.226,31.472
				c14.032-9.141,15.1,11.686,35.63-1.698C213.826,166.923,208.128,158.18,211.865,146.675z"/>
			<g>
				<line fill="#A1C453" x1="157.658" y1="182.007" x2="199.665" y2="154.628"/>
				<g>
					<polyline fill="none" stroke="#333333" stroke-width="3.9881" stroke-linecap="round" stroke-miterlimit="10" points="
						159.329,180.918 161.493,179.508 190.867,160.363 192.748,159.137 					"/>
					
						<line fill="none" stroke="#333333" stroke-width="3.9881" stroke-linecap="round" stroke-miterlimit="10" x1="197.995" y1="155.717" x2="197.76" y2="155.87"/>
				</g>
			</g>
		</g>
		<g>
			
				<path fill="#A1C453" stroke="#333333" stroke-width="5.9821" stroke-linecap="round" stroke-linejoin="round" stroke-miterlimit="10" d="
				M166.193,37.884c-9.507,1.395-15.088-3.236-27.5,12.681c-12.411,15.921,4.109,17.319-4.062,27.795
				c8.171-10.476,14.336,4.874,26.292-10.457C172.88,52.57,166.353,47.48,166.193,37.884z"/>
			<g>
				<line fill="#A1C453" x1="134.632" y1="78.36" x2="159.09" y2="46.996"/>
				<g>
					<polyline fill="none" stroke="#333333" stroke-width="3.9881" stroke-linecap="round" stroke-miterlimit="10" points="
						135.858,76.788 137.447,74.75 152.632,55.277 154.013,53.506 					"/>
					
						<line fill="none" stroke="#333333" stroke-width="3.9881" stroke-linecap="round" stroke-miterlimit="10" x1="157.864" y1="48.568" x2="157.691" y2="48.789"/>
				</g>
			</g>
		</g>
		<g>
			
				<path fill="#A1C453" stroke="#333333" stroke-width="3.1904" stroke-linecap="round" stroke-linejoin="round" stroke-miterlimit="10" d="
				M160.436,74.252c-3.548-2.645-3.858-5.967-13.08-4.826c-9.223,1.141-4.3,6.975-10.37,7.727c6.07-0.752,3.081,6.25,11.963,5.152
				C157.832,81.208,157.364,77.426,160.436,74.252z"/>
			<g>
				<line fill="#A1C453" x1="136.985" y1="77.153" x2="155.156" y2="74.904"/>
				<g>
					<polyline fill="none" stroke="#333333" stroke-width="3.9881" stroke-linecap="round" stroke-miterlimit="10" points="
						138.964,76.908 141.528,76.591 144.734,76.194 146.962,75.918 					"/>
					
						<line fill="none" stroke="#333333" stroke-width="3.9881" stroke-linecap="round" stroke-miterlimit="10" x1="153.177" y1="75.149" x2="152.899" y2="75.184"/>
				</g>
			</g>
		</g>
		<g>
			
				<path fill="#A1C453" stroke="#333333" stroke-width="3.9881" stroke-linecap="round" stroke-linejoin="round" stroke-miterlimit="10" d="
				M56.864,108.283c3.143,3.754,2.621,7.409,12.843,8.546s6.418-6.404,13.144-5.657c-6.726-0.748-1.711-7.521-11.555-8.617
				C61.45,101.459,60.985,105.65,56.864,108.283z"/>
			<g>
				<line fill="#A1C453" x1="82.851" y1="111.172" x2="62.712" y2="108.933"/>
				<g>
					<polyline fill="none" stroke="#333333" stroke-width="3.1904" stroke-linecap="round" stroke-miterlimit="10" points="
						81.265,110.996 79.211,110.768 71.062,109.861 69.277,109.663 					"/>
					
						<line fill="none" stroke="#333333" stroke-width="3.1904" stroke-linecap="round" stroke-miterlimit="10" x1="64.297" y1="109.109" x2="64.521" y2="109.134"/>
				</g>
			</g>
		</g>
		<g>
			
				<path fill="#A1C453" stroke="#333333" stroke-width="5.9821" stroke-linecap="round" stroke-linejoin="round" stroke-miterlimit="10" d="
				M43.749,60.122c-1.07,12.069-8.379,17.557,7.518,37.431c15.894,19.876,22.436,0.021,32.895,13.103
				C73.702,97.574,94.33,94.498,79.022,75.358C63.711,56.212,55.562,62.731,43.749,60.122z"/>
			<g>
				<line fill="#A1C453" x1="84.161" y1="110.656" x2="52.845" y2="71.496"/>
				<g>
					<polyline fill="none" stroke="#333333" stroke-width="3.9881" stroke-linecap="round" stroke-miterlimit="10" points="
						82.916,109.099 81.302,107.081 59.403,79.698 58.001,77.944 					"/>
					
						<line fill="none" stroke="#333333" stroke-width="3.9881" stroke-linecap="round" stroke-miterlimit="10" x1="54.09" y1="73.053" x2="54.265" y2="73.272"/>
				</g>
			</g>
		</g>
		<g>
			
				<path fill="#A1C453" stroke="#333333" stroke-width="5.9821" stroke-linecap="round" stroke-linejoin="round" stroke-miterlimit="10" d="
				M41.841,140.555c9.371,1.683,13.152,7.783,29.815-3.262c16.667-11.049,1.587-17.557,12.556-24.824
				c-10.969,7.268-11.931-9.09-27.98,1.55C40.179,124.661,44.708,131.494,41.841,140.555z"/>
			<g>
				<line fill="#A1C453" x1="84.212" y1="112.469" x2="51.379" y2="134.232"/>
				<g>
					<polyline fill="none" stroke="#333333" stroke-width="3.9881" stroke-linecap="round" stroke-miterlimit="10" points="
						82.55,113.571 80.396,114.999 60.132,128.43 58.261,129.671 					"/>
					
						<line fill="none" stroke="#333333" stroke-width="3.9881" stroke-linecap="round" stroke-miterlimit="10" x1="53.041" y1="133.131" x2="53.275" y2="132.976"/>
				</g>
			</g>
		</g>
		<g>
			<g>
				<path fill="#EF4529" d="M87.992,251.439c-7.977,11.489-29.886,15.396-35.242,6.36c-11.538-1.888-14.332-23.753-6.356-35.242
					c7.975-11.485,21.488-18.93,34.133-3.273C98.765,225.271,95.968,239.955,87.992,251.439z"/>
				<g>
					<path fill="none" stroke="#333333" stroke-width="5.9821" stroke-linecap="round" stroke-miterlimit="10" d="M86.1,253.752
						c-0.873,0.954-1.865,1.789-2.877,2.59c-2.447,1.856-5.184,3.323-8.064,4.385c-2.877,1.069-5.9,1.769-8.964,1.985
						c-3.048,0.208-6.206-0.017-9.043-1.232c-1.405-0.61-2.708-1.498-3.689-2.684c-0.263-0.281-0.444-0.625-0.671-0.935
						c-0.313-0.174-0.732-0.191-1.093-0.295c-0.362-0.128-0.729-0.241-1.085-0.384c-0.343-0.172-0.703-0.312-1.031-0.511
						c-2.691-1.541-4.52-4.219-5.694-7.028c-1.189-2.837-1.771-5.897-1.966-8.957c-0.188-3.065,0.052-6.157,0.709-9.156
						c0.674-2.99,1.759-5.918,3.45-8.488c1.702-2.554,3.692-4.926,5.981-6.975c2.285-2.041,4.893-3.775,7.8-4.787
						c2.893-1.025,6.094-1.211,9.062-0.398c2.986,0.778,5.641,2.489,7.935,4.513c1.126,1.042,2.217,2.129,3.186,3.321
						c0.394,0.733,1.258,0.788,1.95,1.091c0.712,0.286,1.431,0.561,2.12,0.897c2.773,1.293,5.377,3.09,7.243,5.545
						c1.879,2.443,2.813,5.537,2.803,8.604c0.001,0.384,0.002,0.768-0.033,1.15c-0.019,0.362-0.053,0.813-0.098,1.1
						c-0.045,0.366-0.084,0.733-0.158,1.096c-0.12,0.729-0.288,1.449-0.478,2.162"/>
					
						<line fill="none" stroke="#333333" stroke-width="5.9821" stroke-linecap="round" stroke-miterlimit="10" x1="89.615" y1="248.928" x2="89.83" y2="248.566"/>
				</g>
			</g>
			<path opacity="0.5" fill="#FFFFFF" d="M61.746,225.635c-3.003,1.105-6.169-0.002-7.074-2.474
				c-0.905-2.474,0.798-5.372,3.801-6.477c3.003-1.106,6.171,0.004,7.075,2.476C66.451,221.631,64.749,224.53,61.746,225.635z"/>
		</g>
		<g>
			<g>
				<path fill="#D3F46C" d="M189.018,194.891c3.599,13.516-7.595,32.75-17.95,30.987c-8.903,7.577-27.387-4.438-30.985-17.952
					c-3.599-13.51-0.533-28.633,19.586-28.145C176.033,169.747,185.419,181.38,189.018,194.891z"/>
				<g>
					<path fill="none" stroke="#333333" stroke-width="5.9821" stroke-linecap="round" stroke-miterlimit="10" d="M189.556,197.83
						c0.163,1.283,0.157,2.579,0.114,3.869c-0.167,3.066-0.82,6.103-1.874,8.986c-1.046,2.886-2.468,5.643-4.286,8.119
						c-1.813,2.459-4.027,4.723-6.79,6.099c-1.375,0.677-2.895,1.095-4.433,1.076c-0.384,0.019-0.764-0.066-1.146-0.094
						c-0.335,0.127-0.62,0.435-0.932,0.644c-0.332,0.192-0.656,0.4-0.995,0.579c-0.353,0.15-0.693,0.334-1.057,0.456
						c-2.916,1.055-6.141,0.717-9.043-0.205c-2.933-0.928-5.642-2.465-8.102-4.295c-2.458-1.84-4.661-4.022-6.523-6.464
						c-1.844-2.448-3.375-5.17-4.24-8.122c-0.846-2.95-1.367-6.003-1.449-9.074c-0.078-3.063,0.287-6.173,1.396-9.044
						c1.09-2.869,3.02-5.43,5.559-7.167c2.525-1.774,5.547-2.691,8.574-3.131c1.523-0.185,3.058-0.313,4.594-0.28
						c0.814,0.174,1.415-0.449,2.093-0.781c0.679-0.357,1.353-0.728,2.056-1.036c2.78-1.278,5.834-2.102,8.914-1.936
						c3.08,0.147,6.042,1.437,8.374,3.428c0.294,0.247,0.587,0.496,0.856,0.769c0.264,0.249,0.586,0.567,0.775,0.786
						c0.25,0.272,0.505,0.54,0.733,0.83c0.478,0.563,0.918,1.157,1.34,1.763"/>
					
						<line fill="none" stroke="#333333" stroke-width="5.9821" stroke-linecap="round" stroke-miterlimit="10" x1="188.152" y1="192.028" x2="188.015" y2="191.631"/>
				</g>
			</g>
			<path opacity="0.5" fill="#FFFFFF" d="M152.362,198.209c-1.103,3.006-3.996,4.704-6.466,3.793
				c-2.469-0.907-3.579-4.082-2.479-7.086c1.101-3.005,3.993-4.703,6.463-3.793C152.353,192.031,153.46,195.206,152.362,198.209z"/>
		</g>
		<path fill="#CC924C" stroke="#333333" stroke-width="9.9701" stroke-linecap="round" stroke-miterlimit="10" d="M100.497,365
			l1.996-328.958c0-4.164,3.377-7.54,7.542-7.54l0,0c4.163,0,7.54,3.376,7.54,7.54L119.569,365"/>
		<g>
			
				<path fill="#A1C453" stroke="#333333" stroke-width="3.9881" stroke-linecap="round" stroke-linejoin="round" stroke-miterlimit="10" d="
				M115.855,27.898c0,0-4.461-10.86-5.909-12.767c-1.153-1.534-3.739,10.759-3.868,15.341L115.855,27.898z"/>
			
				<path fill="#A1C453" stroke="#333333" stroke-width="3.9881" stroke-linecap="round" stroke-linejoin="round" stroke-miterlimit="10" d="
				M106.581,26.954l12.067,13.444c0,0,2.673-17.773-1.737-23.862C116.911,16.536,111.471,23.346,106.581,26.954z"/>
			
				<path fill="#A1C453" stroke="#333333" stroke-width="3.9881" stroke-linecap="round" stroke-linejoin="round" stroke-miterlimit="10" d="
				M104.244,48.388c0,0-8.845-20.489-2.136-31.852l10.895,13.436L104.244,48.388z"/>
		</g>
	</g>
</g>
<g id="calque08">
	<g>
		
			<polygon fill="#CC924C" stroke="#333333" stroke-width="3.9881" stroke-linecap="round" stroke-linejoin="round" stroke-miterlimit="10" points="
			86.406,219.646 102.493,250.563 102.493,239.311 		"/>
		
			<polygon fill="#CC924C" stroke="#333333" stroke-width="3.9881" stroke-linecap="round" stroke-linejoin="round" stroke-miterlimit="10" points="
			84.161,110.656 102.493,132.916 102.493,121.663 		"/>
		
			<polygon fill="#CC924C" stroke="#333333" stroke-width="3.9881" stroke-linecap="round" stroke-linejoin="round" stroke-miterlimit="10" points="
			158.252,180.379 117.575,227.939 117.575,216.688 		"/>
		
			<polygon fill="#CC924C" stroke="#333333" stroke-width="3.9881" stroke-linecap="round" stroke-linejoin="round" stroke-miterlimit="10" points="
			137.106,75.486 117.575,100.655 117.575,93.392 		"/>
		<g>
			
				<path fill="#A1C453" stroke="#333333" stroke-width="5.9821" stroke-linecap="round" stroke-linejoin="round" stroke-miterlimit="10" d="
				M160.628,247.094c-10.726-0.448-15.884-6.689-32.819,8.205c-16.934,14.894,0.909,19.861-10.233,29.662
				c11.143-9.801,14.724,8.33,31.032-6.014C164.918,264.602,158.811,257.658,160.628,247.094z"/>
			<g>
				<line fill="#A1C453" x1="117.575" y1="284.961" x2="150.939" y2="255.617"/>
				<g>
					<polyline fill="none" stroke="#333333" stroke-width="3.9881" stroke-linecap="round" stroke-miterlimit="10" points="
						119.072,283.645 121.013,281.938 143.054,262.553 144.74,261.07 					"/>
					
						<line fill="none" stroke="#333333" stroke-width="3.9881" stroke-linecap="round" stroke-miterlimit="10" x1="149.442" y1="256.934" x2="149.231" y2="257.119"/>
				</g>
			</g>
		</g>
		<g>
			
				<path fill="#A1C453" stroke="#333333" stroke-width="5.9821" stroke-linecap="round" stroke-linejoin="round" stroke-miterlimit="10" d="
				M51.188,174.401c-1.088,10.679-7.627,15.456,6.225,33.251c13.853,17.797,19.881,0.281,28.994,11.994
				c-9.113-11.713,9.199-14.197-4.142-31.338C68.924,171.168,61.625,176.847,51.188,174.401z"/>
			<g>
				<line fill="#A1C453" x1="86.406" y1="219.646" x2="59.117" y2="184.582"/>
				<g>
					<polyline fill="none" stroke="#333333" stroke-width="3.9881" stroke-linecap="round" stroke-miterlimit="10" points="
						85.182,218.073 83.595,216.034 65.567,192.869 64.188,191.098 					"/>
					
						<line fill="none" stroke="#333333" stroke-width="3.9881" stroke-linecap="round" stroke-miterlimit="10" x1="60.342" y1="186.155" x2="60.514" y2="186.376"/>
				</g>
			</g>
		</g>
		<g>
			
				<path fill="#A1C453" stroke="#333333" stroke-width="5.9821" stroke-linecap="round" stroke-linejoin="round" stroke-miterlimit="10" d="
				M170.754,116.944c-10,6.839-18.879,4.681-24.129,29.583c-5.248,24.904,14.24,17.343,10.784,33.729
				c3.456-16.386,18.938-2.413,23.99-26.396C186.457,129.874,176.247,127.721,170.754,116.944z"/>
			<g>
				<line fill="#A1C453" x1="157.409" y1="180.256" x2="167.753" y2="131.194"/>
				<g>
					<polyline fill="none" stroke="#333333" stroke-width="3.9881" stroke-linecap="round" stroke-miterlimit="10" points="
						157.82,178.305 158.354,175.777 165.586,141.47 166.05,139.273 					"/>
					
						<line fill="none" stroke="#333333" stroke-width="3.9881" stroke-linecap="round" stroke-miterlimit="10" x1="167.342" y1="133.146" x2="167.284" y2="133.42"/>
				</g>
			</g>
		</g>
		<g>
			
				<path fill="#A1C453" stroke="#333333" stroke-width="5.9821" stroke-linecap="round" stroke-linejoin="round" stroke-miterlimit="10" d="
				M211.865,146.675c-11.908-2.233-16.661-10.038-37.982,3.86c-21.318,13.896-2.192,22.332-16.225,31.472
				c14.032-9.141,15.1,11.686,35.63-1.698C213.826,166.923,208.128,158.18,211.865,146.675z"/>
			<g>
				<line fill="#A1C453" x1="157.658" y1="182.007" x2="199.665" y2="154.628"/>
				<g>
					<polyline fill="none" stroke="#333333" stroke-width="3.9881" stroke-linecap="round" stroke-miterlimit="10" points="
						159.329,180.918 161.493,179.508 190.867,160.363 192.748,159.137 					"/>
					
						<line fill="none" stroke="#333333" stroke-width="3.9881" stroke-linecap="round" stroke-miterlimit="10" x1="197.995" y1="155.717" x2="197.76" y2="155.87"/>
				</g>
			</g>
		</g>
		<g>
			
				<path fill="#A1C453" stroke="#333333" stroke-width="5.9821" stroke-linecap="round" stroke-linejoin="round" stroke-miterlimit="10" d="
				M166.654,37.755c-9.506,1.395-15.087-3.236-27.499,12.681c-12.412,15.921,4.108,17.319-4.063,27.793
				c8.171-10.475,14.336,4.874,26.292-10.455C173.342,52.44,166.814,47.35,166.654,37.755z"/>
			<g>
				<line fill="#A1C453" x1="135.093" y1="78.23" x2="159.551" y2="46.865"/>
				<g>
					<polyline fill="none" stroke="#333333" stroke-width="3.9881" stroke-linecap="round" stroke-miterlimit="10" points="
						136.319,76.658 137.908,74.62 153.093,55.146 154.474,53.376 					"/>
					
						<line fill="none" stroke="#333333" stroke-width="3.9881" stroke-linecap="round" stroke-miterlimit="10" x1="158.325" y1="48.438" x2="158.152" y2="48.659"/>
				</g>
			</g>
		</g>
		<g>
			
				<path fill="#A1C453" stroke="#333333" stroke-width="5.9821" stroke-linecap="round" stroke-linejoin="round" stroke-miterlimit="10" d="
				M187.321,71.907c-7.707-5.739-8.377-12.956-28.411-10.477c-20.035,2.479-9.341,15.15-22.526,16.778
				c13.186-1.628,6.691,13.586,25.985,11.199C181.666,87.02,180.65,78.805,187.321,71.907z"/>
			<g>
				<line fill="#A1C453" x1="136.384" y1="78.208" x2="175.855" y2="73.329"/>
				<g>
					<polyline fill="none" stroke="#333333" stroke-width="3.9881" stroke-linecap="round" stroke-miterlimit="10" points="
						138.363,77.964 140.927,77.647 165.433,74.617 167.661,74.342 					"/>
					
						<line fill="none" stroke="#333333" stroke-width="3.9881" stroke-linecap="round" stroke-miterlimit="10" x1="173.876" y1="73.573" x2="173.598" y2="73.608"/>
				</g>
			</g>
		</g>
		<g>
			
				<path fill="#A1C453" stroke="#333333" stroke-width="5.9821" stroke-linecap="round" stroke-linejoin="round" stroke-miterlimit="10" d="
				M18.135,103.919c7.775,9.291,6.488,18.337,31.779,21.153c25.296,2.812,15.883-15.853,32.528-13.997
				c-16.646-1.856-4.235-18.616-28.595-21.327C29.483,87.038,28.33,97.409,18.135,103.919z"/>
			<g>
				<line fill="#A1C453" x1="82.442" y1="111.075" x2="32.607" y2="105.527"/>
				<g>
					<polyline fill="none" stroke="#333333" stroke-width="3.9881" stroke-linecap="round" stroke-miterlimit="10" points="
						80.46,110.854 77.893,110.569 43.044,106.689 40.813,106.441 					"/>
					
						<line fill="none" stroke="#333333" stroke-width="3.9881" stroke-linecap="round" stroke-miterlimit="10" x1="34.589" y1="105.748" x2="34.868" y2="105.779"/>
				</g>
			</g>
		</g>
		<g>
			
				<path fill="#A1C453" stroke="#333333" stroke-width="5.9821" stroke-linecap="round" stroke-linejoin="round" stroke-miterlimit="10" d="
				M43.749,60.122c-1.071,12.069-8.379,17.557,7.517,37.431c15.895,19.876,22.438,0.021,32.896,13.103
				C73.703,97.574,94.33,94.498,79.022,75.358C63.711,56.212,55.562,62.731,43.749,60.122z"/>
			<g>
				<line fill="#A1C453" x1="84.161" y1="110.656" x2="52.846" y2="71.496"/>
				<g>
					<polyline fill="none" stroke="#333333" stroke-width="3.9881" stroke-linecap="round" stroke-miterlimit="10" points="
						82.916,109.099 81.302,107.081 59.404,79.698 58.002,77.944 					"/>
					
						<line fill="none" stroke="#333333" stroke-width="3.9881" stroke-linecap="round" stroke-miterlimit="10" x1="54.091" y1="73.053" x2="54.266" y2="73.272"/>
				</g>
			</g>
		</g>
		<g>
			
				<path fill="#A1C453" stroke="#333333" stroke-width="5.9821" stroke-linecap="round" stroke-linejoin="round" stroke-miterlimit="10" d="
				M41.841,140.555c9.37,1.683,13.152,7.783,29.815-3.262c16.666-11.049,1.587-17.557,12.556-24.824
				c-10.969,7.268-11.931-9.09-27.98,1.55C40.178,124.661,44.707,131.494,41.841,140.555z"/>
			<g>
				<line fill="#A1C453" x1="84.212" y1="112.469" x2="51.379" y2="134.232"/>
				<g>
					<polyline fill="none" stroke="#333333" stroke-width="3.9881" stroke-linecap="round" stroke-miterlimit="10" points="
						82.55,113.571 80.396,114.999 60.132,128.43 58.261,129.671 					"/>
					
						<line fill="none" stroke="#333333" stroke-width="3.9881" stroke-linecap="round" stroke-miterlimit="10" x1="53.041" y1="133.131" x2="53.275" y2="132.976"/>
				</g>
			</g>
		</g>
		<g>
			<g>
				<path fill="#EF4529" d="M87.992,251.439c-7.977,11.489-29.886,15.396-35.242,6.36c-11.538-1.888-14.332-23.753-6.356-35.242
					c7.975-11.485,21.488-18.93,34.132-3.273C98.764,225.271,95.968,239.955,87.992,251.439z"/>
				<g>
					<path fill="none" stroke="#333333" stroke-width="5.9821" stroke-linecap="round" stroke-miterlimit="10" d="M86.1,253.752
						c-0.873,0.954-1.865,1.789-2.877,2.59c-2.447,1.856-5.184,3.323-8.064,4.385c-2.877,1.069-5.9,1.769-8.964,1.985
						c-3.048,0.208-6.206-0.016-9.043-1.232c-1.405-0.61-2.708-1.498-3.688-2.684c-0.263-0.281-0.445-0.625-0.671-0.935
						c-0.313-0.174-0.732-0.191-1.094-0.295c-0.361-0.128-0.729-0.241-1.085-0.384c-0.342-0.172-0.703-0.312-1.031-0.511
						c-2.691-1.541-4.52-4.219-5.695-7.028c-1.189-2.837-1.771-5.897-1.966-8.957c-0.188-3.064,0.052-6.156,0.709-9.156
						c0.674-2.99,1.759-5.918,3.45-8.488c1.702-2.554,3.692-4.926,5.981-6.975c2.285-2.041,4.893-3.775,7.8-4.787
						c2.893-1.024,6.094-1.211,9.062-0.398c2.986,0.778,5.641,2.489,7.935,4.513c1.126,1.042,2.216,2.129,3.186,3.321
						c0.395,0.733,1.258,0.788,1.95,1.091c0.711,0.286,1.431,0.561,2.12,0.897c2.772,1.294,5.376,3.09,7.242,5.545
						c1.88,2.443,2.813,5.537,2.804,8.604c0.002,0.384,0.002,0.768-0.032,1.15c-0.019,0.362-0.054,0.813-0.098,1.1
						c-0.046,0.366-0.084,0.733-0.159,1.096c-0.12,0.729-0.288,1.449-0.478,2.162"/>
					
						<line fill="none" stroke="#333333" stroke-width="5.9821" stroke-linecap="round" stroke-miterlimit="10" x1="89.615" y1="248.928" x2="89.83" y2="248.566"/>
				</g>
			</g>
			<path opacity="0.5" fill="#FFFFFF" d="M61.746,225.635c-3.003,1.105-6.169-0.002-7.074-2.474
				c-0.906-2.474,0.798-5.372,3.801-6.477c3.003-1.106,6.171,0.004,7.074,2.476C66.451,221.631,64.749,224.53,61.746,225.635z"/>
		</g>
		<g>
			<g>
				<path fill="#EF4529" d="M189.018,194.891c3.599,13.516-7.595,32.75-17.95,30.987c-8.903,7.577-27.387-4.438-30.985-17.952
					c-3.599-13.51-0.533-28.633,19.586-28.145C176.033,169.747,185.419,181.38,189.018,194.891z"/>
				<g>
					<path fill="none" stroke="#333333" stroke-width="5.9821" stroke-linecap="round" stroke-miterlimit="10" d="M189.556,197.83
						c0.163,1.283,0.157,2.579,0.114,3.869c-0.167,3.066-0.82,6.103-1.874,8.986c-1.046,2.886-2.468,5.643-4.286,8.119
						c-1.813,2.459-4.027,4.723-6.79,6.099c-1.375,0.677-2.895,1.095-4.433,1.076c-0.384,0.019-0.764-0.066-1.146-0.094
						c-0.335,0.127-0.62,0.435-0.932,0.644c-0.332,0.192-0.656,0.4-0.995,0.579c-0.353,0.15-0.693,0.334-1.057,0.456
						c-2.916,1.055-6.141,0.717-9.043-0.205c-2.933-0.928-5.642-2.465-8.102-4.295c-2.458-1.84-4.661-4.022-6.523-6.464
						c-1.844-2.448-3.375-5.17-4.24-8.122c-0.846-2.95-1.367-6.003-1.449-9.074c-0.078-3.063,0.287-6.173,1.396-9.044
						c1.09-2.869,3.02-5.43,5.559-7.167c2.525-1.774,5.547-2.691,8.574-3.131c1.523-0.185,3.058-0.313,4.594-0.28
						c0.814,0.174,1.415-0.449,2.093-0.781c0.679-0.357,1.353-0.728,2.056-1.036c2.78-1.278,5.834-2.102,8.914-1.936
						c3.08,0.147,6.042,1.437,8.374,3.428c0.294,0.247,0.587,0.496,0.856,0.769c0.264,0.249,0.586,0.567,0.775,0.786
						c0.25,0.272,0.505,0.54,0.733,0.83c0.478,0.563,0.918,1.157,1.34,1.763"/>
					
						<line fill="none" stroke="#333333" stroke-width="5.9821" stroke-linecap="round" stroke-miterlimit="10" x1="188.152" y1="192.028" x2="188.015" y2="191.631"/>
				</g>
			</g>
			<path opacity="0.5" fill="#FFFFFF" d="M152.361,198.209c-1.102,3.006-3.996,4.704-6.465,3.793
				c-2.469-0.907-3.579-4.082-2.479-7.086c1.1-3.005,3.994-4.703,6.463-3.793C152.352,192.031,153.46,195.206,152.361,198.209z"/>
		</g>
		<path fill="#CC924C" stroke="#333333" stroke-width="9.9701" stroke-linecap="round" stroke-miterlimit="10" d="M100.497,365
			l1.996-328.958c0-4.164,3.377-7.54,7.542-7.54l0,0c4.163,0,7.54,3.376,7.54,7.54L119.569,365"/>
		<g>
			
				<path fill="#A1C453" stroke="#333333" stroke-width="3.9881" stroke-linecap="round" stroke-linejoin="round" stroke-miterlimit="10" d="
				M115.855,27.898c0,0-4.461-10.86-5.91-12.767c-1.152-1.534-3.738,10.759-3.867,15.341L115.855,27.898z"/>
			
				<path fill="#A1C453" stroke="#333333" stroke-width="3.9881" stroke-linecap="round" stroke-linejoin="round" stroke-miterlimit="10" d="
				M106.58,26.954l12.068,13.444c0,0,2.674-17.773-1.737-23.862C116.911,16.536,111.471,23.346,106.58,26.954z"/>
			
				<path fill="#A1C453" stroke="#333333" stroke-width="3.9881" stroke-linecap="round" stroke-linejoin="round" stroke-miterlimit="10" d="
				M104.244,48.388c0,0-8.845-20.489-2.137-31.852l10.896,13.436L104.244,48.388z"/>
		</g>
	</g>
</g>
</svg>
