<?xml version="1.0" encoding="utf-8"?>
<!-- Generator: Adobe Illustrator 16.0.0, SVG Export Plug-In . SVG Version: 6.00 Build 0)  -->
<!DOCTYPE svg PUBLIC "-//W3C//DTD SVG 1.1//EN" "http://www.w3.org/Graphics/SVG/1.1/DTD/svg11.dtd">
<svg version="1.1" xmlns="http://www.w3.org/2000/svg" xmlns:xlink="http://www.w3.org/1999/xlink" x="0px" y="0px" width="230px"
	 height="380px" viewBox="0 0 230 380" enable-background="new 0 0 230 380" xml:space="preserve">
<g id="calque00">
	<g>
		<path fill="#CC924C" stroke="#333333" stroke-width="9.9701" stroke-linecap="round" stroke-miterlimit="10" d="M99.125,365
			l1.995-35.277c0-4.163,3.377-7.539,7.542-7.539l0,0c4.163,0,7.54,3.376,7.54,7.539L118.197,365"/>
		<g>
			
				<path fill="#A1C453" stroke="#333333" stroke-width="3.9881" stroke-linecap="round" stroke-linejoin="round" stroke-miterlimit="10" d="
				M114.482,321.58c0,0-4.461-10.861-5.909-12.768c-1.153-1.534-3.74,10.76-3.869,15.34L114.482,321.58z"/>
			
				<path fill="#A1C453" stroke="#333333" stroke-width="3.9881" stroke-linecap="round" stroke-linejoin="round" stroke-miterlimit="10" d="
				M105.208,320.635l12.067,13.444c0,0,2.673-17.772-1.737-23.862C115.538,310.217,110.098,317.027,105.208,320.635z"/>
			
				<path fill="#A1C453" stroke="#333333" stroke-width="3.9881" stroke-linecap="round" stroke-linejoin="round" stroke-miterlimit="10" d="
				M102.871,342.066c0,0-8.846-20.486-2.137-31.85l10.895,13.437L102.871,342.066z"/>
		</g>
	</g>
</g>
<g id="calque01">
	<g>
		<g>
			
				<path fill="#A1C453" stroke="#333333" stroke-width="3.9881" stroke-linecap="round" stroke-linejoin="round" stroke-miterlimit="10" d="
				M137.148,265.75c-4.921-0.206-7.286-3.068-15.054,3.763c-7.767,6.831,0.418,9.109-4.693,13.606
				c5.111-4.497,6.753,3.82,14.232-2.76C139.115,273.781,136.315,270.596,137.148,265.75z"/>
			<g>
				<line fill="#A1C453" x1="117.401" y1="283.119" x2="132.705" y2="269.66"/>
				<g>
					<polyline fill="none" stroke="#333333" stroke-width="3.9881" stroke-linecap="round" stroke-miterlimit="10" points="
						118.899,281.803 120.839,280.096 124.819,276.596 126.505,275.112 					"/>
					
						<line fill="none" stroke="#333333" stroke-width="3.9881" stroke-linecap="round" stroke-miterlimit="10" x1="131.208" y1="270.977" x2="130.997" y2="271.162"/>
				</g>
			</g>
		</g>
		<path fill="#CC924C" stroke="#333333" stroke-width="9.9701" stroke-linecap="round" stroke-miterlimit="10" d="M99.125,365
			l1.995-109.672c0-4.162,3.376-7.539,7.542-7.539l0,0c4.163,0,7.539,3.377,7.539,7.539L118.196,365"/>
		<g>
			
				<path fill="#A1C453" stroke="#333333" stroke-width="3.9881" stroke-linecap="round" stroke-linejoin="round" stroke-miterlimit="10" d="
				M114.482,247.186c0,0-4.462-10.863-5.909-12.768c-1.154-1.533-3.741,10.758-3.869,15.34L114.482,247.186z"/>
			
				<path fill="#A1C453" stroke="#333333" stroke-width="3.9881" stroke-linecap="round" stroke-linejoin="round" stroke-miterlimit="10" d="
				M105.207,246.238l12.067,13.444c0,0,2.673-17.771-1.736-23.862C115.538,235.82,110.097,242.633,105.207,246.238z"/>
			
				<path fill="#A1C453" stroke="#333333" stroke-width="3.9881" stroke-linecap="round" stroke-linejoin="round" stroke-miterlimit="10" d="
				M102.87,267.672c0,0-8.846-20.486-2.136-31.852l10.894,13.437L102.87,267.672z"/>
		</g>
	</g>
</g>
<g id="calque02">
	<g>
		<g>
			
				<path fill="#A1C453" stroke="#333333" stroke-width="5.9821" stroke-linecap="round" stroke-linejoin="round" stroke-miterlimit="10" d="
				M169.94,266.233c-10.188-3.38-13.433-10.798-33.811-1.134c-20.375,9.667-4.582,19.35-17.989,25.709
				c13.407-6.359,11.865,12.055,31.49,2.746C169.255,284.246,165.292,275.893,169.94,266.233z"/>
			<g>
				<line fill="#A1C453" x1="118.141" y1="290.809" x2="158.286" y2="271.764"/>
				<g>
					<polyline fill="none" stroke="#333333" stroke-width="3.9881" stroke-linecap="round" stroke-miterlimit="10" points="
						119.942,289.954 122.276,288.847 148.798,276.265 150.826,275.303 					"/>
					
						<line fill="none" stroke="#333333" stroke-width="3.9881" stroke-linecap="round" stroke-miterlimit="10" x1="156.484" y1="272.618" x2="156.23" y2="272.738"/>
				</g>
			</g>
		</g>
		<g>
			
				<path fill="#A1C453" stroke="#333333" stroke-width="3.9881" stroke-linecap="round" stroke-linejoin="round" stroke-miterlimit="10" d="
				M81.553,246.861c-0.123,4.834-2.896,7.201,3.934,14.715c6.831,7.514,8.932-0.558,13.428,4.389
				c-4.496-4.946,3.644-6.691-2.937-13.924C89.402,244.801,86.32,247.602,81.553,246.861z"/>
			<g>
				<line fill="#A1C453" x1="98.915" y1="265.965" x2="86.865" y2="252.891"/>
				<g>
					<polyline fill="none" stroke="#333333" stroke-width="3.9881" stroke-linecap="round" stroke-miterlimit="10" points="
						97.563,264.499 95.812,262.599 93.982,260.612 92.46,258.962 					"/>
					
						<line fill="none" stroke="#333333" stroke-width="3.9881" stroke-linecap="round" stroke-miterlimit="10" x1="88.216" y1="254.356" x2="88.406" y2="254.563"/>
				</g>
			</g>
		</g>
		<path fill="#CC924C" stroke="#333333" stroke-width="9.9701" stroke-linecap="round" stroke-miterlimit="10" d="M99.125,365
			l1.994-143.943c0-4.164,3.376-7.541,7.544-7.541l0,0c4.163,0,7.54,3.377,7.54,7.541L118.197,365"/>
		<g>
			
				<path fill="#A1C453" stroke="#333333" stroke-width="3.9881" stroke-linecap="round" stroke-linejoin="round" stroke-miterlimit="10" d="
				M114.481,212.912c0,0-4.459-10.86-5.908-12.766c-1.153-1.535-3.739,10.756-3.867,15.338L114.481,212.912z"/>
			
				<path fill="#A1C453" stroke="#333333" stroke-width="3.9881" stroke-linecap="round" stroke-linejoin="round" stroke-miterlimit="10" d="
				M105.208,211.967l12.065,13.443c0,0,2.676-17.771-1.737-23.861C115.537,201.549,110.096,208.359,105.208,211.967z"/>
			
				<path fill="#A1C453" stroke="#333333" stroke-width="3.9881" stroke-linecap="round" stroke-linejoin="round" stroke-miterlimit="10" d="
				M102.872,233.4c0,0-8.845-20.488-2.138-31.852l10.897,13.436L102.872,233.4z"/>
		</g>
	</g>
</g>
<g id="calque03">
	<g>
		
			<polygon fill="#CC924C" stroke="#333333" stroke-width="3.9881" stroke-linecap="round" stroke-linejoin="round" stroke-miterlimit="10" points="
			79.979,253.93 99.51,276.107 99.51,268.845 		"/>
		<g>
			
				<path fill="#A1C453" stroke="#333333" stroke-width="5.9821" stroke-linecap="round" stroke-linejoin="round" stroke-miterlimit="10" d="
				M169.103,267.174c-10.134-3.542-13.257-11.012-33.788-1.676c-20.528,9.336-4.894,19.27-18.402,25.416
				c13.508-6.146,11.668,12.244,31.441,3.252C168.127,285.173,164.299,276.756,169.103,267.174z"/>
			<g>
				<line fill="#A1C453" x1="116.914" y1="290.914" x2="157.361" y2="272.52"/>
				<g>
					<polyline fill="none" stroke="#333333" stroke-width="3.9881" stroke-linecap="round" stroke-miterlimit="10" points="
						118.729,290.089 121.081,289.019 147.801,276.867 149.845,275.938 					"/>
					
						<line fill="none" stroke="#333333" stroke-width="3.9881" stroke-linecap="round" stroke-miterlimit="10" x1="155.546" y1="273.345" x2="155.291" y2="273.461"/>
				</g>
			</g>
		</g>
		<g>
			
				<path fill="#A1C453" stroke="#333333" stroke-width="3.9881" stroke-linecap="round" stroke-linejoin="round" stroke-miterlimit="10" d="
				M154.212,179.197c-7.499-1.408-10.496-6.325-23.926,2.43c-13.431,8.755-1.381,14.068-10.222,19.828
				c8.841-5.76,9.513,7.36,22.445-1.069C155.448,191.952,151.859,186.445,154.212,179.197z"/>
			<g>
				<line fill="#A1C453" x1="120.064" y1="201.455" x2="146.528" y2="184.208"/>
				<g>
					<polyline fill="none" stroke="#333333" stroke-width="3.9881" stroke-linecap="round" stroke-miterlimit="10" points="
						121.734,200.366 123.899,198.956 137.73,189.941 139.611,188.716 					"/>
					
						<line fill="none" stroke="#333333" stroke-width="3.9881" stroke-linecap="round" stroke-miterlimit="10" x1="144.857" y1="185.296" x2="144.623" y2="185.449"/>
				</g>
			</g>
		</g>
		<g>
			
				<path fill="#A1C453" stroke="#333333" stroke-width="5.9821" stroke-linecap="round" stroke-linejoin="round" stroke-miterlimit="10" d="
				M50.123,214.6c9.507,1.392,15.088-3.238,27.502,12.68c12.412,15.92-4.111,17.32,4.06,27.793
				c-8.171-10.473-14.336,4.875-26.292-10.455C43.436,229.281,49.963,224.191,50.123,214.6z"/>
			<g>
				<line fill="#A1C453" x1="81.685" y1="255.072" x2="57.227" y2="223.709"/>
				<g>
					<polyline fill="none" stroke="#333333" stroke-width="3.9881" stroke-linecap="round" stroke-miterlimit="10" points="
						80.459,253.5 78.87,251.463 63.685,231.99 62.304,230.22 					"/>
					
						<line fill="none" stroke="#333333" stroke-width="3.9881" stroke-linecap="round" stroke-miterlimit="10" x1="58.453" y1="225.281" x2="58.625" y2="225.503"/>
				</g>
			</g>
		</g>
		<g>
			
				<path fill="#A1C453" stroke="#333333" stroke-width="3.9881" stroke-linecap="round" stroke-linejoin="round" stroke-miterlimit="10" d="
				M50.306,251.727c4.543-3.385,4.938-7.638,16.747-6.178c11.809,1.463,5.507,8.931,13.277,9.891c-7.77-0.96-3.945,8.008-15.315,6.6
				C53.64,260.633,54.238,255.792,50.306,251.727z"/>
			<g>
				<line fill="#A1C453" x1="80.33" y1="255.439" x2="57.063" y2="252.563"/>
				<g>
					<polyline fill="none" stroke="#333333" stroke-width="3.9881" stroke-linecap="round" stroke-miterlimit="10" points="
						78.351,255.195 75.787,254.878 67.486,253.852 65.258,253.576 					"/>
					
						<line fill="none" stroke="#333333" stroke-width="3.9881" stroke-linecap="round" stroke-miterlimit="10" x1="59.042" y1="252.809" x2="59.321" y2="252.843"/>
				</g>
			</g>
		</g>
		<path fill="#CC924C" stroke="#333333" stroke-width="10.6342" stroke-linecap="round" stroke-miterlimit="10" d="M99.125,365
			l1.994-179.43c0-4.165,3.376-7.541,7.543-7.541l0,0c4.164,0,7.54,3.376,7.54,7.541L118.197,365"/>
		<g>
			
				<path fill="#A1C453" stroke="#333333" stroke-width="3.9881" stroke-linecap="round" stroke-linejoin="round" stroke-miterlimit="10" d="
				M114.481,177.426c0,0-4.459-10.861-5.908-12.767c-1.153-1.534-3.741,10.758-3.869,15.339L114.481,177.426z"/>
			
				<path fill="#A1C453" stroke="#333333" stroke-width="3.9881" stroke-linecap="round" stroke-linejoin="round" stroke-miterlimit="10" d="
				M105.208,176.481l12.065,13.444c0,0,2.674-17.772-1.737-23.862C115.537,166.063,110.096,172.874,105.208,176.481z"/>
			
				<path fill="#A1C453" stroke="#333333" stroke-width="3.9881" stroke-linecap="round" stroke-linejoin="round" stroke-miterlimit="10" d="
				M102.872,197.914c0,0-8.847-20.488-2.138-31.851l10.895,13.436L102.872,197.914z"/>
		</g>
	</g>
</g>
<g id="calque04">
	<g>
		
			<polygon fill="#CC924C" stroke="#333333" stroke-width="3.9881" stroke-linecap="round" stroke-linejoin="round" stroke-miterlimit="10" points="
			171.615,156.241 116.203,212.78 116.203,201.527 		"/>
		
			<polygon fill="#CC924C" stroke="#333333" stroke-width="3.9881" stroke-linecap="round" stroke-linejoin="round" stroke-miterlimit="10" points="
			79.979,253.93 99.511,276.107 99.511,268.845 		"/>
		<g>
			
				<path fill="#A1C453" stroke="#333333" stroke-width="5.9821" stroke-linecap="round" stroke-linejoin="round" stroke-miterlimit="10" d="
				M169.103,267.174c-10.134-3.542-13.257-11.012-33.788-1.676c-20.528,9.336-4.894,19.27-18.402,25.416
				c13.508-6.146,11.668,12.244,31.441,3.252C168.127,285.173,164.299,276.756,169.103,267.174z"/>
			<g>
				<line fill="#A1C453" x1="116.914" y1="290.914" x2="157.361" y2="272.52"/>
				<g>
					<polyline fill="none" stroke="#333333" stroke-width="3.9881" stroke-linecap="round" stroke-miterlimit="10" points="
						118.729,290.089 121.081,289.019 147.801,276.867 149.845,275.938 					"/>
					
						<line fill="none" stroke="#333333" stroke-width="3.9881" stroke-linecap="round" stroke-miterlimit="10" x1="155.546" y1="273.345" x2="155.291" y2="273.461"/>
				</g>
			</g>
		</g>
		<g>
			
				<path fill="#A1C453" stroke="#333333" stroke-width="3.9881" stroke-linecap="round" stroke-linejoin="round" stroke-miterlimit="10" d="
				M175.163,122.304c-5.453,3.729-10.293,2.553-13.156,16.132c-2.864,13.58,7.764,9.457,5.881,18.392
				c1.883-8.935,10.325-1.316,13.082-14.394C183.725,129.354,178.16,128.181,175.163,122.304z"/>
			<g>
				<line fill="#A1C453" x1="167.888" y1="156.829" x2="173.527" y2="130.074"/>
				<g>
					<polyline fill="none" stroke="#333333" stroke-width="3.9881" stroke-linecap="round" stroke-miterlimit="10" points="
						168.299,154.877 168.832,152.349 171.361,140.35 171.824,138.153 					"/>
					
						<line fill="none" stroke="#333333" stroke-width="3.9881" stroke-linecap="round" stroke-miterlimit="10" x1="173.116" y1="132.025" x2="173.058" y2="132.299"/>
				</g>
			</g>
		</g>
		<g>
			
				<path fill="#A1C453" stroke="#333333" stroke-width="5.9821" stroke-linecap="round" stroke-linejoin="round" stroke-miterlimit="10" d="
				M225.228,122.537c-11.906-2.233-16.661-10.038-37.98,3.859c-21.319,13.898-2.193,22.332-16.225,31.474
				c14.032-9.143,15.1,11.685,35.628-1.699C227.191,142.784,221.493,134.042,225.228,122.537z"/>
			<g>
				<line fill="#A1C453" x1="171.023" y1="157.87" x2="213.03" y2="130.491"/>
				<g>
					<polyline fill="none" stroke="#333333" stroke-width="3.9881" stroke-linecap="round" stroke-miterlimit="10" points="
						172.693,156.781 174.858,155.37 204.232,136.225 206.113,134.999 					"/>
					
						<line fill="none" stroke="#333333" stroke-width="3.9881" stroke-linecap="round" stroke-miterlimit="10" x1="211.36" y1="131.58" x2="211.125" y2="131.732"/>
				</g>
			</g>
		</g>
		<g>
			
				<path fill="#A1C453" stroke="#333333" stroke-width="5.9821" stroke-linecap="round" stroke-linejoin="round" stroke-miterlimit="10" d="
				M50.124,214.6c9.506,1.392,15.087-3.238,27.501,12.68c12.412,15.92-4.111,17.32,4.06,27.793
				c-8.171-10.473-14.336,4.875-26.292-10.455C43.437,229.281,49.964,224.191,50.124,214.6z"/>
			<g>
				<line fill="#A1C453" x1="81.685" y1="255.072" x2="57.227" y2="223.709"/>
				<g>
					<polyline fill="none" stroke="#333333" stroke-width="3.9881" stroke-linecap="round" stroke-miterlimit="10" points="
						80.459,253.5 78.87,251.463 63.685,231.99 62.304,230.22 					"/>
					
						<line fill="none" stroke="#333333" stroke-width="3.9881" stroke-linecap="round" stroke-miterlimit="10" x1="58.453" y1="225.281" x2="58.625" y2="225.503"/>
				</g>
			</g>
		</g>
		<g>
			
				<path fill="#A1C453" stroke="#333333" stroke-width="5.9821" stroke-linecap="round" stroke-linejoin="round" stroke-miterlimit="10" d="
				M31.18,250.105c7.707-5.74,8.377-12.957,28.411-10.479c20.038,2.479,9.343,15.152,22.526,16.78
				c-13.183-1.628-6.691,13.585-25.984,11.197C36.835,265.217,37.852,257.004,31.18,250.105z"/>
			<g>
				<line fill="#A1C453" x1="82.117" y1="256.407" x2="42.646" y2="251.525"/>
				<g>
					<polyline fill="none" stroke="#333333" stroke-width="3.9881" stroke-linecap="round" stroke-miterlimit="10" points="
						80.138,256.162 77.574,255.846 53.068,252.814 50.84,252.539 					"/>
					
						<line fill="none" stroke="#333333" stroke-width="3.9881" stroke-linecap="round" stroke-miterlimit="10" x1="44.625" y1="251.771" x2="44.903" y2="251.805"/>
				</g>
			</g>
		</g>
		<g>
			
				<path fill="#A1C453" stroke="#333333" stroke-width="3.9881" stroke-linecap="round" stroke-linejoin="round" stroke-miterlimit="10" d="
				M76.18,112.484c-0.543,6.128-4.255,8.915,3.816,19.009c8.074,10.094,11.396,0.01,16.708,6.654
				c-5.313-6.644,5.164-8.206-2.609-17.927C86.318,110.498,82.18,113.808,76.18,112.484z"/>
			<g>
				<line fill="#A1C453" x1="96.705" y1="138.147" x2="80.799" y2="118.259"/>
				<g>
					<polyline fill="none" stroke="#333333" stroke-width="3.9881" stroke-linecap="round" stroke-miterlimit="10" points="
						95.459,136.59 93.845,134.572 87.358,126.46 85.956,124.707 					"/>
					
						<line fill="none" stroke="#333333" stroke-width="3.9881" stroke-linecap="round" stroke-miterlimit="10" x1="82.044" y1="119.816" x2="82.219" y2="120.036"/>
				</g>
			</g>
		</g>
		<path fill="#CC924C" stroke="#333333" stroke-width="10.6342" stroke-linecap="round" stroke-miterlimit="10" d="M99.125,365
			l1.994-244.04c0-4.164,3.376-7.541,7.544-7.541l0,0c4.163,0,7.54,3.377,7.54,7.541L118.197,365"/>
		<g>
			
				<path fill="#A1C453" stroke="#333333" stroke-width="3.9881" stroke-linecap="round" stroke-linejoin="round" stroke-miterlimit="10" d="
				M114.481,112.817c0,0-4.459-10.861-5.908-12.767c-1.153-1.534-3.741,10.758-3.869,15.339L114.481,112.817z"/>
			
				<path fill="#A1C453" stroke="#333333" stroke-width="3.9881" stroke-linecap="round" stroke-linejoin="round" stroke-miterlimit="10" d="
				M105.208,111.872l12.065,13.444c0,0,2.673-17.772-1.737-23.862C115.537,101.454,110.096,108.264,105.208,111.872z"/>
			
				<path fill="#A1C453" stroke="#333333" stroke-width="3.9881" stroke-linecap="round" stroke-linejoin="round" stroke-miterlimit="10" d="
				M102.872,133.304c0,0-8.847-20.487-2.138-31.851l10.895,13.436L102.872,133.304z"/>
		</g>
		<g>
			
				<path fill="#FFFFFF" stroke="#333333" stroke-width="3.9881" stroke-linecap="round" stroke-linejoin="round" stroke-miterlimit="10" d="
				M173.576,160.997c1.546,0.892,1.577,4.449,1.306,7.11c-0.481,4.796-5.248,10.517-10.108,7.711
				c-4.884-2.819-2.336-9.822,1.558-12.648C168.501,161.605,172.02,160.097,173.576,160.997z"/>
			
				<path fill="#FFFFFF" stroke="#333333" stroke-width="3.9881" stroke-linecap="round" stroke-linejoin="round" stroke-miterlimit="10" d="
				M173.967,160.733c-0.002-1.785,3.063-3.59,5.503-4.686c4.395-1.982,11.732-0.714,11.732,4.898c0,5.639-7.337,6.935-11.73,4.973
				C177.03,164.824,173.965,162.53,173.967,160.733z"/>
			
				<path fill="#FFFFFF" stroke="#333333" stroke-width="3.9881" stroke-linecap="round" stroke-linejoin="round" stroke-miterlimit="10" d="
				M173.572,160.53c-1.546,0.894-4.643-0.858-6.812-2.423c-3.914-2.814-6.484-9.804-1.624-12.609
				c4.884-2.82,9.674,2.888,10.173,7.672C175.582,155.832,175.128,159.633,173.572,160.53z"/>
			
				<path fill="#FFFFFF" stroke="#333333" stroke-width="3.9881" stroke-linecap="round" stroke-linejoin="round" stroke-miterlimit="10" d="
				M173.087,160.877c0,1.786-3.065,3.59-5.505,4.686c-4.395,1.98-11.732,0.714-11.732-4.899c0-5.637,7.337-6.935,11.732-4.973
				C170.022,156.787,173.087,159.079,173.087,160.877z"/>
			
				<path fill="#FFFFFF" stroke="#333333" stroke-width="3.9881" stroke-linecap="round" stroke-linejoin="round" stroke-miterlimit="10" d="
				M173.508,161.068c1.544-0.893,4.64,0.859,6.81,2.423c3.914,2.815,6.484,9.804,1.624,12.61c-4.884,2.819-9.674-2.887-10.172-7.672
				C171.496,165.767,171.95,161.965,173.508,161.068z"/>
			
				<path fill="#FFFFFF" stroke="#333333" stroke-width="3.9881" stroke-linecap="round" stroke-linejoin="round" stroke-miterlimit="10" d="
				M173.42,160.574c-1.546-0.891-1.577-4.448-1.307-7.109c0.481-4.797,5.248-10.518,10.108-7.711
				c4.884,2.82,2.337,9.822-1.558,12.646C178.495,159.967,174.976,161.474,173.42,160.574z"/>
			
				<circle fill="#F9D53E" stroke="#333333" stroke-width="3.9881" stroke-linecap="round" stroke-linejoin="round" stroke-miterlimit="10" cx="173.087" cy="160.877" r="3.71"/>
		</g>
	</g>
</g>
<g id="calque05">
	<g>
		
			<polygon fill="#CC924C" stroke="#333333" stroke-width="3.1904" stroke-linecap="round" stroke-linejoin="round" stroke-miterlimit="10" points="
			70.811,121.741 101.106,147.49 101.106,136.237 		"/>
		
			<polygon fill="#CC924C" stroke="#333333" stroke-width="3.9881" stroke-linecap="round" stroke-linejoin="round" stroke-miterlimit="10" points="
			171.603,156.241 116.19,212.78 116.19,201.527 		"/>
		
			<polygon fill="#CC924C" stroke="#333333" stroke-width="3.9881" stroke-linecap="round" stroke-linejoin="round" stroke-miterlimit="10" points="
			79.967,253.93 99.498,276.107 99.498,268.845 		"/>
		<g>
			
				<path fill="#A1C453" stroke="#333333" stroke-width="5.9821" stroke-linecap="round" stroke-linejoin="round" stroke-miterlimit="10" d="
				M169.091,267.174c-10.134-3.542-13.258-11.012-33.788-1.676c-20.528,9.336-4.894,19.27-18.401,25.416
				c13.508-6.146,11.668,12.244,31.44,3.252C168.115,285.173,164.286,276.756,169.091,267.174z"/>
			<g>
				<line fill="#A1C453" x1="116.901" y1="290.914" x2="157.349" y2="272.52"/>
				<g>
					<polyline fill="none" stroke="#333333" stroke-width="3.9881" stroke-linecap="round" stroke-miterlimit="10" points="
						118.716,290.089 121.068,289.019 147.789,276.867 149.833,275.938 					"/>
					
						<line fill="none" stroke="#333333" stroke-width="3.9881" stroke-linecap="round" stroke-miterlimit="10" x1="155.534" y1="273.345" x2="155.278" y2="273.461"/>
				</g>
			</g>
		</g>
		<g>
			
				<path fill="#A1C453" stroke="#333333" stroke-width="5.9821" stroke-linecap="round" stroke-linejoin="round" stroke-miterlimit="10" d="
				M184.104,92.805c-9.998,6.84-18.877,4.683-24.127,29.585c-5.25,24.903,14.238,17.342,10.783,33.728
				c3.455-16.386,18.936-2.414,23.991-26.396C199.808,105.734,189.6,103.583,184.104,92.805z"/>
			<g>
				<line fill="#A1C453" x1="170.761" y1="156.118" x2="181.105" y2="107.055"/>
				<g>
					<polyline fill="none" stroke="#333333" stroke-width="3.9881" stroke-linecap="round" stroke-miterlimit="10" points="
						171.172,154.167 171.705,151.639 178.939,117.33 179.402,115.134 					"/>
					
						<line fill="none" stroke="#333333" stroke-width="3.9881" stroke-linecap="round" stroke-miterlimit="10" x1="180.694" y1="109.006" x2="180.636" y2="109.28"/>
				</g>
			</g>
		</g>
		<g>
			
				<path fill="#A1C453" stroke="#333333" stroke-width="5.9821" stroke-linecap="round" stroke-linejoin="round" stroke-miterlimit="10" d="
				M225.216,122.537c-11.906-2.233-16.661-10.038-37.98,3.859c-21.319,13.898-2.192,22.332-16.225,31.474
				c14.032-9.143,15.1,11.685,35.627-1.699C227.179,142.784,221.48,134.042,225.216,122.537z"/>
			<g>
				<line fill="#A1C453" x1="171.011" y1="157.87" x2="213.018" y2="130.491"/>
				<g>
					<polyline fill="none" stroke="#333333" stroke-width="3.9881" stroke-linecap="round" stroke-miterlimit="10" points="
						172.681,156.781 174.846,155.37 204.22,136.225 206.101,134.999 					"/>
					
						<line fill="none" stroke="#333333" stroke-width="3.9881" stroke-linecap="round" stroke-miterlimit="10" x1="211.347" y1="131.58" x2="211.112" y2="131.732"/>
				</g>
			</g>
		</g>
		<g>
			
				<path fill="#A1C453" stroke="#333333" stroke-width="5.9821" stroke-linecap="round" stroke-linejoin="round" stroke-miterlimit="10" d="
				M50.11,214.6c9.507,1.392,15.088-3.238,27.502,12.68c12.412,15.92-4.11,17.32,4.061,27.793
				c-8.171-10.473-14.336,4.875-26.293-10.455C43.424,229.281,49.951,224.191,50.11,214.6z"/>
			<g>
				<line fill="#A1C453" x1="81.673" y1="255.072" x2="57.215" y2="223.709"/>
				<g>
					<polyline fill="none" stroke="#333333" stroke-width="3.9881" stroke-linecap="round" stroke-miterlimit="10" points="
						80.447,253.5 78.858,251.463 63.673,231.99 62.292,230.22 					"/>
					
						<line fill="none" stroke="#333333" stroke-width="3.9881" stroke-linecap="round" stroke-miterlimit="10" x1="58.441" y1="225.281" x2="58.613" y2="225.503"/>
				</g>
			</g>
		</g>
		<g>
			
				<path fill="#A1C453" stroke="#333333" stroke-width="5.9821" stroke-linecap="round" stroke-linejoin="round" stroke-miterlimit="10" d="
				M31.167,250.105c7.708-5.74,8.378-12.957,28.411-10.479c20.038,2.479,9.344,15.152,22.526,16.78
				c-13.183-1.628-6.69,13.585-25.984,11.197C36.822,265.217,37.839,257.004,31.167,250.105z"/>
			<g>
				<line fill="#A1C453" x1="82.104" y1="256.407" x2="42.633" y2="251.525"/>
				<g>
					<polyline fill="none" stroke="#333333" stroke-width="3.9881" stroke-linecap="round" stroke-miterlimit="10" points="
						80.125,256.162 77.562,255.846 53.055,252.814 50.827,252.539 					"/>
					
						<line fill="none" stroke="#333333" stroke-width="3.9881" stroke-linecap="round" stroke-miterlimit="10" x1="44.612" y1="251.771" x2="44.89" y2="251.805"/>
				</g>
			</g>
		</g>
		<g>
			
				<path fill="#A1C453" stroke="#333333" stroke-width="5.9821" stroke-linecap="round" stroke-linejoin="round" stroke-miterlimit="10" d="
				M30.398,71.208c-1.069,12.067-8.379,17.555,7.517,37.43c15.896,19.876,22.438,0.021,32.896,13.103
				c-10.457-13.082,10.169-16.159-5.137-35.297C50.36,67.298,42.213,73.815,30.398,71.208z"/>
			<g>
				<line fill="#A1C453" x1="70.811" y1="121.741" x2="39.494" y2="82.581"/>
				<g>
					<polyline fill="none" stroke="#333333" stroke-width="3.9881" stroke-linecap="round" stroke-miterlimit="10" points="
						69.565,120.184 67.952,118.166 46.053,90.783 44.651,89.029 					"/>
					
						<line fill="none" stroke="#333333" stroke-width="3.9881" stroke-linecap="round" stroke-miterlimit="10" x1="40.74" y1="84.138" x2="40.915" y2="84.357"/>
				</g>
			</g>
		</g>
		<g>
			
				<path fill="#A1C453" stroke="#333333" stroke-width="3.9881" stroke-linecap="round" stroke-linejoin="round" stroke-miterlimit="10" d="
				M42.889,142.452c6.336,1.138,8.895,5.265,20.162-2.205c11.271-7.472,1.075-11.874,8.49-16.789
				c-7.415,4.915-8.067-6.147-18.92,1.048C41.763,131.704,44.828,136.324,42.889,142.452z"/>
			<g>
				<line fill="#A1C453" x1="71.541" y1="123.458" x2="49.338" y2="138.176"/>
				<g>
					<polyline fill="none" stroke="#333333" stroke-width="3.9881" stroke-linecap="round" stroke-miterlimit="10" points="
						69.879,124.56 67.726,125.987 58.091,132.374 56.22,133.614 					"/>
					
						<line fill="none" stroke="#333333" stroke-width="3.9881" stroke-linecap="round" stroke-miterlimit="10" x1="51" y1="137.075" x2="51.234" y2="136.919"/>
				</g>
			</g>
		</g>
		<g>
			<g>
				<path fill="#D3F46C" d="M192.051,169.161c1.4,10.218-8.548,23.267-15.962,21.034c-7.207,4.733-19.635-5.745-21.032-15.96
					c-1.402-10.214,2.22-20.999,16.896-18.807C184.842,149.578,190.649,158.946,192.051,169.161z"/>
				<g>
					<path fill="none" stroke="#333333" stroke-width="3.9881" stroke-linecap="round" stroke-miterlimit="10" d="M192.183,171.149
						c-0.018,0.86-0.059,1.723-0.202,2.573c-0.338,2.276-1.081,4.48-2.094,6.542c-1.006,2.067-2.312,3.988-3.856,5.689
						c-1.553,1.682-3.393,3.167-5.551,3.987c-1.075,0.402-2.242,0.588-3.384,0.453c-0.288-0.017-0.565-0.097-0.846-0.161
						c-0.146-0.076-0.267,0.021-0.391,0.096l-0.373,0.216c-0.253,0.135-0.524,0.235-0.785,0.355
						c-0.273,0.086-0.547,0.177-0.824,0.25c-2.261,0.533-4.629-0.016-6.697-0.973c-2.089-0.967-3.959-2.361-5.604-3.962
						c-3.258-3.207-5.8-7.327-6.504-11.896c-0.31-2.277-0.383-4.593-0.114-6.876c0.271-2.275,0.897-4.539,2.074-6.518
						c1.161-1.981,2.934-3.601,5.035-4.532c2.098-0.923,4.426-1.32,6.721-1.222c0.576-0.034,1.146,0.065,1.718,0.113l0.858,0.085
						c0.283,0.006,0.582,0.127,0.84-0.04c1.072-0.414,2.123-0.891,3.25-1.138c2.205-0.591,4.581-0.792,6.804-0.152
						c2.226,0.617,4.151,2.068,5.557,3.876c0.337,0.443,0.731,0.938,0.964,1.379l0.379,0.633c0.273,0.412,0.445,0.877,0.668,1.316"
						/>
					
						<line fill="none" stroke="#333333" stroke-width="3.9881" stroke-linecap="round" stroke-miterlimit="10" x1="191.721" y1="167.194" x2="191.659" y2="166.921"/>
				</g>
			</g>
			<path opacity="0.5" fill="#FFFFFF" d="M164.927,168.245c-1.08,2.097-3.351,3.077-5.076,2.187
				c-1.724-0.892-2.247-3.314-1.168-5.412c1.078-2.098,3.353-3.076,5.074-2.186C165.484,163.723,166.006,166.146,164.927,168.245z"
				/>
		</g>
		<path fill="#CC924C" stroke="#333333" stroke-width="10.6342" stroke-linecap="round" stroke-miterlimit="10" d="M99.112,365
			l1.994-276.284c0-4.165,3.377-7.541,7.544-7.541l0,0c4.163,0,7.54,3.376,7.54,7.541L118.185,365"/>
		<g>
			
				<path fill="#A1C453" stroke="#333333" stroke-width="3.9881" stroke-linecap="round" stroke-linejoin="round" stroke-miterlimit="10" d="
				M114.469,80.573c0,0-4.459-10.861-5.908-12.767c-1.152-1.535-3.74,10.758-3.869,15.339L114.469,80.573z"/>
			
				<path fill="#A1C453" stroke="#333333" stroke-width="3.9881" stroke-linecap="round" stroke-linejoin="round" stroke-miterlimit="10" d="
				M105.196,79.627l12.064,13.444c0,0,2.674-17.772-1.736-23.862C115.524,69.209,110.084,76.02,105.196,79.627z"/>
			
				<path fill="#A1C453" stroke="#333333" stroke-width="3.9881" stroke-linecap="round" stroke-linejoin="round" stroke-miterlimit="10" d="
				M102.859,101.06c0,0-8.847-20.487-2.139-31.851l10.896,13.437L102.859,101.06z"/>
		</g>
		<g>
			
				<path fill="#FFFFFF" stroke="#333333" stroke-width="3.9881" stroke-linecap="round" stroke-linejoin="round" stroke-miterlimit="10" d="
				M69.494,127.937c1.546,0.892,1.577,4.449,1.307,7.11c-0.481,4.796-5.248,10.517-10.108,7.711
				c-4.884-2.818-2.337-9.822,1.558-12.647C64.42,128.545,67.938,127.037,69.494,127.937z"/>
			
				<path fill="#FFFFFF" stroke="#333333" stroke-width="3.9881" stroke-linecap="round" stroke-linejoin="round" stroke-miterlimit="10" d="
				M69.886,127.673c-0.002-1.785,3.063-3.59,5.503-4.686c4.396-1.982,11.732-0.714,11.732,4.898c0,5.639-7.337,6.935-11.73,4.973
				C72.948,131.764,69.884,129.47,69.886,127.673z"/>
			
				<path fill="#FFFFFF" stroke="#333333" stroke-width="3.9881" stroke-linecap="round" stroke-linejoin="round" stroke-miterlimit="10" d="
				M69.49,127.47c-1.546,0.894-4.643-0.858-6.812-2.423c-3.914-2.815-6.484-9.804-1.624-12.61c4.884-2.819,9.674,2.888,10.173,7.672
				C71.5,122.771,71.046,126.573,69.49,127.47z"/>
			
				<path fill="#FFFFFF" stroke="#333333" stroke-width="3.9881" stroke-linecap="round" stroke-linejoin="round" stroke-miterlimit="10" d="
				M69.005,127.817c0,1.786-3.064,3.59-5.505,4.686c-4.395,1.98-11.732,0.714-11.732-4.899c0-5.637,7.338-6.935,11.732-4.973
				C65.94,123.727,69.005,126.019,69.005,127.817z"/>
			
				<path fill="#FFFFFF" stroke="#333333" stroke-width="3.9881" stroke-linecap="round" stroke-linejoin="round" stroke-miterlimit="10" d="
				M69.426,128.008c1.544-0.893,4.641,0.859,6.81,2.423c3.914,2.815,6.484,9.804,1.624,12.609c-4.884,2.82-9.674-2.887-10.172-7.672
				C67.414,132.707,67.868,128.905,69.426,128.008z"/>
			
				<path fill="#FFFFFF" stroke="#333333" stroke-width="3.9881" stroke-linecap="round" stroke-linejoin="round" stroke-miterlimit="10" d="
				M69.339,127.514c-1.547-0.891-1.578-4.448-1.307-7.109c0.48-4.797,5.247-10.518,10.107-7.711
				c4.885,2.82,2.337,9.822-1.558,12.646C74.413,126.907,70.895,128.414,69.339,127.514z"/>
			
				<circle fill="#F9D53E" stroke="#333333" stroke-width="3.9881" stroke-linecap="round" stroke-linejoin="round" stroke-miterlimit="10" cx="69.005" cy="127.817" r="3.709"/>
		</g>
	</g>
</g>
<g id="calque06">
	<g>
		
			<polygon fill="#CC924C" stroke="#333333" stroke-width="3.1904" stroke-linecap="round" stroke-linejoin="round" stroke-miterlimit="10" points="
			70.823,121.741 101.119,147.49 101.119,136.237 		"/>
		
			<polygon fill="#CC924C" stroke="#333333" stroke-width="3.9881" stroke-linecap="round" stroke-linejoin="round" stroke-miterlimit="10" points="
			171.615,156.241 116.202,212.78 116.202,201.527 		"/>
		
			<polygon fill="#CC924C" stroke="#333333" stroke-width="3.9881" stroke-linecap="round" stroke-linejoin="round" stroke-miterlimit="10" points="
			79.979,253.93 99.511,276.107 99.511,268.845 		"/>
		<g>
			
				<path fill="#A1C453" stroke="#333333" stroke-width="5.9821" stroke-linecap="round" stroke-linejoin="round" stroke-miterlimit="10" d="
				M169.103,267.174c-10.134-3.542-13.257-11.012-33.787-1.676c-20.528,9.336-4.894,19.27-18.402,25.416
				c13.509-6.146,11.669,12.244,31.441,3.252C168.127,285.173,164.299,276.756,169.103,267.174z"/>
			<g>
				<line fill="#A1C453" x1="116.913" y1="290.914" x2="157.36" y2="272.52"/>
				<g>
					<polyline fill="none" stroke="#333333" stroke-width="3.9881" stroke-linecap="round" stroke-miterlimit="10" points="
						118.728,290.089 121.08,289.019 147.801,276.867 149.845,275.938 					"/>
					
						<line fill="none" stroke="#333333" stroke-width="3.9881" stroke-linecap="round" stroke-miterlimit="10" x1="155.545" y1="273.345" x2="155.29" y2="273.461"/>
				</g>
			</g>
		</g>
		<g>
			
				<path fill="#A1C453" stroke="#333333" stroke-width="3.9881" stroke-linecap="round" stroke-linejoin="round" stroke-miterlimit="10" d="
				M140.021,65.081c0.654,6.426,4.59,9.3-3.747,20.009c-8.336,10.709-11.964,0.169-17.448,7.218
				c5.484-7.048-5.535-8.545,2.493-18.858C129.347,63.134,133.738,66.552,140.021,65.081z"/>
			<g>
				<line fill="#A1C453" x1="118.825" y1="92.308" x2="135.249" y2="71.207"/>
				<g>
					<polyline fill="none" stroke="#333333" stroke-width="3.9881" stroke-linecap="round" stroke-miterlimit="10" points="
						120.05,90.734 121.637,88.696 128.799,79.494 130.178,77.723 					"/>
					
						<line fill="none" stroke="#333333" stroke-width="3.9881" stroke-linecap="round" stroke-miterlimit="10" x1="134.024" y1="72.781" x2="133.852" y2="73.002"/>
				</g>
			</g>
		</g>
		<g>
			
				<path fill="#A1C453" stroke="#333333" stroke-width="5.9821" stroke-linecap="round" stroke-linejoin="round" stroke-miterlimit="10" d="
				M184.116,92.805c-9.997,6.84-18.877,4.683-24.127,29.585c-5.25,24.903,14.239,17.342,10.784,33.728
				c3.455-16.386,18.936-2.414,23.991-26.396C199.819,105.734,189.612,103.583,184.116,92.805z"/>
			<g>
				<line fill="#A1C453" x1="170.773" y1="156.118" x2="181.118" y2="107.055"/>
				<g>
					<polyline fill="none" stroke="#333333" stroke-width="3.9881" stroke-linecap="round" stroke-miterlimit="10" points="
						171.185,154.167 171.718,151.639 178.952,117.33 179.415,115.134 					"/>
					
						<line fill="none" stroke="#333333" stroke-width="3.9881" stroke-linecap="round" stroke-miterlimit="10" x1="180.707" y1="109.006" x2="180.649" y2="109.28"/>
				</g>
			</g>
		</g>
		<g>
			
				<path fill="#A1C453" stroke="#333333" stroke-width="5.9821" stroke-linecap="round" stroke-linejoin="round" stroke-miterlimit="10" d="
				M225.228,122.537c-11.905-2.233-16.661-10.038-37.979,3.859c-21.319,13.898-2.193,22.332-16.226,31.474
				c14.032-9.143,15.1,11.685,35.628-1.699C227.19,142.784,221.493,134.042,225.228,122.537z"/>
			<g>
				<line fill="#A1C453" x1="171.022" y1="157.87" x2="213.03" y2="130.491"/>
				<g>
					<polyline fill="none" stroke="#333333" stroke-width="3.9881" stroke-linecap="round" stroke-miterlimit="10" points="
						172.693,156.781 174.857,155.37 204.232,136.225 206.113,134.999 					"/>
					
						<line fill="none" stroke="#333333" stroke-width="3.9881" stroke-linecap="round" stroke-miterlimit="10" x1="211.36" y1="131.58" x2="211.125" y2="131.732"/>
				</g>
			</g>
		</g>
		<g>
			
				<path fill="#A1C453" stroke="#333333" stroke-width="5.9821" stroke-linecap="round" stroke-linejoin="round" stroke-miterlimit="10" d="
				M50.123,214.6c9.507,1.392,15.088-3.238,27.502,12.68c12.412,15.92-4.11,17.32,4.06,27.793
				c-8.17-10.473-14.336,4.875-26.292-10.455C43.437,229.281,49.964,224.191,50.123,214.6z"/>
			<g>
				<line fill="#A1C453" x1="81.685" y1="255.072" x2="57.227" y2="223.709"/>
				<g>
					<polyline fill="none" stroke="#333333" stroke-width="3.9881" stroke-linecap="round" stroke-miterlimit="10" points="
						80.458,253.5 78.87,251.463 63.685,231.99 62.304,230.22 					"/>
					
						<line fill="none" stroke="#333333" stroke-width="3.9881" stroke-linecap="round" stroke-miterlimit="10" x1="58.453" y1="225.281" x2="58.625" y2="225.503"/>
				</g>
			</g>
		</g>
		<g>
			
				<path fill="#A1C453" stroke="#333333" stroke-width="5.9821" stroke-linecap="round" stroke-linejoin="round" stroke-miterlimit="10" d="
				M31.18,250.105c7.708-5.74,8.378-12.957,28.411-10.479c20.038,2.479,9.344,15.152,22.526,16.78
				c-13.183-1.628-6.69,13.585-25.984,11.197C36.835,265.217,37.852,257.004,31.18,250.105z"/>
			<g>
				<line fill="#A1C453" x1="82.117" y1="256.407" x2="42.646" y2="251.525"/>
				<g>
					<polyline fill="none" stroke="#333333" stroke-width="3.9881" stroke-linecap="round" stroke-miterlimit="10" points="
						80.138,256.162 77.574,255.846 53.068,252.814 50.839,252.539 					"/>
					
						<line fill="none" stroke="#333333" stroke-width="3.9881" stroke-linecap="round" stroke-miterlimit="10" x1="44.625" y1="251.771" x2="44.903" y2="251.805"/>
				</g>
			</g>
		</g>
		<g>
			
				<path fill="#A1C453" stroke="#333333" stroke-width="3.9881" stroke-linecap="round" stroke-linejoin="round" stroke-miterlimit="10" d="
				M33.26,118.229c4.226,5.051,3.526,9.97,17.278,11.5c13.752,1.53,8.634-8.619,17.684-7.61c-9.05-1.009-2.304-10.12-15.546-11.594
				C39.429,109.053,38.802,114.69,33.26,118.229z"/>
			<g>
				<line fill="#A1C453" x1="68.222" y1="122.12" x2="41.127" y2="119.104"/>
				<g>
					<polyline fill="none" stroke="#333333" stroke-width="3.9881" stroke-linecap="round" stroke-miterlimit="10" points="
						66.24,121.899 63.672,121.614 51.564,120.266 49.333,120.017 					"/>
					
						<line fill="none" stroke="#333333" stroke-width="3.9881" stroke-linecap="round" stroke-miterlimit="10" x1="43.109" y1="119.324" x2="43.387" y2="119.355"/>
				</g>
			</g>
		</g>
		<g>
			
				<path fill="#A1C453" stroke="#333333" stroke-width="5.9821" stroke-linecap="round" stroke-linejoin="round" stroke-miterlimit="10" d="
				M30.411,71.208c-1.069,12.067-8.38,17.555,7.517,37.43c15.896,19.876,22.438,0.021,32.896,13.103
				c-10.457-13.082,10.168-16.159-5.137-35.297C50.372,67.298,42.225,73.815,30.411,71.208z"/>
			<g>
				<line fill="#A1C453" x1="70.823" y1="121.741" x2="39.507" y2="82.581"/>
				<g>
					<polyline fill="none" stroke="#333333" stroke-width="3.9881" stroke-linecap="round" stroke-miterlimit="10" points="
						69.578,120.184 67.964,118.166 46.065,90.783 44.664,89.029 					"/>
					
						<line fill="none" stroke="#333333" stroke-width="3.9881" stroke-linecap="round" stroke-miterlimit="10" x1="40.752" y1="84.138" x2="40.927" y2="84.357"/>
				</g>
			</g>
		</g>
		<g>
			
				<path fill="#A1C453" stroke="#333333" stroke-width="5.9821" stroke-linecap="round" stroke-linejoin="round" stroke-miterlimit="10" d="
				M28.505,151.64c9.368,1.683,13.151,7.784,29.813-3.262c16.667-11.048,1.589-17.557,12.557-24.824
				c-10.968,7.268-11.932-9.089-27.979,1.551C26.841,135.746,31.371,142.579,28.505,151.64z"/>
			<g>
				<line fill="#A1C453" x1="70.874" y1="123.554" x2="38.04" y2="145.318"/>
				<g>
					<polyline fill="none" stroke="#333333" stroke-width="3.9881" stroke-linecap="round" stroke-miterlimit="10" points="
						69.212,124.656 67.059,126.083 46.793,139.516 44.922,140.756 					"/>
					
						<line fill="none" stroke="#333333" stroke-width="3.9881" stroke-linecap="round" stroke-miterlimit="10" x1="39.702" y1="144.216" x2="39.936" y2="144.061"/>
				</g>
			</g>
		</g>
		<g>
			<g>
				<path fill="#D3F46C" d="M198.679,176.7c1.898,13.858-11.593,31.557-21.648,28.528c-9.773,6.419-26.627-7.791-28.525-21.647
					c-1.901-13.853,3.012-28.479,22.917-25.507C188.903,150.142,196.778,162.847,198.679,176.7z"/>
				<g>
					<path fill="none" stroke="#333333" stroke-width="5.9821" stroke-linecap="round" stroke-miterlimit="10" d="M198.85,179.683
						c0.002,1.293-0.164,2.579-0.367,3.854c-0.545,3.022-1.569,5.954-2.972,8.685c-1.396,2.734-3.148,5.294-5.258,7.527
						c-2.104,2.215-4.581,4.187-7.493,5.21c-1.448,0.502-3.008,0.729-4.532,0.52c-0.384-0.029-0.75-0.159-1.126-0.234
						c-0.348,0.086-0.669,0.355-1.004,0.523c-0.353,0.15-0.701,0.316-1.059,0.452c-0.369,0.105-0.729,0.246-1.105,0.321
						c-3.024,0.687-6.183-0.048-8.949-1.321c-2.795-1.284-5.294-3.145-7.508-5.266c-2.212-2.13-4.127-4.568-5.673-7.222
						c-1.527-2.658-2.708-5.548-3.202-8.585c-0.475-3.032-0.615-6.125-0.316-9.183c0.301-3.049,1.049-6.091,2.504-8.803
						c1.437-2.711,3.668-5.014,6.404-6.424c2.726-1.448,5.838-1.983,8.896-2.046c1.534,0.005,3.073,0.068,4.593,0.29
						c0.787,0.273,1.459-0.272,2.174-0.517c0.718-0.271,1.433-0.555,2.169-0.773c2.917-0.924,6.049-1.363,9.084-0.817
						c3.038,0.527,5.817,2.174,7.885,4.438c0.261,0.281,0.521,0.564,0.754,0.869c0.231,0.28,0.511,0.635,0.672,0.875
						c0.214,0.301,0.435,0.598,0.625,0.915c0.405,0.618,0.768,1.262,1.111,1.916"/>
					
						<line fill="none" stroke="#333333" stroke-width="5.9821" stroke-linecap="round" stroke-miterlimit="10" x1="198.174" y1="173.752" x2="198.087" y2="173.341"/>
				</g>
			</g>
			<path opacity="0.5" fill="#FFFFFF" d="M161.892,175.458c-1.464,2.845-4.545,4.173-6.885,2.966
				c-2.337-1.209-3.046-4.496-1.584-7.341c1.465-2.846,4.547-4.172,6.884-2.964C162.647,169.326,163.356,172.611,161.892,175.458z"
				/>
		</g>
		<path fill="#CC924C" stroke="#333333" stroke-width="10.6342" stroke-linecap="round" stroke-miterlimit="10" d="M99.125,365
			l1.994-304.47c0-4.164,3.376-7.541,7.544-7.541l0,0c4.163,0,7.539,3.376,7.539,7.541L118.196,365"/>
		<g>
			
				<path fill="#A1C453" stroke="#333333" stroke-width="3.9881" stroke-linecap="round" stroke-linejoin="round" stroke-miterlimit="10" d="
				M114.481,52.386c0,0-4.459-10.861-5.908-12.766c-1.152-1.535-3.741,10.758-3.869,15.339L114.481,52.386z"/>
			
				<path fill="#A1C453" stroke="#333333" stroke-width="3.9881" stroke-linecap="round" stroke-linejoin="round" stroke-miterlimit="10" d="
				M105.208,51.441l12.065,13.444c0,0,2.674-17.772-1.736-23.862C115.537,41.023,110.096,47.833,105.208,51.441z"/>
			
				<path fill="#A1C453" stroke="#333333" stroke-width="3.9881" stroke-linecap="round" stroke-linejoin="round" stroke-miterlimit="10" d="
				M102.871,72.874c0,0-8.847-20.488-2.138-31.851l10.896,13.437L102.871,72.874z"/>
		</g>
		<g>
			<g>
				<path fill="#D3F46C" d="M84.351,139.915c1.4,10.217-8.549,23.267-15.962,21.034c-7.207,4.734-19.635-5.745-21.032-15.96
					c-1.402-10.215,2.22-20.999,16.896-18.807C77.142,120.332,82.948,129.7,84.351,139.915z"/>
				<g>
					<path fill="none" stroke="#333333" stroke-width="3.9881" stroke-linecap="round" stroke-miterlimit="10" d="M84.482,141.903
						c-0.018,0.86-0.059,1.723-0.202,2.573c-0.338,2.275-1.081,4.48-2.095,6.542c-1.006,2.067-2.312,3.988-3.856,5.689
						c-1.553,1.683-3.393,3.167-5.551,3.987c-1.075,0.402-2.242,0.588-3.384,0.453c-0.288-0.017-0.565-0.097-0.845-0.161
						c-0.146-0.076-0.267,0.021-0.391,0.096l-0.373,0.216c-0.253,0.135-0.524,0.236-0.785,0.355
						c-0.274,0.087-0.547,0.178-0.825,0.251c-2.26,0.533-4.629-0.016-6.697-0.974c-2.089-0.966-3.958-2.361-5.604-3.962
						c-3.258-3.207-5.8-7.327-6.504-11.896c-0.31-2.277-0.383-4.592-0.114-6.875c0.271-2.276,0.897-4.54,2.074-6.518
						c1.161-1.98,2.934-3.6,5.035-4.531c2.098-0.923,4.426-1.32,6.721-1.222c0.576-0.034,1.146,0.065,1.718,0.113l0.858,0.085
						c0.283,0.006,0.582,0.127,0.84-0.04c1.071-0.415,2.123-0.892,3.25-1.138c2.205-0.591,4.582-0.792,6.805-0.152
						c2.226,0.617,4.151,2.068,5.556,3.876c0.337,0.443,0.731,0.938,0.964,1.379l0.379,0.633c0.273,0.412,0.446,0.877,0.668,1.316"
						/>
					
						<line fill="none" stroke="#333333" stroke-width="3.9881" stroke-linecap="round" stroke-miterlimit="10" x1="84.021" y1="137.948" x2="83.958" y2="137.675"/>
				</g>
			</g>
			<path opacity="0.5" fill="#FFFFFF" d="M57.227,138.998c-1.08,2.097-3.351,3.077-5.076,2.187
				c-1.724-0.892-2.247-3.314-1.169-5.413c1.079-2.098,3.354-3.076,5.075-2.186C57.784,134.477,58.306,136.9,57.227,138.998z"/>
		</g>
	</g>
</g>
<g id="calque07">
	<g>
		
			<polygon fill="#CC924C" stroke="#333333" stroke-width="3.9881" stroke-linecap="round" stroke-linejoin="round" stroke-miterlimit="10" points="
			141.047,70.867 115.625,97.868 115.625,86.614 		"/>
		
			<polygon fill="#CC924C" stroke="#333333" stroke-width="3.1904" stroke-linecap="round" stroke-linejoin="round" stroke-miterlimit="10" points="
			70.81,121.741 101.106,147.49 101.106,136.237 		"/>
		
			<polygon fill="#CC924C" stroke="#333333" stroke-width="3.9881" stroke-linecap="round" stroke-linejoin="round" stroke-miterlimit="10" points="
			171.602,156.241 116.189,212.78 116.189,201.527 		"/>
		
			<polygon fill="#CC924C" stroke="#333333" stroke-width="3.9881" stroke-linecap="round" stroke-linejoin="round" stroke-miterlimit="10" points="
			79.966,253.93 99.497,276.107 99.497,268.845 		"/>
		<g>
			
				<path fill="#A1C453" stroke="#333333" stroke-width="5.9821" stroke-linecap="round" stroke-linejoin="round" stroke-miterlimit="10" d="
				M169.09,267.174c-10.134-3.542-13.257-11.012-33.787-1.676c-20.528,9.336-4.894,19.27-18.402,25.416
				c13.509-6.146,11.668,12.244,31.441,3.252C168.114,285.173,164.286,276.756,169.09,267.174z"/>
			<g>
				<line fill="#A1C453" x1="116.9" y1="290.914" x2="157.348" y2="272.52"/>
				<g>
					<polyline fill="none" stroke="#333333" stroke-width="3.9881" stroke-linecap="round" stroke-miterlimit="10" points="
						118.715,290.089 121.067,289.019 147.788,276.867 149.832,275.938 					"/>
					
						<line fill="none" stroke="#333333" stroke-width="3.9881" stroke-linecap="round" stroke-miterlimit="10" x1="155.533" y1="273.345" x2="155.277" y2="273.461"/>
				</g>
			</g>
		</g>
		<g>
			
				<path fill="#A1C453" stroke="#333333" stroke-width="5.9821" stroke-linecap="round" stroke-linejoin="round" stroke-miterlimit="10" d="
				M176.266,25.622c1.091,10.679,7.63,15.456-6.224,33.252c-13.853,17.796-19.882,0.281-28.995,11.993
				c9.113-11.712-9.199-14.198,4.144-31.337C158.531,22.388,165.828,28.068,176.266,25.622z"/>
			<g>
				<line fill="#A1C453" x1="141.047" y1="70.867" x2="168.338" y2="35.803"/>
				<g>
					<polyline fill="none" stroke="#333333" stroke-width="3.9881" stroke-linecap="round" stroke-miterlimit="10" points="
						142.271,69.293 143.858,67.255 161.888,44.09 163.267,42.319 					"/>
					
						<line fill="none" stroke="#333333" stroke-width="3.9881" stroke-linecap="round" stroke-miterlimit="10" x1="167.113" y1="37.377" x2="166.941" y2="37.598"/>
				</g>
			</g>
		</g>
		<g>
			
				<path fill="#A1C453" stroke="#333333" stroke-width="5.9821" stroke-linecap="round" stroke-linejoin="round" stroke-miterlimit="10" d="
				M184.104,92.805c-9.997,6.84-18.877,4.683-24.127,29.585c-5.25,24.903,14.238,17.342,10.784,33.728
				c3.454-16.386,18.936-2.414,23.99-26.396C199.807,105.734,189.599,103.583,184.104,92.805z"/>
			<g>
				<line fill="#A1C453" x1="170.761" y1="156.118" x2="181.104" y2="107.055"/>
				<g>
					<polyline fill="none" stroke="#333333" stroke-width="3.9881" stroke-linecap="round" stroke-miterlimit="10" points="
						171.172,154.167 171.705,151.639 178.938,117.331 179.401,115.134 					"/>
					
						<line fill="none" stroke="#333333" stroke-width="3.9881" stroke-linecap="round" stroke-miterlimit="10" x1="180.693" y1="109.006" x2="180.635" y2="109.28"/>
				</g>
			</g>
		</g>
		<g>
			
				<path fill="#A1C453" stroke="#333333" stroke-width="5.9821" stroke-linecap="round" stroke-linejoin="round" stroke-miterlimit="10" d="
				M225.215,122.537c-11.905-2.233-16.661-10.038-37.98,3.859c-21.318,13.898-2.192,22.332-16.225,31.474
				c14.032-9.143,15.1,11.685,35.628-1.699C227.178,142.784,221.479,134.042,225.215,122.537z"/>
			<g>
				<line fill="#A1C453" x1="171.01" y1="157.87" x2="213.017" y2="130.491"/>
				<g>
					<polyline fill="none" stroke="#333333" stroke-width="3.9881" stroke-linecap="round" stroke-miterlimit="10" points="
						172.68,156.781 174.845,155.37 204.219,136.225 206.1,134.999 					"/>
					
						<line fill="none" stroke="#333333" stroke-width="3.9881" stroke-linecap="round" stroke-miterlimit="10" x1="211.346" y1="131.58" x2="211.111" y2="131.732"/>
				</g>
			</g>
		</g>
		<g>
			
				<path fill="#A1C453" stroke="#333333" stroke-width="5.9821" stroke-linecap="round" stroke-linejoin="round" stroke-miterlimit="10" d="
				M50.11,214.6c9.507,1.392,15.088-3.238,27.502,12.68c12.412,15.92-4.111,17.32,4.06,27.793
				c-8.171-10.473-14.336,4.875-26.292-10.455C43.423,229.281,49.95,224.191,50.11,214.6z"/>
			<g>
				<line fill="#A1C453" x1="81.672" y1="255.072" x2="57.214" y2="223.709"/>
				<g>
					<polyline fill="none" stroke="#333333" stroke-width="3.9881" stroke-linecap="round" stroke-miterlimit="10" points="
						80.446,253.5 78.857,251.463 63.672,231.99 62.291,230.22 					"/>
					
						<line fill="none" stroke="#333333" stroke-width="3.9881" stroke-linecap="round" stroke-miterlimit="10" x1="58.44" y1="225.281" x2="58.612" y2="225.503"/>
				</g>
			</g>
		</g>
		<g>
			
				<path fill="#A1C453" stroke="#333333" stroke-width="5.9821" stroke-linecap="round" stroke-linejoin="round" stroke-miterlimit="10" d="
				M31.167,250.105c7.707-5.74,8.377-12.957,28.411-10.479c20.037,2.479,9.343,15.152,22.526,16.78
				c-13.184-1.628-6.691,13.585-25.985,11.197C36.822,265.217,37.839,257.004,31.167,250.105z"/>
			<g>
				<line fill="#A1C453" x1="82.104" y1="256.407" x2="42.633" y2="251.525"/>
				<g>
					<polyline fill="none" stroke="#333333" stroke-width="3.9881" stroke-linecap="round" stroke-miterlimit="10" points="
						80.125,256.162 77.562,255.846 53.055,252.814 50.827,252.539 					"/>
					
						<line fill="none" stroke="#333333" stroke-width="3.9881" stroke-linecap="round" stroke-miterlimit="10" x1="44.612" y1="251.771" x2="44.89" y2="251.805"/>
				</g>
			</g>
		</g>
		<g>
			
				<path fill="#A1C453" stroke="#333333" stroke-width="5.9821" stroke-linecap="round" stroke-linejoin="round" stroke-miterlimit="10" d="
				M4.785,115.003c7.773,9.29,6.488,18.338,31.779,21.153c25.296,2.814,15.883-15.852,32.528-13.997
				c-16.646-1.855-4.237-18.616-28.595-21.325C16.134,98.124,14.981,108.493,4.785,115.003z"/>
			<g>
				<line fill="#A1C453" x1="69.093" y1="122.16" x2="19.257" y2="116.612"/>
				<g>
					<polyline fill="none" stroke="#333333" stroke-width="3.9881" stroke-linecap="round" stroke-miterlimit="10" points="
						67.111,121.939 64.543,121.653 29.694,117.774 27.463,117.526 					"/>
					
						<line fill="none" stroke="#333333" stroke-width="3.9881" stroke-linecap="round" stroke-miterlimit="10" x1="21.239" y1="116.833" x2="21.517" y2="116.864"/>
				</g>
			</g>
		</g>
		<g>
			
				<path fill="#A1C453" stroke="#333333" stroke-width="5.9821" stroke-linecap="round" stroke-linejoin="round" stroke-miterlimit="10" d="
				M30.397,71.208c-1.068,12.067-8.379,17.555,7.517,37.43c15.896,19.876,22.438,0.021,32.896,13.103
				c-10.457-13.082,10.169-16.159-5.137-35.297C50.359,67.298,42.212,73.815,30.397,71.208z"/>
			<g>
				<line fill="#A1C453" x1="70.81" y1="121.741" x2="39.493" y2="82.581"/>
				<g>
					<polyline fill="none" stroke="#333333" stroke-width="3.9881" stroke-linecap="round" stroke-miterlimit="10" points="
						69.564,120.184 67.951,118.166 46.052,90.783 44.65,89.029 					"/>
					
						<line fill="none" stroke="#333333" stroke-width="3.9881" stroke-linecap="round" stroke-miterlimit="10" x1="40.738" y1="84.138" x2="40.914" y2="84.357"/>
				</g>
			</g>
		</g>
		<g>
			
				<path fill="#A1C453" stroke="#333333" stroke-width="5.9821" stroke-linecap="round" stroke-linejoin="round" stroke-miterlimit="10" d="
				M28.491,151.64c9.368,1.683,13.152,7.784,29.813-3.262c16.667-11.048,1.589-17.557,12.556-24.824
				c-10.967,7.268-11.931-9.089-27.979,1.551C26.828,135.746,31.357,142.579,28.491,151.64z"/>
			<g>
				<line fill="#A1C453" x1="70.86" y1="123.554" x2="38.027" y2="145.318"/>
				<g>
					<polyline fill="none" stroke="#333333" stroke-width="3.9881" stroke-linecap="round" stroke-miterlimit="10" points="
						69.198,124.656 67.045,126.083 46.78,139.516 44.909,140.756 					"/>
					
						<line fill="none" stroke="#333333" stroke-width="3.9881" stroke-linecap="round" stroke-miterlimit="10" x1="39.689" y1="144.216" x2="39.923" y2="144.061"/>
				</g>
			</g>
		</g>
		<g>
			<g>
				<path fill="#EF4529" d="M198.665,176.7c1.898,13.858-11.592,31.557-21.647,28.528c-9.773,6.419-26.628-7.791-28.526-21.647
					c-1.9-13.853,3.013-28.479,22.918-25.507C188.89,150.142,196.765,162.847,198.665,176.7z"/>
				<g>
					<path fill="none" stroke="#333333" stroke-width="5.9821" stroke-linecap="round" stroke-miterlimit="10" d="M198.836,179.683
						c0.002,1.293-0.164,2.579-0.366,3.854c-0.546,3.022-1.569,5.954-2.972,8.685c-1.396,2.734-3.148,5.294-5.258,7.527
						c-2.104,2.215-4.581,4.187-7.493,5.21c-1.447,0.502-3.008,0.729-4.532,0.52c-0.384-0.029-0.75-0.159-1.126-0.234
						c-0.348,0.086-0.668,0.355-1.004,0.523c-0.353,0.15-0.7,0.316-1.059,0.452c-0.369,0.105-0.729,0.246-1.105,0.321
						c-3.024,0.687-6.183-0.048-8.949-1.321c-2.795-1.284-5.294-3.145-7.508-5.266c-2.212-2.129-4.127-4.568-5.673-7.222
						c-1.527-2.657-2.709-5.547-3.202-8.584c-0.475-3.032-0.614-6.125-0.315-9.183c0.302-3.049,1.049-6.091,2.505-8.803
						c1.437-2.711,3.668-5.015,6.403-6.424c2.726-1.448,5.838-1.984,8.896-2.046c1.534,0.005,3.073,0.068,4.593,0.29
						c0.787,0.273,1.459-0.271,2.173-0.517c0.718-0.271,1.433-0.555,2.169-0.773c2.917-0.924,6.05-1.363,9.084-0.817
						c3.038,0.527,5.818,2.174,7.885,4.438c0.261,0.281,0.521,0.564,0.754,0.869c0.231,0.28,0.511,0.635,0.672,0.875
						c0.214,0.301,0.435,0.598,0.625,0.915c0.405,0.618,0.768,1.262,1.111,1.916"/>
					
						<line fill="none" stroke="#333333" stroke-width="5.9821" stroke-linecap="round" stroke-miterlimit="10" x1="198.16" y1="173.752" x2="198.073" y2="173.341"/>
				</g>
			</g>
			<path opacity="0.5" fill="#FFFFFF" d="M161.879,175.458c-1.464,2.845-4.545,4.173-6.886,2.966
				c-2.337-1.209-3.045-4.496-1.583-7.341c1.465-2.846,4.547-4.172,6.884-2.964C162.635,169.326,163.344,172.611,161.879,175.458z"
				/>
		</g>
		<g>
			<g>
				<path fill="#D3F46C" d="M85.099,153.99c-4.377,13.283-24.265,23.266-31.972,16.128c-11.599,1.478-20.503-18.69-16.128-31.973
					c4.374-13.281,15.21-24.265,31.79-12.854C87.978,125.837,89.475,140.709,85.099,153.99z"/>
				<g>
					<path fill="none" stroke="#333333" stroke-width="5.9821" stroke-linecap="round" stroke-miterlimit="10" d="M83.942,156.745
						c-0.565,1.163-1.279,2.246-2.021,3.302c-1.817,2.476-4.024,4.661-6.482,6.499c-2.454,1.844-5.152,3.375-8.028,4.455
						c-2.863,1.066-5.954,1.75-9.02,1.391c-1.521-0.185-3.022-0.666-4.299-1.523c-0.332-0.195-0.604-0.473-0.909-0.705
						c-0.351-0.075-0.757,0.025-1.132,0.03c-0.383-0.02-0.768-0.023-1.15-0.059c-0.377-0.068-0.763-0.099-1.134-0.196
						c-3.019-0.711-5.534-2.758-7.46-5.117c-1.947-2.38-3.376-5.149-4.434-8.026c-1.053-2.885-1.703-5.917-1.927-8.979
						c-0.205-3.058,0.001-6.173,0.891-9.119c0.905-2.932,2.137-5.773,3.748-8.389c1.61-2.607,3.617-5.012,6.115-6.809
						c2.481-1.806,5.498-2.895,8.574-2.96c3.084-0.104,6.116,0.781,8.891,2.067c1.376,0.679,2.731,1.41,4,2.277
						c0.587,0.591,1.43,0.397,2.18,0.49c0.764,0.072,1.531,0.13,2.288,0.257c3.026,0.45,6.034,1.431,8.521,3.253
						c2.498,1.807,4.273,4.507,5.136,7.449c0.111,0.368,0.22,0.735,0.296,1.112c0.085,0.353,0.18,0.795,0.219,1.082
						c0.061,0.364,0.128,0.728,0.16,1.096c0.092,0.733,0.136,1.471,0.157,2.209"/>
					
						<line fill="none" stroke="#333333" stroke-width="5.9821" stroke-linecap="round" stroke-miterlimit="10" x1="85.939" y1="151.12" x2="86.042" y2="150.712"/>
				</g>
			</g>
			<path opacity="0.5" fill="#FFFFFF" d="M52.595,136.724c-2.566,1.914-5.918,1.753-7.487-0.358
				c-1.573-2.113-0.765-5.377,1.798-7.291c2.566-1.913,5.918-1.752,7.487,0.359S55.155,134.81,52.595,136.724z"/>
		</g>
		<path fill="#CC924C" stroke="#333333" stroke-width="10.6342" stroke-linecap="round" stroke-miterlimit="10" d="M99.112,365
			l1.994-328.958c0-4.165,3.376-7.541,7.543-7.541l0,0c4.164,0,7.54,3.376,7.54,7.541L118.184,365"/>
		<g>
			
				<path fill="#A1C453" stroke="#333333" stroke-width="3.9881" stroke-linecap="round" stroke-linejoin="round" stroke-miterlimit="10" d="
				M114.468,27.898c0,0-4.459-10.861-5.907-12.767c-1.153-1.535-3.741,10.758-3.87,15.339L114.468,27.898z"/>
			
				<path fill="#A1C453" stroke="#333333" stroke-width="3.9881" stroke-linecap="round" stroke-linejoin="round" stroke-miterlimit="10" d="
				M105.195,26.953l12.065,13.444c0,0,2.674-17.772-1.737-23.862C115.523,16.535,110.083,23.345,105.195,26.953z"/>
			
				<path fill="#A1C453" stroke="#333333" stroke-width="3.9881" stroke-linecap="round" stroke-linejoin="round" stroke-miterlimit="10" d="
				M102.858,48.386c0,0-8.847-20.487-2.138-31.851l10.895,13.437L102.858,48.386z"/>
		</g>
	</g>
</g>
<g id="calque08">
	<g>
		
			<polygon fill="#CC924C" stroke="#333333" stroke-width="3.9881" stroke-linecap="round" stroke-linejoin="round" stroke-miterlimit="10" points="
			141.047,70.867 115.625,97.868 115.625,86.614 		"/>
		
			<polygon fill="#CC924C" stroke="#333333" stroke-width="3.1904" stroke-linecap="round" stroke-linejoin="round" stroke-miterlimit="10" points="
			70.81,121.741 101.105,147.49 101.105,136.237 		"/>
		
			<polygon fill="#CC924C" stroke="#333333" stroke-width="3.9881" stroke-linecap="round" stroke-linejoin="round" stroke-miterlimit="10" points="
			171.602,156.241 116.189,212.779 116.189,201.527 		"/>
		
			<polygon fill="#CC924C" stroke="#333333" stroke-width="3.9881" stroke-linecap="round" stroke-linejoin="round" stroke-miterlimit="10" points="
			79.966,253.93 99.497,276.107 99.497,268.844 		"/>
		<g>
			
				<path fill="#A1C453" stroke="#333333" stroke-width="5.9821" stroke-linecap="round" stroke-linejoin="round" stroke-miterlimit="10" d="
				M169.09,267.174c-10.134-3.543-13.258-11.012-33.788-1.677c-20.528,9.337-4.894,19.271-18.401,25.416
				c13.508-6.146,11.668,12.245,31.44,3.252C168.114,285.172,164.285,276.756,169.09,267.174z"/>
			<g>
				<line fill="#A1C453" x1="116.9" y1="290.913" x2="157.348" y2="272.519"/>
				<g>
					<polyline fill="none" stroke="#333333" stroke-width="3.9881" stroke-linecap="round" stroke-miterlimit="10" points="
						118.715,290.088 121.067,289.018 147.788,276.866 149.832,275.937 					"/>
					
						<line fill="none" stroke="#333333" stroke-width="3.9881" stroke-linecap="round" stroke-miterlimit="10" x1="155.533" y1="273.344" x2="155.277" y2="273.46"/>
				</g>
			</g>
		</g>
		<g>
			
				<path fill="#A1C453" stroke="#333333" stroke-width="5.9821" stroke-linecap="round" stroke-linejoin="round" stroke-miterlimit="10" d="
				M176.266,25.622c1.09,10.679,7.629,15.456-6.224,33.252c-13.854,17.796-19.882,0.281-28.995,11.993
				c9.113-11.712-9.199-14.198,4.144-31.337C158.531,22.388,165.828,28.068,176.266,25.622z"/>
			<g>
				<line fill="#A1C453" x1="141.047" y1="70.867" x2="168.338" y2="35.803"/>
				<g>
					<polyline fill="none" stroke="#333333" stroke-width="3.9881" stroke-linecap="round" stroke-miterlimit="10" points="
						142.271,69.293 143.858,67.255 161.888,44.09 163.267,42.319 					"/>
					
						<line fill="none" stroke="#333333" stroke-width="3.9881" stroke-linecap="round" stroke-miterlimit="10" x1="167.113" y1="37.377" x2="166.941" y2="37.598"/>
				</g>
			</g>
		</g>
		<g>
			
				<path fill="#A1C453" stroke="#333333" stroke-width="5.9821" stroke-linecap="round" stroke-linejoin="round" stroke-miterlimit="10" d="
				M184.104,92.805c-9.998,6.84-18.877,4.683-24.127,29.585c-5.25,24.903,14.238,17.342,10.784,33.728
				c3.454-16.386,18.935-2.414,23.99-26.396C199.807,105.734,189.599,103.583,184.104,92.805z"/>
			<g>
				<line fill="#A1C453" x1="170.761" y1="156.118" x2="181.104" y2="107.055"/>
				<g>
					<polyline fill="none" stroke="#333333" stroke-width="3.9881" stroke-linecap="round" stroke-miterlimit="10" points="
						171.172,154.167 171.705,151.639 178.938,117.331 179.401,115.134 					"/>
					
						<line fill="none" stroke="#333333" stroke-width="3.9881" stroke-linecap="round" stroke-miterlimit="10" x1="180.693" y1="109.006" x2="180.635" y2="109.28"/>
				</g>
			</g>
		</g>
		<g>
			
				<path fill="#A1C453" stroke="#333333" stroke-width="5.9821" stroke-linecap="round" stroke-linejoin="round" stroke-miterlimit="10" d="
				M225.215,122.537c-11.906-2.233-16.661-10.038-37.98,3.859c-21.319,13.898-2.192,22.332-16.225,31.474
				c14.032-9.143,15.1,11.685,35.628-1.699C227.178,142.784,221.479,134.042,225.215,122.537z"/>
			<g>
				<line fill="#A1C453" x1="171.01" y1="157.87" x2="213.017" y2="130.491"/>
				<g>
					<polyline fill="none" stroke="#333333" stroke-width="3.9881" stroke-linecap="round" stroke-miterlimit="10" points="
						172.68,156.781 174.845,155.37 204.219,136.225 206.1,134.999 					"/>
					
						<line fill="none" stroke="#333333" stroke-width="3.9881" stroke-linecap="round" stroke-miterlimit="10" x1="211.346" y1="131.58" x2="211.111" y2="131.732"/>
				</g>
			</g>
		</g>
		<g>
			
				<path fill="#A1C453" stroke="#333333" stroke-width="5.9821" stroke-linecap="round" stroke-linejoin="round" stroke-miterlimit="10" d="
				M50.109,214.599c9.507,1.392,15.088-3.238,27.502,12.681c12.412,15.919-4.11,17.319,4.061,27.792
				c-8.171-10.473-14.336,4.876-26.293-10.455C43.423,229.281,49.95,224.191,50.109,214.599z"/>
			<g>
				<line fill="#A1C453" x1="81.672" y1="255.071" x2="57.214" y2="223.708"/>
				<g>
					<polyline fill="none" stroke="#333333" stroke-width="3.9881" stroke-linecap="round" stroke-miterlimit="10" points="
						80.446,253.499 78.857,251.462 63.672,231.989 62.291,230.219 					"/>
					
						<line fill="none" stroke="#333333" stroke-width="3.9881" stroke-linecap="round" stroke-miterlimit="10" x1="58.44" y1="225.28" x2="58.612" y2="225.502"/>
				</g>
			</g>
		</g>
		<g>
			
				<path fill="#A1C453" stroke="#333333" stroke-width="5.9821" stroke-linecap="round" stroke-linejoin="round" stroke-miterlimit="10" d="
				M31.167,250.105c7.707-5.74,8.377-12.957,28.411-10.479c20.037,2.479,9.343,15.152,22.525,16.779
				c-13.183-1.627-6.69,13.585-25.984,11.197C36.821,265.217,37.838,257.003,31.167,250.105z"/>
			<g>
				<line fill="#A1C453" x1="82.104" y1="256.406" x2="42.633" y2="251.525"/>
				<g>
					<polyline fill="none" stroke="#333333" stroke-width="3.9881" stroke-linecap="round" stroke-miterlimit="10" points="
						80.125,256.161 77.561,255.845 53.055,252.814 50.827,252.539 					"/>
					
						<line fill="none" stroke="#333333" stroke-width="3.9881" stroke-linecap="round" stroke-miterlimit="10" x1="44.612" y1="251.771" x2="44.89" y2="251.805"/>
				</g>
			</g>
		</g>
		<g>
			
				<path fill="#A1C453" stroke="#333333" stroke-width="5.9821" stroke-linecap="round" stroke-linejoin="round" stroke-miterlimit="10" d="
				M4.785,115.003c7.773,9.29,6.488,18.338,31.779,21.153c25.295,2.814,15.882-15.852,32.527-13.997
				c-16.646-1.855-4.237-18.616-28.594-21.325C16.134,98.124,14.98,108.493,4.785,115.003z"/>
			<g>
				<line fill="#A1C453" x1="69.092" y1="122.16" x2="19.257" y2="116.612"/>
				<g>
					<polyline fill="none" stroke="#333333" stroke-width="3.9881" stroke-linecap="round" stroke-miterlimit="10" points="
						67.11,121.939 64.542,121.653 29.694,117.774 27.463,117.526 					"/>
					
						<line fill="none" stroke="#333333" stroke-width="3.9881" stroke-linecap="round" stroke-miterlimit="10" x1="21.239" y1="116.833" x2="21.517" y2="116.864"/>
				</g>
			</g>
		</g>
		<g>
			
				<path fill="#A1C453" stroke="#333333" stroke-width="5.9821" stroke-linecap="round" stroke-linejoin="round" stroke-miterlimit="10" d="
				M30.397,71.208c-1.069,12.067-8.379,17.555,7.517,37.43c15.896,19.876,22.438,0.021,32.896,13.103
				c-10.457-13.082,10.169-16.159-5.137-35.297C50.359,67.298,42.212,73.815,30.397,71.208z"/>
			<g>
				<line fill="#A1C453" x1="70.81" y1="121.741" x2="39.493" y2="82.581"/>
				<g>
					<polyline fill="none" stroke="#333333" stroke-width="3.9881" stroke-linecap="round" stroke-miterlimit="10" points="
						69.564,120.184 67.951,118.166 46.052,90.783 44.65,89.029 					"/>
					
						<line fill="none" stroke="#333333" stroke-width="3.9881" stroke-linecap="round" stroke-miterlimit="10" x1="40.738" y1="84.138" x2="40.914" y2="84.357"/>
				</g>
			</g>
		</g>
		<g>
			
				<path fill="#A1C453" stroke="#333333" stroke-width="5.9821" stroke-linecap="round" stroke-linejoin="round" stroke-miterlimit="10" d="
				M28.491,151.64c9.368,1.683,13.151,7.784,29.813-3.262c16.667-11.048,1.589-17.557,12.557-24.824
				c-10.968,7.268-11.931-9.089-27.979,1.551C26.828,135.746,31.357,142.579,28.491,151.64z"/>
			<g>
				<line fill="#A1C453" x1="70.86" y1="123.554" x2="38.027" y2="145.318"/>
				<g>
					<polyline fill="none" stroke="#333333" stroke-width="3.9881" stroke-linecap="round" stroke-miterlimit="10" points="
						69.198,124.656 67.045,126.083 46.78,139.516 44.909,140.756 					"/>
					
						<line fill="none" stroke="#333333" stroke-width="3.9881" stroke-linecap="round" stroke-miterlimit="10" x1="39.689" y1="144.216" x2="39.923" y2="144.061"/>
				</g>
			</g>
		</g>
		<g>
			<g>
				<path fill="#EF4529" d="M198.665,176.7c1.898,13.857-11.593,31.556-21.648,28.527c-9.773,6.42-26.627-7.791-28.525-21.646
					c-1.9-13.853,3.013-28.479,22.918-25.507C188.89,150.142,196.765,162.847,198.665,176.7z"/>
				<g>
					<path fill="none" stroke="#333333" stroke-width="5.9821" stroke-linecap="round" stroke-miterlimit="10" d="M198.836,179.683
						c0.002,1.293-0.164,2.579-0.367,3.854c-0.545,3.022-1.569,5.954-2.972,8.685c-1.396,2.734-3.148,5.294-5.258,7.526
						c-2.104,2.215-4.581,4.187-7.493,5.21c-1.448,0.502-3.008,0.729-4.532,0.52c-0.384-0.029-0.75-0.159-1.126-0.234
						c-0.348,0.086-0.669,0.355-1.005,0.523c-0.353,0.15-0.7,0.316-1.059,0.452c-0.369,0.105-0.729,0.246-1.105,0.322
						c-3.024,0.687-6.183-0.048-8.949-1.322c-2.795-1.283-5.294-3.144-7.508-5.265c-2.212-2.13-4.127-4.568-5.673-7.222
						c-1.527-2.658-2.708-5.548-3.202-8.585c-0.475-3.032-0.614-6.126-0.315-9.183c0.302-3.049,1.049-6.091,2.505-8.803
						c1.437-2.711,3.668-5.014,6.404-6.424c2.726-1.448,5.838-1.983,8.896-2.046c1.534,0.005,3.073,0.068,4.593,0.29
						c0.787,0.273,1.459-0.271,2.174-0.517c0.718-0.27,1.433-0.555,2.168-0.773c2.917-0.924,6.05-1.363,9.085-0.817
						c3.037,0.527,5.817,2.174,7.885,4.438c0.261,0.281,0.521,0.564,0.754,0.869c0.231,0.28,0.511,0.635,0.672,0.875
						c0.214,0.301,0.435,0.598,0.625,0.915c0.405,0.618,0.768,1.262,1.111,1.916"/>
					
						<line fill="none" stroke="#333333" stroke-width="5.9821" stroke-linecap="round" stroke-miterlimit="10" x1="198.16" y1="173.752" x2="198.073" y2="173.341"/>
				</g>
			</g>
			<path opacity="0.5" fill="#FFFFFF" d="M161.879,175.458c-1.465,2.845-4.545,4.173-6.886,2.966
				c-2.337-1.21-3.046-4.496-1.583-7.341c1.464-2.846,4.547-4.172,6.884-2.964C162.635,169.326,163.343,172.611,161.879,175.458z"/>
		</g>
		<g>
			<g>
				<path fill="#EF4529" d="M85.099,153.99c-4.377,13.283-24.265,23.267-31.973,16.128c-11.598,1.478-20.503-18.69-16.127-31.973
					c4.373-13.281,15.21-24.265,31.789-12.854C87.977,125.837,89.475,140.709,85.099,153.99z"/>
				<g>
					<path fill="none" stroke="#333333" stroke-width="5.9821" stroke-linecap="round" stroke-miterlimit="10" d="M83.942,156.745
						c-0.565,1.163-1.279,2.246-2.021,3.302c-1.817,2.476-4.024,4.661-6.482,6.5c-2.454,1.844-5.152,3.375-8.028,4.455
						c-2.863,1.066-5.954,1.751-9.02,1.392c-1.521-0.185-3.022-0.666-4.299-1.523c-0.332-0.195-0.604-0.473-0.909-0.705
						c-0.35-0.076-0.757,0.025-1.132,0.029c-0.383-0.02-0.768-0.023-1.15-0.059c-0.377-0.067-0.763-0.099-1.134-0.196
						c-3.019-0.711-5.534-2.758-7.46-5.117c-1.948-2.38-3.376-5.149-4.434-8.027c-1.053-2.884-1.703-5.917-1.927-8.979
						c-0.205-3.058,0.002-6.173,0.892-9.119c0.904-2.932,2.137-5.773,3.748-8.389c1.609-2.607,3.616-5.012,6.115-6.809
						c2.481-1.806,5.497-2.895,8.574-2.96c3.085-0.104,6.116,0.781,8.891,2.067c1.376,0.679,2.731,1.41,4,2.277
						c0.587,0.591,1.43,0.397,2.18,0.49c0.763,0.072,1.531,0.13,2.288,0.257c3.026,0.45,6.034,1.431,8.521,3.253
						c2.498,1.807,4.273,4.507,5.136,7.449c0.111,0.368,0.22,0.735,0.296,1.112c0.085,0.353,0.18,0.795,0.219,1.082
						c0.061,0.364,0.128,0.728,0.16,1.096c0.092,0.733,0.136,1.471,0.158,2.209"/>
					
						<line fill="none" stroke="#333333" stroke-width="5.9821" stroke-linecap="round" stroke-miterlimit="10" x1="85.939" y1="151.12" x2="86.042" y2="150.712"/>
				</g>
			</g>
			<path opacity="0.5" fill="#FFFFFF" d="M52.595,136.724c-2.566,1.914-5.918,1.753-7.487-0.358
				c-1.573-2.113-0.766-5.377,1.797-7.291c2.566-1.913,5.918-1.752,7.487,0.359C55.962,131.546,55.155,134.81,52.595,136.724z"/>
		</g>
		<path fill="#CC924C" stroke="#333333" stroke-width="10.6342" stroke-linecap="round" stroke-miterlimit="10" d="M99.111,365
			l1.994-328.958c0-4.165,3.377-7.541,7.544-7.541l0,0c4.163,0,7.54,3.376,7.54,7.541L118.184,365"/>
		<g>
			
				<path fill="#A1C453" stroke="#333333" stroke-width="3.9881" stroke-linecap="round" stroke-linejoin="round" stroke-miterlimit="10" d="
				M114.468,27.898c0,0-4.459-10.861-5.908-12.767c-1.152-1.535-3.74,10.758-3.869,15.339L114.468,27.898z"/>
			
				<path fill="#A1C453" stroke="#333333" stroke-width="3.9881" stroke-linecap="round" stroke-linejoin="round" stroke-miterlimit="10" d="
				M105.195,26.953l12.065,13.444c0,0,2.673-17.772-1.737-23.862C115.523,16.535,110.083,23.345,105.195,26.953z"/>
			
				<path fill="#A1C453" stroke="#333333" stroke-width="3.9881" stroke-linecap="round" stroke-linejoin="round" stroke-miterlimit="10" d="
				M102.858,48.386c0,0-8.847-20.487-2.139-31.851l10.896,13.437L102.858,48.386z"/>
		</g>
	</g>
</g>
</svg>
