<?xml version="1.0" encoding="utf-8"?>
<!-- Generator: Adobe Illustrator 16.0.0, SVG Export Plug-In . SVG Version: 6.00 Build 0)  -->
<!DOCTYPE svg PUBLIC "-//W3C//DTD SVG 1.1//EN" "http://www.w3.org/Graphics/SVG/1.1/DTD/svg11.dtd">
<svg version="1.1" id="Calque_1" xmlns="http://www.w3.org/2000/svg" xmlns:xlink="http://www.w3.org/1999/xlink" x="0px" y="0px"
	 width="30px" height="30px" viewBox="0 0 30 30" enable-background="new 0 0 30 30" xml:space="preserve">
<g>
	<circle fill="#FFFFFF" fill-opacity="0.5" cx="15" cy="15" r="15"/>
	<path opacity="0.4" fill="#999999" enable-background="new    " d="M22.294,6.989c-0.726,0-1.405,0.28-1.915,0.791l-8.694,8.695
		L9.622,14.41c-0.511-0.51-1.19-0.791-1.915-0.791c-0.726,0-1.406,0.281-1.916,0.791C5.281,14.92,5,15.602,5,16.326
		s0.281,1.404,0.791,1.916l3.984,3.982l0.034,0.034c0.006,0.007,0.013,0.013,0.019,0.019l0.035,0.031
		c0.005,0.006,0.01,0.01,0.016,0.014l0.036,0.033c0.005,0.004,0.01,0.008,0.015,0.012l0.036,0.031
		c0.005,0.004,0.01,0.008,0.015,0.012l0.037,0.029c0.006,0.006,0.013,0.01,0.02,0.016l0.037,0.027
		c0.007,0.006,0.013,0.01,0.019,0.014l0.038,0.027c0.006,0.004,0.011,0.008,0.016,0.012l0.039,0.025
		c0.006,0.004,0.011,0.008,0.017,0.01l0.039,0.025c0.006,0.004,0.013,0.008,0.019,0.012l0.039,0.023
		c0.007,0.006,0.014,0.01,0.021,0.014l0.04,0.021c0.006,0.004,0.011,0.007,0.016,0.01l0.041,0.021
		c0.006,0.005,0.012,0.007,0.018,0.011l0.041,0.021c0.007,0.004,0.014,0.008,0.02,0.01l0.042,0.021
		c0.006,0.002,0.012,0.006,0.019,0.008l0.041,0.02c0.007,0.003,0.013,0.006,0.02,0.009l0.042,0.019
		c0.006,0.002,0.012,0.004,0.017,0.006l0.043,0.018c0.006,0.002,0.014,0.005,0.02,0.008l0.044,0.016
		c0.007,0.002,0.014,0.004,0.021,0.008l0.043,0.015c0.006,0.002,0.012,0.005,0.019,0.007l0.043,0.014
		c0.007,0.002,0.014,0.004,0.021,0.006l0.044,0.012c0.005,0.002,0.009,0.003,0.014,0.004l0.044,0.012
		c0.009,0.002,0.018,0.004,0.026,0.006l0.044,0.011c0.005,0.002,0.01,0.002,0.015,0.004l0.044,0.009
		c0.009,0.001,0.017,0.004,0.024,0.006l0.024,0.004c0.014,0.002,0.027,0.006,0.041,0.008l0.044,0.006
		c0.006,0.002,0.011,0.002,0.016,0.002l0.045,0.007c0.007,0.001,0.015,0.002,0.022,0.003l0.044,0.004
		C11.422,22.999,11.428,23,11.433,23l0.045,0.004c0.009,0.001,0.017,0.002,0.025,0.002l0.045,0.002c0.007,0,0.013,0.001,0.019,0.001
		l0.045,0.003c0.005,0,0.011,0,0.017,0h0.045c0.004,0,0.008,0,0.012,0s0.009,0,0.013,0h0.045c0.005,0,0.011,0,0.017,0l0.045-0.003
		c0.007,0,0.014,0,0.021-0.001l0.045-0.002c0.007-0.001,0.014-0.002,0.021-0.002L11.934,23c0.006,0,0.012-0.001,0.018-0.002
		l0.045-0.004c0.008-0.001,0.016-0.002,0.022-0.003l0.045-0.007c0.005,0,0.011,0,0.017-0.002l0.044-0.006
		c0.014-0.002,0.027-0.006,0.041-0.008l0.024-0.005c0.008-0.002,0.016-0.003,0.023-0.005l0.044-0.009
		c0.006-0.003,0.012-0.003,0.019-0.005l0.044-0.01c0.006-0.002,0.013-0.004,0.019-0.006l0.044-0.011
		c0.006-0.001,0.013-0.003,0.019-0.005l0.043-0.012c0.008-0.002,0.015-0.004,0.021-0.006l0.043-0.015
		c0.007-0.002,0.013-0.004,0.019-0.006l0.043-0.015c0.007-0.004,0.014-0.006,0.021-0.008l0.043-0.016
		c0.006-0.003,0.012-0.005,0.018-0.007l0.042-0.017c0.008-0.004,0.016-0.006,0.023-0.01l0.042-0.019
		c0.004-0.002,0.008-0.003,0.012-0.005l0.042-0.02c0.008-0.004,0.016-0.007,0.024-0.011l0.041-0.021
		c0.006-0.002,0.012-0.006,0.017-0.008l0.042-0.021c0.006-0.002,0.012-0.006,0.019-0.01l0.04-0.021
		c0.006-0.003,0.011-0.006,0.016-0.009l0.041-0.022c0.007-0.004,0.014-0.009,0.021-0.013l0.04-0.024
		c0.006-0.004,0.012-0.008,0.019-0.012l0.039-0.025c0.005-0.002,0.009-0.006,0.014-0.008l0.039-0.027
		c0.005-0.004,0.011-0.008,0.017-0.012l0.038-0.026c0.007-0.005,0.013-0.009,0.02-0.015l0.037-0.026
		c0.007-0.007,0.013-0.011,0.02-0.017l0.036-0.029c0.004-0.004,0.009-0.006,0.013-0.01l0.036-0.029
		c0.011-0.01,0.021-0.018,0.031-0.026l0.022-0.021c0.005-0.004,0.009-0.008,0.013-0.012l0.035-0.033
		c0.007-0.006,0.013-0.012,0.02-0.018l0.034-0.033c0.007-0.007,0.013-0.014,0.019-0.02l10.598-10.598
		C24.719,11.101,25,10.42,25,9.696c0-0.726-0.281-1.405-0.791-1.915C23.699,7.269,23.02,6.989,22.294,6.989z M23.031,10.432
		L12.417,21.046l-0.06,0.054l-0.142,0.102l-0.161,0.076l-0.201,0.054l-0.169,0.015l-0.024-0.002l-0.177-0.019l-0.17-0.048
		l-0.181-0.09l-0.146-0.109L6.97,17.063c-0.195-0.195-0.303-0.457-0.303-0.736s0.107-0.541,0.303-0.736
		c0.196-0.195,0.457-0.304,0.737-0.304c0.279,0,0.541,0.108,0.736,0.304l2.652,2.652c0.156,0.156,0.368,0.244,0.589,0.244
		c0.222,0,0.434-0.088,0.59-0.244l9.283-9.283c0.194-0.195,0.457-0.303,0.736-0.303s0.541,0.107,0.736,0.303
		c0.195,0.195,0.304,0.457,0.304,0.736C23.334,9.975,23.227,10.237,23.031,10.432z"/>
</g>
</svg>
