<?xml version="1.0" encoding="utf-8"?>
<!-- Generator: Adobe Illustrator 16.0.0, SVG Export Plug-In . SVG Version: 6.00 Build 0)  -->
<!DOCTYPE svg PUBLIC "-//W3C//DTD SVG 1.1//EN" "http://www.w3.org/Graphics/SVG/1.1/DTD/svg11.dtd">
<svg version="1.1" id="Calque_1" xmlns="http://www.w3.org/2000/svg" xmlns:xlink="http://www.w3.org/1999/xlink" x="0px" y="0px"
	 width="30px" height="30px" viewBox="0 0 30 30" enable-background="new 0 0 30 30" xml:space="preserve">
<g>
	<g>
		<defs>
			<rect id="SVGID_4_" x="-900" y="-140" width="720" height="200"/>
		</defs>
		<clipPath id="SVGID_1_">
			<use xlink:href="#SVGID_4_"  overflow="visible"/>
		</clipPath>
		<path opacity="0.1" clip-path="url(#SVGID_1_)" fill="#E2007A" d="M-1004.229,100.714c-20.954-8.618-33.252-22.401-36.53-43.677
			c-3.278-21.275,4.299-38.123,21.686-52.649c0.531-0.442,2.078-1.279,4.064-1.584c3.507-0.541,7.339,2.58,7.898,6.203
			c0.433,2.807-0.565,4.874-2.021,6.296c-11.994,12.26-16.353,23.583-13.974,39.014c2.396,15.547,9.942,24.915,25.07,32.998
			c1.817,0.916,3.391,2.589,3.823,5.394c0.559,3.625-2.156,7.754-5.664,8.294C-1001.863,101.309-1003.59,100.976-1004.229,100.714z
			 M-989.076,64.99l-0.035-0.234c-2.107-13.676,7.499-21.619,22.345-23.907c6.312-0.973,10.975-0.616,15.884,0.186l-0.162-1.053
			c-1.135-7.366-6.479-10.73-15.363-9.362c-4.91,0.757-8.854,2.083-12.083,3.656c-0.999,0.515-1.719,0.745-2.536,0.871
			c-4.093,0.63-7.871-2.017-8.502-6.111c-0.486-3.156,1.076-6.148,3.72-7.633c5.288-2.969,11.181-5.075,19.482-6.353
			c9.703-1.496,16.913,0.026,22.041,3.783c5.396,3.955,8.364,10.56,9.662,18.978l4.396,28.521c0.739,4.795-2.133,9.066-6.926,9.805
			c-5.145,0.792-8.684-2.371-9.261-6.114l-0.018-0.117c-3.937,5.514-9.293,9.572-17.944,10.905
			C-976.185,82.632-987.165,77.381-989.076,64.99z M-948.792,54.593l-0.486-3.156c-3.723-0.862-7.256-1.275-11.581-0.609
			c-7.599,1.172-11.69,4.913-10.824,10.526l0.035,0.233c0.739,4.793,5.028,7.005,10.757,6.122
			C-952.592,66.429-947.801,61.022-948.792,54.593z M-896.785,34.849l-14.338,2.209c-4.443,0.685-8.553-1.913-9.237-6.354
			c-0.684-4.442,2.452-8.156,6.896-8.841l14.338-2.209l-2.144-13.912c-0.702-4.559,2.343-8.856,6.902-9.56
			c4.56-0.702,8.761,2.479,9.464,7.038l2.144,13.912l13.485-2.078c4.44-0.685,8.553,1.913,9.236,6.354
			c0.685,4.442-2.455,8.156-6.895,8.841l-13.486,2.078l2.145,13.914c0.702,4.559-2.346,8.857-6.906,9.56
			c-4.56,0.703-8.757-2.479-9.459-7.038L-896.785,34.849z M-850.901-16.86c-0.757-4.911,3.072-9.569,7.983-10.327
			c4.908-0.756,9.963,2.534,10.72,7.444l3.621,23.498c2.605-6.386,8.66-11.747,17.896-13.17
			c14.611-2.251,30.229,7.069,33.454,27.995l0.036,0.234c3.225,20.926-8.626,34.481-23.474,36.769
			c-9.469,1.459-16.623-1.868-20.904-6.354l0.018,0.118c0.739,4.793-3.091,9.452-8,10.208c-4.911,0.757-9.964-2.534-10.721-7.443
			L-850.901-16.86z M-794.726,21.517l-0.036-0.234c-1.604-10.404-10.206-16.139-18.505-14.86c-8.301,1.28-14.66,9.319-13.057,19.724
			l0.036,0.234c1.604,10.404,10.088,16.157,18.389,14.877C-799.6,39.98-793.105,32.039-794.726,21.517z M-764.752,57.349
			c-0.432-2.805,0.566-4.874,2.022-6.295c11.993-12.261,16.352-23.584,13.973-39.014c-2.396-15.546-9.942-24.917-25.07-32.997
			c-1.816-0.918-3.391-2.589-3.823-5.396c-0.559-3.623,2.156-7.752,5.662-8.292c1.989-0.307,3.715,0.025,4.354,0.287
			c20.956,8.618,33.253,22.403,36.531,43.678c3.278,21.276-4.298,38.122-21.688,52.648c-0.531,0.441-2.076,1.28-4.065,1.586
			C-760.362,64.094-764.193,60.974-764.752,57.349z M-720.957-8.212l11.851-13.201c5.184-5.751,7.091-8.767,6.481-12.72
			c-0.619-4.02-3.614-5.791-7.361-5.213c-2.998,0.462-4.912,2.082-7.13,5.354c-0.565,0.854-1.677,1.793-3.313,2.045
			c-2.657,0.41-5.097-1.377-5.506-4.035c-0.179-1.159,0.109-2.458,0.723-3.461c3.134-5.019,7.069-8.275,14.294-9.389
			c9.88-1.523,17.151,3.287,18.527,12.216l0.021,0.135c1.229,7.975-2.055,12.738-9.498,20.583l-6.649,7.375l16.631-2.563
			c2.522-0.389,4.813,0.901,5.201,3.423c0.389,2.521-1.418,4.372-3.941,4.76l-25.898,3.991c-3.271,0.504-5.903-0.734-6.387-3.869
			C-723.227-4.824-722.508-6.508-720.957-8.212z M-641.81-27.181c-0.558-3.623,1.841-7.464,5.465-8.022l44.425-6.846
			c3.623-0.558,7.068,2.382,7.627,6.005c0.56,3.625-1.842,7.466-5.466,8.024l-44.425,6.846
			C-637.808-20.616-641.249-23.556-641.81-27.181z M-637.305,2.043c-0.54-3.505,1.839-7.463,5.463-8.022l44.424-6.846
			c3.624-0.558,7.088,2.499,7.63,6.005c0.558,3.623-1.845,7.464-5.467,8.022l-44.426,6.847
			C-633.303,8.607-636.746,5.667-637.305,2.043z M-530.845-5.624l-0.034-0.234c-2.108-13.676,7.496-21.619,22.342-23.907
			c6.313-0.973,10.976-0.616,15.885,0.185l-0.162-1.052c-1.134-7.366-6.529-10.723-15.411-9.354
			c-4.909,0.757-8.88,2.086-12.108,3.661c-0.997,0.515-1.732,0.746-2.552,0.873c-4.091,0.63-7.875-2.016-8.506-6.11
			c-0.487-3.156,1.07-6.147,3.717-7.633c5.285-2.968,11.18-5.074,19.479-6.353c9.704-1.496,16.964,0.019,22.092,3.776
			c5.397,3.955,8.413,10.553,9.71,18.971l4.396,28.522c0.739,4.794-2.132,9.066-6.925,9.805c-5.146,0.792-8.684-2.371-9.26-6.113
			l-0.019-0.117c-3.938,5.513-9.292,9.571-17.944,10.904C-517.954,12.018-528.934,6.768-530.845-5.624z M-490.562-16.021
			l-0.487-3.156c-3.721-0.862-7.255-1.275-11.581-0.609c-7.599,1.171-11.689,4.913-10.824,10.526l0.036,0.232
			c0.738,4.793,5.028,7.005,10.757,6.122C-494.361-4.184-489.571-9.591-490.562-16.021z M-465.056-47.647l11.852-13.201
			c5.183-5.751,7.093-8.768,6.483-12.721c-0.62-4.019-3.617-5.791-7.363-5.213c-2.998,0.462-4.911,2.082-7.131,5.355
			c-0.562,0.854-1.676,1.793-3.312,2.045c-2.657,0.41-5.096-1.377-5.507-4.036c-0.178-1.159,0.107-2.458,0.725-3.461
			c3.133-5.018,7.118-8.283,14.342-9.396c9.882-1.523,17.203,3.277,18.578,12.208l0.021,0.135
			c1.228,7.975-2.104,12.746-9.547,20.591l-6.699,7.382l16.629-2.563c2.524-0.389,4.813,0.901,5.202,3.422s-1.417,4.373-3.939,4.761
			l-25.9,3.992c-3.271,0.503-5.903-0.735-6.387-3.869C-467.324-44.26-466.605-45.942-465.056-47.647z M-361.404-47.653
			l-14.065,2.167c-4.442,0.684-8.554-1.913-9.237-6.355c-0.684-4.441,2.453-8.156,6.896-8.841l14.067-2.167l-2.145-13.912
			c-0.702-4.559,2.344-8.856,6.903-9.56c4.56-0.702,8.76,2.479,9.462,7.038l2.145,13.912l13.757-2.12
			c4.441-0.685,8.55,1.913,9.234,6.355c0.686,4.441-2.452,8.156-6.893,8.84l-13.757,2.12l2.143,13.914
			c0.702,4.559-2.344,8.857-6.903,9.56c-4.56,0.703-8.76-2.479-9.462-7.037L-361.404-47.653z M-268.734-45.539l20.328-22.637
			c8.891-9.868,12.164-15.039,11.121-21.82c-1.063-6.898-6.201-9.934-12.629-8.944c-5.145,0.792-8.43,3.573-12.23,9.183
			c-0.972,1.467-2.876,3.079-5.682,3.511c-4.559,0.702-8.741-2.364-9.443-6.922c-0.307-1.989,0.188-4.22,1.236-5.936
			c5.377-8.608,12.486-14.25,24.877-16.16c16.951-2.612,29.783,5.582,32.144,20.896l0.036,0.233
			c2.108,13.678-3.978,21.317-16.741,34.772l-11.854,12.119l28.522-4.396c4.323-0.666,8.436,2.708,9.101,7.033
			c0.666,4.326-2.256,8.665-6.578,9.331l-44.425,6.847c-5.61,0.864-10.215-1.835-11.043-7.211
			C-272.537-39.149-271.395-42.613-268.734-45.539z M-201.199-56.423l-0.037-0.234c-2.106-13.676,6.914-21.528,21.76-23.816
			c6.313-0.972,11.562-0.706,15.303,0.273l-0.162-1.05c-1.135-7.366-6.052-10.797-14.938-9.428
			c-4.91,0.757-8.642,2.049-11.869,3.622c-0.998,0.517-1.614,0.729-2.434,0.855c-4.091,0.63-7.814-2.025-8.445-6.119
			c-0.487-3.156,1.103-6.153,3.746-7.637c5.289-2.969,11.194-5.077,19.496-6.356c9.701-1.495,17.078,0.001,22.203,3.759
			c5.4,3.955,8.528,10.534,9.827,18.952l4.395,28.522c0.739,4.794-2.716,9.156-7.511,9.895c-5.145,0.792-9.265-2.282-9.841-6.023
			l-0.019-0.118c-2.769,5.334-8.714,9.481-17.362,10.813C-188.895-38.692-199.29-44.03-201.199-56.423z M-160.915-66.82
			l-0.487-3.156c-3.724-0.861-7.84-1.185-12.166-0.519c-7.601,1.171-12.273,5.002-11.408,10.615l0.036,0.233
			c0.739,4.793,5.612,6.915,11.341,6.032C-165.302-54.893-159.925-60.39-160.915-66.82z M-137.838-126.744
			c-0.757-4.91,2.484-9.479,7.398-10.236c4.91-0.756,9.375,2.625,10.132,7.534l3.622,23.499c3.775-6.566,8.66-11.747,17.897-13.169
			c14.614-2.252,30.229,7.068,33.454,27.994l0.037,0.234c3.224,20.926-8.631,34.48-23.477,36.767
			c-9.466,1.459-15.453-2.047-20.905-6.351l0.019,0.117c0.738,4.793-2.502,9.361-7.412,10.119c-4.915,0.757-9.38-2.624-10.137-7.535
			L-137.838-126.744z M-82.832-88.187l-0.036-0.234c-1.603-10.404-9.62-16.23-17.923-14.951c-8.3,1.278-14.076,9.23-12.471,19.635
			l0.034,0.234c1.604,10.404,9.506,16.247,17.804,14.968C-87.119-69.813-81.21-77.665-82.832-88.187z M4.48-104.037l-14.074,2.169
			c-4.443,0.684-8.553-1.914-9.236-6.355c-0.686-4.444,2.451-8.158,6.895-8.843l14.074-2.168l-2.145-13.911
			c-0.703-4.559,2.345-8.857,6.904-9.56s8.756,2.48,9.459,7.039l2.145,13.911l13.753-2.12c4.441-0.684,8.55,1.914,9.234,6.357
			c0.686,4.442-2.451,8.156-6.893,8.841l-13.753,2.119l2.143,13.914c0.702,4.559-2.34,8.856-6.901,9.56
			c-4.56,0.702-8.76-2.479-9.462-7.038L4.48-104.037z M86.599-161.33c-0.756-4.911,2.486-9.479,7.4-10.236
			c4.908-0.757,9.379,2.624,10.137,7.534l3.619,23.498c3.775-6.566,8.658-11.746,17.895-13.169
			c14.613-2.251,30.23,7.069,33.455,27.995l0.037,0.234c3.225,20.925-8.627,34.479-23.477,36.767
			c-9.467,1.459-16.623-1.867-20.902-6.352l0.018,0.117c0.738,4.793-2.506,9.362-7.416,10.118
			c-4.912,0.758-9.379-2.624-10.137-7.533L86.599-161.33z M141.604-122.772l-0.035-0.234c-1.604-10.404-9.621-16.231-17.924-14.952
			c-8.297,1.28-14.07,9.23-12.467,19.635l0.037,0.234c1.602,10.404,9.5,16.248,17.799,14.968
			C137.317-104.4,143.228-112.251,141.604-122.772z M167.128-145.067l11.85-13.201c5.186-5.751,7.09-8.767,6.48-12.72
			c-0.621-4.02-3.611-5.791-7.361-5.213c-2.996,0.461-4.91,2.082-7.129,5.354c-0.563,0.854-1.676,1.793-3.313,2.046
			c-2.658,0.409-5.096-1.378-5.504-4.037c-0.18-1.159,0.107-2.458,0.721-3.46c3.135-5.019,7.23-8.301,14.453-9.414
			c9.881-1.523,17.313,3.261,18.689,12.191l0.021,0.135c1.229,7.975-2.217,12.762-9.658,20.608l-6.811,7.399l16.633-2.563
			c2.521-0.389,4.811,0.901,5.197,3.422c0.391,2.522-1.414,4.373-3.938,4.761l-25.898,3.991c-3.27,0.503-5.906-0.735-6.387-3.869
			C164.858-141.679,165.577-143.363,167.128-145.067z"/>
	</g>
</g>
<g>
	<circle fill="#F8B334" cx="15" cy="15" r="15"/>
	<path fill="#FFFFFF" d="M22.294,6.989c-0.726,0-1.405,0.28-1.915,0.791l-8.694,8.694L9.622,14.41
		c-0.511-0.51-1.19-0.791-1.915-0.791c-0.726,0-1.406,0.281-1.916,0.791C5.281,14.92,5,15.601,5,16.326s0.281,1.405,0.791,1.916
		l3.984,3.983l0.034,0.034c0.006,0.006,0.013,0.012,0.019,0.018l0.035,0.031c0.005,0.006,0.01,0.01,0.016,0.015l0.036,0.032
		c0.005,0.004,0.01,0.008,0.015,0.012l0.036,0.031c0.005,0.004,0.01,0.008,0.015,0.012l0.037,0.029
		c0.006,0.006,0.013,0.01,0.02,0.016l0.037,0.027c0.007,0.006,0.013,0.01,0.019,0.014l0.038,0.027
		c0.006,0.004,0.011,0.008,0.016,0.012l0.039,0.025c0.006,0.004,0.011,0.008,0.017,0.011l0.039,0.025
		c0.006,0.004,0.013,0.008,0.019,0.011l0.039,0.024c0.007,0.005,0.014,0.009,0.021,0.013l0.04,0.021
		c0.006,0.004,0.011,0.007,0.016,0.01l0.041,0.021c0.006,0.004,0.012,0.006,0.018,0.01l0.041,0.021
		c0.007,0.003,0.014,0.007,0.02,0.01l0.042,0.021c0.006,0.002,0.012,0.005,0.019,0.008l0.041,0.019
		c0.007,0.003,0.013,0.006,0.02,0.009l0.042,0.018c0.006,0.002,0.012,0.004,0.017,0.007l0.043,0.017
		c0.006,0.002,0.014,0.005,0.02,0.008l0.044,0.016c0.007,0.002,0.014,0.004,0.021,0.007l0.043,0.015
		c0.006,0.002,0.012,0.004,0.019,0.006l0.043,0.014c0.007,0.002,0.014,0.004,0.021,0.006l0.044,0.012
		c0.005,0.002,0.009,0.003,0.014,0.004l0.044,0.012c0.009,0.002,0.018,0.004,0.026,0.006l0.044,0.01
		c0.005,0.002,0.01,0.002,0.015,0.004l0.044,0.009c0.009,0.001,0.017,0.003,0.024,0.005l0.024,0.004
		c0.014,0.003,0.027,0.006,0.041,0.008l0.044,0.006c0.006,0.002,0.011,0.002,0.016,0.003l0.045,0.006
		c0.007,0.001,0.015,0.002,0.022,0.003l0.044,0.004C11.422,22.999,11.428,23,11.433,23l0.045,0.004
		c0.009,0.001,0.017,0.002,0.025,0.002l0.045,0.002c0.007,0,0.013,0.001,0.019,0.001l0.045,0.002c0.005,0,0.011,0,0.017,0
		l0.045,0.001c0.004,0,0.008,0,0.012,0s0.009,0,0.013,0l0.045-0.001c0.005,0,0.011,0,0.017,0l0.045-0.002
		c0.007,0,0.014,0,0.021-0.001l0.045-0.002c0.007-0.001,0.014-0.002,0.021-0.002L11.934,23c0.006,0,0.012-0.001,0.018-0.002
		l0.045-0.004c0.008-0.001,0.016-0.002,0.022-0.003l0.045-0.006c0.005-0.001,0.011-0.001,0.017-0.003l0.044-0.006
		c0.014-0.002,0.027-0.005,0.041-0.008l0.024-0.004c0.008-0.002,0.016-0.003,0.023-0.005l0.044-0.009
		c0.006-0.002,0.012-0.002,0.019-0.004l0.044-0.01c0.006-0.002,0.013-0.004,0.019-0.006l0.044-0.011
		c0.006-0.001,0.013-0.003,0.019-0.005l0.043-0.012c0.008-0.002,0.015-0.004,0.021-0.006l0.043-0.014
		c0.007-0.002,0.013-0.004,0.019-0.006l0.043-0.015c0.007-0.003,0.014-0.005,0.021-0.007l0.043-0.016
		c0.006-0.003,0.012-0.005,0.018-0.007l0.042-0.017c0.008-0.003,0.016-0.006,0.023-0.01l0.042-0.018
		c0.004-0.002,0.008-0.003,0.012-0.005l0.042-0.019c0.008-0.004,0.016-0.007,0.024-0.011l0.041-0.021
		c0.006-0.002,0.012-0.005,0.017-0.008l0.042-0.021c0.006-0.002,0.012-0.006,0.019-0.01l0.04-0.021
		c0.006-0.003,0.011-0.006,0.016-0.009l0.041-0.022c0.007-0.004,0.014-0.009,0.021-0.013l0.04-0.024
		c0.006-0.004,0.012-0.008,0.019-0.012l0.039-0.025c0.005-0.002,0.009-0.006,0.014-0.008l0.039-0.027
		c0.005-0.004,0.011-0.008,0.017-0.012l0.038-0.027c0.007-0.004,0.013-0.008,0.02-0.014l0.037-0.027
		c0.007-0.006,0.013-0.01,0.02-0.016l0.036-0.029c0.004-0.004,0.009-0.006,0.013-0.01l0.036-0.03
		c0.011-0.009,0.021-0.018,0.031-0.026l0.022-0.021c0.005-0.004,0.009-0.008,0.013-0.012l0.035-0.032
		c0.007-0.006,0.013-0.012,0.02-0.018l0.034-0.034c0.007-0.006,0.013-0.013,0.019-0.019l10.598-10.598
		C24.719,11.101,25,10.42,25,9.696c0-0.726-0.281-1.405-0.791-1.915C23.699,7.269,23.019,6.989,22.294,6.989z M23.031,10.432
		L12.417,21.046l-0.06,0.054l-0.142,0.101l-0.161,0.076l-0.201,0.054l-0.169,0.014l-0.024-0.001l-0.177-0.019l-0.17-0.048
		l-0.181-0.089l-0.146-0.11L6.97,17.062c-0.195-0.195-0.303-0.457-0.303-0.736s0.107-0.541,0.303-0.736s0.457-0.304,0.737-0.304
		c0.279,0,0.541,0.108,0.736,0.304l2.652,2.652c0.156,0.156,0.368,0.244,0.589,0.244c0.222,0,0.434-0.088,0.59-0.244l9.282-9.283
		c0.195-0.195,0.457-0.303,0.737-0.303c0.279,0,0.541,0.107,0.737,0.303c0.195,0.195,0.303,0.457,0.303,0.736
		C23.334,9.975,23.227,10.237,23.031,10.432z"/>
</g>
</svg>
