<?xml version="1.0" encoding="utf-8"?>
<!-- Generator: Adobe Illustrator 16.0.0, SVG Export Plug-In . SVG Version: 6.00 Build 0)  -->
<!DOCTYPE svg PUBLIC "-//W3C//DTD SVG 1.1//EN" "http://www.w3.org/Graphics/SVG/1.1/DTD/svg11.dtd">
<svg version="1.1" xmlns="http://www.w3.org/2000/svg" xmlns:xlink="http://www.w3.org/1999/xlink" x="0px" y="0px" width="390px"
	 height="460px" viewBox="0 0 390 460" enable-background="new 0 0 390 460" xml:space="preserve">
<g id="calque12">
	<g id="arche">
		
			<path fill="#D63E16" stroke="#333333" stroke-width="6.4" stroke-linecap="round" stroke-linejoin="round" stroke-miterlimit="1" d="
			M54.007,299.771c0,4.418-3.582,8-8,8h-7.107c-4.418,0-8-3.582-8-8V25.377c0-4.418,3.582-8,8-8h7.107c4.418,0,8,3.582,8,8V299.771z
			"/>
		
			<path fill="#D63E16" stroke="#333333" stroke-width="6.4" stroke-linecap="round" stroke-linejoin="round" stroke-miterlimit="1" d="
			M298.572,299.771c0,4.418-3.582,8-8,8h-7.107c-4.418,0-8-3.582-8-8V25.377c0-4.418,3.582-8,8-8h7.107c4.418,0,8,3.582,8,8V299.771
			z"/>
		<g>
			<g>
				<polyline fill="none" stroke="#A8351E" stroke-width="3.2" stroke-linecap="round" stroke-miterlimit="10" points="
					284.941,21.631 284.941,23.705 284.941,120.852 				"/>
				
					<line fill="none" stroke="#A8351E" stroke-width="3.2" stroke-linecap="round" stroke-miterlimit="10" x1="284.941" y1="125.876" x2="284.941" y2="125.651"/>
			</g>
		</g>
		<g>
			<g>
				<polyline fill="none" stroke="#A8351E" stroke-width="3.2" stroke-linecap="round" stroke-miterlimit="10" points="
					38.899,306.171 38.899,304.098 38.899,222.86 				"/>
				
					<line fill="none" stroke="#A8351E" stroke-width="3.2" stroke-linecap="round" stroke-miterlimit="10" x1="38.899" y1="217.835" x2="38.899" y2="218.061"/>
			</g>
		</g>
		<path fill="none" stroke="#333333" stroke-width="6.4" stroke-linecap="round" stroke-linejoin="round" stroke-miterlimit="1" d="
			M54.007,299.771c0,4.418-3.582,8-8,8h-7.107c-4.418,0-8-3.582-8-8V25.377c0-4.418,3.582-8,8-8h7.107c4.418,0,8,3.582,8,8V299.771z
			"/>
		<path fill="none" stroke="#333333" stroke-width="6.4" stroke-linecap="round" stroke-linejoin="round" stroke-miterlimit="1" d="
			M298.572,299.771c0,4.418-3.582,8-8,8h-7.107c-4.418,0-8-3.582-8-8V25.377c0-4.418,3.582-8,8-8h7.107c4.418,0,8,3.582,8,8V299.771
			z"/>
		
			<path fill="#D63E16" stroke="#333333" stroke-width="6.4" stroke-linecap="round" stroke-linejoin="round" stroke-miterlimit="1" d="
			M27.2,63.799c-4.418,0-8-3.582-8-8V40.687c0-4.418,3.582-8,8-8h279.396c4.418,0,8,3.582,8,8v15.112c0,4.418-3.582,8-8,8H27.2z"/>
		<g>
			<g>
				<polyline fill="none" stroke="#A8351E" stroke-width="3.2" stroke-linecap="round" stroke-miterlimit="10" points="
					21.432,43.389 23.505,43.389 75.688,43.389 				"/>
				
					<line fill="none" stroke="#A8351E" stroke-width="3.2" stroke-linecap="round" stroke-miterlimit="10" x1="80.713" y1="43.389" x2="80.488" y2="43.389"/>
			</g>
		</g>
		<g>
			<g>
				
					<line fill="none" stroke="#A8351E" stroke-width="3.2" stroke-linecap="round" stroke-miterlimit="10" x1="311.955" y1="53.316" x2="209.23" y2="53.316"/>
				
					<line fill="none" stroke="#A8351E" stroke-width="3.2" stroke-linecap="round" stroke-miterlimit="10" x1="204.206" y1="53.316" x2="204.431" y2="53.316"/>
			</g>
		</g>
		<path fill="none" stroke="#333333" stroke-width="6.4" stroke-linecap="round" stroke-linejoin="round" stroke-miterlimit="1" d="
			M27.2,63.799c-4.418,0-8-3.582-8-8V40.687c0-4.418,3.582-8,8-8h279.396c4.418,0,8,3.582,8,8v15.112c0,4.418-3.582,8-8,8H27.2z"/>
	</g>
</g>
<g id="calque00">
	<g id="corps">
		<g>
			<path fill="#FFFEFD" d="M127.015,331.93c-22.982,0-41.679-18.696-41.679-41.677v-43.206c0-22.979,18.696-41.675,41.679-41.675
				h58.805c22.98,0,41.677,18.696,41.677,41.675v43.206c0,22.98-18.696,41.677-41.677,41.677H127.015L127.015,331.93z"/>
		</g>
		<path fill="#333333" d="M87.057,235.216c0,0,31.586,7.069,66.814,7.069s71.904-7.069,71.904-7.069
			c-5.113-17.233-21.086-29.844-39.956-29.844h-58.805C108.143,205.372,92.17,217.983,87.057,235.216z"/>
		<g>
			<path fill="#2D2D2D" d="M208.34,212.001c-6.498-4.192-14.229-6.629-22.521-6.629h-58.805c-8.293,0-16.025,2.437-22.523,6.629
				c5.146,13.159,16.292,22.297,29.19,22.297h45.47C192.047,234.299,203.193,225.16,208.34,212.001z"/>
		</g>
		<path fill="none" stroke="#333333" stroke-width="6.4" stroke-miterlimit="10" d="M185.819,205.372
			c22.98,0,41.677,18.696,41.677,41.677v43.205c0,22.979-18.696,41.676-41.677,41.676h-58.805
			c-22.982,0-41.679-18.696-41.679-41.676v-43.205c0-22.981,18.696-41.677,41.679-41.677l0,0H185.819z"/>
		
			<path fill="#333333" stroke="#333333" stroke-width="6.4" stroke-linecap="round" stroke-linejoin="round" stroke-miterlimit="10" d="
			M86.055,229.708c5.333,6.14,20.281,24.001,20.281,24.001l-0.002-0.003c2.934,3.094,4.734,7.273,4.734,11.873
			c0,9.531-7.727,17.257-17.257,17.257c-5.886,0-11.084-2.948-14.198-7.448l-0.001-0.001c-3.814-4.909-9.118-13.708-9.118-25.114
			c0-25.734,32.688-37.368,32.688-37.368s-9.783,6.574-14.792,19.5"/>
		
			<path fill="#333333" stroke="#333333" stroke-width="6.4" stroke-linecap="round" stroke-linejoin="round" stroke-miterlimit="10" d="
			M226.784,229.708c-5.333,6.14-20.281,24.001-20.281,24.001l0.002-0.003c-2.934,3.094-4.734,7.273-4.734,11.873
			c0,9.531,7.727,17.257,17.257,17.257c5.886,0,11.084-2.948,14.198-7.448l0.001-0.001c3.814-4.909,9.118-13.708,9.118-25.114
			c0-25.734-32.688-37.368-32.688-37.368s9.783,6.574,14.792,19.5"/>
		
			<path fill="#333333" stroke="#333333" stroke-width="6.4" stroke-linecap="round" stroke-linejoin="round" stroke-miterlimit="10" d="
			M58.705,331.839h65.659c-23.458,0.091-38.616-24.125-38.616-35.599H58.705c-9.83,0-17.8,7.969-17.8,17.8
			C40.905,323.87,48.875,331.839,58.705,331.839z"/>
		
			<path fill="#333333" stroke="#333333" stroke-width="6.4" stroke-linecap="round" stroke-linejoin="round" stroke-miterlimit="10" d="
			M254.355,331.839h-65.659c23.458,0.091,38.616-24.125,38.616-35.599h27.043c9.83,0,17.8,7.969,17.8,17.8
			C272.155,323.87,264.186,331.839,254.355,331.839z"/>
	</g>
	<g id="tete">
		<g>
			<path fill="#333333" d="M211.936,93.722c15.711-0.002,28.496,12.785,28.496,28.495c0,15.712-12.785,28.496-28.496,28.494
				c-15.713,0-28.498-12.781-28.498-28.494C183.439,106.505,196.223,93.72,211.936,93.722L211.936,93.722z"/>
		</g>
		<g>
			<path fill="#333333" d="M101.127,93.723c15.711,0,28.494,12.785,28.494,28.497c0,15.712-12.783,28.494-28.494,28.494
				c-15.713,0-28.496-12.782-28.496-28.494C72.631,106.508,85.414,93.723,101.127,93.723L101.127,93.723z"/>
		</g>
		<g>
			<path fill="#FFFEFD" d="M127.568,216.14c-22.982,0-41.678-18.696-41.678-41.677V151.27c0-22.979,18.695-41.675,41.678-41.675
				h58.805c22.98,0,41.678,18.696,41.678,41.675v23.193c0,22.981-18.697,41.677-41.678,41.677H127.568L127.568,216.14z"/>
		</g>
		<g>
			<g>
				<path fill="none" stroke="#333333" stroke-width="6.4" stroke-linecap="round" stroke-miterlimit="10" d="M129.403,109.595
					c0,0-0.313,0-0.898,0c-0.586-0.015-1.445,0.017-2.537,0.081c-0.493,0.025-1.012,0.051-1.556,0.079
					c-0.413,0.028-0.833,0.027-1.253,0.08c-0.419,0.064-0.842,0.129-1.271,0.194c-0.856,0.131-1.73,0.265-2.624,0.401
					c-3.508,0.831-7.29,1.939-10.977,3.927c-3.677,1.97-7.328,4.579-10.606,7.929c-3.291,3.332-6.136,7.454-8.211,12.155
					c-2.078,4.696-3.354,9.994-3.515,15.532c-0.103,1.383-0.054,2.781-0.066,4.188c0,1.408,0,2.827,0,4.258c0,2.86,0,5.764,0,8.708
					c0,1.472,0,2.954,0,4.446c0.004,1.492-0.027,2.994,0.082,4.501c0.038,0.754,0.077,1.511,0.115,2.27
					c0.039,0.759,0.209,1.507,0.308,2.264c0.117,0.755,0.233,1.513,0.351,2.272c0.192,0.744,0.384,1.491,0.577,2.239
					c1.582,5.963,4.497,11.76,8.763,16.573c4.227,4.819,9.59,8.844,15.724,11.332l2.331,0.855c0.391,0.137,0.774,0.297,1.172,0.416
					l1.207,0.311l2.418,0.623c0.813,0.175,1.646,0.266,2.469,0.403c0.829,0.1,1.647,0.312,2.487,0.321l2.513,0.127
					c1.676,0.118,3.361,0.033,5.046,0.059c13.49,0,27.193,0,40.896,0c3.426,0,6.852,0,10.274,0c1.71-0.024,3.423,0.059,5.129-0.07
					l2.56-0.13c0.851-0.065,1.689-0.24,2.534-0.355c3.39-0.446,6.645-1.533,9.805-2.759c3.07-1.435,6.1-3.003,8.743-5.111
					c2.739-1.976,5.087-4.411,7.265-6.938l1.5-2.004l0.749-1l0.65-1.064l1.294-2.127c0.413-0.717,0.734-1.483,1.105-2.222
					c1.495-2.954,2.427-6.128,3.192-9.293c0.167-0.797,0.258-1.608,0.391-2.41c0.102-0.805,0.293-1.6,0.32-2.41
					c0.058-1.617,0.216-3.226,0.191-4.833c0-6.423,0-12.74,0-18.922c-0.015-1.545,0.043-3.084-0.07-4.61
					c-0.079-1.526-0.108-3.049-0.401-4.536c-0.114-0.747-0.229-1.491-0.342-2.233c-0.142-0.736-0.362-1.454-0.538-2.178
					c-0.191-0.721-0.36-1.446-0.568-2.156c-0.255-0.696-0.51-1.389-0.763-2.08c-2.06-5.516-5.245-10.417-9.096-14.394
					c-3.85-3.986-8.36-7.051-13.059-9.123c-4.702-2.082-9.582-3.163-14.248-3.455c-2.337-0.167-4.62-0.13-6.838-0.131
					c-2.218,0-4.373,0-6.46,0c-8.065,0-15.095,0-20.885,0c-2.188,0-3.438,0-3.438,0"/>
				
					<line fill="none" stroke="#333333" stroke-width="6.4" stroke-linecap="round" stroke-miterlimit="10" x1="141.296" y1="109.595" x2="141.746" y2="109.595"/>
			</g>
		</g>
		<path fill="#333333" d="M161.646,187.581c0,1.729-2.105,3.132-4.701,3.132s-4.701-1.403-4.701-3.132
			c0-1.731,2.105-3.133,4.701-3.133S161.646,185.85,161.646,187.581L161.646,187.581z"/>
		<path fill="none" stroke="#333333" stroke-width="3.2" stroke-linecap="round" stroke-miterlimit="10" d="M157.244,189.666
			c0,4.076-3.303,7.378-7.379,7.378s-7.377-3.303-7.377-7.378"/>
		<g>
			<g>
				<path fill="none" stroke="#333333" stroke-width="3.1993" stroke-linecap="round" stroke-miterlimit="10" d="M157.06,191.253
					c0.146,0.677,0.403,1.323,0.719,1.937c0.88,1.625,2.393,2.895,4.148,3.472c1.752,0.583,3.721,0.481,5.399-0.29
					c0.55-0.242,1.058-0.571,1.531-0.939"/>
				
					<line fill="none" stroke="#333333" stroke-width="3.1993" stroke-linecap="round" stroke-miterlimit="10" x1="171.465" y1="191.253" x2="171.409" y2="191.471"/>
			</g>
		</g>
		<path fill="#333333" d="M206.033,180.101c0,9.357-7.586,16.943-16.939,16.943c-9.359,0-16.945-7.586-16.945-16.943
			c0-9.354,7.586-16.943,16.945-16.943C198.447,163.158,206.033,170.747,206.033,180.101L206.033,180.101z"/>
		<path fill="#333333" d="M139.844,180.101c0,9.357-7.586,16.943-16.943,16.943c-9.355,0-16.941-7.586-16.941-16.943
			c0-9.354,7.586-16.943,16.941-16.943C132.258,163.158,139.844,170.747,139.844,180.101L139.844,180.101z"/>
		<path fill="#FFFFFF" d="M129.551,180.101c0,3.462-2.807,6.268-6.268,6.268s-6.266-2.806-6.266-6.268
			c0-3.46,2.805-6.268,6.266-6.268S129.551,176.641,129.551,180.101L129.551,180.101z"/>
		<path fill="#FFFFFF" d="M195.361,180.101c0,3.462-2.811,6.268-6.268,6.268c-3.465,0-6.27-2.806-6.27-6.268
			c0-3.46,2.805-6.268,6.27-6.268C192.551,173.833,195.361,176.641,195.361,180.101L195.361,180.101z"/>
		<path fill="#222222" d="M123.283,174.852c-0.037,0-0.072,0.01-0.109,0.011c0.508,0.629,0.826,1.418,0.826,2.289
			c0,2.024-1.643,3.665-3.664,3.665c-0.873,0-1.662-0.317-2.291-0.825c-0.002,0.038-0.012,0.072-0.012,0.109
			c0,2.899,2.35,5.249,5.25,5.249c2.898,0,5.252-2.35,5.252-5.249S126.182,174.852,123.283,174.852z"/>
		<path fill="#222222" d="M189.09,174.852c-0.037,0-0.072,0.01-0.109,0.011c0.508,0.629,0.824,1.418,0.824,2.289
			c0,2.024-1.641,3.665-3.664,3.665c-0.871,0-1.662-0.317-2.291-0.825c0,0.038-0.01,0.072-0.01,0.109c0,2.899,2.35,5.249,5.25,5.249
			c2.898,0,5.25-2.35,5.25-5.249S191.988,174.852,189.09,174.852z"/>
	</g>
</g>
<g id="calque01">
	<g id="corps_1_" display="inline">
		<g>
			<path fill="#FFFEFD" d="M127.015,331.93c-22.982,0-41.679-18.696-41.679-41.677v-43.206c0-22.979,18.696-41.675,41.679-41.675
				h58.805c22.98,0,41.677,18.696,41.677,41.675v43.206c0,22.98-18.696,41.677-41.677,41.677H127.015L127.015,331.93z"/>
		</g>
		<path fill="#ECEDED" d="M87.057,235.216c0,0,31.586,7.069,66.814,7.069s71.904-7.069,71.904-7.069
			c-5.113-17.233-21.086-29.844-39.956-29.844h-58.805C108.143,205.372,92.17,217.983,87.057,235.216z"/>
		<g>
			<path fill="#D9DADB" d="M208.34,212.001c-6.498-4.192-14.229-6.629-22.521-6.629h-58.805c-8.293,0-16.025,2.437-22.523,6.629
				c5.146,13.159,16.292,22.297,29.19,22.297h45.47C192.047,234.299,203.193,225.16,208.34,212.001z"/>
		</g>
		<path fill="none" stroke="#ECEDED" stroke-width="6.4" stroke-miterlimit="10" d="M185.819,205.372
			c22.98,0,41.677,18.696,41.677,41.677v43.205c0,22.979-18.696,41.676-41.677,41.676h-58.805
			c-22.982,0-41.679-18.696-41.679-41.676v-43.205c0-22.981,18.696-41.677,41.679-41.677l0,0H185.819z"/>
		
			<path fill="#ECEDED" stroke="#ECEDED" stroke-width="6.4" stroke-linecap="round" stroke-linejoin="round" stroke-miterlimit="10" d="
			M86.055,229.708c5.333,6.14,20.281,24.001,20.281,24.001l-0.002-0.003c2.934,3.094,4.734,7.273,4.734,11.873
			c0,9.531-7.727,17.257-17.257,17.257c-5.886,0-11.084-2.948-14.198-7.448l-0.001-0.001c-3.814-4.909-9.118-13.708-9.118-25.114
			c0-25.734,32.688-37.368,32.688-37.368s-9.783,6.574-14.792,19.5"/>
		
			<path fill="#ECEDED" stroke="#ECEDED" stroke-width="6.4" stroke-linecap="round" stroke-linejoin="round" stroke-miterlimit="10" d="
			M226.784,229.708c-5.333,6.14-20.281,24.001-20.281,24.001l0.002-0.003c-2.934,3.094-4.734,7.273-4.734,11.873
			c0,9.531,7.727,17.257,17.257,17.257c5.886,0,11.084-2.948,14.198-7.448l0.001-0.001c3.814-4.909,9.118-13.708,9.118-25.114
			c0-25.734-32.688-37.368-32.688-37.368s9.783,6.574,14.792,19.5"/>
		
			<path fill="#ECEDED" stroke="#ECEDED" stroke-width="6.4" stroke-linecap="round" stroke-linejoin="round" stroke-miterlimit="10" d="
			M58.705,331.839h65.659c-23.458,0.091-38.616-24.125-38.616-35.599H58.705c-9.83,0-17.8,7.969-17.8,17.8
			C40.905,323.87,48.875,331.839,58.705,331.839z"/>
		
			<path fill="#ECEDED" stroke="#ECEDED" stroke-width="6.4" stroke-linecap="round" stroke-linejoin="round" stroke-miterlimit="10" d="
			M254.355,331.839h-65.659c23.458,0.091,38.616-24.125,38.616-35.599h27.043c9.83,0,17.8,7.969,17.8,17.8
			C272.155,323.87,264.186,331.839,254.355,331.839z"/>
	</g>
	<g id="tete_1_" display="inline">
		<g>
			<path fill="#ECEDED" d="M211.936,93.722c15.711-0.002,28.496,12.785,28.496,28.495c0,15.712-12.785,28.496-28.496,28.494
				c-15.713,0-28.498-12.781-28.498-28.494C183.439,106.505,196.223,93.72,211.936,93.722L211.936,93.722z"/>
		</g>
		<g>
			<path fill="#ECEDED" d="M101.127,93.723c15.711,0,28.494,12.785,28.494,28.497c0,15.712-12.783,28.494-28.494,28.494
				c-15.713,0-28.496-12.782-28.496-28.494C72.631,106.508,85.414,93.723,101.127,93.723L101.127,93.723z"/>
		</g>
		<g>
			<path fill="#FFFEFD" d="M127.568,216.14c-22.982,0-41.678-18.696-41.678-41.677V151.27c0-22.979,18.695-41.675,41.678-41.675
				h58.805c22.98,0,41.678,18.696,41.678,41.675v23.193c0,22.981-18.697,41.677-41.678,41.677H127.568L127.568,216.14z"/>
		</g>
		<g>
			<g>
				<path fill="none" stroke="#ECEDED" stroke-width="6.4" stroke-linecap="round" stroke-miterlimit="10" d="M129.403,109.595
					c0,0-0.313,0-0.898,0c-0.586-0.015-1.445,0.017-2.537,0.081c-0.493,0.025-1.012,0.051-1.556,0.079
					c-0.413,0.028-0.833,0.027-1.253,0.08c-0.419,0.064-0.842,0.129-1.271,0.194c-0.856,0.131-1.73,0.265-2.624,0.401
					c-3.508,0.831-7.29,1.939-10.977,3.927c-3.677,1.97-7.328,4.579-10.606,7.929c-3.291,3.332-6.136,7.454-8.211,12.155
					c-2.078,4.696-3.354,9.994-3.515,15.532c-0.103,1.383-0.054,2.781-0.066,4.188c0,1.408,0,2.827,0,4.258c0,2.86,0,5.764,0,8.708
					c0,1.472,0,2.954,0,4.446c0.004,1.492-0.027,2.994,0.082,4.501c0.038,0.754,0.077,1.511,0.115,2.27
					c0.039,0.759,0.209,1.507,0.308,2.264c0.117,0.755,0.233,1.513,0.351,2.272c0.192,0.744,0.384,1.491,0.577,2.239
					c1.582,5.963,4.497,11.76,8.763,16.573c4.227,4.819,9.59,8.844,15.724,11.332l2.331,0.855c0.391,0.137,0.774,0.297,1.172,0.416
					l1.207,0.311l2.418,0.623c0.813,0.175,1.646,0.266,2.469,0.403c0.829,0.1,1.647,0.312,2.487,0.321l2.513,0.127
					c1.676,0.118,3.361,0.033,5.046,0.059c13.49,0,27.193,0,40.896,0c3.426,0,6.852,0,10.274,0c1.71-0.024,3.423,0.059,5.129-0.07
					l2.56-0.13c0.851-0.065,1.689-0.24,2.534-0.355c3.39-0.446,6.645-1.533,9.805-2.759c3.07-1.435,6.1-3.003,8.743-5.111
					c2.739-1.976,5.087-4.411,7.265-6.938l1.5-2.004l0.749-1l0.65-1.064l1.294-2.127c0.413-0.717,0.734-1.483,1.105-2.222
					c1.495-2.954,2.427-6.128,3.192-9.293c0.167-0.797,0.258-1.608,0.391-2.41c0.102-0.805,0.293-1.6,0.32-2.41
					c0.058-1.617,0.216-3.226,0.191-4.833c0-6.423,0-12.74,0-18.922c-0.015-1.545,0.043-3.084-0.07-4.61
					c-0.079-1.526-0.108-3.049-0.401-4.536c-0.114-0.747-0.229-1.491-0.342-2.233c-0.142-0.736-0.362-1.454-0.538-2.178
					c-0.191-0.721-0.36-1.446-0.568-2.156c-0.255-0.696-0.51-1.389-0.763-2.08c-2.06-5.516-5.245-10.417-9.096-14.394
					c-3.85-3.986-8.36-7.051-13.059-9.123c-4.702-2.082-9.582-3.163-14.248-3.455c-2.337-0.167-4.62-0.13-6.838-0.131
					c-2.218,0-4.373,0-6.46,0c-8.065,0-15.095,0-20.885,0c-2.188,0-3.438,0-3.438,0"/>
				
					<line fill="none" stroke="#ECEDED" stroke-width="6.4" stroke-linecap="round" stroke-miterlimit="10" x1="141.296" y1="109.595" x2="141.746" y2="109.595"/>
			</g>
		</g>
		<path fill="#ECEDED" d="M161.646,187.581c0,1.729-2.105,3.132-4.701,3.132s-4.701-1.403-4.701-3.132
			c0-1.731,2.105-3.133,4.701-3.133S161.646,185.85,161.646,187.581L161.646,187.581z"/>
		<path fill="none" stroke="#ECEDED" stroke-width="3.2" stroke-linecap="round" stroke-miterlimit="10" d="M157.244,189.666
			c0,4.076-3.303,7.378-7.379,7.378s-7.377-3.303-7.377-7.378"/>
		<g>
			<g>
				<path fill="none" stroke="#ECEDED" stroke-width="3.1993" stroke-linecap="round" stroke-miterlimit="10" d="M157.06,191.253
					c0.146,0.677,0.403,1.323,0.719,1.937c0.88,1.625,2.393,2.895,4.148,3.472c1.752,0.583,3.721,0.481,5.399-0.29
					c0.55-0.242,1.058-0.571,1.531-0.939"/>
				
					<line fill="none" stroke="#ECEDED" stroke-width="3.1993" stroke-linecap="round" stroke-miterlimit="10" x1="171.465" y1="191.253" x2="171.409" y2="191.471"/>
			</g>
		</g>
		<path fill="#ECEDED" d="M206.033,180.101c0,9.357-7.586,16.943-16.939,16.943c-9.359,0-16.945-7.586-16.945-16.943
			c0-9.354,7.586-16.943,16.945-16.943C198.447,163.158,206.033,170.747,206.033,180.101L206.033,180.101z"/>
		<path fill="#ECEDED" d="M139.844,180.101c0,9.357-7.586,16.943-16.943,16.943c-9.355,0-16.941-7.586-16.941-16.943
			c0-9.354,7.586-16.943,16.941-16.943C132.258,163.158,139.844,170.747,139.844,180.101L139.844,180.101z"/>
		<path fill="#FFFFFF" d="M129.551,180.101c0,3.462-2.807,6.268-6.268,6.268s-6.266-2.806-6.266-6.268
			c0-3.46,2.805-6.268,6.266-6.268S129.551,176.641,129.551,180.101L129.551,180.101z"/>
		<path fill="#FFFFFF" d="M195.361,180.101c0,3.462-2.811,6.268-6.268,6.268c-3.465,0-6.27-2.806-6.27-6.268
			c0-3.46,2.805-6.268,6.27-6.268C192.551,173.833,195.361,176.641,195.361,180.101L195.361,180.101z"/>
		<path fill="#D9DADB" d="M123.283,174.852c-0.037,0-0.072,0.01-0.109,0.011c0.508,0.629,0.826,1.418,0.826,2.289
			c0,2.024-1.643,3.665-3.664,3.665c-0.873,0-1.662-0.317-2.291-0.825c-0.002,0.038-0.012,0.072-0.012,0.109
			c0,2.899,2.35,5.249,5.25,5.249c2.898,0,5.252-2.35,5.252-5.249S126.182,174.852,123.283,174.852z"/>
		<path fill="#D9DADB" d="M189.09,174.852c-0.037,0-0.072,0.01-0.109,0.011c0.508,0.629,0.824,1.418,0.824,2.289
			c0,2.024-1.641,3.665-3.664,3.665c-0.871,0-1.662-0.317-2.291-0.825c0,0.038-0.01,0.072-0.01,0.109c0,2.899,2.35,5.249,5.25,5.249
			c2.898,0,5.25-2.35,5.25-5.249S191.988,174.852,189.09,174.852z"/>
	</g>
</g>
<g id="calque02">
	<g id="bandeau">
		
			<polygon fill="#FFAE2C" stroke="#333333" stroke-width="6.4" stroke-linecap="round" stroke-linejoin="round" stroke-miterlimit="10" points="
			236.404,154.854 236.404,210.299 228.929,210.299 228.929,156.575 		"/>
		
			<circle fill="#FFAE2C" stroke="#333333" stroke-width="6.4" stroke-linecap="round" stroke-linejoin="round" stroke-miterlimit="10" cx="233.104" cy="149.322" r="7.328"/>
		
			<rect x="84.146" y="138.666" fill="#FFAE2C" stroke="#333333" stroke-width="6.4" stroke-linecap="round" stroke-linejoin="round" stroke-miterlimit="10" width="145.673" height="16.264"/>
	</g>
</g>
<g id="calque03">
	<g id="chapeau">
		<g>
			<g>
				<path fill="#E2C7A8" d="M156.644,77.914c1.481-0.932,2.53-0.085,2.53-0.085l106.187,64.47l-0.529,1.729H47.702
					C47.702,144.027,154.886,79.019,156.644,77.914z"/>
			</g>
		</g>
		<g>
			<g>
				<path fill="none" stroke="#333333" stroke-width="6.4" stroke-linecap="round" stroke-miterlimit="10" d="M151.011,81.458
					l2.895-1.822l1.283-0.807c0.748-0.432,1.433-1.007,2.267-1.264c0.415-0.123,0.871-0.115,1.28,0.036
					c0.405,0.158,0.748,0.439,1.128,0.646l8.91,5.41l35.64,21.639l35.64,21.639l17.82,10.819l4.455,2.705l2.228,1.353
					c0.864,0.317,0.852,1.769-0.027,2.063c-0.396,0.175-0.852,0.149-1.28,0.153h-1.303h-2.606h-5.212H129.1H66.585H50.957H49.98
					c-0.311-0.021-0.689,0.088-0.925-0.183c-0.273-0.275,0.032-0.64,0.271-0.805l0.835-0.507l3.34-2.028l6.68-4.055L86.9,120.229h0
					l1.477-0.896l0,0l43.291-26.283"/>
				
					<line fill="none" stroke="#333333" stroke-width="6.4" stroke-linecap="round" stroke-miterlimit="10" x1="140.259" y1="87.833" x2="139.874" y2="88.066"/>
			</g>
		</g>
		<g>
			<path fill="none" stroke="#D8B698" stroke-width="3.1993" stroke-linecap="round" stroke-miterlimit="10" d="M122.773,126.626
				c0,3.59-2.91,6.499-6.499,6.499c-3.591,0-6.499-2.909-6.499-6.499"/>
			<g>
				<g>
					<path fill="none" stroke="#D8B698" stroke-width="3.1993" stroke-linecap="round" stroke-miterlimit="10" d="M122.673,128.207
						c0.106,0.329,0.197,0.663,0.315,0.987l0.494,0.911c0.756,1.157,1.869,2.066,3.152,2.576c1.284,0.543,2.743,0.515,4.064,0.179
						c0.284-0.095,0.579-0.164,0.854-0.28l0.792-0.43"/>
					
						<line fill="none" stroke="#D8B698" stroke-width="3.1993" stroke-linecap="round" stroke-miterlimit="10" x1="135.239" y1="128.207" x2="135.172" y2="128.421"/>
				</g>
			</g>
		</g>
		<g>
			<path fill="none" stroke="#D8B698" stroke-width="3.1993" stroke-linecap="round" stroke-miterlimit="10" d="M157.273,106.376
				c0,3.59-2.909,6.499-6.498,6.499c-3.591,0-6.499-2.909-6.499-6.499"/>
			<g>
				<g>
					<path fill="none" stroke="#D8B698" stroke-width="3.1993" stroke-linecap="round" stroke-miterlimit="10" d="M157.173,107.956
						c0.106,0.329,0.197,0.663,0.315,0.987l0.495,0.911c0.756,1.157,1.869,2.065,3.152,2.575c1.284,0.543,2.743,0.516,4.064,0.18
						c0.284-0.095,0.579-0.165,0.854-0.281l0.792-0.43"/>
					
						<line fill="none" stroke="#D8B698" stroke-width="3.1993" stroke-linecap="round" stroke-miterlimit="10" x1="169.739" y1="107.956" x2="169.672" y2="108.171"/>
				</g>
			</g>
		</g>
		<g>
			<path fill="none" stroke="#D8B698" stroke-width="3.1993" stroke-linecap="round" stroke-miterlimit="10" d="M190.274,124.376
				c0,3.59-2.909,6.499-6.499,6.499s-6.498-2.909-6.498-6.499"/>
			<g>
				<g>
					<path fill="none" stroke="#D8B698" stroke-width="3.1993" stroke-linecap="round" stroke-miterlimit="10" d="M190.174,125.957
						c0.106,0.329,0.197,0.663,0.315,0.987l0.494,0.911c0.756,1.157,1.869,2.065,3.152,2.576c1.284,0.543,2.743,0.515,4.064,0.179
						c0.284-0.095,0.579-0.164,0.854-0.28l0.792-0.43"/>
					
						<line fill="none" stroke="#D8B698" stroke-width="3.1993" stroke-linecap="round" stroke-miterlimit="10" x1="202.74" y1="125.957" x2="202.673" y2="126.171"/>
				</g>
			</g>
		</g>
	</g>
</g>
<g id="calque04">
	<g id="pendentif">
		<g>
			<g>
				<polyline fill="none" stroke="#333333" stroke-width="3.1993" stroke-linecap="round" stroke-miterlimit="10" points="
					69.068,145.973 69.068,148.045 69.068,208.742 				"/>
				
					<line fill="none" stroke="#333333" stroke-width="3.1993" stroke-linecap="round" stroke-miterlimit="10" x1="69.068" y1="213.766" x2="69.068" y2="213.541"/>
			</g>
		</g>
		
			<rect x="63.794" y="157.891" transform="matrix(0.7071 0.7071 -0.7071 0.7071 135.6048 -1.0488)" fill="#FFAE2C" stroke="#333333" stroke-width="3.2" stroke-linecap="round" stroke-linejoin="round" stroke-miterlimit="10" width="10.549" height="10.548"/>
		
			<rect x="65.962" y="180.766" transform="matrix(0.7071 0.7071 -0.7071 0.7071 150.2465 5.016)" fill="#FFAE2C" stroke="#333333" stroke-width="3.2" stroke-linecap="round" stroke-linejoin="round" stroke-miterlimit="10" width="6.212" height="6.211"/>
		
			<rect x="67.072" y="197.945" transform="matrix(0.7072 0.707 -0.707 0.7072 161.5765 9.7067)" fill="#FFAE2C" stroke="#333333" stroke-width="3.2" stroke-linecap="round" stroke-linejoin="round" stroke-miterlimit="10" width="3.992" height="3.993"/>
	</g>
</g>
<g id="calque06">
	<g id="bambou1">
		
			<path fill="#A1C453" stroke="#333333" stroke-width="1.6" stroke-linecap="round" stroke-linejoin="round" stroke-miterlimit="10" d="
			M295.054,176.037c0,0-9.867-1.36-13.326-12.549C281.728,163.487,290.744,165.053,295.054,176.037z"/>
		<g>
			<g>
				<polyline fill="none" stroke="#7F9939" stroke-width="1.6" stroke-linecap="round" stroke-miterlimit="10" points="
					294.47,175.489 293.714,174.78 288.719,170.094 288.063,169.478 				"/>
				
					<line fill="none" stroke="#7F9939" stroke-width="1.6" stroke-linecap="round" stroke-miterlimit="10" x1="286.23" y1="167.758" x2="286.312" y2="167.835"/>
			</g>
		</g>
		
			<path fill="#A1C453" stroke="#333333" stroke-width="1.6" stroke-linecap="round" stroke-linejoin="round" stroke-miterlimit="10" d="
			M308.506,200.041c0,0-1.666-14.754,8.005-25.806C316.511,174.235,317.885,187.321,308.506,200.041z"/>
		<g>
			<g>
				<polyline fill="none" stroke="#7F9939" stroke-width="1.6" stroke-linecap="round" stroke-miterlimit="10" points="
					308.742,199.276 309.047,198.286 312.874,185.887 313.14,185.026 				"/>
				
					<line fill="none" stroke="#7F9939" stroke-width="1.6" stroke-linecap="round" stroke-miterlimit="10" x1="313.88" y1="182.626" x2="313.847" y2="182.733"/>
			</g>
		</g>
		<path fill="#D6E57F" stroke="#333333" stroke-width="3.2" stroke-miterlimit="10" d="M323.277,273.908
			c0.422,2.045-0.896,4.045-2.941,4.466l0,0c-2.046,0.421-4.046-0.896-4.467-2.942l-23.161-112.584
			c-0.421-2.045,0.896-4.045,2.942-4.466l0,0c2.045-0.421,4.045,0.896,4.466,2.942L323.277,273.908z"/>
		<g>
			<g>
				<g>
					
						<line fill="none" stroke="#333333" stroke-width="1.6" stroke-linecap="round" stroke-miterlimit="10" x1="302.786" y1="174.743" x2="300.598" y2="175.192"/>
					
						<line fill="none" stroke="#333333" stroke-width="1.6" stroke-linecap="round" stroke-miterlimit="10" x1="300.323" y1="175.249" x2="300.335" y2="175.247"/>
				</g>
			</g>
			<g>
				<g>
					
						<line fill="none" stroke="#333333" stroke-width="1.6" stroke-linecap="round" stroke-miterlimit="10" x1="298.45" y1="175.635" x2="298.386" y2="175.648"/>
					
						<line fill="none" stroke="#333333" stroke-width="1.6" stroke-linecap="round" stroke-miterlimit="10" x1="298.377" y1="175.649" x2="298.378" y2="175.649"/>
				</g>
			</g>
		</g>
		<g>
			<g>
				<g>
					
						<line fill="none" stroke="#333333" stroke-width="1.6" stroke-linecap="round" stroke-miterlimit="10" x1="300.725" y1="201.513" x2="302.913" y2="201.063"/>
					
						<line fill="none" stroke="#333333" stroke-width="1.6" stroke-linecap="round" stroke-miterlimit="10" x1="303.188" y1="201.006" x2="303.176" y2="201.008"/>
				</g>
			</g>
			<g>
				<g>
					
						<line fill="none" stroke="#333333" stroke-width="1.6" stroke-linecap="round" stroke-miterlimit="10" x1="305.061" y1="200.621" x2="305.125" y2="200.607"/>
					
						<line fill="none" stroke="#333333" stroke-width="1.6" stroke-linecap="round" stroke-miterlimit="10" x1="305.133" y1="200.605" x2="305.133" y2="200.605"/>
				</g>
			</g>
		</g>
	</g>
</g>
<g id="calque07">
	<g id="bambou2">
		
			<path fill="#A1C453" stroke="#333333" stroke-width="1.6" stroke-linecap="round" stroke-linejoin="round" stroke-miterlimit="10" d="
			M356.431,207.956c0,0,4.057-14.283,17.198-20.839C373.629,187.117,369.935,199.746,356.431,207.956z"/>
		<g>
			<g>
				<polyline fill="none" stroke="#7F9939" stroke-width="1.6" stroke-linecap="round" stroke-miterlimit="10" points="
					356.939,207.338 357.598,206.538 365.842,196.518 366.415,195.823 				"/>
				
					<line fill="none" stroke="#7F9939" stroke-width="1.6" stroke-linecap="round" stroke-miterlimit="10" x1="368.011" y1="193.882" x2="367.94" y2="193.969"/>
			</g>
		</g>
		<path fill="#D6E57F" stroke="#333333" stroke-width="3.2" stroke-miterlimit="10" d="M340.161,294.711
			c-0.386,2.052-2.364,3.403-4.416,3.016l0,0c-2.053-0.386-3.403-2.364-3.017-4.417l21.286-112.954
			c0.387-2.052,2.364-3.402,4.417-3.016l0,0c2.052,0.386,3.402,2.364,3.016,4.417L340.161,294.711z"/>
		<g>
			<g>
				<g>
					
						<line fill="none" stroke="#333333" stroke-width="1.6" stroke-linecap="round" stroke-miterlimit="10" x1="355.96" y1="207.918" x2="353.765" y2="207.504"/>
					
						<line fill="none" stroke="#333333" stroke-width="1.6" stroke-linecap="round" stroke-miterlimit="10" x1="353.489" y1="207.453" x2="353.501" y2="207.455"/>
				</g>
			</g>
			<g>
				<g>
					
						<line fill="none" stroke="#333333" stroke-width="1.6" stroke-linecap="round" stroke-miterlimit="10" x1="351.61" y1="207.099" x2="351.545" y2="207.086"/>
					
						<line fill="none" stroke="#333333" stroke-width="1.6" stroke-linecap="round" stroke-miterlimit="10" x1="351.537" y1="207.085" x2="351.537" y2="207.085"/>
				</g>
			</g>
		</g>
		<g>
			<g>
				<g>
					
						<line fill="none" stroke="#333333" stroke-width="1.6" stroke-linecap="round" stroke-miterlimit="10" x1="354.038" y1="181.73" x2="356.233" y2="182.144"/>
					
						<line fill="none" stroke="#333333" stroke-width="1.6" stroke-linecap="round" stroke-miterlimit="10" x1="356.509" y1="182.195" x2="356.497" y2="182.193"/>
				</g>
			</g>
			<g>
				<g>
					
						<line fill="none" stroke="#333333" stroke-width="1.6" stroke-linecap="round" stroke-miterlimit="10" x1="358.388" y1="182.55" x2="358.452" y2="182.562"/>
					
						<line fill="none" stroke="#333333" stroke-width="1.6" stroke-linecap="round" stroke-miterlimit="10" x1="358.46" y1="182.563" x2="358.46" y2="182.563"/>
				</g>
			</g>
		</g>
	</g>
</g>
<g id="calque05">
	<g id="tonneau">
		<path fill="#CC924C" d="M365.83,311.045c0,5.522-4.478,10-10,10h-54.414c-5.522,0-10-4.478-10-10v-72.747c0-5.523,4.478-10,10-10
			h54.414c5.522,0,10,4.477,10,10V311.045z"/>
		<g>
			<g>
				<polyline fill="none" stroke="#AF773A" stroke-width="3.2" stroke-linecap="round" stroke-miterlimit="10" points="
					315.761,229.884 315.761,231.957 315.761,276.689 315.761,278.49 				"/>
				
					<line fill="none" stroke="#AF773A" stroke-width="3.2" stroke-linecap="round" stroke-miterlimit="10" x1="315.761" y1="283.515" x2="315.761" y2="283.29"/>
			</g>
		</g>
		
			<line fill="none" stroke="#AF773A" stroke-width="3.2" stroke-linecap="round" stroke-linejoin="round" stroke-miterlimit="10" x1="315.761" y1="319.533" x2="315.761" y2="307.613"/>
		<g>
			<g>
				<polyline fill="none" stroke="#AF773A" stroke-width="3.2" stroke-linecap="round" stroke-miterlimit="10" points="
					341.006,319.445 341.006,317.372 341.006,272.64 341.006,270.838 				"/>
				
					<line fill="none" stroke="#AF773A" stroke-width="3.2" stroke-linecap="round" stroke-miterlimit="10" x1="341.006" y1="265.813" x2="341.006" y2="266.039"/>
			</g>
		</g>
		
			<line fill="none" stroke="#AF773A" stroke-width="3.2" stroke-linecap="round" stroke-linejoin="round" stroke-miterlimit="10" x1="341.006" y1="229.778" x2="341.006" y2="240.527"/>
		<rect x="291.416" y="244.56" fill="#ECEDED" width="74.414" height="15.269"/>
		<rect x="291.416" y="288.605" fill="#ECEDED" width="74.414" height="15.269"/>
		<g>
			<g>
				<path fill="none" stroke="#333333" stroke-width="6.4" stroke-linecap="round" stroke-miterlimit="10" d="M291.416,266.597
					c0,0,0-1.25,0-3.438c0-3.792,0-8.396,0-13.677c0-3.052,0-6.3,0-9.724c-0.002-0.855-0.015-1.724,0.069-2.598
					c0.113-0.87,0.311-1.742,0.651-2.576c0.672-1.661,1.806-3.201,3.325-4.308c0.747-0.568,1.59-1.029,2.492-1.351
					c0.894-0.346,1.854-0.539,2.828-0.597c1.953-0.064,3.944-0.018,5.969-0.032c4.05,0,8.237,0,12.541,0c8.608,0,17.686,0,27.077,0
					c2.348,0,4.715,0,7.1,0c1.191,0.015,2.392-0.045,3.585,0.082c1.192,0.137,2.364,0.5,3.43,1.07
					c2.139,1.125,3.857,3.059,4.707,5.351c0.927,2.309,0.569,4.843,0.641,7.286c0,9.86,0,19.877,0,29.895s0,20.034,0,29.894
					c0,2.465,0,4.92,0,7.364c-0.016,1.218,0.07,2.448-0.176,3.645c-0.225,1.194-0.668,2.341-1.3,3.371
					c-1.257,2.065-3.272,3.628-5.55,4.341c-1.141,0.362-2.338,0.459-3.52,0.45c-1.183,0-2.362,0-3.536,0
					c-18.781-0.022-36.313,0.051-51.335-0.051c-3.78-0.359-6.952-2.961-8.237-6.129c-0.666-1.589-0.811-3.286-0.76-4.902
					c0-1.621,0-3.196,0-4.722c0-5.912,0-11.066,0-15.311c0-2.188,0-3.438,0-3.438"/>
				
					<line fill="none" stroke="#333333" stroke-width="6.4" stroke-linecap="round" stroke-miterlimit="10" x1="291.416" y1="276.442" x2="291.416" y2="276.892"/>
			</g>
		</g>
		
			<circle fill="none" stroke="#AF773A" stroke-width="3.2" stroke-linecap="round" stroke-linejoin="round" stroke-miterlimit="10" cx="355.294" cy="281.889" r="3.437"/>
	</g>
</g>
<g id="calque08">
	<g id="short">
		<polygon fill="#E2C7A8" points="229.865,295.503 233.275,289.511 80.545,289.511 83.955,295.503 72.988,295.503 72.988,332.884 
			240.832,332.884 240.832,295.503 		"/>
		<g>
			
				<line fill="none" stroke="#D8B698" stroke-width="3.2" stroke-linecap="round" stroke-linejoin="round" stroke-miterlimit="10" x1="108.663" y1="320.212" x2="120.932" y2="332.48"/>
			<g>
				<g>
					<polyline fill="none" stroke="#D8B698" stroke-width="3.2" stroke-linecap="round" stroke-miterlimit="10" points="
						85.086,296.635 86.552,298.101 100.396,311.945 101.67,313.219 					"/>
					
						<line fill="none" stroke="#D8B698" stroke-width="3.2" stroke-linecap="round" stroke-miterlimit="10" x1="105.223" y1="316.772" x2="105.064" y2="316.613"/>
				</g>
			</g>
		</g>
		<g>
			
				<line fill="none" stroke="#D8B698" stroke-width="3.2" stroke-linecap="round" stroke-linejoin="round" stroke-miterlimit="10" x1="217.589" y1="307.771" x2="229.857" y2="295.503"/>
			<g>
				<g>
					<polyline fill="none" stroke="#D8B698" stroke-width="3.2" stroke-linecap="round" stroke-miterlimit="10" points="
						194.012,331.349 195.478,329.883 209.322,316.039 210.596,314.765 					"/>
					
						<line fill="none" stroke="#D8B698" stroke-width="3.2" stroke-linecap="round" stroke-miterlimit="10" x1="214.149" y1="311.211" x2="213.99" y2="311.371"/>
				</g>
			</g>
		</g>
		
			<polygon fill="none" stroke="#333333" stroke-width="6.4" stroke-linecap="round" stroke-linejoin="round" stroke-miterlimit="10" points="
			229.865,295.503 233.275,289.511 80.545,289.511 83.955,295.503 72.988,295.503 72.988,332.884 240.832,332.884 240.832,295.503 
					"/>
		<g>
			<g>
				<path fill="none" stroke="#333333" stroke-width="3.2" stroke-linecap="round" stroke-miterlimit="10" d="M83.368,295.193
					c0,0,0.606,0.152,1.667,0.417c0.195,0.049,0.401,0.101,0.618,0.155c0.534,0.136,1.103,0.234,1.691,0.361
					c1.177,0.242,2.451,0.504,3.812,0.785c2.744,0.436,5.829,1.009,9.219,1.457c13.553,1.854,31.785,3.138,50.027,3.174
					c18.236,0.149,36.49-0.241,50.125-1.4c3.409-0.267,6.524-0.631,9.291-0.891c1.385-0.119,2.667-0.348,3.86-0.497
					c1.112-0.153,2.134-0.294,3.057-0.422c0.542-0.067,0.965-0.145,1.253-0.2c0.288-0.053,0.442-0.081,0.442-0.081"/>
				
					<line fill="none" stroke="#333333" stroke-width="3.2" stroke-linecap="round" stroke-miterlimit="10" x1="223.357" y1="297.074" x2="223.139" y2="297.125"/>
			</g>
		</g>
		<g>
			<g>
				<path fill="none" stroke="#333333" stroke-width="3.2" stroke-linecap="round" stroke-miterlimit="10" d="M151.043,316.304
					c0.067-0.687,0.121-1.377,0.229-2.06c0.365-2.379,1.048-4.705,1.983-6.922c0.471-1.107,1.006-2.187,1.596-3.236
					c0.296-0.523,0.605-1.04,0.937-1.542c0.163-0.253,0.333-0.5,0.509-0.745c0.045-0.044,0.085-0.159,0.137-0.145l0.16,0.159
					l0.31,0.329c0.242,0.268,0.473,0.545,0.7,0.826c0.218,0.289,0.444,0.571,0.646,0.872c0.479,0.671,0.898,1.383,1.288,2.109
					c0.277,0.533,0.532,1.077,0.757,1.634"/>
				
					<line fill="none" stroke="#333333" stroke-width="3.2" stroke-linecap="round" stroke-miterlimit="10" x1="161.498" y1="312.442" x2="161.47" y2="312.219"/>
			</g>
		</g>
		<circle fill="#E2C7A8" stroke="#333333" stroke-width="3.2" stroke-miterlimit="1" cx="156.416" cy="301.638" r="3.437"/>
	</g>
</g>
<g id="calque13">
	<g id="collier">
		<g>
			<g>
				<path fill="none" stroke="#E2C7A8" stroke-width="3.2" stroke-linecap="round" stroke-miterlimit="10" d="M139.753,220.496
					l1.441,1.491l9.042,9.354l4.521,4.677l2.26,2.339l0.141,0.146c0.047,0.02,0.096-0.077,0.144-0.11l0.288-0.288l0.575-0.575
					l1.15-1.15l8.752-8.752l1.274-1.274"/>
				
					<line fill="none" stroke="#E2C7A8" stroke-width="3.2" stroke-linecap="round" stroke-miterlimit="10" x1="172.893" y1="222.801" x2="172.734" y2="222.96"/>
			</g>
		</g>
		<g>
			
				<rect x="155.949" y="272.05" transform="matrix(-0.9962 0.0872 -0.0872 -0.9962 368.147 544.9517)" fill="#FFD520" stroke="#FFAC24" stroke-width="2.4258" stroke-linecap="round" stroke-linejoin="round" stroke-miterlimit="10" width="32.456" height="16.925"/>
			
				<line opacity="0.5" fill="#FFD520" stroke="#FFAC24" stroke-width="2.4258" stroke-linecap="round" stroke-linejoin="round" stroke-miterlimit="10" x1="182.524" y1="288.118" x2="182.098" y2="283.242"/>
			
				<line opacity="0.5" fill="#FFD520" stroke="#FFAC24" stroke-width="2.4258" stroke-linecap="round" stroke-linejoin="round" stroke-miterlimit="10" x1="179.268" y1="288.403" x2="179.054" y2="285.965"/>
			
				<line opacity="0.5" fill="none" stroke="#FFAC24" stroke-width="2.4258" stroke-linecap="round" stroke-linejoin="round" stroke-miterlimit="10" x1="172.754" y1="288.973" x2="172.54" y2="286.535"/>
			
				<line opacity="0.5" fill="#FFD520" stroke="#FFAC24" stroke-width="2.4258" stroke-linecap="round" stroke-linejoin="round" stroke-miterlimit="10" x1="176.001" y1="288.579" x2="175.574" y2="283.703"/>
			
				<line opacity="0.5" fill="#FFD520" stroke="#FFAC24" stroke-width="2.4258" stroke-linecap="round" stroke-linejoin="round" stroke-miterlimit="10" x1="185.772" y1="287.724" x2="185.559" y2="285.286"/>
		</g>
		<g>
			
				<rect x="133.755" y="257.061" transform="matrix(0.0872 0.9962 -0.9962 0.0872 409.9818 82.8655)" fill="#FFD520" stroke="#FFAC24" stroke-width="2.4258" stroke-linecap="round" stroke-linejoin="round" stroke-miterlimit="10" width="52.038" height="16.166"/>
			
				<circle fill="none" stroke="#FFAC24" stroke-width="2.4258" stroke-linecap="round" stroke-linejoin="round" stroke-miterlimit="10" cx="161.048" cy="281.979" r="0.615"/>
			
				<line opacity="0.5" fill="#FFD520" stroke="#FFAC24" stroke-width="2.4258" stroke-linecap="round" stroke-linejoin="round" stroke-miterlimit="10" x1="153.439" y1="285.504" x2="158.314" y2="285.078"/>
			
				<line opacity="0.5" fill="#FFD520" stroke="#FFAC24" stroke-width="2.4258" stroke-linecap="round" stroke-linejoin="round" stroke-miterlimit="10" x1="153.153" y1="282.248" x2="155.592" y2="282.034"/>
			
				<line opacity="0.5" fill="none" stroke="#FFAC24" stroke-width="2.4258" stroke-linecap="round" stroke-linejoin="round" stroke-miterlimit="10" x1="151.729" y1="265.963" x2="156.605" y2="265.536"/>
			
				<line opacity="0.5" fill="none" stroke="#FFAC24" stroke-width="2.4258" stroke-linecap="round" stroke-linejoin="round" stroke-miterlimit="10" x1="152.014" y1="269.22" x2="154.452" y2="269.006"/>
			
				<line opacity="0.5" fill="none" stroke="#FFAC24" stroke-width="2.4258" stroke-linecap="round" stroke-linejoin="round" stroke-miterlimit="10" x1="152.299" y1="272.477" x2="157.175" y2="272.05"/>
			
				<line opacity="0.5" fill="none" stroke="#FFAC24" stroke-width="2.4258" stroke-linecap="round" stroke-linejoin="round" stroke-miterlimit="10" x1="152.584" y1="275.733" x2="155.021" y2="275.52"/>
			
				<line opacity="0.5" fill="#FFD520" stroke="#FFAC24" stroke-width="2.4258" stroke-linecap="round" stroke-linejoin="round" stroke-miterlimit="10" x1="152.979" y1="278.98" x2="157.854" y2="278.554"/>
			
				<line opacity="0.5" fill="#FFD520" stroke="#FFAC24" stroke-width="2.4258" stroke-linecap="round" stroke-linejoin="round" stroke-miterlimit="10" x1="153.833" y1="288.752" x2="156.271" y2="288.539"/>
			
				<line opacity="0.5" fill="none" stroke="#FFAC24" stroke-width="2.4258" stroke-linecap="round" stroke-linejoin="round" stroke-miterlimit="10" x1="150.589" y1="252.936" x2="155.466" y2="252.509"/>
			
				<line opacity="0.5" fill="none" stroke="#FFAC24" stroke-width="2.4258" stroke-linecap="round" stroke-linejoin="round" stroke-miterlimit="10" x1="150.875" y1="256.192" x2="153.313" y2="255.979"/>
			
				<line opacity="0.5" fill="none" stroke="#FFAC24" stroke-width="2.4258" stroke-linecap="round" stroke-linejoin="round" stroke-miterlimit="10" x1="151.159" y1="259.449" x2="156.035" y2="259.022"/>
			
				<line opacity="0.5" fill="none" stroke="#FFAC24" stroke-width="2.4258" stroke-linecap="round" stroke-linejoin="round" stroke-miterlimit="10" x1="151.444" y1="262.706" x2="153.882" y2="262.492"/>
			
				<line opacity="0.5" fill="none" stroke="#FFAC24" stroke-width="2.4258" stroke-linecap="round" stroke-linejoin="round" stroke-miterlimit="10" x1="149.734" y1="243.165" x2="152.172" y2="242.951"/>
			
				<line opacity="0.5" fill="none" stroke="#FFAC24" stroke-width="2.4258" stroke-linecap="round" stroke-linejoin="round" stroke-miterlimit="10" x1="150.02" y1="246.421" x2="154.895" y2="245.995"/>
			
				<line opacity="0.5" fill="none" stroke="#FFAC24" stroke-width="2.4258" stroke-linecap="round" stroke-linejoin="round" stroke-miterlimit="10" x1="150.304" y1="249.678" x2="152.742" y2="249.465"/>
		</g>
	</g>
</g>
<g id="calque09">
	<g id="table">
		<path fill="#B7B7B7" stroke="#333333" stroke-width="6.4" stroke-miterlimit="10" d="M132.146,442.677
			c-5.03,0-9.108-4.078-9.108-9.108v-24.214c0-5.03,4.078-9.108,9.108-9.108l0,0c5.03,0,9.108,4.078,9.108,9.108v24.214
			C141.255,438.599,137.177,442.677,132.146,442.677L132.146,442.677z"/>
		<path fill="#B7B7B7" stroke="#333333" stroke-width="6.4" stroke-miterlimit="10" d="M209.146,442.677
			c-5.03,0-9.108-4.078-9.108-9.108v-24.214c0-5.03,4.078-9.108,9.108-9.108l0,0c5.03,0,9.108,4.078,9.108,9.108v24.214
			C218.255,438.599,214.177,442.677,209.146,442.677L209.146,442.677z"/>
		<path fill="#D9DADB" stroke="#333333" stroke-width="6.4" stroke-miterlimit="10" d="M235.888,406.437
			c0,5.03-4.078,9.108-9.108,9.108H116.514c-5.03,0-9.108-4.078-9.108-9.108l0,0c0-5.03,4.078-9.108,9.108-9.108h110.266
			C231.81,397.328,235.888,401.406,235.888,406.437L235.888,406.437z"/>
	</g>
</g>
<g id="calque10">
	<g id="bol">
		<g>
			<g>
				<path fill="none" stroke="#D9DADB" stroke-width="3.2" stroke-linecap="round" stroke-miterlimit="10" d="M140.899,372.172
					c-0.054-0.689-0.09-1.38-0.196-2.063c-0.418-3.151-1.428-6.393-3.706-8.713c-1.123-1.148-2.558-1.987-4.109-2.401
					c-1.553-0.42-3.183-0.452-4.778-0.316c-1.594,0.144-3.187,0.572-4.553,1.428c-1.36,0.838-2.607,1.917-4.17,2.371
					c-0.768,0.234-1.565,0.365-2.366,0.413c-0.8,0.058-1.61,0.022-2.393-0.145c-1.579-0.366-2.893-1.459-3.807-2.765
					c-0.366-0.478-0.638-1.016-0.925-1.542"/>
				
					<line fill="none" stroke="#D9DADB" stroke-width="3.2" stroke-linecap="round" stroke-miterlimit="10" x1="108.361" y1="353.668" x2="108.404" y2="353.889"/>
			</g>
		</g>
		
			<path fill="none" stroke="#D9DADB" stroke-width="3.2" stroke-linecap="round" stroke-linejoin="round" stroke-miterlimit="10" d="
			M104.411,353.717c0,0-0.69,11.747,4.854,14.19c3.93,1.731,9.397-1.973,9.397,5.64"/>
		
			<path fill="#4C9E94" stroke="#333333" stroke-width="6.4" stroke-linecap="round" stroke-linejoin="round" stroke-miterlimit="10" d="
			M149.98,375.036H111.67c0,10.579,8.576,19.155,19.155,19.155S149.98,385.615,149.98,375.036z"/>
	</g>
</g>
<g id="calque11">
	<g id="theiere">
		
			<polygon fill="#4C9E94" stroke="#333333" stroke-width="6.4" stroke-linecap="round" stroke-linejoin="round" stroke-miterlimit="10" points="
			177.804,370.175 166.494,362.32 162.725,367.348 178.746,380.855 		"/>
		
			<path fill="#4C9E94" stroke="#333333" stroke-width="6.4" stroke-linecap="round" stroke-linejoin="round" stroke-miterlimit="10" d="
			M224.923,364.196v10.996c0,10.493-8.507,19-19,19h-8.75c-10.493,0-19-8.507-19-19v-10.996H224.923z"/>
		
			<path fill="#4C9E94" stroke="#333333" stroke-width="6.4" stroke-linecap="round" stroke-linejoin="round" stroke-miterlimit="10" d="
			M190.394,363.794h21.363c0-5.899-4.782-10.682-10.682-10.682S190.394,357.895,190.394,363.794z"/>
		
			<path fill="none" stroke="#333333" stroke-width="3.2" stroke-linecap="round" stroke-linejoin="round" stroke-miterlimit="10" d="
			M220.367,362.15v-7.241c0-8.448-6.849-15.299-15.297-15.299h-7.045c-8.448,0-15.297,6.851-15.297,15.299v7.241"/>
		<g>
			<g>
				<path fill="none" stroke="#3A877C" stroke-width="3.2" stroke-linecap="round" stroke-miterlimit="10" d="M217.832,374.785
					c-0.117,0.681-0.171,1.374-0.375,2.037c-0.908,3.713-3.317,7.022-6.555,9.05l-0.77,0.468c-0.264,0.143-0.539,0.264-0.808,0.397"
					/>
				
					<line fill="none" stroke="#3A877C" stroke-width="3.2" stroke-linecap="round" stroke-miterlimit="10" x1="204.514" y1="388.102" x2="204.737" y2="388.068"/>
			</g>
		</g>
		<circle fill="#333333" cx="200.923" cy="347.12" r="2.771"/>
	</g>
</g>
<g id="calque14">
	<g>
		<g>
			<g>
				<path fill="#FCD69D" d="M256.677,297.37c13.707-14.784,32.179-27.303,44.806-21.894c19.482,8.345,17.676,56.198,9.331,75.682
					c-8.344,19.481-26.758,18.832-46.238,10.489c-19.483-8.345-32.655-21.229-24.31-40.709c2.481-5.793,7.177-12.897,13.063-19.803"
					/>
				<g>
					<path fill="none" stroke="#333333" stroke-width="6.4" stroke-linecap="round" stroke-miterlimit="10" d="M258.886,295.055
						c0,0,0.865-0.902,2.439-2.422c0.28-0.269,0.576-0.551,0.886-0.848c0.735-0.691,1.51-1.408,2.333-2.14
						c1.645-1.463,3.466-2.998,5.482-4.55c4.033-3.079,8.833-6.342,14.651-8.69c2.899-1.163,6.091-2.042,9.469-2.19
						c3.359-0.158,6.948,0.628,9.901,2.7c3.012,1.988,5.274,5.051,6.993,8.382c1.736,3.348,2.905,7.049,3.768,10.861
						c1.701,7.646,2.174,15.788,1.881,23.993c-0.322,8.206-1.406,16.542-3.645,24.59c-0.595,1.999-1.213,3.997-2.029,5.917
						c-0.385,0.969-0.898,1.88-1.341,2.822c-0.245,0.459-0.426,0.953-0.722,1.382l-0.842,1.313c-2.238,3.49-5.307,6.471-8.982,8.324
						c-3.663,1.88-7.782,2.63-11.796,2.635c-4.028,0.003-7.987-0.651-11.77-1.641c-7.546-2.083-14.539-5.137-20.721-8.771
						c-3.051-1.879-5.929-3.882-8.391-6.199c-2.446-2.325-4.517-4.879-6.045-7.619c-1.448-2.787-2.266-5.706-2.597-8.543
						c-0.015-0.713-0.03-1.417-0.045-2.112c-0.007-0.348-0.014-0.692-0.021-1.035c0.039-0.34,0.077-0.678,0.116-1.014
						c0.077-0.671,0.152-1.333,0.227-1.985c0.086-0.649,0.289-1.269,0.424-1.889c0.151-0.618,0.299-1.225,0.445-1.823
						c0.212-0.577,0.421-1.145,0.626-1.703c0.206-0.557,0.407-1.105,0.605-1.642c0.208-0.533,0.49-1.022,0.724-1.52
						c0.488-0.986,0.957-1.933,1.404-2.837c0.207-0.462,0.487-0.869,0.732-1.283c0.181-0.298,0.358-0.588,0.53-0.871
						c1.138-1.868,1.788-2.936,1.788-2.936"/>
					
						<line fill="none" stroke="#333333" stroke-width="6.4" stroke-linecap="round" stroke-miterlimit="10" x1="251.324" y1="303.628" x2="251.042" y2="303.979"/>
				</g>
			</g>
		</g>
		<g>
			<g>
				<polyline fill="none" stroke="#DDB37C" stroke-width="3.2" stroke-linecap="round" stroke-miterlimit="10" points="
					259.569,343.006 261.477,343.818 274.862,349.517 276.52,350.223 				"/>
				
					<line fill="none" stroke="#DDB37C" stroke-width="3.2" stroke-linecap="round" stroke-miterlimit="10" x1="281.143" y1="352.191" x2="280.936" y2="352.103"/>
			</g>
		</g>
		<g>
			<circle fill="#333333" cx="261.919" cy="311.248" r="6.14"/>
			<circle fill="#333333" cx="302.887" cy="328.797" r="6.14"/>
		</g>
		<polygon fill="#C69088" stroke="#333333" stroke-width="6.4" stroke-linejoin="round" stroke-miterlimit="10" points="
			277.487,311.235 324.644,209.792 323.465,204.795 331.278,186.444 347.545,193.369 339.732,211.721 335.314,214.334 
			294.876,318.639 		"/>
		
			<line fill="none" stroke="#333333" stroke-width="3.2" stroke-linecap="round" stroke-linejoin="round" stroke-miterlimit="10" x1="323.236" y1="215.688" x2="332.062" y2="219.445"/>
		
			<line fill="none" stroke="#333333" stroke-width="3.2" stroke-linecap="round" stroke-linejoin="round" stroke-miterlimit="10" x1="318.699" y1="226.345" x2="327.524" y2="230.103"/>
		
			<line fill="none" stroke="#333333" stroke-width="3.2" stroke-linecap="round" stroke-linejoin="round" stroke-miterlimit="10" x1="314.162" y1="237.003" x2="322.987" y2="240.76"/>
		
			<line fill="none" stroke="#333333" stroke-width="3.2" stroke-linecap="round" stroke-linejoin="round" stroke-miterlimit="10" x1="309.624" y1="247.66" x2="318.45" y2="251.417"/>
		
			<line fill="none" stroke="#333333" stroke-width="3.2" stroke-linecap="round" stroke-linejoin="round" stroke-miterlimit="10" x1="305.087" y1="258.317" x2="313.913" y2="262.075"/>
		
			<line fill="none" stroke="#333333" stroke-width="3.2" stroke-linecap="round" stroke-linejoin="round" stroke-miterlimit="10" x1="300.55" y1="268.975" x2="309.375" y2="272.732"/>
		
			<line fill="none" stroke="#333333" stroke-width="3.2" stroke-linecap="round" stroke-linejoin="round" stroke-miterlimit="10" x1="293.393" y1="278.517" x2="307.458" y2="284.505"/>
		
			<line fill="none" stroke="#333333" stroke-width="3.2" stroke-linecap="round" stroke-linejoin="round" stroke-miterlimit="10" x1="289.099" y1="289.278" x2="302.677" y2="295.059"/>
		
			<line fill="none" stroke="#333333" stroke-width="3.2" stroke-linecap="round" stroke-linejoin="round" stroke-miterlimit="10" x1="282.915" y1="299.234" x2="299.787" y2="306.417"/>
	</g>
</g>
<g id="calque15">
	<g>
		
			<path fill="#F46245" stroke="#333333" stroke-width="6.4" stroke-linecap="round" stroke-linejoin="round" stroke-miterlimit="10" d="
			M140.005,245.757l-42.747,25.906l-30.748,39.408c18.654,14.588,45.625,14.25,63.956-2.041
			C148.797,292.741,152.301,265.996,140.005,245.757z"/>
		<g>
			<g>
				<polyline fill="none" stroke="#333333" stroke-width="3.2" stroke-linecap="round" stroke-miterlimit="10" points="
					98.322,272.859 99.699,274.409 122.146,299.667 123.342,301.014 				"/>
				
					<line fill="none" stroke="#333333" stroke-width="3.2" stroke-linecap="round" stroke-miterlimit="10" x1="126.68" y1="304.771" x2="126.531" y2="304.602"/>
			</g>
		</g>
		<g>
			<g>
				<polyline fill="none" stroke="#333333" stroke-width="3.2" stroke-linecap="round" stroke-miterlimit="10" points="
					96.66,273.147 95.884,275.069 83.233,306.405 82.558,308.075 				"/>
				
					<line fill="none" stroke="#333333" stroke-width="3.2" stroke-linecap="round" stroke-miterlimit="10" x1="80.677" y1="312.734" x2="80.761" y2="312.526"/>
			</g>
		</g>
		<g>
			<g>
				<polyline fill="none" stroke="#333333" stroke-width="3.2" stroke-linecap="round" stroke-miterlimit="10" points="
					98.849,271.843 100.909,272.075 134.487,275.863 136.278,276.065 				"/>
				
					<line fill="none" stroke="#333333" stroke-width="3.2" stroke-linecap="round" stroke-miterlimit="10" x1="141.271" y1="276.629" x2="141.047" y2="276.604"/>
			</g>
		</g>
		<g>
			<g>
				<polyline fill="none" stroke="#333333" stroke-width="3.2" stroke-linecap="round" stroke-miterlimit="10" points="
					97.805,273.167 98.512,275.116 110.043,306.881 110.657,308.574 				"/>
				
					<line fill="none" stroke="#333333" stroke-width="3.2" stroke-linecap="round" stroke-miterlimit="10" x1="112.372" y1="313.298" x2="112.295" y2="313.086"/>
			</g>
		</g>
		<g>
			<g>
				<polyline fill="none" stroke="#333333" stroke-width="3.2" stroke-linecap="round" stroke-miterlimit="10" points="
					98.67,272.417 100.499,273.395 130.304,289.319 131.893,290.168 				"/>
				
					<line fill="none" stroke="#333333" stroke-width="3.2" stroke-linecap="round" stroke-miterlimit="10" x1="136.325" y1="292.536" x2="136.126" y2="292.43"/>
			</g>
		</g>
		<g>
			<g>
				<polyline fill="none" stroke="#333333" stroke-width="3.2" stroke-linecap="round" stroke-miterlimit="10" points="
					97.21,273.263 97.148,275.335 96.129,309.113 96.075,310.914 				"/>
				
					<line fill="none" stroke="#333333" stroke-width="3.2" stroke-linecap="round" stroke-miterlimit="10" x1="95.923" y1="315.937" x2="95.93" y2="315.711"/>
			</g>
		</g>
		<g>
			<g>
				<polyline fill="none" stroke="#333333" stroke-width="3.2" stroke-linecap="round" stroke-miterlimit="10" points="
					98.813,271.281 100.826,270.786 133.641,262.713 135.39,262.283 				"/>
				
					<line fill="none" stroke="#333333" stroke-width="3.2" stroke-linecap="round" stroke-miterlimit="10" x1="140.27" y1="261.083" x2="140.051" y2="261.137"/>
			</g>
		</g>
		
			<circle fill="#FFFFFF" stroke="#333333" stroke-width="6.4" stroke-linecap="round" stroke-linejoin="round" stroke-miterlimit="10" cx="97.258" cy="271.664" r="7.328"/>
	</g>
</g>
</svg>
